<!-- SPDX-FileCopyrightText: © 2025 Schneider Electric SPDX-License-Identifier: LicenseRef-Proprietary -->
<svg xmlns="http://www.w3.org/2000/svg" viewBox="0 0 16 16"><path d="m15.797 3.066-1.99-1.472a.5.5 0 0 0-.441-.077L1.05 5.224a.5.5 0 0 0-.283.219c-.082.134-.795 1.34-.695 2.282a.5.5 0 0 0 .638.426l11.102-3.268c-.094.622-.126 1.577.06 2.995.195 1.491.539 2.425.847 2.993l-.82.099c-.248-.381-.76-.771-1.685-.771-1.29 0-6.671 1.075-6.91 1.123-.328.072-.948.409-.948 1.163a.5.5 0 0 0 1 0c0-.117.095-.168.154-.185 1.529-.307 5.715-1.102 6.704-1.102.769 0 .877.362.884.386a.496.496 0 0 0 .554.421l2.036-.244a.5.5 0 0 0 .413-.361.51.51 0 0 0-.169-.532c-.008-.006-.743-.636-1.067-3.12-.329-2.508.096-3.331.095-3.331a.5.5 0 0 0-.563-.749L1.164 6.977a5 5 0 0 1 .365-.852l11.885-3.578L15 3.72v8.591L2.177 13.48C1.056 11.914.981 10.247 1.003 9.582a.5.5 0 0 0-.483-.517c-.247-.004-.507.207-.516.483-.034.999.123 2.947 1.547 4.764a.5.5 0 0 0 .394.191l.045-.002 13.556-1.236a.5.5 0 0 0 .454-.498V3.468a.5.5 0 0 0-.203-.402Z"/></svg>