<!-- SPDX-FileCopyrightText: © 蚂蚁科技集团股份有限公司 SPDX-License-Identifier: LicenseRef-Proprietary -->
<svg xmlns="http://www.w3.org/2000/svg" version="1.1" viewBox="0 0 169.998 37.982"><path fill="#373530" d="M31.395 5.886c-.23 0-.466.064-.68.192-.21.13-.367.312-.469.52L20.147 27.274h3.58l1.809-3.493h10.307l1.679 3.493h5.365L32.863 5.886zm14.476 0a.95.95 0 0 0-.663.27.9.9 0 0 0-.276.65v20.468h4.855V5.886zm42.035 5.29c-1.542.017-3.297.245-5.323.762.132.397.31 1.1.436 1.509 6.413-1.118 7.65-.25 7.65 2.463v.848c-1.17-.081-2.552-.276-3.682-.293-4.386-.068-5.978 3.35-5.978 5.509 0 3.775 3.67 7.277 9.66 4.692v.603h5.01V15.756c0-2.236-1.97-3.585-3.731-4.074-1.173-.327-2.5-.522-4.042-.505zm-15.483.005c-.974 0-1.823.142-2.549.44a7.7 7.7 0 0 0-1.933 1.116v-1.234h-3.969a.97.97 0 0 0-.666.27.9.9 0 0 0-.279.654V33.48h4.914v-6.323q.666.262 1.37.34.704.07 1.67.071 1.905 0 3.438-.672a7.6 7.6 0 0 0 2.617-1.88q1.083-1.195 1.662-2.835.576-1.638.576-3.581.002-1.513-.488-2.856a7.2 7.2 0 0 0-1.39-2.36 6.7 6.7 0 0 0-2.162-1.612c-.843-.398-1.781-.592-2.811-.592zm24.572.028 7.877 14.936-.57 1.265c-.112.237-.24.5-.385.798-.143.302-.367.742-.579.975-.956 1.053-3.139 1.028-3.792 1.028v2.652c.87 0 5.62.674 7.577-4.105l8.136-17.549h-2.768c-.204 0-.407.053-.592.166-.184.122-.32.282-.401.461l-4.206 9.106-5.11-9.733zm-42.004.294a.95.95 0 0 0-.663.268.9.9 0 0 0-.273.646v14.857h4.886V11.503zM30.788 12.84l4.388 9.239H26.22zM71.1 13.973a2 2 0 0 1 1.187.389c.36.263.67.646.932 1.169q.392.78.609 1.933.217 1.152.215 2.682 0 1.19-.246 2.206-.247 1.015-.66 1.741c-.277.489-.599.865-.97 1.137-.372.274-.768.415-1.187.415q-.678-.001-1.24-.214a2.9 2.9 0 0 1-.963-.59 2.6 2.6 0 0 1-.618-.881 2.7 2.7 0 0 1-.218-1.079V15.93q.3-.395.662-.759c.243-.242.493-.447.762-.626a3.7 3.7 0 0 1 .832-.419 2.7 2.7 0 0 1 .903-.152zm17.676 4.695c.935-.014 1.526.174 1.892.4v5.407a3.4 3.4 0 0 1-2.314.898c-1.873 0-3.391-1.484-3.391-3.32 0-1.83 1.524-3.23 3.39-3.366a7 7 0 0 1 .423-.019z"/><path fill="#00aeef" d="M56.482 4.501c-1.456 0-2.636 1.044-2.636 2.33s1.18 2.334 2.636 2.334c1.458 0 2.638-1.047 2.638-2.334 0-1.286-1.18-2.33-2.638-2.33zm64.06 6.769a.33.33 0 0 0-.327.328v15.517c0 .18.146.328.327.328h2.961v-6.77h5.374c.181 0 .328.148.328.328v6.114c0 .18.146.328.327.328h2.96V11.27h-2.96a.33.33 0 0 0-.327.328v5.954a.33.33 0 0 1-.328.328h-5.374v-6.61zm16.188 0a.33.33 0 0 0-.327.328v15.517c0 .18.146.328.327.328h2.918v-4.861l2.148-2.499 4.177 7.196a.33.33 0 0 0 .284.164h3.594l-5.908-9.744 5.51-6.429h-3.792a.33.33 0 0 0-.251.118l-5.473 6.576a.164.164 0 0 1-.29-.105V11.27z"/></svg>