<!-- SPDX-FileCopyrightText: Copyright © 2024 American Express Company SPDX-License-Identifier: LicenseRef-Proprietary -->
<svg xmlns="http://www.w3.org/2000/svg" version="1.1" viewBox="0 0 58 58"><path fill="#ffffff" d="m53.1 43.3-2.6-2.9-2.7 2.9h-5.2v0H31.4V30.1H26l6.6-14.9H39l2.3 5.1v-5.1h7.9l1.3 3.9 1.3-3.9h6V13c0-1.3-1.1-2.5-2.5-2.5H2.5C1.1 10.6 0 11.7 0 13v32c0 1.3 1.1 2.5 2.5 2.5h53c1.3 0 2.5-1.1 2.5-2.5v-1.6z"/><path fill="#ffffff" d="m46.9 41.8 3.5-3.7 3.4 3.7h4.1L52.5 36l5.4-5.7h-4L50.4 34l-3.3-3.7h-4.2l5.5 5.8-5.5 5.7zm-4 0v-2.7h-6.6v-1.7h6.4v-2.7h-6.4V33h6.6v-2.7h-9.8v11.5zm6.2-13.2h2.8l2.9-8.1v8.1h3.1V17l-4.8.1-2.6 7.2-2.6-7.2h-5v11.5h3.2v-8.1zM37.8 17.1h-4.1l-5.1 11.6h3.5l.9-2.4h5.3l1 2.4h3.6zm-3.7 6.6 1.5-3.8 1.5 3.8z"/><path fill="#ffffff" d="m57.9 38.8.1-6.3-3 3.2z"/></svg>