<!-- SPDX-FileCopyrightText: © 2025 Schneider Electric SPDX-License-Identifier: LicenseRef-Proprietary -->
<svg xmlns="http://www.w3.org/2000/svg" viewBox="0 0 16 16"><path d="M15.641 7.348c-.25-.23-.604-.348-1.052-.348H8.618q-.615 0-.989.349c-.367.354-.371 1.16-.371 1.194 0 .274.075.814.359 1.101q.356.354 1.01.355h0l1.365-.025v4.166c0 .593.021 1.108.281 1.424.321.379.993.42 1.267.42.297 0 .842-.054 1.151-.419.14-.171.301-.487.301-1.425v-2.641a.5.5 0 0 0-1 0v2.641c0 .567-.068.765-.062.775-.047.029-.195.068-.39.068-.241 0-.476-.052-.481-.036q-.066-.136-.066-.808V9.464c0-.134-.054-.263-.149-.356s-.229-.16-.359-.144l-1.866.034a.7.7 0 0 1-.276-.042 1.1 1.1 0 0 1-.084-.414c0-.179.053-.438.059-.469.07-.065.219-.075.301-.075h5.971c.294 0 .351.06.352.058.042.065.098.304.099.465 0 .157-.057.366-.067.393-.028.025-.124.085-.383.085h-2.097a.5.5 0 0 0 0 1h2.097q.66 0 1.049-.339c.396-.359.401-1.107.401-1.141 0-.008-.008-.816-.398-1.173Zm-9.614-.372a3.2 3.2 0 0 1-1.783.532 3.255 3.255 0 0 1 0-6.508 3.2 3.2 0 0 1 1.793.539.5.5 0 1 0 .553-.833A4.26 4.26 0 0 0 4.244 0C1.9 0-.007 1.909-.007 4.254S1.9 8.508 4.243 8.508a4.26 4.26 0 0 0 2.331-.695.5.5 0 0 0-.547-.837Z"/><path d="M8.869 3.476 3.494 3.47h0a.5.5 0 0 0 0 1l5.261.006-.866.812a.5.5 0 1 0 .684.73l1.886-1.768a.5.5 0 0 0-.017-.744L8.555 1.894a.5.5 0 0 0-.65.76l.963.824Z"/></svg>