<!-- SPDX-FileCopyrightText: © 2025 Schneider Electric SPDX-License-Identifier: LicenseRef-Proprietary -->
<svg xmlns="http://www.w3.org/2000/svg" viewBox="0 0 16 16"><path d="M13.403 5H9.5a.5.5 0 0 0 0 1h3.903C14.284 6 15 6.716 15 7.597v2.807c0 .881-.716 1.597-1.597 1.597H2.597c-.88 0-1.597-.716-1.597-1.597V7.597C1 6.717 1.716 6 2.597 6h3.267L4.683 7.171a.5.5 0 0 0 .704.71l1.93-1.915a.5.5 0 0 0 .026-.683L5.433 3.08a.501.501 0 0 0-.756.656l1.096 1.263H2.597A2.6 2.6 0 0 0 0 7.596v2.807A2.6 2.6 0 0 0 2.597 13h10.807a2.6 2.6 0 0 0 2.597-2.597V7.596a2.6 2.6 0 0 0-2.597-2.597Z"/></svg>