<!-- SPDX-FileCopyrightText: © 2025 Schneider Electric SPDX-License-Identifier: LicenseRef-Proprietary -->
<svg xmlns="http://www.w3.org/2000/svg" viewBox="0 0 16 16"><path d="M9.5 13a.5.5 0 0 0-.5.5V15H1.054L1.002 1H9v1.5a.5.5 0 0 0 1 0v-2a.5.5 0 0 0-.5-.5h-9a.5.5 0 0 0-.5.502l.056 15a.5.5 0 0 0 .5.498H9.5a.5.5 0 0 0 .5-.5v-2a.5.5 0 0 0-.5-.5Z"/><path d="M15.5 7.5H5.384l2.364-1.992a.5.5 0 0 0-.645-.765L3.61 7.687a.5.5 0 0 0 .009.772l3.493 2.805a.5.5 0 0 0 .702-.077.5.5 0 0 0-.077-.703L5.266 8.5h10.232a.5.5 0 0 0 0-1Z"/></svg>