<!-- SPDX-FileCopyrightText: © 2025 Schneider Electric SPDX-License-Identifier: LicenseRef-Proprietary -->
<svg xmlns="http://www.w3.org/2000/svg" viewBox="0 0 16 16"><path d="M15.191.808c-.992-.993-2.511-.796-2.528-.79L6.736.307a1.6 1.6 0 0 0-1.16.421c-.373.353-.555.875-.541 1.553.015.705.312 1.123.559 1.348.584.536 1.386.501 1.428.495l2.851.058a.515.515 0 0 0 .51-.49.5.5 0 0 0-.49-.51l-2.894-.057c-.006-.002-.457.017-.73-.233-.152-.139-.229-.346-.234-.633-.006-.26.028-.609.221-.799.167-.164.41-.155.465-.156l6.033-.292c.011-.002 1.094-.136 1.73.501.638.638.504 1.723.499 1.776l-.287 6.046s.008.243-.157.411c-.189.192-.539.234-.798.221-.294-.006-.505-.083-.644-.234-.207-.226-.23-.601-.22-.771l-.048-2.838a.498.498 0 0 0-.853-.346l-8.913 8.899c-.438.439-1.218.411-1.686-.058-.48-.48-.504-1.239-.053-1.691l7.089-7.087a.5.5 0 0 0-.707-.707L.618 12.221c-.841.842-.818 2.235.053 3.105A2.25 2.25 0 0 0 2.275 16h0c.568 0 1.1-.219 1.496-.616l8.079-8.067.029 1.612c-.008.089-.057.883.472 1.47.226.251.647.554 1.369.569.673.006 1.199-.166 1.552-.54a1.56 1.56 0 0 0 .422-1.098l.283-5.947c.009-.064.207-1.582-.786-2.576Z"/></svg>