<!-- SPDX-FileCopyrightText: © 2025 Schneider Electric SPDX-License-Identifier: LicenseRef-Proprietary -->
<svg xmlns="http://www.w3.org/2000/svg" viewBox="0 0 16 16"><path d="M15.5 7a.5.5 0 0 0 .5-.5V2.491c0-.438-.225-.834-.6-1.06s-.83-.237-1.299.021L8.999 5.59v-3.1a1.23 1.23 0 0 0-.591-1.07 1.19 1.19 0 0 0-1.175-.021.5.5 0 0 0-.087.06L1 6.658V1.632a.5.5 0 0 0-1 0v12.701a.5.5 0 0 0 1 0V9.425l6.149 5.135a1 1 0 0 0 .085.058c.379.203.818.192 1.174-.021.371-.222.592-.623.592-1.071v-3.091l5.098 4.23a1 1 0 0 0 .084.057 1.24 1.24 0 0 0 1.218-.032c.376-.226.601-.622.601-1.061v-4.13a.5.5 0 0 0-1 0v4.13c0 .121-.08.183-.115.203a.23.23 0 0 1-.198.021L8.821 8.984a.502.502 0 0 0-.815.449l-.004.065v4.025c0 .136-.074.194-.105.214a.18.18 0 0 1-.154.012L1.136 8.243a.23.23 0 0 1-.117-.204c0-.051.015-.144.184-.252l6.538-5.521a.17.17 0 0 1 .153.012c.032.019.105.078.105.213V6.5q0 .036.005.07a.501.501 0 0 0 .81.458l5.836-4.746a.23.23 0 0 1 .234.006.23.23 0 0 1 .114.203V6.5a.5.5 0 0 0 .5.5Z"/></svg>