<!-- SPDX-FileCopyrightText: © 2025 Schneider Electric SPDX-License-Identifier: LicenseRef-Proprietary -->
<svg xmlns="http://www.w3.org/2000/svg" viewBox="0 0 16 16"><path d="M14.5 12H12V9.5a.5.5 0 0 0-1 0V12H8.5a.5.5 0 0 0 0 1H11v2.5a.5.5 0 0 0 1 0V13h2.5a.5.5 0 0 0 0-1Zm-9.404 1H1V7.5a.5.5 0 0 0-1 0v6a.5.5 0 0 0 .5.5h4.596a.5.5 0 0 0 0-1ZM15.5 5h-5a.5.5 0 0 0-.5.5V7H6V5.5a.5.5 0 0 0-.5-.5H1V4h14.5a.5.5 0 0 0 0-1H11v-.5C11 1.051 10.196 0 9.089 0H6.677c-1.232 0-1.64 1.118-1.774 1.485a.5.5 0 0 0 .939.343C6.108 1.1 6.4 1 6.676 1h2.412c.599 0 .911.754.911 1.5V3H.5a.5.5 0 0 0-.5.5v2a.5.5 0 0 0 .5.5H5v1.5a.5.5 0 0 0 .5.5h5a.5.5 0 0 0 .5-.5V6h4v2.5a.5.5 0 0 0 1 0v-3a.5.5 0 0 0-.5-.5Z"/></svg>