<!-- SPDX-FileCopyrightText: © 2025 Schneider Electric SPDX-License-Identifier: LicenseRef-Proprietary -->
<svg xmlns="http://www.w3.org/2000/svg" viewBox="0 0 16 16"><path d="M6 7.5a.5.5 0 0 0 .5.5h1.004v1.109a.5.5 0 0 0 1 0V8H9.5a.5.5 0 0 0 0-1h-.996V5.952a.5.5 0 0 0-1 0V7H6.5a.5.5 0 0 0-.5.5Z"/><path d="M16 6.903q0-.264-.029-.522l.013-.086h-.022c-.356-2.737-3.089-4.943-6.76-5.357a.52.52 0 0 0-.556.499c0 .25.189.467.444.496 3.275.369 5.769 2.4 5.904 4.768l.002.364c-.118 2.701-3.209 4.872-6.992 4.872S1.1 9.744 1.01 7.025v-.121l-.002-.036q.004-.031.004-.062c.048-2.349 2.419-4.384 5.642-4.841a.5.5 0 0 0 .425-.566.5.5 0 0 0-.565-.425C2.828 1.497.108 3.909.012 6.724a.5.5 0 0 0-.004.179q0 .07.002.139c-.015.225-.013.668-.005 1.652v.131h.001v.004l.001.204c0 2.944 2.784 5.444 6.619 5.944a.5.5 0 0 0 .129-.993c-2.854-.372-5.037-1.954-5.604-3.977 1.401 1.753 3.948 2.927 6.853 2.927s5.469-1.183 6.866-2.944c-.531 1.945-2.646 3.543-5.415 3.966a.5.5 0 0 0 .15.988C13.31 14.379 16 11.892 16 9.032c0-.805 0-1.41-.008-1.867A5 5 0 0 0 16 6.902Z"/></svg>