<!-- SPDX-FileCopyrightText: © 2025 Schneider Electric SPDX-License-Identifier: LicenseRef-Proprietary -->
<svg xmlns="http://www.w3.org/2000/svg" viewBox="0 0 16 16"><path d="M5.904 3.753c-.077-.191-.269-.333-.467-.315a.5.5 0 0 0-.464.32L2.38 10.466a.5.5 0 1 0 .932.36l.701-1.814 2.784-.303.648 1.631a.5.5 0 1 0 .929-.369L5.902 3.754ZM4.42 7.961l1.026-2.654.969 2.437z"/><path d="M15.578 11.238a.5.5 0 0 0 .422-.494V3.658a.5.5 0 0 0-.418-.493l-3.769-.628L13 1.799v.31a.5.5 0 0 0 1 0V.898a.5.5 0 0 0-.765-.424L10.623 2.1a.5.5 0 0 0-.186.208L6.606 1.67l.52-.334A.5.5 0 0 0 8 1.003V.501a.501.501 0 0 0-.77-.42L5.237 1.362a1 1 0 0 0-.083.066L1.372.796a.51.51 0 0 0-.417.122l-.79.714A.5.5 0 0 0 0 2.003v10.373a.5.5 0 0 0 .16.367l.856.793a.5.5 0 0 0 .431.124l4.552-.841-.002 1.38-5.106.807a.501.501 0 0 0 .156.988l5.527-.873a.5.5 0 0 0 .422-.493l.003-2.347a.5.5 0 0 0-.054-.296.494.494 0 0 0-.533-.259l-4.901.905-.512-.475V2.225l.446-.403 13.554 2.259v6.236l-4.58.72a.5.5 0 0 0-.42.52V13.5a.5.5 0 0 0 .235.424q0 .019.004.038a.507.507 0 0 0 .572.416l4.767-.752a.5.5 0 0 0 .416-.572.51.51 0 0 0-.572-.416l-4.422.698v-1.378l4.578-.72Z"/><path d="M11.872 9.381a.5.5 0 0 0 .998-.043v-4a.5.5 0 0 0-1 0v1.618c-.432-.5-1.144-.938-2.067-.593-1.122.416-1.164 1.653-1.033 2.234.086.442.553 1.279 1.704 1.279.586 0 1.066-.179 1.398-.496Zm-2.123-.987c-.008-.036-.181-.878.401-1.094a.8.8 0 0 1 .285-.054c.55 0 .862.622.901.703a.5.5 0 0 0 .046.079l-.005.07c0 .517-.305.778-.904.778-.566 0-.697-.367-.725-.482Z"/></svg>