<!-- SPDX-FileCopyrightText: © 2025 Schneider Electric SPDX-License-Identifier: LicenseRef-Proprietary -->
<svg xmlns="http://www.w3.org/2000/svg" viewBox="0 0 16 16"><path d="m8.619 8.117 3.89-3.685a.5.5 0 0 0-.04-.76L7.804.103a.501.501 0 0 0-.803.398l.003 5a.5.5 0 0 0 1 0l-.002-3.987 3.395 2.598-3.51 3.324-3.473-3.235a.5.5 0 0 0-.682.732l3.427 3.192-3.424 3.243a.5.5 0 1 0 .688.727l3.47-3.286 3.483 3.245-3.373 2.464-.002-3.016a.5.5 0 0 0-1 0l.002 4a.5.5 0 0 0 .795.403l4.657-3.401a.5.5 0 0 0 .046-.77L8.62 8.119Z"/></svg>