<!-- SPDX-FileCopyrightText: © 2025 Schneider Electric SPDX-License-Identifier: LicenseRef-Proprietary -->
<svg xmlns="http://www.w3.org/2000/svg" viewBox="0 0 16 16"><path d="M13.681 5.921 8.692 4.02a.5.5 0 0 0-.392.016L4.286 5.937a.499.499 0 0 0-.014.897L8 8.747v4.137a.5.5 0 0 0 1 0V8.781l2.217-1.034a.5.5 0 1 0-.423-.907L8.531 7.895 5.63 6.407l2.905-1.376 4.468 1.703L13 12.048l-4.479 2.24L5 12.183V8.5a.5.5 0 0 0-1 0v3.966c0 .176.092.339.244.429l4 2.392a.49.49 0 0 0 .48.018l5-2.501a.5.5 0 0 0 .276-.447l.003-5.967a.5.5 0 0 0-.322-.468Z"/><path d="M15.5 0a.5.5 0 0 0-.5.5v1.958A8.8 8.8 0 0 0 8.871 0C3.979 0 0 3.979 0 8.871a8.81 8.81 0 0 0 3.454 7.025.5.5 0 0 0 .611-.791A7.82 7.82 0 0 1 1 8.871C1 4.531 4.531 1 8.871 1c1.958 0 3.8.706 5.244 2h-1.614a.5.5 0 0 0 0 1h3a.5.5 0 0 0 .5-.5v-3a.5.5 0 0 0-.5-.5Z"/></svg>