<!-- SPDX-FileCopyrightText: © 2025 Schneider Electric SPDX-License-Identifier: LicenseRef-Proprietary -->
<svg xmlns="http://www.w3.org/2000/svg" viewBox="0 0 16 16"><path d="M15.444 9H14V6.939a.5.5 0 0 0-.322-.467l-2-.759a.5.5 0 0 0-.678.468v3.82h-1v-5.9a.5.5 0 0 0-.327-.469l-2-.738A.502.502 0 0 0 7 3.363v4.638h-.819l-.049-1.196a.5.5 0 0 0-.189-.372l-1.145-.907a.5.5 0 0 0-.608-.01l-.988.731a.5.5 0 0 0-.203.402v2.343l-1.997-.028c.084-4.58 2.062-7.226 5.884-7.866 3.109-.521 6.217 1.098 7.553 3.939.27.572.46 1.182.566 1.812a.5.5 0 0 0 .986-.166 8 8 0 0 0-.648-2.073C13.819 1.368 10.276-.48 6.722.112 2.324.849 0 4.016 0 9.271q0 .048.009.093a.5.5 0 0 0 .484.593l3 .043c.126-.02.263-.05.358-.144A.5.5 0 0 0 4 9.5V6.901l.478-.354.665.526.06 1.446a.5.5 0 0 0 .5.479h1.798a.5.5 0 0 0 .5-.5v-4.42l1 .369v6.051a.5.5 0 0 0 .5.5h2a.5.5 0 0 0 .5-.5V6.902l1 .38v2.216a.5.5 0 0 0 .5.5h1.34a4.2 4.2 0 0 1-.415 1.05c-1.393 2.474-3.795 3.95-6.425 3.95-2.418 0-4.818-1.261-6.264-3.291a.5.5 0 0 0-.814.58c1.629 2.289 4.342 3.711 7.078 3.711 2.996 0 5.724-1.667 7.296-4.46.321-.569.532-1.204.64-1.947a.5.5 0 0 0-.491-.593Z"/></svg>