<!-- SPDX-FileCopyrightText: © 2025 Schneider Electric SPDX-License-Identifier: LicenseRef-Proprietary -->
<svg xmlns="http://www.w3.org/2000/svg" viewBox="0 0 16 16"><path d="M8.994 4.006V5.5c0 .279.227.506.506.506h2a.507.507 0 0 0 .506-.506V4.006h1.988V6.5a.507.507 0 0 0 1.012 0v-3a.507.507 0 0 0-.506-.506h-3a.507.507 0 0 0-.506.506v1.494h-.988V3.5a.507.507 0 0 0-.506-.506H8.006V.5A.507.507 0 0 0 7.5-.006h-4A.507.507 0 0 0 2.994.5v3.494H2.5a.507.507 0 0 0-.506.506v6.494H.5a.507.507 0 0 0 0 1.012h2a.507.507 0 0 0 .506-.506V5.006H3.5a.507.507 0 0 0 .506-.506V1.006h2.988V3.5c0 .279.227.506.506.506z"/><path d="m15.678 12.073-.504-.189a3.6 3.6 0 0 0 .004-.765l.543-.272a.504.504 0 0 0 .26-.587 4.56 4.56 0 0 0-1.13-1.968.51.51 0 0 0-.698-.024l-.388.347a3.5 3.5 0 0 0-.672-.393l.015-.638a.505.505 0 0 0-.386-.503 4.4 4.4 0 0 0-2.119.013.506.506 0 0 0-.373.574l.091.54a3.7 3.7 0 0 0-.698.401l-.455-.341a.504.504 0 0 0-.668.054 4.56 4.56 0 0 0-1.083 1.881.505.505 0 1 0 .972.281 3.6 3.6 0 0 1 .554-1.121l.394.296a.504.504 0 0 0 .652-.038 2.5 2.5 0 0 1 1.039-.594.503.503 0 0 0 .361-.57l-.079-.467q.387-.044.776.002l-.013.564a.5.5 0 0 0 .355.494 2.44 2.44 0 0 1 .989.596.51.51 0 0 0 .691.017l.332-.296q.126.17.231.356.115.201.202.417l-.479.24a.506.506 0 0 0-.267.559 2.6 2.6 0 0 1-.015 1.15.51.51 0 0 0 .313.593l.439.165a3.5 3.5 0 0 1-.416.741l-.41-.28a.51.51 0 0 0-.633.049 2.4 2.4 0 0 1-.43.319c-.15.09-.338.166-.594.241a.505.505 0 0 0-.356.569l.081.483a3.3 3.3 0 0 1-.804.003l.019-.554a.505.505 0 0 0-.355-.5 2.5 2.5 0 0 1-.984-.581.51.51 0 0 0-.656-.039l-.389.295a3.6 3.6 0 0 1-.402-.701l2.155-.949a.51.51 0 0 0 .302-.463.707.707 0 1 1 .996.646.505.505 0 1 0 .416.922 1.72 1.72 0 0 0 1.014-1.568 1.72 1.72 0 0 0-1.719-1.718 1.72 1.72 0 0 0-1.683 1.372l-2.319 1.021a.506.506 0 0 0-.282.604 4.6 4.6 0 0 0 1.079 1.875.506.506 0 0 0 .67.054l.45-.34a3.5 3.5 0 0 0 .683.397l-.021.629a.51.51 0 0 0 .387.51 4.4 4.4 0 0 0 2.153-.025.506.506 0 0 0 .369-.573l-.092-.547a3 3 0 0 0 .686-.385l.476.325c.205.141.483.11.654-.07.51-.541.882-1.21 1.077-1.934a.505.505 0 0 0-.31-.605Z"/></svg>