<!-- SPDX-FileCopyrightText: © 2025 Schneider Electric SPDX-License-Identifier: LicenseRef-Proprietary -->
<svg xmlns="http://www.w3.org/2000/svg" viewBox="0 0 16 16"><path d="M15.78 8.142c-1.18-.798-2.367-1.936-3.533-3.388a2 2 0 0 0-.289-.361l-.012-.012c-.955-.938-2.731-.835-4.495.242C5.888 3.163 4.869 2.026 3.358.341l-.009-.01L3.33.312c-.574-.563-1.652-.351-2.51.5C.306 1.321 0 1.95 0 2.493c0 .32.104.597.301.804l.163.199c2.048 2.5 3.078 3.758 6.246 6.157.583.535 1.642.317 2.489-.521.714-.709.998-1.598.707-2.211a.5.5 0 0 0-.904.429c.066.139-.047.616-.507 1.072-.525.52-1.025.572-1.107.496l-.027-.025-.031-.025C4.526 6.746 3.492 5.602 1.778 3.52a3 3 0 0 0 1.061-.696.5.5 0 0 0-.704-.71c-.524.52-1.023.573-1.106.496l-.002-.002c-.011-.013-.024-.05-.024-.114 0-.225.162-.612.524-.971.517-.513 1.007-.571 1.102-.5 1.856 2.071 2.983 3.326 5.274 5.361a.5.5 0 1 0 .664-.748l-.342-.305c1.241-.687 2.426-.798 3.005-.252l.2.253q.187.323.187.801c0 1.073-.704 2.438-1.837 3.562-1.655 1.642-3.781 2.31-4.643 1.465l-.009-.009c-.373-.374-.391-.94-.34-1.351a.5.5 0 0 0-.992-.123c-.11.896.1 1.642.608 2.163 1.739 2.231 3.179 3.446 4.083 4.072a.5.5 0 0 0 .696-.126.5.5 0 0 0-.126-.696c-.656-.455-1.619-1.246-2.794-2.573 1.296-.029 2.87-.773 4.221-2.112 1.164-1.154 1.919-2.517 2.094-3.741.874.937 1.759 1.709 2.645 2.308a.497.497 0 0 0 .694-.134.5.5 0 0 0-.134-.694Z"/></svg>