<!-- SPDX-FileCopyrightText: © 2025 Schneider Electric SPDX-License-Identifier: LicenseRef-Proprietary -->
<svg xmlns="http://www.w3.org/2000/svg" viewBox="0 0 16 16"><circle cx="2.999" cy="9" r="1"/><circle cx="6" cy="9" r="1"/><circle cx="9" cy="9" r="1"/><circle cx="3" cy="12" r="1"/><circle cx="6" cy="12" r="1"/><path d="M8.675 12.071c.297.153.781.999 1.06 1.694a.5.5 0 0 0 .882.089l3.326-5.059a.5.5 0 1 0-.836-.548l-2.834 4.311c-.282-.529-.687-1.142-1.139-1.375a.501.501 0 0 0-.459.889Z"/><path d="M13.737 2H12v-.28C12 .875 11.537.023 10.505 0h-.066c-.988.025-1.438.902-1.438 1.719v.28h-2v-.28C7 .875 6.537.023 5.505 0h-.066c-.988.025-1.438.902-1.438 1.719v1.324c0 .585 0 1.956 1.566 1.956a.5.5 0 0 0 0-1c-.431 0-.566-.044-.566-.956V1.719c0-.119.023-.712.474-.72.458.007.526.453.526.72v.78a.5.5 0 0 0 .5.5h2.5v.044c0 .585 0 1.956 1.566 1.956a.5.5 0 0 0 0-1c-.431 0-.566-.044-.566-.956V1.719c0-.119.023-.712.474-.72.458.007.526.453.526.72v.78a.5.5 0 0 0 .5.5h2.237c.696 0 1.263.566 1.263 1.263v9.473c0 .697-.567 1.265-1.265 1.265H2.265A1.266 1.266 0 0 1 1 13.735V7h11.5a.5.5 0 0 0 0-1H1V4.267c0-.693.563-1.261 1.257-1.265L2.504 3A.5.5 0 0 0 2.5 2h-.004l-.246.002A2.27 2.27 0 0 0 0 4.267v9.469a2.267 2.267 0 0 0 2.265 2.265h11.471a2.267 2.267 0 0 0 2.265-2.265V4.263A2.265 2.265 0 0 0 13.738 2Z"/></svg>