<!-- SPDX-FileCopyrightText: © 2024 GIE Cartes Bancaires CB SPDX-License-Identifier: LicenseRef-Proprietary -->
<svg xmlns="http://www.w3.org/2000/svg" version="1.1" viewBox="0 0 13.065 9.24" xmlns:xlink="http://www.w3.org/1999/xlink"><defs><linearGradient id="a" x1=".844" x2="12.227" y1="2.422" y2="6.791" gradientUnits="userSpaceOnUse"><stop offset=".071" stop-color="#2e2e79" stop-opacity="1"/><stop offset=".263" stop-color="#2581c4" stop-opacity="1"/><stop offset=".549" stop-color="#e6d6db" stop-opacity="1"/><stop offset=".686" stop-color="#e3756a" stop-opacity="1"/><stop offset=".83" stop-color="#c90c0f" stop-opacity="1"/></linearGradient></defs><path fill="#fff" d="M0 0v9.24h13.065V0Zm.44.394h12.19v8.424H.44Z" baseline-shift="baseline" display="inline" overflow="visible" stop-color="#000" stop-opacity="1" vector-effect="none"/><path fill="url(#a)" d="M.44.394h12.192V8.82H.44z" display="inline"/><path fill="#fff" d="M4.287 2.251c-1.523 0-2.478.93-2.478 2.355 0 1.473.992 2.357 2.478 2.357 1.453 0 2.373-.838 2.467-2.134h-2.5v-.444h2.5C6.659 3.085 5.73 2.25 4.287 2.25zm2.876.133v2h2.931q.327 0 .517-.061a.9.9 0 0 0 .35-.219 1 1 0 0 0 .218-.325 1.07 1.07 0 0 0 0-.789 1 1 0 0 0-.219-.326.9.9 0 0 0-.349-.218 1.7 1.7 0 0 0-.517-.062zm0 2.445v2h2.931q.327 0 .517-.061a.96.96 0 0 0 .568-.544 1.07 1.07 0 0 0 0-.79.97.97 0 0 0-.568-.543 1.7 1.7 0 0 0-.517-.062zm4.804 3.113a.23.23 0 0 0-.156.07.23.23 0 0 0-.07.169q0 .1.07.17a.23.23 0 0 0 .169.07.23.23 0 0 0 .17-.07.23.23 0 0 0 .07-.17.23.23 0 0 0-.07-.17.23.23 0 0 0-.17-.069zm.002.033h.011q.086 0 .146.06.06.061.06.146 0 .087-.06.147a.2.2 0 0 1-.146.061.2.2 0 0 1-.146-.06.2.2 0 0 1-.06-.148q0-.084.06-.146a.2.2 0 0 1 .135-.06zm-.086.074v.263h.047v-.104h.036a.1.1 0 0 1 .052.01q.025.014.025.059v.029l.001.004v.002h.044l-.002-.003-.002-.014-.001-.02v-.019a.07.07 0 0 0-.014-.04.06.06 0 0 0-.045-.026.1.1 0 0 0 .038-.013q.025-.016.025-.052 0-.05-.04-.067a.2.2 0 0 0-.072-.01zm.047.032h.04q.038 0 .056.01.017.01.017.038 0 .03-.027.041a.1.1 0 0 1-.045.006h-.041z" baseline-shift="baseline" display="inline" overflow="visible" stop-color="#000" stop-opacity="1" vector-effect="none"/></svg>