<!-- SPDX-FileCopyrightText: © 2025 Schneider Electric SPDX-License-Identifier: LicenseRef-Proprietary -->
<svg xmlns="http://www.w3.org/2000/svg" viewBox="0 0 16 16"><path d="M7.701 3.373a.5.5 0 0 0-.47.528.504.504 0 0 0 .528.47c.283-.016.568-.001.841.045a.5.5 0 0 0 .165-.986 4.8 4.8 0 0 0-1.064-.057ZM1.093 5.04a.503.503 0 0 0-.638.306A8 8 0 0 0 0 8.015c0 .997.181 1.969.538 2.891a.5.5 0 0 0 .933-.361 7 7 0 0 1-.47-2.529c0-.801.134-1.587.398-2.337a.5.5 0 0 0-.306-.638Zm9.451 9.488a7.03 7.03 0 0 1-4.866.071.5.5 0 0 0-.333.944 8.02 8.02 0 0 0 5.56-.081.5.5 0 0 0-.36-.933Zm-.537-12.072a.5.5 0 0 0-.353-.613 6.46 6.46 0 0 0-3.375.01.5.5 0 0 0 .266.964 5.46 5.46 0 0 1 2.848-.008.5.5 0 0 0 .613-.353Zm4.898 8.502a.5.5 0 0 0 .639-.305 8 8 0 0 0-.081-5.559.5.5 0 0 0-.933.359 7.03 7.03 0 0 1 .071 4.866.5.5 0 0 0 .305.638ZM5.274 1.504q.09 0 .181-.034a7.06 7.06 0 0 1 4.866-.072.5.5 0 0 0 .333-.943 8.07 8.07 0 0 0-5.56.083.501.501 0 0 0 .18.966Zm6.72 7.671a.5.5 0 0 0 .576-.41 4.8 4.8 0 0 0 .056-1.068.5.5 0 0 0-.998.064q.007.111.007.224 0 .315-.051.614a.5.5 0 0 0 .41.576Zm-6.001 4.367a.5.5 0 0 0 .352.613 6.4 6.4 0 0 0 3.374-.009.5.5 0 0 0-.266-.963 5.44 5.44 0 0 1-2.846.008.497.497 0 0 0-.613.352ZM2.455 5.993a.504.504 0 0 0-.613.353 6.4 6.4 0 0 0 .009 3.373.5.5 0 1 0 .964-.266 5.4 5.4 0 0 1-.007-2.846.5.5 0 0 0-.353-.613Zm11.087 4.014a.5.5 0 0 0 .614-.351 6.37 6.37 0 0 0-.009-3.375.5.5 0 0 0-.964.266 5.4 5.4 0 0 1 .008 2.846.5.5 0 0 0 .351.614ZM4.005 6.823a.497.497 0 0 0-.576.41A4.8 4.8 0 0 0 3.373 8.3a.5.5 0 0 0 .499.468h.032a.5.5 0 0 0 .467-.531 3.8 3.8 0 0 1 .044-.838.5.5 0 0 0-.41-.576Zm4.01 5.813q.142 0 .283-.009a.5.5 0 0 0 .47-.528c-.016-.275-.257-.498-.528-.47-.284.016-.569 0-.841-.045a.5.5 0 0 0-.166.986q.38.065.781.065Z"/><path d="M14.96 11.776c-.032-.032-2.802-2.401-4.439-2.721.139-.331.212-.689.212-1.055v-.016q.051-.043.099-.09l4.512-4.509c.292-.292.452-.679.452-1.092 0-.412-.161-.799-.452-1.088l-.459-.46a1.99 1.99 0 0 0-2.807 0l-.298.299c-.34.34-1.154 1.414-1.78 2.412-.549.875-.867 1.527-.969 2.015a3 3 0 0 0-1.046-.202 2 2 0 0 0-.09-.099L3.382.661A1.53 1.53 0 0 0 2.291.209h0c-.412 0-.799.161-1.091.452l-.459.458C.366 1.494.16 1.992.16 2.521s.207 1.028.581 1.402l.3.3c.032.032 2.802 2.401 4.439 2.721a2.7 2.7 0 0 0-.212 1.055v.016a2 2 0 0 0-.099.09L.657 12.616c-.292.292-.452.68-.452 1.092s.161.799.452 1.089l.458.458c.375.375.874.582 1.403.582s1.028-.207 1.402-.581l.299-.299c.34-.34 1.155-1.414 1.781-2.412 1.017-1.621 1.24-2.474.771-2.942a.5.5 0 0 0-.767.635c.001.651-1.811 3.331-2.491 4.011l-.299.299a1.006 1.006 0 0 1-1.392 0l-.459-.458a.545.545 0 0 1 0-.767l4.51-4.509a.6.6 0 0 1 .138-.1.5.5 0 0 0 .268-.501 1.73 1.73 0 0 1 .419-1.355.5.5 0 0 0-.195-.797l-.28-.109a.5.5 0 0 0-.463.053h-.001c-.653 0-3.332-1.809-4.013-2.489l-.299-.3c-.186-.186-.288-.433-.288-.695s.102-.509.288-.695l.459-.458a.556.556 0 0 1 .768 0l4.512 4.509q.06.06.1.137a.49.49 0 0 0 .502.268c.479-.054.985.093 1.355.418a.5.5 0 0 0 .797-.195l.108-.28a.5.5 0 0 0-.053-.462c-.002-.651 1.81-3.332 2.492-4.013l.298-.299a.987.987 0 0 1 1.392 0l.459.46a.54.54 0 0 1 0 .766l-4.511 4.508a.6.6 0 0 1-.137.1.5.5 0 0 0-.269.505q.013.102.013.209c0 .421-.153.827-.431 1.142a.5.5 0 0 0 .195.797l.28.108a.5.5 0 0 0 .462-.053h.001c.654 0 3.333 1.808 4.014 2.489l.299.299a.987.987 0 0 1 0 1.392l-.459.458a.545.545 0 0 1-.768 0l-4.511-4.509a.5.5 0 0 0-.707.707l4.511 4.509a1.544 1.544 0 0 0 2.182 0l.459-.458a1.99 1.99 0 0 0 0-2.806z"/></svg>