<!-- SPDX-FileCopyrightText: © 2025 Schneider Electric SPDX-License-Identifier: LicenseRef-Proprietary -->
<svg xmlns="http://www.w3.org/2000/svg" viewBox="0 0 16 16"><path d="m15.61 7.292-2.199-.498-.579-1.488a.5.5 0 0 0-.466-.319h-1.872a.5.5 0 0 0-.5.5v2.514H8.438c1.089-2.105.36-3.064.243-3.198-2.707-2.761-7.239-1.764-7.431-1.72a.5.5 0 0 0-.338.269L.07 5.081a.5.5 0 0 0 .01.457 15.3 15.3 0 0 0 1.675 2.46H.5a.5.5 0 0 0-.5.5v1.982a.5.5 0 0 0 .5.5h.688a1.82 1.82 0 0 0 1.795 2.104 1.812 1.812 0 0 0 1.795-2.088h.172A1.818 1.818 0 0 0 6.744 13.1a1.82 1.82 0 0 0 .596-3.538.5.5 0 0 0-.328.946.82.82 0 0 1-.268 1.592.817.817 0 0 1-.658-1.302.5.5 0 0 0-.4-.797L4.04 9.994h-.002a.5.5 0 0 0-.401.799.8.8 0 0 1 .162.489.8.8 0 0 1-.817.802.818.818 0 0 1-.656-1.306.5.5 0 0 0-.402-.797H1v-.982h1.884a.5.5 0 0 0 .347-.859c-.012-.012-1.18-1.151-2.148-2.854l.618-1.27c.902-.153 4.255-.562 6.228 1.445.005.007.508.781-.782 2.77a.5.5 0 0 0 .419.772h2.927a.5.5 0 0 0 .5-.5V5.989h1.03l.551 1.417a.5.5 0 0 0 .355.307l2.069.468v1.812l-1.19-.008h-.004a.499.499 0 0 0-.402.796.818.818 0 0 1-.658 1.305.817.817 0 0 1-.273-1.59.5.5 0 0 0 .303-.639.497.497 0 0 0-.639-.303 1.82 1.82 0 0 0 .609 3.532 1.82 1.82 0 0 0 1.796-2.097l.954.007h.004a.5.5 0 0 0 .5-.5V7.781a.5.5 0 0 0-.39-.488Z"/></svg>