<!-- SPDX-FileCopyrightText: © 2025 Schneider Electric SPDX-License-Identifier: LicenseRef-Proprietary -->
<svg xmlns="http://www.w3.org/2000/svg" viewBox="0 0 16 16"><path d="M12.735 7.851 8 5.335V.5a.5.5 0 0 0-.702-.458l-4 1.77A.5.5 0 0 0 3 2.27v5.276a.5.5 0 0 0 .24.427L7 10.267v4.393l-2.992-1.781L4 9.918a.5.5 0 0 0-.5-.499h-.001A.5.5 0 0 0 3 9.92l.008 3.245a.5.5 0 0 0 .244.429l3.992 2.376a.5.5 0 0 0 .503.005A.5.5 0 0 0 8 15.54V9.987a.5.5 0 0 0-.24-.427L4 7.266V2.595l3-1.327v4.367c0 .185.102.355.265.441L12 8.592V13.5a.5.5 0 0 0 1 0V8.292a.5.5 0 0 0-.265-.441Z"/></svg>