<!-- SPDX-FileCopyrightText: © 2025 Schneider Electric SPDX-License-Identifier: LicenseRef-Proprietary -->
<svg xmlns="http://www.w3.org/2000/svg" viewBox="0 0 16 16"><path d="M14.509 8.864a8.8 8.8 0 0 0-2.834-1.923c.112-2.179-.572-3.744-.618-3.845-.439-1.018-1.015-1.743-1.712-2.155a.5.5 0 0 0-.509.861c.511.302.95.871 1.306 1.697.01.021.56 1.279.534 3.079A10 10 0 0 0 9 6.227a.501.501 0 0 0-.117.993c.442.052 1.044.16 1.716.381a8.45 8.45 0 0 1-1.357 3.548 9.3 9.3 0 0 1-1.298 1.482c-1.068-.745-2.087-1.849-2.47-3.448a11.6 11.6 0 0 1-.276-1.68c.521-.137 1.104-.24 1.755-.293a.5.5 0 0 0 .458-.54.503.503 0 0 0-.54-.458c-.624.051-1.194.145-1.712.27.027-2.598 1.057-4.377 1.853-4.718a.499.499 0 1 0-.393-.919c-1.225.524-2.511 2.789-2.458 5.934C1.499 7.733.529 9.478.478 9.571a.5.5 0 0 0 .202.675.5.5 0 0 0 .678-.198c.042-.075.798-1.399 2.869-2.226q.081.77.277 1.593c.427 1.781 1.49 3.023 2.628 3.876-.596.415-1.289.754-2.039.853-2.311.308-3.866-.902-4.103-1.892a.501.501 0 0 0-.973.235c.335 1.393 2.05 2.705 4.369 2.705q.407 0 .838-.056c1.075-.143 2.028-.663 2.799-1.259a10.3 10.3 0 0 0 2.862 1.127c1.76.445 2.965.01 3.665-.436a.499.499 0 1 0-.536-.843c-.777.493-1.748.598-2.909.305-.022-.005-1.072-.223-2.272-.858a10 10 0 0 0 1.246-1.471 9.5 9.5 0 0 0 1.487-3.716 7.7 7.7 0 0 1 2.239 1.583c.01.011 1.023 1.031 1.206 2.177a.5.5 0 1 0 .987-.156c-.234-1.475-1.438-2.68-1.484-2.725Z"/></svg>