<!-- SPDX-FileCopyrightText: © 2025 Schneider Electric SPDX-License-Identifier: LicenseRef-Proprietary -->
<svg xmlns="http://www.w3.org/2000/svg" viewBox="0 0 16 16"><path fill="currentColor" d="M15.854 15.127.945.147a.5.5 0 1 0-.709.705l14.91 14.979a.497.497 0 0 0 .707.001.5.5 0 0 0 .002-.707ZM4.522 1.928a6.95 6.95 0 0 1 8.35 1.138 6.99 6.99 0 0 1 1.012 8.601.502.502 0 0 0 .854.522 7.985 7.985 0 0 0-1.156-9.827C11.056-.174 7.127-.71 4.026 1.06a.5.5 0 1 0 .496.868Zm7.285 11.904a6.946 6.946 0 0 1-8.769-.878C.711 10.616.335 6.918 2.146 4.163a.5.5 0 0 0-.836-.548C-.759 6.763-.33 10.987 2.329 13.659a7.944 7.944 0 0 0 10.034 1.003.5.5 0 1 0-.556-.83Z"/></svg>