<!-- SPDX-FileCopyrightText: © 2025 Schneider Electric SPDX-License-Identifier: LicenseRef-Proprietary -->
<svg xmlns="http://www.w3.org/2000/svg" viewBox="0 0 16 16"><path d="M9.263.006a.498.498 0 0 0-.579.493v3.526a1.3 1.3 0 0 0 .214.686c.151.232.335.41.515.509.07.048.142.09.182.108.387.231.894.279 1.489.132l1.119-.339c.113-.045.274-.01.373.163.107.188.041.34-.074.437l-.844.802c-.404.425-.615.888-.609 1.294a1 1 0 0 0-.001.216c-.005.452.206.916.628 1.358l.851.807c.097.079.149.238.048.414-.105.184-.266.204-.404.151l-1.112-.335c-.569-.142-1.075-.093-1.424.118a1.4 1.4 0 0 0-.185.105c-.392.222-.686.638-.856 1.229l-.267 1.145c-.021.123-.129.248-.327.248-.211 0-.308-.134-.333-.281L7.4 11.856c-.164-.566-.458-.982-.813-1.181a1 1 0 0 0-.183-.108c-.389-.231-.895-.278-1.488-.132l-1.12.339c-.113.047-.273.01-.372-.163-.107-.187-.042-.34.074-.437l.844-.801c.404-.425.615-.889.609-1.295.007-.087.007-.175.001-.216.005-.452-.206-.915-.628-1.358l-.851-.806c-.097-.08-.149-.239-.048-.414.105-.184.267-.201.404-.152l1.112.335c.568.14 1.075.093 1.424-.118.077-.037.151-.08.186-.106.392-.222.685-.638.855-1.228l.261-1.112a.5.5 0 1 0-.974-.228l-.254 1.087c-.089.305-.224.522-.42.635-.029.02-.06.038-.126.072-.155.093-.408.102-.688.034L4.15 4.185c-.604-.229-1.26.019-1.593.601-.328.57-.211 1.278.252 1.66l.808.766c.218.229.337.457.335.64v.191c.002.184-.117.412-.317.623l-.8.76c-.497.411-.611 1.104-.278 1.682.328.574.997.829 1.562.612l1.062-.321c.304-.074.558-.065.75.047.032.016.062.034.128.077.158.089.293.306.375.586l.254 1.078c.105.64.645 1.086 1.313 1.086.657 0 1.209-.457 1.307-1.053l.254-1.087c.088-.305.224-.521.42-.635a1 1 0 0 1 .126-.072c.155-.093.409-.103.688-.034l1.054.317c.606.227 1.261-.019 1.594-.601.328-.57.211-1.278-.252-1.659l-.808-.766c-.218-.229-.337-.457-.336-.686a1 1 0 0 1 .001-.146c-.002-.184.117-.411.317-.622l.8-.761c.496-.41.61-1.102.278-1.682-.329-.573-.999-.825-1.562-.612l-1.062.322c-.305.075-.557.066-.75-.047a1 1 0 0 1-.128-.076.63.63 0 0 1-.216-.223l-.008-.012a.3.3 0 0 1-.035-.114V1.111c3.113.767 5.316 3.554 5.316 6.837 0 3.889-3.14 7.052-7 7.052S1 11.837 1 7.948C1 4.465 3.479 1.541 6.895.994a.5.5 0 0 0-.158-.988C2.833.631 0 3.971 0 7.948 0 12.387 3.589 16 8 16s8-3.612 8-8.052C16 3.971 13.167.631 9.263.006Z"/></svg>