<!-- SPDX-FileCopyrightText: © 2025 Schneider Electric SPDX-License-Identifier: LicenseRef-Proprietary -->
<svg xmlns="http://www.w3.org/2000/svg" viewBox="0 0 16 16"><path d="M10.391.507a.5.5 0 1 0-.409.913 4.87 4.87 0 0 1 2.883 4.445 4.87 4.87 0 0 1-3.593 4.697.5.5 0 1 0 .26.964 5.87 5.87 0 0 0 4.333-5.662A5.87 5.87 0 0 0 10.39.506Z"/><path d="M5.653 11.386a.5.5 0 0 0 .177-.968 4.89 4.89 0 0 1-3.147-4.553c0-2.489 1.895-4.56 4.317-4.834v5.003a.5.5 0 0 0 .854.354l2.507-2.507a.5.5 0 0 0-.707-.707L8 4.828V.5c0-.133-.053-.261-.148-.355S7.624-.021 7.496 0C4.291.028 1.683 2.659 1.683 5.865a5.89 5.89 0 0 0 3.793 5.488.5.5 0 0 0 .177.032Z"/><path d="M9.729 12.598 8 14.322V9.501a.5.5 0 0 0-1 0v4.785l-1.728-1.691a.5.5 0 0 0-.699.715l2.494 2.44a.5.5 0 0 0 .434.251h.014a.52.52 0 0 0 .366-.146l2.555-2.549a.5.5 0 0 0-.707-.707Z"/></svg>