<!-- SPDX-FileCopyrightText: © 2025 Schneider Electric SPDX-License-Identifier: LicenseRef-Proprietary -->
<svg xmlns="http://www.w3.org/2000/svg" viewBox="0 0 16 16"><path d="M15.929 7.059a2.167 2.167 0 0 0-2.467-1.582 3.46 3.46 0 0 0-3.295-2.431c-1.308 0-2.502.75-3.082 1.901a4.13 4.13 0 0 0-4.283 2.305 2.85 2.85 0 0 0-2.14 1.023 2.87 2.87 0 0 0-.615 2.355c.243 1.347 1.471 2.324 2.919 2.324h1.481a.501.501 0 0 0 0-1.001h-1.48s0 0 0 0c-.948 0-1.78-.646-1.935-1.502a1.84 1.84 0 0 1 .398-1.536 1.87 1.87 0 0 1 1.637-.652.495.495 0 0 0 .528-.323 3.125 3.125 0 0 1 2.921-2.035A3.12 3.12 0 0 1 9.603 8.62a.503.503 0 0 0 .716.386 1.58 1.58 0 0 1 1.104-.102 1.54 1.54 0 0 1 1.074 1.075c.128.495.032.982-.27 1.371a1.54 1.54 0 0 1-1.228.603H6.814a.5.5 0 0 0 0 1h4.185c.795 0 1.531-.361 2.019-.991a2.57 2.57 0 0 0 .462-2.168h.344c.676 0 1.302-.306 1.717-.841s.556-1.226.386-1.896Zm-1.176 1.282a1.17 1.17 0 0 1-.928.455h-.694a.5.5 0 0 0-.126.016 2.53 2.53 0 0 0-1.331-.875 2.7 2.7 0 0 0-.677-.088q-.265 0-.522.054a4.13 4.13 0 0 0-2.397-2.688 2.46 2.46 0 0 1 2.088-1.17c1.229 0 2.272.917 2.428 2.135a.5.5 0 0 0 .716.385c.258-.127.549-.153.842-.075.384.102.709.43.807.814a1.18 1.18 0 0 1-.207 1.036Z"/></svg>