<!-- SPDX-FileCopyrightText: © 2025 Schneider Electric SPDX-License-Identifier: LicenseRef-Proprietary -->
<svg xmlns="http://www.w3.org/2000/svg" viewBox="0 0 16 16"><path d="M11.895 8.973a.5.5 0 0 0-.707 0l-1.995 1.995-1.995-1.995a.5.5 0 0 0-.707.707l1.995 1.995-1.995 1.995a.5.5 0 0 0 .708.707l1.995-1.995 1.995 1.995a.5.5 0 0 0 .708 0 .5.5 0 0 0 0-.707l-1.995-1.995 1.995-1.995a.5.5 0 0 0 0-.707Z"/><path d="M15.472 6.04a2.95 2.95 0 0 0-3.124-1.132 4.83 4.83 0 0 0-4.653-3.589 4.82 4.82 0 0 0-4.393 2.858h-.02a3.28 3.28 0 0 0-2.71 1.43c-.626.914-.744 2.058-.324 3.137C.731 9.988 2.291 11 3.724 11H5.5a.5.5 0 0 0 0-1H3.724c-1.02 0-2.209-.756-2.544-1.618-.298-.767-.219-1.573.218-2.211a2.27 2.27 0 0 1 1.855-.996l.351.021a.5.5 0 0 0 .501-.333 3.82 3.82 0 0 1 3.591-2.545 3.824 3.824 0 0 1 3.78 3.326.5.5 0 0 0 .212.345c.113.083.265.11.401.083a.5.5 0 0 0 .133-.047c.806-.425 1.9-.165 2.434.591.363.516.443 1.173.219 1.803-.316.887-1.204 1.582-2.021 1.582a.5.5 0 0 0 0 1c1.232 0 2.506-.966 2.962-2.246.336-.94.211-1.93-.343-2.715Z"/></svg>