<!-- SPDX-FileCopyrightText: © 2025 Schneider Electric SPDX-License-Identifier: LicenseRef-Proprietary -->
<svg xmlns="http://www.w3.org/2000/svg" viewBox="0 0 16.001 16"><path d="M3 4.474V1.499a.5.5 0 0 0-1 0v2.974c0 .775.336 1.193.606 1.529.229.284.394.489.394.931v8.066H.5a.5.5 0 0 0 0 1h3a.5.5 0 0 0 .5-.5V6.933c0-.794-.341-1.217-.614-1.558C3.154 5.086 3 4.896 3 4.473ZM4.5.999a.5.5 0 0 0-.5.5v3a.5.5 0 0 0 1 0v-3a.5.5 0 0 0-.5-.5Zm11 14H14V2.351c0-1.25-1.178-2.346-2.522-2.346S9 1.079 9 2.35v3.959c0 1.363.667 2.221 1.203 2.91.445.573.797 1.025.797 1.658v4.122H6V6.927c0-.442.165-.646.394-.93.27-.336.606-.754.606-1.529V1.499a.5.5 0 0 0-1 0v2.968c0 .423-.153.614-.386.902-.273.34-.614.763-.614 1.557v8.573a.5.5 0 0 0 .5.5h6a.5.5 0 0 0 .5-.5v-4.622c0-.976-.512-1.634-1.008-2.271C10.482 7.949 10 7.329 10 6.31V2.351c0-.717.69-1.345 1.478-1.345.704 0 1.522.587 1.522 1.345V15.5a.5.5 0 0 0 .5.5h2a.5.5 0 0 0 0-1Z"/></svg>