<!-- SPDX-FileCopyrightText: © Dankort SPDX-License-Identifier: LicenseRef-Proprietary -->
<svg xmlns="http://www.w3.org/2000/svg" version="1.1" viewBox="0 0 743.226 453.698"><path fill="#ffffff" d="M246.702 37.437c-101.187 0-184.102 79.739-189.186 179.672a192 192 0 0 0-.246 9.732c0 104.448 84.981 189.422 189.432 189.422h255.11c104.436 0 189.403-84.974 189.403-189.422 0-104.437-84.967-189.404-189.404-189.404zm0 32.098h255.107c47.839 0 90.757 21.472 119.637 55.275H488.688l-66.672 69.504c-4.913-53.376-52.647-69.496-115.998-69.496h-178.98c28.881-33.81 71.808-55.283 119.664-55.283Zm381.529 63.8c19.399 26.156 30.895 58.516 30.895 93.506 0 33.154-10.32 63.932-27.89 89.323l-84.831-100.89Zm-426.592 58.772h82.362c18.44 0 33.45 8.253 27.474 29.523-6.038 21.506-14.203 32.676-41.185 32.676h-91.272zm217.09 43.435 70.512 89.114h135.695c-28.847 36.245-73.318 59.517-123.125 59.517H246.7c-49.824 0-94.305-23.282-123.15-59.529h159.449c80.006 0 122.686-28.343 135.73-89.102z"/><path fill="#ffffff" d="M246.702 33.59c-106.574 0-193.278 86.693-193.278 193.251 0 106.57 86.704 193.268 193.278 193.268h255.11c106.56 0 193.251-86.698 193.251-193.268 0-106.558-86.692-193.252-193.252-193.252zm0 3.847h255.11c104.436 0 189.403 84.967 189.403 189.404 0 104.448-84.967 189.422-189.404 189.422h-255.11c-104.45 0-189.43-84.974-189.43-189.422 0-104.437 84.98-189.404 189.43-189.404z"/><path fill="#231f20" d="M246.702 69.535c-47.856 0-90.783 21.472-119.664 55.283h178.98c63.35 0 111.085 16.12 115.998 69.496l66.672-69.504h132.758c-28.88-33.803-71.798-55.275-119.637-55.275Zm381.529 63.8-81.826 81.94 84.832 100.889c17.57-25.391 27.889-56.17 27.889-89.323 0-34.99-11.496-67.35-30.895-93.506zm-426.592 58.772-22.62 62.2h91.27c26.983 0 35.148-11.171 41.186-32.677 5.976-21.27-9.034-29.523-27.474-29.523zm217.09 43.435c-13.044 60.76-55.724 89.102-135.73 89.102h-159.45c28.846 36.247 73.327 59.53 123.15 59.53h255.112c49.807 0 94.278-23.273 123.125-59.518H489.241Z"/></svg>