<!-- SPDX-FileCopyrightText: © Банк России, 2000–2024. SPDX-License-Identifier: LicenseRef-Proprietary -->
<svg xmlns="http://www.w3.org/2000/svg" x="0" y="0" version="1.1" viewBox="0 0 515 515"><path fill="#e63946" d="M383.2 131.9c-33.6-33.6-78.3-52.1-125.9-52.1s-92.2 18.5-125.9 52.1c-33.6 33.6-52.1 78.3-52.1 125.9 0 47.5 18.5 92.2 52.1 125.9 33.6 33.6 78.3 52.1 125.9 52.1s92.2-18.5 125.9-52.1c33.6-33.6 52.1-78.3 52.1-125.9s-18.5-92.3-52.1-125.9zm-215.8-4v113.7h-67.2c4.8-47.1 30.3-88.1 67.2-113.7zm0 178.5H107c-3.4-10.4-5.7-21.2-6.8-32.4h67.2zm-45.7 32.5h45.7v48.8c-18.5-12.8-34.1-29.5-45.7-48.8zm135.6 76.8c-20.3 0-39.7-3.8-57.5-10.8v-66.1h73.8v-32.4h-73.8V274l43.7.1c72.1 0 102.9-36.9 102.9-81.7 0-43.3-25.2-81-102.9-81l-46.6.4c18.6-7.7 39-11.9 60.3-11.9 87.2 0 158 70.7 158 158s-70.6 157.8-157.9 157.8zm-57.4-174.1v-97.3l45.7-.3c44.5 0 64.1 18.3 64.1 49.6 0 31.6-22.4 48.1-66.9 48.1z"/></svg>