<!-- SPDX-FileCopyrightText: © 2025 Schneider Electric SPDX-License-Identifier: LicenseRef-Proprietary -->
<svg xmlns="http://www.w3.org/2000/svg" viewBox="0 0 16 16"><circle cx="8.021" cy="1.513" r=".395"/><path d="M8.021 3.487a.395.395 0 1 0 0-.79.395.395 0 0 0 0 .79Zm2.566-.265a.396.396 0 1 0-.396-.685.396.396 0 0 0 .396.685Zm-5.132 0a.395.395 0 1 0 .394-.684.395.395 0 0 0-.394.684Zm4.343-1.367a.394.394 0 1 0-.394-.683.394.394 0 0 0 .394.683Zm-3.553 0a.394.394 0 1 0 .394-.683.394.394 0 0 0-.394.683ZM8.01 4.603a.5.5 0 0 0 .534.463c1.591-.104 3.195.916 3.498 2.26a.501.501 0 0 0 .976-.22c-.413-1.833-2.452-3.19-4.545-3.038a.5.5 0 0 0-.463.534Z"/><path d="M13.606 1h-2.467a.5.5 0 0 0 0 1h2.467c.217 0 .394.177.394.394v6.514a.94.94 0 0 1-.521.143c-.04 0-.057 0-.197-.235a3 3 0 0 0-.157-.247.5.5 0 0 0-.405-.209h0a.5.5 0 0 0-.406.208c-.231.322-.519.539-.714.539s-.482-.216-.713-.538c-.188-.263-.625-.263-.812 0-.23.322-.518.538-.713.538-.198 0-.479-.212-.715-.54a.5.5 0 0 0-.406-.208h0a.5.5 0 0 0-.406.209c-.191.268-.486.538-.712.538q-.101 0-.195-.017a.506.506 0 0 0-.581.402.5.5 0 0 0 .402.582q.181.032.374.032c.456 0 .84-.24 1.118-.495.285.262.667.495 1.122.495s.84-.241 1.119-.496c.279.255.663.496 1.119.496.422 0 .783-.207 1.057-.44.174.202.427.385.824.385.585 0 1.114-.234 1.417-.628a.5.5 0 0 0 .104-.305V2.394c0-.769-.625-1.394-1.394-1.394Z"/><path d="M3.486 4.045a.5.5 0 0 0-.5.5v1.583c0 .85.357 1.361.743 1.787a.499.499 0 1 0 .741-.671c-.314-.347-.484-.627-.484-1.116V5.045h2.136v1.083c0 .604-.269.89-.642 1.286-.413.438-.926.984-.926 2.011v1.169q.001.208.056.397h-.789a.5.5 0 0 0 0 1h2.466a.5.5 0 0 0 0-1h-.376c-.197 0-.357-.179-.357-.397V9.425c0-.63.289-.937.654-1.325.407-.432.914-.971.914-1.971V4.546a.5.5 0 0 0-.5-.5H3.486Zm5.315 9.274a4.61 4.61 0 0 0 3.619-1.742.5.5 0 1 0-.781-.625 3.67 3.67 0 0 1-3.859 1.221.5.5 0 0 0-.28.961 4.7 4.7 0 0 0 1.301.186Z"/><path d="M14.5 10.695a.5.5 0 0 0-.5.5v2.411a.395.395 0 0 1-.394.394H2.393A.395.395 0 0 1 2 13.606V2.394C2 2.177 2.176 2 2.393 2h2.468a.5.5 0 0 0 0-1H2.393C1.625 1 1 1.625 1 2.394v11.213c0 .769.625 1.394 1.393 1.394h11.214c.769 0 1.394-.625 1.394-1.394v-2.411a.5.5 0 0 0-.5-.5Z"/></svg>