<!-- SPDX-FileCopyrightText: © 2025 Schneider Electric SPDX-License-Identifier: LicenseRef-Proprietary -->
<svg xmlns="http://www.w3.org/2000/svg" viewBox="0 0 16 16"><path d="M15.5 7h-5.422L8.565 3.064a.502.502 0 0 0-.953.058l-1.69 6.806L4.17 3.603a.49.49 0 0 0-.508-.366.5.5 0 0 0-.467.417l-.93 5.568C1.812 8.106 1.246 7.04.679 6.822a.5.5 0 0 0-.367.93c.332.183 1.104 1.868 1.652 3.605.069.22.268.366.512.348a.5.5 0 0 0 .458-.416l.876-5.243 1.658 5.984a.5.5 0 0 0 .482.367h.007a.5.5 0 0 0 .479-.379l1.766-7.113L9.268 7.68a.5.5 0 0 0 .467.321h5.766a.5.5 0 0 0 0-1Z"/></svg>