<!-- SPDX-FileCopyrightText: © 2025 Schneider Electric SPDX-License-Identifier: LicenseRef-Proprietary -->
<svg xmlns="http://www.w3.org/2000/svg" viewBox="0 0 16 16"><path d="M12.5 5h-9a.5.5 0 0 0-.5.5v10a.5.5 0 0 0 .5.5h4a.5.5 0 0 0 .5-.5v-8a.5.5 0 0 0-1 0V15H4V6h8v9H9.402a.5.5 0 0 0 0 1H12.5a.5.5 0 0 0 .5-.5v-10a.5.5 0 0 0-.5-.5Zm-2.353-1.047a.5.5 0 0 0 .662 0l1.506-1.332a.5.5 0 1 0-.662-.749L11 2.45V.5a.5.5 0 0 0-1 0v1.988l-.696-.616a.5.5 0 1 0-.663.749zm-5.84-1.747L5 1.593V3.5a.5.5 0 0 0 1 0V1.626l.656.58a.5.5 0 1 0 .663-.749L5.906.208a.52.52 0 0 0-.755-.083L3.646 1.457a.5.5 0 1 0 .663.749Z"/></svg>