<!-- SPDX-FileCopyrightText: © 2025 Schneider Electric SPDX-License-Identifier: LicenseRef-Proprietary -->
<svg xmlns="http://www.w3.org/2000/svg" viewBox="0 0 16 16"><path d="M12.088 10.126a.504.504 0 0 0-.659-.257L7.8 11.46a.5.5 0 0 0 .401.916l3.63-1.591a.5.5 0 0 0 .257-.659Z"/><path d="M8 0C3.589 0 0 3.6 0 8.024c0 4.085 3.047 7.513 7.087 7.973l.057.003a.5.5 0 0 0 .056-.997C3.665 14.601.999 11.601.999 8.024c0-3.873 3.14-7.024 7-7.024s7 3.151 7 7.024c0 3.391-2.407 6.296-5.725 6.907a.5.5 0 0 0-.401.583c.05.272.305.442.583.401 3.791-.7 6.543-4.019 6.543-7.892C16 3.6 12.411 0 8 0Z"/><path d="M11.176 5.677a.73.73 0 1 0-1.46 0 .73.73 0 0 0 1.46 0Zm-7.082 0a.73.73 0 1 0 1.46.001.73.73 0 0 0-1.46-.001Z"/></svg>