<!-- SPDX-FileCopyrightText: © 2025 Schneider Electric SPDX-License-Identifier: LicenseRef-Proprietary -->
<svg xmlns="http://www.w3.org/2000/svg" viewBox="0 0 16 16"><path d="M13.699 1.527a.5.5 0 0 0 .176-.282.48.48 0 0 0-.04-.329C13.569.351 13.047 0 12.468 0H1.3C.583 0 0 .583 0 1.3v10.4c0 .717.583 1.3 1.3 1.3h3.2a.5.5 0 0 0 0-1H1.3a.3.3 0 0 1-.3-.3V1.3a.3.3 0 0 1 .3-.3h11.168q.119 0 .226.066L7.003 5.839l-4.17-3.713a.5.5 0 0 0-.665.747l4.492 4a.5.5 0 0 0 .654.01zm1.883 9.039-3.744-3.435a.5.5 0 0 0-.676.738L14.576 11H7.5a.5.5 0 0 0 0 1h7.076l-3.414 3.132a.5.5 0 1 0 .676.736l3.744-3.435c.265-.242.412-.565.418-.913v-.041a1.25 1.25 0 0 0-.418-.913ZM13.5 3a.5.5 0 0 0-.5.5v3a.5.5 0 0 0 1 0v-3a.5.5 0 0 0-.5-.5Z"/></svg>