<!-- SPDX-FileCopyrightText: © 2025 Schneider Electric SPDX-License-Identifier: LicenseRef-Proprietary -->
<svg xmlns="http://www.w3.org/2000/svg" viewBox="0 0 16 16"><path d="M6 8.5a.5.5 0 0 0-.5-.5h-5a.5.5 0 0 0 0 1h5a.5.5 0 0 0 .5-.5Z"/><path d="M2.5 7a.5.5 0 0 0 .5-.5V3.3a.3.3 0 0 1 .3-.3h11.168q.119 0 .226.066L9.003 7.839 4.834 4.126a.5.5 0 0 0-.665.747l4.492 4a.5.5 0 0 0 .654.009l6.386-5.356a.5.5 0 0 0 .176-.497.4.4 0 0 0-.04-.114c-.266-.565-.788-.916-1.367-.916H3.3c-.717 0-1.3.583-1.3 1.3v3.2a.5.5 0 0 0 .5.5Z"/><path d="M15.5 5a.5.5 0 0 0-.5.5v7.2a.3.3 0 0 1-.3.3H3.3a.3.3 0 0 1-.3-.3V11h4.5a.5.5 0 0 0 0-1h-6a.5.5 0 0 0 0 1H2v1.7c0 .717.583 1.3 1.3 1.3h11.4c.717 0 1.3-.583 1.3-1.3V5.5a.5.5 0 0 0-.5-.5Z"/></svg>