<!-- SPDX-FileCopyrightText: © 2025 Schneider Electric SPDX-License-Identifier: LicenseRef-Proprietary -->
<svg xmlns="http://www.w3.org/2000/svg" viewBox="0 0 16 16"><path d="m15.5 15-10.91-.011a.4.4 0 0 1-.297-.135L1.113 12a.39.39 0 0 1 0-.549L11.367 1.207l3.417 3.416-6.317 6.319L5.97 8.446a.5.5 0 0 0-.707.707l2.497 2.496-1.461 1.462a.5.5 0 0 0 .707.707l8.839-8.841a.5.5 0 0 0 0-.707L11.72.146a.5.5 0 0 0-.707 0L.407 10.743c-.54.54-.542 1.42.017 1.981l3.18 2.854c.262.264.612.41.985.411l10.91.011h0a.5.5 0 0 0 0-1Z"/></svg>