<!-- SPDX-FileCopyrightText: © 2025 Schneider Electric SPDX-License-Identifier: LicenseRef-Proprietary -->
<svg xmlns="http://www.w3.org/2000/svg" viewBox="0 0 16 16"><path d="m3.001 12.689-.54.627c-.23-.86-.53-2.266-.512-3.702.029-2.331.771-5.017.778-5.043a.5.5 0 0 0-.963-.269C1.732 4.416.98 7.137.949 9.601c-.018 1.412.239 2.768.472 3.694l-.677-.379a.5.5 0 1 0-.49.871l1.738.977a.5.5 0 0 0 .632-.106l1.133-1.317a.5.5 0 1 0-.758-.652Zm12.944-.591c-.464-.91-.434-1.65-.396-2.588.038-.923.08-1.969-.294-3.438-.301-1.181-.648-2.037-1.367-2.375q-.497-.234-1.119-.066c-.242-.462-.625-.759-1.076-.824a1.37 1.37 0 0 0-1.142.376 1.37 1.37 0 0 0-.809-.433 1.48 1.48 0 0 0-1.167.356 44 44 0 0 1-.375-.95c-.205-.541-.622-.896-1.143-.974a1.5 1.5 0 0 0-1.384.551c-.302.39-.36.889-.157 1.367.12.283.249.633.389 1.012.208.562.443 1.199.706 1.78.091.2.273.684.472 1.229a6 6 0 0 1-.597-.366c-.679-.479-1.483-.368-1.956.271-.454.614-.464 1.633.412 2.312.544.421 1.093.894 1.593 1.324.665.572 1.238 1.066 1.646 1.31l.125.074c.453.271.967.576 1.441.937a.5.5 0 1 0 .605-.796c-.519-.394-1.058-.715-1.534-.998l-.125-.075c-.333-.198-.903-.688-1.506-1.208-.512-.441-1.075-.926-1.633-1.358-.396-.306-.391-.694-.22-.926.101-.137.282-.256.575-.049.515.364 1.178.683 1.654.891l.139.396a.5.5 0 1 0 .945-.329C8.612 8.43 7.781 6.05 7.523 5.48c-.249-.548-.477-1.167-.679-1.713a26 26 0 0 0-.406-1.055q-.091-.214.027-.364a.48.48 0 0 1 .445-.175q.24.037.355.339a66 66 0 0 0 .906 2.228l.01.025c.383.899.699 1.607.705 1.62a.5.5 0 1 0 .913-.409c-.006-.013-.322-.722-.704-1.618a.41.41 0 0 1 .062-.42.49.49 0 0 1 .442-.196c.195.028.311.221.374.378.441 1.107.85 1.917.868 1.951a.5.5 0 1 0 .892-.452c-.003-.006-.255-.506-.57-1.24v-.002c-.082-.203-.021-.343.043-.425a.39.39 0 0 1 .347-.152c.203.029.325.264.38.401l.098.245.006.016c.094.234.17.419.236.563a1 1 0 0 0 .027.097l.016-.006c.202.408.322.416.635.291a.51.51 0 0 0 .275-.66l-.005-.012-.065-.162a.53.53 0 0 1 .308.033c.393.184.658 1.068.823 1.716.337 1.328.298 2.296.264 3.151-.041.998-.079 1.939.504 3.083a.5.5 0 1 0 .89-.455Z"/></svg>