<!-- SPDX-FileCopyrightText: © 2025 Schneider Electric SPDX-License-Identifier: LicenseRef-Proprietary -->
<svg xmlns="http://www.w3.org/2000/svg" viewBox="0 0 16 16"><path d="M7.829 4.896c.276-1.21 0-2.45-.758-3.4A3.95 3.95 0 0 0 3.968 0a.5.5 0 0 0-.5.5v2.26l-.405-.405a.5.5 0 0 0-.707.707L3.614 4.32a.5.5 0 0 0 .854-.354V1.042c.714.121 1.36.499 1.821 1.077.567.711.773 1.643.565 2.554a2.96 2.96 0 0 1-2.181 2.181 3 3 0 0 1-2.554-.565A2.96 2.96 0 0 1 1 3.967c0-.756.285-1.477.801-2.028a.5.5 0 1 0-.73-.684A3.95 3.95 0 0 0 0 3.967a3.95 3.95 0 0 0 1.496 3.104 3.96 3.96 0 0 0 2.477.863q.46 0 .923-.105a3.92 3.92 0 0 0 2.933-2.933Zm7.734 3.131q-.344-.376-.932-.462c-.05-.482-.279-.873-.646-1.091a1.32 1.32 0 0 0-1.114-.098 1.3 1.3 0 0 0-.544-.646 1.43 1.43 0 0 0-1.115-.126c0-.435.006-.858.018-1.224.017-.551-.221-1.016-.653-1.275a1.42 1.42 0 0 0-1.421-.019c-.41.234-.643.653-.639 1.149.002.282-.011.675-.025 1.106-.022.663-.047 1.414-.027 2.006.003.106 0 .29-.006.517-.268.105-.546.314-.811.614-.639.723-1.252 2.041-1.057 3.57.149 1.163.608 1.797 1.058 2.417.273.377.53.732.734 1.227a.5.5 0 0 0 .653.271.5.5 0 0 0 .271-.653c-.249-.602-.567-1.042-.854-1.438-.404-.558-.752-1.039-.869-1.949a3.66 3.66 0 0 1 .824-2.794c-.022.462-.046.898-.061 1.158a.5.5 0 0 0 .47.528.504.504 0 0 0 .528-.47c.006-.1.14-2.444.121-3.028-.019-.573.006-1.299.028-1.941.015-.447.028-.855.026-1.147-.001-.175.076-.24.135-.273a.43.43 0 0 1 .411.008q.176.107.168.388a70 70 0 0 0-.013 2.519v.042l.002.051c.009.873.026 1.562.027 1.618.006.276.186.484.512.488a.5.5 0 0 0 .488-.512c0-.014-.018-.749-.027-1.668a.35.35 0 0 1 .184-.284.44.44 0 0 1 .416-.012c.144.085.171.28.169.429a26 26 0 0 0 0 .626v.036c.01.768.05 1.299.052 1.327a.5.5 0 0 0 .997-.077c0-.006-.04-.534-.049-1.285.007-.177.096-.264.17-.306a.32.32 0 0 1 .318-.008c.149.089.169.32.167.45q0 .124-.003.235v.038c-.002.223-.002.404.004.551a.4.4 0 0 0-.012.103h.018c.031.429.14.503.475.508h.006a.51.51 0 0 0 .5-.496v-.137a.44.44 0 0 1 .195.115c.263.288.176 1.132.088 1.742-.182 1.257-.56 2.073-.893 2.794-.112.241-.218.472-.312.702a7 7 0 0 0-.118.312 4.4 4.4 0 0 0-.246 1.189.5.5 0 0 0 .468.53.493.493 0 0 0 .53-.468c.019-.308.08-.602.192-.926q.046-.132.099-.262c.088-.217.188-.433.292-.658.344-.744.772-1.669.975-3.071.164-1.133.169-2.001-.338-2.558Z"/></svg>