<!-- SPDX-FileCopyrightText: © 2025 Schneider Electric SPDX-License-Identifier: LicenseRef-Proprietary -->
<svg xmlns="http://www.w3.org/2000/svg" viewBox="0 0 16 16"><path d="M6.941 14.776a.5.5 0 0 1-.255-.07 2.45 2.45 0 0 1-1.178-2.471 2.44 2.44 0 0 1 .963-1.617 2.44 2.44 0 0 1 1.826-.463c.65.095 1.225.438 1.618.965a2.44 2.44 0 0 1 .462 1.825 2.45 2.45 0 0 1-1.167 1.754.5.5 0 0 1-.686-.171.5.5 0 0 1 .171-.687 1.462 1.462 0 1 0-1.625-2.422 1.46 1.46 0 0 0 .128 2.427.501.501 0 0 1-.256.93Zm-4.635-.116a.5.5 0 0 1-.354-.854L2.761 13H.5a.5.5 0 0 1 0-1h2.351l-.899-.895a.5.5 0 1 1 .705-.709L4.369 12.1a.5.5 0 0 1 0 .708l-1.711 1.705a.5.5 0 0 1-.353.146Zm11.29-.004a.5.5 0 0 1-.353-.146l-1.711-1.705a.5.5 0 0 1 0-.708l1.713-1.705a.5.5 0 1 1 .705.709l-.903.899h2.454a.5.5 0 0 1 0 1h-2.356l.805.802a.5.5 0 0 1-.354.854ZM7.394 8.778a3.6 3.6 0 0 1-.917-.097c-.866-.311-1.332-.801-1.553-1.602-.148-.536-.095-.945-.048-1.306.06-.46.116-.895-.247-1.736a.55.55 0 0 1 .17-.629.55.55 0 0 1 .396-.097c.326.008.7.085 1.025.316-.253-1.28.413-2.178.75-2.632C7.44.357 7.989.101 8.094.057a.56.56 0 0 1 .594.123.55.55 0 0 1 .076.624c-.441.838-.258 1.582.033 2.113l.02-.03c.405-.595 1.138-.768 1.435-.814h0a.56.56 0 0 1 .539.226.56.56 0 0 1-.056.658q0 0 0 0c.007 0-.271.508.394 1.947q.526 1.264.087 2.223c-.284.622-.944 1.059-1.448 1.316a.499.499 0 1 1-.454-.89c.504-.257.866-.563.992-.84.171-.375.14-.848-.093-1.405-.38-.823-.515-1.447-.529-1.909q-.022.026-.041.053c-.09.133-.11.308-.059.534a.501.501 0 0 1-.822.483C8.127 3.9 7.56 3.005 7.507 1.976c-.278.447-.481 1.007-.219 1.783.224.85-.074 1.588-.479 1.896a.5.5 0 0 1-.8-.343 2 2 0 0 0-.126-.542c.07.47.023.826-.017 1.137-.042.318-.074.569.021.91.117.421.296.651.674.827a1.1 1.1 0 0 1 .022-.457c.13-.505.428-.796.69-1.054.232-.228.416-.408.504-.736a.5.5 0 0 1 .975.045c.083.479.302.709.375.784a.64.64 0 0 1 .16.303.5.5 0 0 1-.887.384 2.3 2.3 0 0 1-.222-.274q-.106.111-.205.208c-.231.226-.364.365-.422.589q-.036.141.257.35a.6.6 0 0 1 .123.123h0a.56.56 0 0 1 .104.5c-.092.296-.369.377-.643.373Z"/></svg>