<!-- SPDX-FileCopyrightText: © 2025 Schneider Electric SPDX-License-Identifier: LicenseRef-Proprietary -->
<svg xmlns="http://www.w3.org/2000/svg" viewBox="0 0 16 16"><path d="m.168 5.955 7.673 3.834a.5.5 0 0 0 .448 0l6.152-3.074a.5.5 0 0 0 0-.894l-1.801-.9 2.976-1.487a.5.5 0 0 0 0-.894l-1.369-.684a.5.5 0 1 0-.447.895l.474.237-2.976 1.487a.5.5 0 0 0 0 .894l1.801.9-5.033 2.515L1.51 5.508l8.905-4.449 1.56.779a.5.5 0 1 0 .447-.895l-1.784-.89a.5.5 0 0 0-.447 0L.168 5.061a.5.5 0 0 0 0 .894Z"/><path d="m15.615 8.697-1.369-.684a.5.5 0 0 0-.447.895l.474.236-2.976 1.487a.5.5 0 0 0 0 .894l1.801.899-5.033 2.516-6.554-3.275 3.325-1.661a.5.5 0 0 0-.447-.895l-4.221 2.11a.5.5 0 0 0 0 .894l7.673 3.834a.5.5 0 0 0 .448 0l6.152-3.074a.5.5 0 0 0 0-.894l-1.801-.899 2.976-1.487a.5.5 0 0 0 0-.894Z"/></svg>