<!-- SPDX-FileCopyrightText: © 2025 Schneider Electric SPDX-License-Identifier: LicenseRef-Proprietary -->
<svg xmlns="http://www.w3.org/2000/svg" viewBox="0 0 16 16"><path d="M1.5 11H1V1h7.149c.142.09.522.377 1.25 1.018a.5.5 0 1 0 .66-.75C8.621 0 8.44 0 8.248 0H.896A.897.897 0 0 0 0 .896V11.5a.5.5 0 0 0 .5.5h1a.5.5 0 0 0 0-1Z"/><path d="m15.609 4.795-1.227-1.341A1.53 1.53 0 0 0 13.351 3h-9.46A.89.89 0 0 0 3 3.891V15.5a.5.5 0 0 0 .5.5h1a.5.5 0 0 0 0-1H4V4h2v2.108C6 6.6 6.4 7 6.892 7h5.214A.9.9 0 0 0 13 6.097V5.5a.5.5 0 0 0-1 0V6H7V4h6.352c.077 0 .242.073.294.129l1.226 1.34a.7.7 0 0 1 .129.332V15H7l.002-5H12v3.5a.5.5 0 0 0 1 0V9.829c0-.457-.392-.829-.873-.829H6.703c-.291 0-.528.147-.636.395C6 9.548 6 9.701 6 9.83v5.671a.5.5 0 0 0 .5.5h8.609A.89.89 0 0 0 16 15.11V5.801c0-.334-.164-.757-.391-1.006Z"/></svg>