<!-- SPDX-FileCopyrightText: © 2025 Schneider Electric SPDX-License-Identifier: LicenseRef-Proprietary -->
<svg xmlns="http://www.w3.org/2000/svg" viewBox="0 0 16 16"><path d="M14.479 8H4.891c-.53 0-1 .318-1.197.81l-1.281 3.204a.5.5 0 0 0 .929.371l1.281-3.203A.29.29 0 0 1 4.892 9h9.588a.29.29 0 0 1 .269.398l-2.17 5.422a.29.29 0 0 1-.268.181H1.667c-.175 0-.347-.071-.471-.195s-.195-.296-.195-.472V5.631c0-.183.071-.354.2-.484A.52.52 0 0 1 1.685 5l1.662-.007c.184-.031.33.084.401.154.164.164.231.398.253.484V6.5a.5.5 0 0 0 .5.5h5a.5.5 0 0 0 0-1H4.998l-.003-.452c-.075-.447-.262-.831-.539-1.108-.353-.353-.82-.512-1.191-.44l-1.496.007c-.455-.076-.921.081-1.274.434a1.67 1.67 0 0 0-.493 1.191v8.702c0 .445.173.864.488 1.179.31.311.74.488 1.178.488h10.645c.531 0 1.001-.318 1.196-.811l2.17-5.421a1.292 1.292 0 0 0-1.198-1.768Zm1.384-4.51L12.708.159l-.014-.014q0 0 0 0a.5.5 0 0 0-.128-.092q0 0 0 0a.5.5 0 0 0-.223-.052h-.006a.5.5 0 0 0-.21.049.5.5 0 0 0-.139.098h0l-.01.011L8.823 3.49a.5.5 0 1 0 .726.688l2.794-2.95 2.795 2.95a.5.5 0 1 0 .727-.688Z"/></svg>