<!-- SPDX-FileCopyrightText: © 2025 Schneider Electric SPDX-License-Identifier: LicenseRef-Proprietary -->
<svg xmlns="http://www.w3.org/2000/svg" viewBox="0 0 16 16"><path d="M10.779 7.716a2.9 2.9 0 0 0-.151-.816l4.415-1.538a.5.5 0 0 0 .327-.564C14.582.568 12.605-.003 11.434 0c-2.015.042-3.49 1.935-3.908 4.975q-.248.034-.486.111L5.44.495a.506.506 0 0 0-.564-.327C.647.956.056 2.972.079 4.103c.042 2.046 1.894 3.49 4.982 3.913.03.438.158.853.372 1.222l-4.342 1.099a.5.5 0 0 0-.375.533c.417 4.281 2.373 5.047 3.502 5.123q.11.007.216.007c1.894 0 3.411-1.682 4.086-4.551a.5.5 0 0 0-.974-.229c-.216.922-1.093 3.94-3.262 3.774-1.326-.089-2.215-1.432-2.525-3.796l4.668-1.182a.5.5 0 0 0 .216-.852 1.82 1.82 0 0 1-.581-1.543.5.5 0 0 0-.447-.547c-1.052-.106-4.489-.636-4.538-2.993-.028-1.329 1.232-2.332 3.561-2.846l1.633 4.688a.5.5 0 0 0 .721.269 1.9 1.9 0 0 1 .971-.245h.008a.5.5 0 0 0 .498-.449c.219-2.15 1.118-4.46 2.985-4.499 1.331-.021 2.332 1.234 2.847 3.561L9.782 6.134a.5.5 0 0 0-.268.724c.174.297.266.626.266.952 0 .084-.011.168-.024.283a.5.5 0 0 0 .44.554c1.106.126 4.717.723 4.725 3.102.004 1.328-1.272 2.309-3.608 2.783l-1.087-3.368a.5.5 0 1 0-.951.307l1.222 3.786c.076.235.31.386.559.34 4.242-.714 4.87-2.72 4.866-3.852-.007-2.063-1.919-3.551-5.143-4.03Z"/></svg>