<!-- SPDX-FileCopyrightText: © 2025 Schneider Electric SPDX-License-Identifier: LicenseRef-Proprietary -->
<svg xmlns="http://www.w3.org/2000/svg" viewBox="0 0 16 16"><path fill="currentColor" d="M9.477 6.08a.5.5 0 0 0-.5.5v4.943a.5.5 0 0 0 1 0V6.58a.5.5 0 0 0-.5-.5Z"/><path fill="currentColor" d="M15.527 8.501a.5.5 0 0 0 .5-.5V4.968a.5.5 0 0 0-1 0v1.075h-2.091v-.682c0-.75-.606-1.359-1.353-1.359h-.321v-.663c0-.711-.578-1.29-1.289-1.29a.5.5 0 0 0 0 1 .29.29 0 0 1 .289.29v.663H1.79v-.663c0-.16.13-.29.29-.29h5.954a.5.5 0 0 0 0-1H3.087l-.028-1.043h3.136a.5.5 0 0 0 .001-.999H1.472a.499.499 0 1 0 0 1h.587v.009l.028 1.034h-.008c-.711 0-1.29.579-1.29 1.29v.786A1.36 1.36 0 0 0 0 5.361v7.292c0 .548.325 1.022.791 1.237v.821c0 .401.115.718.34.941.321.317.755.35 1.134.35h.28a.501.501 0 0 0 0-1.001h-.144c-.176.005-.5.007-.566-.059-.015-.015-.043-.082-.043-.23v-.698h7.237a.5.5 0 0 0 0-1H1.353A.357.357 0 0 1 1 12.655V5.363c0-.198.158-.359.353-.359h10.231c.194 0 .353.161.353.359v1.043a.5.5 0 0 0 0 .278v5.972a.356.356 0 0 1-.353.359.5.5 0 0 0-.493.583v.926c0 .26-.175.479-.382.479H4.456a.5.5 0 0 0 0 1h6.253c.762 0 1.382-.663 1.382-1.479v-.607c.495-.202.846-.691.846-1.261v-.303h2.048v.958a.5.5 0 0 0 1 0v-3.032a.5.5 0 0 0-1 0v1.074h-2.048V7.045h2.091v.958a.5.5 0 0 0 .5.5Z"/><path fill="currentColor" d="M5.944 6.55v4.943a.5.5 0 0 0 1 0V6.55a.5.5 0 0 0-1 0Zm-3.091.008v4.943a.5.5 0 0 0 1 0V6.558a.5.5 0 0 0-1 0Z"/></svg>