<!-- SPDX-FileCopyrightText: © 2025 Schneider Electric SPDX-License-Identifier: LicenseRef-Proprietary -->
<svg xmlns="http://www.w3.org/2000/svg" viewBox="0 0 16 16"><path d="M13.298 0H2.702A2.705 2.705 0 0 0 0 2.702v8.98c0 1.408.902 2.317 2.299 2.317h4.406l3.055 2.112a.5.5 0 0 0 .695-.127.5.5 0 0 0-.127-.695l-3.183-2.201a.5.5 0 0 0-.284-.089H2.299C1.707 12.999 1 12.77 1 11.682v-8.98C1 1.764 1.764 1 2.702 1h10.596C14.236 1 15 1.763 15 2.702v9.024C15 12.909 13.706 13 13.31 13H10.5a.5.5 0 0 0 0 1h2.81c1.609 0 2.69-.914 2.69-2.274V2.702A2.705 2.705 0 0 0 13.298 0Z"/><path d="M7.988 8.274c-.303 0-.588-.097-.823-.278a.5.5 0 1 0-.611.791c.412.318.908.487 1.435.487 1.275 0 2.312-1.014 2.312-2.259s-1.037-2.26-2.312-2.26c-1.023 0-1.937.67-2.22 1.626q-.046.153-.069.312a.5.5 0 0 0 .424.566c.266.03.526-.15.566-.424q.012-.083.037-.167c.159-.538.679-.914 1.262-.914.724 0 1.312.565 1.312 1.26s-.589 1.259-1.312 1.259Z"/><path d="M11.125 10.607a.5.5 0 0 0 .598-.039c.036-.031.907-.787 1.269-2.166a.5.5 0 0 0-.268-.578 7 7 0 0 0-.66-.259 4 4 0 0 0 .004-1.019l.66-.308a.5.5 0 0 0 .255-.634c-.018-.047-.451-1.146-1.299-2.034a.5.5 0 0 0-.634-.074 11 11 0 0 0-.544.39 4.2 4.2 0 0 0-.969-.542l.055-.687a.5.5 0 0 0-.363-.521c-.046-.014-1.143-.311-2.532.068a.5.5 0 0 0-.367.515c.012.181.044.432.075.652-.32.133-.624.307-.901.515-.765-.55-.85-.534-1.041-.493a.5.5 0 0 0-.249.133c-.237.233-1.339 1.721-1.211 2.389.03.155.131.288.274.356.177.085.452.194.681.28a.5.5 0 1 0 .352-.936l-.226-.087c.132-.286.379-.701.593-.999.165.113.371.26.549.392a.5.5 0 0 0 .637-.036c.35-.325.778-.568 1.24-.704a.48.48 0 0 0 .303-.221.45.45 0 0 0 .042-.361c0-.003-.041-.255-.076-.524a4.4 4.4 0 0 1 1.187-.043l-.046.583a.7.7 0 0 0 .042.25.5.5 0 0 0 .333.311c.471.135.908.382 1.264.713a.51.51 0 0 0 .655.022s.208-.163.434-.33c.271.343.477.696.612.96l-.457.214a.5.5 0 0 0-.377.607 2.9 2.9 0 0 1-.014 1.412.5.5 0 0 0 .335.602c.106.034.331.107.548.187a3.7 3.7 0 0 1-.568.977l-.58-.376a.5.5 0 0 0-.609.05 3.1 3.1 0 0 1-1.261.697.5.5 0 0 0-.353.592c.021.095.064.301.1.506-.371.066-.856.038-1.256-.02l.017-.623a.5.5 0 0 0-.348-.489 3.1 3.1 0 0 1-1.19-.703.5.5 0 0 0-.684-.004c-.087.081-.277.251-.462.405a3.8 3.8 0 0 1-.622-1.042l.297-.204a.5.5 0 1 0-.566-.824l-.603.414a.5.5 0 0 0-.207.514c.01.048.254 1.184 1.302 2.176a.5.5 0 0 0 .616.056c.174-.113.406-.304.593-.466.266.2.557.368.863.498l-.019.694a.5.5 0 0 0 .387.5c.104.024.707.157 1.372.157.441 0 .911-.059 1.282-.246a.5.5 0 0 0 .273-.479 6 6 0 0 0-.083-.6 4.2 4.2 0 0 0 .921-.521l.623.404Z"/></svg>