<!-- SPDX-FileCopyrightText: © 2025 Schneider Electric SPDX-License-Identifier: LicenseRef-Proprietary -->
<svg xmlns="http://www.w3.org/2000/svg" viewBox="0 0 16 16"><path d="M15.5 4H5V1.754a.5.5 0 0 0-.237-.425l-2-1.238a.5.5 0 0 0-.764.425v3.483H.5A.5.5 0 0 0 0 4.5v9a.5.5 0 0 0 .5.5h.783l-.715 1.252a.5.5 0 0 0 .434.748h13.504a.5.5 0 0 0 0-1H1.864l.715-1.252A.5.5 0 0 0 2.145 13H1V5h1.5a.5.5 0 0 0 .5-.5V1.415l.999.618V4.5a.5.5 0 0 0 .5.5h10.5v8H5.5a.5.5 0 0 0 0 1h10a.5.5 0 0 0 .5-.5v-9a.5.5 0 0 0-.5-.5Z"/><path d="M2.5 10h5a.5.5 0 0 0 0-1h-5a.5.5 0 0 0 0 1Zm9.849-3.921a.5.5 0 0 0-.683.185l-1.324 2.304a.5.5 0 0 0 .008.513.47.47 0 0 0 .455.235l.95-.056-1.1 2.005a.5.5 0 0 0 .877.481l1.536-2.798a.5.5 0 0 0-.016-.508.5.5 0 0 0-.453-.232l-.928.055.862-1.501a.5.5 0 0 0-.185-.683ZM2.5 8h5a.5.5 0 0 0 0-1h-5a.5.5 0 0 0 0 1Z"/></svg>