<!-- SPDX-FileCopyrightText: © paydirekt GmbH SPDX-License-Identifier: LicenseRef-Proprietary -->
<svg xmlns="http://www.w3.org/2000/svg" viewBox="0 0 490 182"><path fill="#1f3a6a" d="M211.653 71.831h-8.169v46.448h8.169Zm-26.544 23.53a18.73 18.73 0 0 1-2.684 9.971c-2.779 4.38-6.948 6.47-10.59 6.47a12.88 12.88 0 0 1-8.522-3.404c-3.273-3.242-4.228-8.442-4.228-13.407.059-7.01 2.08-10.954 5.394-13.988a10.53 10.53 0 0 1 7.276-2.968 12.76 12.76 0 0 1 7.705 2.854c5.916 4.944 5.65 14.022 5.65 14.472m4.166 35.92c3.46-4.57 3.733-9.314 3.982-19.046l-.104-40.404h-7.778v7.176a19.2 19.2 0 0 0-3.75-4.377 16.5 16.5 0 0 0-11.106-3.708 18.86 18.86 0 0 0-15.607 8.3c-3.64 5.013-4.605 11.03-4.605 16.14a32.1 32.1 0 0 0 1.377 9.794 21.7 21.7 0 0 0 6.505 10.227 17.4 17.4 0 0 0 12.33 3.862 19.35 19.35 0 0 0 11.106-4.031 17.2 17.2 0 0 0 3.128-3.501l-.066 6.373a22 22 0 0 1-1.08 6.186 10 10 0 0 1-2.082 3.522c-2.231 2.58-5.086 3.923-10.563 4.117a37.2 37.2 0 0 1-11.818-1.972 27.3 27.3 0 0 1-4.588-2.235l-.865 8.089c1.308.526 2.27.882 3.664 1.36a44.9 44.9 0 0 0 13.081 1.961c6.422 0 10.504-1.466 13.28-2.971a16.6 16.6 0 0 0 5.56-4.861m13.662-70.5h8.943v-9.17h-8.943Zm39.05 17.945a15.7 15.7 0 0 1 5.63 1.111v-8.16c-.412 0-2.917-.387-5-.387a13.54 13.54 0 0 0-10.94 4.764 32 32 0 0 0-2.27 3.519l-.42-7.743h-7.811c.249 5.823.46 9.881.46 15.618 0 6.729-.128 11.476-.128 18.14v12.683h8.435V95.537c.252-4.404.508-10.234 5.023-14.195a10.2 10.2 0 0 1 7.02-2.616m42.698 15.88c0 5.076-1.578 12.511-7.813 16.03a13.39 13.39 0 0 1-12.064.366 16 16 0 0 1-2.276-1.467 15 15 0 0 1-4.412-6.103 21.4 21.4 0 0 1-1.543-8.981c.149-6.439 2.83-11.016 5.63-13.369a13.82 13.82 0 0 1 9.123-3.321c7.19.086 10.376 5.023 11.953 8.798a24 24 0 0 1 1.402 8.047m1.816 18.555c5.37-5.41 6.913-12.77 6.833-18.71-.252-11.41-6.228-18.22-11.884-21.198a22.7 22.7 0 0 0-10.12-2.225c-10.418 0-17.109 5.397-20.313 10.947a27.7 27.7 0 0 0-3.231 13.216c-.087 9.324 3.231 14.815 7.207 18.68a23 23 0 0 0 2.958 2.162c2.601 1.706 6.335 3.124 12.48 3.124a23.1 23.1 0 0 0 9.815-1.813 20.5 20.5 0 0 0 6.255-4.183m14.034-31.456c.25 8.978.25 15.361.25 24.384 0 11.255-.188 22.517-.25 33.758h8.293v-27.852a24.4 24.4 0 0 0 2.623 2.955 17 17 0 0 0 11.445 4.214 19.85 19.85 0 0 0 14.666-6.366c6.937-7.449 6.362-17.524 6.362-19.029a30.4 30.4 0 0 0-1.861-10.182c-2.232-5.747-7.515-12.836-18.465-12.836-1.18 0-7.567 0-12.396 4.785a17.3 17.3 0 0 0-2.872 3.387l-.36-7.092h-7.816c.215 3.705.25 6.203.381 9.874Zm8.148 12.95a23 23 0 0 1 .955-6.474c2.17-6.563 7.082-10.147 12.562-10.147 4.422 0 8.84 2.418 11.296 7.65a20.1 20.1 0 0 1 1.713 9.507 21.6 21.6 0 0 1-1.207 7.162c-3.024 8.629-9.882 9.473-12.155 9.473-5.276 0-10.12-3.543-12.21-9.96a24 24 0 0 1-.954-7.211Zm120.813-22.829-10.358 25.14-4.684 12.175-.322.656c-1.177-3.485-2.8-7.834-4.28-11.966l-9.602-26.005h-8.913l18.655 46.439-9.09 21.582h8.317l29.075-68.02Zm-44.26 6.021c-2.422-4.054-8.668-6.91-15.961-6.91-8.854 0-13.338 3.175-14.566 3.925v7.3c1.868-1.11 7.23-4.4 13.002-4.4 5.636 0 10.062 3.24 11.224 6.275a19.2 19.2 0 0 1 .838 6.127c-2.149-.106-4.44-.194-6.671-.194-4.58 0-11.017.194-15.6 2.44-3.56 1.706-8.436 5.003-8.436 12.445a14.12 14.12 0 0 0 4.688 10.783c2.605 2.208 6.1 3.066 9.65 3.28 5.297.156 9.843-1.463 12.14-3.086a32 32 0 0 0 4.92-4.933v7.372h7.097V88.29c0-4.641-1.08-8.567-2.326-10.442Zm-5.26 19.503a21 21 0 0 1-.705 6.276 12.1 12.1 0 0 1-2.08 3.968c-2.695 3.668-7.19 4.92-10.515 4.92-3.82 0-8.902-1.989-8.902-7.442 0-5.414 6.32-8.271 9.823-8.855a36 36 0 0 1 6.138-.379c2.08 0 4.163.063 6.241.238ZM101.261 72.329h-5.299v1.418h4.171l10.52 42.788H56.832l10.52-42.788h4.171v-1.418h-5.301L54.57 118.28h58.345z"/><path fill="#5dc4e9" d="M93.976 53.022H73.51a2.08 2.08 0 0 0-2.08 2.08v20.074h1.54V55.102a.547.547 0 0 1 .54-.54h3.815v14.48h-4.01l5.745 6.134h9.366l5.745-6.134h-4.01v-14.48h3.816a.547.547 0 0 1 .54.54v20.074h1.54V55.102a2.08 2.08 0 0 0-2.08-2.08Z"/><path fill="#1f3a6a" d="M79.23 100.225h9.024a1.02 1.02 0 0 0 1.027-1.089l-.345-5.912a1.174 1.174 0 0 0-1.155-1.09h-8.078a1.174 1.174 0 0 0-1.155 1.09l-.345 5.912a1.02 1.02 0 0 0 1.027 1.09Zm-3.858-8.091H67.22a1.39 1.39 0 0 0-1.306 1.07l-1.198 5.952a.86.86 0 0 0 .876 1.07h9.087a1.213 1.213 0 0 0 1.184-1.087l.506-5.917a.987.987 0 0 0-.998-1.088Zm4.222-1.866h8.296a.816.816 0 0 0 .822-.872l-.276-4.73a.94.94 0 0 0-.924-.87h-7.54a.94.94 0 0 0-.924.87l-.276 4.73a.816.816 0 0 0 .822.872Zm-3.29-6.473H68.68a1.114 1.114 0 0 0-1.045.856l-.958 4.761a.688.688 0 0 0 .701.856h8.372a.97.97 0 0 0 .947-.87l.405-4.734a.79.79 0 0 0-.798-.869Zm23.78 6.473a.687.687 0 0 0 .7-.856l-.962-4.762a1.115 1.115 0 0 0-1.046-.855H91.18a.79.79 0 0 0-.799.87l.405 4.733a.97.97 0 0 0 .947.87Zm-20.128-8.06h7.573a.714.714 0 0 0 .719-.762l-.214-3.652a.82.82 0 0 0-.808-.763h-6.968a.82.82 0 0 0-.808.763l-.213 3.652a.714.714 0 0 0 .719.762Zm18.608 0a.6.6 0 0 0 .613-.748l-.744-3.68a.976.976 0 0 0-.916-.749h-7.024a.69.69 0 0 0-.699.761l.313 3.655a.85.85 0 0 0 .829.761Zm-21.572-5.176h-7.06a.975.975 0 0 0-.914.748l-.74 3.68a.602.602 0 0 0 .613.748h7.658a.85.85 0 0 0 .829-.76l.313-3.656a.69.69 0 0 0-.7-.76Zm24.888 23.193a.86.86 0 0 0 .874-1.069l-1.203-5.952a1.394 1.394 0 0 0-1.307-1.07h-8.132a.987.987 0 0 0-.997 1.087l.506 5.917a1.213 1.213 0 0 0 1.184 1.087Zm-13.716 2.196H79.32a1.41 1.41 0 0 0-1.385 1.307l-.439 7.5a1.224 1.224 0 0 0 1.233 1.307h10.026a1.224 1.224 0 0 0 1.233-1.307l-.438-7.5a1.41 1.41 0 0 0-1.386-1.307Zm-13.891 0H65.37a1.67 1.67 0 0 0-1.567 1.284l-1.519 7.547a1.032 1.032 0 0 0 1.051 1.283h10.074a1.456 1.456 0 0 0 1.42-1.304l.643-7.505a1.184 1.184 0 0 0-1.198-1.305Zm29.401 1.284a1.67 1.67 0 0 0-1.569-1.284h-8.894a1.184 1.184 0 0 0-1.198 1.305l.643 7.505a1.456 1.456 0 0 0 1.42 1.304h10.074a1.03 1.03 0 0 0 1.05-1.283Z"/></svg>