<!-- SPDX-FileCopyrightText: © 2025 Schneider Electric SPDX-License-Identifier: LicenseRef-Proprietary -->
<svg xmlns="http://www.w3.org/2000/svg" viewBox="0 0 16 16"><path d="M15.393 6.418c-.384-.214-.968-.16-1.384-.039-.598.173-1.064.524-1.316.987a.5.5 0 0 0-.022.429c.077.188.217.369.364.559.162.209.434.56.398.724-.389 1.802-1.24 2.617-1.582 2.788a8 8 0 0 1-.146-.551c-.187-.777-.419-1.743-1.108-2.16-.344-.208-1.134-.417-1.289-.456q-.281-.07-.286-.334c-.009-.362.366-.846 1.1-1.073.239-.074.701.063 1.008.153.44.129.987.289 1.231-.188.178-.344.133-.806-.126-1.3-.279-.534-.838-1.143-1.406-1.218a.5.5 0 0 0-.166.006l-.222.05c-.205.047-.751.171-.861.134-.02-.026-.034-.051-.021-.113.045-.216.353-.553.581-.696.149-.012.863.305 1.183.457.523.249.785.368 1.021.368.973 0 1.854-.876 1.951-.976a.5.5 0 0 0-.716-.699c-.172.175-.768.674-1.195.677-.094-.019-.404-.167-.631-.274-.951-.454-1.563-.708-2.02-.456-.362.201-1.014.721-1.152 1.396-.07.338.002.659.209.927.435.562 1.305.361 1.878.228l.083-.019c.11.056.318.225.505.51q.077.117.122.214c-.445-.13-1.039-.294-1.55-.139-1.271.392-1.822 1.313-1.805 2.053.016.628.413 1.118 1.038 1.278.491.126.905.273 1.021.343.331.201.524 1.006.653 1.538.137.569.235.98.52 1.192.139.104.44.253.895.083.786-.294 1.829-1.525 2.262-3.535.134-.62-.281-1.156-.584-1.547l-.086-.112c.363-.337.999-.41 1.137-.363.068.083.13.439.124.731 0 3.859-3.141 7-7 7-.427 0-.854-.039-1.272-.115.71-1.627 1.351-2.279 1.61-2.494.414-.344.638-.819.612-1.305-.024-.45-.256-.843-.66-1.112-.642-.415-.991-.595-2.043-1.091-.201-.095-.41-.18-.621-.265-.487-.197-.948-.383-1.327-.716a.14.14 0 0 1-.037-.12c.012-.058.086-.095.147-.116.042-.015.116-.036.213-.063.429-.123 1.228-.351 1.81-.68.671-.379 1.016-1.258.769-1.961-.096-.272-.533-1.138-2.078-.883-.322.052-.579-.021-.851-.1-.428-.124-1.012-.293-1.626.277-.266.248-.947 1.829-.915 2.802.046 1.418.881 2.471 1.636 2.849.329.164.379.263.382.263 0 .011-.015.056-.069.128a1.1 1.1 0 0 0-.206.832c.097.604.643 1.032.809 1.149.246.174.277.319.279.413.007.312-.308.712-.583.986-1.924-1.268-2.979-3.272-2.979-5.68C1 4.14 4.14 1 8 1c1.25 0 2.476.337 3.545.964l-.591.112a.5.5 0 1 0 .188.982l1.745-.332.045-.01a.5.5 0 0 0 .296-.226h0a.5.5 0 0 0 .063-.341h0v-.004L12.98.417a.5.5 0 0 0-.984.177l.096.53A8 8 0 0 0 8.001-.001C3.589 0 0 3.589 0 8c0 2.844 1.364 5.29 3.714 6.695.18.145.436.147.617.006.128-.099 1.251-.992 1.23-2.026-.006-.33-.133-.808-.701-1.211-.203-.144-.378-.359-.377-.57.291-.393.29-.731.238-.946-.117-.488-.574-.767-.908-.934-.417-.208-1.049-.909-1.084-1.987-.022-.694.5-1.883.597-2.036.193-.179.274-.164.667-.049.315.091.748.216 1.291.125.198-.031.852-.113.973.229.086.244-.071.619-.317.758-.479.271-1.203.478-1.592.589a6 6 0 0 0-.265.079c-.43.148-.722.464-.801.868a1.14 1.14 0 0 0 .357 1.063c.507.446 1.095.684 1.614.893.192.078.384.155.569.242 1.067.504 1.355.657 1.92 1.022q.2.133.21.328c.009.165-.086.346-.252.483-.43.356-1.276 1.276-2.126 3.438a.497.497 0 0 0 .336.665A8 8 0 0 0 8.001 16c4.411 0 8-3.589 8-7.988.007-.291-.017-1.267-.607-1.594Z"/></svg>