<!-- SPDX-FileCopyrightText: © 2025 Schneider Electric SPDX-License-Identifier: LicenseRef-Proprietary -->
<svg xmlns="http://www.w3.org/2000/svg" viewBox="0 0 16 16"><path d="M8.007.007A8 8 0 0 0 .162 6.468a.5.5 0 0 0 .982.19 7 7 0 0 1 6.863-5.651A7 7 0 0 1 15 8a7 7 0 0 1-6.993 6.993 6.986 6.986 0 0 1-6.921-5.99q1.037.302 2.065.516c.117 2.985 1.152 3.958 1.276 4.063a.494.494 0 0 0 .693-.051.504.504 0 0 0-.036-.702c-.009-.008-.784-.76-.923-3.122 1.136.188 2.255.293 3.346.312v3.799a.5.5 0 0 0 1 0v-3.804a18.5 18.5 0 0 0 3.262-.378c-.126 2.385-.896 3.163-.926 3.191a.5.5 0 0 0 .657.754c.126-.107 1.188-1.105 1.28-4.191q.645-.179 1.26-.409l.119-.044a.5.5 0 1 0-.33-.945l-.14.052q-.45.168-.917.307c-.192-4.187-2.333-6.178-2.429-6.264a.5.5 0 0 0-.672.74c.021.019 1.997 1.858 2.109 5.783-1.042.235-2.138.37-3.275.405V2.37a.5.5 0 0 0-1 0v6.65a22 22 0 0 1-3.364-.33c.088-3.951 2.092-5.844 2.113-5.863a.5.5 0 0 0-.673-.739c-.096.087-2.285 2.123-2.435 6.408a27 27 0 0 1-2.495-.672.5.5 0 0 0-.625.641 7.985 7.985 0 0 0 7.979 7.528c4.407 0 7.993-3.586 7.993-7.993S12.414.007 8.007.007Z"/></svg>