<!-- SPDX-FileCopyrightText: © 2025 Schneider Electric SPDX-License-Identifier: LicenseRef-Proprietary -->
<svg xmlns="http://www.w3.org/2000/svg" viewBox="0 0 16 16"><path d="M15.5 15H1V3h13.5a.5.5 0 0 0 0-1H1v-.5a.5.5 0 0 0-1 0v14a.5.5 0 0 0 .5.5h15a.5.5 0 0 0 0-1Z"/><path d="M13.5 8a.5.5 0 0 0 .5-.5v-3a.5.5 0 0 0-.5-.5h-3a.5.5 0 0 0 0 1h1.893l-4.807 5.225-1.338-.957a.5.5 0 0 0-.739.183l-1.432 2.867-1.138-1.849a.501.501 0 0 0-.852.524l1.61 2.615a.5.5 0 0 0 .426.238h.022a.5.5 0 0 0 .425-.275l1.571-3.147 1.221.873a.5.5 0 0 0 .659-.067l4.978-5.41v1.683a.5.5 0 0 0 .5.5Z"/></svg>