<!-- SPDX-FileCopyrightText: © 2025 Schneider Electric SPDX-License-Identifier: LicenseRef-Proprietary -->
<svg xmlns="http://www.w3.org/2000/svg" viewBox="0 0 16 16"><path d="M15.5 14H1V8h7.516L7.167 9.395l-1.292-.712a.5.5 0 0 0-.683.204l-1.3 2.447-1.064-1.728a.501.501 0 0 0-.852.524l1.522 2.472a.54.54 0 0 0 .442.238.5.5 0 0 0 .425-.266l1.472-2.771 1.182.651a.5.5 0 0 0 .601-.09L9.907 8H13.5a.5.5 0 0 0 0-1h-2.626L14 3.769V5.5a.5.5 0 0 0 1 0v-3a.5.5 0 0 0-.5-.5h-3a.5.5 0 0 0 0 1h1.852L9.484 7H1V3.5a.5.5 0 0 0-1 0v11a.5.5 0 0 0 .5.5h15a.5.5 0 0 0 0-1Z"/></svg>