<!-- SPDX-FileCopyrightText: © 2025 Schneider Electric SPDX-License-Identifier: LicenseRef-Proprietary -->
<svg xmlns="http://www.w3.org/2000/svg" viewBox="0 0 16 16"><path d="M12.342 10.474a.5.5 0 0 0 .5-.5V8.106H15.5a.5.5 0 0 0 0-1h-7V4.158h3.342v1.869a.5.5 0 0 0 1 0V4.158H15.5a.5.5 0 0 0 0-1h-2.658V.5a.5.5 0 0 0-1 0v2.658H8.5V.5a.5.5 0 0 0-1 0v2.658H4.158V.5a.5.5 0 0 0-1 0v2.658H.5a.5.5 0 0 0 0 1h2.658v1.869a.5.5 0 0 0 1 0V4.158H7.5v2.948h-7a.5.5 0 0 0 0 1h2.658v1.868a.5.5 0 0 0 1 0V8.106H7.5v2.947h-7a.5.5 0 0 0 0 1h2.658v3.446a.5.5 0 0 0 1 0v-3.446H7.5V15.5a.5.5 0 0 0 1 0v-3.447h3.342V15.5a.5.5 0 0 0 1 0v-3.447H15.5a.5.5 0 0 0 0-1h-7V8.106h3.342v1.868a.5.5 0 0 0 .5.5Z"/></svg>