<!-- SPDX-FileCopyrightText: © 2025 Schneider Electric SPDX-License-Identifier: LicenseRef-Proprietary -->
<svg xmlns="http://www.w3.org/2000/svg" viewBox="0 0 16 16"><path d="M4.436 7.967a1.52 1.52 0 0 0-.952-.428 1.44 1.44 0 0 0-1.12.426 1.36 1.36 0 0 0-.381 1.182c.05.351.223.703.458.938l1.345 1.386a.5.5 0 0 0 .718-.697l-1.35-1.391a.7.7 0 0 1-.181-.377c-.029-.207.066-.303.098-.334.099-.1.212-.151.344-.135a.5.5 0 0 1 .321.145l1.716 1.642c.353.354.547.822.547 1.321V15h-2v-1.654a.5.5 0 0 0-.143-.35l-2.852-2.914L.999 3.29c0-.16.115-.291.255-.291h.456a.29.29 0 0 1 .289.291v2.881a.5.5 0 0 0 1 0V3.29c0-.711-.578-1.291-1.289-1.291h-.456C.563 2 0 2.579 0 3.291l.005 6.995c0 .131.051.257.143.35L3 13.55v1.95a.5.5 0 0 0 .5.5h3a.5.5 0 0 0 .5-.5v-3.855c0-.766-.298-1.486-.848-2.036z"/><path d="M12 6.12V1.987q.001-.036-.004-.072a.5.5 0 0 0-.282-.391L8.756.053 8.741.046A.5.5 0 0 0 8.362.03L4.391 1.459a.5.5 0 0 0-.167.1.5.5 0 0 0-.231.423L4 6.026a.5.5 0 0 0 .19.391l1.086.859a.5.5 0 1 0 .62-.784L5 5.783 4.995 2.88l2.008 1.244L7 7.991a.5.5 0 0 0 .5.5h.076a.5.5 0 0 0 .215-.049l3.924-1.87A.5.5 0 0 0 12 6.121Zm-1-.315-2.999 1.43.002-3.057 1.494-.609a.5.5 0 0 0 .274-.651.497.497 0 0 0-.651-.274l-1.573.641-1.938-1.2L8.5 1.044 11 2.287z"/><path d="M14.744 2h-.455C13.578 2 13 2.579 13 3.291v2.881a.5.5 0 0 0 1 0V3.291c0-.16.13-.291.289-.291h.455c.141 0 .256.13.256.29l-.005 6.792-2.853 2.914a.5.5 0 0 0-.143.35V15h-2v-3.355c0-.499.194-.969.539-1.313l1.733-1.658a.474.474 0 0 1 .656 0c.224.224.034.595-.087.716l-1.345 1.386a.5.5 0 0 0 .717.697l1.341-1.382c.529-.531.712-1.495.081-2.124a1.44 1.44 0 0 0-1.019-.429h0c-.39 0-.783.161-1.044.423L9.839 9.618a2.85 2.85 0 0 0-.84 2.028v3.855a.5.5 0 0 0 .5.5h3a.5.5 0 0 0 .5-.5v-1.95l2.853-2.914a.5.5 0 0 0 .143-.35L16 3.291C16 2.58 15.437 2 14.744 2Z"/></svg>