<!-- SPDX-FileCopyrightText: © 2025 Schneider Electric SPDX-License-Identifier: LicenseRef-Proprietary -->
<svg xmlns="http://www.w3.org/2000/svg" viewBox="0 0 16 16"><path d="M15.798 4.17a.5.5 0 0 0-.372-.166h-2.594c-.712-.252-5.355-1.815-7.725-.528-1.119.608-1.79 1.281-1.993 2-.165.581.036.975.09 1.069.654 1.022 2.001.621 2.703.218 1.25-.751 2.065-.674 2.133-.669.975 0 2.221 1.109 2.647 1.565 1.057.969 1.318 1.626 1.383 1.918-.352-.075-1.077-.498-1.831-1.058-.333-.282-.63-.51-.808-.644a.5.5 0 0 0-.625.78c.172.147.466.392.821.659.713.611 1.278 1.212 1.434 1.535-.428-.064-1.436-.662-2.455-1.447q-.33-.282-.727-.589a.5.5 0 0 0-.631.776c.262.225.538.452.819.671.898.79 1.134 1.23 1.196 1.411-.42-.038-1.522-.747-2.561-1.644a18 18 0 0 0-.37-.329.5.5 0 0 0-.666.746c.073.067.199.182.364.323.725.667.993 1.061 1.091 1.261-.661-.119-2.444-1.384-4.023-2.886a.5.5 0 0 0-.345-.138H1.046l.268-3H1.5a.5.5 0 0 0 0-1H.856a.5.5 0 0 0-.498.456L.002 9.461a.5.5 0 0 0 .498.544h2.055c1.337 1.256 3.458 3.033 4.708 3.033q.301.002.526-.146a.75.75 0 0 0 .383-.582v-.009c.446.233.879.378 1.226.364.351-.021.564-.188.615-.261.065-.052.276-.253.271-.647a1 1 0 0 0-.008-.12c.654.263 1.221.302 1.579-.053a.84.84 0 0 0 .245-.669 1.2 1.2 0 0 0-.085-.347q.206.032.381-.002a.87.87 0 0 0 .617-.449.4.4 0 0 0 .039-.099c.058-.205.249-1.318-1.662-3.069-.176-.19-1.763-1.853-3.279-1.853h-.006c-.114-.015-1.164-.125-2.705.802-.011.006-1.057.57-1.332.148-.106-.244.074-.911 1.514-1.693 1.756-.955 5.639.124 6.987.619a.5.5 0 0 0 .173.031h2.125l-.323 3h-.047a.5.5 0 0 0-.002 1l.496.003h.002a.5.5 0 0 0 .497-.446l.431-4.002a.5.5 0 0 0-.125-.388Z"/></svg>