<!-- SPDX-FileCopyrightText: © 2025 Schneider Electric SPDX-License-Identifier: LicenseRef-Proprietary -->
<svg xmlns="http://www.w3.org/2000/svg" viewBox="0 0 16 16"><path d="M2.086 3.243 4 3.891l-.633.715a.5.5 0 0 0 .127.767l1.951 1.111a.5.5 0 0 0 .682-.187.5.5 0 0 0-.187-.682l-1.416-.807.724-.818a.5.5 0 0 0-.214-.805l-2.627-.89a.503.503 0 0 0-.634.313.5.5 0 0 0 .313.634ZM8.5 4h2a.5.5 0 0 0 .5-.5v-3a.5.5 0 0 0-1 0V3H9V.5a.5.5 0 0 0-1 0v3a.5.5 0 0 0 .5.5Z"/><path d="M13.961 9.143c.354-.22.652-.674.708-1.081.048-.349.017-.641-.096-.895a1.17 1.17 0 0 0-.663-.636 1.34 1.34 0 0 0-.597-.069l-.001-.005c-.045-.155-.238-.683-.8-.94-.499-.228-1.087-.155-1.469.146l-.07.037c-.112-.224-.349-.489-.85-.633-.621-.18-1.234.233-1.464.388-.221.141-.407.265-.582.381-.304.201-.571.379-.93.584a.5.5 0 1 0 .495.869c.382-.217.666-.406.988-.62.17-.113.352-.234.614-.401.389-.26.55-.253.602-.239.173.05.229.108.233.12a.1.1 0 0 1-.003.05l-.094.054c-.272.156-.544.312-1.041.578a.499.499 0 1 0 .473.881c.508-.272.786-.432 1.065-.591.271-.155.543-.311 1.105-.62a.51.51 0 0 1 .512-.074.5.5 0 0 1 .257.312q.014.043.032.082c-.817.47-1.194.677-2.122 1.115-.16.058-1.028.153-1.666.154-.087-.004-.415-.083-.705-.153-.969-.235-2.59-.627-4.413-.669l-.4-.008c-.873-.018-1.697-.035-2.505-.157a.499.499 0 1 0-.15.988c.872.132 1.728.15 2.634.168l.397.009c1.716.039 3.271.416 4.201.641.52.126.757.182.938.182.346 0 1.691-.06 2.082-.244 1.084-.511 1.473-.735 2.47-1.312.194-.09.34-.094.414-.065.031.011.066.033.1.107.013.029.051.115.019.35a.7.7 0 0 1-.246.368q-.32.2-.641.409c-.635.41-1.292.835-2.027 1.152-.222.095-1.625.409-2.214.409-.164-.004-.577-.045-1.023-.088-.861-.084-1.399-.137-1.612-.118-.236.018-.37.038-.495.057-.109.017-.21.032-.393.041s-.525.023-.847.247c-.153.102-.56.37-.644 1.018a1.5 1.5 0 0 0 .105.773c.168.417.453.736.868.976.781.452 1.333.999 1.34 1.207.001.058-.048.195-.038.199-.133.103-.375.221-.402.26l-.285-.198c-.778-.543-1.242-.856-1.469-.959-.237-.105-1.105-.722-1.477-.984l-.162-.114c-.179-.131-.318-.263-.459-.394a5 5 0 0 0-.792-.636.5.5 0 0 0-.536.843c.269.171.452.342.646.522.168.158.337.313.558.475l.166.118c.696.493 1.346.947 1.647 1.082.183.082.968.631 1.304.866l.297.206a.87.87 0 0 0 .635.139c.333-.058.721-.267.939-.436.269-.206.437-.696.426-1.024-.029-.897-1.295-1.726-1.839-2.04a.95.95 0 0 1-.44-.483c-.017-.043-.058-.144-.042-.27.026-.195.104-.247.246-.341.062-.044.203-.05.299-.055a4 4 0 0 0 .499-.052c.104-.016.217-.033.416-.047.146-.019.959.068 1.442.115.479.046.921.088 1.096.093.771.003 2.298-.347 2.633-.491.813-.351 1.506-.798 2.175-1.23q.313-.204.625-.398Z"/><path d="M10.5 13h-2a.5.5 0 0 0-.5.5v2a.5.5 0 0 0 1 0V14h1v1.5a.5.5 0 0 0 1 0v-2a.5.5 0 0 0-.5-.5Zm5.435 1.874-1.38-2.422a.5.5 0 0 0-.774-.12l-.737.68-.749-1.218a.5.5 0 1 0-.852.524l1.066 1.735a.498.498 0 0 0 .765.106l.722-.666 1.069 1.877a.5.5 0 0 0 .869-.496Z"/></svg>