<!-- SPDX-FileCopyrightText: © 2025 Schneider Electric SPDX-License-Identifier: LicenseRef-Proprietary -->
<svg xmlns="http://www.w3.org/2000/svg" viewBox="0 0 16 16"><circle cx="7.5" cy="5.5" r=".5"/><path d="M5.5 5a.5.5 0 0 0-.5.5V8H3V5.5a.5.5 0 0 0-1 0v5a.5.5 0 0 0 1 0V9h2v3H2.71C1.767 12 1 11.055 1 9.894V6.107c0-1.162.767-2.106 1.71-2.106H7.5a.5.5 0 0 0 0-1H2.71C1.215 3.001 0 4.395 0 6.107v3.787C0 11.607 1.216 13 2.71 13H5.5a.5.5 0 0 0 .5-.5v-7a.5.5 0 0 0-.5-.5Z"/><path d="M7 7.5v3a.5.5 0 0 0 1 0v-3a.5.5 0 0 0-1 0Zm6 3a.5.5 0 0 0 1 0v-3a.5.5 0 0 0-1 0z"/><path d="M13.408 3H9.5a.5.5 0 0 0-.5.5v7a.5.5 0 0 0 1 0V8h1.5a.5.5 0 0 0 0-1H10V4h3.408C14.271 4 15 4.965 15 6.106v3.787c0 1.142-.729 2.106-1.592 2.106H7.5a.5.5 0 0 0 0 1h5.908c1.429 0 2.592-1.394 2.592-3.106V6.106C16 4.393 14.837 3 13.408 3Z"/><circle cx="13.5" cy="5.5" r=".5"/></svg>