<!-- SPDX-FileCopyrightText: © 2025 Schneider Electric SPDX-License-Identifier: LicenseRef-Proprietary -->
<svg xmlns="http://www.w3.org/2000/svg" viewBox="0 0 16 16"><path d="M4.469 10.152h.006a.5.5 0 0 0 .494-.506l-.027-2.25c-.003-.277-.221-.54-.506-.494a.5.5 0 0 0-.494.506l.027 2.25a.5.5 0 0 0 .5.494ZM9.756 15c-.423 0-.728-.658-.871-1.05a.5.5 0 0 0-.94.344c.515 1.408 1.267 1.705 1.864 1.705h.003a.486.486 0 0 0 .461-.51.516.516 0 0 0-.518-.489Zm-1.729-2.415a.5.5 0 0 0 .439-.554 18 18 0 0 1-.103-2.026.5.5 0 0 0-.5-.499c-.311-.02-.501.225-.5.501.002.813.039 1.533.109 2.138a.5.5 0 0 0 .496.442q.029 0 .058-.003ZM11.5 7.452a.5.5 0 0 0-.5.5v2.085a.5.5 0 0 0 1 0V7.952a.5.5 0 0 0-.5-.5Zm0 4.171a.5.5 0 0 0-.5.5v.516c0 .007-.017.723-.245 1.382a.5.5 0 0 0 .946.327c.282-.814.299-1.657.3-1.701v-.525a.5.5 0 0 0-.5-.5Zm0-8.342a.5.5 0 0 0-.5.5v2.085a.5.5 0 0 0 1 0V3.781a.5.5 0 0 0-.5-.5Zm-6.374 9.216L5 12.379v-.982a.5.5 0 0 0-1 0v1.096c0 .33.229.539.45.742.311.285.53.515.53.891 0 .508-.429.864-.814.867h-.004c-.36 0-.669-.258-.732-.501-.075-.283-.232-.688-.562-1.005a.5.5 0 0 0-.694.72c.163.157.247.38.288.539.187.713.916 1.248 1.7 1.248h.01c.98-.006 1.809-.86 1.809-1.867 0-.845-.535-1.335-.854-1.628Z"/><path d="M11.29.695 7.257 0C5.54 0 4.135 1.39 3.925 3.174a.5.5 0 0 0-.031.165l.002.149c-.002.047-.013.091-.013.138 0 .061.014.118.017.178l.021 1.784a.5.5 0 0 0 .5.494h.006a.5.5 0 0 0 .289-.107c.626.771 1.549 1.271 2.614 1.271h.013l.123-.021c-.013.183-.028.401-.043.668a.5.5 0 0 0 .471.527h.028a.5.5 0 0 0 .499-.472c.023-.407.046-.712.061-.901l1.226-.214a.5.5 0 0 0-.172-.986l-2.279.405c-1.251 0-2.269-1.08-2.357-2.441l-.004-.33C4.965 2.101 5.99.998 7.172.991l3.042.53c.01.002.017.009.027.011.14.024.32.093.479.41a.5.5 0 0 0 .671.223.5.5 0 0 0 .258-.342c.801.302 1.298.965 1.298 1.802a.5.5 0 0 0 1 0c0-1.504-1.071-2.683-2.657-2.932Z"/></svg>