<!-- SPDX-FileCopyrightText: © 2025 Schneider Electric SPDX-License-Identifier: LicenseRef-Proprietary -->
<svg xmlns="http://www.w3.org/2000/svg" viewBox="0 0 16 16"><path d="M15.783 5.241 8.283.088a.5.5 0 0 0-.566 0l-7.5 5.153a.5.5 0 1 0 .566.824L8 1.106l7 4.81v9.083h-1V12.3c-.025-.949-.394-1.684-1.094-2.182-1.522-1.082-4.385-.731-6.558-.042a.5.5 0 0 0-.349.477v2.446h-3.5a.5.5 0 0 0-.5.5v1.5h-1v-3.5a.5.5 0 0 0-1 0v4a.5.5 0 0 0 .5.5h2a.5.5 0 0 0 .5-.5v-1.5h3.5a.5.5 0 0 0 .5-.5v-2.575c1.819-.524 4.178-.807 5.327.01.436.311.656.766.673 1.38V15.5a.5.5 0 0 0 .5.5h2a.5.5 0 0 0 .5-.5V5.653a.5.5 0 0 0-.217-.412Z"/><path d="M2.616 11.21c1.113 0 2.119-.578 2.563-1.473a.5.5 0 0 0 0-.445c-.444-.895-1.45-1.473-2.563-1.473S.497 8.397.052 9.292a.5.5 0 0 0 0 .445c.445.895 1.451 1.473 2.564 1.473Zm0-2.391c.633 0 1.206.267 1.53.695-.324.429-.897.695-1.53.695s-1.206-.267-1.53-.695c.324-.429.897-.695 1.53-.695Z"/></svg>