<!-- SPDX-FileCopyrightText: © 2025 Schneider Electric SPDX-License-Identifier: LicenseRef-Proprietary -->
<svg xmlns="http://www.w3.org/2000/svg" viewBox="0 0 16 16"><path d="M15.954 9.275za.6.6 0 0 0-.076-.119q0 0 0 0l-.024-.027-2.35-2.36a.5.5 0 0 0-.709.705l1.512 1.52-4.547.035H5.997a2.05 2.05 0 0 0-2.049 2.048v3.924H1V5.905l7-4.799 4.065 2.792a.5.5 0 1 0 .566-.824L8.283.088a.5.5 0 0 0-.566 0l-7.5 5.141A.5.5 0 0 0 0 5.642V15.5a.5.5 0 0 0 .5.5h3.947a.5.5 0 0 0 .5-.5v-4.424a1.05 1.05 0 0 1 1.049-1.048h3.767l4.538-.035-1.518 1.55a.5.5 0 0 0 .715.699l2.358-2.408.008-.007h0c.003-.005 0-.002 0-.002h0a.5.5 0 0 0 .135-.346.5.5 0 0 0-.046-.205Z"/></svg>