<!-- SPDX-FileCopyrightText: © 2025 Schneider Electric SPDX-License-Identifier: LicenseRef-Proprietary -->
<svg xmlns="http://www.w3.org/2000/svg" viewBox="0 0 16 16"><path d="M8.672 9.095a.454.454 0 1 0 0 .909.454.454 0 0 0 0-.909Zm0 1.818a.454.454 0 1 0 0 .907.454.454 0 0 0 0-.907Zm2.954.605a.455.455 0 1 0-.453-.788.455.455 0 0 0 .453.788Zm-6.076-.621a.455.455 0 1 0 .789.455.455.455 0 0 0-.789-.455Zm5.168-.954a.454.454 0 1 0-.455-.787.454.454 0 0 0 .455.787Zm-4.257-.62a.454.454 0 1 0 .785.456.454.454 0 0 0-.785-.456Z"/><path d="M15.791 5.475 8.292.094a.5.5 0 0 0-.588.004l-7.5 5.524a.5.5 0 1 0 .593.805l7.207-5.309L15 6.138V15l-11 .006V7.833c0-1.012.648-1.895 1.542-2.098.681-.155 1.245-.075 1.628.231.287.229.465.583.522 1.034H6.5a.5.5 0 0 0 0 1h3a.5.5 0 0 0 0-1h-.802c-.07-.765-.385-1.401-.903-1.815-.62-.496-1.498-.646-2.474-.425-1.345.306-2.322 1.598-2.322 3.073v7.673a.5.5 0 0 0 .501.5l12-.006h.023s0 0 0 0h.024a.5.5 0 0 0 .419-.317v-.002h0v-.002h0v-.002h0v-.003h0v-.003h0s0 0 0 0v-.002h0v-.003s0 0 0 0v-.002s0 0 0 0h0v-.002h0v-.002h0v-.002h0v-.002h0v-.002h0v-.002h0v-.002h0v-.002h0v-.004h0v-.002s0 0 0 0h0v-.002h0v-.002h0v-.002s0 0 0 0h0v-.002h0v-.002h0v-.002h0v-.002h0v-.002h0v-.002s0 0 0 0h0v-.002h0v-.002h0v-.002h0v-.002h0v-.002h0v-.002h0v-.002h0v-.002s0 0 0 0h0v-.002h0v-.002s0 0 0 0h0v-.002h0V15.6h0v-.002h0v-.002h0v-.002s0 0 0 0h0v-.002h0v-.002s0 0 0 0h0v-.002h0v-.002h0v-.002s0 0 0 0h0v-.002h0v-.002h0v-.004h0v-.002h0v-.002h0v-.004h0v-.002h0v-.002h0v-.002h0v-.002h0v-.002h0v-.002h0v-.002h0v-.002h0v-.002h0v-.002h0v-.002h0v-.002h0v-.002h0v-.002h0v-.002h0v-.002h0v-.002h0v-.002s0 0 0 0h0v-.002h0v-.002h0v-.002h0v-.002h0v-.002h0v-.002h0v-.002h0v-.002h0v-.002h0v-.002h0V5.881a.5.5 0 0 0-.209-.406Z"/></svg>