<!-- SPDX-FileCopyrightText: © 2025 Schneider Electric SPDX-License-Identifier: LicenseRef-Proprietary -->
<svg xmlns="http://www.w3.org/2000/svg" viewBox="0 0 16 16"><path d="M15.792 5.477 8.292.094a.5.5 0 0 0-.588.004l-7.5 5.526a.5.5 0 1 0 .593.805l7.207-5.311L15 6.139v8.86h-3.944l-.052-.296c-.071-.399-.152-.853-.168-1.28a105 105 0 0 1-.049-2.022h1.185a.5.5 0 0 0 .5-.5V8.693a.5.5 0 0 0-.393-.488l-2.338-.516a.495.495 0 0 0-.54.237 1.3 1.3 0 0 1-.668.568v-.838a1.413 1.413 0 1 0-1.209-2.541.501.501 0 0 0 .503.865c.254-.145.617.056.617.356a.41.41 0 0 1-.411.412.5.5 0 0 0-.5.5v1.225a1.33 1.33 0 0 1-.616-.547.5.5 0 0 0-.54-.237l-2.338.516a.5.5 0 0 0-.393.488v2.208a.5.5 0 0 0 .5.5H5.33c.016.729.022 2.186-.122 3.599H.509a.5.5 0 0 0 0 1h5.146a.5.5 0 0 0 .496-.438c.277-2.189.168-4.584.164-4.685a.5.5 0 0 0-.5-.477H4.646V9.093l1.621-.357c.438.529 1.095.846 1.792.846s1.355-.316 1.792-.846l1.62.357V10.4H10.28a.5.5 0 0 0-.5.503s.011 1.257.056 2.555c.019.499.106.988.184 1.42.044.247.085.475.105.671.025.255.24.449.497.449H15.5a.5.5 0 0 0 .5-.5V5.883a.5.5 0 0 0-.208-.406Z"/></svg>