<!-- SPDX-FileCopyrightText: © 2025 Schneider Electric SPDX-License-Identifier: LicenseRef-Proprietary -->
<svg xmlns="http://www.w3.org/2000/svg" viewBox="0 0 16 16"><circle cx="4.5" cy="12.484" r=".5" fill="currentColor"/><circle cx="6.5" cy="12.484" r=".5" fill="currentColor"/><circle cx="8.5" cy="12.484" r=".5" fill="currentColor"/><path fill="currentColor" d="M10.475 12.893a.503.503 0 0 0-.683-.184.5.5 0 0 0-.183.684 1.287 1.287 0 0 0 2.4-.64c0-.709-.577-1.285-1.285-1.285a.5.5 0 0 0 0 1c.157 0 .285.128.285.285 0 .26-.403.367-.534.141Z"/><path fill="currentColor" d="M13.5 0h-11a.5.5 0 0 0-.5.5v15a.5.5 0 0 0 1 0V1h10v14H5.5a.5.5 0 0 0 0 1h8a.5.5 0 0 0 .5-.5V.5a.5.5 0 0 0-.5-.5Z"/><path fill="currentColor" d="M4 8.5v2a.5.5 0 0 0 .5.5h5a.5.5 0 0 0 0-1H5V9h6v1.5a.5.5 0 0 0 1 0v-2a.5.5 0 0 0-.5-.5h-7a.5.5 0 0 0-.5.5Z"/><circle cx="6.5" cy="3.5" r=".5" fill="currentColor"/><circle cx="9.5" cy="3.5" r=".5" fill="currentColor"/><circle cx="5.015" cy="4.5" r=".5" fill="currentColor"/><circle cx="11.035" cy="4.5" r=".5" fill="currentColor"/><circle cx="6.5" cy="5.5" r=".5" fill="currentColor"/><circle cx="9.5" cy="5.5" r=".5" fill="currentColor"/><circle cx="8" cy="2.5" r=".5" fill="currentColor"/><circle cx="8" cy="4.5" r=".5" fill="currentColor"/><circle cx="8" cy="6.5" r=".5" fill="currentColor"/></svg>