<!-- SPDX-FileCopyrightText: © 2025 Schneider Electric SPDX-License-Identifier: LicenseRef-Proprietary -->
<svg xmlns="http://www.w3.org/2000/svg" viewBox="0 0 16 16"><path d="M3.534 5.028a.5.5 0 0 0 .502-.502V3.358l7.085-2.178v4.344a.502.502 0 0 0 1.004 0V.5a.503.503 0 0 0-.649-.48l-8.09 2.487a.5.5 0 0 0-.354.48v1.539c0 .277.225.502.502.502Z"/><path d="M4.826 8.342a.502.502 0 0 0 .833.56l1.473-2.196a.5.5 0 0 0-.007-.57L5.652 4.06a.5.5 0 1 0-.819.581l.978 1.379H.5a.501.501 0 1 0 0 1.003h5.21z"/><path d="m15.859 11.345-4.071-4.181a.5.5 0 0 0-.566-.107L4.977 9.883a.505.505 0 0 0-.139.822l2.925 2.78a.5.5 0 0 0 .567.087l4.391-2.147a.5.5 0 0 0 .275-.375.5.5 0 0 0-.149-.439l-1.363-1.299a.501.501 0 1 0-.693.727l.841.802-3.429 1.677-2.131-2.025 5.244-2.374 3.353 3.442-6.476 3.329-4.156-4.003v-2.37a.502.502 0 0 0-1.004 0v2.584c0 .137.055.267.153.361l4.568 4.4a.5.5 0 0 0 .578.085l7.398-3.805a.504.504 0 0 0 .13-.797Z"/></svg>