<!-- SPDX-FileCopyrightText: © 2025 Schneider Electric SPDX-License-Identifier: LicenseRef-Proprietary -->
<svg xmlns="http://www.w3.org/2000/svg" viewBox="0 0 16 16"><path d="M10.253 8.829a.5.5 0 0 0-.998-.082s-.027.331-.066 1.058a.5.5 0 0 0 .473.526h.027a.5.5 0 0 0 .499-.474c.037-.701.063-1.023.064-1.028Zm-.664 2.408a.493.493 0 0 0-.528.47 9 9 0 0 1-.041.488 8 8 0 0 0-.034.371.5.5 0 0 0 .463.534l.036.001a.5.5 0 0 0 .498-.465c.01-.142.021-.237.031-.334.015-.139.03-.28.045-.536a.5.5 0 0 0-.47-.528Zm2.574-1.353c.073-.686.125-1.004.126-1.014a.5.5 0 1 0-.987-.163s-.056.336-.134 1.072a.5.5 0 0 0 .994.106Zm-4.558 3.217za.5.5 0 0 0 .5-.5v-.951a.5.5 0 0 0-.499-.5h0a.5.5 0 0 0-.5.5v.951c-.001.276.222.5.499.5Zm3.249-1.423a4 4 0 0 1-.078.468 5 5 0 0 0-.07.388.5.5 0 0 0 .99.138c.019-.134.038-.225.058-.318.031-.145.062-.293.093-.56a.5.5 0 0 0-.993-.115Z"/><path d="m15.877 5.931-1.683-1.938a.51.51 0 0 0-.534-.147c-.029.008-.684.207-1.487-.289-.755-.466-.721-1.312-.719-1.343a.5.5 0 0 0-.282-.484L8.84.604a.5.5 0 0 0-.604.134L6.702 2.615a.5.5 0 0 0 .072.704l.855.696L6.371 5.99l-.009.015H1.556C.847 6.005 0 6.445 0 8.542v.003a.5.5 0 0 0 .5.5h.955c.142 1.093.498 3.746.71 4.455.301 1 1.308 1.673 2.06 1.673h7.089c.752 0 1.76-.672 2.06-1.673.212-.708.568-3.361.71-4.454h.626a.5.5 0 0 0 0-1h-1.067a.5.5 0 0 0-.496.438c-.137 1.095-.537 4.079-.731 4.729-.187.622-.826.96-1.102.96H4.225c-.276 0-.916-.339-1.102-.96-.195-.65-.594-3.634-.731-4.729a.5.5 0 0 0-.496-.438h-.875c.044-.509.176-1.041.536-1.041h10.787a.5.5 0 0 0 0-1H7.549l1.165-1.829a.5.5 0 0 0-.106-.656l-.812-.661.968-1.184 1.708.825c.053.484.277 1.352 1.179 1.908.816.503 1.561.512 1.981.459l1.492 1.718a.5.5 0 0 0 .755-.655Z"/><path d="M7.605 10.381a.5.5 0 0 0 .5-.5V8.788a.5.5 0 0 0-1 0v1.093a.5.5 0 0 0 .5.5Zm-3.996 2.281a.5.5 0 0 0 .991-.134c-.022-.165-.046-.276-.07-.389-.025-.119-.051-.24-.076-.459a.493.493 0 0 0-.554-.439.5.5 0 0 0-.439.554c.03.264.061.409.091.552.02.092.039.183.057.317Zm.142-2.334a.5.5 0 0 0 .444-.55c-.078-.736-.134-1.072-.134-1.072a.501.501 0 0 0-.987.163c.001.01.053.329.126 1.014a.5.5 0 0 0 .497.447q.026 0 .053-.003Zm1.895.003a.5.5 0 0 0 .473-.526c-.039-.727-.066-1.058-.066-1.058a.5.5 0 0 0-.998.082c0 .005.027.328.064 1.028a.5.5 0 0 0 .499.474zm-.323 2.299a.5.5 0 0 0 .499.466h.034a.5.5 0 0 0 .465-.533c-.011-.157-.022-.263-.033-.371a10 10 0 0 1-.04-.484.5.5 0 0 0-.998.056c.014.254.029.395.043.532.01.097.021.192.03.334Z"/></svg>