<!-- SPDX-FileCopyrightText: © 2025 Schneider Electric SPDX-License-Identifier: LicenseRef-Proprietary -->
<svg xmlns="http://www.w3.org/2000/svg" viewBox="0 0 16 16"><path d="M12.615 8.619a509 509 0 0 1-2.453-4.368l-.034-.068-.016-.025q-.025-.045-.033-.065a.5.5 0 0 0-.094-.137l-.012-.018c-.175-.272-.221-.351-.217-.532a1.617 1.617 0 0 0-2.963-.938 1.615 1.615 0 0 0 .458 2.234l.1.066a.5.5 0 1 0 .554-.832l-.102-.068a.61.61 0 0 1-.176-.85.616.616 0 0 1 1.128.363c-.01.499.178.79.376 1.098l.14.221.014.021c.493.893 2.409 4.342 2.465 4.4.334.588.511 1.258.511 1.939a3.94 3.94 0 0 1-3.938 3.938c-1.701 0-3.204-1.084-3.761-2.763-.007-.022-.174-.573-.359-.952-.168-.343-.41-.815-.411-.815a.685.685 0 0 1 .63-.952c.228 0 .44.112.585.329.002.004.266.414.5.933.089.196.292.868.302.916a2.59 2.59 0 0 0 2.513 1.957 2.595 2.595 0 0 0 2.313-3.763L8.664 6.283a.5.5 0 0 0-.479-.357c-1.358 0-2.464-1.105-2.464-2.464S6.826.998 8.185.998A2.466 2.466 0 0 1 10.63 3.77a.501.501 0 0 0 .993.12q.026-.21.026-.428c0-1.91-1.554-3.464-3.464-3.464S4.721 1.552 4.721 3.462a3.47 3.47 0 0 0 3.147 3.449l1.881 3.44q.164.333.165.708a1.594 1.594 0 0 1-3.132.406l-.025-.109c-.038-.125-.235-.763-.338-.991a9 9 0 0 0-.6-1.106 1.685 1.685 0 0 0-2.925 1.647s.244.475.411.817c.149.305.298.797.33.892a4.93 4.93 0 0 0 4.688 3.384 4.944 4.944 0 0 0 4.938-4.938c0-.854-.222-1.696-.646-2.442Z"/></svg>