<!-- SPDX-FileCopyrightText: © 2025 Schneider Electric SPDX-License-Identifier: LicenseRef-Proprietary -->
<svg xmlns="http://www.w3.org/2000/svg" viewBox="0 0 16 16"><path d="M11.663 6.027c-.303-1.166-1.505-2.356-2.682-2.653a3.83 3.83 0 0 0-3.312.675 3.77 3.77 0 0 0-1.465 2.996c0 .912.327 1.792.965 2.526.532.479.674.621.724 1.056a.5.5 0 0 0 .993-.116c-.096-.828-.496-1.188-1.005-1.639a2.8 2.8 0 0 1 .402-4.035 2.8 2.8 0 0 1 1.588-.583L6.069 6.056a.5.5 0 0 0 .707.707l2.287-2.287.01-.01c.182.084.363.197.536.33L6.644 7.761a.5.5 0 0 0 .707.707l2.957-2.957c.134.183.242.374.317.562a.5.5 0 0 0-.112.084L7.644 9.026a.5.5 0 0 0 .707.707l2.427-2.427a2.78 2.78 0 0 1-.814 1.723c-.643.656-.997 1.595-.997 2.642v.192H7.159c-.46.033-1.145.4-1.145 1.277 0 .872.727 1.247 1.255 1.288h1.46l-.011.037c-.142.467-.439.532-.402.533l-1.195-.004H7.12a.5.5 0 0 0-.001 1h1.25c.357-.037 1.035-.342 1.307-1.238.214-.703.243-.94.026-1.157q-.146-.146-.954-.171l-1.431.002q-.302-.034-.302-.29c0-.075 0-.253.18-.277h2.272a.5.5 0 0 0 .5-.5v-.692c0-.772.26-1.48.706-1.937.972-.961 1.341-2.347.988-3.708Z"/></svg>