<!-- SPDX-FileCopyrightText: © 2025 Schneider Electric SPDX-License-Identifier: LicenseRef-Proprietary -->
<svg xmlns="http://www.w3.org/2000/svg" viewBox="0 0 16 16"><path d="M12.746 1.529a7.5 7.5 0 0 0-1.503-.877.5.5 0 0 0-.77.14L9.147 3.264A.498.498 0 0 0 9.588 4h.448L7.745 7.209A.5.5 0 0 0 8.151 8h.783l-2.205 2.956.262-1.361A.502.502 0 0 0 6.5 9H5.292l1.529-3.289A.5.5 0 0 0 6.368 5h-.515L7.741.701a.5.5 0 1 0-.916-.402l-2.196 5a.5.5 0 0 0 .458.702h.497L4.055 9.29a.498.498 0 0 0 .453.71h1.386l-.559 2.906a.5.5 0 0 0 .893.394l4.104-5.501a.5.5 0 0 0-.4-.799h-.809l2.291-3.209A.502.502 0 0 0 11.007 3h-.583l.698-1.302A7.06 7.06 0 0 1 15 7.982C15 11.851 11.859 15 8 15s-7-3.148-7-7.018c0-1.802.703-3.533 1.923-4.828l-.181 1.758a.5.5 0 1 0 .995.103l.312-3.023v-.008l.002-.013a.5.5 0 0 0-.549-.554L.46 1.732a.501.501 0 0 0 .103.995l1.541-.16A8.07 8.07 0 0 0 0 7.982C0 12.403 3.588 16 8 16s8-3.597 8-8.018a8.06 8.06 0 0 0-3.254-6.453Z"/></svg>