<!-- SPDX-FileCopyrightText: © 2025 Schneider Electric SPDX-License-Identifier: LicenseRef-Proprietary -->
<svg xmlns="http://www.w3.org/2000/svg" viewBox="0 0 16 16"><path d="M3.371 3.558a.5.5 0 0 0 .708 0 .5.5 0 0 0 0-.708l-.956-.957a.502.502 0 0 0-.708.708zm3.211-.984za.5.5 0 0 0 .5-.5L7.084.5a.5.5 0 0 0-.5-.5h0a.5.5 0 0 0-.5.5l-.002 1.574a.5.5 0 0 0 .5.5ZM2.074 5.509H.5a.5.5 0 1 0 0 1h1.574a.5.5 0 1 0 0-1Zm7.762-2.001a.5.5 0 0 0 .354-.146l.956-.955a.5.5 0 0 0-.707-.707l-.956.955a.5.5 0 0 0 .354.853Zm5.602 6.808-2 .118 2.467-3.389a.5.5 0 0 0-.808-.588l-3.09 4.245a.5.5 0 0 0 .434.793l1.992-.117-2.817 3.825a.5.5 0 0 0 .804.594l3.45-4.685a.5.5 0 0 0 .037-.535.49.49 0 0 0-.469-.261ZM13.18 6.51a.5.5 0 0 0 0-1h-1.574a.5.5 0 1 0 0 .999h1.574ZM7.79 3.364c-1.171-.297-2.374-.051-3.302.674a3.76 3.76 0 0 0-1.461 2.987c0 .908.326 1.787.963 2.521.53.475.67.617.721 1.051a.5.5 0 0 0 .993-.116c-.096-.829-.495-1.186-1.002-1.634a2.79 2.79 0 0 1 .4-4.02 2.82 2.82 0 0 1 2.443-.493c.812.206 1.743 1.124 1.951 1.927.262 1.008-.008 2.031-.727 2.742-.641.654-.994 1.59-.994 2.635v.19H5.974c-.459.033-1.143.399-1.143 1.274s.725 1.245 1.252 1.286h1.453l-.011.035c-.141.464-.437.529-.399.53l-1.191-.004h-.001a.5.5 0 0 0-.001 1H7.18c.357-.037 1.033-.342 1.304-1.236.203-.669.257-.943.041-1.139q-.148-.161-.967-.187l-1.426.002q-.3-.034-.3-.288c0-.075 0-.25.178-.274h2.266a.5.5 0 0 0 .5-.5v-.69c0-.771.258-1.476.703-1.93.97-.958 1.338-2.34.986-3.698-.303-1.162-1.502-2.349-2.675-2.646Z"/></svg>