<!-- SPDX-FileCopyrightText: © 2025 Schneider Electric SPDX-License-Identifier: LicenseRef-Proprietary -->
<svg xmlns="http://www.w3.org/2000/svg" viewBox="0 0 16 16"><path d="M7.5 16h-7a.5.5 0 0 1 0-1h7a.5.5 0 0 1 0 1Zm5-.901a.5.5 0 0 1-.354-.146l-3-3a.5.5 0 0 1 .707-.707l2.646 2.646 2.646-2.646a.5.5 0 0 1 .707.707l-3 3a.5.5 0 0 1-.354.146ZM7.5 11h-7a.5.5 0 0 1 0-1h7a.5.5 0 0 1 0 1Zm0-5h-7a.5.5 0 0 1 0-1h7a.5.5 0 0 1 0 1Zm8-.97a.5.5 0 0 1-.354-.146L12.5 2.238 9.854 4.884a.5.5 0 0 1-.707-.707l3-3a.5.5 0 0 1 .707 0l3 3a.5.5 0 0 1-.354.853ZM7.5 1h-7a.5.5 0 0 1 0-1h7a.5.5 0 0 1 0 1Z"/></svg>