<!-- SPDX-FileCopyrightText: © 2025 Schneider Electric SPDX-License-Identifier: LicenseRef-Proprietary -->
<svg xmlns="http://www.w3.org/2000/svg" viewBox="0 0 16 16"><path d="M6.5 0a.5.5 0 0 0-.5.5V7H1.728l1.288-1.27a.5.5 0 1 0-.702-.712L.209 7.093A.5.5 0 0 0 0 7.5v.009c0 .134.054.262.149.356l2.095 2.067a.5.5 0 0 0 .702-.711L1.71 8h4.291v7.5a.5.5 0 0 0 1 0V.5a.5.5 0 0 0-.5-.5Zm9.282 7.087-2.024-2a.5.5 0 0 0-.703.712l1.216 1.2H10V.5a.5.5 0 0 0-1 0v15a.5.5 0 0 0 1 0V8h4.293l-1.309 1.291a.5.5 0 0 0 .703.711l2.164-2.135a.5.5 0 0 0 .148-.356V7.5a.5.5 0 0 0-.218-.413Z"/></svg>