<!-- SPDX-FileCopyrightText: © 2025 Schneider Electric SPDX-License-Identifier: LicenseRef-Proprietary -->
<svg xmlns="http://www.w3.org/2000/svg" viewBox="0 0 16 16"><path d="M1.176 14.002c-.134 0-.502-.029-.799-.3-.172-.156-.377-.448-.377-.951V11.5a.5.5 0 0 1 1 0v1.251c0 .121.025.188.049.211.033.031.115.038.144.039H14.58c.116 0 .271-.019.346-.101.083-.093.085-.271.079-.326l-.004-9.994c0-.231-.047-.4-.125-.453-.119-.08-.418-.031-.587.037-2.007 1.008-12.218 6.122-12.856 6.3-.319.089-.43.749-.432 1.037a.5.5 0 0 1-.5.497H.5a.5.5 0 0 1-.499-.499c0-.623.245-1.744 1.165-1.998.537-.176 7.895-3.832 12.708-6.246.123-.052.938-.374 1.555.038.262.174.572.538.572 1.286v9.932h0s.072.593-.32 1.043c-.177.202-.511.444-1.101.444H1.228s-.02.002-.052.002ZM4.5 12h-.001A.5.5 0 0 1 4 11.499l.008-3a.5.5 0 0 1 .5-.499h.001a.5.5 0 0 1 .499.501l-.008 3a.5.5 0 0 1-.5.499Zm-2 0a.5.5 0 0 1-.5-.5v-2a.5.5 0 0 1 1 0v2a.5.5 0 0 1-.5.5Z"/></svg>