<!-- SPDX-FileCopyrightText: © 2025 Schneider Electric SPDX-License-Identifier: LicenseRef-Proprietary -->
<svg xmlns="http://www.w3.org/2000/svg" viewBox="0 0 16 16"><path d="M9.986 9.894a.5.5 0 0 0-.851-.356L8 10.654 6.865 9.538a.5.5 0 1 0-.702.713l1.123 1.104-1.123 1.104a.496.496 0 0 0-.005.707.5.5 0 0 0 .707.006L8 12.056l1.135 1.116a.497.497 0 0 0 .707-.005.497.497 0 0 0-.005-.707l-1.123-1.104 1.123-1.104a.5.5 0 0 0 .149-.357Z"/><path d="M12.11 6.711h-.462v-3.23a.5.5 0 0 0-.026-.156C11.456 1.45 9.89 0 8 0S4.548 1.446 4.379 3.318a.5.5 0 0 0-.027.163v3.23h-.488a2.584 2.584 0 0 0-2.581 2.581v4.127A2.584 2.584 0 0 0 3.864 16h8.271a2.584 2.584 0 0 0 2.581-2.581V9.292a2.59 2.59 0 0 0-2.606-2.581Zm1.607 6.708c0 .872-.709 1.581-1.581 1.581H3.864a1.58 1.58 0 0 1-1.581-1.581V9.292c0-.872.709-1.581 1.581-1.581h.988a.5.5 0 0 0 .5-.5V3.608a.5.5 0 0 0 .016-.101C5.443 2.101 6.599 1 8 1s2.557 1.101 2.632 2.507a.5.5 0 0 0 .016.099v3.105H6.757a.5.5 0 0 0 0 1h5.379c.872 0 1.581.709 1.581 1.581z"/></svg>