<!-- SPDX-FileCopyrightText: © 2025 Schneider Electric SPDX-License-Identifier: LicenseRef-Proprietary -->
<svg xmlns="http://www.w3.org/2000/svg" viewBox="0 0 16 16"><path fill="currentColor" d="M10.434 15.998a.5.5 0 0 1-.352-.145l-1.164-1.152a.5.5 0 0 1 .704-.711l1.163 1.152a.5.5 0 0 1-.351.855Zm-3.101-.053a.5.5 0 0 1-.5-.5v-1.631a.5.5 0 0 1 1 0v1.631a.5.5 0 0 1-.5.5ZM5.689 12.94a.5.5 0 0 1-.352-.145L1.566 9.057C1.492 8.982.002 7.431.002 5.355.002 2.411 2.417.016 5.385.016a5.4 5.4 0 0 1 3.673 1.436l.625.62a.5.5 0 1 1-.705.71l-.614-.61a4.4 4.4 0 0 0-2.979-1.156c-2.417 0-4.383 1.947-4.383 4.339 0 1.662 1.257 2.98 1.27 2.994l3.417 3.387 1.101-1.092-1.099-1.089-.036.035a.5.5 0 1 1-.703-.711l.387-.383a.5.5 0 0 1 .704 0l1.81 1.792a.5.5 0 0 1 0 .71l-1.812 1.796a.5.5 0 0 1-.352.145Zm4.691-.105H8.735a.5.5 0 0 1 0-1h1.645a.5.5 0 0 1 0 1Zm5.113-1.849a.5.5 0 0 1-.352-.145l-1.164-1.152a.5.5 0 0 1 .703-.711l1.164 1.152a.5.5 0 0 1-.351.855Zm-3.1-.053a.5.5 0 0 1-.5-.5V8.802a.5.5 0 0 1 1 0v1.631a.5.5 0 0 1-.5.5ZM4.27 7.943a.5.5 0 0 1-.353-.146l-.539-.538-.016-.016A2.75 2.75 0 0 1 2.563 5.3c0-1.53 1.254-2.774 2.795-2.774a2.8 2.8 0 0 1 1.965.801l3.425 3.395 1.103-1.091-1.1-1.089-.033.033a.5.5 0 0 1-.703-.711l.385-.381a.5.5 0 0 1 .703 0l1.81 1.793a.5.5 0 0 1 0 .71l-1.812 1.795a.5.5 0 0 1-.703 0L6.627 4.044a1.8 1.8 0 0 0-1.268-.518c-.99 0-1.795.796-1.795 1.774 0 .46.177.895.499 1.228l.008.008.554.553a.499.499 0 0 1-.354.854Zm11.169-.121h-1.646a.5.5 0 0 1 0-1h1.646a.5.5 0 0 1 0 1Z"/></svg>