<!-- SPDX-FileCopyrightText: © 2025 Schneider Electric SPDX-License-Identifier: LicenseRef-Proprietary -->
<svg xmlns="http://www.w3.org/2000/svg" viewBox="0 0 16 16"><path d="m15.361 12.276-3.793-3.792a2.6 2.6 0 0 0-.552-.398 5.76 5.76 0 0 0-1.193-6.399A5.72 5.72 0 0 0 5.758 0h-.002a5.72 5.72 0 0 0-4.07 1.687C.599 2.773 0 4.218 0 5.755s.599 2.982 1.686 4.069a5.75 5.75 0 0 0 6.623 1.089.5.5 0 1 0-.444-.897 4.75 4.75 0 0 1-5.471-.899c-.898-.898-1.393-2.092-1.393-3.362s.495-2.464 1.393-3.362A4.72 4.72 0 0 1 5.756.999h.002a4.73 4.73 0 0 1 3.36 1.394 4.72 4.72 0 0 1 1.393 3.362c0 .779-.192 1.549-.534 2.183a.5.5 0 0 0 .271.92l.041-.001c.117.028.416.176.573.333l3.793 3.792a1.182 1.182 0 0 1-1.671 1.671l-3.462-3.461a.5.5 0 0 0-.707.707l3.462 3.461c.425.425.983.638 1.542.638s1.117-.213 1.543-.638c.85-.852.85-2.235 0-3.085Z"/><path d="M3.213 3.213a3.55 3.55 0 0 0-1.016 2.038 3.7 3.7 0 0 0-.002.989.5.5 0 1 0 .991-.132 2.7 2.7 0 0 1 .001-.72 2.57 2.57 0 0 1 .732-1.469 2.58 2.58 0 0 1 1.835-.761.5.5 0 0 0 0-1c-.96 0-1.864.374-2.542 1.054Z"/></svg>