<!-- SPDX-FileCopyrightText: © 2025 Schneider Electric SPDX-License-Identifier: LicenseRef-Proprietary -->
<svg xmlns="http://www.w3.org/2000/svg" viewBox="0 0 16 16"><path d="M13.5 6a.5.5 0 0 0-.5.5v8.253l-5.437.262-.444-.304a.5.5 0 0 0-.314-.086l-.768.049-.249-.653a.5.5 0 0 0-.501-.32l-1.618.109-.67-.75v-1.55l2.542-.512a.5.5 0 0 0 .458-.501l-.031-5a.5.5 0 0 0-.5-.497.8.8 0 0 0-.215.048h-.064l-1.679.128-.511-.515V3.097l2.56-.311a.5.5 0 0 0 .44-.497v-.924l4.706-.338 1.294.774v2.832l-3.518.127a.5.5 0 0 0-.482.5v1.929a.5.5 0 0 0 .519.499l1.481-.057v.519l-1.618.044a.5.5 0 0 0-.486.514.51.51 0 0 0 .514.486l1.755-.048.835 1.161v.439l-1.556.105a.5.5 0 0 0 .068.998l.488-.033v.31l-1.592.085a.5.5 0 0 0-.473.525c.015.276.247.508.526.473l2.065-.11a.5.5 0 0 0 .473-.499v-.851l.534-.036a.5.5 0 0 0 .466-.499v-1.068a.5.5 0 0 0-.094-.292l-.913-1.27.007-.086V7.111a.5.5 0 0 0-.519-.499l-1.481.057v-.927l3.518-.127a.5.5 0 0 0 .482-.5V1.52a.5.5 0 0 0-.243-.429L11.084.089a.47.47 0 0 0-.292-.069L5.465.403a.5.5 0 0 0-.464.499v.947l-2.56.311a.5.5 0 0 0-.44.497V4.87a.5.5 0 0 0 .145.352l.818.825a.5.5 0 0 0 .393.146l1.616-.123.025 4.019-2.596.522a.5.5 0 0 0-.401.49v2.149a.5.5 0 0 0 .127.333l.959 1.075a.5.5 0 0 0 .407.166l1.493-.102.249.652a.484.484 0 0 0 .499.32l.963-.062.44.302a.5.5 0 0 0 .282.087h.024l6.081-.293a.5.5 0 0 0 .476-.499V6.5a.5.5 0 0 0-.5-.5Z"/></svg>