<!-- SPDX-FileCopyrightText: undefined SPDX-License-Identifier: undefined -->
<svg xmlns="http://www.w3.org/2000/svg" viewBox="0 0 16 16"><path d="M8.251 15.521a.5.5 0 0 1-.223-.947c.695-.348.874-.643.919-.788h0c-.424-.046-.777-.15-1.053-.231-.177-.052-.378-.117-.462-.106a1 1 0 0 0-.226.063c-.251.094-.672.248-1.185-.104-.246-.168-.454-.415-.675-.676-.229-.271-.488-.579-.709-.671-.142-.06-.422-.108-.694-.155-.694-.121-1.558-.271-2.054-.83-.541-.607-.696-1.413-.848-2.192a17 17 0 0 0-.122-.594c-.067-.293-.232-.587-.406-.897-.315-.562-.673-1.2-.438-1.934.284-.891.695-1.042 1.126-1.127.19-.038.315-.062.511-.271l.139-.149c.713-.764 1.276-1.367 2.122-1.367.811 0 1.205.615 1.553 1.158.157.245.319.499.519.707.676.704 1.754 1.093 2.241 1.093.175 0 .744-.29 1.688-1.366l-.112-.163c-.191-.272-.407-.581-.399-.94.016-.591.842-2.164 1.246-2.372.52-.269 1.24-.233 1.926.093.667.316 1.131.813 1.24 1.332.076.362.491.463 1.183.515.353.026.718.054.842.426.506 1.506-.98 2.947-1.448 3.353-.797.692-1.082.638-1.29.535-.107-.054-.187-.133-.263-.208s-.18-.179-.246-.179h0c-.021 0-.144.013-.378.254-.196.202-.252.347-.239.409a.2.2 0 0 0 .062.086l.006-.002c.387-.085 1.296-.285 1.59.423.217.529-.106.862-.262 1.021-.096.1-.147.155-.168.241-.05.212.008.531.063.839.044.24.085.479.094.697.036.91-.419 1.358-1.108 2.035l-.282.279a.5.5 0 0 1-.707-.707l.288-.285c.657-.646.828-.833.81-1.283-.007-.176-.043-.365-.077-.558-.071-.391-.151-.833-.053-1.248.054-.229.156-.397.259-.524a4 4 0 0 0-.232.046 1.3 1.3 0 0 1-.28.043c-.3 0-.74-.28-.917-.698-.116-.275-.215-.839.438-1.512.357-.367.723-.554 1.088-.557h.008c.379 0 .649.19.828.352.511-.354 1.564-1.401 1.519-2.279h-.017c-.598-.045-1.841-.139-2.086-1.306-.036-.17-.284-.442-.689-.635-.395-.186-.804-.231-1.04-.107-.115.144-.696 1.227-.704 1.507.014.05.142.232.218.341.209.297.56.795.19 1.229-1.594 1.875-2.339 1.875-2.584 1.875-.795 0-2.121-.524-2.962-1.4-.268-.278-.465-.587-.64-.859-.317-.496-.471-.698-.71-.698-.393 0-.747.36-1.39 1.049l-.141.15a1.75 1.75 0 0 1-1.046.569c-.198.039-.24.047-.369.45-.095.299.072.63.358 1.141.192.342.409.729.509 1.162q.07.313.129.628c.131.677.255 1.315.613 1.719.265.297.938.414 1.479.509.355.062.663.115.907.218.445.185.787.591 1.089.948.168.199.342.405.475.497.086.059.086.057.273-.01.134-.05.301-.111.511-.124.255-.011.512.059.805.146.336.099.716.211 1.184.211.163 0 .315.079.409.213.137.195.259.572.152.992-.141.558-.627 1.048-1.446 1.457a.5.5 0 0 1-.224.053Z"/></svg>