<!-- SPDX-FileCopyrightText: © 2025 Schneider Electric SPDX-License-Identifier: LicenseRef-Proprietary -->
<svg xmlns="http://www.w3.org/2000/svg" viewBox="0 0 16 16"><path d="M13.139 1.793a2.864 2.864 0 0 0-2.861 2.861c0 .16.016.319.048.489L5.655 9.814c-.374.396-.857 1.164-.153 2.056-.139.437-.533 1.337-1.415 1.337-.376 0-.483-.169-.707-.839-.202-.606-.507-1.522-1.655-1.522-.694 0-1.091.307-1.302.563-.602.734-.395 1.875-.369 2.003a.5.5 0 0 0 .586.392.5.5 0 0 0 .395-.587c-.04-.205-.095-.862.163-1.175.07-.084.2-.196.527-.196.376 0 .483.169.707.839.202.606.507 1.522 1.655 1.522 1.569 0 2.294-1.55 2.458-2.37a.5.5 0 0 0-.137-.451c-.275-.276-.414-.474-.036-.874l4.859-4.859a.5.5 0 0 0 .127-.49 1.8 1.8 0 0 1-.08-.508c0-1.026.835-1.861 1.861-1.861S15 3.629 15 4.655s-.835 1.862-1.861 1.862c-.134 0-.274-.02-.444-.061a.5.5 0 0 0-.473.132l-4.575 4.575a.5.5 0 0 0 .707.707l4.386-4.385c1.793.282 3.261-1.121 3.261-2.83a2.864 2.864 0 0 0-2.861-2.861Z"/></svg>