<!-- SPDX-FileCopyrightText: © 2025 Schneider Electric SPDX-License-Identifier: LicenseRef-Proprietary -->
<svg xmlns="http://www.w3.org/2000/svg" viewBox="0 0 16 16"><path d="M13.497 3.036a.5.5 0 1 0 0 1 .5.5 0 0 0 0-1ZM4.984 5.872a.5.5 0 0 0-.687.168c-.59.973-.187 1.754.081 2.271.283.548.343.706-.006 1.055a.5.5 0 0 0 .708.707c.88-.88.463-1.687.188-2.221-.271-.525-.399-.821-.113-1.293a.5.5 0 0 0-.168-.687Z"/><path d="M15.48 12za.5.5 0 0 0 .5-.499l.019-8.896C15.999 1.72 15.312 1 14.47 1H1.552c-.844 0-1.53.72-1.53 1.604L0 13.394c0 .886.686 1.605 1.529 1.605h12.92c.843 0 1.529-.72 1.529-1.605a.5.5 0 0 0-1 0c0 .334-.237.605-.529.605H1.529c-.292 0-.529-.271-.529-.604l.022-10.79c0-.334.237-.605.529-.605H14.47c.292 0 .529.271.529.604l-.019 8.895a.5.5 0 0 0 .499.501Z"/><path d="M9.466 5.886a.5.5 0 0 0-.687.169c-.59.976-.252 1.658-.005 2.155.228.458.354.711.009 1.257a.5.5 0 1 0 .846.532c.643-1.021.295-1.722.04-2.234-.22-.443-.341-.687-.035-1.193a.5.5 0 0 0-.169-.687Z"/><path d="M2 12.5a.5.5 0 0 0 .5.5h9a.5.5 0 0 0 .5-.5v-9a.5.5 0 0 0-.5-.5h-9a.5.5 0 0 0-.5.5v7a.5.5 0 0 0 1 0V4h8v8H2.5a.5.5 0 0 0-.5.5Z"/><path d="M7.263 5.872a.5.5 0 0 0-.687.168c-.593.978-.258 1.661-.015 2.159.218.444.349.713.016 1.259a.5.5 0 1 0 .854.52c.619-1.014.278-1.71.029-2.219-.218-.445-.338-.691-.028-1.201a.5.5 0 0 0-.168-.687Zm6.234.104a.474.474 0 1 0 0-.947.474.474 0 0 0 0 .947Zm0 2.047a.48.48 0 1 0 .001-.959.48.48 0 0 0-.001.959Z"/></svg>