<!-- SPDX-FileCopyrightText: © 2024 «Мир». Все права защищены SPDX-License-Identifier: LicenseRef-Proprietary -->
<svg xmlns="http://www.w3.org/2000/svg" version="1.1" viewBox="0 0 581.035 372.461" xmlns:xlink="http://www.w3.org/1999/xlink"><defs><linearGradient id="a" x1="0" x2="1" y1="0" y2="0" gradientTransform="matrix(150.32471 0 0 58.85932 399.35 142.28)" gradientUnits="userSpaceOnUse" spreadMethod="pad"><stop offset="0" stop-color="#47a0de" stop-opacity="1"/><stop offset="1" stop-color="#3877c5" stop-opacity="1"/></linearGradient></defs><path fill="#ffffff" d="M29.795 0C13.332 0 0 13.334 0 29.797v312.867c0 16.463 13.332 29.797 29.795 29.797H551.24c16.463 0 29.795-13.334 29.795-29.797V29.797C581.035 13.334 567.703 0 551.24 0Z"/><path fill="url(#a)" d="M399.35 112.856c2.608 32.85 33.745 58.849 71.736 58.849h77.695c.596-2.98.894-6.109.894-9.312 0-27.264-21.975-49.314-49.165-49.537z"/><path fill="#040606" d="M31.437 112.78v146.005H76.13v-84.92a2.91 2.91 0 0 1 2.906-2.907c1.49 0 2.68 1.044 2.904 2.385l26.073 85.516h32.181l26.147-85.442c.223-1.415 1.414-2.458 2.904-2.533a2.91 2.91 0 0 1 2.906 2.906v84.995h44.696V112.78h-49.762c-8.194 0-16.835 6.332-19.219 14.228l-21.752 71.139c-1.117 3.501-2.83 3.575-3.947 0l-21.752-71.139c-2.384-7.821-11.025-14.228-19.219-14.228Zm206.341.075v146.004h44.696c5.587-.298 11.844-4.394 14.228-9.46l36.5-78.29c-.074-.075 0-.15 0-.225.522-.894 1.342-1.414 2.385-1.414 1.49 0 2.607 1.19 2.682 2.606v86.783h44.695V112.855h-44.695c-5.662.223-12.068 4.32-14.452 9.46l-35.533 76.28c-.074.298-.224.597-.373.895a3 3 0 0 1-2.459 1.265 2.986 2.986 0 0 1-2.978-2.978v-84.922zm167.534 66.299v80.45h44.693V211.93h50.656c21.305-.149 39.405-13.78 46.258-32.775z"/></svg>