<!-- SPDX-FileCopyrightText: © 2025 Schneider Electric SPDX-License-Identifier: LicenseRef-Proprietary -->
<svg xmlns="http://www.w3.org/2000/svg" viewBox="0 0 16 16"><path d="M2.725 4.436a.5.5 0 1 0-.666-.746C.731 4.877 0 6.408 0 8s.731 3.123 2.059 4.31a.5.5 0 0 0 .706-.04.5.5 0 0 0-.04-.706C1.613 10.57 1 9.304 1 8.001s.613-2.569 1.725-3.564ZM9.317 1H6.682C5.203 1 4 2.063 4 3.37v9.254C4 13.935 5.207 15 6.69 15h2.621C10.794 15 12 13.935 12 12.624V7.5a.5.5 0 0 0-1 0v5.124C11 13.383 10.242 14 9.311 14H6.69C5.758 14 5 13.383 5 12.624V3.37C5 2.615 5.754 2 6.682 2h2.635C10.245 2 11 2.614 11 3.37V5.5a.5.5 0 0 0 1 0V3.37C12 2.063 10.797 1 9.317 1Zm4.624 2.691a.5.5 0 1 0-.666.745C14.387 5.431 15 6.697 15 8s-.612 2.569-1.725 3.563a.5.5 0 0 0 .666.746C15.268 11.121 16 9.591 16 7.999s-.731-3.122-2.059-4.309Z"/><path d="M10 3.5a.5.5 0 0 0-.5-.5h-3a.5.5 0 0 0 0 1h3a.5.5 0 0 0 .5-.5ZM7.5 12a.5.5 0 0 0 0 1h1a.5.5 0 0 0 0-1z"/></svg>