<!-- SPDX-FileCopyrightText: © 2025 Schneider Electric SPDX-License-Identifier: LicenseRef-Proprietary -->
<svg xmlns="http://www.w3.org/2000/svg" viewBox="0 0 16 16"><path d="m11.984 6.09.042.001a.5.5 0 0 0 .04-.999l-6.412-.529a.51.51 0 0 0-.54.458.5.5 0 0 0 .458.54zM4.533 7.292a.5.5 0 0 0 .458.54l6.412.529.042.001a.501.501 0 0 0 .04-.999l-6.412-.529a.51.51 0 0 0-.54.458Zm-.164 1.744a.507.507 0 0 0-.54.457.5.5 0 0 0 .458.539l6.412.529.042.002a.5.5 0 0 0 .04-.998z"/><path d="M14.022.575a1.2 1.2 0 0 0-.792.228 1.2 1.2 0 0 0-.752-.342 1.2 1.2 0 0 0-.792.227 1.2 1.2 0 0 0-.75-.341 1.2 1.2 0 0 0-.793.227 1.22 1.22 0 0 0-.751-.341A1.23 1.23 0 0 0 8.6.46a1.22 1.22 0 0 0-.751-.341 1.18 1.18 0 0 0-.792.227 1.2 1.2 0 0 0-.75-.341c-.849-.072-1.554.784-1.638 1.924a3 3 0 0 0 0 .424l-.007.053a.5.5 0 0 0 .045.246q.05.26.148.49a.5.5 0 0 0 .957-.155l.501.035q.036.121.085.233a.502.502 0 0 0 .958-.161l.499.035q.037.122.085.237a.5.5 0 0 0 .656.264.5.5 0 0 0 .303-.429l.497.035q.037.126.088.244a.5.5 0 0 0 .656.264.5.5 0 0 0 .304-.436l.494.034q.04.132.092.255a.501.501 0 0 0 .959-.182l.491.034q.04.136.094.263a.5.5 0 0 0 .837.132c-1.027 5.791-1.872 8.256-2.208 9.085-2.991-.773-7.377-.862-9.22-.862h-.049c1.729-3.783 2.382-7.731 2.588-9.32a.5.5 0 0 0-.431-.56.495.495 0 0 0-.56.431C3.318 4.26 2.614 8.494.69 12.35c-.078.157-.069.344.025.491s.25.241.433.232c.066 0 6.6-.131 10.193.93a.5.5 0 0 0 .577-.232c.043-.076.972-1.769 2.216-8.331-.254 3.071-.646 7.795-.795 9.525l-8.954-.652-.087-.352a.5.5 0 0 0-.971.24l.175.704a.5.5 0 0 0 .449.379l9.807.714h.037a.5.5 0 0 0 .498-.455c.138-1.539 1.07-12.821 1.07-12.821v-.004c.085-1.141-.502-2.083-1.336-2.145Zm-7.81 1.437-.546-.038c.054-.609.383-.966.565-.974.064.005.135.057.199.142-.118.265-.192.56-.218.869Zm1.544.107-.546-.038a1.6 1.6 0 0 1 .215-.687c.109-.177.253-.282.348-.279.064.005.136.057.2.143a2.7 2.7 0 0 0-.217.862Zm1.544.108-.546-.038c.024-.251.098-.489.209-.672l.006-.009c.109-.177.247-.291.348-.278.064.005.136.057.2.142-.116.26-.189.55-.217.855Zm1.544.106-.546-.038c.025-.249.098-.483.208-.664l.006-.01c.109-.178.247-.286.349-.278.064.005.135.057.199.142a2.7 2.7 0 0 0-.216.848Zm1.545.108-.547-.038a1.6 1.6 0 0 1 .213-.666c.11-.177.251-.279.349-.278.064.005.135.057.199.141-.111.25-.186.535-.215.842Zm1.971.224a.5.5 0 0 0-.275-.106l-.698-.048a1.6 1.6 0 0 1 .226-.683c.111-.17.235-.249.335-.255.195.015.459.45.414 1.073z"/></svg>