<!-- SPDX-FileCopyrightText: © 2025 Schneider Electric SPDX-License-Identifier: LicenseRef-Proprietary -->
<svg xmlns="http://www.w3.org/2000/svg" viewBox="0 0 16 16"><path d="M13.433 3.894 9.131.192a.5.5 0 0 0-.826.379V4.5a.5.5 0 0 0 .5.5h1.896a.5.5 0 0 0 0-1H9.305V1.661l3.493 3.005a.26.26 0 0 1 .098.201v9.843c0 .156-.168.289-.366.289H3.308c-.199 0-.367-.133-.367-.289V1.29c0-.157.168-.29.367-.29H6.84a.5.5 0 0 0 0-1H3.308c-.753 0-1.367.579-1.367 1.29v13.421c0 .711.613 1.289 1.367 1.289h9.222c.753 0 1.366-.578 1.366-1.289V4.868c0-.389-.175-.749-.463-.974Z"/></svg>