<!-- SPDX-FileCopyrightText: © 2025 Schneider Electric SPDX-License-Identifier: LicenseRef-Proprietary -->
<svg xmlns="http://www.w3.org/2000/svg" viewBox="0 0 16 16"><path d="M2.712 10.257H.784q-.248 0-.384.132-.136.133-.136.388v4.656q0 .248.132.388t.38.141q.256 0 .384-.141a.56.56 0 0 0 .128-.388v-1.648h1.424q.928 0 1.432-.468t.504-1.3c0-.832-.168-.986-.504-1.296s-.813-.464-1.432-.464Zm.664 2.475q-.28.244-.824.244H1.288v-1.912h1.264q.544 0 .824.24t.28.712c0 .472-.093.554-.28.716Zm6.192-2.54q-.232 0-.356.128c-.124.128-.124.206-.124.36v3.514l-2.856-3.707a1.3 1.3 0 0 0-.22-.228.46.46 0 0 0-.276-.068.42.42 0 0 0-.324.133q-.124.132-.124.379v4.761q0 .239.124.367.124.129.356.129c.232 0 .272-.043.352-.129q.12-.128.12-.367V11.94l2.856 3.716q.128.161.236.232c.108.071.169.072.292.072a.38.38 0 0 0 .304-.129.5.5 0 0 0 .112-.352v-4.8q0-.232-.12-.36c-.12-.128-.197-.128-.352-.128Zm6.108 2.764q-.108-.107-.308-.107h-1.32q-.2 0-.308.096t-.108.28a.37.37 0 0 0 .108.28q.107.104.308.104h.88v1.303c-.145.044-.29.092-.439.121a3.4 3.4 0 0 1-.648.064q-.928 0-1.399-.512-.473-.513-.473-1.496 0-.649.204-1.097.205-.447.612-.684.406-.236 1-.236.384 0 .695.08.313.08.616.256a.44.44 0 0 0 .292.064.4.4 0 0 0 .22-.12.5.5 0 0 0 .108-.489.42.42 0 0 0-.18-.216 2.8 2.8 0 0 0-.853-.364 4 4 0 0 0-.899-.107q-.68 0-1.216.203-.536.206-.908.585c-.372.379-.438.559-.568.916s-.195.76-.195 1.208q0 .888.336 1.535.337.65.979 1 .645.353 1.58.353.44 0 .896-.084t.809-.212q.152-.056.22-.176c.068-.12.068-.179.068-.297v-1.943q0-.2-.108-.309ZM2.522 9.396a.5.5 0 0 0 .5-.5V1.29c0-.157.168-.29.367-.29h3.533a.5.5 0 0 0 0-1H3.389c-.753 0-1.367.579-1.367 1.29v7.607a.5.5 0 0 0 .5.5Zm8.76-4.896a.5.5 0 0 0-.5-.5H9.386V1.661l3.494 3.005a.26.26 0 0 1 .098.201v4.109a.5.5 0 0 0 1 0V4.867c0-.389-.175-.749-.463-.974L9.212.192a.5.5 0 0 0-.826.379V4.5a.5.5 0 0 0 .5.5h1.896a.5.5 0 0 0 .5-.5Z"/></svg>