<!-- SPDX-FileCopyrightText: © 2025 Schneider Electric SPDX-License-Identifier: LicenseRef-Proprietary -->
<svg xmlns="http://www.w3.org/2000/svg" viewBox="0 0 16 16"><path d="M4 13.5a.5.5 0 0 0 .5.5h7a.5.5 0 0 0 0-1H5V7.5a.5.5 0 0 0-1 0zM4.5 5h3a.5.5 0 0 0 0-1h-3a.5.5 0 0 0 0 1Z"/><path d="M13.47 2.7 9.784.16a.501.501 0 0 0-.785.412v3.929a.5.5 0 0 0 .5.5h2.07a.5.5 0 0 0 0-1h-1.57V1.523l2.889 1.99a.6.6 0 0 1 .111.323v10.875c0 .156-.17.289-.37.289H3.37c-.201 0-.37-.133-.37-.289V1.29c0-.157.169-.29.37-.29H7.5a.5.5 0 0 0 0-1H3.37C2.615 0 2 .579 2 1.29v13.421C2 15.422 2.615 16 3.37 16h9.26c.756 0 1.37-.578 1.37-1.289V3.836c0-.374-.179-.882-.53-1.137Z"/><path d="M11.789 6.8a.5.5 0 0 0-.668.232l-.514 1.062-.29-.607c-.085-.177-.31-.277-.462-.284a.5.5 0 0 0-.449.305l-1.086 2.56-.63-2.487a.5.5 0 0 0-.45-.375.49.49 0 0 0-.498.309L6.03 9.252a.5.5 0 1 0 .924.379l.138-.335.623 2.458a.5.5 0 0 0 .447.375l.038.002a.5.5 0 0 0 .46-.305l1.233-2.905.26.544a.5.5 0 0 0 .45.284h0a.5.5 0 0 0 .45-.282l.967-1.998a.5.5 0 0 0-.232-.668Z"/></svg>