<!-- SPDX-FileCopyrightText: © 2025 Schneider Electric SPDX-License-Identifier: LicenseRef-Proprietary -->
<svg xmlns="http://www.w3.org/2000/svg" viewBox="0 0 16 16"><path d="M13.539 2.516 9.781.001a.5.5 0 0 0-.778.416V3.5a.5.5 0 0 0 .5.5h1a.5.5 0 0 0 0-1h-.5V1.351l2.908 1.938c.056.055.089.14.089.229v11.194c0 .156-.103.289-.224.289H3.224c-.121 0-.224-.133-.224-.289V1.29c0-.157.103-.29.224-.29h4.339a.5.5 0 0 0 0-1H3.224C2.549 0 2 .579 2 1.29v13.421C2 15.422 2.549 16 3.224 16h9.553c.675 0 1.224-.578 1.224-1.289V3.517c0-.356-.142-.7-.461-1.001Z"/><path d="M9.677 6.209a.5.5 0 0 0-.172-.986c-.661.113-1.627-.777-1.913-1.098a.501.501 0 0 0-.867.418l1.031 5.947a3 3 0 0 0-1.025.008c-1.241.223-2.046 1.128-1.872 2.107.143.796.901 1.348 1.893 1.372h.045c.745 0 1.419-.249 1.854-.688a.5.5 0 0 0-.71-.705c-.254.257-.666.383-1.17.393-.498-.013-.871-.233-.927-.548-.073-.411.395-.827 1.064-.947.459-.083.92-.009 1.2.193a.498.498 0 0 0 .784-.491l-.944-5.449c.502.323 1.118.58 1.729.474Z"/></svg>