<!-- SPDX-FileCopyrightText: © 2025 Schneider Electric SPDX-License-Identifier: LicenseRef-Proprietary -->
<svg xmlns="http://www.w3.org/2000/svg" viewBox="0 0 16 16"><path d="M9.5 8h-5a.5.5 0 0 0 0 1h5a.5.5 0 0 0 0-1Z"/><path d="M12 11.907v-8.15a1.06 1.06 0 0 0-.349-.789L8.848.256A.5.5 0 0 0 8 .615V3.5a.5.5 0 0 0 1 0V1.803l2 1.955v8.15c0 .05-.043.093-.093.093H3.113A.114.114 0 0 1 3 11.888V1.113C3 1.051 3.051 1 3.113 1H6.5a.5.5 0 0 0 0-1H3.113C2.499 0 2 .5 2 1.113v10.773c0 .614.5 1.113 1.113 1.113h7.794c.603 0 1.093-.49 1.093-1.093Z"/><path d="M9.5 10h-5a.5.5 0 0 0 0 1h5a.5.5 0 0 0 0-1Z"/><path d="M13.5 6a.5.5 0 0 0-.5.5V15H5v-.5a.5.5 0 0 0-1 0v1a.5.5 0 0 0 .5.5h9a.5.5 0 0 0 .5-.5v-9a.5.5 0 0 0-.5-.5Zm-4 0h-5a.5.5 0 0 0 0 1h5a.5.5 0 0 0 0-1Z"/></svg>