<!-- SPDX-FileCopyrightText: © 2025 Schneider Electric SPDX-License-Identifier: LicenseRef-Proprietary -->
<svg xmlns="http://www.w3.org/2000/svg" viewBox="0 0 16 16"><path d="M11.5 10h-7a.5.5 0 0 0 0 1h7a.5.5 0 0 0 0-1Z"/><path d="m13.795 3.097-4-2.929a.498.498 0 0 0-.794.404v3.929a.5.5 0 0 0 .5.5h2a.5.5 0 0 0 0-1h-1.5V1.557l3 2.196V15H3V1h4.5a.5.5 0 0 0 0-1h-5a.5.5 0 0 0-.5.5v15a.5.5 0 0 0 .5.5h11a.5.5 0 0 0 .5-.5v-12a.5.5 0 0 0-.205-.403Z"/><path d="M11.5 12h-7a.5.5 0 0 0 0 1h7a.5.5 0 0 0 0-1Zm0-4h-7a.5.5 0 0 0 0 1h7a.5.5 0 0 0 0-1Z"/></svg>