<!-- SPDX-FileCopyrightText: © 2025 Schneider Electric SPDX-License-Identifier: LicenseRef-Proprietary -->
<svg xmlns="http://www.w3.org/2000/svg" viewBox="0 0 16 16"><path d="M6.401 15H2.278A.28.28 0 0 1 2 14.722V1.278C2 1.125 2.125 1 2.278 1H7.5a.5.5 0 0 0 0-1H2.278A1.28 1.28 0 0 0 1 1.278v13.443a1.28 1.28 0 0 0 1.278 1.278h4.123a.5.5 0 0 0 0-1ZM9.5 5h2a.5.5 0 0 0 0-1H10V1.487l3 2.203V6.5a.5.5 0 0 0 1 0V3.438a.5.5 0 0 0-.204-.403l-4-2.938A.5.5 0 0 0 9 .5v4a.5.5 0 0 0 .5.5Z"/><path d="m15.63 15.146-2.563-2.563a3.41 3.41 0 0 0 .167-3.844 3.42 3.42 0 0 0-3.995-1.458c-1.515.5-2.478 1.96-2.341 3.549s1.334 2.863 2.912 3.098a.5.5 0 1 0 .147-.989 2.42 2.42 0 0 1-2.063-2.195A2.42 2.42 0 0 1 9.552 8.23a2.42 2.42 0 0 1 2.83 1.033 2.42 2.42 0 0 1-.351 2.991.5.5 0 0 0 0 .707l2.892 2.892a.5.5 0 0 0 .708 0 .5.5 0 0 0 0-.707Z"/></svg>