<!-- SPDX-FileCopyrightText: © PayKeeper Ltd. Все права защищены. 2010-2024 SPDX-License-Identifier: LicenseRef-Proprietary -->
<svg xmlns="http://www.w3.org/2000/svg" fill="none" viewBox="0 0 199 44" xmlns:xlink="http://www.w3.org/1999/xlink"><g fill-rule="evenodd" clip-path="url(#a)" clip-rule="evenodd"><path fill="#F5F2F3" d="M89.1 19.388c-1.1 1.374-3.025 2.062-4.813 2.062-4.812 0-7.15-3.3-7.15-7.837v-8.25h3.713v8.112c0 2.75 1.1 4.538 3.987 4.538 3.025 0 4.4-2.2 4.4-5.088V5.362h3.576v14.025c0 4.95-3.026 8.25-7.976 8.25-2.612 0-5.087-.825-7.012-2.474l-.138-.138 2.063-2.337.137.137c1.513.963 3.163 1.512 4.95 1.512 2.75 0 4.4-1.512 4.4-4.262v-.687zm-19.112.274c-1.376 1.376-3.3 2.2-5.226 2.2-4.675 0-8.112-3.712-8.112-8.387 0-4.537 3.437-8.387 8.112-8.387 1.925 0 3.85.824 5.225 2.2V5.224h3.576v16.362h-3.576zm-26.126-4.124h4.126c1.1 0 2.062-.138 3.024-.55a7.8 7.8 0 0 0 2.475-1.65 7.8 7.8 0 0 0 1.65-2.475c.413-.963.55-1.925.55-3.025s-.137-2.063-.55-3.025a7.8 7.8 0 0 0-1.65-2.475 7.8 7.8 0 0 0-2.475-1.65C50.05.275 49.087 0 47.987 0h-7.974v21.45h3.85zm0-3.85v-7.7h4.125c1.1 0 1.925.412 2.75 1.1.825.687 1.1 1.65 1.1 2.75s-.412 1.924-1.1 2.75c-.825.825-1.65 1.1-2.75 1.1zm21.175 6.6a5.15 5.15 0 0 0 2.475-.688c1.513-.825 2.2-2.475 2.2-4.125 0-1.787-.825-3.3-2.337-4.262-.687-.413-1.513-.55-2.338-.55s-1.65.274-2.337.687c-1.513.825-2.338 2.475-2.338 4.263 0 1.65.825 3.162 2.2 4.125.826.274 1.65.55 2.475.55Z"/><path fill="#FFCC00" d="M191.537 7.425c1.513-1.65 3.438-2.337 5.775-2.337h.825v3.574h-1.512c-3.438 0-4.95 2.338-4.95 5.638v7.15h-3.713V5.088h3.713v2.337zM173.25 11.55h8.387c0-.275-.137-.55-.275-.825-.687-1.512-2.2-2.338-3.85-2.338-1.787 0-3.575.963-4.125 2.75-.137.138-.137.275-.137.413Zm-37.125 0h8.387c0-.275-.137-.55-.275-.825-.687-1.512-2.2-2.338-3.85-2.338-1.787 0-3.575.963-4.125 2.75-.137.138-.137.275-.137.413Zm-18.013 0h8.388c0-.275-.138-.55-.275-.825-.688-1.512-2.2-2.338-3.85-2.338-1.788 0-3.575.963-4.125 2.75-.138.138-.138.275-.138.413Zm36.163 1.925c0 6.6 9.212 6.05 9.212 0-.137-6.187-9.212-6.737-9.212 0Zm18.7.963c.137 2.612 2.2 3.85 4.675 3.85 1.787 0 3.437-.413 4.95-1.375l.137-.138 2.063 2.2-.275.137c-2.063 1.513-4.4 2.476-7.013 2.476-4.95 0-8.387-3.438-8.387-8.388 0-4.812 3.437-8.387 8.25-8.387 3.3 0 5.912 1.512 7.287 4.675.55 1.237.688 3.3.275 4.675v.137h-11.962zm-37.125 0c.137 2.612 2.2 3.85 4.675 3.85 1.787 0 3.437-.413 4.95-1.375l.137-.138 2.063 2.2-.275.137c-2.063 1.513-4.4 2.476-7.013 2.476-4.95 0-8.387-3.438-8.387-8.388 0-4.812 3.437-8.387 8.25-8.387 3.3 0 5.912 1.512 7.287 4.675.55 1.237.688 3.3.275 4.675v.137zm-18.013 0c.138 2.612 2.2 3.85 4.675 3.85 1.788 0 3.438-.413 4.95-1.375l.138-.138 2.062 2.2-.137.275c-2.063 1.512-4.4 2.475-7.013 2.475-4.95 0-8.387-3.437-8.387-8.388 0-4.812 3.437-8.387 8.25-8.387 3.3 0 5.912 1.513 7.287 4.675.55 1.238.688 3.3.275 4.675v.137zM105.6 10.724l8.937 10.725h-5.087l-8.663-10.725L109.45 0h5.087zM96.525 0h3.85v21.45h-3.85zm55 9.763.137-.275V9.35l.138-.275v-.137s0-.138.137-.138v-.275c0-.138.138-.138.138-.275v-.137c1.512-2.063 3.85-3.163 6.462-3.163h.275c4.538.138 7.838 3.85 7.838 8.388 0 4.537-3.438 8.387-8.113 8.387-1.787 0-3.575-.825-4.675-2.062v7.7h-3.575v-14.3c0-.963.275-2.063.688-3.026v-.275z"/><path fill="#F5F2F3" d="M197.175 38.225c-.688-.138-1.513-.275-2.2-.275-.963 0-2.2.275-2.2 1.512 0 1.1.962 1.513 1.925 1.513 1.237 0 2.475-.687 2.475-2.062zM177.1 40.837c1.65 0 2.612-1.237 2.612-2.887 0-1.513-.962-2.888-2.612-2.888-1.513 0-2.75 1.376-2.75 2.888s1.237 2.887 2.75 2.887Zm-9.35 0c1.512 0 2.75-1.375 2.75-2.887s-1.238-2.888-2.75-2.888S165 36.439 165 37.95c0 1.65 1.237 2.887 2.75 2.887Zm-9.9-4.95v4.263c.412.413.962.688 1.65.688 1.65 0 2.062-1.513 2.062-2.888s-.412-2.888-2.062-2.888c-.688 0-1.1.276-1.65.826Zm-.963 4.263v-4.262a2.28 2.28 0 0 0-1.65-.688c-1.65 0-2.062 1.512-2.062 2.887s.412 2.888 2.062 2.888c.688-.138 1.1-.413 1.65-.825Zm-14.3-1.925c-.687-.138-1.512-.275-2.2-.275-.962 0-2.2.275-2.2 1.512 0 1.1.963 1.513 1.925 1.513 1.238 0 2.475-.687 2.475-2.062zm-29.425-.275V35.2h-2.2c-.825 0-1.787.412-1.787 1.375 0 .962.962 1.375 1.787 1.375zm-7.837.275c-.688-.138-1.513-.275-2.2-.275-.963 0-2.2.275-2.2 1.512 0 1.1.962 1.513 1.925 1.513 1.237 0 2.475-.687 2.475-2.062zM72.463 37.4h4.812c-.138-1.237-.963-2.337-2.338-2.337s-2.2 1.1-2.474 2.337Zm-10.588.825c-.687-.138-1.513-.275-2.2-.275-.962 0-2.2.275-2.2 1.512 0 1.1.962 1.513 1.925 1.513 1.238 0 2.475-.687 2.475-2.062zm135.162-.962c0-1.375-.825-2.063-2.2-2.063-.825 0-1.512.137-2.2.55l-.137.138-.413-.963.138-.137c.825-.413 1.65-.688 2.612-.688.825 0 1.788.275 2.338.825s.825 1.375.825 2.2V41.8h-1.1v-.825c-.688.688-1.513.962-2.475.962-1.513 0-2.888-.825-2.888-2.474 0-1.788 1.65-2.476 3.3-2.476.825 0 1.513 0 2.2.276Zm-10.725.962 2.75-3.988h.963v7.426h-1.1v-5.5l-2.613 3.712-2.612-3.712v5.5h-.963v-7.425h.963zm-11.825-2.75c.688-.825 1.513-1.375 2.75-1.375 2.2 0 3.713 1.788 3.713 3.85s-1.513 3.85-3.713 3.85c-1.1 0-2.062-.55-2.75-1.375V44h-1.1v-9.763h1.1zm-6.737 6.462c-2.2 0-3.85-1.787-3.85-3.85 0-2.2 1.65-3.85 3.85-3.85s3.85 1.788 3.85 3.85-1.65 3.85-3.85 3.85Zm-10.863-.687c-.55.413-.962.55-1.65.55-2.2 0-3.025-2.062-3.025-3.987s.963-3.85 3.025-3.85c.688 0 1.238.274 1.65.687v-3.025h1.1v3.163c.55-.413.963-.55 1.65-.55 2.2 0 3.025 1.925 3.025 3.85s-.962 3.85-3.025 3.85c-.687 0-1.237-.138-1.65-.55V44h-1.1zM147.4 35.2h-2.613v-.963h6.325v.963H148.5v6.462h-1.1zm-4.813 2.063c0-1.375-.825-2.063-2.2-2.063-.825 0-1.512.137-2.2.55l-.137.138-.413-.963.138-.137c.825-.413 1.65-.688 2.612-.688.825 0 1.788.275 2.338.825s.825 1.375.825 2.2V41.8h-1.1v-.825c-.688.688-1.513.962-2.475.962-1.513 0-2.888-.825-2.888-2.474 0-1.788 1.65-2.476 3.3-2.476.688 0 1.375 0 2.2.276Zm-8.25-2.063h-3.162c0 1.512 0 3.438-.413 4.813-.137.687-.55 1.375-1.237 1.65-.275.137-.55.137-.825.137s-.55 0-.825-.137h-.138l.138-.963h.137c.138 0 .413.137.55.137h.413c.412-.137.687-.687.825-1.237.275-1.375.275-3.3.275-4.812v-.55h5.225v7.425h-1.1V35.2zm-8.525 0h-4.125v6.462h-1.1v-7.425h6.325v7.426h-1.1zM110 38.775c-1.1-.275-1.925-1.1-1.925-2.337 0-1.65 1.375-2.338 2.75-2.338h3.3v7.425h-1.1v-2.75h-2.063l-2.062 2.75h-1.375zm-4.675-1.512c0-1.375-.825-2.063-2.2-2.063-.825 0-1.513.137-2.2.55h-.138l-.412-.962.137-.138c.825-.413 1.65-.687 2.613-.687.825 0 1.787.274 2.337.825s.825 1.375.825 2.2v4.675h-1.1v-.825c-.687.687-1.512.962-2.475.962-1.512 0-2.887-.825-2.887-2.475 0-1.788 1.65-2.475 3.3-2.475.687.137 1.375.137 2.2.413Zm-12.513.137h4.4v-3.163h1.1v7.426h-1.1v-3.3h-4.4v3.3h-1.1v-7.425h1.1zm-10.724.138-3.025-3.3h1.374l3.85 4.262v-4.263h.963V38.5l3.85-4.263h1.375l-3.025 3.3 3.162 4.263h-1.237l-2.612-3.437-1.513 1.512V41.8h-1.1v-1.925l-1.513-1.65-2.612 3.438h-1.238zm-6.738-4.125V31.9h1.375v1.513zm-2.2 0V31.9h1.375v1.513zm-.687 5.087c.137 1.375 1.1 2.475 2.612 2.475.962 0 1.65-.413 2.337-1.1l.138-.138.688.688-.138.138c-.825.962-1.787 1.374-3.025 1.374-2.2 0-3.713-1.787-3.713-3.987 0-2.062 1.375-3.85 3.576-3.85s3.437 1.788 3.437 3.85v.412h-5.912zm-5.638-3.3h-2.612v-.963h6.324v.963h-2.612v6.462h-1.1zm-4.95 2.063c0-1.375-.825-2.063-2.2-2.063-.825 0-1.513.137-2.2.55l-.413-.962.138-.138c.825-.413 1.65-.687 2.612-.687.826 0 1.788.274 2.338.825s.825 1.375.825 2.2v4.675h-1.1v-.825c-.687.687-1.513.962-2.475.962-1.512 0-2.888-.825-2.888-2.475 0-1.788 1.65-2.475 3.3-2.475.688.137 1.376.137 2.063.413ZM53.762 35.2H50.6c0 1.512 0 3.438-.413 4.813-.137.687-.55 1.375-1.237 1.65-.275.137-.55.137-.825.137s-.55 0-.825-.137h-.138l.138-.963h.138c.137 0 .412.137.55.137h.412c.413-.137.688-.687.825-1.237.275-1.375.275-3.3.275-4.812v-.55h5.225v7.425h-1.1V35.2zm-8.525 0h-4.125v6.462h-1.1v-7.425h6.325v7.426h-1.1zM0 21.588l10.725-10.725L0 0h7.975L18.7 10.725 7.975 21.45c-2.612.137-5.362.137-7.975.137Zm14.163 0 10.724-10.725L14.164 0h7.974L33 10.725 22.275 21.45c-2.75.137-5.362.137-8.112.137Z"/></g><defs><clipPath id="a"><path fill="white" d="M0 0h198.138v44H0z"/></clipPath></defs></svg>