<!-- SPDX-FileCopyrightText: © 2025 Schneider Electric SPDX-License-Identifier: LicenseRef-Proprietary -->
<svg xmlns="http://www.w3.org/2000/svg" viewBox="0 0 16 16"><path d="M15.854 4.98 11.006.133a.5.5 0 0 0-.706 0l-3.542 3.53a.5.5 0 1 0 .707.707l3.188-3.178 4.144 4.142-3.098 3.135c-.075.032-.381.036-.925-.347a.503.503 0 0 0-.673.089l-4.043 4.864c-.056.032-.263.131-.819.216l-.354.05c-.51.068-1.149.153-1.872.387l2.962-2.957a.5.5 0 0 0-.707-.707l-2.955 2.948c.157-.509.286-1.1.357-1.775.062-.55.203-1.17.26-1.267l4.41-3.59a.499.499 0 1 0-.631-.775L2.292 9.2c-.364.308-.536 1.217-.616 1.93-.265 2.527-1.439 3.674-1.462 3.695a.7.7 0 0 0-.213.515c.009.276.183.45.212.474q0 0 0 0l.003.003c.14.138.308.196.475.196.183 0 .363-.07.5-.181 1.508-1.189 2.848-1.369 3.826-1.501l.372-.052c.803-.123 1.272-.312 1.461-.593l3.741-4.5c1.042.562 1.603.169 1.74.048l3.524-3.55a.5.5 0 0 0 0-.706Z"/></svg>