<!-- SPDX-FileCopyrightText: © 2025 Schneider Electric SPDX-License-Identifier: LicenseRef-Proprietary -->
<svg xmlns="http://www.w3.org/2000/svg" viewBox="0 0 16 16"><path d="M13.49 7.172a2.68 2.68 0 0 0 .613-1.725c0-1.296-.883-2.387-2.098-2.593a.51.51 0 0 0-.577.41.5.5 0 0 0 .409.577c.722.122 1.266.813 1.266 1.607 0 .63-.327 1.192-.854 1.467a.5.5 0 0 0 .141.936c1.414.254 2.608 1.846 2.608 3.476v.674h-.5a.5.5 0 0 0 0 1h1a.5.5 0 0 0 .5-.5v-1.174c0-1.762-1.063-3.441-2.51-4.154Zm-9.882.678a.5.5 0 0 0 .143-.936c-.527-.274-.854-.836-.854-1.467 0-.794.544-1.485 1.265-1.607a.501.501 0 0 0-.167-.987C2.78 3.059 1.897 4.15 1.897 5.446c0 .65.223 1.256.613 1.725C1.064 7.883 0 9.563 0 11.325v1.174a.5.5 0 0 0 .5.5h1a.5.5 0 0 0 0-1H1v-.674c0-1.63 1.195-3.222 2.608-3.476Z"/><path d="M10.068 6.795c.438-.525.689-1.224.689-1.981 0-1.621-1.252-2.939-2.791-2.939S5.175 3.194 5.175 4.814c0 .767.258 1.474.706 2-1.654.783-2.882 2.748-2.882 4.818v1.867a.5.5 0 0 0 1 0v-1.867c0-1.737 1.203-3.814 2.992-4.136a.5.5 0 0 0 .142-.936c-.591-.307-.958-.977-.958-1.747 0-1.069.803-1.939 1.791-1.939s1.791.87 1.791 1.939c0 .776-.354 1.427-.947 1.741a.5.5 0 0 0 .151.935c1.817.304 3.038 2.388 3.038 4.143v1.867a.5.5 0 0 0 1 0v-1.867c0-2.096-1.249-4.068-2.932-4.838Z"/></svg>