<!-- SPDX-FileCopyrightText: © 2025 Schneider Electric SPDX-License-Identifier: LicenseRef-Proprietary -->
<svg xmlns="http://www.w3.org/2000/svg" viewBox="0 0 16 16"><path d="M15.5 15h-3.662L9.344 9.454l.214-1.179q.088.08.174.17c.17.177.252.266.291.312.09.15.251.243.428.243h0l2.772-.002c.539-.028 1.341-.418 1.341-1.378 0-.588-.233-.932-.428-1.117-.412-.39-.944-.376-.944-.369l-1.712-.115-.788-1.211c.775-.325 1.261-1.224 1.261-2.436C11.953 1.275 10.995 0 9.761 0 8.032 0 7.186 1.092 7.114 2.174c-.043.65.092.976.22 1.283.052.124.079.217.094.285l-3.651.293a.5.5 0 0 0-.384.234l-1.364 2.19c-.285.435-.421 1.272.374 1.798.391.26.74.259.964.209.418-.089.684-.389.784-.522l.988-.952.497-.042-1.193 1.715a.5.5 0 0 0-.07.148l-.628 2.19-1.962.092a.5.5 0 0 0-.139.026c-.421.145-1.135.632-1.135 1.537 0 .473.131.832.389 1.069.32.294.711.286.885.27h3.533a.5.5 0 0 0 .446-.273l1.068-2.1 1.711 3.374H.5a.5.5 0 0 0 0 1h8.854a.5.5 0 0 0 .446-.726l-2.525-4.978a.5.5 0 0 0-.445-.274h0a.5.5 0 0 0-.446.273l-1.375 2.704h-3.29c-.109.01-.139-.001-.146-.009-.019-.017-.065-.109-.065-.333 0-.338.285-.51.408-.568l2.234-.104a.5.5 0 0 0 .457-.362l.705-2.456 1.752-2.52a.502.502 0 0 0-.453-.784l-1.734.146a.5.5 0 0 0-.305.138L3.423 7.252a1 1 0 0 0-.07.084c-.165.237-.323.132-.399.082-.073-.048-.244-.161-.083-.425l1.237-1.987 3.708-.298a.5.5 0 0 0 .128-.028.75.75 0 0 0 .416-.408c.138-.313.104-.708-.111-1.226-.099-.238-.165-.396-.137-.812.051-.765.683-1.241 1.649-1.241.631 0 1.192.767 1.192 1.372 0 .262-.045 1.568-.942 1.568a.5.5 0 0 0-.451.285l-.065.137a.5.5 0 0 0 .032.488l1.251 1.923a.5.5 0 0 0 .385.226l2.013.133c.007 0 .176.002.275.1.093.091.112.261.112.387 0 .288-.217.366-.368.379l-2.511.002q-.103-.114-.233-.248a6 6 0 0 0-.97-.8.498.498 0 0 0-.761.331l-.389 2.145a.5.5 0 0 0 .036.294l2.69 5.982a.5.5 0 0 0 .456.295h3.985a.5.5 0 0 0 0-1Z"/></svg>