<!-- SPDX-FileCopyrightText: © 2025 Schneider Electric SPDX-License-Identifier: LicenseRef-Proprietary -->
<svg xmlns="http://www.w3.org/2000/svg" viewBox="0 0 16 16"><path d="M15.981 8.517a.51.51 0 0 0-.507-.475c.01.012-1.934.014-3.826-1.232a.51.51 0 0 0-.511-.035.5.5 0 0 0-.08.051C9.473 7.99 7.31 8.042 7.241 8.043a.5.5 0 0 0-.496.475c-.063 1.242.035 2.357.292 3.324H1v-1.576c0-2.04 1.387-3.8 3.374-4.281a.5.5 0 0 0 .113-.93c-.643-.333-1.092-1.121-1.092-1.914C3.395 2.001 4.341 1 5.419 1s2.025 1 2.025 2.141c0 .792-.449 1.58-1.093 1.914a.5.5 0 0 0 .113.93 4.4 4.4 0 0 1 1.476.663.5.5 0 1 0 .57-.821 5.4 5.4 0 0 0-.902-.506c.52-.577.836-1.368.836-2.179 0-1.703-1.385-3.141-3.025-3.141S2.395 1.439 2.395 3.142c0 .811.315 1.601.834 2.178A5.39 5.39 0 0 0 0 10.266v2.076a.5.5 0 0 0 .5.5h7.105a.5.5 0 0 0 .152-.023.502.502 0 0 0 .423-.671c-.321-.873-.473-1.925-.451-3.134.766-.071 2.31-.322 3.646-1.192a8.66 8.66 0 0 0 3.622 1.197c.084 4.867-2.65 5.8-3.635 5.976a4.06 4.06 0 0 1-2.019-1.026.5.5 0 0 0-.686.728 5 5 0 0 0 2.615 1.297l.088.008h.002q.045 0 .088-.008c.844-.134 4.852-1.11 4.529-7.476Z"/></svg>