<!-- SPDX-FileCopyrightText: © 2025 Schneider Electric SPDX-License-Identifier: LicenseRef-Proprietary -->
<svg xmlns="http://www.w3.org/2000/svg" viewBox="0 0 16 16"><path d="m15.347 2.89-.198-1.004a.9.9 0 0 0-.39-.575 1.1 1.1 0 0 0-.766-.167V.5a.492.492 0 1 0-.984 0v.836L4.454 3.034A.492.492 0 1 0 4.646 4l9.457-1.878c.05-.01.083-.004.087-.023l.197.932c-.004.008-.034.04-.098.052L1.27 5.715c-.048.01-.083 0-.085.019l-.2-.934 1.766-.424a.49.49 0 0 0 .384-.48V2.5a.492.492 0 1 0-.984 0v1.003l-1.274.289c-.571.114-.953.626-.852 1.142l.199 1.008a.92.92 0 0 0 .396.583 1.16 1.16 0 0 0 .845.156L14.482 4.05c.582-.116.97-.636.866-1.159Z"/><path d="M6.5 1.992c.272 0 .492-.22.492-.492v-1a.492.492 0 1 0-.984 0v1c0 .272.22.492.492.492Zm9.298 5.25-1.746-1.327a.49.49 0 0 0-.773.263l-.141.521-.994-.773a.492.492 0 0 0-.604.776l1.578 1.228a.49.49 0 0 0 .777-.259l.143-.53 1.164.884a.49.49 0 0 0 .689-.093.49.49 0 0 0-.094-.689Zm-2.624 7.146c-.924-.579-.726-1.307-.291-2.435.168-.438.314-.815.312-1.172-.004-.952-.336-1.412-1.092-2.235l-.091-.099C10.824 7.151 9.897 6.249 9.234 6.06a1.24 1.24 0 0 0-1.157.234 1.19 1.19 0 0 0-.428 1.028c.08.792.838 1.545 1.572 2.273.369.366.874.867.927 1.017-.031.137-.252.377-.512.622a2.286 2.286 0 0 0-2.201-1.683 2.287 2.287 0 0 0-2.282 2.287c0 1.16.902 2.017 1.862 2.234a5.4 5.4 0 0 0-.712 1.237.493.493 0 0 0 .91.377c.269-.65.597-1.045.915-1.426.129-.155.251-.302.361-.453q.015-.02.028-.043a.493.493 0 0 0-.364-.74.5.5 0 0 0-.251.037.95.95 0 0 1-.449.082c-.537-.018-1.314-.493-1.314-1.304 0-.719.582-1.303 1.298-1.303a1.3 1.3 0 0 1 1.26 1.607l-.002.008a.49.49 0 0 0 .783.525c1.034-.854 1.81-1.562 1.628-2.246-.127-.478-.62-.967-1.19-1.533-.524-.52-1.241-1.232-1.286-1.673a.21.21 0 0 1 .08-.175c.046-.041.128-.079.256-.043.53.151 1.879 1.622 2.322 2.105l.092.1c.713.776.83.997.833 1.573 0 .172-.125.498-.247.813-.371.962-.992 2.571.642 3.592l.752.596a.493.493 0 0 0 .611-.771l-.796-.627Z"/></svg>