<!-- SPDX-FileCopyrightText: © 2025 Schneider Electric SPDX-License-Identifier: LicenseRef-Proprietary -->
<svg xmlns="http://www.w3.org/2000/svg" viewBox="0 0 16 16"><path d="M3.729 6.933a.5.5 0 0 0 .696.123.5.5 0 0 0 .123-.696l-1.95-2.79a.5.5 0 0 0-.819.573zM3.5 2a.5.5 0 0 0 .5-.5V1h8v.5a.5.5 0 0 0 1 0v-1a.5.5 0 0 0-.5-.5h-9a.5.5 0 0 0-.5.5v1a.5.5 0 0 0 .5.5Z"/><path d="M4.192 11.347a4.18 4.18 0 0 0 4.165-3.901 4.17 4.17 0 0 0-1.963-3.822.499.499 0 1 0-.528.848 3.174 3.174 0 0 1-1.884 5.867 3.16 3.16 0 0 1-2.179-1.076 3.15 3.15 0 0 1-.78-2.302c.029-.441.145-.861.345-1.249a.5.5 0 1 0-.888-.46 4.1 4.1 0 0 0-.456 1.644 4.15 4.15 0 0 0 1.025 3.027 4.14 4.14 0 0 0 3.143 1.424Z"/><path d="M15.5 15h-1.571l.089-3.354c.452-.257.972-.74.972-1.44 0-.225-.035-.643-.073-1.085-.04-.467-.084-.965-.084-1.271 0-.862-.418-1.448-1.134-1.614a2.05 2.05 0 0 0 .36-1.645c-.114-.575-.445-1.05-.884-1.272a1.88 1.88 0 0 0-1.372-.112c-.475.141-.867.46-1.076.876-.321.636-.393 1.579.17 2.249l.022.025c-.02-.012-.04-.013-.068.001-.884.241-1.197 1.066-1.197 1.701 0 .237-.024.546-.048.86-.035.461-.071.939-.045 1.225-.008.855.504 1.327.959 1.542l.094 3.307-6.613.008v-2.5a.5.5 0 0 0-1 0v3a.5.5 0 0 0 .5.5h7.627a.5.5 0 0 0 .5-.5v-.026l-.118-4.162a.51.51 0 0 0-.405-.477c-.129-.026-.549-.154-.546-.729-.021-.252.012-.689.044-1.112.026-.342.051-.678.051-.936 0-.102.022-.617.46-.736.423-.116.728-.445.795-.86a.87.87 0 0 0-.274-.81c-.251-.342-.149-.852-.015-1.12a.76.76 0 0 1 .47-.368.87.87 0 0 1 .635.046c.133.067.293.271.354.575.031.158.072.56-.219.899-.174.202-.341.705.133 1.314a.5.5 0 0 0 .16.135q0 0 0 0a.5.5 0 0 0 .178.055h.019c.17.015.483.044.483.661 0 .326.045.858.088 1.357.035.408.069.792.069 1 0 .332-.475.589-.639.652a.5.5 0 0 0-.325.456l-.109 4.162a.5.5 0 0 0 .473.512.5.5 0 0 0 .111.013h2a.5.5 0 0 0 0-1Z"/><circle cx="4.236" cy="3.408" r=".5"/></svg>