<!-- SPDX-FileCopyrightText: © 2025 Schneider Electric SPDX-License-Identifier: LicenseRef-Proprietary -->
<svg xmlns="http://www.w3.org/2000/svg" viewBox="0 0 16 16"><path d="M15.958 7.078c-.152-.814-.895-.81-1.288-.812-.145 0-.302.003-.441-.02-.157-.074-.446-.633-.619-.968a10 10 0 0 0-.435-.784.499.499 0 1 0-.842.538c.135.212.263.461.39.706.368.711.715 1.382 1.315 1.488.204.036.408.04.598.04a5 5 0 0 0 .34-.004c.099.53-.066 2.466-.325 2.903q-.135.008-.258.008c-.444.005-.997.012-1.511.737-.411.578-.898.87-1.29 1.104-.348.209-.649.389-.77.72-.107.296-.104.731-.08 1.071-.572.084-1.111.095-1.25.01-.023-.018-.042-.123-.057-.207-.058-.332-.179-1.022-1.301-1.022-.835 0-1.453.021-1.779.031l-.217.006c-.372 0-.529.312-.71.671-.069.137-.197.39-.192.413-.22.079-1.151.122-1.281-.218-.073-.192-.108-.364-.143-.527-.102-.48-.217-1.025-1.026-1.68-.614-.496-2.767-3.128-1.251-6.022C2.847 2.755 6.223 2.171 8.833 3a.5.5 0 0 0 .914.236q.046-.07.11-.143a.5.5 0 0 0 .071-.077c.311-.323.82-.675 1.17-.825-.031.091-.065.184-.097.271-.295.813-.699 1.928-.27 2.819a.5.5 0 1 0 .9-.434c-.247-.511.075-1.397.309-2.043.159-.438.285-.785.285-1.079a.5.5 0 0 0-.2-.4c-.161-.122-.444-.252-.875-.176-.583.1-1.267.547-1.748.988C6.306 1.028 2.275 1.693.65 4.796c-1.681 3.209.29 6.279 1.508 7.263.533.431.587.687.677 1.11.044.208.092.428.187.675.441 1.159 2.148.956 2.566.799.346-.13.543-.521.734-.899l.064-.128h.003c.321-.011.926-.03 1.747-.03.198 0 .28.027.278.025.013.03.028.113.038.169.04.229.1.573.432.828.262.201.673.267 1.1.267.541 0 1.105-.105 1.418-.175a.5.5 0 0 0 .385-.567c-.06-.377-.083-.892-.044-1.017.042-.05.228-.162.364-.243.422-.253 1.059-.635 1.591-1.385.22-.31.333-.312.708-.315.146-.002.302-.005.47-.025.149-.019.366-.094.553-.35.561-.768.636-3.162.531-3.72Z"/><path d="M3.747 3.999a.5.5 0 1 0 .571.82c.76-.528 2.602-.68 3.646-.303a.5.5 0 1 0 .34-.94c-1.359-.491-3.532-.291-4.558.423Z"/></svg>