<!-- SPDX-FileCopyrightText: © 2025 Schneider Electric SPDX-License-Identifier: LicenseRef-Proprietary -->
<svg xmlns="http://www.w3.org/2000/svg" viewBox="0 0 16 16"><path d="M14.843 7.768c0-1.042-.857-2.219-1.873-2.609l-.091-.044c-.634-.305-2.018-.972-2.308-2.129.35-.034.777-.135 1.082-.409.255-.229.39-.539.39-.897v-.408c0-.701-.571-1.271-1.272-1.271H5.143c-.702 0-1.273.571-1.273 1.272v.4c0 .404.123.731.365.972.424.423 1.054.42 1.567.418l2.514-.009a.5.5 0 0 0-.002-1h-.002l-2.594.01c-.238.009-.646.003-.777-.128q-.07-.07-.07-.263v-.4c0-.15.123-.272.273-.272h5.628c.15 0 .272.122.272.271v.408c0 .093-.028.126-.057.152-.172.155-.648.186-.916.16a.5.5 0 0 0-.552.485c-.051 2.104 2.112 3.147 2.927 3.54l.127.059c.677.261 1.271 1.052 1.271 1.693v5.708c0 .839-.682 1.521-1.522 1.521l-8.767.003a1.523 1.523 0 0 1-1.522-1.521V7.771c0-.649.54-1.457 1.126-1.693.58-.206 1.788-.633 2.375-1.427a.499.499 0 1 0-.803-.595c-.405.548-1.495.934-1.939 1.091-.969.391-1.758 1.567-1.758 2.623v5.709A2.524 2.524 0 0 0 3.556 16l8.767-.003a2.525 2.525 0 0 0 2.523-2.521V7.768Z"/><path d="m5.587 7.984.775.775a.5.5 0 0 0 .707-.707L5.9 6.893a.5.5 0 0 0-.67.034l-1.56 1.56a2.144 2.144 0 0 0 0 3.029c.403.403 1.013.596 1.674.52.38-.042.749-.165 1.069-.351l-.004 1.009c0 .979 1.628 1.416 3.241 1.416 1.134 0 2.527-.229 3.034-.872a.5.5 0 1 0-.785-.619c-.135.171-.934.491-2.249.491-1.342 0-2.146-.327-2.241-.414L7.4 10.852c.113-.167.913-.493 2.25-.493 1.096 0 1.878.255 2.171.421-.311.376-1.273.41-2.171.41-.309 0-.548-.018-.752-.055a.498.498 0 1 0-.182.982c.265.05.562.072.934.072 1.123 0 2.82 0 3.21-1.269a.73.73 0 0 0-.125-.657c-.439-.595-1.885-.906-3.085-.906-.281 0-.562.013-.834.041L9.82 8.394c.405-.405.628-.943.628-1.515s-.223-1.11-.628-1.515c-.809-.81-2.221-.81-3.029 0l-.557.557a.5.5 0 0 0 .707.707l.557-.557a1.17 1.17 0 0 1 1.615 0c.216.216.335.502.335.808s-.119.592-.335.808l-2.911 2.911a1.66 1.66 0 0 1-.967.442c-.36.043-.67-.045-.857-.232a1.144 1.144 0 0 1 0-1.615z"/></svg>