<!-- SPDX-FileCopyrightText: © 2025 Schneider Electric SPDX-License-Identifier: LicenseRef-Proprietary -->
<svg xmlns="http://www.w3.org/2000/svg" viewBox="0 0 16 16"><path d="m15.854 15.146-15-15a.502.502 0 0 0-.708.708l15 15a.5.5 0 0 0 .708 0 .5.5 0 0 0 0-.707ZM7.113 4.897l2.035-2.035a.5.5 0 0 0 .114-.177l.483-1.283 4.539 4.54-1.282.483a.5.5 0 0 0-.178.114l-2.069 2.069a.5.5 0 0 0 .708.707l1.993-1.993 1.907-.718a.497.497 0 0 0 .177-.821L9.903.146a.5.5 0 0 0-.821.177l-.718 1.908-1.958 1.958a.5.5 0 0 0 .707.707ZM9.26 10.42a.5.5 0 0 0-.589.392l-.13.65-1.845-1.845a.5.5 0 0 0-.707 0l-5.53 5.529a.5.5 0 0 0 .708.707l5.176-5.176 2.152 2.151a.5.5 0 0 0 .844-.255l.313-1.565a.5.5 0 0 0-.392-.589ZM5.267 6.429a.5.5 0 0 0-.588-.393l-1.566.312a.5.5 0 0 0-.256.844l1.879 1.879a.5.5 0 0 0 .708 0 .5.5 0 0 0 0-.707L4.226 7.146l.649-.13a.5.5 0 0 0 .393-.588Z"/></svg>