<!-- SPDX-FileCopyrightText: © 2025 Schneider Electric SPDX-License-Identifier: LicenseRef-Proprietary -->
<svg xmlns="http://www.w3.org/2000/svg" viewBox="0 0 16 16"><path d="M15.5 7a.5.5 0 0 0 .5-.5v-2a.5.5 0 0 0-.5-.5H12V2.5a.5.5 0 0 0-.5-.5H8.005a.5.5 0 0 0-.322.117L4.256 5H1.5a.5.5 0 0 0-.5.5V6H.5a.5.5 0 0 0 0 1h1a.5.5 0 0 0 .5-.5V6h2.5a.5.5 0 0 0 .445-.272L8.187 3h2.812v1.5a.5.5 0 0 0 .5.5h3.5v1h-3.5a.5.5 0 0 0-.5.5v3a.5.5 0 0 0 .5.5h3.5v1h-3.5a.5.5 0 0 0-.5.5V13H8.221l-3.399-2.882A.5.5 0 0 0 4.499 10h-2.5v-.5a.5.5 0 0 0-.5-.5H.5a.5.5 0 0 0 0 1H1v.5a.5.5 0 0 0 .5.5h2.816l3.399 2.882c.09.076.205.118.323.118h3.461a.5.5 0 0 0 .5-.5V12h3.5a.5.5 0 0 0 .5-.5v-2a.5.5 0 0 0-.5-.5h-3.5V7z"/></svg>