<!-- SPDX-FileCopyrightText: © 2025 Schneider Electric SPDX-License-Identifier: LicenseRef-Proprietary -->
<svg xmlns="http://www.w3.org/2000/svg" viewBox="0 0 16 16"><path d="M12.516 16a.5.5 0 0 1-.5-.5v-1.906c0-.112-.21-.368-.629-.479a.5.5 0 0 1-.371-.483v-.631h-1v.705a.5.5 0 0 1-.372.483c-.363.097-.603.314-.628.403v.004c.061.069.59.394 1.45.394a.5.5 0 0 1 0 1 3.8 3.8 0 0 1-1.45-.273v.784a.5.5 0 0 1-1 0v-1.915c0-.558.47-.993 1-1.231v-.354h-4v.28c.604.276 1 .78 1 1.313V15.5a.5.5 0 0 1-1 0v-1.906c0-.112-.21-.368-.629-.479a.5.5 0 0 1-.371-.483v-.631h-1v.705a.5.5 0 0 1-.372.483c-.363.097-.603.314-.628.403v.004c.063.058.637.394 1.51.394a.5.5 0 0 1 0 1 4 4 0 0 1-1.51-.286v.797a.5.5 0 0 1-1 0v-1.915c0-.558.47-.993 1-1.231v-.354h-.554a1.45 1.45 0 0 1-1.446-1.447V1.446C.016.649.665 0 1.462 0h5.054a.5.5 0 0 1 0 1H1.462c-.246 0-.446.2-.446.446v9.107c0 .246.2.446.446.446H12.57c.246 0 .446-.2.446-.446V1.446c0-.246-.2-.446-.446-.446H8.516a.5.5 0 0 1 0-1h4.054c.642 0 1.188.42 1.376 1h.624c.797 0 1.446.649 1.446 1.446v10.107c0 .798-.649 1.446-1.446 1.446a.5.5 0 0 1 0-1c.246 0 .446-.2.446-.446V2.446c0-.246-.2-.446-.446-.446h-.554v8.554c0 .798-.649 1.446-1.446 1.446h-.554v.28c.604.276 1 .78 1 1.313v1.906a.5.5 0 0 1-.5.5Zm-5.997-5.989a4.007 4.007 0 0 1-3.974-3.563A4.006 4.006 0 0 1 6.522 2.01a.5.5 0 0 1 0 1q-.162 0-.328.018c-1.644.181-2.835 1.666-2.654 3.31s1.667 2.845 3.31 2.654a2.98 2.98 0 0 0 2.013-1.105 3 3 0 0 0 .642-2.205c-.088-.801-.479-1.504-1.132-2.034a.5.5 0 1 1 .63-.776c.862.698 1.379 1.632 1.497 2.701a3.98 3.98 0 0 1-.855 2.94 3.97 3.97 0 0 1-3.123 1.498ZM6.516 8a.5.5 0 0 1-.5-.5v-1h-1a.5.5 0 0 1 0-1h1v-1a.5.5 0 0 1 1 0v1h1a.5.5 0 0 1 0 1h-1v1a.5.5 0 0 1-.5.5Z"/></svg>