<!-- SPDX-FileCopyrightText: © 2025 Schneider Electric SPDX-License-Identifier: LicenseRef-Proprietary -->
<svg xmlns="http://www.w3.org/2000/svg" viewBox="0 0 16 16"><path d="M15.978 7.231c-.778-2.518-1.97-3.125-2.103-3.186A.5.5 0 0 0 13.667 4H12V2.263a.5.5 0 0 0-.169-.375l-2-1.763A.5.5 0 0 0 9 .5v2a.5.5 0 0 0 1 0v-.893l1 .881V7H5V1h2.5a.5.5 0 0 0 0-1h-3a.5.5 0 0 0-.5.5V7H1.181c.417-1.158 1.021-1.783 1.265-2H2.5a.5.5 0 0 0 0-1h-.232a.5.5 0 0 0-.285.089C1.928 4.127.637 5.045.041 7.3A.5.5 0 0 0 0 7.499v6a.5.5 0 0 0 .5.5h1a.5.5 0 0 0 0-1H1v-5h14v5h-1.785l-.214-.551.023-1.943a.504.504 0 0 0-.5-.505H3.5a.5.5 0 0 0-.5.5v2a.5.5 0 0 0 .5.5h7a.5.5 0 0 0 0-1H4v-1h8.019L12 12.534q0 .096.034.187L12.919 15H3.576l.178-.229a.5.5 0 1 0-.789-.615l-.807 1.036a.501.501 0 0 0 .394.807h11.097a.5.5 0 0 0 .466-.681l-.512-1.319h1.896a.5.5 0 0 0 .5-.5V7.378q0-.076-.022-.147ZM12 7V5h1.527c.21.149.809.667 1.314 2h-2.842Z"/></svg>