<!-- SPDX-FileCopyrightText: © 2025 Schneider Electric SPDX-License-Identifier: LicenseRef-Proprietary -->
<svg xmlns="http://www.w3.org/2000/svg" viewBox="0 0 16 16"><path fill="currentColor" d="m14.653 15.217-.531-.754a.492.492 0 0 0-.82.545h-9.9l1.459-2.074a.49.49 0 0 0-.089-.662 4.88 4.88 0 0 1-1.776-3.771.4.4 0 0 0-.005-.069V2.5a.49.49 0 0 0-.492-.492h-.508V.992h5.016v1.016h-.508a.49.49 0 0 0-.492.492v1.776a5.4 5.4 0 0 0-.952.866.491.491 0 1 0 .745.643 4.375 4.375 0 0 1 7.688 2.859 4.382 4.382 0 0 1-6.034 4.052.494.494 0 0 0-.372.913 5.367 5.367 0 0 0 7.391-4.964 5.367 5.367 0 0 0-5.361-5.361c-.738 0-1.459.152-2.121.437v-.729h.508c.272 0 .492-.22.492-.492v-2a.49.49 0 0 0-.492-.492H1.5A.49.49 0 0 0 1.008.5v2c0 .272.22.492.492.492h.508V8.5l.005.072a5.86 5.86 0 0 0 1.792 4.154l-1.753 2.491a.493.493 0 0 0 .402.776H14.25a.493.493 0 0 0 .402-.776Z"/><path fill="currentColor" d="M9.79 9.753a.492.492 0 1 0 .535.827 2.4 2.4 0 0 0 1.053-1.533 2.4 2.4 0 0 0-.342-1.817A2.4 2.4 0 0 0 9.51 6.187a2.42 2.42 0 0 0-2.86 1.868 2.41 2.41 0 0 0 1.181 2.603.493.493 0 0 0 .483-.858 1.425 1.425 0 0 1-.699-1.542 1.43 1.43 0 1 1 2.8.588 1.42 1.42 0 0 1-.624.908Z"/></svg>