<!-- SPDX-FileCopyrightText: © 2025 Schneider Electric SPDX-License-Identifier: LicenseRef-Proprietary -->
<svg xmlns="http://www.w3.org/2000/svg" viewBox="0 0 16 16"><path d="M5.5 15H3.094A.094.094 0 0 1 3 14.906V1.5a.5.5 0 0 0-1 0v13.406C2 15.51 2.491 16 3.094 16H5.5a.5.5 0 0 0 0-1Zm.408-15H3.5a.5.5 0 0 0 0 1h2.408c.051 0 .092.042.092.092V14.5a.5.5 0 0 0 1 0V1.092C7 .49 6.51 0 5.908 0Zm6.999 0H10.5a.5.5 0 0 0 0 1h2.407c.051 0 .093.042.093.092V14.5a.5.5 0 0 0 1 0V1.092C14 .49 13.51 0 12.907 0ZM12.5 15h-2.406a.094.094 0 0 1-.094-.094V1.5a.5.5 0 0 0-1 0v13.406C9 15.51 9.49 16 10.094 16H12.5a.5.5 0 0 0 0-1Z"/></svg>