<!-- SPDX-FileCopyrightText: © 2025 Schneider Electric SPDX-License-Identifier: LicenseRef-Proprietary -->
<svg xmlns="http://www.w3.org/2000/svg" viewBox="0 0 16 16"><path d="M13.652 1.155a2.5 2.5 0 0 0-1.064-.147L12.499 1H2.785C1.8 1 .999 1.801.999 2.786v1.955A1.26 1.26 0 0 0 2.258 6h7.915a1.43 1.43 0 0 0 1.429-1.43.5.5 0 0 0-1 0 .43.43 0 0 1-.43.431H2.258a.26.26 0 0 1-.259-.259v-.741h7.5a.5.5 0 0 0 0-1h-7.5v-.214c0-.434.353-.786.786-.786h8.111a2 2 0 0 0-.233.497.5.5 0 0 0 .956.294c.085-.275.296-.513.578-.654.335-.166.729-.18 1.114-.042.412.149.688.579.688 1.069l-.002 10.836H1.5a.5.5 0 0 0 0 1h12.998a.5.5 0 0 0 .5-.5L15 3.165c0-.91-.542-1.717-1.348-2.009Z"/><path d="m5.499 8.937 1.221-.854 1.22.854a.5.5 0 1 0 .573-.819L7.006 7.063a.5.5 0 0 0-.573 0L4.926 8.118a.5.5 0 0 0 .573.819Z"/></svg>