<!-- SPDX-FileCopyrightText: © 2025 Schneider Electric SPDX-License-Identifier: LicenseRef-Proprietary -->
<svg xmlns="http://www.w3.org/2000/svg" viewBox="0 0 16 16"><path d="M3.721 3.122h.002c.418 0 .75.132 1.012.403.364.376.468.893.466 1.011a.499.499 0 0 0 .995.1c.038-.355-.153-1.154-.682-1.741-.455-.505-1.074-.772-1.792-.772H3.72a.5.5 0 0 0 0 1ZM14.669 10h-11.3V5.237a.5.5 0 0 0-1 0V10H1.331C.597 10 0 10.597 0 11.331v3.337C0 15.402.598 16 1.333 16H2.5a.5.5 0 0 0 0-1H1.333A.333.333 0 0 1 1 14.668v-3.337A.33.33 0 0 1 1.331 11h13.338a.33.33 0 0 1 .331.331v3.337a.33.33 0 0 1-.332.332H4.447a.5.5 0 0 0 0 1h10.221c.734 0 1.332-.598 1.332-1.332v-3.337c0-.734-.597-1.331-1.331-1.331ZM4.476 1h.002c1.368 0 2.709 1.56 2.751 2.77a.5.5 0 0 0 .499.483h.018a.5.5 0 0 0 .482-.517C8.17 2.053 6.428 0 4.478 0h-.002a.5.5 0 0 0 0 1Z"/><path d="M2.868 12.737a.395.395 0 1 0 0 .79.395.395 0 0 0 0-.79Zm2.764.395a.395.395 0 1 0-.79 0 .395.395 0 0 0 .79 0Zm2.368 0a.395.395 0 1 0-.79 0 .395.395 0 0 0 .79 0Zm5.526 0a.395.395 0 1 0-.79 0 .395.395 0 0 0 .79 0Z"/></svg>