<!-- SPDX-FileCopyrightText: © 2025 Schneider Electric SPDX-License-Identifier: LicenseRef-Proprietary -->
<svg xmlns="http://www.w3.org/2000/svg" viewBox="0 0 16.002 16.002"><path d="m15.855 15.147-15-15a.5.5 0 1 0-.708.709l7.116 7.116-.538.532-.67-.67a.5.5 0 0 0-.354-.146c-.173.012-.261.054-.355.147l-.634.639a.5.5 0 0 0-.145.362l.008.432-1.205.598a.5.5 0 0 0-.131.095L.412 12.792c-.296.313-.699 1.13-.048 2.043l.804.794c.318.224.632.307.917.307a1.62 1.62 0 0 0 1.07-.42l2.822-2.818a.5.5 0 0 0 .094-.131l.599-1.205.432.009h.01a.5.5 0 0 0 .01-1l-.749-.015a.51.51 0 0 0-.458.277l-.703 1.415-2.748 2.745c-.078.068-.359.27-.655.073l-.683-.672c-.254-.362-.051-.644.003-.705l2.76-2.765 1.415-.702a.5.5 0 0 0 .277-.458l-.01-.536.132-.133.669.669a.5.5 0 0 0 .744-.041q.021-.017.041-.037l.813-.807 7.177 7.177a.5.5 0 0 0 .708 0 .503.503 0 0 0 0-.709ZM9.146 7.292c.128 0 .256-.05.354-.146l5.034-5.035a.5.5 0 0 0-.707-.707L8.793 6.439a.502.502 0 0 0 .354.854Z"/></svg>