<!-- SPDX-FileCopyrightText: © 2025 Schneider Electric SPDX-License-Identifier: LicenseRef-Proprietary -->
<svg xmlns="http://www.w3.org/2000/svg" viewBox="0 0 16 16"><path d="M15.817 6.008 12.3 3.114A.5.5 0 0 0 11.983 3H.5a.5.5 0 0 0-.5.5v8a.5.5 0 0 0 .5.5h4.159c.102-.009.936-.006 1.515-.577.33-.325.504-.773.504-1.294 0-1.635-1.281-1.906-2.129-2.086-.944-.2-1.275-.331-1.275-1.01 0-.329.084-.57.257-.738.321-.311.862-.298.887-.295h5.377c.25.008 2.44.143 2.464 2.235.013 1.074-.199 1.838-.631 2.271-.503.505-1.244.496-1.788.495H9V7.5a.5.5 0 0 0-1 0v4a.5.5 0 0 0 .5.5h1.332c.648.006 1.705.014 2.505-.789.627-.63.938-1.635.922-2.987C13.232 5.748 11 5.033 9.811 5H4.442c-.098 0-.974-.026-1.597.568-.378.361-.57.854-.57 1.465 0 1.55 1.245 1.813 2.068 1.988.99.209 1.336.351 1.336 1.107 0 .808-.772.871-1.012.871H1v-7h10.804L15 6.629v6.37H.5a.5.5 0 0 0 0 1h15a.5.5 0 0 0 .5-.5V6.393a.5.5 0 0 0-.183-.386Z"/></svg>