<!-- SPDX-FileCopyrightText: © 2025 Schneider Electric SPDX-License-Identifier: LicenseRef-Proprietary -->
<svg xmlns="http://www.w3.org/2000/svg" viewBox="0 0 16 16"><path d="M15.975 2.862a.5.5 0 0 0-.494-.476c-.042 0-4.151-.062-7.18-2.289a.5.5 0 0 0-.57-.015C4.187 2.411.575 2.383.543 2.386c-.25.031-.494.206-.508.475-.239 4.695.724 8.251 2.862 10.569 2.268 2.457 5.009 2.566 5.184 2.568 1.962-.174 3.906-1.312 4.783-2.315.045-.043 1.094-1.074 1.821-3.053a.501.501 0 0 0-.707-.613c-.035.018-3.488 1.867-6.036 1.795-2.445-.05-3.457-2.596-3.433-3.883.025-1.38.92-3.46 3.285-3.534 1-.032 1.8.238 2.381.8.547.53.873 1.326.873 2.129 0 1.733-.74 1.801-1.019 1.827-.167.013-.216-.033-.236-.052-.112-.101-.152-.345-.157-.386l.283-2.494a.5.5 0 0 0-.944-.28 1.57 1.57 0 0 0-1.087-.376c-.759.03-2.049.383-2.168 2.412-.111 1.875 1.049 2.213 1.468 2.279.039-.005.96.027 1.68-.672l.022-.021q.09.149.228.276c.183.167.504.36 1.003.311.879-.081 1.928-.637 1.928-2.823 0-1.068-.44-2.133-1.177-2.847-.771-.748-1.84-1.114-3.108-1.083-3.062.096-4.221 2.753-4.253 4.516-.03 1.677 1.232 4.836 4.412 4.902h.131c1.807 0 3.861-.752 5.146-1.314-.523.962-1.031 1.467-1.058 1.495-.756.861-2.466 1.858-4.087 2.006-.024 0-2.463-.112-4.437-2.266-1.871-2.04-2.745-5.188-2.603-9.362 1.125-.065 4.012-.416 6.977-2.269 2.635 1.803 5.81 2.182 7.002 2.262.052 1.916-.176 3.418-.691 4.581a.5.5 0 0 0 .914.406c.621-1.399.869-3.194.759-5.489ZM8.18 8.856c-.391.387-.906.398-.895.404-.42-.072-.611-.484-.567-1.226.074-1.265.686-1.451 1.209-1.472h.024c.461 0 .683.524.743.699-.002.722-.176 1.258-.515 1.595Z"/></svg>