<!-- SPDX-FileCopyrightText: © 2025 Schneider Electric SPDX-License-Identifier: LicenseRef-Proprietary -->
<svg xmlns="http://www.w3.org/2000/svg" viewBox="0 0 16 16"><path d="M8 16a.4.4 0 0 1-.08-.007c-4.265-.69-6.752-5.063-6.856-5.249a.5.5 0 0 1-.063-.244v-7C1 2.058 3.436.535 6.429.105A.497.497 0 0 1 7 .6v6.909l.995 1.96L9 7.508V2.5a.5.5 0 0 1 1 0v5.13a.5.5 0 0 1-.055.229l-1.507 2.94a.5.5 0 0 1-.445.271h0a.5.5 0 0 1-.445-.273l-1.493-2.94a.5.5 0 0 1-.054-.227V1.193c-2.427.48-4 1.661-4 2.307v6.863c.395.647 2.597 4.017 5.974 4.625 1.484-.417 2.744-1.211 3.704-1.988H6.501a.5.5 0 0 1 0-1h6.488a.501.501 0 0 1 .348.859c-1.135 1.106-2.926 2.515-5.208 3.125a.5.5 0 0 1-.129.017Zm3.494-4.542a.5.5 0 0 1-.224-.947l1.579-.79a.5.5 0 0 1 .447.895l-1.579.79a.5.5 0 0 1-.223.053Zm-7.107-.02a.5.5 0 0 1-.223-.053l-.948-.474a.5.5 0 0 1 .447-.895l.948.474a.5.5 0 0 1-.224.947Zm10.112-.191za.5.5 0 0 1-.5-.5V3.5c0-.786-2.271-2.34-5.508-2.489-.276-.013-.489-.247-.477-.522s.256-.493.523-.477C11.919.167 15 1.829 15 3.5v7.247c0 .276-.225.5-.501.5Zm-3.99-1.233a.5.5 0 0 1-.354-.853l2.368-2.368a.5.5 0 0 1 .707.707l-2.368 2.368a.5.5 0 0 1-.354.146Zm-4.998-.02a.5.5 0 0 1-.354-.146L2.788 7.48a.5.5 0 0 1 .707-.707l2.369 2.368a.5.5 0 0 1-.354.853Z"/></svg>