<!-- SPDX-FileCopyrightText: © 2025 Schneider Electric SPDX-License-Identifier: LicenseRef-Proprietary -->
<svg xmlns="http://www.w3.org/2000/svg" viewBox="0 0 16 16"><path d="M6.75 2.84a.5.5 0 1 0-.134-.99.5.5 0 0 0 .134.99Z"/><circle cx="7.983" cy="4.071" r=".5"/><circle cx="8.793" cy="2.543" r=".5"/><path d="M14.998 3.846v-.025c0-1.685-3.296-3.821-7-3.821C4.401 0 1 1.701 1 3.5v6.992a.5.5 0 0 0 .069.261c.161.285 2.635 4.551 6.84 5.239A1 1 0 0 0 8 16h.026a.5.5 0 0 0 .113-.019c4.159-1.118 6.851-4.919 6.86-5.217a.5.5 0 0 0-.016-.14.5.5 0 0 0 .016-.124v-3a.5.5 0 0 0-1 0v3q0 .04.006.079c-.438.599-2.675 3.466-6.031 4.409C4.597 14.38 2.395 11.01 2 10.363V3.5C2 2.644 4.534 1 8 1s5.986 1.969 6 2.814v.221H9.646c-.109.014-.321.073-.42.173-.072.075-.267.275-.226 1.029l.004 1.134c.014.097.047.281.111.39l.594 1.194a.2.2 0 0 1-.079-.037.5.5 0 0 0-.389-.184.52.52 0 0 0-.402.181s-.095.098-.396.098c-.2 0-.299-.069-.318-.093a.5.5 0 0 0-.74-.059.45.45 0 0 1-.313.107q-.184-.004-.437-.277a.5.5 0 0 0-.174-.138l.459-.943.063-.235A.5.5 0 0 0 7 6.246V5.115c0-.239.005-.965-.662-1.079H5.5a.5.5 0 0 0 0 1l.499-.005V6.18l-.015.055.002.027-2.096 4.29a.937.937 0 0 0 .786 1.449h6.526c.344 0 .66-.188.824-.489.165-.303.151-.67.003-.885l-.46-1.071a.498.498 0 1 0-.918.394l.55 1.051-6.442.043 1.248-2.562q.494.476 1.053.487c.258 0 .469-.057.635-.132.44.239 1.112.22 1.54.006.505.238 1.22.12 1.577-.349.1-.149.111-.34.031-.5l-.845-1.689V5.21a2 2 0 0 1-.004-.175h4.504a.5.5 0 0 0 .5-.5v-.29c0-.191.002-.314 0-.399Z"/></svg>