<!-- SPDX-FileCopyrightText: © 2025 Schneider Electric SPDX-License-Identifier: LicenseRef-Proprietary -->
<svg xmlns="http://www.w3.org/2000/svg" viewBox="0 0 16 16"><path d="M15.5 2H5V.5a.5.5 0 0 0-.5-.5h-2a.5.5 0 0 0-.5.5V2H.5a.5.5 0 0 0-.5.5v2a.5.5 0 0 0 .5.5H2v10.5a.5.5 0 0 0 .5.5h2a.5.5 0 0 0 .5-.5v-1a.5.5 0 0 0-1 0v.5H3V4.5a.5.5 0 0 0-.5-.5H1V3h1.5a.5.5 0 0 0 .5-.5V1h1v1.5a.5.5 0 0 0 .5.5H15v1H4.5a.5.5 0 0 0-.5.5v2a.5.5 0 0 0 .5.5H13v5H5V8.5a.5.5 0 0 0-1 0v4a.5.5 0 0 0 .5.5h9a.5.5 0 0 0 .5-.5v-6a.5.5 0 0 0-.5-.5H5V5h10.5a.5.5 0 0 0 .5-.5v-2a.5.5 0 0 0-.5-.5Z"/></svg>