<!-- SPDX-FileCopyrightText: © 2025 Schneider Electric SPDX-License-Identifier: LicenseRef-Proprietary -->
<svg xmlns="http://www.w3.org/2000/svg" viewBox="0 0 16 16"><path d="M2.5 12H1.294C1.131 12 1 11.843 1 11.648V2.352C1 2.158 1.132 2 1.294 2H8.5a.5.5 0 0 0 0-1H1.294C.58 1 0 1.606 0 2.352v9.297c0 .745.581 1.352 1.294 1.352H2.5a.5.5 0 0 0 0-1Zm6.588 1.971a.5.5 0 0 0-.558.435c-.03.24-.255.595-.643.595a.643.643 0 0 1-.642-.642c0-.377.347-.642.535-.642a.5.5 0 0 0 0-1c-.725 0-1.535.702-1.535 1.642 0 .905.736 1.642 1.642 1.642s1.545-.748 1.635-1.472a.5.5 0 0 0-.435-.558Zm2.137-8.252a.5.5 0 0 0 .408.21q.032.001.063-.004a.5.5 0 0 0 .404-.317c.011-.029 1.139-2.92 3.686-4.698a.5.5 0 1 0-.572-.82c-1.984 1.384-3.161 3.325-3.698 4.391-.355-.412-.859-.932-1.409-1.304a.499.499 0 1 0-.56.828c.878.595 1.671 1.704 1.679 1.714ZM15.5 7a.5.5 0 0 0-.5.5v4.149c0 .193-.132.351-.293.351H13.5a.5.5 0 0 0 0 1h1.207C15.42 13 16 12.395 16 11.649V7.5a.5.5 0 0 0-.5-.5Z"/><path d="M7.983 7.479c-1.789-.006-3.453.767-4.76 2.225a.5.5 0 1 0 .744.668c1.112-1.24 2.51-1.903 4.003-1.893 1.451.02 2.809.688 3.826 1.883a.5.5 0 0 0 .762-.648C11.369 8.317 9.702 7.503 7.984 7.48Z"/><path d="M7.92 10.329c-1.132-.017-2.15.507-2.921 1.47a.501.501 0 0 0 .39.812.5.5 0 0 0 .391-.188c.735-.918 1.587-1.098 2.126-1.095a2.66 2.66 0 0 1 2.064 1.06.5.5 0 1 0 .797-.603 3.67 3.67 0 0 0-2.848-1.456Z"/></svg>