<!-- SPDX-FileCopyrightText: © 2025 Schneider Electric SPDX-License-Identifier: LicenseRef-Proprietary -->
<svg xmlns="http://www.w3.org/2000/svg" viewBox="0 0 16 16"><path d="M13.5 0h-11a.5.5 0 0 0-.5.5v15a.5.5 0 0 0 .5.5h11a.5.5 0 0 0 .5-.5V.5a.5.5 0 0 0-.5-.5ZM13 15H9v-3.071a.5.5 0 0 0-.146-.354L6.711 9.432a.5.5 0 0 0-.707.707l1.997 1.996v2.864H3V1h4.576l-.011 3.357-.64-.64a.5.5 0 0 0-.707.707l1.075 1.075-1.075 1.075a.5.5 0 0 0 .707.707L8 6.206l1.075 1.075a.5.5 0 0 0 .707-.707L8.707 5.499l1.075-1.075a.5.5 0 0 0-.707-.707l-.51.51.011-3.228H13z"/></svg>