<!-- SPDX-FileCopyrightText: © 2025 Schneider Electric SPDX-License-Identifier: LicenseRef-Proprietary -->
<svg xmlns="http://www.w3.org/2000/svg" viewBox="0 0 16 16"><path d="M12.422 3c.571 0 .578.836.578.844v3a.5.5 0 0 0 1 0v-3C14 2.927 13.458 2 12.422 2a.5.5 0 0 0 0 1Zm3.16 10.563-3.146-3.146a3.27 3.27 0 0 0-.745-3.463 3.27 3.27 0 0 0-3.801-.597.5.5 0 0 0-.128.799l1.535 1.536a.425.425 0 0 1 .001.604.44.44 0 0 1-.605 0L7.188 7.791a.5.5 0 0 0-.811.151 3.26 3.26 0 0 0 .673 3.653 3.26 3.26 0 0 0 3.653.674.5.5 0 0 0-.406-.914 2.26 2.26 0 0 1-2.541-.467 2.26 2.26 0 0 1-.661-1.772l.889.889a1.43 1.43 0 0 0 2.437-1.008c0-.381-.149-.741-.419-1.01l-.96-.96a2.264 2.264 0 0 1 2.352 3.28.5.5 0 0 0 .092.579l3.387 3.387a.427.427 0 1 1-.604.603l-1.934-1.934a.5.5 0 0 0-.707.707l1.934 1.934c.27.27.628.419 1.01.419h0a1.43 1.43 0 0 0 1.009-2.437Z"/><path d="M11.143 15H4.079A1.08 1.08 0 0 1 3 13.921V4.079A1.08 1.08 0 0 1 4.079 3h.558l-.328 1.385A.498.498 0 0 0 4.795 5h6.443a.5.5 0 0 0 .479-.644l-.863-2.875A2.09 2.09 0 0 0 8.863 0H7.154c-.621 0-1.205.274-1.601.752a.5.5 0 0 0 .769.639c.206-.249.509-.391.832-.391h1.709c.473 0 .897.316 1.033.769L10.566 4H5.427l.328-1.384A.5.5 0 0 0 5.268 2h-1.19a2.08 2.08 0 0 0-2.079 2.079v9.842c0 1.146.933 2.079 2.079 2.079h7.064a.5.5 0 0 0 0-1Z"/></svg>