<!-- SPDX-FileCopyrightText: © 2025 Schneider Electric SPDX-License-Identifier: LicenseRef-Proprietary -->
<svg xmlns="http://www.w3.org/2000/svg" viewBox="0 0 16 16"><path d="M6.023 13.936a.5.5 0 1 0-.304.953.5.5 0 0 0 .304-.953Zm2.024.314c-.276 0-.498.222-.498.498s.225.502.502.502c.276-.004.498-.226.498-.502s-.226-.502-.502-.498Zm-4.552-1.126a.5.5 0 1 0 .698-.113.5.5 0 0 0-.698.113Zm6.576.8a.501.501 0 0 0 .153.976.5.5 0 0 0 .476-.656.5.5 0 0 0-.629-.319Zm3.266-2.389a.5.5 0 1 0 .697-.112.5.5 0 0 0-.697.113Zm-1.445 1.524a.44.44 0 0 0-.109.645.525.525 0 0 0 .697.097.434.434 0 0 0 .109-.642.533.533 0 0 0-.698-.1ZM2.04 11.46a.5.5 0 1 0 .001 0Zm10.344-.563a.5.5 0 1 0-.804-.594.5.5 0 0 0 .804.594Zm-6.797 1.626a.504.504 0 0 0 .67-.222.5.5 0 0 0-.218-.673.502.502 0 0 0-.451.895Zm4.43-.896a.5.5 0 0 0-.218.674.494.494 0 0 0 .672.218.5.5 0 0 0-.455-.892Zm-1.988 1.477a.5.5 0 1 0-.002-.998.5.5 0 0 0 .002.998Zm-4.25-2.905a.499.499 0 1 0 .588.805.499.499 0 1 0-.588-.805ZM8.015 11h.014c.273 0 .493-.222.493-.498S8.303 10 8.029 10q-.017-.001-.029.004a.49.49 0 0 0-.478.495.496.496 0 0 0 .493.502ZM5.472 9.72a.503.503 0 0 0 .704.083.5.5 0 1 0-.705-.083Zm4.712.197a.5.5 0 1 0 .002-.997.5.5 0 0 0-.002.996ZM8 2.864a.5.5 0 0 0-.5.5V7H6a.5.5 0 0 0 0 1h4a.5.5 0 0 0 0-1H8.5V3.364a.5.5 0 0 0-.5-.5Z"/><path d="M14.5 0h-13a.5.5 0 0 0 0 1H4v1.616c0 .133.053.26.146.354l1.363 1.363a.5.5 0 0 0 .707-.707L5 2.409V1h6v1.409L9.784 3.626a.5.5 0 0 0 .708.707l1.363-1.363a.5.5 0 0 0 .146-.354V1h2.5a.5.5 0 0 0 0-1Z"/></svg>