<!-- SPDX-FileCopyrightText: © 2025 Schneider Electric SPDX-License-Identifier: LicenseRef-Proprietary -->
<svg xmlns="http://www.w3.org/2000/svg" viewBox="0 0 16 16"><path d="M12.725 12.69a.97.97 0 0 0 .275-.706V7.038a1 1 0 0 0-.275-.728 1.02 1.02 0 0 0-.73-.31h-4.99C6.451 6 6 6.451 6 7.005V7.5a.5.5 0 0 0 1 0l.005-.5L12 7.016 11.995 12 7 11.996V9.5a.5.5 0 0 0-.5-.5L4 8.996l.002-5.019L9 4.018V4.5a.5.5 0 0 0 1 0v-.461a1 1 0 0 0-.275-.729A1 1 0 0 0 8.998 3l-4.991-.023h-.005a1 1 0 0 0-.706.292 1 1 0 0 0-.295.71v5.017c0 .554.451 1.004 1.004 1.004h1.996v1.996c0 .554.451 1.004 1.004 1.004h4.991c.275 0 .541-.113.73-.31ZM5.5 14H2v-3.5a.5.5 0 0 0-1 0v4a.5.5 0 0 0 .5.5h4a.5.5 0 0 0 0-1Z"/><path d="M1.5 6a.5.5 0 0 0 .5-.5V2h3.5a.5.5 0 0 0 0-1h-4a.5.5 0 0 0-.5.5v4a.5.5 0 0 0 .5.5Zm13-5h-4a.5.5 0 0 0 0 1H14v3.5a.5.5 0 0 0 1 0v-4a.5.5 0 0 0-.5-.5Zm0 9a.5.5 0 0 0-.5.5V14h-3.5a.5.5 0 0 0 0 1h4a.5.5 0 0 0 .5-.5v-4a.5.5 0 0 0-.5-.5Z"/></svg>