<!-- SPDX-FileCopyrightText: © 2025 Schneider Electric SPDX-License-Identifier: LicenseRef-Proprietary -->
<svg xmlns="http://www.w3.org/2000/svg" viewBox="0 0 16 16"><path d="M12 11.5V.5a.5.5 0 0 0-.5-.5H.5a.5.5 0 0 0 0 1H11v10H1V2.5a.5.5 0 0 0-1 0v9a.5.5 0 0 0 .5.5h11a.5.5 0 0 0 .5-.5Z"/><path d="M8.5 6.5a.5.5 0 0 0 0-1h-5a.5.5 0 0 0 0 1zm7-1.5a.5.5 0 0 0-.5.5V15H5.5a.5.5 0 0 0 0 1h10a.5.5 0 0 0 .5-.5v-10a.5.5 0 0 0-.5-.5Z"/><path d="M14 13.5v-10a.5.5 0 0 0-1 0V13H3.5a.5.5 0 0 0 0 1h10a.5.5 0 0 0 .5-.5Z"/></svg>