<!-- SPDX-FileCopyrightText: © 2025 Schneider Electric SPDX-License-Identifier: LicenseRef-Proprietary -->
<svg xmlns="http://www.w3.org/2000/svg" viewBox="0 0 16 16"><circle cx="7.996" cy="7.055" r=".5"/><path d="M6.849 9.008a.5.5 0 0 0-.001 1l2.293.005h0a.5.5 0 0 0 .001-1z"/><path d="M13.314 1H2.678C1.751 1 .996 1.754.996 2.682v10.637c0 .928.754 1.682 1.682 1.682h4.801a.5.5 0 0 0 .5-.5V11.66a.5.5 0 0 0-.476-.499 3.21 3.21 0 0 1-2.724-3.177 3.197 3.197 0 0 1 3.219-3.178 3.18 3.18 0 0 1 2.26.948c.602.606.931 1.41.926 2.264a3.19 3.19 0 0 1-1.696 2.804.501.501 0 0 0 .471.883 4.193 4.193 0 0 0 1.01-6.655 4.18 4.18 0 0 0-2.965-1.244h-.021A4.204 4.204 0 0 0 3.78 7.979a4.21 4.21 0 0 0 3.199 4.098v1.925H2.678a.683.683 0 0 1-.682-.682V2.682c0-.376.306-.682.682-.682h10.637c.376 0 .682.306.682.682v10.637a.683.683 0 0 1-.682.682H9.497a.5.5 0 0 0 0 1h3.818c.928 0 1.682-.754 1.682-1.682V2.682c0-.927-.754-1.682-1.682-1.682Z"/></svg>