<!-- SPDX-FileCopyrightText: © 2025 Schneider Electric SPDX-License-Identifier: LicenseRef-Proprietary -->
<svg xmlns="http://www.w3.org/2000/svg" viewBox="0 0 16 16"><path d="M8.419 7.939v-.001q0 0 0 0v-.001h0v-.002h0v-.001h0v-.002h-.001q0 0 0 0h0V7.93a.5.5 0 0 0-.069-.087L5.647 5.114l-.04-.036-.083-.083a.5.5 0 0 0-.71.704l2.822 2.846v.002a.6.6 0 0 0 .112.084h.003s0 0 0 0q0 0 0 0h.003s0 0 0 0h.001s0 0 0 0q0 0 0 0 0 .002.001 0 0 0 0 0h0s0 0 0 0q0 0 0 0t0 0h0s0 0 0 0h0s0 0 0 0h0s0 0 0 0q0 0 0 0t0 0 0 0h.001q0 0 0 0h.001s0 0 0 0h0s0 0 0 0q0 0 0 0h.001s.001 0 0 0h0s0 0 0 0h.001s0 0 0 0q0 0 0 0t.001 0s0 0 0 0h0s0 0 0 0h0s0 0 0 0q0 0 0 0h0s0 0 0 0q0 0 0 0h0s0 0 0 0h.003s0 0 0 0h.001q0 0 0 0h0s0 0 0 0h0s0 0 0 0h0s0 0 0 0h0s0 0 0 0h0s0 0 0 0q0 0 0 0h0s0 0 0 0q0 0 0 0h.006s0 0 0 0h0s0 0 0 0h0s0 0 0 0h0s0 0 0 0h0s0 0 0 0h0s0 0 0 0h.002s0 0 0 0h.002s0 0 0 0h.001s0 0 0 0h0s0 0 0 0h0s0 0 0 0h0s0 0 0 0h0s0 0 0 0h.002s0 0 0 0h.001s0 0 0 0h0s0 0 0 0h.002s0 0 0 0h.001s0 0 0 0h.001s0 0 0 0h.006a.5.5 0 0 0 .461-.133.5.5 0 0 0 .082-.605v-.001Zm1.157 2.834a.5.5 0 1 0 .496.868 4.203 4.203 0 0 0-.095-7.35.5.5 0 0 0-.475.88 3.204 3.204 0 0 1 .074 5.603Z"/><path d="M13.318 1H2.682C1.755 1 1 1.754 1 2.682v10.637c0 .928.754 1.682 1.682 1.682h4.829a.5.5 0 0 0 .5-.5v-2.829a.5.5 0 0 0-.45-.497.4.4 0 0 0-.073-.018 3.22 3.22 0 0 1-2.704-3.164q0-.31.057-.602a.5.5 0 0 0-.982-.188 4.3 4.3 0 0 0-.074.79 4.176 4.176 0 0 0 3.227 4.089v1.919h-4.33A.683.683 0 0 1 2 13.319V2.682C2 2.306 2.306 2 2.682 2h10.637c.376 0 .682.306.682.682v10.637a.683.683 0 0 1-.682.682H9.501a.5.5 0 0 0 0 1h3.818c.928 0 1.682-.754 1.682-1.682V2.682c0-.927-.754-1.682-1.682-1.682Z"/><circle cx="8" cy="5" r=".5"/></svg>