<!-- SPDX-FileCopyrightText: © 2025 Schneider Electric SPDX-License-Identifier: LicenseRef-Proprietary -->
<svg xmlns="http://www.w3.org/2000/svg" viewBox="0 0 16 16"><path d="M13.105 9H2.895A.896.896 0 0 0 2 9.895v1.228c0 .484.402.878.896.878H3.5a.5.5 0 0 0 0-1H3v-1h10v1H5.5a.5.5 0 0 0 0 1h7.605a.896.896 0 0 0 .895-.895V9.895A.896.896 0 0 0 13.105 9Zm0 4H2.895a.896.896 0 0 0-.895.895v1.217c0 .49.402.889.896.889H3.5a.5.5 0 0 0 0-1H3v-1h10v1H5.5a.5.5 0 0 0 0 1h7.605a.896.896 0 0 0 .895-.895v-1.211a.896.896 0 0 0-.895-.895ZM6.43 7.577q.595.352 1.549.352.852 0 1.506-.373t.999-1.008q.347-.635.347-1.407 0-.533-.191-.997c-.191-.464-.304-.577-.528-.802q-.335-.339-.78-.53c-.445-.191-.616-.192-.957-.192q-.64 0-1.397.405l.304-1.727h2.532q.394 0 .597-.17c.203-.17.202-.263.202-.448q0-.634-.831-.634H6.968q-.459 0-.661.208-.203.207-.277.666l-.448 2.553a7 7 0 0 0-.059.363q0 .24.203.429t.464.189q.24 0 .61-.28t.567-.392.656-.112q.374 0 .677.179.303.178.485.541.18.363.181.874 0 .474-.168.848-.168.373-.477.586c-.309.213-.446.213-.719.213q-.448 0-.811-.264a1.8 1.8 0 0 1-.576-.738q-.219-.517-.667-.517a.56.56 0 0 0-.434.187.57.57 0 0 0-.173.394q0 .341.248.797t.842.808Z"/></svg>