<!-- SPDX-FileCopyrightText: © 2025 Schneider Electric SPDX-License-Identifier: LicenseRef-Proprietary -->
<svg xmlns="http://www.w3.org/2000/svg" viewBox="0 0 16 16"><path d="M15.614 3.271a.495.495 0 0 0-.553.255l-1.262 2.481h-2.3a.493.493 0 0 0-.492.492v4c0 .271.221.492.492.492h.743c.039.942-.065 2.612-.843 3.485-.367.412-.848.612-1.468.612-2.323 0-2.963-3.524-3.062-4.173 1.503-1.062 1.816-3.916 1.873-4.649.629-.772 2.675-3.383 2.675-4.718 0-.589-.266-.938-.488-1.126-.66-.558-1.719-.4-1.836-.381a.492.492 0 0 0 .16.97c.186-.03.775-.064 1.041.162.06.051.139.145.139.375 0 .828-1.564 3.024-2.55 4.214a.5.5 0 0 0-.112.29c-.002.043-.265 4.279-2.172 4.279-1.885 0-1.943-4.212-1.943-4.255a.5.5 0 0 0-.113-.313C2.557 4.574.992 2.377.992 1.55c0-.229.079-.324.139-.375.264-.226.854-.192 1.04-.162a.491.491 0 0 0 .16-.97C2.213.024 1.155-.134.496.424.273.612.008.96.008 1.55c0 1.329 2.029 3.924 2.668 4.708.028.935.302 5.059 2.924 5.059q.174 0 .335-.024c.207 1.184 1.078 4.781 3.998 4.781.904 0 1.646-.317 2.202-.942 1.398-1.57 1.068-4.562 1.054-4.688a.49.49 0 0 0-.488-.436h-.708V6.992h2.109a.49.49 0 0 0 .438-.269l.468-.92V12.5a.493.493 0 0 0 .984 0V3.75a.49.49 0 0 0-.378-.479Z"/></svg>