<!-- SPDX-FileCopyrightText: © 2025 Schneider Electric SPDX-License-Identifier: LicenseRef-Proprietary -->
<svg xmlns="http://www.w3.org/2000/svg" viewBox="0 0 16 16"><path d="M15.85 3.602a.5.5 0 0 0-.2-.393l-1.679-1.255a.5.5 0 0 0-.391-.091l-2.594.48c-.01-.44-.024-.805-.043-.913-.06-.345-.874-1.43-2.327-1.43-1.439 0-2.448 1.353-2.491 1.411a.5.5 0 0 0-.097.291l-.016 1.563-4.636.859a.5.5 0 0 0-.405.433l-.968 8.111c-.019.16.041.32.16.429l3.04 2.772a.5.5 0 0 0 .526.094.5.5 0 0 0 .31-.435l.475-8.467 2.109-.608a.5.5 0 0 0 .361-.475l.02-1.88 3.001-.556.005.619a.5.5 0 0 0 .5.497h.003a.5.5 0 0 0 .496-.503c0-.205-.003-.489-.007-.796l2.544-.471 1.307.977.14 8.903-9.205 2.007a.5.5 0 1 0 .213.977l9.605-2.094a.5.5 0 0 0 .394-.496l-.15-9.558ZM5.988 5.595l-2.092.604a.5.5 0 0 0-.36.453L3.1 14.423l-2.073-1.891.894-7.492 4.082-.756-.014 1.312Zm1.026-2.516.012-1.191c.231-.264.854-.887 1.589-.887.814 0 1.247.521 1.347.66.01.145.019.464.027.868l-2.976.551Z"/></svg>