<!-- SPDX-FileCopyrightText: © 2025 Schneider Electric SPDX-License-Identifier: LicenseRef-Proprietary -->
<svg xmlns="http://www.w3.org/2000/svg" viewBox="0 0 16 16"><path d="M7.682 11.628a.49.49 0 0 0-.507-.223l-3.572.619-.242-1.276a.49.49 0 0 0-.577-.399l-.841.146-.414-.643 5.988-1.038a.5.5 0 1 0-.171-.985L.615 8.995a.5.5 0 0 0-.335.764l1 1.557a.49.49 0 0 0 .506.222l.683-.119.242 1.276a.494.494 0 0 0 .577.399l3.729-.646 2.124 3.322a.5.5 0 0 0 .843-.539z"/><path d="M9.601 5.458a.5.5 0 0 0 .062.47l2.062 2.864a.5.5 0 0 0 .406.208h3.37a.5.5 0 0 0 .5-.5v-8a.5.5 0 0 0-1 0V8h-2.614l-1.47-2.041 1.173-.262a.5.5 0 0 0 .384-.57l-.631-3.789a.497.497 0 0 0-.581-.41L1.119 2.729a.5.5 0 0 0-.333.763l1.004 1.56a.5.5 0 0 0 .506.222l.685-.12.243 1.281a.5.5 0 0 0 .577.399l3.75-.651 3.107 4.596c.093.138.248.22.414.22h3.929v4h-3.085l-1.918-3.294a.5.5 0 0 0-.865.504l2.063 3.542c.09.153.254.248.432.248h3.873a.5.5 0 0 0 .5-.5v-5a.5.5 0 0 0-.5-.5h-4.164l-3.14-4.644a.5.5 0 0 0-.5-.212l-3.583.622-.243-1.282a.5.5 0 0 0-.577-.399l-.843.147-.418-.649L10.939 2l.471 2.824-1.451.324a.5.5 0 0 0-.358.31Z"/></svg>