<!-- SPDX-FileCopyrightText: © 2025 Schneider Electric SPDX-License-Identifier: LicenseRef-Proprietary -->
<svg xmlns="http://www.w3.org/2000/svg" viewBox="0 0 16 16"><path d="M15.5 3H1.532l1.579-2h9.813l1.068 1.068a.5.5 0 0 0 .707-.707L13.485.147a.5.5 0 0 0-.354-.146H2.869a.5.5 0 0 0-.393.19L.107 3.19A.5.5 0 0 0 0 3.5v12a.5.5 0 0 0 .5.5h6a.5.5 0 0 0 0-1H1V3.674l.021-.028A.5.5 0 0 0 1.5 4H15v11H9v-3h4.5a.5.5 0 0 0 0-1H9V7.982L13.498 8h.002a.5.5 0 0 0 .002-1L9 6.982V5.5a.5.5 0 0 0-1 0v1.479l-5.498-.021H2.5a.5.5 0 0 0-.002 1L8 7.979V11H2.5a.5.5 0 0 0 0 1H8v3.5a.5.5 0 0 0 .5.5h7a.5.5 0 0 0 .5-.5v-12a.5.5 0 0 0-.5-.5Z"/><circle cx="2.5" cy="5.5" r=".5"/><circle cx="4.5" cy="5.5" r=".5"/><circle cx="6.5" cy="5.5" r=".5"/><circle cx="11.5" cy="5.5" r=".5"/><circle cx="13.5" cy="5.5" r=".5"/><circle cx="2.5" cy="9.5" r=".5"/><circle cx="4.5" cy="9.5" r=".5"/><circle cx="6.5" cy="9.5" r=".5"/><circle cx="11.5" cy="9.5" r=".5"/><circle cx="13.5" cy="9.5" r=".5"/><circle cx="2.5" cy="13.5" r=".5"/><circle cx="4.5" cy="13.5" r=".5"/><circle cx="6.5" cy="13.5" r=".5"/><circle cx="11.5" cy="13.5" r=".5"/><circle cx="13.5" cy="13.5" r=".5"/></svg>