<!-- SPDX-FileCopyrightText: © 2025 Schneider Electric SPDX-License-Identifier: LicenseRef-Proprietary -->
<svg xmlns="http://www.w3.org/2000/svg" viewBox="0 0 16 16"><path d="M4.548 9a.487.487 0 0 0-.505.495l-.042 4a.5.5 0 0 0 .629.488h.023l1.47-.026c.276-.005.496-.232.491-.509s-.215-.494-.509-.491l-.515.01 1.241-1.861a.5.5 0 0 0 .054-.105h3.816l-1.294 2h-.905a.5.5 0 0 0 0 1h1.177a.5.5 0 0 0 .42-.229l1.849-2.857a.5.5 0 0 0 .054-.432.5.5 0 0 0-.5-.482H7.065l-1.118-7h3.644l1.082 5.661a.5.5 0 1 0 .982-.188l-1.159-6.067a.5.5 0 0 0-.491-.406H5.361a.5.5 0 0 0-.493.579l1.253 7.845a.5.5 0 0 0-.121.127l-.982 1.473.027-2.519a.5.5 0 0 0-.495-.505Z"/><path d="M13.5 0h-11a.5.5 0 0 0 0 1H13v14H3V2.5a.5.5 0 0 0-1 0v13a.5.5 0 0 0 .5.5h11a.5.5 0 0 0 .5-.5V.5a.5.5 0 0 0-.5-.5Z"/></svg>