<!-- SPDX-FileCopyrightText: © 2025 Schneider Electric SPDX-License-Identifier: LicenseRef-Proprietary -->
<svg xmlns="http://www.w3.org/2000/svg" viewBox="0 0 16 16"><path d="m15.86 5.127-2.479-2.582a.5.5 0 0 0-.721.692l.938.978-1.439 1.388-.568-.568a1.22 1.22 0 0 0-1.728 0L7.999 6.898v-.28c0-.917-.683-1.918-1.515-2.261-.386-.201-.627-.823-.673-1.702.252-.04.543-.134.779-.343.187-.166.41-.468.41-.97v-.193C7 .515 6.504 0 5.895 0H2.132C1.508 0 1 .524 1 1.169v.198c0 .375.113.679.336.901.22.219.494.309.767.346l.046.016c-.06.988-.304 1.652-.677 1.845C.688 4.835-.001 5.922-.001 6.8v4.998c0 1.214.987 2.201 2.201 2.201a.5.5 0 0 0 0-1 1.203 1.203 0 0 1-1.201-1.201V6.8c0-.533.498-1.236.911-1.427.747-.386 1.163-1.303 1.24-2.731h.142a.5.5 0 0 0 .496-.505c-.001-.276-.198-.479-.504-.496l-.593.005a.5.5 0 0 0-.092-.008c-.164.007-.477.002-.559-.08-.026-.025-.042-.1-.042-.192v-.198c0-.092.061-.169.132-.169h3.763c.05 0 .105.062.105.149v.193c0 .156-.052.203-.072.221-.119.106-.409.131-.563.114a.5.5 0 0 0-.56.486c-.048 2.103.742 2.833 1.257 3.099.491.204.938.85.938 1.356v1.056q0 .1.036.187l-2.8 2.797c-.299.3-.423.743-.32 1.163l.106.399a.5.5 0 1 0 .967-.256l-.104-.391a.22.22 0 0 1 .058-.209l5.627-5.623c.113-.112.2-.112.313 0l.915.914.003.002.888.888a.22.22 0 0 1 0 .312l-.999.998-.694-.694a.5.5 0 0 0-.707.707l.694.694-.85.849-.695-.694a.5.5 0 0 0-.707.707l.695.694-.83.829-.695-.694a.5.5 0 0 0-.707.707l.695.694-.838.837a.23.23 0 0 1-.202.061l-1.299-.269a1.63 1.63 0 0 0-1.436.397l-1.569 1.449a.5.5 0 1 0 .678.734l1.569-1.449a.64.64 0 0 1 .554-.153l1.299.269a1.21 1.21 0 0 0 1.113-.332l1.178-1.177.014-.014.014-.014 1.513-1.512.011-.011.01-.011 1.542-1.54.005-.005.005-.005 1.348-1.346a1.22 1.22 0 0 0 0-1.728l-.529-.529 1.424-1.374.848.883a.5.5 0 1 0 .721-.692Z"/></svg>