<!-- SPDX-FileCopyrightText: © 2025 Schneider Electric SPDX-License-Identifier: LicenseRef-Proprietary -->
<svg xmlns="http://www.w3.org/2000/svg" viewBox="0 0 16 16"><path d="M14.5 6a.5.5 0 0 0 .5-.5V2.037C15 1.465 14.535 1 13.963 1H2.038A1.04 1.04 0 0 0 1 2.038v11.924A1.04 1.04 0 0 0 2.038 15h11.924A1.04 1.04 0 0 0 15 13.962V7.5a.5.5 0 0 0-1 0l-.038 6.5L2 13.962 2.038 2h8.696L14 2.037V5H3.5a.5.5 0 0 0 0 1H5v2H3.5a.5.5 0 0 0 0 1H5v2H3.5a.5.5 0 0 0 0 1H5v.5a.5.5 0 0 0 1 0V12h6.5a.5.5 0 0 0 0-1H6V9h6.5a.5.5 0 0 0 0-1H6V6z"/><path d="M3.5 4h3a.5.5 0 0 0 0-1h-3a.5.5 0 0 0 0 1Z"/></svg>