<!-- SPDX-FileCopyrightText: © 2025 Schneider Electric SPDX-License-Identifier: LicenseRef-Proprietary -->
<svg xmlns="http://www.w3.org/2000/svg" viewBox="0 0 16 16"><path d="M13.446 4h-2.567l-.737-1.699A.5.5 0 0 0 9.684 2H6.565a.5.5 0 0 0-.465.317L5.44 4H2.72C1.246 4 0 5.98 0 8.325 0 10.737 1.368 12 2.72 12H3v1.5a.5.5 0 0 0 .5.5h1.019a.5.5 0 0 0 .388-.186L6.379 12H9.51l1.447 1.812a.5.5 0 0 0 .391.188h1.153a.5.5 0 0 0 .5-.5v-2a.5.5 0 0 0-1 0V13h-.412l-1.447-1.812A.5.5 0 0 0 9.751 11h-3.61a.5.5 0 0 0-.388.186L4.281 13h-.28v-1.5a.5.5 0 0 0-.5-.5h-.78c-.854 0-1.72-.919-1.72-2.675C1.001 6.483 1.942 5 2.721 5h3.061a.5.5 0 0 0 .465-.317L6.907 3h2.45l.737 1.699a.5.5 0 0 0 .458.301h2.895c.718 0 1.554 1.422 1.554 3.255 0 1.063-.291 1.915-.799 2.336a.5.5 0 1 0 .639.769c.748-.621 1.16-1.725 1.16-3.106 0-2.346-1.146-4.255-2.554-4.255Z"/><path d="M9.932 9.966a.497.497 0 0 0 .701-.092c.662-.863.293-1.57.05-2.038-.238-.458-.294-.604-.013-.928a.501.501 0 0 0-.755-.657c-.741.853-.367 1.571-.119 2.046.236.453.304.627.043.969a.5.5 0 0 0 .093.7ZM7.695 9.89a.5.5 0 0 0 .701-.093c.662-.864.293-1.571.05-2.039-.238-.458-.295-.604-.013-.929a.501.501 0 0 0-.755-.657c-.741.853-.367 1.572-.119 2.047.236.454.304.627.043.969a.5.5 0 0 0 .093.701Zm-2.367-.051a.5.5 0 0 0 .708 0c.836-.837.401-1.619.142-2.086-.258-.464-.327-.625-.062-.931a.501.501 0 0 0-.755-.657c-.738.85-.312 1.615-.058 2.073.266.478.317.601.025.893a.5.5 0 0 0 0 .707Z"/></svg>