<!-- SPDX-FileCopyrightText: © 2025 Schneider Electric SPDX-License-Identifier: LicenseRef-Proprietary -->
<svg xmlns="http://www.w3.org/2000/svg" viewBox="0 0 16 16"><path d="M11.574 4.811a.5.5 0 0 0 .391.193h.004a.5.5 0 0 0 .39-.187l2.34-2.911a.5.5 0 0 0-.779-.627l-1.944 2.418-1.872-2.411a.5.5 0 1 0-.79.614zM10.5 6a.5.5 0 0 0 0 1h3a.5.5 0 0 0 0-1zM7 9.931l-.005-8.177C6.995-.549 3-.549 3 1.754v2.798a.5.5 0 0 0 1 0V1.753C4 1.158 4.627 1 4.998 1c.281 0 .548.078.731.214.179.133.267.31.267.54l.005 8.485q0 .118.053.224c.053.106.211.225.32.271.716.306 1.079 1.037 1.079 2.175C7.453 14.273 5.897 15 4.774 15c-1.006 0-2.422-.633-2.422-2.039 0-1.99 1.214-2.236 1.189-2.24a.5.5 0 0 0 .5-.505l-.035-3.164h.495a.5.5 0 0 0 0-1h-1a.503.503 0 0 0-.5.505l.036 3.298c-.667.288-1.686 1.108-1.686 3.106 0 1.902 1.74 3.039 3.422 3.039 1.769 0 3.679-1.182 3.679-3.091 0-1.013-.256-2.317-1.452-2.979Zm5.445-1.776a.5.5 0 0 0-.391-.193.54.54 0 0 0-.394.187L9.32 11.06a.5.5 0 0 0 .779.627l1.944-2.418 1.872 2.411a.5.5 0 0 0 .79-.613z"/></svg>