<!-- SPDX-FileCopyrightText: © 2025 Schneider Electric SPDX-License-Identifier: LicenseRef-Proprietary -->
<svg xmlns="http://www.w3.org/2000/svg" viewBox="0 0 16 16"><path d="M5.737 13.132V7.606a.5.5 0 0 0-1 0v5.526a.5.5 0 0 0 1 0Z"/><path d="m10.433.96-.281-.657A.5.5 0 0 0 9.692 0H6.309c-.2 0-.381.119-.459.303L5.568.96c-1.307.189-4.308.79-4.308 2.303v.79c0 .32.133.782.741 1.225v7.795c0 1.507 2.979 2.986 6.015 2.986 3.02 0 5.985-1.479 5.985-2.986V5.05a.5.5 0 0 0-.462-.499.5.5 0 0 0-.366.053c-1.43.827-5.581 1.193-8.25.624q-.167-.036-.326-.075a.5.5 0 1 0-.239.971q.173.043.356.083c2.582.549 6.327.311 8.288-.426v7.293c0 .593-2.105 1.986-4.985 1.986-2.897 0-5.015-1.394-5.015-1.986V5.05a.5.5 0 0 0-.157-.364.5.5 0 0 0-.146-.142c-.274-.175-.438-.359-.438-.491v-.79c0-.26 1.07-1.017 3.719-1.349a.5.5 0 0 0 .397-.299L6.64 1h2.724l.264.615a.5.5 0 0 0 .397.299c2.627.33 3.688 1.088 3.688 1.349v.395a.5.5 0 0 0 1 0v-.395c0-1.515-2.979-2.114-4.278-2.303Z"/><path d="M11.263 13.132V7.606a.5.5 0 0 0-1 0v5.526a.5.5 0 0 0 1 0Zm-2.763.382V7.988a.5.5 0 0 0-1 0v5.526a.5.5 0 0 0 1 0Z"/></svg>