<!-- SPDX-FileCopyrightText: © 2025 Schneider Electric SPDX-License-Identifier: LicenseRef-Proprietary -->
<svg xmlns="http://www.w3.org/2000/svg" viewBox="0 0 16 16"><path d="M15.525 7a.5.5 0 0 0 .5-.5V.538a.5.5 0 0 0-.497-.5l-7-.038a.48.48 0 0 0-.355.146.5.5 0 0 0-.147.354v6a.5.5 0 0 0 .5.5h1.5v1h-5V7h1.5a.5.5 0 0 0 .5-.5v-6a.5.5 0 0 0-.5-.5H.525a.5.5 0 0 0-.5.5v6a.5.5 0 0 0 .5.5h1.924a.5.5 0 0 0 0-1H1.025V1h5v5h-1.5a.5.5 0 0 0-.5.5v2a.5.5 0 0 0 .5.5h6a.5.5 0 0 0 .5-.5v-2a.5.5 0 0 0-.5-.5h-1.5V1.003l6 .032V6h-2.5a.5.5 0 0 0-.5.5v2a.5.5 0 0 0 .496.5l2.504.018v.981l-13.5-.02h0a.5.5 0 0 0-.5.5v3.518l-.112-.115a.5.5 0 0 0-.714.701l1.195 1.218a.5.5 0 0 0 .714 0l1.188-1.211a.5.5 0 0 0-.714-.701l-.557.568V10.98l3.496.005v3.256l-.352-.359a.5.5 0 0 0-.714.701l1.195 1.218a.516.516 0 0 0 .714 0l1.188-1.211a.5.5 0 0 0-.714-.701l-.318.324v-3.227l3.079.005.026 3.204v.03l-.336-.344a.502.502 0 0 0-.715.701L9.768 15.8a.5.5 0 0 0 .713 0l1.188-1.211a.5.5 0 0 0-.006-.707.5.5 0 0 0-.707.006l-.336.342q.003-.022.002-.043l-.025-3.194 3.223.004v3.224l-.331-.339a.505.505 0 0 0-.708-.007.5.5 0 0 0-.007.708l1.194 1.218a.5.5 0 0 0 .713 0l1.189-1.211a.5.5 0 0 0-.713-.701l-.339.345V11h.702a.5.5 0 0 0 .5-.5V8.521a.5.5 0 0 0-.496-.5l-2.504-.017V7.001h2.5Zm-5.397 7.736-.046-.047.044.002c.017-.004.033 0 .049-.002z"/></svg>