<!-- SPDX-FileCopyrightText: © 2025 Schneider Electric SPDX-License-Identifier: LicenseRef-Proprietary -->
<svg xmlns="http://www.w3.org/2000/svg" viewBox="0 0 16 16"><path d="m9.285.993 1.009.168a.5.5 0 0 0 .165-.986L9.45.007a.497.497 0 0 0-.576.411.5.5 0 0 0 .411.576Zm5.621 3.674q.341 0 .679-.072a.5.5 0 0 0-.208-.978c-1.389.292-2.702-.799-2.702-2.191q0-.377.121-.729a.5.5 0 0 0-.946-.324 3.24 3.24 0 0 0 3.056 4.295ZM7.995 9.494c.372.349.884.554 1.367.554.954 0 1.729-.778 1.729-1.735 0-2.225-2.43-4.034-5.417-4.034S.256 6.088.256 8.313c0 .957.776 1.735 1.729 1.735.48 0 .916-.197 1.229-.516.208.211.471.37.77.453a.5.5 0 0 0 .266-.965.73.73 0 0 1-.535-.708.5.5 0 0 0-1 0c0 .405-.327.735-.729.735s-.729-.33-.729-.735c0-1.673 1.982-3.034 4.418-3.034s4.417 1.361 4.417 3.034a.733.733 0 0 1-.729.735c-.447 0-.903-.371-.903-.735a.5.5 0 0 0-1 0 .734.734 0 0 1-.73.735.734.734 0 0 1-.729-.734h0a.5.5 0 1 0-1 0V15H.5a.5.5 0 0 0 0 1h10a.5.5 0 0 0 0-1H6V9.886c.646.305 1.513.127 1.994-.392Zm7.307-3.978a.5.5 0 0 0-.449.546l.099 1.022a.5.5 0 0 0 .497.452l.049-.002a.5.5 0 0 0 .449-.546l-.099-1.022a.5.5 0 0 0-.546-.449Zm-2.408-.513a.5.5 0 0 0-.681.191l-.503.895a.5.5 0 1 0 .873.49l.503-.895a.5.5 0 0 0-.191-.681Zm-2.347-2.04-.923.443a.5.5 0 1 0 .433.902l.923-.443a.5.5 0 1 0-.433-.901Z"/></svg>