<!-- SPDX-FileCopyrightText: © 2025 Schneider Electric SPDX-License-Identifier: LicenseRef-Proprietary -->
<svg xmlns="http://www.w3.org/2000/svg" viewBox="0 0 16 16"><path d="M8.499 0C4.524 0 1.29 3.198 1.29 7.128a.5.5 0 0 0 1 0 1.179 1.179 0 0 1 2.355 0 .5.5 0 0 0 1 0c0-.649.528-1.177 1.178-1.177a.5.5 0 0 0 0-1c-.674 0-1.278.308-1.678.791a2.175 2.175 0 0 0-2.511-.625C3.479 2.722 5.79 1 8.5 1s5.022 1.723 5.868 4.117a2.175 2.175 0 0 0-2.511.624 2.2 2.2 0 0 0-.393-.371 2.2 2.2 0 0 0-1.983-.31c-.872.276-1.48 1.155-1.48 2.138v7.116a.685.685 0 0 1-1.369 0 .5.5 0 0 0-1 0c0 .929.756 1.685 1.685 1.685s1.684-.756 1.684-1.685V7.198c0-.552.322-1.039.782-1.185.39-.123.777-.066 1.09.163.302.222.483.577.483.951a.5.5 0 0 0 1 0 1.178 1.178 0 0 1 2.355 0 .5.5 0 0 0 1 0c0-3.931-3.235-7.128-7.211-7.128Z"/></svg>