<!-- SPDX-FileCopyrightText: © 2025 Schneider Electric SPDX-License-Identifier: LicenseRef-Proprietary -->
<svg xmlns="http://www.w3.org/2000/svg" viewBox="0 0 16 16"><path d="M12.159 3.938h-.616c-.255 0-1.087-.055-1.087-.766 0-.181.008-.358.016-.529.035-.786.075-1.677-.775-2.261-.564-.386-1.544-.49-2.441-.258-1.063.275-1.925.982-2.427 1.988-.849 1.705-1.57 9.159-1.717 10.764L.208 15.104a.5.5 0 0 0 .305.897h5.159c.2 0 .381-.119.459-.304a.5.5 0 0 0-.098-.542l-.855-.896a.501.501 0 0 0-.724.691l.048.05H1.986l1.908-1.464a.5.5 0 0 0 .194-.353c.222-2.485.947-9.241 1.637-10.625.475-.953 1.231-1.323 1.782-1.466.686-.178 1.349-.073 1.623.115.359.247.379.578.343 1.392-.008.186-.017.377-.017.574 0 1.056.839 1.766 2.087 1.766h.616c.028 0 2.854.16 2.854 3.713v4.828a.514.514 0 0 1-.512.515h-2.12q.023-.162.023-.329c0-.261-.043-.518-.127-.762a.5.5 0 1 0-.946.324q.072.211.072.438c0 .736-.596 1.335-1.328 1.335s-1.328-.599-1.328-1.335c0-.809.775-1.44 1.537-1.319.265.039.529-.144.572-.416s-.144-.529-.416-.572a2.3 2.3 0 0 0-.438-.027v-4.88a.5.5 0 0 0-1 0v5.143a2.34 2.34 0 0 0-1.254 2.072 2.334 2.334 0 0 0 2.328 2.335c.792 0 1.492-.398 1.913-1.006h2.512c.834 0 1.512-.68 1.512-1.515V8.653c0-3.847-2.854-4.713-3.854-4.713Z"/></svg>