<!-- SPDX-FileCopyrightText: © 2025 Schneider Electric SPDX-License-Identifier: LicenseRef-Proprietary -->
<svg xmlns="http://www.w3.org/2000/svg" viewBox="0 0 16 16"><path d="M14.58 6h-1.07c-.017 0-.041 0-.062.003a.49.49 0 0 0-.384.256l-.432.749h-.729c-.265-.001-.531-.003-.835 0a6 6 0 0 0-.499-.425 5 5 0 0 0-.568-.378V4.82c1.521-.103 4.102-.429 4.102-1.455 0-1.315-2.813-1.642-4.414-1.722C9.59 1.151 9.302.545 8.325.545c-.986 0-1.283.674-1.38 1.19-2.155.106-4.518.484-4.518 1.63 0 .99 1.375 1.439 4.575 1.479v1.281a5.7 5.7 0 0 0-1.076.876H3.783l-.736-.832a.5.5 0 0 0-.46-.161l-.086-.007h-1.08C.016 6 0 10.657 0 10.704 0 11.422.068 15 1.42 15h1.136c1.351 0 1.419-3.578 1.419-4.296a.5.5 0 0 0-1 0c0 1.766-.321 2.999-.528 3.296h-.918c-.207-.296-.528-1.53-.528-3.296 0-1.605.327-3.282.568-3.704h.878l.736.832A.5.5 0 0 0 3.558 8h2.586a.5.5 0 0 0 .374-.168 4.8 4.8 0 0 1 1.228-.987.5.5 0 0 0 .256-.437V4.499a.5.5 0 0 0-.013-.112l.002-.042a.5.5 0 0 0-.5-.5c-2.847 0-3.727-.322-3.983-.474.362-.223 1.556-.577 3.898-.657a.5.5 0 0 0 .15-.027h0a.5.5 0 0 0 .307-.303h0a.6.6 0 0 0 .029-.146c.039-.666.167-.696.432-.696.33 0 .375.033.419.597l.001.018a.5.5 0 0 0 .484.466c2.369.068 3.409.463 3.746.651-.553.229-2.015.501-3.49.571a.5.5 0 0 0-.474.551.5.5 0 0 0-.011.103v2.003a.5.5 0 0 0 .278.448c.24.118.47.261.682.423q.327.251.529.471a.5.5 0 0 0 .368.162h2.058a.5.5 0 0 0 .192-.04.5.5 0 0 0 .248-.215l.434-.753h.655c.237.387.556 1.93.556 3.704s-.321 3-.528 3.296h-.951l-.436-.751a.5.5 0 0 0-.433-.249H5.499a.5.5 0 0 0 0 1h6.864l.436.751a.5.5 0 0 0 .433.249h1.348c1.352 0 1.42-3.578 1.42-4.296 0-.481-.04-4.704-1.42-4.704Z"/></svg>