<!-- SPDX-FileCopyrightText: © 2025 Schneider Electric SPDX-License-Identifier: LicenseRef-Proprietary -->
<svg xmlns="http://www.w3.org/2000/svg" viewBox="0 0 16 16"><path d="M15.096 5.886a6.4 6.4 0 0 0-2.71-.635c-1.486 0-2.518.589-2.561.614a.498.498 0 0 0-.134.752c.32.386.497.876.497 1.38a2.18 2.18 0 0 1-4.359 0c0-1.065.764-1.966 1.817-2.142a.5.5 0 0 0-.166-.987 3.164 3.164 0 0 0-2.651 3.128 3.18 3.18 0 0 0 6.359 0c0-.518-.128-1.026-.367-1.479a4.8 4.8 0 0 1 1.564-.267c1.206 0 2.212.503 2.215.503.021.013.399.264.399.739a.7.7 0 0 1-.089.376 1.6 1.6 0 0 0-.66-.129c-.69.02-1.719.498-1.719 1.737 0 .052.015.513.278.902.259.397.651 1.093.721 1.412a.87.87 0 0 1-.26.804.85.85 0 0 1-.314.163 1.6 1.6 0 0 0-.369-.526c-.505-.47-1.574-.851-2.444.029a1.8 1.8 0 0 0-.438.836c-.097.465-.308 1.234-.483 1.51a.87.87 0 0 1-.743.392.7.7 0 0 1-.355-.114c.076-.178.146-.419.137-.696-.029-.689-.508-1.719-1.762-1.693a1.8 1.8 0 0 0-.899.288c-.396.264-1.089.664-1.416.739a.87.87 0 0 1-.799-.244c-.006-.008-.125-.139-.161-.341.172-.072.375-.189.553-.377.471-.505.853-1.57-.031-2.441a1.8 1.8 0 0 0-.838-.435c-.466-.097-1.238-.307-1.521-.486A.87.87 0 0 1 1 8.461c0-.01.011-.18.122-.343.171.069.399.12.644.124.691-.02 1.72-.497 1.72-1.736a1.8 1.8 0 0 0-.277-.902c-.258-.399-.65-1.094-.719-1.413a.87.87 0 0 1 .259-.804.8.8 0 0 1 .301-.146c.071.156.182.337.351.503.504.474 1.569.86 2.445-.017.036-.037.353-.373.442-.835.099-.464.313-1.231.495-1.514.002-.004.221-.355.75-.38.002 0 .171.013.327.113a1.6 1.6 0 0 0-.126.672c.028.685.511 1.695 1.731 1.695h.026c.052-.001.514-.02.901-.288.396-.262 1.088-.662 1.409-.735a.88.88 0 0 1 .812.25.7.7 0 0 1 .149.342c-.204.099-.485.267-.667.532a.5.5 0 1 0 .824.566c.038-.055.141-.145.452-.272.289-.124.392-.36.384-.452.144-.8-.367-1.353-.432-1.419-.634-.63-1.424-.616-1.765-.518-.583.132-1.534.749-1.728.876a.8.8 0 0 1-.358.116c-.621-.011-.73-.564-.74-.733a.7.7 0 0 1 .125-.39c.117-.17.111-.477-.006-.647C8.394.042 7.644.002 7.55 0h-.016C6.65 0 6.099.557 5.928.862c-.325.501-.572 1.606-.62 1.832a.8.8 0 0 1-.174.333c-.459.457-.922.106-1.04 0a.7.7 0 0 1-.186-.355.57.57 0 0 0-.426-.417c-.795-.15-1.356.349-1.425.413-.638.625-.635 1.416-.54 1.756.125.583.732 1.541.858 1.735a.8.8 0 0 1 .111.356c0 .645-.576.722-.744.729-.22.01-.376-.119-.376-.119-.172-.132-.48-.111-.659.013C.039 7.599.002 8.348 0 8.442c-.002.892.565 1.445.875 1.616.503.32 1.612.561 1.84.608a.8.8 0 0 1 .333.171c.459.452.111.914 0 1.038-.141.147-.351.184-.37.188a.55.55 0 0 0-.444.495c-.141.799.368 1.352.434 1.419.634.627 1.426.612 1.766.514.582-.133 1.533-.751 1.727-.879a.8.8 0 0 1 .356-.116c.664-.05.733.564.743.732a.7.7 0 0 1-.111.37.6.6 0 0 0-.058.097c-.117.26-.002.497.06.601.461.666 1.211.702 1.305.704h.008c.89 0 1.441-.563 1.612-.871.321-.502.563-1.609.61-1.835a.8.8 0 0 1 .172-.332c.454-.46.92-.112 1.046 0 .142.136.176.313.176.312q.015.116.08.214c.074.112.247.22.379.244.799.15 1.356-.35 1.425-.414.639-.625.635-1.416.54-1.757-.126-.582-.733-1.539-.859-1.733a.8.8 0 0 1-.112-.356c0-.645.576-.723.743-.73h.01c.199 0 .365.117.366.117h0a.5.5 0 0 0 .468.076c.327-.113.881-.544.881-1.441 0-.839-.552-1.396-.904-1.607Z"/></svg>