<!-- SPDX-FileCopyrightText: © 2025 Schneider Electric SPDX-License-Identifier: LicenseRef-Proprietary -->
<svg xmlns="http://www.w3.org/2000/svg" viewBox="0 0 16 16"><path d="M15.516 7.653a3.7 3.7 0 0 1-1.238-.251 3.94 3.94 0 0 1-1.424-.972.5.5 0 0 0-.777.059c-.194.282-.922 1.217-2.146 1.384-1.124.152-2.25-.383-2.967-1.391a.502.502 0 0 0-.845.049c-.033.06-.816 1.453-2.349 1.529-1.047.046-2.172-.561-2.734-1.467q0-.29-.016-.57c-.009-.209-.019-.419-.013-.626.016-.27.009-.539.002-.808l-.006-.22c.33.012.694.008.952-.036.289-.047.772-.126 1.232-.472q.333-.25.595-.58c.814.912 1.998 1.385 3.18 1.223 1.218-.163 2.014-.935 2.455-1.523a3.94 3.94 0 0 0 3.167 1.385c2.053-.112 3.103-1.841 3.215-2.038a.5.5 0 1 0-.868-.497c-.034.059-.851 1.452-2.402 1.536-1.074.065-2.125-.53-2.71-1.538-.095-.163-.294-.268-.458-.249a.5.5 0 0 0-.431.294c-.026.059-.666 1.447-2.101 1.639-1.034.138-2.078-.401-2.651-1.377a.5.5 0 0 0-.885.044 2.3 2.3 0 0 1-.707.882c-.264.198-.546.244-.867.297-.168.03-.642.023-1.176-.014a.5.5 0 0 0-.534.469 9 9 0 0 0-.001.803c.006.24.014.48 0 .734-.008.248.002.482.013.718.009.209.019.419.012.64a.5.5 0 0 0 .062.258c.722 1.303 2.25 2.17 3.723 2.091 1.377-.068 2.289-.88 2.772-1.464.928.963 2.211 1.446 3.475 1.27 1.187-.161 2.014-.85 2.474-1.355.414.351.882.632 1.376.826a4.8 4.8 0 0 0 1.086.279v3.143c-.254.406-1.053 1.491-2.371 1.52h-.046c-1.02 0-2.023-.692-2.569-1.774a.498.498 0 0 0-.919.064c-.367 1.078-1.292 1.806-2.357 1.854-1.104.037-2.124-.654-2.545-1.752a.5.5 0 0 0-.427-.319.51.51 0 0 0-.473.247 3.5 3.5 0 0 1-1.188 1.23 3.3 3.3 0 0 1-1.433.476.5.5 0 0 0 .084.996 4.3 4.3 0 0 0 1.873-.62c.43-.265.769-.577 1.03-.879.672 1.004 1.777 1.623 2.968 1.623q.078.001.156-.004c1.169-.052 2.213-.683 2.847-1.671.771.972 1.885 1.516 3.022 1.529 2.001-.043 3.086-1.783 3.284-2.135a.5.5 0 0 0 .065-.247v-3.74a.5.5 0 0 0-.484-.5Z"/></svg>