<!-- SPDX-FileCopyrightText: Copyright © 2012-2024 WeChat. All Rights Reserved. SPDX-License-Identifier: LicenseRef-Proprietary -->
<svg xmlns="http://www.w3.org/2000/svg" version="1.1" viewBox="0 0 83.15 67.05"><path fill="#7f7f7f" d="M30.12 0C13.49 0 0 11.23 0 25.08c0 7.56 4.06 14.37 10.4 19a2 2 0 0 1 .85 1.64 2.3 2.3 0 0 1-.11.64c-.5 1.89-1.32 4.92-1.35 5.06a2.7 2.7 0 0 0-.17.73 1 1 0 0 0 .9.96h.232a1.2 1.2 0 0 0 .447-.14l6.59-3.81a3.23 3.23 0 0 1 1.602-.46c.3.002.6.046.888.13a35.4 35.4 0 0 0 9.83 1.38c.665 0 1.323-.024 1.977-.06a19 19 0 0 1-.865-3.507c-.903-5.666.93-11.591 4.588-15.967 5.075-6.176 13.034-9.521 20.927-9.828a32 32 0 0 1 3.045.017C57.358 9.028 45.01 0 30.12 0zM20.07 13a4 4 0 0 1 4 4 4 4 0 1 1-4-4zm20.14 0a4 4 0 0 1 4 4 4 4 0 1 1-4-4z"/><path fill="#7f7f7f" d="M58.07 22.82C44.22 22.82 33 32.17 33 43.71c0 11.53 11.23 20.88 25.08 20.88a29.6 29.6 0 0 0 8.19-1.14 2.6 2.6 0 0 1 .74-.11 2.7 2.7 0 0 1 1.33.38l5.49 3.17a.9.9 0 0 0 .48.16.85.85 0 0 0 .84-.84 2.7 2.7 0 0 0-.15-.61l-1.13-4.21a2 2 0 0 1-.09-.53 1.68 1.68 0 0 1 .71-1.37c5.28-3.82 8.66-9.49 8.66-15.78 0-11.54-11.23-20.89-25.08-20.89zM49.92 34a3.36 3.36 0 1 1-3.358 3.338l-.001.021v-.029l.002.008A3.36 3.36 0 0 1 49.92 34zm16.78 0a3.36 3.36 0 1 1-3.348 3.338l-.002.021v-.029l.002.008A3.35 3.35 0 0 1 66.699 34z"/></svg>