<!-- SPDX-FileCopyrightText: © 2025 Schneider Electric SPDX-License-Identifier: LicenseRef-Proprietary -->
<svg xmlns="http://www.w3.org/2000/svg" viewBox="0 0 16 16"><path fill="currentColor" d="m15.604 13.384-3.596-8.17c-.3-.68-1.117-1.213-1.86-1.213H8.5a.5.5 0 0 0 0 1h1.648c.353 0 .803.294.945.617l3.596 8.17c.047.106.036.162.03.171s-.052.042-.169.042H1.45c-.117 0-.166-.033-.173-.045s-.019-.069.027-.177L4.81 5.617c.166-.385.488-.609.582-.616.633 0 1.152-.632 1.182-1.458v-.816c0-.832.684-1.509 1.524-1.509s1.524.684 1.524 1.524a.5.5 0 0 0 1 0A2.527 2.527 0 0 0 8.098.218a2.52 2.52 0 0 0-2.524 2.479v.828c-.01.287-.145.458-.182.476-.64 0-1.239.614-1.5 1.222L.385 13.384c-.171.398-.15.807.057 1.121.208.314.575.495 1.008.495h13.1c.435 0 .801-.181 1.007-.496.206-.314.223-.724.048-1.12Z"/></svg>