<!-- SPDX-FileCopyrightText: © 2025 Schneider Electric SPDX-License-Identifier: LicenseRef-Proprietary -->
<svg xmlns="http://www.w3.org/2000/svg" viewBox="0 0 16 16"><path d="M13.743 1.788 6.354.021a.5.5 0 0 0-.207-.005.5.5 0 0 0-.321.025L2 1.687V1.5a.5.5 0 0 0-1 0v14a.5.5 0 0 0 1 0V4.073L5.006 6.04q.104.066.218.079a.5.5 0 0 0 .381-.911c-.29-.179-.676-.899-.555-2.149q.018-.19.051-.37a.5.5 0 0 0-.984-.18 5 5 0 0 0-.063.453A5 5 0 0 0 4.08 4.24L1.998 2.878v-.103L6.134.997l7.353 1.757c.465.136.768.604.719 1.113-.05.515-.441.917-.931.957l-1.267.102a2.35 2.35 0 0 1-.265-1.231q.014-.234.068-.452A.499.499 0 1 0 10.842 3q-.079.31-.097.64c-.027.473.045.941.207 1.371l-2.138.172c-.447-.682-.534-1.17-.539-1.83a4 4 0 0 1 .07-.749.5.5 0 1 0-.981-.197 4.7 4.7 0 0 0-.09.953c.005.646.087 1.237.434 1.912l-.194.016a.5.5 0 1 0 .081.997l4.166-.335.049-.004 1.544-.125c.973-.078 1.75-.859 1.846-1.857a2.05 2.05 0 0 0-1.458-2.176Z"/></svg>