<!-- SPDX-FileCopyrightText: © 2025 Schneider Electric SPDX-License-Identifier: LicenseRef-Proprietary -->
<svg xmlns="http://www.w3.org/2000/svg" viewBox="0 0 16 16"><path d="M12.5 8a.5.5 0 0 0 0-1H10V5.5a.5.5 0 0 0-1 0V7H7V5.5a.5.5 0 0 0-1 0V7H3.5a.5.5 0 0 0 0 1H6v.5a.5.5 0 0 0 1 0V8h2v2H3.5a.5.5 0 0 0 0 1H6v1.5a.5.5 0 0 0 1 0V11h2v1.5a.5.5 0 0 0 1 0V11h2.5a.5.5 0 0 0 0-1H10V8z"/><path d="M15 3.5V2.038A1.04 1.04 0 0 0 13.962 1H2.037C1.465 1 1 1.465 1 2.037v11.925C1 14.534 1.465 15 2.038 15h11.924A1.04 1.04 0 0 0 15 13.962V5.5a.5.5 0 0 0-1 0l-.038 8.5L2 13.962 2.037 2h11.777a.5.5 0 0 0 .187.038V3H3.5a.5.5 0 0 0 0 1h11a.5.5 0 0 0 .5-.5Z"/></svg>