<!-- SPDX-FileCopyrightText: © 2025 Schneider Electric SPDX-License-Identifier: LicenseRef-Proprietary -->
<svg xmlns="http://www.w3.org/2000/svg" viewBox="0 0 16 16"><path d="M3.5 6.352a.5.5 0 0 0 .5-.5V4h1.5a.5.5 0 0 0 0-1h-2a.5.5 0 0 0-.5.5v2.352a.5.5 0 0 0 .5.5Z"/><path d="M14.5 1h-13a.5.5 0 0 0-.5.5v12.462A1.04 1.04 0 0 0 2.038 15h1.741a1.23 1.23 0 0 0 1.099-.689l.274-.567a.5.5 0 0 0-.9-.436l-.274.568A.22.22 0 0 1 3.78 14l-1.779-.038V2h12v10.13L13.963 14h-1.608c-.105 0-.279-.108-.348-.242l-.923-1.518a.5.5 0 0 0-.427-.24H5.948a.5.5 0 0 0 0 1h4.428l.756 1.238c.214.435.739.762 1.223.762h1.608a1.04 1.04 0 0 0 1.038-1.038V1.5a.5.5 0 0 0-.5-.5Z"/><path d="M3 10.5a.5.5 0 0 0 .5.5h2a.5.5 0 0 0 0-1H4V8.5a.5.5 0 0 0-1 0zm7.5.5h2a.5.5 0 0 0 .5-.5v-2a.5.5 0 0 0-1 0V10h-1.5a.5.5 0 0 0 0 1Zm2-4.648a.5.5 0 0 0 .5-.5V3.5a.5.5 0 0 0-.5-.5h-2a.5.5 0 0 0 0 1H12v1.852a.5.5 0 0 0 .5.5Z"/></svg>