<!-- SPDX-FileCopyrightText: © 2025 Schneider Electric SPDX-License-Identifier: LicenseRef-Proprietary -->
<svg xmlns="http://www.w3.org/2000/svg" viewBox="0 0 16 16"><path d="M8.5 15H1v-1.979h4.443q.078.003.154 0h1.938a.5.5 0 0 0 0-1h-.602a1.5 1.5 0 0 0 .084-.496.5.5 0 0 0-1 0c0 .26-.2.474-.453.496h-.089a.5.5 0 0 1-.453-.496.5.5 0 0 0-.021-.145.5.5 0 0 0-.983.131.498.498 0 0 1-.995 0 .5.5 0 0 0-1 0q.002.27.089.51H.998V8.973h4.548q.067.003.134 0h1.899a1.5 1.5 0 0 0 1.536-1.497.5.5 0 0 0-1 0 .5.5 0 0 1-.477.497h-.042a.5.5 0 0 1-.475-.497.506.506 0 0 0-1.01.001.5.5 0 0 1-.459.496h-.077a.497.497 0 0 1-.458-.496.5.5 0 0 0-.023-.151.5.5 0 0 0-.981.137.498.498 0 0 1-.994 0 .5.5 0 0 0-1 0q.002.27.089.51H1V4.984h4.419q.066.003.133 0h1.899a1.503 1.503 0 0 0 1.536-1.497.5.5 0 0 0-1 0 .5.5 0 0 1-.477.497h-.042a.5.5 0 0 1-.475-.497.507.507 0 0 0-.555-.497.5.5 0 0 0-.455.498.5.5 0 0 1-.459.496h-.076a.497.497 0 0 1-.459-.496.5.5 0 0 0-.019-.136.5.5 0 0 0-.985.122.498.498 0 0 1-.995 0 .5.5 0 0 0-1 0q.002.27.089.51H1V1h9v3.5a.5.5 0 0 0 1 0v-4a.5.5 0 0 0-.5-.5H.5a.5.5 0 0 0-.5.5v15a.5.5 0 0 0 .5.5h8a.5.5 0 0 0 0-1Z"/><path d="M15.988.946a.5.5 0 1 0-.977-.215l-.731 3.331c-.196.895-.093 1.761.292 2.44.179.314.234.683.156 1.038l-.994 4.524-1.336-.293.802-3.65.282.062a.5.5 0 1 0 .215-.977l-.771-.169a.5.5 0 0 0-.377.067.5.5 0 0 0-.219.314l-1.017 4.627a.504.504 0 0 0 .38.596l1.825.4-.295 1.343-3.097-.644 1.5-6.832c.078-.354.283-.666.578-.877.634-.456 1.091-1.199 1.287-2.092l.731-3.331a.5.5 0 1 0-.977-.215l-.731 3.331c-.144.653-.461 1.184-.895 1.495-.495.356-.84.88-.971 1.475L9.04 14.02a.5.5 0 0 0 .068.379c.073.112.188.19.318.218l4.075.847a.5.5 0 0 0 .59-.382l.503-2.291.006-.022.005-.022 1.096-4.99a2.46 2.46 0 0 0-.264-1.746c-.263-.463-.328-1.079-.185-1.731l.731-3.331Z"/></svg>