<!-- SPDX-FileCopyrightText: © 2024 知乎 SPDX-License-Identifier: LicenseRef-Proprietary -->
<svg xmlns="http://www.w3.org/2000/svg" version="1.1" viewBox="0 0 64 30"><path fill="#1772F6" d="M7.02 1.002a4.26 4.26 0 0 0-2.413.697c-.57.4-.912.682-1.37 1.946-.533 1.453-.998 2.856-1.311 3.693C1.444 8.674.279 11.025.279 11.025a5.85 5.85 0 0 0 2.522-.61C3.92 9.82 4.479 8.911 4.854 7.53l.09-.299h2.333v5.5c0 .5-.044.981-.072 1.46h-4.12c-.71 0-1.39.278-1.894.775a2.64 2.64 0 0 0-.783 1.875h6.528a17.7 17.7 0 0 1-.778 3.648 16.8 16.8 0 0 1-3.012 5.274A33 33 0 0 1 0 28.74s3.13 1.174 5.426-.955c1.388-1.292 2.63-3.813 3.228-5.726a28 28 0 0 0 1.121-5.229h5.967v-1.37a1.25 1.25 0 0 0-.373-.9 1.28 1.28 0 0 0-.908-.369H9.982c0-.47.033-.955.04-1.459v-5.5h5.105V5.936a1.35 1.35 0 0 0-.404-.957 1.38 1.38 0 0 0-.967-.397H5.783c.028-.088.056-.178.084-.256.274-.82 1.153-3.324 1.153-3.324zm54.916.713a.5.5 0 0 0-.147.017 33 33 0 0 1-4.277.729c-2.766.32-3.971.404-7.805.682-6.718.487-12.709.718-12.709.718 0 .694.285 1.358.79 1.834a2.57 2.57 0 0 0 1.882.707c2.278-.095 5.598-.25 8.996-.41v9.203h-12.78c0 .703.282 1.376.784 1.873a2.7 2.7 0 0 0 1.89.778h10.106v7.076c0 .887-.463 1.19-1.23 1.213h-3.92a4.15 4.15 0 0 0 .836 1.545 4.2 4.2 0 0 0 1.404 1.066 6.2 6.2 0 0 0 2.709.277c1.36-.066 2.967-.826 2.967-3.57v-7.607h11.28A1.285 1.285 0 0 0 64 16.57v-1.375H51.45V5.842c4.18-.205 7.987-.405 9.437-.483l.851-.05c.387-.4.886-2.396.69-3.022-.064-.219-.18-.563-.492-.572zM16.732 4.582v21.357h3.02l.402 2.573 4.08-2.573h4.817V4.582zm2.756 2.65h6.78v16.041h-2.424v-.002l-2.397 1.51-.234-1.508h-1.725zm40.004.55a2.3 2.3 0 0 0-.607.001 2.33 2.33 0 0 0-1.535.897l-3.125 4.097 2.24 1.662 4.517-5.925-.375-.278a2.3 2.3 0 0 0-1.115-.455zm-18.99.148a2.33 2.33 0 0 0-1.123.422l-.375.271 4.254 5.852 2.24-1.621-2.885-3.981a2.3 2.3 0 0 0-1.508-.926 2.3 2.3 0 0 0-.603-.017zM11.27 19.676l-2.313 1.49 5.04 7.457a6.9 6.9 0 0 0 .671-2.217 3.15 3.15 0 0 0-.28-2.168z"/></svg>