<!-- SPDX-FileCopyrightText: © 2025 Schneider Electric SPDX-License-Identifier: LicenseRef-Proprietary -->
<svg xmlns="http://www.w3.org/2000/svg" viewBox="0 0 16 16"><path d="m15.854 10.985-.173-.173c-.383-.383-.903-.583-1.455-.593l-.515.005c-.707-.731-3.643-3.759-4.805-4.799C7.577 4.236 3.97 1.423 2.48.269A1.284 1.284 0 0 0 .787.378L.379.786a1.286 1.286 0 0 0-.11 1.695c.667.86 2.016 2.592 3.231 4.105a.501.501 0 0 0 .78-.626 321 321 0 0 1-3.221-4.092.28.28 0 0 1 .027-.375l.409-.409a.28.28 0 0 1 .374-.026C3.349 2.206 6.935 5.002 8.24 6.17c1.27 1.137 4.866 4.866 4.902 4.903a.5.5 0 0 0 .365.153l.73-.008c.26-.006.512.095.703.268-.132.38-.491 1.178-1.382 2.07-.894.894-1.693 1.252-2.071 1.383l-.055-.055a1.03 1.03 0 0 1-.301-.737l.008-.73a.5.5 0 0 0-.153-.365c-.034-.033-3.392-3.271-4.659-4.643a.5.5 0 1 0-.735.679c1.144 1.238 3.858 3.871 4.544 4.534l-.005.515c-.006.542.21 1.072.594 1.455l.262.262a.5.5 0 0 0 .438.139c.055-.009 1.358-.247 2.84-1.729s1.72-2.786 1.729-2.84a.5.5 0 0 0-.139-.438Z"/></svg>