<!-- SPDX-FileCopyrightText: © 2025 Schneider Electric SPDX-License-Identifier: LicenseRef-Proprietary -->
<svg xmlns="http://www.w3.org/2000/svg" viewBox="0 0 16 16"><path d="M3.014 6.45q.203.215.516.354.313.142.708.142.389 0 .71-.123.321-.124.555-.343a1.47 1.47 0 0 0 .474-1.079q0-.25-.089-.467a1.2 1.2 0 0 0-.266-.395 1.8 1.8 0 0 0-.433-.316q.266-.224.41-.459t.144-.565q0-.25-.099-.468a1.1 1.1 0 0 0-.293-.383q-.194-.164-.458-.252c-.264-.088-.37-.087-.583-.087q-.366 0-.663.104c-.297.104-.363.161-.496.275s-.234.234-.303.361a.76.76 0 0 0-.104.361q0 .178.11.285a.34.34 0 0 0 .243.107q.111 0 .197-.04c.086-.04.097-.062.119-.109q.055-.128.124-.273.068-.146.143-.237a.5.5 0 0 1 .206-.148.9.9 0 0 1 .331-.056q.297 0 .472.183a.6.6 0 0 1 .175.437q0 .333-.219.511a.8.8 0 0 1-.522.178h-.135q-.234 0-.353.097a.32.32 0 0 0-.119.256q0 .16.099.252c.099.092.159.091.28.091q.039 0 .178-.013.138-.014.204-.014.375 0 .587.219.21.22.211.605a.85.85 0 0 1-.437.757.84.84 0 0 1-.394.101q-.355 0-.552-.223c-.197-.223-.253-.375-.368-.681a.26.26 0 0 0-.112-.131.33.33 0 0 0-.178-.054.43.43 0 0 0-.308.117.4.4 0 0 0-.124.308q0 .149.104.376.103.227.306.439Zm6.453-2.273a1.4 1.4 0 0 0-.465-.333 1.4 1.4 0 0 0-.578-.117q-.327 0-.59.128c-.263.128-.338.218-.488.396q.043-.897.284-1.246.118-.171.292-.272c.174-.101.231-.101.348-.101q.217 0 .382.12.165.121.241.318.056.155.175.242c.119.087.165.087.257.087a.34.34 0 0 0 .261-.11.36.36 0 0 0 .103-.246.85.85 0 0 0-.163-.468 1.26 1.26 0 0 0-.485-.409 1.6 1.6 0 0 0-.743-.165q-.438 0-.781.165c-.343.165-.423.272-.583.488a2.3 2.3 0 0 0-.369.814 4.4 4.4 0 0 0-.129 1.113q0 .766.213 1.294c.213.528.347.619.615.8q.401.27.956.27.481 0 .862-.212c.381-.212.451-.339.593-.592q.214-.38.213-.844 0-.32-.108-.613a1.5 1.5 0 0 0-.309-.509Zm-.681 1.848a.67.67 0 0 1-.55.272.71.71 0 0 1-.58-.297q-.231-.297-.231-.742 0-.277.114-.482a.8.8 0 0 1 .3-.314.77.77 0 0 1 .391-.109q.215 0 .392.113a.77.77 0 0 1 .28.33q.102.217.103.516 0 .442-.218.714Zm1.862-.153q.201.502.599.784.397.284.898.284.435 0 .791-.211c.356-.211.431-.341.58-.601q.177-.316.243-.705t.066-.929q0-.996-.25-1.54-.146-.313-.354-.525a1.1 1.1 0 0 0-.486-.323 1.7 1.7 0 0 0-.616-.11q-.514 0-.886.249a1.54 1.54 0 0 0-.564.724q-.113.286-.165.686a7 7 0 0 0-.053.896q0 .386.048.717.047.331.149.604Zm.879-2.768q.17-.438.604-.438.303 0 .475.196c.172.196.195.324.244.58q.072.384.072.987 0 .636-.069 1.028-.069.393-.24.603a.57.57 0 0 1-.475.211q-.294 0-.465-.202c-.171-.202-.195-.335-.243-.599a6 6 0 0 1-.073-1.015q0-.913.17-1.352Zm2.935 3.708a.5.5 0 0 0-.525.852c.686.422 1.063.903 1.063 1.352 0 1.062-1.961 2.111-4.663 2.496a.5.5 0 0 0 .14.99c3.354-.479 5.522-1.847 5.522-3.486 0-.573-.267-1.419-1.538-2.204Zm-5.599 5.186zv-.002h0v-.002a.5.5 0 0 0-.113-.174l-.001-.002-1.577-1.578a.5.5 0 0 0-.707.707l.706.707c-3.675-.172-6.168-1.468-6.168-2.639 0-.505.463-1.035 1.304-1.492a.5.5 0 1 0-.477-.879C.32 7.465.003 8.386.003 9.015c0 1.962 3.045 3.471 7.204 3.642l-.741.741a.5.5 0 0 0 .708.707l1.579-1.578h0s0 0 0 0h0s0 0 0 0h0a.5.5 0 0 0 .112-.524v-.002Z"/></svg>