<!-- SPDX-FileCopyrightText: © 2025 Schneider Electric SPDX-License-Identifier: LicenseRef-Proprietary -->
<svg xmlns="http://www.w3.org/2000/svg" viewBox="0 0 16 16"><path d="M4.238 4.556h-.819a.49.49 0 0 0 0 .978h.819a.49.49 0 0 0 0-.978Zm2.132 0h-.82a.49.49 0 0 0 0 .978h.82a.49.49 0 0 0 0-.978Zm.099 7.742a.49.49 0 0 0 .691-.036l.36-.402c.128-.161.56-.58 1.018-.58.229 0 .496.101.772.284l.503.375c.311.208.788.485 1.334.485 1.034 0 1.759-.919 1.766-.931l.339-.376a.488.488 0 1 0-.726-.654l-.36.401c-.128.162-.56.581-1.018.581-.28 0-.585-.183-.77-.305l-.503-.375c-.461-.309-.911-.465-1.337-.465-1.035 0-1.759.918-1.767.93l-.339.377a.49.49 0 0 0 .037.69Zm-3.05-8.295h5.082a.49.49 0 0 0 0-.978H3.419a.49.49 0 0 0 0 .978Z"/><path d="M14.952 1.313za.5.5 0 0 0-.093-.145h0a.5.5 0 0 0-.168-.119.5.5 0 0 0-.189-.038H1.5a.49.49 0 0 0-.489.489v13c0 .271.219.489.489.489h13a.49.49 0 0 0 .489-.489v-13h0a.5.5 0 0 0-.037-.187Zm-12.963.676h11.323L1.989 13.203zm12.022 12.022H2.563L14.011 2.672z"/><path d="M8.5 4.556h-.82a.49.49 0 0 0 0 .978h.82a.49.49 0 0 0 0-.978Z"/></svg>