<!-- SPDX-FileCopyrightText: © 2025 Schneider Electric SPDX-License-Identifier: LicenseRef-Proprietary -->
<svg xmlns="http://www.w3.org/2000/svg" viewBox="0 0 16 16"><path d="M15.184 1.606a2.79 2.79 0 0 0-3.941.002.5.5 0 0 0-.036.74l1.259 1.255-.563.545a5.9 5.9 0 0 0-3.347-1.349l.174-1.01.483.085A.5.5 0 1 0 9.387.89L7.432.546a.504.504 0 0 0-.579.406.5.5 0 0 0 .407.579l.485.085-.191 1.105-.007.088a5.93 5.93 0 0 0-3.363 1.454l-.99-.991a.5.5 0 0 0-.2-.123.5.5 0 0 0-.533.113L1.246 4.477a1.8 1.8 0 0 1-.244-.903c0-.477.186-.925.524-1.262a1.793 1.793 0 0 1 2.545.018l.369-.337.321-.388A2.792 2.792 0 0 0 0 3.575C0 4.32.29 5.02.843 5.572a.5.5 0 0 0 .355.154.6.6 0 0 0 .359-.146l1.264-1.264.668.668a5.9 5.9 0 0 0-1.33 3.742c0 1.721.735 3.272 1.909 4.359l-1.219 1.569a.5.5 0 1 0 .79.613L4.856 13.7c.935.612 2.052.969 3.251.969s2.315-.356 3.25-.968l1.217 1.566a.5.5 0 0 0 .702.088.5.5 0 0 0 .088-.701l-1.218-1.569a5.92 5.92 0 0 0 1.909-4.359.5.5 0 0 0-1 0c0 2.726-2.22 4.943-4.947 4.943S3.16 11.451 3.16 8.726s2.22-4.943 4.948-4.943c1.301 0 2.528.5 3.456 1.406a.5.5 0 0 0 .697.002l1.248-1.205a.5.5 0 0 0 .122-.189.5.5 0 0 0-.106-.549l-1.217-1.213a1.796 1.796 0 0 1 2.169.278c.338.337.523.786.523 1.263a1.78 1.78 0 0 1-.572 1.312c-.185.201-.157.494.039.683.196.188.524.168.717-.024.526-.526.816-1.226.816-1.97s-.29-1.444-.816-1.97Z"/><path d="M11.692 6.899 8.306 8.32a.5.5 0 0 0-.307.461V11.5a.5.5 0 0 0 1 0V9.113l3.079-1.292a.499.499 0 1 0-.386-.922Z"/></svg>