<!-- SPDX-FileCopyrightText: © 2025 Schneider Electric SPDX-License-Identifier: LicenseRef-Proprietary -->
<svg xmlns="http://www.w3.org/2000/svg" viewBox="0 0 16 16"><path d="M.5 5h15a.5.5 0 0 0 0-1H.5a.5.5 0 0 0 0 1Zm14.629 3.132-.854.948c-.014.017-1.343 1.687-3.046 1.687-.879 0-1.749-.514-2.307-.885l-1.203-.894c-1.013-.677-1.985-1.021-2.89-1.021-2.197 0-3.768 1.987-3.81 2.044l-.832.921a.5.5 0 1 0 .742.67l.854-.948c.013-.017 1.342-1.687 3.045-1.687.704 0 1.488.287 2.313.838l1.203.895c.687.458 1.732 1.067 2.883 1.067 2.196 0 3.769-1.987 3.811-2.044l.832-.921a.5.5 0 1 0-.742-.67Z"/></svg>