<!-- SPDX-FileCopyrightText: © 2025 Schneider Electric SPDX-License-Identifier: LicenseRef-Proprietary -->
<svg xmlns="http://www.w3.org/2000/svg" viewBox="0 0 16 16"><path d="M6.883 9.718c1.313 0 2.831-.31 4.557-1.109.749-.346 1.334-.787 1.852-1.175.728-.548 1.356-1.021 2.263-1.119a.496.496 0 0 0 .413-.675c-.021-.054-2.134-5.386-8.49-5.638a.5.5 0 0 0-.041.999c4.58.182 6.662 3.189 7.338 4.453-.831.239-1.466.717-2.085 1.182-.5.376-1.018.765-1.67 1.067-6.029 2.789-9.073-.905-9.782-1.948.418-.577 1.651-2.011 3.768-2.33a3.1 3.1 0 0 0-.412 1.563c0 1.709 1.39 3.099 3.099 3.099s3.1-1.39 3.1-3.099a3.095 3.095 0 0 0-2.125-2.943.5.5 0 1 0-.315.949 2.1 2.1 0 0 1 1.44 1.994c0 1.157-.942 2.099-2.1 2.099s-2.099-.942-2.099-2.099c0-.7.32-1.322.878-1.708a.5.5 0 0 0-.26-.91C2.189 2.173.287 5.361.209 5.497a.5.5 0 0 0-.003.493c.027.048 2.149 3.728 6.677 3.728Zm8.952 2.599a.5.5 0 0 0-.706.036l-.858.952c-.013.017-1.349 1.694-3.059 1.694-.882 0-1.756-.516-2.317-.889l-1.208-.897c-1.017-.68-1.993-1.025-2.899-1.025-2.205 0-3.782 1.995-3.824 2.052l-.835.925a.5.5 0 1 0 .742.67l.858-.952c.013-.017 1.349-1.694 3.059-1.694.706 0 1.494.288 2.323.842l1.208.898c.689.46 1.739 1.072 2.893 1.072 2.205 0 3.782-1.995 3.824-2.052l.835-.925a.5.5 0 0 0-.036-.706Z"/></svg>