<!-- SPDX-FileCopyrightText: Copyright © 2024 American Express Company SPDX-License-Identifier: LicenseRef-Proprietary -->
<svg xmlns="http://www.w3.org/2000/svg" version="1.1" viewBox="0 0 58.6 58.6"><path fill="#0071ce" d="m53.7 43.95-2.6-2.9-2.7 2.9h-5.3v0H31.7v-13.5h-5.3l6.6-15.1h6.4l2.3 5.2v-5.2h8l1.4 3.9 1.4-3.9h6.1v-2.3c0-1.4-1.1-2.5-2.5-2.5H2.5c-1.4 0-2.5 1.1-2.5 2.5v32.5c0 1.4 1.1 2.5 2.5 2.5h53.6c1.4 0 2.5-1.1 2.5-2.5v-1.6z"/><path fill="#0071ce" d="m53.1 36.45 5.5-5.8h-4.1l-3.5 3.8-3.4-3.8h-4.2l5.6 5.9-5.6 5.8h4.1l3.5-3.8 3.4 3.8h4.2zm-9.8 1.4v-2.7h-6.6v-1.8h6.7v-2.7h-9.9v11.7h9.9v-2.7h-6.7v-1.8zm15.2-8.9v-11.8l-4.8.1-2.6 7.3-2.7-7.3h-5v11.7h3.2v-8.2l3 8.2h2.8l3.1-8.2v8.2z"/><path fill="#0071ce" d="M38.3 17.25h-4.1L29 28.95h3.5l1-2.3h5.4l1 2.3h3.6zm-3.7 6.7 1.6-3.8 1.6 3.8zm24 9-2.9 3.2 2.9 3.2z"/></svg>