<!-- SPDX-FileCopyrightText: © 2025 Schneider Electric SPDX-License-Identifier: LicenseRef-Proprietary -->
<svg xmlns="http://www.w3.org/2000/svg" viewBox="0 0 16 16"><path d="M8 0C3.589 0 0 3.589 0 8s3.589 8 8 8 8-3.589 8-8-3.589-8-8-8Zm0 15c-3.86 0-7-3.14-7-7s3.141-7 7-7 7 3.141 7 7-3.14 7-7 7Z"/><path d="M8.582 4.376a.7.7 0 0 0-.244-.325.6.6 0 0 0-.649 0 .7.7 0 0 0-.243.325L4.86 10.178q-.076.181-.058.324c.018.143.058.172.134.229q.114.086.305.086c.191 0 .229-.033.306-.1a.9.9 0 0 0 .21-.329l.545-1.279h3.407l.554 1.279q.095.219.219.324c.124.105.193.104.334.104a.47.47 0 0 0 .296-.081q.104-.08.124-.229c.02-.149-.01-.208-.066-.329L8.584 4.375ZM8 5.121h.019l1.353 3.187H6.656z"/></svg>