<!-- SPDX-FileCopyrightText: © 2025 Schneider Electric SPDX-License-Identifier: LicenseRef-Proprietary -->
<svg xmlns="http://www.w3.org/2000/svg" viewBox="0 0 16 16"><path d="M7.985 7.68a.5.5 0 0 0 .5-.5V4.712a.5.5 0 0 0-1 0V7.18a.5.5 0 0 0 .5.5Zm4.705-1.077a.5.5 0 0 0 .92-.392l-.987-2.318a.499.499 0 1 0-.92.392zm-2.584.501a.5.5 0 0 0 .981-.198l-.493-2.442a.5.5 0 0 0-.981.198zm4.977-1.368a.5.5 0 0 0 .693.141.5.5 0 0 0 .141-.693l-1.422-2.143a.5.5 0 0 0-.834.553l1.422 2.143Zm.881 4.037-.004-.011a.5.5 0 0 0-.449-.355l-2.514-1.093a.5.5 0 0 0-.398.917l1.641.713c-3.915 1.695-8.564 1.7-12.483.002l1.645-.715a.5.5 0 1 0-.399-.917L.479 9.412a.495.495 0 0 0-.434.341l-.001.004a.5.5 0 0 0-.006.389l1.105 2.725a.5.5 0 1 0 .926-.375l-.651-1.605c4.139 1.773 9.033 1.767 13.167-.005l-.652 1.61a.498.498 0 0 0 .463.687.5.5 0 0 0 .463-.312l1.105-2.725a.5.5 0 0 0 0-.373ZM.224 5.876a.5.5 0 0 0 .693-.141l1.422-2.143a.5.5 0 1 0-.833-.553L.083 5.184a.5.5 0 0 0 .14.693Zm5.08 1.62q.05.01.1.01a.5.5 0 0 0 .49-.401l.493-2.442a.5.5 0 1 0-.98-.198l-.493 2.442a.5.5 0 0 0 .391.589Zm-2.65-.629a.5.5 0 0 0 .656-.264l.987-2.318a.5.5 0 0 0-.92-.392L2.39 6.211a.5.5 0 0 0 .264.656Z"/></svg>