<!-- SPDX-FileCopyrightText: © 2025 Schneider Electric SPDX-License-Identifier: LicenseRef-Proprietary -->
<svg xmlns="http://www.w3.org/2000/svg" viewBox="0 0 16 16"><path d="M15.5 1.167a.5.5 0 0 0-.5.5v4.908L8.851 1.44a.5.5 0 0 0-.085-.058 1.19 1.19 0 0 0-1.175.021A1.23 1.23 0 0 0 7 2.473v3.091L1.902 1.335a.5.5 0 0 0-.084-.057C1.43 1.071.976 1.084.6 1.309s-.6.622-.6 1.06v4.13a.5.5 0 0 0 1 0V2.37a.23.23 0 0 1 .115-.203.23.23 0 0 1 .198-.021l5.868 4.869a.501.501 0 0 0 .815-.449L8 6.501V2.474c0-.135.073-.194.105-.213a.17.17 0 0 1 .154-.012l6.604 5.507c.102.061.117.153.117.204s-.016.144-.184.252l-6.539 5.521a.17.17 0 0 1-.153-.013c-.031-.019-.105-.078-.105-.213V9.498l-.005-.07a.499.499 0 0 0-.809-.458l-5.837 4.748a.22.22 0 0 1-.233-.006.23.23 0 0 1-.115-.203V9.5a.5.5 0 0 0-1 0v4.009c0 .438.224.834.6 1.06.377.227.83.237 1.298-.021l5.103-4.139v3.1c0 .448.221.849.591 1.07.356.215.797.222 1.174.021a.4.4 0 0 0 .088-.06l6.147-5.199v5.026a.5.5 0 0 0 1 0v-12.7a.5.5 0 0 0-.5-.5Z"/></svg>