<!-- SPDX-FileCopyrightText: © 2025 Schneider Electric SPDX-License-Identifier: LicenseRef-Proprietary -->
<svg xmlns="http://www.w3.org/2000/svg" viewBox="0 0 16 16"><path d="M14.472 5.495c-.782-.889-2.027-1.424-3.417-1.468-1.449-.045-2.802.455-3.719 1.374-1.568 1.569-1.578 4.027-.022 5.597a3.46 3.46 0 0 0 2.422 1.024h.006c.85 0 1.647-.33 2.247-.929.702-.703 1.1-1.776 1.014-2.733-.065-.73-.409-1.346-.969-1.735a2.06 2.06 0 0 0-1.63-.303c-1.12.25-1.654 1.035-1.781 1.685-.124.636.091 1.233.56 1.558a.5.5 0 1 0 .57-.822c-.136-.094-.194-.308-.148-.544.032-.165.201-.717 1.019-.9.295-.066.611-.011.84.148.4.278.517.699.543 1.003.06.665-.232 1.443-.726 1.937-.41.41-.957.636-1.54.636h-.004c-.63 0-1.256-.268-1.715-.729-1.182-1.192-1.174-2.992.02-4.186.724-.724 1.819-1.118 2.98-1.081 1.098.035 2.107.457 2.698 1.128a5.156 5.156 0 0 1-.22 7.035c-1.151 1.151-2.936 1.811-4.9 1.811h-.017c-2.036-.004-3.968-.729-5.17-1.941C.43 10.051.694 4.91 4 1.591V4.5a.5.5 0 0 0 1 0v-4a.51.51 0 0 0-.562-.496A.4.4 0 0 0 4.377 0H.504a.5.5 0 0 0 0 1h2.675c-3.585 3.71-3.81 9.401-.475 12.764C4.109 15.18 6.252 15.995 8.582 16h.019c2.228 0 4.27-.767 5.607-2.104a6.16 6.16 0 0 0 .264-8.402Z"/></svg>