<!-- SPDX-FileCopyrightText: © 2025 Schneider Electric SPDX-License-Identifier: LicenseRef-Proprietary -->
<svg xmlns="http://www.w3.org/2000/svg" viewBox="0 0 16 16"><path d="M14.153 5.4c-.337-.795-.817-1.509-1.431-2.123s-1.329-1.096-2.123-1.431a.5.5 0 1 0-.388.921 5.7 5.7 0 0 1 1.805 1.217 5.67 5.67 0 0 1 1.216 6.226 5.68 5.68 0 0 1-4.115 3.359l.597-.757a.5.5 0 1 0-.785-.619L7.61 13.866a.5.5 0 0 0-.087.162h0v.002q0 0 0 0a.5.5 0 0 0-.022.147v.021a.5.5 0 0 0 .177.362l.015.013 1.673 1.318a.5.5 0 0 0 .62-.785l-.7-.552a6.67 6.67 0 0 0 3.437-1.833 6.65 6.65 0 0 0 1.956-4.723c0-.903-.177-1.777-.525-2.6ZM5.79 13.231a5.6 5.6 0 0 1-1.805-1.216 5.65 5.65 0 0 1-1.663-4.016 5.66 5.66 0 0 1 1.663-4.015 5.64 5.64 0 0 1 2.898-1.553l-.597.757a.5.5 0 1 0 .785.619l1.318-1.672a.5.5 0 0 0 .083-.149v-.001h0v-.002h0a.5.5 0 0 0-.15-.542h0s0 0 0 0l-.017-.014L6.633.107a.5.5 0 1 0-.619.785l.701.552q-.676.132-1.314.402a6.7 6.7 0 0 0-2.123 1.431A6.65 6.65 0 0 0 1.322 8a6.64 6.64 0 0 0 1.956 4.723 6.7 6.7 0 0 0 2.123 1.431q.096.039.195.039a.5.5 0 0 0 .194-.961Z"/><path d="m7.544 10.768-.245-1.034.587-.94.737.956-.207.954a.5.5 0 1 0 .978.213l.155-.716.718.121a.5.5 0 0 0 .166-.986l-.995-.168-.752-.976 1.18-.347.849.563a.5.5 0 1 0 .552-.834l-.665-.44.3-.563a.5.5 0 1 0-.883-.469l-.414.778-1.223.359.059-1.08.771-.661a.501.501 0 0 0-.651-.759l-.604.518-.589-.515a.5.5 0 1 0-.659.753l.731.639-.062 1.123-1.062-.342-.352-.874a.5.5 0 0 0-.928.374l.289.718-.601.409a.5.5 0 0 0 .564.826l.731-.498 1.052.339-.606.97-.952.117a.5.5 0 0 0-.436.557.494.494 0 0 0 .557.436l.745-.091.189.802a.5.5 0 0 0 .602.371.5.5 0 0 0 .372-.602Z"/></svg>