<!-- SPDX-FileCopyrightText: © 2025 Schneider Electric SPDX-License-Identifier: LicenseRef-Proprietary -->
<svg xmlns="http://www.w3.org/2000/svg" viewBox="0 0 16 16"><path d="M2.603 8H7.5a.5.5 0 0 0 0-1H2.896l.855-.948a.5.5 0 1 0-.742-.67L1.259 7.32a.5.5 0 0 0-.003.667l1.75 1.975a.5.5 0 0 0 .707.043.5.5 0 0 0 .043-.705L2.605 8Z"/><path d="M12.938 0H7.062A2.064 2.064 0 0 0 5 2.062V5.5a.5.5 0 0 0 1 0V2.062C6 1.477 6.477 1 7.062 1h5.876C13.523 1 14 1.477 14 2.062v11.871c0 .589-.479 1.067-1.067 1.067H7.068a1.07 1.07 0 0 1-1.067-1.067V9.5a.5.5 0 0 0-1 0v4.433c0 1.14.927 2.067 2.067 2.067h5.865A2.07 2.07 0 0 0 15 13.933V2.062A2.064 2.064 0 0 0 12.938 0Z"/><path d="M12 2.5a.5.5 0 0 0-.5-.5h-3a.5.5 0 0 0 0 1h3a.5.5 0 0 0 .5-.5ZM9.5 13a.5.5 0 0 0 0 1h1a.5.5 0 0 0 0-1z"/></svg>