<!-- SPDX-FileCopyrightText: © 2025 Schneider Electric SPDX-License-Identifier: LicenseRef-Proprietary -->
<svg xmlns="http://www.w3.org/2000/svg" viewBox="0 0 16 16"><path d="M15.06 6.385 2.728.22A1.84 1.84 0 0 0 .902.266 1.84 1.84 0 0 0 0 1.86V5.5a.5.5 0 0 0 1 0V1.86c0-.305.156-.58.416-.736a.84.84 0 0 1 .853-.015l12.312 6.153c.264.156.42.433.42.738s-.156.582-.388.721L2.257 14.897a.83.83 0 0 1-.84-.021.85.85 0 0 1-.417-.737v-4.64a.5.5 0 0 0-1 0v4.64c0 .659.337 1.256.902 1.595.297.178.627.267.956.267.295 0 .59-.071.858-.215l12.376-6.188C15.66 9.26 16 8.662 16 8s-.34-1.26-.94-1.615Z"/></svg>