<!-- SPDX-FileCopyrightText: © 2025 Schneider Electric SPDX-License-Identifier: LicenseRef-Proprietary -->
<svg xmlns="http://www.w3.org/2000/svg" viewBox="0 0 16 16"><path d="M15.378 6.632c-.354-.289-.797-.399-1.146-.316H5.666l.734-.837c.056-.047.548-.482.583-1.137.015-.282-.054-.709-.467-1.139-.384-.401-.78-.595-1.224-.585a1.32 1.32 0 0 0-.9.397L1.018 6.083C.976 6.114 0 6.865 0 8.001s.976 1.885.982 1.888l3.366 3.052c.037.044.38.426.943.441h.037c.415 0 .814-.197 1.187-.586.403-.421.473-.842.461-1.121-.029-.656-.515-1.101-.539-1.12L4.92 8.976a.5.5 0 0 0-.722.693l1.544 1.604c.063.059.228.251.234.449.001.045.006.183-.184.382-.171.179-.337.277-.466.277h0c-.129 0-.226-.101-.262-.138L1.622 9.119c-.006-.005-.623-.488-.623-1.121s.616-1.117.655-1.149l3.445-3.133s.098-.101.227-.101h0c.129 0 .294.099.466.277.198.207.192.346.19.392-.008.192-.172.377-.282.48L4.185 6.483a.499.499 0 0 0 .375.83l9.769-.01a.47.47 0 0 1 .414.1c.16.131.256.355.256.599s-.096.465-.256.595q-.18.145-.413.097a.5.5 0 0 0-.104-.011H6.815a.5.5 0 0 0 0 1h7.363c.433.076.854-.033 1.194-.308.393-.318.627-.831.627-1.373s-.232-1.054-.622-1.373Z"/></svg>