<!-- SPDX-FileCopyrightText: © 2025 Schneider Electric SPDX-License-Identifier: LicenseRef-Proprietary -->
<svg xmlns="http://www.w3.org/2000/svg" viewBox="0 0 16 16"><path d="M15.535 7.941c-.808-.809-1.541-.536-1.846-.245l-1.245 1.389a.5.5 0 1 0 .744.668l1.216-1.359s.158-.013.424.253c.202.203.175.321.165.359a.5.5 0 0 1-.128.204l-2.345 2.694s-.364.454-.836.454-.833-.45-.854-.476L8.471 9.175c-.229-.229-.012-.447.07-.529.232-.233.396-.267.394-.285l1.227 1.368a.5.5 0 0 0 .39.188c.11-.031.238-.041.335-.128a.5.5 0 0 0 .165-.405c-.015-2.307-1.553-4.631-4.479-4.631-2.465 0-4.474 2.007-4.477 4.441l-.009.147a.534.534 0 0 1-.542.537c-.299 0-.542-.243-.546-.636 0-1.498.58-2.905 1.636-3.964a5.55 5.55 0 0 1 3.952-1.641c2.66 0 4.382 1.675 5.049 3.11.021.042.198.428.37.969a.499.499 0 1 0 .953-.303 10 10 0 0 0-.417-1.089c-.79-1.701-2.824-3.688-5.955-3.688-1.76 0-3.415.687-4.66 1.934C.684 5.822 0 7.481.004 9.339c0 .851.691 1.542 1.542 1.542s1.542-.689 1.541-1.503l.009-.146a3.485 3.485 0 0 1 3.478-3.477c1.608 0 2.627.86 3.122 1.96l-.045-.05c-.275-.259-1.009-.535-1.817.276-.394.395-.47.784-.464 1.041.012.536.375.885.38.885l2.308 2.648c.026.035.657.844 1.628.844s1.601-.809 1.607-.819l2.287-2.632c.042-.038.408-.388.42-.926.007-.257-.069-.646-.464-1.041Z"/></svg>