<!-- SPDX-FileCopyrightText: © 2025 Schneider Electric SPDX-License-Identifier: LicenseRef-Proprietary -->
<svg xmlns="http://www.w3.org/2000/svg" viewBox="0 0 16 16"><path d="M10.823 13.408a6.4 6.4 0 0 1-1.607.73.5.5 0 0 0-.338.62.5.5 0 0 0 .62.338 7.3 7.3 0 0 0 1.859-.843.5.5 0 0 0-.534-.845Zm-7.718-.649a6.5 6.5 0 0 1-.979-1.119.5.5 0 0 0-.824.566A7.3 7.3 0 0 0 2.434 13.5q.316.286.657.529a.5.5 0 1 0 .582-.812 7 7 0 0 1-.567-.458Zm4.362 1.664h-.003a7 7 0 0 1-1.204-.106 6.4 6.4 0 0 1-1.089-.301.5.5 0 0 0-.35.938c.408.152.831.269 1.259.348a7.5 7.5 0 0 0 1.342.122h.048a.5.5 0 0 0-.003-1Zm8.217-10.476a.5.5 0 0 0-.649.281l-.57 1.44a7.4 7.4 0 0 0-.861-1.768C11.345.489 6.732-.448 3.323 1.811A7.41 7.41 0 0 0 .058 7.077a7.4 7.4 0 0 0 .279 3.133.5.5 0 1 0 .954-.298 6.42 6.42 0 0 1 2.584-7.267 6.425 6.425 0 0 1 9.739 3.666l-1.787-.585a.5.5 0 0 0-.312.95l2.655.87a.5.5 0 0 0 .723-.245l1.071-2.706a.5.5 0 0 0-.281-.649Zm-2.315 7.374a.5.5 0 0 0-.689.156 6 6 0 0 1-.458.638.499.499 0 1 0 .775.632q.29-.353.531-.737a.5.5 0 0 0-.157-.689Z"/></svg>