<!-- SPDX-FileCopyrightText: © 2025 Schneider Electric SPDX-License-Identifier: LicenseRef-Proprietary -->
<svg xmlns="http://www.w3.org/2000/svg" viewBox="0 0 16 16"><path d="m15.017 6.111-3.364-3.052a1.35 1.35 0 0 0-.944-.442c-.43-.005-.839.185-1.224.585-.412.43-.481.857-.466 1.139.034.652.522 1.085.53 1.085l.783.889-8.465.009a1.47 1.47 0 0 0-1.245.306c-.39.319-.623.832-.623 1.373s.234 1.054.627 1.372c.34.275.763.383 1.194.308h7.363a.5.5 0 0 0 0-1h-7.41a.5.5 0 0 0-.104.011.47.47 0 0 1-.413-.096C1.095 8.468 1 8.245 1 8.003c0-.244.096-.468.256-.599.118-.099.258-.132.512-.09h9.67a.5.5 0 0 0 .375-.831l-1.562-1.767c-.062-.055-.227-.241-.234-.433-.002-.045-.008-.185.19-.391.171-.179.337-.277.466-.277.13 0 .227.101.264.138l3.442 3.125c.007.005.621.487.621 1.121s-.616 1.115-.655 1.147l-3.444 3.133s-.098.102-.228.102c-.129 0-.295-.099-.466-.277-.19-.199-.186-.337-.185-.382.007-.198.172-.391.262-.475l1.517-1.579a.5.5 0 1 0-.721-.693l-1.486 1.55c-.055.049-.541.493-.57 1.149-.012.279.059.7.461 1.121q.561.585 1.187.586h.037a1.32 1.32 0 0 0 .9-.396l3.373-3.067c.042-.031 1.019-.781 1.019-1.917s-.977-1.887-.983-1.89Z"/></svg>