<!-- SPDX-FileCopyrightText: © 2025 Schneider Electric SPDX-License-Identifier: LicenseRef-Proprietary -->
<svg xmlns="http://www.w3.org/2000/svg" viewBox="0 0 16 16"><path d="m15.412 6.77-2.885-2.368a.5.5 0 0 0-.635.773l2.861 2.348H8.499V5.456a.5.5 0 0 0-1 0v2.067H1.395l2.83-2.401a.5.5 0 1 0-.647-.763L.569 6.913c-.346.295-.545.71-.544 1.139 0 .43.2.845.546 1.138l2.896 2.45a.5.5 0 0 0 .704-.059.5.5 0 0 0-.059-.705L1.33 8.523h6.168v2.019a.5.5 0 0 0 1 0V8.523h5.992l-2.717 2.306a.5.5 0 1 0 .646.762l3.01-2.554c.348-.295.545-.71.541-1.139a1.48 1.48 0 0 0-.56-1.129Z"/></svg>