<!-- SPDX-FileCopyrightText: © 2025 Schneider Electric SPDX-License-Identifier: LicenseRef-Proprietary -->
<svg xmlns="http://www.w3.org/2000/svg" viewBox="0 0 16 16"><path d="M8.224 4.324a.5.5 0 0 0-.381-.176h-.004a.5.5 0 0 0-.383.183L4.15 8.36a.5.5 0 0 0 .773.635l2.431-2.963v7.969a.5.5 0 0 0 1 0V6.024l2.628 3.096a.5.5 0 1 0 .762-.646L8.223 4.325ZM5 2.5a.5.5 0 0 0-.5-.5h-3a.5.5 0 0 0 0 1h3a.5.5 0 0 0 .5-.5Zm1.5.5h3a.5.5 0 0 0 0-1h-3a.5.5 0 0 0 0 1Zm8-1h-3a.5.5 0 0 0 0 1h3a.5.5 0 0 0 0-1Z"/></svg>