<!-- SPDX-FileCopyrightText: © 2025 Schneider Electric SPDX-License-Identifier: LicenseRef-Proprietary -->
<svg xmlns="http://www.w3.org/2000/svg" viewBox="0 0 16 16"><path d="M15.82 7.617 13.1 5.351a.5.5 0 0 0-.641.768l1.659 1.382H8.499V1.883l1.243 1.491a.5.5 0 0 0 .767-.641L8.383.18a.52.52 0 0 0-.769 0L5.348 2.899a.5.5 0 1 0 .768.64l1.383-1.66v5.623H1.881L3.54 6.12a.5.5 0 0 0-.641-.769L.18 7.617a.5.5 0 0 0 0 .768l2.554 2.128a.5.5 0 1 0 .641-.767L1.881 8.501h5.62v5.62L6.118 12.46a.5.5 0 0 0-.768.641l2.266 2.72a.497.497 0 0 0 .768 0l2.128-2.554a.5.5 0 0 0-.767-.641l-1.243 1.491V8.501h5.619l-1.493 1.245a.5.5 0 1 0 .641.767l2.554-2.128a.5.5 0 0 0 0-.768Z"/></svg>