<!-- SPDX-FileCopyrightText: © 2025 Schneider Electric SPDX-License-Identifier: LicenseRef-Proprietary -->
<svg xmlns="http://www.w3.org/2000/svg" viewBox="0 0 16 16"><path d="M.541 8.085a.5.5 0 0 0 .5-.5A6.59 6.59 0 0 1 7.626 1c2.762 0 4.789 1.135 6.037 3.376l-2.306-.658a.5.5 0 0 0-.274.962l3.044.866a.82.82 0 0 0 .667-.006.85.85 0 0 0 .437-.531l.717-3.204a.5.5 0 1 0-.977-.219l-.49 2.2C13.048 1.273 10.747 0 7.627 0 3.444 0 .041 3.403.041 7.585a.5.5 0 0 0 .5.5Zm14.918-.17a.5.5 0 0 0-.5.5A6.59 6.59 0 0 1 8.374 15c-3.518 0-5.242-1.888-6.055-3.381l2.323.662a.495.495 0 0 0 .618-.344.5.5 0 0 0-.344-.617l-3.044-.866a.82.82 0 0 0-.666.007c-.199.094-.354.271-.437.531l-.716 3.204a.5.5 0 1 0 .976.219l.486-2.182C2.477 13.931 4.454 16 8.374 16c4.183 0 7.585-3.402 7.585-7.585a.5.5 0 0 0-.5-.5Z"/></svg>