<!-- SPDX-FileCopyrightText: © 2025 Schneider Electric SPDX-License-Identifier: LicenseRef-Proprietary -->
<svg xmlns="http://www.w3.org/2000/svg" viewBox="0 0 16 16"><path d="M8.789 7.059a.5.5 0 0 0-.018-.707L4.73 2.507a.5.5 0 0 0-.696.006L.149 6.344a.5.5 0 1 0 .702.712L4 3.951V13.5a.5.5 0 0 0 1 0V4.144l3.082 2.932a.5.5 0 0 0 .707-.018Z"/><path d="M15.856 8.949a.5.5 0 0 0-.708-.005L12 12.049V2.5a.5.5 0 0 0-1 0v9.356L7.918 8.923a.5.5 0 1 0-.689.725l4.041 3.846a.5.5 0 0 0 .697-.006l3.886-3.832a.5.5 0 0 0 .005-.708Z"/></svg>