<!-- SPDX-FileCopyrightText: © 2025 Schneider Electric SPDX-License-Identifier: LicenseRef-Proprietary -->
<svg xmlns="http://www.w3.org/2000/svg" viewBox="0 0 16 16"><path d="M3.209 5.867a.515.515 0 0 0 .707-.749l-1.17-1.103h10.429l-1.13 1.131a.515.515 0 0 0 .728.728l1.978-1.979a.514.514 0 0 0 .005-.722l-1.978-2.038a.514.514 0 1 0-.739.717l1.1 1.133H2.875l1.066-1.161a.516.516 0 0 0-.759-.697L1.204 3.28a.515.515 0 0 0 .026.723zm12.652 5.971a.516.516 0 0 0-.729.006l-2.333 2.37a.516.516 0 0 0 .734.723l2.333-2.37a.516.516 0 0 0-.006-.729Zm.115-3.535a.52.52 0 0 0-.476-.318H.5a.516.516 0 0 0 0 1.03h1.354L.211 10.568a.515.515 0 0 0 .707.749l2.435-2.301h2.421L.461 14.207a.515.515 0 1 0 .72.737l6.067-5.929h2.658l-5.313 5.192a.515.515 0 1 0 .72.737l6.067-5.929h2.877l-5.453 5.453a.516.516 0 0 0 .728.729l6.332-6.332a.52.52 0 0 0 .111-.562Z"/></svg>