<!-- SPDX-FileCopyrightText: © 2025 Schneider Electric SPDX-License-Identifier: LicenseRef-Proprietary -->
<svg xmlns="http://www.w3.org/2000/svg" viewBox="0 0 16 16"><path d="M15.451 6.943 8.854 1.432a.5.5 0 0 0-.086-.058 1.19 1.19 0 0 0-1.177.021C7.221 1.617 7 2.018 7 2.467v3.088L1.904 1.327a1 1 0 0 0-.084-.057 1.23 1.23 0 0 0-1.219.031A1.23 1.23 0 0 0 0 2.363V6.5a.501.501 0 0 0 1 0V2.363a.23.23 0 0 1 .115-.203.23.23 0 0 1 .198-.021l5.875 4.875a.499.499 0 0 0 .81-.483V2.467c0-.135.073-.194.105-.213a.17.17 0 0 1 .154-.012l6.614 5.516c.101.06.115.152.115.203 0 .041-.011.142-.184.252l-6.546 5.528a.17.17 0 0 1-.154-.013c-.032-.019-.105-.078-.105-.213V9.499l-.002-.038a.5.5 0 0 0-.806-.489l-5.84 4.753a.23.23 0 0 1-.234-.006.23.23 0 0 1-.115-.203V9.5a.501.501 0 0 0-1 0v4.016c0 .438.224.835.6 1.061.375.227.831.239 1.3-.021L7 10.419v3.097c0 .448.221.849.59 1.071a1.18 1.18 0 0 0 1.177.022.5.5 0 0 0 .089-.06l6.53-5.523c.38-.226.606-.624.605-1.066 0-.441-.227-.839-.54-1.017Z"/></svg>