<!-- SPDX-FileCopyrightText: © 2025 Schneider Electric SPDX-License-Identifier: LicenseRef-Proprietary -->
<svg xmlns="http://www.w3.org/2000/svg" viewBox="0 0 16 16"><path d="M3.687 6.097q-.107-.28-.176-.449a1.7 1.7 0 0 0-.17-.314.8.8 0 0 0-.265-.239.8.8 0 0 0-.409-.093.8.8 0 0 0-.405.093.8.8 0 0 0-.265.243 2 2 0 0 0-.19.378l-.152.39L.17 9.871q-.091.226-.13.352a.8.8 0 0 0-.04.245q0 .206.17.368a.55.55 0 0 0 .392.162q.26 0 .376-.152t.277-.587l.277-.744h2.357l.277.728q.056.135.132.31.077.176.144.261.067.084.166.134a.5.5 0 0 0 .237.049.55.55 0 0 0 .405-.168.5.5 0 0 0 .168-.37q0-.194-.178-.621L3.685 6.096ZM1.8 8.633l.858-2.393.874 2.393zm8.339-3.556a.55.55 0 0 0-.279-.075.5.5 0 0 0-.325.097.6.6 0 0 0-.17.218 7 7 0 0 0-.154.429L7.894 9.662 6.581 5.774q-.13-.404-.255-.588t-.425-.184a.54.54 0 0 0-.407.166.52.52 0 0 0-.162.368q0 .079.026.194t.063.214.073.202l1.38 3.758q.075.217.15.411t.176.346a.75.75 0 0 0 .666.338.8.8 0 0 0 .401-.095.8.8 0 0 0 .263-.243q.099-.149.174-.344t.15-.413l1.404-3.789.071-.2q.035-.096.06-.198a.8.8 0 0 0 .023-.188.55.55 0 0 0-.275-.451Zm5.737 5.045a5 5 0 0 0-.348-.66 5 5 0 0 0-.508-.69 2.1 2.1 0 0 0-.597-.49q.744-.162 1.109-.55t.366-1.036q0-.317-.109-.599a1.46 1.46 0 0 0-.8-.824 1.7 1.7 0 0 0-.506-.137 6 6 0 0 0-.676-.033h-1.91q-.38 0-.55.17t-.17.55v4.461q0 .352.154.534a.54.54 0 0 0 .435.182.55.55 0 0 0 .423-.174q.162-.174.162-.542V8.421h.411q.312 0 .518.083t.405.309q.2.225.453.656l.471.783q.166.276.263.419a.9.9 0 0 0 .231.235q.134.093.332.093a.64.64 0 0 0 .293-.065.5.5 0 0 0 .2-.178.4.4 0 0 0 .073-.227q0-.111-.124-.405Zm-1.762-2.619q-.29.073-.712.073H12.35V5.982h1.083q.605 0 .811.087a.74.74 0 0 1 .34.275.75.75 0 0 1 .123.425q0 .309-.152.485a.84.84 0 0 1-.441.249Z"/></svg>