<!-- SPDX-FileCopyrightText: © 2025 Schneider Electric SPDX-License-Identifier: LicenseRef-Proprietary -->
<svg xmlns="http://www.w3.org/2000/svg" viewBox="0 0 16 16"><path d="M15.5 6h-5a.5.5 0 0 0-.5.5V8H6V6.5a.5.5 0 0 0-.5-.5H1V5h14.5a.5.5 0 0 0 0-1H11v-.5C11 2.051 10.196 1 9.089 1H6.677c-1.232 0-1.64 1.118-1.774 1.485a.5.5 0 0 0 .939.343C6.108 2.1 6.4 2 6.676 2h2.412c.599 0 .911.754.911 1.5V4H.5a.5.5 0 0 0-.5.5v2a.5.5 0 0 0 .5.5H5v1.5a.5.5 0 0 0 .5.5h5a.5.5 0 0 0 .5-.5V7h4v7H1V8.5a.5.5 0 0 0-1 0v6a.5.5 0 0 0 .5.5h15a.5.5 0 0 0 .5-.5V6.6q0-.026-.003-.05L16 6.5a.5.5 0 0 0-.5-.5Z"/></svg>