<!-- SPDX-FileCopyrightText: © 2025 Schneider Electric SPDX-License-Identifier: LicenseRef-Proprietary -->
<svg xmlns="http://www.w3.org/2000/svg" viewBox="0 0 16 16"><path d="M7.5 14a.5.5 0 0 0 .5-.5V8.492C8 8.129 8.266 8 8.507 8c.227 0 .493.129.493.492V13.5a.5.5 0 0 0 1 0V8.492C10 7.641 9.358 7 8.493 7A1.46 1.46 0 0 0 7 8.492V13.5a.5.5 0 0 0 .5.5Zm5 0a.5.5 0 0 0 .5-.5v-3.008c0-.363.266-.492.508-.492.227 0 .492.129.492.492V13.5a.5.5 0 0 0 1 0v-3.008C15 9.641 14.358 9 13.492 9A1.46 1.46 0 0 0 12 10.492V13.5a.5.5 0 0 0 .5.5Zm-10 0a.5.5 0 0 0 .5-.5V5.492C3 5.129 3.266 5 3.507 5c.227 0 .493.129.493.492V13.5a.5.5 0 0 0 1 0V5.492C5 4.641 4.358 4 3.493 4A1.46 1.46 0 0 0 2 5.492V13.5a.5.5 0 0 0 .5.5Z"/><path d="M15.5 15H1V.5a.5.5 0 0 0-1 0v15a.5.5 0 0 0 .5.5h15a.5.5 0 0 0 0-1Z"/></svg>