<!-- SPDX-FileCopyrightText: © 2025 Schneider Electric SPDX-License-Identifier: LicenseRef-Proprietary -->
<svg xmlns="http://www.w3.org/2000/svg" viewBox="0 0 16 16"><path d="M12.5 14a.5.5 0 0 0 .5-.5v-1.1c0-.674-.57-1.4-1.508-1.4-.893 0-1.492.724-1.492 1.4v1.1a.5.5 0 0 0 1 0v-1.1c0-.14.169-.4.508-.4.348 0 .492.261.492.4v1.1a.5.5 0 0 0 .5.5Zm1-10h.5v.5a.5.5 0 0 0 1 0V4h.5a.5.5 0 0 0 0-1H15v-.5a.5.5 0 0 0-1 0V3h-.5a.5.5 0 0 0 0 1Zm-2.96 5.66c1.068 0 2.222-.854 2.222-2.233 0-.841-.262-1.455-.766-1.8l-.058-4.388c0-.718-.618-1.24-1.468-1.24S9 .521 9 1.24v1.261a.5.5 0 0 0 1 0V1.24c0-.196.348-.241.47-.241.121 0 .469.044.469.247l.062 4.683c0 .073.018.146.05.211a.6.6 0 0 0 .285.259c.283.122.427.469.427 1.028 0 .842-.729 1.233-1.222 1.233-.677 0-1.396-.433-1.396-1.233 0-.835.408-1.018.479-1.043a.5.5 0 0 0 .375-.484v-.899h.179a.5.5 0 0 0 0-1H9.5a.5.5 0 0 0-.5.5v1.091c-.392.249-.855.783-.855 1.836 0 1.45 1.234 2.233 2.396 2.233ZM5.5 4h2a.5.5 0 0 0 0-1h-2a.5.5 0 0 0 0 1Z"/><path d="M15.5 15H1V.5a.5.5 0 0 0-1 0v15a.5.5 0 0 0 .5.5h15a.5.5 0 0 0 0-1Z"/><path d="M2.5 14a.5.5 0 0 0 .5-.5V8.331c0-.442 1-.469 1 0V13.5a.5.5 0 0 0 1 0V8.331C5 7.572 4.358 7 3.493 7 2.642 7 2 7.572 2 8.331V13.5a.5.5 0 0 0 .5.5Zm6 0a.5.5 0 0 0 .5-.5v-2.025C9 10.743 8.487 10 7.493 10 6.468 10 6 10.765 6 11.475V13.5a.5.5 0 0 0 1 0v-2.025c0-.217.085-.475.507-.475.445 0 .493.332.493.475V13.5a.5.5 0 0 0 .5.5Z"/></svg>