<!-- SPDX-FileCopyrightText: © 2025 Schneider Electric SPDX-License-Identifier: LicenseRef-Proprietary -->
<svg xmlns="http://www.w3.org/2000/svg" viewBox="0 0 16 16"><path d="M7.421 6.616a.532.532 0 1 0 0-1.063.533.533 0 1 0 0 1.063Zm0 2.212a.532.532 0 1 0 0-1.063.532.532 0 1 0 0 1.063Zm-3.332-.309a.54.54 0 0 0 .731-.194.534.534 0 0 0-.925-.532.53.53 0 0 0 .193.726Zm5.934-.195c.15.253.474.34.73.194a.53.53 0 1 0-.533-.92.53.53 0 0 0-.197.726Zm-5.002-1.78c.255.146.58.06.729-.194a.533.533 0 1 0-.729.194Zm4.269-.92a.533.533 0 0 0-.199.726c.149.254.475.34.731.194a.53.53 0 1 0-.532-.92Z"/><path d="M15.79 10.375a.49.49 0 0 0-.475-.366h-1.324V3.971c0-.93-.263-1.788-.759-2.481C12.323.221 11.046-.266 9.716.161 8.14.666 6.8 2.399 6.705 4.01H5.499a.491.491 0 0 0 0 .982h4a.491.491 0 0 0 0-.982h-1.81c.098-1.205 1.143-2.534 2.327-2.914.917-.295 1.754.039 2.417.965.371.519.575 1.197.575 1.91v6.038H.607a.49.49 0 0 0-.484.41c-.026.156-.623 3.854 1.195 5.45a.492.492 0 0 0 .648-.738c-1.023-.898-1.041-3.014-.927-4.14h13.884c.379 2.091-.603 4.282-.612 4.305a.49.49 0 0 0 .892.408c.052-.112 1.257-2.792.588-5.329Z"/></svg>