<!-- SPDX-FileCopyrightText: © 2025 Schneider Electric SPDX-License-Identifier: LicenseRef-Proprietary -->
<svg xmlns="http://www.w3.org/2000/svg" viewBox="0 0 16 16"><path d="M10.004.897V.5A.505.505 0 0 0 9.5-.005h-3A.505.505 0 0 0 5.996.5v.397c-1.991.184-3 .686-3 1.493v10.844c0 .771.406 1.437 1.173 1.927.869.555 2.178.841 3.491.841 1.07 0 2.143-.189 2.983-.579a.505.505 0 0 0-.425-.916c-1.575.732-4.2.637-5.506-.196-.469-.3-.707-.662-.707-1.076L3.991 2.451c.068-.103.622-.426 2.249-.562l.328-.044a.505.505 0 0 0 .438-.5v-.34h1.991v.358c0 .264.204.483.467.503l.159.012c1.038.074 1.666.227 2.014.348l-.021.064c-.271.203-1.56.555-3.656.555-.619 0-1.213-.03-1.766-.091a.505.505 0 0 0-.111 1.002c.589.065 1.22.099 1.876.099.808 0 2.97-.058 4.037-.631V13.5c0 .278.226.505.504.505s.504-.227.504-.505V2.391c0-.811-1.009-1.312-3-1.493Z"/></svg>