<!-- SPDX-FileCopyrightText: © 2025 Schneider Electric SPDX-License-Identifier: LicenseRef-Proprietary -->
<svg xmlns="http://www.w3.org/2000/svg" viewBox="0 0 16 16"><path d="m6.433 12.344 3.988-6.963a.545.545 0 0 0-.943-.54L5.49 11.803a.543.543 0 0 0 .944.541ZM8.957 10.5c0 1.402.916 2.543 2.043 2.543s2.043-1.141 2.043-2.543S12.127 7.957 11 7.957 8.957 9.098 8.957 10.5ZM11 9.043c.519 0 .957.667.957 1.457s-.438 1.457-.957 1.457-.957-.667-.957-1.457.438-1.457.957-1.457ZM7.043 6.5c0-1.402-.916-2.543-2.043-2.543S2.957 5.098 2.957 6.5 3.874 9.043 5 9.043 7.043 7.902 7.043 6.5ZM5 7.957c-.519 0-.957-.667-.957-1.457S4.481 5.043 5 5.043s.957.667.957 1.457S5.519 7.957 5 7.957Z"/><path d="M14.7 1.957h-.914c-.175-.608-.629-1-1.216-1h-1.28c-.504 0-1.042.273-1.228 1h-3.92c-.182-.812-.75-1-1.235-1H3.599c-.249 0-.982.082-1.203 1h-.965c-.868 0-1.474.627-1.474 1.525v10.037c0 .841.604 1.524 1.345 1.524h2.199a.543.543 0 1 0 0-1.086h-2.2c-.105 0-.258-.171-.258-.438V3.482c0-.438.292-.438.388-.438h1.446a.543.543 0 0 0 .543-.534c.008-.466.127-.466.178-.466h1.308c.103 0 .135.021.135.021.007.006.066.071.072.446a.544.544 0 0 0 .543.534h4.881a.544.544 0 0 0 .543-.534c.009-.466.153-.466.208-.466h1.28c.135 0 .203.279.207.467a.543.543 0 0 0 .543.533h1.38c.12 0 .257 0 .257.377v10.104c0 .264-.15.433-.254.433H6.5a.543.543 0 1 0 0 1.086h8.203c.739 0 1.34-.681 1.34-1.519V3.42c0-.889-.526-1.464-1.343-1.464Z"/></svg>