<!-- SPDX-FileCopyrightText: © 2025 Schneider Electric SPDX-License-Identifier: LicenseRef-Proprietary -->
<svg xmlns="http://www.w3.org/2000/svg" viewBox="0 0 16 16"><path d="M13 .902V.5a.5.5 0 0 0-.5-.5h-3a.5.5 0 0 0-.5.5v.401c-1.991.181-3 .681-3 1.489V13.5q0 .032.004.064c-.16 1.073-1.027 1.073-1.332 1.073-.565 0-.965-.128-1.221-.391-.513-.524-.487-1.605-.462-2.65q.01-.34.011-.663V9.499q0-.029-.003-.056L3 9.386a.5.5 0 0 0-.5-.5c-1.059 0-1.499-1.046-1.499-1.607v-1.28H4v1.5a.5.5 0 0 0 1 0V5.788c0-.687-.455-.789-.726-.789H4v-1.5a.5.5 0 0 0-1 0v1.5H2v-1.5a.5.5 0 0 0-1 0v1.5H.812c-.463 0-.812.329-.812.765V7.28c.001.942.64 2.29 2 2.559v1.094q-.001.312-.01.639c-.029 1.194-.061 2.548.746 3.374.448.459 1.1.691 1.937.691 1.476 0 2.357-.913 2.357-2.443a.5.5 0 0 0-.03-.172v-.204c2.833 1.318 5.151.976 6.641.42a.5.5 0 0 0-.35-.938c-1.377.516-3.573.817-6.293-.599v-1.174c.805.384 1.771.643 2.838.756q.67.072 1.292.057a8.6 8.6 0 0 0 2.446-.41.5.5 0 0 0-.3-.954 7.7 7.7 0 0 1-2.17.364 8.4 8.4 0 0 1-1.162-.051c-1.163-.124-2.176-.433-2.947-.896V8.242c.915.428 2.09.596 2.816.661.46.042.876.06 1.275.052a9.7 9.7 0 0 0 2.422-.332.5.5 0 1 0-.253-.967 8.6 8.6 0 0 1-2.186.3A11 11 0 0 1 9.9 7.908c-1.327-.119-2.373-.414-2.908-.817l-.006-4.643c.072-.11.665-.45 2.395-.573l.158-.012A.5.5 0 0 0 10 1.364v-.363h2v.344c0 .25.185.462.433.496l.354.047c1.606.134 2.16.458 2.214.503v10.844c0 .416-.239.779-.709 1.08-1.307.835-3.933.927-5.51.197a.5.5 0 1 0-.421.906c.84.39 1.912.58 2.981.58 1.312 0 2.62-.286 3.489-.841.766-.489 1.171-1.154 1.171-1.923V2.39c0-.809-1.018-1.31-3-1.488Z"/></svg>