<!-- SPDX-FileCopyrightText: © 2025 Schneider Electric SPDX-License-Identifier: LicenseRef-Proprietary -->
<svg xmlns="http://www.w3.org/2000/svg" viewBox="0 0 16 16"><path d="M15.995 8.908C15.797 7.554 14.542 7.07 13.854 7H7.5a.5.5 0 0 0-.5.5v2a.5.5 0 0 0 1 0V8l5.799-.002c.044.005 1.072.137 1.201.983v4.02h-1v-1.5a.5.5 0 0 0-.5-.5h-11a.5.5 0 0 0-.5.5v1.5H1V3h1v4.5a.5.5 0 0 0 .5.5h3.047a.5.5 0 0 0 .5-.486c.003-.134.016-1.333-.721-2.09-.368-.378-.866-.579-1.442-.579a.5.5 0 0 0 0 1c.307 0 .543.089.723.273.224.229.339.581.395.881H3V2.5a.5.5 0 0 0-.5-.5h-2a.5.5 0 0 0-.5.5v11a.5.5 0 0 0 .5.5h2a.5.5 0 0 0 .5-.5V12h10v1.5a.5.5 0 0 0 .5.5h2a.5.5 0 0 0 .5-.5z"/></svg>