<!-- SPDX-FileCopyrightText: © 2025 Schneider Electric SPDX-License-Identifier: LicenseRef-Proprietary -->
<svg xmlns="http://www.w3.org/2000/svg" viewBox="0 0 16 16"><path d="M2.311 5.27a.5.5 0 0 0 .985-.168c-.238-1.393.985-1.941 1.126-2a.5.5 0 0 0-.374-.928c-.734.293-2.042 1.318-1.738 3.096ZM3.592.97a.501.501 0 0 0-.339-.941C3.215.042-.461 1.41.049 5.564a.5.5 0 0 0 .496.439q.03.001.062-.004a.5.5 0 0 0 .435-.557C.63 2.094 3.471 1.015 3.592.97Zm7.986 2.131c.14.058 1.364.606 1.126 2a.5.5 0 1 0 .985.168c.304-1.778-1.004-2.803-1.738-3.096a.501.501 0 0 0-.373.928ZM12.747.029a.5.5 0 0 0-.339.941c.121.044 2.962 1.124 2.551 4.472a.5.5 0 1 0 .993.122C16.461 1.41 12.785.042 12.747.029Zm.806 13.13c-.442-.544-.724-2.248-.891-3.267l-.089-.532c-.292-1.66-.65-2.631-.823-3.098l-.046-.125c-.401-1.121-1.244-2.016-2.284-2.443a1.515 1.515 0 0 0-2.82 0c-1.038.426-1.88 1.322-2.284 2.442l-.047.13c-.172.467-.53 1.438-.821 3.095l-.088.527c-.168 1.02-.449 2.726-.892 3.271a5.5 5.5 0 0 1-1.002.929.501.501 0 0 0 .283.913h2.819c.379.617 1.059 1 1.815 1a2.11 2.11 0 0 0 1.973-1.313.5.5 0 1 0-.927-.373c-.168.417-.578.687-1.045.687s-.877-.27-1.045-.687a.5.5 0 0 0-.464-.313h-1.81a5 5 0 0 0 .18-.21c.565-.694.834-2.104 1.103-3.739l.087-.517c.275-1.568.6-2.449.774-2.922l.05-.137c.332-.922 1.045-1.642 1.907-1.924a.5.5 0 0 0 .337-.388c.044-.25.258-.43.508-.43s.464.181.508.431a.5.5 0 0 0 .337.388c.864.283 1.577 1.001 1.907 1.924l.049.133c.175.473.5 1.353.775 2.925l.088.521c.269 1.634.538 3.042 1.102 3.734q.089.11.182.211h-2.458a.5.5 0 0 0 0 1h3.812a.5.5 0 0 0 .479-.359.5.5 0 0 0-.209-.562c-.006-.004-.6-.39-1.03-.92Z"/></svg>