<!-- SPDX-FileCopyrightText: © 2025 Schneider Electric SPDX-License-Identifier: LicenseRef-Proprietary -->
<svg xmlns="http://www.w3.org/2000/svg" viewBox="0 0 16 16"><path d="M15.92 14.014s-.482-.602-1.086-1.341c-.562-.686-.896-2.703-1.118-4.038l-.109-.647c-.356-2.014-.795-3.193-1.005-3.759l-.058-.157c-.489-1.354-1.52-2.433-2.788-2.934-.247-.68-.897-1.147-1.642-1.147S6.719.458 6.471 1.137c-1.267.5-2.297 1.579-2.788 2.933l-.058.157c-.21.566-.648 1.745-1.004 3.759l-.109.646c-.221 1.336-.556 3.354-1.119 4.041a14 14 0 0 1-1.204 1.285.5.5 0 0 0 .34.867H3.87c.438.708 1.297 1.165 2.244 1.165 1.039 0 1.852-.538 2.233-1.478a.5.5 0 0 0-.927-.375c-.226.558-.677.853-1.305.853-.676 0-1.269-.343-1.476-.853a.5.5 0 0 0-.463-.312H1.719c.145-.16.297-.335.448-.519.732-.894 1.064-2.899 1.332-4.511l.107-.636c.341-1.925.742-3.004.958-3.584l.061-.166c.419-1.157 1.321-2.06 2.415-2.415a.5.5 0 0 0 .338-.388.748.748 0 0 1 1.473-.001.5.5 0 0 0 .338.389c1.095.355 1.997 1.258 2.415 2.416l.061.165c.216.58.617 1.66.958 3.584l.107.638c.267 1.61.6 3.615 1.33 4.508l.424.52H10.53a.5.5 0 0 0 0 1h5a.498.498 0 0 0 .39-.812Z"/></svg>