<!-- SPDX-FileCopyrightText: © 2025 Schneider Electric SPDX-License-Identifier: LicenseRef-Proprietary -->
<svg xmlns="http://www.w3.org/2000/svg" viewBox="0 0 16 16"><path d="m15.76 9.738-1.482-4.314-.118-.267a.499.499 0 1 0-.914.404l.917 2.602q-.782-.306-1.852-.285a.5.5 0 0 0-.489.511.48.48 0 0 0 .511.489c.898-.022 1.574.163 2.017.542q.327.281.491.721l.016.047.008.022q.123.369.133.84a2.58 2.58 0 0 1-.752 1.88 2.75 2.75 0 0 1-1.914.821c-1.684.081-2.299-1.372-2.327-2.59a.5.5 0 0 0-.014-.108l.007-2.841 1.419-1.047a.5.5 0 0 0 .19-.514l-.389-1.702a.5.5 0 0 0-.157-.264 4.4 4.4 0 0 0-1.041-.634l.142-1.033c.005-.049.065-.489.659-.716.75-.289 1.161.333 1.221.434l.46.921a.5.5 0 0 0 .895-.447l-.472-.943c-.295-.522-1.19-1.383-2.46-.899-.977.373-1.277 1.171-1.296 1.543l-.114.819a6.4 6.4 0 0 0-1.071-.115 5.4 5.4 0 0 0-1.046.111l-.107-.763c-.023-.413-.323-1.211-1.3-1.584-1.268-.484-2.165.376-2.472.921l-.46.921a.5.5 0 1 0 .895.447l.446-.895c.075-.127.487-.746 1.235-.46.593.227.654.667.662.747l.131.948c-.74.28-1.217.612-1.251.636-.1.07-.17.174-.199.292l-.366 1.528a.5.5 0 0 0 .188.518l1.659 1.236.006 2.841a.5.5 0 0 0-.013.103c-.027 1.218-.634 2.668-2.326 2.59a2.76 2.76 0 0 1-1.915-.821 2.58 2.58 0 0 1-.752-1.881q.009-.444.12-.798l.021-.053.044-.131a1.7 1.7 0 0 1 .462-.647c.443-.38 1.119-.561 2.017-.542.322.008.505-.213.511-.489a.5.5 0 0 0-.489-.511c-.708-.008-1.33.079-1.849.283l.795-2.322.118-.267a.499.499 0 1 0-.914-.404L.264 9.678A3.7 3.7 0 0 0 0 11.027c-.022.976.347 1.9 1.038 2.604a3.74 3.74 0 0 0 2.606 1.121h.081c1.845 0 3.169-1.401 3.263-3.449a.5.5 0 0 0 .018-.132l-.007-3.189v-.006a.5.5 0 0 0-.201-.41L5.203 6.377l.242-1.01c.371-.221 1.375-.747 2.545-.752a3.9 3.9 0 0 1 2.294.731l.276 1.208-1.258.928a.5.5 0 0 0-.268.276.5.5 0 0 0-.036.308l-.008 3.105q0 .072.019.139c.098 2.073 1.447 3.444 3.344 3.441a3.74 3.74 0 0 0 2.606-1.121 3.57 3.57 0 0 0 1.038-2.603 3.8 3.8 0 0 0-.239-1.29Z"/></svg>