<!-- SPDX-FileCopyrightText: © 2025 Schneider Electric SPDX-License-Identifier: LicenseRef-Proprietary -->
<svg xmlns="http://www.w3.org/2000/svg" viewBox="0 0 16 16"><path d="M15.549 4.38A1.86 1.86 0 0 0 16 3.166c0-.889-.614-1.463-.978-1.661a.5.5 0 0 0-.679.199.5.5 0 0 0 .198.678c.005.003.458.265.458.784 0 .45-.339.697-.427.754a.499.499 0 0 0-.031.893c.005.003.458.265.458.784 0 .474-.375.723-.442.764a.502.502 0 0 0-.02.881c.019.011.463.273.463.787 0 .473-.374.722-.441.763a.502.502 0 0 0-.021.881c.019.011.463.274.463.789 0 .473-.375.722-.442.762a.502.502 0 0 0-.02.881c.02.012.463.273.463.788 0 .15-.038.278-.092.384l-.039.059c-.012.02-.274.464-.788.464-.495 0-.745-.411-.769-.451a.5.5 0 0 0-.06-.088v-.002l-.06-.058h0a.502.502 0 0 0-.756.136c-.011.019-.272.463-.786.463-.504 0-.753-.427-.768-.453a.502.502 0 0 0-.879-.01c-.011.019-.272.463-.786.463-.505 0-.755-.429-.769-.453a.5.5 0 0 0-.899.041c-.077.112-.332.425-.764.425-.417 0-.661-.293-.74-.408a.502.502 0 0 0-.907-.063c-.002.005-.265.458-.784.458-.451 0-.699-.343-.756-.433a.498.498 0 0 0-.891-.026c-.002.005-.265.458-.784.458-.503 0-.752-.425-.768-.452a.5.5 0 0 0-.07-.1.85.85 0 0 1-.084-.371c0-.495.412-.744.45-.767a.5.5 0 0 0 .2-.196.503.503 0 0 0-.188-.68c-.019-.012-.462-.273-.462-.788 0-.495.41-.744.45-.768a.47.47 0 0 0 .201-.197.504.504 0 0 0-.188-.68c-.019-.011-.462-.274-.462-.788 0-.452.342-.699.432-.757a.5.5 0 0 0 .026-.89c-.005-.002-.458-.265-.458-.784 0-.496.412-.746.45-.768a.5.5 0 0 0 .151-.124h0s0 0 0 0a.504.504 0 0 0-.139-.752c-.019-.011-.462-.273-.462-.787 0-.151.038-.279.092-.385l.04-.059c.007-.012.117-.199.331-.332l.019-.011a.85.85 0 0 1 .437-.12c.495 0 .745.411.768.45a.5.5 0 0 0 .061.09h0s0 0 0 0a.5.5 0 0 0 .135.11.506.506 0 0 0 .68-.188c.011-.019.273-.462.788-.462.504 0 .754.426.769.452a.504.504 0 0 0 .877.011c.011-.019.273-.463.787-.463.505 0 .755.428.769.452a.499.499 0 0 0 .898-.04c.077-.111.331-.425.764-.425.509 0 .757.434.765.447a.5.5 0 0 0 .436.265h.008c.18 0 .348-.099.437-.256.012-.02.288-.498.809-.498a.5.5 0 0 0 0-1c-.557 0-.97.24-1.248.487a1.85 1.85 0 0 0-1.205-.445c-.521 0-.934.21-1.226.458a1.85 1.85 0 0 0-1.205-.445c-.517 0-.927.208-1.219.453a1.856 1.856 0 0 0-2.432-.001 1.86 1.86 0 0 0-2.167-.189c-.365.2-.965.761-.965 1.643 0 .516.207.926.452 1.218-.245.289-.452.696-.452 1.214s.207.926.452 1.218c-.245.288-.452.696-.452 1.213s.207.926.452 1.217c-.245.289-.452.696-.452 1.214s.207.927.451 1.218a1.85 1.85 0 0 0-.451 1.213c0 .884.605 1.455.969 1.658.257.154.576.265.954.265.517 0 .926-.207 1.218-.452.288.245.695.452 1.213.452.512 0 .919-.203 1.21-.445a1.86 1.86 0 0 0 2.447 0c.288.242.692.445 1.206.445.518 0 .927-.208 1.219-.453.288.245.695.453 1.214.453s.926-.207 1.218-.452a1.86 1.86 0 0 0 2.161.191c.364-.195.972-.758.972-1.646a1.88 1.88 0 0 0-.451-1.218c.244-.288.451-.695.451-1.213s-.207-.927-.451-1.219c.244-.288.451-.695.451-1.213s-.207-.926-.451-1.218a1.86 1.86 0 0 0 0-2.431Z"/></svg>