<!-- SPDX-FileCopyrightText: © 2025 Schneider Electric SPDX-License-Identifier: LicenseRef-Proprietary -->
<svg xmlns="http://www.w3.org/2000/svg" viewBox="0 0 16 16"><path d="M4 10.5v-2a.5.5 0 0 0-1 0v2a.5.5 0 0 0 1 0Zm2 0v-2a.5.5 0 0 0-1 0v2a.5.5 0 0 0 1 0Zm-3.911-2a.5.5 0 0 0 0-1h-.01c-.276 0-.495.224-.495.5s.229.5.505.5Z"/><path d="M15.5 6h-13a.5.5 0 0 0 0 1H15v5H1V6.674L3.111 4h9.814l1.433 1.433a.5.5 0 0 0 .707-.707l-1.579-1.579a.5.5 0 0 0-.354-.146H2.869a.5.5 0 0 0-.393.19L.107 6.19A.5.5 0 0 0 0 6.5v6a.5.5 0 0 0 .5.5h15a.5.5 0 0 0 .5-.5v-6a.5.5 0 0 0-.5-.5Z"/><path d="M10 10.5v-2a.5.5 0 0 0-1 0v2a.5.5 0 0 0 1 0Zm4 0v-2a.5.5 0 0 0-1 0v2a.5.5 0 0 0 1 0Zm-2 0v-2a.5.5 0 0 0-1 0v2a.5.5 0 0 0 1 0Zm-4 0v-2a.5.5 0 0 0-1 0v2a.5.5 0 0 0 1 0Z"/></svg>