<!-- SPDX-FileCopyrightText: © 2025 Schneider Electric SPDX-License-Identifier: LicenseRef-Proprietary -->
<svg xmlns="http://www.w3.org/2000/svg" viewBox="0 0 16 16"><path d="M3.5 4a.5.5 0 0 0 0-1h-1a.5.5 0 0 0 0 1z"/><path d="M14.685 1h-3.4c-.297 0-.572.1-.79.266A1.28 1.28 0 0 0 9.712 1H6.289c-.297 0-.572.102-.79.271A1.27 1.27 0 0 0 4.712 1H1.289A1.29 1.29 0 0 0 0 2.289V10.5a.5.5 0 0 0 1 0V2.289A.29.29 0 0 1 1.289 2h3.423c.16 0 .284.126.284.289q0 .034.004.066V10.5a.5.5 0 0 0 1 0V2.289A.29.29 0 0 1 6.289 2h3.423a.29.29 0 0 1 .285.24v.024q0 .034.004.066v1.169a.5.5 0 0 0 1 0V2.288L11 2.226c.02-.128.141-.227.286-.227h3.4c.174 0 .315.129.315.289v11.423c0 .159-.141.288-.314.288h-3.401c-.139 0-.259-.093-.287-.211l.002-.077V5.5a.5.5 0 0 0-1 0v8.146a1 1 0 0 0-.008.091v.041a.29.29 0 0 1-.281.223H6.289A.29.29 0 0 1 6 13.712v-1.211a.5.5 0 0 0-1 0v1.211a.29.29 0 0 1-.289.289H1.289A.29.29 0 0 1 1 13.712v-1.211a.5.5 0 0 0-1 0v1.211a1.29 1.29 0 0 0 1.289 1.289h3.422c.297 0 .57-.101.789-.271.218.17.492.271.789.271h3.423c.294 0 .565-.099.782-.265.219.166.494.265.792.265h3.401c.725 0 1.314-.578 1.314-1.288V2.289c0-.71-.59-1.289-1.315-1.289Z"/><path d="M13.5 4a.5.5 0 0 0 0-1h-1a.5.5 0 0 0 0 1zm-5 0a.5.5 0 0 0 0-1h-1a.5.5 0 0 0 0 1z"/></svg>