<!-- SPDX-FileCopyrightText: © 2025 Schneider Electric SPDX-License-Identifier: LicenseRef-Proprietary -->
<svg xmlns="http://www.w3.org/2000/svg" viewBox="0 0 16 16"><path d="M14.5 1H1.515a.5.5 0 0 0-.5.499L1 8c0 1.018.827 1.846 1.844 1.846.529 0 1.007-.225 1.343-.583a1.84 1.84 0 0 0 2.688 0 1.843 1.843 0 0 0 2.687 0c.337.359.814.583 1.344.583A1.847 1.847 0 0 0 12.75 8a.5.5 0 0 0-1 0c0 .466-.379.846-.844.846s-.844-.379-.844-.846a.5.5 0 0 0-1 0c0 .466-.378.846-.843.846S7.375 8.467 7.375 8a.5.5 0 0 0-1 0 .845.845 0 1 1-1.688 0 .5.5 0 0 0-1 0c0 .466-.378.846-.843.846S2 8.467 2 8.001L2.014 2H14v12H1.5a.5.5 0 0 0 0 1h13a.5.5 0 0 0 .5-.5v-13a.5.5 0 0 0-.5-.5Z"/><path d="M7.273 12.959a.5.5 0 0 0 .357-.15l1.034-1.055a.5.5 0 0 0-.714-.699l-.677.69-.678-.691a.5.5 0 0 0-.714.701l1.035 1.055a.5.5 0 0 0 .357.149Z"/></svg>