<!-- SPDX-FileCopyrightText: © 2025 Schneider Electric SPDX-License-Identifier: LicenseRef-Proprietary -->
<svg xmlns="http://www.w3.org/2000/svg" viewBox="0 0 16 16"><path d="M13.508 9.021c-1.324 0-2.401 1.072-2.401 2.381q-.012.716.161 1.001c.145.235.461.332.698.188.235-.144.32-.43.177-.665-.022-.068-.039-.31-.036-.515 0-.767.629-1.39 1.401-1.39s1.401.623 1.401 1.39c0 .756-.504 1.911-1.926 2.68-1.397.756-3.571 1.065-5.816.834-1.418-.148-4.112-1.02-5.295-3.246 1.376.965 2.819 1.14 3.562 1.229.669.083 2.701.331 3.903-.73.561-.496.845-1.19.845-2.064 0-1.333-.977-2.316-2.375-2.39-1.282-.078-2.416 1.023-2.496 2.431a.5.5 0 0 0 .471.527.496.496 0 0 0 .527-.471c.048-.845.718-1.539 1.446-1.488.881.046 1.428.579 1.428 1.391 0 .583-.166 1.013-.508 1.315-.573.507-1.624.669-3.137.485-.705-.086-2.171-.264-3.435-1.316-.724-.604-.974-1.65-1.059-2.247-.024-.209-.037-.352-.042-.399L1 7.899h0c-.017-.22-.172-.438-.386-.488a.5.5 0 0 0-.561.264.8.8 0 0 0-.04.297H.002c0 .013.005.074.015.174.007.128.022.277.047.438.069.573.205 1.47.447 2.36.953 3.486 4.567 4.768 6.552 4.975.519.055 1.037.081 1.544.081 1.873 0 3.616-.362 4.851-1.03 1.807-.977 2.45-2.479 2.45-3.559a2.4 2.4 0 0 0-2.401-2.39ZM1.352 4.214l.656-.447.899.29-.52.833-.856.105a.5.5 0 0 0 .121.993l.649-.079.166.701a.5.5 0 1 0 .973-.231l-.221-.934.5-.801.63.817-.187.86a.501.501 0 0 0 .978.212l.134-.621.623.105a.5.5 0 0 0 .166-.986l-.9-.151-.645-.837 1.01-.297.765.507a.5.5 0 0 0 .552-.834l-.581-.384.258-.486a.5.5 0 1 0-.883-.469l-.372.7-1.054.31.05-.919.696-.597a.501.501 0 0 0-.651-.759l-.529.454-.515-.451a.5.5 0 1 0-.659.753l.657.575-.053.959-.908-.292-.316-.785a.5.5 0 0 0-.927.373l.253.63-.525.358a.5.5 0 1 0 .564.826Zm14.424-.8-.831-.55.381-.717a.5.5 0 1 0-.883-.469l-.495.932-1.559.458.076-1.399.92-.789a.5.5 0 0 0-.65-.759l-.754.646-.734-.643a.5.5 0 1 0-.658.753l.877.767-.079 1.443-1.365-.439-.421-1.047a.5.5 0 1 0-.927.373l.358.892-.749.511a.5.5 0 1 0 .564.826l.88-.6 1.354.436-.777 1.245-1.142.14a.5.5 0 0 0 .121.993l.935-.114.236.998a.5.5 0 1 0 .972-.23l-.291-1.23.76-1.216.946 1.228-.247 1.143a.5.5 0 1 0 .977.212l.196-.904.908.153a.5.5 0 0 0 .166-.986l-1.186-.199-.962-1.248 1.516-.445 1.015.672a.501.501 0 0 0 .552-.834Z"/></svg>