<!-- SPDX-FileCopyrightText: © 2025 Schneider Electric SPDX-License-Identifier: LicenseRef-Proprietary -->
<svg xmlns="http://www.w3.org/2000/svg" viewBox="0 0 16 16"><path d="M7.503 5.44a.5.5 0 0 0 .5-.5l-.002-3.427 3.395 2.598L9.24 6.154a.501.501 0 0 0 .343.864.5.5 0 0 0 .344-.138l2.582-2.446a.5.5 0 0 0-.04-.76L7.804.103a.501.501 0 0 0-.803.398l.003 4.44a.5.5 0 0 0 .5.5Zm8.346 9.693L.858.16A.5.5 0 0 0 .15.867l7.156 7.148-3.571 3.35a.498.498 0 1 0 .684.728l3.596-3.371 3.352 3.348-3.365 2.448L8 11.499a.5.5 0 0 0-1 0l.002 4a.498.498 0 0 0 .794.404l4.288-3.119 3.058 3.055a.5.5 0 0 0 .707-.707Z"/></svg>