<!-- SPDX-FileCopyrightText: © 2025 Schneider Electric SPDX-License-Identifier: LicenseRef-Proprietary -->
<svg xmlns="http://www.w3.org/2000/svg" viewBox="0 0 16 16"><path d="M14.5 4a.5.5 0 0 0 .5-.5V2.035C15 1.464 14.535 1 13.965 1H2.035C1.464 1 1 1.464 1 2.035v11.93C1 14.535 1.464 15 2.035 15h11.93c.57 0 1.035-.465 1.035-1.035v-1.93c0-.195-.055-.379-.149-.535.095-.156.149-.34.149-.535v-1.93c0-.196-.055-.379-.149-.535.095-.156.149-.339.149-.535v-1.93C15 5.464 14.535 5 13.965 5h-1.759a.5.5 0 0 0 0 1L14 6.035 13.965 8H12.25a.5.5 0 0 0 0 1l1.75.035L13.965 11H12.25a.5.5 0 0 0 0 1l1.75.035L13.965 14 2 13.965 2.035 2 14 2.035V3.5a.5.5 0 0 0 .5.5Z"/><path d="M9.5 12a.5.5 0 0 0 .5-.5v-.938c0-1.308-.132-2.447-1.545-3.004.271-.426.42-.968.42-1.566 0-1.346-1.145-2.527-2.451-2.527-1.188 0-2.569 1.104-2.569 2.527 0 .604.187 1.171.514 1.615C3.182 8.203 3 9.397 3 10.534v.967a.5.5 0 0 0 .5.5h4a.5.5 0 0 0 0-1H4v-.467c0-1.476.347-2.018 1.427-2.23a.501.501 0 0 0 .151-.925c-.438-.25-.722-.795-.722-1.387 0-.822.863-1.527 1.569-1.527.671 0 1.451.667 1.451 1.527 0 .642-.234 1.161-.626 1.389a.5.5 0 0 0 .163.925c1.38.248 1.588.73 1.588 2.257v.938a.5.5 0 0 0 .5.5Z"/></svg>