<!-- SPDX-FileCopyrightText: © 2025 Schneider Electric SPDX-License-Identifier: LicenseRef-Proprietary -->
<svg xmlns="http://www.w3.org/2000/svg" viewBox="0 0 16 16"><path d="M12 9.711V6.079A2.08 2.08 0 0 0 9.921 4H7.679L4.263 2.58a.37.37 0 0 0-.211-.046.5.5 0 0 0-.21.046L.314 4.048l-.011.004h0a.5.5 0 0 0-.25.246q0 0 0 0H.052a.4.4 0 0 0-.024.063H.027v.001a.5.5 0 0 0-.022.158L0 8.652c0 .172.087.332.232.424l1.666 1.055a.5.5 0 1 0 .535-.845L1 8.379l.003-2.994 1.196.704a.5.5 0 1 0 .507-.861L1.62 4.589l2.431-1.012 2.948 1.225v3.535l-3 1.396.002-2.92 2.182-.773a.5.5 0 0 0-.334-.942l-2.418.857a.5.5 0 0 0-.186.116.5.5 0 0 0-.245.43l-.003 4a.5.5 0 0 0 .5.5h0a.5.5 0 0 0 .139-.02.5.5 0 0 0 .141-.042l3.932-1.831a.5.5 0 0 0 .289-.453V5.001h1.921a1.08 1.08 0 0 1 1.079 1.079v3.632a.29.29 0 0 1-.289.289H9.498a.5.5 0 0 0-.5.5v4.5h-1v-2.5a.5.5 0 0 0-1 0v3a.5.5 0 0 0 .5.5h2a.5.5 0 0 0 .5-.5v-4.5h.711a1.29 1.29 0 0 0 1.289-1.289ZM12.5 3c.827 0 1.5-.673 1.5-1.5S13.327 0 12.5 0 11 .673 11 1.5 11.673 3 12.5 3Zm0-2a.5.5 0 1 1-.002 1.002A.5.5 0 0 1 12.5 1Zm-4 2c.827 0 1.5-.673 1.5-1.5S9.327 0 8.5 0 7 .673 7 1.5 7.673 3 8.5 3Zm0-2a.5.5 0 1 1-.002 1.002A.5.5 0 0 1 8.5 1Z"/><path d="M13.921 4H12.5a.5.5 0 0 0 0 1h1.421A1.08 1.08 0 0 1 15 6.079v3.632a.29.29 0 0 1-.289.289H13.5a.5.5 0 0 0-.5.5V15h-1v-2.5a.5.5 0 0 0-1 0v3a.5.5 0 0 0 .5.5h2a.5.5 0 0 0 .5-.5V11h.711A1.29 1.29 0 0 0 16 9.711V6.079A2.08 2.08 0 0 0 13.921 4Z"/></svg>