<!-- SPDX-FileCopyrightText: © 2025 Schneider Electric SPDX-License-Identifier: LicenseRef-Proprietary -->
<svg xmlns="http://www.w3.org/2000/svg" viewBox="0 0 16 16"><path d="M7.946 12.154a.5.5 0 0 0 .707.001l1.242-1.234a.5.5 0 0 0 .004-.705l-.034-.034-.016-.017-1.16-1.182a.5.5 0 1 0-.714.701l.329.335-4.642-.017.359-.371a.5.5 0 1 0-.719-.695l-1.175 1.215a.5.5 0 0 0-.015.679l1.138 1.288a.5.5 0 1 0 .749-.662l-.4-.453 4.777.017-.429.427a.5.5 0 0 0-.002.707Z"/><path d="M14.882 0H3.974c-.295 0-.574.114-.785.322L.333 3.139A1.13 1.13 0 0 0 0 3.935v10.947A1.12 1.12 0 0 0 1.118 16h10.27c.296 0 .586-.121.795-.332l2.805-2.839a.5.5 0 0 0-.711-.703L11.388 15H1.118A.12.12 0 0 1 1 14.882l.035-11.031L3.974 1h10.908c.065 0 .118.053.118.118V10.5a.5.5 0 0 0 1 0V1.118A1.12 1.12 0 0 0 14.882 0Z"/><path d="M11.5 13a.5.5 0 0 0 .5-.5V4.644l1.66-1.585a.5.5 0 0 0-.691-.723l-1.742 1.665H2.5a.5.5 0 0 0 0 1H11v7.5a.5.5 0 0 0 .5.5Z"/></svg>