<!-- SPDX-FileCopyrightText: © 2025 Schneider Electric SPDX-License-Identifier: LicenseRef-Proprietary -->
<svg xmlns="http://www.w3.org/2000/svg" viewBox="0 0 16 16"><path d="M3.959 1.235a.5.5 0 0 0 .191-.038l.27-.112.268.112s0 0 0 0l.762.318a.5.5 0 1 0 .385-.922L5.073.275s0 0 0 0L4.612.083C4.594.075 4.575.077 4.557.072 4.513.059 4.468.045 4.422.045a.5.5 0 0 0-.158.031c-.011.004-.023.002-.035.007l-.462.191a.5.5 0 0 0 .191.962ZM.5 2.668a.5.5 0 0 0 .191-.038l.462-.191.75-.311a.5.5 0 0 0-.382-.924l-.75.311-.462.191a.5.5 0 0 0 .191.962ZM.5 6a.5.5 0 0 0 .5-.5v-1a.5.5 0 0 0-1 0v1a.5.5 0 0 0 .5.5Zm6.633-3.296a.5.5 0 0 0-.65-.279l-.736.294a.499.499 0 1 0 .371.928l.736-.294a.5.5 0 0 0 .279-.65Zm-5.239.054a.5.5 0 0 0 .279.65l.614.246a.5.5 0 1 0 .371-.928l-.614-.246a.5.5 0 0 0-.65.279ZM8.5 4a.5.5 0 0 0-.5.5v1a.5.5 0 0 0 1 0v-1a.5.5 0 0 0-.5-.5Zm-.764-1.531.281.117A.494.494 0 0 0 9 2.5v-.26a.494.494 0 0 0-.379-.476c-.014-.007-.024-.02-.038-.026l-.462-.192a.501.501 0 0 0-.384.923Zm-6.315 5.92a.5.5 0 0 0-.266-.655L1 7.669v-.168a.5.5 0 0 0-1 0v.25c0 .045.014.085.025.126a.495.495 0 0 0 .28.585l.46.194a.497.497 0 0 0 .654-.267ZM4.5 6a.5.5 0 0 0-.5.5v1a.5.5 0 0 0 1 0v-1a.5.5 0 0 0-.5-.5ZM5 3.9a.5.5 0 0 0-1 0v.69a.5.5 0 0 0 1 0zm.518 4.87-.475.156H5.04l-.076.025c-.04.013-.068.038-.1.059-.041.003-.083.001-.124.015l-.296.097-.287-.121s0 0 0 0l-.75-.317a.5.5 0 0 0-.389.922l.75.317s0 0 0 0l.46.194a.5.5 0 0 0 .35.014l.475-.156c.05-.016.09-.045.131-.074h.003l.012-.002q0 0 0 0a.5.5 0 0 0 .156-.025l.475-.156a.5.5 0 1 0-.312-.949ZM5.5 14H3v-1.549l.348.343a.5.5 0 1 0 .702-.711L2.851 10.9a.5.5 0 0 0-.732.033L.995 12.051a.5.5 0 1 0 .705.709l.3-.299V14.5a.5.5 0 0 0 .5.5h3a.5.5 0 0 0 0-1Zm5-12H13v1.548l-.348-.343a.501.501 0 0 0-.703.712L13.148 5.1a.51.51 0 0 0 .712-.001l1.189-1.183a.5.5 0 0 0-.705-.709l-.345.343V1.5a.5.5 0 0 0-.5-.5h-3a.5.5 0 0 0 0 1Zm5.193 5.499-4-1.68a.5.5 0 0 0-.387 0l-4 1.68a.5.5 0 0 0 .077.947l.03.014 3.586 1.524V13.5a.5.5 0 0 0 1 0V9.994l1.848-.767a.5.5 0 0 0-.382-.924l-1.955.812L8.792 7.96 11.5 6.822l3.5 1.47v5.216l-3.5 1.47-3.5-1.47V9.941a.5.5 0 0 0-1 0v3.899a.5.5 0 0 0 .307.461l4 1.68a.5.5 0 0 0 .386 0l4-1.68A.5.5 0 0 0 16 13.84V7.96a.5.5 0 0 0-.307-.461Z"/></svg>