<!-- SPDX-FileCopyrightText: © 2025 Schneider Electric SPDX-License-Identifier: LicenseRef-Proprietary -->
<svg xmlns="http://www.w3.org/2000/svg" viewBox="0 0 16 16"><path d="m15.704 4.525-5.85-2.621a.5.5 0 0 0-.463.028L6.823 3.483a.499.499 0 0 0 .032.874l3.836 1.945-3.113.943-1.253-2.233a.5.5 0 0 0-.195-.193L.741 1.854a.5.5 0 0 0-.657.716l1.98 2.969L2 10.79a.5.5 0 0 0 .18.39l2.641 2.199a.5.5 0 0 0 .64-.767l-2.458-2.047.063-5.167a.5.5 0 0 0-.084-.284L2.05 3.717l3.474 1.911.585 1.043-1.573-.792a.5.5 0 0 0-.449.893L6.984 8.23l.012 5.48a.5.5 0 0 0 .667.472l6-2.122a.5.5 0 0 0 .333-.472V6.903l1.826-1.538a.5.5 0 0 0-.118-.839Zm-2.53 1.761a.5.5 0 0 0-.178.382v4.564l-5 1.769V8.164l4.178-1.266a.5.5 0 0 0 .083-.924L8.113 3.873l1.572-.949 4.884 2.188z"/></svg>