<!-- SPDX-FileCopyrightText: © 2025 Schneider Electric SPDX-License-Identifier: LicenseRef-Proprietary -->
<svg xmlns="http://www.w3.org/2000/svg" viewBox="0 0 16 16"><path d="M14.882 0H3.974c-.295 0-.574.114-.785.322L.333 3.139A1.13 1.13 0 0 0 0 3.935v10.947A1.12 1.12 0 0 0 1.118 16h10.27c.296 0 .586-.121.795-.332l2.805-2.839a.5.5 0 0 0-.711-.703L11.388 15H1.118A.12.12 0 0 1 1 14.882l.035-11.031L3.974 1h10.908c.065 0 .118.053.118.118V10.5a.5.5 0 0 0 1 0V1.118A1.12 1.12 0 0 0 14.882 0Z"/><path d="M6.896 7.172a.5.5 0 1 0 .74-.672L6.402 5.139a.5.5 0 0 0-.367-.164c-.147-.015-.274.057-.369.16L4.434 6.461a.5.5 0 0 0 .733.682l.315-.339-.021 5.823-.347-.367a.499.499 0 1 0-.728.685l1.215 1.288a.5.5 0 0 0 .353.157h.011a.5.5 0 0 0 .348-.141l1.289-1.247a.5.5 0 1 0-.695-.719l-.445.431.021-5.999.415.458Z"/><path d="M11.5 13a.5.5 0 0 0 .5-.5V3.718l1.774-1.294a.5.5 0 0 0-.59-.807l-1.897 1.384H2.5a.5.5 0 0 0 0 1H11v8.5a.5.5 0 0 0 .5.5Z"/></svg>