<!-- SPDX-FileCopyrightText: © 2025 Schneider Electric SPDX-License-Identifier: LicenseRef-Proprietary -->
<svg xmlns="http://www.w3.org/2000/svg" viewBox="0 0 16 16"><path d="M11.937 9.727a.5.5 0 0 0-.707.004l-2.237 2.27-7.992.012-.003-8.758L3.277 1 12 .988V8.5a.5.5 0 0 0 1 0V.988A.99.99 0 0 0 12.012 0H3.277a.98.98 0 0 0-.694.285L.295 2.541A1 1 0 0 0 0 3.245v8.767c0 .545.443.988.988.988h8.004a1 1 0 0 0 .702-.293l2.246-2.273a.5.5 0 0 0-.004-.707Zm3.918-.252a.53.53 0 0 0-.374-.148l-1.809.066a.5.5 0 0 0-.481.519.48.48 0 0 0 .519.481l.622-.023-3.346 3.792.039-.638a.5.5 0 0 0-.998-.06l-.123 2.03a.5.5 0 0 0 .499.53h.005l2.097-.023c.275-.003.497-.229.494-.506s-.233-.531-.506-.494l-.923.011 3.36-3.811-.021.437a.5.5 0 0 0 .475.523c.282.038.511-.199.523-.475l.09-1.835a.5.5 0 0 0-.144-.376Z"/><path d="M9.5 10a.5.5 0 0 0 .5-.5V3.692l.856-.856a.5.5 0 0 0-.707-.707l-.872.872H2.5a.5.5 0 0 0 0 1H9v5.5a.5.5 0 0 0 .5.5Z"/></svg>