<!-- SPDX-FileCopyrightText: © 2025 Schneider Electric SPDX-License-Identifier: LicenseRef-Proprietary -->
<svg xmlns="http://www.w3.org/2000/svg" viewBox="0 0 16 16"><path d="M3.408 2.574 1.263 3.812l-.008.004a.5.5 0 0 0-.101.077h0a.5.5 0 0 0-.131.223.5.5 0 0 0-.018.132v2.601a.5.5 0 0 0 1 0V5.132l1.396.836a.501.501 0 0 0 .514-.858l-1.423-.852 1.417-.818a.5.5 0 0 0-.5-.866Zm.5 9.987-1.903-1.1V9.448a.5.5 0 0 0-1 0v2.302c0 .179.095.344.25.433l2.153 1.243a.5.5 0 0 0 .684-.183.5.5 0 0 0-.183-.683Zm5.835 1.356-1.243.717v-1.436a.5.5 0 0 0-1 0v1.436l-1.203-.694a.5.5 0 0 0-.5.866l1.945 1.124a.5.5 0 0 0 .25.071h.017a.5.5 0 0 0 .249-.071l1.986-1.146a.5.5 0 1 0-.5-.866Zm.5-12.699L8.25.067a.5.5 0 0 0-.5 0L5.797 1.194a.5.5 0 0 0 .5.866L8 1.077l1.743 1.007a.504.504 0 0 0 .684-.183.5.5 0 0 0-.183-.683Zm4.75 2.972a.49.49 0 0 0-.256-.388l-2.145-1.239a.5.5 0 0 0-.5.866l1.452.838-1.452.838a.5.5 0 0 0 .5.866l1.403-.81v1.677a.5.5 0 0 0 1 0v-2.59q0-.03-.002-.059Zm-.498 4.758a.5.5 0 0 0-.5.5v2.013l-1.903 1.1a.5.5 0 1 0 .501.866l2.153-1.243a.5.5 0 0 0 .25-.433V9.449a.5.5 0 0 0-.5-.5ZM9.743 6.416 8 7.423 6.257 6.416a.5.5 0 0 0-.5.866L7.5 8.288v2.013a.5.5 0 0 0 1 0V8.288l1.743-1.006a.5.5 0 0 0-.5-.866Z"/></svg>