<!-- SPDX-FileCopyrightText: © 2025 Schneider Electric SPDX-License-Identifier: LicenseRef-Proprietary -->
<svg xmlns="http://www.w3.org/2000/svg" viewBox="0 0 16 16"><path d="M15.5 13H12v-1h1.5a.5.5 0 0 0 0-1H12V2.836l-.005-.073a.5.5 0 0 0-.242-.38L7.877.071a.5.5 0 0 0-.529.01L3.525 2.574a.5.5 0 0 0 .023.852l.021.013 3.43 2.012V13.5a.5.5 0 0 0 1 0V5.653l1.937-1.315a.5.5 0 1 0-.561-.827L7.657 4.678l-2.91-1.707L7.632 1.09l3.367 2.009v10.093l-3.5 1.75-3.5-1.75V4.793a.5.5 0 0 0-1 0V13H.5a.5.5 0 0 0 0 1h2.882l3.895 1.947a.5.5 0 0 0 .448 0L11.62 14h3.882a.5.5 0 0 0 0-1Z"/></svg>