<!-- SPDX-FileCopyrightText: © 2025 Schneider Electric SPDX-License-Identifier: LicenseRef-Proprietary -->
<svg xmlns="http://www.w3.org/2000/svg" viewBox="0 0 16 16"><path d="M13.735 2.504 9.154.059a.5.5 0 0 0-.41-.028L2.326 2.418a.5.5 0 0 0-.116.876l3.815 2.724L6 13.056a.5.5 0 0 0 .498.502H6.5a.5.5 0 0 0 .5-.498l.024-6.918 4.208-1.777a.5.5 0 1 0-.389-.921L6.631 5.222 3.557 3.028l5.325-1.98L13 3.245v8.859l-6.445 2.867L3 12.307V5.351a.5.5 0 0 0-1 0v7.206a.5.5 0 0 0 .2.4l3.99 2.99a.5.5 0 0 0 .503.057l7.01-3.118a.5.5 0 0 0 .297-.457V2.945a.5.5 0 0 0-.265-.441Z"/></svg>