<!-- SPDX-FileCopyrightText: © 2025 Schneider Electric SPDX-License-Identifier: LicenseRef-Proprietary -->
<svg xmlns="http://www.w3.org/2000/svg" viewBox="0 0 16 16"><path d="M14 9.913V6.468a.5.5 0 0 0-.056-.199.5.5 0 0 0-.13-.159q-.015-.013-.032-.024l-2.041-1.435a.5.5 0 0 0-.482-.051L8.302 5.852A.5.5 0 0 0 8 6.367a.5.5 0 0 0 .175.437l1.826 1.534v3.242a.5.5 0 0 0 1 0V8.419l.973-.468a.5.5 0 0 0-.434-.901l-.965.464-1.217-1.022 2.035-.862L13 6.76v4.961l-2.445 1.294L9 11.781v-3.28a.5.5 0 0 0-1 0v3.021a.5.5 0 0 0-.141.027L6 12.188V5.237l2.056-1.188a.5.5 0 0 0-.5-.866L5.568 4.332 3.439 2.814 7.001 1.09 9 2.736v1.182a.5.5 0 0 0 1 0V2.485a.5.5 0 0 0-.168-.358l-.018-.015L7.39.114A.5.5 0 0 0 6.854.05L2.282 2.263A.5.5 0 0 0 2 2.737a.5.5 0 0 0 .209.43l2.79 1.989v6.742l-2-1.475V4.652a.5.5 0 0 0-1 0v5.167a.5.5 0 0 0-.131.049c-1.292.701-1.869 1.447-1.869 2.419 0 2.117 3.439 3.714 8 3.714 1.796 0 3.552-.271 4.943-.765a.501.501 0 0 0-.334-.944c-1.287.457-2.924.708-4.609.708-4.125 0-7-1.431-7-2.714 0-.384.136-.815 1.059-1.376a.5.5 0 0 0 .144.167l3 2.213a.5.5 0 0 0 .459.07l2.521-.866q.036-.013.07-.029l1.935 1.536a.51.51 0 0 0 .545.051l3-1.588a.5.5 0 0 0 .266-.442v-1.045c.727.325 1 .934 1 1.31 0 .555-.518 1.02-.952 1.312a.5.5 0 0 0 .558.83c1.151-.774 1.394-1.592 1.394-2.142 0-.867-.627-1.968-2-2.373Z"/></svg>