<!-- SPDX-FileCopyrightText: © 2025 Schneider Electric SPDX-License-Identifier: LicenseRef-Proprietary -->
<svg xmlns="http://www.w3.org/2000/svg" viewBox="0 0 16 16"><path d="m15.874 8.321-1.935-2.177a.5.5 0 0 0-.194-.134l-1.747-.674-.018-3.438a.5.5 0 0 0-.315-.462L8.538.195a.5.5 0 0 0-.336-.012L4.33 1.415a.5.5 0 0 0-.359.489l.062 3.354-2.799 1.034a.5.5 0 0 0-.237.184L.089 7.785a.5.5 0 0 0 .821.571l.771-1.111 5.736 2.158-1.069 1.232-4.671-1.886a.503.503 0 0 0-.661.624A.5.5 0 0 0 1 9.5v3.563c0 .21.131.397.328.47l6.906 2.528q.085.03.172.03t.167-.028l6.094-2.159a.5.5 0 0 0 .333-.472v-1.933a.5.5 0 0 0-1 0v1.579l-5.591 1.981L2 12.712V9.957l4.294 1.733a.5.5 0 0 0 .583-.14l.544-.628.048 2.484a.5.5 0 0 0 .5.49h.01a.5.5 0 0 0 .49-.51l-.064-3.267.984 1.151a.5.5 0 0 0 .553.145l4.124-1.521a.499.499 0 1 0-.346-.938l-3.797 1.401-.799-.935 3.518-1.195a.5.5 0 0 0-.323-.947L8.273 8.656 3.045 6.689l1.394-.515 1.816.582a.5.5 0 0 0 .306-.952l-1.528-.49-.05-2.72 3.323 1.112a.5.5 0 0 0 .354-.014l1.115-.473a.5.5 0 0 0-.391-.921l-.941.399-2.363-.791 2.253-.717 2.648 1.051.016 3.067-1.998.723v-.532a.5.5 0 0 0-1 0v1.245a.5.5 0 0 0 .671.47l2.811-1.018q.043.028.093.047l1.698.655 1.854 2.086a.5.5 0 1 0 .748-.664Z"/></svg>