<!-- SPDX-FileCopyrightText: © 2025 Schneider Electric SPDX-License-Identifier: LicenseRef-Proprietary -->
<svg xmlns="http://www.w3.org/2000/svg" viewBox="0 0 16 16"><path d="M12.256 6.425a.5.5 0 0 0-.644-.292L8.484 7.311 7.411 5.926l2.953-1.114a.5.5 0 0 0-.354-.936L6.613 5.158 2.485 3.393l3.516-1.13v1.236a.5.5 0 0 0 1 0V2.245l4.465 1.31 1.624 2.582a.499.499 0 1 0 .846-.532l-1.725-2.742a.5.5 0 0 0-.283-.214L6.643 1.098l-.013-.003h0a.5.5 0 0 0-.288.009L1.123 2.781a.5.5 0 0 0-.234.16l-.776.952a.499.499 0 1 0 .774.632l.439-.538 4.411 1.886-1.131 1.171-2.888-1.193a.5.5 0 0 0-.207-.038.51.51 0 0 0-.511.5v4.038a.5.5 0 0 0 .326.469l5.05 1.877a.5.5 0 0 0 .349-.938l-4.724-1.756V7.049l2.528 1.043a.47.47 0 0 0 .304.032.5.5 0 0 0 .265-.151l.939-.972-.036 3.029a.5.5 0 0 0 .494.506h.006a.5.5 0 0 0 .5-.494l.035-2.968.883 1.141a.5.5 0 0 0 .572.162l3.474-1.309a.5.5 0 0 0 .292-.644Z"/><path d="m15.68 9.284-2.72-1.048a.5.5 0 0 0-.35-.004L9.34 9.414a.5.5 0 0 0-.146.077h0A.5.5 0 0 0 9 9.87v3.926c0 .211.133.399.332.471l1.268.453a.5.5 0 0 0 .337-.942L10 13.443v-2.769l2.259 1.065a.5.5 0 0 0 .379.02l1.124-.394a.5.5 0 0 0-.331-.944l-.93.325-1.698-.801 1.973-.713 2.226.857v3.147l-2 .63v-.722a.5.5 0 0 0-1 0v1.403a.5.5 0 0 0 .65.477l3-.945a.5.5 0 0 0 .35-.477V9.746a.5.5 0 0 0-.32-.467Z"/></svg>