<!-- SPDX-FileCopyrightText: © 2025 Schneider Electric SPDX-License-Identifier: LicenseRef-Proprietary -->
<svg xmlns="http://www.w3.org/2000/svg" viewBox="0 0 16 16"><path d="M1.738 8.933h6.449a.5.5 0 0 0 0-1H1.735l1.864-1.782a.5.5 0 0 0-.691-.723L.155 8.06a.5.5 0 0 0-.12.177q-.138.348 2.9 3.203a.495.495 0 0 0 .706-.021.5.5 0 0 0-.022-.707c-.552-.52-1.305-1.229-1.882-1.779Z"/><path d="M15.857 6.456 15 5.581V2.845a.5.5 0 0 0-.236-.449L11.028.075a.5.5 0 0 0-.361-.066L6.417.85a.5.5 0 0 0-.412.501v5.092a.5.5 0 0 0 1 0v-4.69l3.663-.725 2.509 1.559-2.713.571a.5.5 0 0 0-.466.499v2.369a.5.5 0 0 0 1 0V4.068l3.001-.631v2.348a.5.5 0 0 0 .143.35l.857.875v4.212l-.659.228a.5.5 0 0 0-.337.47l-.013 2.385-2.97.567v-1.878l.612-.145a.5.5 0 0 0 .093-.031l1.13-.284c.268-.068.43-.34.363-.607s-.338-.427-.607-.363l-.594.15V8.068l1.409-.339a.5.5 0 1 0-.235-.973l-1.771.427a.5.5 0 0 0-.367.362.5.5 0 0 0-.037.188v4.234l-.612.145a.5.5 0 0 0-.386.486v1.941l-3.017-2.504v-1.532a.5.5 0 0 0-1 0v1.767a.5.5 0 0 0 .181.385l3.892 3.231a.5.5 0 0 0 .319.115q.032.001.062-.004a.5.5 0 0 0 .301-.057l3.857-.737a.5.5 0 0 0 .373-.671l.012-2.252.661-.229a.5.5 0 0 0 .337-.473V6.806a.5.5 0 0 0-.143-.35Z"/></svg>