<!-- SPDX-FileCopyrightText: © 2025 Schneider Electric SPDX-License-Identifier: LicenseRef-Proprietary -->
<svg xmlns="http://www.w3.org/2000/svg" viewBox="0 0 16 16"><path d="M9 10.5V4.386a.5.5 0 0 0-1 0V10H1V4h4.5a.5.5 0 0 0 0-1h-5a.5.5 0 0 0-.5.5v7a.5.5 0 0 0 .5.5h8a.5.5 0 0 0 .5-.5Z"/><path d="M4 5.496V8H2.5a.5.5 0 0 0 0 1h2a.5.5 0 0 0 .5-.5V5.996h1.5a.5.5 0 0 0 0-1h-2a.5.5 0 0 0-.5.5Z"/><path d="m15.857 6.456-.858-.875V2.845a.5.5 0 0 0-.235-.449L11.028.075c-.108-.066-.237-.09-.361-.066L6.417.85a.5.5 0 0 0-.128.042h0a.5.5 0 0 0-.283.46v1.164a.5.5 0 0 0 1 0v-.763l3.663-.725 2.509 1.559-2.712.571a.5.5 0 0 0-.466.499v2.369a.5.5 0 0 0 1 0V4.068l3-.631v2.348c0 .131.052.257.143.35l.858.875v4.212l-.658.228a.5.5 0 0 0-.337.47l-.014 2.385-2.97.567v-1.878l.612-.145a.5.5 0 0 0 .093-.031l1.132-.284a.5.5 0 1 0-.244-.97l-.595.15V8.068l1.41-.34a.5.5 0 1 0-.235-.973l-1.771.427a.5.5 0 0 0-.366.357.5.5 0 0 0-.038.192v4.234l-.612.145a.5.5 0 0 0-.386.486v1.941l-3.197-2.654a.5.5 0 0 0-.639.769l3.892 3.231a.5.5 0 0 0 .319.115q.032.001.062-.004a.5.5 0 0 0 .301-.057l3.857-.737a.5.5 0 0 0 .373-.671l.013-2.252.66-.229a.5.5 0 0 0 .337-.473V6.803a.5.5 0 0 0-.143-.35Z"/></svg>