<!-- SPDX-FileCopyrightText: © 2025 Schneider Electric SPDX-License-Identifier: LicenseRef-Proprietary -->
<svg xmlns="http://www.w3.org/2000/svg" viewBox="0 0 16 16"><path d="M10.5 6a.5.5 0 0 0-.5.5v4.76l-.663.228a.5.5 0 0 0-.337.473v2.284l-3 .621v-1.729l.662-.227.037-.014 1.219-.37a.5.5 0 1 0-.291-.957l-.627.19V7.934l1.599-.337a.5.5 0 1 0-.206-.979l-1.894.399-.033.008L6 6.659V3.944l1.729-.205a.501.501 0 0 0-.118-.994l-2.134.253a.5.5 0 0 0-.477.5v3.403c0 .153.07.298.191.394L6 7.931v4.147l-.662.227a.5.5 0 0 0-.338.473v1.696l-3-2.66V1.748l3.32-.72 2.016 1.08a.5.5 0 1 0 .472-.882L5.629.059a.5.5 0 0 0-.342-.048l-3.85.836A.5.5 0 0 0 1 1.343v10.705a.5.5 0 0 0 .229.421l3.841 3.405c.092.082.21.126.332.126l.049-.002c.099.005.2-.012.284-.057l3.654-.757a.5.5 0 0 0 .328-.233.5.5 0 0 0 .284-.451v-2.184l.663-.228a.5.5 0 0 0 .337-.473V6.499a.5.5 0 0 0-.5-.5Zm-.964-4.828a.5.5 0 0 0 0 1 5.03 5.03 0 0 1 5.026 5.027.5.5 0 0 0 1 0 6.034 6.034 0 0 0-6.026-6.027Z"/><path d="M9.536 3.513a.5.5 0 0 0 0 1 2.69 2.69 0 0 1 2.686 2.686.5.5 0 0 0 1 0 3.69 3.69 0 0 0-3.686-3.686Z"/></svg>