<!-- SPDX-FileCopyrightText: © 2025 Schneider Electric SPDX-License-Identifier: LicenseRef-Proprietary -->
<svg xmlns="http://www.w3.org/2000/svg" viewBox="0 0 16 16"><path d="M15.5 3H5V1h10.5a.5.5 0 0 0 0-1H.5a.5.5 0 0 0 0 1H4v2H.5a.5.5 0 0 0 0 1H4v5.5a.5.5 0 0 0 .5.5h3.06v1.699l-.603-.603a.5.5 0 0 0-.707.707l1.07 1.07-1.07 1.07a.5.5 0 0 0 .707.707l.604-.604v1.452a.5.5 0 0 0 1 0v-1.386l.537.537a.5.5 0 0 0 .707-.707l-1.07-1.07 1.07-1.07a.5.5 0 0 0-.707-.707l-.538.538V9.998h1.941a.5.5 0 0 0 .5-.5l-.002-4a.5.5 0 0 0-1 0v3.5h-5v-5h10.5a.5.5 0 0 0 0-1Z"/></svg>