<!-- SPDX-FileCopyrightText: © 2025 Schneider Electric SPDX-License-Identifier: LicenseRef-Proprietary -->
<svg xmlns="http://www.w3.org/2000/svg" viewBox="0 0 16 16"><path d="M15.786 8.333c-1.111-.774-2.23-1.88-3.331-3.291a2 2 0 0 0-.274-.353l-.012-.012c-.585-.591-1.586-.665-2.446-.521-.313-.624-.48-1.125-.752-1.938-.14-.418-.304-.911-.525-1.531l-.01-.025Q8.435.656 8.431.65a1.02 1.02 0 0 0-.587-.546C7.407-.07 6.811-.022 6.251.226 5.313.642 4.808 1.443 5.065 2.1c.291.927 1.416 3.571 2.062 4.974-.58-.142-1.194-.33-1.819-.545l-.017-.014c-.775-.63-1.43-1.258-2.35-2.273q.213-.123.435-.32a.5.5 0 0 0 .1-.12h0a.5.5 0 0 0 .067-.207h0v-.002a.5.5 0 0 0-.121-.375h0s0 0 0 0a.5.5 0 0 0-.118-.099h0a.5.5 0 0 0-.223-.07h-.003a.5.5 0 0 0-.199.028h0s0 0 0 0h0s0 0 0 0a.5.5 0 0 0-.148.085c-.402.331-.474.258-.541.193-.037-.08.024-.441.388-.822.298-.311.593-.414.72-.417a.5.5 0 0 0 .192.102.5.5 0 0 0 .549-.814.97.97 0 0 0-.528-.27 1.1 1.1 0 0 0-.303-.024c-.47.022-.998.312-1.412.777-.685.77-.821 1.709-.324 2.201a47 47 0 0 0 1.35 1.487q-.432-.178-.847-.354l-.02-.008-.02-.007a1 1 0 0 0-.781.063c-.425.206-.799.685-1 1.279-.334.983-.095 1.902.555 2.157.911.435 1.591.738 2.203.986a.5.5 0 0 0 .375-.927 31 31 0 0 1-1.17-.505c.109-.144.203-.303.286-.459a.5.5 0 0 0-.884-.468c-.227.428-.34.466-.341.466 0 0-.022.003-.07-.01l-.024-.01c-.064-.07-.148-.422.017-.908.158-.465.424-.69.519-.713 1.906.806 3.91 1.602 5.673 1.979l.016.003.045.045c.065.058.157.415-.012.911-.159.471-.43.695-.522.714l-.019-.005-.034-.009c-.53-.116-.911-.228-1.318-.348l-.291-.085a.4.4 0 0 0-.123-.021.4.4 0 0 0-.22.038.5.5 0 0 0-.175.124.5.5 0 0 0-.074.104c-.451.828.055 1.92.432 2.331 1.642 2.171 3.006 3.355 3.861 3.968a.5.5 0 0 0 .698-.116.5.5 0 0 0-.116-.698c-.617-.44-1.521-1.205-2.621-2.483 1.269-.045 2.742-.81 3.971-2.064 1.115-1.139 1.798-2.444 1.973-3.592.812.891 1.634 1.627 2.456 2.201a.5.5 0 1 0 .572-.821ZM10.07 9.846c-1.065 1.089-2.357 1.766-3.372 1.766-.414 0-.738-.114-.962-.341l-.008-.008c-.136-.143-.296-.484-.335-.787.342.1.688.195 1.137.294.241.076.5.051.752-.072.426-.206.8-.685 1.002-1.28.109-.323.157-.644.147-.937.381.051.828-.02 1.253-.208.785-.349 1.288-.984 1.25-1.583a.487.487 0 0 0-.53-.468.5.5 0 0 0-.468.53c.005.084-.189.398-.658.606-.452.201-.791.145-.859.085l-.008-.017-.019-.035c-.263-.461-1.36-2.958-1.988-4.547q.218-.028.466-.104a.501.501 0 0 0-.293-.957c-.461.141-.528.07-.569-.019l-.009-.023c0-.089.194-.397.658-.603.448-.198.786-.145.856-.087.214.599.373 1.075.509 1.482.323.967.519 1.552.988 2.417q.03.056.069.101a.5.5 0 0 0 .375.168c.045-.004.089-.006.133-.018.786-.197 1.54-.131 1.854.161q.09.119.181.235c.481.856.021 2.639-1.552 4.247Z"/></svg>