<!-- SPDX-FileCopyrightText: © 2025 Schneider Electric SPDX-License-Identifier: LicenseRef-Proprietary -->
<svg xmlns="http://www.w3.org/2000/svg" viewBox="0 0 16 16"><path d="M15.781 8.107c-1.182-.802-2.371-1.946-3.541-3.405a2 2 0 0 0-.289-.362l-.011-.011c-.669-.66-1.733-.823-2.954-.463-.83-.719-1.214-1.209-1.928-2.119C6.76 1.367 6.409.92 5.952.363L5.94.349h0L5.926.333c-.52-.555-1.539-.403-2.37.358-.496.454-.805 1.028-.827 1.536-.013.303.075.57.253.774.387.516.734.967 1.056 1.371-.424-.331-.841-.664-1.242-.987l-.017-.013-.016-.011c-.623-.44-1.589-.083-2.248.831C.123 4.734-.063 5.358.02 5.86c.049.299.188.543.405.708A45 45 0 0 0 2.485 8.3a.5.5 0 0 0 .616-.788 36 36 0 0 1-1.146-.94c.177-.12.34-.267.487-.414a.5.5 0 1 0-.705-.709c-.473.471-.576.415-.696.33l-.008-.006c-.056-.062-.072-.488.295-.997.368-.511.78-.631.859-.599 1.785 1.44 3.677 2.9 5.44 3.855l.032.027q.036.036.075.069l.013.02c.061.088.062.5-.296.996-.371.514-.782.626-.862.599l-.025-.017-.035-.021-.457-.246a20 20 0 0 1-1.215-.688l-.021-.013a.5.5 0 0 0-.154-.058q0 0 0 0h0a.5.5 0 0 0-.222.008h-.001a.52.52 0 0 0-.307.237l-.011.021c-.542 1.05-.297 2.286.243 2.852 1.739 2.24 3.184 3.462 4.091 4.093a.496.496 0 0 0 .696-.125.5.5 0 0 0-.125-.695c-.66-.459-1.627-1.257-2.803-2.591 1.298-.028 2.878-.777 4.231-2.123 1.167-1.161 1.924-2.53 2.098-3.761.876.941 1.763 1.718 2.65 2.32.229.157.54.097.694-.133a.5.5 0 0 0-.133-.694Zm-6.015 1.56c-1.659 1.649-3.787 2.322-4.651 1.471l-.008-.008c-.188-.191-.325-.687-.246-1.192.233.132.473.261.736.401l.439.237c.622.413 1.572.053 2.223-.848.33-.457.506-.952.515-1.388.404-.078.839-.301 1.233-.661.692-.633.989-1.454.74-2.042a.5.5 0 0 0-.921.389c.049.116-.077.533-.494.915-.468.428-.897.46-.966.412l-.02-.02-.03-.027-.072-.061-.023-.02C6.735 5.964 5.888 5.127 4.485 3.322c.245-.104.442-.246.555-.327a.5.5 0 1 0-.583-.813c-.51.366-.614.275-.712.169l-.008-.009c-.041-.072.031-.493.494-.916s.89-.459.964-.414c.444.542.786.978 1.077 1.349.786 1.002 1.22 1.555 2.275 2.44l.048.037a.5.5 0 0 0 .456.055c.943-.333 1.731-.285 2.17.129l.2.254q.188.325.188.806c0 1.08-.706 2.453-1.842 3.583Z"/></svg>