<!-- SPDX-FileCopyrightText: © 2025 Schneider Electric SPDX-License-Identifier: LicenseRef-Proprietary -->
<svg xmlns="http://www.w3.org/2000/svg" viewBox="0 0 16 16"><path d="M8.567 4a.5.5 0 0 0 0 1H11.5a.5.5 0 0 0 0-1z"/><path d="M5.5 13H2.947A1.95 1.95 0 0 1 1 11.054V2.947A1.95 1.95 0 0 1 2.947 1h8.107C12.127 1 13 1.873 13 2.946V5.5a.5.5 0 0 0 1 0V2.946A2.95 2.95 0 0 0 11.054 0H2.947A2.95 2.95 0 0 0 0 2.947v8.107A2.95 2.95 0 0 0 2.947 14H5.5a.5.5 0 0 0 0-1Z"/><path d="M6.313 8.168a.5.5 0 0 0-.707 0L4.492 9.281 3.378 8.168a.5.5 0 0 0-.707.707l1.114 1.114-1.114 1.113a.5.5 0 0 0 .707.707l1.114-1.113 1.114 1.113a.5.5 0 0 0 .708 0 .5.5 0 0 0 0-.707L5.2 9.989l1.114-1.114a.5.5 0 0 0 0-.707ZM15.5 6.692c-4.856 0-8.808 3.951-8.808 8.808a.5.5 0 0 0 1 0c0-4.305 3.502-7.808 7.808-7.808a.5.5 0 0 0 0-1Z"/><path d="M14.5 11h-4a.5.5 0 0 0 0 1h4a.5.5 0 0 0 0-1Zm0 2h-4a.5.5 0 0 0 0 1h4a.5.5 0 0 0 0-1ZM7 4.5a.5.5 0 0 0-.5-.5H4.992V2.5a.5.5 0 0 0-1 0V4H2.5a.5.5 0 0 0 0 1h1.492v1.5a.5.5 0 0 0 1 0V5H6.5a.5.5 0 0 0 .5-.5Z"/></svg>