<!-- SPDX-FileCopyrightText: © 2025 Schneider Electric SPDX-License-Identifier: LicenseRef-Proprietary -->
<svg xmlns="http://www.w3.org/2000/svg" viewBox="0 0 16 16"><path d="M13.735 16H2.265A2.267 2.267 0 0 1 0 13.735V4.266a2.27 2.27 0 0 1 2.25-2.265h.247L2.5 2a.5.5 0 0 1 .003 1h-.247A1.27 1.27 0 0 0 1 4.266V6h11.5a.5.5 0 0 1 0 1H1v6.735C1 14.432 1.567 15 2.265 15h11.471c.697 0 1.265-.567 1.265-1.265V4.263c0-.696-.566-1.263-1.263-1.263h-2.237a.5.5 0 0 1-.5-.5v-.78c0-.267-.069-.713-.526-.72-.451.008-.474.601-.474.72v1.324c0 .913.136.956.566.956a.5.5 0 0 1 0 1C9.001 5 9.001 3.629 9.001 3.044V3h-2.5a.5.5 0 0 1-.5-.5v-.78c0-.267-.069-.713-.526-.72-.451.008-.474.601-.474.72v1.324c0 .913.136.956.566.956a.5.5 0 0 1 0 1C4.001 5 4.001 3.629 4.001 3.044V1.72C4 .904 4.451.026 5.438 0h.066c1.032.022 1.495.875 1.495 1.72V2h2v-.28C9 .904 9.451.026 10.438 0h.066c1.032.022 1.495.875 1.495 1.72V2h1.737a2.265 2.265 0 0 1 2.263 2.263v9.473a2.267 2.267 0 0 1-2.265 2.265ZM3 8a1 1 0 1 0 0 2 1 1 0 0 0 0-2Z"/></svg>