<!-- SPDX-FileCopyrightText: © 2025 Schneider Electric SPDX-License-Identifier: LicenseRef-Proprietary -->
<svg xmlns="http://www.w3.org/2000/svg" viewBox="0 0 16 16"><path d="M15.5 3.659c-.323-.322-.788-.526-1.206-.496l-1.8.01c-.664.005-.853.006-1.167 0a.1.1 0 0 1-.098-.097c.005-.66-.282-1.29-.769-1.685a1.87 1.87 0 0 0-1.55-.39H6.678a1.87 1.87 0 0 0-1.545.385c-.457.369-.74.945-.771 1.56-.047.024-.105.049-.103.055H1.655C.742 3.001 0 3.744 0 4.656v9.151C0 14.465.535 15 1.193 15H6.5a.5.5 0 0 0 0-1H1.193A.194.194 0 0 1 1 13.807V4.655C1 4.294 1.294 4 1.655 4l2.695-.008c.466-.085 1.009-.381 1.009-.934 0-.357.15-.692.402-.896a.88.88 0 0 1 .761-.174q.053.01.105.011h2.332q.053 0 .104-.011a.88.88 0 0 1 .765.177c.253.206.402.543.399.902a1.1 1.1 0 0 0 1.077 1.105c.323.006.516.006 1.194 0l1.798-.01c.167.044.362.072.496.205a.7.7 0 0 1 .205.49v8.949a.194.194 0 0 1-.193.193H9.925L7.88 11.811a.5.5 0 0 0-.294-.153 2.95 2.95 0 0 1-2.1-1.39c-.471-.771-.559-1.694-.248-2.597.228-.66 1.031-1.473 1.686-1.705.974-.347 1.994-.218 2.793.348a2.97 2.97 0 0 1 1.253 2.417c0 .933-.427 1.791-1.171 2.356a.5.5 0 0 0 .605.797 3.93 3.93 0 0 0 1.565-3.153 3.96 3.96 0 0 0-1.676-3.233c-1.068-.755-2.419-.928-3.705-.474-.941.333-1.971 1.375-2.297 2.321-.41 1.189-.289 2.413.34 3.444a3.95 3.95 0 0 0 2.632 1.828l2.078 2.223a.5.5 0 0 0 .365.158h5.096c.658 0 1.193-.535 1.193-1.193V4.857c0-.452-.178-.878-.5-1.199Z"/></svg>