<!-- SPDX-FileCopyrightText: © 2025 Schneider Electric SPDX-License-Identifier: LicenseRef-Proprietary -->
<svg xmlns="http://www.w3.org/2000/svg" viewBox="0 0 16 16"><path d="M10.528 9.14a.5.5 0 0 0 .025.999h.025l1.931-.1a.5.5 0 0 0 .474-.524c-.014-.275-.222-.516-.524-.474z"/><path d="M15.206 7.315c-.537-.58-.909-.826-1.156-.988-.137-.09-.204-.136-.235-.175-.041-.067-.092-.201-.161-.369C13.285 4.88 12.514 3 10.998 3h-6.12c-1.476 0-2.222 1.821-2.58 2.696-.066.162-.115.29-.143.338-.039.05-.104.094-.234.18-.239.157-.6.395-1.12.957-.732.791-.798 2.626-.76 4.489l.006.385C.047 13.233.452 14 1.08 14h1.408a.5.5 0 0 0 .385-.182L3.55 13h8.708c.091.168.227.405.429.752a.5.5 0 0 0 .432.248h1.382a.5.5 0 0 0 0-1h-1.094a14 14 0 0 1-.362-.653.5.5 0 0 0-.476-.347H3.314a.5.5 0 0 0-.385.182L2.252 13H1.209c-.067-.133-.162-.458-.162-.955l-.006-.404c-.018-.871-.064-3.186.495-3.791.437-.472.713-.654.935-.8.171-.113.333-.219.477-.405.09-.117.16-.288.276-.57C3.5 5.402 4.074 4 4.879 4h6.12c.846 0 1.444 1.46 1.731 2.162.129.314.194.47.282.585.146.189.313.299.489.416.23.152.518.341.972.832.57.617.541 1.743.52 2.565q-.007.222-.008.408a.5.5 0 0 0 1 0q.001-.174.007-.382c.024-.938.062-2.355-.784-3.27Z"/><path d="M3.426 9.04c-.284-.029-.511.197-.525.474a.5.5 0 0 0 .474.524l1.93.1h.026a.5.5 0 0 0 .025-.999z"/></svg>