<!-- SPDX-FileCopyrightText: © 2025 Schneider Electric SPDX-License-Identifier: LicenseRef-Proprietary -->
<svg xmlns="http://www.w3.org/2000/svg" viewBox="0 0 16 16"><path d="M15.97 9.015c-.082-1.187-.949-2.182-2.264-2.597-.31-.097-.575-.425-.913-.841-.879-1.083-2.207-2.72-6.293-2.72a.5.5 0 0 0-.5.5v1.727q0 .075.022.148c.064.207.316.353.533.355.684.007 1.923.219 3.255 1.414H6.057c-.011 0-1.055-.032-1.057-.539v-2.83a.5.5 0 0 0-.517-.5c-1.18 0-2.154.409-2.897 1.216C-.246 6.337-.022 10.067.04 10.761c0 1.18.958 2.139 2.134 2.139 1.017 0 1.654-.499 1.957-.899H8.5a.5.5 0 0 0 0-1H3.848a.5.5 0 0 0-.467.323c-.05.087-.371.576-1.207.576-.625 0-1.134-.511-1.137-1.191-.035-.401-.296-3.967 1.284-5.684a2.67 2.67 0 0 1 1.678-.863v2.302c.004 1.049 1.066 1.532 2.054 1.537h4.93a.5.5 0 0 0 .383-.822C9.748 5.25 8.08 4.727 6.999 4.613v-.748c3.211.115 4.208 1.344 5.017 2.341.408.502.793.977 1.389 1.165.927.293 1.513.934 1.566 1.713.051.724.033 1.443.017 1.916h-1.512a.5.5 0 0 0-.36.153l-.073.077c-.229.24-.653.689-1.033.689a1.13 1.13 0 0 1-1.129-1.132.5.5 0 0 0-1 0c0 1.176.955 2.132 2.129 2.132.717 0 1.283-.511 1.681-.92h1.78a.5.5 0 0 0 .5-.5l.009-.25c.019-.468.053-1.34-.01-2.235Z"/></svg>