<!-- SPDX-FileCopyrightText: © 2025 Schneider Electric SPDX-License-Identifier: LicenseRef-Proprietary -->
<svg xmlns="http://www.w3.org/2000/svg" viewBox="0 0 16 16"><path d="M6.03 11.418a.5.5 0 0 0 .126.695 4.96 4.96 0 0 0 2.84.885c2.756 0 4.998-2.242 4.998-4.998s-2.242-4.998-4.998-4.998S3.997 5.244 3.997 8c0 .839.212 1.67.614 2.402a.5.5 0 1 0 .877-.481 4.003 4.003 0 0 1 3.508-5.92c2.205 0 3.998 1.793 3.998 3.998s-1.794 3.998-3.998 3.998a3.97 3.97 0 0 1-2.271-.707.5.5 0 0 0-.696.127Z"/><path d="M15.5 0H4.46a.5.5 0 0 0 0 1H15v14H1V1h1.001l.041 12.502a.5.5 0 0 0 .5.498h.001a.5.5 0 0 0 .499-.502L3 .498a.5.5 0 0 0-.5-.499h-2A.5.5 0 0 0 0 .5v15a.5.5 0 0 0 .5.5h15a.5.5 0 0 0 .5-.5V.5a.5.5 0 0 0-.5-.5Z"/><path d="M9.014 7.371a.5.5 0 0 0 0-1c-.898 0-1.63.731-1.63 1.629a1.631 1.631 0 0 0 2.724 1.208c.238-.216.405-.494.484-.803a.5.5 0 0 0-.968-.248.63.63 0 0 1-.186.309c-.379.34-1.054.037-1.054-.466a.63.63 0 0 1 .63-.629Z"/></svg>