<!-- SPDX-FileCopyrightText: © 2025 Schneider Electric SPDX-License-Identifier: LicenseRef-Proprietary -->
<svg xmlns="http://www.w3.org/2000/svg" viewBox="0 0 16 16"><path d="m15.409 12.174-.306-.305c-.346-.346-1.442-1.178-2.463-1.817-.903-.566-1.571-.891-2.069-.991.138-.333.21-.693.21-1.06v-.022q.054-.045.104-.095l4.61-4.609c.296-.296.458-.689.458-1.107s-.162-.811-.458-1.106l-.469-.469a2.02 2.02 0 0 0-2.853 0l-.306.306c-.033.033-2.468 2.878-2.782 4.543a2.8 2.8 0 0 0-1.107-.221 1 1 0 0 0-.096-.104L3.273.506A1.55 1.55 0 0 0 2.167.047h0c-.418 0-.812.163-1.107.459L.591.974a2.02 2.02 0 0 0 0 2.852l.306.306c.347.347 1.444 1.178 2.464 1.817.902.565 1.571.89 2.069.991-.138.333-.21.693-.21 1.06v.021q-.054.045-.104.095L.505 12.727c-.296.295-.459.688-.459 1.107s.163.812.459 1.107l.469.468c.393.393.909.59 1.426.59s1.033-.197 1.426-.59l.305-.305c.041-.041 3.724-4.341 2.607-5.458a.5.5 0 0 0-.765.638c.01.661-1.848 3.412-2.549 4.113l-.305.305a1.02 1.02 0 0 1-1.438 0l-.469-.469a.56.56 0 0 1 0-.799l4.609-4.61a.6.6 0 0 1 .142-.103.5.5 0 0 0 .269-.503 1.78 1.78 0 0 1 .429-1.392.5.5 0 0 0-.194-.797l-.286-.111a.5.5 0 0 0-.465.055h-.005c-.671 0-3.409-1.85-4.107-2.548l-.306-.306a1.02 1.02 0 0 1 0-1.438l.469-.468a.56.56 0 0 1 .798 0l4.61 4.609a.6.6 0 0 1 .104.143.49.49 0 0 0 .504.269 1.8 1.8 0 0 1 1.392.429.5.5 0 0 0 .796-.194l.111-.286a.5.5 0 0 0-.055-.466c-.011-.659 1.848-3.411 2.548-4.113l.306-.306a1.017 1.017 0 0 1 1.438 0l.469.47a.565.565 0 0 1 0 .799l-4.611 4.61a.6.6 0 0 1-.142.103.5.5 0 0 0-.268.509q.014.104.014.211c0 .433-.157.85-.443 1.175a.5.5 0 0 0 .195.797l.286.111c.156.06.33.038.465-.055.658-.036 3.412 1.847 4.113 2.549l.306.305c.192.192.298.448.298.719s-.105.526-.298.719l-.469.469a.58.58 0 0 1-.8 0L8.825 10.18a.5.5 0 0 0-.707.707l4.609 4.609c.592.592 1.622.593 2.214 0l.469-.469c.381-.381.591-.887.591-1.426s-.21-1.045-.591-1.426Z"/><path d="M8.244 11.721a3.7 3.7 0 0 1-.858-.045.5.5 0 1 0-.168.986 4.8 4.8 0 0 0 1.089.058.5.5 0 0 0-.062-.998Zm-.493-7.442c.289-.016.582 0 .862.046a.5.5 0 0 0 .165-.986 5 5 0 0 0-1.084-.058.499.499 0 1 0 .056.998Zm4.334 4.912a.5.5 0 0 0 .574-.412 4.8 4.8 0 0 0 .057-1.083c-.015-.275-.213-.48-.527-.471a.5.5 0 0 0-.471.527q.006.116.006.234-.001.324-.052.631a.5.5 0 0 0 .412.574ZM3.917 6.808a.5.5 0 0 0-.576.41 5 5 0 0 0-.057 1.089.5.5 0 0 0 .499.469h.032a.5.5 0 0 0 .468-.53 3.8 3.8 0 0 1 .046-.86.5.5 0 0 0-.41-.576Z"/></svg>