<!-- SPDX-FileCopyrightText: © 2025 Schneider Electric SPDX-License-Identifier: LicenseRef-Proprietary -->
<svg xmlns="http://www.w3.org/2000/svg" viewBox="0 0 16 16"><path d="m15.408 12.173-.305-.304c-.346-.347-1.442-1.179-2.463-1.818-.902-.565-1.571-.89-2.069-.991.138-.333.21-.692.21-1.06v-.021q.054-.045.104-.096l4.61-4.609c.61-.611.61-1.604 0-2.214l-.469-.469a2.02 2.02 0 0 0-2.853 0l-.305.305c-.347.346-1.179 1.443-1.818 2.464-.565.902-.89 1.571-.991 2.069-.339-.141-.697-.188-1.082-.21a2 2 0 0 0-.095-.104L3.273.505a1.567 1.567 0 0 0-2.213 0L.591.974a2.02 2.02 0 0 0 0 2.852l.306.306c.347.347 1.444 1.178 2.464 1.817.902.566 1.571.891 2.069.992-.138.333-.21.693-.21 1.06v.021q-.054.045-.104.096L.505 12.727a1.55 1.55 0 0 0-.458 1.107c0 .418.163.811.458 1.106l.469.469c.381.381.887.591 1.426.591s1.045-.21 1.426-.591l.306-.306c.346-.346 1.178-1.442 1.817-2.463 1.036-1.652 1.264-2.52.789-2.995a.5.5 0 0 0-.765.638c.01.662-1.848 3.413-2.549 4.113l-.306.306a1.04 1.04 0 0 1-1.438 0l-.469-.469a.56.56 0 0 1 0-.799l4.61-4.61a.5.5 0 0 1 .14-.101.5.5 0 0 0 .27-.505 1.78 1.78 0 0 1 .429-1.393.5.5 0 0 0-.195-.796l-.286-.11a.5.5 0 0 0-.465.055h-.005c-.671 0-3.409-1.85-4.107-2.549l-.306-.306a1.02 1.02 0 0 1 0-1.438l.469-.469a.566.566 0 0 1 .8 0l4.609 4.609a.6.6 0 0 1 .104.142.49.49 0 0 0 .504.269 1.82 1.82 0 0 1 1.393.43.504.504 0 0 0 .797-.196l.11-.286a.5.5 0 0 0-.056-.465c-.011-.661 1.848-3.413 2.549-4.114l.305-.305a1.017 1.017 0 0 1 1.438 0l.469.469a.566.566 0 0 1 0 .8l-4.612 4.611a.6.6 0 0 1-.138.1.5.5 0 0 0-.271.505q.013.107.014.218c0 .433-.157.85-.443 1.175a.498.498 0 0 0 .194.796l.286.111a.5.5 0 0 0 .467-.055h.006c.672 0 3.408 1.85 4.107 2.55l.305.304a1.02 1.02 0 0 1 0 1.438l-.469.469a.567.567 0 0 1-.8 0l-4.609-4.61a.5.5 0 0 0-.707.707l4.609 4.61a1.566 1.566 0 0 0 2.214 0l.469-.469c.381-.381.591-.888.591-1.426s-.21-1.046-.592-1.428Z"/></svg>