<!-- SPDX-FileCopyrightText: © 2025 Schneider Electric SPDX-License-Identifier: LicenseRef-Proprietary -->
<svg xmlns="http://www.w3.org/2000/svg" viewBox="0 0 16 16"><path d="M12.665 4.048c-.487-.632-1.37-.972-2.626-1.014l-.009-.211a.51.51 0 0 0-.521-.479.5.5 0 0 0-.479.521l.006.155c-.443-.003-.931-.007-1.38-.012l1.777-1.187a.5.5 0 0 0 .222-.425L9.641.597a.5.5 0 0 0-.462-.49L7.731 0 6.45.089a.5.5 0 0 0-.458.41l-.15.832a.5.5 0 0 0 .984.178l.081-.45.82-.061.923.071v.071L5.882 2.989c-1.154.029-1.984.351-2.468.958-.476.597-.472 1.327-.395 1.664A.5.5 0 0 0 3.506 6h.993a.5.5 0 0 0 0-1h-.498a1 1 0 0 1 .202-.438c.307-.376.948-.575 1.854-.575a.5.5 0 0 0 .119-.014c.436.032 1.345.037 3.379.049.038-.007.062-.003.092-.008q.059.014.122.015c1.048 0 1.773.214 2.095.619a.9.9 0 0 1 .167.345h-.532a.5.5 0 0 0-.5.5v8.806c0 .633-.611.701-.874.701-.544 0-1.126-.289-1.126-.72V6.493a.5.5 0 0 0-1 0v7.147c0 1.073-.954 1.359-1.517 1.359-.551 0-1.483-.275-1.483-1.308V7.499a.5.5 0 0 0-1 0v6.192c0 1.515 1.249 2.308 2.483 2.308.696 0 1.396-.251 1.881-.74.405.475 1.091.74 1.762.74 1.121 0 1.874-.684 1.874-1.701V5.993h.526a.5.5 0 0 0 .484-.374c.022-.086.204-.86-.345-1.571Z"/><path d="M7 13.5v-7a.5.5 0 0 0-1 0v7a.5.5 0 0 0 1 0Z"/></svg>