<!-- SPDX-FileCopyrightText: © 2025 Schneider Electric SPDX-License-Identifier: LicenseRef-Proprietary -->
<svg xmlns="http://www.w3.org/2000/svg" viewBox="0 0 16 16"><path d="M6.406 12.22a6.7 6.7 0 0 1-2.187.951c.203-.236.411-.493.595-.748.01-.014.996-1.455.866-1.902a.5.5 0 0 0-.399-.354C2.801 9.763 1 8.2 1 6.452c0-2.1 2.462-3.809 5.489-3.809 1.729 0 2.851.314 3.87 1.086a.499.499 0 1 0 .603-.797c-1.193-.904-2.531-1.289-4.473-1.289C2.911 1.643 0 3.8 0 6.452c0 2.116 1.818 3.935 4.494 4.577-.117.23-.279.517-.491.811-.572.794-1.446 1.651-1.455 1.66a.5.5 0 0 0 .35.858h.02c1.448-.057 2.886-.521 4.049-1.309a.5.5 0 1 0-.56-.828Z"/><path d="M16 8.46c0-1.798-1.465-3.313-3.646-3.772-1.134-.254-2.451-.059-2.512-.049-.428.07-.833.177-1.206.318-1.746.662-2.83 2.004-2.83 3.504 0 1.578 1.194 2.969 3.061 3.587.34.541 1.474 1.989 3.964 2.237l.05.003a.5.5 0 0 0 .317-.886c-.204-.169-.675-.629-.954-1.143 2.179-.483 3.754-2.039 3.754-3.799Zm-4.497 2.912a.5.5 0 0 0-.428.602c.074.345.229.673.412.966-1.322-.544-1.809-1.48-1.833-1.53a.5.5 0 0 0-.309-.261c-1.518-.448-2.538-1.528-2.538-2.688 0-1.074.837-2.058 2.184-2.569a5.3 5.3 0 0 1 1.007-.265c.008-.001.464-.068 1.035-.068a5.2 5.2 0 0 1 1.113.107C13.853 6.024 15 7.147 15 8.46c0 1.396-1.536 2.675-3.497 2.912Z"/></svg>