<!-- SPDX-FileCopyrightText: © 2025 Schneider Electric SPDX-License-Identifier: LicenseRef-Proprietary -->
<svg xmlns="http://www.w3.org/2000/svg" viewBox="0 0 16 16"><path d="M8.5 16a.5.5 0 0 1-.277-.084L5.349 14H2.49a2.497 2.497 0 0 1-2.489-2.5V4.489A2.49 2.49 0 0 1 2.49 2h6.011a.5.5 0 0 1 0 1H2.489A1.49 1.49 0 0 0 1 4.489V11.5c0 .827.668 1.5 1.489 1.5H5.5c.099 0 .195.029.277.084l3 2a.5.5 0 0 1-.278.916Zm3.011-2H9.5a.5.5 0 0 1 0-1h2.011A1.49 1.49 0 0 0 13 11.511V7.5a.5.5 0 0 1 1 0v4.011A2.49 2.49 0 0 1 11.511 14ZM10.5 11h-7a.5.5 0 0 1 0-1h7a.5.5 0 0 1 0 1ZM7.766 8.734a.5.5 0 0 1-.494-.58l.388-2.389a.5.5 0 0 1 .14-.273L13.036.257c.267-.268.688-.329 1.152-.166.35.122.718.365 1.037.685.319.319.562.687.685 1.037.163.464.102.884-.166 1.152l-3.726 3.726a.5.5 0 0 1-.707-.707l3.726-3.726c-.023-.017-.114-.371-.519-.775-.405-.405-.759-.497-.835-.481l-5.06 5.083-.251 1.545 1.704-.277a.501.501 0 0 1 .16.988l-2.389.388-.08.006ZM5.5 8.5h-3a.5.5 0 0 1 0-1h3a.5.5 0 0 1 0 1Zm1-2.5h-3a.5.5 0 0 1 0-1h3a.5.5 0 0 1 0 1Z"/></svg>