<!-- SPDX-FileCopyrightText: © 2025 Schneider Electric SPDX-License-Identifier: LicenseRef-Proprietary -->
<svg xmlns="http://www.w3.org/2000/svg" viewBox="0 0 16 16"><path d="M4.577 7H1.699C1.307 7 1 6.707 1 6.333V1.667C1 1.293 1.307 1 1.699 1h5.606c.48 0 .694.206.694.667V4.5a.5.5 0 0 0 1 0V1.667C8.999.655 8.334 0 7.305 0H1.699C.762 0 0 .748 0 1.667v4.667c0 .919.762 1.667 1.699 1.667h1.924l-.562.812a.499.499 0 0 0 .411.784.5.5 0 0 0 .412-.216l1.104-1.597a.501.501 0 0 0-.411-.785Z"/><path d="m5.771 5.369-.195-.112a4 4 0 0 1-.399-.266c.302-.452.594-1.057.83-1.865a.5.5 0 0 0 .02-.123h.082a.5.5 0 0 0 0-1h-1.08v-.272a.5.5 0 0 0-1 0v.272h-1.08a.5.5 0 0 0 0 1h2.05c-.15.48-.317.862-.488 1.166a10 10 0 0 1-.275-.57.5.5 0 1 0-.912.41c.184.409.346.732.526 1.005a1.46 1.46 0 0 1-.579.325.49.49 0 0 0-.286.624.51.51 0 0 0 .625.316c.206-.061.541-.202.913-.529.157.124.334.245.542.368l.216.124a.503.503 0 0 0 .681-.191.5.5 0 0 0-.191-.681Zm6.95 6.62a.5.5 0 0 0 .448-.724l-1.657-3.314a.5.5 0 0 0-.439-.276.55.55 0 0 0-.448.263l-1.784 3.313a.5.5 0 0 0 .881.475l.396-.737h1.796l.361.724a.5.5 0 0 0 .447.276Zm-2.067-2 .393-.729.364.729z"/><path d="M14.272 6H7.727c-.953 0-1.728.748-1.728 1.667v4.606a1.73 1.73 0 0 0 1.728 1.728h1.604l1.97 1.863a.5.5 0 0 0 .707-.019.5.5 0 0 0-.02-.707l-2.114-2a.5.5 0 0 0-.344-.137H7.726a.73.73 0 0 1-.728-.728V7.667c0-.328.272-.667.728-.667h6.545c.455 0 .728.339.728.667v4.673c0 .37-.319.66-.728.66h-1.772a.5.5 0 0 0 0 1h1.772c.969 0 1.728-.729 1.728-1.66V7.667c0-.919-.775-1.667-1.728-1.667Z"/></svg>