<!-- SPDX-FileCopyrightText: © 2025 Schneider Electric SPDX-License-Identifier: LicenseRef-Proprietary -->
<svg xmlns="http://www.w3.org/2000/svg" viewBox="0 0 16 16"><path d="M8 16c-4.411 0-8-3.589-8-8s3.589-8 8-8c1.681 0 3.289.515 4.651 1.49a.5.5 0 0 1-.582.814A6.95 6.95 0 0 0 8 1C4.14 1 1 4.14 1 8s3.14 7 7 7 7-3.141 7-7a6.94 6.94 0 0 0-1.137-3.827c-.662.458-1.302.947-1.906 1.456-1.111.936-2.494 2.1-3.682 3.955-.438.685-.82 1.414-1.134 2.17a.5.5 0 0 1-.87.098c-.01-.015-1.039-1.455-2.187-2.231a.5.5 0 1 1 .56-.828c.769.52 1.466 1.27 1.918 1.81.259-.537.551-1.059.87-1.557 1.27-1.983 2.717-3.202 3.879-4.181a27 27 0 0 1 2.399-1.796l.038-.023a.5.5 0 0 1 .639.138 7.93 7.93 0 0 1 1.611 4.817c0 4.411-3.589 8-8 8Z"/></svg>