<!-- SPDX-FileCopyrightText: © 2025 Schneider Electric SPDX-License-Identifier: LicenseRef-Proprietary -->
<svg xmlns="http://www.w3.org/2000/svg" viewBox="0 0 16 16"><path d="M15.184 3.46c-.464-.444-.976-.665-1.524-.633-.896.039-1.508.708-1.552.758a4162 4162 0 0 0-4.442 4.409.5.5 0 0 0 .717.697c.083-.084 4.431-4.396 4.452-4.419.004-.004.392-.429.874-.447.265-.007.522.106.784.357.233.225.512.566.508.917-.005.317-.238.533-.28.574L9.94 10.939c-.009.011-.831 1.059-1.944 1.06-1.108 0-1.926-1.05-1.961-1.094L1.241 5.636S1.005 5.417 1 5.1c-.004-.351.274-.693.509-.917.26-.25.51-.364.781-.357.483.018.872.443.897.469l3.067 3.048a.5.5 0 0 0 .707-.707L3.915 3.611c-.067-.076-.68-.745-1.577-.783-.555-.029-1.059.19-1.521.634C.259 3.995-.016 4.56 0 5.138c.021.749.527 1.203.54 1.209l4.724 5.197c.045.06 1.119 1.455 2.742 1.456 1.611 0 2.685-1.396 2.701-1.422l4.708-5.188c.058-.049.563-.504.584-1.252.017-.579-.258-1.143-.815-1.678Z"/></svg>