<!-- SPDX-FileCopyrightText: © 2025 Schneider Electric SPDX-License-Identifier: LicenseRef-Proprietary -->
<svg xmlns="http://www.w3.org/2000/svg" viewBox="0 0 16 16"><path d="M5.395 5.229a.5.5 0 0 0 .841.542c.711-1.106-.077-2.206-.113-2.255-.335-.451-.198-.743-.189-.76a.5.5 0 0 0-.846-.534c-.2.317-.376 1.072.229 1.885.017.024.416.6.079 1.124Z"/><path d="M14.639 12.506c0-.667-.549-1.21-1.307-1.21h-.014a1.95 1.95 0 0 0-.819.377l-1.367.003c-.265-.014-.898-.127-1.205-.429-.042-.034-1.05-.832-2.163-.832h-.003c-.118-.006-1.154-.065-1.8.581-.242.241-.52.681-.464 1.42.006.048.039.291.14.586H5.21c-.011 0-1.089-.044-1.65-.64-.242-.258-.353-.584-.339-1.044-.002-.056-.037-1.365 1.868-2.032a.5.5 0 0 0 .166-.097c.013-.012 1.368-1.188 2.995-1.191.017-.005 1.789-.197 2.755 2.17a.5.5 0 0 0 .926-.377c-1.251-3.069-3.7-2.798-3.743-2.789-1.731 0-3.169 1.087-3.517 1.372-2.561.941-2.454 2.922-2.448 2.955-.024.685.181 1.263.61 1.719.853.905 2.293.951 2.365.953l1.297.004h.001a.5.5 0 0 0 .353-.854c-.235-.234-.338-.697-.356-.832-.021-.275.037-.476.174-.614.275-.277.83-.307 1.058-.291.776 0 1.532.577 1.538.577.607.605 1.697.677 1.845.684l1.582-.002a.5.5 0 0 0 .353-.146c.167-.167.375-.228.376-.236.128.009.222.118.222.216 0 .197-.096.417-.131.482-.103.185-.057.437.082.596.048.055.09.268.023.416-.025.055-.062.109-.213.109-.45 0-.55-.197-.552-.197-.064-.215-.266-.33-.487-.355-.218.009-.396-.007-.563-.018-.777-.05-1.31-.034-2.403.789-.944.709-1.503.67-1.565.671H1.711c-.604 0-.698-.556-.711-.689V5.236a.5.5 0 1 0-1 0v9.105c.038.573.443 1.657 1.71 1.657l6.048-.005c.018.002.065.008.139.008.304 0 1.06-.094 2.098-.875.857-.644 1.153-.626 1.743-.59q.162.011.346.018c.225.28.641.555 1.316.555.523 0 .95-.275 1.141-.736.157-.38.137-.838-.031-1.189a2 2 0 0 0 .128-.678ZM14.563.023 6.817 0h-.001a.5.5 0 0 0-.001 1l7.739.023q.445.014.447.438v8.512a.5.5 0 0 0 1 0V1.461C16 .411 15.141.026 14.563.023Z"/><path d="M10.025 2.065a.5.5 0 0 0-.69.156c-.2.317-.376 1.072.229 1.885.017.024.416.6.079 1.124a.5.5 0 0 0 .841.542c.711-1.106-.077-2.206-.113-2.255-.335-.451-.198-.743-.189-.76a.5.5 0 0 0-.156-.69Zm-2.106 0a.5.5 0 0 0-.69.156c-.2.317-.376 1.072.229 1.885.017.024.416.6.079 1.124a.5.5 0 0 0 .841.542c.711-1.106-.077-2.206-.113-2.255-.335-.451-.198-.743-.189-.76a.5.5 0 0 0-.156-.69Z"/></svg>