<!-- SPDX-FileCopyrightText: © 2025 Schneider Electric SPDX-License-Identifier: LicenseRef-Proprietary -->
<svg xmlns="http://www.w3.org/2000/svg" viewBox="0 0 16 16"><path d="M8.983.983c-3.719 0-6.771 2.908-7.003 6.57L.854 6.424a.5.5 0 1 0-.707.707l1.966 1.971a.5.5 0 0 0 .675.03l2.353-1.971a.499.499 0 1 0-.642-.766L2.976 7.67a6.025 6.025 0 0 1 6.008-5.686c3.317 0 6.017 2.699 6.017 6.017s-2.699 6.017-6.017 6.017a6.04 6.04 0 0 1-4.568-2.101L7.27 9.69a.5.5 0 0 0 .113-.664A1.903 1.903 0 0 1 8.984 6.1c1.048 0 1.901.853 1.901 1.901s-.853 1.901-1.901 1.901a.5.5 0 0 0 0 1c1.6 0 2.901-1.302 2.901-2.901S10.584 5.1 8.984 5.1a2.904 2.904 0 0 0-2.66 4.059l-2.919 2.278a.5.5 0 0 0-.097.688 7.04 7.04 0 0 0 5.677 2.892c3.869 0 7.017-3.147 7.017-7.017S12.853.983 8.983.983Z"/></svg>