<!-- SPDX-FileCopyrightText: © 2025 Schneider Electric SPDX-License-Identifier: LicenseRef-Proprietary -->
<svg xmlns="http://www.w3.org/2000/svg" viewBox="0 0 16 16"><path d="M11.667 13.949A7 7 0 0 1 8 14.985c-3.859 0-7-3.137-7-6.993 0-1.277.348-2.526 1.005-3.612a.5.5 0 0 0-.168-.687.503.503 0 0 0-.687.168A8 8 0 0 0 0 7.992c0 4.407 3.588 7.993 8 7.993a8 8 0 0 0 4.193-1.185.5.5 0 0 0-.525-.851Z"/><path d="M3.846 5.783a.497.497 0 0 0-.599.377c-.702 3.097 1.242 4.314 1.325 4.364a.5.5 0 0 0 .753-.349 4.84 4.84 0 0 1 .798-2.008.5.5 0 1 0-.821-.57 5.7 5.7 0 0 0-.747 1.507c-.331-.503-.64-1.371-.333-2.724a.5.5 0 0 0-.377-.598Zm5.039 5.576a.5.5 0 0 0-.372-.927c-.598.239-1.363.286-2.28.144a.51.51 0 0 0-.502.23c-.349.562-.608 1.889.901 2.895a.5.5 0 1 0 .555-.832c-.702-.468-.764-.95-.708-1.252.924.099 1.734.012 2.406-.257Zm6.969 3.787-1.861-1.859A7.98 7.98 0 0 0 16 7.992C15.999 3.585 12.41 0 8 0 6.034 0 4.164.71 2.7 2.005L.854.162a.5.5 0 1 0-.707.707l14.999 14.985a.5.5 0 0 0 .708 0 .5.5 0 0 0 0-.707ZM9.843 9.142 7.518 6.819a5.5 5.5 0 0 1 1.392-.68.5.5 0 0 0-.266-.964c-.038.011-.897.252-1.845.926L5.503 4.806c1.375-.694 3.543-.62 5.015-.57l.336.011a3.66 3.66 0 0 0-.434 1.592c-.036.981-.084 2.294-.577 3.303Zm.738.737c.737-1.253.798-2.905.842-4.099.036-.986.738-1.655.744-1.66a.5.5 0 0 0-.362-.869c-.324.018-.756 0-1.253-.017-1.769-.059-4.177-.143-5.785.834L3.409 2.711A6.97 6.97 0 0 1 8 .998c3.86 0 7 3.137 7 6.992 0 1.69-.608 3.315-1.716 4.587l-2.702-2.7Z"/></svg>