<!-- SPDX-FileCopyrightText: © 2025 Schneider Electric SPDX-License-Identifier: LicenseRef-Proprietary -->
<svg xmlns="http://www.w3.org/2000/svg" viewBox="0 0 16 16"><path d="M13.021 10a2.8 2.8 0 0 0-.865.119.5.5 0 0 0 .279.961c.188-.055.382-.069.578-.08a2 2 0 0 1 1.412.597c.375.38.579.884.575 1.418A2.003 2.003 0 0 1 12.999 15h-.016a2 2 0 0 1-1.412-.597 1.98 1.98 0 0 1-.575-1.418q.003-.324.104-.625a.5.5 0 0 0-.06-.44.5.5 0 0 0-.212-.218L5.114 8.656a.5.5 0 0 0-.667.19A1.849 1.849 0 0 1 1 7.92a1.849 1.849 0 0 1 3.477-.872.5.5 0 0 0 .672.206l5.724-2.998a.5.5 0 0 0 .207-.682A2.003 2.003 0 1 1 15 2.999a2.003 2.003 0 0 1-2.63 1.9.5.5 0 0 0-.311.951q.458.149.938.149c1.655 0 3.002-1.346 3.002-3S14.653 0 12.998 0a3.005 3.005 0 0 0-2.95 3.56l-4.962 2.6A2.85 2.85 0 0 0 0 7.921a2.85 2.85 0 0 0 2.848 2.846c.848 0 1.648-.382 2.185-1.021l5.019 2.675a2.98 2.98 0 0 0 .807 2.685c.562.57 1.314.889 2.116.895h.023a3.004 3.004 0 0 0 3.001-2.978c.006-.802-.301-1.558-.863-2.128s-1.314-.889-2.116-.895Z"/></svg>