<!-- SPDX-FileCopyrightText: © 2025 Schneider Electric SPDX-License-Identifier: LicenseRef-Proprietary -->
<svg xmlns="http://www.w3.org/2000/svg" viewBox="0 0 16 16"><path d="M13.657 2.343a.497.497 0 0 0-.717.01L2.709 12.584A6.95 6.95 0 0 1 1 8c0-3.86 3.14-7 7-7a7 7 0 0 1 3.685 1.047.5.5 0 1 0 .525-.851A8 8 0 0 0 8 0C3.589 0 0 3.589 0 8c0 2.137.832 4.146 2.343 5.657a.5.5 0 0 0 .72-.014L13.291 3.416A6.95 6.95 0 0 1 15 8c0 3.859-3.141 7-7 7a7 7 0 0 1-3.683-1.046.5.5 0 0 0-.527.849q.219.136.447.258A8 8 0 0 0 8 15.999c4.411 0 8-3.589 8-8a7.95 7.95 0 0 0-2.343-5.657Z"/></svg>