<!-- SPDX-FileCopyrightText: © 2025 Schneider Electric SPDX-License-Identifier: LicenseRef-Proprietary -->
<svg xmlns="http://www.w3.org/2000/svg" viewBox="0 0 16 16"><path d="M9.725.015C9.686.005 9.669.013 9.601 0a.48.48 0 0 0-.502.421.5.5 0 0 0 .004.181v5.267c0 .624.508 1.131 1.132 1.131h2.868v2h-2.868c-.624 0-1.132.508-1.132 1.132V13h-2v-2.864C7.103 9.51 6.594 9 5.967 9H3.103V7h2.869c.624 0 1.131-.507 1.131-1.131V3h.5a.5.5 0 0 0 0-1h-1a.5.5 0 0 0-.5.5v3.369A.13.13 0 0 1 5.972 6H2.603a.5.5 0 0 0-.5.5v3a.5.5 0 0 0 .5.5h3.364c.074 0 .136.062.136.136V13.5a.5.5 0 0 0 .5.5h3a.5.5 0 0 0 .5-.5v-3.368c0-.072.059-.132.132-.132h3.368a.5.5 0 0 0 .5-.5v-3a.5.5 0 0 0-.5-.5h-3.368a.13.13 0 0 1-.132-.131V1.115c2.973.756 5 3.482 5 6.833 0 3.889-3.14 7.052-7 7.052s-7-3.163-7-7.052c0-3.483 2.479-6.407 5.895-6.954A.5.5 0 0 0 6.84.006C2.937.631.103 3.971.103 7.948c0 4.439 3.589 8.052 8 8.052s8-3.612 8-8.052c0-4.051-2.62-7.305-6.378-7.933Z"/></svg>