<!-- SPDX-FileCopyrightText: © 2025 Schneider Electric SPDX-License-Identifier: LicenseRef-Proprietary -->
<svg xmlns="http://www.w3.org/2000/svg" viewBox="0 0 16 16"><path d="M14.002 15.999c-.572 0-1.14-.243-1.534-.714a1.98 1.98 0 0 1-.46-1.459 2 2 0 0 1 .364-.988l-1.274-1.519a3.49 3.49 0 0 1-3.192-.516L6.589 12.12c.269.405.414.882.414 1.379 0 .668-.26 1.296-.732 1.768a2.503 2.503 0 0 1-3.536 0c-.472-.472-.732-1.1-.732-1.768s.26-1.295.732-1.768c.31-.311.696-.534 1.117-.646a.5.5 0 0 1 .26.965 1.5 1.5 0 0 0-.67 2.511c.568.567 1.556.565 2.122 0 .283-.283.439-.659.439-1.061s-.156-.777-.439-1.061a.5.5 0 0 1 0-.707h0l.002-.002 1.633-1.634c-.451-.602-.696-1.331-.696-2.097s.245-1.495.696-2.096L5.566 4.269a.5.5 0 0 1-.002-.71c.185-.185.318-.417.386-.671a1.5 1.5 0 0 0-.15-1.139 1.501 1.501 0 0 0-2.748.362c-.071.266-.064.552.02.825h0a1.49 1.49 0 0 0 1.027 1.009q.107.008.206.065a.5.5 0 0 1 .183.683L3.403 6.572c.635.624.796 1.622.331 2.427a2.003 2.003 0 0 1-2.732.732C.54 9.464.209 9.033.07 8.517S.001 7.462.268 7a.5.5 0 1 1 .866.5 1 1 0 0 0-.1.759 1.002 1.002 0 0 0 1.832.241A1 1 0 0 0 2.5 7.134a.5.5 0 0 1-.183-.683l.009-.015.998-1.729a2.5 2.5 0 0 1-1.209-1.476h0a2.5 2.5 0 0 1-.029-1.377A2.506 2.506 0 0 1 5.147.086a2.48 2.48 0 0 1 1.518 1.165c.334.578.423 1.252.25 1.897a2.5 2.5 0 0 1-.328.73l1.319 1.319a3.52 3.52 0 0 1 3.517-.388l1.307-1.864.02-.027a.5.5 0 0 1 .679-.099 1.002 1.002 0 0 0 1.559-.993 1.002 1.002 0 0 0-1.806-.4.5.5 0 1 1-.818-.574A2.005 2.005 0 0 1 15.15.361c.438.307.729.765.822 1.291a2 2 0 0 1-.332 1.495 2.01 2.01 0 0 1-2.339.726l-1.31 1.869a.5.5 0 0 1-.107.114h0s0 0 0 0a.5.5 0 0 1-.203.091.5.5 0 0 1-.223-.005h0a.5.5 0 0 1-.141-.061 2.52 2.52 0 0 0-3.077.35q-.002 0-.004.003c-.471.472-.729 1.099-.729 1.766s.26 1.296.731 1.768a2.49 2.49 0 0 0 2.817.495A2.5 2.5 0 0 0 12.507 8q0-.42-.139-.82a.499.499 0 1 1 .944-.329c.13.371.195.757.195 1.149a3.5 3.5 0 0 1-1.488 2.855l1.403 1.672q.02.022.034.046a.5.5 0 0 1-.094.661.997.997 0 0 0-.125 1.408 1.001 1.001 0 0 0 1.533-1.285.5.5 0 0 1 .062-.704.496.496 0 0 1 .704.062c.344.409.508.928.461 1.46s-.298 1.015-.707 1.357c-.374.313-.83.467-1.283.467Z"/></svg>