<!-- SPDX-FileCopyrightText: © 2025 Schneider Electric SPDX-License-Identifier: LicenseRef-Proprietary -->
<svg xmlns="http://www.w3.org/2000/svg" viewBox="0 0 16 16"><path d="M.5 6.184a.5.5 0 0 0 .371-.165l.858-.952c.013-.017 1.348-1.694 3.059-1.694.705 0 1.493.288 2.323.841l1.208.899c.689.46 1.738 1.071 2.892 1.071 2.205 0 3.782-1.995 3.824-2.051l.835-.924a.501.501 0 0 0-.743-.671l-.858.952c-.013.017-1.349 1.694-3.059 1.694-.882 0-1.756-.516-2.315-.888l-1.208-.899c-1.018-.679-1.994-1.024-2.899-1.024-2.206 0-3.782 1.995-3.824 2.051l-.835.925a.5.5 0 0 0 .371.835Zm15 6.443h-1.079v-.963c0-1.291-.806-2.441-1.959-2.797-.91-.281-1.86-.132-2.605.409a2.8 2.8 0 0 0-1.172 2.25v1.101H7.317v-.965c0-1.292-.808-2.443-1.964-2.796-.911-.278-1.86-.129-2.604.413a2.8 2.8 0 0 0-1.169 2.248v1.101H.5a.5.5 0 0 0 0 1h1.579a.5.5 0 0 0 .5-.5v-1.593a1.81 1.81 0 0 1 .758-1.447c.488-.355 1.116-.451 1.722-.266.74.227 1.257.983 1.257 1.84v1.465a.5.5 0 0 0 .5.5h2.368a.5.5 0 0 0 .5-.5v-1.593a1.82 1.82 0 0 1 .759-1.449c.489-.354 1.117-.45 1.723-.263.739.228 1.254.985 1.254 1.841v1.463a.5.5 0 0 0 .5.5h1.579a.5.5 0 0 0 0-1Z"/></svg>