<!-- SPDX-FileCopyrightText: © 2025 Schneider Electric SPDX-License-Identifier: LicenseRef-Proprietary -->
<svg xmlns="http://www.w3.org/2000/svg" viewBox="0 0 16 16"><path d="M12.21 7.34a.5.5 0 0 0-.384.593c.014.067.325 1.657-1.246 2.739-.862.599-2.15.092-2.295.033a.515.515 0 0 0-.566.12l-1.013 1.099c-.636-.185-1.349.327-1.348 1.01q0 .156.044.302l-.013.013a1.19 1.19 0 0 0-1.62 1.107c0 .148.028.295.082.431l-.215.214H2.37v-.738l4.055-4.229a.5.5 0 0 0 .097-.547 2.9 2.9 0 0 1-.221-1.156c0-1.42 1.238-2.619 2.704-2.619.725 0 1.401.281 1.906.792a.5.5 0 1 0 .711-.703 3.65 3.65 0 0 0-2.617-1.088c-2.042 0-3.704 1.624-3.704 3.619q0 .668.184 1.239l-3.976 4.146a.5.5 0 0 0-.139.346v1.439a.5.5 0 0 0 .5.5h1.972a.5.5 0 0 0 .352-.145l.647-.642a.503.503 0 0 0-.011-.721.2.2 0 0 1-.06-.137c0-.174.275-.185.327-.129a.505.505 0 0 0 .721.012l.559-.562c.192-.194.267-.576.078-.772a.5.5 0 0 0 .723-.013l1.054-1.144c.624.197 1.896.452 2.918-.251a3.74 3.74 0 0 0 1.654-3.777.5.5 0 0 0-.593-.379Z"/><path d="M15.472 4.721a2.95 2.95 0 0 0-3.124-1.132A4.83 4.83 0 0 0 7.695 0a4.82 4.82 0 0 0-4.394 2.859h-.02c-1.103 0-2.076.52-2.669 1.427-.659 1.009-.726 2.297-.184 3.536.615 1.404 2.127 2.162 3.239 2.162a.5.5 0 0 0 0-1c-.806 0-1.895-.584-2.323-1.563-.404-.923-.366-1.866.105-2.587a2.14 2.14 0 0 1 1.803-.977l.351.021a.494.494 0 0 0 .501-.333A3.82 3.82 0 0 1 7.695 1a3.825 3.825 0 0 1 3.78 3.325.5.5 0 0 0 .212.345.52.52 0 0 0 .534.036c.806-.425 1.9-.165 2.434.591.363.516.443 1.173.219 1.803a2.56 2.56 0 0 1-1.139 1.334.5.5 0 0 0 .489.873 3.6 3.6 0 0 0 1.592-1.872c.336-.94.211-1.93-.343-2.715Z"/></svg>