<!-- SPDX-FileCopyrightText: © 2025 Schneider Electric SPDX-License-Identifier: LicenseRef-Proprietary -->
<svg xmlns="http://www.w3.org/2000/svg" viewBox="0 0 16 16"><path d="M12.493 8.613a3.7 3.7 0 0 0-.917.059.46.46 0 0 1-.424-.123.5.5 0 1 0-.704.711 1.47 1.47 0 0 0 1.314.395 3 3 0 0 1 .674-.043 2.705 2.705 0 0 1 2.559 2.527 2.66 2.66 0 0 1-.756 2.034 2.73 2.73 0 0 1-2.051.825c-1.428-.044-2.609-1.23-2.635-2.646-.004-.234.022-.47.079-.697a1.45 1.45 0 0 0-.386-1.375L5.641 6.704a1.46 1.46 0 0 0-1.323-.393c-.409.083-.583.093-.639.093-.747 0-1.375-.257-1.872-.772C1.271 5.099 1 4.466 1 3.751c0-.108.005-.184.014-.259l1.357 1.315c.158.153.354.266.569.326q.26.071.448.071a1.7 1.7 0 0 0 1.279-.552c.379-.351.572-.785.572-1.288a1.7 1.7 0 0 0-.072-.448 1.3 1.3 0 0 0-.33-.566L3.519 1.013A2 2 0 0 1 3.777 1c.725 0 1.365.27 1.91.81.518.491.77 1.094.77 1.843 0 .055-.009.226-.093.63-.101.48.048.974.398 1.321.177.176.533.52.938.911.418.404.89.86 1.269 1.231a.5.5 0 0 0 .7-.714c-.381-.374-.854-.831-1.274-1.237-.401-.387-.753-.728-.929-.902a.44.44 0 0 1-.124-.406c.077-.37.115-.643.115-.835 0-1.023-.364-1.888-1.074-2.562C5.652.366 4.775-.001 3.778-.001a3 3 0 0 0-.677.069c-.345.077-.708.232-.723.238a.497.497 0 0 0-.158.81l1.907 1.935a.3.3 0 0 1 .078.134.7.7 0 0 1 .035.178c0 .223-.078.394-.286.588a.73.73 0 0 1-.565.251c-.002 0-.056 0-.181-.035a.3.3 0 0 1-.14-.08L1.117 2.196a.503.503 0 0 0-.809.164 4.4 4.4 0 0 0-.253.792A2.8 2.8 0 0 0 0 3.748c0 .991.371 1.863 1.095 2.583.686.71 1.555 1.07 2.584 1.07.193 0 .468-.037.84-.113a.46.46 0 0 1 .418.124l3.604 3.575a.44.44 0 0 1 .12.423 3.7 3.7 0 0 0-.108.958c.035 1.973 1.618 3.566 3.604 3.628l.118.002c1.008 0 1.98-.408 2.681-1.13a3.7 3.7 0 0 0 1.038-2.792c-.112-1.868-1.617-3.358-3.5-3.465Z"/><path d="M12.276 13.087a.795.795 0 0 1-.794-.806l-.5-.018-.501.04c0 .983.805 1.783 1.794 1.783s1.794-.8 1.794-1.783a1.79 1.79 0 0 0-1.876-1.781c-.271.015-.453.241-.446.512s.256.485.527.485c.438 0 .794.352.794.784s-.356.783-.794.783Z"/></svg>