<!-- SPDX-FileCopyrightText: © 2025 Schneider Electric SPDX-License-Identifier: LicenseRef-Proprietary -->
<svg xmlns="http://www.w3.org/2000/svg" viewBox="0 0 16 16"><path d="M13.081 0a.5.5 0 0 0-.48.519c.03.771-.378 1.736-.839 1.986-.113.061-.246.098-.456-.049C9.798 1.394 8.229.403 7.114.985c-.586.304-.918.966-1.007 2.014h-.321A3.39 3.39 0 0 0 2.4 6.384v6.062c0 1.864 1.529 3.38 3.409 3.38a.5.5 0 0 0 0-1c-1.329 0-2.409-1.067-2.409-2.38V6.384a2.39 2.39 0 0 1 2.386-2.385h.469a.5.5 0 0 0 .145.088v1.912h-.5a.5.5 0 0 0-.5.5v4a.5.5 0 0 0 1 0v-3.5h1v3.5a.5.5 0 0 0 1 0v-4a.5.5 0 0 0-.5-.5h-.5v-2h.628A2.375 2.375 0 0 1 10.4 6.371v6.076c0 1.312-1.081 2.38-2.409 2.38a.5.5 0 0 0 0 1c1.88 0 3.409-1.516 3.409-3.38V6.371a3.376 3.376 0 0 0-3.372-3.372h-.917c.062-.608.221-1 .464-1.126.67-.349 2.412.878 3.156 1.401.481.339 1.017.378 1.509.109.903-.491 1.401-1.862 1.36-2.903a.5.5 0 0 0-.519-.48Z"/></svg>