<!-- SPDX-FileCopyrightText: © 2025 Schneider Electric SPDX-License-Identifier: LicenseRef-Proprietary -->
<svg xmlns="http://www.w3.org/2000/svg" viewBox="0 0 16 16"><path fill-rule="evenodd" d="M5.5 12h5a.5.5 0 0 0 0-1h-5a.5.5 0 0 0 0 1ZM14 7.5a.5.5 0 0 0-.5-.5h-2a.5.5 0 0 0 0 1H13v1.5a.5.5 0 0 0 1 0zM12.5 12h1a.5.5 0 0 0 0-1h-1a.5.5 0 0 0 0 1Z"/><path fill-rule="evenodd" d="M15.5 6a.5.5 0 0 0-.5.5V13H1V5.958L13.498 6c.058-.005.11-.009.161-.026q0 0 0 0t.002 0h.002s0 0 0 0h0s0 0 0 0q0 0 0 0t0 0h.002s0 0 0 0h.002s0 0 0 0a.5.5 0 0 0 .322-.43v-.039c0-1.775-.372-2.849-1.136-3.28-.979-.553-2.151.151-2.926.619a11 11 0 0 1-.296.174c-.664.374-1.745.393-2.313.043-.302-.186-.33-.394-.324-.534a.5.5 0 0 0-.479-.52.487.487 0 0 0-.52.479c-.024.589.26 1.095.8 1.427.878.54 2.339.529 3.325-.022q.146-.083.323-.191c.54-.326 1.444-.873 1.918-.604.211.119.551.527.616 1.91L.49 4.964H.489a.5.5 0 0 0-.5.5v8.043a.5.5 0 0 0 .5.5h15a.5.5 0 0 0 .5-.5v-7a.5.5 0 0 0-.5-.5Z"/><path fill-rule="evenodd" d="M2.5 12h1a.5.5 0 0 0 0-1h-1a.5.5 0 0 0 0 1Z"/><circle cx="2.5" cy="7.5" r=".5"/><circle cx="4.5" cy="7.5" r=".5"/><circle cx="6.5" cy="7.5" r=".5"/><circle cx="8.5" cy="7.5" r=".5"/><circle cx="3.5" cy="9.5" r=".5"/><circle cx="5.5" cy="9.5" r=".5"/><circle cx="7.5" cy="9.5" r=".5"/><circle cx="9.5" cy="9.5" r=".5"/><circle cx="11.5" cy="9.5" r=".5"/></svg>