<!-- SPDX-FileCopyrightText: © 2025 Schneider Electric SPDX-License-Identifier: LicenseRef-Proprietary -->
<svg xmlns="http://www.w3.org/2000/svg" viewBox="0 0 16 16"><path d="M15.686 2.301A1.15 1.15 0 0 0 14.895 2H5.101c-.414 0-.667.173-.805.318A1.12 1.12 0 0 0 4 3.093V8.5a.5.5 0 0 0 .5.5l2.444-.019A.5.5 0 0 1 7 9.215v3.568c0 .159-.038.214.009.216l-5.943.014a.5.5 0 0 1-.065-.229V9.216c0-.084.015-.211.047-.216h1.453a.5.5 0 0 0 0-1H1.064c-.07 0-.423.002-.718.287-.158.152-.346.438-.346.929v3.575C.008 13.392.37 14 1.047 14h5.996c.385-.021.957-.362.957-1.216V9.222c0-.099-.011-.604-.345-.942a.94.94 0 0 0-.684-.279H5V3.084L5.101 3h9.802l.097.094v5.845s-.108.057-.108.062h-3.868l.485-.5a.5.5 0 0 0-.717-.697L9.483 9.153a.5.5 0 0 0 .041.735l1.291 1.437a.5.5 0 1 0 .744-.668l-.589-.655h3.921c.419 0 .673-.172.813-.315a1.1 1.1 0 0 0 .295-.746V3.094c0-.406-.171-.655-.314-.793Z"/></svg>