<!-- SPDX-FileCopyrightText: © 2025 Schneider Electric SPDX-License-Identifier: LicenseRef-Proprietary -->
<svg xmlns="http://www.w3.org/2000/svg" viewBox="0 0 16 16"><circle cx="12.5" cy="12.5" r=".5"/><circle cx="12.5" cy="10.5" r=".5"/><circle cx="12.5" cy="8.5" r=".5"/><circle cx="12.5" cy="3.5" r=".5"/><path d="M3.059 10.166a.5.5 0 0 0 0 .707l1.988 1.988a.5.5 0 0 0 .708 0 .5.5 0 0 0 0-.707l-1.988-1.988a.5.5 0 0 0-.707 0Zm5.464-.024a.5.5 0 0 0 .354-.853L3.859 4.271a.5.5 0 0 0-.707.707l5.017 5.017a.5.5 0 0 0 .354.146Zm-2.76-7.011a.5.5 0 0 0-.707.707l3.126 3.126a.5.5 0 0 0 .708 0 .5.5 0 0 0 0-.707z"/><path d="M14.04 1H1.96a.96.96 0 0 0-.96.96v12.08c0 .529.431.96.96.96H8.5a.5.5 0 0 0 0-1l-6.5.04L1.96 2 14 1.96 14.04 14H11V3.5a.5.5 0 0 0-1 0v11a.5.5 0 0 0 .5.5h3.54c.529 0 .96-.431.96-.96V1.96a.96.96 0 0 0-.96-.96Z"/></svg>