<!-- SPDX-FileCopyrightText: © 2025 Schneider Electric SPDX-License-Identifier: LicenseRef-Proprietary -->
<svg xmlns="http://www.w3.org/2000/svg" viewBox="0 0 16 16"><path d="m15.69 13.617-2.152-3.387a.5.5 0 0 0-.844.537l2.146 3.375c.125.208.18.459.137.625a.24.24 0 0 1-.114.156.57.57 0 0 1-.766-.192l-3.136-5.242a.5.5 0 0 0-.743-.133 7.5 7.5 0 0 1-2.717.494c-2.568 0-4.723-1.184-5.79-3.075 1.365.905 3.435 1.474 5.79 1.474 1.258 0 2.501-.17 3.597-.492a.5.5 0 0 0 .338-.62.5.5 0 0 0-.621-.339c-1.004.295-2.151.451-3.314.451C3.983 7.249 1.01 5.823 1 4.133v-.015C1.008 2.427 3.982 1 7.501 1c3.55 0 6.438 1.354 6.438 3.018 0 1.795-.786 3.382-2.212 4.466a.5.5 0 0 0 .606.797c1.681-1.279 2.606-3.147 2.606-5.263C14.939 1.727 11.741 0 7.501 0 3.295 0 0 1.812 0 4.125v.037c.004.271.047.813.079.979.029.146.081.355.081.355.711 3.202 3.661 5.354 7.34 5.354.989 0 1.938-.157 2.828-.469l2.91 4.863a1.563 1.563 0 0 0 2.127.543c.293-.171.493-.438.579-.771.11-.427.017-.945-.255-1.399Z"/></svg>