<!-- SPDX-FileCopyrightText: © 2025 Schneider Electric SPDX-License-Identifier: LicenseRef-Proprietary -->
<svg xmlns="http://www.w3.org/2000/svg" viewBox="0 0 16 16"><path d="M7.314 3.312c.253.444.396 1.35.007 1.897a.5.5 0 0 0 .815.58c.628-.883.493-2.19.047-2.972l-.069-.121c-.304-.523-.72-1.239-.348-1.97a.5.5 0 0 0-.891-.453c-.618 1.216.028 2.328.375 2.926zm2.411.001c.254.443.396 1.349.008 1.897a.5.5 0 0 0 .814.579c.628-.883.493-2.19.047-2.972l-.069-.12c-.304-.523-.719-1.239-.348-1.971a.499.499 0 1 0-.891-.453c-.619 1.216.026 2.328.373 2.925l.065.114Zm-4.823-.001c.253.444.396 1.35.007 1.897a.5.5 0 0 0 .815.58c.628-.882.493-2.19.048-2.972l-.07-.122c-.303-.522-.719-1.238-.347-1.969a.5.5 0 0 0-.891-.453c-.618 1.216.027 2.327.374 2.924l.066.115Z"/><path d="M15.883 8.201a.5.5 0 0 0-.704-.062l-.901.756.036-.343a.5.5 0 0 0-.497-.553h-2.011l2.991-3.842a.5.5 0 1 0-.789-.615l-3.62 4.648a.501.501 0 0 0 .394.807h2.478l-.641 6h-9.23l-.642-6h5.696a.5.5 0 0 0 0-1H2.19a.5.5 0 0 0-.497.553l.037.35-.909-.763a.499.499 0 1 0-.642.766l1.659 1.392q.022.019.046.035l.559 5.221a.5.5 0 0 0 .497.447h10.129c.256 0 .47-.192.497-.447l.559-5.227.038-.029 1.659-1.392a.5.5 0 0 0 .062-.704Z"/></svg>