<!-- SPDX-FileCopyrightText: © 2025 Schneider Electric SPDX-License-Identifier: LicenseRef-Proprietary -->
<svg xmlns="http://www.w3.org/2000/svg" viewBox="0 0 16 16"><path d="M8 0C3.589 0 0 3.589 0 8s3.589 8 8 8 8-3.589 8-8-3.589-8-8-8Zm0 15c-3.86 0-7-3.141-7-7s3.14-7 7-7 7 3.14 7 7-3.141 7-7 7Z"/><path d="M11.188 4.809a.5.5 0 0 0-.707 0L7.989 7.301 5.524 4.836a.5.5 0 0 0-.707.707l2.465 2.465-2.457 2.458a.5.5 0 0 0 .707.707l2.457-2.458 2.484 2.484a.5.5 0 0 0 .708 0 .5.5 0 0 0 0-.707L8.697 8.008l2.492-2.492a.5.5 0 0 0 0-.707Z"/></svg>