<!-- SPDX-FileCopyrightText: © 2025 Schneider Electric SPDX-License-Identifier: LicenseRef-Proprietary -->
<svg xmlns="http://www.w3.org/2000/svg" viewBox="0 0 16 16"><path d="M9.469 2.809c.204.319.321.966.012 1.353a.5.5 0 1 0 .781.624c.599-.749.472-1.856.049-2.517l-.063-.099c-.326-.5-.574-.953-.306-1.423a.5.5 0 1 0-.87-.496c-.592 1.038.035 2.001.337 2.464l.06.092Zm-2.484 0c.204.318.322.965.013 1.354a.5.5 0 1 0 .783.624c.598-.75.47-1.856.047-2.516l-.064-.099c-.326-.5-.574-.953-.306-1.423A.5.5 0 1 0 6.59.253c-.593 1.038.034 2.001.335 2.464zm8.567 4.834c-.34-.401-.85-.631-1.474-.665a2.24 2.24 0 0 0-1.067.206 10 10 0 0 0-.029-.728.5.5 0 0 0-.498-.456H1.566a.5.5 0 0 0-.498.456C1.051 6.65.72 10.721 2.664 13H.5a.5.5 0 0 0-.5.5c0 .874.676 2.384 3.23 2.5h7.611c2.531-.116 3.207-1.626 3.207-2.5a.5.5 0 0 0-.5-.5h-2.492c.153-.2.309-.419.465-.644l.14-.199q.097-.14.188-.285a.501.501 0 0 0-.853-.523 5 5 0 0 1-.154.236l-.141.2c-.244.351-.699 1.003-.977 1.184L9.682 13h-.183a.5.5 0 0 0 0 1h3.419c-.237.459-.837.941-2.1 1H3.253c-1.28-.059-1.885-.541-2.123-1H7.5a.5.5 0 0 0 0-1H4.163q-.021-.018-.044-.032C2.125 11.662 2.015 8.24 2.044 7h9.964c.007.26.007.615-.017 1.026a.56.56 0 0 0 .438.561.64.64 0 0 0 .524-.154c.182-.183.557-.483 1.071-.458q.523.03.766.313c.221.261.229.659.197.947-.098.896-.79 1.716-1.481 1.754-.276.015-.487.251-.472.526s.258.517.526.472c1.183-.065 2.269-1.251 2.421-2.643.097-.876-.18-1.409-.429-1.703ZM4.502 2.809c.204.318.322.966.012 1.354a.5.5 0 0 0 .782.624c.599-.749.472-1.855.049-2.517l-.063-.097c-.327-.501-.575-.954-.307-1.424a.5.5 0 1 0-.868-.496c-.593 1.039.035 2.003.337 2.466z"/></svg>