<!-- SPDX-FileCopyrightText: © 2025 Schneider Electric SPDX-License-Identifier: LicenseRef-Proprietary -->
<svg xmlns="http://www.w3.org/2000/svg" viewBox="0 0 16 16"><path d="M8.606 2.879a.5.5 0 0 0-.392.588c.002.012.231 1.226-.333 2.888C7.44 7.657 5.908 7.954 5.52 8.009a1 1 0 0 0-.147-.008h-.211c.455-.421.874-1 1.018-1.767.328-1.752.243-2.841.239-2.887a.501.501 0 0 0-.997.082c0 .01.076 1.014-.225 2.621-.144.763-.722 1.281-1.197 1.585V3.5a.5.5 0 0 0-1 0V8H2V2h12.5a.5.5 0 0 0 0-1h-13a.5.5 0 0 0-.5.5v7a.5.5 0 0 0 .5.5h3.837a.5.5 0 0 0 .132.018c.119.041.25.155.247.458q-.003.457-.305.524H1.5a.5.5 0 0 0-.5.5v2.771c-.004.083-.033.826.433 1.32.252.268.6.409 1.003.409.658 0 1.027-.269 1.221-.494l.042-.052c.504.441 1.24.76 2.083.359 1.071-.511 1.066-1.463.915-1.896a.5.5 0 0 0-.058-.114l-.486-.717a.5.5 0 1 0-.827.56l.438.646c.027.147.006.418-.412.617-.739.349-1.315-.572-1.352-.634v-2.277h1.46a.5.5 0 0 0 .106-.012c.552-.099 1.14-.545 1.15-1.502a1.6 1.6 0 0 0-.14-.707c.803-.276 1.833-.863 2.253-2.103.656-1.936.377-3.349.365-3.408a.5.5 0 0 0-.588-.389ZM2.897 13.856Q2.77 14 2.437 14c-.166 0-.236-.054-.274-.094-.136-.143-.168-.452-.162-.606V11h1.001l.004 2.399c.01.076.011.322-.108.457Zm12.01-7.528a.5.5 0 0 0-.698-.116L12.21 7.64a.502.502 0 0 0 .002.815l1.999 1.416a.5.5 0 0 0 .697-.119.5.5 0 0 0-.119-.697l-1.426-1.009 1.428-1.02a.5.5 0 0 0 .116-.697Z"/></svg>