<!-- SPDX-FileCopyrightText: © 2025 Schneider Electric SPDX-License-Identifier: LicenseRef-Proprietary -->
<svg xmlns="http://www.w3.org/2000/svg" viewBox="0 0 16 16"><path d="M8.757 8.152c-.283-.418-.409-.942-.062-1.604a.55.55 0 0 0-.057-.618.55.55 0 0 0-.592-.139c-.122.05-.542.345-.946.756-2.359 2.416-2.169 4.398-1.978 5.14.223.864.785 1.509 1.519 1.729.315.083.627.086.841.086.224-.004.517-.149.59-.359a.555.555 0 0 0-.288-.654c-.171-.077-.529-.607-.396-.904.071-.16.144-.261.229-.378a3 3 0 0 0 .243-.383q.046.069.091.147c.136.237.199.516.159.71a.5.5 0 1 0 .98.199c.088-.438-.011-.951-.273-1.408-.083-.145-.157-.252-.263-.404s-.246-.355-.472-.712a.5.5 0 0 0-.919.211c-.076.663-.194.827-.358 1.054a3 3 0 0 0-.333.558 1.43 1.43 0 0 0-.072.91 1.8 1.8 0 0 1-.31-.651c-.286-1.107.241-2.526 1.416-3.857.07.595.386 1.252 1.141 1.92a.502.502 0 0 0 .802-.197c.067.321.19.699.394 1.141q.294.702.082 1.169c-.164.359-.808.736-1.331.909a.5.5 0 1 0 .313.949c.25-.082 1.514-.538 1.927-1.443q.394-.86-.076-1.986c-.549-1.191-.343-1.623-.352-1.623h0a.55.55 0 0 0 .137-.387.5.5 0 0 0-.241-.416c-.365-.222-1.048.126-1.199.224q-.207.136-.349.312Z"/><path d="M12.976 12.506v-7.75c0-.602-.537-1.136-1.551-1.546a.5.5 0 0 0-.375.927c.656.266.911.54.926.62v7.376c-.303.165-.508.475-.508.829s.205.664.508.828v.129c0 .323-1.294 1.082-3.803 1.082-2.492 0-4.164-.762-4.203-1.082v-.129c.303-.165.508-.475.508-.828s-.205-.664-.508-.829V4.639c.021-.162.635-.608 2.015-.881.048.716.717 1.079 1.991 1.079 1.299 0 1.958-.402 1.958-1.195v-.477q0-.028-.003-.055V1.074C9.931.751 9.741 0 7.982 0c-1.307 0-1.97.346-1.97 1.027v.444a.5.5 0 0 0 1 0v-.345c.096-.044.359-.126.97-.126.617 0 .868.104.949.15v2.013q0 .027.003.054v.448s-.149.17-.958.17c-.846 0-1-.163-.994-.164v-.509a.512.512 0 0 0-.626-.484c-.829.121-3.385.605-3.385 1.958v7.869c0 .195.125.368.297.452a.5.5 0 0 0-.297.457v.503c0 1.517 3.191 2.082 5.203 2.082 2.387 0 4.803-.715 4.803-2.082v-.503a.52.52 0 0 0-.297-.452.5.5 0 0 0 .297-.457Z"/></svg>