<!-- SPDX-FileCopyrightText: © Dankort SPDX-License-Identifier: LicenseRef-Proprietary -->
<svg xmlns="http://www.w3.org/2000/svg" version="1.1" viewBox="0 0 743.261 491.339"><path fill="#ffffff" d="M246.738 56.256c-101.186 0-184.102 79.739-189.185 179.672a192 192 0 0 0-.246 9.732c0 104.448 84.98 189.422 189.431 189.422h255.11c104.437 0 189.404-84.974 189.404-189.422 0-104.437-84.967-189.404-189.404-189.404zm0 32.098h255.108c47.838 0 90.756 21.472 119.636 55.275H488.725l-66.672 69.504c-4.914-53.376-52.648-69.496-115.998-69.496h-178.98c28.88-33.81 71.807-55.283 119.663-55.283zm381.53 63.8c19.398 26.156 30.894 58.515 30.894 93.506 0 33.153-10.32 63.932-27.889 89.322l-84.832-100.888Zm-426.592 58.772h82.361c18.44 0 33.45 8.253 27.475 29.523-6.039 21.506-14.203 32.676-41.186 32.676h-91.271zm217.09 43.435 70.511 89.114h135.696c-28.847 36.245-73.319 59.517-123.125 59.517H246.736c-49.824 0-94.305-23.282-123.15-59.53h159.45c80.006 0 122.686-28.342 135.73-89.1z"/><path fill="#211d1d" d="M246.738 52.408c-106.573 0-193.277 86.693-193.277 193.252 0 106.57 86.704 193.268 193.277 193.268h255.11c106.56 0 193.252-86.699 193.252-193.268 0-106.559-86.692-193.252-193.252-193.252zm0 3.848h255.11c104.437 0 189.404 84.967 189.404 189.404 0 104.448-84.967 189.422-189.404 189.422h-255.11c-104.45 0-189.431-84.974-189.431-189.422 0-104.437 84.98-189.404 189.431-189.404z"/><path fill="#e41d27" d="M246.738 88.354c-47.856 0-90.782 21.472-119.664 55.283h178.98c63.351 0 111.085 16.12 115.999 69.496l66.672-69.504h132.757c-28.88-33.803-71.798-55.275-119.636-55.275zm381.53 63.8-81.827 81.94 84.832 100.888c17.57-25.39 27.89-56.169 27.89-89.322 0-34.99-11.497-67.35-30.895-93.506zm-426.592 58.772-22.621 62.199h91.271c26.983 0 35.147-11.17 41.186-32.676 5.976-21.27-9.035-29.523-27.475-29.523zm217.09 43.435c-13.044 60.759-55.724 89.102-135.73 89.102h-159.45c28.845 36.247 73.326 59.53 123.15 59.53h255.112c49.806 0 94.278-23.273 123.125-59.518H489.277z"/></svg>