<!-- SPDX-FileCopyrightText: © 2019 Dash Core Group, Inc. SPDX-License-Identifier: LicenseRef-Proprietary -->
<svg xmlns="http://www.w3.org/2000/svg" data-name="Layer 1" viewBox="0 0 550 550"><rect width="550" height="550" fill="#008de4" rx="76"/><path fill="#fff" d="M345.7 89.75H179.48l-13.78 77 150 .18c73.91 0 95.7 26.86 95.08 71.33-.36 22.77-10.23 61.37-14.5 73.91-11.38 33.35-34.77 71.32-122.47 71.24L128 383.34l-13.8 77.11h165.87c58.52 0 83.33-6.85 109.75-18.95 58.43-27.12 93.2-84.76 107.17-160C517.8 169.44 492 89.75 345.7 89.75"/><path fill="#fff" d="M107.8 236.41c-43.58 0-49.8 28.37-53.9 45.59-5.42 22.41-7.2 31.57-7.2 31.57h170.22c43.58 0 49.81-28.37 53.9-45.53 5.42-22.42 7.2-31.58 7.2-31.58Z"/></svg>