<!-- SPDX-FileCopyrightText: © 2025 Schneider Electric SPDX-License-Identifier: LicenseRef-Proprietary -->
<svg xmlns="http://www.w3.org/2000/svg" viewBox="0 0 16 16"><path d="m15.592 2.906-4.933-.919a.6.6 0 0 0-.142-.006l-3.067.305a.5.5 0 0 0-.451.498v1.313L5.91 3.93a.5.5 0 0 0-.127-.003l-4.335.447a.5.5 0 0 0-.449.498v6.129h-.5a.5.5 0 0 0 0 1h1a.5.5 0 0 0 .5-.5V5.323l3.823-.394 1.602.245a.497.497 0 0 0 .575-.494V3.238l2.546-.253 4.454.83v7.441l-3 2.252v-5.3a.5.5 0 0 0-.391-.488l-8-1.796a.498.498 0 0 0-.61.488v6.06a.5.5 0 0 0 .38.485l2 .495a.498.498 0 0 0 .62-.486V9.658l1 .204v3.667a.5.5 0 0 0 .357.479l2 .596a.5.5 0 0 0 .441-.079.5.5 0 0 0 .201-.4v-4.119a.5.5 0 0 0-1 0v3.448l-1-.298V9.454a.5.5 0 0 0-.4-.49l-2-.408a.503.503 0 0 0-.601.49v3.281l-1-.248V7.035l7 1.572v5.899a.5.5 0 0 0 .8.4l4-3.002a.5.5 0 0 0 .2-.4V3.397a.5.5 0 0 0-.408-.492Z"/></svg>