<!-- SPDX-FileCopyrightText: © 2025 Schneider Electric SPDX-License-Identifier: LicenseRef-Proprietary -->
<svg xmlns="http://www.w3.org/2000/svg" viewBox="0 0 16 16"><path d="M14.172.524h-4.056a.5.5 0 0 0 0 1h4.056c.181 0 .328.147.328.328v12.307a.33.33 0 0 1-.327.328l-12.345.008c-.109-.016-.169-.034-.231-.096s-.096-.145-.096-.232l.017-12.335c0-.181.147-.328.328-.328h4.208a.5.5 0 0 0 0-1H1.845A1.33 1.33 0 0 0 .517 1.831L.5 14.165c0 .356.138.69.39.942.25.25.583.388.937.388h.003l12.345-.008a1.33 1.33 0 0 0 1.326-1.328V1.852A1.33 1.33 0 0 0 14.173.524Z"/><path d="M9.273 10.87c.474.16.623.354.623.395-.008.129-.504.47-1.426.561V9.171a.5.5 0 0 0-.133-.34L6.488 6.838a.5.5 0 1 0-.734.68l1.716 1.85v2.451c-.877-.1-1.351-.427-1.359-.553.001-.029.124-.226.623-.395a.5.5 0 0 0-.319-.947c-.828.279-1.303.769-1.303 1.342 0 .909 1.116 1.439 2.359 1.558v.556a.5.5 0 0 0 1 0v-.55c1.27-.105 2.426-.638 2.426-1.563 0-.573-.475-1.062-1.303-1.342a.5.5 0 0 0-.321.947ZM7.971 6.618a.5.5 0 0 0 .5-.5v-3.37a.5.5 0 0 0-1 0v3.37a.5.5 0 0 0 .5.5Z"/></svg>