<!-- SPDX-FileCopyrightText: © 2025 Schneider Electric SPDX-License-Identifier: LicenseRef-Proprietary -->
<svg xmlns="http://www.w3.org/2000/svg" viewBox="0 0 16 16"><path d="M14.708 4.337a.5.5 0 0 0-.666-.237l-.596.284h-.004l-2.736-.514C10.16 2.845 8.787.429 7.826.074a.5.5 0 0 0-.431.041c-.032.019-3.12 1.932-2.381 6.143-.64.446-1.392 1.339-1.02 2.561l.936 2.044-1.796 2.176H1.499a.5.5 0 0 0 0 1H3.37a.5.5 0 0 0 .386-.182l2.146-2.6a.5.5 0 0 0 .069-.526L4.929 8.466c-.277-.919.823-1.49.868-1.513a.5.5 0 0 0 .266-.556c-.685-3.106.971-4.75 1.612-5.255.539.47 1.54 2.025 2.26 3.407.071.136.2.232.352.26l2.356.443-1.125 1.986a.5.5 0 0 0-.021.454c1.053 2.315 1.336 3.438 1.407 3.936-2.97-.179-4.178-1.217-4.709-1.674-.242-.208-.417-.358-.677-.358a.5.5 0 0 0-.5.5v3.443a.5.5 0 0 0 .5.5h2.508v1.006H1.5a.5.5 0 0 0 0 1h9.025a.5.5 0 0 0 .5-.5v-2.006a.5.5 0 0 0-.5-.5H8.017v-1.94c.825.616 2.376 1.473 5.356 1.55a.5.5 0 0 0 .427-.221c.449-.665-.426-2.991-1.288-4.917l1.221-2.154.739-.352a.5.5 0 0 0 .236-.667Z"/></svg>