<!-- SPDX-FileCopyrightText: © 2025 Schneider Electric SPDX-License-Identifier: LicenseRef-Proprietary -->
<svg xmlns="http://www.w3.org/2000/svg" viewBox="0 0 16 16"><path d="M9.413 12.115a.5.5 0 0 0 .258-.929 3.62 3.62 0 0 1-1.778-3.132 3.66 3.66 0 0 1 3.108-3.607v3.737a.5.5 0 0 0 .854.354l1.573-1.573a.5.5 0 0 0-.707-.707l-.719.719V3.908a.5.5 0 0 0-.504-.5 4.66 4.66 0 0 0-4.604 4.646c0 1.625.868 3.154 2.264 3.99a.5.5 0 0 0 .256.071Z"/><path d="M5.384 8.924c.278.038.508-.206.517-.482a.5.5 0 0 0-.482-.517c-3.047-.107-4.411-.949-4.411-1.735A1 1 0 0 0 1 6.099V2.864a1 1 0 0 0 .008-.091q0-.093.064-.199a1.2 1.2 0 0 1 .275-.295q.21-.169.528-.329.334-.167.755-.31a9 9 0 0 1 .942-.263q.515-.119 1.097-.202.584-.085 1.22-.128c.85-.06 1.78-.06 2.63 0q.635.044 1.221.128.58.083 1.097.202.508.117.942.264.42.143.753.309.319.16.53.33.188.15.274.294a.502.502 0 0 0 .857-.517 2.2 2.2 0 0 0-.505-.558 4 4 0 0 0-.707-.444A7 7 0 0 0 12.1.693a10 10 0 0 0-1.04-.291Q10.504.274 9.881.185A18 18 0 0 0 8.588.049 21 21 0 0 0 5.821.047q-.675.047-1.293.136-.625.09-1.179.217-.562.128-1.039.291-.491.166-.882.363a4 4 0 0 0-.706.443 2.1 2.1 0 0 0-.506.559l-.033.057A.5.5 0 0 0 0 2.499v10.72c0 1.736 2.706 2.773 5.322 2.773a.5.5 0 0 0 0-1C2.888 14.992 1 14.039 1 13.219V11.39c.948.689 2.499 1.122 4.319 1.122a.5.5 0 0 0 0-1c-2.467 0-4.311-.941-4.311-1.782A1 1 0 0 0 1 9.639V7.854c.91.622 2.415 1 4.384 1.069Z"/><path d="M5.89 4.498a17 17 0 0 1-1.221-.128 13 13 0 0 1-1.096-.202 10 10 0 0 1-.942-.264l-.205-.066a1.2 1.2 0 0 1-.242-.102.5.5 0 0 0-.448.894c.211.105.252.118.392.161l.183.059q.479.162 1.04.292.556.128 1.179.217.62.089 1.293.136h.035c.26 0 .48-.202.499-.465a.5.5 0 0 0-.464-.534Zm7.706-.516a.503.503 0 0 0-.68.196.5.5 0 0 0 .196.68 3.65 3.65 0 0 1-.011 6.398.5.5 0 0 0 .481.877C15.074 11.317 16 9.754 16 8.054s-.921-3.253-2.404-4.072Z"/><path d="M13.174 13.177 12 14.348V10.5a.5.5 0 0 0-1 0v3.759l-1.11-1.086a.5.5 0 0 0-.699.715l1.85 1.812a.5.5 0 0 0 .459.301h.053a.5.5 0 0 0 .353-.146l1.974-1.97a.5.5 0 0 0-.707-.707Z"/></svg>