<!-- SPDX-FileCopyrightText: © 2025 Schneider Electric SPDX-License-Identifier: LicenseRef-Proprietary -->
<svg xmlns="http://www.w3.org/2000/svg" viewBox="0 0 16 16"><path d="M4.729 3.089a.503.503 0 0 0 .615-.35c.157-.574.507-1.325 1.281-1.646 1.278-.528 2.979 1.345 3.893 3.459.485 1.122.297 1.916.058 2.922-.081.341-.164.691-.223 1.064a.5.5 0 0 0 .988.156c.055-.347.132-.673.208-.99.248-1.043.504-2.123-.113-3.549C10.317 1.568 8.173-.634 6.242.169c-.909.377-1.553 1.174-1.863 2.305a.5.5 0 0 0 .35.615Zm11.125 12.057-4.504-4.504a.5.5 0 0 0-.169-.169L.854.146a.502.502 0 0 0-.708.708L4.242 4.95c.122.916.422 1.749.831 2.304 1.1 1.488 1.087 2.307 1.087 2.307a.5.5 0 0 0 .996.088c.01-.114.062-1.175-1.279-2.989a2 2 0 0 1-.137-.211l4.697 4.697c.105 1.655-.09 2.745-.595 3.328-.275.318-.657.49-1.167.524-1.048.113-1.629-1.724-1.861-2.973.431.131.977.234 1.5.178.52-.058.929-.155 1.216-.291a.5.5 0 1 0-.426-.904c-.105.05-.363.142-.899.201-.805.092-1.765-.399-1.774-.403a.498.498 0 0 0-.729.485c.042.5.464 4.862 3.041 4.705.778-.053 1.402-.345 1.854-.868.556-.642.838-1.597.864-2.957l3.684 3.684a.5.5 0 0 0 .708 0 .5.5 0 0 0 0-.707Z"/></svg>