<!-- SPDX-FileCopyrightText: © 2025 Schneider Electric SPDX-License-Identifier: LicenseRef-Proprietary -->
<svg xmlns="http://www.w3.org/2000/svg" viewBox="0 0 16 16"><path d="M4.5 6.364a.5.5 0 0 0-.5.5v7.635a.5.5 0 0 0 1 0V6.864a.5.5 0 0 0-.5-.5Zm-2.582.604a.5.5 0 1 0-.643.765L1.592 8H.5a.5.5 0 0 0 0 1h1.111l-.383.417a.5.5 0 1 0 .736.676L3.21 8.738a.5.5 0 0 0-.046-.721zm12.131 3.124a.5.5 0 1 0 .738-.674L14.406 9H15.5a.5.5 0 0 0 0-1h-1.187l.477-.451a.5.5 0 1 0-.687-.727l-1.274 1.205a.5.5 0 0 0-.026.7zM9.5 11.47a.5.5 0 0 0-.5.5v1.463c0 .341-.187.566-.311.566H7.31c-.124 0-.311-.226-.311-.566v-4.45a.5.5 0 0 0-1 0v4.45c0 .863.588 1.566 1.311 1.566h1.379c.723 0 1.311-.703 1.311-1.566V11.97a.5.5 0 0 0-.5-.5Z"/><path d="m11.997 11.297.003-.055V1.411a.5.5 0 0 0-1 0v8.888l-1-1V2.742c0-.689-.283-1.3-.737-1.592a.5.5 0 1 0-.541.841c.135.087.278.38.278.751v5.556L7 6.297V2.679c0-.303.143-.588.355-.71a.5.5 0 1 0-.497-.867C6.329 1.405 6 2.01 6 2.68v2.617l-1-1V1.411a.5.5 0 0 0-1 0v1.885L.852.146a.5.5 0 0 0-.707.708l14.993 15a.5.5 0 0 0 .708 0 .5.5 0 0 0 0-.707zm-.497 1.957a.5.5 0 0 0-.5.5v.745a.5.5 0 0 0 1 0v-.745a.5.5 0 0 0-.5-.5Z"/></svg>