<!-- SPDX-FileCopyrightText: © 2025 Schneider Electric SPDX-License-Identifier: LicenseRef-Proprietary -->
<svg xmlns="http://www.w3.org/2000/svg" viewBox="0 0 16 16"><path d="M12.5 11.994a.5.5 0 0 0 .5-.5V9.025c0-1.013-.674-1.844-1.724-2.118a84 84 0 0 0-2.037-.467 84 84 0 0 1-2.041-.468c-.204-.045-.38-.143-.598-.331-.414-.375-.397-1.319-.166-1.739.304-.553.989-.854 1.668-.733.635.105 1.127.605 1.198 1.208.083.803.76 1.427 1.577 1.453.856.015 1.59-.553 1.704-1.371.024-.27-.017-.551-.066-.827C12 1.145 9.445-.438 6.82.105 4.535.56 3 2.364 3 4.595v9.254c0 .606.239 1.16.673 1.559a2.3 2.3 0 0 0 1.786.584l5.041-.002c.707.062 1.355-.147 1.828-.582.434-.398.673-.952.673-1.559v-.366a.5.5 0 0 0-1 0v.366c0 .328-.121.612-.35.822-.265.243-.644.356-1.109.32l-5.125.002c-.421.035-.802-.079-1.067-.322a1.08 1.08 0 0 1-.35-.822V4.595c0-1.767 1.184-3.145 3.019-3.51 2.087-.432 4.113.802 4.514 2.737.033.185.065.396.055.524-.041.291-.329.485-.68.484a.624.624 0 0 1-.613-.563c-.123-1.05-.957-1.907-2.021-2.084-1.115-.203-2.201.298-2.715 1.237-.403.731-.457 2.212.38 2.969.238.205.571.454 1.032.555.621.154 1.337.312 2.053.471a87 87 0 0 1 2.007.46c.607.158.97.588.97 1.148v2.469a.5.5 0 0 0 .5.5Z"/><path d="m6.357 10.224 2.938 2.938.015.014a.5.5 0 0 0 .702-.005 2.9 2.9 0 0 0 .612-.907 2.87 2.87 0 0 0-1.519-3.759 3 3 0 0 0-.53-.166.49.49 0 0 0-.568.392.513.513 0 0 0 .394.593q.163.037.315.102.333.14.589.398.258.26.398.595a1.89 1.89 0 0 1-.093 1.643L6.693 9.146l-.028-.031a.5.5 0 0 0-.707 0 2.85 2.85 0 0 0-.838 2.019 2.9 2.9 0 0 0 .838 2.041 2.8 2.8 0 0 0 1.393.765.4.4 0 0 0 .106.013c.221 0 .404-.161.458-.392.063-.267-.132-.542-.399-.608a1.84 1.84 0 0 1-1.25-1.082 1.89 1.89 0 0 1 .091-1.647Z"/></svg>