<!-- SPDX-FileCopyrightText: © 2025 Schneider Electric SPDX-License-Identifier: LicenseRef-Proprietary -->
<svg xmlns="http://www.w3.org/2000/svg" viewBox="0 0 16 16"><path d="m15.704 9.856-.262-.262a1.9 1.9 0 0 0-1.554-.549l-.288.03-2.504-2.505C8.897 4.373 4.187 1.378 2.263.192a1.296 1.296 0 0 0-1.6.19l-.43.43a1.3 1.3 0 0 0-.191 1.601c.534.867 1.612 2.583 2.831 4.344a.501.501 0 0 0 .822-.57A101 101 0 0 1 .894 1.889.3.3 0 0 1 .94 1.52l.43-.43a.3.3 0 0 1 .369-.045c1.477.91 6.467 4.051 8.65 6.233l2.673 2.674a.5.5 0 0 0 .406.144l.525-.056a.91.91 0 0 1 .741.262l.085.085c-.09.398-.441 1.411-1.807 2.776s-2.384 1.72-2.775 1.808l-.143-.143a.92.92 0 0 1-.267-.655l.008-.715a.5.5 0 0 0-.146-.359L7.1 10.51c-.449-.449-.972-1.053-1.554-1.794a.499.499 0 1 0-.786.618 22 22 0 0 0 1.633 1.884l2.44 2.44-.005.504a1.93 1.93 0 0 0 .56 1.373l.319.319a.5.5 0 0 0 .354.146c.157 0 1.59-.06 3.66-2.13s2.13-3.503 2.13-3.66a.5.5 0 0 0-.146-.354Z"/></svg>