<!-- SPDX-FileCopyrightText: © 2025 Schneider Electric SPDX-License-Identifier: LicenseRef-Proprietary -->
<svg xmlns="http://www.w3.org/2000/svg" viewBox="0 0 16 16"><path d="M11.999 13.248V3.596a.5.5 0 0 0-1 0l.003 9.703s.028.469-.356.895c-.477.527-1.404.807-2.683.807-1.14 0-1.971-.262-2.468-.777-.514-.532-.497-1.163-.496-1.213V3.598s.031-.361.352-.97q.135-.258.215-.48a9 9 0 0 0 2.464.36c1.36-.002 2.93-.258 3.31-.858a.66.66 0 0 0 .011-.596C11.006.441 9.041-.024 7.906 0a.5.5 0 0 0-.49.51c.006.276.26.489.51.49.658-.018 1.414.149 1.946.32a6.7 6.7 0 0 1-1.84.187c-1.548-.006-2.676-.488-2.688-.493a.5.5 0 0 0-.673.619c-.008.058-.044.22-.207.529-.428.814-.463 1.325-.467 1.404v9.416c-.001.043-.048 1.064.757 1.915C5.446 15.628 6.525 16 7.961 16c1.592 0 2.744-.382 3.425-1.136s.618-1.575.611-1.616Z"/></svg>