<!-- SPDX-FileCopyrightText: © 2025 Schneider Electric SPDX-License-Identifier: LicenseRef-Proprietary -->
<svg xmlns="http://www.w3.org/2000/svg" viewBox="0 0 16 16"><path d="M8.538 12.301a.5.5 0 0 0-.929.369l.71 1.784a.501.501 0 0 0 .93-.369zm-2.584.311a.5.5 0 0 0-.928.369l.71 1.784a.5.5 0 0 0 .928-.369zm9.904-5.395c-.271-.862-.989-1.566-1.872-1.837a3.1 3.1 0 0 0-1.638-.061C11.8 3.288 9.896 1.82 7.689 1.82c-1.878 0-3.59 1.08-4.372 2.722-1.028-.04-1.947.435-2.581 1.198a3.2 3.2 0 0 0-.68 2.635c.285 1.521 1.709 2.626 3.388 2.626H5.5A.501.501 0 0 0 5.5 10H3.444c-1.178 0-2.212-.777-2.405-1.809a2.16 2.16 0 0 1 .466-1.812 2.38 2.38 0 0 1 2.077-.821.51.51 0 0 0 .523-.319c.55-1.447 1.99-2.418 3.583-2.418 1.917 0 3.545 1.386 3.786 3.223a.5.5 0 0 0 .257.374c.142.075.309.08.454.012a2.05 2.05 0 0 1 1.507-.094 1.85 1.85 0 0 1 1.212 1.182c.188.6.096 1.198-.263 1.687a1.98 1.98 0 0 1-1.595.797H7.498a.5.5 0 0 0 0 1h5.548c.95 0 1.848-.451 2.401-1.206a2.86 2.86 0 0 0 .409-2.578Z"/></svg>