<!-- SPDX-FileCopyrightText: © 2025 Schneider Electric SPDX-License-Identifier: LicenseRef-Proprietary -->
<svg xmlns="http://www.w3.org/2000/svg" viewBox="0 0 16 16"><path d="M8.294 7.083a.5.5 0 0 0 .934.359c.588-1.529.275-2.623 0-3.586-.268-.939-.521-1.826 0-3.177A.5.5 0 0 0 8.295.32c-.639 1.663-.313 2.803-.026 3.809.266.932.496 1.736.027 2.953Zm.103 1.63a.5.5 0 0 0-.139.693c.645.969 1.015 1.93 1.015 2.637 0 1.921-1.71 2.957-3.319 2.957s-3.32-1.036-3.32-2.957c0-2.464 2.191-4.916 3.176-5.895.236.449.573 1.056.881 1.48a.5.5 0 1 0 .808-.588c-.485-.667-1.089-1.919-1.096-1.932a.503.503 0 0 0-.776-.162c-.163.14-3.994 3.473-3.994 7.096 0 2.256 1.857 3.957 4.319 3.957s4.319-1.701 4.319-3.957c0-1.23-.741-2.527-1.183-3.191a.5.5 0 0 0-.693-.139Z"/><path d="M4.16 10.754a.5.5 0 0 0-.608.361q-.075.294-.075.596a2.38 2.38 0 0 0 1.705 2.276.5.5 0 0 0 .28-.958 1.38 1.38 0 0 1-.941-1.667.5.5 0 0 0-.361-.607ZM11.629.679a.5.5 0 0 0-.933-.359c-.64 1.663-.313 2.803-.026 3.81.266.931.494 1.736.026 2.953a.5.5 0 0 0 .934.359c.587-1.529.275-2.622 0-3.586-.269-.939-.521-1.826 0-3.177Zm2.401 3.177c-.268-.939-.521-1.826 0-3.177a.5.5 0 0 0-.933-.359c-.639 1.663-.313 2.803-.026 3.809.266.932.496 1.736.027 2.953a.5.5 0 0 0 .934.359c.588-1.529.275-2.623 0-3.586Z"/></svg>