<!-- SPDX-FileCopyrightText: © 2025 Schneider Electric SPDX-License-Identifier: LicenseRef-Proprietary -->
<svg xmlns="http://www.w3.org/2000/svg" viewBox="0 0 16 16"><path d="M15.384.62c-.795-.8-2.189-.793-2.972-.006l-2.4 2.337-.479-.481a1.3 1.3 0 0 0-.921-.385h0c-.349 0-.676.137-.922.384a1.31 1.31 0 0 0 0 1.846l.521.524-7.175 7.215c-.363.365-.576.859-.599 1.438a2 2 0 0 1 0 .314l-.291.292a.501.501 0 0 0 .71.706l.344-.347c.251-.253.254-.655.237-.967.009-.2.07-.489.309-.73l7.875-7.919-1.222-1.229a.31.31 0 0 1 0-.436.296.296 0 0 1 .425 0l.828.833h0s0 0 0 0q0 0 0 0a.5.5 0 0 0 .105.08h.001v.001h0l.002.001a.53.53 0 0 0 .28.062h.013a.5.5 0 0 0 .152-.041h0s0 0 0 0h0s.001-.001 0 0q0 0 0 0h0a.5.5 0 0 0 .142-.098l2.759-2.688a1.124 1.124 0 0 1 1.56 0 1.12 1.12 0 0 1 0 1.577l-2.711 2.726h0v.001h0s0 0 0 0h0v.002a.5.5 0 0 0-.093.136h0v.002q0 0 0 0t0 0 0 0h0v.001q0 0 0 0t0 0h0v.002h0v.003a.5.5 0 0 0-.04.192v.003h0v.003h0v.003h0v.002h0v.002h0v.002h0v.002s0 0 0 0h0v.002h0v.002h0v.002h0v.003h0v.003q.004.076.031.148v.002q0 0 0 0h0v.002q0 0 0 0t0 0h0v.001h0v.002h0v.001h0v.002q0 0 0 0h0v.004a.5.5 0 0 0 .104.153l.872.876a.31.31 0 0 1 0 .436.31.31 0 0 1-.426 0l-1.978-1.988a.5.5 0 1 0-.709.705l1.978 1.988c.492.495 1.352.495 1.844 0a1.31 1.31 0 0 0 0-1.846l-.521-.523 2.36-2.374a2.123 2.123 0 0 0 0-2.987Z"/><path d="M9.732 7.881 3.309 14.34c-.239.24-.524.301-.675.31-.359-.02-.76-.016-1.013.239l-.256.258a.5.5 0 1 0 .709.706l.201-.202c.05-.008.152-.011.356 0a2.07 2.07 0 0 0 1.387-.604l6.423-6.459a.5.5 0 1 0-.709-.705Z"/></svg>