<!-- SPDX-FileCopyrightText: © 2025 Schneider Electric SPDX-License-Identifier: LicenseRef-Proprietary -->
<svg xmlns="http://www.w3.org/2000/svg" viewBox="0 0 16 16"><path d="M15.502 3.972c-.499-.618-1.301-.973-2.199-.973h-2.557a.5.5 0 0 0-.454.289l-3.157 6.774-.616-6.609a.5.5 0 0 0-.499-.454H1.572a.5.5 0 0 0 0 1h.998c.603 0 1.107.213 1.42.601.279.345.375.805.27 1.293-.246 1.14-1.512 2.104-2.766 2.104h-.325l.611-2.566a.5.5 0 1 0-.974-.232L.049 8.384a.503.503 0 0 0 .487.617h.958c1.751 0 3.396-1.272 3.745-2.896.167-.777.008-1.523-.447-2.104h.772l.745 7.996a.5.5 0 0 0 .498.454c.192 0 .37-.111.454-.289l3.804-8.161h2.237c.604 0 1.107.213 1.421.601.278.345.374.805.27 1.293-.245 1.14-1.512 2.104-2.766 2.104h-.267l.836-2.525a.5.5 0 1 0-.951-.314l-1.053 3.183a.5.5 0 0 0 .475.658h.959c1.751 0 3.396-1.272 3.744-2.896.17-.79.003-1.547-.47-2.133Z"/></svg>