<!-- SPDX-FileCopyrightText: undefined SPDX-License-Identifier: undefined -->
<svg xmlns="http://www.w3.org/2000/svg" viewBox="0 0 16 16"><path d="M13.283 16.056a.5.5 0 0 1-.498-.454c-.287-3.076-1.072-5.124-2.538-6.602H5.97c-1.449 1.457-2.376 3.519-2.702 6h7.231a.5.5 0 0 1 0 1H2.688a.5.5 0 0 1-.463-.689c.282-2.746 1.238-5.062 2.779-6.746L5 8.5v-2a.5.5 0 0 1 1 0V8h4V6.753L5.31 4.819A.5.5 0 0 1 5 4.357V2.082a.5.5 0 0 1 .691-.463l4.31 1.776V2.256L7.067.927A.5.5 0 0 1 7.48.016l3.227 1.462a.5.5 0 0 1 .293.456v2.208a.5.5 0 0 1-.691.463l-4.31-1.776v1.194l4.69 1.934a.5.5 0 0 1 .31.462v1.92c2.089 2.147 2.589 5.106 2.782 7.17a.5.5 0 0 1-.452.544l-.047.002Z"/></svg>