<!-- SPDX-FileCopyrightText: undefined SPDX-License-Identifier: undefined -->
<svg xmlns="http://www.w3.org/2000/svg" viewBox="0 0 16 16"><path fill="currentColor" d="M11.427 16.031H4.236a.53.53 0 0 1-.429-.217l-1.63-2.231a1.4 1.4 0 0 1-.531-.238 1.56 1.56 0 0 1-.615-1.045.531.531 0 0 1 1.052-.148c.02.141.088.262.187.334a.28.28 0 0 0 .218.056l11.198-1.033c.157-.03.303-.291.267-.551l-.033-.231a.57.57 0 0 0-.216-.383.3.3 0 0 0-.134-.057L2.63 11.296a1.32 1.32 0 0 1-.983-.247 1.56 1.56 0 0 1-.615-1.045.531.531 0 0 1 1.052-.148c.02.141.088.262.187.334.048.035.122.07.218.056l10.826-.999.016-.003c.074-.013.148-.015.227-.019l.13-.012c.157-.03.303-.291.267-.551l-.033-.231a.56.56 0 0 0-.211-.375.26.26 0 0 0-.193-.055q-.064.012-.129.007l-10.756.993c-.316.059-.68-.027-.982-.247a1.56 1.56 0 0 1-.616-1.045.531.531 0 0 1 1.052-.148c.02.141.088.262.187.334a.28.28 0 0 0 .217.056l11.198-1.034c.158-.03.303-.29.267-.551l-.033-.23a.5.5 0 0 0-.191-.343.3.3 0 0 0-.212-.056.5.5 0 0 1-.149.006l-10.737.991a1.3 1.3 0 0 1-.982-.247 1.56 1.56 0 0 1-.616-1.045.531.531 0 0 1 1.052-.148c.02.141.088.262.187.334a.28.28 0 0 0 .217.056L13.69 4.65c.158-.03.303-.29.267-.551l-.033-.23a.5.5 0 0 0-.187-.335.3.3 0 0 0-.217-.056.5.5 0 0 1-.137.007l-10.751.969c-.312.058-.678-.027-.981-.247a1.56 1.56 0 0 1-.615-1.045l-.033-.232a.53.53 0 1 1 1.052-.148l.033.232c.02.141.088.262.187.334.048.035.122.07.218.056l11.199-1.01c.097-.019.217-.165.257-.356H.5A.54.54 0 0 1-.031 1.5v-1a.531.531 0 0 1 1.062 0v.469h13.938V.5a.531.531 0 0 1 1.062 0v1a.53.53 0 0 1-.531.531h-.486a1.63 1.63 0 0 1-.367.919c.17.216.283.481.322.765l.033.229c.067.476-.077.937-.357 1.27.171.217.285.484.324.77l.033.229c.067.48-.08.945-.364 1.278.175.224.291.497.331.79l.033.23c.067.479-.08.943-.363 1.276.174.225.29.498.33.791l.033.23c.117.83-.41 1.615-1.175 1.751l-10.384.958 1.062 1.452h6.641l1.15-1.696a.53.53 0 1 1 .879.595l-1.309 1.929a.53.53 0 0 1-.439.233Z"/></svg>