<!-- SPDX-FileCopyrightText: undefined SPDX-License-Identifier: undefined -->
<svg xmlns="http://www.w3.org/2000/svg" viewBox="0 0 16 16"><path d="M14.412 16.105a.5.5 0 0 1-.498-.454c-.258-2.769-1.229-5.064-2.809-6.652H4.704c-1.366 1.379-2.136 3.253-2.46 6h10.087a.5.5 0 0 1 0 1H1.667a.5.5 0 0 1-.462-.69c.203-2.054.729-4.93 2.795-7.019V6.499a.5.5 0 0 1 1 0v1.5h6V6.727L4.375 5.013A.5.5 0 0 1 4 4.529V2.094a.502.502 0 0 1 .625-.484L11 3.258v-1.29L7.605.979a.5.5 0 1 1 .28-.96l3.755 1.094a.5.5 0 0 1 .36.48v2.311a.502.502 0 0 1-.625.484L5 2.74v1.402l6.625 1.714A.5.5 0 0 1 12 6.34v2.146c1.637 1.743 2.64 4.177 2.911 7.073a.5.5 0 0 1-.452.544z"/></svg>