<!-- SPDX-FileCopyrightText: © 2025 Schneider Electric SPDX-License-Identifier: LicenseRef-Proprietary -->
<svg xmlns="http://www.w3.org/2000/svg" viewBox="0 0 16 16"><path d="M14.576 9.509c-.691-.414-1.289-.772-1.289-2.482l-.002-.041c.951-.128 1.901-1.11 1.901-2.63a.5.5 0 0 0-1 0c0 1.059-.658 1.645-1.113 1.645h-.486C11.604 6.001 11 4.938 11 4.175V3h3.5a.5.5 0 0 0 0-1H14V.5a.5.5 0 0 0-1 0V2h-1V.5a.5.5 0 0 0-1 0V2h-.5a.5.5 0 0 0-.5.5v1.675c0 1.248.926 2.628 2.289 2.807l-.002.045c0 2.277 1.026 2.892 1.775 3.34.585.351.938.562.938 1.461 0 1.986-1.533 3.173-3.015 3.173h-1.373c-.086 0-.16-.068-.197-.109a.5.5 0 0 1-.135-.34.497.497 0 0 0-.497-.551H2.812a.5.5 0 0 0-.5.5c0 .374-.047.491-.025.5H1.213a2.3 2.3 0 0 1-.201-.907l-.004-.317c-.034-1.812.086-2.877.356-3.168.333-.355.543-.493.712-.603.136-.089.276-.18.4-.339.068-.088.121-.198.202-.366.219-.454.625-1.3 1.224-1.3h4.766c.625 0 1.047.884 1.274 1.358.084.175.139.291.209.381.126.161.27.255.408.345.175.114.393.256.736.625.412.442.39 1.285.374 1.9l-.006.317a.5.5 0 0 0 1 0l.006-.291c.02-.744.049-1.867-.643-2.608-.428-.459-.725-.652-.922-.781a1 1 0 0 1-.155-.108c-.028-.043-.062-.118-.105-.21-.299-.625-.922-1.927-2.176-1.927H3.902c-1.226 0-1.833 1.26-2.125 1.866-.042.087-.074.158-.09.186a1 1 0 0 1-.156.115c-.191.125-.48.312-.897.759-.569.607-.661 1.985-.626 3.867l.004.298C.012 14.691.27 16 1.035 16h1.259c.394 0 .852-.188.982-1h6.073c.065.203.176.396.324.561.256.283.59.439.939.439h1.373C13.959 16 16 14.439 16 11.827c0-1.467-.789-1.939-1.424-2.318Z"/><path d="M2.775 11.363a.497.497 0 0 0-.525.474.5.5 0 0 0 .474.524l1.503.076h.026a.5.5 0 0 0 .025-.999zm5.522.076a.5.5 0 0 0 .025.999h.026l1.503-.076c.275-.014.488-.249.474-.524s-.221-.506-.524-.474l-1.503.076Z"/></svg>