<!-- SPDX-FileCopyrightText: © 2025 Schneider Electric SPDX-License-Identifier: LicenseRef-Proprietary -->
<svg xmlns="http://www.w3.org/2000/svg" viewBox="0 0 16 16"><path d="M14.145 6.426c1.141-.108 1.837-.853 1.837-1.998a.5.5 0 0 0-1 0c0 .25 0 1.011-1.132 1.011-1.827 0-1.827-.772-1.827-1.108l-.017-1.332H15.5a.5.5 0 0 0 0-1H15V.5a.5.5 0 0 0-1 0V2h-1V.5a.5.5 0 0 0-1 0V2h-.5a.5.5 0 0 0-.5.506l.022 1.832c0 .703.294 1.832 2.121 2.061.062 1.911.651 2.737 1.13 3.409.397.557.711.996.711 2.02 0 2.622-2.254 3.173-4.144 3.173H9.683c-.127-.256-.205-1.025-.163-1.45a.5.5 0 0 0-.498-.55H2.668a.5.5 0 0 0-.5.5l.003.176c.019.817-.031 1.172-.08 1.324h-.979c-.045-.109-.111-.378-.111-.889v-.109c-.005-2.323.208-3.121.388-3.382.042-.061.083-.112.123-.162.176-.223.376-.476.498-1.098.011-.058.024-.247.038-.524.164-3.316.57-3.919.737-4.024 1.075-.678 5.019-.714 5.966-.039.171.108.595.73.83 4.172.018.257.032.432.043.487.117.602.369.846.553 1.024.05.049.103.097.149.164.393.568.39 1.938.388 2.522v.11a.5.5 0 0 0 1 0v-.108c.002-.792.006-2.267-.564-3.093a2 2 0 0 0-.276-.313c-.136-.132-.211-.205-.267-.488-.008-.055-.016-.187-.029-.373-.209-3.069-.584-4.503-1.27-4.934-1.261-.9-5.613-.887-7.057.022-.875.551-1.095 2.643-1.203 4.821-.01.196-.016.336-.021.382-.075.384-.16.49-.3.668a5 5 0 0 0-.162.215c-.507.734-.568 2.498-.565 3.952v.107C0 15.364.34 16 1.011 16h1.234c.2 0 .39-.081.535-.229.316-.323.397-.921.395-1.771h5.343c.015.538.102 1.332.459 1.727.16.176.37.273.591.273h1.271c3.269 0 5.144-1.521 5.144-4.173 0-1.343-.456-1.982-.896-2.601-.435-.609-.883-1.238-.943-2.8Z"/><path d="M7.19 10.712a.496.496 0 0 0-.13.686c.151.229.46.288.689.144.043-.026.264-.155.441-.012a.5.5 0 0 0 .703-.081.5.5 0 0 0-.081-.702c-.612-.484-1.308-.252-1.623-.034Zm-4.376-.043a.496.496 0 0 0-.14.685.5.5 0 0 0 .688.151c.028-.016.28-.165.481-.01a.497.497 0 0 0 .701-.091.5.5 0 0 0-.091-.701c-.619-.476-1.321-.244-1.64-.033Z"/></svg>