<!-- SPDX-FileCopyrightText: © 2025 Schneider Electric SPDX-License-Identifier: LicenseRef-Proprietary -->
<svg xmlns="http://www.w3.org/2000/svg" viewBox="0 0 16 16"><path d="m13.501 4.197-1.708-1.593.241-2.046a.5.5 0 0 0-.86-.402L9.441 1.999H6.567L4.824.165a.5.5 0 0 0-.859.407l.258 2.042-1.722 1.582a.5.5 0 0 0 .339.868h1.854l1.195 2.602-1.955 7.677a.5.5 0 0 0 .842.473l3.595-3.674a.5.5 0 0 0-.715-.699l-2.294 2.344 1.54-6.044a.5.5 0 0 0-.03-.332L5.469 4.357a.5.5 0 0 0-.455-.292h-.891l.967-.889a.5.5 0 0 0 .158-.431l-.099-.785.841.886a.5.5 0 0 0 .363.156h3.304a.5.5 0 0 0 .364-.157l.843-.896-.093.792a.5.5 0 0 0 .155.424l.965.9h-.923a.5.5 0 0 0-.456.295L9.126 7.44a.5.5 0 0 0-.028.329l2.009 7.857a.5.5 0 1 0 .968-.248L10.109 7.69l1.182-2.625h1.869a.499.499 0 0 0 .341-.866Z"/></svg>