<!-- SPDX-FileCopyrightText: © 2024 Elo Touch Solutions, Inc. All rights reserved. SPDX-License-Identifier: LicenseRef-Proprietary -->
<svg xmlns="http://www.w3.org/2000/svg" version="1.1" viewBox="0 0 2423.67 2295.08"><path fill="#000" d="M1361.07 2043.26h-.02V302.22h-312.09v1741.04h.05zM482.4 2057.1c-74.12 0-164.66-14.2-164.66-14.2-139.32-32.88-221.58-110.27-221.58-217.27V862.19c0-144.27 149.58-234.74 386.93-234.74 237.31 0 386.86 90.47 386.86 234.74v513.5H408.27v445.05c0 63.59 29.25 68.45 74.81 68.45 45.51 0 74.77-4.86 74.77-68.45v-327.65h312.09v332.54c0 107.23-82.63 184.73-222.49 217.47v.16s-97.77 13.84-165.05 13.84zm75.45-1190c0-63.59-29.26-68.47-74.77-68.47-45.56 0-74.81 4.88-74.81 68.47v344.77h149.58zM1936.3 2057.28c-67.21 0-173.92-14.01-173.92-14.01l-1.24-.21c-139.75-32.77-222.26-110.25-222.26-217.42V862.19c0-144.27 149.54-234.74 386.86-234.74 237.35 0 386.87 90.47 386.87 234.74v963.44c0 107.36-82.75 184.92-222.88 217.57l.57.06c-.01 0-89.78 14.02-154 14.02zm64.22-1190.18c0-63.59-29.26-68.47-74.78-68.47s-74.77 4.88-74.77 68.47v953.64c0 63.56 29.25 68.45 74.77 68.45s74.78-4.86 74.78-68.45zM90.56 300.37v227.17l787.26-.02V300.37z"/></svg>