<!-- SPDX-FileCopyrightText: © 2025 Schneider Electric SPDX-License-Identifier: LicenseRef-Proprietary -->
<svg xmlns="http://www.w3.org/2000/svg" viewBox="0 0 16 16"><path d="M4.16 9.419a.5.5 0 1 0-.931.365c.7 1.783 2.627 2.98 4.795 2.98s4.095-1.197 4.795-2.98a.5.5 0 0 0-.931-.365c-.55 1.403-2.103 2.346-3.863 2.346s-3.313-.942-3.864-2.346Z"/><path d="M8 0C3.589 0 0 3.6 0 8.024c0 4.085 3.047 7.513 7.087 7.973l.057.003a.5.5 0 0 0 .056-.997C3.665 14.601.999 11.601.999 8.024c0-3.873 3.14-7.024 7-7.024s7 3.151 7 7.024c0 3.391-2.407 6.296-5.725 6.907a.5.5 0 0 0-.401.583c.05.272.305.442.583.401 3.791-.7 6.543-4.019 6.543-7.892C16 3.6 12.411 0 8 0Z"/><path d="M11.176 5.677a.73.73 0 1 0-1.46 0 .73.73 0 0 0 1.46 0Zm-4.891 0a.73.73 0 1 0-1.46 0 .73.73 0 0 0 1.46 0Z"/></svg>