<!-- SPDX-FileCopyrightText: © 2025 Schneider Electric SPDX-License-Identifier: LicenseRef-Proprietary -->
<svg xmlns="http://www.w3.org/2000/svg" viewBox="0 0 16 16"><path d="M15.5 5a.5.5 0 0 0-.5.5v7.2a.3.3 0 0 1-.3.3H1.3a.3.3 0 0 1-.3-.3V3.3a.3.3 0 0 1 .3-.3h13.01q.162 0 .303.069L7.992 7.881 2.795 4.09a.499.499 0 1 0-.589.807l5.491 4.005a.5.5 0 0 0 .588 0l7.373-5.358a.5.5 0 0 0 .199-.294.5.5 0 0 0 .002-.222.5.5 0 0 0-.051-.135 1.7 1.7 0 0 0-1.497-.895H1.3c-.717 0-1.3.583-1.3 1.3v9.4c0 .717.583 1.3 1.3 1.3h13.4c.717 0 1.3-.583 1.3-1.3v-7.2a.5.5 0 0 0-.5-.5Z"/></svg>