<!-- SPDX-FileCopyrightText: © 2025 Schneider Electric SPDX-License-Identifier: LicenseRef-Proprietary -->
<svg xmlns="http://www.w3.org/2000/svg" viewBox="0 0 16 16"><path d="M5.503 9.002 1.513 9l2.325-2.13a.5.5 0 0 0-.676-.738L.467 8.603c-.308.282-.461.57-.467.879v.033c.004.312.157.602.467.887l2.695 2.469a.5.5 0 0 0 .676-.738l-2.327-2.132 3.992.002c1.378 0 2.5 1.121 2.5 2.5s-1.122 2.5-2.499 2.5l-1.003-.002h0a.5.5 0 0 0-.001 1l1.004.002c1.93 0 3.5-1.57 3.5-3.5s-1.57-3.5-3.5-3.5Zm10.278-7.557a.5.5 0 0 0 .054-.528C15.569.351 15.047 0 14.468 0H3.3C2.583 0 2 .583 2 1.3v3.2a.5.5 0 0 0 1 0V1.3a.3.3 0 0 1 .3-.3h11.168q.119 0 .226.066L9.003 5.839 4.834 2.126a.5.5 0 0 0-.665.747l4.492 4a.5.5 0 0 0 .654.009L15.7 1.527a.5.5 0 0 0 .081-.083ZM15.5 3a.5.5 0 0 0-.5.5v8.2a.3.3 0 0 1-.3.3h-3.2a.5.5 0 0 0 0 1h3.2c.717 0 1.3-.583 1.3-1.3V3.5a.5.5 0 0 0-.5-.5Z"/></svg>