<!-- SPDX-FileCopyrightText: © 2025 Schneider Electric SPDX-License-Identifier: LicenseRef-Proprietary -->
<svg xmlns="http://www.w3.org/2000/svg" viewBox="0 0 16 16"><path d="M14.448 9.335c-.69-.547-1.295-1.027-1.397-2.368.98-.195 1.74-1.148 1.957-2.112a.499.499 0 1 0-.975-.22c-.138.607-.713 1.423-1.453 1.365h-.163c-.411-.003-.739-.105-.966-.33-.295-.291-.451-.794-.451-1.456V2.999h3.5a.5.5 0 0 0 0-1H14V.5a.5.5 0 0 0-1 0V2h-1V.5a.5.5 0 0 0-1 0V2h-.5a.5.5 0 0 0-.5.5v1.715c0 .935.259 1.685.748 2.167.34.334.785.539 1.302.599.125 1.827 1.035 2.549 1.776 3.138.682.54 1.174.931 1.174 2.072C15 14.129 12.776 15 11.197 15 8.896 15 8 13.727 8 10.459V3.603C8 1.566 6.284.031 4.007.031 1.646.031 0 2.14 0 4.032V13.5a.5.5 0 0 0 .5.5H1v1.5a.5.5 0 0 0 .5.5h2a.5.5 0 0 0 0-1H2v-1h.5a.5.5 0 0 0 0-1H1V4.032c0-1.417 1.286-3.001 3.007-3.001C5.458 1.031 7 1.932 7 3.602v6.856c0 2.58.477 5.541 4.197 5.541 2.36 0 4.803-1.425 4.803-3.809 0-1.624-.824-2.278-1.552-2.856Z"/><path d="M4.781 2.62a.5.5 0 0 0-.011.707c.105.108.229.29.229.543v5.418c0 .471-.449.854-1 .854s-1-.383-1-.854V3.87c0-.204.086-.401.245-.559l.063-.058a.5.5 0 1 0-.638-.77q-.07.058-.131.119a1.78 1.78 0 0 0-.539 1.267v5.418c0 1.022.897 1.854 2 1.854s2-.831 2-1.854V3.87c0-.459-.182-.899-.512-1.239a.5.5 0 0 0-.707-.011Z"/></svg>