<!-- SPDX-FileCopyrightText: © 2025 Schneider Electric SPDX-License-Identifier: LicenseRef-Proprietary -->
<svg xmlns="http://www.w3.org/2000/svg" viewBox="0 0 16 16"><path d="m15.943 8.623-.082-.169c-2.171-4.529-5.758-5.488-8.404-5.488-.295-.002-.547.21-.546.502a.5.5 0 0 0 .5.498h.002c3.327.008 5.831 1.549 7.412 4.649-.855.43-1.507.945-2.141 1.446-.912.721-1.773 1.401-3.17 1.72-5.131 1.168-7.788-2.026-8.431-2.947.934-1.531 2.684-2.123 3.853-2.351a3.1 3.1 0 0 0-.381 1.488c0 1.714 1.395 3.108 3.109 3.108s3.108-1.395 3.108-3.108A3.12 3.12 0 0 0 8.29 4.925a.5.5 0 1 0-.201.98 2.116 2.116 0 0 1 1.684 2.066c0 1.162-.946 2.108-2.108 2.108s-2.109-.946-2.109-2.108c0-.67.323-1.306.864-1.703.222-.162.253-.497.093-.72a.5.5 0 0 0-.406-.208h-.005c-.178.002-4.388.079-6.046 3.284a.5.5 0 0 0 .012.481c.026.045 2.355 3.927 7.314 3.926.728 0 1.513-.084 2.355-.275 1.617-.368 2.608-1.152 3.567-1.91.695-.549 1.414-1.117 2.391-1.532a.496.496 0 0 0 .248-.69Z"/></svg>