<!-- SPDX-FileCopyrightText: © 2025 Schneider Electric SPDX-License-Identifier: LicenseRef-Proprietary -->
<svg xmlns="http://www.w3.org/2000/svg" viewBox="0 0 16 16"><path d="M11.192 11.03a.499.499 0 1 0 .76-.648l-.79-.926a.498.498 0 1 0-.76.648zm1.558-1.391a.5.5 0 0 0 .236-.941l-1.072-.574a.5.5 0 1 0-.473.881l1.072.574a.5.5 0 0 0 .236.06Zm-3.508.427a.5.5 0 0 0-.317.632l.383 1.156a.5.5 0 1 0 .949-.314l-.383-1.156a.5.5 0 0 0-.632-.317ZM12 5.5a.5.5 0 0 0 .5.5h1a.5.5 0 0 0 0-1h-1a.5.5 0 0 0-.5.5Z"/><path d="M14.093 14.2c-.031-.053-.789-1.279-2.768-1.279-.935 0-2.113.518-3.362 1.065-1.421.623-3.033 1.33-3.824.971-.15-.068-.366-.211-.507-.662-.147-.471-.106-.882.125-1.259.656-1.068 2.689-1.618 3.417-1.74a.5.5 0 0 0-.052-.993 7 7 0 0 1-.762-.088 12 12 0 0 1-.868-.21.5.5 0 0 0-.436.881c-.816.342-1.682.862-2.151 1.624-.387.629-.464 1.33-.229 2.083.193.617.545 1.045 1.047 1.273.283.129.596.185.932.185 1.088 0 2.416-.582 3.708-1.149 1.099-.482 2.235-.981 2.96-.981 1.387 0 1.893.767 1.91.793a.5.5 0 0 0 .858-.514Zm-.755-6.368a.5.5 0 0 0 .069-.995l-1.205-.172a.5.5 0 0 0-.14.99l1.205.172zm-9.441 2.353q.122.071.256.07a.501.501 0 0 0 .257-.93C3.422 8.735 3 7.955 3 6.717V1h3.5a.5.5 0 0 0 0-1h-4a.5.5 0 0 0-.5.5v6.217c0 1.592.603 2.694 1.897 3.467ZM6 6.5a.5.5 0 0 0 .5.5h2a.5.5 0 0 0 .5-.5V1h3.5a.5.5 0 0 0 0-1h-4a.5.5 0 0 0-.5.5V6H6.5a.5.5 0 0 0-.5.5Z"/><circle cx="5.463" cy="3.516" r=".5"/><circle cx="10.467" cy="3.481" r=".5"/></svg>