<!-- SPDX-FileCopyrightText: © 2025 Schneider Electric SPDX-License-Identifier: LicenseRef-Proprietary -->
<svg xmlns="http://www.w3.org/2000/svg" viewBox="0 0 16 16"><path d="M7.638 9H6V8h.642c.601-.016 1.496-.426 1.496-1.492 0-1.061-.89-1.482-1.509-1.508H2.543c-.605.011-1.506.424-1.506 1.513 0 .534.22.864.405 1.048.434.43 1.002.437 1.107.439H3v1H.5a.5.5 0 0 0 0 1h3a.5.5 0 0 0 .5-.5v-2a.5.5 0 0 0-.5-.5h-.949c-.235-.004-.514-.091-.514-.487 0-.427.333-.505.516-.513h4.051c.2.012.535.095.535.508 0 .406-.331.483-.509.492H5.501a.5.5 0 0 0-.5.5v2a.5.5 0 0 0 .5.5h2.138c3.151 0 3.863 3.62 4.02 5H8.997a38 38 0 0 1-.008-.804c0-1.116-.539-1.659-.991-1.918-.475-.272-.984-.255-.988-.278H.5a.5.5 0 0 0 0 1h6.505c.231.005.983.105.983 1.196 0 1.006.031 1.348.031 1.348a.5.5 0 0 0 .498.456h3.684a.5.5 0 0 0 .5-.517c-.081-2.242-1.244-6.482-5.063-6.482Zm8.138-5.774-.76-.505.347-.654a.5.5 0 1 0-.883-.468l-.461.868-1.411.416.069-1.268.855-.736a.5.5 0 0 0-.652-.758l-.688.591-.67-.588a.501.501 0 0 0-.66.752l.814.714-.072 1.311-1.231-.398-.392-.976a.5.5 0 1 0-.928.372l.329.821-.686.469a.5.5 0 1 0 .565.825l.814-.557 1.224.395-.705 1.132-1.059.13a.5.5 0 0 0-.435.557.494.494 0 0 0 .557.435l.851-.104.215.917a.5.5 0 0 0 .973-.23l-.271-1.15.685-1.101.855 1.114-.23 1.067a.5.5 0 1 0 .979.21l.178-.825.824.139a.5.5 0 0 0 .166-.986l-1.102-.186-.872-1.136 1.37-.404.942.627a.499.499 0 1 0 .552-.833Z"/></svg>