<!-- SPDX-FileCopyrightText: © 2025 Schneider Electric SPDX-License-Identifier: LicenseRef-Proprietary -->
<svg xmlns="http://www.w3.org/2000/svg" viewBox="0 0 16 16"><path fill="currentColor" d="M15.077 1.879a1.68 1.68 0 0 0-1.982.293c-1.59 1.562-3.167 2.825-4.689 3.755a.88.88 0 0 0-.383.479l-.4 1.2-.099-.179a.91.91 0 0 0-.623-.453.9.9 0 0 0-.741.184c-.641.517-1.8 1.583-2.537 3.033a3.1 3.1 0 0 1-.21-1.325.5.5 0 1 0-.999-.047 4 4 0 0 0 .391 1.989.9.9 0 0 0 .816.509h.008a.9.9 0 0 0 .811-.52c.614-1.298 1.646-2.282 2.261-2.79l.6 1.079c.096.172.28.281.483.254a.5.5 0 0 0 .428-.339l.716-2.22c1.586-.969 3.224-2.279 4.868-3.895a.68.68 0 0 1 .817-.121c.225.117.44.378.374.758a20 20 0 0 1-.484 2.099l-1.459 1.229a.5.5 0 0 0-.178.361.5.5 0 0 0 .146.375l.542.541c-.686 1.215-1.757 2.366-2.03 2.669l-3.104.775a.501.501 0 0 0-.103.933l.606.303c-1.2.411-3.192.886-4.414.086 2.823-1.213 6.61-3.487 9.428-7.59a.5.5 0 1 0-.824-.566C8.37 11.646.489 13.159.41 13.174a.5.5 0 0 0-.402.582c.05.271.311.447.581.402.123-.022 1.246-.236 2.867-.842.741.752 1.754 1.003 2.777 1.003 1.984 0 4.002-.944 4.131-1.006a.499.499 0 0 0 .009-.898l-.399-.2 1.798-.448a.9.9 0 0 0 .429-.25c.344-.356 1.522-1.624 2.266-2.968a.92.92 0 0 0-.157-1.082l-.203-.203 1.042-.877a.9.9 0 0 0 .285-.43c.225-.727.406-1.488.541-2.264a1.69 1.69 0 0 0-.896-1.814Z"/></svg>