<!-- SPDX-FileCopyrightText: © 2025 Schneider Electric SPDX-License-Identifier: LicenseRef-Proprietary -->
<svg xmlns="http://www.w3.org/2000/svg" viewBox="0 0 16 16"><path d="M5.513 1.141a4.8 4.8 0 0 1 2.784.649l-.68.122a.5.5 0 0 0 .176.984l1.719-.308a.5.5 0 0 0 .412-.481L9.96.51a.5.5 0 0 0-.489-.511c-.307-.012-.505.213-.511.489l-.012.527A5.83 5.83 0 0 0 5.443.143 5.86 5.86 0 0 0 .014 6.386a5.84 5.84 0 0 0 .997 2.881.5.5 0 0 0 .827-.562 4.854 4.854 0 0 1 3.675-7.564Zm10.198 8.745q-.286-.393-.828-.541c0-.461-.179-.854-.505-1.102a1.27 1.27 0 0 0-1.042-.22 1.25 1.25 0 0 0-.691-.805 1.4 1.4 0 0 0-.915-.075 11.2 11.2 0 0 0-.367-2.403c-.245-.892-1.046-1.198-1.681-1.035-.599.156-1.101.735-.903 1.54.14.57.385 2.111.248 3.234-.146 1.201-.408 1.348-.407 1.349s-.043.003-.143-.052c-.379-.211-1.533-1.206-1.83-1.533-.531-.584-1.308-.705-1.889-.292-.485.345-.794 1.109-.324 1.972.433.796 1.418 1.909 2.209 2.804.438.495.891 1.008 1.002 1.197l.062.106c.236.403.504.86.717 1.343a.5.5 0 1 0 .915-.404 14 14 0 0 0-.769-1.443l-.062-.106c-.153-.261-.506-.664-1.117-1.354-.758-.856-1.701-1.923-2.08-2.62-.158-.289-.148-.556.025-.678.122-.088.344-.099.57.149.332.366 1.572 1.451 2.084 1.735.481.267.854.185 1.079.07.509-.259.802-.913.949-2.119.148-1.215-.086-2.849-.269-3.593-.054-.222.07-.304.184-.334.059-.014.354-.07.464.332.641 2.337.191 4.774.187 4.799a.5.5 0 0 0 .982.187c.01-.055.136-.733.169-1.72l.059-.056c.098-.112.293-.149.437-.085q.2.092.158.433a23 23 0 0 0-.163 1.889.5.5 0 0 0 .481.518c.263.028.508-.206.518-.481 0-.006.019-.505.09-1.212q.027-.193.18-.258a.29.29 0 0 1 .278.023c.122.092.116.303.101.421l-.107.858v.008a.51.51 0 0 0 .433.569c.333.039.454-.028.541-.44l.017.002-.017-.002.001-.008.017.002a.5.5 0 0 0 .003-.091.4.4 0 0 1 .14.111c.236.326-.012 1.278-.106 1.636-.304 1.166-.747 1.896-1.138 2.541-.126.209-.247.408-.357.609a.5.5 0 0 0 .877.481q.155-.28.335-.571c.405-.668.909-1.5 1.25-2.808.277-1.061.374-1.888-.053-2.475Z"/></svg>