<!-- SPDX-FileCopyrightText: © 2025 Schneider Electric SPDX-License-Identifier: LicenseRef-Proprietary -->
<svg xmlns="http://www.w3.org/2000/svg" viewBox="0 0 16 16"><path d="M13.123 6.292q-.416-.453-1.151-.538c-.039-.59-.303-1.067-.74-1.327a1.49 1.49 0 0 0-1.356-.072 1.5 1.5 0 0 0-.655-.831 1.62 1.62 0 0 0-1.405-.096c0-.624.006-1.237.022-1.749.019-.629-.25-1.158-.74-1.453A1.63 1.63 0 0 0 5.481.204c-.463.265-.727.739-.722 1.301.002.341-.014.833-.031 1.375-.027.836-.058 1.785-.033 2.511.004.145 0 .398-.009.705-.329.11-.676.364-1.009.74-.76.86-1.49 2.428-1.257 4.248.177 1.381.726 2.14 1.259 2.878.336.464.654.902.908 1.515a.5.5 0 0 0 .924-.382c-.298-.722-.667-1.229-1.024-1.723-.499-.689-.93-1.285-1.074-2.414-.187-1.455.382-2.719.977-3.417q.135-.157.248-.256c-.04.857-.086 1.665-.087 1.68a.5.5 0 0 0 .998.058c.007-.121.169-2.961.146-3.664-.022-.694.007-1.625.034-2.446.018-.558.034-1.063.031-1.415q-.001-.299.218-.425a.63.63 0 0 1 .606.011q.266.161.255.565a88 88 0 0 0-.015 3.145l-.002.071q-.001.034.004.067c.011 1.085.031 1.937.031 1.954.006.275.208.458.512.488a.5.5 0 0 0 .488-.512c0-.017-.021-.916-.033-2.04a.53.53 0 0 1 .276-.425c.195-.108.441-.114.611-.013.218.129.261.405.258.613a33 33 0 0 0 0 .772v.014c.011.936.06 1.583.062 1.618a.5.5 0 1 0 .997-.077c0-.008-.048-.648-.06-1.561.007-.27.146-.404.262-.47a.5.5 0 0 1 .493-.008c.168.1.259.327.255.639l-.003.296v.025c-.003.292-.004.519.003.695a.5.5 0 0 0-.013.108h.019c.031.476.143.504.474.508h.006c.269 0 .49-.227.5-.496v-.016l.003-.286c.278.05.377.159.418.204.345.378.252 1.374.133 2.199-.223 1.541-.685 2.539-1.092 3.42a19 19 0 0 0-.376.848 8 8 0 0 0-.14.372 5.2 5.2 0 0 0-.302 1.691.5.5 0 0 0 .496.504h.004a.5.5 0 0 0 .5-.496c.004-.461.083-.897.247-1.372q.056-.162.122-.323c.107-.265.229-.527.357-.804.436-.942.93-2.011 1.174-3.697.194-1.345.203-2.373-.384-3.017Z"/></svg>