<!-- SPDX-FileCopyrightText: © 2025 Schneider Electric SPDX-License-Identifier: LicenseRef-Proprietary -->
<svg xmlns="http://www.w3.org/2000/svg" viewBox="0 0 16 16"><path d="M2.534 5.691a35 35 0 0 1 2.934-.63.5.5 0 1 0-.164-.986 36 36 0 0 0-2.788.588l.347-.617a.5.5 0 1 0-.872-.49l-.926 1.648a.5.5 0 0 0 .105.632l1.25 1.076a.5.5 0 1 0 .652-.758zm-.907-3.342c.032-.009 3.203-.863 6.042-.863 1.999 0 4.49.567 5.796.905l-.538.462a.5.5 0 0 0 .652.758l1.25-1.075a.5.5 0 0 0 .105-.632L14.008.255a.5.5 0 0 0-.872.49l.346.617C12.084 1.008 9.681.487 7.668.487c-2.974-.001-6.169.86-6.303.897a.5.5 0 1 0 .263.965Zm11.257 6.178c-.049-.492-.281-.89-.655-1.112a1.32 1.32 0 0 0-1.136-.095 1.3 1.3 0 0 0-.554-.663 1.43 1.43 0 0 0-1.142-.125c0-.484.006-.956.019-1.354.017-.558-.224-1.029-.661-1.292-.436-.262-1-.27-1.439-.019-.415.237-.65.661-.646 1.163.002.286-.011.698-.026 1.152-.022.704-.048 1.501-.028 2.114.003.109 0 .298-.006.533-.274.106-.559.319-.83.626-.65.735-1.273 2.076-1.075 3.63.152 1.183.619 1.827 1.07 2.45a.499.499 0 1 0 .809-.586c-.413-.57-.769-1.062-.888-1.991-.167-1.305.401-2.362.86-2.874-.023.48-.048.937-.063 1.206a.5.5 0 0 0 .47.527.496.496 0 0 0 .528-.471c.006-.101.143-2.49.123-3.084-.019-.58.006-1.36.028-2.049.015-.47.028-.897.026-1.192 0-.14.044-.231.143-.287a.45.45 0 0 1 .428.008q.185.112.176.404A75 75 0 0 0 8.402 7.8l-.001.049q0 .028.002.055c.01.887.026 1.588.027 1.645.006.276.212.473.512.488a.5.5 0 0 0 .488-.512c0-.014-.018-.766-.027-1.705a.36.36 0 0 1 .191-.294c.138-.076.315-.083.433-.012.15.089.179.291.177.445-.015 1.131.05 1.991.053 2.027a.5.5 0 1 0 .997-.077c0-.007-.04-.537-.05-1.294h0c.002-.195.099-.291.179-.335a.34.34 0 0 1 .334-.008c.157.093.177.333.175.467l-.003.25v.017l-.009.681v.006a.5.5 0 0 0 .493.5c.276-.037.503-.218.507-.494v-.014l.002-.141a.46.46 0 0 1 .213.124c.27.296.182 1.159.092 1.783-.186 1.282-.57 2.114-.91 2.85-.114.246-.223.48-.318.717q-.064.157-.12.316a.501.501 0 0 0 .946.328q.046-.136.102-.27c.09-.221.192-.441.299-.673.35-.757.786-1.699.992-3.126.167-1.152.172-2.035-.342-2.599q-.35-.384-.952-.469Zm1.751-3.842a30 30 0 0 0-4.034-.756.5.5 0 0 0-.115.993c2.082.241 3.869.723 3.887.728a.5.5 0 0 0 .613-.351.5.5 0 0 0-.351-.614Z"/></svg>