<!-- SPDX-FileCopyrightText: © 2025 Schneider Electric SPDX-License-Identifier: LicenseRef-Proprietary -->
<svg xmlns="http://www.w3.org/2000/svg" viewBox="0 0 16 16"><path d="M6.187 2.348a.501.501 0 0 0 .758-.652L5.876.454a.5.5 0 0 0-.631-.105l-1.639.92a.5.5 0 1 0 .49.872l.581-.326c-.215.874-.446 2.125-.43 3.427.019 1.435.296 2.968.525 4.002a.501.501 0 0 0 .977-.217c-.219-.987-.484-2.448-.501-3.798-.017-1.323.253-2.618.468-3.431l.474.55Zm-3.35 5.916-.474.55c-.214-.813-.484-2.108-.468-3.431.027-2.194.726-4.723.733-4.749a.5.5 0 0 0-.963-.269c-.03.108-.741 2.677-.77 5.004-.016 1.302.214 2.554.43 3.427L.744 8.47a.5.5 0 0 0-.49.872l1.639.92a.5.5 0 0 0 .632-.106l1.069-1.242a.5.5 0 1 0-.758-.652Zm12.723-.329q-.348-.381-.945-.467c-.049-.489-.28-.884-.652-1.105a1.33 1.33 0 0 0-1.129-.097 1.3 1.3 0 0 0-.551-.657 1.43 1.43 0 0 0-1.132-.125c0-.443.006-.876.018-1.249.017-.556-.223-1.025-.658-1.286a1.44 1.44 0 0 0-1.434-.019c-.414.236-.648.659-.644 1.159.002.285-.011.681-.026 1.117-.022.669-.048 1.429-.027 2.036.003.108 0 .296-.006.528-.272.105-.554.317-.823.621-.647.731-1.268 2.065-1.07 3.613.151 1.175.615 1.816 1.07 2.444.277.382.538.742.745 1.243a.5.5 0 0 0 .653.272.5.5 0 0 0 .271-.652c-.252-.61-.575-1.056-.866-1.457-.41-.566-.763-1.055-.881-1.977a3.7 3.7 0 0 1 .848-2.851c-.023.476-.047.926-.062 1.193a.5.5 0 0 0 .47.528.51.51 0 0 0 .528-.47c.006-.101.142-2.476.122-3.067-.019-.582.006-1.319.028-1.97.015-.451.028-.862.026-1.158 0-.138.043-.228.14-.283a.44.44 0 0 1 .422.008q.182.11.173.399a71 71 0 0 0-.013 2.542l-.001.052.002.057c.01.906.027 1.619.027 1.633a.5.5 0 0 0 .5.488h.012a.5.5 0 0 0 .488-.512c0-.014-.018-.76-.027-1.692a.36.36 0 0 1 .189-.292.44.44 0 0 1 .428-.012c.147.087.176.287.174.439q-.005.34 0 .64h0v.026c.009.78.05 1.32.052 1.349a.5.5 0 1 0 .997-.077c0-.007-.041-.539-.049-1.298.006-.185.099-.275.176-.318a.34.34 0 0 1 .329-.008c.154.091.174.328.172.461l-.003.249v.015l-.009.665h0v.012a.51.51 0 0 0 .493.507c.347-.005.448-.056.489-.494h.018-.018v-.012h.017a.5.5 0 0 0-.009-.101l.002-.04a.46.46 0 0 1 .215.124c.268.293.18 1.15.091 1.769-.185 1.274-.567 2.102-.905 2.832a16 16 0 0 0-.315.712q-.065.157-.119.315a4.4 4.4 0 0 0-.249 1.203.5.5 0 0 0 .469.529.487.487 0 0 0 .529-.469 3.4 3.4 0 0 1 .196-.938q.046-.133.1-.265c.089-.22.19-.438.297-.668.348-.753.781-1.689.986-3.109.166-1.146.171-2.024-.341-2.585Z"/></svg>