<!-- SPDX-FileCopyrightText: © 2025 Schneider Electric SPDX-License-Identifier: LicenseRef-Proprietary -->
<svg xmlns="http://www.w3.org/2000/svg" viewBox="0 0 16 16"><path d="M3.994 6.33a.5.5 0 0 0 .413-.782A2.913 2.913 0 0 1 6.813 1a2.913 2.913 0 0 1 2.851 3.497.499.499 0 1 0 .98.2q.08-.386.079-.788a3.914 3.914 0 0 0-3.91-3.91 3.914 3.914 0 0 0-3.232 6.112.5.5 0 0 0 .414.218Z"/><path d="M12.658 7.748q-.349-.382-.947-.468c-.049-.489-.28-.885-.653-1.106a1.32 1.32 0 0 0-1.13-.097 1.3 1.3 0 0 0-.551-.658 1.43 1.43 0 0 0-1.134-.125c0-.48.006-.949.018-1.345.017-.556-.223-1.025-.658-1.287a1.44 1.44 0 0 0-1.435-.019c-.414.236-.649.659-.645 1.16.002.284-.011.694-.026 1.146-.022.7-.048 1.494-.027 2.104.003.108 0 .296-.006.529-.272.105-.556.318-.825.623-.647.733-1.268 2.067-1.069 3.615.151 1.177.615 1.818 1.065 2.44.279.385.542.748.75 1.252a.5.5 0 1 0 .924-.381c-.254-.614-.579-1.062-.866-1.458-.411-.567-.765-1.057-.883-1.98a3.7 3.7 0 0 1 .85-2.855c-.023.477-.048.929-.063 1.196a.5.5 0 0 0 .998.058c.006-.101.142-2.479.123-3.071-.019-.577.006-1.354.028-2.039.015-.468.028-.892.026-1.186 0-.138.043-.228.141-.284.122-.07.3-.066.423.008q.183.11.174.399a74 74 0 0 0-.013 2.638l-.001.052q0 .03.002.058c.01.881.026 1.577.027 1.634a.5.5 0 1 0 1-.024c0-.014-.018-.763-.027-1.699a.36.36 0 0 1 .189-.288c.136-.076.313-.081.428-.012.148.088.177.289.175.441q-.005.34 0 .641h0v.026c.009.781.05 1.322.052 1.351a.5.5 0 1 0 .997-.077c0-.006-.041-.54-.049-1.301.006-.185.099-.275.176-.319a.34.34 0 0 1 .33-.008c.154.092.175.329.173.462l-.003.247v.019l-.008.654v.011a.51.51 0 0 0 .494.517c.335-.006.445-.069.488-.499h.018-.018v-.008h.017a1 1 0 0 0-.009-.101l.002-.04a.46.46 0 0 1 .217.124c.268.294.18 1.152.091 1.772-.185 1.276-.568 2.104-.906 2.834-.113.245-.222.479-.316.714a7 7 0 0 0-.119.314 4.4 4.4 0 0 0-.257 1.439.5.5 0 0 0 .496.505h.004a.5.5 0 0 0 .5-.495c.003-.383.066-.729.202-1.122a5 5 0 0 1 .101-.267c.089-.22.191-.439.297-.669.349-.754.782-1.691.987-3.112.166-1.147.171-2.026-.341-2.588Z"/></svg>