<!-- SPDX-FileCopyrightText: © 2025 Schneider Electric SPDX-License-Identifier: LicenseRef-Proprietary -->
<svg xmlns="http://www.w3.org/2000/svg" viewBox="0 0 16 16"><path d="M11.419 9.666c.2-.469.187-.943-.042-1.327a1.36 1.36 0 0 0-.987-.639 1.34 1.34 0 0 0-.173-.877 1.47 1.47 0 0 0-.982-.669c.165-.298.329-.59.483-.856.287-.493.299-1.032.035-1.479s-.775-.76-1.281-.716c-.487.011-.904.277-1.144.729-.141.264-.326.577-.527.916-.299.505-.638 1.077-.917 1.636-.094.188-.345.618-.627 1.09a6 6 0 0 1-.085-.648c-.061-.912-.761-1.338-1.424-1.328-.751.035-1.536.659-1.51 1.749.02.824.086 1.754.144 2.553.05.692.093 1.29.089 1.598-.009.683-.203 2.51-.522 3.423a.5.5 0 1 0 .944.33c.391-1.114.57-3.099.579-3.738.005-.352-.04-.97-.091-1.685a53 53 0 0 1-.142-2.504c-.012-.481.28-.714.556-.727.168-.004.357.056.38.396.042.616.208 1.313.343 1.802l-.213.346a.5.5 0 1 0 .851.525c.055-.089 1.351-2.188 1.625-2.735.266-.533.591-1.081.883-1.574.209-.354.403-.681.549-.957q.103-.194.283-.198c.147-.019.318.091.398.225q.117.199-.039.467a63 63 0 0 0-1.131 2.059l-.001.003-.011.021c-.447.845-.791 1.523-.797 1.535a.5.5 0 1 0 .892.452c.006-.012.349-.689.794-1.53a.39.39 0 0 1 .348-.208c.168 0 .337.083.412.209.096.161.021.364-.058.506a26 26 0 0 0-.946 1.862.499.499 0 1 0 .913.407c.003-.006.227-.506.589-1.197v-.002c.102-.182.241-.223.34-.224a.38.38 0 0 1 .319.164c.101.167 0 .4-.07.524l-.124.222-.011.021-.33.59-.005.01a.51.51 0 0 0 .188.69c.292.161.419.161.667-.207l.004-.006.015.008a.5.5 0 0 0 .04-.093l.036-.058q.126.118.157.244c.101.408-.405 1.151-.794 1.674-.798 1.073-1.557 1.64-2.226 2.14-.229.171-.447.334-.652.505a.5.5 0 0 0 .637.77c.193-.16.398-.312.613-.473.724-.541 1.545-1.154 2.431-2.344.713-.96 1.15-1.754.962-2.512q-.129-.52-.636-.891Z"/><path d="m14.012 1.955-.955-1.7a.5.5 0 0 0-.872.49l.359.64c-.906-.226-2.211-.475-3.591-.456-2.411.031-5.073.767-5.185.798a.5.5 0 0 0 .269.963c.026-.007 2.65-.732 4.929-.761 1.398-.023 2.755.271 3.597.495l-.597.514a.5.5 0 0 0 .652.758l1.289-1.108a.5.5 0 0 0 .105-.632Z"/></svg>