<!-- SPDX-FileCopyrightText: © 2025 Schneider Electric SPDX-License-Identifier: LicenseRef-Proprietary -->
<svg xmlns="http://www.w3.org/2000/svg" viewBox="0 0 16 16"><path d="M14.818 3.648a.5.5 0 0 0-.413-.105c-.021.003-2.039.386-3.253.334-.38-.017-.714-.283-1.138-.619-.642-.511-1.441-1.146-2.777-1.146-2.146 0-3.9.927-3.974.966a.5.5 0 0 0-.264.441V8.5a.5.5 0 0 0 1 0V3.834c.529-.236 1.794-.722 3.237-.722.987 0 1.581.472 2.155.929.497.395 1.011.804 1.715.835.915.044 2.164-.129 2.893-.248v5.751c-.532.118-1.547.313-2.453.313-.427 0-.764-.219-1.231-.523-.739-.48-1.658-1.078-3.371-1.078-2.845 0-3.744 1.032-3.837 1.149a.5.5 0 0 0-.108.311v4.166a.53.53 0 0 1-.474.281.6.6 0 0 1-.526-.289l.016-12.021a.5.5 0 0 0-.326-.469.631.631 0 0 1 .22-1.22.63.63 0 0 1 .606.801.5.5 0 1 0 .963.269q.06-.216.061-.442c0-.898-.731-1.629-1.629-1.629a1.633 1.633 0 0 0-.895 2.994L.999 14.826q0 .094.034.181A1.6 1.6 0 0 0 2.526 16c.861 0 1.313-.633 1.445-1.007a.5.5 0 0 0 .028-.166v-4.054c.282-.21 1.116-.681 2.945-.681 1.416 0 2.165.487 2.826.916.542.353 1.053.685 1.776.685 1.426 0 3.014-.417 3.081-.435a.5.5 0 0 0 .372-.483V4.034a.5.5 0 0 0-.182-.386Z"/></svg>