<!-- SPDX-FileCopyrightText: © 2025 Schneider Electric SPDX-License-Identifier: LicenseRef-Proprietary -->
<svg xmlns="http://www.w3.org/2000/svg" viewBox="0 0 16 16"><path d="M14.5 1h-13a.5.5 0 0 0-.5.5v13a.5.5 0 0 0 .5.5h4a.5.5 0 0 0 .5-.5v-.561h1.019a.5.5 0 0 0 .396-.196.5.5 0 0 0 .007-.682c-.354-.386-.678-1.321-.614-2.361.043-.7.279-1.693 1.158-2.445a.5.5 0 0 0-.65-.76c-1.035.886-1.384 2.008-1.482 2.875a5 5 0 0 1-.092-1.345C5.854 7.233 6.87 5.598 7.916 4.65c1.031.911 2.039 2.524 2.171 4.351a5.1 5.1 0 0 1-.236 1.967c-.068-.616-.239-1.236-.538-1.759a.5.5 0 0 0-.868.496c.624 1.092.459 2.74.226 3.204q-.082.09-.17.177a.499.499 0 0 0 .354.854h1.167l.023.588a.5.5 0 0 0 .5.479h.021a.5.5 0 0 0 .479-.521l-.044-1.067a.5.5 0 0 0-.5-.479h-.562a6 6 0 0 0 1.146-4.01c-.166-2.321-1.563-4.349-2.873-5.329a.5.5 0 0 0-.606.005c-1.225.952-2.709 2.926-2.861 5.356-.09 1.434.318 2.79 1.188 3.977h-.431a.5.5 0 0 0-.5.5v.562h-3V2h12v12h-1.38a.5.5 0 0 0 0 1h1.88a.5.5 0 0 0 .5-.5v-13a.5.5 0 0 0-.5-.5Z"/></svg>