<!-- SPDX-FileCopyrightText: © 2024 Flickr SPDX-License-Identifier: LicenseRef-Proprietary -->
<svg xmlns="http://www.w3.org/2000/svg" version="1.1" viewBox="0 0 72 50"><path fill="#0063DC" d="M3.008 23.641H0v-3.642h3.095v-.976c0-4.484 2.112-6.046 6.276-6.046 1.129 0 1.997.174 2.662.289l-.32 3.588c-.433-.145-.866-.234-1.649-.234-1.33 0-1.849.926-1.849 2.403v.976h3.769v3.642H8.215v11.378H3.008zm10.993-10.32h5.209v21.698h-5.209zm7.807.347h5.205v3.821h-5.205zm0 6.316h5.205v15.034h-5.205zm19.328 4.272c-.956-.577-1.908-.836-3.151-.836-2.258 0-3.993 1.563-3.993 4.165 0 2.398 2.024 3.96 4.281 3.96 1.186 0 2.371-.258 3.24-.721l.116 3.876c-1.301.433-2.863.666-4.254.666-4.974 0-8.763-2.894-8.763-7.87 0-5.006 3.789-7.897 8.763-7.897 1.563 0 2.952.263 4.138.841zm2.662-10.935h5.206v12.961h.057l4.338-6.334h5.699l-5.234 6.916 5.668 8.155h-6.306l-4.166-7.464h-.057v7.464h-5.206V13.321z"/><path fill="#FF0084" d="M71.745 24.113c-.578-.175-1.154-.175-1.763-.175-2.431 0-3.792 1.767-3.792 4.718v6.363h-5.203V19.948h4.743v2.777h.056c.898-1.911 2.201-3.125 4.457-3.125.607 0 1.245.085 1.763.174z"/></svg>