<!-- SPDX-FileCopyrightText: © 2025 Schneider Electric SPDX-License-Identifier: LicenseRef-Proprietary -->
<svg xmlns="http://www.w3.org/2000/svg" viewBox="0 0 16 16"><path d="M12.745 8.067 12.629 8l.507-.292a.5.5 0 0 0-.5-.866l-1.257.726a.499.499 0 0 0 0 .866l.866.5a.504.504 0 0 0 .684-.183.5.5 0 0 0-.183-.683Zm1.83 1.057-.866-.5a.5.5 0 1 0-.5.866l.116.067-.116.067a.5.5 0 1 0 .501.866l.866-.5a.499.499 0 0 0 0-.866Zm-2.945 1.41-1.263.729a.501.501 0 0 0 .501.868l1.263-.729a.501.501 0 0 0-.5-.868Zm-2.841 1.642-.616.355-.616-.355a.5.5 0 1 0-.5.866l.866.5a.5.5 0 0 0 .5 0l.866-.5a.5.5 0 1 0-.5-.866Zm-3.354-1.225-1.697-.98a.5.5 0 0 0-.5.866l1.697.98a.5.5 0 0 0 .684-.183.5.5 0 0 0-.183-.683ZM1.799 7.928a.5.5 0 0 0-.683-.183l-.866.5a.499.499 0 0 0 0 .866l.866.5a.5.5 0 0 0 .684-.183.5.5 0 0 0-.183-.683l-.116-.067.116-.067a.5.5 0 0 0 .183-.683Zm1.619-.357 1.442-.833a.5.5 0 0 0-.5-.866l-1.442.833a.5.5 0 1 0 .501.866Zm4.87-3.389a.5.5 0 0 0-.683-.183l-1.442.833a.5.5 0 1 0 .501.866l1.442-.833a.5.5 0 0 0 .183-.683Zm2.851-.357a.504.504 0 0 0 .684-.183.5.5 0 0 0-.183-.683l-.866-.5a.5.5 0 0 0-.5 0l-.866.5a.5.5 0 0 0 .5.866l.616-.356zm1.159.669.927.535a.504.504 0 0 0 .684-.183.5.5 0 0 0-.183-.683l-.927-.535a.5.5 0 1 0-.5.866Zm3.452.838-.866-.5a.5.5 0 1 0-.5.866l.116.067-.533.308a.5.5 0 1 0 .501.866l1.283-.741a.499.499 0 0 0 0-.866Z"/></svg>