<!-- SPDX-FileCopyrightText: © 2025 Schneider Electric SPDX-License-Identifier: LicenseRef-Proprietary -->
<svg xmlns="http://www.w3.org/2000/svg" viewBox="0 0 16 16"><path d="M16 6.178a.5.5 0 0 0-.25-.433l-1.299-.749-.019-.012-3.66-2.113a.5.5 0 0 0-.5 0l-.538.311a.5.5 0 0 0 .5.866l.288-.167 3.339 1.927.02.012.619.357-3.121 1.802a.5.5 0 0 0 0 .866l1.946 1.123-5.152 2.976-6.712-3.876.951-.611L5.2 9.94a.6.6 0 0 0 .513 0l3.02-1.585a.5.5 0 0 0 .268-.443V4.146q0-.031-.003-.061a.5.5 0 0 0-.204-.355q-.026-.018-.053-.033L5.856 2.042a.5.5 0 0 0-.499 0L2.576 3.648a.502.502 0 0 0 .003.868l2.788 1.586a.5.5 0 0 0 .497-.001l1.151-.665a.5.5 0 0 0-.5-.866l-.903.521-1.781-1.013 1.777-1.025 2.393 1.373V7.61L5.46 8.945 3.001 7.637V6.498a.5.5 0 0 0-1 0v1.034L.231 8.669a.5.5 0 0 0 .02.854l7.673 4.431a.5.5 0 0 0 .5 0l6.152-3.553a.5.5 0 0 0 0-.866L12.63 8.411l3.121-1.802a.5.5 0 0 0 .25-.433Z"/></svg>