<!-- SPDX-FileCopyrightText: © 2025 Schneider Electric SPDX-License-Identifier: LicenseRef-Proprietary -->
<svg xmlns="http://www.w3.org/2000/svg" viewBox="0 0 16 16"><path d="M12 4.044V3.5a.5.5 0 0 0-1 0l.044.5L4 4.037V1.5a.5.5 0 0 0-.5-.5H1.834a.93.93 0 0 0-.708.391.82.82 0 0 0-.126.627v12.481a.5.5 0 0 0 .5.5h1a.5.5 0 0 0 0-1H2V2h1v2.037c0 .531.432.963.963.963h7.081A.957.957 0 0 0 12 4.044Z"/><path d="m14.565 2.913-1.334-1.431a1.65 1.65 0 0 0-1.107-.481H5.5a.5.5 0 0 0 0 1h6.624c.104 0 .305.087.375.163l1.334 1.431a.8.8 0 0 1 .167.423l.059 9.983H12V8.873c0-.48-.438-.872-.976-.872H4.975c-.538 0-.976.392-.976.872v5.628a.5.5 0 0 0 .5.5h5a.5.5 0 0 0 0-1h-4.5v-5l6 .006v5.494a.5.5 0 0 0 .5.5h2.559c.52 0 .941-.422.941-.941V4.017c0-.369-.183-.834-.435-1.104Z"/></svg>