<!-- SPDX-FileCopyrightText: © 2025 Schneider Electric SPDX-License-Identifier: LicenseRef-Proprietary -->
<svg xmlns="http://www.w3.org/2000/svg" viewBox="0 0 16 16"><path d="M14.374 4.601a.5.5 0 0 0-.169-.401c-.678-.596-2.294-1.308-4.158-.454.099-.714.103-1.622-.28-2.389C9.44.702 8.892.253 8.141.022a.5.5 0 0 0-.278-.004 2.98 2.98 0 0 0-1.706 1.413c-.301.562-.418 1.219-.353 1.96-1.114-.657-2.636-1.024-3.961.111a.5.5 0 0 0-.156.242c-.01.037-.252.917.312 1.856.379.632 1.017 1.131 1.902 1.49-.488.307-.999.749-1.303 1.364-.369.748-.366 1.591.009 2.505a.5.5 0 0 0 .277.273c.033.015 3.352 1.287 5.046-2.786l.013-.032a.5.5 0 0 0 .028-.164h0a.51.51 0 0 0-.183-.39.5.5 0 0 0-.151-.084l-.031-.01a.784.784 0 1 1 1.009-.75.77.77 0 0 1-.168.484.5.5 0 1 0 .784.619c.251-.317.384-.699.384-1.104 0-.983-.8-1.783-1.783-1.783s-1.783.8-1.783 1.783c0 .593.298 1.137.767 1.465-1.12 2.234-2.77 2.043-3.363 1.886-.185-.554-.172-1.035.04-1.467.499-1.015 1.938-1.42 1.952-1.424a.5.5 0 0 0-.026-.971c-1.271-.273-2.153-.757-2.551-1.401a1.56 1.56 0 0 1-.239-.952c1.609-1.182 3.514.738 3.596.822a.499.499 0 0 0 .833-.506c-.353-1.055-.362-1.914-.026-2.554.283-.54.743-.791.966-.886.405.157.691.41.873.772.553 1.105-.044 2.804-.05 2.821a.501.501 0 0 0 .777.565c1.792-1.388 3.242-.708 3.751-.378-.299 1.954-2.775 2.196-2.885 2.206a.5.5 0 0 0-.128.968c1.805.656 1.877 2.196 1.82 2.852-2.341.414-3.324-1.599-3.366-1.688a.5.5 0 0 0-.846-.098c-.765.968-.839 1.952-.678 2.7-1.782-.263-2.654.638-2.696.683a.5.5 0 0 0-.002.684c1.397 1.503 3.164 1.41 3.962 1.271.321.679.415 1.195.416 1.201a.5.5 0 0 0 .985-.17c-.006-.034-.15-.854-.694-1.846a.5.5 0 0 0-.589-.236c-.071.021-1.577.474-2.884-.487.418-.159 1.128-.267 2.172.094.204.072.43 0 .56-.172a.51.51 0 0 0 .012-.589 2.06 2.06 0 0 1-.158-1.87c.768.968 2.241 1.975 4.375 1.424a.5.5 0 0 0 .362-.37c.208-.886.137-2.566-1.211-3.658 1.169-.436 2.412-1.369 2.5-3.104Z"/></svg>