<!-- SPDX-FileCopyrightText: © 2025 Schneider Electric SPDX-License-Identifier: LicenseRef-Proprietary -->
<svg xmlns="http://www.w3.org/2000/svg" viewBox="0 0 16 16"><path d="M14.481 8H4.892c-.53 0-1 .318-1.197.811l-1.282 3.203a.5.5 0 0 0 .929.371l1.282-3.203A.29.29 0 0 1 4.893 9h9.59c.139 0 .215.089.24.128.026.038.08.141.029.27l-2.17 5.422a.29.29 0 0 1-.268.181H1.667c-.176 0-.348-.071-.472-.195S1 14.51 1 14.334V5.631c0-.18.073-.356.2-.483.071-.071.214-.186.484-.148l1.662-.007c.189-.028.33.084.401.155.163.163.231.397.252.483V6.5a.5.5 0 0 0 .5.5h4.52a.5.5 0 0 0 0-1H4.996l-.003-.451c-.075-.448-.261-.832-.539-1.108-.353-.353-.817-.51-1.191-.441l-1.497.007c-.458-.076-.922.082-1.274.434a1.7 1.7 0 0 0-.493 1.19v8.702c0 .445.173.864.488 1.179S1.22 16 1.666 16h10.646c.531 0 1.001-.318 1.196-.811l2.169-5.42A1.29 1.29 0 0 0 14.48 8Zm1.373-1.538L13.863 4.47a2.83 2.83 0 0 0 .087-3.118A2.834 2.834 0 0 0 10.637.144a2.83 2.83 0 0 0-1.94 2.944 2.83 2.83 0 0 0 2.415 2.569.499.499 0 1 0 .146-.989 1.835 1.835 0 0 1-1.565-1.666 1.84 1.84 0 0 1 1.259-1.909 1.836 1.836 0 0 1 2.147.784c.45.73.341 1.664-.266 2.271a.5.5 0 0 0 0 .707l2.314 2.314a.5.5 0 0 0 .708 0 .5.5 0 0 0 0-.707Z"/></svg>