<!-- SPDX-FileCopyrightText: © 2025 Schneider Electric SPDX-License-Identifier: LicenseRef-Proprietary -->
<svg xmlns="http://www.w3.org/2000/svg" viewBox="0 0 16 16"><path d="M15.55 8.567A1.29 1.29 0 0 0 14.482 8H5.007c-.53 0-1 .318-1.198.811l-1.282 3.204a.5.5 0 0 0 .279.649.5.5 0 0 0 .65-.278l1.282-3.203A.29.29 0 0 1 5.007 9h9.474c.139 0 .215.089.24.128.026.038.08.141.029.27l-2.17 5.422a.29.29 0 0 1-.268.181H1.667c-.176 0-.348-.071-.472-.195S1 14.51 1 14.334V5.631c0-.18.073-.356.2-.484A.53.53 0 0 1 1.683 5l1.665-.007c.181-.032.328.083.4.154.164.164.231.398.252.484V6.5a.5.5 0 0 0 .5.5h4a.5.5 0 0 0 0-1H4.997l-.003-.451c-.074-.448-.261-.831-.538-1.108-.352-.352-.813-.509-1.19-.441l-1.499.007c-.456-.075-.92.081-1.273.434a1.67 1.67 0 0 0-.493 1.19v8.702c0 .445.173.864.488 1.179S1.222 16 1.668 16h10.646c.531 0 1.001-.318 1.196-.811l2.169-5.42a1.29 1.29 0 0 0-.129-1.202Zm-3.409-1.723a.5.5 0 0 0 .344.139h.002q.114 0 .22-.051h0a.5.5 0 0 0 .123-.086l2.539-2.369a.5.5 0 1 0-.682-.731L12.999 5.32V.5a.5.5 0 0 0-1 0v4.839l-1.693-1.592a.5.5 0 1 0-.686.729l2.519 2.369Z"/></svg>