<!-- SPDX-FileCopyrightText: © 2025 Schneider Electric SPDX-License-Identifier: LicenseRef-Proprietary -->
<svg xmlns="http://www.w3.org/2000/svg" viewBox="0 0 16 16"><path d="m9.349 3.164 2.185.71-1.35 1.858a.5.5 0 1 0 .808.588l1.35-1.858 1.351 1.858a.5.5 0 0 0 .698.11.5.5 0 0 0 .11-.698L13.15 3.874l2.186-.71a.5.5 0 0 0-.309-.951L13 2.872V.5a.5.5 0 0 0-1 0v2.475l-2.343-.762a.5.5 0 0 0-.309.951Z"/><path d="M15.564 8.572c-.226-.353-.643-.557-1.064-.572H4.915c-.538-.025-1.058.342-1.221.811l-1.281 3.203a.5.5 0 0 0 .929.371l1.289-3.224c.026-.075.159-.168.261-.161h9.621a.33.33 0 0 1 .225.133c.04.057.053.172.021.248l-2.187 5.466c-.024.069-.188.151-.25.152H1.661a.665.665 0 0 1-.66-.666V5.686c.051-.221.144-.472.206-.543.109-.111.268-.171.478-.143l1.671-.008c.12-.023.278.04.397.162.12.117.218.33.248.478v.869a.5.5 0 0 0 .5.5h3.993a.5.5 0 0 0 0-1H4.998l-.003-.447c-.07-.442-.269-.85-.535-1.107-.344-.354-.841-.523-1.196-.446l-1.487.008A1.45 1.45 0 0 0 .5 4.436c-.304.295-.451.912-.489 1.094A.4.4 0 0 0 0 5.631v8.695c-.006.438.178.883.484 1.182.306.313.738.507 1.183.491h10.68c.499 0 1.006-.354 1.161-.804l2.173-5.433c.166-.385.113-.872-.116-1.191Z"/></svg>