<!-- SPDX-FileCopyrightText: © 2025 Schneider Electric SPDX-License-Identifier: LicenseRef-Proprietary -->
<svg xmlns="http://www.w3.org/2000/svg" viewBox="0 0 16 16"><path d="M14.481 8H4.892c-.53 0-1 .318-1.197.81l-1.282 3.204a.499.499 0 1 0 .928.371l1.282-3.203A.29.29 0 0 1 4.892 9h9.59c.139 0 .215.089.24.128.026.038.08.141.029.27l-2.17 5.422a.29.29 0 0 1-.268.181H1.667c-.176 0-.348-.071-.472-.195S1 14.51 1 14.334V5.631c0-.18.073-.356.2-.483A.53.53 0 0 1 1.683 5l1.662-.007c.184-.031.33.083.402.155.163.163.231.397.252.483V6.5a.5.5 0 0 0 .5.5h3.49a.5.5 0 0 0 0-1H4.995l-.003-.452c-.075-.448-.262-.831-.539-1.107-.352-.352-.814-.509-1.19-.441l-1.498.007c-.457-.077-.92.083-1.272.434A1.7 1.7 0 0 0 0 5.631v8.702c0 .445.173.864.488 1.179S1.221 16 1.667 16h10.646c.531 0 1.001-.318 1.196-.811l2.169-5.42A1.29 1.29 0 0 0 14.481 8Z"/><path d="M15.938 5.256a2.2 2.2 0 0 0-.441-.884 3 3 0 0 0-.185-.21 3 3 0 0 0-.448-.375 3.5 3.5 0 0 0-.51-.287l-.028-.013.013-.014a2 2 0 0 0 .53-1.07 2 2 0 0 0-.166-1.181 2.1 2.1 0 0 0-.802-.893 2.22 2.22 0 0 0-2.803.398 2.05 2.05 0 0 0-.498 1.059 2 2 0 0 0 .196 1.201c.09.177.204.34.336.48l.017.019-.03.014a3.3 3.3 0 0 0-.742.463 3 3 0 0 0-.343.338q-.087.105-.165.219a2.2 2.2 0 0 0-.395 1.243v.683a.5.5 0 0 0 .5.5h3.158a.5.5 0 0 0 0-1h-2.658v-.183c0-.15.033-.306.095-.451a1.4 1.4 0 0 1 .23-.366q.102-.118.22-.217.227-.189.513-.319.114-.052.223-.115.091-.053.18-.121c.042-.033.082-.067.18-.173.023-.03.075-.11.092-.145a.7.7 0 0 0 .053-.162 1 1 0 0 0 .01-.12c0-.016-.021-.147-.021-.163a1 1 0 0 0-.033-.107l-.072-.152a2 2 0 0 0-.116-.176 3 3 0 0 0-.159-.189q-.106-.114-.176-.251a1.02 1.02 0 0 1-.013-.891 1.1 1.1 0 0 1 .423-.466 1.22 1.22 0 0 1 .965-.135 1.2 1.2 0 0 1 .564.346q.105.118.17.256.063.137.086.285a1 1 0 0 1-.003.31 1 1 0 0 1-.097.297 1 1 0 0 1-.179.253 2.2 2.2 0 0 0-.271.36 3 3 0 0 0-.071.15 1 1 0 0 0-.028.088.7.7 0 0 0-.016.306c.009.056.026.11.093.235.019.03.087.114.111.14.017.017.104.094.122.108q.085.064.178.119c.07.042.146.08.22.113q.188.086.356.201a2 2 0 0 1 .414.381q.085.109.148.226.072.138.106.278.033.135.033.269v.683a.5.5 0 0 0 1 0v-.683q0-.255-.062-.507Zm-4.313-1.474-.164-.15.052-.01zm2.35.084.117-.348.102-.034.002.006z"/></svg>