<!-- SPDX-FileCopyrightText: © 2025 Schneider Electric SPDX-License-Identifier: LicenseRef-Proprietary -->
<svg xmlns="http://www.w3.org/2000/svg" viewBox="0 0 16 16"><path d="M14.48 8H4.891c-.53 0-1 .318-1.197.811l-1.281 3.203a.499.499 0 1 0 .928.371l1.281-3.203A.29.29 0 0 1 4.891 9h9.589a.29.29 0 0 1 .269.397l-2.17 5.422a.29.29 0 0 1-.268.181H1.667c-.175 0-.347-.071-.471-.195s-.195-.296-.195-.472V5.631c0-.18.073-.356.2-.483A.54.54 0 0 1 1.685 5l1.662-.007c.189-.03.33.084.401.154.164.164.232.398.253.484V6.5a.5.5 0 0 0 .5.5h.342c.815 0 1.275.02 1.714.039.412.018.806.034 1.443.034a.5.5 0 0 0 0-1c-.619 0-1.001-.017-1.4-.033-.421-.018-.862-.037-1.603-.04l-.003-.451c-.074-.447-.261-.831-.539-1.109-.352-.352-.816-.509-1.191-.44l-1.496.007c-.454-.075-.921.081-1.274.434a1.67 1.67 0 0 0-.493 1.19v8.702c0 .445.173.864.488 1.179.31.311.74.488 1.178.488h10.646c.531 0 1.001-.318 1.196-.811l2.17-5.421A1.292 1.292 0 0 0 14.481 8Z"/><path d="M13.444 3.263 15.853.854a.5.5 0 0 0-.707-.707l-2.409 2.409-2.41-2.41a.5.5 0 0 0-.707.707l2.411 2.41-2.41 2.41a.5.5 0 0 0 .708.707l2.41-2.41 2.409 2.409a.5.5 0 0 0 .707-.707l-2.409-2.409Z"/></svg>