<!-- SPDX-FileCopyrightText: © 2025 Schneider Electric SPDX-License-Identifier: LicenseRef-Proprietary -->
<svg xmlns="http://www.w3.org/2000/svg" viewBox="0 0 16 16"><path d="M15.5 11a.5.5 0 0 0 .5-.5V3.529C16 2.686 15.313 2 14.471 2H1.53C.686 2 0 2.686 0 3.53v8.942A1.53 1.53 0 0 0 1.529 14h12.943A1.52 1.52 0 0 0 16 12.491a.5.5 0 0 0-1 0 .52.52 0 0 1-.528.509H1.529A.53.53 0 0 1 1 12.472V3.53A.53.53 0 0 1 1.53 3h12.941a.53.53 0 0 1 .529.529V10.5a.5.5 0 0 0 .5.5Z"/><path d="M13.992 8.938a.5.5 0 0 0-.63-.321l-.502.163.007-.549a.5.5 0 0 0-.494-.506h-.006a.5.5 0 0 0-.5.494l-.007.583-.568-.184a.5.5 0 0 0-.309.951l.534.173-.33.455a.5.5 0 0 0 .808.588l.331-.455.331.455a.5.5 0 0 0 .698.11.5.5 0 0 0 .11-.698l-.33-.455.534-.173a.5.5 0 0 0 .321-.63ZM11 4.5a.5.5 0 0 0-.5-.5h-5a.5.5 0 0 0 0 1h5a.5.5 0 0 0 .5-.5ZM9.668 8.938a.5.5 0 0 0-.63-.321l-.518.168-.043-.597a.5.5 0 1 0-.997.073l.039.535-.552-.179a.5.5 0 0 0-.309.951l.535.174-.331.454a.5.5 0 0 0 .81.588l.33-.455.33.455a.5.5 0 0 0 .698.11.5.5 0 0 0 .11-.698l-.33-.454.535-.174a.5.5 0 0 0 .321-.63Zm-4.318 0a.5.5 0 0 0-.63-.321l-.548.178.015-.557a.5.5 0 0 0-.487-.513c-.239.024-.505.21-.513.487l-.015.575-.522-.169a.5.5 0 0 0-.309.951l.534.173-.331.455a.5.5 0 0 0 .81.588l.33-.455.331.455a.5.5 0 0 0 .698.11.5.5 0 0 0 .11-.698l-.33-.454.535-.174a.5.5 0 0 0 .321-.63Z"/></svg>