<!-- SPDX-FileCopyrightText: © 2025 Schneider Electric SPDX-License-Identifier: LicenseRef-Proprietary -->
<svg xmlns="http://www.w3.org/2000/svg" viewBox="0 0 16 16"><path d="M4.916 6.997h1.11a.5.5 0 0 0 0-1h-1.11a1.524 1.524 0 0 1-1.505-1.504c0-.879.808-1.566 1.662-1.476a.495.495 0 0 0 .526-.324C5.973 1.68 6.935 1 7.994 1c1.279 0 2.367.968 2.531 2.251.021.16.117.3.259.377a.5.5 0 0 0 .458.008 1.235 1.235 0 0 1 1.774 1.108c0 .69-.545 1.252-1.215 1.252H7.94q-.03 0-.058.003a.5.5 0 0 0-.449.718l.907 1.864a.5.5 0 0 0 .899-.437L8.68 6.995h3.12c1.222 0 2.215-1.01 2.215-2.252a2.236 2.236 0 0 0-2.622-2.2 3.57 3.57 0 0 0-3.4-2.545c-1.353 0-2.592.793-3.188 2.007A2.49 2.49 0 0 0 2.41 4.49a2.507 2.507 0 0 0 2.505 2.504Zm8.842 3.947a.5.5 0 0 0-1 0v.761l-.643-.195a.5.5 0 0 0-.291.957l.613.187-.418.568a.5.5 0 1 0 .805.592l.428-.582.414.577a.497.497 0 0 0 .698.115.5.5 0 0 0 .115-.697l-.411-.574.604-.187a.499.499 0 1 0-.295-.955l-.62.191zm-4.011.879a.5.5 0 0 0-.625-.33l-.62.191v-.74a.5.5 0 0 0-1 0v.743l-.643-.195a.5.5 0 0 0-.291.957l.613.187-.417.568a.5.5 0 1 0 .806.592l.428-.582.414.577a.5.5 0 0 0 .698.115.5.5 0 0 0 .115-.697l-.411-.574.604-.187a.5.5 0 0 0 .33-.625ZM6.386 9.441l-.449-1.16a.5.5 0 0 0-.933.361l.449 1.16a.5.5 0 0 0 .933-.361ZM14.551 15H1.524a.5.5 0 0 0 0 1h13.027a.5.5 0 0 0 0-1ZM1.353 12.478l.613.187-.417.568a.5.5 0 1 0 .805.592l.428-.582.414.577a.499.499 0 1 0 .812-.582l-.411-.574.604-.187a.499.499 0 1 0-.295-.955l-.591.183v-.749a.5.5 0 0 0-1 0v.77l-.672-.204a.5.5 0 0 0-.291.957Z"/></svg>