<!-- SPDX-FileCopyrightText: © 2025 Schneider Electric SPDX-License-Identifier: LicenseRef-Proprietary -->
<svg xmlns="http://www.w3.org/2000/svg" viewBox="0 0 16 16"><path d="M15.5 2h-3.092a.5.5 0 0 0 0 1H15v10H5.5a.5.5 0 0 0 0 1h10a.5.5 0 0 0 .5-.5v-11a.5.5 0 0 0-.5-.5Zm-12 4.001a.5.5 0 0 0 .5-.5v-1.5h1.999v1.5a.5.5 0 0 0 1 0V.5A.499.499 0 1 0 6 .5V3H4.001V.5A.502.502 0 0 0 3 .5v5a.5.5 0 0 0 .5.5Z"/><path d="M8.078 5.107a.5.5 0 0 0 .309.894H10.5a.5.5 0 0 0 0-1h-.764c.468-.44.939-.953 1.089-1.349.218-.577.155-1.143-.173-1.552-.306-.382-.816-.564-1.345-.487-.79.112-1.214.867-1.34 1.295a.501.501 0 0 0 .96.284c.001-.005.179-.539.521-.588.186-.025.338.017.424.123.101.126.107.335.018.572-.129.341-1.041 1.205-1.812 1.81Zm5.177.129a.5.5 0 0 0-.686.175l-1.786 3.005c-.101.169-.093.382.021.543s.307.239.504.204l1.349-.26-1.101 2.381a.5.5 0 1 0 .908.42l1.51-3.267a.5.5 0 0 0-.061-.518.49.49 0 0 0-.488-.183l-1.213.233 1.217-2.048a.5.5 0 0 0-.174-.686ZM3.5 9h5a.5.5 0 0 0 0-1h-5a.5.5 0 0 0 0 1Z"/><path d="M14.5 15H1.86l.755-1.239A.5.5 0 0 0 2.188 13H1V3.001h.5a.5.5 0 0 0 0-1h-1A.5.5 0 0 0 0 2.5v11a.5.5 0 0 0 .5.5h.797l-.755 1.239A.5.5 0 0 0 .969 16H14.5a.5.5 0 0 0 0-1Z"/><path d="M3.5 11h5a.5.5 0 0 0 0-1h-5a.5.5 0 0 0 0 1Z"/></svg>