<!-- SPDX-FileCopyrightText: © 2025 Schneider Electric SPDX-License-Identifier: LicenseRef-Proprietary -->
<svg xmlns="http://www.w3.org/2000/svg" viewBox="0 0 16 16"><path d="M9.981 15H5.893a.5.5 0 0 0 0 1h4.088a.5.5 0 0 0 0-1Zm1.162-2.689H4.73a.5.5 0 0 0 0 1h6.413a.5.5 0 0 0 0-1Zm-2.636-9.03V.5a.5.5 0 0 0-1 0v2.779C3.325 3.541 0 7.132 0 11.51a.5.5 0 0 0 1 0c0-3.825 2.877-6.968 6.507-7.228v5.339H3.522a.5.5 0 0 0 0 1h8.946a.5.5 0 0 0 0-1h-3.96V4.284c3.624.272 6.493 3.409 6.493 7.227a.5.5 0 0 0 1 0c0-4.37-3.316-7.956-7.493-8.229Z"/></svg>