<!-- SPDX-FileCopyrightText: © 2025 Schneider Electric SPDX-License-Identifier: LicenseRef-Proprietary -->
<svg xmlns="http://www.w3.org/2000/svg" viewBox="0 0 16 16"><path d="M4.52 10.501a.5.5 0 0 0 .5-.5v-.679h.709a.5.5 0 0 0 0-1H5.02v-.678a.5.5 0 0 0-1 0v.678h-.646a.5.5 0 0 0 0 1h.646v.679a.5.5 0 0 0 .5.5Zm8.661-1.679c0-.276-.24-.517-.517-.517s-.517.24-.517.517.24.517.517.517.517-.24.517-.517Zm-2.357 0c0-.276-.24-.517-.517-.517s-.517.24-.517.517.24.517.517.517.517-.24.517-.517Z"/><path d="M15.494 8.819c-.473-1.298-1.217-2.417-2.098-3.15-.955-.796-1.966-1.057-2.851-.737q-.408.148-.742.457a.5.5 0 0 0 .678.736q.187-.173.406-.252c.533-.194 1.197.007 1.869.565.746.622 1.385 1.589 1.798 2.723.806 2.213.486 4.445-.695 4.876-.921.332-2.243-.563-3.137-2.142a1.65 1.65 0 0 0-1.441-.824H6.728c-.603 0-1.156.316-1.443.827-.897 1.595-2.222 2.504-3.148 2.169-.534-.194-.912-.776-1.065-1.641-.171-.962-.036-2.12.379-3.262.811-2.227 2.495-3.746 3.676-3.314q.228.084.417.263c.314.297.721.46 1.147.46h.876a.5.5 0 0 0 .5-.5 4.217 4.217 0 0 1 4.212-4.212.5.5 0 0 0 0-1 5.22 5.22 0 0 0-5.188 4.712h-.4a.66.66 0 0 1-.459-.187 2.2 2.2 0 0 0-.763-.476C3.719 4.271 1.541 5.991.511 8.822c-.475 1.306-.626 2.648-.425 3.78.219 1.23.825 2.085 1.708 2.405q.369.134.759.133c1.258 0 2.629-1.02 3.603-2.751a.65.65 0 0 1 .572-.317h2.553c.242 0 .461.121.571.316 1.172 2.069 2.924 3.112 4.349 2.589 1.75-.638 2.318-3.342 1.293-6.157Z"/><path d="M11.486 10.539c.276 0 .517-.241.517-.518s-.24-.517-.517-.517-.518.24-.518.517.241.518.518.518Zm0-2.356c.276 0 .517-.24.517-.517s-.24-.518-.517-.518-.518.241-.518.518.241.517.518.517Z"/></svg>