<!-- SPDX-FileCopyrightText: © 2025 Schneider Electric SPDX-License-Identifier: LicenseRef-Proprietary -->
<svg xmlns="http://www.w3.org/2000/svg" viewBox="0 0 16 16"><path d="M15.5 15h-.821c-.024-.497.018-.96.134-1.489a.5.5 0 1 0-.977-.215A6.5 6.5 0 0 0 13.678 15h-1.002c.011-.318.014-.78-.024-1.293a.5.5 0 0 0-.536-.462.5.5 0 0 0-.462.536c.037.486.032.928.021 1.219h-1.029c-.175-4.176.426-5.314.426-5.314a.5.5 0 0 0-.771-.626 1.97 1.97 0 0 1-1.378.559 1.98 1.98 0 0 1-.238-3.949.5.5 0 0 0 .411-.665 2.108 2.108 0 0 1 1.981-2.821 2.107 2.107 0 0 1 1.734 3.3.497.497 0 0 0 .289.768c.84.212 1.427.966 1.427 1.833a1.895 1.895 0 0 1-1.893 1.892.5.5 0 0 0 0 1 2.896 2.896 0 0 0 2.893-2.892c0-1.111-.63-2.101-1.591-2.583a3.11 3.11 0 0 0-2.859-4.319 3.11 3.11 0 0 0-3.064 3.613 2.98 2.98 0 0 0-2.074 2.84 2.986 2.986 0 0 0 3.891 2.841c-.154.888-.274 2.309-.184 4.522h-.948a6 6 0 0 0-.035-.883.5.5 0 1 0-.992.123c0 .004.042.351.026.76h-1.03c-.021-.564.017-.945.129-1.389a.5.5 0 1 0-.969-.244c-.133.528-.181.989-.16 1.633H4.001v-12.1a.5.5 0 0 0-.188-.391L.812.109a.5.5 0 0 0-.624.782L3 3.14v12.361a.5.5 0 0 0 .5.5h12a.5.5 0 0 0 0-1Z"/></svg>