<!-- SPDX-FileCopyrightText: © 2025 Schneider Electric SPDX-License-Identifier: LicenseRef-Proprietary -->
<svg xmlns="http://www.w3.org/2000/svg" viewBox="0 0 16 16"><path d="M7.908 2.982zc-2.546 0-4.364 1.045-5.607 2.229a.5.5 0 0 0-.213.21C.628 6.908.039 8.528.028 8.559a.5.5 0 0 0 .32.642l5.464 1.735a2.115 2.115 0 0 0 2.111 2.082 2.113 2.113 0 0 0 2.111-2.111 2.114 2.114 0 0 0-1.912-2.102l-.744-2.359a.5.5 0 0 0-.954.3l.854 2.707a.51.51 0 0 0 .521.348c.645-.061 1.236.451 1.236 1.105 0 .612-.499 1.111-1.111 1.111a1.113 1.113 0 0 1-1.089-1.333.5.5 0 0 0-.338-.581l-5.323-1.69a8.6 8.6 0 0 1 1.365-2.05l.581.564a.5.5 0 0 0 .696-.718l-.562-.545c.988-.846 2.343-1.555 4.153-1.667v.777a.5.5 0 0 0 1 0v-.778c1.93.109 3.349.847 4.366 1.714l-.565.548a.5.5 0 0 0 .697.718l.585-.569a8.3 8.3 0 0 1 1.366 2.064l-2.949.825a.5.5 0 0 0 .269.963l3.458-.967a.5.5 0 0 0 .365-.481c0-.472-2.053-5.829-8.092-5.829Z"/></svg>