<!-- SPDX-FileCopyrightText: © 2025 Schneider Electric SPDX-License-Identifier: LicenseRef-Proprietary -->
<svg xmlns="http://www.w3.org/2000/svg" viewBox="0 0 16 16"><path d="M6.802 15H4.079A1.08 1.08 0 0 1 3 13.921V4.079A1.08 1.08 0 0 1 4.079 3h.553l-.328 1.385A.498.498 0 0 0 4.79 5h6.443a.5.5 0 0 0 .479-.644l-.862-2.875A2.09 2.09 0 0 0 8.858 0H7.149c-.621 0-1.204.274-1.601.752a.5.5 0 0 0 .769.639c.206-.249.509-.391.832-.391h1.709c.473 0 .897.316 1.033.769L10.56 4H5.421l.328-1.384A.5.5 0 0 0 5.262 2H4.077a2.08 2.08 0 0 0-2.079 2.079v9.842c0 1.146.933 2.079 2.079 2.079H6.8a.5.5 0 0 0 0-1Zm5.62-12c.571 0 .578.836.578.844v1.752a.5.5 0 0 0 1 0V3.844C14 2.927 13.458 2 12.422 2a.5.5 0 0 0 0 1Z"/><path d="M15.787 11.935a7 7 0 0 0-.61-.24 3.6 3.6 0 0 0 .003-.934l.61-.284a.5.5 0 0 0 .255-.635c-.017-.044-.43-1.091-1.238-1.937a.5.5 0 0 0-.633-.075 9 9 0 0 0-.503.359 4 4 0 0 0-.892-.499l.05-.633a.5.5 0 0 0-.364-.521c-.045-.014-1.091-.298-2.417.065a.5.5 0 0 0-.367.517c.012.166.04.395.069.6a4 4 0 0 0-.827.473c-.689-.495-.798-.502-.995-.46a.5.5 0 0 0-.247.133c-.226.223-1.279 1.646-1.156 2.289.052.271.316.491.587.433.271-.052.451-.277.399-.549.026-.188.356-.776.634-1.167.152.105.338.237.5.356a.5.5 0 0 0 .637-.035 2.94 2.94 0 0 1 1.166-.661.48.48 0 0 0 .302-.22.45.45 0 0 0 .044-.361c0-.002-.037-.227-.069-.472a4.3 4.3 0 0 1 1.07-.04l-.042.528a.7.7 0 0 0 .041.245.5.5 0 0 0 .333.313 2.94 2.94 0 0 1 1.188.67c.197.185.464.213.654.022.002 0 .187-.146.392-.297.24.308.425.623.551.864l-.399.188a.5.5 0 0 0-.382.607 2.74 2.74 0 0 1-.013 1.328.5.5 0 0 0 .334.603c.097.031.298.097.496.168a3.6 3.6 0 0 1-.512.878l-.532-.346a.5.5 0 0 0-.609.051 2.94 2.94 0 0 1-1.185.656.5.5 0 0 0-.353.592c.02.086.058.268.09.453-.338.056-.773.03-1.136-.02l.015-.567a.5.5 0 0 0-.347-.489 3 3 0 0 1-1.121-.662.5.5 0 0 0-.683-.004c-.08.073-.25.226-.418.367a3.6 3.6 0 0 1-.529-.861l2.587-1.07a.5.5 0 0 0 .309-.462c0-.396.339-.719.756-.719s.756.322.756.719-.339.719-.756.719a.5.5 0 0 0 0 1c.968 0 1.756-.771 1.756-1.719s-.788-1.719-1.756-1.719a1.75 1.75 0 0 0-1.719 1.369l-2.747 1.137a.5.5 0 0 0-.299.563c.01.045.243 1.13 1.243 2.077a.505.505 0 0 0 .616.057 6 6 0 0 0 .551-.431q.369.274.792.456l-.017.641a.5.5 0 0 0 .387.501c.1.022.672.148 1.307.148.423 0 .873-.056 1.229-.235a.5.5 0 0 0 .273-.479 6 6 0 0 0-.075-.551c.3-.125.585-.286.846-.479l.577.375a.5.5 0 0 0 .597-.04c.035-.03.867-.752 1.212-2.067a.5.5 0 0 0-.268-.578Z"/></svg>