<!-- SPDX-FileCopyrightText: © 2025 Schneider Electric SPDX-License-Identifier: LicenseRef-Proprietary -->
<svg xmlns="http://www.w3.org/2000/svg" viewBox="0 0 16 16"><path d="M15.701 9.616c-.354-.17-.928-.373-1.323-.506A6.2 6.2 0 0 0 14.391 7l1.32-.615a.5.5 0 0 0 .255-.634c-.028-.074-.725-1.841-2.088-3.268a.5.5 0 0 0-.633-.075c-.322.209-.771.544-1.088.787a6.6 6.6 0 0 0-1.953-1.093l.109-1.389A.5.5 0 0 0 9.95.192c-.073-.02-1.808-.493-4.028.114a.5.5 0 0 0-.367.516c.026.383.103.945.158 1.316a6.6 6.6 0 0 0-1.851 1.055c-1.344-.979-1.457-.953-1.669-.909a.5.5 0 0 0-.249.133C1.428 2.929-.138 5.23.026 6.088a.5.5 0 0 0 .275.357c.563.27 1.692.669 1.74.686a.5.5 0 1 0 .333-.943 31 31 0 0 1-1.309-.498c.191-.547.849-1.669 1.342-2.288.298.195.777.534 1.183.834a.5.5 0 0 0 .637-.036 5.54 5.54 0 0 1 2.189-1.242.48.48 0 0 0 .301-.228.47.47 0 0 0 .041-.368c-.001-.008-.104-.645-.167-1.189a7.6 7.6 0 0 1 2.69-.094l-.102 1.282a.9.9 0 0 0 .053.277c.055.15.178.266.332.31a5.5 5.5 0 0 1 2.232 1.26c.195.183.466.209.658.019.007-.005.526-.412.982-.738.688.806 1.161 1.688 1.404 2.197l-1.135.524a.505.505 0 0 0-.376.605 5.2 5.2 0 0 1-.022 2.504.5.5 0 0 0 .333.603c.009.003.696.22 1.236.431a6.5 6.5 0 0 1-1.306 2.249l-1.205-.782a.5.5 0 0 0-.609.05 5.5 5.5 0 0 1-2.227 1.232.5.5 0 0 0-.353.592c0 .008.143.636.217 1.164-.827.246-2.058.123-2.796-.004l.035-1.322a.5.5 0 0 0-.347-.489 5.55 5.55 0 0 1-2.104-1.242.5.5 0 0 0-.683-.004 20 20 0 0 1-1.029.886 6.5 6.5 0 0 1-1.373-2.257l4.092-2a.5.5 0 0 0 .28-.449c0-1.334 1.125-2.42 2.509-2.42s2.51 1.086 2.51 2.42-1.126 2.42-2.51 2.42a2.55 2.55 0 0 1-1.905-.845.5.5 0 1 0-.747.664 3.55 3.55 0 0 0 2.652 1.181c1.936 0 3.51-1.534 3.51-3.42s-1.574-3.42-3.51-3.42c-1.824 0-3.328 1.364-3.494 3.101L.28 9.712a.5.5 0 0 0-.27.551c.016.075.4 1.861 2.065 3.438a.505.505 0 0 0 .616.057c.339-.22.829-.639 1.154-.926a6.5 6.5 0 0 0 1.781 1.036l-.037 1.381a.5.5 0 0 0 .387.5c.068.016 1.094.249 2.213.249.688 0 1.412-.089 1.971-.37a.5.5 0 0 0 .273-.48 11 11 0 0 0-.185-1.226 6.6 6.6 0 0 0 1.888-1.061l1.232.8a.5.5 0 0 0 .598-.039c.058-.05 1.427-1.239 2.002-3.428a.5.5 0 0 0-.268-.578Z"/></svg>