<!-- SPDX-FileCopyrightText: © 2025 Schneider Electric SPDX-License-Identifier: LicenseRef-Proprietary -->
<svg xmlns="http://www.w3.org/2000/svg" viewBox="0 0 16 16"><path d="M12.633 7.878c-.022-.06-.572-1.452-1.647-2.579a.5.5 0 0 0-.634-.073c-.226.146-.539.378-.783.563a5.2 5.2 0 0 0-1.404-.784l.079-.996a.5.5 0 0 0-.364-.521c-.059-.017-1.437-.39-3.192.088a.5.5 0 0 0-.367.516c.018.267.069.656.111.944-.475.186-.921.44-1.32.754-1.019-.738-1.113-.716-1.319-.676a.5.5 0 0 0-.248.133C1.194 5.594-.121 7.451.022 8.2a.5.5 0 0 0 .275.357c.443.212 1.327.525 1.364.539a.5.5 0 0 0 .334-.944 25 25 0 0 1-.912-.345c.168-.41.59-1.124.925-1.567.229.153.552.383.83.588a.5.5 0 0 0 .637-.036 4.2 4.2 0 0 1 1.659-.941.48.48 0 0 0 .303-.224.45.45 0 0 0 .041-.363c0-.003-.068-.422-.117-.82a5.8 5.8 0 0 1 1.851-.066l-.071.894a.8.8 0 0 0 .045.258.5.5 0 0 0 .334.314c.63.181 1.215.511 1.691.954.197.183.466.211.656.021.002-.002.345-.27.677-.511.45.545.774 1.125.962 1.505l-.757.352a.5.5 0 0 0-.377.606 3.9 3.9 0 0 1-.017 1.893.5.5 0 0 0 .333.603c.162.052.532.174.854.295a4.9 4.9 0 0 1-.895 1.539l-.857-.557a.5.5 0 0 0-.61.05 4.2 4.2 0 0 1-1.686.934.5.5 0 0 0-.353.591c.033.146.104.49.152.802-.583.144-1.396.069-1.937-.017l.024-.932a.5.5 0 0 0-.347-.488 4.2 4.2 0 0 1-1.593-.942.5.5 0 0 0-.684-.004c-.131.122-.439.398-.712.619a5 5 0 0 1-.942-1.548l3.094-1.512a.5.5 0 0 0 .28-.449c0-.977.826-1.771 1.84-1.771s1.841.795 1.841 1.771-.826 1.771-1.841 1.771a1.88 1.88 0 0 1-1.238-.461.499.499 0 1 0-.659.752 2.88 2.88 0 0 0 1.896.709c1.566 0 2.841-1.243 2.841-2.771S7.882 6.877 6.315 6.877c-1.455 0-2.658 1.072-2.821 2.45L.277 10.899a.5.5 0 0 0-.27.551c.013.06.318 1.482 1.639 2.732a.505.505 0 0 0 .616.057c.248-.161.589-.447.84-.668.384.303.813.551 1.268.735l-.026.996a.5.5 0 0 0 .387.5c.133.03.9.2 1.742.2.55 0 1.131-.072 1.587-.303a.5.5 0 0 0 .274-.479 8 8 0 0 0-.127-.876 5.2 5.2 0 0 0 1.348-.76l.892.579c.187.122.43.106.597-.039.046-.039 1.137-.986 1.593-2.723a.5.5 0 0 0-.268-.578 10 10 0 0 0-.952-.368 4.9 4.9 0 0 0 .007-1.501l.952-.442a.5.5 0 0 0 .255-.634ZM10.5 1h5a.5.5 0 0 0 0-1h-5a.5.5 0 0 0 0 1Zm5 2h-5a.5.5 0 0 0 0 1h5a.5.5 0 0 0 0-1Z"/></svg>