<!-- SPDX-FileCopyrightText: © 2025 Schneider Electric SPDX-License-Identifier: LicenseRef-Proprietary -->
<svg xmlns="http://www.w3.org/2000/svg" viewBox="0 0 16 16"><path d="M12.633 7.878c-.022-.06-.571-1.452-1.647-2.579a.496.496 0 0 0-.634-.073c-.226.146-.539.378-.783.563a5.2 5.2 0 0 0-1.403-.784l.078-.997a.5.5 0 0 0-.363-.521c-.058-.017-1.438-.39-3.192.088a.5.5 0 0 0-.367.516c.018.267.069.656.111.944-.475.186-.921.44-1.32.754C2.095 5.051 2 5.073 1.794 5.113a.5.5 0 0 0-.248.133C1.194 5.594-.121 7.451.022 8.2a.5.5 0 0 0 .275.357c.443.212 1.327.525 1.364.539a.5.5 0 0 0 .334-.944 25 25 0 0 1-.912-.345c.168-.41.59-1.124.925-1.567.229.153.552.383.83.588a.5.5 0 0 0 .637-.036 4.2 4.2 0 0 1 1.659-.941.48.48 0 0 0 .304-.224.45.45 0 0 0 .04-.363c0-.003-.068-.422-.117-.82a5.8 5.8 0 0 1 1.851-.066l-.069.894a.8.8 0 0 0 .045.258.5.5 0 0 0 .334.314c.63.181 1.214.51 1.69.954.199.185.466.209.655.021.003 0 .346-.27.679-.511a8 8 0 0 1 .962 1.505l-.757.352a.5.5 0 0 0-.314.224.5.5 0 0 0-.062.381 3.94 3.94 0 0 1-.018 1.893.5.5 0 0 0 .333.604c.162.052.533.174.854.295a5 5 0 0 1-.894 1.539l-.858-.557a.5.5 0 0 0-.609.05 4.2 4.2 0 0 1-1.687.934.5.5 0 0 0-.353.592c.032.146.104.489.152.801-.584.144-1.397.069-1.937-.017l.024-.932a.5.5 0 0 0-.347-.488 4.2 4.2 0 0 1-1.594-.942.5.5 0 0 0-.684-.004c-.131.122-.439.398-.712.619a5 5 0 0 1-.942-1.548l3.094-1.512a.5.5 0 0 0 .28-.449c0-.977.826-1.771 1.84-1.771s1.841.795 1.841 1.771-.826 1.771-1.841 1.771c-.459 0-.898-.164-1.238-.461a.499.499 0 1 0-.659.752 2.88 2.88 0 0 0 1.896.709c1.566 0 2.841-1.243 2.841-2.771S7.883 6.877 6.316 6.877c-1.455 0-2.658 1.072-2.821 2.45L.278 10.899a.5.5 0 0 0-.27.551c.013.06.318 1.482 1.639 2.732a.505.505 0 0 0 .616.057c.248-.161.589-.447.84-.668.384.303.813.551 1.268.735l-.026.996a.5.5 0 0 0 .387.5c.133.03.901.2 1.743.2.549 0 1.131-.072 1.587-.303a.5.5 0 0 0 .273-.479 8 8 0 0 0-.127-.876 5.2 5.2 0 0 0 1.348-.76l.892.579a.5.5 0 0 0 .598-.039c.046-.039 1.137-.986 1.592-2.723a.5.5 0 0 0-.268-.578 10 10 0 0 0-.951-.368 5 5 0 0 0 .007-1.501l.951-.442a.5.5 0 0 0 .255-.634Zm3.102-5.93L12.204.059a.501.501 0 0 0-.471.882l2.823 1.51-2.742 1.969a.5.5 0 0 0 .584.812l3.394-2.437a.5.5 0 0 0-.057-.847Z"/></svg>