<!-- SPDX-FileCopyrightText: © 2025 Schneider Electric SPDX-License-Identifier: LicenseRef-Proprietary -->
<svg xmlns="http://www.w3.org/2000/svg" viewBox="0 0 16 16"><path d="M12.966 4.116a.5.5 0 0 0-.705.045l-1.579 1.794a.501.501 0 0 0 .375.831h1.263l-.848.963a.5.5 0 1 0 .75.661l1.579-1.793a.501.501 0 0 0-.375-.831h-1.263l.848-.963a.5.5 0 0 0-.045-.706Zm1.346 6.903a.5.5 0 0 0 .048.706A1.867 1.867 0 0 1 13.132 15c-1.03 0-1.869-.838-1.869-1.868s.839-1.869 1.869-1.869a.5.5 0 0 0 0-1c-1.582 0-2.869 1.287-2.869 2.869S11.55 16 13.132 16 16 14.713 16 13.132c0-.829-.357-1.616-.981-2.161a.5.5 0 0 0-.706.048ZM5.5 7a.5.5 0 0 0 0 1h3a.5.5 0 0 0 .5-.5v-3a.5.5 0 0 0-.5-.5h-5a.5.5 0 0 0-.5.5v3a.5.5 0 0 0 1 0V5h4v2z"/><path d="M15.5 0a.5.5 0 0 0-.5.5V2h-1v-.692C14 .587 13.416 0 12.698 0H7.5a.5.5 0 0 0 0 1h5.198c.166 0 .302.138.302.308V2H4v-.692C4 1.139 4.135 1 4.302 1H5.5a.5.5 0 0 0 0-1H4.302C3.584 0 3 .586 3 1.308V2H1V.5a.5.5 0 0 0-1 0v10.632A2.87 2.87 0 0 0 2.869 14H3v1.5a.5.5 0 0 0 1 0V14h4.907a.5.5 0 0 0 0-1H2.869A1.87 1.87 0 0 1 1 11.132V10h2v1.5a.5.5 0 0 0 1 0V10h6.5a.5.5 0 0 0 0-1H1V3h14v6.5a.5.5 0 0 0 1 0v-9a.5.5 0 0 0-.5-.5Z"/></svg>