<!-- SPDX-FileCopyrightText: © 2025 Schneider Electric SPDX-License-Identifier: LicenseRef-Proprietary -->
<svg xmlns="http://www.w3.org/2000/svg" viewBox="0 0 16 16"><path d="M13.845 6.734a.48.48 0 0 0-.368-.138c-.028.001-1.659.067-3.578-.329l.111-.042c.459-.158 2.757-1.014 2.949-2.403.087-.625-.242-1.2-.979-1.71-.845-.583-1.507-.487-1.917-.302-.602.273-1.024.91-1.319 1.603C8.329 1.598 7.656.517 6.707.133c-1.208-.49-2.291.421-2.282.421h0c-.04.025-.983.623-1.055 1.745-.061.961.531 1.955 1.759 2.952a8.4 8.4 0 0 0 1.521.974c-1.266.323-2.766.615-4.166.657a.5.5 0 0 0-.485.5v5.667a.5.5 0 0 0 .309.462l6 2.485a.5.5 0 0 0 .468-.046.5.5 0 0 0 .223-.416V9.503a.5.5 0 0 0-1 0v5.283l-5-2.071V7.859c1.867-.122 3.8-.603 5.163-1.012 1.97.649 3.926.75 4.837.757v4.753l-2.775 1.79a.5.5 0 1 0 .543.839l3.004-1.938a.5.5 0 0 0 .229-.42V7.095a.5.5 0 0 0-.155-.362Zm-8.084-2.26C4.817 3.707 4.335 2.98 4.369 2.37c.033-.606.583-.966.646-1.012.005-.004.445-.369.953-.369.121 0 .246.021.37.071.51.21 1.407 1.103 1.76 4.699-.83-.306-1.641-.721-2.336-1.286Zm3.43.984c.193-1.07.637-2.444 1.286-2.739.042-.019.121-.055.246-.055.155 0 .379.056.687.269.276.191.597.476.559.751-.079.578-1.41 1.293-2.302 1.601-.008.003-.18.069-.476.173Z"/></svg>