<!-- SPDX-FileCopyrightText: © 2025 Schneider Electric SPDX-License-Identifier: LicenseRef-Proprietary -->
<svg xmlns="http://www.w3.org/2000/svg" viewBox="0 0 16 16"><path d="M15.458 5.1a.5.5 0 0 0-.445-.318c-1.298-.051-2.196.853-2.234.891a.5.5 0 0 0-.146.354l.036 1-1.845-.289a.502.502 0 0 0-.577.517c.015.312.11 1.889.638 2.307q.152.118.331.14l.052.024c-.311 2.281-2.534 3.616-2.881 3.696-.008-.004-.209-.108-.281-1.115l-.019-.23c-.017-.189-.018-.196.016-.461.07-.57-.419-1.739-.86-2.05-.215-.152-.463-.131-.912-.092-.551.046-1.472.127-1.895-.261-.187-.171-.277-.438-.277-.817 0-.883.433-1.527 1.287-1.913.225-.103 1.234-.048 2.322.193.551.122 1.529.229 1.863-.419.2-.392.173-.872-.079-1.353-.398-.761-1.286-1.433-2.022-1.53a.5.5 0 0 0-.166.006c-.398.082-.656.293-.845.447-.225.183-.238.178-.344.145-.283-.087-.373-.175-.414-.282.071-.07.22-.188.526-.392.066-.032.312-.078.474-.108.335-.064.716-.136 1.021-.275l.823-.378a.5.5 0 0 0-.418-.909l-.823.378c-.193.089-.51.149-.789.202-.353.067-.632.12-.869.278-.426.282-1.071.708-.958 1.273.052.262.173.875 1.132 1.17.634.194 1.017-.119 1.271-.326.128-.105.222-.178.332-.219.375.098.938.518 1.183.986.045.086.143.3.134.364-.094.049-.452.048-.816-.032-.363-.081-2.208-.464-2.951-.127-1.208.546-1.874 1.549-1.874 2.824 0 .665.202 1.188.601 1.554.747.686 1.944.58 2.657.521q.179-.018.302-.025c.172.238.412.857.393 1.047a2.5 2.5 0 0 0-.021.672l.018.216c.037.505.147 2.043 1.288 2.043.722 0 3.637-1.808 3.891-4.812.042-.494-.463-.756-.784-.872-.073-.173-.147-.54-.197-.913l1.21.19a.967.967 0 0 0 1.118-.957v-.801c.193-.148.563-.386 1.016-.457a7.1 7.1 0 0 1 .262 3.346c-.477 3.02-3.037 5.462-6.088 5.808-2.258.257-4.425-.545-5.956-2.195-1.531-1.651-2.163-3.89-1.733-6.142.519-2.746 2.707-4.946 5.443-5.482 2.687-.527 5.372.484 7.005 2.638a.5.5 0 0 0 .797-.603C12.517.712 9.452-.442 6.386.158 3.254.772.748 3.292.15 6.429c-.49 2.567.233 5.122 1.982 7.009A7.93 7.93 0 0 0 7.995 16q.466 0 .939-.053c3.545-.402 6.408-3.135 6.963-6.646a8.1 8.1 0 0 0-.439-4.202Z"/></svg>