<!-- SPDX-FileCopyrightText: © 2025 Schneider Electric SPDX-License-Identifier: LicenseRef-Proprietary -->
<svg xmlns="http://www.w3.org/2000/svg" viewBox="0 0 16 16"><path d="M8 0q-.354 0-.701.03a.5.5 0 0 0 .086.997q.304-.026.615-.026c3.859 0 7 3.143 7 7.006 0 2.667-1.53 5.064-3.819 6.241q.326-.351.726-.752c.495-.495.979-1.258 1.296-1.809a1.28 1.28 0 0 0-.449-1.727L9.409 7.954c-.586-.293-1.455-.145-1.808-.066a3.3 3.3 0 0 1-1.252-.66c-.232-.195-.37-.473-.35-.601.002-.011.008-.044.07-.077.116.005.432.239.531.417a.82.82 0 0 0 .854.411.93.93 0 0 0 .767-.716c.144-.682.645-1.241 1.674-1.868a1.046 1.046 0 0 0 .218-1.612L8.981 1.977a1.23 1.23 0 0 0-.892-.395c-1.312-.019-2.445-.314-2.636-.688a.5.5 0 0 0-.64-.234c-.848.359-1.379.77-1.401.787a.5.5 0 0 0-.164.56c.294.839.136 1.083-.389 1.894-.507.782-.654 1.581-.438 2.375.418 1.537 2.11 2.663 3.456 3.337.229.114.704.353.732.467.006.025-.018.151-.197.394-.277.377-.368.82-.261 1.284.164.711.757 1.306 1.238 1.558.297.154.143.984-.123 1.658A7 7 0 0 1 .998 8.006c0-1.528.482-2.979 1.396-4.198a.499.499 0 1 0-.801-.599A7.95 7.95 0 0 0-.002 8.006c0 4.25 3.319 7.761 7.556 7.993h.027c.19 0 .365-.108.449-.281.127-.261 1.203-2.569-.179-3.29-.284-.148-.644-.533-.727-.896a.53.53 0 0 1 .091-.464c.334-.452.453-.852.364-1.221-.136-.568-.706-.853-1.257-1.129-.952-.477-2.6-1.462-2.938-2.705-.14-.515-.038-1.028.312-1.568.515-.794.873-1.347.607-2.397.14-.087.329-.197.557-.311.749.695 2.281.831 3.215.844q.102.001.176.079l1.122 1.28c-1.213.739-1.867 1.479-2.048 2.327-.341-.423-1.004-.885-1.584-.655-.408.161-.667.465-.73.855-.1.613.311 1.206.691 1.527.886.745 1.785.896 1.822.901a.5.5 0 0 0 .205-.01c.346-.09.977-.164 1.195-.055l3.311 1.988a.27.27 0 0 1 .099.368c-.413.718-.806 1.271-1.137 1.603-1.255 1.256-2.006 2.214-2.038 2.254a.5.5 0 0 0-.029.572.5.5 0 0 0 .527.225c3.674-.775 6.341-4.07 6.341-7.833C16 3.591 12.411 0 8 0Z"/></svg>