<!-- SPDX-FileCopyrightText: © 2025 Schneider Electric SPDX-License-Identifier: LicenseRef-Proprietary -->
<svg xmlns="http://www.w3.org/2000/svg" viewBox="0 0 16 16"><path d="M15.739 6.621 8.658 2.77a.5.5 0 0 0-.459-.01L.28 6.641a.5.5 0 0 0-.107.827l1.547 1.34.067 1.454a.5.5 0 0 0 .074.238l.005.009a.5.5 0 0 0-.089.294l.005.241-.251.219a.5.5 0 0 0-.135.188l-.185.451c-.063.155-.045.332.05.471s.275.218.42.219l1.336-.02a.5.5 0 0 0 .487-.575l-.052-.343a.5.5 0 0 0-.169-.305l-.375-.321-.004-.04.003-.01a.5.5 0 0 0 .025-.241l-.05-.347a.5.5 0 0 0 .032-.169l.015-1.406a34 34 0 0 1 1.298-.658c.018-.008 1.848-.823 4.156-.759 2.177.057 3.351.722 3.381.74a.5.5 0 0 0 .514-.858c-.056-.033-1.388-.816-3.869-.881-2.542-.078-4.513.811-4.593.848-.301.135-1.072.537-1.497.761l-.921-.799 7.01-3.435 6.22 3.383-2.994 2.596a.5.5 0 0 0-.173.378v1.867H5.417V9.936a.5.5 0 0 0-1 0v2.562a.5.5 0 0 0 .5.5h7.044a.5.5 0 0 0 .5-.5v-2.139l3.366-2.919a.5.5 0 0 0-.088-.817Z"/></svg>