<!-- SPDX-FileCopyrightText: © 2025 Schneider Electric SPDX-License-Identifier: LicenseRef-Proprietary -->
<svg xmlns="http://www.w3.org/2000/svg" viewBox="0 0 16 16"><path d="M5.456 3.502h.003a.5.5 0 0 0 .497-.503l-.003-.5c-.001-.275-.198-.476-.503-.497a.5.5 0 0 0-.497.503l.003.5a.5.5 0 0 0 .5.497Zm5.005 0h.003a.5.5 0 0 0 .497-.503l-.003-.5c-.002-.275-.247-.476-.503-.497a.5.5 0 0 0-.497.503l.003.5a.5.5 0 0 0 .5.497ZM.5 10.046a.5.5 0 0 0 0 1h.014c.276 0 .493-.224.493-.5s-.23-.5-.507-.5Zm2.514-.017H3.01l-.5.004a.5.5 0 0 0 .004 1h.004l.5-.004a.5.5 0 0 0-.004-1Zm-.003-5.023-.5.003a.5.5 0 0 0 .003 1h.003l.5-.003a.5.5 0 0 0 .497-.503c-.002-.275-.238-.45-.503-.497ZM.5 5.022a.5.5 0 0 0 0 1h.014c.276 0 .493-.224.493-.5s-.23-.5-.507-.5Zm6.631 4.98h-.696c-.234 0-.433-.176-.433-.385v-.744a.5.5 0 0 0-1 0v.744c0 .14.028.272.068.399h-.059a.5.5 0 0 0-.497.503c.001.25.189.447.429.483a.5.5 0 0 0 .5.496h.003a.5.5 0 0 0 .497-.503v-.083c.154.055.318.09.492.09h.696a.5.5 0 0 0 0-1Zm0-5h-.744c-.147 0-.285.03-.418.074v-.077a.5.5 0 0 0-.5-.497h-.003a.5.5 0 0 0-.496.5.496.496 0 0 0 .045.991h.063c-.044.14-.074.286-.074.441v.683a.5.5 0 0 0 1 0v-.683c0-.234.176-.432.385-.432h.744a.5.5 0 0 0 0-1Zm8.369.988a.5.5 0 0 0 0-1h-.014c-.276 0-.493.224-.493.5s.23.5.507.5Zm-2.014-.987h-.003l-.5.003a.5.5 0 0 0 .003 1h.003l.5-.003a.5.5 0 0 0-.003-1Zm-2.5.016h-.012v-.02a.5.5 0 0 0-.5-.497h-.003a.5.5 0 0 0-.497.503v.061a1.5 1.5 0 0 0-.404-.063h-.697a.5.5 0 0 0 0 1h.697c.234 0 .432.176.432.384v.73a.5.5 0 0 0 1 0v-.73c0-.128-.024-.25-.058-.367h.045a.5.5 0 0 0-.003-1Zm2.5 5.007h-.004l-.5.004a.5.5 0 0 0 .004 1h.004l.5-.004a.5.5 0 0 0-.004-1Zm2.014-.012h-.014c-.276 0-.493.224-.493.5s.23.5.507.5a.5.5 0 1 0 0-1Zm-4.514.029h-.068c.051-.149.084-.307.084-.474v-.696a.5.5 0 0 0-1 0v.696c0 .234-.176.433-.384.433h-.745a.5.5 0 0 0 0 1h.745c.114 0 .224-.019.33-.046v.045a.5.5 0 0 0 .5.497h.003a.496.496 0 0 0 .488-.455h.05a.5.5 0 0 0-.003-1Zm-.528 2.455a.5.5 0 0 0-.497.503l.003.5a.5.5 0 0 0 .5.497h.003a.5.5 0 0 0 .497-.503l-.003-.5c-.002-.276-.25-.508-.503-.497Zm-5.006 0a.5.5 0 0 0-.497.503l.003.5a.5.5 0 0 0 .5.497h.003a.5.5 0 0 0 .497-.503l-.003-.5c-.001-.276-.201-.508-.503-.497Z"/></svg>