<!-- SPDX-FileCopyrightText: © 2025 Schneider Electric SPDX-License-Identifier: LicenseRef-Proprietary -->
<svg xmlns="http://www.w3.org/2000/svg" viewBox="0 0 16 16"><path d="M11.214 10.032H4.667a.5.5 0 0 0 0 1h6.547a.5.5 0 0 0 0-1Zm-1.187 2.016H5.854a.5.5 0 0 0 0 1h4.173a.5.5 0 0 0 0-1Zm2.539-4.031H8.512V3.452a.5.5 0 0 0-1 0v4.565H3.434a.5.5 0 0 0 0 1h9.133a.5.5 0 0 0 0-1Z"/><path d="M8 0C3.589 0 0 3.589 0 8s3.589 8 8 8 8-3.589 8-8-3.589-8-8-8Zm0 15c-3.86 0-7-3.141-7-7s3.14-7 7-7 7 3.14 7 7-3.141 7-7 7Z"/></svg>