<!-- SPDX-FileCopyrightText: © 2025 Schneider Electric SPDX-License-Identifier: LicenseRef-Proprietary -->
<svg xmlns="http://www.w3.org/2000/svg" viewBox="0 0 16 16"><path d="M12.988 4.079c-.46-1.697-1.468-2.576-2.294-3.152C9.861.347 8.859.001 8.011.001a2.7 2.7 0 0 0-1.518.433q-.288.188-.718.189c-.496 0-.954-.194-.965-.199a.8.8 0 0 0-.337-.072h-.672a.804.804 0 0 0-.807.8V3.93c0 .401.303.743.707.794.042.005.382.007.61.005h.163c.151 0 .264-.058.395-.125.213-.108.569-.289 1.198-.292.018.016.072.106.085.293.004.177.092 4.417-.306 10.543a.806.806 0 0 0 .805.852h2.408a.8.8 0 0 0 .807-.832c-.181-4.502-.139-8.94-.098-11.186v-.084c.006-.276-.214-.461-.49-.466-.291.002-.505.257-.51.533-.041 2.221-.082 6.58.091 11.036H6.858c.385-6.054.298-10.241.293-10.445-.049-.695-.398-1.154-.943-1.229a2 2 0 0 0-.179-.012c-.792 0-1.311.245-1.645.413h-.078l-.31.003V1.348l.414-.008c.11.047.694.283 1.368.283.484 0 .911-.119 1.267-.354.747-.491 2.025-.256 3.079.478.767.535 1.527 1.219 1.901 2.594a.5.5 0 1 0 .965-.261Z"/></svg>