<!-- SPDX-FileCopyrightText: © 2025 Schneider Electric SPDX-License-Identifier: LicenseRef-Proprietary -->
<svg xmlns="http://www.w3.org/2000/svg" viewBox="0 0 16 16"><path d="M4.071 4H2.5a.5.5 0 0 0-.5.5V6H1V2.5a.5.5 0 0 0-1 0v4a.5.5 0 0 0 .5.5h2a.5.5 0 0 0 .5-.5V5h.817c.405.583.944 1.618.944 2.998s-.54 2.418-.945 3.002h-.817V9.5a.5.5 0 0 0-.5-.5H.5a.5.5 0 0 0-.5.5v4a.5.5 0 0 0 1 0V10h1v1.5a.5.5 0 0 0 .5.5h1.571a.5.5 0 0 0 .396-.195 6.3 6.3 0 0 0 1.294-3.807 6.3 6.3 0 0 0-1.295-3.803A.5.5 0 0 0 4.07 4Zm11.711 7.153-.438-.305c-.574-.513-.812-.725-.981-1.495l-.466-2.115c-.235-.844-1.209-2.799-2.49-3.705L8.268 1.214a1.04 1.04 0 0 0-.917-.204 1.37 1.37 0 0 0-.907.797c-.271.645-.074 1.509.446 1.967l.054.048-.046.042c-.514.483-.715 1.343-.105 2.053.423.493.771.76 1 .938q.094.071.159.127a.5.5 0 0 0 .664-.748 4 4 0 0 0-.211-.171c-.209-.161-.496-.382-.854-.798-.141-.164-.171-.327-.093-.5a.5.5 0 0 1 .256-.259l1.997 1.776a.9.9 0 0 1 .28.476l.735 3.292c.075.334-.037.656-.185.839l-.628-.318-.254-1.153c-.213-.969-.985-1.512-1.888-1.312l-.698.153a.5.5 0 0 0-.381.596l.659 2.998c.216.98.821 1.753 1.521 1.992l2.336 1.161a.5.5 0 0 0 .445-.894l-2.395-1.187c-.42-.146-.794-.663-.932-1.287l-.552-2.509.21-.046c.495-.113.652.349.696.55l.305 1.385a.5.5 0 0 0 .262.339l1.119.567c.138.07.299.073.439.006.692-.325 1.085-1.247.894-2.098l-.735-3.291a1.9 1.9 0 0 0-.591-1.005l-1.934-1.72-.045-.05a1 1 0 0 0-.133-.108l-.711-.632c-.201-.177-.292-.581-.188-.831.048-.114.141-.213.286-.192l3.169 2.342c1.021.723 1.905 2.417 2.106 3.136l.459 2.088c.238 1.085.68 1.48 1.291 2.026.016.015.079.068.097.081l.445.304a.5.5 0 1 0 .564-.826Z"/></svg>