<!-- SPDX-FileCopyrightText: © 2025 Schneider Electric SPDX-License-Identifier: LicenseRef-Proprietary -->
<svg xmlns="http://www.w3.org/2000/svg" viewBox="0 0 16 16"><path d="M15.984 10.376a.5.5 0 0 0-.609-.359c-3.361.867-6.117-1.936-6.144-1.964a.5.5 0 0 0-.223-.134L6.43 7.183c-.392-.123-.418-.549-.378-.757.029-.15.149-.512.51-.466l1.563.2a.5.5 0 0 0 .445.057l1.862.239a.5.5 0 0 0 .127-.993l-1.56-.2c.041-.336.05-.703.007-1.061l2.628-.521 2.692 1.586a.5.5 0 0 0 .508-.862l-2.856-1.683a.5.5 0 0 0-.351-.06l-2.856.566-.05.012a1.78 1.78 0 0 0-1.142-.902.5.5 0 0 0-.245-.004c-4.179.975-5.59 2.13-6.424 3.565a.5.5 0 0 0-.049.116c-.031.111-.065.219-.101.333C.489 7.22.116 8.413 0 13.166a.5.5 0 0 0 .814.401l.561-.454.279.293a.497.497 0 0 0 .742-.021l.322-.377.341.278a.5.5 0 0 0 .714-.084l.25-.329.389.261a.49.49 0 0 0 .516.023.5.5 0 0 0 .262-.444l-.021-1.995c.332.106.713.164 1.155.085.658-.117 1.1-.407 1.39-.915a.5.5 0 1 0-.869-.496c-.119.208-.277.352-.696.427-.466.081-.845-.103-1.243-.299-.389-.19-.831-.406-1.341-.328a1.11 1.11 0 0 0-.782.486c-.336.512-.172 1.198-.152 1.274a.499.499 0 0 0 .969-.247c-.033-.135-.045-.383.02-.479.007-.011.022-.034.101-.046.137-.023.292.027.475.108a.5.5 0 0 0-.029.174l.014 1.313a.5.5 0 0 0-.668.118l-.221.291-.319-.261a.5.5 0 0 0-.697.062l-.28.328-.215-.226a.5.5 0 0 0-.676-.044l-.072.058c.137-3.71.449-4.709.682-5.457l.091-.297c.565-.953 1.553-2.041 5.619-3.007.642.269.645 1.208.578 1.794l-1.337-.171c-.779-.066-1.438.461-1.594 1.27-.143.734.176 1.624 1.073 1.906l2.467.704c.571.55 3.432 3.067 7.015 2.141a.5.5 0 0 0 .359-.609Z"/></svg>