<!-- SPDX-FileCopyrightText: © 2025 Schneider Electric SPDX-License-Identifier: LicenseRef-Proprietary -->
<svg xmlns="http://www.w3.org/2000/svg" viewBox="0 0 16 16"><path d="M2.807 9.336a.96.96 0 0 1 .43-.222c.276-.067.666-.051.936.207.302.289.632.766.636.771a.5.5 0 1 0 .823-.566c-.016-.023-.391-.566-.769-.927-.479-.457-1.178-.629-1.868-.454-.624.155-1.099.558-1.27 1.076a.5.5 0 0 0 .084.47c1.848 2.311 2.726 3.409 3.192 3.914v1.896a.5.5 0 0 0 1 0v-1.995a.5.5 0 0 0-.112-.315c-.053-.066-2.355-2.944-3.081-3.854Zm11.188-5.589a1.495 1.495 0 0 0-2.039-1.371c-.225-.818-1.247-1.241-1.961-.994v-.064C9.879.567 9.248 0 8.526 0 7.85 0 7.245.492 7.035 1.205a1.4 1.4 0 0 0-.52-.1c-.798 0-1.506.649-1.514 1.395v4a.5.5 0 0 0 1 0V2.505c.002-.194.266-.4.514-.4.23 0 .476.221.478.43q0 .044.008.086V7.5a.5.5 0 0 0 1 0V1.465C8.08 1.226 8.277 1 8.526 1c.233 0 .439.202.475.395V7.5a.5.5 0 0 0 1 0l-.004-4.67a.5.5 0 0 0 .018-.128c.002-.21.22-.401.457-.401.25 0 .528.209.53.396l.003 4.804a.5.5 0 0 0 .5.5h0a.5.5 0 0 0 .5-.5l-.002-3.642a.5.5 0 0 0 .011-.1c.003-.269.225-.487.493-.487s.488.218.49.481l.005 6.827c0 2.46-1.522 2.775-1.581 2.787a.5.5 0 0 0-.419.493v1.641a.5.5 0 0 0 1 0v-1.268c.857-.345 2-1.383 2-3.653l-.005-6.833Z"/></svg>