<!-- SPDX-FileCopyrightText: © 2025 Schneider Electric SPDX-License-Identifier: LicenseRef-Proprietary -->
<svg xmlns="http://www.w3.org/2000/svg" viewBox="0 0 16 16"><path d="M16.071 8.313a.5.5 0 0 0-.604-.369l-3.627.873a.4.4 0 0 0-.087-.023L6.356 7.8c-.357-.135-.357-.305-.357-.386v-.13c0-.148.128-.276.257-.284h6.243q.088 0 .166-.028h.002a.5.5 0 0 0 .183-.116q0 0 0 0h0c.002-.005 0 0 0 0v-.001q0 0 0 0h0s0 0 0 0h0v-.001q0 0 0 0h0a.5.5 0 0 0 .11-.179q0 0 0 0h0v-.002h0v-.002h0a.5.5 0 0 0 .027-.153h0v-.002h0v-.002a.5.5 0 0 0-.028-.172h0v-.003h0v-.002h0v-.003a.5.5 0 0 0-.109-.173h0V6.16q0 0 0 0h0s0 0 0 0q0 0 0 0h0v-.001q0 0 0 0a.5.5 0 0 0-.188-.118h0s0 0 0 0h-.002s0 0 0 0h0s0 0 0 0h0-.002a.5.5 0 0 0-.147-.025h-.004l-2.083-.03c-.176 0-.354-.184-.354-.535 0-.43.474-.435.494-.435h3.345c.95 0 1.092.755 1.092 1.205v.295a.5.5 0 0 0 1 0v-.295c0-1.017-.548-2.205-2.092-2.205h-3.345c-.724 0-1.494.503-1.494 1.435q.001.304.088.565H7.693L8.521.592A.5.5 0 0 0 7.533.44l-.852 5.576H4.428l-.458-3h1.913a.5.5 0 0 0 0-1H3.818L3.577.44a.5.5 0 1 0-.988.152l.83 5.424H.5a.5.5 0 0 0 0 1h4.532A1.3 1.3 0 0 0 5 7.3v.13c0 .599.366 1.08 1.089 1.345l3.686.685a.5.5 0 0 0-.11.661l3.631 5.665a.5.5 0 0 0 .842-.539l-3.27-5.102 4.834-1.212a.5.5 0 0 0 .369-.604Z"/></svg>