<!-- SPDX-FileCopyrightText: © 2025 Schneider Electric SPDX-License-Identifier: LicenseRef-Proprietary -->
<svg xmlns="http://www.w3.org/2000/svg" viewBox="0 0 16 16"><path d="M15.483 11.057a8 8 0 0 1-.901-.022c-.494-.062-1.562-.951-2.163-1.563a.5.5 0 0 0-.357-.149H7.699c-.17-.012-.374-.081-.374-.336s.203-.325.344-.336h5.379a.5.5 0 0 0 0-1h-2.083a1.4 1.4 0 0 0-.308-.778c2.262.041 4.384.424 4.409.429a.493.493 0 0 0 .582-.401.5.5 0 0 0-.401-.582c-.119-.021-2.886-.522-5.573-.44L5.438 1.637c-.53-.53-1.455-.53-1.984 0L.411 4.681C.146 4.946 0 5.299 0 5.674s.146.728.411.993l5.124 5.126a.5.5 0 0 0 .707-.707L1.119 5.959a.4.4 0 0 1-.001-.571l3.043-3.044a.41.41 0 0 1 .569 0L9.855 7.47a.4.4 0 0 1 .101.179h-2.31c-.531.025-1.32.401-1.32 1.336s.79 1.311 1.344 1.336h4.187c.29.283.86.812 1.463 1.208-.979.969-2.681 2.145-2.762 2.2-.102.073-.232.044-.26.011-.141-.163-.139-.332-.099-.373a92 92 0 0 1 1.706-1.551.5.5 0 0 0-.667-.746c-.155.14-1.526 1.367-1.751 1.596a1 1 0 0 0-.091.105l-.039.033c-.038.035-.181.102-.336-.045-.14-.132-.014-.394.122-.54l.007-.007c.263-.28.543-.518.55-.523a.5.5 0 0 0-.646-.764s-.309.261-.607.575c-.094.066-.228.111-.355-.002-.116-.104-.114-.175-.114-.198a.5.5 0 0 0-.49-.511c-.256.024-.504.214-.51.489-.005.254.068.628.449.967.175.155.357.246.534.29-.02.355.104.698.374.952.28.264.584.361.902.364.06.19.162.376.306.542.215.249.54.378.873.378.248 0 .5-.072.713-.221.221-.152 2.157-1.497 3.138-2.563q.1.026.194.038c.413.052 1.031.03 1.058.03a.5.5 0 0 0-.035-1Z"/></svg>