<!-- SPDX-FileCopyrightText: © 2025 Schneider Electric SPDX-License-Identifier: LicenseRef-Proprietary -->
<svg xmlns="http://www.w3.org/2000/svg" viewBox="0 0 16 16"><path d="M7.976 5.106a3.055 3.055 0 0 1 2.66 4.549.5.5 0 1 0 .871.49 4.05 4.05 0 0 0 .521-1.987 4.056 4.056 0 0 0-4.052-4.052.5.5 0 0 0 0 1Zm0-1.737a.5.5 0 0 0 .5-.5V.5a.5.5 0 0 0-1 0v2.369a.5.5 0 0 0 .5.5Zm3.805 1.381a.5.5 0 0 0 .354-.146l1.183-1.183a.5.5 0 0 0-.707-.707l-1.183 1.183a.5.5 0 0 0 .354.853Zm.851 3.645a.5.5 0 0 0 .5.5H15.5a.5.5 0 0 0 0-1h-2.368a.5.5 0 0 0-.5.5Zm-8.151 1.814a.5.5 0 0 0 .863-.508c-.274-.466-.419-1-.419-1.543 0-.977.475-1.903 1.27-2.478a.5.5 0 1 0-.586-.81 4.07 4.07 0 0 0-1.684 3.289c0 .722.192 1.431.557 2.051Zm11.019.844H.5a.5.5 0 0 0 0 1h15a.5.5 0 0 0 0-1Zm0 3.947H.5a.5.5 0 0 0 0 1h15a.5.5 0 0 0 0-1ZM3.865 4.604a.5.5 0 0 0 .708 0 .5.5 0 0 0 0-.707L3.39 2.714a.5.5 0 0 0-.707.707l1.183 1.183ZM15.5 13.026H.5a.5.5 0 0 0 0 1h15a.5.5 0 0 0 0-1ZM.5 8.895h2.369a.5.5 0 0 0 0-1H.5a.5.5 0 0 0 0 1Z"/></svg>