<!-- SPDX-FileCopyrightText: © 2025 Schneider Electric SPDX-License-Identifier: LicenseRef-Proprietary -->
<svg xmlns="http://www.w3.org/2000/svg" viewBox="0 0 16 16"><path d="M15.5 4H.461a.5.5 0 0 0-.5.505L0 8.14a.5.5 0 0 0 .156.358l2.604 2.463a.5.5 0 0 0 .344.137h.006l8.396-.099a.5.5 0 1 0-.012-1l-8.194.096L.998 7.918.967 5h14.034v2.97l-2.332 2.217a.5.5 0 0 0 .689.725l2.487-2.365A.5.5 0 0 0 16 8.185V4.5a.5.5 0 0 0-.5-.5Z"/><path d="M14 6.5a.5.5 0 0 0-.5-.5h-11a.5.5 0 0 0 0 1h11a.5.5 0 0 0 .5-.5Z"/></svg>