<!-- SPDX-FileCopyrightText: © 2025 Schneider Electric SPDX-License-Identifier: LicenseRef-Proprietary -->
<svg xmlns="http://www.w3.org/2000/svg" viewBox="0 0 16 16"><path d="M13.794 8.179c-.041-.107-.405-1.062-.614-1.454a6 6 0 0 0-.188-.343 1 1 0 0 1 .075-.148c.244-.424.833-2.551-.119-4.193C12.162.687 10.595 0 8.288 0h-.019C5.708.004 3.911.729 2.928 2.155 1.927 3.608 2.06 5.419 2.519 6.63c.458 1.208 1.19 2.133 1.727 2.699.318.355.616.587.683.637a.5.5 0 0 0 .609-.792c-.005-.004-.232-.185-.545-.514-.302-.338-.598-.78-.621-1.201-.016-.288.104-.547.365-.795a.67.67 0 0 1 .708-.144.501.501 0 0 0 .412-.912 1.66 1.66 0 0 0-1.808.329 2.3 2.3 0 0 0-.477.628 5 5 0 0 1-.119-.29c-.352-.929-.485-2.417.298-3.553C4.536 1.582 6.057 1.003 8.272 1h.017c1.886 0 3.15.499 3.758 1.482.79 1.277.253 3.053.152 3.254-.338.591-.222.858.106 1.475.107.2.3.674.436 1.02l-.782.77a.5.5 0 0 0-.138.464l.124.561-.102.204a.5.5 0 0 0-.043.318c.046.239.074.533.06.616-.056.25-.389 1.492-1.587 1.336-.729-.092-1.314.036-1.741.38-.512.413-.58.976-.575.976h0l-.228.915-4.202-2.135a.5.5 0 1 0-.453.891l4.762 2.419a.502.502 0 0 0 .713-.325l.392-1.591c.021-.159.17-.671 1.208-.539 1.493.188 2.423-.925 2.688-2.111.055-.245.015-.608-.023-.852l.107-.215a.5.5 0 0 0 .041-.331l-.102-.463.819-.806a.5.5 0 0 0 .117-.534Z"/></svg>