<!-- SPDX-FileCopyrightText: © 2025 Schneider Electric SPDX-License-Identifier: LicenseRef-Proprietary -->
<svg xmlns="http://www.w3.org/2000/svg" viewBox="0 0 16 16"><path d="M15.689 6.737c-.017-.052-.394-1.183-1.657-1.55C13.623 4.054 11.84 0 7.272 0 2.376 0 .695 4.361.441 5.68a1.44 1.44 0 0 0-.425 1.262c0 .202.035.854.433 1.268.217.224.503.343.828.343.641 0 1.307-.641 1.495-.837a.5.5 0 0 0 .14-.348c0-.188.051-4.627 4.363-4.723.123-.01 2.933-.27 4.226 3.019-.251.374-.635 1.142-.635 2.337 0 1.071.083 1.802.261 2.301a.5.5 0 1 0 .942-.336c-.134-.377-.202-1.038-.202-1.965 0-1.296.536-1.88.554-1.9a.5.5 0 0 0 .117-.518c-1.517-4.325-5.34-3.939-5.329-3.936-4.647.102-5.218 4.457-5.288 5.5-.242.218-.532.404-.645.404-.066 0-.088-.018-.107-.037-.107-.109-.158-.415-.153-.592a.4.4 0 0 0-.007-.103c-.049-.281.116-.418.158-.447a.5.5 0 0 0 .238-.39c.004-.05.956-4.983 5.867-4.983 4.514 0 5.838 4.551 5.893 4.745a.5.5 0 0 0 .396.359 1.53 1.53 0 0 1 1.186.969c.564 1.44.016 2.407-.027 2.481-.623 1.256-1.325 1.052-1.394 1.03a.51.51 0 0 0-.431.025.5.5 0 0 0-.25.352c-.313 1.798-1.349 2.562-1.453 2.644-1.044 1.021-2.815.96-2.831.959-.195-.033-.373.095-.463.265-.061.113-.278.166-.339.172h-.014c-.739 0-.963-.238-.977-.34a.5.5 0 0 0-.011-.111c-.019-.087-.008-.121-.009-.121.068-.084.487-.13.862-.066a.5.5 0 0 0 .175-.984c-.202-.036-1.231-.188-1.755.355-.171.177-.352.49-.258.986.012.146.073.462.362.752.348.351.889.528 1.632.528h.022c.073-.004.625-.045 1.002-.437.63-.018 2.202-.168 3.239-1.19.054-.037 1.22-.872 1.7-2.763.623-.009 1.462-.352 2.066-1.572.034-.057.837-1.407.095-3.3Z"/></svg>