<!-- SPDX-FileCopyrightText: © 2025 Schneider Electric SPDX-License-Identifier: LicenseRef-Proprietary -->
<svg xmlns="http://www.w3.org/2000/svg" viewBox="0 0 16 16"><path d="M6.95 13.541c.531 0 1.03-.207 1.405-.582a.5.5 0 0 0-.707-.707 1.01 1.01 0 0 1-1.394 0 .5.5 0 0 0-.707.707c.375.375.874.582 1.405.582Zm-.697-5.492a.5.5 0 0 0-.707 0c-.375.375-.582.874-.582 1.404s.207 1.029.582 1.404a.5.5 0 0 0 .708 0 .5.5 0 0 0 0-.707c-.187-.187-.289-.434-.289-.697s.103-.511.289-.697a.5.5 0 0 0 0-.707Zm3.497.707a.5.5 0 0 0 .708 0 .5.5 0 0 0 0-.707c-.749-.751-2.059-.75-2.81 0a.5.5 0 0 0 .707.707 1.01 1.01 0 0 1 1.396 0Zm2.049-5.289a.501.501 0 0 0 .752.661c.518-.589.521-1.643.005-2.301-.172-.218-.19-.81-.035-1.072a.5.5 0 1 0-.862-.509c-.327.554-.351 1.612.109 2.198.217.277.232.794.03 1.024Zm2.849-1.64c-.172-.218-.19-.81-.035-1.072a.5.5 0 1 0-.862-.509c-.327.554-.351 1.612.109 2.198.217.277.232.794.03 1.024a.501.501 0 0 0 .752.661c.518-.589.521-1.643.005-2.301ZM9.75 12.959a.5.5 0 0 0 .708 0 1.99 1.99 0 0 0 0-2.809.5.5 0 0 0-.707.707.987.987 0 0 1 0 1.395.5.5 0 0 0 0 .707Z"/><path d="M12.161 7.738a.5.5 0 0 0-.209.676A4.472 4.472 0 0 1 8 14.966a4.47 4.47 0 0 1-4.467-4.467 4.472 4.472 0 0 1 6.498-3.98.5.5 0 1 0 .455-.891A5.4 5.4 0 0 0 8 5.031c-3.015 0-5.467 2.453-5.467 5.467S4.986 15.965 8 15.965a5.473 5.473 0 0 0 4.837-8.019.503.503 0 0 0-.676-.209ZM3.446 3.263l.648.892a.5.5 0 1 0 .808-.588l-.648-.891 1.048-.34a.499.499 0 1 0-.309-.951l-.994.323V.5a.5.5 0 0 0-1 0v1.242l-1.102-.358a.5.5 0 0 0-.309.951l1.047.34-.647.891a.501.501 0 0 0 .404.794.5.5 0 0 0 .405-.206l.647-.892Zm6.261.204a.501.501 0 0 0 .752.661c.518-.589.52-1.643.004-2.301-.172-.218-.19-.81-.035-1.072a.5.5 0 1 0-.862-.509c-.327.554-.351 1.612.109 2.198.218.278.233.794.031 1.024Z"/></svg>