<!-- SPDX-FileCopyrightText: © 2025 Schneider Electric SPDX-License-Identifier: LicenseRef-Proprietary -->
<svg xmlns="http://www.w3.org/2000/svg" viewBox="0 0 16 16"><path d="M8.024 16a3.237 3.237 0 0 1-3.234-3.233 3.24 3.24 0 0 1 1.805-2.901V9.19H5.59c-.785 0-1.266-.69-1.444-1.138-.21-.333-1.5-2.391-1.813-3.135-.362-.857-.321-1.388-.315-1.445L2.016 2.2c0-.693.211-1.243.626-1.634.638-.603 1.496-.57 1.592-.564h7.169c1.716 0 2.433 1.342 2.573 2.052l.009 1.468c0 .926-.317 1.48-.353 1.541l-2.599 3.859a.5.5 0 1 1-.829-.559l2.583-3.837h0s.197-.375.197-1.004V2.207c-.062-.242-.385-1.206-1.582-1.206H4.203c-.032-.001-.552-.02-.883.296-.204.195-.307.499-.307.902v1.323c-.002.044-.02.394.239 1.006.252.596 1.359 2.391 1.765 3.032a1 1 0 0 1 .048.098c0 .002.212.531.524.531h1.505a.5.5 0 0 1 .5.5v1.495a.51.51 0 0 1-.34.486 2.24 2.24 0 0 0-1.464 2.097A2.236 2.236 0 0 0 8.024 15c.721 0 1.402-.352 1.82-.941.027-.051.102-.265-.172-.539-.087-.065-.333-.179-.64.127-.019.018-.222.197-.242.212a1.336 1.336 0 0 1-2.1-1.093c0-.735.599-1.333 1.334-1.333.085 0 .262-.019.362-.118q.098-.096.098-.321v-1.39a.5.5 0 0 1 1 0v1.39c0 .542-.223.868-.409 1.047-.426.408-1.008.398-1.073.392-.162 0-.312.15-.312.334a.335.335 0 0 0 .53.271l.124-.115a1.457 1.457 0 0 1 2.009-.135c.732.73.526 1.517.318 1.833a3.25 3.25 0 0 1-2.646 1.378Z"/></svg>