<!-- SPDX-FileCopyrightText: © 2025 Schneider Electric SPDX-License-Identifier: LicenseRef-Proprietary -->
<svg xmlns="http://www.w3.org/2000/svg" viewBox="0 0 16 16"><path d="M7 5.706V.5a.5.5 0 0 0-1 0v4.761a46 46 0 0 0-1.88-.002.5.5 0 0 0-.338.137L1.998 7.084v-.643l.309-.291a.5.5 0 1 0-.687-.727l-.464.438a.5.5 0 0 0-.157.363L.996 8.246a.5.5 0 0 0 .844.363l2.486-2.353c.327-.003.667-.004.977-.002l-4.153 3.88a.5.5 0 0 0 .341.865H3.86a.5.5 0 0 0 .361-.154l1.778-1.857v.817l-.376.307a.499.499 0 0 0 .377.884V15.5a.5.5 0 0 0 1 0v-5.364a.5.5 0 0 0 .01-.103L7 5.916a.5.5 0 0 0 0-.209ZM6 7.542 3.647 10h-.888l3.24-3.027v.57ZM14.5 0a.5.5 0 0 0-.5.5V3H9.5a.5.5 0 0 0 0 1H14v8h-4V5.5a.5.5 0 0 0-1 0v7a.5.5 0 0 0 .5.5H14v2.5a.5.5 0 0 0 1 0V.5a.5.5 0 0 0-.5-.5Z"/></svg>