<!-- SPDX-FileCopyrightText: © 2025 Schneider Electric SPDX-License-Identifier: LicenseRef-Proprietary -->
<svg xmlns="http://www.w3.org/2000/svg" viewBox="0 0 20 20"><path fill="none" stroke="currentColor" stroke-linecap="round" stroke-linejoin="round" stroke-miterlimit="10" d="M2.5 13.5h-.722A1.28 1.28 0 0 1 .5 12.222V7.778c0-.706.572-1.278 1.277-1.278H6.5V1.779C6.5 1.073 7.072.5 7.779.5h4.443c.706 0 1.278.572 1.278 1.278V2.5M6.187 16.383l.433.703c.604.121 1.695-.577 2.341-1.439s1.082-2.053.796-2.601l-1.104-.577c-.305-.777-.287-2.36.671-3.318.957-.958 2.551-.986 3.328-.683l.578 1.106c.547.285 1.738-.15 2.601-.797s1.559-1.737 1.437-2.342L14.333 4.3c.096.054-3.66.073-6.568 3.291-2.365 2.614-3.805 5.286-3.119 6.502-2.373 2.683-1.25 5.407 1.696 5.407h5.879a1.28 1.28 0 0 0 1.279-1.279V13.5h4.721a1.28 1.28 0 0 0 1.279-1.279V7.526c-.001-.357.072-1.662-.881-1.662"/></svg>