<!-- SPDX-FileCopyrightText: © 2025 Schneider Electric SPDX-License-Identifier: LicenseRef-Proprietary -->
<svg xmlns="http://www.w3.org/2000/svg" viewBox="0 0 16 16"><path d="M4.5 3a.5.5 0 0 0 .5-.5v-.991A.51.51 0 0 1 5.509 1h4.981a.51.51 0 0 1 .51.51v1.113a.5.5 0 0 0 1 0V1.51C12 .677 11.322 0 10.49 0H5.509A1.51 1.51 0 0 0 4 1.509V2.5a.5.5 0 0 0 .5.5Zm9.991 1H12.5a.5.5 0 0 0 0 1h1.991a.51.51 0 0 1 .509.509v4.982a.51.51 0 0 1-.509.509h-1.609c-.265-.768-.857-1.651-1.408-2.054a.5.5 0 0 0-.377-.089.5.5 0 0 0-.328.206c-.503.718-1.505 1.78-2.056 1.78-.717 0-.979-.262-1.31-.592l-.023-.023a.487.487 0 0 0-.696.012.515.515 0 0 0 .012.719c.374.373.885.885 2.017.885.967 0 1.984-1.071 2.524-1.742.352.42.687 1.029.763 1.398a.5.5 0 0 0 .5.5h1.991A1.51 1.51 0 0 0 16 10.491V5.509A1.51 1.51 0 0 0 14.491 4Z"/><path d="M11.5 13a.5.5 0 0 0-.5.5v.991a.51.51 0 0 1-.509.509H5.509a.516.516 0 0 1-.51-.529l-.118-2.942c.272-1.762.84-2.514 1.895-2.514a.5.5 0 0 0 .158-.975c-.806-.268-1.198-.847-1.198-1.771 0-1.347 1.048-2.442 2.336-2.442s2.301 1.057 2.301 2.407c0 .349-.032.614-.452.765a1 1 0 0 0-.922-.613c-.551 0-1 .449-1 1s.449 1 1 1a1 1 0 0 0 .72-.308c.829-.132 1.654-.546 1.654-1.844 0-1.91-1.45-3.407-3.301-3.407-1.84 0-3.336 1.544-3.336 3.442 0 .854.268 1.554.771 2.056-1.045.587-1.403 1.872-1.552 2.674l-2.447-.007a.51.51 0 0 1-.508-.51V5.508a.51.51 0 0 1 .509-.509H3.5a.5.5 0 0 0 0-1H1.509A1.51 1.51 0 0 0 0 5.509v4.974c0 .829.675 1.506 1.505 1.509l2.395.007.101 2.492A1.51 1.51 0 0 0 5.51 16h4.982a1.51 1.51 0 0 0 1.509-1.509V13.5a.5.5 0 0 0-.5-.5Z"/></svg>