<!-- SPDX-FileCopyrightText: © 2025 Schneider Electric SPDX-License-Identifier: LicenseRef-Proprietary -->
<svg xmlns="http://www.w3.org/2000/svg" viewBox="0 0 16 16"><path d="M9.714 15H3.908c.071-1.389.25-3.911.536-4.69.335-.923 1.471-1.319 1.583-1.338a.5.5 0 0 0 .5-.5V7.53c0-.276-.195-.498-.471-.498-.141-.021-1.277-.417-1.612-1.34a.5.5 0 1 0-.94.342c.375 1.031 1.372 1.639 2.023 1.878v.179c-.651.239-1.649.847-2.023 1.877-.438 1.199-.602 5.075-.619 5.514a.5.5 0 0 0 .499.519h6.33a.5.5 0 0 0 0-1Z"/><path d="M12.497 9.968c-.374-1.031-1.372-1.639-2.023-1.878v-.179c.651-.239 1.649-.848 2.023-1.879.146-.401.274-1.122.382-2.144a.5.5 0 0 0-.168-.429.5.5 0 0 0-.447-.109c-2.138.519-3.557 1.058-4.241 1.611-.647-.522-1.951-1.033-3.898-1.526A61 61 0 0 1 3.953 1h8.097c-.012.225-.027.51-.047.83a.5.5 0 0 0 .468.53c.304.006.513-.193.53-.468.049-.792.071-1.374.071-1.374a.5.5 0 0 0-.5-.518H3.428a.5.5 0 0 0-.499.52c0 .018.073 1.81.236 3.367.021.21.173.384.379.434 1.909.463 3.767 1.168 3.957 1.418 0 .175.09.329.226.418.279.26.799.067.799-.327.184-.298 1.633-.876 3.273-1.326-.099.718-.189 1.046-.24 1.188-.336.923-1.472 1.32-1.584 1.338a.5.5 0 0 0-.5.5v.942c0 .276.195.498.472.498.141.021 1.277.417 1.612 1.341.284.778.465 3.301.535 4.689l-3.77-5.182a.5.5 0 0 0-.403-.209h-.003a.5.5 0 0 0-.403.204l-2.828 3.849a.5.5 0 1 0 .806.592l2.421-3.293 3.457 4.83a.5.5 0 0 0 .406.209h.841a.5.5 0 0 0 .5-.519c-.018-.438-.181-4.314-.619-5.513Z"/></svg>