<!-- SPDX-FileCopyrightText: © 2025 Schneider Electric SPDX-License-Identifier: LicenseRef-Proprietary -->
<svg xmlns="http://www.w3.org/2000/svg" viewBox="0 0 16 16"><path d="M15.792 5.477 8.292.094a.5.5 0 0 0-.589.004L.204 5.624a.5.5 0 1 0 .593.805l7.207-5.311L15 6.139v8.86H4.515A.515.515 0 0 1 4 14.486l-.018-4.971a.513.513 0 0 1 .514-.516h0l6.987.008c.284 0 .515.231.515.515V13.5a.5.5 0 0 0 1 0V9.522c0-.834-.679-1.514-1.513-1.515h-.487V6.499a.5.5 0 0 0-.021-.143C10.84 4.67 9.553 3.367 7.998 3.367S5.159 4.668 5.02 6.351a.5.5 0 0 0-.022.148V8h-.503c-.405 0-.785.158-1.071.444s-.444.67-.443 1.076l.018 4.971A1.52 1.52 0 0 0 4.514 16h10.985a.5.5 0 0 0 .5-.5V5.883a.5.5 0 0 0-.208-.406ZM6 6.617a.5.5 0 0 0 .013-.093C6.072 5.315 6.945 4.368 8 4.368s1.929.947 1.987 2.156q.001.046.013.09v1.392l-4-.004z"/><path d="M9.867 10.172a.5.5 0 0 0-.707-.006l-1.175 1.155-1.175-1.155a.5.5 0 0 0-.701.713l1.163 1.144-1.163 1.144a.5.5 0 0 0 .701.713l1.175-1.155L9.16 13.88a.5.5 0 1 0 .701-.712l-1.163-1.144 1.163-1.144a.5.5 0 0 0 .006-.707Z"/></svg>