<!-- SPDX-FileCopyrightText: © 2025 Schneider Electric SPDX-License-Identifier: LicenseRef-Proprietary -->
<svg xmlns="http://www.w3.org/2000/svg" viewBox="0 0 15.997 16"><path fill="currentColor" d="M5.541 8.052a.5.5 0 0 0 .433-.75l-.72-1.247a.5.5 0 1 0-.866.5l.72 1.247c.093.16.261.25.434.25Z"/><path fill="currentColor" d="M15.789 5.477 8.29.094a.5.5 0 0 0-.588.004L.204 5.623a.5.5 0 1 0 .593.805l7.205-5.31 6.995 5.021V15h-4.522a2.515 2.515 0 0 0-2.41-2.008l-.737-3.364a.5.5 0 0 0-.976.214l.727 3.32A2.5 2.5 0 0 0 5.522 15H.528a.5.5 0 0 0 0 1h5.448a.5.5 0 0 0 .5-.5v-.027c0-.816.683-1.481 1.522-1.481s1.522.665 1.522 1.481v.027a.5.5 0 0 0 .5.5h5.476a.5.5 0 0 0 .5-.5v-.002h0V5.883a.5.5 0 0 0-.208-.406Z"/><path fill="currentColor" d="M3.461 9.815a.504.504 0 0 0 .684-.183.5.5 0 0 0-.183-.683l-1.247-.72a.5.5 0 0 0-.5.866zm9.158 0 1.247-.72a.5.5 0 0 0-.5-.866l-1.247.72a.5.5 0 0 0 .5.866Zm-2.08-1.763a.5.5 0 0 0 .434-.25l.72-1.247a.5.5 0 0 0-.183-.683.5.5 0 0 0-.683.183l-.72 1.247a.5.5 0 0 0 .433.75ZM8.54 6.882V5.443a.5.5 0 0 0-1 0v1.439a.5.5 0 0 0 1 0Z"/></svg>