<!-- SPDX-FileCopyrightText: © 2025 Schneider Electric SPDX-License-Identifier: LicenseRef-Proprietary -->
<svg xmlns="http://www.w3.org/2000/svg" viewBox="0 0 16 16"><path d="M15.995 5.649a.5.5 0 0 0-.217-.412L8.271.088a.5.5 0 0 0-.566 0L.216 5.245a.5.5 0 0 0-.128.695.5.5 0 0 0 .695.128l7.206-4.961 7.005 4.806.005 9.087h-1.64c.326-1.025.819-3.019.441-4.826-.35-1.672-1.686-2.904-3.665-3.38-1.858-.446-3.088.744-3.673 1.447a1.5 1.5 0 0 1-.183-.389 1.7 1.7 0 0 0-.145-.343c-.311-.555-.896-.888-1.648-.936-.683-.041-1.47.162-2.212.577C.743 8.008-.465 9.699.177 10.849c.424.756 1.521 1.02 2.917.672a.94.94 0 0 1 .882.129l1.219.905c.254.19.396.493.378.863.069 1.383.637 2.359 1.484 2.548 1.284.279 2.556-1.36 2.936-3.075.393-1.777-.232-3.323-1.458-3.596a1.7 1.7 0 0 0-.366-.04.5.5 0 0 0-.497.503.51.51 0 0 0 .503.497.5.5 0 0 1 .145.016c.576.128.994 1.062.697 2.402-.307 1.388-1.207 2.435-1.743 2.315-.312-.069-.654-.648-.703-1.568a1.94 1.94 0 0 0-.779-1.668l-1.219-.906c-.525-.391-1.205-.49-1.77-.282-.944.232-1.596.073-1.753-.206-.264-.472.475-1.645 1.713-2.339.575-.323 1.161-.486 1.659-.451.233.015.651.09.838.424a.7.7 0 0 1 .059.138c.13.438.399.86.788 1.229a.6.6 0 0 0 .341.142.6.6 0 0 0 .419-.17q.05-.056.148-.183c.369-.48 1.346-1.758 2.887-1.386.933.224 2.553.862 2.919 2.612.462 2.213-.621 4.904-.632 4.932a.5.5 0 0 0 .463.69H15.5a.5.5 0 0 0 .5-.5l-.005-9.851Z"/><path d="M3.321 9.659a.503.503 0 0 0 .7-.103l.056-.076.076.057a.5.5 0 1 0 .597-.803l-.077-.057.057-.077a.5.5 0 1 0-.803-.597l-.057.076-.075-.056a.5.5 0 1 0-.597.803l.076.056-.057.076a.5.5 0 0 0 .103.7Zm3.328 1.293a.5.5 0 0 0 .103.7l.954.71a.5.5 0 0 0 .597-.802l-.954-.71a.503.503 0 0 0-.7.103Z"/></svg>