<!-- SPDX-FileCopyrightText: © 2025 Schneider Electric SPDX-License-Identifier: LicenseRef-Proprietary -->
<svg xmlns="http://www.w3.org/2000/svg" viewBox="0 0 16 16"><path d="M5 6.5a.5.5 0 0 0-1 0v2.726a.5.5 0 0 0 1 0zM3.34 9.944c-.254-.221-.343-.313-.34-.505V6.5a.5.5 0 0 0-1 0v2.932c-.011.666.408 1.028.686 1.269.275.238.338.312.314.552v3.748H.5a.5.5 0 0 0 0 1h3a.5.5 0 0 0 .5-.5l-.003-4.193c.08-.726-.364-1.108-.657-1.362Z"/><path d="M15.792 5.477 8.292.094a.5.5 0 0 0-.559-.017l-7.5 4.741a.501.501 0 0 0 .534.846l7.215-4.561L15 6.14V15h-2V7.07c0-.843-1.305-2.049-2.184-2.45-.801-.366-1.28-.169-1.549.064-.323.289-.866 5.707-.866 5.757 0 1.054.698 1.299 1.115 1.445.381.135.483.171.483.584v2.529h-4v-3.748c0-.226.104-.331.341-.548.277-.255.658-.604.658-1.265V6.499a.5.5 0 0 0-1 0v2.939c0 .204-.082.296-.333.527-.281.257-.666.609-.666 1.285v4.248a.5.5 0 0 0 .5.5h5a.5.5 0 0 0 .5-.5v-3.029c0-1.122-.721-1.375-1.152-1.527-.369-.13-.446-.156-.446-.502 0-.736.488-4.044.645-5.02.062.006.151.025.266.07.79.311 1.656 1.282 1.688 1.578v8.43a.5.5 0 0 0 .5.5h3a.5.5 0 0 0 .5-.5V5.883a.5.5 0 0 0-.208-.406Z"/></svg>