<!-- SPDX-FileCopyrightText: © 2025 Schneider Electric SPDX-License-Identifier: LicenseRef-Proprietary -->
<svg xmlns="http://www.w3.org/2000/svg" viewBox="0 0 16 16"><path d="M15.792 5.477 8.292.094a.5.5 0 0 0-.588.004l-7.5 5.526a.5.5 0 1 0 .593.805l7.207-5.311L15 6.139v8.86h-2.5l-.045.002-.874.038c-.055-.07-.089-.353-.069-.57a.5.5 0 0 0-.517-.545c-.027 0-2.746.103-3.806.103s-3.394-.101-3.417-.103c-.23.005-.481.178-.517.433-.037.269-.165.596-.229.643H1.877c-.055-.127-.127-.404-.127-.81l-.005-.364c-.014-.705-.057-2.849.433-3.377.389-.421.634-.582.832-.712.158-.104.308-.203.442-.377.085-.11.148-.266.254-.523C3.95 8.241 4.458 7 5.15 7h4.469c.691 0 1.2 1.242 1.445 1.838.105.258.17.415.256.526.133.173.282.271.439.375.198.13.444.292.834.714.478.516.453 1.48.435 2.185l-.007.356a.5.5 0 0 0 1 0l.006-.33c.021-.827.055-2.075-.699-2.891a5 5 0 0 0-1.019-.87 1.4 1.4 0 0 1-.184-.131c-.035-.06-.078-.172-.137-.314-.327-.798-1.008-2.459-2.37-2.459H5.149c-1.363 0-2.042 1.661-2.369 2.458-.058.141-.101.253-.121.292-.03.04-.086.077-.199.151-.217.143-.545.358-1.017.868-.704.762-.729 2.504-.698 4.076l.005.345c0 1.1.385 1.81.98 1.81h1.296c.593 0 .952-.504 1.123-1.059.73.03 2.228.086 3.042.086.806 0 2.491-.055 3.338-.085.034.262.119.558.312.77a.87.87 0 0 0 .655.288h4.005a.5.5 0 0 0 .5-.5V5.883a.5.5 0 0 0-.208-.406Z"/><path d="m10.901 11.547-1.61.083a.5.5 0 0 0 .026.999h.025l1.61-.083c.276-.014.488-.249.474-.524s-.214-.502-.524-.474Zm-6.868 0c-.284-.034-.511.196-.525.474a.5.5 0 0 0 .474.524l1.611.083h.026a.5.5 0 0 0 .025-.999z"/></svg>