<!-- SPDX-FileCopyrightText: © 2025 Schneider Electric SPDX-License-Identifier: LicenseRef-Proprietary -->
<svg xmlns="http://www.w3.org/2000/svg" viewBox="0 0 16 16"><path d="M15.5 15H2.985V2.747a.5.5 0 0 0-.125-.331L.875.169a.5.5 0 1 0-.749.662l1.859 2.105V15.5a.5.5 0 0 0 .5.5H15.5a.5.5 0 0 0 0-1Z"/><path d="M5.384 9.046a.5.5 0 0 0 0 1H8V11.5a.5.5 0 0 0 .5.5h2.338c.228-.007 1.301-.082 1.935-.861.474-.583.682-1.548.767-2.125h1.96a.5.5 0 0 0 0-1h-2.404a.5.5 0 0 0-.499.462c-.03.398-.198 1.539-.599 2.032-.378.464-1.156.492-1.194.493H9V5.987l1.471.014h.171c.474-.006.792-.011 1.17.338.229.209.374.417.445.631a.5.5 0 0 0 .949-.315c-.126-.381-.36-.725-.717-1.053-.671-.618-1.33-.613-1.859-.604h-.155l-1.971-.017c-.171.019-.262.051-.357.145a.5.5 0 0 0-.148.355v1.44H5.383a.5.5 0 0 0 0 1h2.616v1.124H5.383Z"/></svg>