<!-- SPDX-FileCopyrightText: © 2025 Schneider Electric SPDX-License-Identifier: LicenseRef-Proprietary -->
<svg xmlns="http://www.w3.org/2000/svg" viewBox="0 0 16 16"><path d="M16 7.978V5.744a.5.5 0 0 0-.214-.41L8.287.09a.5.5 0 0 0-.573 0l-7.5 5.234a.5.5 0 0 0-.214.41V15.5a.5.5 0 0 0 .5.5h15a.5.5 0 0 0 0-1H1V5.995L8 1.11l7 4.895v1.973A1.03 1.03 0 0 1 13.962 9l-7.954.016 1.565-1.632a.5.5 0 1 0-.722-.692L4.496 9.149a.5.5 0 0 0 .007.7l2.355 2.354a.5.5 0 0 0 .707-.707l-1.48-1.479 7.877-.016a2.03 2.03 0 0 0 2.037-2.022Z"/></svg>