<!-- SPDX-FileCopyrightText: © 2025 Schneider Electric SPDX-License-Identifier: LicenseRef-Proprietary -->
<svg xmlns="http://www.w3.org/2000/svg" viewBox="0 0 16 16"><path d="M15.792 5.477 8.292.094a.5.5 0 0 0-.589.004L.204 5.624a.5.5 0 1 0 .593.805l7.207-5.311L15 6.139v8.86H4.514A.514.514 0 0 1 4 14.486l-.018-4.971a.513.513 0 0 1 .515-.516h0l6.988.008c.283 0 .514.23.514.515V13.5a.5.5 0 0 0 1 0V9.522c0-.835-.679-1.515-1.513-1.515h-.487V6.499a.5.5 0 0 0-.022-.144C10.836 4.67 9.514 3.367 7.92 3.367c-.964 0-1.852.469-2.437 1.286a.5.5 0 0 0 .812.582c.396-.551.987-.868 1.624-.868 1.098 0 2.006.948 2.066 2.157q.001.047.013.089v1.392l-5.5-.006h-.003c-.405 0-.786.158-1.072.444-.287.288-.444.67-.443 1.076l.018 4.971a1.517 1.517 0 0 0 1.514 1.509h10.986a.5.5 0 0 0 .5-.5V5.883a.5.5 0 0 0-.208-.406Z"/><path d="M6 12c0 1.103.897 2 2 2s2-.897 2-2-.897-2-2-2-2 .897-2 2Zm3 0a1 1 0 1 1-2 0 1 1 0 0 1 2 0Z"/></svg>