<!-- SPDX-FileCopyrightText: © 2025 Schneider Electric SPDX-License-Identifier: LicenseRef-Proprietary -->
<svg xmlns="http://www.w3.org/2000/svg" viewBox="0 0 16 16"><path d="M15.792 5.477 8.292.094a.5.5 0 0 0-.588.004l-7.5 5.526a.5.5 0 1 0 .593.805l7.207-5.311L15 6.139v8.86l-2.992.002-.003-.951 1.964.01h.002a.5.5 0 0 0 .002-1l-1.524-.007c.213-.244.513-.52.926-.777.656-.41.444-1.34.347-1.664l-.034-1.087c.016-.145.073-.893-.241-1.389-.272-.429-.62-.583-.864-.638-.577-.129-1.082.179-1.206.268-.216.198-.45.531-.568.809a4 4 0 0 0-.321 1.655l-.024.501-1.742.712c-.765.31-.911 1.089-.878 1.45l-.037 2.102-1.79.002.248-3.324a.503.503 0 0 0-.498-.537H2.829a.5.5 0 0 0-.5.526l.178 3.336H.5a.501.501 0 0 0 0 1.001h2.531a.503.503 0 0 0 .5-.527l-.178-3.336h1.873l-.248 3.324a.52.52 0 0 0 .153.377c.095.103.248.16.387.16h0l2.779-.002a.5.5 0 0 0 .5-.491l.044-2.638c-.002-.039-.014-.387.256-.496l2.039-.834a.5.5 0 0 0 .311-.439l.039-.854a3 3 0 0 1 .241-1.275c.069-.162.227-.375.256-.412.031-.021.221-.115.383-.082.032.007.129.029.236.198.093.146.112.531.088.815l.033 1.224q.003.077.026.147c.074.219.105.516.096.568-1.394.871-1.796 1.968-1.812 2.015a.5.5 0 0 0-.028.169l.006 1.893a.5.5 0 0 0 .5.498l3.99-.002h.023s0 0 0 0h.026s0 0 0 0h.007s0 0 0 0h.004a.5.5 0 0 0 .438-.489v-.002h0v-.002h0v-.002h0V5.883a.5.5 0 0 0-.208-.406Z"/><path d="M3.037 6.069a.5.5 0 0 0-.646.287c-.382.993-.177 1.579-.012 2.048.136.388.234.668.012 1.246a.5.5 0 0 0 .934.359c.354-.92.157-1.483-.002-1.936-.144-.411-.249-.708.002-1.358a.5.5 0 0 0-.287-.646Zm1.515 0a.5.5 0 0 0-.646.288c-.382.993-.177 1.578-.012 2.048.136.388.234.668.012 1.246a.5.5 0 1 0 .934.359c.354-.92.157-1.483-.002-1.936-.144-.412-.248-.708.002-1.359a.5.5 0 0 0-.288-.646Zm1.515 0a.5.5 0 0 0-.646.287c-.382.994-.177 1.579-.012 2.049.136.388.234.668.013 1.246a.5.5 0 1 0 .934.358c.354-.92.156-1.483-.002-1.935-.144-.411-.249-.708.002-1.358a.5.5 0 0 0-.287-.646ZM11.13 7.17c.241 0 .589-.055.896-.312.298-.249.462-.62.462-1.045 0-.74-.603-1.343-1.343-1.343s-1.343.603-1.343 1.343c0 .68.436 1.229 1.03 1.328.027.006.14.03.297.03Zm.016-1.7c.189 0 .343.154.343.343 0 .087-.018.207-.103.277h0c-.13.111-.334.075-.357.07-.166-.028-.225-.205-.225-.347 0-.189.154-.343.343-.343Z"/></svg>