<!-- SPDX-FileCopyrightText: © 2025 Schneider Electric SPDX-License-Identifier: LicenseRef-Proprietary -->
<svg xmlns="http://www.w3.org/2000/svg" viewBox="0 0 16 16"><path d="M7.792 6H11.5a.5.5 0 0 0 0-1H7.792c-.377 0-.684-.309-.684-.688s.307-.688.723-.69l.115.004c.23.03.441-.103.524-.313a1.49 1.49 0 0 1 1.394-.948h.002c.15 0 .311.034.412.066a.5.5 0 0 0 .6-.253 1.49 1.49 0 0 1 1.341-.831c.826 0 1.498.671 1.499 1.523l.015.28a.5.5 0 0 0 .499.474.687.687 0 0 1 0 1.376H13.5a.5.5 0 0 0 0 1h.732a1.687 1.687 0 0 0 .481-3.306 2.5 2.5 0 0 0-4.523-1.305c-.111-.016-.223-.034-.326-.024-.913 0-1.732.485-2.171 1.261A1.689 1.689 0 0 0 7.793 6Z"/><path d="M15.5 15H4V2.725a.5.5 0 0 0-.202-.401l-3-2.225a.499.499 0 1 0-.596.802L3 2.976v12.523a.5.5 0 0 0 .5.5h12a.5.5 0 0 0 0-1Z"/></svg>