<!-- SPDX-FileCopyrightText: © 2025 Schneider Electric SPDX-License-Identifier: LicenseRef-Proprietary -->
<svg xmlns="http://www.w3.org/2000/svg" viewBox="0 0 16 16"><path d="M15.792 5.477 8.292.094a.5.5 0 0 0-.588.004l-7.5 5.526a.5.5 0 1 0 .593.805l7.207-5.311L15 6.139v8.86H1v-2h1.5a.5.5 0 0 0 .5-.5v-1.5h1.5a.5.5 0 0 0 .5-.5v-1.5h1.5a.5.5 0 0 0 .5-.5v-1.5h1.5a.5.5 0 0 0 0-1h-2a.5.5 0 0 0-.5.5v1.5H4.5a.5.5 0 0 0-.5.5v1.5H2.5a.5.5 0 0 0-.5.5v1.5H.5a.5.5 0 0 0-.5.5v3a.5.5 0 0 0 .5.5h15a.5.5 0 0 0 .5-.5V5.883a.5.5 0 0 0-.208-.406Z"/></svg>