<!-- SPDX-FileCopyrightText: © 2025 Schneider Electric SPDX-License-Identifier: LicenseRef-Proprietary -->
<svg xmlns="http://www.w3.org/2000/svg" viewBox="0 0 16 16"><path d="M6.208 5.805a.5.5 0 0 0-.646.287c-.5 1.3-.247 2.187-.023 2.968.196.687.365 1.279.023 2.165a.5.5 0 1 0 .934.359c.461-1.198.218-2.049.004-2.799-.206-.723-.384-1.347-.004-2.334a.5.5 0 0 0-.288-.646Z"/><path d="M15.776 5.062 8.276.083a.5.5 0 0 0-.553 0L.224 5.062a.5.5 0 0 0 .553.834L8 1.1l7 4.647V15H1v-1h12.5a.5.5 0 0 0 0-1H.5a.5.5 0 0 0-.5.5v2a.5.5 0 0 0 .5.5h15a.5.5 0 0 0 .5-.5V5.479a.5.5 0 0 0-.224-.417Z"/><path d="M8.192 5.805a.5.5 0 0 0-.646.287c-.5 1.3-.247 2.187-.023 2.969.195.686.364 1.278.023 2.164a.5.5 0 1 0 .934.359c.461-1.198.219-2.048.004-2.798-.206-.723-.384-1.348-.004-2.335a.5.5 0 0 0-.287-.646Zm2.016 0a.5.5 0 0 0-.646.287c-.5 1.301-.247 2.187-.023 2.969.196.686.365 1.278.024 2.164a.5.5 0 1 0 .934.359c.46-1.198.218-2.048.004-2.798-.207-.723-.385-1.347-.005-2.335a.5.5 0 0 0-.287-.646Z"/></svg>