<!-- SPDX-FileCopyrightText: © 2025 Schneider Electric SPDX-License-Identifier: LicenseRef-Proprietary -->
<svg xmlns="http://www.w3.org/2000/svg" viewBox="0 0 15.996 15.996"><path d="M15.779 5.223 8.279.087a.5.5 0 0 0-.561-.001L1.563 4.261a.497.497 0 1 0 .558.824L7.996 1.1l7.003 4.796V15H6.996v-1.004h3.502a.498.498 0 0 0 0-.996H7.996v-1.004h4.502a.498.498 0 0 0 0-.996H9.996V9.996h3.502a.498.498 0 0 0 0-.996H9.996v-.502A.5.5 0 0 0 9.498 8H.996V6.485a.498.498 0 0 0-.996 0v2.013c0 .275.223.498.498.498H9V11H7.498a.5.5 0 0 0-.498.498V13h-.502a.5.5 0 0 0-.498.498V15H.498a.497.497 0 1 0 0 .996h15a.5.5 0 0 0 .498-.498V5.634a.5.5 0 0 0-.217-.411Z"/></svg>