<!-- SPDX-FileCopyrightText: © 2025 Schneider Electric SPDX-License-Identifier: LicenseRef-Proprietary -->
<svg xmlns="http://www.w3.org/2000/svg" viewBox="0 0 16 16"><path d="M13.5 11a.5.5 0 0 0 .5-.5V5.184C13.977 2.322 11.235 0 7.869 0c-.46 0-.918.043-1.361.128a.5.5 0 0 0 .188.982c1.51-.291 3.146.032 4.305.769v1.483c-.781-.897-1.988-1.451-3.321-1.397a4.3 4.3 0 0 0-1.327.267.5.5 0 1 0 .351.937 3.3 3.3 0 0 1 1.018-.204c1.705-.067 3.107 1.122 3.181 2.654a2.62 2.62 0 0 1-.704 1.902c-.547.599-1.35.962-2.202.998a3.2 3.2 0 0 1-1.289-.203.5.5 0 0 0-.35.936c.535.199 1.102.28 1.68.266 1.117-.047 2.173-.528 2.898-1.322l.065-.073v.318l-.003.059c0 1.178-1.316 2.101-2.997 2.101-1.665 0-2.973-.902-3.001-2.061l.001-.039V1.264a.5.5 0 0 0-.059-.235.5.5 0 0 0-.661-.238C3.066 1.353 2 3.422 2 5.217v9.485C2 15.418 2.603 16 3.344 16h9.312c.741 0 1.344-.582 1.344-1.298V12.5a.5.5 0 0 0-1 0v2.202c0 .164-.154.298-.344.298H3.344c-.19 0-.344-.134-.344-.298V5.201c.004-1.059.462-2.182 1-2.88v6.136l-.002.044c0 1.738 1.758 3.099 4.001 3.099s3.954-1.3 3.996-3.034l.004-.065v-5.78c.627.7.999 1.565.999 2.5v5.28a.5.5 0 0 0 .5.5Z"/><path d="M7.312 6.105a.5.5 0 0 0-.713.701c.339.345.805.52 1.272.52.412 0 .824-.136 1.151-.411a1.58 1.58 0 0 0 .117-2.348c-.638-.648-1.725-.697-2.424-.107a.5.5 0 0 0 .645.765.81.81 0 0 1 1.067.044.6.6 0 0 1 .178.445.6.6 0 0 1-.225.437.81.81 0 0 1-1.067-.044Z"/></svg>