<!-- SPDX-FileCopyrightText: © 2025 Schneider Electric SPDX-License-Identifier: LicenseRef-Proprietary -->
<svg xmlns="http://www.w3.org/2000/svg" viewBox="0 0 16 16"><path fill="currentColor" d="M14.137 5.007a2.37 2.37 0 0 0-2.378.87 2.364 2.364 0 0 0-3.7-.01 2.2 2.2 0 0 0-.814-.652c-.725-.334-1.516-.29-2.168.127a2.3 2.3 0 0 0-.561.502 2.45 2.45 0 0 0-.931-.775c-.914-.435-1.992-.261-2.881.464C.25 5.901 0 6.505 0 7.233v3.435a.5.5 0 0 0 1 0V7.344c0-.022.003-.089 0-.11 0-.244.043-.689.334-.926.591-.483 1.256-.605 1.82-.336.505.24.832.755.832 1.343a.5.5 0 0 0 .499.5c.298.004.5-.222.501-.498.002-.454.242-.887.626-1.132.366-.232.796-.255 1.212-.062.434.2.714.657.714 1.209a.5.5 0 0 0 .499.5h0a.5.5 0 0 0 .5-.498 1.366 1.366 0 1 1 2.732.046c.021.261.212.479.505.46a.5.5 0 0 0 .494-.5v-.069c.013-.398.199-.769.514-1.02a1.38 1.38 0 0 1 1.15-.266c.618.129 1.067.719 1.067 1.403v3.28a.5.5 0 0 0 1 0v-3.28c0-1.155-.784-2.157-1.863-2.381Z"/></svg>