<!-- SPDX-FileCopyrightText: © 2025 Schneider Electric SPDX-License-Identifier: LicenseRef-Proprietary -->
<svg xmlns="http://www.w3.org/2000/svg" viewBox="0 0 16 16"><path d="M10.542 16H10.5a.5.5 0 0 1-.192-.962c.219-.211.324-.421.319-.64-.007-.349-.287-.699-.491-.899-4.766.587-5.395-2.73-5.728-4.522l-.028-.153c-.168-.895-.901-1.409-.909-1.415a.503.503 0 0 1 .232-.911c.3-.03.697-.104 1.153-.189 2.279-.422 6.096-1.131 7.205 1.712.902 2.312-.356 3.632-1.147 4.006a.5.5 0 0 1-.413.007.5.5 0 0 1-.277-.308c-.885-2.777-3.291-2.887-3.393-2.89a.5.5 0 0 1 .014-1h.011c.03 0 2.805.099 4.074 2.938.349-.388.693-1.127.2-2.39-.745-1.911-3.418-1.589-6.091-1.092l-.25.046c.242.33.474.766.574 1.3l.029.154c.354 1.9.8 4.263 4.834 3.685a.52.52 0 0 1 .375.098c.103.078 1.001.794 1.028 1.794a1.7 1.7 0 0 1-.108.63h3.505l-.022-13.387-4.216 3.367a.5.5 0 0 1-.812-.394l.02-2.969-4.182 3.325a.502.502 0 0 1-.811-.417v-.029l.02-2.937L.999 4.471.951 15.502a.5.5 0 0 1-.5.498H.449a.5.5 0 0 1-.498-.502L0 4.212c0-.16.078-.31.207-.403L5.234.171a.5.5 0 0 1 .793.408l-.02 2.93L10.189.184A.498.498 0 0 1 11 .579l-.02 2.966 4.208-3.36a.502.502 0 0 1 .812.39l.025 14.924a.5.5 0 0 1-.5.5h-4.982Z"/></svg>