<!-- SPDX-FileCopyrightText: © 2025 Schneider Electric SPDX-License-Identifier: LicenseRef-Proprietary -->
<svg xmlns="http://www.w3.org/2000/svg" viewBox="0 0 16 16"><path d="M8 0C3.589 0 0 3.589 0 8s3.589 8 8 8 8-3.589 8-8-3.589-8-8-8Zm.923 12.064q0 .44-.221.689-.22.248-.648.248-.414 0-.634-.248-.22-.25-.221-.689V7.003q0-.456.221-.696.22-.242.634-.242c.414 0 .49.081.641.242q.228.242.228.696zm-.11-7.522q-.262.241-.758.241-.483 0-.751-.241-.269-.242-.269-.668 0-.441.269-.676c.269-.235.43-.234.751-.234q.496 0 .758.234c.262.234.263.382.263.676q0 .428-.263.668Z"/></svg>