<!-- SPDX-FileCopyrightText: © 2025 Schneider Electric SPDX-License-Identifier: LicenseRef-Proprietary -->
<svg xmlns="http://www.w3.org/2000/svg" viewBox="0 0 16 16"><path d="m15.997 4.901-.131-1.161a.504.504 0 0 0-.56-.44l-.703.089-.176-1.581a.5.5 0 1 0-.994.11l.18 1.607-.775.122-.177-1.587a.5.5 0 1 0-.994.11l.181 1.619-.491.062a.5.5 0 0 0-.429.589l.171.908a.499.499 0 1 0 .982-.184l-.072-.386 2.113-.32.807-.102.06.527-.861 2.035a.497.497 0 0 0 .297.667l.222.076.071.496-.524.163a.5.5 0 0 0-.335.605c.271 1.033.714 4.008-.49 5.342-.574.637-1.505.857-2.753.663-.097-.015-.261-.063-.469-.122-.567-.161-1.425-.403-2.242-.444a21 21 0 0 1-.517-.032c.817-3.587.589-5.966.403-7.896-.039-.408-.077-.8-.103-1.184-.078-1.154-.371-1.848-.896-2.119a1 1 0 0 0-.431-.113c-.163-.396-.432-1.014-.707-1.485l-.169-.298C5.125.593 4.815.038 4.292.001c-.155-.011-.433.021-.67.334C.769 4.104.115 8.855.115 9.442c0 .162-.029.312-.055.454-.062.346-.14.777.123 1.16.059.152.063.793.067 1.308.007.857.015 1.925.182 2.954a.5.5 0 0 0 .455.418c.318.025 1.941.136 2.626-.105a.5.5 0 0 0-.332-.944c-.297.104-1.138.109-1.818.077-.102-.836-.108-1.697-.114-2.408-.008-1.052-.02-1.529-.221-1.827-.048-.071-.032-.193.015-.456.035-.196.071-.405.071-.631 0-.506.63-4.83 3.152-8.298.114.167.25.411.344.579l.178.314c.388.666.789 1.72.792 1.73a.53.53 0 0 0 .753.255c.012.007.28.176.355 1.297.027.393.065.794.105 1.211.197 2.05.42 4.373-.506 8.094a.5.5 0 0 0 .004.257c.11.391.438.425 1.56.48.705.036 1.497.26 2.021.408.261.073.466.13.587.148q.522.082.99.081c1.129 0 2.021-.355 2.659-1.062 1.472-1.63 1.053-4.639.82-5.799l.491-.153a.5.5 0 0 0 .347-.549l-.176-1.22a.5.5 0 0 0-.332-.401h-.004l.704-1.664a.5.5 0 0 0 .037-.251Z"/><path d="M4.996 7.143a.5.5 0 0 0-.425.565c.36 2.557-.019 5.098-.216 5.513a.5.5 0 0 0 .904.428c.314-.665.668-3.479.302-6.081a.494.494 0 0 0-.565-.425Z"/></svg>