<!-- SPDX-FileCopyrightText: © 2025 Schneider Electric SPDX-License-Identifier: LicenseRef-Proprietary -->
<svg xmlns="http://www.w3.org/2000/svg" viewBox="0 0 16 16"><path d="M15.958 12.62a.5.5 0 0 0-.659-.256l-.131.058c-.254-.641-.674-1.081-1.167-1.17v-.513q.19-.017.358-.036a.5.5 0 0 0 .445-.445c.217-2.072-.384-4.175-1.568-5.489-.626-.695-1.388-1.137-2.235-1.304V1.968A1.98 1.98 0 0 0 9-.002c-.486 0-.955.179-1.321.504a.5.5 0 1 0 .664.748c.183-.162.416-.251.688-.251a.97.97 0 0 1 .969.969V3.44a.502.502 0 0 0 0 .9v.009a.93.93 0 0 1-.137.488c-.163-.196-.464-.274-.676-.133-.212.14-.299.381-.193.599h-.009a.985.985 0 0 1-.984-.985V2.782a.5.5 0 0 0-1 0v1.536c0 1.042.806 1.898 1.88 1.979a1.5 1.5 0 0 1-.352.498c-.225.208-.493.275-.899.377-.558.14-1.322.331-2.251 1.042a6 6 0 0 0-1.69 1.901 45 45 0 0 1-.681-.279l-.279-.12C3.398 8.25 4.036 7.811 4.29 7.637c.513-.354 1.037-.564 1.498-.75l.256-.104a.5.5 0 0 0-.382-.924l-.248.101c-.51.205-1.087.438-1.691.854-.344.237-1.259.866-2.106 2.959a.5.5 0 0 0 .205.616c.085.051.249.129.448.217l-.191 1.008c-.454.19-.857.678-1.136 1.355l-.241-.105a.5.5 0 1 0-.402.916l.358.157a7 7 0 0 0-.058.36.499.499 0 1 0 .991.129 5 5 0 0 1 .138-.678c.239-.844.638-1.218.771-1.222h.005c.029.002.125.039.257.188.23.261.441.714.549 1.294l-.275-.121a.5.5 0 1 0-.402.916l.747.327a5 5 0 0 1-.026.316.5.5 0 0 0 .995.112v-.004l.086.038a.5.5 0 1 0 .402-.916l-.464-.203c-.067-.98-.374-1.869-.861-2.421a1.8 1.8 0 0 0-.431-.362l.13-.688c.263.105.476.188.545.212a.5.5 0 0 0 .615-.252c.561-1.146 1.221-1.651 1.615-1.954.765-.585 1.36-.734 1.886-.866.475-.119.924-.231 1.337-.614.458-.425.693-.975.784-1.469a1.96 1.96 0 0 0 1.002-1.569q.843.224 1.497.95c.91 1.01 1.421 2.667 1.347 4.311l-.805.071-.61.053a6.8 6.8 0 0 0-.497-2.907.5.5 0 0 0-.922.388c.518 1.232.462 2.543.357 2.952a.502.502 0 0 0 .537.621c.32-.034.708-.067 1.102-.101v.586c-.9.439-1.235 1.61-1.37 2.568l-.651.287a.5.5 0 0 0 .403.915l.152-.067a.5.5 0 0 0 .999.017q.012-.25.031-.472l.717-.316a.5.5 0 0 0-.403-.915l-.133.059c.312-1.254.855-1.254 1.068-1.254.153 0 .616.587.616 1.656a.5.5 0 0 0 1 0q0-.247-.025-.481l.297-.131a.5.5 0 0 0 .256-.659Z"/></svg>