<!-- SPDX-FileCopyrightText: © 2025 Schneider Electric SPDX-License-Identifier: LicenseRef-Proprietary -->
<svg xmlns="http://www.w3.org/2000/svg" viewBox="0 0 16 16"><path d="M11.043 7.984c-.012-3.082-2.466-5.592-5.479-5.616H5.51C2.495 2.392.041 4.902.025 8.037l-.009.167a1 1 0 0 0-.008.119.868.868 0 0 0 .829.998c.461.009.862-.342.897-.882.004-.158.128-.287.275-.287.15 0 .263.127.263.295 0 .482.389.874.867.874s.868-.392.868-.874c0-.163.125-.295.277-.295a.5.5 0 0 0 0-1c-.499 0-.931.291-1.142.715a1.25 1.25 0 0 0-1.134-.715c-.385 0-.729.17-.962.447.202-2.36 2.141-4.222 4.489-4.229 2.348.008 4.285 1.867 4.489 4.225a1.26 1.26 0 0 0-.962-.442c-.503 0-.93.288-1.134.715a1.28 1.28 0 0 0-1.142-.715c-.705 0-1.278.581-1.278 1.297l.019 5.563c0 .545-.447.988-.997.988s-.997-.443-.997-.988a.5.5 0 0 0-1 0c0 1.097.896 1.988 1.997 1.988s1.997-.892 1.997-1.99l-.019-5.563c0-.163.125-.295.278-.295s.277.132.277.295c0 .482.389.874.868.874s.867-.392.867-.874c0-.334.526-.395.542.058a.864.864 0 0 0 .893.816c.469-.016.837-.4.833-.944a2 2 0 0 0-.009-.136l-.017-.256Zm1.643-6.95a.5.5 0 0 0-.767-.641l-1.145 1.372a.5.5 0 0 0 .767.64zM8.854 2.116a.5.5 0 0 0 .384-.18l.75-.899a.5.5 0 0 0-.767-.641l-.75.899a.5.5 0 0 0 .383.82Zm5.883-.396.75-.9a.5.5 0 0 0-.767-.641l-.75.9a.5.5 0 0 0 .767.64Zm1.083 1.035a.5.5 0 0 0-.704.063l-.75.9a.5.5 0 0 0 .767.64l.75-.9a.5.5 0 0 0-.063-.704Zm-2.967-.348-1.405 1.684a.5.5 0 0 0 .767.64l1.405-1.684a.5.5 0 0 0-.767-.641Z"/></svg>