<!-- SPDX-FileCopyrightText: © 2025 Schneider Electric SPDX-License-Identifier: LicenseRef-Proprietary -->
<svg xmlns="http://www.w3.org/2000/svg" viewBox="0 0 16 16"><path d="M15.538 2.935a.501.501 0 0 0-.906.423c.244.523.368 1.084.368 1.668 0 2.239-1.711 3.927-3.979 3.927-.842 0-1.585-.139-2.208-.414a.5.5 0 0 0-.567.117L6.48 10.555a1.306 1.306 0 0 0-1.704 1.703l-.231.232a1.505 1.505 0 0 0-2.185 1.34c0 .237.057.471.164.68l-.493.489H1.002v-1.397l5.976-6.231a.5.5 0 0 0 .097-.547c-.227-.514-.341-1.111-.341-1.777C6.734 2.853 8.644 1 10.903 1c.948 0 1.845.312 2.57.889l-.524.521a1.314 1.314 0 0 0-1.819 1.211 1.314 1.314 0 0 0 1.554 1.29c.271-.049.42-.306.371-.578s-.35-.446-.612-.4a.313.313 0 0 1-.313-.312c0-.256.354-.402.536-.22a.5.5 0 0 0 .705 0l1.182-1.177a.5.5 0 0 0 .003-.706 5.1 5.1 0 0 0-3.652-1.519c-2.851 0-5.169 2.264-5.169 5.047 0 .676.101 1.301.301 1.864L.139 13.056a.5.5 0 0 0-.139.346v2.099a.5.5 0 0 0 .5.5h1.735a.5.5 0 0 0 .352-.145l.943-.936a.5.5 0 0 0-.011-.72.5.5 0 0 1-.161-.368c0-.418.585-.651.873-.343.093.1.222.157.358.159a.45.45 0 0 0 .363-.147l.814-.82a.5.5 0 0 0 0-.705.304.304 0 1 1 .436-.424.46.46 0 0 0 .364.151.5.5 0 0 0 .361-.159l1.817-1.955c.674.242 1.438.365 2.276.365 2.792 0 4.979-2.164 4.979-4.927 0-.731-.155-1.435-.462-2.091Z"/></svg>