<!-- SPDX-FileCopyrightText: © 2025 Schneider Electric SPDX-License-Identifier: LicenseRef-Proprietary -->
<svg xmlns="http://www.w3.org/2000/svg" viewBox="0 0 16 16"><path d="m15.547 2.313-7.62-.716a.5.5 0 0 0-.161.011L1.42 3.103a.5.5 0 0 0 .072.984l8.984.756-.45 1.72-.562-.073c-.68-.088-1.45-.188-1.725-.203a.52.52 0 0 0-.318.094c-.557.4-1.346 1.164-1.738 1.999-.47.997-.671 2.364-.747 2.879l-.021.133a.504.504 0 0 0 .429.579l2.865.371a.5.5 0 0 0 .416-.125.47.47 0 0 0 .147-.397c.002-.248.324-1.998.905-2.887a.5.5 0 0 0-.145-.691.5.5 0 0 0-.691.145c-.519.792-.865 2.108-1.002 2.899l-1.86-.24c.097-.594.281-1.545.607-2.239.295-.625.887-1.197 1.275-1.505.337.033.944.113 1.473.182.491.064.918.119 1.033.126a.49.49 0 0 0 .515-.372l.711-2.713a.5.5 0 0 0-.441-.625l-6.441-.542 3.203-.754 7.085.666v7.212l-3.979 2.903L2.2 12.17l-1.12-2.009a.64.64 0 0 1-.065-.452l.854-3.82 1.459.198-.69 3.352a.5.5 0 0 0 .389.59.497.497 0 0 0 .59-.389l.799-3.875a.503.503 0 0 0-.422-.597L1.55 4.836a.5.5 0 0 0-.556.386L.039 9.488c-.087.395-.027.805.169 1.156l1.241 2.227c.076.138.213.23.368.252l9.268 1.276a.5.5 0 0 0 .363-.091l4.347-3.172a.5.5 0 0 0 .205-.404v-7.92a.5.5 0 0 0-.453-.498Z"/></svg>