<!-- SPDX-FileCopyrightText: © 2025 Schneider Electric SPDX-License-Identifier: LicenseRef-Proprietary -->
<svg xmlns="http://www.w3.org/2000/svg" viewBox="0 0 16 16"><path d="m15.855 12.15-1.952-2a.5.5 0 0 0-.357-.15H3.849a.5.5 0 0 0-.449.279l-.985 2a.5.5 0 0 0 .448.72H12.5a.5.5 0 0 0 0-1H3.667l.493-1h9.175l1.599 1.636c-.227.667-.556 1.295-.682 1.364l-12.44.007c-.193-.081-.555-.778-.78-1.486l1.916-3.857A.5.5 0 0 0 3 8.441V2.154C3 2.069 3.069 2 3.154 2h9.691c.085 0 .154.069.154.154v6.415a.5.5 0 0 0 1 0V2.154c0-.636-.518-1.154-1.154-1.154H3.154C2.518 1 2 1.518 2 2.154v6.169L.037 12.277a.5.5 0 0 0 .013.453c.216.722.764 2.186 1.694 2.27l12.554-.002c1.125-.104 1.705-2.409 1.699-2.521a.5.5 0 0 0-.142-.327Z"/></svg>