<!-- SPDX-FileCopyrightText: © 2025 Schneider Electric SPDX-License-Identifier: LicenseRef-Proprietary -->
<svg xmlns="http://www.w3.org/2000/svg" viewBox="0 0 16 16"><path d="M7.558 3.5c.417 0 .757.336.757.75a.5.5 0 0 0 1 0c0-.965-.788-1.75-1.757-1.75s-1.757.785-1.757 1.75S6.589 6 7.558 6a.5.5 0 0 0 0-1c-.417 0-.757-.336-.757-.75s.34-.75.757-.75Z"/><path d="M7.201 10.348a.5.5 0 0 0 .707.007.5.5 0 0 0 .007-.707L5.103 6.776a3.34 3.34 0 0 1-.706-3.685C4.939 1.8 6.151.999 7.559.999s2.619.802 3.162 2.092a3.34 3.34 0 0 1-.706 3.684L8.387 8.437a.5.5 0 0 0 .715.7l1.628-1.663c1.26-1.286 1.609-3.115.913-4.771C10.942 1.035 9.377-.002 7.56-.002S4.178 1.035 3.477 2.703c-.696 1.656-.347 3.485.914 4.771l2.813 2.871Z"/><path d="M15.808 11.455 11.8 8.324a.5.5 0 1 0-.616.788l3.314 2.589-8.327 3.229L1 10.869V4.318l1.045-.363a.499.499 0 1 0-.328-.944l-1.381.48A.5.5 0 0 0 0 3.963v7.15c0 .153.07.299.191.394l5.587 4.388a.5.5 0 0 0 .49.072l9.413-3.651a.497.497 0 0 0 .127-.86Z"/><path d="M2.089 10.433a.5.5 0 0 0 .192.463l3.609 2.75a.5.5 0 0 0 .476.072l5.499-2.03a.5.5 0 0 0 .151-.85l-1.581-1.343a.499.499 0 1 0-.647.762l.929.789-4.439 1.639-2.697-2.055 1.358-.558a.5.5 0 0 0-.38-.925l-2.165.89a.5.5 0 0 0-.306.397Z"/></svg>