<!-- SPDX-FileCopyrightText: © 2025 Schneider Electric SPDX-License-Identifier: LicenseRef-Proprietary -->
<svg xmlns="http://www.w3.org/2000/svg" viewBox="0 0 16 16"><path d="M15.443.389a.5.5 0 0 0-.485-.306c-.547.028-1.293 0-2.157-.028C8.716-.087 1.88-.32.73 4.757c-1.163 5.13 2.822 6.394 2.863 6.406a.497.497 0 0 0 .638-.4C5.12 5.23 9.685 4.351 9.878 4.316a.5.5 0 0 0-.172-.985c-.053.009-5.089.95-6.343 6.642-.853-.479-2.38-1.809-1.657-4.996.967-4.269 7.04-4.06 11.06-3.923q.62.022 1.153.035c-.443.656-.932 1.653-.978 2.895-.087 2.371-.439 5.299-2.404 6.918-1.317 1.085-3.24 1.438-5.718 1.05a.5.5 0 0 0-.47.186c-.014.017-1.323 1.741 1.028 3.744a.5.5 0 0 0 .705-.057.5.5 0 0 0-.057-.705c-1.161-.989-1.129-1.757-1.006-2.129 2.605.348 4.674-.098 6.153-1.317 2.272-1.872 2.672-5.073 2.767-7.652.068-1.833 1.368-3.059 1.381-3.071a.5.5 0 0 0 .122-.561Z"/></svg>