<!-- SPDX-FileCopyrightText: © 2025 Schneider Electric SPDX-License-Identifier: LicenseRef-Proprietary -->
<svg xmlns="http://www.w3.org/2000/svg" viewBox="0 0 16 16"><path d="M8.173 3.897a.5.5 0 0 0 .351-.144l1.047-1.032a.5.5 0 1 0-.702-.712L7.822 3.041a.5.5 0 0 0 .351.856Z"/><rect width="1" height="2.604" x="4.329" rx=".5" ry=".5"/><path d="M1.547 3.801a.5.5 0 0 0 .351-.856L.851 1.914a.5.5 0 1 0-.702.712l1.047 1.032a.5.5 0 0 0 .351.144Zm13.024 2.105H8.82c-.968 0-1.569.595-1.569 1.553 0 1.075.788 1.556 1.579 1.556l1.161-.023.054 5.417c0 .982.548 1.592 1.432 1.592 1.062 0 1.537-.771 1.537-1.534v-4.002a.5.5 0 0 0-1 0v4.002c0 .534-.39.534-.537.534-.182 0-.432 0-.432-.597l-.059-5.927a.5.5 0 0 0-.51-.495l-1.656.033c-.569 0-.569-.404-.569-.556 0-.408.149-.553.569-.553h5.751c.16 0 .429.06.429.458q-.002.617-.429.618h-2.217a.5.5 0 0 0 0 1h2.217c.531 0 1.429-.341 1.429-1.618 0-.957-.719-1.458-1.429-1.458Z"/><path d="M7.687 10.109h-.063v-.398a.5.5 0 0 0-1 0v.898a.5.5 0 0 0 .5.5h.563c.131 0 .189.052.224.097a.56.56 0 0 1 .096.333c0 .005-.003.474-.32.474H7.33l-.979.002-.048-.002-2.925-.002h0q-.025 0-.049.002H2.097c-.317 0-.32-.469-.32-.474 0-.129.031-.431.32-.431l.048-.126c.279.248.832.029.831-.375V5.592c-.018-.979 1.041-1.226 1.365-1.277.911-.147 1.995.164 2.234.936a.5.5 0 0 0 .955-.295c-.415-1.339-2.032-1.84-3.347-1.627-1.361.218-2.228 1.114-2.207 2.273v4.512c-.36.03-.673.197-.892.477a1.55 1.55 0 0 0-.308.949c0 .84.567 1.474 1.32 1.474h.782v.56c0 .315 0 .56.014.749v.024h.003c.035.417.145.547.494.547.498 0 .504-.505.507-.696l.003-1.187h1.904v.562l.003.625c.002.19.009.696.507.696.349 0 .459-.131.494-.547h.003v-.025c.014-.189.014-.434.014-.749v-.559h.867c.753-.001 1.32-.635 1.32-1.475 0-.357-.109-.694-.308-.949a1.25 1.25 0 0 0-1.013-.482Z"/></svg>