<!-- SPDX-FileCopyrightText: © 2025 Schneider Electric SPDX-License-Identifier: LicenseRef-Proprietary -->
<svg xmlns="http://www.w3.org/2000/svg" viewBox="0 0 16 16"><path d="m14.018 13.077-2.208-2.904a4.3 4.3 0 0 0-.78-1.071c1.812-.857 2.862-2.518 2.862-4.622 0-1.198-.426-2.254-1.265-3.139C11.779.452 10.413 0 8.567 0H4.124c-.906 0-1.508.249-1.84.761C2 1.198 2 1.712 2 2.126v11.717C2 15.024 2.156 16 4.069 16 5.766 16 6 14.963 6 13.843V11.5a.5.5 0 0 0-1 0v2.343C5 14.849 4.878 15 4.069 15 3 15 3 14.823 3 13.843V2.124c0-.31 0-.63.123-.819C3.254 1.102 3.591 1 4.124 1h4.443c1.562 0 2.684.347 3.334 1.031.667.702.99 1.503.99 2.45 0 2.05-1.179 3.528-3.233 4.055a.5.5 0 0 0 .124.985c.438 0 .952.741 1.181 1.178l2.209 2.905c.064.131.356.8-.229 1.137-.74.459-.938.327-1.537-.481-.602-.814-3.482-4.75-3.492-4.75-.115-.235-.439-.508-.977-.508H5.499a.5.5 0 0 0 0 1h1.438c.095 0 .129.021.124.024 0 0 2.932 4.005 3.54 4.828.507.688 1.274 1.726 2.854.746 1.133-.651.894-1.884.562-2.521Z"/><path d="M5.5 7h2.248c.806 0 1.502-.003 2.054-.234.695-.291 1.048-.906 1.048-1.828C10.85 3 8.826 3 7.739 3H5.5a.5.5 0 0 0-.5.5v3a.5.5 0 0 0 .5.5ZM6 4h1.739c1.807 0 2.111.29 2.111.938 0 .668-.224.818-.434.906C9.041 6 8.414 5.992 7.683 6H6z"/></svg>