<!-- SPDX-FileCopyrightText: © 2025 Schneider Electric SPDX-License-Identifier: LicenseRef-Proprietary -->
<svg xmlns="http://www.w3.org/2000/svg" viewBox="0 0 16 16"><path d="M10.526 7.66q1.736-.806 1.736-2.541 0-.505-.166-.959a2.84 2.84 0 0 0-1.207-1.448A3.1 3.1 0 0 0 9.8 2.317a9 9 0 0 0-1.436-.103H4.615q-.75 0-1.085.336-.336.335-.336 1.101v8.697q0 .75.327 1.093t1.093.343h3.535q.916 0 1.602-.091a4.8 4.8 0 0 0 1.215-.312 3 3 0 0 0 1.342-1.149 3.2 3.2 0 0 0 .497-1.748q0-2.1-2.281-2.826ZM5.538 3.975H7.44q1.278 0 1.902.288t.623 1.164q0 .41-.197.742-.253.465-.73.631-.478.166-1.353.166H5.538zm2.517 8.05H5.538V8.647h2.438q1.223 0 1.839.395c.616.395.616.687.616 1.271q0 1.713-2.376 1.713Z"/></svg>