<!-- SPDX-FileCopyrightText: © 2025 Schneider Electric SPDX-License-Identifier: LicenseRef-Proprietary -->
<svg xmlns="http://www.w3.org/2000/svg" viewBox="0 0 16 16"><path d="M13.698 12.388c0-.32-.126-.771-.394-1.416l-3.088-7.618a42 42 0 0 0-.363-.926 3.8 3.8 0 0 0-.388-.717 2 2 0 0 0-.675-.609c-.567-.316-1.493-.316-2.052 0a2 2 0 0 0-.679.622 4.4 4.4 0 0 0-.428.847l-3.336 8.468a10 10 0 0 0-.274.744q-.1.313-.1.622c0 .34.127.646.362.916-.03.082-.059.164-.078.227a1.6 1.6 0 0 0-.081.499q-.001.417.346.749.347.331.798.331.534-.001.767-.311.233-.312.566-1.198l.386-1.035q.09-.212.185-.468l.005-.012h4.797l.566 1.483q.11.273.274.635.157.358.294.532.139.173.34.274t.484.101q.484 0 .827-.342.342-.343.342-.753c0-.112-.029-.261-.073-.431q.11-.077.212-.175c.305-.306.459-.654.459-1.036Zm-10.913-.367q.077-.248.254-.688l3.337-8.472c.109-.278.226-.512.347-.692.106-.156.238-.277.408-.372.322-.182.948-.178 1.267 0 .171.098.306.218.41.368.121.175.221.36.306.566q.14.336.358.914l3.093 7.629c.29.698.333.997.333 1.112 0 .165-.073.319-.224.471-.243.241-.643.271-.85.166a.6.6 0 0 1-.206-.164 2.2 2.2 0 0 1-.243-.45 19 19 0 0 1-.266-.616l-.563-1.479a.4.4 0 0 0-.374-.258H5.364a.4.4 0 0 0-.375.261l-.566 1.516c-.257.687-.42.977-.51 1.097-.146.191-.641.247-.971-.067-.199-.19-.222-.354-.222-.46q0-.183.064-.383Z"/><path d="M5.993 9.061h3.534a.4.4 0 0 0 .376-.537L8.12 3.647a.4.4 0 0 0-.375-.263h0a.4.4 0 0 0-.375.265L5.619 8.526a.402.402 0 0 0 .376.535ZM7.564 5.47l1.02 2.79H6.563z"/></svg>