<!-- SPDX-FileCopyrightText: © 2025 Schneider Electric SPDX-License-Identifier: LicenseRef-Proprietary -->
<svg xmlns="http://www.w3.org/2000/svg" viewBox="0 0 16 16"><path d="M12.896 0H3.125C1.824 0 1.016.778 1.016 2.031 1.016 3.485 2.152 4 3.125 4H6v9.667c0 .733.179 1.305.536 1.703.364.396.884.615 1.464.615.588 0 1.108-.216 1.469-.61.352-.396.531-.97.531-1.708V5.5a.5.5 0 0 0-1 0v8.167c0 .485-.093.837-.273 1.038-.33.359-1.104.372-1.45-.007-.184-.204-.277-.552-.277-1.031V3.5a.5.5 0 0 0-.5-.5H3.125c-.506 0-1.109-.168-1.109-.969 0-.282 0-1.031 1.109-1.031h9.771c.858 0 1.106.231 1.106 1.031 0 .265 0 .969-1.106.969H9.5a.5.5 0 0 0 0 1h3.396c1.319 0 2.106-.736 2.106-1.969C15.002.683 14.294 0 12.896 0Z"/></svg>