<!-- SPDX-FileCopyrightText: © 2024 Schneider Electric SPDX-License-Identifier: LicenseRef-Proprietary -->
<svg xmlns="http://www.w3.org/2000/svg" viewBox="0 0 20 20"><path fill="none" stroke="currentColor" stroke-linecap="round" stroke-linejoin="round" stroke-miterlimit="3.86" d="M13.05 5.45c0 2.13-1.51 2.12-3.62 2.12H6.47V3.5h3.04c1.87 0 3.54.14 3.54 1.95zm-6.58 5.7h2.12c.52 0 .66.29.66.29s4.21 6.04 4.97 7.08c.75 1.03 1.14 1.35 2.52.47 1.27-.74.37-2.19.37-2.19l-3.03-4.52s-.85-1.74-1.96-1.74c3.03-.79 4.48-2.31 4.48-5.01A5 5 0 0 0 15.2 2Q13.8.5 10.62.5H4.65C2.63.5 2.58 1.61 2.58 2.55v14.8c0 1.47.36 2.13 2.13 2.13 1.51 0 1.76-.72 1.76-2.13v-4.41" clip-rule="evenodd"/></svg>