<!-- SPDX-FileCopyrightText: © 2025 Schneider Electric SPDX-License-Identifier: LicenseRef-Proprietary -->
<svg xmlns="http://www.w3.org/2000/svg" viewBox="0 0 16 16"><path d="M11.319 1.16C10.132.182 8.548-.203 6.982.104 5.04.483 3.492 1.987 3.131 3.845a4.49 4.49 0 0 0 .9 3.691c.576.73.812 1.389.812 2.273a.5.5 0 0 0 1 0c0-1.117-.307-1.982-1.027-2.893a3.5 3.5 0 0 1-.704-2.881c.285-1.463 1.515-2.649 3.061-2.951 1.275-.249 2.554.059 3.51.847.861.709 1.354 1.729 1.354 2.799 0 .465-.093.919-.277 1.35l-5.476-.087a.5.5 0 0 0-.161.022q0 0 0 0a.5.5 0 0 0-.294.243.5.5 0 0 0-.035.384h0a.5.5 0 0 0 .066.135c.744 1.104.757 2.701.757 2.717a.5.5 0 0 0 .5.499h0a.5.5 0 0 0 .5-.5c0-.063-.007-1.296-.507-2.487l1.806.028a6.9 6.9 0 0 0-.52 2.458.5.5 0 0 0 1 0c0-.015.008-1.356.625-2.44l1.125.019c-.639.831-1.167 1.585-1.167 2.737V11H6.975c-.547.033-1.361.455-1.361 1.484 0 .574.231.918.424 1.105.424.41.996.401 1.04.402h1.873l.174.005-.064.22c-.208.686-.663.776-.647.78l-1.527-.005h-.001a.5.5 0 0 0-.001 1l1.583.002c.422-.046 1.225-.411 1.551-1.486.287-.945.272-1.135.091-1.314q-.15-.172-1.144-.201H7.062s-.208-.006-.328-.122q-.12-.115-.12-.386c0-.369.232-.468.391-.484h3.475a.5.5 0 0 0 .5-.5V9.808c0-.885.454-1.473 1.105-2.315a4.5 4.5 0 0 0 .954-2.763c0-1.37-.626-2.672-1.719-3.571Z"/></svg>