<!-- SPDX-FileCopyrightText: © 2025 Schneider Electric SPDX-License-Identifier: LicenseRef-Proprietary -->
<svg xmlns="http://www.w3.org/2000/svg" viewBox="0 0 16 16"><path d="M12.745 5.498a.5.5 0 0 0-.586-.191L9.701 6.2 12.766.745a.5.5 0 0 0-.807-.582L3.886 9.05c-.139.152-.169.375-.077.56s.286.286.495.274l2.391-.227a.5.5 0 0 0 .45-.545.49.49 0 0 0-.545-.451l-1.105.104L9.733 4.1 8.169 6.883a.5.5 0 0 0 .607.715l1.825-.663-2.982 3.284a.5.5 0 0 0-.116.099l-1.847 2.13.479-1.021a.5.5 0 0 0-.905-.426l-2.011 4.285a.5.5 0 0 0 .83.54l4.061-4.682a.5.5 0 0 0 .091-.079l4.5-4.954a.5.5 0 0 0 .045-.615Z"/></svg>