<!-- SPDX-FileCopyrightText: © 2025 Schneider Electric SPDX-License-Identifier: LicenseRef-Proprietary -->
<svg xmlns="http://www.w3.org/2000/svg" viewBox="0 0 16 16"><path d="M13.289 0h-2.817a.5.5 0 0 0-.353.176l-.017.021-1.546 1.996a.5.5 0 0 0 .396.806h.661L8.266 5.242a.502.502 0 0 0 .429.757h.513L7.786 8.055l.103-.442A.497.497 0 0 0 7.402 7H6.258l1.224-2.262A.5.5 0 0 0 7.042 4h-.869L8.031.784a.5.5 0 0 0-.317-.736A.5.5 0 0 0 7.501 0H2.698A2.7 2.7 0 0 0 0 2.698v7.985c0 1.407.913 2.316 2.326 2.316h4.425l3.084 3.052a.5.5 0 0 0 .707-.003.5.5 0 0 0-.004-.707l-3.23-3.196A.5.5 0 0 0 6.956 12h-4.63C1.721 12 1 11.771 1 10.684V2.698A1.7 1.7 0 0 1 2.698 1H6.75L4.872 4.25a.502.502 0 0 0 .433.75h.896L4.977 7.262a.5.5 0 0 0 .44.738h1.352l-.559 2.389a.499.499 0 0 0 .898.398l3.462-5.002A.502.502 0 0 0 10.159 5h-.583l1.347-2.243A.5.5 0 0 0 10.494 2H9.97l.774-1h2.544c.928 0 1.711.792 1.711 1.731v7.995c0 1.183-1.319 1.274-1.724 1.274h-2.776a.5.5 0 0 0 0 1h2.776c1.654 0 2.724-.893 2.724-2.274V2.731C15.999 1.225 14.783 0 13.288 0Z"/></svg>