<!-- SPDX-FileCopyrightText: © 2025 Schneider Electric SPDX-License-Identifier: LicenseRef-Proprietary -->
<svg xmlns="http://www.w3.org/2000/svg" viewBox="0 0 16 16"><path d="M7.5 16a.5.5 0 0 1 0-1h.954c.156-.013.374-.111.374-.5 0-.139-.021-.323-.121-.416a.4.4 0 0 0-.235-.085h0l-.901.015c-.03 0-.513.021-.899-.339-.195-.184-.428-.529-.428-1.135 0-.71.313-1.087.577-1.278.341-.248.722-.275.87-.275q.088 0 .16.013l1.15-.015c.01-.957.34-1.812.931-2.415a2.5 2.5 0 0 0 .734-1.492L8.43 9.309a.5.5 0 0 1-.707-.707l2.729-2.725a.4.4 0 0 1 .057-.049 2.5 2.5 0 0 0-.26-.487L7.477 8.108a.5.5 0 0 1-.707-.707L9.535 4.64a2.4 2.4 0 0 0-.499-.254L6.928 6.49a.5.5 0 0 1-.707-.707l1.528-1.525a2.5 2.5 0 0 0-1.227.555 2.53 2.53 0 0 0-.92 1.955c0 .61.219 1.2.616 1.662.408.359.766.681.898 1.299a.5.5 0 0 1-.384.594.503.503 0 0 1-.594-.385c-.062-.286-.201-.422-.633-.81a3.57 3.57 0 0 1-.903-2.36c0-1.057.467-2.05 1.282-2.725a3.55 3.55 0 0 1 2.941-.749c1.393.262 2.542 1.417 2.794 2.809.215 1.186-.143 2.343-.984 3.174-.404.413-.64 1.056-.64 1.758v.445a.5.5 0 0 1-.493.5l-1.698.022a.5.5 0 0 1-.123-.014.5.5 0 0 0-.305.105q-.138.127-.138.448c0 .189.039.332.108.401a.3.3 0 0 0 .191.072h0L8.422 13a1.4 1.4 0 0 1 .96.352c.201.187.439.537.439 1.148 0 1.063-.811 1.479-1.355 1.5h-.972Zm6-2a.5.5 0 0 1-.5-.5V12h-1.5a.5.5 0 0 1 0-1H13V9.5a.5.5 0 0 1 1 0V11h1.5a.5.5 0 0 1 0 1H14v1.5a.5.5 0 0 1-.5.5Zm-9-2h-3a.5.5 0 0 1 0-1h3a.5.5 0 0 1 0 1Zm-.019-8.067a.5.5 0 0 1-.354-.147l-.695-.696a.5.5 0 0 1 .707-.707l.695.696a.5.5 0 0 1-.353.853Zm6.628-.213a.5.5 0 0 1-.354-.853l1.791-1.789a.5.5 0 0 1 .707.707l-1.791 1.789a.5.5 0 0 1-.354.146ZM8.048 2.489za.5.5 0 0 1-.5-.5V.5a.503.503 0 0 1 .501-.5h0a.5.5 0 0 1 .5.5v1.489a.503.503 0 0 1-.501.5Z"/></svg>