<!-- SPDX-FileCopyrightText: © 2025 Schneider Electric SPDX-License-Identifier: LicenseRef-Proprietary -->
<svg xmlns="http://www.w3.org/2000/svg" viewBox="0 0 16 16"><path d="M7.5 16a.5.5 0 0 1 0-1h.809c.156-.013.374-.111.374-.5 0-.139-.021-.323-.121-.416a.4.4 0 0 0-.235-.085h0l-.754.015c-.029 0-.515.022-.9-.339-.195-.184-.428-.529-.428-1.135 0-.71.313-1.087.577-1.278.341-.248.722-.275.87-.275q.088 0 .16.013l1.149-.015c.011-.957.341-1.812.931-2.415.455-.45.713-1.03.749-1.651L8.285 9.311a.5.5 0 0 1-.707-.707l2.729-2.725a.5.5 0 0 1 .177-.114 2.5 2.5 0 0 0-.293-.507L7.334 8.11a.5.5 0 0 1-.707-.707l2.821-2.816a2.5 2.5 0 0 0-.517-.236L6.785 6.493a.5.5 0 0 1-.707-.707l1.494-1.491c-.38.087-.735.262-1.047.521a2.53 2.53 0 0 0-.92 1.955c0 .61.219 1.201.615 1.662.408.36.766.681.898 1.299a.5.5 0 0 1-.978.209c-.062-.286-.201-.422-.633-.81a3.57 3.57 0 0 1-.903-2.36c0-1.057.467-2.05 1.282-2.725a3.55 3.55 0 0 1 2.942-.749c1.393.263 2.542 1.418 2.794 2.809.215 1.186-.144 2.343-.984 3.174-.404.413-.64 1.056-.64 1.758v.445a.5.5 0 0 1-.493.5l-1.698.022a.6.6 0 0 1-.123-.014.5.5 0 0 0-.305.105q-.138.127-.138.448c0 .189.039.332.108.401a.3.3 0 0 0 .191.072h0l.738-.014c.032 0 .554-.027.962.352.2.187.439.537.439 1.148 0 1.063-.811 1.479-1.355 1.5h-.827Zm6-2a.5.5 0 0 1-.5-.5V12h-1.5a.5.5 0 0 1 0-1H13V9.5a.5.5 0 0 1 1 0V11h1.5a.5.5 0 0 1 0 1H14v1.5a.5.5 0 0 1-.5.5Zm-9-2h-3a.5.5 0 0 1 0-1h3a.5.5 0 0 1 0 1Z"/></svg>