<!-- SPDX-FileCopyrightText: © 2025 Schneider Electric SPDX-License-Identifier: LicenseRef-Proprietary -->
<svg xmlns="http://www.w3.org/2000/svg" viewBox="0 0 16 16"><path d="M15.5 11H8.261l4.438-4.888a.501.501 0 0 0-.541-.806L9.7 6.199 12.765.745a.499.499 0 0 0-.798-.589L3.509 9.042a.5.5 0 0 0-.087.563.49.49 0 0 0 .497.279l2.391-.227a.5.5 0 0 0 .45-.545.49.49 0 0 0-.545-.45l-1.059.101 4.779-5.022-1.767 3.145a.5.5 0 0 0 .607.715l1.825-.663-2.982 3.284a.5.5 0 0 0-.116.098L5.56 12.559l.383-.841a.51.51 0 0 0-.031-.488.5.5 0 0 0-.313-.216c-.039-.009-.081-.01-.117-.012H.5a.5.5 0 0 0 0 1h4.215l-1.5 3.293a.5.5 0 0 0 .833.534l3.332-3.842q.058.015.12.015h8a.5.5 0 0 0 0-1Z"/></svg>