<!-- SPDX-FileCopyrightText: © 2025 Schneider Electric SPDX-License-Identifier: LicenseRef-Proprietary -->
<svg xmlns="http://www.w3.org/2000/svg" viewBox="0 0 16 16"><path d="M12.168 3.44C11.799 2.019 10.277.513 8.843.151 7.388-.216 5.889.088 4.732.989a4.68 4.68 0 0 0-1.817 3.716c0 1.131.405 2.224 1.187 3.125.777.697.986.884.994 1.875.002.277.265.529.504.496a.5.5 0 0 0 .496-.504c-.011-1.375-.415-1.795-1.282-2.566a3.717 3.717 0 0 1 .533-5.353c.911-.71 2.097-.949 3.251-.657 1.083.273 2.324 1.499 2.602 2.57.348 1.341-.011 2.702-.966 3.646C9.438 8.149 9 9.313 9 10.614v.385H6.562c-.536.039-1.333.468-1.333 1.493s.852 1.459 1.464 1.507h1.872l.175.005-.064.221c-.208.685-.663.775-.646.779l-1.527-.005h-.002a.5.5 0 0 0-.002 1l1.583.002c.422-.046 1.225-.411 1.551-1.486.287-.946.272-1.135.056-1.352q-.145-.135-1.108-.165L6.739 13c-.153-.016-.51-.098-.51-.509 0-.373.224-.475.369-.493h2.903a.5.5 0 0 0 .5-.5v-.885c0-1.023.346-1.962.943-2.572 1.206-1.192 1.664-2.913 1.225-4.603Z"/></svg>