<!-- SPDX-FileCopyrightText: © 2025 Schneider Electric SPDX-License-Identifier: LicenseRef-Proprietary -->
<svg xmlns="http://www.w3.org/2000/svg" viewBox="0 0 16 16"><path d="M7.863 2.469za.5.5 0 0 0 .5-.5L8.365.5a.5.5 0 0 0-.5-.5h0a.5.5 0 0 0-.5.5l-.002 1.469a.5.5 0 0 0 .5.5ZM4.271 3.792a.5.5 0 1 0 .707-.706L3.94 2.046a.5.5 0 1 0-.707.707zm6.994-.066a.5.5 0 0 0 .354-.146l1.04-1.038a.5.5 0 0 0-.707-.707l-1.04 1.038a.5.5 0 0 0 .354.854Zm-2.284-.352c-1.174-.296-2.38-.051-3.312.675a3.77 3.77 0 0 0-1.465 2.996c0 .911.327 1.792.965 2.527.532.477.673.62.724 1.055a.5.5 0 1 0 .993-.116c-.096-.83-.496-1.188-1.004-1.639a2.8 2.8 0 0 1-.678-1.828c0-.868.394-1.672 1.08-2.207a2.8 2.8 0 0 1 1.588-.583L6.07 6.056a.5.5 0 0 0 .707.707l2.287-2.287.01-.01c.182.084.363.197.536.33L6.645 7.761a.5.5 0 0 0 .707.707l2.957-2.957c.134.183.242.374.317.562a.5.5 0 0 0-.112.084l-2.869 2.87a.5.5 0 0 0 .707.707l2.427-2.427a2.78 2.78 0 0 1-.814 1.722c-.643.656-.997 1.594-.997 2.642v.192H7.16c-.46.033-1.145.4-1.145 1.277 0 .872.727 1.247 1.255 1.288h1.46l-.011.037c-.142.467-.439.532-.402.533l-1.195-.004h-.001a.5.5 0 0 0-.001 1h1.25c.357-.037 1.035-.342 1.307-1.238.214-.703.243-.94.026-1.157q-.146-.146-.954-.171l-1.431.002q-.302-.034-.302-.29c0-.075 0-.253.18-.277h2.272a.5.5 0 0 0 .5-.5v-.692c0-.773.26-1.481.706-1.937.972-.961 1.341-2.347.988-3.708-.303-1.166-1.505-2.356-2.682-2.653ZM3.296 6.158H1.827v-.001a.5.5 0 0 0 0 1h1.469v.001a.5.5 0 0 0 0-1Zm10.879-.02h-1.47a.498.498 0 1 0-.001.998h1.47a.498.498 0 1 0 .001-.998Z"/></svg>