<!-- SPDX-FileCopyrightText: ©️ LY Corporation SPDX-License-Identifier: LicenseRef-Proprietary -->
<svg xmlns="http://www.w3.org/2000/svg" version="1.1" viewBox="0 0 426.667 426.667"><path fill="#06c755" d="M96.188 0C43.064 0 0 43.065 0 96.188v234.29c0 53.123 43.064 96.188 96.188 96.188h234.29c53.125 0 96.188-43.065 96.188-96.187V96.188C426.666 43.065 383.603 0 330.479 0Z"/><path fill="#ffffff" d="M213.291 77.793c-78.433 0-142.252 51.786-142.252 115.44 0 57.063 50.606 104.857 118.967 113.89 4.63 1.001 10.938 3.056 12.531 7.016 1.435 3.594.938 9.229.461 12.861 0 0-1.669 10.038-2.031 12.178-.62 3.593-2.859 14.066 12.324 7.67 15.181-6.399 81.92-48.24 111.766-82.588h-.008c20.614-22.61 30.492-45.554 30.492-71.028 0-63.653-63.812-115.439-142.25-115.439z"/><path fill="#06c755" d="M120.42 162.473a2.717 2.717 0 0 0-2.717 2.716v62.082a2.715 2.715 0 0 0 2.717 2.715h39.965c1.5 0 2.717-1.213 2.717-2.715v-10.09a2.724 2.724 0 0 0-2.717-2.714h-27.162v-49.278a2.72 2.72 0 0 0-2.713-2.716zm53.937 0a2.72 2.72 0 0 0-2.718 2.716v62.082c0 1.5 1.218 2.715 2.718 2.715h10.086a2.715 2.715 0 0 0 2.717-2.715V165.19a2.717 2.717 0 0 0-2.717-2.716zm25.22 0a2.717 2.717 0 0 0-2.716 2.716v62.082c0 1.5 1.215 2.715 2.715 2.715h10.088c1.5 0 2.717-1.215 2.717-2.715v-36.86l28.44 38.405c.195.278.435.504.7.684l.032.021q.082.056.17.104.038.024.08.043.063.037.13.064.067.032.133.057.043.019.086.033.093.034.188.06.02.007.039.009c.227.06.464.095.71.095h10.032c1.5 0 2.717-1.215 2.717-2.715V165.19a2.72 2.72 0 0 0-2.717-2.716h-10.088a2.717 2.717 0 0 0-2.715 2.716v36.874l-28.404-38.36a3 3 0 0 0-.236-.3 2 2 0 0 0-.164-.169l-.051-.047a4 4 0 0 0-.147-.125l-.074-.054a3 3 0 0 0-.144-.1l-.082-.049q-.075-.043-.15-.082l-.087-.043a3 3 0 0 0-.158-.068l-.088-.031a2.4 2.4 0 0 0-.424-.114l-.115-.019-.146-.016q-.073-.006-.145-.007c-.032-.001-.062-.006-.094-.006zm68.675 0a2.717 2.717 0 0 0-2.717 2.716v62.082a2.715 2.715 0 0 0 2.717 2.715h39.965c1.5 0 2.717-1.213 2.717-2.715v-10.09a2.724 2.724 0 0 0-2.717-2.714h-27.16V203.99h27.16c1.5 0 2.717-1.215 2.717-2.715v-10.09a2.726 2.726 0 0 0-2.717-2.716h-27.16v-10.475h27.16c1.5 0 2.717-1.217 2.717-2.717V165.19a2.725 2.725 0 0 0-2.717-2.716z"/></svg>