<!-- SPDX-FileCopyrightText: © 2025 Schneider Electric SPDX-License-Identifier: LicenseRef-Proprietary -->
<svg xmlns="http://www.w3.org/2000/svg" viewBox="0 0 16 16"><path d="M15.5 13a.5.5 0 0 1-.354-.146L12.5 10.208l-2.646 2.646a.5.5 0 0 1-.707-.707l3-3a.5.5 0 0 1 .707 0l3 3A.5.5 0 0 1 15.5 13Zm-8 0h-7a.5.5 0 0 1 0-1h7a.5.5 0 0 1 0 1Zm0-3h-7a.5.5 0 0 1 0-1h7a.5.5 0 0 1 0 1Zm5-3a.5.5 0 0 1-.354-.146l-3-3a.5.5 0 0 1 .707-.707l2.646 2.646 2.646-2.646a.5.5 0 0 1 .707.707l-3 3a.5.5 0 0 1-.354.146Zm-5 0h-7a.5.5 0 0 1 0-1h7a.5.5 0 0 1 0 1Zm0-3h-7a.5.5 0 0 1 0-1h7a.5.5 0 0 1 0 1Z"/></svg>