<!-- SPDX-FileCopyrightText: © 2025 Schneider Electric SPDX-License-Identifier: LicenseRef-Proprietary -->
<svg xmlns="http://www.w3.org/2000/svg" viewBox="0 0 16 16"><path d="M3.616 11.615a.5.5 0 0 0 .429.323l.039.001a.5.5 0 0 0 .435-.254l1.482-2.622 1.159.58a.5.5 0 0 0 .607-.127L10.704 6h3.795a.5.5 0 0 0 0-1H10.47a.5.5 0 0 0-.384.18L7.253 8.572l-1.23-.615a.5.5 0 0 0-.659.201l-1.189 2.103-1.207-3.22a.501.501 0 0 0-.937.351l1.583 4.224Z"/><path d="M15.5 15H1V.5a.5.5 0 0 0-1 0v15a.5.5 0 0 0 .5.5h15a.5.5 0 0 0 0-1Z"/></svg>