<!-- SPDX-FileCopyrightText: © 2025 Schneider Electric SPDX-License-Identifier: LicenseRef-Proprietary -->
<svg xmlns="http://www.w3.org/2000/svg" viewBox="0 0 16 16"><path d="M3.351 8.42a.5.5 0 0 0 .429.323l.039.001a.5.5 0 0 0 .436-.254L5.68 5.968l1.107.554a.5.5 0 0 0 .597-.114L10.426 3H13.5a.5.5 0 0 0 0-1h-3.298a.5.5 0 0 0-.373.167l-2.937 3.29-1.19-.595a.5.5 0 0 0-.659.201L3.911 7.066 2.755 3.984a.5.5 0 0 0-.936.352zm9.523-.387a2.89 2.89 0 0 0-3.381-1.234 2.89 2.89 0 0 0-1.982 3.005 2.894 2.894 0 0 0 2.465 2.623.5.5 0 0 0 .147-.989c-.876-.13-1.541-.837-1.616-1.719s.458-1.692 1.299-1.97a1.9 1.9 0 0 1 2.216.809 1.896 1.896 0 0 1-.274 2.343.5.5 0 0 0 0 .707l2.372 2.372a.5.5 0 0 0 .708 0 .5.5 0 0 0 0-.707l-2.049-2.049a2.89 2.89 0 0 0 .096-3.191Z"/><path d="M15.5 15H1V.5a.5.5 0 0 0-1 0v15a.5.5 0 0 0 .5.5h15a.5.5 0 0 0 0-1Z"/></svg>