<!-- SPDX-FileCopyrightText: © 2025 Schneider Electric SPDX-License-Identifier: LicenseRef-Proprietary -->
<svg xmlns="http://www.w3.org/2000/svg" viewBox="0 0 16 16"><path d="m7.927 5.095 3.347-3.347c.922-.92 2.338-1.001 3.159-.181.821.821.74 2.238-.181 3.158l-2.557 2.556a.5.5 0 0 0 .708.707l2.557-2.556c1.311-1.311 1.392-3.361.181-4.572s-3.262-1.129-4.573.181l-3.36 3.36a.494.494 0 0 0 .006.701.51.51 0 0 0 .714-.007ZM.903.196a.5.5 0 1 0-.707.707l5.311 5.311a3.5 3.5 0 0 0-.516 1.318c-.168 1.007.129 1.978.814 2.664.173.173.367.323.525.411.215.17.497.113.67-.101.172-.216.104-.554-.111-.726a2 2 0 0 1-.376-.292c-.454-.454-.649-1.107-.535-1.792.043-.26.132-.516.259-.754l2.895 2.895-.016.024-4.39 4.391c-.919.922-2.336 1.003-3.158.181-.821-.821-.74-2.238.181-3.159L4.113 8.91a.5.5 0 0 0-.707-.707l-2.364 2.364C-.269 11.878-.35 13.929.861 15.14a2.97 2.97 0 0 0 2.12.857c.869 0 1.763-.349 2.452-1.038l4.385-4.386.024-.025 5.255 5.255a.5.5 0 0 0 .707-.707z"/><path d="M9.429 5.551a.5.5 0 0 0-.508.861q.205.121.375.292c.254.253.432.576.514.935a.5.5 0 0 0 .599.375.5.5 0 0 0 .375-.6 2.93 2.93 0 0 0-.78-1.417 3 3 0 0 0-.575-.446Z"/></svg>