<!-- SPDX-FileCopyrightText: © 2025 Schneider Electric SPDX-License-Identifier: LicenseRef-Proprietary -->
<svg xmlns="http://www.w3.org/2000/svg" viewBox="0 0 16 16"><path d="M8.877 6.105a.5.5 0 1 0-.51.86q.209.123.376.292c.821.821.74 2.237-.182 3.159l-3.836 3.837c-.921.922-2.336 1.003-3.158.181s-.739-2.238.181-3.159l3.109-3.109a.5.5 0 0 0-.707-.707l-3.109 3.109C-.27 11.88-.351 13.931.86 15.141a2.97 2.97 0 0 0 2.12.857c.869 0 1.763-.349 2.452-1.038l3.837-3.838c1.311-1.311 1.392-3.361.182-4.572a3 3 0 0 0-.574-.445Z"/><path d="M15.14.86c-1.211-1.211-3.262-1.129-4.572.181L6.731 4.878a3.5 3.5 0 0 0-1.038 2.3c-.04.873.264 1.68.856 2.272q.261.26.576.446a.5.5 0 0 0 .685-.177.5.5 0 0 0-.177-.685 2 2 0 0 1-.377-.292c-.392-.392-.592-.931-.564-1.519a2.5 2.5 0 0 1 .747-1.641l3.836-3.836c.922-.92 2.337-1.001 3.158-.181.821.821.74 2.238-.181 3.158l-3.109 3.109a.5.5 0 0 0 .707.707l3.109-3.109c1.311-1.311 1.392-3.361.181-4.572Z"/></svg>