<!-- SPDX-FileCopyrightText: © 2025 Schneider Electric SPDX-License-Identifier: LicenseRef-Proprietary -->
<svg xmlns="http://www.w3.org/2000/svg" viewBox="0 0 16 16"><path d="M3.647 10.938a.5.5 0 0 0-.692.144l-1.593 2.433c-.173-.274-.389-.538-.631-.664a.49.49 0 0 0-.654.208.51.51 0 0 0 .192.68c.129.077.402.535.572.96a.5.5 0 0 0 .465.315.5.5 0 0 0 .418-.226l2.068-3.157a.5.5 0 0 0-.145-.692ZM5.5 4h10a.5.5 0 0 0 0-1h-10a.5.5 0 0 0 0 1ZM3.647 6.002a.5.5 0 0 0-.692.145L1.362 8.58c-.173-.275-.389-.539-.631-.665-.241-.124-.522-.028-.654.208s-.04.541.192.68c.129.077.402.535.572.961a.5.5 0 0 0 .464.315.5.5 0 0 0 .418-.226l2.068-3.159a.5.5 0 0 0-.145-.692ZM15.5 8h-10a.5.5 0 0 0 0 1h10a.5.5 0 0 0 0-1ZM3.647 1.068a.5.5 0 0 0-.692.145L1.362 3.646c-.173-.275-.389-.538-.631-.664a.49.49 0 0 0-.655.207.513.513 0 0 0 .192.68c.13.077.403.536.573.961a.5.5 0 0 0 .415.312l.05.002a.5.5 0 0 0 .418-.226l2.068-3.157a.5.5 0 0 0-.145-.692ZM15.5 13h-10a.5.5 0 0 0 0 1h10a.5.5 0 0 0 0-1Z"/></svg>