<!-- SPDX-FileCopyrightText: © 2025 Schneider Electric SPDX-License-Identifier: LicenseRef-Proprietary -->
<svg xmlns="http://www.w3.org/2000/svg" viewBox="0 0 16 16"><path d="M14.831 0H5.5a.5.5 0 0 0 0 1h9.331c.092 0 .169.078.169.169v13.662a.17.17 0 0 1-.169.169H1.169A.17.17 0 0 1 1 14.831V6.5a.5.5 0 0 0-1 0v8.331A1.17 1.17 0 0 0 1.169 16H14.83a1.17 1.17 0 0 0 1.169-1.169V1.169A1.17 1.17 0 0 0 14.83 0Z"/><path d="M3.445 7.083a.5.5 0 0 0 0 1 .5.5 0 1 1-.5.5.5.5 0 0 0-1 0c0 .827.673 1.5 1.5 1.5s1.5-.673 1.5-1.5-.673-1.5-1.5-1.5Zm0 5.943a.5.5 0 0 1-.5-.5.5.5 0 0 0-1 0c0 .827.673 1.5 1.5 1.5s1.5-.673 1.5-1.5-.673-1.5-1.5-1.5a.5.5 0 0 0 0 1 .5.5 0 0 1 0 1ZM.5 3H2v1.5a.5.5 0 0 0 1 0V3h1.5a.5.5 0 0 0 0-1H3V.5a.5.5 0 0 0-1 0V2H.5a.5.5 0 0 0 0 1Zm6 6h7a.5.5 0 0 0 0-1h-7a.5.5 0 0 0 0 1Zm0 4h7a.5.5 0 0 0 0-1h-7a.5.5 0 0 0 0 1Zm0-8h7a.5.5 0 0 0 0-1h-7a.5.5 0 0 0 0 1Z"/></svg>