<!-- SPDX-FileCopyrightText: © 2025 Schneider Electric SPDX-License-Identifier: LicenseRef-Proprietary -->
<svg xmlns="http://www.w3.org/2000/svg" viewBox="0 0 16 16"><circle cx="3.5" cy="12.537" r=".5"/><circle cx="3.5" cy="9.575" r=".5"/><path d="M13.5 9.075h-8a.5.5 0 0 0 0 1h8a.5.5 0 0 0 0-1Z"/><path d="M14.831 0H10.5a.5.5 0 0 0 0 1h4.331c.092 0 .169.078.169.169v13.662a.17.17 0 0 1-.169.169H1.169A.17.17 0 0 1 1 14.831V7.5a.5.5 0 0 0-1 0v7.331A1.17 1.17 0 0 0 1.169 16h13.662A1.17 1.17 0 0 0 16 14.831V1.169A1.17 1.17 0 0 0 14.831 0Z"/><path d="M5.437 7.685c.533 0 1.107-.062 1.723-.202 1.192-.271 1.916-.844 2.616-1.397.514-.406.999-.79 1.683-1.08a.5.5 0 0 0 .249-.69l-.058-.117C10.052.861 7.415.185 5.457.18a.5.5 0 0 0 .002 1c.006-.003.023 0 .036 0 2.276 0 3.988 1.054 5.093 3.134-.563.3-1.004.648-1.433.987-.669.529-1.247.986-2.218 1.207-3.473.79-5.32-1.262-5.848-1.981.583-.887 1.576-1.295 2.346-1.484a2.368 2.368 0 0 0 2.206 3.241 2.375 2.375 0 0 0 2.372-2.372c0-.972-.609-1.861-1.515-2.212a.5.5 0 0 0-.361.933c.524.203.876.717.876 1.279 0 .756-.615 1.372-1.372 1.372a1.374 1.374 0 0 1-.81-2.479c.222-.162.258-.491.097-.714-.095-.131-.27-.242-.41-.207-.131.001-3.234.059-4.462 2.432a.5.5 0 0 0 .012.482c.02.033 1.732 2.888 5.369 2.888ZM13.5 6.048h-2.413a.5.5 0 0 0 0 1H13.5a.5.5 0 0 0 0-1Zm0 5.989h-8a.5.5 0 0 0 0 1h8a.5.5 0 0 0 0-1Z"/></svg>