<!-- SPDX-FileCopyrightText: © 2025 Schneider Electric SPDX-License-Identifier: LicenseRef-Proprietary -->
<svg xmlns="http://www.w3.org/2000/svg" viewBox="0 0 16 16"><circle cx="4.5" cy="8.5" r=".5"/><circle cx="4.5" cy="10.5" r=".5"/><circle cx="4.5" cy="12.5" r=".5"/><path d="M11.5 10h-5a.5.5 0 0 0 0 1h5a.5.5 0 0 0 0-1Zm0 2h-5a.5.5 0 0 0 0 1h5a.5.5 0 0 0 0-1Zm0-4h-5a.5.5 0 0 0 0 1h5a.5.5 0 0 0 0-1Z"/><path d="M12.422 2a.5.5 0 0 0 0 1c.571 0 .578.836.578.844v10.077A1.08 1.08 0 0 1 11.921 15H4.079A1.08 1.08 0 0 1 3 13.921V4.079A1.08 1.08 0 0 1 4.079 3h.553l-.328 1.385A.498.498 0 0 0 4.79 5h6.443a.5.5 0 0 0 .479-.644l-.862-2.875A2.09 2.09 0 0 0 8.858 0H7.149c-.621 0-1.204.274-1.601.752a.5.5 0 0 0 .769.639c.206-.249.509-.391.832-.391h1.709c.473 0 .897.316 1.033.769L10.56 4H5.421l.328-1.384A.5.5 0 0 0 5.262 2H4.077a2.08 2.08 0 0 0-2.079 2.079v9.842c0 1.146.933 2.079 2.079 2.079h7.842a2.08 2.08 0 0 0 2.079-2.079V3.844c0-.917-.542-1.844-1.578-1.844Z"/></svg>