<!-- SPDX-FileCopyrightText: © 2025 Schneider Electric SPDX-License-Identifier: LicenseRef-Proprietary -->
<svg xmlns="http://www.w3.org/2000/svg" viewBox="0 0 16 16"><path d="M15.962.308a.5.5 0 0 0-.101-.154h0V.153l-.015-.015s0 0 0 0h0a.5.5 0 0 0-.331-.137H8.503a.5.5 0 0 0 0 1H14.3l-4.975 5H1.854l4.792-4.116a.5.5 0 0 0-.651-.759L.22 6.085A.5.5 0 0 0 0 6.5v9a.5.5 0 0 0 1 0v-4.878l.042.092q.12.26.254.515a10.2 10.2 0 0 0 2.836 3.327.498.498 0 1 0 .602-.797 9.15 9.15 0 0 1-2.783-3.462C1.417 9.133 1.167 8.131 1.134 7h1.374c.073 3.032 1.946 5.604 4.925 6.738a.5.5 0 0 0 .357-.934c-2.581-.984-4.207-3.197-4.281-5.805h1.44c.07 2.144 1.451 3.27 2.496 3.935a.5.5 0 0 0 .537-.843C6.615 9.221 5.999 8.289 5.95 7h3.052v8H2.5a.5.5 0 0 0 0 1h6.951a.5.5 0 0 0 .507-.162l4.835-5.743a.5.5 0 0 0-.766-.644L10 14.235V6.737l5-5.026V8.5a.5.5 0 0 0 1 0v-8h0V.498h0V.496h0V.494h0V.492a.5.5 0 0 0-.038-.185Z"/></svg>