<!-- SPDX-FileCopyrightText: © 1994-2024 Mastercard SPDX-License-Identifier: LicenseRef-Proprietary -->
<svg xmlns="http://www.w3.org/2000/svg" version="1.1" viewBox="0 0 116.518 116.518"><path fill="#fff" d="M71.485 90.613v2.896h-1.938v1.897h1.938v4.353c0 2.217.858 3.535 3.314 3.535a4.9 4.9 0 0 0 2.596-.738l-.598-1.777a3.84 3.84 0 0 1-1.838.539c-1.038 0-1.379-.64-1.379-1.598v-4.314h3.397v-1.897H73.58v-2.896zm19.906 2.644a5.4 5.4 0 0 0-2.049.385c-.606.241-1.158.6-1.625 1.057a4.9 4.9 0 0 0-1.072 1.59 5.3 5.3 0 0 0 0 3.986 4.9 4.9 0 0 0 1.072 1.59 4.9 4.9 0 0 0 1.625 1.056 5.66 5.66 0 0 0 4.096 0 5 5 0 0 0 1.63-1.056 4.8 4.8 0 0 0 1.077-1.59 5.3 5.3 0 0 0 0-3.987 4.84 4.84 0 0 0-2.707-2.646 5.4 5.4 0 0 0-2.047-.385zm-59.504.01a4 4 0 0 0-.397.002 3.7 3.7 0 0 0-3.355 1.697 3.5 3.5 0 0 0-3.156-1.697 3.16 3.16 0 0 0-2.795 1.418v-1.178h-2.078v9.545h2.097v-5.29a2.233 2.233 0 0 1 2.336-2.538c1.378 0 2.078.898 2.078 2.516v5.312h2.096v-5.29a2.25 2.25 0 0 1 2.338-2.538c1.418 0 2.096.898 2.096 2.516v5.312h2.097v-5.99a3.554 3.554 0 0 0-3.357-3.797zm9.967.002c-6.36.316-6.36 9.71 0 10.025a3.62 3.62 0 0 0 3.015-1.398v1.158h2.078V93.51H44.87v1.158a3.62 3.62 0 0 0-3.015-1.398zm11.861 0c-6.424.34-6.29 9.865.14 10.025a5.8 5.8 0 0 0 3.915-1.338l-1.018-1.537a4.55 4.55 0 0 1-2.777.998 2.65 2.65 0 0 1-2.856-2.336h7.09c.02-.26.04-.52.04-.8-.02-2.976-1.858-5.012-4.534-5.012zm10.285 0c-2.416 0-3.974 1.157-3.974 3.055 0 1.557 1.158 2.516 3.294 2.816l.981.14c1.138.16 1.676.46 1.676.999 0 .739-.758 1.158-2.176 1.158a5.1 5.1 0 0 1-3.176-.998l-.978 1.617a6.9 6.9 0 0 0 4.134 1.238c2.756 0 4.354-1.298 4.354-3.115 0-1.678-1.259-2.556-3.336-2.855l-.979-.141c-.898-.12-1.617-.298-1.617-.938 0-.699.678-1.119 1.817-1.119a6.15 6.15 0 0 1 2.976.819l.899-1.678A7.14 7.14 0 0 0 64 93.269Zm20.164 0a2.82 2.82 0 0 0-2.515 1.398V93.51H79.59v9.545h2.078v-5.351c0-1.578.68-2.458 2.037-2.458.444-.005.885.076 1.297.24l.64-1.956a4.4 4.4 0 0 0-1.478-.26zm-30.488 1.857a2.37 2.37 0 0 1 2.416 2.317h-4.953a2.46 2.46 0 0 1 2.537-2.317zm37.715.096a3.1 3.1 0 0 1 1.185.225c.356.143.68.356.952.627.274.276.49.605.634.966.306.8.306 1.684 0 2.483-.144.361-.36.69-.634.967a2.9 2.9 0 0 1-.952.629 3.25 3.25 0 0 1-2.373 0 2.8 2.8 0 0 1-.945-.63 2.9 2.9 0 0 1-.629-.966 3.47 3.47 0 0 1 0-2.483c.144-.36.357-.689.629-.966.27-.272.59-.485.945-.627a3.1 3.1 0 0 1 1.188-.225zm-49.012.346a2.893 2.893 0 0 1-.266 5.77 2.864 2.864 0 0 1-2.894-3.057 2.89 2.89 0 0 1 3.16-2.713zm56.164 6.097a.98.98 0 0 0-.691.278.94.94 0 0 0-.205 1.041.97.97 0 0 0 .896.582q.197 0 .377-.076a.97.97 0 0 0 .514-.506.93.93 0 0 0-.207-1.041.98.98 0 0 0-.684-.278zm0 .211q.15 0 .287.059a.74.74 0 1 1-.287-.059zm-.351.295v.881h.189v-.33h.086l.268.33h.226l-.289-.332a.35.35 0 0 0 .207-.088.24.24 0 0 0 .074-.18.25.25 0 0 0-.092-.207.4.4 0 0 0-.261-.074zm.189.164h.217a.2.2 0 0 1 .117.03c.03.019.047.052.045.088a.1.1 0 0 1-.045.09.2.2 0 0 1-.117.029h-.217z" baseline-shift="baseline" display="inline" overflow="visible" stop-color="#000" stop-opacity="1" vector-effect="none"/><path fill="#7375cf" d="M58.274 20.65a35.94 35.94 0 0 0-13.75 28.302 35.94 35.94 0 0 0 13.75 28.305c18.334-14.416 18.334-42.192 0-56.607z" baseline-shift="baseline" display="inline" overflow="visible" stop-color="#000" stop-opacity="1" vector-effect="none"/><path fill="#eb001b" d="M36.428 12.954q-.792-.009-1.586.018c-24.48.807-41.025 25.296-32.637 48.309s36.81 31.111 56.069 15.976a35.94 35.94 0 0 1-13.75-28.305 35.94 35.94 0 0 1 13.75-28.302 36 36 0 0 0-21.846-7.696z" baseline-shift="baseline" display="inline" overflow="visible" stop-color="#000" stop-opacity="1" vector-effect="none"/><path fill="#00a2e5" d="M113.824 69.865v1.396h.258v-1.055l.395.91h.265l.395-.912v1.057h.258v-1.396h-.366l-.42.96-.42-.96zm-1.463.002v.236h.467v1.158h.256v-1.158h.467v-.236zM81.53 12.968a36 36 0 0 0-23.256 7.682 36.005 36.005 0 0 1 0 56.607 35.999 35.999 0 0 0 58.244-28.305 36 36 0 0 0-34.989-35.984Z" baseline-shift="baseline" display="inline" overflow="visible" stop-color="#000" stop-opacity="1" vector-effect="none"/></svg>