<!-- SPDX-FileCopyrightText: © 2025 Schneider Electric SPDX-License-Identifier: LicenseRef-Proprietary -->
<svg xmlns="http://www.w3.org/2000/svg" viewBox="0 0 16 16"><path d="M5.757 8.241a.5.5 0 0 0 .5-.5V6.266h1.475a.5.5 0 0 0 0-1H6.257V3.791a.5.5 0 0 0-1 0v1.475H3.784a.5.5 0 0 0 0 1h1.473v1.475a.5.5 0 0 0 .5.5Z"/><path d="m15.36 12.276-3.792-3.792a2.6 2.6 0 0 0-.552-.399 5.8 5.8 0 0 0 .493-2.33 5.7 5.7 0 0 0-1.687-4.069A5.72 5.72 0 0 0 5.758 0h-.002a5.72 5.72 0 0 0-4.07 1.687C.599 2.773 0 4.218 0 5.755s.599 2.982 1.686 4.069a5.74 5.74 0 0 0 6.623 1.089.5.5 0 1 0-.444-.897 4.75 4.75 0 0 1-5.471-.899C1.496 8.219 1 7.025 1 5.755s.495-2.464 1.394-3.362A4.72 4.72 0 0 1 5.756.999h.002a4.72 4.72 0 0 1 3.358 1.394 4.73 4.73 0 0 1 1.394 3.362c0 .778-.192 1.548-.534 2.183a.5.5 0 0 0 .271.92l.041-.001c.117.028.416.176.573.333l3.792 3.792c.224.224.347.52.347.835s-.123.612-.347.836a1.18 1.18 0 0 1-1.671 0l-3.461-3.461a.5.5 0 0 0-.707.707l3.461 3.461c.426.425.984.638 1.543.638s1.117-.213 1.542-.638c.412-.412.64-.96.64-1.543s-.228-1.131-.64-1.542Z"/></svg>