<!-- SPDX-FileCopyrightText: © 2025 Schneider Electric SPDX-License-Identifier: LicenseRef-Proprietary -->
<svg xmlns="http://www.w3.org/2000/svg" viewBox="0 0 16 16"><path d="m14.777 11.757-3.578-2.382.163-6.223a.5.5 0 0 0-.242-.442l-1.531-.92a.5.5 0 0 0-.311-.068l-1.629.174a.5.5 0 0 0-.3.851 4.2 4.2 0 0 1-1.125.209c-.639.038-1.118-.052-1.374-.145.243-.121.708-.264 1.344-.3a.5.5 0 0 0-.058-.998c-.785.045-1.777.267-2.21.754a.83.83 0 0 0-.229.612c.051.843 1.337 1.15 2.583 1.075.784-.045 1.777-.267 2.209-.754a.9.9 0 0 0 .214-.411l.512-.055 1.137.684-.162 6.208a.5.5 0 0 0 .223.429l3.585 2.387v1.104l-7.104 1.369L1.998 9.99V1.787L7.351.949a.5.5 0 0 0-.154-.988L1.423.865A.5.5 0 0 0 1 1.359v8.836c0 .132.052.259.146.353l5.229 5.26a.5.5 0 0 0 .449.138l7.771-1.497a.5.5 0 0 0 .405-.491v-1.785a.5.5 0 0 0-.223-.416Z"/><path d="M6.58 9.452a.5.5 0 1 0-.492.871c.302.171.637.252.98.252.907 0 1.871-.567 2.44-1.532.431-.731.566-1.566.371-2.292-.149-.558-.489-1.01-.956-1.274-1.101-.624-2.636-.05-3.42 1.28a3.2 3.2 0 0 0-.458 1.629q0 .046.008.089a.5.5 0 0 0 .236.46c.061.038.621.365 1.684.233q.122-.017.236-.05a2.8 2.8 0 0 0 1.062-.565l.317-.346a.5.5 0 0 0-.007-.684l.023-.028a.5.5 0 0 0-.769-.639l-.317.382a.5.5 0 0 0 0 .64 2.2 2.2 0 0 1-.665.297 2.5 2.5 0 0 1-.797-.018 2.3 2.3 0 0 1 .307-.894c.501-.849 1.447-1.267 2.066-.918.297.168.426.453.482.663.124.461.024 1.032-.267 1.525-.5.849-1.444 1.27-2.066.917Z"/></svg>