<!-- SPDX-FileCopyrightText: undefined SPDX-License-Identifier: undefined -->
<svg xmlns="http://www.w3.org/2000/svg" viewBox="0 0 16 16"><path d="M4.589 16.002a.6.6 0 0 1-.251-.057c-.38-.172-.396-.614-.403-.781-.028-.733-.894-1.373-1.466-1.796-.467-.346-.776-.573-.776-.946 0-.167.094-.605.464-2.265.394-1.766 1.053-4.72 1.028-5.257-.02-.442-1.13-.653-1.664-.754-.522-.1-.811-.154-.975-.41C.469 3.616-.302 1.918.14 1.21A.72.72 0 0 1 .855.878c.272.04.913-.361 1.342-.749A.49.49 0 0 1 2.62.007C2.665.015 7.189.8 8.891.689c.931-.062 1.496.335 1.999.688.58.407 1.137.791 2.35.73.305-.024.511.199.524.474a.5.5 0 0 1-.474.525c-1.57.072-2.347-.471-2.975-.911-.455-.319-.795-.547-1.353-.51-1.607.12-5.306-.487-6.283-.654-.346.284-1.037.783-1.681.842.028.326.208.922.335 1.213a10 10 0 0 0 .373.076c.905.172 2.42.46 2.476 1.691.028.621-.438 2.772-1.052 5.52-.174.78-.353 1.583-.417 1.923.091.076.234.182.347.266.642.474 1.573 1.162 1.814 2.152.74-.597 2.172-1.693 4.352-1.146.338-.581.959-1.481 1.671-1.743.209-.696.502-1.443.881-1.871-.314-.936-.562-3.333 3.429-6.189a.5.5 0 1 1 .582.814c-4.228 3.027-3.027 5.177-2.975 5.267a.506.506 0 0 1-.284.74c-.151.114-.528.979-.753 1.799a.5.5 0 0 1-.482.368h-.007c-.272 0-.938.794-1.372 1.637a.5.5 0 0 1-.602.246c-1.952-.649-3.155.327-3.873.908-.299.242-.566.458-.854.458Z"/></svg>