<!-- SPDX-FileCopyrightText: © 2025 Schneider Electric SPDX-License-Identifier: LicenseRef-Proprietary -->
<svg xmlns="http://www.w3.org/2000/svg" viewBox="0 0 16 16"><path d="M13.674 1.707a.5.5 0 0 0-.696.125.5.5 0 0 0 .125.695C14.291 3.353 15 4.709 15 6.152s-.709 2.799-1.897 3.625a.498.498 0 0 0 .286.91.5.5 0 0 0 .285-.09C15.131 9.584 16 7.922 16 6.152s-.87-3.433-2.326-4.445ZM12.42 5.536a1.83 1.83 0 0 0-1.282-1.75V.5a.502.502 0 0 0-.742-.438L6.625 2.151H3.522C1.848 2.151.398 3.273.076 4.818c-.357 1.709.566 3.363 2.197 3.934a.5.5 0 1 0 .33-.944C1.453 7.406.802 6.234 1.055 5.023c.227-1.085 1.264-1.872 2.467-1.872h3.232a.5.5 0 0 0 .242-.062l3.142-1.74v2.854a.5.5 0 0 0 .479.5.835.835 0 0 1 .002 1.666.5.5 0 0 0-.481.5V9.81L6.846 8.377a.498.498 0 0 0-.69.558l1.023 4.938a.83.83 0 0 1-.498 1.067.85.85 0 0 1-.649-.027.84.84 0 0 1-.422-.422L4.487 9.634a.5.5 0 0 0-.975.225l1.14 4.916c.169.465.509.836.958 1.045a1.84 1.84 0 0 0 1.414.061 1.82 1.82 0 0 0 1.035-.948c.207-.443.229-.941.081-1.33L7.331 9.68l3.107 1.353a.5.5 0 0 0 .7-.458V7.288a1.825 1.825 0 0 0 1.282-1.749Z"/><path d="M14.242 6.152a3.66 3.66 0 0 0-1.56-2.994.499.499 0 1 0-.574.818c.71.498 1.134 1.312 1.134 2.176s-.424 1.679-1.133 2.176a.5.5 0 0 0 .573.818 3.66 3.66 0 0 0 1.56-2.994Z"/></svg>