<!-- SPDX-FileCopyrightText: © 2025 Schneider Electric SPDX-License-Identifier: LicenseRef-Proprietary -->
<svg xmlns="http://www.w3.org/2000/svg" viewBox="0 0 16 16"><path d="M10.5 14h-5a.5.5 0 0 0 0 1h5a.5.5 0 0 0 0-1Z"/><path d="M16 8.5a.5.5 0 0 0-.016-.126 7.98 7.98 0 0 0-2.286-5.102q-.019-.024-.042-.047c-.023-.023-.031-.029-.047-.042C12.164 1.76 10.182.881 7.999.881s-4.164.88-5.609 2.303q-.024.019-.047.042c-.023.023-.029.031-.042.047A7.98 7.98 0 0 0 .016 8.374a.5.5 0 0 0-.01.202 7.96 7.96 0 0 0 2.356 5.981.5.5 0 0 0 .688-.019l1.11-1.11a.5.5 0 0 0-.707-.707l-.745.744A6.95 6.95 0 0 1 1 8.999h1.499a.5.5 0 0 0 0-1H1.054A7 7 0 0 1 2.71 4.3l.742.742a.5.5 0 0 0 .707-.707l-.742-.742a7 7 0 0 1 3.582-1.64v1.546a.5.5 0 0 0 1 0V1.881c1.75 0 3.353.646 4.582 1.711l-.742.742a.5.5 0 0 0 .707.707l.742-.742a6.97 6.97 0 0 1 1.656 3.699h-1.445a.5.5 0 0 0 0 1h1.499a6.95 6.95 0 0 1-1.708 4.467l-.745-.745a.5.5 0 0 0-.707.707l1.11 1.11a.5.5 0 0 0 .699.008l.017-.016a7.95 7.95 0 0 0 2.329-5.956l.006-.076Z"/><path d="m10.374 7.331-1.089.462a1.688 1.688 0 0 0-2.961 1.258l-2.631 1.117a.5.5 0 1 0 .39.92l2.632-1.117c.171.202.392.367.653.473a.5.5 0 0 0 .375-.927.685.685 0 1 1 .891-.378.501.501 0 0 0 .928.374 1.7 1.7 0 0 0 .113-.799l1.089-.462a.5.5 0 0 0-.391-.921Z"/></svg>