<!-- SPDX-FileCopyrightText: © 2025 Schneider Electric SPDX-License-Identifier: LicenseRef-Proprietary -->
<svg xmlns="http://www.w3.org/2000/svg" viewBox="0 0 16 16"><path d="m5.306 9.875 1.139-.379a1.685 1.685 0 0 0 3.188-1.058l2.561-.851a.5.5 0 0 0-.315-.949l-2.791.927c-.294-.25-.674-.4-1.088-.4a.5.5 0 0 0 0 1c.178 0 .339.068.461.179a.5.5 0 0 0 .148.194.685.685 0 1 1-1.293.311c0-.355-.421-.595-.72-.449l-.08.02-1.525.507a.5.5 0 0 0 .315.949Z"/><path d="M16 8.5a.5.5 0 0 0-.013-.115 7.97 7.97 0 0 0-2.289-5.146q-.019-.024-.042-.047c-.023-.023-.031-.029-.047-.042C12.164 1.727 10.182.848 7.999.848s-4.164.88-5.609 2.303q-.024.019-.047.042c-.023.023-.029.031-.042.047A7.97 7.97 0 0 0 .013 8.385a.5.5 0 0 0-.008.185 7.96 7.96 0 0 0 2.357 5.954.5.5 0 0 0 .688-.019l1.11-1.11a.5.5 0 0 0-.707-.707l-.745.744A6.95 6.95 0 0 1 1 8.999h1.499a.5.5 0 0 0 0-1H1.05a7 7 0 0 1 1.66-3.732l.742.742a.5.5 0 0 0 .707-.707l-.742-.742a7 7 0 0 1 3.582-1.64V3.5a.5.5 0 0 0 1 0V1.849c1.75 0 3.353.646 4.582 1.711l-.742.742a.5.5 0 0 0 .707.707l.742-.742a6.97 6.97 0 0 1 1.66 3.732h-1.449a.5.5 0 0 0 0 1h1.499a6.95 6.95 0 0 1-1.708 4.434l-.745-.745a.5.5 0 0 0-.707.707l1.11 1.11a.5.5 0 0 0 .699.008l.017-.016a7.95 7.95 0 0 0 2.33-5.929l.005-.07Z"/><path d="M10.5 14h-5a.5.5 0 0 0 0 1h5a.5.5 0 0 0 0-1Z"/></svg>