<!-- SPDX-FileCopyrightText: © 2025 Schneider Electric SPDX-License-Identifier: LicenseRef-Proprietary -->
<svg xmlns="http://www.w3.org/2000/svg" viewBox="0 0 16 16"><path d="M12.097 14.209S12 7.78 12 7.117c0-1.21-.408-1.947-.431-1.985l-.667-1.133a.499.499 0 1 0-.862.507l.477.811-.066.021c-2.168.86-3.478.163-3.54.129a.5.5 0 0 0-.498.867c.071.042 1.751.986 4.406-.067a1 1 0 0 0 .083-.042c.054.236.097.537.097.893 0 .665.097 7.108.1 7.151.009.11-.008.378-.354.482-.659.198-2.042.247-2.519.25a.5.5 0 0 0-.133.019.5.5 0 0 0-.126-.019c-.53-.01-2.05-.078-2.712-.276-.346-.104-.363-.372-.352-.525 0 0 .097-6.443.097-7.108 0-.925.292-1.479.292-1.479l1.474-2.504a.5.5 0 0 0 .047-.107H7.5a.5.5 0 0 0 0-1H7v-1h2v1.5a.5.5 0 0 0 1 0V.5a.5.5 0 0 0-.5-.5h-3a.5.5 0 0 0-.5.5v1.982a.5.5 0 0 0-.096.118L4.426 5.112C4.408 5.143 4 5.88 4 7.09c0 .661-.096 7.042-.093 7.042-.049.411.109 1.264 1.061 1.549.929.278 2.898.317 2.981.319h.009a.5.5 0 0 0 .136-.019.5.5 0 0 0 .135.019c.07-.028 1.859-.009 2.803-.293a1.43 1.43 0 0 0 1.064-1.498Z"/></svg>