<!-- SPDX-FileCopyrightText: © 2025 Schneider Electric SPDX-License-Identifier: LicenseRef-Proprietary -->
<svg xmlns="http://www.w3.org/2000/svg" viewBox="0 0 16 16"><path d="M11.747 3.836a.5.5 0 0 0-.707.707c.924.923 1.432 2.151 1.432 3.457s-.508 2.533-1.432 3.457a.5.5 0 0 0 .708.707C12.86 11.052 13.473 9.573 13.473 8s-.612-3.052-1.725-4.164ZM7.937 0H2.063A2.065 2.065 0 0 0 0 2.063v11.869A2.07 2.07 0 0 0 2.068 16h5.863a2.07 2.07 0 0 0 2.068-2.068V9.5a.5.5 0 0 0-1 0v4.432A1.07 1.07 0 0 1 7.931 15H2.068A1.07 1.07 0 0 1 1 13.932V2.063C1 1.477 1.477 1 2.063 1h5.874C8.523 1 9 1.477 9 2.063V5.5a.5.5 0 0 0 1 0V2.063A2.065 2.065 0 0 0 7.937 0Z"/><path d="M13.535 2.048a.5.5 0 0 0-.707.707c2.892 2.892 2.892 7.597 0 10.49a.5.5 0 0 0 .708.707c3.281-3.282 3.281-8.623 0-11.904ZM6.383 2.5a.5.5 0 0 0-.5-.5h-3a.5.5 0 0 0 0 1h3a.5.5 0 0 0 .5-.5Zm1.327-.47a.495.495 0 0 0-.54.11c-.05.04-.09.1-.11.16-.03.06-.04.13-.04.19 0 .13.05.26.15.36a.5.5 0 0 0 .54.1c.06-.02.12-.06.17-.1.09-.1.14-.23.14-.36 0-.06-.01-.13-.04-.19a.45.45 0 0 0-.27-.27ZM5.5 13h-1a.5.5 0 0 0 0 1h1a.5.5 0 0 0 0-1Z"/></svg>