<!-- SPDX-FileCopyrightText: © 2025 Schneider Electric SPDX-License-Identifier: LicenseRef-Proprietary -->
<svg xmlns="http://www.w3.org/2000/svg" viewBox="0 0 16 16"><path d="M15.917 11.771a.5.5 0 0 0-.533-.21 3.5 3.5 0 0 0-.511.188c-.144.062-.339.146-.427.158-4.614.67-8.914-2.505-9.587-7.071-.202-1.374-.036-2.772.496-4.157a.5.5 0 0 0-.707-.618C1.411 1.835-.423 5.338.084 8.777c.614 4.165 4.384 7.224 8.659 7.224q.526 0 1.06-.063a.5.5 0 1 0-.117-.993c-4.169.489-8.026-2.339-8.612-6.314-.384-2.607.771-5.262 2.933-6.954a8.9 8.9 0 0 0-.137 3.305c.724 4.906 5.17 8.389 10.105 7.984a8.5 8.5 0 0 1-1.24.935.5.5 0 0 0 .518.856c.973-.59 1.988-1.515 2.65-2.412a.5.5 0 0 0 .015-.573Z"/></svg>