<!-- SPDX-FileCopyrightText: © 2025 Schneider Electric SPDX-License-Identifier: LicenseRef-Proprietary -->
<svg xmlns="http://www.w3.org/2000/svg" viewBox="0 0 16 16"><path d="M13.751 3.081a.5.5 0 0 0 .354-.146l.604-.604a.5.5 0 0 0-.707-.707l-.604.604a.5.5 0 0 0 .354.853ZM8.433 7.12l-.604.604a.5.5 0 0 0 .708.707l.604-.604a.5.5 0 0 0-.707-.707Zm2.214 1.178v1.067a.5.5 0 0 0 1 0V8.298a.5.5 0 0 0-1 0ZM8.834 4.942c0 1.276 1.038 2.313 2.313 2.313s2.313-1.038 2.313-2.313a2.326 2.326 0 0 0-2.128-2.307.5.5 0 0 0-.081.997 1.32 1.32 0 0 1 1.208 1.31c0 .724-.589 1.313-1.313 1.313A1.314 1.314 0 0 1 10.1 4.148a.5.5 0 0 0-.096-.7.497.497 0 0 0-.7.096 2.3 2.3 0 0 0-.471 1.398Zm2.313-2.875a.5.5 0 0 0 .5-.5V.5a.5.5 0 0 0-1 0v1.067a.5.5 0 0 0 .5.5ZM6.771 5.442h1.066a.5.5 0 0 0 0-1H6.771a.5.5 0 0 0 0 1Zm1.748-2.755a.5.5 0 0 0 .708 0 .5.5 0 0 0 0-.707l-.604-.604a.5.5 0 0 0-.707.707zM15.5 4.442h-1.066a.5.5 0 0 0 0 1H15.5a.5.5 0 0 0 0-1ZM13.982 6.9a.5.5 0 0 0-.707.707l.604.604a.5.5 0 0 0 .708 0 .5.5 0 0 0 0-.707z"/><path d="M13.231 13.566c-.026-.01-2.652-.951-5.483-3.696-2.797-2.71-3.935-7.303-3.946-7.349a.5.5 0 0 0-.972.235c.048.2 1.213 4.917 4.221 7.832 3.001 2.909 5.735 3.883 5.851 3.923a.5.5 0 0 0 .636-.308.5.5 0 0 0-.307-.637Zm-5.094-.142a4.56 4.56 0 0 1-3.396-.869 4.54 4.54 0 0 1-1.786-3.016 4.5 4.5 0 0 1 .136-1.937.5.5 0 0 0-.74-.568 4.85 4.85 0 0 0-2.272 4.829 4.86 4.86 0 0 0 5.496 4.113.5.5 0 0 0 .424-.566.506.506 0 0 0-.566-.424 3.86 3.86 0 0 1-4.364-3.266 3.85 3.85 0 0 1 .84-2.997q-.013.476.056.958a5.54 5.54 0 0 0 2.177 3.674c.82.615 1.771.984 2.784 1.084l-.076.047a.501.501 0 0 0 .512.86 4.8 4.8 0 0 0 1.292-1.12c.129-.159.119-.379.018-.558s-.332-.267-.534-.244Z"/></svg>