<!-- SPDX-FileCopyrightText: © 2025 Schneider Electric SPDX-License-Identifier: LicenseRef-Proprietary -->
<svg xmlns="http://www.w3.org/2000/svg" viewBox="0 0 16 16"><path d="M15.977 3.07a.5.5 0 0 0-.386-.34l-2.333-.432L12.174.264a.5.5 0 0 0-.882 0l-1.104 2.067-2.346.396a.499.499 0 0 0-.272.844l1.332 1.351a.5.5 0 1 0 .712-.702l-.658-.667 1.642-.277a.5.5 0 0 0 .357-.258l.778-1.458.756 1.419a.5.5 0 0 0 .351.256l1.652.306-1.159 1.195a.5.5 0 0 0-.135.425l.254 1.634-1.504-.716a.5.5 0 0 0-.43 0l-1.509.718.047-.304a.5.5 0 1 0-.988-.152l-.19 1.237a.499.499 0 0 0 .709.528l2.146-1.021 2.144 1.021a.51.51 0 0 0 .514-.051.5.5 0 0 0 .195-.478l-.362-2.324 1.635-1.686a.5.5 0 0 0 .118-.5Z"/><path d="M12.358 13.104h-.037c-3.343 0-6.276-2.019-7.306-5.03-.7-2.047-.621-4.113.229-5.975a.5.5 0 0 0-.653-.666A7.59 7.59 0 0 0 0 8.408C0 12.594 3.41 16 7.602 16a.5.5 0 0 0 0-1C3.962 15 1 12.043 1 8.408a6.59 6.59 0 0 1 2.868-5.441c-.48 1.74-.416 3.625.201 5.43 1.032 3.02 3.739 5.159 6.997 5.616a6.4 6.4 0 0 1-.941.483.5.5 0 0 0 .383.924 7.6 7.6 0 0 0 2.251-1.45c.151-.141.169-.358.094-.55-.075-.191-.29-.316-.496-.316Z"/></svg>