<!-- SPDX-FileCopyrightText: © 2025 Schneider Electric SPDX-License-Identifier: LicenseRef-Proprietary -->
<svg xmlns="http://www.w3.org/2000/svg" viewBox="0 0 16 16"><path d="M12.483 7.605c0 .274.223.497.497.497h2.341a.498.498 0 0 0 0-.994H12.98a.5.5 0 0 0-.497.497Zm-7.406 3.103a.493.493 0 0 0 .703 0 .495.495 0 0 0 0-.702 3 3 0 0 1-.876-2.125c0-1.646 1.32-2.984 2.943-2.984s2.943 1.339 2.943 2.984a.498.498 0 0 0 .994 0c0-2.194-1.767-3.979-3.937-3.979S3.91 5.687 3.91 7.881c0 1.069.414 2.073 1.166 2.826Zm6.496-6.036a.5.5 0 0 0 .354-.148l1.145-1.158a.497.497 0 0 0-.707-.699L11.22 3.825a.497.497 0 0 0 .354.847ZM7.848 3.366a.5.5 0 0 0 .497-.497V.5a.497.497 0 1 0-.994 0v2.369c0 .274.223.497.497.497Zm-3.251 7.869a.5.5 0 0 0-.703.004l-1.145 1.158a.497.497 0 0 0 .707.7l1.145-1.158a.497.497 0 0 0-.004-.703Z"/><path d="M15.601 12.472a1.81 1.81 0 0 0-1.53-.854h-.243c-.076.014-.235.002-.354.01a3.5 3.5 0 0 0-3.359-2.546c-1.317 0-2.481.749-3.106 1.978a2.41 2.41 0 0 0-1.919 1.091c-.491.764-.525 1.744-.094 2.691.296.647 1.097 1.155 1.822 1.155h1.483a.498.498 0 0 0 0-.994H6.818c-.336 0-.783-.279-.917-.574-.288-.633-.279-1.268.025-1.74.261-.406.705-.639 1.218-.639h.186a.5.5 0 0 0 .459-.308c.423-1.027 1.315-1.666 2.327-1.666 1.258 0 2.323.944 2.479 2.196a.5.5 0 0 0 .652.409c.202-.068.338-.048.582-.068h.243c.277 0 .538.145.683.38.295.479.33.994.097 1.411-.21.375-.592.6-1.021.6H9.863a.498.498 0 0 0 0 .994h3.968c.783 0 1.507-.425 1.889-1.108.408-.729.364-1.633-.116-2.417ZM3.895 4.524a.494.494 0 0 0 .703.004.497.497 0 0 0 .004-.703L3.457 2.667a.496.496 0 1 0-.707.699zm-.558 3.081a.5.5 0 0 0-.497-.497H.5a.498.498 0 0 0 0 .994h2.34a.5.5 0 0 0 .497-.497Z"/></svg>