<!-- SPDX-FileCopyrightText: © 2025 Schneider Electric SPDX-License-Identifier: LicenseRef-Proprietary -->
<svg xmlns="http://www.w3.org/2000/svg" viewBox="0 0 16 16"><path d="M15.967 6.072a.5.5 0 0 0-.348-.307S10.67 4.549 10.041 4.38c-.636-.167-1.515.276-2.014.578-1.228-.78-1.97-.598-2.084-.558L.375 5.828a.501.501 0 0 0 .249.969l5.579-1.432c.006 0 .538-.11 1.526.598a.5.5 0 0 0 .573.007c.506-.347 1.241-.684 1.48-.624.478.128 3.446.86 4.855 1.207-.719.885-2.246 2.552-4.16 3.445-2.599 1.211-4.242.649-6.166-.704a21 21 0 0 1-1.053-.969 25 25 0 0 0 4.55.441c3.321 0 4.875-.801 4.939-.835a.5.5 0 0 0-.465-.885c-.014.007-1.434.721-4.475.721-3.121 0-5.719-.73-5.745-.737a.5.5 0 0 0-.596.679c.304.7 1.879 2.076 2.229 2.374 1.339.944 2.639 1.578 4.162 1.578.914 0 1.908-.229 3.039-.756 2.927-1.365 4.928-4.25 5.012-4.372a.5.5 0 0 0 .055-.461Z"/></svg>