<!-- SPDX-FileCopyrightText: © 2025 Schneider Electric SPDX-License-Identifier: LicenseRef-Proprietary -->
<svg xmlns="http://www.w3.org/2000/svg" viewBox="0 0 16 16"><path d="M12.609 5.446a.5.5 0 0 0 .682-.19l.34-.602a.501.501 0 0 0-.871-.493l-.34.602a.5.5 0 0 0 .189.682Zm-1.205-3.235-.623.298a.5.5 0 1 0 .432.902l.623-.298a.5.5 0 1 0-.432-.902Zm3.708 1.231q.247 0 .491-.051a.5.5 0 0 0-.207-.978c-.819.176-1.628-.476-1.628-1.313q0-.226.072-.437a.5.5 0 0 0-.311-.635.5.5 0 0 0-.635.31 2.343 2.343 0 0 0 2.217 3.105ZM10.5 1h1a.5.5 0 0 0 0-1h-1a.5.5 0 0 0 0 1Zm5 3a.5.5 0 0 0-.5.5v1a.5.5 0 0 0 1 0v-1a.5.5 0 0 0-.5-.5Z"/><path d="M15.5 7a.5.5 0 0 0-.5.5V9H7V7.502l2.479-1.82 2.602 1.892a.5.5 0 0 0 .588-.808L9.772 4.659a.5.5 0 0 0-.59.001L6.364 6.729a.5.5 0 0 0-.164-.2q-.1-.074-.196-.153c-.335-.271-.817-.636-1.658-.633-.26.002-.532.064-.805.183L3.329 4.7c.238-.212.647-.502 1.025-.505h.016c.692 0 1.487.345 1.837.594a.5.5 0 0 0 .268.096h.039a.5.5 0 0 0 .33-.135l1.567-1.462a.5.5 0 0 0-.683-.731l-.726.678V1h1.482a.5.5 0 0 0 0-1H6.502a.5.5 0 0 0-.5.5v3.055a4.5 4.5 0 0 0-1.656-.36c-1.019.009-1.838.901-1.928 1.002a.5.5 0 0 0-.119.417l1.28 7.387a3.5 3.5 0 0 0-1.361-.02c-1.451.26-2.393 1.307-2.192 2.437.165.917 1.044 1.552 2.197 1.582h.052c.901 0 1.706-.305 2.214-.842a.5.5 0 1 0-.726-.687c-.322.34-.875.527-1.522.529-.658-.017-1.153-.321-1.231-.758-.1-.559.507-1.119 1.382-1.275.587-.106 1.177-.008 1.541.253a.5.5 0 0 0 .784-.491l-1-5.771c.19-.115.415-.212.634-.214.506-.008.724.17 1.023.412q.119.097.24.186a.5.5 0 0 0 .385.085v2.074a.5.5 0 0 0 .5.5h3.077l.206 1.039a3.4 3.4 0 0 0-1.272-.01c-1.408.253-2.323 1.271-2.126 2.37s1.403 1.738 2.817 1.486a3.26 3.26 0 0 0 1.468-.645.5.5 0 1 0-.626-.779 2.3 2.3 0 0 1-1.019.439c-.83.153-1.561-.148-1.656-.678-.094-.529.485-1.061 1.319-1.21.561-.099 1.125-.008 1.474.241a.5.5 0 0 0 .782-.503l-.347-1.752H15.5a.5.5 0 0 0 .5-.5v-2a.5.5 0 0 0-.5-.5Z"/></svg>