<!-- SPDX-FileCopyrightText: © 2025 Schneider Electric SPDX-License-Identifier: LicenseRef-Proprietary -->
<svg xmlns="http://www.w3.org/2000/svg" viewBox="0 0 16 16"><path d="M14.815 10.006 13 .5a.5.5 0 0 0-.685-.465C7.994 1.749 6.966 1.142 6.954 1.132c-1.49-1.196-3.46.018-3.543.071-.172.108-.244.379-.208.579l1.657 9.416a3.5 3.5 0 0 0-1.09.176c-1.485.483-2.844 1.936-2.418 3.247.285.876 1.177 1.38 2.274 1.38.402 0 .832-.067 1.269-.209 1.248-.406 2.153-1.287 2.308-2.244a.5.5 0 0 0-.415-.573.5.5 0 0 0-.573.415c-.092.572-.762 1.169-1.629 1.451-1.07.349-2.073.115-2.282-.528-.187-.574.597-1.604 1.776-1.987.448-.145.883-.167 1.251-.059a.5.5 0 0 0 .633-.567L4.641 4.183c.254-.167.855-.42 1.652.139.321.335 1.426.931 4.894-.463a.499.499 0 1 0-.373-.927c-1.669.67-2.646.817-3.186.817-.458 0-.589-.096-.588-.088a.5.5 0 0 0-.112-.114c-.963-.705-1.856-.645-2.468-.394l-.221-1.256c.47-.218 1.403-.536 2.046-.023.261.264 1.429.964 5.833-.689l1.73 9.071c.097.296-.018.713-.306 1.115a2.8 2.8 0 0 1-1.373 1.002c-.555.181-1.14.204-1.605.063-.236-.071-.652-.25-.781-.647-.13-.398.102-.787.251-.983.295-.388.782-.714 1.336-.894a4.3 4.3 0 0 1 1.091-.206.5.5 0 0 0 .476-.522c-.013-.275-.246-.509-.522-.476a5.3 5.3 0 0 0-1.353.253c-.754.245-1.401.686-1.823 1.238-.462.608-.606 1.282-.406 1.898.197.607.724 1.08 1.444 1.296.667.201 1.45.176 2.202-.069a3.8 3.8 0 0 0 1.877-1.371c.479-.669.642-1.401.46-1.946Z"/></svg>