<!-- SPDX-FileCopyrightText: © 2025 Schneider Electric SPDX-License-Identifier: LicenseRef-Proprietary -->
<svg xmlns="http://www.w3.org/2000/svg" viewBox="0 0 16 16"><path d="M7.349 4.196a.5.5 0 0 0-.293.644c.357.954.538 1.956.538 2.978 0 .919-.145 1.816-.43 2.677L1.125 5.211a.5.5 0 0 0-.812.247 9.06 9.06 0 0 0 .122 5.13.5.5 0 1 0 .952-.307 8.04 8.04 0 0 1-.281-3.759l5.942 5.197a.497.497 0 0 0 .789-.18 9.45 9.45 0 0 0 .758-3.723 9.5 9.5 0 0 0-.601-3.329.5.5 0 0 0-.644-.293Zm7.329-2.942a.5.5 0 0 0-.922.389A15.8 15.8 0 0 1 15 7.818a15.8 15.8 0 0 1-1.403 6.529.501.501 0 0 0 .912.41A16.8 16.8 0 0 0 16 7.818c0-2.275-.445-4.484-1.322-6.563ZM10.669 2.6a.5.5 0 0 0-.276.651 12.1 12.1 0 0 1 .888 4.566c0 1.708-.35 3.363-1.038 4.921a.499.499 0 1 0 .914.404 13.1 13.1 0 0 0 1.124-5.325 13.1 13.1 0 0 0-.96-4.941.5.5 0 0 0-.651-.276Z"/></svg>