<!-- SPDX-FileCopyrightText: © 2025 Schneider Electric SPDX-License-Identifier: LicenseRef-Proprietary -->
<svg xmlns="http://www.w3.org/2000/svg" viewBox="0 0 16 16"><path d="M15.5 14a.5.5 0 0 0-.5.5v.5h-4v-1.399l.008-.004c2.464-1.221 4.056-3.765 4.056-6.482C15.064 3.192 11.873 0 7.949 0S.833 3.192.833 7.115A7.18 7.18 0 0 0 5 13.609v1.392H1v-.5a.5.5 0 0 0-1 0v1a.5.5 0 0 0 .5.5h5a.5.5 0 0 0 .5-.5v-2a.5.5 0 0 0-.275-.447.5.5 0 0 0-.279-.341 6.18 6.18 0 0 1-3.613-5.597C1.833 3.743 4.576 1 7.948 1s6.115 2.743 6.115 6.115c0 2.304-1.406 4.549-3.5 5.585a.5.5 0 0 0-.267.343.5.5 0 0 0-.297.457v2a.5.5 0 0 0 .5.5h5a.5.5 0 0 0 .5-.5v-1a.5.5 0 0 0-.5-.5Z"/></svg>