<!-- SPDX-FileCopyrightText: © 2025 Schneider Electric SPDX-License-Identifier: LicenseRef-Proprietary -->
<svg xmlns="http://www.w3.org/2000/svg" viewBox="0 0 16 16"><path d="M14.392 5.986a.51.51 0 0 0-.577-.41.5.5 0 0 0-.409.577L14.909 15H1.093l1.369-8h.262l1.979 1.909c-1.493.493-1.837 1.48-1.837 2.286 0 1.639 2.127 2.74 5.293 2.74 3.144 0 5.255-1.102 5.255-2.74 0-1.263-.912-2.706-3.377-3.095l1.697-1.978a.5.5 0 1 0-.76-.651L9.126 7.628s-.052.069-.135.146L8.89.493C8.886.217 8.629-.043 8.383 0a.5.5 0 0 0-.493.507l.098 7.103-.018-.022-1.857-2.086a.5.5 0 1 0-.747.665l1.823 2.042c.052.073.479.651 1.166.77A.7.7 0 0 0 8.507 9h.154c2.77 0 3.752 1.183 3.752 2.195 0 .844-1.491 1.74-4.255 1.74-2.687 0-4.293-.885-4.293-1.74 0-.335 0-1.224 1.916-1.513a.5.5 0 0 0 .159-.051h.002a.5.5 0 0 0 .145-.113.5.5 0 0 0 .101-.178q.032-.096.021-.202a.5.5 0 0 0-.154-.314L3.273 6.14A.5.5 0 0 0 2.926 6h-.885a.5.5 0 0 0-.493.416l-1.541 9A.5.5 0 0 0 .499 16h15a.498.498 0 0 0 .493-.584l-1.602-9.43Z"/></svg>