<!-- SPDX-FileCopyrightText: © 2025 Schneider Electric SPDX-License-Identifier: LicenseRef-Proprietary -->
<svg xmlns="http://www.w3.org/2000/svg" viewBox="0 0 16 16"><path d="M8.938 3.487a.5.5 0 1 0-1 0 .5.5 0 0 0 1 0Zm2.067 0a.5.5 0 1 0-1 0 .5.5 0 0 0 1 0Zm1.499-.5a.5.5 0 1 0 0 1 .5.5 0 0 0 0-1Zm-9.008 1a.5.5 0 1 0 0-1 .5.5 0 0 0 0 1Z"/><path d="M14.5 12a.5.5 0 0 0 .5-.5V2.393C15 1.625 14.375 1 13.607 1H2.393C1.625 1 1 1.625 1 2.393v11.213C1 14.375 1.625 15 2.394 15h11.214c.768 0 1.393-.625 1.393-1.394a.5.5 0 0 0-1 0 .394.394 0 0 1-.393.394H2.394A.395.395 0 0 1 2 13.606V2.393C2 2.176 2.176 2 2.393 2h11.214c.217 0 .393.176.393.393V11.5a.5.5 0 0 0 .5.5Z"/><path d="M5.272 10.728q.125.074.26.073a.5.5 0 0 0 .427-.24c.514-.843.336-1.389.207-1.788-.096-.295-.149-.458.031-.807a.5.5 0 0 0-.889-.457c-.37.72-.209 1.212-.092 1.573.106.327.165.508-.109.959a.5.5 0 0 0 .167.687Zm4.722.012a.505.505 0 0 0 .687-.171c.486-.81.312-1.355.186-1.754-.099-.31-.153-.48.03-.838a.5.5 0 0 0-.891-.456c-.371.724-.21 1.229-.093 1.598.105.331.163.513-.09.935a.5.5 0 0 0 .171.687Zm-2.41-.016a.5.5 0 0 0 .689-.156c.542-.857.373-1.405.25-1.805-.089-.29-.138-.449.041-.796a.5.5 0 0 0-.889-.457c-.364.71-.215 1.194-.106 1.547.098.317.156.508-.14.978a.5.5 0 0 0 .156.689Z"/><path d="M3 12.5a.5.5 0 0 0 .5.5h9a.5.5 0 0 0 .5-.5v-7a.5.5 0 0 0-.5-.5h-9a.5.5 0 0 0-.5.5v5a.5.5 0 0 0 1 0V6h8v6H3.5a.5.5 0 0 0-.5.5Z"/></svg>