<!-- SPDX-FileCopyrightText: © 2025 Schneider Electric SPDX-License-Identifier: LicenseRef-Proprietary -->
<svg xmlns="http://www.w3.org/2000/svg" viewBox="0 0 16 16"><path fill="currentColor" d="M2.5 5h7a.5.5 0 0 0 0-1H6.585V1.5a.5.5 0 0 0-1 0V4H2.5a.5.5 0 0 0 0 1Zm6.297 1.5a.5.5 0 0 0-.5-.5H3.5a.5.5 0 0 0 0 1h4.797a.5.5 0 0 0 .5-.5Zm2.048 1.855a.5.5 0 0 0 .686.172l4.227-2.536a.5.5 0 0 0 0-.858l-4.227-2.536a.5.5 0 0 0-.515.857l3.512 2.107-3.512 2.107a.5.5 0 0 0-.171.686ZM15.5 12a.5.5 0 0 0-.5.5v.5H1v-.5a.5.5 0 0 0-1 0v2a.5.5 0 0 0 1 0V14h14v.5a.5.5 0 0 0 1 0v-2a.5.5 0 0 0-.5-.5Zm-11-4a.5.5 0 0 0 0 1h2.65a.5.5 0 0 0 0-1zm-4 2a.5.5 0 0 0 .5-.5v-8a.5.5 0 0 0-1 0v8a.5.5 0 0 0 .5.5Z"/></svg>