<!-- SPDX-FileCopyrightText: © 2025 Schneider Electric SPDX-License-Identifier: LicenseRef-Proprietary -->
<svg xmlns="http://www.w3.org/2000/svg" viewBox="0 0 16 16"><path d="M7.5 0H2.278A1.28 1.28 0 0 0 1 1.278v13.443a1.28 1.28 0 0 0 1.278 1.278h4.123a.5.5 0 0 0 0-1H2.278A.28.28 0 0 1 2 14.721V1.278C2 1.125 2.125 1 2.278 1H7.5a.5.5 0 0 0 0-1Zm2 5h2a.5.5 0 0 0 0-1H10V1.487l3 2.203V6.5a.5.5 0 0 0 1 0V3.438a.5.5 0 0 0-.204-.403l-4-2.938A.5.5 0 0 0 9 .5v4a.5.5 0 0 0 .5.5Zm6.281 3.098a.5.5 0 0 0-.694.133l-4.202 6.191c-.388-.923-1.065-2.249-1.894-2.678a.5.5 0 1 0-.46.888c.666.345 1.428 2.038 1.752 3.024a.502.502 0 0 0 .889.125l4.742-6.988a.5.5 0 0 0-.133-.694Z"/></svg>