<!-- SPDX-FileCopyrightText: © 2025 Schneider Electric SPDX-License-Identifier: LicenseRef-Proprietary -->
<svg xmlns="http://www.w3.org/2000/svg" viewBox="0 0 16 16"><path d="M13.498 3.88 8.787.178a.499.499 0 0 0-.809.393V4.5a.5.5 0 0 0 .5.5h2.01a.5.5 0 0 0 0-1h-1.51V1.6l3.901 3.066a.26.26 0 0 1 .098.202v9.843c0 .156-.168.289-.367.289H3.389c-.199 0-.367-.133-.367-.289V1.29c0-.157.168-.29.367-.29h3.149a.5.5 0 0 0 0-1H3.389c-.753 0-1.367.579-1.367 1.29v13.421c0 .711.613 1.289 1.367 1.289h9.222c.753 0 1.367-.578 1.367-1.289V4.868c0-.382-.18-.752-.48-.988Z"/><path d="M5.523 6.041a.5.5 0 0 0 0 1h1.002l.162.351a2.14 2.14 0 0 0-.807 1.045l-.127-.127a.5.5 0 0 0-.353-.146H4.108a.5.5 0 0 0 0 1h1.085l.538.536v1.295h-.916a.5.5 0 0 0-.5.5v1.416a.5.5 0 0 0 1 0v-.916h.416v.087c0 1.241.835 2.075 2.079 2.075a.5.5 0 0 0 0-1c-.686 0-1.079-.392-1.079-1.075V9.304c0-.43.161-.805.443-1.03.258-.206.598-.267.984-.18.582.133 1.112.85 1.112 1.505v2.483q0 .345-.125.63a.5.5 0 1 0 .916.402c.139-.316.209-.664.209-1.032v-.087h.416v.916a.5.5 0 0 0 1 0v-1.416a.5.5 0 0 0-.5-.5h-.916V9.759l.55-.595h1.073a.5.5 0 0 0 0-1h-1.292a.5.5 0 0 0-.367.161l-.204.221a2.8 2.8 0 0 0-.649-.887l.293-.617h.803a.5.5 0 0 0 0-1H9.358a.5.5 0 0 0-.452.285l-.394.828a2.5 2.5 0 0 0-.876-.091l-.338-.732a.5.5 0 0 0-.454-.291z"/></svg>