<!-- SPDX-FileCopyrightText: © 2025 Schneider Electric SPDX-License-Identifier: LicenseRef-Proprietary -->
<svg xmlns="http://www.w3.org/2000/svg" viewBox="0 0 16 16"><path d="M13.612 3.912 9.849.245A.498.498 0 0 0 9 .602v3.897a.5.5 0 0 0 .5.5h2a.5.5 0 0 0 0-1H10V1.788l2.915 2.84a.28.28 0 0 1 .085.203v9.886a.283.283 0 0 1-.283.283H3.283A.283.283 0 0 1 3 14.717V1.283C3 1.127 3.127 1 3.283 1H7.5a.5.5 0 0 0 0-1H3.283C2.575 0 2 .576 2 1.283v13.434C2 15.425 2.576 16 3.283 16h9.434c.708 0 1.283-.575 1.283-1.283V4.831c0-.344-.142-.679-.388-.919Z"/><path d="M7.214 6.568q0 .393.229.606.23.213.658.213c.428 0 .503-.071.653-.213q.224-.213.224-.606 0-.405-.224-.617-.224-.213-.653-.213c-.429 0-.505.071-.658.213q-.23.213-.229.617Zm.888 1.715q-.378 0-.576.235-.2.235-.199.671v3.735q0 .426.199.661.198.234.576.234c.378 0 .442-.078.571-.234q.194-.235.194-.661V9.189q0-.436-.199-.671c-.199-.235-.321-.235-.566-.235Z"/></svg>