<!-- SPDX-FileCopyrightText: © 2025 Schneider Electric SPDX-License-Identifier: LicenseRef-Proprietary -->
<svg xmlns="http://www.w3.org/2000/svg" viewBox="0 0 16 16"><path d="M6.5 6h6a.5.5 0 0 0 0-1h-6a.5.5 0 0 0 0 1Z"/><path d="M13.71 0H5.29C4.579 0 4 .579 4 1.29V13.5a.5.5 0 0 0 1 0V1.29c0-.16.13-.29.29-.29h8.421c.16 0 .29.13.29.29v11.392A2.32 2.32 0 0 1 11.683 15H3c-.551 0-1-.448-1-1v-4h.5a.5.5 0 0 0 0-1h-1a.5.5 0 0 0-.5.5V14c0 1.103.897 2 2 2h8.682A3.32 3.32 0 0 0 15 12.682V1.29C15 .579 14.421 0 13.71 0Z"/><path d="M6.5 4h6a.5.5 0 0 0 0-1h-6a.5.5 0 0 0 0 1Zm0 4h6a.5.5 0 0 0 0-1h-6a.5.5 0 0 0 0 1Z"/></svg>