<!-- SPDX-FileCopyrightText: © 2025 Schneider Electric SPDX-License-Identifier: LicenseRef-Proprietary -->
<svg xmlns="http://www.w3.org/2000/svg" viewBox="0 0 16 16"><path d="M13.5 11h-4a.5.5 0 0 0 0 1h4a.5.5 0 0 0 0-1ZM9.103 2.907h.386c.304.1.512.384.512.709V4.5a.5.5 0 0 0 1 0v-.884c0-.803-.543-1.499-1.321-1.694a.5.5 0 0 0-.121-.015h-.455a.5.5 0 0 0 0 1ZM13.5 13h-4a.5.5 0 0 0 0 1h4a.5.5 0 0 0 0-1Z"/><path d="m15.583 7.753-2.822-1.729A.5.5 0 0 0 12 6.45V9.5a.5.5 0 0 0 .5.5h1a.5.5 0 0 0 0-1H13V7.335l2 1.206L14.989 15 8 14.989 8.011 7H10.5a.5.5 0 0 0 0-1H8.011C7.454 6 7 6.454 7 7.011v7.979c0 .558.454 1.011 1.011 1.011h6.979c.558 0 1.011-.453 1.011-1.011V8.542c0-.292-.133-.566-.417-.788Z"/><path d="M5.5 12H1.747A.75.75 0 0 1 1 11.254V3.747C1 3.335 1.335 3 1.747 3h.582l-.122.325A.5.5 0 0 0 2.676 4h5.04a.5.5 0 0 0 .479-.644l-.634-2.112A1.74 1.74 0 0 0 5.888-.001h-1.35c-.539 0-1.056.255-1.385.682a.5.5 0 0 0 .793.609.75.75 0 0 1 .592-.292h1.35c.332 0 .62.214.715.532l.441 1.468H3.397l.122-.325a.5.5 0 0 0-.469-.675H1.747A1.75 1.75 0 0 0 0 3.745v7.507c0 .963.784 1.746 1.747 1.746H5.5a.5.5 0 0 0 0-1Z"/></svg>