<!-- SPDX-FileCopyrightText: © 2025 Schneider Electric SPDX-License-Identifier: LicenseRef-Proprietary -->
<svg xmlns="http://www.w3.org/2000/svg" viewBox="0 0 16 16"><path d="M7 13H3v-1h2.5a.5.5 0 0 0 0-1h-3a.5.5 0 0 0-.5.5v2a.5.5 0 0 0 .5.5h5a.5.5 0 0 0 .5-.5v-2a.5.5 0 0 0-1 0zm2.5-5h-1a.5.5 0 0 0 0 1h1a.5.5 0 0 0 0-1Zm-1-3h1a.5.5 0 0 0 0-1H9V2.038l1.891 2.489a.8.8 0 0 1 .109.369v2.605a.5.5 0 0 0 1 0V4.896c0-.327-.133-.737-.313-.975L8.897.25a.5.5 0 0 0-.899.303V4.5c0 .276.225.5.501.5Z"/><path d="M9.5 6h-1a.5.5 0 0 0 0 1h1a.5.5 0 0 0 0-1Zm-7-1h4a.5.5 0 0 0 0-1h-4a.5.5 0 0 0 0 1Zm13 7H13V9.5a.5.5 0 0 0-1 0V12H9.5a.5.5 0 0 0 0 1H12v2.5a.5.5 0 0 0 1 0V13h2.5a.5.5 0 0 0 0-1Zm-13-3h4a.5.5 0 0 0 0-1h-4a.5.5 0 0 0 0 1Zm0-6h2a.5.5 0 0 0 0-1h-2a.5.5 0 0 0 0 1Z"/><path d="M8.5 15H1.29a.29.29 0 0 1-.29-.289V1.29c0-.16.13-.29.29-.29H6.5a.5.5 0 0 0 0-1H1.29C.579 0 0 .579 0 1.29v13.421C0 15.422.579 16 1.29 16H8.5a.5.5 0 0 0 0-1Z"/><path d="M2.5 7h4a.5.5 0 0 0 0-1h-4a.5.5 0 0 0 0 1Z"/></svg>