<!-- SPDX-FileCopyrightText: © 2025 Schneider Electric SPDX-License-Identifier: LicenseRef-Proprietary -->
<svg xmlns="http://www.w3.org/2000/svg" viewBox="0 0 16 16"><path d="M2.522 9.396a.5.5 0 0 0 .5-.5V1.29c0-.157.168-.29.367-.29h3.533a.5.5 0 0 0 0-1H3.389c-.753 0-1.367.579-1.367 1.29v7.607a.5.5 0 0 0 .5.5ZM8.886 5h1.896a.5.5 0 0 0 0-1H9.386V1.661l3.494 3.005a.26.26 0 0 1 .098.201v4.109a.5.5 0 0 0 1 0V4.867c0-.389-.175-.749-.463-.974L9.212.192a.5.5 0 0 0-.826.379V4.5a.5.5 0 0 0 .5.5ZM3.03 10.155q-.248 0-.38.132c-.132.132-.132.218-.132.389v3.6q0 .368-.18.564t-.532.22l-.24.016q-.176.009-.268.124c-.092.115-.092.167-.092.269a.44.44 0 0 0 .128.327.45.45 0 0 0 .352.12l.272-.016q.52-.032.872-.229.351-.194.532-.548.18-.352.18-.855v-3.592q0-.257-.132-.389-.131-.132-.38-.132Zm4.248.065H5.35q-.248 0-.384.132c-.136.132-.136.217-.136.388v4.656q0 .248.132.388t.38.141q.257 0 .384-.141a.56.56 0 0 0 .128-.388v-1.648h1.424q.928 0 1.432-.468t.504-1.3c0-.832-.168-.986-.504-1.296s-.813-.464-1.432-.464Zm.664 2.475q-.28.244-.824.244H5.854v-1.912h1.264q.544 0 .824.24t.28.712c0 .472-.093.554-.28.716Zm6.764.224q-.108-.107-.308-.107h-1.32q-.2 0-.308.096t-.108.28a.37.37 0 0 0 .108.28q.107.104.308.104h.88v1.303c-.145.044-.29.092-.439.121a3.4 3.4 0 0 1-.648.064q-.928 0-1.4-.512-.471-.513-.472-1.496 0-.649.204-1.097t.612-.684q.406-.236 1-.236.384 0 .695.08.313.08.616.256a.44.44 0 0 0 .292.064.4.4 0 0 0 .22-.12.5.5 0 0 0 .108-.489.42.42 0 0 0-.18-.216 2.8 2.8 0 0 0-.853-.364 4 4 0 0 0-.899-.107q-.68 0-1.217.204-.535.204-.907.584-.373.38-.568.916c-.195.536-.196.76-.196 1.208q0 .888.336 1.535.337.65.98 1 .645.353 1.58.353.44 0 .896-.084t.809-.212q.152-.056.22-.176c.068-.12.068-.179.068-.297v-1.943q0-.2-.108-.309Z"/></svg>