<!-- SPDX-FileCopyrightText: © 2025 Schneider Electric SPDX-License-Identifier: LicenseRef-Proprietary -->
<svg xmlns="http://www.w3.org/2000/svg" viewBox="0 0 16 16"><path d="M11.282 4.5a.5.5 0 0 0-.5-.5H9.386V1.661l3.494 3.005a.26.26 0 0 1 .098.201v4.109a.5.5 0 0 0 1 0V4.867c0-.389-.175-.749-.463-.974L9.212.192a.5.5 0 0 0-.826.379V4.5a.5.5 0 0 0 .5.5h1.896a.5.5 0 0 0 .5-.5Zm-8.76 4.896a.5.5 0 0 0 .5-.5V1.29c0-.157.168-.29.367-.29h3.533a.5.5 0 0 0 0-1H3.389c-.753 0-1.367.579-1.367 1.29v7.607a.5.5 0 0 0 .5.5Zm2.153 3.593c.254-.089.473-.214.633-.404a1.3 1.3 0 0 0 .296-.864 1.37 1.37 0 0 0-.22-.784q-.22-.328-.636-.504c-.416-.176-.613-.176-1.008-.176H1.82q-.264 0-.404.14c-.14.14-.14.228-.14.403v4.553q0 .264.14.404t.404.14h2.008q.904 0 1.412-.412.508-.411.508-1.164 0-.576-.328-.936c-.182-.2-.44-.322-.745-.396ZM2.26 11.032h1.304q.528 0 .788.204c.26.204.26.338.26.604s-.087.468-.26.604-.436.204-.788.204H2.26zm2.24 3.876q-.255.213-.8.212H2.26v-1.695H3.7q.544 0 .8.208t.256.64q0 .424-.256.636Zm2.72-4.716q-.248 0-.38.137-.132.135-.132.392v4.712q0 .248.132.388.131.141.38.141.257 0 .384-.141a.56.56 0 0 0 .128-.388v-4.712q0-.257-.132-.392-.131-.138-.38-.137Zm7.256.124q-.12-.124-.344-.124-.201 0-.312.076c-.111.076-.144.137-.208.26l-1.848 3.419-1.848-3.419q-.096-.184-.212-.26c-.116-.076-.183-.076-.316-.076q-.224 0-.352.124c-.128.124-.128.202-.128.356v4.808q0 .224.12.352.12.129.344.129.232 0 .348-.129a.5.5 0 0 0 .116-.352v-3.365l1.504 2.725q.072.128.168.195.096.068.248.068c.152 0 .182-.021.24-.064a.6.6 0 0 0 .168-.199l1.504-2.742v3.382q0 .224.12.352.12.129.345.129.232 0 .348-.129a.5.5 0 0 0 .116-.352v-4.808q0-.231-.12-.356Z"/></svg>