<!-- SPDX-FileCopyrightText: © 2025 Schneider Electric SPDX-License-Identifier: LicenseRef-Proprietary -->
<svg xmlns="http://www.w3.org/2000/svg" viewBox="0 0 16 16"><path d="M7 13H3v-1h2.5a.5.5 0 0 0 0-1h-3a.5.5 0 0 0-.5.5v2a.5.5 0 0 0 .5.5h5a.5.5 0 0 0 .5-.5v-2a.5.5 0 0 0-1 0zm2.5-5h-1a.5.5 0 0 0 0 1h1a.5.5 0 0 0 0-1Zm-1-3h1a.5.5 0 0 0 0-1H9V2.038l1.891 2.489a.8.8 0 0 1 .109.369v2.605a.5.5 0 0 0 1 0V4.896c0-.327-.133-.737-.313-.975L8.897.25a.501.501 0 0 0-.899.303V4.5c0 .276.225.5.501.5Zm-6 0h4a.5.5 0 0 0 0-1h-4a.5.5 0 0 0 0 1Z"/><path d="M9.5 6h-1a.5.5 0 0 0 0 1h1a.5.5 0 0 0 0-1Zm-1 9H1.29a.29.29 0 0 1-.29-.289V1.29c0-.16.13-.29.29-.29H6.5a.5.5 0 0 0 0-1H1.29C.579 0 0 .579 0 1.29v13.421C0 15.422.579 16 1.29 16H8.5a.5.5 0 0 0 0-1Zm7.392-3.304c-.054-.23-.272-.373-.499-.386l-.349.009a3 3 0 0 0-.217-.375c.086-.102.172-.21.23-.299a.5.5 0 0 0-.058-.621c-.681-.707-1.441-.878-1.525-.896a.5.5 0 0 0-.51.204l-.279.4a2.2 2.2 0 0 0-.588-.029c-.139-.195-.305-.449-.307-.45a.5.5 0 0 0-.327-.216.5.5 0 0 0-.382.087l-1.108.801a.5.5 0 1 0 .586.81l.689-.498c.343.488.529.632.874.476.085-.043.399-.011.632.061a.51.51 0 0 0 .558-.191l.256-.367c.11.05.242.12.38.218-.077.086-.139.15-.141.152a.5.5 0 0 0 .004.689c.192.2.339.444.424.707.067.21.272.359.488.346l.259-.007c.015.146.021.3.015.436l-.15-.032a.5.5 0 0 0-.591.352 1.9 1.9 0 0 1-.421.75.5.5 0 0 0-.051.614l.157.237q-.13.092-.315.182l-.06-.181a.5.5 0 0 0-.6-.332 1.8 1.8 0 0 1-.854.008c-.237-.061-.485.092-.581.315l-.075.16a4 4 0 0 1-.315-.197l.076-.101a.5.5 0 0 0 .007-.694 1.85 1.85 0 0 1-.43-.75.56.56 0 0 0-.333-.339.5.5 0 0 0-.213-.029l-.216.017q-.007-.171.015-.392c.062.008.104.014.113.014h0l.008.003c.266.082.502-.075.584-.339s-.108-.555-.371-.638c0 0-.454-.071-.705-.087a.48.48 0 0 0-.513.365c-.265.951-.055 1.713-.046 1.745.065.229.271.397.521.361l.334-.025q.105.233.252.443a7 7 0 0 0-.186.261.5.5 0 0 0 .075.639 4.8 4.8 0 0 0 1.399.88.5.5 0 0 0 .631-.253l.151-.321q.228.02.46 0c.044.117.091.236.133.321a.5.5 0 0 0 .574.265c.945-.244 1.461-.815 1.517-.88a.5.5 0 0 0 .04-.603l-.2-.304q.135-.196.236-.41c.101.016.201.029.284.035a.49.49 0 0 0 .479-.271c.332-.648.119-1.655.073-1.851Z"/><path d="M2.5 3h2a.5.5 0 0 0 0-1h-2a.5.5 0 0 0 0 1Zm0 6h4a.5.5 0 0 0 0-1h-4a.5.5 0 0 0 0 1Zm0-2h4a.5.5 0 0 0 0-1h-4a.5.5 0 0 0 0 1Z"/><circle cx="12.467" cy="12.487" r=".5"/></svg>