<!-- SPDX-FileCopyrightText: © 2025 Schneider Electric SPDX-License-Identifier: LicenseRef-Proprietary -->
<svg xmlns="http://www.w3.org/2000/svg" viewBox="0 0 16 16"><path d="M8.886 5h1.896a.5.5 0 0 0 0-1H9.386V1.661l3.494 3.005a.26.26 0 0 1 .098.201v4.109a.5.5 0 0 0 1 0V4.867c0-.389-.175-.749-.463-.974L9.212.192a.5.5 0 0 0-.826.379V4.5a.5.5 0 0 0 .5.5ZM2.522 9.396a.5.5 0 0 0 .5-.5V1.29c0-.157.168-.29.367-.29h3.533a.5.5 0 0 0 0-1H3.389c-.753 0-1.367.579-1.367 1.29v7.607a.5.5 0 0 0 .5.5Zm.91.871H1.504q-.248 0-.384.132-.136.133-.136.388v4.656q0 .248.132.388.131.141.38.141.256 0 .384-.141a.56.56 0 0 0 .128-.388v-1.648h1.424q.928 0 1.432-.468t.504-1.3c0-.832-.168-.986-.504-1.296s-.813-.464-1.432-.464Zm.664 2.475q-.28.244-.824.244H2.008v-1.912h1.264q.544 0 .824.24t.28.712c0 .472-.093.554-.28.716Zm4.28-2.475H6.448q-.248 0-.384.132-.136.133-.136.388v4.656q0 .248.132.388.131.141.38.141.257 0 .384-.141a.56.56 0 0 0 .128-.388v-1.648h1.424q.928 0 1.432-.468t.504-1.3c0-.832-.168-.986-.504-1.296s-.813-.464-1.432-.464Zm.664 2.475q-.28.244-.824.244H6.952v-1.912h1.264q.544 0 .824.24t.279.712c-.001.472-.093.554-.279.716Zm6.596-2.368a.46.46 0 0 0-.324-.107h-4.144q-.208 0-.324.107c-.116.107-.116.178-.116.316q0 .2.116.315a.44.44 0 0 0 .324.116h1.56v4.32q0 .248.132.388t.38.141q.257 0 .385-.141a.56.56 0 0 0 .128-.388v-4.32h1.56q.208 0 .324-.116a.43.43 0 0 0 .116-.315q0-.208-.116-.316Z"/></svg>