<!-- SPDX-FileCopyrightText: © 2025 Schneider Electric SPDX-License-Identifier: LicenseRef-Proprietary -->
<svg xmlns="http://www.w3.org/2000/svg" viewBox="0 0 16 16"><path d="M8.886 5h1.896a.5.5 0 0 0 0-1H9.386V1.661l3.494 3.005a.26.26 0 0 1 .098.201v4.109a.5.5 0 0 0 1 0V4.867c0-.389-.175-.749-.463-.974L9.212.192a.5.5 0 0 0-.826.379V4.5a.5.5 0 0 0 .5.5ZM2.522 9.396a.5.5 0 0 0 .5-.5V1.29c0-.157.168-.29.367-.29h3.533a.5.5 0 0 0 0-1H3.389c-.753 0-1.367.579-1.367 1.29v7.607a.5.5 0 0 0 .5.5Zm.706 3.807c.236-.083.44-.199.589-.376q.276-.328.275-.805 0-.424-.205-.73a1.3 1.3 0 0 0-.592-.469q-.387-.164-.939-.164H.569q-.246 0-.376.13c-.13.13-.13.213-.13.376v4.239q0 .246.13.376.13.131.376.131h1.87q.842 0 1.315-.384c.473-.384.473-.617.473-1.084q0-.536-.306-.871c-.17-.186-.41-.3-.693-.369ZM.979 11.382h1.214q.492 0 .733.189.242.19.242.562c0 .372-.081.436-.242.562q-.242.19-.733.19H.979V11.38Zm2.086 3.609q-.239.197-.745.197H.979v-1.579H2.32q.506 0 .745.193.238.194.238.596 0 .396-.238.593Zm5.602-4.075q-.566-.332-1.333-.332a2.7 2.7 0 0 0-1.039.19 2.2 2.2 0 0 0-.797.544 2.4 2.4 0 0 0-.51.85q-.179.495-.179 1.113 0 .82.313 1.427c.313.607.503.719.883.942s.823.335 1.33.335q.573 0 1.04-.189.465-.19.797-.548c.332-.358.391-.523.51-.856s.179-.705.179-1.118q0-.82-.312-1.423c-.312-.603-.502-.714-.879-.935Zm.011 3.379a1.4 1.4 0 0 1-.521.647q-.339.224-.823.224-.722 0-1.125-.499-.402-.5-.402-1.386 0-.596.183-1.017t.525-.641c.342-.22.501-.22.819-.22q.73 0 1.129.491.399.492.398 1.386 0 .589-.183 1.014Zm7.14-3.58q-.111-.115-.32-.115a.5.5 0 0 0-.29.07.65.65 0 0 0-.194.242l-1.721 3.184-1.721-3.184a.65.65 0 0 0-.197-.242.54.54 0 0 0-.295-.07.45.45 0 0 0-.327.115q-.12.116-.119.331v4.478q0 .21.111.328c.111.118.182.119.32.119q.217 0 .324-.119c.107-.119.108-.188.108-.328v-3.132l1.4 2.537q.067.12.156.183c.089.063.137.063.231.063a.4.4 0 0 0 .223-.06.6.6 0 0 0 .157-.187l1.4-2.554v3.15q0 .21.111.328a.42.42 0 0 0 .32.119q.217 0 .324-.119c.107-.119.108-.188.108-.328v-4.478q0-.216-.112-.331Z"/></svg>