<!-- SPDX-FileCopyrightText: © 2025 Schneider Electric SPDX-License-Identifier: LicenseRef-Proprietary -->
<svg xmlns="http://www.w3.org/2000/svg" viewBox="0 0 16 16"><path d="M13.278 3.002v-.089c0-1.661-.723-2.913-1.683-2.913H5.499a.5.5 0 0 0 0 1h6.096c.208 0 .683.723.683 1.913 0 1.267-.507 2.087-.683 2.087H2.771c-.176 0-.683-.82-.683-2.087 0-1.19.475-1.913.683-1.913s.683.723.683 1.913a.5.5 0 0 0 1 0C4.454 1.252 3.731 0 2.771 0S1.088 1.252 1.088 2.913C1.088 4.431 1.717 6 2.771 6h8.826c.798 0 1.353-.902 1.575-1.999.35.003.675.013.829.052v1.723c0 .351-.186.567-.365.749L7.695 9.601c-.209.101-.599.29-.599.841a.5.5 0 0 0 .5.5c.319 0 .405 0 .405.48v3.215c0 .22-.237.429-.488.429-.258 0-.512-.212-.512-.429v-2.94a.5.5 0 0 0-1 0v2.94c0 .774.692 1.429 1.512 1.429.807 0 1.488-.654 1.488-1.429v-3.215q-.002-.783-.413-1.157l5.576-2.888a.8.8 0 0 0 .15-.117c.206-.204.687-.68.687-1.484V3.991c0-.856-.728-.973-1.722-.989Z"/></svg>