<!-- SPDX-FileCopyrightText: © 2025 Schneider Electric SPDX-License-Identifier: LicenseRef-Proprietary -->
<svg xmlns="http://www.w3.org/2000/svg" viewBox="0 0 16 16"><path d="M15.5 12H14V.5a.5.5 0 0 0-.5-.5h-11a.5.5 0 0 0-.5.5v9.961a.5.5 0 0 0 1 0V1h10v4H8.5V2.5a.5.5 0 0 0-1 0V5h-3a.5.5 0 0 0 0 1h3v4.5a.5.5 0 0 0 1 0V6H13v6.5a.5.5 0 0 0 .5.5H15v2h-1v-.5a.5.5 0 0 0-.5-.5h-4a.5.5 0 0 0-.5.5v.5H7v-.5a.5.5 0 0 0-.5-.5h-4a.5.5 0 0 0-.5.5v.5H1v-2h10.5a.5.5 0 0 0 0-1H.5a.5.5 0 0 0-.5.5v3a.5.5 0 0 0 .5.5h2a.5.5 0 0 0 .5-.5V15h3v.5a.5.5 0 0 0 .5.5h3a.5.5 0 0 0 .5-.5V15h3v.5a.5.5 0 0 0 .5.5h2a.5.5 0 0 0 .5-.5v-3a.5.5 0 0 0-.5-.5Z"/><path d="M5.5 9a.5.5 0 0 0 0-1h-1a.5.5 0 0 0 0 1zm6-6a.5.5 0 0 0 0-1h-1a.5.5 0 0 0 0 1zm-7 0h1a.5.5 0 0 0 0-1h-1a.5.5 0 0 0 0 1Zm7 6a.5.5 0 0 0 0-1h-1a.5.5 0 0 0 0 1z"/></svg>