<!-- SPDX-FileCopyrightText: © 2025 Schneider Electric SPDX-License-Identifier: LicenseRef-Proprietary -->
<svg xmlns="http://www.w3.org/2000/svg" viewBox="0 0 16 16"><path d="M15.747 7.057a.5.5 0 0 0-.502.005L7.35 11.757a.501.501 0 0 0 .511.86L15 8.371v.417l-7.403 4.441L1 9.542V8.3l2.434 1.218a.5.5 0 0 0 .382.026 6.76 6.76 0 0 0 2.959-1.977c.306.399.757.843 1.397 1.161.357.177.712.284 1.053.343L7.35 10.175a.5.5 0 1 0 .508.862l3.947-2.326s.002 0 .003-.002l3.947-2.368a.5.5 0 0 0 0-.858L9.564 1.762a.5.5 0 0 0-.514 0L.243 7.04A.5.5 0 0 0 0 7.469v2.367c0 .181.098.348.256.437l7.105 3.972a.5.5 0 0 0 .501-.008l7.895-4.736A.5.5 0 0 0 16 9.072v-1.58a.5.5 0 0 0-.253-.435ZM9.308 2.775l5.221 3.138-3.187 1.915-.005.002c-.246.114-1.478.621-2.721.003-.77-.381-1.18-1.015-1.355-1.358a.5.5 0 0 0-.856-.057A5.73 5.73 0 0 1 3.691 8.53L1.518 7.443z"/></svg>