<!-- SPDX-FileCopyrightText: © 2025 Schneider Electric SPDX-License-Identifier: LicenseRef-Proprietary -->
<svg xmlns="http://www.w3.org/2000/svg" viewBox="0 0 16 16"><path d="M15.918 2.707a.5.5 0 0 0-.533-.211L.384 6.061a.5.5 0 0 0-.142.914l2.421 1.46.814 4.667a.5.5 0 0 0 .828.285l1.308-1.18a.5.5 0 1 0-.67-.742l-.636.573-.697-4a.5.5 0 0 0-.234-.342L1.807 6.75l12.475-2.965-5.485 7.386L6.185 9.45l4.421-2.749a.5.5 0 0 0-.527-.85L4.994 9.012a.502.502 0 0 0-.011.842l3.658 2.411a.5.5 0 0 0 .677-.12l6.584-8.864a.5.5 0 0 0 .017-.573Z"/></svg>