<!-- SPDX-FileCopyrightText: © 2025 Schneider Electric SPDX-License-Identifier: LicenseRef-Proprietary -->
<svg xmlns="http://www.w3.org/2000/svg" viewBox="0 0 16 16"><path d="M7.813 5.014 10.1 2.727c.215-.198 1.186.034 2.163 1.01q.308.307.543.64a.5.5 0 1 0 .816-.578 6 6 0 0 0-.652-.769c-.627-.627-1.308-1.053-1.928-1.245l.716-.716c.206-.204 1.184.022 2.168 1.005.46.459.817.991.98 1.458.132.376.107.628-.035.771l-3.902 3.902a.5.5 0 0 0 .717.698l3.953-3.953c.394-.393.468-1.014.211-1.748-.214-.613-.646-1.264-1.217-1.834C13.326.059 11.786-.372 11.052.361l-1.65 1.65-.013.013-.009.009-2.273 2.274a.5.5 0 0 0 .707.707Zm-2.759 9.24-3.949.642.616-3.789 3.275-3.274a.5.5 0 0 0-.695-.719L.9 10.515a.5.5 0 0 0-.14.273l-.754 4.633a.5.5 0 0 0 .574.573l4.634-.754a.5.5 0 1 0-.16-.986Zm3.083-3.216-2.248 2.247a.5.5 0 0 0 .708.707l2.175-2.174.107-.107c.195-.195.177-.493-.018-.688-.193-.195-.528-.179-.724.016Zm7.717 4.109-15-15a.5.5 0 1 0-.708.707l15 15a.5.5 0 0 0 .708 0 .5.5 0 0 0 0-.707Z"/></svg>