<!-- SPDX-FileCopyrightText: © 2025 Schneider Electric SPDX-License-Identifier: LicenseRef-Proprietary -->
<svg xmlns="http://www.w3.org/2000/svg" viewBox="0 0 16 16"><path d="M15.867 3.812c-.189-.54-.569-1.114-1.07-1.615s-1.075-.881-1.615-1.07c-.662-.232-1.224-.161-1.583.198l-1.428 1.428-.015.015-.01.01-7.348 7.348a.5.5 0 0 0-.14.273l-.586 3.605-1.579.018a.5.5 0 0 0 .006 1h.006l1.876-.021.08-.007a.5.5 0 0 0 .118-.006l3.482-.566a.5.5 0 1 0-.16-.986l-2.797.455.516-3.172 7.248-7.248c.142-.124.926.022 1.779.875q.14.14.262.286a.5.5 0 0 0 .766-.644 6 6 0 0 0-.32-.349c-.517-.517-1.076-.877-1.596-1.06l.545-.545c.045-.043.232-.071.547.038.395.139.846.442 1.238.833.391.392.695.843.833 1.238.11.316.082.503.036.548l-7.835 7.836a.5.5 0 0 0 .707.707l7.837-7.837c.36-.359.431-.922.199-1.584Z"/></svg>