<!-- SPDX-FileCopyrightText: © 2025 Schneider Electric SPDX-License-Identifier: LicenseRef-Proprietary -->
<svg xmlns="http://www.w3.org/2000/svg" viewBox="0 0 16 16"><path d="M13.91 5.869h-1.236l-1.811-2.062.073-.114a1.86 1.86 0 0 0 1.569-1.834A1.86 1.86 0 0 0 10.647 0a1.859 1.859 0 0 0-1.535 2.903.5.5 0 1 0 .826-.564.857.857 0 1 1 .709.374.5.5 0 0 0-.421.231l-.408.639a.5.5 0 0 0 .045.599l2.208 2.515a.5.5 0 0 0 .376.17l1.419-.002c.26.027.26.182.26.233 0 .054 0 .196-.214.216l-1.972.002c-.007 0-.177-.008-.366-.202-.359-.369-1.154-1.277-1.156-1.279a.502.502 0 0 0-.82.099L8.546 7.957a.5.5 0 0 0-.013.434l2.797 6.295c.029.112.038.255-.085.295-.168.057-.268-.052-.317-.137L8.143 9.289a.52.52 0 0 0-.461-.276.5.5 0 0 0-.445.303l-1.258 2.93-3.875.016c-.231 0-.231-.161-.231-.214 0-.07 0-.216.243-.23l3.151-.098a.5.5 0 0 0 .47-.381l.766-3.112 1.412-2.981a.5.5 0 0 0-.414-.713l-1.892-.145a.51.51 0 0 0-.458.228l-1.042 1.62c-.125.18-.233.11-.306.062-.072-.047-.181-.118-.062-.314l1.309-2.08 2.993.063c.326.016.505-.213.511-.489a.5.5 0 0 0-.489-.511l-3.276-.069a.48.48 0 0 0-.434.234l-1.453 2.31c-.048.073-.285.462-.188.936.043.212.173.515.542.756.371.243.702.239.912.194.472-.1.73-.471.778-.544l.886-1.377.87.066-1.122 2.37a.5.5 0 0 0-.034.095l-.687 2.792-2.769.086c-.488.012-1.215.35-1.215 1.23 0 .89.735 1.213 1.232 1.214l4.206-.017a.5.5 0 0 0 .458-.303l.963-2.243 2.305 4.599c.142.274.53.703 1.11.702q.191.001.409-.067c.789-.258.873-1.049.713-1.582L9.546 8.204l.605-1.165c.246.274.528.587.706.77.508.524 1.055.505 1.093.506l1.988-.003c.478-.023 1.188-.367 1.188-1.215 0-.84-.707-1.196-1.217-1.231Z"/></svg>