<!-- SPDX-FileCopyrightText: © 2025 Schneider Electric SPDX-License-Identifier: LicenseRef-Proprietary -->
<svg xmlns="http://www.w3.org/2000/svg" viewBox="0 0 16 16"><path d="M7.121 1c1.597 0 2.896 1.398 2.896 3.116 0 1.193-.621 2.264-1.621 2.793a.502.502 0 0 0 .152.935 5.7 5.7 0 0 1 1.75.596.501.501 0 0 0 .471-.883 7 7 0 0 0-.992-.431 4.2 4.2 0 0 0 1.241-3.011c0-2.27-1.748-4.116-3.896-4.116S3.226 1.845 3.226 4.115c0 1.18.467 2.268 1.264 3.034a6.74 6.74 0 0 0-4.489 6.354v1.996a.5.5 0 0 0 1 0v-1.996a5.734 5.734 0 0 1 4.722-5.649.5.5 0 0 0 .143-.936c-1.012-.526-1.64-1.601-1.64-2.803 0-1.718 1.299-3.116 2.896-3.116Zm8.123 7.256c-.312-.312-.671-.548-1.012-.668-.454-.158-.868-.099-1.13.162l-5.079 5.079a.5.5 0 0 0-.14.273l-.377 2.317a.5.5 0 0 0 .574.573l2.317-.377a.5.5 0 1 0-.16-.986l-1.632.266.24-1.474c.745-.745 4.895-4.896 4.896-4.921.071-.003.411.078.797.463.383.383.474.722.498.734l-1.377 1.378-2.407 2.407a.5.5 0 0 0 .707.707l2.407-2.407 1.38-1.381a.9.9 0 0 0 .255-.651c0-.461-.282-1.02-.756-1.494Z"/></svg>