<!-- SPDX-FileCopyrightText: © 2025 Schneider Electric SPDX-License-Identifier: LicenseRef-Proprietary -->
<svg xmlns="http://www.w3.org/2000/svg" viewBox="0 0 16 16"><path d="M15.5 13.422h-.749l.083-4.16c.411-.239.869-.68.869-1.315 0-.202-.031-.576-.065-.974-.036-.415-.075-.857-.075-1.128 0-.904-.368-1.543-.981-1.747.289-.415.395-.936.291-1.456-.104-.531-.411-.971-.818-1.177a1.73 1.73 0 0 0-1.313-.089c-.423.139-.76.422-.948.796-.287.568-.357 1.403.115 2.018-.777.227-1.067.948-1.081 1.521a.5.5 0 0 0-.019.134c0 .217-.034.537-.068.864-.049.478-.096.929-.072 1.181-.008.771.444 1.205.859 1.411l.087 4.121H9.512v-1.303h.353a.502.502 0 0 0 .487-.615l-.597-2.513c.305-.254.61-.668.61-1.227 0-.205-.035-.542-.073-.901-.039-.364-.082-.751-.082-1.019a.5.5 0 0 0-.01-.097c-.013-.717-.256-1.286-.678-1.629.2-.408.217-.964.043-1.493-.157-.479-.441-.843-.801-1.024a1.62 1.62 0 0 0-1.242-.094 1.62 1.62 0 0 0-.944.812c-.274.543-.412 1.285-.067 1.852-.312.192-.668.608-.705 1.504a.5.5 0 0 0-.029.168c0 .217-.033.504-.065.793-.048.42-.092.817-.068 1.07-.007.699.325 1.121.662 1.346l-.428 2.48a.5.5 0 0 0 .11.407.5.5 0 0 0 .383.178h.358v1.303H4.377l.082-4.16c.411-.239.87-.68.87-1.315 0-.202-.031-.576-.065-.974-.036-.415-.075-.857-.075-1.128a.5.5 0 0 0-.03-.172c-.011-.751-.369-1.27-.979-1.444.285-.415.39-.933.287-1.451-.105-.53-.412-.97-.819-1.175-.806-.408-1.863-.078-2.262.707-.285.564-.356 1.39.104 2.004a1 1 0 0 0-.521.268c-.347.327-.534.895-.534 1.264 0 .217-.034.537-.068.864-.049.478-.096.929-.072 1.181-.008.771.443 1.205.858 1.411l.088 4.121H.504A.5.5 0 1 0 .5 14.422h1.12a.5.5 0 0 0 .105-.011h.033a.5.5 0 0 0 .489-.511l-.106-4.965a.51.51 0 0 0-.405-.48c-.136-.028-.449-.139-.447-.602-.018-.206.028-.65.069-1.042.037-.366.073-.724.073-.967 0-.161.131-.47.227-.543a.5.5 0 0 0 .157-.025.5.5 0 0 0 .104-.02c.364-.11.612-.385.664-.735a.92.92 0 0 0-.304-.819c-.206-.288-.118-.716-.004-.942.151-.299.599-.429.918-.266.104.052.239.224.289.478.026.133.062.475-.185.761-.166.192-.328.671.118 1.243l.002.002h0a.5.5 0 0 0 .336.187h0l.017.001c.154.013.384.034.384.538a.5.5 0 0 0 .03.172c.003.293.042.752.079 1.182.031.362.062.703.062.887 0 .269-.427.488-.538.531a.5.5 0 0 0-.326.459l-.093 4.74a.5.5 0 0 0 .436.745h3.421a.5.5 0 0 0 .5-.5v-2.303a.5.5 0 0 0-.5-.5H6.96l.391-2.266a.506.506 0 0 0-.391-.579c-.014-.003-.325-.074-.322-.604-.017-.202.026-.584.063-.921.036-.318.069-.633.072-.877a.5.5 0 0 0 .028-.147c.005-.149.042-.641.27-.719.187-.064.682-.235.702-.697a.62.62 0 0 0-.323-.558c-.326-.271-.02-.906.018-.979a.62.62 0 0 1 .364-.313.62.62 0 0 1 .479.036c.114.058.232.231.302.443.089.271.093.576.007.745a.9.9 0 0 1-.197.221.6.6 0 0 0-.098.111h0s0 0 0 0a.5.5 0 0 0-.071.185.5.5 0 0 0 .239.516q0 0 0 0h0a.5.5 0 0 0 .146.057c.487.112.561.694.561 1.032a.5.5 0 0 0 .01.097c.005.292.047.69.087 1.064.034.316.067.613.067.794 0 .308-.304.503-.379.547a.5.5 0 0 0-.284.572l.53 2.235H9.01a.5.5 0 0 0-.5.5v2.303s0 0 0 0h0v.002h0v.002h0v.002h0v.002h0v.003h0v.002h0v.003a.5.5 0 0 0 .497.483h2.934a.5.5 0 0 0 .12-.015.5.5 0 0 0 .562-.507l-.105-4.965a.51.51 0 0 0-.405-.48c-.136-.028-.45-.139-.448-.602-.018-.206.028-.65.069-1.042.035-.344.069-.682.073-.923a.5.5 0 0 0 .018-.133c0-.084.018-.511.373-.608a1.01 1.01 0 0 0 .749-.811.83.83 0 0 0-.258-.77c-.207-.288-.119-.716-.005-.943a.6.6 0 0 1 .367-.296.74.74 0 0 1 .551.031c.104.052.238.225.289.479.026.133.062.474-.185.759-.166.193-.328.67.115 1.242l.008.009h0a.5.5 0 0 0 .344.184h.004c.347.028.384.579.384.814 0 .292.04.768.079 1.215.031.362.062.703.062.887 0 .269-.426.488-.537.531a.5.5 0 0 0-.326.459l-.098 4.914a.5.5 0 0 0 .495.571h1.263a.5.5 0 0 0 0-1Z"/></svg>