<!-- SPDX-FileCopyrightText: © 2025 Schneider Electric SPDX-License-Identifier: LicenseRef-Proprietary -->
<svg xmlns="http://www.w3.org/2000/svg" viewBox="0 0 16 16"><path d="M10.366 7.891a.5.5 0 0 0-.279-.649 7 7 0 0 0-.312-.115 4.2 4.2 0 0 0 1.241-3.011C11.016 1.846 9.268 0 7.12 0S3.224 1.846 3.224 4.116c0 1.18.467 2.268 1.264 3.034a6.74 6.74 0 0 0-4.489 6.354V15.5a.5.5 0 0 0 1 0v-1.996a5.734 5.734 0 0 1 4.722-5.649.5.5 0 0 0 .142-.936c-1.011-.526-1.64-1.601-1.64-2.803C4.223 2.398 5.522 1 7.119 1s2.896 1.398 2.896 3.116c0 1.193-.621 2.264-1.621 2.793a.502.502 0 0 0 .152.935c.4.067.793.177 1.168.326a.497.497 0 0 0 .65-.279Zm4.544 1.757a.5.5 0 0 0-.707 0l-.004.004-4.165 4.165a2.725 2.725 0 0 1 2.576-4.238.5.5 0 0 0 .127-.993 3.725 3.725 0 0 0-4.179 3.693c0 .994.387 1.928 1.09 2.631a.5.5 0 0 0 .707 0l.004-.004 4.165-4.165a2.725 2.725 0 0 1-2.54 4.243.503.503 0 0 0-.552.442.5.5 0 0 0 .442.552q.2.022.404.021a3.725 3.725 0 0 0 3.721-3.721c0-.994-.387-1.928-1.09-2.631Z"/></svg>