<!-- SPDX-FileCopyrightText: © 2025 Schneider Electric SPDX-License-Identifier: LicenseRef-Proprietary -->
<svg xmlns="http://www.w3.org/2000/svg" viewBox="0 0 16 16"><path d="M15.5 12H13V9.5a.5.5 0 0 0-1 0V12H9.5a.5.5 0 0 0 0 1H12v2.5a.5.5 0 0 0 1 0V13h2.5a.5.5 0 0 0 0-1Zm-4.647-3.756a.5.5 0 0 0-.042-.706 6.5 6.5 0 0 0-1.838-1.147 3.88 3.88 0 0 0 1.093-2.685C10.066 1.697 8.428 0 6.491 0S2.916 1.697 2.916 3.706c0 1.011.416 1.995 1.091 2.683A6.43 6.43 0 0 0 0 12.356V13.5a.5.5 0 0 0 .5.5h6a.5.5 0 0 0 0-1H1v-.644a5.45 5.45 0 0 1 4.191-5.302.5.5 0 0 0 .112-.93c-.817-.422-1.388-1.417-1.388-2.418C3.915 2.265 5.118 1 6.49 1s2.575 1.265 2.575 2.706c0 1.001-.571 1.996-1.389 2.418a.5.5 0 0 0 .112.93 5.5 5.5 0 0 1 2.357 1.231.5.5 0 0 0 .706-.042Z"/></svg>