<!-- SPDX-FileCopyrightText: © 2025 Schneider Electric SPDX-License-Identifier: LicenseRef-Proprietary -->
<svg xmlns="http://www.w3.org/2000/svg" viewBox="0 0 16 16"><path d="M13.515 6.489a2.7 2.7 0 0 0 .604-1.694c0-1.398-1.137-2.58-2.483-2.58s-2.483 1.182-2.483 2.58c0 .615.221 1.216.592 1.678a5 5 0 0 0-.373.203.5.5 0 0 0 .521.855c.294-.18.613-.312.948-.393a.499.499 0 0 0 .113-.929c-.464-.241-.8-.835-.8-1.413 0-.842.693-1.58 1.483-1.58s1.483.738 1.483 1.58c0 .578-.336 1.172-.8 1.413a.5.5 0 0 0 .113.929c1.416.343 2.568 1.954 2.568 3.591V11H9.67c-.179-1.796-1.302-3.456-2.806-4.211a3 3 0 0 0 .714-1.925c0-1.54-1.25-2.84-2.731-2.84s-2.731 1.3-2.731 2.84c0 .706.264 1.394.701 1.909A4.83 4.83 0 0 0 0 11.177v2.319a.5.5 0 0 0 1 0v-2.319a3.836 3.836 0 0 1 2.937-3.739.5.5 0 0 0 .113-.93c-.55-.286-.934-.962-.934-1.645 0-.98.809-1.84 1.731-1.84s1.731.86 1.731 1.84c0 .683-.384 1.359-.934 1.645a.5.5 0 0 0 .113.93c1.647.399 2.938 2.183 2.938 4.061a.5.5 0 0 0 .5.5h6.306a.5.5 0 0 0 .5-.5v-.771c0-1.775-1.04-3.478-2.485-4.24Z"/></svg>