<!-- SPDX-FileCopyrightText: © 2025 Schneider Electric SPDX-License-Identifier: LicenseRef-Proprietary -->
<svg xmlns="http://www.w3.org/2000/svg" viewBox="0 0 16 16"><path d="M14.711 7.105h-.29v-.147c.956-.574 1.411-1.715 1.091-2.834a2.42 2.42 0 0 0-1.698-1.666 2.5 2.5 0 0 0-2.179.421c-.443.34-.75.807-.887 1.331L9.526 2.093C9.458 1.834 9.212.895 9.202.866A1.28 1.28 0 0 0 8 0c-.557 0-1.046.362-1.226.929l-.3 1.166-1.22 2.114q-.011-.045-.024-.088a2.43 2.43 0 0 0-1.695-1.662 2.5 2.5 0 0 0-2.18.42 2.472 2.472 0 0 0 .225 4.079v.147h-.29C.579 7.105 0 7.683 0 8.394v6.316c0 .711.579 1.289 1.29 1.289h3.158c.711 0 1.29-.578 1.29-1.289V8.816l2.263-3.919 2.263 3.919v5.894c0 .711.579 1.289 1.29 1.289h3.158a.5.5 0 0 0 0-1h-3.158a.29.29 0 0 1-.29-.289V8.683a.5.5 0 0 0-.066-.25L8.435 3.647c-.179-.31-.688-.31-.866 0L4.806 8.433a.5.5 0 0 0-.067.25v6.027a.29.29 0 0 1-.29.289H1.29A.29.29 0 0 1 1 14.71V8.394a.29.29 0 0 1 .29-.289h.79a.5.5 0 0 0 .5-.5v-.951a.5.5 0 0 0-.302-.459 1.474 1.474 0 0 1-.314-2.523c.374-.287.84-.375 1.312-.248.47.126.86.508.994.972a1.49 1.49 0 0 1-.813 1.791.5.5 0 0 0-.297.457v.961a.5.5 0 0 0 .5.5h.212a.5.5 0 0 0 .433-.25l3.071-5.32a.5.5 0 0 0 .051-.125l.31-1.205c.03-.095.118-.205.265-.205.14 0 .225.1.251.175.029.099.324 1.235.324 1.236a.5.5 0 0 0 .051.124l3.072 5.32c.089.155.254.25.433.25h.211a.5.5 0 0 0 .5-.5v-.961a.5.5 0 0 0-.297-.457 1.48 1.48 0 0 1-.878-1.345 1.48 1.48 0 0 1 1.889-1.419c.471.126.861.509.995.975a1.485 1.485 0 0 1-.828 1.797.5.5 0 0 0-.302.459v.951a.5.5 0 0 0 .5.5h.79a.29.29 0 0 1 .289.289v5.526a.5.5 0 0 0 1 0V8.394a1.29 1.29 0 0 0-1.289-1.289Z"/></svg>