<!-- SPDX-FileCopyrightText: © 2025 Schneider Electric SPDX-License-Identifier: LicenseRef-Proprietary -->
<svg xmlns="http://www.w3.org/2000/svg" viewBox="0 0 16 16"><path d="M16.011 5.617c.008-.125.047-1.232-.759-1.715a.25.25 0 0 1-.08-.111 2.14 2.14 0 0 0 .793-1.659A2.135 2.135 0 0 0 13.833 0c-1.429 0-2.221.736-2.232 2.072-.036.326-.12 1.498.422 2.104l-.094.327a6.2 6.2 0 0 0-.181 2.495H11V5.655c0-.955-.736-1.704-1.268-2.12.25-.351.385-.782.385-1.25C10.118 1.075 9.165.09 7.994.09S5.9 1.054 5.9 2.285c0 .477.125.901.358 1.244C5.729 3.94 5 4.683 5 5.654v1.35l-.715.014a6.1 6.1 0 0 0-.178-2.517l-.093-.326c.54-.606.457-1.778.422-2.104C4.423.792 3.57-.002 2.203-.002A2.14 2.14 0 0 0 .071 2.132c0 .626.279 1.219.747 1.62a.7.7 0 0 1-.148.208c-.632.573-.678 1.508-.681 1.616-.022.936-.078 5.667 1.085 6.858.277.284.571.345.748.345h.002l2.169.099-.037 2.616a.5.5 0 0 0 .493.507.52.52 0 0 0 .507-.493L5 12.407a.5.5 0 0 0-.478-.506l-2.676-.121c-.463-.122-.938-2.847-.858-6.174.007-.169.083-.66.353-.905.462-.42.531-.982.541-1.111v-.085h0a.5.5 0 0 0-.247-.391 1.134 1.134 0 0 1 .567-2.112c.815 0 1.23.369 1.233 1.095v.04q0 .016.003.032c.081.696-.063 1.307-.196 1.364a.5.5 0 0 0-.284.597l.185.648c.401 1.42.066 2.522.057 2.554a.5.5 0 0 0-.024.157L2.91 9.842a.5.5 0 0 0 .508.556c.229.022 1.539.22 2.642.391.391.109.493 2.196.034 4.625a.5.5 0 0 0 .982.186c.301-1.589.831-5.333-.805-5.786-1.158-.182-1.867-.294-2.312-.352l.162-1.436 4.377-.022a.5.5 0 0 0 0-1h-2.5V5.659c0-.744.918-1.412 1.271-1.607a.5.5 0 0 0 .044-.85c-.344-.238-.416-.628-.416-.913 0-.587.409-1.195 1.094-1.195.62 0 1.124.536 1.124 1.195 0 .39-.158.714-.446.913a.5.5 0 0 0 .04.848c.358.201 1.288.883 1.288 1.609v1.845h0v.002h0v.003h0v.002h0v.002h0v.002h0v.002h0v.003h0v.002h0v.003h0v.003h0v.003h0v.002h0v.003h0v.003h0v.002h0v.004h0v.002h0v.006h0v.003h0v.005h0v.003h0v.003h0v.001h0v.003h0v.003h0v.004h0v.003h0v.002h0v.002h0v.002h0v.001h0v.002s0 0 0 0h0v.002s0 0 0 0h0v.002h0v.002h0v.002h0v.003h0v.001h0v.002s0 0 0 0h0v.002h0v.005c.03.127.109.236.215.305h.001v.001q0 0 0 0h0s0 0 0 0q0 0 0 0h0s0 .001 0 0q0 0 0 0h0c.077.048.168.051.266.075h1.412l.16 1.426c-.453.06-1.177.174-2.368.364-1.601.445-.865 4.203-.475 5.799a.5.5 0 0 0 .971-.238c-.575-2.35-.605-4.492-.284-4.585 1.157-.183 2.468-.382 2.698-.404a.5.5 0 0 0 .507-.556l-.267-2.364-.002-.016a1 1 0 0 0-.022-.099c-.003-.011-.353-1.101.057-2.55l.186-.65a.5.5 0 0 0-.283-.597c-.134-.058-.277-.667-.196-1.362l.003-.04v-.033c0-.658.213-1.095 1.232-1.095a1.134 1.134 0 0 1 .568 2.112.5.5 0 0 0-.246.487.5.5 0 0 0-.014.185c.008.068.091.672.597.976.229.138.284.601.274.841.08 3.329-.396 6.055-.88 6.18l-2.654.12a.5.5 0 0 0-.478.506l.044 3.101a.487.487 0 0 0 .507.493.5.5 0 0 0 .493-.507l-.037-2.616 2.147-.098c.198 0 .493-.06.772-.345 1.162-1.191 1.107-5.922 1.084-6.818Z"/></svg>