<!-- SPDX-FileCopyrightText: © 2025 Schneider Electric SPDX-License-Identifier: LicenseRef-Proprietary -->
<svg xmlns="http://www.w3.org/2000/svg" viewBox="0 0 16 16"><path d="M15.792 6.201A.5.5 0 0 0 16 5.795V3.087a.5.5 0 0 0-.291-.454L11.247.582a.5.5 0 0 0-.377-.017L9.783.954a.3.3 0 0 0-.045-.027L8.192.09a.5.5 0 0 0-.409-.03L.329 2.773a.5.5 0 0 0-.329.47v7.518a.5.5 0 0 0 .214.41l.993.693a.5.5 0 0 0 .494.045l3.009-1.376a.501.501 0 0 0-.416-.91L1.545 10.88 1 10.5V3.593l6.914-2.516 1.082.585-.093 5.952-1.12.5a.5.5 0 0 0-.219.189l-1.01 1.599a.5.5 0 0 0 .17.698l2.899 1.701-5.132 2.577-1.827-1.461 3.263-1.505a.5.5 0 1 0-.419-.909L1.51 12.847a.502.502 0 0 0-.103.845l2.709 2.167a.5.5 0 0 0 .537.056l6.241-3.134a.5.5 0 0 0 .028-.878L7.675 9.998l.653-1.034L9.6 8.395a.5.5 0 0 0 .296-.449L9.99 1.94l1.023-.366 3.985 1.832v2.131l-.845.608a.5.5 0 0 0-.207.377l-.131 2.287a.5.5 0 0 0 .831.403l.353-.313v2.27l-2 1.241V4.741l.807-.473a.5.5 0 1 0-.506-.862l-.843.494-1.075-.473a.499.499 0 1 0-.403.915L12 4.791v8.519a.498.498 0 0 0 .764.425l3-1.862a.5.5 0 0 0 .236-.425V7.787a.5.5 0 0 0-.832-.374l-.284.252.048-.847.86-.619Z"/></svg>