<!-- SPDX-FileCopyrightText: © 2025 Schneider Electric SPDX-License-Identifier: LicenseRef-Proprietary -->
<svg xmlns="http://www.w3.org/2000/svg" viewBox="0 0 16 16"><path d="M16.018 10.126c-.176-1.353-.677-5.215-3.513-5.915.243-.422.372-.872.372-1.318A2.897 2.897 0 0 0 9.982-.001c-1.634 0-2.689 1.022-2.689 2.605 0 1.505.758 2.279 1.467 2.502a.5.5 0 0 0 .3-.954c-.371-.116-.767-.584-.767-1.548 0-1.02.616-1.605 1.689-1.605 1.044 0 1.895.85 1.895 1.894 0 .606-.402 1.099-.608 1.307a.499.499 0 0 0 .299.901c2.501 0 3.172 2.941 3.461 5.114 0 .005-.027.527-.401.927-.97 1.038-2.715 1.446-5.054 1.182-.144-.079-.481-.309-.427-.695.029-.14.117-.567 1.449-.62a.5.5 0 0 0 .212-.056h.001q0 0 0 0h.001s0 0 0 0h.001l.001-.002h.001s0 0 0 0h.001q.002-.002.001 0a.5.5 0 0 0 .104-.078q0 0 0 0h0v-.001q0 0 0 0h0v-.002q0 0 0 0h0s0 0 0 0q0 0 0 0h0s0 0 0 0h0s0 0 0 0q0 0 0 0t0 0 0 0h0v-.002l.002-.002a.5.5 0 0 0 .11-.185h0v-.001h0v-.004h0v-.003a.5.5 0 0 0 .022-.154h0v-.018l-.16-3.489a.5.5 0 0 0-.146-.331c-.917-.917-2.033-.802-2.748-.515-.536-.685-1.889-1.977-4.407-1.86a14.7 14.7 0 0 0-3.288.555.5.5 0 0 0-.353.478v9.471a.5.5 0 0 0 .605.489 14 14 0 0 1 3.743-.186c1.55.148 2.951.843 2.965.85a.504.504 0 0 0 .594-.11c.786-.863 1.69-.625 1.722-.617a.501.501 0 0 0 .288-.958c-.058-.017-1.325-.38-2.484.64-.547-.236-1.706-.677-2.989-.8a14.8 14.8 0 0 0-3.444.099V5.705a14 14 0 0 1 2.686-.415c2.709-.11 3.716 1.668 3.756 1.742a.5.5 0 0 0 .712.182c.104-.067.999-.607 1.797.037l.128 2.801c-1.094.141-1.729.606-1.893 1.406-.144 1.008.638 1.626 1.071 1.812q.066.028.138.037c2.71.32 4.78-.19 5.987-1.483a2.58 2.58 0 0 0 .669-1.577c0-.027-.005-.095-.009-.121Z"/><path d="M4.4 10.2c1.754-.614 1.714-2.024 1.712-2.039.004-.079.022-.788-.504-1.31-.368-.365-.889-.528-1.54-.494-1.464.083-2.002 1.402-2.082 2.088a.5.5 0 0 0 .993.118c.015-.118.176-1.153 1.146-1.208.354-.017.616.048.774.201.22.213.214.559.214.593 0 .076-.027.751-1.043 1.106-.641.225-.777 1.233-.806 1.656a.5.5 0 0 0 .464.532h.035c.26 0 .479-.202.499-.465.023-.332.122-.729.139-.78Zm-.721 2.082a.466.466 0 1 0 0 .932.466.466 0 0 0 0-.932Z"/></svg>