<!-- SPDX-FileCopyrightText: © 2025 Schneider Electric SPDX-License-Identifier: LicenseRef-Proprietary -->
<svg xmlns="http://www.w3.org/2000/svg" viewBox="0 0 16 16"><path d="M10.739 8.877a3.33 3.33 0 0 0 .806-2.189c0-1.79-1.383-3.246-3.082-3.246S5.381 4.898 5.381 6.688c0 .84.301 1.622.824 2.21a5.21 5.21 0 0 0-3.241 4.828v1.773a.536.536 0 0 0 1.072 0v-1.773a4.14 4.14 0 0 1 3.408-4.077.538.538 0 0 0 .152-1.003C6.891 8.28 6.453 7.53 6.453 6.688c0-1.199.902-2.175 2.01-2.175s2.009.976 2.009 2.175c0 .834-.433 1.583-1.129 1.953a.535.535 0 0 0 .163 1.001 4.13 4.13 0 0 1 3.457 4.084v1.773a.536.536 0 0 0 1.072 0v-1.773a5.19 5.19 0 0 0-3.297-4.849Z"/><path d="M4.155 9.385a.538.538 0 0 0 .153-1.003c-.639-.333-1.036-1.013-1.036-1.776 0-.962.66-1.799 1.535-1.948a.536.536 0 0 0-.179-1.057C3.221 3.84 2.2 5.103 2.2 6.605c0 .767.268 1.482.735 2.029a4.86 4.86 0 0 0-2.971 4.482V14.5c0 .296.24.536.536.536h1a.536.536 0 0 0 0-1.072h-.464v-.848a3.79 3.79 0 0 1 3.119-3.731ZM15.5 2H14V.5a.5.5 0 0 0-1 0V2h-1.5a.5.5 0 0 0 0 1H13v1.5a.5.5 0 0 0 1 0V3h1.5a.5.5 0 0 0 0-1Z"/></svg>