<!-- SPDX-FileCopyrightText: © 2025 Schneider Electric SPDX-License-Identifier: LicenseRef-Proprietary -->
<svg xmlns="http://www.w3.org/2000/svg" viewBox="0 0 16 16"><path d="M11.467 8.585a.5.5 0 0 0-.139-.693 6.7 6.7 0 0 0-1.552-.767 4.2 4.2 0 0 0 1.24-3.01c0-2.27-1.748-4.116-3.896-4.116S3.224 1.845 3.224 4.115c0 1.18.467 2.268 1.264 3.034a6.74 6.74 0 0 0-4.489 6.354v1.996a.5.5 0 0 0 1 0v-1.996a5.734 5.734 0 0 1 4.722-5.649.5.5 0 0 0 .142-.936c-1.011-.526-1.64-1.601-1.64-2.803 0-1.718 1.299-3.116 2.896-3.116s2.896 1.398 2.896 3.116c0 1.193-.621 2.264-1.621 2.793a.502.502 0 0 0 .152.935c.8.134 1.55.43 2.226.88.23.153.541.092.693-.139Zm4.307-.5a.5.5 0 0 0-.692.143l-4.101 6.236c-.376-.759-.976-1.765-1.645-2.11a.5.5 0 0 0-.459.889c.503.26 1.213 1.585 1.557 2.443a.5.5 0 0 0 .882.089l4.602-6.997a.5.5 0 0 0-.144-.693Z"/></svg>