<!-- SPDX-FileCopyrightText: © 2025 Schneider Electric SPDX-License-Identifier: LicenseRef-Proprietary -->
<svg xmlns="http://www.w3.org/2000/svg" viewBox="0 0 16 16"><path d="M15.756 7.96a.5.5 0 0 0-.813-.155l-1.549 1.554q-.29.111-.52-.132c-.146-.153-.185-.308-.122-.491l1.556-1.558a.5.5 0 0 0-.161-.815 2.99 2.99 0 0 0-3.276.653 3.01 3.01 0 0 0-.755 2.986l-.64.663a.5.5 0 1 0 .721.693l.854-.886a.5.5 0 0 0 .101-.54 2.02 2.02 0 0 1 .428-2.211c.372-.373.86-.576 1.361-.59l-.965.967a.5.5 0 0 0-.1.143c-.275.592-.175 1.202.274 1.675.475.5 1.151.619 1.762.305a.5.5 0 0 0 .127-.093l.96-.963a2.02 2.02 0 0 1-.586 1.402 1.99 1.99 0 0 1-2.176.439.5.5 0 0 0-.55.12c-1.03 1.085-1.772 1.911-2.352 2.556-.48.535-.846.942-1.17 1.268h0c-.026.027-.073.07-.2.037-.235-.062-.498-.325-.562-.562-.035-.133.012-.181.025-.194l1.452-1.366a.5.5 0 0 0-.343-.864H1v-1.574a4.39 4.39 0 0 1 3.373-4.278.5.5 0 0 0 .112-.93c-.643-.333-1.092-1.12-1.092-1.913 0-1.14.946-2.139 2.024-2.139s2.024 1 2.024 2.139c0 .793-.449 1.579-1.092 1.913a.5.5 0 0 0 .112.93c.7.169 1.356.513 1.897.994a.501.501 0 0 0 .664-.748 5.5 5.5 0 0 0-1.417-.911c.52-.577.835-1.367.835-2.178.002-1.702-1.382-3.14-3.022-3.14S2.394 1.604 2.394 3.305c0 .811.315 1.6.834 2.177A5.38 5.38 0 0 0 0 10.426V12.5a.5.5 0 0 0 .5.5h6.775l-.545.513c-.305.307-.412.733-.294 1.173.157.581.691 1.114 1.271 1.269q.172.045.34.046c.312 0 .602-.118.826-.344.334-.334.711-.754 1.206-1.305.532-.593 1.204-1.341 2.113-2.305a3 3 0 0 0 2.928-.773 2.99 2.99 0 0 0 .636-3.313Z"/></svg>