<!-- SPDX-FileCopyrightText: © 2025 Schneider Electric SPDX-License-Identifier: LicenseRef-Proprietary -->
<svg xmlns="http://www.w3.org/2000/svg" viewBox="0 0 16 16"><path d="m15.943 9.302-1.807-3.455c-.104-.199-.317-.344-.541-.298-.22.047-.373.194-.387.418-.005.01-.495.98-5.207.98-3.926 0-4.954-.675-5.185-.869.241-.232 1.257-.867 5.185-.867a.5.5 0 0 0 0-1c-3.161 0-5.152.399-5.917 1.186-.301.309-.327.588-.322.73.053.547.769 1.82 6.24 1.82 3.325 0 4.88-.472 5.598-.967l1.34 2.561c-.274.313-1.545 1.245-6.942 1.245-5.549 0-6.733-.982-6.953-1.225l.745-1.513a.5.5 0 0 0-.896-.442L.052 9.315a.5.5 0 0 0-.051.247c.027.521.685 2.225 7.998 2.225S15.972 10.083 16 9.56a.5.5 0 0 0-.056-.259Z"/></svg>