<!-- SPDX-FileCopyrightText: © 2025 Schneider Electric SPDX-License-Identifier: LicenseRef-Proprietary -->
<svg xmlns="http://www.w3.org/2000/svg" viewBox="0 0 16 16"><path d="M15.227 7.683c-.744-1.104-1.963-1.779-3.622-2.008-4.04-.562-5.369 1.845-6.334 3.601-.826 1.503-1.318 2.271-2.653 1.928-.746-.192-1.221-.533-1.452-1.04-.477-1.046.227-2.48.234-2.494a.5.5 0 0 0-.124-.605l-.158-.135a7.04 7.04 0 0 1 2.015-3.701c2.071-2 3.69-2.206 4.073-2.226l1.123.585c-.026.22-.125.572-.449.939a1.9 1.9 0 0 1-1.143.635L6.43 2.65a.5.5 0 0 0-.559-.226c-.042.012-1.058.291-2.054 1.09C2.46 4.603 2.535 6.01 2.539 6.068a.5.5 0 0 0 .34.441q.254.087.453.148a6 6 0 0 1-.529.746c-.367.458-.842.591-.842.591a.501.501 0 0 0 .243.97 2.77 2.77 0 0 0 1.379-.935c.671-.836.917-1.341.847-1.743a.67.67 0 0 0-.312-.464.53.53 0 0 0-.307-.071 5 5 0 0 1-.24-.069c.067-.344.27-.905.873-1.39a5.4 5.4 0 0 1 1.338-.78l.252.42a.5.5 0 0 0 .392.241c.051.001 1.262.079 2.203-.986.851-.963.699-1.945.692-1.987a.5.5 0 0 0-.263-.361L7.557.058a.5.5 0 0 0-.196-.055c-.088-.011-2.203-.121-4.924 2.505C.313 4.559.092 6.987.083 7.09a.5.5 0 0 0 .175.422l.088.075c-.235.614-.594 1.885-.095 2.985.358.792 1.07 1.33 2.114 1.6 2.15.555 3.015-1.022 3.78-2.415.96-1.748 1.955-3.552 5.321-3.092 1.366.188 2.352.719 2.93 1.577.696 1.031.69 2.398.475 3.256-.205.811-.976 3.271-2.788 3.486l.702-2.69q.016-.052.03-.106a.4.4 0 0 0 .015-.066l.689-2.644a.5.5 0 0 0-.357-.609.493.493 0 0 0-.609.357l-.73 2.799c-.375 1.246-.975 2.12-1.739 2.529-.547.293-1.082.289-1.398.188-.156-.05-.478-.25-.696-.685-.278-.554-.276-1.279.004-2.099.946-2.762 2.991-2.256 3.224-2.187a.5.5 0 0 0 .288-.958c-.031-.01-3.176-.923-4.458 2.82-.467 1.363-.231 2.313.048 2.871.343.683.889 1.062 1.285 1.189.665.211 1.477.113 2.175-.26q.216-.113.452-.292l-.053.203a.498.498 0 0 0 .416.621q.236.032.459.032c2.153 0 3.477-2.146 4.01-4.258.28-1.107.266-2.755-.614-4.06Z"/></svg>