<!-- SPDX-FileCopyrightText: © 2025 Schneider Electric SPDX-License-Identifier: LicenseRef-Proprietary -->
<svg xmlns="http://www.w3.org/2000/svg" viewBox="0 0 16 16"><path d="M14.58 8.31 9.216 5.99l4.73-1.389a.5.5 0 0 0-.282-.96L7.781 5.369l-1.922-.832a.5.5 0 1 0-.398.918l8.75 3.784c.731.264.786 1.206.788 1.231.017 1.224-.508 1.399-.539 1.408L3.782 14.747c.099-.36.131-.771.088-1.193-.056-.563-.24-1.088-.518-1.477l-.048-.064 5.271-1.429a.5.5 0 0 0 .068-.941l-6.93-3.001C1.64 6.619 1 6.383 1 5.276c0-.01.022-.964.517-1.133l11.728-3.109c.211.149.459.617.526 1.222a.5.5 0 0 0 .994-.11c-.093-.843-.455-1.582-.942-1.927a1.08 1.08 0 0 0-.894-.188L1.225 3.187C.258 3.516 0 4.654 0 5.275c0 1.897 1.356 2.306 1.373 2.306h0l5.564 2.413-5.344 1.448a.5.5 0 1 0 .261.965l.114-.03c.076.032.162.05.25.038.075.007.195.067.322.245.175.245.298.607.336.996.062.612-.096 1.049-.25 1.237-.031.037-.091.101-.15.107-.179-.006-.579-.438-.659-1.239a.493.493 0 0 0-.548-.447.5.5 0 0 0-.447.547c.125 1.247.82 2.14 1.64 2.14a1 1 0 0 0 .283-.036.5.5 0 0 0 .308.016l11.639-3.129c.055-.011 1.336-.301 1.307-2.405-.002-.067-.078-1.653-1.419-2.135Z"/></svg>