<!-- SPDX-FileCopyrightText: © 2025 Schneider Electric SPDX-License-Identifier: LicenseRef-Proprietary -->
<svg xmlns="http://www.w3.org/2000/svg" viewBox="0 0 16 16"><path d="M15.5 4.158a.5.5 0 0 0 0-1A2.66 2.66 0 0 1 12.842.5a.5.5 0 0 0-1 0A3.66 3.66 0 0 0 15.5 4.158ZM9.827 8.512l.065-.004c.99-.128 1.865-.771 2.342-1.72a.5.5 0 1 0-.893-.449c-.328.651-.918 1.091-1.578 1.177a.5.5 0 0 0 .064.996Z"/><path d="M15.5 5.526A5.03 5.03 0 0 1 10.474.5a.5.5 0 0 0-1 0A6.033 6.033 0 0 0 15.5 6.526a.5.5 0 0 0 0-1Zm-11.417.655c-.264.795-.166 1.668.291 2.278.362.484.934.784 1.57.823.362.023.722-.042 1.057-.182v.4a.5.5 0 0 0 1 0V8.159a.5.5 0 0 0-.86-.347c-.316.329-.71.505-1.135.471a1.11 1.11 0 0 1-.831-.423c-.327-.437-.315-1.166.028-1.733a.5.5 0 0 0-.369-.755c-.253-.03-.441-.133-.574-.312-.206-.28-.227-.665-.182-.91.046-.25.181-.46.361-.561q.295-.163.757.013a.497.497 0 0 0 .657-.319c.276-.895 1.033-1.496 1.883-1.496h0a.5.5 0 0 0 0-1h0c-1.137 0-2.157.686-2.662 1.749a1.68 1.68 0 0 0-1.124.181c-.444.249-.756.706-.856 1.253-.11.599.025 1.228.36 1.683q.254.343.628.528Z"/><path d="M15.5 9h-2a.5.5 0 0 0-.5.5v.771l-2.68.18a.5.5 0 0 0-.465.533.49.49 0 0 0 .533.465l2.778-.188a.5.5 0 0 0 .41-.268.5.5 0 0 0 .425-.494v-.5h1v5h-1v-.5a.5.5 0 0 0-.5-.5H2.5a.5.5 0 0 0-.5.5v.5H1v-5h1v.5a.5.5 0 0 0 .5.5h2.884v.289a.5.5 0 0 0 .36.48l1.36.395.199.75a.5.5 0 1 0 .967-.256l-.271-1.023a.5.5 0 0 0-.344-.353l-1.271-.369v-.414a.5.5 0 0 0-.5-.5H3v-.5a.5.5 0 0 0-.5-.5h-2a.5.5 0 0 0-.5.5v6a.5.5 0 0 0 .5.5h2a.5.5 0 0 0 .5-.5v-.5h10v.5a.5.5 0 0 0 .5.5h2a.5.5 0 0 0 .5-.5v-6a.5.5 0 0 0-.5-.5Z"/></svg>