<!-- SPDX-FileCopyrightText: © 2025 Schneider Electric SPDX-License-Identifier: LicenseRef-Proprietary -->
<svg xmlns="http://www.w3.org/2000/svg" viewBox="0 0 16 16"><path d="M15.943 7.787a.5.5 0 0 0-.27-.298l-2.674-1.201V3.5a.5.5 0 0 0-.5-.5h-1.5V.5a.5.5 0 0 0-.5-.5H3.5a.5.5 0 0 0-.5.5V7H1.5a.5.5 0 0 0 0 1h4.236c.122 0 .264.195.264.447v4.105c0 .252-.142.447-.264.447H1.5a.5.5 0 0 0 0 1h4.236c.697 0 1.264-.649 1.264-1.447V8.447C7 7.649 6.433 7 5.736 7H4V1h6v2.5a.5.5 0 0 0 .5.5H12v2.611a.5.5 0 0 0 .295.456l2.472 1.11-.501.901-1.561-.701a.503.503 0 0 0-.706.456V11h-1.5a.5.5 0 0 0-.5.5V15H3.5a.5.5 0 0 0 0 1h7a.5.5 0 0 0 .5-.5V12h1.5a.5.5 0 0 0 .5-.5V9.606l1.274.572a.5.5 0 0 0 .642-.213l.989-1.778a.5.5 0 0 0 .038-.401Z"/><path d="M3 11.5v-.747l1.137 1.198A.499.499 0 0 0 5 11.607V9.5a.5.5 0 0 0-1 0v.854L2.863 9.156A.5.5 0 0 0 2 9.5v2a.5.5 0 0 0 1 0Z"/></svg>