<!-- SPDX-FileCopyrightText: © 2025 Schneider Electric SPDX-License-Identifier: LicenseRef-Proprietary -->
<svg xmlns="http://www.w3.org/2000/svg" viewBox="0 0 16 16"><path d="m15.281 12.307-2.659-2.664a.5.5 0 0 0-.707.707l2.653 2.658c.203.211.812.954.091 1.666-.563.557-1.244.315-1.68-.083l-4.546-4.555a.5.5 0 0 0-.798.124l-1.647 3.183L1.374 1.377l11.99 4.672-3.231 1.628a.5.5 0 1 0 .449.893l4.234-2.133a.5.5 0 0 0-.043-.912L.682.034A.499.499 0 0 0 .034.68l5.421 14.06a.5.5 0 0 0 .439.319.49.49 0 0 0 .472-.27l1.844-3.562 4.078 4.085c.495.454 1.07.683 1.627.683a2.04 2.04 0 0 0 1.447-.61c.871-.86.841-2.124-.081-3.078Z"/></svg>