<!-- SPDX-FileCopyrightText: © 2025 Schneider Electric SPDX-License-Identifier: LicenseRef-Proprietary -->
<svg xmlns="http://www.w3.org/2000/svg" viewBox="0 0 16 16"><path d="M5.499 7.146q.32.319.657.387.339.068.666-.04c.327-.108.465-.186.741-.342l1.124 1.124a.9.9 0 0 1-.393.126.8.8 0 0 1-.339-.046 4 4 0 0 1-.416-.189.38.38 0 0 0-.247-.039.46.46 0 0 0-.234.133.43.43 0 0 0-.133.319q.001.184.118.299.157.158.388.252.23.096.523.105.292.01.606-.1.312-.11.628-.361l.651.652a.43.43 0 0 0 .199.129q.09.02.177-.068.093-.094.056-.188a.8.8 0 0 0-.18-.235l-.603-.602q.318-.375.416-.778a1.45 1.45 0 0 0-.012-.774 1.5 1.5 0 0 0-.387-.645 1.4 1.4 0 0 0-.485-.324 1.3 1.3 0 0 0-.549-.086q-.269.01-.514.122a6 6 0 0 0-.627.328L6.325 5.3a.77.77 0 0 1 .786.017q.326.185.563-.051a.4.4 0 0 0 .125-.302.4.4 0 0 0-.121-.297.8.8 0 0 0-.298-.18 1.5 1.5 0 0 0-.422-.086q-.3-.023-.564.081a2.2 2.2 0 0 0-.55.337l-.261-.261q-.198-.198-.352-.043-.152.153.051.355l.255.255q-.456.544-.456 1.075t.417.947Zm3.035-.399q.243-.015.455.196.196.195.209.475.016.281-.181.574L7.958 6.933q.331-.172.576-.186ZM6.008 5.596l.926.926q-.298.137-.502.146t-.395-.182q-.2-.2-.187-.413c.013-.213.062-.301.157-.477Z"/><path d="M15.083 9.639a.5.5 0 0 0-.706-.037l-5.871 5.29c-.263.17-.606.139-.805-.047L1.663 8.062a.5.5 0 1 0-.747.665l6.068 6.813c.313.296.714.452 1.131.452.334 0 .679-.1.997-.309l5.933-5.338a.5.5 0 0 0 .038-.706Z"/><path d="M7.201 12.646c.319.318.743.494 1.193.494s.875-.176 1.193-.494l3.847-3.847c.318-.319.494-.743.494-1.193s-.176-.875-.494-1.193L9.47 2.448c.439-.59.79-1.44.208-2.075-1.107-1.212-4.247 1.07-5.544 2.106a.5.5 0 0 0-.188.391.29.29 0 0 1-.579 0c0-.159.13-.29.289-.29a.5.5 0 0 0 0-1 1.29 1.29 0 1 0 1.263 1.554C6.796 1.665 8.675.762 8.94 1.05c.108.117-.01.408-.193.685l-.145-.144a.5.5 0 0 0-.704.711l.659.651.011.011 4.157 4.157c.13.13.201.302.201.486s-.071.356-.201.486L8.878 11.94a.704.704 0 0 1-.973 0L1.79 5.819V1.688A.69.69 0 0 1 2.478 1h2.76a.5.5 0 0 0 0-1h-2.76C1.546 0 .79.757.79 1.688v4.338c0 .133.053.26.146.354z"/></svg>