<!-- SPDX-FileCopyrightText: © 2025 Schneider Electric SPDX-License-Identifier: LicenseRef-Proprietary -->
<svg xmlns="http://www.w3.org/2000/svg" viewBox="0 0 16 16"><path d="M6.904 4.812q.215-.001.487.122.21.091.347.102c.137.011.185-.035.281-.127a.4.4 0 0 0 .13-.305.45.45 0 0 0-.132-.321q-.387-.409-1.033-.318t-1.179.595q-1.21 1.147.004 2.799l-.284.269q-.037.035.011.194a.6.6 0 0 0 .118.232q.067.072.118.022l.349-.33q.212.245.33.371l.097.102-.244.23q-.037.035.012.195.047.157.115.229.069.075.121.025l.36-.341q.84.727 1.62.739a1.82 1.82 0 0 0 1.325-.505q.582-.551.655-1.291t-.32-1.156a.52.52 0 0 0-.354-.184.48.48 0 0 0-.358.153.34.34 0 0 0-.104.208q-.02.129.104.464.188.515.11.777a1 1 0 0 1-.284.457q-.553.525-1.617-.399l.831-.787q.039-.038-.006-.19a.6.6 0 0 0-.123-.235q-.067-.072-.124-.018l-.936.887a3 3 0 0 1-.18-.18l-.258-.282.848-.804q.039-.038-.006-.19a.54.54 0 0 0-.121-.232q-.07-.075-.126-.021l-.913.865q-.393-.511-.431-.89c-.038-.379.065-.476.273-.673q.273-.258.487-.259Z"/><path d="M7.201 12.646c.319.318.743.494 1.193.494s.875-.176 1.193-.494l3.847-3.847c.318-.319.494-.743.494-1.193s-.176-.875-.494-1.193L9.47 2.448c.439-.59.79-1.44.208-2.075-1.107-1.212-4.247 1.07-5.544 2.106a.5.5 0 0 0-.188.391.29.29 0 0 1-.579 0c0-.159.13-.29.289-.29a.5.5 0 0 0 0-1 1.29 1.29 0 1 0 1.263 1.554C6.796 1.665 8.675.762 8.94 1.05c.108.117-.01.408-.193.685l-.145-.144a.5.5 0 0 0-.704.711l.659.651.011.011 4.157 4.157c.13.13.201.302.201.486s-.071.356-.201.486L8.878 11.94a.704.704 0 0 1-.973 0L1.79 5.819V1.688A.69.69 0 0 1 2.478 1h2.76a.5.5 0 0 0 0-1h-2.76C1.546 0 .79.757.79 1.688v4.338c0 .133.053.26.146.354z"/><path d="M15.083 9.639a.5.5 0 0 0-.706-.037l-5.871 5.29c-.263.17-.606.139-.805-.047L1.663 8.062a.5.5 0 1 0-.747.665l6.068 6.813c.313.296.714.452 1.131.452.334 0 .679-.1.997-.309l5.933-5.338a.5.5 0 0 0 .038-.706Z"/></svg>