<!-- SPDX-FileCopyrightText: © 2025 Schneider Electric SPDX-License-Identifier: LicenseRef-Proprietary -->
<svg xmlns="http://www.w3.org/2000/svg" viewBox="0 0 16 16"><path d="M12.046 16H3.952C1.75 16-.11 13.481-.11 10.5c0-2.327 1.023-4.375 2.546-5.098a.5.5 0 0 1 .429.903C1.702 6.857.89 8.582.89 10.5c0 2.652 1.614 4.5 3.062 4.5h8.094c1.69 0 3.064-2.019 3.064-4.5 0-4.062-2.497-4.5-3.571-4.5h-3.04a.5.5 0 0 1 0-1h3.04c2.209 0 4.571 1.445 4.571 5.5 0 3.084-1.785 5.5-4.064 5.5Zm.454-2h-2a.5.5 0 0 1-.5-.5v-2a.5.5 0 0 1 1 0V13h1V8h-1v1.5a.5.5 0 0 1-1 0v-2a.5.5 0 0 1 .5-.5h2a.5.5 0 0 1 .5.5v6a.5.5 0 0 1-.5.5Zm-6.932-.008a3.53 3.53 0 0 1-3.528-3.528c0-.87.32-1.707.9-2.354a.5.5 0 0 1 .745.667 2.53 2.53 0 0 0 1.883 4.215 2.53 2.53 0 0 0 2.528-2.528c0-.289-.051-1.031-.526-1.67a.5.5 0 1 1 .803-.597c.629.847.724 1.783.724 2.267a3.53 3.53 0 0 1-3.528 3.528ZM5.5 12.076a.5.5 0 0 1-.353-.146l-1.184-1.177a.5.5 0 1 1 .705-.709l.331.329V8.499a.5.5 0 0 1 1 0v1.87l.283-.29a.5.5 0 1 1 .716.697L5.88 11.923a.5.5 0 0 1-.369.151h-.012Zm.002-5.052c-.406 0-.758-.141-1.019-.409-.488-.5-.485-1.259-.483-1.344V3.6c-.641-.214-1-.577-1-1.026V.5a.5.5 0 0 1 1 0v2c.067.053.249.154.602.227a.5.5 0 0 1 .398.49v2.066c0 .118.033.467.2.636.045.045.125.105.302.105.178 0 .258-.061.302-.106.17-.175.198-.54.195-.621V3.218a.5.5 0 0 1 .415-.493c.2-.035.386-.156.5-.258-.236-.148-.765-.348-1.389-.348a.5.5 0 0 1 0-1c.458 0 1.008.096 1.474.281V.5a.5.5 0 0 1 1 0v1.86a1 1 0 0 1-.001.173.5.5 0 0 1-.049.186c-.14.356-.53.685-.95.866v1.699c.002.071.009.831-.479 1.332-.26.268-.613.409-1.019.409Z"/></svg>