<!-- SPDX-FileCopyrightText: © 2025 Schneider Electric SPDX-License-Identifier: LicenseRef-Proprietary -->
<svg xmlns="http://www.w3.org/2000/svg" viewBox="0 0 16 16"><path d="M15 6.83V4.5a.5.5 0 0 0-.5-.5h-1.742c-.213-.501-.683-1.078-1.534-1.078S9.883 3.503 9.655 4H7.501a.5.5 0 0 0-.5.5v2.604c0 .261.206.478.466.499.196.016.835.133.835.989 0 .823-.625.912-.811.92a.5.5 0 0 0-.49.5V12H4.843c-.203-.527-.661-1.139-1.508-1.139S2.039 11.47 1.845 12h-.844V5h.936c.172.554.616 1.185 1.549 1.185S4.87 5.553 5.049 5h.452a.5.5 0 0 0 0-1h-.856a.505.505 0 0 0-.499.46c-.011.121-.093.725-.66.725-.545 0-.627-.548-.639-.712A.5.5 0 0 0 2.348 4H.5a.5.5 0 0 0-.5.5v8a.5.5 0 0 0 .5.5h1.73a.5.5 0 0 0 .495-.432c.011-.072.117-.707.609-.707.51 0 .631.688.635.715a.5.5 0 0 0 .494.424H7.5a.5.5 0 0 0 .5-.5v-2.068c.635-.193 1.301-.749 1.301-1.84 0-1.16-.701-1.696-1.301-1.894V5h2.008a.5.5 0 0 0 .487-.39c.017-.07.179-.688.729-.688.532 0 .662.6.675.664.041.24.249.415.492.415H14v2.155a.51.51 0 0 0 .366.481c.096.029.573.208.573.92 0 .687-.468.829-.443.833a.5.5 0 0 0-.496.5v2.111h-1.269c-.187-.554-.658-1.121-1.52-1.121-.906 0-1.358.596-1.545 1.121h-.167a.5.5 0 0 0 0 1h.562a.5.5 0 0 0 .498-.455c.006-.068.076-.666.652-.666.524 0 .604.501.616.65a.5.5 0 0 0 .499.471h2.173a.5.5 0 0 0 .5-.5v-2.262c.443-.238.939-.771.939-1.682 0-.931-.501-1.47-.939-1.726Z"/></svg>