<!-- SPDX-FileCopyrightText: Платежная организация ТОО «QIWI Kazakhstan» (КИВИ Казахстан) © 2024 SPDX-License-Identifier: LicenseRef-Proprietary -->
<svg xmlns="http://www.w3.org/2000/svg" version="1.1" viewBox="0 0 492.195 286.935"><path fill="#fff" d="M243.398 177.21c1.4 1.3 3.8 2.6 6.1 2.6 2.2 0 3.6-1.1 3.6-2.8 0-4.7-11.4-3.7-11.4-11.3 0-4.3 3.6-7.1 8.3-7.1 2.6 0 5.2.9 7.2 2.6l-2 3.6c-1.3-1.2-3.4-2.1-5.4-2.1-2.2 0-3.7 1.1-3.7 2.8 0 4.6 11.4 3.4 11.4 11.2 0 4-2.9 7.2-8.1 7.2-3 0-6.2-1.1-8.4-3.3zm17.7-18.2h4.4v3.9h-4.4zm0 6.9h4.4v17.6h-4.4zm8.8 0h4.2v2.1c0 .7-.1 1.2-.1 1.2h.1c.8-1.7 3-3.7 5.8-3.7q4.05 0 5.1 3.6h.1c1-1.8 3.2-3.6 6-3.6 3.7 0 5.8 2.1 5.8 6.7v11.3h-4.3v-10.5c0-2-.4-3.5-2.4-3.5-3 0-4.5 3-4.5 6.1v7.9h-4.5v-10.5c0-1.9-.3-3.5-2.4-3.5-3.1 0-4.5 3.2-4.5 6.1v7.9h-4.4zm31.3 0h4v1.3c0 .7-.1 1.2-.1 1.2h.1c1.1-1.9 3.3-3 5.7-3 4.8 0 7.8 3.8 7.8 9.2 0 5.6-3.4 9.2-8 9.2-2 0-3.8-.9-5.1-2.5h-.1s.1.6.1 1.5v7.4h-4.4Zm8.6 14.3c2.4 0 4.4-2 4.4-5.4 0-3.3-1.8-5.5-4.3-5.5-2.3 0-4.4 1.7-4.4 5.6-.1 2.6 1.4 5.3 4.3 5.3zm12.3-21.2h4.3v18.3c0 1.9.7 2.4 1.8 2.4h.7v3.8c-.3 0-.8.1-1.4.1-2.4 0-5.4-.6-5.4-5.7zm9.7 0h4.4v3.9h-4.4zm0 6.9h4.4v17.6h-4.4zm9.8 3.7h-2.2v-3.5h2.2v-.8c0-5.8 4.8-6.5 7.2-6.5.5 0 1 0 1.5.1v3.7c-.1 0-.5-.1-.9-.1-1.3 0-3.4.3-3.4 2.9v.7h3.8v3.5h-3.8v13.9h-4.4zm13.3 17.4c1.2 0 2.4-.7 3.1-2.3l.7-1.6-7.4-17.3h4.9l3.7 10.1c.3.9.7 2.4.7 2.4h.1s.3-1.4.6-2.3l3.4-10.2h4.8l-7.8 20.2c-1.2 3.2-3.8 4.6-6.3 4.6-2.1 0-3.7-1.1-3.7-1.1l1.4-3.3c-.1.1.8.8 1.8.8zm16.9-28h4.4v3.9h-4.4zm0 6.9h4.4v17.6h-4.4zm8.7 0h4.2v2.1c0 .7-.1 1.2-.1 1.2h.1c.7-1.5 2.7-3.7 6.2-3.7 3.9 0 6.1 2 6.1 6.7v11.3h-4.4v-10.4c0-2.1-.6-3.6-2.8-3.6-3.1 0-5.1 2.6-5.1 5.8v8.2h-4.4v-17.6zm27.8 21.1c2.7 0 5-1.1 5-4.3v-1.1c0-.4.1-.9.1-.9h-.2c-1 1.6-2.6 2.4-4.9 2.4-5 0-7.9-4.1-7.9-8.9s2.7-8.8 7.8-8.8c2 0 4.1.7 5.2 2.3h.1s-.1-.2-.1-.5v-1.4h4.1v16.5c0 6-4.7 8.3-9.3 8.3-2.2 0-4.6-.6-6.3-1.5l1.3-3.3c1.6.7 3.4 1.2 5.1 1.2zm1-7.6c2.1 0 4.1-1.2 4.1-5.2s-2-5.1-4.3-5.1c-2.7 0-4.1 1.9-4.1 4.9-.1 3.1 1.4 5.4 4.3 5.4zm-91.3-90.7v50.5c0 .8-.6 1.4-1.4 1.4h-10.3c-.8 0-1.4-.6-1.4-1.4v-50.5c0-.8.6-1.4 1.4-1.4h10.3c.8.1 1.4.7 1.4 1.4zm80.5-1.3h-11.5c-.6 0-1.1.4-1.3 1l-9.1 29.9-10-29.9c-.2-.6-.7-.9-1.3-.9h-8.1c-.6 0-1.1.4-1.3.9l-10 29.9-9.1-29.9c-.2-.6-.7-1-1.3-1h-11.5c-.4 0-.9.2-1.1.6-.3.4-.3.8-.2 1.2l17 50.6c.2.6.7.9 1.3.9h9.2c.6 0 1.1-.4 1.3-.9l9.9-29.5 9.9 29.5c.2.6.7.9 1.3.9h9.2c.6 0 1.1-.4 1.3-.9l17-50.6c.1-.4.1-.9-.2-1.2-.6-.4-1-.6-1.4-.6zm17.3 0h-10.3c-.8 0-1.4.6-1.4 1.4v50.5c0 .8.6 1.4 1.4 1.4h10.3c.8 0 1.4-.6 1.4-1.4v-50.6c0-.7-.6-1.3-1.4-1.3zm-116.8 51.5c.6.7.1 1.7-.8 1.7h-12.6c-.5 0-1-.2-1.3-.6l-2.1-2.6c-4.4 2.8-9.6 4.5-15.1 4.5-15.4 0-27.9-12.5-27.9-27.9s12.5-27.9 27.9-27.9 27.9 12.5 27.9 27.9c0 5.5-1.6 10.7-4.4 15.1zm-25.1-11.2-5.5-6.7c-.6-.7-.1-1.8.8-1.8h11.6c.6-1.6.9-3.4.9-5.2 0-8.3-6.2-15.5-14.7-15.5s-14.7 7.2-14.7 15.5 6.2 15.4 14.7 15.4c2.5.1 4.9-.6 6.9-1.7zm-76.4 42.4c.4 3-.5 4.3-1.5 4.3s-2.4-1.2-3.9-3.6-2.1-5.1-1.3-6.5c.5-.9 1.5-1.3 2.9-.8 2.5.9 3.5 4.8 3.8 6.6zm-14.1 6.6c3.1 2.6 4 5.7 2.4 7.8-.9 1.2-2.4 1.8-4.1 1.8s-3.5-.6-4.7-1.7c-2.8-2.4-3.6-6.4-1.8-8.6.7-.9 1.9-1.4 3.2-1.4 1.7.1 3.5.8 5 2.1zm-5.1 25c13.2 0 27.5 4.5 43.3 18.6 1.6 1.4 3.7-.3 2.3-2.1-15.6-19.7-30-23.4-44.3-26.6-17.6-3.9-26.6-13.8-32.9-24.6-1.3-2.2-1.8-1.8-1.9 1-.1 3.4.1 7.9.9 12.3h0-2.1c-25.1 0-45.5-20.4-45.5-45.5s20.4-45.5 45.5-45.5 45.5 20.4 45.5 45.5c0 1.8-.1 3.6-.3 5.3-3.3-.6-9.9-.7-14.5-.3-1.7.1-1.5 1-.2 1.2 15 2.7 25.4 12 27.7 29 .1.4.6.5.8.2 6.2-10.3 9.7-22.4 9.7-35.3 0-38-30.8-68.8-68.8-68.8s-68.8 30.8-68.8 68.8 30.8 68.8 68.8 68.8c10.1-.1 20.1-2 34.8-2z"/></svg>