<!-- SPDX-FileCopyrightText: © 2025 Schneider Electric SPDX-License-Identifier: LicenseRef-Proprietary -->
<svg xmlns="http://www.w3.org/2000/svg" viewBox="0 0 16 16"><path d="M7.712 11.854a.5.5 0 0 0 .095.996.8.8 0 0 1 .191 0q.043.015.09.023c.545.092.925.582.895 1.121a1.06 1.06 0 0 1-.53.852 1.073 1.073 0 0 1-1.469-.385.4.4 0 0 0-.036-.054 1.07 1.07 0 0 1-.097-.653.5.5 0 0 0-.986-.166 2.078 2.078 0 0 0 2.045 2.418 2.08 2.08 0 1 0-.198-4.153Zm5.703-8.412a1 1 0 0 0-.027-.098C12.352.683 9.83.066 7.906.018 7.733.009 3.698-.133 2.685 2.332c-.044.079-.427.791-.191 1.533.096.304.338.727.942 1.013.999.476 1.877-.241 2.202-.685.025-.034.641-.827 2.007-.864.678-.021 1.534.163 1.784 1.13.181.7-2.016 2.545-2.843 3.24-1.292 1.084-.918 2.68-.442 3.255a.5.5 0 1 0 .77-.638c-.008-.009-.641-1.049.314-1.851 1.919-1.611 3.482-3.043 3.169-4.255-.313-1.215-1.346-1.923-2.78-1.88-1.878.051-2.75 1.222-2.784 1.268-.02.025-.472.613-.97.377-.226-.107-.362-.241-.417-.409-.091-.28.048-.634.135-.798C4.353.895 7.83 1.01 7.87 1.017c2.348.059 3.883.948 4.564 2.642.387 2.53-2.44 4.363-3.328 4.871-.687.394-1.009.743-1.114 1.203a.5.5 0 0 0 .976.221c.014-.06.05-.22.641-.56 1.029-.588 4.344-2.757 3.804-5.952Z"/></svg>