<!-- SPDX-FileCopyrightText: © 2025 Schneider Electric SPDX-License-Identifier: LicenseRef-Proprietary -->
<svg xmlns="http://www.w3.org/2000/svg" viewBox="0 0 16 16"><path d="M15.5 6H2.947a.5.5 0 0 0 0 1H15v5H1V6.865L3.121 4h9.804l1.086 1.086a.5.5 0 0 0 .707-.707l-1.232-1.233A.5.5 0 0 0 13.132 3H2.869a.5.5 0 0 0-.402.203l-2.369 3.2A.5.5 0 0 0 0 6.7v5.8a.5.5 0 0 0 .5.5h15a.5.5 0 0 0 .5-.5v-6a.5.5 0 0 0-.5-.5Z"/><path d="M6.5 8h-4a.5.5 0 0 0 0 1h4a.5.5 0 0 0 0-1Zm3 1h4a.5.5 0 0 0 0-1h-4a.5.5 0 0 0 0 1Zm0 2h4a.5.5 0 0 0 0-1h-4a.5.5 0 0 0 0 1Zm-3-1h-4a.5.5 0 0 0 0 1h4a.5.5 0 0 0 0-1Z"/></svg>