<!-- SPDX-FileCopyrightText: © 2025 Schneider Electric SPDX-License-Identifier: LicenseRef-Proprietary -->
<svg xmlns="http://www.w3.org/2000/svg" viewBox="0 0 16 16"><circle cx="9" cy="13" r=".5"/><circle cx="12" cy="13" r=".5"/><path d="M13 9.742V8.258C13 7.565 12.446 7 11.766 7H3.307C2.586 7 2 7.564 2 8.258v1.484C2 10.435 2.586 11 3.307 11H4.5a.5.5 0 0 0 .5-.5v-.999a.5.5 0 0 0-1 0V10h-.693C3.138 10 3 9.885 3 9.742V8.258C3 8.115 3.138 8 3.307 8h8.458c.129 0 .234.115.234.258v1.484c0 .143-.105.258-.234.258H6.499a.5.5 0 0 0 0 1h5.266c.681 0 1.234-.564 1.234-1.258Z"/><path d="m14.998 7.021-.005-.988c-.1-.588-.803-.912-1.016-.997A.5.5 0 0 0 13.791 5h-2.055L2.759.08a.5.5 0 1 0-.481.877l8.812 4.829A.5.5 0 0 0 11.5 6h2.186c.13.063.262.151.314.211V7.5a.5.5 0 0 0 .5.5h.211C15 8 15 8.053 15 8.21v2.573c0 .119-.109.217-.244.217H14.5a.5.5 0 0 0-.5.5v3.353a.146.146 0 0 1-.146.146H1.146A.146.146 0 0 1 1 14.853V6.29c0-.16.13-.29.29-.29H7.5a.5.5 0 0 0 0-1H1.29C.579 5 0 5.579 0 6.29v8.563c0 .632.514 1.146 1.146 1.146h12.707c.632 0 1.146-.515 1.146-1.146v-2.876c.569-.111 1-.604 1-1.193V8.211c0-.663-.369-1.093-1.002-1.189Z"/></svg>