<!-- SPDX-FileCopyrightText: © 2025 Schneider Electric SPDX-License-Identifier: LicenseRef-Proprietary -->
<svg xmlns="http://www.w3.org/2000/svg" viewBox="0 0 16 16"><path d="M15.5 4a.5.5 0 0 0-.5.5V13H1V3h14.5a.5.5 0 0 0 0-1H.5a.5.5 0 0 0-.5.5v11a.5.5 0 0 0 .5.5h15a.5.5 0 0 0 .5-.5v-9a.5.5 0 0 0-.5-.5Z"/><path d="M11.09 11.633a.5.5 0 0 0 .616.346l1.926-.541a.5.5 0 0 0 .347-.617l-.541-1.925a.5.5 0 1 0-.963.271l.22.78-8.854-4.788.682-.175a.499.499 0 1 0-.248-.968l-1.938.497a.5.5 0 0 0-.36.608l.497 1.938a.5.5 0 0 0 .968-.248l-.217-.847 8.956 4.845-.744.209a.5.5 0 0 0-.347.616Z"/></svg>