<!-- SPDX-FileCopyrightText: © 2025 Schneider Electric SPDX-License-Identifier: LicenseRef-Proprietary -->
<svg xmlns="http://www.w3.org/2000/svg" viewBox="0 0 16 16"><path d="M14.489 0h-10a.5.5 0 0 0-.5.5v6a.5.5 0 0 0 .5.5h2.367l-.596.595a.5.5 0 0 0 .707.707l1.44-1.439a.5.5 0 0 0 0-.707l-.027-.025-1.374-1.372a.5.5 0 0 0-.707.707l.535.535H4.988V1h9v14H4.989V9.5a.5.5 0 0 0-.5-.5H1.707l.596-.596a.5.5 0 0 0-.707-.707l-1.45 1.45A.5.5 0 0 0 0 9.519a.5.5 0 0 0 .146.371l1.405 1.405a.5.5 0 0 0 .707-.707L1.671 10h2.318v5.5a.5.5 0 0 0 .5.5h10a.5.5 0 0 0 .5-.5V.5a.5.5 0 0 0-.5-.5Z"/></svg>