<!-- SPDX-FileCopyrightText: © 2025 Schneider Electric SPDX-License-Identifier: LicenseRef-Proprietary -->
<svg xmlns="http://www.w3.org/2000/svg" viewBox="0 0 16 16"><path d="M.5 8a.5.5 0 0 0 0 1h9a.5.5 0 0 0 .5-.5v-2a.5.5 0 0 0-.5-.5h-9a.5.5 0 0 0 0 1H9v1zm0-6a.5.5 0 0 0 0 1h9a.5.5 0 0 0 .5-.5v-2a.5.5 0 0 0-.5-.5h-9a.5.5 0 0 0 0 1H9v1z"/><path d="M15.5 10H12V5h3.5a.5.5 0 0 0 0-1H12V.5a.5.5 0 0 0-1 0V4H7.5a.5.5 0 0 0 0 1H11v5H7.5a.5.5 0 0 0 0 1H11v4.5a.5.5 0 0 0 1 0V11h3.5a.5.5 0 0 0 0-1Z"/><path d="M9.5 12h-9a.5.5 0 0 0 0 1H9v1H.5a.5.5 0 0 0 0 1h9a.5.5 0 0 0 .5-.5v-2a.5.5 0 0 0-.5-.5Z"/></svg>