<!-- SPDX-FileCopyrightText: © 2025 Schneider Electric SPDX-License-Identifier: LicenseRef-Proprietary -->
<svg xmlns="http://www.w3.org/2000/svg" viewBox="0 0 16 16"><path d="M12.191 6.273a.5.5 0 0 0 .682-.19l.462-.818a.5.5 0 1 0-.871-.492l-.462.818a.5.5 0 0 0 .189.682Zm-1.24-3.558-.847.405a.5.5 0 0 0 .432.902l.847-.405a.5.5 0 0 0-.432-.902Zm4.021 1.639q.326 0 .635-.068a.5.5 0 1 0-.213-.977A2.01 2.01 0 0 1 13.072.692a.5.5 0 1 0-.946-.325 3.012 3.012 0 0 0 2.845 3.987Zm.361.692a.5.5 0 0 0-.45.546l.09.936a.5.5 0 0 0 .497.452l.049-.002a.5.5 0 0 0 .45-.546l-.09-.936c-.027-.275-.275-.461-.546-.45Zm-7.051.936a.5.5 0 0 0-.565 0l-7.5 5.15a.5.5 0 1 0 .567.824l7.217-4.955 7.218 4.941c.227.157.538.1.694-.13a.5.5 0 0 0-.13-.694zM14.5 13h-13a.5.5 0 0 0-.5.5v2a.5.5 0 0 0 .5.5h1a.5.5 0 0 0 0-1H2v-1h12v1H4.5a.5.5 0 0 0 0 1h10a.5.5 0 0 0 .5-.5v-2a.5.5 0 0 0-.5-.5ZM9.804.993l.927.154a.499.499 0 1 0 .164-.986L9.968.007a.5.5 0 0 0-.164.986Z"/></svg>