<!-- SPDX-FileCopyrightText: © 2025 Schneider Electric SPDX-License-Identifier: LicenseRef-Proprietary -->
<svg xmlns="http://www.w3.org/2000/svg" viewBox="0 0 16 16"><path d="M3.737 6.955a.497.497 0 0 0-.649.28 1.513 1.513 0 0 0 1.406 2.069 1.513 1.513 0 0 0 1.45-1.941.5.5 0 1 0-.959.283.512.512 0 1 1-.968-.042.5.5 0 0 0-.279-.649ZM1.5 9.49a.5.5 0 0 0 .5-.5V6.807a.5.5 0 0 0-1 0V8.99a.5.5 0 0 0 .5.5Z"/><path d="M14.564 3H1.436C.644 3 0 3.697 0 4.553v.685a.5.5 0 0 0 1 0v-.685c0-.3.2-.553.436-.553h13.128c.236 0 .436.253.436.553v6.895c0 .3-.199.553-.436.553H1.387c-.209 0-.387-.229-.387-.498v-1.002a.5.5 0 0 0-1 0v1.002c0 .826.622 1.498 1.387 1.498h13.178c.792 0 1.436-.696 1.436-1.553V4.553c0-.856-.644-1.553-1.436-1.553Z"/><path d="M14 8.99V6.807a.5.5 0 0 0-1 0V8.99a.5.5 0 0 0 1 0ZM9.736 6.918a.497.497 0 0 0-.649.28q-.105.265-.105.557c0 .834.678 1.512 1.512 1.512a1.513 1.513 0 0 0 1.451-1.939.5.5 0 0 0-.961.28.512.512 0 1 1-.968-.041.5.5 0 0 0-.28-.649ZM8 8.99V6.807a.5.5 0 0 0-1 0V8.99a.5.5 0 0 0 1 0Z"/></svg>