<!-- SPDX-FileCopyrightText: © 2025 Schneider Electric SPDX-License-Identifier: LicenseRef-Proprietary -->
<svg xmlns="http://www.w3.org/2000/svg" viewBox="0 0 16 16"><path d="M7.5 7.637H6V6.5a.5.5 0 0 0-1 0v1.637a.5.5 0 0 0 .5.5H7V9.5a.5.5 0 0 0 1 0V8.137a.5.5 0 0 0-.5-.5Z"/><path d="M14.147 1H9.5a.5.5 0 0 0 0 1H14v12H2V2h4.5a.5.5 0 0 0 0-1H1.852A.853.853 0 0 0 1 1.852v12.295c0 .47.382.853.852.853h12.295c.47 0 .853-.383.853-.853V1.852A.854.854 0 0 0 14.147 1Z"/><path d="M11.04 7.807a.5.5 0 0 0-.036.706L12 9.617v2.884a.5.5 0 0 0 1 0V9.425a.5.5 0 0 0-.129-.335l-1.125-1.246a.5.5 0 0 0-.706-.036ZM13 6.5v-3a.5.5 0 0 0-1 0v3a.5.5 0 0 0 1 0Zm-10-2v7a.5.5 0 0 0 .5.5h6a.5.5 0 0 0 .5-.5v-7a.5.5 0 0 0-.5-.5h-6a.5.5 0 0 0-.5.5ZM4 5h5v6H4z"/></svg>