<!-- SPDX-FileCopyrightText: © 2025 Schneider Electric SPDX-License-Identifier: LicenseRef-Proprietary -->
<svg xmlns="http://www.w3.org/2000/svg" viewBox="0 0 16 16"><path d="M15.781 5.446a2.26 2.26 0 0 0-1.294-1.168 2.3 2.3 0 0 0-.744-.133 15 15 0 0 0-.487-.052c-.533-.05-.954-.09-1.822-.455C9.983 3.028 7.44 1.095 6.7.449 6.45.171 6.064 0 5.615 0H4.412c-.329 0-.632.104-.872.279A1.3 1.3 0 0 0 2.737 0H1.291C.579 0 0 .579 0 1.291V4.69c0 .711.578 1.294 1.289 1.3L2.496 6c.297.011.502-.219.504-.496A.5.5 0 0 0 2.504 5l-1.208-.01a.3.3 0 0 1-.297-.3V1.291c0-.16.13-.291.291-.291h1.446c.121 0 .226.073.272.177a1 1 0 0 0-.006.118.5.5 0 0 0 .476.5.51.51 0 0 0 .555-.497q0-.054-.004-.106c.06-.111.21-.192.382-.192h1.203c.143 0 .386.05.386.243l.028 1.785c.006.227.016.605-.107.809a.44.44 0 0 1-.2.164H4.402c-.222 0-.409-.135-.409-.295a.5.5 0 0 0-1 0c0 .714.632 1.295 1.409 1.295h1.319c.298 0 .621-.154.859-.395.22.105.432.228.653.354q.26.151.522.29c.752.39 1.105.708 1.352.968a.5.5 0 0 0 .727-.688c-.425-.448-.924-.809-1.618-1.168q-.244-.13-.484-.269A11 11 0 0 0 7 3.698c.04-.263.033-.512.029-.695l-.016-1.019c1.151.883 2.877 2.09 4.035 2.576.388.163.706.271.982.345a2.2 2.2 0 0 0-.264.363 16.1 16.1 0 0 1-4.23 4.405.499.499 0 1 0 .577.816 17 17 0 0 0 3.479-3.274q.035.094.079.188a.5.5 0 1 0 .902-.43 1.27 1.27 0 0 1 .042-1.177l.078-.123a1.27 1.27 0 0 1 1-.527h.062q.203.005.396.074a1.28 1.28 0 0 1 .263 2.279q-.022.009-.043.021a17.3 17.3 0 0 0-3.598 2.675c-.93.9-1.553 1.584-2.05 2.263a2.27 2.27 0 0 0-1.611-.988 2.24 2.24 0 0 0-1.68.476c-.478.379-.78.923-.854 1.53A2.3 2.3 0 0 0 4.925 15h-.427a.5.5 0 0 0 0 1h5a.5.5 0 0 0 0-1H6.515a1.28 1.28 0 0 1-.944-1.405 1.29 1.29 0 0 1 1.421-1.133 1.28 1.28 0 0 1 1.11 1.099.5.5 0 0 0 .037.131.502.502 0 0 0 .903.095c.542-.904 1.2-1.684 2.427-2.872a16.2 16.2 0 0 1 3.251-2.441 2.28 2.28 0 0 0 1.061-3.026Z"/></svg>