<!-- SPDX-FileCopyrightText: © Robokassa SPDX-License-Identifier: LicenseRef-Proprietary -->
<svg xmlns="http://www.w3.org/2000/svg" x="0" y="0" version="1.1" viewBox="0 0 378.97 100"><path fill="#55788E" d="M25 25v50h50z"/><path fill="#023D5E" d="M75 25H25v50z"/><path fill="#FF5722" d="M256.98 35c-7.46 0-14 6.04-14 13.49V65h6v-6h15.99v6h6V48.5c0-7.46-6.54-13.5-13.99-13.5zm7.99 18h-15.99v-4.49c0-4.14 3.86-7.5 8-7.5s8 3.36 8 7.5zm74.99-18c-7.46 0-14 6.04-14 13.49V65h6v-6h15.99v6h6V48.5c.01-7.46-6.53-13.5-13.99-13.5zm8 18h-15.99v-4.49c0-4.14 3.86-7.5 8-7.5s8 3.36 8 7.5z"/><path fill="#023D5E" d="M195.98 35c-8.28 0-15 6.71-15 15 0 8.28 6.71 15 15 15 8.28 0 15-6.71 15-15 .01-8.29-6.72-15-15-15zm0 23.99c-4.96 0-9-4.03-9-9 0-4.96 4.03-9 9-9 4.96 0 9 4.03 9 9 0 4.98-4.03 9-9 9zm-21.36-10.58a8.94 8.94 0 0 0 1.17-4.42c0-4.96-4.03-9-9-9H155v30h14.8c4.96 0 9-4.03 9-9-.02-3.18-1.68-5.97-4.18-7.58zm-13.63-7.42h5.8c1.65 0 3 1.35 3 3s-1.35 3-3 3h-5.8zm8.79 18h-8.8v-6h8.8c1.65 0 3 1.35 3 3 0 1.64-1.35 3-3 3zM136.49 35c-8.28 0-15 6.71-15 15 0 8.28 6.71 15 15 15s15-6.71 15-15-6.72-15-15-15zm0 23.99c-4.96 0-9-4.03-9-9 0-4.96 4.03-9 9-9 4.96 0 9 4.03 9 9 0 4.98-4.04 9-9 9z"/><path fill="#FF5722" d="m289.94 47.06.03-.06h-7c-1.65 0-3-1.35-3-3s1.35-3 3-3h10.99l4-6h-15c-4.96 0-9 4.03-9 9 0 4.65 3.52 8.47 8.03 8.94l-.02.06h7c1.65 0 3 1.35 3 3s-1.35 3-3 3h-10.99l-4 6h15c4.96 0 9-4.03 9-9-.01-4.65-3.53-8.47-8.04-8.94zM307.96 35c-4.96 0-9 4.03-9 9 0 4.65 3.52 8.47 8.03 8.94l-.03.06h7c1.65 0 3 1.35 3 3s-1.35 3-3 3h-10.99l-4 6h15c4.96 0 9-4.03 9-9 0-4.65-3.52-8.47-8.03-8.94l.03-.06h-7c-1.65 0-3-1.35-3-3s1.35-3 3-3h10.99l4-6zm-68.29 0L227.4 48.06l12.57 16.92h-7l-9.57-12.69-2.43 2.9v9.78h-6V35h6v11.83L231.8 35z"/><path fill="#023D5E" d="M101 65h-6V35h14.13c2.53 0 4.69.86 6.52 2.59 1.86 1.76 3.31 4.34 3.35 6.9.02 2.32-.53 4.21-2.01 6-1.4 1.73-2.83 3.04-5 3.5l7.5 10.99h-7l-7.05-10.38c-.28-.39-.73-.61-1.21-.61H101zm0-16.51h8c2.21 0 4-1.79 4-4s-1.79-4-4-4h-8z"/></svg>