<!-- SPDX-FileCopyrightText: © 2025 Schneider Electric SPDX-License-Identifier: LicenseRef-Proprietary -->
<svg xmlns="http://www.w3.org/2000/svg" viewBox="0 0 16 16"><path d="M12.605 1.011A.5.5 0 0 0 12.5 1H3.009C1.902 1 1 1.929 1 3.071v5.502C1 9.36 1.624 10 2.39 10h8.148a1.4 1.4 0 0 0 1.053-.489c.225-.263.349-.6.349-.95a.5.5 0 0 0-1 0 .46.46 0 0 1-.108.299.4.4 0 0 1-.294.14H2.39C2.175 9 2 8.809 2 8.573V8h7.5a.5.5 0 0 0 0-1H2V6h7.5a.5.5 0 0 0 0-1H2V4h7.5a.5.5 0 0 0 0-1H2.002c.034-.558.473-1 1.006-1h8.175c-.116.278-.184.63-.184 1.07V6.5a.5.5 0 0 0 1 0V3.07c0-.802.225-1.073.889-1.073.309 0 1.111.21 1.111 1.172V14H1.5a.5.5 0 0 0 0 1h13a.5.5 0 0 0 .5-.5V3.169c0-1.54-1.25-2.273-2.395-2.158Z"/></svg>