<!-- SPDX-FileCopyrightText: © 2025 Schneider Electric SPDX-License-Identifier: LicenseRef-Proprietary -->
<svg xmlns="http://www.w3.org/2000/svg" viewBox="0 0 16 16"><path d="M14.748 3.568 8.927.239a.51.51 0 0 0-.502-.233.5.5 0 0 0-.278.057l-6.883 3.68A.5.5 0 0 0 1 4.184v7.422a.5.5 0 0 0 .255.436l6.5 3.659a.5.5 0 0 0 .486.002l4.95-2.721a.5.5 0 0 0-.482-.877l-4.706 2.587L2 11.313v-6.83l6-3.208V7.61l-1 .642V4.6a.5.5 0 0 0-.719-.45L3.65 5.429a.5.5 0 0 0-.281.463l.11 4.177-.268.146a.5.5 0 0 0 .477.879l.537-.292a.5.5 0 0 0 .261-.452l-.11-4.162 1.623-.789v3.768a.498.498 0 0 0 .77.42l2-1.282a.5.5 0 0 0 .23-.421V1.433l5 2.859v6.425L10.19 8.558a.5.5 0 1 0-.494.87l4.555 2.583a.5.5 0 0 0 .747-.435V4.003a.5.5 0 0 0-.252-.434Z"/></svg>