<!-- SPDX-FileCopyrightText: © 2025 Schneider Electric SPDX-License-Identifier: LicenseRef-Proprietary -->
<svg xmlns="http://www.w3.org/2000/svg" viewBox="0 0 16 16"><path d="M2.478 6.385a.5.5 0 0 0 .364-.157c.011-.012 1.135-1.208 1.646-1.679.241-.221.564-.377 1.297-.01a.5.5 0 0 0 .447-.893c-.959-.48-1.774-.425-2.42.168-.538.496-1.651 1.68-1.698 1.73a.5.5 0 0 0 .364.841Zm13.345-2.76c-1.027-.516-1.896-.457-2.582.175-.509.468-2.651 2.614-3.238 3.202l-9.605.047a.496.496 0 0 0-.495.53c.185 2.932.92 4.419 2.187 4.419.865 0 2.187.019 2.188.019.198-.018.402-.128.475-.327.213-.577.541-1.176.735-1.358.213.178.599.791.865 1.389a.5.5 0 0 0 .444.297c.029 0 .406.009.885.009.407 0 .887-.006 1.289-.028 1.026-.057 1.342-.983 1.648-1.88q.103-.31.229-.64a.5.5 0 0 0-.929-.363c-.091.232-.169.462-.244.682-.287.842-.436 1.188-.757 1.205-.581.031-1.36.027-1.785.022-.407-.844-.989-1.724-1.649-1.724-.688 0-1.223.961-1.536 1.714-.454-.005-1.262-.014-1.855-.014-.436 0-.949-.789-1.15-2.956l1.786-.009-.908.912a.5.5 0 0 0 .707.706l1.48-1.487a.5.5 0 0 0 .097-.136h.283l-.523.513a.5.5 0 0 0 .7.712l1.021-1.004a.5.5 0 0 0 .132-.229l4.5-.022a.5.5 0 0 0 .351-.147c.028-.028 2.79-2.8 3.353-3.318.262-.24.637-.429 1.459-.018a.498.498 0 1 0 .447-.891Z"/></svg>