<!-- SPDX-FileCopyrightText: © 2025 Schneider Electric SPDX-License-Identifier: LicenseRef-Proprietary -->
<svg xmlns="http://www.w3.org/2000/svg" viewBox="0 0 16 16"><path d="M15.806 10.154c-.433-.335-1.72-.842-2.34-1.076-.893-5.854-4.112-7.095-6.679-7.095-5.98 0-6.532 5.829-6.74 8.022l-.044.438a.5.5 0 0 0 .497.558h4a.5.5 0 0 0 0-1H1.052c.208-2.181.742-7.017 5.735-7.017 3.216 0 5.144 2.196 5.73 6.527.025.184.15.339.324.402.413.15.946.359 1.407.558-2.83.995-4.831 1.469-5.12 1.483L2.503 12a.5.5 0 0 0-.497.497l-.006 1a.5.5 0 0 0 .497.503H2.5a.5.5 0 0 0 .5-.497l.003-.507 6.124-.042h.004c.458 0 3.167-.68 6.543-1.936a.5.5 0 0 0 .132-.865Z"/></svg>