<!-- SPDX-FileCopyrightText: © 2025 Schneider Electric SPDX-License-Identifier: LicenseRef-Proprietary -->
<svg xmlns="http://www.w3.org/2000/svg" viewBox="0 0 16 16"><path fill="currentColor" d="M11.529.821A.499.499 0 0 0 11.146 0H9.903a.5.5 0 0 0 0 1h.173l-.959 1.147A.5.5 0 0 0 9 2.468v.644l-2 .522V2.441a.5.5 0 0 0-.131-.337L5.859 1h1.638l.004.117c.01.276.246.513.517.482a.5.5 0 0 0 .482-.517l-.021-.6a.5.5 0 0 0-.5-.483H4.723a.5.5 0 0 0-.37.837l1.645 1.798v1.62c0 .293.268.529.55.498a.5.5 0 0 0 .178-.014l2.272-.593v1.04l-2.525.659a.5.5 0 1 0 .253.967l2.272-.594v1.037l-2.525.659a.5.5 0 1 0 .253.967l2.272-.594v1.028l-2.525.659a.5.5 0 1 0 .253.967l2.272-.594v1.029l-2.616.664a.5.5 0 0 0-.377.481l-.008 1.047c0 .118.04.233.116.324l1.607 1.925a.5.5 0 0 0 .768.001l1.009-1.207a.5.5 0 0 0-.768-.642l-.625.748-1.106-1.325.004-.478 3.025-.768a.499.499 0 0 0-.03-.976v-1.084l.033-.008a.5.5 0 0 0-.034-.975V8.024l.033-.008a.5.5 0 0 0-.034-.975V5.955l.033-.008a.5.5 0 0 0-.034-.975v-1.09l.033-.008a.5.5 0 0 0-.034-.975v-.251L11.522.819Z"/></svg>