<!-- SPDX-FileCopyrightText: © 2025 Schneider Electric SPDX-License-Identifier: LicenseRef-Proprietary -->
<svg xmlns="http://www.w3.org/2000/svg" viewBox="0 0 16 16"><path d="M2.503 3H2.5a.5.5 0 0 0-.5.497l-.035 6a.5.5 0 0 0 .5.502H12.5a.5.5 0 0 0 0-1H2.968L3 3.502a.5.5 0 0 0-.497-.503Z"/><path d="M15.886.147A.5.5 0 0 0 15.532 0H.5a.5.5 0 0 0-.5.5v11a.5.5 0 0 0 .5.5H6v3H2.5a.5.5 0 0 0 0 1h4a.5.5 0 0 0 .5-.5v-4a.5.5 0 0 0-.5-.5H1V1h14.03l-.029 10H9.445a.5.5 0 0 0-.356.148.5.5 0 0 0-.144.358l.055 4a.5.5 0 0 0 .5.493h4a.5.5 0 0 0 0-1H9.993l-.041-3H15.5a.5.5 0 0 0 .5-.499l.031-11a.5.5 0 0 0-.146-.354Z"/><path d="M8 6.5v-1a.5.5 0 0 0-1 0v1a.5.5 0 0 0 1 0Zm1.694 1.043a.5.5 0 0 0 .425-.237l.772-1.247.742 1.24a.499.499 0 0 0 .912-.13l1.125-4.274a.5.5 0 0 0-.966-.255l-.822 3.125-.555-.926a.5.5 0 0 0-.425-.243h-.004a.5.5 0 0 0-.425.237L9.269 6.778a.499.499 0 0 0 .425.763ZM5.481 7a.5.5 0 0 0 .5-.497l.019-3A.5.5 0 0 0 5.503 3H5.5a.5.5 0 0 0-.5.497l-.019 3A.5.5 0 0 0 5.478 7z"/></svg>