<!-- SPDX-FileCopyrightText: © 2025 Schneider Electric SPDX-License-Identifier: LicenseRef-Proprietary -->
<svg xmlns="http://www.w3.org/2000/svg" viewBox="0 0 16 16"><path d="M15.5 2h-3a.5.5 0 0 0-.5.5V4h-2V2.5a.5.5 0 0 0-.5-.5h-9a.5.5 0 0 0-.5.5v6a.5.5 0 0 0 .5.5h1.475v2.739c0 1.095.633 2.272 2.022 2.272 1.376 0 2.002-1.178 2.002-2.272V8.5a.5.5 0 0 0-1 0v3.239c0 .13-.028 1.272-1.002 1.272-.994 0-1.022-1.143-1.022-1.272V8.5a.5.5 0 0 0-.5-.5H1V3h8v1.5a.5.5 0 0 0 .5.5h3a.5.5 0 0 0 .5-.5V3h2v5h-1.527a.5.5 0 0 0-.5.5v3.239c0 .052-.011 1.272-.957 1.272-.968 0-1.017-1.06-1.017-1.272V8.5a.5.5 0 0 0-.5-.5H7.5a.5.5 0 0 0 0 1h2.499v2.739c0 1.095.631 2.272 2.017 2.272 1.345 0 1.957-1.178 1.957-2.272V9H15.5a.5.5 0 0 0 .5-.5v-6a.5.5 0 0 0-.5-.5Z"/></svg>