<!-- SPDX-FileCopyrightText: © 2025 Schneider Electric SPDX-License-Identifier: LicenseRef-Proprietary -->
<svg xmlns="http://www.w3.org/2000/svg" viewBox="0 0 16 16"><path d="M15.964 2.865a.5.5 0 0 0-.494-.475c-.041 0-4.147-.068-7.164-2.28a.5.5 0 0 0-.295-.104.5.5 0 0 0-.295.088C4.169 2.42.567 2.385.543 2.39c-.234.01-.494.206-.508.475-.238 4.691.724 8.244 2.86 10.56 2.266 2.456 5.006 2.565 5.122 2.569h.015a.5.5 0 0 0 .017-1c-.024 0-2.461-.112-4.434-2.265-1.868-2.037-2.742-5.182-2.6-9.353 1.125-.065 4.009-.417 6.972-2.267 2.635 1.803 5.809 2.181 6.999 2.26.242 7.068-2.468 9.886-4.812 11.003a.5.5 0 1 0 .43.902c2.67-1.271 5.767-4.456 5.361-12.41Z"/></svg>