<!-- SPDX-FileCopyrightText: © 2025 Schneider Electric SPDX-License-Identifier: LicenseRef-Proprietary -->
<svg xmlns="http://www.w3.org/2000/svg" viewBox="0 0 16 16"><path d="M1.059 3.448c1.193-.165 4.68-.76 6.936-2.327 2.248 1.572 5.73 2.163 6.926 2.327.043.576.062 1.129.057 1.647a.5.5 0 0 0 .495.505c.303-.028.502-.219.505-.495a21 21 0 0 0-.094-2.15.5.5 0 0 0-.447-.452c-.047-.005-4.72-.507-7.133-2.397a.5.5 0 0 0-.616 0C5.267 1.989.591 2.499.544 2.504a.5.5 0 0 0-.445.448c-.675 6.867 2.277 10.193 4.098 11.565a.499.499 0 1 0 .601-.798C3.18 12.499.578 9.558 1.059 3.448Z"/><path d="M14.112 8H13.5a.5.5 0 0 0 0 1h.612a.89.89 0 0 1 .888.888v4.225a.89.89 0 0 1-.888.888H7.815a.85.85 0 0 1-.628-.271c-.142-.156-.209-.357-.187-.614l-.002-4.287a.72.72 0 0 1 .178-.554.82.82 0 0 1 .587-.274H11.5a.5.5 0 0 0 0-1H9.336l-.967-.784-.056-.06a1.71 1.71 0 0 1-.188-2.344 1.71 1.71 0 0 1 2.333-.301q.037.027.076.045l1.279.997a.503.503 0 0 0 .702-.087.5.5 0 0 0-.087-.702l-1.362-1.061a.5.5 0 0 0-.113-.065 2.71 2.71 0 0 0-3.604.545 2.71 2.71 0 0 0 .208 3.635q.04.06.099.108l.093.075h0a1.84 1.84 0 0 0-1.322.613c-.32.363-.47.829-.425 1.264l.002 4.191c-.047.493.111.967.445 1.334.345.38.844.598 1.368.598h6.297a1.89 1.89 0 0 0 1.888-1.888V9.889a1.89 1.89 0 0 0-1.888-1.888Z"/><path d="M10.936 12.804q.06.069.169.069.102 0 .163-.069c.061-.069.062-.11.066-.194l.171-2.184a.46.46 0 0 0-.088-.341q-.106-.128-.312-.128-.212 0-.32.128a.45.45 0 0 0-.091.341l.171 2.184a.33.33 0 0 0 .071.194Zm-.143 1.137q.117.12.312.12.2 0 .312-.12c.112-.12.111-.183.111-.309q0-.183-.111-.3c-.111-.117-.178-.117-.312-.117q-.195 0-.312.117c-.117.117-.117.178-.117.3q0 .189.117.309Z"/></svg>