<!-- SPDX-FileCopyrightText: © 2025 Schneider Electric SPDX-License-Identifier: LicenseRef-Proprietary -->
<svg xmlns="http://www.w3.org/2000/svg" viewBox="0 0 16 16"><path d="M15.964 2.865a.5.5 0 0 0-.494-.475c-.041 0-4.147-.068-7.164-2.28a.5.5 0 0 0-.295-.104.5.5 0 0 0-.295.088C4.169 2.42.567 2.385.543 2.39c-.234.01-.494.206-.508.475-.238 4.691.724 8.244 2.86 10.56 2.266 2.456 5.006 2.565 5.122 2.569h.015a.5.5 0 0 0 .017-1c-.021 0-1.895-.086-3.686-1.555a.5.5 0 0 0 .01-.139c-.151-2.277.359-4.13 1.365-4.954.686-.563 1.355-.688 1.359-.688a.55.55 0 0 0 .373-.284.5.5 0 0 0 .033-.381.5.5 0 0 0-.246-.293 1.52 1.52 0 0 1 .701-2.865 1.52 1.52 0 0 1 1.519 1.518c0 .546-.296 1.053-.771 1.322-.239.136-.292.496-.157.736.073.13.204.222.351.248.007 0 .676.125 1.362.688.701.575 1.175 1.666 1.333 3.072a.51.51 0 0 0 .553.441.5.5 0 0 0 .441-.553c-.188-1.667-.789-2.993-1.692-3.734a4.7 4.7 0 0 0-.993-.622 2.52 2.52 0 0 0 .574-1.6 2.52 2.52 0 0 0-2.519-2.518 2.52 2.52 0 0 0-1.923 4.146 4.6 4.6 0 0 0-.933.593c-1.117.916-1.738 2.655-1.756 4.85-1.683-2.04-2.468-5.079-2.332-9.046 1.125-.065 4.009-.417 6.972-2.267 2.635 1.803 5.809 2.181 6.999 2.26.242 7.068-2.468 9.886-4.812 11.003a.5.5 0 1 0 .43.902c2.67-1.271 5.767-4.456 5.361-12.41Z"/></svg>