<!-- SPDX-FileCopyrightText: © 2025 Schneider Electric SPDX-License-Identifier: LicenseRef-Proprietary -->
<svg xmlns="http://www.w3.org/2000/svg" viewBox="0 0 16 16"><path d="M9.551 7.696a.5.5 0 0 0 .336.207c1.309.19 1.335.289 1.589 1.233.059.216.124.461.213.74a.5.5 0 1 0 .953-.303 15 15 0 0 1-.2-.696c-.301-1.12-.556-1.603-1.915-1.878.02-.168.033-.361.033-.553.519-.193.986-.563.986-1.132 0-.712-.818-1.083-1.365-1.251-.064-.455-.248-1.042-.759-1.169-.327-.083-.606.011-.826.087a1.95 1.95 0 0 1-1.191 0c-.22-.077-.499-.172-.826-.087-.511.127-.694.714-.759 1.169-.547.168-1.365.539-1.365 1.251 0 .569.468.938.986 1.132 0 .192.014.385.033.553-1.36.275-1.614.759-1.915 1.877-.055.203-.116.434-.2.697a1.6 1.6 0 0 0-.073.58.5.5 0 0 0 .499.477h.024a.5.5 0 0 0 .476-.522.7.7 0 0 1 .027-.23c.089-.279.155-.524.213-.74.224-.834.271-1.008 1.182-1.169l.008.009c.677.718 1.497 1.071 2.38 1.002a.5.5 0 0 0 .464-.534.51.51 0 0 0-.534-.463c-.55.032-1.034-.155-1.483-.591a.4.4 0 0 0-.01-.08c-.057-.283-.126-.844-.07-1.141a.5.5 0 0 0-.399-.584 3 3 0 0 1-.618-.22c.072-.123.542-.331.948-.419a.5.5 0 0 0 .395-.472c.008-.218.056-.478.106-.606.043.009.101.029.184.058.213.074.505.175.924.175s.711-.101.924-.175c.083-.029.141-.048.184-.058.051.129.099.389.106.606a.5.5 0 0 0 .395.472c.406.088.876.296.94.354-.039.082-.327.229-.61.284-.054.01-.953.174-1.997.148-.295.014-.504.214-.51.49a.5.5 0 0 0 .49.51c.633.015 1.223-.037 1.631-.083a5 5 0 0 1-.084.661.5.5 0 0 0 .082.387Z"/><path d="M15.964 2.868a.5.5 0 0 0-.494-.475c-.041 0-4.147-.068-7.164-2.289A.5.5 0 0 0 8.013 0a.43.43 0 0 0-.212.041.5.5 0 0 0-.087.048C4.168 2.423.571 2.388.541 2.393c-.248.023-.494.207-.508.475-.532 10.484 5.494 12.693 7.354 13.119a.5.5 0 0 0 .112.013q.026 0 .051-.003A.5.5 0 0 0 8 15.5V14h1.837a.5.5 0 0 0 .493-.418l.5-3a.503.503 0 0 0-.493-.582H5.665a.5.5 0 0 0-.491.599l.485 2.414a.5.5 0 0 0 .981-.197l-.365-1.815h3.472l-.334 2H7.5a.5.5 0 0 0-.5.5v1.345C4.706 14.109.741 11.637 1.013 3.38c1.125-.065 4.01-.418 6.972-2.275 2.636 1.81 5.81 2.189 7 2.269.16 4.756-1.032 8.278-3.461 10.205l-.083.065a.5.5 0 1 0 .611.791l.095-.074c1.931-1.531 4.159-4.768 3.817-11.492Z"/></svg>