<!-- SPDX-FileCopyrightText: © 2025 Schneider Electric SPDX-License-Identifier: LicenseRef-Proprietary -->
<svg xmlns="http://www.w3.org/2000/svg" viewBox="0 0 16 16"><path d="M14.937 4.063a.5.5 0 0 0 .062-.242c0-1.685-3.295-3.821-7-3.821S1 2.137 1 3.821v6.916a.5.5 0 0 0 .027.174c.099.305 1.392 3.977 6.244 5.076a.5.5 0 0 0 .598-.377.5.5 0 0 0-.377-.598C3.407 14.086 2.18 11.159 2 10.663V3.821C2 2.98 4.534 1 8 1s6 1.98 6 2.821v6.552c-.145.312-.837 1.604-2.808 2.776l-.581-2.907a.5.5 0 0 0-.754-.327l-1.198.743-.566-2.653 2.6-.094a1.79 1.79 0 0 0 1.787-1.787c0-.481-.176-.937-.496-1.283a1.71 1.71 0 0 0-1.528-.528 2.9 2.9 0 0 0-.874-1.324 3.12 3.12 0 0 0-2.054-.763c-1.172 0-2.22.671-2.717 1.706a1.75 1.75 0 0 0-.952.439 2.16 2.16 0 0 0-.712 1.593c0 .544.211 1.054.596 1.438s.895.596 1.437.596a.5.5 0 0 0 0-1c-.276 0-.535-.107-.73-.303a1.02 1.02 0 0 1-.302-.73c0-.315.144-.639.376-.844a.75.75 0 0 1 .438-.197.5.5 0 0 0 .652-.311 2.01 2.01 0 0 1 1.915-1.385c.518 0 1.014.184 1.396.517.377.328.61.774.656 1.256a.498.498 0 0 0 .674.42l.215-.082a.72.72 0 0 1 .778.182c.149.161.23.375.23.604a.79.79 0 0 1-.805.787l-3.213.115a.5.5 0 0 0-.471.604l.838 3.932a.497.497 0 0 0 .752.32l1.19-.738.558 2.796a.5.5 0 0 0 .033.105.5.5 0 0 0 .711.311c3.105-1.6 3.865-3.626 3.896-3.711a.5.5 0 0 0 .03-.17c0-3.863 0-5.609-.062-6.414Z"/></svg>