<!-- SPDX-FileCopyrightText: © 2024 Schneider Electric SPDX-License-Identifier: LicenseRef-Proprietary -->
<svg xmlns="http://www.w3.org/2000/svg" viewBox="0 0 20 20"><path fill="none" stroke="currentColor" stroke-linecap="round" stroke-linejoin="round" stroke-miterlimit="10" d="M10.04 19.5S-.26 19.2.54 3.52c0 0 4.73.09 9.46-3.02m3.03 18.15c2.96-1.41 6.94-5.17 6.43-15.13 0 0-5.41-.05-9.46-3.02m5.19 13.76c-.24-2.07-.97-3.53-1.92-4.31a5 5 0 0 0-2.02-1l-.04-.08a2.56 2.56 0 1 0-2.44.04l-.02.03s-1 .17-2.02 1c-1.3 1.07-2.19 3.4-1.96 6.82"/></svg>