<!-- SPDX-FileCopyrightText: © 2025 Schneider Electric SPDX-License-Identifier: LicenseRef-Proprietary -->
<svg xmlns="http://www.w3.org/2000/svg" viewBox="0 0 16 16"><path d="m15.854 15.146-2.188-2.188c1.136-1.493 2.16-3.714 2.314-6.935.042-.859.016-1.799-.075-2.795a.5.5 0 0 0-.447-.452c-.047-.005-4.727-.508-7.145-2.401a.496.496 0 0 0-.615 0c-1.266.984-3.147 1.595-4.663 1.954L.854.146a.502.502 0 0 0-.708.708l1.721 1.721c-.783.145-1.308.202-1.324.204a.5.5 0 0 0-.445.448c-.964 9.803 5.532 12.444 5.597 12.47a.5.5 0 0 0 .364-.931c-.236-.093-5.687-2.354-5.001-11.043.369-.051.958-.144 1.663-.293l9.589 9.59c-1.159 1.249-2.273 1.71-2.366 1.747a.5.5 0 0 0 .365.93c.106-.041 1.389-.562 2.708-1.971l2.128 2.128a.5.5 0 0 0 .708 0 .5.5 0 0 0 0-.707Zm-2.903-2.902L3.863 3.156c1.374-.365 2.934-.926 4.142-1.765 2.252 1.575 5.74 2.167 6.938 2.331.06.801.073 1.558.039 2.255-.14 2.904-1.033 4.912-2.03 6.268Z"/></svg>