<!-- SPDX-FileCopyrightText: © 2025 Schneider Electric SPDX-License-Identifier: LicenseRef-Proprietary -->
<svg xmlns="http://www.w3.org/2000/svg" viewBox="0 0 16 16"><path d="M15 4.775c0-.542-.003-.811-.01-.954h.009c0-1.685-3.296-3.821-7-3.821s-7 2.137-7 3.821V10.5q0 .064.016.124a.5.5 0 0 0 .072.406c.112.164 2.797 4.019 6.787 4.954a.5.5 0 0 0 .238.003.5.5 0 0 0 .383-.43q.005-.035.003-.068v-1.957l.001-.035v-1.739l.619.64a.5.5 0 1 0 .719-.695L8.499 10.32v-1.9l1.65.953.555 1.884a.499.499 0 1 0 .959-.283l-.258-.875 1.106.639a.5.5 0 1 0 .5-.866l-.372-.215a.3.3 0 0 0-.045-.029l-.703-.406.864-.216a.5.5 0 1 0-.243-.97l-1.866.467-1.648-.952 1.649-.952 1.913.462c.265.068.539-.1.603-.369a.5.5 0 0 0-.369-.603l-.891-.215.691-.399a.5.5 0 0 0-.5-.866l-.703.406.245-.856a.5.5 0 1 0-.962-.274l-.528 1.85-1.648.952V4.783l1.356-1.425a.5.5 0 1 0-.725-.689l-.631.664v-.797a.5.5 0 0 0-1 0v.812l-.619-.64a.5.5 0 0 0-.719.695l1.337 1.383v1.902l-1.649-.952-.556-1.886a.499.499 0 1 0-.959.283l.259.878-.69-.398a.5.5 0 1 0-.5.866l.704.406-.865.216a.5.5 0 0 0-.363.606.496.496 0 0 0 .606.363l1.867-.467 1.647.951-1.65.953-1.911-.462a.5.5 0 0 0-.236.972l.89.216-.69.398a.5.5 0 1 0 .5.866l.704-.406-.245.857a.5.5 0 1 0 .962.275l.528-1.852 1.647-.951v1.906L6.142 11.75a.5.5 0 1 0 .725.689l.63-.662v3.067c-2.938-.966-5.07-3.676-5.506-4.264l.006-.077V3.821c0-.841 2.534-2.821 6-2.821s6 1.98 6 2.821v.42a.5.5 0 0 0-.003.122c.002.063.003.255.003.541v.352c-.001 1.224-.011 3.431-.021 5.088-.23.381-1.25 1.879-3.785 3.336a.5.5 0 0 0 .498.868c3.208-1.844 4.193-3.766 4.233-3.847a.5.5 0 0 0 .053-.221l.015-2.841.005-.071V6.464c.003-.828.003-1.351 0-1.688Z"/></svg>