<!-- SPDX-FileCopyrightText: © 2025 Schneider Electric SPDX-License-Identifier: LicenseRef-Proprietary -->
<svg xmlns="http://www.w3.org/2000/svg" viewBox="0 0 16 16"><path d="M1.059 3.448c1.193-.165 4.68-.76 6.936-2.327 2.248 1.572 5.73 2.163 6.926 2.327.043.576.062 1.129.057 1.647a.5.5 0 0 0 .495.505c.303-.028.502-.219.505-.495a21 21 0 0 0-.094-2.15.5.5 0 0 0-.447-.452c-.047-.005-4.72-.507-7.133-2.397a.5.5 0 0 0-.616 0C5.267 1.989.591 2.499.544 2.504a.5.5 0 0 0-.445.448c-.675 6.867 2.277 10.193 4.098 11.565a.499.499 0 1 0 .601-.798C3.18 12.499.578 9.558 1.059 3.448Z"/><path d="M14.112 8H14V6.904c0-1.381-1.279-2.925-2.99-2.925C8.791 3.979 8 5.49 8 6.904v1.074l-.252.005a1.84 1.84 0 0 0-1.321.614c-.32.364-.471.831-.426 1.266l.002 4.202c-.047.494.111.97.446 1.337.345.38.844.598 1.367.598h6.297a1.89 1.89 0 0 0 1.888-1.888V9.887a1.89 1.89 0 0 0-1.888-1.888ZM15 14.112a.89.89 0 0 1-.888.888H7.815a.85.85 0 0 1-.627-.271c-.143-.157-.21-.359-.188-.617l-.002-4.298a.73.73 0 0 1 .179-.557.83.83 0 0 1 .596-.275l.737-.015a.5.5 0 0 0 .49-.5V6.903c0-.719.261-1.925 2.01-1.925 1.121 0 1.99 1.035 1.99 1.925v1.096h-1.501a.5.5 0 0 0 0 1h2.613a.89.89 0 0 1 .888.888z"/><path d="M12.663 10.074a.5.5 0 0 0-.693.144l-1.499 2.279c-.164-.255-.365-.491-.593-.608-.24-.122-.516-.027-.648.206s-.042.539.187.681c.122.076.376.505.535.901a.5.5 0 0 0 .882.089l1.972-2.999a.5.5 0 0 0-.143-.692Z"/></svg>