<!-- SPDX-FileCopyrightText: © 2025 Schneider Electric SPDX-License-Identifier: LicenseRef-Proprietary -->
<svg xmlns="http://www.w3.org/2000/svg" viewBox="0 0 16 16"><path d="m13.122 11.688 2.841-7A.5.5 0 0 0 15.5 4H4.182L2.6.642a.5.5 0 0 0-.058-.095C2.286.218 1.579-.28.733.19-.108.659-.062 1.521.085 1.926L2 6.731v2.767a.5.5 0 0 0 1 0V6.635a.5.5 0 0 0-.036-.185L1.022 1.578c-.042-.128-.071-.364.197-.514a.395.395 0 0 1 .506.067l1.687 3.582A.5.5 0 0 0 3.864 5h10.894l-2.436 6H2.501a.503.503 0 0 0-.5.503l.014 1.991a.5.5 0 0 0 .499.496h.646a2 2 0 0 0-.059.344c0 .911.744 1.652 1.658 1.652s1.658-.741 1.658-1.652q-.002-.171-.042-.335h3.942c-.03.201-.013.346-.01.358.043.928.786 1.627 1.729 1.627.904 0 1.587-.71 1.584-1.596.01-.086.037-.546-.341-1.123a.5.5 0 1 0-.836.548c.185.282.182.476.18.52 0 .313-.184.65-.587.65-.337 0-.709-.211-.733-.711 0-.011-.023-.252.146-.42a.5.5 0 0 0-.353-.855H5.612a.5.5 0 0 0-.415.779c.089.134.221.403.221.557 0 .359-.295.652-.658.652s-.658-.293-.66-.607c0-.003.035-.328.237-.547a.5.5 0 0 0-.367-.839l-.958-.002-.007-.992h9.654a.5.5 0 0 0 .463-.312Z"/></svg>