<!-- SPDX-FileCopyrightText: © 2025 Schneider Electric SPDX-License-Identifier: LicenseRef-Proprietary -->
<svg xmlns="http://www.w3.org/2000/svg" viewBox="0 0 16 16"><path d="M8.003 12.925H5.612a.5.5 0 0 0-.414.78c.089.133.22.399.22.551 0 .356-.295.646-.658.646s-.658-.29-.66-.602c0-.003.035-.324.236-.541a.5.5 0 0 0-.366-.84l-.958-.002-.007-.98h4.162a.5.5 0 0 0 0-1H2.501a.503.503 0 0 0-.5.503l.014 1.979a.5.5 0 0 0 .499.496h.645a2 2 0 0 0-.058.339c0 .908.744 1.646 1.658 1.646s1.658-.738 1.658-1.646q-.002-.168-.041-.33h1.626a.5.5 0 0 0 0-1Zm7.623-2.53L7.95 7.42a.497.497 0 0 0-.646.646l2.953 7.614c.07.183.242.308.438.318h.028a.5.5 0 0 0 .442-.268l1.282-2.441 2.452 2.442a.5.5 0 0 0 .705-.709l-2.933-2.921a.498.498 0 0 0-.795.122l-1.086 2.068-2.146-5.532 5.474 2.121-.293.125a.5.5 0 0 0 .392.92l1.423-.607a.5.5 0 0 0-.015-.926Z"/><path d="M15.915 4.198a.5.5 0 0 0-.415-.221H4.181L2.6.639a.5.5 0 0 0-.059-.095C2.285.217 1.576-.277.735.189-.108.656-.062 1.516.086 1.92L2 6.695v2.75a.5.5 0 0 0 1 0V6.598a.5.5 0 0 0-.036-.186L1.022 1.57c-.041-.125-.069-.358.197-.506a.395.395 0 0 1 .507.067l1.687 3.56a.5.5 0 0 0 .452.286h10.892l-1.264 3.097a.5.5 0 0 0 .925.377l1.545-3.785a.5.5 0 0 0-.048-.468Z"/></svg>