<!-- SPDX-FileCopyrightText: © 2025 Schneider Electric SPDX-License-Identifier: LicenseRef-Proprietary -->
<svg xmlns="http://www.w3.org/2000/svg" viewBox="0 0 16 16"><path d="M8.699 4.763a.493.493 0 1 0 0 .985.493.493 0 0 0 0-.985Zm1.727.066a.494.494 0 1 0 .494.855.494.494 0 0 0-.494-.855Zm-3.273.674a.494.494 0 1 0-.001 0Zm1.546 1.233a.493.493 0 1 0 0 .985.493.493 0 0 0 0-.985Zm2.192.066a.494.494 0 1 0 .494.855.494.494 0 0 0-.494-.855Zm-4.017.674a.494.494 0 1 0-.001 0Zm1.825 1.47a.493.493 0 1 0 0 .985.493.493 0 0 0 0-.985Zm2.71.74a.494.494 0 1 0 .855-.494.494.494 0 0 0-.855.494Zm-4.954 0a.494.494 0 1 0-.001 0Zm2.244 1.852a.493.493 0 1 0 0 .985.493.493 0 0 0 0-.985Zm3.455.74a.494.494 0 1 0 .855-.494.494.494 0 0 0-.855.494Zm-6.346-.674a.494.494 0 1 0 .18.674.494.494 0 0 0-.181-.674Z"/><path d="M15.5 15H3V3.393c0-1.154.787-2.166 1.832-2.354a2.25 2.25 0 0 1 1.872.486c.449.375.731.902.796 1.476h-1a.5.5 0 0 0 0 1h4a.5.5 0 0 0 0-1H8.504A3.25 3.25 0 0 0 7.345.758 3.27 3.27 0 0 0 4.654.054C3.116.332 2 1.736 2 3.393V15H.5a.5.5 0 0 0 0 1h15a.5.5 0 0 0 0-1Z"/></svg>