<!-- SPDX-FileCopyrightText: © 2025 Schneider Electric SPDX-License-Identifier: LicenseRef-Proprietary -->
<svg xmlns="http://www.w3.org/2000/svg" viewBox="0 0 16 16"><path d="M3.026 8H.974A.975.975 0 0 0 0 8.974V15.5a.5.5 0 0 0 1 0L.974 9 3 8.974V15.5a.5.5 0 0 0 1 0V8.974A.975.975 0 0 0 3.026 8Zm6.961-2.039A.966.966 0 0 0 9.023 5h-2.07a.965.965 0 0 0-.954.974l.005 9.526a.5.5 0 0 0 .5.5h0a.5.5 0 0 0 .499-.5L6.952 6l2.034-.037.013 9.538a.5.5 0 0 0 .5.499h0a.5.5 0 0 0 .499-.501l-.013-9.538Z"/></svg>