<!-- SPDX-FileCopyrightText: © 2025 Schneider Electric SPDX-License-Identifier: LicenseRef-Proprietary -->
<svg xmlns="http://www.w3.org/2000/svg" viewBox="0 0 16 16"><path d="M15.5 4.186a.5.5 0 0 0 0-1A2.69 2.69 0 0 1 12.814.5a.5.5 0 0 0-1 0A3.69 3.69 0 0 0 15.5 4.186ZM7.591 4H5.5a.5.5 0 0 0-.5.5v1.526a.5.5 0 0 0 .488.5L6 6.538v1.929c0 .545-.687 1.006-1.5 1.006-.795 0-1.471-.441-1.5-.971V6.999h.5a.5.5 0 0 0 0-1h-1a.5.5 0 0 0-.5.5v1.968c0 1.106 1.122 2.006 2.5 2.006 1.348 0 2.45-.86 2.499-1.933L7 8.499V6.05a.5.5 0 0 0-.488-.5L6 5.538v-.539h1.591A.41.41 0 0 1 8 5.408v9.18a.41.41 0 0 1-.411.411H1.411A.41.41 0 0 1 1 14.588V5.411C1 5.184 1.185 5 1.411 5H3.5a.5.5 0 0 0 .5-.5v-.016l-.053-3.417c.012-.007.13-.068.639-.068.351 0 .44.043.415.045v1.455a.5.5 0 0 0 1 0V1.044c0-.477-.246-1.045-1.428-1.045-.51 0-1.572 0-1.572 1.045v2.955H1.412c-.778 0-1.411.633-1.411 1.411v9.178c0 .778.633 1.411 1.411 1.411H7.59c.778 0 1.411-.633 1.411-1.411V5.409A1.41 1.41 0 0 0 7.592 4Z"/><path d="M4.979 13.055a.4.4 0 0 1-.155.081.4.4 0 0 1-.181.017.455.455 0 0 1-.403-.5.5.5 0 0 0-.994-.108 1.44 1.44 0 0 0 .315 1.069q.178.22.426.357a1.45 1.45 0 0 0 1.125.122q.274-.082.495-.26a1.45 1.45 0 0 0 .481-1.554 1.45 1.45 0 0 0-1.237-1.026.506.506 0 0 0-.552.441.5.5 0 0 0 .441.553.454.454 0 0 1 .239.807ZM15.5 5.526A5.03 5.03 0 0 1 10.474.5a.5.5 0 0 0-1 0A6.033 6.033 0 0 0 15.5 6.526a.5.5 0 0 0 0-1Z"/></svg>