<!-- SPDX-FileCopyrightText: © 2025 Schneider Electric SPDX-License-Identifier: LicenseRef-Proprietary -->
<svg xmlns="http://www.w3.org/2000/svg" viewBox="0 0 16 16"><path d="M8.025 4.882c-.311-.004-.526.217-.525.502a.5.5 0 0 0 .5.498h.002c1.881-.022 3.633.859 4.918 2.376a.5.5 0 0 0 .764-.646c-1.472-1.736-3.532-2.73-5.658-2.73Zm-6.859-.849c-.365.321-.715.672-1.042 1.043a.501.501 0 0 0 .751.662c.298-.339.618-.66.952-.954a.5.5 0 1 0-.662-.75Zm3.916-1.144c3.574-1.203 7.604-.049 10.034 2.865a.5.5 0 0 0 .704.064.5.5 0 0 0 .063-.704C13.191 1.885 8.722.61 4.764 1.94a.5.5 0 0 0 .318.948Zm10.771 12.257L.854.146a.5.5 0 0 0-.707.708l14.999 15a.5.5 0 0 0 .708 0 .5.5 0 0 0 0-.707Zm-6.698-2.717a.5.5 0 0 0-.5.5c0 .363-.294.658-.655.658s-.655-.295-.655-.658.294-.659.655-.659a.5.5 0 0 0 0-1 1.66 1.66 0 0 0 0 3.317c.912 0 1.655-.744 1.655-1.658a.5.5 0 0 0-.5-.5ZM6.702 9.121a.5.5 0 0 0-.678-.201 4.9 4.9 0 0 0-1.493 1.276.5.5 0 1 0 .783.623 3.9 3.9 0 0 1 1.187-1.021.5.5 0 0 0 .201-.678ZM4.405 6.45a.5.5 0 0 0-.699-.108 9 9 0 0 0-1.381 1.261.499.499 0 1 0 .745.666A8 8 0 0 1 4.297 7.15a.5.5 0 0 0 .108-.699Z"/></svg>