<!-- SPDX-FileCopyrightText: © 2025 Schneider Electric SPDX-License-Identifier: LicenseRef-Proprietary -->
<svg xmlns="http://www.w3.org/2000/svg" viewBox="0 0 16 16"><path d="M15.5 4.168a.5.5 0 0 0 0-1c-1.486 0-2.695-1.197-2.695-2.668a.5.5 0 0 0-1 0c0 2.022 1.658 3.668 3.695 3.668Zm0 10.824h-3.875l.104-3.908c.503-.274 1.095-.804 1.095-1.577 0-.251-.04-.716-.083-1.209-.045-.524-.095-1.083-.095-1.429 0-1.191-.686-1.57-1.246-1.683.025-.117.086-.313.235-.62.334-.687.321-1.408-.036-1.979A1.88 1.88 0 0 0 10 1.706h-.001c-.763-.037-1.398.285-1.762.887-.402.666-.395 1.583.038 2.311.062.092.104.227.09.264 0 0-.03.043-.165.088-.824.273-1.277.85-1.277 1.624 0 .275-.043.681-.087 1.096-.062.593-.12 1.154-.091 1.47-.009.95.576 1.463 1.081 1.688l.109 3.863-.437.004-1.919-2.717c.279-.385.487-.671.542-.75a.499.499 0 1 0-.818-.574c-.218.311-2.805 3.854-2.801 3.858-.195.195-.48.213-.726.042-.176-.12-.204-.361-.088-.58l2.132-3.34a.5.5 0 0 0 .074-.199l.422-2.984a.5.5 0 0 0-.86-.413L1.885 9.016a.35.35 0 0 1-.269.117.76.76 0 0 1-.483-.209c-.105-.109-.208-.265-.125-.418.062-.068 1.522-1.669 1.974-2.286.249-.341.653-.469.641-.471l.853-.115a.5.5 0 0 0 .192-.924c-.496-.3-.378-.988-.363-1.066.141-.721.663-.828.961-.828.34 0 .661.305.73.695.075.416.014.686-.203.902a.5.5 0 0 0 .707.707c.451-.451.612-1.052.48-1.787-.155-.866-.893-1.519-1.715-1.519-.986 0-1.749.643-1.943 1.637-.076.389-.06.876.13 1.313l-.028.004a2.4 2.4 0 0 0-1.25.859C1.755 6.201.283 7.813.211 7.906c-.345.565-.269 1.22.198 1.708.308.32.767.518 1.202.518h.013c.388-.003.731-.155.991-.435l.488-.52-.186 1.314-2.093 3.281c-.38.71-.222 1.495.385 1.91.64.439 1.462.373 2.049-.22 0 0 .903-1.237 1.697-2.328l1.868 2.644a.5.5 0 0 0 .526.198.5.5 0 0 0 .146.021h.004l.951-.008a.497.497 0 0 0 .496-.513l-.134-4.725a.51.51 0 0 0-.407-.477.824.824 0 0 1-.666-.87c-.023-.27.036-.833.087-1.329.047-.454.092-.898.092-1.199 0-.236.07-.501.592-.674.521-.172.723-.49.8-.726.183-.557-.18-1.091-.2-1.116-.227-.384-.236-.899-.022-1.254.174-.289.457-.431.88-.405.321 0 .619.158.778.413.173.276.167.635-.016 1.011-.38.783-.451 1.317-.22 1.681.16.253.426.334.558.337.428.034.573.216.573.725 0 .364.051.957.099 1.513.04.458.079.89.079 1.123 0 .482-.755.783-.76.785a.5.5 0 0 0-.327.456l-.126 4.731a.5.5 0 0 0 .5.513h4.389a.5.5 0 0 0 0-1Zm0-9.493c-.609 0-1.28-.159-1.708-.405a.5.5 0 1 0-.498.868c.578.332 1.424.538 2.207.538a.5.5 0 0 0 0-1Z"/></svg>