<!-- SPDX-FileCopyrightText: © 2025 Schneider Electric SPDX-License-Identifier: LicenseRef-Proprietary -->
<svg xmlns="http://www.w3.org/2000/svg" viewBox="0 0 16 16"><path d="M5.276 7.282a.5.5 0 0 0 0 1 2.73 2.73 0 0 1 2.726 2.726.5.5 0 0 0 1 0 3.73 3.73 0 0 0-3.725-3.726ZM5.566 10H.5a.5.5 0 0 0-.5.5v4a.5.5 0 0 0 .5.5h1a.5.5 0 0 0 0-1H1v-3h4.066v3H3.5a.5.5 0 0 0 0 1h2.066a.5.5 0 0 0 .5-.5v-4a.5.5 0 0 0-.5-.5ZM15.5 1h-4.968a.5.5 0 0 0-.5.5v4a.5.5 0 0 0 .5.5h1a.5.5 0 0 0 0-1h-.5V2H15v3h-1.468a.5.5 0 0 0 0 1H15.5a.5.5 0 0 0 .5-.5v-4a.5.5 0 0 0-.5-.5Z"/><path d="M5.321 5.247a.5.5 0 0 0 0 1 4.73 4.73 0 0 1 4.725 4.724.5.5 0 0 0 1 0 5.73 5.73 0 0 0-5.725-5.724Z"/></svg>