<!-- SPDX-FileCopyrightText: © 2025 Schneider Electric SPDX-License-Identifier: LicenseRef-Proprietary -->
<svg xmlns="http://www.w3.org/2000/svg" viewBox="0 0 16 16"><path d="M11.899 0H4.087c-.581 0-1.053.472-1.053 1.052v13.896c0 .58.473 1.052 1.053 1.052h3.917a.5.5 0 0 0 .5-.5v-1.894c0-.276-.225-.5-.501-.5-.689 0-1.293-.552-1.293-1.182 0-.347.087-.954.667-1.13a.5.5 0 0 0 .355-.479v-.668a.5.5 0 0 0-.355-.479c-.581-.176-.667-.784-.667-1.13s.086-.955.667-1.13a.5.5 0 0 0 .355-.479v-.718a.5.5 0 0 0-.355-.479c-.58-.176-.667-.784-.667-1.13 0-.629.604-1.182 1.293-1.182.683 0 1.282.552 1.282 1.182 0 .542-.309.985-.787 1.13a.5.5 0 0 0-.355.479v.718a.5.5 0 0 0 .355.479c.478.145.787.588.787 1.13s-.309.986-.787 1.13a.5.5 0 0 0-.355.479v.668a.5.5 0 0 0 .355.479c.478.145.787.588.787 1.13 0 .278-.094.538-.271.752a.5.5 0 0 0 .77.639c.323-.391.501-.884.501-1.391 0-.841-.446-1.58-1.142-1.943h0c.696-.363 1.142-1.102 1.142-1.943s-.446-1.581-1.142-1.943v-.05c.696-.363 1.142-1.102 1.142-1.943 0-1.183-1.045-2.182-2.282-2.182-1.243 0-2.293.999-2.293 2.182 0 .893.375 1.592 1.022 1.94v.055c-.646.348-1.022 1.047-1.022 1.94s.375 1.593 1.022 1.94v.005c-.646.348-1.022 1.048-1.022 1.94 0 1.02.781 1.903 1.793 2.127v.941l-3.469-.045L4.087.997l7.865.052-.053 13.948H9.573a.5.5 0 0 0 0 1h2.326c.581 0 1.053-.472 1.053-1.052V1.052c0-.58-.473-1.052-1.053-1.052Z"/></svg>