<!-- SPDX-FileCopyrightText: © 2025 Schneider Electric SPDX-License-Identifier: LicenseRef-Proprietary -->
<svg xmlns="http://www.w3.org/2000/svg" viewBox="0 0 16 16"><path d="M15.462 5.881a.5.5 0 0 0 0-1A4.386 4.386 0 0 1 11.081.5a.5.5 0 0 0-1 0 5.39 5.39 0 0 0 5.381 5.381Z"/><path d="M15.462 3.814a.5.5 0 0 0 0-1A2.316 2.316 0 0 1 13.149.5a.5.5 0 0 0-1 0 3.317 3.317 0 0 0 3.313 3.314Zm.333 11.306-5.037-5.052c-.009-.263-.04-.691-.074-1.142-.042-.573-.089-1.184-.089-1.51 0-1.176-.723-1.517-1.2-1.613a.6.6 0 0 1-.095-.289q.179-.192.298-.427c.22-.435.257-.929.105-1.391a1.8 1.8 0 0 0-.91-1.058 1.82 1.82 0 0 0-1.391-.105 1.8 1.8 0 0 0-1.058.91 1.83 1.83 0 0 0 .107 1.83.5.5 0 0 0 .834-.552.825.825 0 0 1 1.057-1.19.82.82 0 0 1 .363 1.107.8.8 0 0 1-.113.169.5.5 0 0 0-.246.301 1.59 1.59 0 0 0 .477 1.557h0v.001h0a.5.5 0 0 0 .269.104c.378.031.499.189.499.65 0 .338.046.976.091 1.574L.886.167a.5.5 0 1 0-.707.707l14.128 14.17h-4.66l.078-2.928a.5.5 0 0 0-.487-.514c-.237-.008-.506.21-.513.486l-.091 3.441a.5.5 0 0 0 .5.513h6.396a.5.5 0 0 0 .267-.923Z"/><path d="M6.626 10.614c-.14-.029-.597-.167-.593-.789-.022-.271.002-.615.028-.979l.026-.4a.5.5 0 0 0-.471-.527.493.493 0 0 0-.527.471l-.025.385c-.027.386-.056.786-.028 1.088-.008.895.532 1.384 1.007 1.604l.101 3.576H.529a.5.5 0 0 0 0 1h6.128a.5.5 0 0 0 .5-.513l-.125-4.438a.51.51 0 0 0-.406-.478Z"/></svg>