<!-- SPDX-FileCopyrightText: © 2025 Schneider Electric SPDX-License-Identifier: LicenseRef-Proprietary -->
<svg xmlns="http://www.w3.org/2000/svg" viewBox="0 0 16 16"><path d="M7.932 11.961a.5.5 0 0 0 0-1c-.832 0-1.509.677-1.509 1.509s.677 1.509 1.509 1.509a1.51 1.51 0 0 0 1.466-1.866.497.497 0 0 0-.604-.367.5.5 0 0 0-.368.604q.015.06.015.121c0 .28-.229.509-.509.509s-.509-.229-.509-.509.228-.509.509-.509Z"/><path d="M11.5 9h-7a.5.5 0 0 0-.5.5v6a.5.5 0 0 0 1 0V10h6v5H6.5a.5.5 0 0 0 0 1h5a.5.5 0 0 0 .5-.5v-6a.5.5 0 0 0-.5-.5Zm2.616-6.137A7.98 7.98 0 0 0 8.1 0C5.748-.021 3.532.974 1.892 2.832a.5.5 0 1 0 .75.662C4.085 1.858 6.003.969 8.086 1.001a6.98 6.98 0 0 1 5.263 2.504.5.5 0 1 0 .766-.642Zm-8.08 4.501c.687-.859 1.449-1.012 1.987-1.024.746.01 1.466.38 1.928.99a.5.5 0 0 0 .798-.604A3.49 3.49 0 0 0 8.037 5.34c-1.061-.051-2.048.483-2.781 1.4a.5.5 0 0 0 .782.624Z"/><path d="M8.096 2.646c-1.677 0-3.277.728-4.517 2.112a.5.5 0 1 0 .744.668c1.045-1.166 2.361-1.797 3.76-1.78 1.362.018 2.638.646 3.593 1.77a.499.499 0 1 0 .761-.648c-1.128-1.327-2.71-2.101-4.341-2.123Z"/></svg>