<!-- SPDX-FileCopyrightText: © 2025 Schneider Electric SPDX-License-Identifier: LicenseRef-Proprietary -->
<svg xmlns="http://www.w3.org/2000/svg" viewBox="0 0 16 16"><path d="M16 2.326c0-.414-.142-1.073-1-1.239V.925c0-.601-.674-.924-1.309-.924h-.406C12.664.038 12 .293 12 .903v.098H3.994l-.002-.19C3.909.372 3.54.112 3.248.023a.5.5 0 0 0-.146-.022H2.016C1.266.001 1 .498 1 .924v.157c-.814.093-1 .454-1 .763v1.33c0 .32.181.693 1 .798v10.963C1 15.523 1.478 16 2.066 16h.882C3.528 16 4 15.528 4 14.948V10.5a.5.5 0 0 0-1 0L2.948 15 2 14.935V3.5c0-.276-.28-.5-.557-.5A2.4 2.4 0 0 1 1 2.963v-.874c.105-.018.257-.033.437-.033a1 1 0 0 0 .233-.053.5.5 0 0 0 .33-.47V.997l.016.002.984.02v.48a.5.5 0 0 0 .5.5h9a.5.5 0 0 0 .5-.5V1.06c.089-.029.221-.055.313-.061h.378c.113 0 .233.029.309.06v.483a.5.5 0 0 0 .432.495c.022.003.109.014.132.014.437 0 .437.069.437.278l.003.37c0 .109-.017.236-.064.262-.071.038-.23.033-.336.039h-.103a.5.5 0 0 0-.5.499L13.939 15h-.495c-.108 0-.337-.083-.442-.155V3.5a.5.5 0 0 0-.5-.5H3.5a.5.5 0 0 0-.5.5v5a.5.5 0 0 0 .5.5h7a.5.5 0 0 0 0-1H4V4h8v10.952C12 15.688 13.032 16 13.442 16h.495c.571 0 1.036-.47 1.036-1.047l.025-10.977c.135-.021.279-.061.419-.138.267-.146.585-.461.585-1.143l-.003-.37Z"/></svg>