<!-- SPDX-FileCopyrightText: © 2025 Schneider Electric SPDX-License-Identifier: LicenseRef-Proprietary -->
<svg xmlns="http://www.w3.org/2000/svg" viewBox="0 0 16 16"><path d="M15.5 5.526A5.03 5.03 0 0 1 10.474.5a.5.5 0 0 0-1 0A6.033 6.033 0 0 0 15.5 6.526a.5.5 0 0 0 0-1ZM8.848 6.828a.5.5 0 0 0-.139.693c.918 1.379 1.364 2.501 1.364 3.43 0 2.63-2.337 4.049-4.537 4.049S.999 13.581.999 10.951c0-3.417 3.133-6.8 4.369-8.002.343.667.766 1.223 1.464 2.09a.5.5 0 0 0 .779-.627C6.683 3.26 6.339 2.766 6 1.927l-.013-.03a.5.5 0 0 0-.296-.262.5.5 0 0 0-.413.045.5.5 0 0 0-.078.058C4.879 2.018 0 6.31 0 10.951 0 14.23 2.853 16 5.537 16s5.537-1.77 5.537-5.049c0-1.132-.501-2.435-1.532-3.984a.5.5 0 0 0-.693-.139Z"/><path d="M15.5 4.186a.5.5 0 0 0 0-1A2.69 2.69 0 0 1 12.814.5a.5.5 0 0 0-1 0A3.69 3.69 0 0 0 15.5 4.186ZM2.778 9.407a.5.5 0 0 0-.609.359c-.074.285-.111.58-.111.876a3.5 3.5 0 0 0 2.505 3.341q.07.02.14.02a.5.5 0 0 0 .14-.98 2.49 2.49 0 0 1-1.706-3.006.5.5 0 0 0-.359-.609Z"/></svg>