<!-- SPDX-FileCopyrightText: © 2025 Schneider Electric SPDX-License-Identifier: LicenseRef-Proprietary -->
<svg xmlns="http://www.w3.org/2000/svg" viewBox="0 0 16 16"><path d="M10.362 5.998 4.523 7.094 2.177 6.058l4.246-.811 1.99.556a.5.5 0 0 0 .269-.963l-2.104-.588a.5.5 0 0 0-.229-.01L.415 5.377a.5.5 0 0 0-.108.949l3.659 1.616.002 5.559a.5.5 0 0 0 1 0l-.002-5.472 5-.938v6.487l-5.592 1.274L.966 12.83V7.681a.5.5 0 0 0-1 0v5.435c0 .177.093.34.245.43l3.825 2.27a.5.5 0 0 0 .366.057l6.175-1.408a.5.5 0 0 0 .389-.487V6.502a.5.5 0 0 0-.167-.373.5.5 0 0 0-.437-.129ZM9.973 2.34a.5.5 0 0 0 0 1 2.69 2.69 0 0 1 2.687 2.686.5.5 0 0 0 1 0A3.69 3.69 0 0 0 9.973 2.34Z"/><path d="M9.973 0a.5.5 0 0 0 0 1 5.03 5.03 0 0 1 5.026 5.026.5.5 0 0 0 1 0A6.033 6.033 0 0 0 9.973 0Z"/></svg>