<!-- SPDX-FileCopyrightText: © 2025 Schneider Electric SPDX-License-Identifier: LicenseRef-Proprietary -->
<svg xmlns="http://www.w3.org/2000/svg" viewBox="0 0 16 16"><path d="M12.242 1A2.76 2.76 0 0 1 15 3.758a.5.5 0 0 0 1 0A3.76 3.76 0 0 0 12.242 0a.5.5 0 0 0 0 1Z"/><path d="M11.834 2.466a.5.5 0 0 0 .5.5c.344 0 .624.245.624.547a.5.5 0 0 0 1 0c0-.853-.729-1.547-1.624-1.547a.5.5 0 0 0-.5.5Zm.031 1.643A.5.5 0 0 0 11.553 4H.5a.5.5 0 0 0-.5.5v9a.5.5 0 0 0 1 0V5h10.377L15 7.899V15H.5a.5.5 0 0 0 0 1h15a.5.5 0 0 0 .5-.5V7.659a.5.5 0 0 0-.188-.391z"/><path d="M11.591 13H11.5c-.276 0-.455.224-.455.5s.27.5.546.5c.777 0 1.409-.602 1.409-1.342V8.342C13 7.602 12.368 7 11.591 7H3.409C2.632 7 2 7.602 2 8.342v4.316C2 13.398 2.632 14 3.406 14l.686.004h.003a.5.5 0 0 0 .003-1L3.41 13c-.226 0-.409-.153-.409-.342V8.342c0-.189.184-.342.409-.342h2.045c.064.053.227.207.232.39.005.172-.132.386-.389.61H4.5a.5.5 0 0 0 0 1H5v1h-.5a.5.5 0 0 0 0 1h.9c.265.231.407.455.402.635-.006.225-.239.404-.25.413a.5.5 0 0 0 .572.819c.066-.045.647-.466.677-1.187.021-.521-.248-1.021-.802-1.483V9.714c.475-.43.705-.89.686-1.369a1.4 1.4 0 0 0-.052-.321c.766.018 1.301.016 1.742.025a1.3 1.3 0 0 0-.048.306c-.02.475.207.931.673 1.358v1.635c-.432.417-.642.861-.623 1.323.03.721.611 1.142.677 1.187.224.156.531.1.689-.124s.104-.534-.117-.695c-.002-.002-.244-.184-.25-.413-.005-.177.133-.396.391-.625h.732a.5.5 0 0 0 0-1h-.5v-1h.5a.5.5 0 0 0 0-1h-.797c-.249-.221-.382-.431-.377-.6.006-.2.202-.366.244-.4h2.021c.226 0 .409.153.409.342v4.316c0 .188-.184.342-.409.342Z"/></svg>