<!-- SPDX-FileCopyrightText: © 2025 Schneider Electric SPDX-License-Identifier: LicenseRef-Proprietary -->
<svg xmlns="http://www.w3.org/2000/svg" viewBox="0 0 16 16"><path d="M15.5 16H.5a.5.5 0 0 1-.5-.5v-2a.5.5 0 0 1 .5-.5H2V8.048c0-3.787 2.383-6.234 6.071-6.234C11.673 1.814 14 4.261 14 8.048V11.5a.5.5 0 0 1-1 0V8.048c0-3.278-1.843-5.234-4.929-5.234C4.943 2.814 3 4.82 3 8.048V13.5a.5.5 0 0 1-.5.5H1v1h14v-1h-1.565a.5.5 0 0 1 0-1H15.5a.5.5 0 0 1 .5.5v2a.5.5 0 0 1-.5.5Zm-.478-9.899a.5.5 0 0 1-.498-.465c-.119-1.695-1.206-3.804-3.877-4.173A.5.5 0 0 1 10.22.9a.49.49 0 0 1 .563-.427c3.264.45 4.592 3.024 4.738 5.093a.5.5 0 0 1-.464.534zm-14.045 0L.941 6.1a.5.5 0 0 1-.463-.534C.624 3.498 1.953.923 5.216.473A.493.493 0 0 1 5.779.9a.5.5 0 0 1-.427.563c-2.67.369-3.757 2.478-3.877 4.173a.5.5 0 0 1-.498.465ZM.499 2.027a.5.5 0 0 1-.435-.745C.354.767.771.345 1.27.064a.5.5 0 1 1 .491.871c-.34.191-.625.48-.825.836a.5.5 0 0 1-.437.255Zm15.001 0a.5.5 0 0 1-.437-.255 2.16 2.16 0 0 0-.824-.835.5.5 0 0 1 .491-.872c.5.281.917.703 1.207 1.218a.5.5 0 0 1-.436.745ZM8.013 13.46q-.442 0-.708-.272a.96.96 0 0 1-.267-.702q0-.416.267-.683c.267-.267.414-.267.708-.267q.455 0 .708.267a.95.95 0 0 1 .253.683q0 .429-.253.702t-.708.272Zm0-2.704a.48.48 0 0 1-.383-.155q-.137-.156-.163-.442l-.39-4.966q-.04-.481.208-.773c.248-.292.407-.292.728-.292q.468 0 .708.292.24.293.202.773l-.39 4.966q-.014.285-.149.442a.47.47 0 0 1-.371.155Z"/></svg>