<!-- SPDX-FileCopyrightText: © 2025 Schneider Electric SPDX-License-Identifier: LicenseRef-Proprietary -->
<svg xmlns="http://www.w3.org/2000/svg" viewBox="0 0 16 16"><path d="M5.956 11.583a.498.498 0 1 0-.932.36l.71 1.837a.5.5 0 0 0 .646.286.5.5 0 0 0 .286-.646zm2.583-.32a.498.498 0 1 0-.932.36l.71 1.836a.5.5 0 0 0 .646.286.5.5 0 0 0 .286-.646zm7.18-5.512a2.7 2.7 0 0 0-1.364-1.369c-.661-.294-1.355-.363-2.004-.204a4.83 4.83 0 0 0-4.662-3.6A4.84 4.84 0 0 0 3.313 3.38H3.31c-.985 0-1.913.435-2.544 1.192a3.33 3.33 0 0 0-.709 2.742C.343 8.871 1.764 10 3.437 10h2.062a.5.5 0 0 0 0-1H3.437s0 0 0 0C2.266 9 1.235 8.198 1.04 7.133a2.3 2.3 0 0 1 .494-1.921 2.35 2.35 0 0 1 2.045-.815.494.494 0 0 0 .528-.323 3.83 3.83 0 0 1 3.582-2.495 3.82 3.82 0 0 1 3.786 3.329.5.5 0 0 0 .716.385c.538-.263 1.163-.262 1.758.002.377.168.689.48.854.857.296.675.253 1.389-.12 1.96a1.95 1.95 0 0 1-1.637.887H7.499a.5.5 0 0 0 0 1h5.547a2.95 2.95 0 0 0 2.474-1.341c.561-.859.633-1.919.198-2.909Zm-2.291 6.678-.622.191v-.848a.5.5 0 0 0-1 0v.867l-.696-.211a.501.501 0 0 0-.291.957l.64.194-.435.592a.5.5 0 1 0 .806.592l.445-.606.431.601a.5.5 0 1 0 .813-.582l-.428-.598.631-.195a.499.499 0 1 0-.295-.955Z"/></svg>