<!-- SPDX-FileCopyrightText: © 2025 Schneider Electric SPDX-License-Identifier: LicenseRef-Proprietary -->
<svg xmlns="http://www.w3.org/2000/svg" viewBox="0 0 16 16"><path d="M4.478 5.995H2.999V.5a.5.5 0 0 0-1 0v5.495h-.688c-.75 0-1.31.805-1.31 1.525 0 .695.56 1.473 1.31 1.473h.686l-.031 6.492a.5.5 0 0 0 .498.502h.002a.5.5 0 0 0 .5-.498l.033-6.991v-.004a.5.5 0 0 0-.5-.5H1.311c-.108 0-.31-.243-.31-.473 0-.25.217-.525.31-.525h3.168c.092 0 .31.274.31.525 0 .23-.201.473-.31.473a.5.5 0 0 0 0 1c.75 0 1.31-.778 1.31-1.473 0-.72-.56-1.525-1.31-1.525Zm10.225-3.997h-.715V.5a.5.5 0 0 0-1 0v1.498h-1.515c-.742 0-1.297.786-1.297 1.489 0 .712.555 1.509 1.297 1.509h1.517l.031 10.492a.5.5 0 0 0 .5.498h.002a.5.5 0 0 0 .498-.502l-.033-10.989v-.034h0v-.004h0v-.002h0v-.003h0V4.45l-.009-.059V4.39h0v-.002h0v-.002h0v-.002h0v-.002h0V4.38h0v-.002h0v-.003h0v-.002s0 0 0 0h0v-.004A.5.5 0 0 0 13.497 4h-2.015c-.086 0-.297-.272-.297-.509 0-.239.206-.489.297-.489h3.229c.091 0 .297.25.297.489 0 .237-.211.509-.297.509a.5.5 0 0 0 0 1c.742 0 1.297-.797 1.297-1.509 0-.703-.555-1.489-1.297-1.489Zm-4.049 8.992H8.913V.5a.5.5 0 0 0-1 0v10.49h-.755c-.752 0-1.313.775-1.313 1.468 0 .723.562 1.53 1.313 1.53h.755v1.498a.5.5 0 0 0 1 0v-1.998a.5.5 0 0 0-.5-.5H7.158c-.093 0-.313-.277-.313-.53 0-.217.19-.468.313-.468h3.496c.124 0 .313.251.313.468 0 .253-.22.53-.313.53a.5.5 0 0 0 0 1c.752 0 1.313-.808 1.313-1.53 0-.692-.562-1.468-1.313-1.468Z"/></svg>