<!-- SPDX-FileCopyrightText: © 2025 Schneider Electric SPDX-License-Identifier: LicenseRef-Proprietary -->
<svg xmlns="http://www.w3.org/2000/svg" viewBox="0 0 16 16"><path d="M14 8.893A.896.896 0 0 0 13.105 8h-1.868a.5.5 0 0 0-.074-.141L9.123 5.12c.276-.27.481-.611.579-.988a2.13 2.13 0 0 0-.387-1.852 2.33 2.33 0 0 0-1.316-.843V.5a.5.5 0 0 0-1 0v1.379a.5.5 0 0 0 .5.5c.395 0 .778.192 1.026.512a1.13 1.13 0 0 1-.007 1.416L8.4 4.149a.499.499 0 0 0-.809.587 1.19 1.19 0 0 1-1.108-.797.5.5 0 1 0-.947.323c.377 1.102 1.521 1.7 2.659 1.393l.065-.019L10.02 8H8.498a.5.5 0 0 0 0 1h4.5l.018 6h-2.019v-4.5a.5.5 0 0 0-1 0V15h-4v-4.5a.5.5 0 0 0-1 0V15h-2l-.018-6h3.519a.5.5 0 0 0 0-1h-.532l.724-1.004a.5.5 0 1 0-.811-.585l-1.05 1.454A.5.5 0 0 0 4.76 8H2.874a.894.894 0 0 0-.895.898l.019 6.21c0 .492.402.893.895.893h10.231a.9.9 0 0 0 .632-.263.9.9 0 0 0 .261-.634l-.019-6.211Z"/></svg>