<!-- SPDX-FileCopyrightText: © 2025 Schneider Electric SPDX-License-Identifier: LicenseRef-Proprietary -->
<svg xmlns="http://www.w3.org/2000/svg" viewBox="0 0 16 16"><path d="M15.413 6.246a.5.5 0 0 0 .174-.984l-2.284-.403 1.418-.992a.5.5 0 1 0-.574-.819l-1.211.849.341-1.934a.5.5 0 0 0-.984-.174l-.516 2.918-3.776 2.645V3.393l2.338-2.337a.5.5 0 0 0-.707-.707l-1.631 1.63V.5a.5.5 0 0 0-1 0v1.245L5.605.348a.5.5 0 0 0-.707.707l2.104 2.104v4.092L4.2 5.624a.4.4 0 0 0-.019-.089l-.979-3.202a.5.5 0 1 0-.956.292l.693 2.266L1.15 3.852a.499.499 0 1 0-.502.864l1.55.901-1.843.563a.5.5 0 1 0 .292.956l2.731-.834 3.345 1.943-2.997 2.099-2.997-.528a.493.493 0 0 0-.579.405.5.5 0 0 0 .405.579l2.012.354-1.403.983a.5.5 0 1 0 .573.818l1.516-1.061-.388 2.204a.5.5 0 0 0 .406.579.496.496 0 0 0 .579-.405l.561-3.189L7 9.271v3.794l-2.08 2.08a.5.5 0 0 0 .708.707l1.373-1.373v1.02a.5.5 0 0 0 1 0v-1.303l1.655 1.656a.5.5 0 0 0 .707-.707l-2.362-2.363V8.987l3.326 1.933.915 2.995a.501.501 0 0 0 .957-.293l-.601-1.964 1.676.974a.5.5 0 1 0 .502-.866l-1.811-1.052 2.126-.648a.501.501 0 0 0-.293-.957l-3.013.921-3.208-1.864 3.567-2.498 3.269.576Z"/></svg>