<!-- SPDX-FileCopyrightText: © 2025 Schneider Electric SPDX-License-Identifier: LicenseRef-Proprietary -->
<svg xmlns="http://www.w3.org/2000/svg" viewBox="0 0 16 16"><path d="M15.776 8.199a.9.9 0 0 0-.662-.304h-1.912a.5.5 0 0 0-.489.398l-.07.343c-.058.386-.515.803-.959.833-.385.07-.928-.238-1.094-.649-.182-.344-.061-.949.279-1.234.272-.28.888-.354 1.222-.146a.5.5 0 0 0 .531-.846c-.734-.461-1.864-.326-2.431.258-.667.554-.891 1.669-.509 2.386.319.804 1.31 1.357 2.114 1.223.84-.051 1.654-.774 1.816-1.573l1.378-.021c-.168 1.602-1.104 3.339-2.402 4.445-1.32 1.126-3.223 1.779-4.883 1.674-1.635-.034-3.478-.854-4.695-2.091-1.216-1.236-2.002-3.087-2.005-4.74-.076-1.628.621-3.515 1.775-4.807 1.156-1.292 2.957-2.2 4.612-2.314 1.618-.188 3.562.379 4.936 1.441 1.258.973 2.21 2.458 2.546 3.971a.5.5 0 0 0 .977-.217c-.386-1.734-1.474-3.434-2.911-4.545C11.349.454 9.184-.174 7.302.04 5.394.171 3.376 1.184 2.036 2.684.695 4.183-.083 6.298.006 8.181c.002 1.907.88 3.982 2.292 5.417s3.476 2.35 5.364 2.389q.214.014.431.014c1.793 0 3.729-.717 5.145-1.925 1.531-1.306 2.588-3.297 2.756-5.178a.88.88 0 0 0-.217-.698Z"/><path d="M4.945 7.514a.499.499 0 1 0 .537-.843c-.763-.486-1.952-.314-2.502.327-.67.608-.816 1.8-.342 2.499.329.646 1.11 1.065 1.819 1.065.175 0 .346-.026.504-.08.886-.185 1.616-1.138 1.562-2.041-.016-.276-.254-.471-.529-.469a.5.5 0 0 0-.469.529c.024.405-.37.92-.825 1.018-.386.131-.988-.116-1.202-.528-.226-.336-.147-.98.195-1.295.265-.306.908-.399 1.252-.181Zm3.01-1.881q.044 0 .086-.003c.719.003 1.434-.504 1.625-1.172a.5.5 0 1 0-.962-.274c-.063.224-.384.473-.681.447-.232.027-.579-.2-.67-.471-.095-.213.003-.575.233-.749.179-.164.585-.197.79-.067a.5.5 0 1 0 .536-.844c-.589-.375-1.487-.297-1.962.141-.568.422-.796 1.287-.528 1.88.208.63.901 1.112 1.534 1.112Z"/></svg>