<!-- SPDX-FileCopyrightText: undefined SPDX-License-Identifier: undefined -->
<svg xmlns="http://www.w3.org/2000/svg" viewBox="0 0 16 16"><path d="M8.395 16a.5.5 0 0 1-.5-.5v-1.579c0-.241.172-.448.409-.491.719-.134.776-.541.775-1.061v-.316H6.921v.289c0 .265.015.42.097.585a.5.5 0 1 1-.895.447c-.187-.374-.203-.715-.203-1.032v-.789a.5.5 0 0 1 .5-.5h3.158a.5.5 0 0 1 .5.5v.789c0 .415.002 1.536-1.185 1.962v.678c1.439-.11 2.668-.711 3.926-1.905A6.98 6.98 0 0 0 14.99 8.36a7.02 7.02 0 0 0-3.741-6.559 7.02 7.02 0 0 0-7.523.655 7.02 7.02 0 0 0-2.549 7.108 7.02 7.02 0 0 0 5.391 5.287.5.5 0 0 1 .387.592.5.5 0 0 1-.591.387A8.02 8.02 0 0 1 .203 9.787a8.02 8.02 0 0 1 2.914-8.123 8.02 8.02 0 0 1 8.598-.749 8.02 8.02 0 0 1 4.274 7.497 7.97 7.97 0 0 1-2.479 5.39c-1.602 1.521-3.18 2.199-5.115 2.199ZM4.448 9.679A1.69 1.69 0 0 1 2.872 8.59c-.251-.665-.055-1.421.488-1.88s1.32-.528 1.935-.17a.501.501 0 0 1-.503.865.686.686 0 0 0-.985.833c.102.27.36.414.654.442a.69.69 0 0 0 .636-.468.5.5 0 1 1 .948.317A1.69 1.69 0 0 1 4.481 9.68zm7.106-.024a1.685 1.685 0 0 1-1.087-2.97 1.69 1.69 0 0 1 1.935-.17.5.5 0 0 1-.504.864.684.684 0 0 0-.983.833c.103.271.379.435.653.443a.685.685 0 0 0 .636-.469.501.501 0 0 1 .949.319 1.69 1.69 0 0 1-1.565 1.15h-.033Z"/></svg>