<!-- SPDX-FileCopyrightText: © 2025 Schneider Electric SPDX-License-Identifier: LicenseRef-Proprietary -->
<svg xmlns="http://www.w3.org/2000/svg" viewBox="0 0 16 16"><path d="M12.267 3.309a.5.5 0 0 0-.121-.992 1.7 1.7 0 0 0 .207 3.386c.769 0 1.443-.52 1.64-1.263a.5.5 0 0 0-.966-.256.696.696 0 0 1-1.369-.18c0-.353.263-.651.61-.694Z"/><path d="M14.621 0H1.388A1.39 1.39 0 0 0 0 1.388v5.224A1.39 1.39 0 0 0 1.388 8H12.5a.5.5 0 0 0 0-1H1.388A.39.39 0 0 1 1 6.612V1.388C1 1.174 1.174 1 1.388 1h13.233c.198 0 .359.145.373.297 0 4.156 0 7.744-.89 8.507-.114.098-.296.204-.672.145-3.242-.651-5.052.716-6.251 1.62l-.229.171a.5.5 0 0 0-.169.579c.012.037.093.312.005.751-.049.247-.287.506-.411.619l-1.866.799-.227-.489a.5.5 0 0 0-.079-.12l-.911-2.09-.043-.078a.5.5 0 0 0-.031-.102l-.285-.675 1.426-.614.167-.081c.292-.147.489-.231.735-.148.257.098.567.39.656.484a.5.5 0 0 0 .733-.68c-.051-.055-.51-.541-1.053-.747-.681-.225-1.207.039-1.521.198l-1.993.866a.5.5 0 0 0-.263.653l.375.89-1.892.806a.5.5 0 0 0 .392.92l1.892-.807.565 1.298-1.96.914a.5.5 0 0 0 .423.906l1.951-.909q.022.027.046.051l.192.415a.5.5 0 0 0 .65.249l2.383-1.02a.5.5 0 0 0 .115-.069c.069-.055.673-.555.812-1.243.075-.378.067-.691.038-.917 1.117-.844 2.647-1.98 5.449-1.416q.906.138 1.498-.369c1.185-1.015 1.239-3.875 1.237-9.307A1.363 1.363 0 0 0 14.617.001Z"/><path d="M7.954 3.309a.5.5 0 0 0-.123-.992 1.7 1.7 0 0 0 .208 3.386A1.7 1.7 0 0 0 9.68 4.44a.5.5 0 0 0-.966-.256.697.697 0 0 1-1.37-.18c0-.353.263-.651.611-.694Zm-4.334 0a.5.5 0 1 0-.122-.992 1.7 1.7 0 0 0 .207 3.386c.769 0 1.443-.52 1.64-1.263a.499.499 0 1 0-.966-.256.697.697 0 0 1-1.369-.18c0-.353.263-.651.611-.694Z"/></svg>