<!-- SPDX-FileCopyrightText: undefined SPDX-License-Identifier: undefined -->
<svg xmlns="http://www.w3.org/2000/svg" viewBox="0 0 16 16"><path d="M8.102 16h-.228c-1.335 0-2.846-.64-3.856-1.649-1.039-1.04-1.687-2.607-1.649-3.995V5.635c-.026-1.287.519-2.724 1.422-3.74C4.695.877 6.059.167 7.35.042c1.265-.176 2.757.197 3.872.975s1.98 2.049 2.257 3.316a.5.5 0 1 1-.976.214c-.226-1.032-.935-2.07-1.853-2.709S8.51.892 7.467 1.035c-1.071.105-2.186.688-2.929 1.524-.743.835-1.191 2.01-1.169 3.065v4.745c-.03 1.14.502 2.42 1.356 3.274s2.144 1.392 3.261 1.355c1.158.021 2.435-.502 3.289-1.355s1.387-2.135 1.356-3.261V6.526h-.597c-.168.625-.687 1.19-1.3 1.34-.539.182-1.241.049-1.708-.342-.467-.353-.754-1.007-.694-1.614.027-.583.406-1.189.941-1.482.498-.307 1.212-.335 1.755-.06a.5.5 0 1 1-.452.892.9.9 0 0 0-.801.032c-.248.137-.434.435-.446.691-.027.281.114.604.319.759a.9.9 0 0 0 .807.164c.35-.087.661-.52.634-.837a.5.5 0 0 1 .499-.541h1.147c.193-.021.44.073.631.264.19.191.286.439.261.683l.002 3.894c.037 1.374-.61 2.941-1.649 3.981-1.01 1.01-2.521 1.649-3.88 1.649Zm4.636-9.474h.05zm-.107-.103v.01zM5.852 12.69c-.621 0-1.306-.346-1.618-.895-.448-.604-.369-1.684.201-2.261.46-.596 1.521-.815 2.231-.421a.499.499 0 1 1-.483.875c-.284-.156-.797-.052-.998.205-.262.271-.301.802-.113 1.059.193.333.684.507.989.397.366-.094.677-.525.651-.844a.5.5 0 0 1 .458-.54.5.5 0 0 1 .54.458c.066.809-.566 1.687-1.354 1.879-.155.06-.327.087-.502.087Zm4.379 0c-.621 0-1.307-.346-1.618-.896-.448-.603-.369-1.683.201-2.26.46-.597 1.52-.815 2.231-.421a.499.499 0 1 1-.483.875c-.278-.154-.801-.048-.997.205-.263.271-.302.802-.113 1.059.192.332.682.512.989.396.366-.093.677-.524.65-.842a.5.5 0 0 1 .457-.54.494.494 0 0 1 .54.457c.067.809-.565 1.687-1.354 1.879a1.4 1.4 0 0 1-.503.087ZM5.853 7.954c-.621 0-1.307-.346-1.618-.895-.448-.605-.369-1.685.2-2.261.46-.596 1.521-.815 2.231-.421a.499.499 0 1 1-.483.875c-.284-.156-.797-.051-.998.205-.267.275-.305.797-.112 1.06.188.326.688.509.989.397.372-.095.677-.52.65-.844a.502.502 0 0 1 .998-.082c.066.808-.566 1.687-1.354 1.88a1.4 1.4 0 0 1-.502.086Z"/></svg>