<!-- SPDX-FileCopyrightText: © 2025 Schneider Electric SPDX-License-Identifier: LicenseRef-Proprietary -->
<svg xmlns="http://www.w3.org/2000/svg" viewBox="0 0 16 16"><path d="M11.714 7.133a.5.5 0 0 0 .682-.191l.535-.951a.5.5 0 1 0-.872-.49l-.535.951a.5.5 0 0 0 .191.681Zm3.601-1.275a.5.5 0 0 0-.45.545l.104 1.085a.5.5 0 0 0 .497.452l.048-.002a.5.5 0 0 0 .45-.545l-.104-1.085a.5.5 0 0 0-.545-.45Zm-.427-.964q.371 0 .718-.076a.5.5 0 1 0-.213-.977A2.408 2.408 0 0 1 12.62.697a.5.5 0 0 0-.947-.323 3.41 3.41 0 0 0 3.214 4.52Zm-4.615-1.75-.979.471a.5.5 0 1 0 .433.901l.979-.471a.5.5 0 1 0-.433-.901ZM8.925.993l1.073.179a.5.5 0 0 0 .165-.986L9.09.007a.5.5 0 1 0-.165.987Zm2.622 7.243A.5.5 0 0 0 11.123 8H.764a.5.5 0 0 0-.132.018C.338 7.937 0 8.178 0 8.5v5a.5.5 0 0 0 .5.5h.952a.5.5 0 0 0 0-1H1v-2.986l3.03 5.721a.5.5 0 0 0 .442.266h1.253a.5.5 0 0 0 0-1h-.952l-3.178-6h2.164l3.905 6.644a.5.5 0 0 0 .479.356h1.358a.5.5 0 0 0 0-1H8.446l-3.527-6h2.184l4.287 6.761.028.041a.5.5 0 0 0 .358.197l.049.002h1.257a.5.5 0 0 0 0-1h-.99l-3.805-6h2.56l4.228 6.792a.5.5 0 0 0 .689.16.5.5 0 0 0 .16-.689l-4.375-7.027Z"/></svg>