<!-- SPDX-FileCopyrightText: © 2025 Schneider Electric SPDX-License-Identifier: LicenseRef-Proprietary -->
<svg xmlns="http://www.w3.org/2000/svg" viewBox="0 0 16 16"><path d="M15.461 12.793 9.674 7.005a.5.5 0 0 0-.707.707l5.787 5.788a.84.84 0 0 1-1.188 1.188L6.671 7.793a.5.5 0 0 0-.58-.092 3.51 3.51 0 0 1-4.074-.633 3.49 3.49 0 0 1-.892-3.406L2.8 5.338c.382.382.91.572 1.449.533A1.85 1.85 0 0 0 5.6 5.105c.518-.72.411-1.76-.249-2.419L3.804 1.139a3.48 3.48 0 0 1 3.19.953 3.49 3.49 0 0 1 .717 3.916.5.5 0 1 0 .914.406 4.485 4.485 0 0 0-.924-5.029A4.48 4.48 0 0 0 2.674.458a.5.5 0 0 0-.151.811l2.122 2.123c.317.317.379.801.145 1.127a.838.838 0 0 1-1.282.111L1.293 2.414a.5.5 0 0 0-.799.128 4.5 4.5 0 0 0 .818 5.233 4.5 4.5 0 0 0 4.899.971l6.649 6.649c.348.348.81.539 1.301.539s.953-.191 1.301-.539.539-.81.539-1.301-.191-.953-.539-1.301Z"/></svg>