<!-- SPDX-FileCopyrightText: © 2025 Schneider Electric SPDX-License-Identifier: LicenseRef-Proprietary -->
<svg xmlns="http://www.w3.org/2000/svg" viewBox="0 0 16 16"><path d="M15.499 2h-6a.5.5 0 0 0-.5.5v4.354a.5.5 0 0 0 .767.423l1.628-1.026c.268.345.665.89.868 1.327.184.396.337.992.425 1.374L6.853 11.87a.5.5 0 0 0-.229.233l-.519 1.098-1.964-3.902 1.417.103a.5.5 0 0 0 .275-.06l1.905-1.037a.5.5 0 0 0 .261-.439V2.5a.5.5 0 0 0-.5-.5h-7A.5.5 0 1 0 .5 3H7v4.569l-1.515.825-2.15-.155a.48.48 0 0 0-.452.221.5.5 0 0 0-.031.502l2.82 5.604a.5.5 0 0 0 .447.275h.006a.5.5 0 0 0 .446-.286l.883-1.867 6.026-3.015c.2-.101.31-.321.268-.541-.01-.05-.238-1.241-.578-1.975-.378-.814-1.246-1.846-1.283-1.89a.5.5 0 0 0-.648-.1l-1.238.781V3h5.5a.5.5 0 0 0 0-1Z"/></svg>