<!-- SPDX-FileCopyrightText: © 2025 Schneider Electric SPDX-License-Identifier: LicenseRef-Proprietary -->
<svg xmlns="http://www.w3.org/2000/svg" viewBox="0 0 16 16"><path d="M1 7.975a.5.5 0 0 0 .5.5h3.882l-.751.751a.5.5 0 0 0 .708.707l1.579-1.579a.5.5 0 0 0 0-.707L5.339 6.068a.5.5 0 0 0-.707.707l.7.7H1.5a.5.5 0 0 0-.5.5Z"/><path d="M14.51 3H1.49C.668 3 0 3.668 0 4.49V5.5a.5.5 0 0 0 1 0V4.49c0-.271.22-.49.49-.49h13.02c.271 0 .49.22.49.49v2.964l-.092-.35c-.161-.612-.312-1.19-.434-1.603a.498.498 0 0 0-.697-.322.5.5 0 0 0-.272.327.5.5 0 0 0-.015.091c-.142 1.542-.298 2.691-.437 3.435-.187-.613-.396-1.375-.549-1.929a62 62 0 0 0-.455-1.608.5.5 0 0 0-.981.102c-.159 1.741-.338 2.98-.489 3.703-.484-1.035-1.233-2.906-1.554-3.947A.504.504 0 0 0 8.521 5a.51.51 0 0 0-.524.5v5a.5.5 0 0 0 1 0V8.202c.379.94.815 1.892 1.193 2.371a.5.5 0 0 0 .44.317h.026c.363.037.748-.003 1.122-2.657.648 2.312.806 2.599 1.228 2.652l.042.004h.035c.376 0 .737-.017 1.105-2.581.396 1.473.599 2.099.808 2.37v.83a.49.49 0 0 1-.49.49H1.49a.49.49 0 0 1-.49-.49v-1.01a.5.5 0 0 0-1 0v1.01c0 .821.668 1.49 1.49 1.49h13.02c.821 0 1.49-.669 1.49-1.49v-7.02c0-.822-.669-1.49-1.49-1.49Z"/></svg>