<!-- SPDX-FileCopyrightText: © 2025 Schneider Electric SPDX-License-Identifier: LicenseRef-Proprietary -->
<svg xmlns="http://www.w3.org/2000/svg" viewBox="0 0 16 16"><path d="M14.158 1H1.842A.843.843 0 0 0 1 1.842v12.316c0 .464.378.842.842.842H9.5a.5.5 0 0 0 0-1H2V2h12v12h-2.5a.5.5 0 0 0 0 1h2.658a.843.843 0 0 0 .842-.842V1.842A.843.843 0 0 0 14.158 1Z"/><circle cx="3.5" cy="3.5" r=".5"/><circle cx="6.5" cy="3.5" r=".5"/><circle cx="9.5" cy="3.5" r=".5"/><circle cx="12.5" cy="3.5" r=".5"/><circle cx="3.5" cy="6.5" r=".5"/><circle cx="6.5" cy="6.5" r=".5"/><circle cx="9.5" cy="6.5" r=".5"/><circle cx="12.5" cy="6.5" r=".5"/><circle cx="3.5" cy="9.5" r=".5"/><circle cx="6.5" cy="9.5" r=".5"/><circle cx="9.5" cy="9.5" r=".5"/><circle cx="12.5" cy="9.5" r=".5"/><circle cx="3.5" cy="12.5" r=".5"/><circle cx="6.5" cy="12.5" r=".5"/><circle cx="9.5" cy="12.5" r=".5"/><circle cx="12.5" cy="12.5" r=".5"/></svg>