<!-- SPDX-FileCopyrightText: © 2025 Schneider Electric SPDX-License-Identifier: LicenseRef-Proprietary -->
<svg xmlns="http://www.w3.org/2000/svg" viewBox="0 0 16 16"><path d="M10.491 8.021a.5.5 0 0 0 .5-.498l.005-1.309a.5.5 0 0 0-.498-.502h-.002a.5.5 0 0 0-.5.498l-.005 1.309a.5.5 0 0 0 .498.502zM9.34 6.215a.5.5 0 0 0-.498-.502H8.84a.5.5 0 0 0-.5.498L8.335 7.52a.5.5 0 0 0 .498.502h.002a.5.5 0 0 0 .5-.498z"/><path d="M13.318 1H2.682C1.755 1 1 1.754 1 2.682v10.637c0 .928.754 1.682 1.682 1.682h4.993a.5.5 0 0 0 .5-.5v-3.008a.5.5 0 0 0-.363-.481.5.5 0 0 0-.197-.04h-.949c-.087 0-.12-.016-.122-.016-.012-.016-.041-.077-.041-.308a.63.63 0 0 0-.64-.614h-.505a.203.203 0 0 1-.203-.203V9.68a.645.645 0 0 0-.643-.644h-.159a.203.203 0 0 1-.203-.202V5.21c0-.112.091-.203.203-.203h7.295c.112 0 .203.091.203.203v3.624a.203.203 0 0 1-.203.202h-.484a.646.646 0 0 0-.644.644v.151a.203.203 0 0 1-.202.203h-.505a.5.5 0 0 0 0 1h.505c.593 0 1.087-.432 1.185-.998h.146c.663 0 1.203-.539 1.203-1.202V5.21c0-.663-.54-1.203-1.203-1.203H4.354c-.663 0-1.203.54-1.203 1.203v3.624c0 .601.443 1.101 1.02 1.188a1.206 1.206 0 0 0 1.188 1.012h.177c.145.806.75.938 1.131.938h.51v2.029H2.682A.683.683 0 0 1 2 13.319V2.682C2 2.306 2.306 2 2.682 2h10.637c.376 0 .682.306.682.682v10.637a.683.683 0 0 1-.682.682H9.99a.5.5 0 0 0 0 1h3.329c.928 0 1.682-.754 1.682-1.682V2.682c0-.927-.754-1.682-1.682-1.682Z"/><path d="M7.185 5.713a.5.5 0 0 0-.5.498L6.679 7.52a.5.5 0 0 0 .498.502h.002a.5.5 0 0 0 .5-.498l.006-1.308a.5.5 0 0 0-.498-.502h-.002Zm-1.656 0a.5.5 0 0 0-.5.498L5.024 7.52c0 .276.243.516.5.502a.5.5 0 0 0 .5-.498l.005-1.309a.5.5 0 0 0-.498-.502z"/></svg>