<!-- SPDX-FileCopyrightText: © 2025 Schneider Electric SPDX-License-Identifier: LicenseRef-Proprietary -->
<svg xmlns="http://www.w3.org/2000/svg" viewBox="0 0 16 16"><path d="M2.5 6H1.39A.39.39 0 0 1 1 5.61L1.05 1h4.561a.39.39 0 0 1 .39.39V2.5a.5.5 0 0 0 1 0V1.39C7.001.624 6.377 0 5.611 0H1.05C1.023 0 .91.008.884.012.38.094 0 .525 0 1.016V5.61C0 6.376.624 7 1.39 7H2.5a.5.5 0 0 0 0-1Z"/><path d="M5 4.5a.5.5 0 0 0 .5.5h5.11a.39.39 0 0 1 .39.39v5.11a.5.5 0 0 0 1 0V5.39C12 4.624 11.376 4 10.61 4H5.5a.5.5 0 0 0-.5.5Z"/><path d="M14.61 9H13.5a.5.5 0 0 0 0 1h1.11a.39.39 0 0 1 .39.39L14.95 15h-4.561a.39.39 0 0 1-.39-.39V13.5a.5.5 0 0 0-1 0v1.11c0 .766.624 1.39 1.39 1.39h4.561c.027 0 .14-.008.166-.012.504-.082.884-.513.884-1.004V10.39C16 9.624 15.376 9 14.61 9Z"/><path d="M10.959 11.5a.5.5 0 0 0-.5-.5h-5.07a.39.39 0 0 1-.39-.39V5.5a.5.5 0 0 0-1 0v5.11c0 .766.624 1.39 1.39 1.39h5.07a.5.5 0 0 0 .5-.5Z"/></svg>