<!-- SPDX-FileCopyrightText: © 2025 Schneider Electric SPDX-License-Identifier: LicenseRef-Proprietary -->
<svg xmlns="http://www.w3.org/2000/svg" viewBox="0 0 16 16"><path d="M13.5 14H2V3.5a.5.5 0 0 0-1 0v11a.5.5 0 0 0 .5.5h12a.5.5 0 0 0 0-1Zm1-13h-12a.5.5 0 0 0 0 1H14v10.5a.5.5 0 0 0 1 0v-11a.5.5 0 0 0-.5-.5Z"/><path d="M3.5 9a.5.5 0 0 0-.5.5v3a.5.5 0 0 0 .5.5h3a.5.5 0 0 0 0-1H4.707l3.647-3.646L12 4.707V6.5a.5.5 0 0 0 1 0v-3a.5.5 0 0 0-.5-.5h-3a.5.5 0 0 0 0 1h1.792L4 11.292V9.5a.5.5 0 0 0-.5-.5Z"/></svg>