<!-- SPDX-FileCopyrightText: © 2025 Schneider Electric SPDX-License-Identifier: LicenseRef-Proprietary -->
<svg xmlns="http://www.w3.org/2000/svg" viewBox="0 0 16 16"><path d="M15.758 3.072 13.271.74a.5.5 0 1 0-.684.73L14.219 3H7.288c-.717 0-1.4.319-1.875.876a2.53 2.53 0 0 0-.575 2.046C5.028 7.107 6.149 8 7.445 8h1.054a.5.5 0 0 0 .184-.035.5.5 0 0 0 .165.028c.52 0 1.019.249 1.37.682.41.507.563 1.183.419 1.855A1.88 1.88 0 0 1 8.804 12H1.722l1.732-1.684a.5.5 0 0 0-.697-.717L.151 12.132a.5.5 0 0 0-.151.361v.007c0 .173.088.325.222.415l2.505 2.379a.5.5 0 1 0 .688-.724l-1.652-1.569h7.042c1.348 0 2.53-.95 2.811-2.261.207-.968-.019-1.95-.62-2.693-.542-.669-1.324-1.053-2.147-1.053a.5.5 0 0 0-.184.035.5.5 0 0 0-.165-.028H7.446c-.811 0-1.507-.532-1.62-1.236a1.53 1.53 0 0 1 .349-1.239c.284-.333.69-.524 1.114-.524h7.006l-1.75 1.722a.5.5 0 1 0 .701.713l2.605-2.563A.5.5 0 0 0 16 3.512h0v-.009a.5.5 0 0 0-.242-.428Z"/></svg>