<!-- SPDX-FileCopyrightText: © 2024 Schneider Electric SPDX-License-Identifier: LicenseRef-Proprietary -->
<svg xmlns="http://www.w3.org/2000/svg" viewBox="0 0 20 20"><path fill="currentColor" stroke="currentColor" stroke-linecap="round" stroke-linejoin="round" d="M7.99 2.84q.2-1.2.65-1.56.45-.35 1.31-.35h.2q.8 0 1.28.35.47.35.68 1.56l.4 4.22 4.33-.9q1.15-.2 1.69.15.52.36.78 1.11l.05.2q.26.86.05 1.38-.2.53-1.26 1.08l-3.98 1.81 2.26 3.92q.56 1.06.33 1.68-.23.63-.83 1.03l-.15.1q-.56.41-1.19.43t-1.49-.83L9.98 14.8l-3.12 3.42q-.85.85-1.44.83-.58 0-1.28-.43l-.15-.1a1.7 1.7 0 0 1-.86-1.03q-.15-.63.41-1.68l2.21-3.92-3.92-1.81Q.77 9.53.57 9.02q-.2-.5.05-1.41l.05-.2q.25-.86.76-1.16.5-.3 1.66-.1l4.38.9.5-4.22Z"/></svg>