<!-- SPDX-FileCopyrightText: © 2025 Schneider Electric SPDX-License-Identifier: LicenseRef-Proprietary -->
<svg xmlns="http://www.w3.org/2000/svg" viewBox="0 0 16 16"><path d="M15.956 6.124c-.125-.385-.495-.65-1.018-.726l-4.101-.594-1.835-3.717c-.234-.472-.6-.742-1.004-.742h0c-.405 0-.77.271-1.002.743l-.697 1.413a.5.5 0 0 0 .227.669c.25.124.548.021.669-.227l.697-1.413c.048-.096.089-.146.1-.171a.6.6 0 0 1 .116.171l1.951 3.952c.072.148.214.25.377.273l4.36.631c.107.016.168.041.194.042a.6.6 0 0 1-.127.163l-3.155 3.076a.5.5 0 0 0-.145.443l.746 4.343c.019.105.015.171.021.197a.6.6 0 0 1-.193-.071l-3.901-2.05a.5.5 0 0 0-.466 0l-3.899 2.052c-.096.051-.16.066-.183.08a.6.6 0 0 1 .007-.205l.745-4.344a.5.5 0 0 0-.144-.443L1.14 6.594c-.077-.075-.112-.13-.132-.147a.6.6 0 0 1 .199-.057l4.36-.635a.5.5 0 1 0-.145-.989l-4.36.635c-.521.075-.892.34-1.018.725-.125.385.02.817.397 1.185l2.968 2.892-.701 4.086c-.087.519.05.952.377 1.189a.94.94 0 0 0 .562.176c.216 0 .45-.062.687-.187l3.667-1.93 3.668 1.927c.467.246.921.25 1.249.012s.465-.673.376-1.192l-.702-4.083 2.968-2.893c.376-.368.521-.8.396-1.185Z"/></svg>