<!-- SPDX-FileCopyrightText: © 2025 Schneider Electric SPDX-License-Identifier: LicenseRef-Proprietary -->
<svg xmlns="http://www.w3.org/2000/svg" viewBox="0 0 16 16"><path d="M10.92.877 10.914.85a.5.5 0 0 0-.226-.321L10.672.52 9.886.069A.5.5 0 0 0 9.665 0a.5.5 0 0 0-.205.03q-.013.004-.024.01L5.418 1.716a.5.5 0 0 0-.131.079h0s0 0 0 0c0 .004 0 .001 0 0a.5.5 0 0 0-.123.156.48.48 0 0 0-.024.4q.03.08.084.146h0v.001a.5.5 0 0 0 .138.114l.582.335.727 4.579-1.454-.836a.5.5 0 0 0-.231-.071.43.43 0 0 0-.219.037.5.5 0 0 0-.27.268l-.023.068-1.55 5.471a.5.5 0 1 0 .963.273l1.378-4.865 1.608.925 1.076 6.779a.5.5 0 0 0 .988-.156l-.302-1.897 2.189-.912a.5.5 0 0 0 .27-.654.505.505 0 0 0-.654-.27l-1.966.819-.218-1.367 2.166-.903a.5.5 0 0 0 .27-.654.506.506 0 0 0-.654-.27l-1.942.811-.211-1.33 2.142-.895a.499.499 0 1 0-.384-.922l-1.918.801-.829-5.216-.004-.023a.5.5 0 0 0-.166-.283L9.6 1.055l.376.215 2.131 12.58a.505.505 0 0 0 .577.409.5.5 0 0 0 .409-.577z"/></svg>