<!-- SPDX-FileCopyrightText: © 2025 Schneider Electric SPDX-License-Identifier: LicenseRef-Proprietary -->
<svg xmlns="http://www.w3.org/2000/svg" viewBox="0 0 16 16"><path d="M7.5 6a.5.5 0 0 0-.5.5v2.816a.5.5 0 0 0 .857.35l2.926-2.983a.5.5 0 0 0-.714-.7L8 8.093V6.501a.5.5 0 0 0-.5-.5Z"/><path d="M14.358 4.028a.5.5 0 0 0 .707-.707l-.634-.634-.003-.003-.634-.634a.5.5 0 0 0-.707.707l.282.282-.867.867a6.9 6.9 0 0 0-1.697-1.081.5.5 0 1 0-.409.913 5.9 5.9 0 0 1 3.488 5.376c0 3.245-2.64 5.885-5.885 5.885s-5.885-2.64-5.885-5.885c0-3.271 2.518-5.856 5.731-5.885q.037 0 .075-.006a.508.508 0 0 0 .579-.494V.999h1a.5.5 0 0 0 0-1h-3a.5.5 0 0 0 0 1h1v1.242a6.7 6.7 0 0 0-4.036 1.63l-.833-.833.282-.282a.5.5 0 0 0-.707-.707l-.634.634-.003.003-.634.634a.5.5 0 0 0 .707.707l.282-.282.836.836C1.73 5.786 1.114 7.366 1.114 9.114c0 3.796 3.088 6.885 6.885 6.885s6.885-3.089 6.885-6.885a6.9 6.9 0 0 0-1.676-4.501l.868-.868z"/></svg>