<!-- SPDX-FileCopyrightText: © 2025 Schneider Electric SPDX-License-Identifier: LicenseRef-Proprietary -->
<svg xmlns="http://www.w3.org/2000/svg" viewBox="0 0 16 16"><path d="M3.454 4.172a.5.5 0 0 0 .708 0 .5.5 0 0 0 0-.707L3.046 2.349a.5.5 0 0 0-.707.707zm-.875 3.836a.5.5 0 0 0-.5-.5H.5a.5.5 0 0 0 0 1h1.579a.5.5 0 0 0 .5-.5Zm9.602-3.701a.5.5 0 0 0 .354-.146l1.116-1.117a.501.501 0 0 0-.707-.708l-1.116 1.117a.5.5 0 0 0 .354.853ZM7.992 2.579a.5.5 0 0 0 .5-.5V.5a.5.5 0 0 0-1 0v1.579a.5.5 0 0 0 .5.5ZM3.556 6.691a.5.5 0 0 0 .708 0l2.234-2.234a.5.5 0 0 0-.707-.707L3.557 5.984a.5.5 0 0 0 0 .707Zm8.99 5.136a.5.5 0 0 0-.707.707l1.117 1.116a.5.5 0 0 0 .708 0 .5.5 0 0 0 0-.707zM15.5 7.492h-1.579a.5.5 0 0 0 0 1H15.5a.5.5 0 0 0 0-1ZM3.466 11.839l-1.117 1.117a.502.502 0 0 0 .353.854.5.5 0 0 0 .354-.146l1.116-1.117a.5.5 0 0 0-.708-.707Zm4.542 1.582a.5.5 0 0 0-.5.5V15.5a.5.5 0 0 0 1 0v-1.579a.5.5 0 0 0-.5-.5Zm2.011-9.832A4.8 4.8 0 0 0 8 3.15a.5.5 0 0 0-.5.5v.518L3.304 8.363a.5.5 0 0 0 .707.707L7.5 5.582v.817l-3.608 3.607a.5.5 0 0 0 .707.707l2.901-2.9v.776l-2.607 2.594a.5.5 0 1 0 .705.709L7.5 10v.814l-.903.903a.5.5 0 0 0 .707.707l.196-.196v.107a.5.5 0 0 0 1 0V8.797h0V4.183a3.8 3.8 0 0 1 1.102.316 3.85 3.85 0 0 1 2.24 3.494 3.86 3.86 0 0 1-1.921 3.329.5.5 0 0 0 .501.866 4.86 4.86 0 0 0 2.42-4.194 4.86 4.86 0 0 0-2.823-4.403Z"/></svg>