<!-- SPDX-FileCopyrightText: © 2025 Schneider Electric SPDX-License-Identifier: LicenseRef-Proprietary -->
<svg xmlns="http://www.w3.org/2000/svg" viewBox="0 0 16 16"><path d="M5.861 2.344a.5.5 0 0 0 .5-.5V.5a.5.5 0 0 0-1 0v1.344a.5.5 0 0 0 .5.5ZM2.675 8.313l-.955.951a.5.5 0 0 0 .706.708l.955-.951a.5.5 0 0 0-.707-.708Zm-.004-4.942a.5.5 0 0 0 .707-.001.5.5 0 0 0-.002-.707l-.955-.95a.5.5 0 0 0-.705.709zm6.708 2.465a.5.5 0 0 0 .5.5h1.35a.5.5 0 0 0 0-1h-1.35a.5.5 0 0 0-.5.5Zm-.678-2.324a.5.5 0 0 0 .353-.146l.955-.95a.5.5 0 1 0-.705-.709l-.955.95a.5.5 0 0 0 .352.854ZM2.35 5.843a.5.5 0 0 0-.5-.5H.5a.5.5 0 0 0 0 1h1.35a.5.5 0 0 0 .5-.5Zm11.512 5.304c-.065-.79-.593-1.528-.653-1.61a.5.5 0 1 0-.806.592c.108.147.426.667.461 1.101.048.577-.093.965-.255 1.414-.149.412-.303.837-.303 1.398 0 .805.287 1.597.299 1.63a.5.5 0 1 0 .939-.344c-.002-.006-.238-.662-.238-1.286 0-.386.113-.697.244-1.058.177-.489.377-1.042.312-1.837Zm-2.262-.053a.5.5 0 0 0-.644-.291.5.5 0 0 0-.292.645c.232.616.104.953-.075 1.42-.135.353-.288.752-.288 1.286 0 .812.271 1.503.283 1.532a.5.5 0 0 0 .929-.369c-.002-.006-.212-.549-.212-1.163 0-.35.103-.618.222-.93.208-.543.442-1.158.076-2.13ZM5.868 9.336a.5.5 0 0 0-.5.5v1.343a.5.5 0 0 0 1 0V9.836a.5.5 0 0 0-.5-.5Zm10.047 5.886c-.005-.009-.538-.814-.538-1.589 0-.294.119-.643.246-1.012.196-.574.419-1.227.329-1.982-.111-.928-.578-1.971-.598-2.015a.5.5 0 0 0-.911.411c.004.009.424.949.517 1.723.063.529-.104 1.021-.282 1.54-.147.43-.299.875-.299 1.335 0 1.084.68 2.104.708 2.146a.5.5 0 0 0 .693.136.5.5 0 0 0 .137-.693ZM9.059 8.308a.5.5 0 1 0-.705.709l.955.95a.5.5 0 1 0 .705-.708zM5.861 3.053a.5.5 0 0 0 0 1c.99 0 1.795.8 1.795 1.784s-.805 1.784-1.795 1.784-1.795-.8-1.795-1.784c0-.44.163-.863.458-1.191a.5.5 0 1 0-.743-.669 2.78 2.78 0 0 0-.715 1.86c0 1.535 1.254 2.784 2.795 2.784s2.795-1.249 2.795-2.784-1.254-2.784-2.795-2.784Z"/></svg>