<!-- SPDX-FileCopyrightText: © 2025 Schneider Electric SPDX-License-Identifier: LicenseRef-Proprietary -->
<svg xmlns="http://www.w3.org/2000/svg" viewBox="0 0 16 16"><path d="M13.5 14.017h-11a.5.5 0 0 0 0 1h11a.5.5 0 0 0 0-1ZM14.477 11H1.5a.5.5 0 0 0 0 1h12.977a.5.5 0 0 0 0-1ZM15.5 8h-3.616A4.258 4.258 0 0 0 8 2.009a.5.5 0 0 0 0 1 3.258 3.258 0 0 1 2.837 4.851.5.5 0 0 0-.054.141H5.234a.5.5 0 0 0-.042-.09 3.26 3.26 0 0 1 .907-4.29.5.5 0 0 0-.585-.811 4.27 4.27 0 0 0-1.769 3.453c0 .601.127 1.193.37 1.737H.5a.5.5 0 0 0 0 1h15a.5.5 0 0 0 0-1Z"/></svg>