<!-- SPDX-FileCopyrightText: © 2025 Schneider Electric SPDX-License-Identifier: LicenseRef-Proprietary -->
<svg xmlns="http://www.w3.org/2000/svg" viewBox="0 0 16 16"><path d="M9.353 5.399a.5.5 0 0 0 .066.474l2.169 2.925A.5.5 0 0 0 11.99 9h3.51a.5.5 0 0 0 .5-.5v-8a.5.5 0 0 0-1 0V8h-2.759l-1.556-2.099 1.254-.27a.5.5 0 0 0 .388-.574l-.664-3.834a.5.5 0 0 0-.577-.407L.416 2.639a.498.498 0 0 0-.331.771L1.14 4.989a.5.5 0 0 0 .499.215l.752-.126.257 1.309a.5.5 0 0 0 .573.396l3.969-.662 3.278 4.667a.5.5 0 0 0 .409.213h4.124v4.5a.5.5 0 0 0 1 0v-5a.5.5 0 0 0-.5-.5h-4.364l-3.31-4.712a.51.51 0 0 0-.491-.206l-3.8.634-.258-1.309a.497.497 0 0 0-.574-.396l-.913.153-.447-.668 9.418-1.61.497 2.87-1.543.332a.5.5 0 0 0-.363.312Z"/></svg>