<!-- SPDX-FileCopyrightText: © 2025 Schneider Electric SPDX-License-Identifier: LicenseRef-Proprietary -->
<svg xmlns="http://www.w3.org/2000/svg" viewBox="0 0 16 16"><path d="M10 5.5a.5.5 0 0 0-.5-.5H7V1h4v6.5a.5.5 0 0 0 1 0v-7a.5.5 0 0 0-.5-.5H.5a.5.5 0 0 0-.5.5v15a.5.5 0 0 0 .5.5h5a.5.5 0 0 0 0-1H1v-2h3.5a.5.5 0 0 0 0-1H1v-2h3.5a.5.5 0 0 0 0-1H1V3h3.5a.5.5 0 0 0 0-1H1V1h5v12.923a.5.5 0 0 0 1 0V6h2.5a.5.5 0 0 0 .5-.5Z"/><path d="M4.5 6h-1a.5.5 0 0 0 0 1h1a.5.5 0 0 0 0-1Zm11.002 6.023-2.488-.01.01-2.512a.5.5 0 0 0-.498-.502h-.002a.5.5 0 0 0-.5.498l-.01 2.512-2.512-.01H9.5a.5.5 0 0 0-.002 1l2.512.01-.01 2.488a.5.5 0 0 0 .498.502h.002a.5.5 0 0 0 .5-.498l.01-2.488 2.488.01h.002a.5.5 0 0 0 .002-1Z"/></svg>