<!-- SPDX-FileCopyrightText: © 2025 Schneider Electric SPDX-License-Identifier: LicenseRef-Proprietary -->
<svg xmlns="http://www.w3.org/2000/svg" viewBox="0 0 16 16"><path d="M10.898 1a4.1 4.1 0 0 1 4.089 4.1.5.5 0 0 0 1 0c0-2.812-2.283-5.1-5.089-5.1a.5.5 0 0 0 0 1ZM15.5 7.098a.5.5 0 0 0-.5.5v6.029l-5.397-1.036a.47.47 0 0 0-.274.019L3 14.798V5.804l.02-.005 3.984-1.161a.5.5 0 1 0-.28-.96L2.74 4.839l-.032.011-1.12-.849 4.92-1.462L8.999 3.64v7.646a.5.5 0 0 0 1 0V3.313h0v-.002h0v-.004a.5.5 0 0 0-.196-.391.5.5 0 0 0-.112-.065L6.744 1.548a.5.5 0 0 0-.345-.022L.363 3.321A.5.5 0 0 0 0 3.807v10.016c0 .147.065.288.179.383l1.998 1.675a.5.5 0 0 0 .31.119h.034a.6.6 0 0 0 .154-.031l6.863-2.372 5.869 1.127a.502.502 0 0 0 .595-.491V7.599a.5.5 0 0 0-.5-.5ZM2 14.429l-1-.839V4.809l1 .758z"/><path d="M10.898 3.007c1.151 0 2.087.939 2.087 2.093a.5.5 0 0 0 1 0 3.093 3.093 0 0 0-3.087-3.093.5.5 0 0 0 0 1Z"/></svg>