<!-- SPDX-FileCopyrightText: © 2025 Schneider Electric SPDX-License-Identifier: LicenseRef-Proprietary -->
<svg xmlns="http://www.w3.org/2000/svg" viewBox="0 0 16 16"><path d="M15.86 3.226 12.913.154a.5.5 0 1 0-.721.692l1.181 1.231-1.845 1.782-.742-.741a1.36 1.36 0 0 0-1.921 0L2.174 9.807a1.37 1.37 0 0 0-.355 1.297l.2.722a.5.5 0 0 0 .964-.267l-.196-.706a.36.36 0 0 1 .095-.339l6.691-6.688a.36.36 0 0 1 .507 0l2.147 2.146c.14.14.14.367 0 .506l-1.254 1.254-.893-.893a.5.5 0 0 0-.707.707l.893.893-1.145 1.145-.894-.893a.5.5 0 0 0-.707.707l.893.893-1.121 1.121-.893-.893a.5.5 0 0 0-.707.708l.893.893-1.064 1.063a.36.36 0 0 1-.325.097l-1.545-.319a1.84 1.84 0 0 0-1.623.45L.162 15.135a.5.5 0 1 0 .678.734l1.866-1.724a.84.84 0 0 1 .742-.206l1.546.319c.449.096.913-.044 1.235-.369l1.398-1.398.019-.018.018-.019 1.799-1.799.01-.01.01-.01L11.319 8.8l.007-.006.005-.006 1.603-1.602a1.36 1.36 0 0 0 0-1.92l-.698-.698 1.83-1.768 1.074 1.119a.5.5 0 1 0 .721-.692Z"/></svg>