<!-- SPDX-FileCopyrightText: © 2025 Schneider Electric SPDX-License-Identifier: LicenseRef-Proprietary -->
<svg xmlns="http://www.w3.org/2000/svg" viewBox="0 0 16 16"><path d="M8.648 8.994a.5.5 0 0 0 .421.908c.386-.18.892-.493 1.108-.967q.308-.669-.054-1.537c-.339-.734-.245-1.009-.281-.995a.53.53 0 0 0 .141-.384.5.5 0 0 0-.206-.39c-.317-.23-.94.021-1.125.104q-.195.088-.36.203c.079-.191.202-.407.386-.646a.5.5 0 0 0 .068-.117.5.5 0 0 0-.702-.676c-2.28 1.487-2.607 2.855-2.479 3.74.138.956.841 1.583 1.437 1.761a.5.5 0 0 0 .288-.957c-.242-.073-.656-.394-.735-.947-.07-.488.141-1.021.609-1.564.005.571.247 1.002.52 1.217a.502.502 0 0 0 .807-.345.87.87 0 0 1 .389-.658c.036.282.132.63.328 1.054q.186.444.06.719c-.066.145-.309.331-.619.475Z"/><path d="M13.446 4h-2.567l-.737-1.699A.5.5 0 0 0 9.684 2H6.565a.5.5 0 0 0-.465.317L5.44 4H2.72C1.246 4 0 5.98 0 8.325 0 10.737 1.368 12 2.72 12H3v1.5a.5.5 0 0 0 .5.5h1.019a.5.5 0 0 0 .388-.186L6.379 12H9.51l1.447 1.812a.5.5 0 0 0 .391.188h1.153a.5.5 0 0 0 .5-.5v-2a.5.5 0 0 0-1 0V13h-.412l-1.447-1.812A.5.5 0 0 0 9.751 11h-3.61a.5.5 0 0 0-.388.186L4.281 13h-.28v-1.5a.5.5 0 0 0-.5-.5h-.78c-.854 0-1.72-.919-1.72-2.675C1.001 6.483 1.942 5 2.721 5h3.061a.5.5 0 0 0 .465-.317L6.907 3h2.45l.737 1.699a.5.5 0 0 0 .458.301h2.895c.718 0 1.554 1.422 1.554 3.255 0 1.063-.291 1.915-.799 2.336a.5.5 0 1 0 .639.769c.748-.621 1.16-1.725 1.16-3.106 0-2.346-1.146-4.255-2.554-4.255Z"/></svg>