<!-- SPDX-FileCopyrightText: © 2025 Schneider Electric SPDX-License-Identifier: LicenseRef-Proprietary -->
<svg xmlns="http://www.w3.org/2000/svg" viewBox="0 0 16 16"><path d="m7 9.891-.005-8.133C6.995-.55 3-.55 3 1.758V4.5a.5.5 0 0 0 1 0V1.757C4 1.159 4.627 1 4.998 1c.281 0 .547.079.73.215.18.134.267.311.267.542L6 10.198q0 .118.053.224c.053.105.21.225.319.271.716.306 1.08 1.041 1.08 2.183 0 1.386-1.556 2.123-2.679 2.123-.977 0-2.422-.658-2.422-2.07 0-1.998 1.215-2.245 1.189-2.249a.5.5 0 0 0 .5-.505L4.005 7H4.5a.5.5 0 0 0 0-1h-1a.503.503 0 0 0-.5.505l.036 3.31c-.667.288-1.686 1.111-1.686 3.114 0 1.896 1.776 3.07 3.422 3.07 1.776 0 3.679-1.255 3.679-3.123 0-1.016-.256-2.323-1.452-2.986Z"/><path d="M14.837 8.469a.5.5 0 0 0-.707.021L12 10.754V2.5a.5.5 0 0 0-1 0v8.28a465 465 0 0 1-2.156-2.314.499.499 0 1 0-.734.679c2.682 2.896 3.128 3.379 3.407 3.379.056 0 .105-.02.164-.043a.5.5 0 0 0 .182-.123l2.996-3.183a.5.5 0 0 0-.021-.707Z"/></svg>