<!-- SPDX-FileCopyrightText: © 2025 Schneider Electric SPDX-License-Identifier: LicenseRef-Proprietary -->
<svg xmlns="http://www.w3.org/2000/svg" viewBox="0 0 16 16"><circle cx="15.5" cy="9.5" r=".5"/><circle cx="15.5" cy=".499" r=".5"/><path d="m6 9.911-.005-8.137C5.995-.519 2-.519 2 1.774V4.5a.5.5 0 0 0 1 0V1.774c0-.589.627-.746.998-.746s.998.157.998.747l.005 8.437q0 .12.054.226c.051.101.201.217.303.264.681.312 1.026 1.023 1.026 2.112 0 1.305-1.33 2.214-2.523 2.214-.981 0-2.341-.748-2.341-2.151 0-1.963 1.051-2.182 1.021-2.184a.503.503 0 0 0 .5-.505l-.035-3.187h.495a.5.5 0 0 0 0-1h-1a.503.503 0 0 0-.5.505l.036 3.325c-.624.29-1.517 1.103-1.517 3.046s1.734 3.151 3.341 3.151c1.701 0 3.523-1.291 3.523-3.214 0-.974-.244-2.234-1.383-2.902ZM13.5 9h-3a.5.5 0 0 0-.5.5v6a.5.5 0 0 0 1 0V13h1.5a.5.5 0 0 0 0-1H11v-2h2.5a.5.5 0 0 0 0-1Zm-.026-3.215a2.472 2.472 0 0 1-3.317-2.32 2.47 2.47 0 0 1 3.249-2.343.5.5 0 0 0 .317-.949 3.472 3.472 0 0 0-4.566 3.293 3.473 3.473 0 0 0 4.66 3.259.5.5 0 1 0-.344-.94Z"/></svg>