<!-- SPDX-FileCopyrightText: © 2025 Schneider Electric SPDX-License-Identifier: LicenseRef-Proprietary -->
<svg xmlns="http://www.w3.org/2000/svg" viewBox="0 0 16 16"><path d="m7 9.891-.005-8.133C6.995-.55 3-.55 3 1.758V4.5a.5.5 0 0 0 1 0V1.757C4 1.159 4.627 1 4.998 1c.281 0 .547.079.73.215.18.134.267.311.267.542L6 10.198q0 .118.053.224c.053.105.21.225.319.271.716.306 1.08 1.041 1.08 2.183 0 1.386-1.556 2.123-2.679 2.123-.977 0-2.422-.658-2.422-2.07 0-1.998 1.215-2.245 1.189-2.249a.5.5 0 0 0 .5-.505L4.005 7H4.5a.5.5 0 0 0 0-1h-1a.503.503 0 0 0-.5.505l.036 3.31c-.667.288-1.686 1.111-1.686 3.114 0 1.896 1.776 3.07 3.422 3.07 1.776 0 3.679-1.255 3.679-3.123 0-1.016-.256-2.323-1.452-2.986Zm7.873-4.181-2.996-3.182a.5.5 0 0 0-.182-.124q-.356-.138-3.57 3.336a.5.5 0 1 0 .734.68c.629-.68 1.503-1.619 2.142-2.299V12.5a.5.5 0 0 0 1 0V4.118l2.144 2.278a.5.5 0 0 0 .728-.686Z"/></svg>