<!-- SPDX-FileCopyrightText: © 2025 Schneider Electric SPDX-License-Identifier: LicenseRef-Proprietary -->
<svg xmlns="http://www.w3.org/2000/svg" viewBox="0 0 16 16"><path d="M3.786 6.199c-.275.414-.483.84-.636 1.303a.5.5 0 1 0 .949.314 4.4 4.4 0 0 1 .52-1.064.5.5 0 1 0-.833-.553Zm7.121-.584a.5.5 0 0 0 0 .708c.253.253.467.558.654.933a.5.5 0 0 0 .895-.446 4.5 4.5 0 0 0-.84-1.193.5.5 0 0 0-.708 0Zm.993-.591a5.57 5.57 0 0 1 1.479 2.57.501.501 0 0 0 .967-.257 6.56 6.56 0 0 0-1.75-3.031.5.5 0 1 0-.696.718Zm-2.474 9.42a5.8 5.8 0 0 1-2.972.002.5.5 0 0 0-.263.965c.554.151 1.133.227 1.721.227s1.178-.075 1.763-.225a.5.5 0 1 0-.248-.968Z"/><path d="M15.971 11.445c-.372-2.353-3.052-2.975-5.48-3.212a2.62 2.62 0 0 0-1.352-1.596l2.736-3.601a.5.5 0 0 0-.037-.649C10.54 1.032 7.82-.577 6.057.87c-1.869 1.5-1.062 4.127-.048 6.341a2.73 2.73 0 0 0-.713 1.966L.843 8.611a.51.51 0 0 0-.543.355c-.524 1.785-.567 4.931 1.557 5.777 2.25.842 4.111-1.152 5.509-3.122a2.8 2.8 0 0 0 1.193-.006.5.5 0 1 0-.221-.975 1.67 1.67 0 0 1-.988-.065.5.5 0 0 0-.598.18c-1.804 2.614-3.206 3.554-4.535 3.056C.935 13.3.826 11.173 1.155 9.659l4.693.597a.5.5 0 0 0 .538-.653 1.9 1.9 0 0 1-.095-.568c0-.683.403-1.129.644-1.334a.5.5 0 0 0 .128-.594c-1.368-2.888-1.485-4.571-.376-5.461 1.065-.875 2.967.091 4.124 1.137l-2.888 3.8a.5.5 0 0 0 .307.794c.719.132 1.263.689 1.354 1.384.03.233.219.414.454.433 3.243.273 4.722.992 4.945 2.404.21 1.35-1.585 2.511-3.07 2.992l-1.592-3.807a.5.5 0 0 0-.923.385l1.764 4.217a.5.5 0 0 0 .581.292c1.819-.45 4.576-1.996 4.229-4.234Z"/><path d="M1.91 7.926a.5.5 0 0 0 .608-.36 5.63 5.63 0 0 1 1.484-2.571.5.5 0 0 0-.707-.707 6.6 6.6 0 0 0-1.745 3.03.5.5 0 0 0 .361.608Zm6.022 6.11c.386 0 .749-.039 1.101-.118a.5.5 0 1 0-.218-.976 4.2 4.2 0 0 1-1.165.085c-.274-.035-.511.196-.526.472a.5.5 0 0 0 .472.526q.171.01.336.01Z"/></svg>