<!-- SPDX-FileCopyrightText: © 2025 Schneider Electric SPDX-License-Identifier: LicenseRef-Proprietary -->
<svg xmlns="http://www.w3.org/2000/svg" viewBox="0 0 16 16"><path d="M16 6.918c0-.921-.507-1.555-1.113-1.79q.295-.504.296-1.263c0-.508-.177-1.305-1.24-1.55.073-.189.122-.421.122-.703 0-.431-.146-.801-.42-1.072-.562-.552-1.477-.541-1.964-.533L4.907.043a.5.5 0 0 0-.104.011A2.5 2.5 0 0 0 3.55.77a1.97 1.97 0 0 0-1.553-.771C1.618-.001.519.036.519.036a.5.5 0 0 0-.484.492S0 2.55 0 3.022v6.71a.5.5 0 0 0 .152.359.54.54 0 0 0 .364.141s1.146-.036 1.48-.036c1.101 0 1.997-.929 1.997-2.07V5.527a.5.5 0 0 0-1 0v2.599c0 .59-.447 1.07-.997 1.07-.19 0-.637.012-.996.021V3.021c0-.322.017-1.376.027-2 .336-.01.763-.021.969-.021.549 0 .997.48.997 1.07q0 .023.002.044-.002.063-.002.127a.5.5 0 0 0 .5.495h.005a.5.5 0 0 0 .495-.505c-.009-.859.764-1.13.974-1.188l6.728-.036c.319-.006.984-.014 1.248.246.053.052.122.146.122.36 0 .244-.057.415-.174.521a.65.65 0 0 1-.303.145l-.378.022a.5.5 0 0 0-.022.996c.042.005.258.022.529-.025l.528-.032c.866 0 .937.283.937.625 0 .421-.09.723-.268.896-.186.182-.485.245-.799.264h-.797a.5.5 0 0 0 0 1l.225.003c.176.004.377.008.591-.003h1.218c.25 0 .647.242.647.892 0 1.019-.65 1.098-.85 1.098h-1.681a.5.5 0 0 0 0 1h1.681c.368 0 .499.525.499.975 0 .87-.739 1.007-1.12 1.02a.4.4 0 0 0-.061-.004l-2.992-.014h-.002a.5.5 0 0 0-.5.498v1.998c-.024.495-.182.856-.478 1.106-.483.404-1.214.415-1.515.401v-1.742c0-1.492-.346-2.708-.95-3.336a3.9 3.9 0 0 0-1.133-.81 4 4 0 0 0-.281-.122.499.499 0 1 0-.363.931q.104.041.212.093c.329.157.613.359.843.6.414.431.671 1.443.671 2.644v2.083a.5.5 0 0 0 .311.463c.057.023.093.046.121.062.064.038.162.097.301.114.07.009.224.024.428.024.513 0 1.349-.098 1.996-.641.514-.432.795-1.044.835-1.847v-1.52l2.42.012.072.005c1.086 0 2.183-.625 2.183-2.021 0-.597-.144-1.048-.368-1.369.419-.337.719-.898.719-1.703Z"/></svg>