<!-- SPDX-FileCopyrightText: © 2025 Schneider Electric SPDX-License-Identifier: LicenseRef-Proprietary -->
<svg xmlns="http://www.w3.org/2000/svg" viewBox="0 0 16 16"><path d="M3.606 9.945a.498.498 0 1 0-.966.256l.568 2.146a.5.5 0 0 0 .611.355.5.5 0 0 0 .355-.611zm2.613 1.209a.5.5 0 0 0-.954.299l.799 2.549a.5.5 0 1 0 .954-.298z"/><path d="M14.946 4.597A2.8 2.8 0 0 0 12.022 3.4 4.47 4.47 0 0 0 7.715.105a4.48 4.48 0 0 0-4.042 2.571 3.08 3.08 0 0 0-2.508 1.327c-.587.848-.708 1.91-.331 2.916C1.301 8.164 2.562 9 3.972 9h1.363a.5.5 0 0 0 0-1H3.972c-.996 0-1.88-.575-2.201-1.432-.261-.694-.182-1.421.216-1.995a2.11 2.11 0 0 1 1.952-.882.5.5 0 0 0 .528-.323 3.48 3.48 0 0 1 3.248-2.262 3.47 3.47 0 0 1 3.433 3.019.5.5 0 0 0 .716.385c.774-.379 1.771-.103 2.241.628.334.519.366 1.167.087 1.777C13.933 7.483 13.057 8 12.353 8H7.62a.5.5 0 0 0-.463.689l1.734 4.264a.5.5 0 0 0 .374.304.51.51 0 0 0 .457-.153l1.099-1.191 1.624 3.887a.5.5 0 0 0 .923-.384l-1.925-4.606a.5.5 0 0 0-.83-.147L9.52 11.849 8.363 9.003h3.99c1.096 0 2.329-.75 2.749-1.67.422-.926.365-1.922-.156-2.733Z"/><path d="M13.653 9.668a.5.5 0 1 0-.928.369l.733 1.841a.5.5 0 0 0 .928-.369z"/></svg>