<!-- SPDX-FileCopyrightText: © 2025 Schneider Electric SPDX-License-Identifier: LicenseRef-Proprietary -->
<svg xmlns="http://www.w3.org/2000/svg" viewBox="0 0 16 16"><path d="M10.58 2.824a2.61 2.61 0 0 1 2.605 2.605.5.5 0 0 0 1 0 3.61 3.61 0 0 0-3.605-3.605.5.5 0 0 0 0 1Z"/><path d="M10.58 1a4.435 4.435 0 0 1 4.43 4.429.5.5 0 0 0 1 0A5.436 5.436 0 0 0 10.58 0a.5.5 0 0 0 0 1Zm1.891 8.924a1.49 1.49 0 0 0-.419-1.392L9.034 5.59a.6.6 0 0 0-.133-.13l-.388-.378a1.64 1.64 0 0 0-1.17-.486h-.005c-.269 0-.527.066-.758.188l-1.012-.991a2.28 2.28 0 0 0-.618-2.05L3.898.671A2.26 2.26 0 0 0 2.284 0h0A2.296 2.296 0 0 0 .658 3.914l1.06 1.062c.522.522 1.26.754 1.982.641l1.065 1.045a1.665 1.665 0 0 0 .343 1.859l3.538 3.45c.305.306.679.474 1.052.474h.005c.347 0 .669-.143.931-.409a.5.5 0 0 0-.713-.701c-.112.114-.214.11-.223.11-.104 0-.229-.065-.35-.186L5.81 7.809a.654.654 0 0 1-.031-.893.5.5 0 0 0-.026-.688L4.206 4.712a.5.5 0 0 0-.492-.123 1.3 1.3 0 0 1-1.288-.32L1.365 3.207A1.297 1.297 0 0 1 2.282.999c.345 0 .667.133.905.373l1.054 1.075c.343.339.46.864.298 1.337a.5.5 0 0 0 .123.519l1.52 1.489a.5.5 0 0 0 .706-.007.64.64 0 0 1 .453-.19h.002c.174 0 .338.068.468.198l.1.098-.989 1.01a.6.6 0 0 0-.187.435c0 .134.088.344.183.438l2.291 2.294a.6.6 0 0 0 .435.183h.004c.132 0 .339-.09.432-.184l.311-.312a.5.5 0 1 0-.709-.705l-.038.038-1.748-1.751.732-.748 2.723 2.655c.236.236.151.478.134.52q-.239.358 3.435 4.104a.24.24 0 0 1 .073.173.26.26 0 0 1-.078.186l-.698.701a.25.25 0 0 1-.173.072h0a.25.25 0 0 1-.176-.069l-2.189-2.277a.5.5 0 0 0-.721.693l2.196 2.284c.238.238.554.369.89.369h.006a1.24 1.24 0 0 0 .88-.369l.694-.697a1.253 1.253 0 0 0 .004-1.772 570 570 0 0 1-3.154-3.237ZM10.58 4.666c.421 0 .764.343.764.764a.5.5 0 0 0 1 0c0-.973-.791-1.764-1.764-1.764a.5.5 0 0 0 0 1Z"/><path d="M1.536 2.409a.805.805 0 1 0 1.61.001.805.805 0 0 0-1.61-.001Z"/></svg>