<!-- SPDX-FileCopyrightText: © 2025 Schneider Electric SPDX-License-Identifier: LicenseRef-Proprietary -->
<svg xmlns="http://www.w3.org/2000/svg" viewBox="0 0 16 16"><path d="M5.748 7.606q-.301.102-.637.102c-.784 0-1.321-.409-1.368-.788a.5.5 0 0 0-.673-.405 2 2 0 0 1-.697.124C1.642 6.639 1 6.242 1 5.789s.638-.846 1.408-.846h.006a.496.496 0 0 0 .502-.604.5.5 0 0 1-.014-.112c0-.452.641-.849 1.372-.849.385 0 .745.103 1.014.289a.5.5 0 0 0 .439.064c.852-.277 1.992.148 1.983.822a.5.5 0 0 0 .464.584c.689.04 1.25.419 1.25.845 0 .452-.642.849-1.373.849a2 2 0 0 1-.63-.1.5.5 0 0 0-.321.947c.3.102.62.153.951.153 1.331 0 2.373-.812 2.373-1.849 0-.854-.719-1.567-1.734-1.782-.17-.897-1.14-1.565-2.346-1.565q-.358 0-.696.08a2.9 2.9 0 0 0-1.374-.337c-1.219 0-2.197.683-2.351 1.595C.815 4.132 0 4.873 0 5.79c0 1.038 1.042 1.85 2.373 1.85q.284 0 .555-.05c.362.666 1.206 1.12 2.184 1.12q.5 0 .958-.155a.5.5 0 1 0-.321-.947Z"/><path d="M15.379 6.716c.449-.873.446-1.767-.01-2.661-.642-1.259-1.571-1.298-2.017-1.316l-.044-.001-.012-.017c-.3-.404-1.001-1.35-2.81-1.35-.77 0-1.454.185-2.033.55a.499.499 0 1 0 .533.845c.423-.267.913-.396 1.5-.396 1.305 0 1.761.615 2.007.946.076.103.143.192.233.264.181.141.386.149.585.158.371.016.792.033 1.168.772.493.966.078 1.652-.079 1.911l-.06.104c-.174.347.082.626.22.776.297.323.704.766.212 1.682-.542 1.01-2.122.813-2.139.813a.5.5 0 0 0-.312.059c-.071.04-.698.42-.934 1.521-.119.549-.169 2.836 1.002 3.228a.501.501 0 0 0 .317-.95c-.261-.088-.481-1.421-.341-2.068.093-.433.259-.669.36-.779.603.029 2.209-.014 2.927-1.352.764-1.422.09-2.33-.273-2.739Z"/><path d="M12.033 9.415c.331-.41.673-.835 1.426-.835a.5.5 0 0 0 0-1c-1.231 0-1.841.756-2.205 1.208-.064.079-.145.18-.194.236-.277-.1-.88-.409-1.19-.568-.688-.352-.943-.483-1.213-.144a.52.52 0 0 0 .016.647c.109.129.451.771.664 1.29a3 3 0 0 1-.349-.046c-1.136-.213-1.431-.724-1.562-1.146a.499.499 0 1 0-.955.297c.309.996 1.072 1.596 2.333 1.831.284.053.545.079.797.069.237 1.541-.417 2.117-.822 2.473l-.03.026a.483.483 0 0 0-.029.692.5.5 0 0 0 .37.163.53.53 0 0 0 .35-.131c.486-.428 1.622-1.427 1.053-3.87-.038-.226-.148-.541-.287-.867.632.301.863.35 1.083.288.32-.089.526-.344.743-.614Z"/></svg>