<!-- SPDX-FileCopyrightText: © 2025 Schneider Electric SPDX-License-Identifier: LicenseRef-Proprietary -->
<svg xmlns="http://www.w3.org/2000/svg" viewBox="0 0 16 16"><path d="M12.975 12H3.024c-.565 0-1.025.46-1.025 1.024v1.95c0 .565.46 1.025 1.025 1.025H6.5a.5.5 0 0 0 0-1l-3.501-.025.025-1.975 9.976.025-.024 1.975H9.537a.5.5 0 0 0 0 1h3.439c.564 0 1.024-.46 1.024-1.024v-1.95C14 12.46 13.54 12 12.975 12Zm.925-4.353L9.386.889C8.698-.242 7.291-.224 6.625.871L2.089 7.665c-.341.559-.39 1.139-.136 1.593.265.472.822.742 1.529.742H6.5a.5.5 0 0 0 0-1H3.482c-.325 0-.576-.089-.657-.232-.071-.127-.027-.345.106-.565l4.537-6.794c.318-.521.735-.539 1.075.018l4.515 6.758c.145.238.188.456.117.583-.081.144-.333.232-.657.232H9.5a.5.5 0 0 0 0 1h3.018c.706 0 1.264-.271 1.528-.742.255-.453.206-1.034-.146-1.61Z"/></svg>