<!-- SPDX-FileCopyrightText: © 2025 Schneider Electric SPDX-License-Identifier: LicenseRef-Proprietary -->
<svg xmlns="http://www.w3.org/2000/svg" viewBox="0 0 16 16"><path d="m12.267 14.292-.894.28L7.66 7.04l4.152-1.075.46.957a.5.5 0 0 0 .667.234.5.5 0 0 0 .233-.667l-.638-1.327a.5.5 0 0 0-.575-.267L6.814 6.227a.5.5 0 0 0-.323.705l4.174 8.466a.5.5 0 0 0 .597.257l1.302-.407a.5.5 0 0 0-.299-.955Z"/><path d="M15.701 14.224c-1.804-.792-1.594-2.418-1.584-2.483a.5.5 0 0 0-.181-.467l-1.449-1.167a1 1 0 0 0-.089-.058c-.468-.234-.743-.496-.776-.738-.019-.143.04-.285.11-.399l2.887 1.262.71.259a.5.5 0 0 0 .671-.47l-.006-8.562c0-.435-.193-.837-.531-1.104a1.35 1.35 0 0 0-1.158-.258L3.065 2.697c-.435.103-.778.4-.948.787l-1.745.46a.5.5 0 0 0-.373.484l.008 7.9c0 .144.062.28.17.375l1.821 1.595v.42a.5.5 0 0 0 .103.304c.495.647 1.006.976 1.539.976q.132 0 .267-.026l3.835-.993a.5.5 0 1 0-.25-.968l-3.809.987c-.169.032-.414-.131-.685-.453v-.472a.5.5 0 0 0-.17-.376l-1.821-1.595-.008-7.288 1-.264v5.952a.5.5 0 0 0 1 0V4.045c0-.178.122-.332.295-.373L14.535 1.01a.36.36 0 0 1 .308.069.4.4 0 0 1 .151.32l.005 7.848-3.209-1.403a.5.5 0 0 0-.529.082c-.076.066-.737.672-.631 1.507.075.588.503 1.088 1.271 1.484l1.202.968c-.025.92.394 2.462 2.196 3.254a.501.501 0 0 0 .402-.916Z"/></svg>