<!-- SPDX-FileCopyrightText: © 2025 Schneider Electric SPDX-License-Identifier: LicenseRef-Proprietary -->
<svg xmlns="http://www.w3.org/2000/svg" viewBox="0 0 16 16"><path d="M15.5 14h-4.499V9.155c.613.28 1.43.126 1.903-.346q.102.102.222.187c.46.324 1.038.399 1.586.205.691-.246 1.139-.978 1.09-1.779-.128-2.107-2.457-3.758-5.301-3.758-2.806 0-5.133 1.626-5.299 3.702-.074.93.542 1.772 1.402 1.916a1.7 1.7 0 0 0 1.492-.473c.204.203.459.356.749.437a.5.5 0 0 0 .266-.964.704.704 0 0 1-.515-.677.5.5 0 0 0-1 0 .7.7 0 0 1-.249.537.7.7 0 0 1-.577.154c-.347-.058-.604-.44-.571-.851.124-1.56 2.014-2.781 4.302-2.781s4.208 1.264 4.303 2.818c.019.304-.123.667-.427.776a.72.72 0 0 1-.674-.079.7.7 0 0 1-.298-.574.5.5 0 0 0-1 0 .703.703 0 0 1-1.404.001h0a.5.5 0 1 0-1-.001v6.394H4V2.892a.5.5 0 0 0-.186-.389L.848.111A.5.5 0 1 0 .22.889L3 3.131V14.5a.5.5 0 0 0 .5.5H15v.5a.5.5 0 0 0 1 0v-1a.5.5 0 0 0-.5-.5Z"/></svg>