<!-- SPDX-FileCopyrightText: © 2024 Schneider Electric SPDX-License-Identifier: LicenseRef-Proprietary -->
<svg xmlns="http://www.w3.org/2000/svg" viewBox="0 0 20 20"><path fill="none" stroke="currentColor" stroke-linecap="round" stroke-linejoin="round" d="M12.18 16.12 5.44 8.83c-.52-.05-.92.14-1.32.54s-.57.96-.5 1.49a2 2 0 0 0-1.61.62 2 2 0 0 0-.62 1.64c-1.6-1.55-.98-4.74 1.38-7.1s5.55-2.99 7.13-1.4a2.2 2.2 0 0 0-1.68.65 2.1 2.1 0 0 0-.64 1.63m-.77.06q.38-.11.77-.06c-.04-.57.18-1.17.64-1.63a2.2 2.2 0 0 1 1.68-.66c-1.58-1.58-4.77-.95-7.13 1.41s-2.98 5.54-1.38 7.1a2.1 2.1 0 0 1 .62-1.64 2 2 0 0 1 1.6-.62c-.06-.53.1-1.09.51-1.5.4-.39.8-.58 1.32-.53M2.5 16.26h17" clip-rule="evenodd"/></svg>