<!-- SPDX-FileCopyrightText: © 2025 Schneider Electric SPDX-License-Identifier: LicenseRef-Proprietary -->
<svg xmlns="http://www.w3.org/2000/svg" viewBox="0 0 16 16"><path d="M15.567 8.226c-1.198-3.433-4.245-5.74-7.581-5.74-1.441 0-2.861.698-3.799 1.283a.5.5 0 0 0 .529.849c.827-.516 2.066-1.131 3.27-1.131 2.956 0 5.562 1.99 6.636 5.064.003.01.189.577.299 1.452-1.336-2.303-3.509-3.734-5.89-3.734-2.683 0-3.681 1.59-3.722 1.658a.5.5 0 0 0 .074.613l1.46 1.461H1V4.174l1.476 1.529a.5.5 0 1 0 .72-.694L.86 2.588a.5.5 0 0 0-.86.347v7.564a.5.5 0 0 0 .5.5h7.549a.501.501 0 0 0 .354-.854L6.416 8.156c.37-.351 1.173-.89 2.616-.89 2.66 0 5.033 2.157 5.905 5.367a.5.5 0 0 0 .482.369h.033a.5.5 0 0 0 .463-.434c.31-2.36-.318-4.259-.348-4.344Z"/></svg>