<!-- SPDX-FileCopyrightText: © Copyright UnionPay International All rights reserved SPDX-License-Identifier: LicenseRef-Proprietary -->
<svg xmlns="http://www.w3.org/2000/svg" version="1.1" viewBox="0 0 114.153 71.408"><path fill="#ed171f" d="M22.357 0c-3.987 0-7.963 3.243-8.889 7.236L.195 64.184c-.928 3.981 1.545 7.224 5.523 7.224h26.124c-3.983 0-6.45-3.243-5.514-7.224l8.402-36.088a1 1 0 0 0-.252-.03c-.35 0-.71.17-1.076.337-.203.722-.613 2.747-.8 3.673-.418 1.947-.444 2.167-.63 3.131l-.119.127c-1.478-.02-1.99-.02-3.69.065l-.08-.141c.286-1.157.569-2.324.84-3.478.713-3.135.88-4.337 1.079-5.93l.132-.094c1.658-.232 2.06-.279 3.854-.648l.15.17-.27.998c.304-.179.59-.36.903-.52.183-.09.37-.16.557-.224l4.26-18.295C40.525 3.243 44.5 0 48.478 0zM15.61 18.194c.047.06.765.096 4.805.06l-.031.123c-.372 1.095-2.446 9.412-2.446 9.412-.005.01-.4 2.485-.4 2.485l.023.42c.13 1.225.892 1.869 2.188 1.869q1.207.002 2.101-.733c1.054-.844 1.358-2.165 1.786-4.01.008-.004 1.981-9.13 2.093-9.626.279.06 1.14.092 4.067.06a.5.5 0 0 0-.032.123c-.365 1.124-2.505 9.76-2.505 9.76l-.237.928c-.516 1.808-1.098 3.853-3.304 5.16-1.272.773-3.151 1.201-5.16 1.201-1.555 0-4.311-.25-5.278-1.941-.3-.532-.451-1.163-.451-1.93l.346-2.598.185-.8 2.12-9.366s.108-.516.13-.597z"/><path fill="#082f67" d="M48.478 0c-3.977 0-7.953 3.243-8.89 7.236l-4.26 18.295a5.7 5.7 0 0 1 1.748-.314c.783 0 1.642.219 2.002 1.127.341.81.116 1.81-.332 3.775l-.233.998c-.46 2.188-.533 2.589-.79 4.09l-.169.127a43 43 0 0 0-3.613.065l-.066-.123c.148-.638.308-1.266.449-1.913l.205-.87c.31-1.36.614-2.939.65-3.415.026-.256.1-.846-.449-.982l-8.402 36.088c-.936 3.981 1.53 7.224 5.514 7.224h31.47c-3.986 0-6.456-3.243-5.521-7.224l1.75-7.516h-.487c-.776 0-1.34-.016-1.738-.047-.376-.029-.77.001-1.03-.203-.23-.2-.576-.462-.568-.732.026-.25.128-.667.29-1.235l4.443-14.74h3.039l1.02-4.385c-.566.006-1.152.025-2.09.073l-.059-.123c.143-.638.304-1.266.453-1.913l.203-.87c.312-1.36.614-2.939.649-3.415.028-.29.123-1.011-.696-1.011-.354 0-.712.169-1.08.336-.2.722-.61 2.747-.808 3.673-.41 1.947-.438 2.167-.623 3.131l-.123.127a44 44 0 0 0-3.68.065l-.076-.14c.282-1.158.56-2.325.832-3.48.71-3.134.879-4.336 1.076-5.93l.133-.093c1.657-.232 2.06-.279 3.853-.648l.143.17-.26.998c.295-.179.593-.36.899-.52.84-.416 1.79-.539 2.298-.539.425 0 .868.07 1.246.272l4.25-18.252C71.984 3.243 75.96 0 79.95 0zm3.96 25.278c1.369 0 2.682.307 3.433 1.26.492.63.877 1.66.375 3.865-.152.66-.594 2.272-1.574 3.359-1.256 1.336-2.933 1.789-4.569 1.789-.642 0-1.629-.084-2.322-.375-2.233-.903-1.878-3.336-1.57-4.682.308-1.321.822-2.706 1.916-3.72 1.532-1.414 3.49-1.496 4.31-1.496zm-7.243 1.998.035.076.024.08c-.166.679-.333 1.356-.495 2.047-.158.686-.327 1.36-.476 2.045-.325 1.444-.452 1.981-.53 2.367-.07.368-.094.567-.222 1.316l-.078.069-.08.058c-.862-.004-1.415-.02-1.96-.004-.538.004-1.065.031-1.866.069l-.047-.069-.055-.072c.219-.83.343-1.12.45-1.414.109-.292.216-.588.405-1.43.251-1.096.405-1.864.516-2.535.115-.652.18-1.204.262-1.846l.066-.05.073-.061a158 158 0 0 0 1.959-.287c.562-.081 1.13-.191 2.019-.36zm6.738.25c-1.134 0-1.58 1.4-1.957 3.07-.129.573-.236 1.111-.228 1.629.013 1.05.72 1.05.834 1.05.402 0 .767-.259 1.074-.69.444-.589.765-1.973.844-2.343.385-1.674.327-2.716-.567-2.716zm.139 12.16h3.705l-.65 1.238h3.724l-.681 2.266h-5.088l-.553.476c-.235.23-.317.134-.625.301-.287.147-.895.434-1.678.434h-1.633l.665-2.182h.49c.414 0 .695-.033.838-.125.162-.101.343-.333.552-.71zm10.488 4.013-.285.952.078-.065zm-13.547 1.118h9.08l-.671 2.168H53.79l-.565 1.845h3.715l-.678 2.239H52.55l-.899 3.003c-.11.334.877.38 1.234.38l1.862-.257-.746 2.475h-4.19c-.33 0-.586-.048-.95-.13-.354-.089-.511-.245-.667-.485-.152-.247-.384-.446-.227-.969l1.202-3.978h-2.06l.683-2.278h2.074l.549-1.845H48.35zm12.973.78-.318 1.052h.205l.246-1.051zm-.89 3.11-1.397 4.612c-.132.454-.196.67-.11.792a.57.57 0 0 0 .473.237l.02-.002 1.312-5.639z"/><path fill="#006a65" d="M79.949 0c-3.988 0-7.965 3.243-8.898 7.236L66.8 25.488c.321.172.597.439.767.856.337.81.11 1.81-.342 3.775l-.226.998c-.47 2.188-.541 2.589-.79 4.09l-.177.127a64 64 0 0 0-1.524-.008l-1.019 4.385h.135l-.463 1.596s1-.799 1.703-1.084c.699-.263 2.281-.496 2.281-.496l5.135-.028-1.75 5.826c-.293 1-.637 1.645-.852 1.938a2.2 2.2 0 0 1-.87.797c-.433.23-.826.365-1.188.402-.34.025-.862.038-1.584.045h-4.643l-1.312 5.639 2.16-.203-.742 2.525h-1.96l-1.75 7.516c-.934 3.98 1.536 7.224 5.522 7.224H91.79c3.992 0 7.97-3.243 8.902-7.224l13.264-56.948C114.889 3.243 112.415 0 108.435 0Zm-7.537 18.153c.51.06 1.75.075 4.847.04l1.192-.017c2.427.016 4.516.037 5.566 1.512.419.554.565 1.262.565 1.976 0 .544-.08 1.094-.196 1.553-.425 1.865-1.391 3.402-2.793 4.443-2.06 1.522-4.7 1.522-7.029 1.522h-.246c-.172.092-.338.322-.338.322-.032.083-.572 2.326-.572 2.326s-.633 3.055-.738 3.569c-.463-.047-1.571-.047-4.274-.018.127-.513 2.778-11.451 2.778-11.451l1.107-5.149s.077-.402.13-.629zm3.55 2.53-.02.204-.036.262c.005-.016-1.178 5.119-1.178 5.119l-.047.254h.639c.992 0 1.95-.028 2.738-.424.954-.466 1.69-1.43 1.944-2.567.276-1.25-.115-2.216-1.076-2.582-.062-.007-2.493-.216-2.493-.216zm17.54 4.694.056.147a348 348 0 0 0-.968 4.062c-.66 2.844-.9 4.288-1.153 5.774l-.158.123c-1.728-.016-2.225-.016-3.822.052l-.108-.129.16-.601c-.584.49-1.214.83-1.894.867a4.5 4.5 0 0 1-1.986-.357c-2.222-.872-1.866-3.3-1.557-4.627.305-1.32.823-2.687 1.91-3.698 1.248-1.14 2.67-1.61 3.568-1.586.208.006.388.038.532.094.598.23.986.599 1.254 1.031l.054-.4.131-.107c1.715-.247 2.191-.314 3.98-.645zm-5.711 2.365c-1.135 0-1.58 1.394-1.957 3.028-.134.578-.242 1.117-.237 1.629.026 1.04.729 1.04.842 1.04.4 0 1.097-.26 1.39-.675.163-.211.31-.532.434-.871q.179-.714.346-1.432c.079-.339.144-.638.205-.922.077-1.13-.303-1.797-1.023-1.797zM75.984 39.694h3.371l-.351 1.19s.898-.647 1.75-.868c.745-.196 4.4-.279 5.347-.297v-.008H89.7l.039 1.342c-.021.225.174.332.59.332h.73l-.668 2.213H88.45c-1.685.124-2.32-.6-2.283-1.412l-.035-1.317-.366 1.182h-1.154l-3.473 11.49h.934l-.72 2.375h-.934l-.217.738h-3.305l.225-.738h-6.717l.676-2.199h.678l3.523-11.666zm2.688 2.357-.893 2.935s.997-.448 1.545-.6c.552-.142 1.383-.198 1.383-.198l.644-2.137zm-15.64.072L62.56 43.7l-.207.887c.19-.16 1.12-.897 2.676-1.166.396-.077 2.871-.05 2.871-.05l.375-1.247zm21.974 2.096h10.773l-.676 2.223h-3.611l-.566 1.798h3.62l-.595 1.973h-3.92l-.693.832h1.588l.386 2.484c.042.244.05.406.127.512.08.092.556.135.832.135h.483l-.735 2.416h-1.222c-.19 0-.47-.015-.852-.035-.37-.032-.634-.248-.879-.365a1.18 1.18 0 0 1-.637-.846l-.384-2.479-1.778 2.446c-.566.768-1.332 1.355-2.623 1.355h-2.5l.657-2.156h.953c.276 0 .518-.108.697-.201a1.08 1.08 0 0 0 .53-.442l2.593-3.656h-3.43l.588-1.973h3.92l.56-1.798h-3.87zm-22.887 1.379-.246 1.05h4.297c.532-.066.64.01.683-.015l.334-1.035zm15.219.85-.924 3.052s1.02-.523 1.568-.685c.552-.128 1.387-.233 1.387-.233l.654-2.135zm-10.059 2.667h2.422l-.29 1.4c-.129.435-.237.77-.568 1.05-.342.292-.753.601-1.707.601l-1.757.07-.014 1.584c-.024.451.096.404.168.477a.6.6 0 0 0 .234.137l.553-.026 1.684-.097-.694 2.312h-1.93c-1.354 0-2.355-.029-2.686-.293-.323-.204-.367-.467-.357-.908l.123-6.166h3.078l-.04 1.26h.743c.253 0 .42-.027.53-.092a.65.65 0 0 0 .208-.326zm8.684 1.877-.776 2.582h2.688l.775-2.582z"/><path fill="#ffffff" d="M72.412 18.153c-.053.226-.131.628-.131.628l-1.107 5.149s-2.651 10.938-2.778 11.451c2.703-.03 3.811-.03 4.274.018.105-.514.738-3.569.738-3.569s.54-2.243.572-2.326c0 0 .166-.23.338-.322h.246c2.33 0 4.968 0 7.03-1.522 1.4-1.041 2.367-2.578 2.792-4.443a6.6 6.6 0 0 0 .196-1.553c0-.714-.146-1.422-.565-1.976-1.05-1.475-3.14-1.496-5.566-1.512l-1.192.018c-3.097.034-4.338.02-4.847-.041zm-56.803.04c-.023.082-.13.598-.13.598l-2.12 9.365-.185.801-.346 2.598c0 .767.151 1.398.451 1.93.967 1.69 3.723 1.94 5.277 1.94 2.01 0 3.889-.427 5.16-1.2 2.207-1.307 2.79-3.352 3.305-5.16l.237-.928s2.14-8.636 2.505-9.76a.5.5 0 0 1 .032-.123c-2.927.032-3.788 0-4.067-.06-.112.495-2.086 9.621-2.094 9.626-.428 1.844-.731 3.166-1.785 4.01q-.894.734-2.101.733c-1.296 0-2.058-.644-2.188-1.87l-.023-.42s.395-2.474.4-2.484c0 0 2.074-8.317 2.446-9.412.016-.061.023-.09.03-.123-4.04.036-4.757 0-4.804-.06zm60.354 2.49.47.05 2.493.216c.96.366 1.352 1.332 1.076 2.582-.254 1.136-.99 2.101-1.944 2.567-.788.396-1.746.424-2.738.424h-.639l.047-.254s1.183-5.135 1.178-5.12l.035-.261zM44 24.222a3.6 3.6 0 0 0-1.961.613c-.962.65-1.067 1.564-.266 2.041.803.465 2.22.33 3.176-.332.944-.66 1.066-1.571.266-2.045-.33-.193-.759-.283-1.215-.277zm-10.012.887c-1.793.369-2.196.416-3.854.648l-.132.094c-.199 1.593-.366 2.795-1.078 5.93a346 346 0 0 1-.84 3.478l.08.14c1.7-.085 2.21-.084 3.69-.064l.118-.127c.186-.964.212-1.184.63-3.13.187-.927.597-2.952.8-3.675.365-.166.727-.336 1.076-.336.826 0 .73.722.701 1.012-.036.476-.34 2.056-.65 3.414l-.205.871c-.141.647-.301 1.275-.45 1.912l.067.123a43 43 0 0 1 3.613-.064l.168-.127c.258-1.501.331-1.902.791-4.09l.233-.998c.448-1.965.673-2.966.332-3.775-.36-.908-1.22-1.127-2.002-1.127-.519 0-1.46.123-2.305.539-.313.16-.6.34-.902.52l.27-.998zm28.486 0c-1.793.369-2.196.416-3.853.648l-.133.094c-.197 1.593-.366 2.795-1.076 5.93-.272 1.154-.55 2.32-.832 3.478l.076.14a44 44 0 0 1 3.68-.064l.123-.127c.185-.964.213-1.184.623-3.13.197-.927.608-2.952.808-3.675.368-.166.726-.336 1.08-.336.82 0 .724.722.696 1.012-.035.476-.337 2.056-.649 3.414l-.203.871c-.15.647-.31 1.275-.453 1.912l.059.123a43 43 0 0 1 3.613-.064l.178-.127c.248-1.501.32-1.902.789-4.09l.226-.998c.452-1.965.68-2.966.342-3.775-.37-.908-1.228-1.127-2.014-1.127-.508 0-1.458.123-2.298.539-.306.16-.604.34-.899.52l.26-.999zm36.395.1c-1.848.353-1.899.413-3.61.628l-.136.117c-.012.063-.016.125-.026.192l.014.025c.213 1.097.163.851.375 2.572.1.846.232 1.7.332 2.534.17 1.4.264 2.092.467 4.222-1.15 1.912-1.43 2.635-2.53 4.313l.003.002-.786 1.25c-.09.128-.171.215-.28.25-.129.062-.296.076-.524.076h-.43l-.644 2.148 2.216.037c1.299-.004 2.117-.616 2.557-1.43l1.39-2.382h-.025l.15-.168c.935-2.015 8.055-14.234 8.055-14.234l-.136-.153c-1.766.354-2.089.414-3.715.63l-.123.116-.014.078-.008-.025c-1.21 2.799-1.172 2.193-2.16 4.39a6 6 0 0 1-.012-.273l-.244-4.763zm-46.432.07c-.82 0-2.778.082-4.31 1.496-1.094 1.014-1.608 2.399-1.916 3.72-.308 1.346-.663 3.78 1.57 4.682.693.29 1.68.375 2.322.375 1.636 0 3.313-.453 4.569-1.79.98-1.086 1.422-2.699 1.574-3.359.502-2.204.117-3.234-.375-3.865-.75-.952-2.064-1.26-3.434-1.26zm41.065.1c-1.79.33-2.266.397-3.98.644l-.132.107-.054.398a2.46 2.46 0 0 0-1.254-1.029 1.6 1.6 0 0 0-.532-.094c-.899-.024-2.32.446-3.568 1.586-1.087 1.011-1.605 2.378-1.91 3.698-.31 1.326-.665 3.755 1.557 4.627a4.5 4.5 0 0 0 1.986.357c.68-.037 1.31-.375 1.894-.865l-.16.6.108.128c1.597-.068 2.094-.068 3.822-.052l.158-.123c.254-1.486.493-2.93 1.153-5.774.312-1.357.64-2.71.968-4.062zm-48.307 1.897c-.89.169-1.457.279-2.02.36-.554.085-1.101.166-1.958.287l-.073.06-.066.051c-.081.642-.147 1.194-.262 1.846-.11.67-.265 1.44-.516 2.535-.189.841-.296 1.138-.406 1.43-.106.294-.23.585-.449 1.414l.055.072.047.069c.8-.038 1.328-.065 1.867-.069.544-.016 1.097 0 1.959.004l.08-.058.078-.069c.128-.75.152-.948.223-1.316.077-.386.204-.923.529-2.367.15-.684.318-1.359.476-2.045.162-.691.33-1.369.495-2.047l-.024-.08zm6.738.25c.894 0 .952 1.043.567 2.717-.079.37-.4 1.754-.844 2.342-.307.432-.672.691-1.074.691-.114 0-.82 0-.834-1.05-.008-.518.099-1.056.228-1.63.378-1.669.823-3.07 1.957-3.07zm35.858.217c.85 0 1.236.918.943 2.446q.061-.344.08-.649c-.061.284-.126.583-.205.922q-.167.718-.346 1.432c-.124.34-.271.66-.433.87-.294.415-.99.677-1.39.677-.114 0-.817 0-.843-1.041-.005-.512.103-1.05.237-1.63.377-1.633.822-3.027 1.957-3.027zm.832 2.942c-.022.089-.042.162-.073.277.027-.1.053-.197.073-.277zm3.351.074q.02.01.035.01a.06.06 0 0 1-.035-.01zm-1.584.582q-.087.11-.175.228.089-.118.175-.228zm-38.318 8.346-.934 1.699c-.209.376-.39.608-.552.709-.143.092-.424.125-.838.125h-.49l-.665 2.181h1.633c.783 0 1.391-.286 1.678-.433.308-.167.39-.07.625-.3l.553-.477h5.088l.681-2.266h-3.724l.65-1.238zm23.912.008-.703 2.357-3.523 11.666h-.678l-.676 2.2h6.717l-.225.738h3.305l.217-.739h.933l.721-2.375h-.934l3.473-11.49h1.154l.366-1.182.035 1.317c-.038.812.598 1.536 2.283 1.412h1.941l.668-2.213h-.73c-.416 0-.611-.107-.59-.332l-.04-1.342h-3.597v.008c-.946.019-4.602.101-5.347.297-.852.221-1.75.87-1.75.87l.351-1.192zm-3.703.006-5.135.027s-1.582.233-2.281.496c-.703.285-1.703 1.084-1.703 1.084l.463-1.596H60.45l-4.443 14.74c-.162.569-.264.984-.29 1.235-.008.27.338.532.569.732.26.204.653.174 1.03.204.396.03.961.046 1.737.046H61.5l.742-2.525-2.18.205a.57.57 0 0 1-.472-.236c-.087-.123-.023-.338.109-.793l1.396-4.611h4.942c.722-.007 1.244-.02 1.584-.045.362-.038.755-.172 1.187-.403a2.2 2.2 0 0 0 .871-.797c.215-.293.559-.937.852-1.937zm6.39 2.351h2.68l-.644 2.137s-.831.057-1.383.2c-.548.15-1.545.599-1.545.599zm-15.638.073h5.242L67.9 43.37s-2.475-.027-2.871.05c-1.74.302-2.754 1.23-2.754 1.23zm21.973 2.095-.664 2.223h3.87l-.56 1.799h-3.92l-.588 1.972h3.43L83.98 53.87a1.07 1.07 0 0 1-.53.441c-.178.093-.42.201-.696.201H81.8l-.657 2.156h2.5c1.29 0 2.057-.587 2.623-1.355l1.778-2.445.384 2.478c.078.463.413.734.637.846.245.117.508.333.879.365.383.02.662.035.852.035h1.222l.735-2.416h-.483c-.276 0-.752-.043-.832-.134-.077-.107-.085-.268-.127-.512l-.386-2.485h-1.588l.693-.832h3.92l.596-1.972h-3.621l.566-1.8h3.611l.676-2.222zm-35.993.598-.662 2.168h2.065l-.55 1.846h-2.073l-.684 2.277h2.06l-1.2 3.978c-.158.523.074.722.226.97.156.24.313.396.666.484.365.082.622.13.951.13h4.19l.746-2.474-1.862.256c-.357 0-1.345-.046-1.234-.38l.899-3.003h3.712l.678-2.238h-3.715l.565-1.846h3.63l.672-2.168zm12.973.781h5.201l-.334 1.035c-.042.026-.151-.05-.683.016h-4.502zm15.352.85h2.685l-.654 2.134s-.835.105-1.387.233c-.548.163-1.568.685-1.568.685zm-10.059 2.668-.3.982a.65.65 0 0 1-.21.326c-.11.066-.276.092-.529.092h-.742l.039-1.26h-3.078l-.123 6.166c-.01.442.034.705.357.909.33.264 1.332.293 2.686.293h1.931l.694-2.313-1.684.098-.553.025a.6.6 0 0 1-.234-.137c-.072-.073-.192-.026-.168-.476l.014-1.584 1.758-.07c.953 0 1.364-.31 1.707-.602.33-.28.439-.614.568-1.049l.289-1.4zm8.684 1.877h2.687l-.775 2.582h-2.688z"/></svg>