<!-- SPDX-FileCopyrightText: © 2025 Schneider Electric SPDX-License-Identifier: LicenseRef-Proprietary -->
<svg xmlns="http://www.w3.org/2000/svg" viewBox="0 0 16 16"><path d="M13.5 4.913h-3a.5.5 0 0 0-.5.5v1a.5.5 0 0 0 1 0v-.5h2v2.043l-1.502.007-.074.007c-.515.004-1.869.295-2.823 1.994-.267.477-.478.605-.56.606q-.02.005-.042-.007V3.5a.5.5 0 0 0-.5-.5h-.868l.988-1.567 1.388 2.233a.5.5 0 0 0 .849-.527L8.048.227a.48.48 0 0 0-.425-.236.5.5 0 0 0-.423.233L5.302 3.233a.5.5 0 0 0 .423.766h1.274v6.113c-.056-.049-.099-.082-.12-.099-.271-.186-.596-.308-.94-.437-.776-.291-1.577-.591-1.94-1.649v-.282a.5.5 0 0 0-.345-.476.795.795 0 1 1 .885-.281.5.5 0 0 0 .804.594A1.797 1.797 0 0 0 3.899 4.62c-.99 0-1.795.805-1.795 1.794 0 .651.348 1.237.895 1.553v.04q0 .077.023.15c.497 1.581 1.693 2.029 2.566 2.356.286.106.555.208.7.306.232.183.711.682.711 1.058v.403A1.977 1.977 0 0 0 7.942 16a1.96 1.96 0 0 0 1.098-.336 1.98 1.98 0 0 0 .766-2.293.5.5 0 1 0-.944.33.96.96 0 0 1 .035.51.97.97 0 0 1-.414.623.96.96 0 0 1-.734.147.97.97 0 0 1-.623-.415.97.97 0 0 1-.148-.733.97.97 0 0 1 .668-.745.5.5 0 0 0 .35-.523l.003-.059v-.937h.048c.532-.004 1.012-.379 1.426-1.116.827-1.474 1.951-1.488 1.969-1.488v-.006a.4.4 0 0 0 .078.002l1.981-.009a.5.5 0 0 0 .498-.5V5.41a.5.5 0 0 0-.5-.5Z"/></svg>