<!-- SPDX-FileCopyrightText: © 2024 Schneider Electric SPDX-License-Identifier: LicenseRef-Proprietary -->
<svg xmlns="http://www.w3.org/2000/svg" viewBox="0 0 20 20"><path d="M14.3 20q-.75 0-1.46-.18a.5.5 0 0 1-.37-.52l.06-.95a5 5 0 0 1-1.08-.64l-.68.57a.5.5 0 0 1-.67-.04 6 6 0 0 1-1.47-2.5.5.5 0 0 1 .26-.59l2.84-1.38a2.6 2.6 0 1 1 .84 2.26.5.5 0 0 1 .67-.75 1.59 1.59 0 1 0-.53-1.18q-.01.3-.28.45l-2.7 1.31q.27.73.77 1.34l.64-.53a.5.5 0 0 1 .67.03 4 4 0 0 0 1.4.83.5.5 0 0 1 .34.5l-.06.9q.8.14 1.6 0l-.15-.8a.5.5 0 0 1 .35-.57 4 4 0 0 0 1.45-.82.5.5 0 0 1 .6-.06l.79.48q.46-.59.73-1.28l-.77-.28a.5.5 0 0 1-.3-.6 3.6 3.6 0 0 0 .01-1.72.5.5 0 0 1 .29-.57l.8-.35a5 5 0 0 0-.75-1.3l-.69.5a.5.5 0 0 1-.64-.04 3.6 3.6 0 0 0-1.47-.87.5.5 0 0 1-.36-.51l.06-.89a5 5 0 0 0-1.52 0l.1.86a.5.5 0 0 1-.36.54 4 4 0 0 0-1.42.82.5.5 0 0 1-.6.06l-.78-.48q-.48.6-.75 1.31l.8.3a.5.5 0 0 1-.36.93l-1.24-.46a.5.5 0 0 1-.3-.6c.25-.92.73-1.78 1.39-2.48a.5.5 0 0 1 .63-.08l.82.51a5 5 0 0 1 1.13-.65l-.1-.91a.5.5 0 0 1 .37-.54c.92-.24 1.9-.24 2.83-.02.24.06.4.27.38.52l-.05.94a5 5 0 0 1 1.18.7l.72-.54a.5.5 0 0 1 .66.05 6 6 0 0 1 1.41 2.48.5.5 0 0 1-.28.59l-.84.37a5 5 0 0 1-.02 1.34l.83.3a.5.5 0 0 1 .3.6 6 6 0 0 1-1.38 2.44.5.5 0 0 1-.63.08l-.83-.5a5 5 0 0 1-1.12.64l.17.85a.5.5 0 0 1-.37.59q-.74.19-1.51.19zm-6.92-4.92H.5a.5.5 0 0 1-.5-.5V12.9a6.7 6.7 0 0 1 4.19-6.23 4 4 0 0 1-1.16-2.82C3.03 1.77 4.73 0 6.73 0s3.7 1.77 3.7 3.85c0 1.07-.44 2.1-1.16 2.82q1.07.44 1.94 1.2a.5.5 0 1 1-.67.75 6 6 0 0 0-2.46-1.29.5.5 0 0 1-.1-.93 3 3 0 0 0 1.45-2.55C9.43 2.33 8.17 1 6.73 1s-2.7 1.33-2.7 2.85c0 1.06.6 2.1 1.46 2.55a.5.5 0 0 1-.12.93A5.7 5.7 0 0 0 1 12.9v1.18h6.38a.5.5 0 0 1 0 1z"/></svg>