<!-- SPDX-FileCopyrightText: © 2024 Schneider Electric SPDX-License-Identifier: LicenseRef-Proprietary -->
<svg xmlns="http://www.w3.org/2000/svg" viewBox="0 0 20 20"><path d="M18.4 20a.5.5 0 0 1-.5-.5v-2.53a7.4 7.4 0 0 0-6.1-7.28.5.5 0 0 1-.4-.5c0-.18.1-.37.26-.45a4.1 4.1 0 0 0 2.13-3.66c0-2.25-1.7-4.08-3.8-4.08s-3.8 1.83-3.8 4.08a4.1 4.1 0 0 0 2.14 3.67.5.5 0 0 1-.14.94 7.4 7.4 0 0 0-6.09 7.28V19h12.64a.5.5 0 0 1 0 1H1.6a.5.5 0 0 1-.5-.5v-2.53a8.4 8.4 0 0 1 5.8-8 5.2 5.2 0 0 1-1.72-3.89C5.19 2.28 7.35 0 9.99 0c2.65 0 4.8 2.28 4.8 5.08 0 1.53-.63 2.94-1.71 3.9a8.4 8.4 0 0 1 5.83 8v2.52a.5.5 0 0 1-.5.5z"/></svg>