<!-- SPDX-FileCopyrightText: © 2025 Schneider Electric SPDX-License-Identifier: LicenseRef-Proprietary -->
<svg xmlns="http://www.w3.org/2000/svg" viewBox="0 0 16 16"><path d="m8.13 1.102 1.038.169a.5.5 0 1 0 .16-.988L8.29.114a.5.5 0 1 0-.16.988Zm1.222 1.795-.949.446a.501.501 0 0 0 .425.906l.949-.446a.501.501 0 0 0-.426-.906Zm1.495 4.154a.5.5 0 0 0 .683-.185l.518-.901a.5.5 0 1 0-.868-.498l-.518.901a.5.5 0 0 0 .185.683Zm3.47-1.39a.5.5 0 0 0-.449.546l.101 1.029a.5.5 0 0 0 .497.451l.049-.002a.5.5 0 0 0 .449-.546l-.101-1.029a.5.5 0 0 0-.546-.449ZM6.5 9h2a.5.5 0 0 0 0-1h-.901l1.897-1.644A.501.501 0 0 0 8.84 5.6L6.999 7.196V6.5a.5.5 0 0 0-1 0v1.665a.5.5 0 0 0 0 .291v.045a.5.5 0 0 0 .5.5Zm7.408-4.18q.353 0 .698-.074a.5.5 0 1 0-.211-.977A2.308 2.308 0 0 1 11.723.771a.5.5 0 0 0-.946-.324 3.31 3.31 0 0 0 3.131 4.374ZM3 4.5a.5.5 0 0 0 1 0V2.312a.5.5 0 0 0-.163-.369L1.853.131a.5.5 0 0 0-.675.739L3 2.534zm.542 8.295a.498.498 0 0 0 .3-.899l-1.297-.974a.5.5 0 1 0-.6.799l1.297.974c.09.068.195.101.3.101ZM14.5 15H4v-.5a.5.5 0 0 0-1 0v1a.5.5 0 0 0 .5.5h11a.5.5 0 0 0 0-1ZM3.842 6.654l-1.297-.973a.5.5 0 1 0-.6.8l1.297.973a.5.5 0 0 0 .6-.8ZM2.545 8.315a.5.5 0 1 0-.6.8l1.297.974a.495.495 0 0 0 .7-.099.5.5 0 0 0-.1-.699l-1.297-.974ZM7.288 13H6.5a.5.5 0 0 0 0 1h2a.5.5 0 0 0 .5-.5v-2a.5.5 0 0 0-1 0v.795l-1.93-1.709a.499.499 0 1 0-.663.748z"/></svg>