<!-- SPDX-FileCopyrightText: © 2025 Schneider Electric SPDX-License-Identifier: LicenseRef-Proprietary -->
<svg xmlns="http://www.w3.org/2000/svg" viewBox="0 0 16 16"><path d="M15.5 14H13V9.5a.5.5 0 0 0-1 0V14H4v-4h6.5a.5.5 0 0 0 0-1h-7a.5.5 0 0 0-.5.5V14H.5a.5.5 0 0 0 0 1h15a.5.5 0 0 0 0-1ZM.5 7h15a.5.5 0 0 0 0-1h-4.605l.091-2.404a.5.5 0 0 0-.863-.362L7.517 6h-.855l3.939-4.127a.5.5 0 0 0-.013-.705c-.167-.164-.227-.226-2.611-.194a.5.5 0 0 0-.357.157L5.999 2.85v-.684l.303-.321a.5.5 0 0 0-.728-.686l-.438.465A.5.5 0 0 0 5 1.966L4.998 4.11a.5.5 0 0 0 .863.343l2.34-2.483c.311-.003.633-.003.925-.002L5.278 5.999H.5a.5.5 0 0 0 0 1Zm9.437-2.11-.035.919-.17.191h-.841z"/></svg>