<!-- SPDX-FileCopyrightText: © 2025 Schneider Electric SPDX-License-Identifier: LicenseRef-Proprietary -->
<svg xmlns="http://www.w3.org/2000/svg" viewBox="0 0 16 16"><path d="M9.069 8H7.577c-.667-.026-1.267-.662-1.436-1.538a.494.494 0 0 0-.585-.396.5.5 0 0 0-.396.585c.252 1.309 1.171 2.235 2.267 2.334.025.004.047.015.073.015h.071c.016 0 .032.005.048.005L7.643 9h1.426c.76 0 1.377.665 1.377 1.482 0 .823-.631 1.518-1.377 1.518H2.483l1.635-1.698a.5.5 0 1 0-.721-.693L1 12.1V.5a.5.5 0 0 0-1 0v15a.5.5 0 0 0 1 0v-2.563l2.374 2.349a.5.5 0 0 0 .703-.711l-1.591-1.574h6.583c1.311 0 2.378-1.13 2.378-2.518 0-1.369-1.067-2.482-2.378-2.482Zm-7.077 4.511L2 12.503v.017zM10.48 4h3a.5.5 0 0 0 0-1h-3a.5.5 0 0 0 0 1Z"/><path d="M16 3.5a.49.49 0 0 0-.271-.437L13.417.746a.5.5 0 1 0-.707.707l2.088 2.092-2.125 2.179a.5.5 0 0 0 .717.698l2.469-2.532a.5.5 0 0 0 .138-.37c0-.007.004-.012.004-.019ZM5.683 5.054q.114.06.234.059a.5.5 0 0 0 .442-.265c.282-.531.753-.847 1.259-.847h.863a.5.5 0 0 0 0-1h-.863c-.882 0-1.682.515-2.141 1.377a.5.5 0 0 0 .207.676Z"/></svg>