<!-- SPDX-FileCopyrightText: © 2025 Schneider Electric SPDX-License-Identifier: LicenseRef-Proprietary -->
<svg xmlns="http://www.w3.org/2000/svg" viewBox="0 0 16 16"><path d="M5.064 7.503a.5.5 0 0 0 1 0c0-1.951 0-4.163-1.168-7.183a.498.498 0 1 0-.932.36c1.101 2.847 1.101 4.868 1.101 6.823ZM3.5 11a.5.5 0 0 0-.5.5v4a.5.5 0 0 0 1 0v-4a.5.5 0 0 0-.5-.5Zm-.438-3.497a.5.5 0 0 0 1 0c0-2.055 0-4.384-3.236-7.351A.5.5 0 1 0 .15.89c2.912 2.669 2.912 4.674 2.912 6.614Zm9.486.5a.5.5 0 0 0 .5-.5c0-1.939 0-3.945 2.912-6.614a.5.5 0 0 0-.676-.738c-3.236 2.967-3.236 5.296-3.236 7.351a.5.5 0 0 0 .5.5ZM8 8a.5.5 0 0 0 .5-.5v-7a.5.5 0 0 0-1 0v7A.5.5 0 0 0 8 8Zm2.463.003a.5.5 0 0 0 .5-.5c0-1.955 0-3.976 1.101-6.823a.499.499 0 1 0-.932-.36C9.964 3.341 9.964 5.552 9.964 7.503a.5.5 0 0 0 .5.5Z"/><path d="M15.5 7h-1a.5.5 0 0 0 0 1h.5v1H1V8h.5a.5.5 0 0 0 0-1h-1a.5.5 0 0 0-.5.5v2a.5.5 0 0 0 .5.5h15a.5.5 0 0 0 .5-.5v-2a.5.5 0 0 0-.5-.5Zm-3 4a.5.5 0 0 0-.5.5v4a.5.5 0 0 0 1 0v-4a.5.5 0 0 0-.5-.5Zm-7 0a.5.5 0 0 0-.5.5v4a.5.5 0 0 0 1 0v-4a.5.5 0 0 0-.5-.5Zm5 0a.5.5 0 0 0-.5.5v4a.5.5 0 0 0 1 0v-4a.5.5 0 0 0-.5-.5ZM8 11a.5.5 0 0 0-.5.5v4a.5.5 0 0 0 1 0v-4A.5.5 0 0 0 8 11Z"/></svg>