<!-- SPDX-FileCopyrightText: © 2025 Schneider Electric SPDX-License-Identifier: LicenseRef-Proprietary -->
<svg xmlns="http://www.w3.org/2000/svg" viewBox="0 0 16 16"><path d="M15.5 3H14V1h1.5a.5.5 0 0 0 0-1H.5a.5.5 0 0 0 0 1H1v.5a.5.5 0 0 0 1 0V1h2v.5a.5.5 0 0 0 1 0V1h2v.5a.5.5 0 0 0 1 0V1h2v.5a.5.5 0 0 0 1 0V1h2v2H.5a.5.5 0 0 0-.5.5v2a.5.5 0 0 0 1 0V4h2v1.5a.5.5 0 0 0 1 0V4h2v1.5a.5.5 0 0 0 1 0V4h2v1.5a.5.5 0 0 0 1 0V4h2v1.5a.5.5 0 0 0 1 0V4h2v9.756l-2 .967V7.5a.5.5 0 0 0-1 0v6.227l-2 .958V7.5a.5.5 0 0 0-1 0v6.227l-2 .958V7.5a.5.5 0 0 0-1 0v6.227l-2 .958V7.5a.5.5 0 0 0-1 0v6.227l-2 .958V7.5a.5.5 0 0 0-1 0v7.979a.5.5 0 0 0 .715.451l2.284-1.095v.644a.5.5 0 0 0 .715.451l2.284-1.095v.644a.5.5 0 0 0 .715.451l2.284-1.095v.644a.5.5 0 0 0 .715.451l2.284-1.095v.685a.503.503 0 0 0 .5.5.5.5 0 0 0 .218-.05l3-1.45a.5.5 0 0 0 .282-.45V3.5a.5.5 0 0 0-.5-.5Z"/></svg>