<!-- SPDX-FileCopyrightText: © 2025 Schneider Electric SPDX-License-Identifier: LicenseRef-Proprietary -->
<svg xmlns="http://www.w3.org/2000/svg" viewBox="0 0 16 16"><path d="M.5 2h4.553A.5.5 0 0 0 5 2.224l-.002 2.022a.5.5 0 0 0 .854.354l2.344-2.344c.297-.002.605-.004.886-.002l-3.939 3.89A.5.5 0 0 0 5.494 7h2.242c.133 0 .26-.053.354-.146l1.852-1.852-.033.827-.31.329a.5.5 0 0 0 .728.686l.438-.465a.5.5 0 0 0 .136-.323l.092-2.292a.499.499 0 0 0-.853-.374L7.53 6h-.816l3.882-3.833A.5.5 0 0 0 10.708 2h4.795a.5.5 0 0 0 0-1H.5a.5.5 0 0 0 0 1Zm5.5.432.293-.292A.5.5 0 0 0 6.392 2h.646L6 3.038zM15.5 9H.5a.5.5 0 0 0 0 1H3v4.5a.5.5 0 0 0 .5.5h7a.5.5 0 0 0 0-1H4v-4h8v4.5a.5.5 0 0 0 1 0V10h2.5a.5.5 0 0 0 0-1Z"/></svg>