<!-- SPDX-FileCopyrightText: © 2025 Schneider Electric SPDX-License-Identifier: LicenseRef-Proprietary -->
<svg xmlns="http://www.w3.org/2000/svg" viewBox="0 0 16 16"><path d="M9.076 5.87a.484.484 0 0 0-.689.002.499.499 0 0 0-.678.734.96.96 0 0 0 .672.272h.018a.96.96 0 0 0 .68-.296.504.504 0 0 0-.002-.711Z"/><path d="M15.574 7.988a.5.5 0 0 0-.567.415l-2.133-.321a4.7 4.7 0 0 0-.113-1.177c.015-.006.03-.003.044-.01l1.915-.946a.5.5 0 0 0 .395.215.5.5 0 0 0 .44-.737l-.423-.787a.495.495 0 0 0-.893.431l-1.803.891a4.7 4.7 0 0 0-1.111-1.485l1.971-2.547a.497.497 0 0 0 .68-.163.5.5 0 0 0-.161-.688l-.759-.472a.493.493 0 0 0-.603.778L10.53 3.87c-.007.009-.008.019-.014.028a4.7 4.7 0 0 0-1.454-.536l.267-1.727.032.002A.5.5 0 0 0 9.419.64L8.532.536a.5.5 0 0 0-.555.438.49.49 0 0 0 .36.529l-.274 1.768c-.35.008-.7.044-1.047.13-.064.016-.12.047-.184.066L5.712.919A.493.493 0 0 0 5.915.3a.5.5 0 0 0-.658-.259l-.82.356a.5.5 0 0 0 .2.959.5.5 0 0 0 .159-.033l1.111 2.529c-.462.252-.88.565-1.226.943L2.945 3.611a.497.497 0 0 0-.856-.506l-.476.757a.5.5 0 0 0 .423.766c.14 0 .268-.07.365-.179l1.686 1.149c-.213.362-.36.756-.472 1.164l-2.528-.413a.495.495 0 0 0-.441-.508.5.5 0 0 0-.549.445l-.041.393s-.003.005-.003.008v.015l-.05.473a.5.5 0 0 0 .498.552c.23 0 .422-.161.477-.383l2.48.405c-.024.458-.005.924.112 1.391l.008.021-1.675.632a.495.495 0 0 0-.626-.263.5.5 0 0 0-.292.644l.314.838a.5.5 0 0 0 .644.292.49.49 0 0 0 .304-.572l1.682-.634c.196.397.457.751.754 1.077l-.023.02-2.008 2.595a.5.5 0 0 0-.632.774l.689.569a.497.497 0 0 0 .704-.068.49.49 0 0 0-.003-.624l2.018-2.607c.1.071.189.156.296.22.259.155.529.279.806.382l-.289 1.868a.5.5 0 0 0-.574.403.5.5 0 0 0 .403.581l.879.159q.045.008.089.008a.494.494 0 0 0 .184-.954l.283-1.83c.455.064.917.076 1.377.004l1.009 2.403a.5.5 0 0 0 .455.884l.831-.329a.5.5 0 0 0 .281-.649.497.497 0 0 0-.64-.283L9.647 11.91a.5.5 0 0 0-.582-.292c-.968.241-1.971.092-2.825-.422S4.782 9.867 4.541 8.898A3.74 3.74 0 0 1 7.259 4.37a3.7 3.7 0 0 1 2.825.422 3.74 3.74 0 0 1 .887 5.661.504.504 0 0 0 .095.744l1.606 1.09a.5.5 0 0 0 .828.557l.551-.704a.5.5 0 0 0-.764-.644l-1.22-.827q.17-.248.307-.517c.175-.343.29-.708.377-1.078l2.127.32a.493.493 0 0 0 .49.472.5.5 0 0 0 .494-.426l.132-.884a.5.5 0 0 0-.42-.569Z"/><path d="M9.986 7.344a.5.5 0 0 0-.649.281.93.93 0 0 0 .011.715c.1.229.282.406.514.497a.5.5 0 0 0 .199.038c.2 0 .392-.109.468-.302a.473.473 0 0 0-.248-.625.5.5 0 0 0-.296-.605Zm-1.523 2.02a.85.85 0 0 0-.662.012.499.499 0 0 0 .281.951.5.5 0 0 0 .855-.503.86.86 0 0 0-.474-.46Zm-2.642-.963a.5.5 0 0 0 .658.259.997.997 0 0 0 .52-1.317.5.5 0 0 0-.918.4.5.5 0 0 0-.259.658Z"/></svg>