<!-- SPDX-FileCopyrightText: © 2025 Schneider Electric SPDX-License-Identifier: LicenseRef-Proprietary -->
<svg xmlns="http://www.w3.org/2000/svg" viewBox="0 0 16 16"><circle cx="8.403" cy="5.799" r=".582"/><path d="M7.029 10.226a.598.598 0 1 0 0-1.197.598.598 0 0 0 0 1.197Z"/><circle cx="10.419" cy="7.926" r=".504"/><path d="M15.874 15.171.875.17a.5.5 0 1 0-.708.707l2.15 2.15a.7.7 0 0 0-.26-.052.74.74 0 1 0 0 1.48c.033 0 .061-.015.093-.019l1.916 1.39a4.6 4.6 0 0 0-.536 1.713l-2.091-.044a.73.73 0 0 0-.536-.235.74.74 0 1 0 0 1.48.73.73 0 0 0 .542-.244l2.086.044c.082.743.343 1.458.762 2.079l-1.748 1.547c-.023-.002-.043-.014-.067-.014a.74.74 0 1 0 .737.756l1.724-1.525q.142.136.297.26a.5.5 0 0 0 .625-.781 3.62 3.62 0 0 1-.911-4.566q.071-.129.139-.238a.6.6 0 0 0 .106-.151l5.054 5.055-.038.027a.5.5 0 0 0-.258.168 3.58 3.58 0 0 1-2.369.455.5.5 0 0 0-.572.558l-.355 2.41a.73.73 0 0 0-.318.591.74.74 0 1 0 1.48 0 .73.73 0 0 0-.171-.456l.304-2.065a4.5 4.5 0 0 0 2.235-.482l1.081 1.726c-.015.059-.037.117-.037.181a.74.74 0 1 0 1.48 0 .73.73 0 0 0-.595-.711l-.898-1.433 3.949 3.949a.5.5 0 0 0 .708 0 .5.5 0 0 0 0-.707ZM2.787 3.663a.7.7 0 0 0-.042-.207l.644.644zm3.287-2.156.595 2.695a.498.498 0 0 0 .817.268 3.6 3.6 0 0 1 1.528.065 3.62 3.62 0 0 1 2.631 4.295.498.498 0 0 0 .248.778l2.546.801a.736.736 0 0 0 1.403-.316.74.74 0 0 0-.74-.74.7.7 0 0 0-.356.104l-2.077-.654a4.6 4.6 0 0 0-.191-2.279l2.016-.944a.74.74 0 1 0 .28-1.423.73.73 0 0 0-.694.513l-2.031.951a4.6 4.6 0 0 0-1.643-1.594l.795-1.523a.73.73 0 0 0 .541-.7.74.74 0 1 0-1.48 0 .7.7 0 0 0 .049.243l-.825 1.58q-.11-.034-.224-.063a4.7 4.7 0 0 0-1.734-.113L7.045 1.26a.7.7 0 0 0 .127-.39.74.74 0 1 0-1.48 0 .73.73 0 0 0 .383.635Z"/></svg>