<!-- SPDX-FileCopyrightText: © 1996-2024 Visa SPDX-License-Identifier: LicenseRef-Proprietary -->
<svg xmlns="http://www.w3.org/2000/svg" version="1.1" viewBox="0 0 264 264"><path fill="#ffffff" d="M.018.037V132.04H264V.037Zm157.177 35.826c5.907 0 10.657 1.286 14.346 2.62l-2.687 12.578c-6.871-3.166-12.93-2.939-15.125-2.655-4.431.579-6.456 2.841-6.504 4.965-.144 6.99 21.55 7.859 21.482 23.504-.047 12.325-10.586 20.285-26.705 20.285-6.848-.075-13.461-1.504-17.05-3.146l2.782-12.996c3.564 1.66 8.036 3.866 15.752 3.746 4.402-.067 9.13-1.826 9.172-5.803.028-2.596-1.974-4.462-7.957-7.367-5.8-2.843-13.516-7.6-13.42-16.135.086-11.541 10.752-19.596 25.914-19.596zM33.49 36.947h26.096c3.323 0 6.316 2.211 7.076 6.04l6.46 34.308 15.954-40.348h16.112L80.338 96.23h-16.21l-12.23-47.311c-.74-2.91-1.387-3.98-3.642-5.209-3.688-2.004-9.776-3.876-15.129-5.043zm78.278 0h15.336L114.422 96.23H99.086Zm85.689 0h13.078l12.393 59.282h-14.182l-1.86-8.854h-19.673l-3.197 8.854h-16.108l23.014-54.936c1.1-2.636 3.586-4.346 6.535-4.346zm2.242 16.016-8.072 22.264h12.717z"/><path fill="#1434cb" d="M.018 132.04V264H264V132.04Zm65.648 49.523q3.345 0 5.332.648 1.986.65 3.047 1.316l.355 4.957h-.119q-.983-.825-2.418-1.455a17.3 17.3 0 0 0-3.049-1.002 14 14 0 0 0-3.185-.373q-2.479 0-4.014.807-1.533.805-1.533 2.81-.001 1.535.727 2.399.728.868 2.185 1.416 1.455.553 3.617 1.143 2.046.55 3.836 1.12 1.788.57 3.127 1.495a6.44 6.44 0 0 1 2.104 2.44q.767 1.514.765 3.872.001 4.564-2.968 6.983-2.97 2.418-8.319 2.418-2.675 0-5.388-.727-2.715-.727-4.407-1.947l-.312-4.996h.117q1.966 1.652 4.719 2.595 2.753.945 5.547.944 5.938.001 5.94-4.09 0-1.454-.669-2.36-.67-.904-2.164-1.513-1.496-.61-3.894-1.24a52 52 0 0 1-3.58-1.1 12.2 12.2 0 0 1-3.028-1.537 6.65 6.65 0 0 1-2.105-2.438q-.766-1.494-.766-3.814 0-2.832 1.377-4.799 1.376-1.966 3.756-2.97 2.379-1.003 5.367-1.003zm51.647 0q3.145 0 5.427.648 2.282.65 3.895 1.87l.55 5.349h-.119q-1.65-1.613-3.892-2.576-2.244-.965-5.233-.965-3.264 0-5.564 1.377-2.303 1.376-3.522 3.894t-1.218 5.9q0 3.383 1.238 5.899 1.239 2.519 3.56 3.896t5.585 1.375q3.342 0 5.546-1.001a13.5 13.5 0 0 0 3.856-2.618h.117l-.55 5.233q-1.731 1.179-4.09 1.947-2.362.767-5.508.766-3.54 0-6.352-1.198-2.814-1.2-4.799-3.306-1.987-2.104-3.03-4.936t-1.042-6.056q0-3.264 1.043-6.079 1.042-2.811 3.03-4.916 1.984-2.103 4.779-3.304 2.79-1.2 6.293-1.2zm-36.934.55h19.273v4.326H85.648v7.985h11.055v4.17H85.648v9.086h14.004v4.326H80.38Zm50.857 0h5.27v18.133q0 4.208 1.79 6.02 1.79 1.807 5.882 1.806 4.05.001 5.898-1.748 1.849-1.751 1.85-5.96v-18.25h4.404v18.525q0 6.292-3.166 9.105t-9.223 2.813q-6.019 0-9.36-2.791-3.345-2.794-3.345-9.127zm30.246 0h12.627q2.95 0 5.096 1.18 2.142 1.18 3.283 3.244 1.14 2.068 1.14 4.662 0 3.07-1.69 5.35-1.69 2.282-4.604 3.03l7.672 12.427h-6.057l-6.924-11.72h-5.271v11.72h-5.272zm27.457 0h19.274v4.326h-14.004v7.985h11.055v4.17h-11.055v9.086h14.004v4.326h-19.274zm-22.185 4.17v10.069h5.94q2.87 0 4.148-1.239 1.28-1.239 1.28-3.797 0-2.555-1.28-3.793-1.277-1.24-4.149-1.24zm-9.559-150.42c-15.162 0-25.828 8.055-25.914 19.596-.096 8.535 7.62 13.292 13.42 16.135 5.983 2.905 7.985 4.77 7.957 7.367-.041 3.977-4.77 5.736-9.172 5.803-7.716.12-12.188-2.085-15.752-3.746l-2.783 12.996c3.59 1.642 10.203 3.071 17.05 3.146 16.12 0 26.66-7.96 26.706-20.285.068-15.645-21.626-16.513-21.482-23.504.048-2.124 2.073-4.386 6.504-4.965 2.194-.284 8.254-.51 15.125 2.655l2.687-12.579c-3.69-1.333-8.439-2.619-14.346-2.619zM33.49 36.947l-.363 1.719c5.353 1.167 11.44 3.039 15.129 5.043 2.255 1.23 2.901 2.3 3.642 5.209l12.23 47.31h16.21l24.85-59.28H89.076L73.121 77.294l-6.459-34.309c-.76-3.828-3.753-6.039-7.076-6.039zm78.278 0L99.086 96.23h15.336l12.682-59.282zm85.689 0c-2.95 0-5.435 1.71-6.535 4.346l-23.014 54.936h16.108l3.197-8.854h19.674l1.86 8.854h14.18l-12.392-59.282zm2.242 16.016 4.645 22.264h-12.717z"/><path fill="#ffffff" d="M65.666 181.563q-2.987 0-5.367 1.001-2.38 1.005-3.756 2.971-1.378 1.968-1.377 4.799 0 2.32.766 3.814a6.65 6.65 0 0 0 2.105 2.438q1.336.945 3.027 1.537 1.692.59 3.58 1.1 2.401.63 3.895 1.24 1.494.608 2.164 1.514.668.906.668 2.359 0 4.091-5.94 4.09-2.793 0-5.546-.944-2.752-.943-4.719-2.595h-.117l.312 4.996q1.692 1.22 4.407 1.947 2.714.726 5.388.727 5.349 0 8.319-2.418 2.969-2.418 2.968-6.983.002-2.358-.765-3.873a6.44 6.44 0 0 0-2.104-2.44q-1.338-.923-3.127-1.493a88 88 0 0 0-3.836-1.121q-2.163-.591-3.617-1.143-1.456-.549-2.185-1.416-.728-.864-.727-2.399 0-2.005 1.533-2.81 1.535-.808 4.014-.807a14 14 0 0 1 3.185.373q1.613.373 3.05 1.002 1.434.63 2.417 1.455h.12l-.356-4.957q-1.061-.666-3.047-1.316-1.988-.649-5.332-.649zm51.647 0q-3.502 0-6.293 1.199-2.795 1.201-4.78 3.304-1.987 2.105-3.03 4.916-1.042 2.815-1.042 6.079 0 3.224 1.043 6.056t3.03 4.936q1.983 2.105 4.798 3.306 2.812 1.198 6.352 1.198 3.146.001 5.507-.766t4.09-1.947l.551-5.233h-.117a13.5 13.5 0 0 1-3.856 2.618q-2.204 1.002-5.546 1.001-3.266.001-5.584-1.375-2.323-1.377-3.561-3.896-1.238-2.516-1.238-5.898 0-3.383 1.218-5.9 1.218-2.519 3.522-3.895 2.299-1.377 5.564-1.377 2.989 0 5.233.965 2.24.963 3.892 2.576h.12l-.551-5.35q-1.613-1.22-3.895-1.87-2.281-.647-5.427-.648zm-36.934.55v29.893h19.273v-4.326H85.648v-9.086h11.055v-4.17H85.648v-7.985h14.004v-4.326zm50.857 0v18.526q0 6.333 3.344 9.127 3.343 2.79 9.361 2.79 6.057 0 9.223-2.812t3.166-9.105v-18.526h-4.404v18.25q-.001 4.21-1.85 5.961-1.849 1.75-5.898 1.748-4.093 0-5.881-1.806-1.792-1.811-1.791-6.02v-18.133zm30.246 0v29.893h5.272v-11.72h5.271l6.924 11.72h6.057l-7.672-12.428q2.913-.746 4.603-3.03 1.691-2.279 1.692-5.349 0-2.594-1.14-4.662-1.143-2.064-3.284-3.244-2.146-1.18-5.096-1.18zm27.457 0v29.893h19.274v-4.326h-14.004v-9.086h11.055v-4.17h-11.055v-7.985h14.004v-4.326zm-22.185 4.17h5.94q2.87 0 4.148 1.24 1.28 1.239 1.28 3.793 0 2.558-1.28 3.797-1.277 1.239-4.149 1.239h-5.94z"/></svg>