<!-- SPDX-FileCopyrightText: © 2025 Schneider Electric SPDX-License-Identifier: LicenseRef-Proprietary -->
<svg xmlns="http://www.w3.org/2000/svg" viewBox="0 0 16 16"><path d="M8 0C3.589 0 0 3.589 0 8s3.589 8 8 8 8-3.589 8-8-3.589-8-8-8Zm0 15c-3.86 0-7-3.14-7-7s3.141-7 7-7 7 3.141 7 7-3.14 7-7 7Z"/><path d="M10.765 5.264q-.21 0-.33.096c-.12.096-.148.156-.205.276l-2.21 5.172-2.227-5.162q-.077-.191-.191-.286c-.114-.095-.188-.096-.334-.096a.5.5 0 0 0-.291.081.38.38 0 0 0-.158.225.56.56 0 0 0 .038.343l2.567 5.812a.7.7 0 0 0 .224.301q.138.1.349.1a.57.57 0 0 0 .353-.1.7.7 0 0 0 .219-.301l2.557-5.812q.087-.2.059-.343a.36.36 0 0 0-.139-.225.46.46 0 0 0-.282-.081Z"/></svg>