<!-- SPDX-FileCopyrightText: © 2025 Schneider Electric SPDX-License-Identifier: LicenseRef-Proprietary -->
<svg xmlns="http://www.w3.org/2000/svg" viewBox="0 0 16 16"><path d="M15.998 4.423a.5.5 0 0 0-.163-.417l-1.384-1.25a.5.5 0 0 0-.595-.056l-1.045.636c-1.394-.844-3.13-1.305-4.929-1.305C3.536 2.032 0 4.708 0 7.998s3.536 5.966 7.881 5.966 7.882-2.676 7.882-5.966c0-.418-.057-.833-.168-1.233a.5.5 0 1 0-.963.269c.087.313.131.638.131.965 0 2.738-3.087 4.966-6.882 4.966S1 10.736 1 7.998s3.087-4.966 6.881-4.966c1.723 0 3.374.465 4.647 1.31a.5.5 0 0 0 .536.011l.992-.604.611.552-4.746 2.907a.5.5 0 0 0-.218.568.8.8 0 0 1 .032.224c0 .67-.843 1.236-1.84 1.236q-.407 0-.773-.117a.5.5 0 0 0-.413.049l-.31.189-.627-.549.093-.06a.5.5 0 0 0 .215-.546A.8.8 0 0 1 6.055 8c0-.67.843-1.236 1.84-1.236.25 0 .496.035.729.103.134.04.278.021.397-.05l1.066-.635a.501.501 0 0 0-.512-.86l-.887.529a3.6 3.6 0 0 0-.793-.087c-1.566 0-2.84 1.003-2.84 2.236l.001.078-.385.246a.498.498 0 0 0-.06.798l1.405 1.23a.5.5 0 0 0 .59.051l.438-.267q.412.1.851.101c1.566 0 2.84-1.003 2.84-2.236q0-.058-.004-.115l5.029-3.08a.5.5 0 0 0 .237-.38Z"/></svg>