<!-- SPDX-FileCopyrightText: © 2025 Schneider Electric SPDX-License-Identifier: LicenseRef-Proprietary -->
<svg xmlns="http://www.w3.org/2000/svg" viewBox="0 0 16 16"><path d="M15.999 9.297c-.032-.486-.166-2.113-.554-2.672C14.917 5.863 14.32 5 12.674 5H11V3.5a.5.5 0 0 0-.5-.5H9V.942a.5.5 0 0 0-.263-.44C8.638.449 6.311-.773 4.629.79c-.963.896-1.147 2.467-1.342 4.129-.135 1.154-.275 2.347-.673 3.378-.919 2.381-2.451 3.921-2.466 3.935a.5.5 0 0 0 .704.711c.069-.068 1.696-1.697 2.695-4.287.443-1.15.591-2.406.733-3.622.173-1.475.336-2.868 1.03-3.514.888-.827 2.147-.469 2.69-.255v2.234a.5.5 0 0 0 .5.5H10v1.5a.5.5 0 0 0 .5.5h2.174c1.072 0 1.406.409 1.95 1.194.155.224.321 1.302.376 2.135v.671h-2v-1.5a.5.5 0 0 0-.5-.5h-3a.5.5 0 0 0-.5.5v6.5H6V6.5a.5.5 0 0 0-1 0v9a.5.5 0 0 0 .5.5h4a.5.5 0 0 0 .5-.5V9h2v1.5a.5.5 0 0 0 .5.5h3a.5.5 0 0 0 .5-.5z"/></svg>