<!-- SPDX-FileCopyrightText: © 2025 Schneider Electric SPDX-License-Identifier: LicenseRef-Proprietary -->
<svg xmlns="http://www.w3.org/2000/svg" viewBox="0 0 16 16"><path d="M4.476 1.391a.5.5 0 0 0-.705.051C1.466 4.103 2.249 6.939 3.75 8.705a.5.5 0 0 0 .705.057.5.5 0 0 0 .057-.705c-1.232-1.45-1.876-3.778.015-5.961a.5.5 0 0 0-.051-.705Z"/><path d="M2.779.825a.5.5 0 0 0-.761-.649c-2.696 3.157-2.7 6.83-.01 9.827a.5.5 0 0 0 .706.038.5.5 0 0 0 .038-.706C1.636 8.092-.595 4.775 2.778.826ZM8 2.867a2.235 2.235 0 0 0-2.232 2.232c0 1.059.741 1.948 1.732 2.175V15.5a.5.5 0 0 0 1 0V6.831a.5.5 0 0 0-.5-.5c-.679 0-1.232-.553-1.232-1.232S7.321 3.867 8 3.867s1.232.553 1.232 1.232a.5.5 0 0 0 1 0A2.234 2.234 0 0 0 8 2.867Zm4.282-1.425a.5.5 0 0 0-.756.654c1.891 2.183 1.248 4.511.015 5.961a.5.5 0 0 0 .761.648c1.501-1.766 2.284-4.602-.021-7.263Z"/><path d="M13.982.175a.5.5 0 0 0-.761.649c3.373 3.949 1.142 7.267.026 8.509a.5.5 0 1 0 .744.668c2.69-2.997 2.686-6.67-.01-9.827Z"/></svg>