<!-- SPDX-FileCopyrightText: © 2025 Schneider Electric SPDX-License-Identifier: LicenseRef-Proprietary -->
<svg xmlns="http://www.w3.org/2000/svg" viewBox="0 0 16 16"><path d="M3.369 8.506a4.6 4.6 0 0 1 1.34-3.256.499.499 0 1 0-.71-.703A5.6 5.6 0 0 0 2.37 8.506c0 1.505.586 2.919 1.649 3.982a.5.5 0 0 0 .708 0 .5.5 0 0 0 0-.708 4.6 4.6 0 0 1-1.356-3.275Z"/><path d="M1 8.506c0-1.854.719-3.602 2.025-4.922a.5.5 0 0 0-.711-.703A7.95 7.95 0 0 0 0 8.506c0 2.137.832 4.146 2.343 5.657a.5.5 0 0 0 .708 0 .5.5 0 0 0 0-.707 6.95 6.95 0 0 1-2.05-4.95Zm10.982-3.982a.5.5 0 0 0-.707.708c.875.875 1.356 2.038 1.356 3.275s-.481 2.4-1.356 3.275a.5.5 0 0 0 0 .708.5.5 0 0 0 .708 0c1.063-1.063 1.649-2.478 1.649-3.982s-.586-2.918-1.649-3.982Z"/><path d="M13.657 2.85a.5.5 0 0 0-.707.707C14.272 4.879 15 6.637 15 8.506s-.729 3.627-2.05 4.95a.5.5 0 0 0 .708.707c1.511-1.512 2.343-3.521 2.343-5.657s-.832-4.145-2.343-5.656Zm-3.162 4.918L7.353 5.901a.9.9 0 0 0-.901-.008.9.9 0 0 0-.453.779v1.019a.5.5 0 0 0 1 0v-.837l2.832 1.683-2.832 1.635v-.48a.5.5 0 0 0-1 0v.661c0 .324.167.614.448.775.14.081.294.122.448.122s.308-.041.448-.122l3.142-1.812c.278-.161.446-.449.448-.771s-.162-.612-.438-.775Z"/></svg>