<!-- SPDX-FileCopyrightText: Copyright © 2012-2024 WeChat. All Rights Reserved. SPDX-License-Identifier: LicenseRef-Proprietary -->
<svg xmlns="http://www.w3.org/2000/svg" version="1.1" viewBox="0 0 83.15 67.05" xmlns:xlink="http://www.w3.org/1999/xlink"><defs><linearGradient id="a" x1="-159.05" x2="-158.12" y1="793.45" y2="793.45" gradientTransform="rotate(-90 -23857.47 15935.9)scale(50.19)" gradientUnits="userSpaceOnUse"><stop offset="0" stop-color="#07c160"/><stop offset="1" stop-color="#60f37e"/></linearGradient><linearGradient id="b" x1="-159.24" x2="-158.31" y1="793.37" y2="793.37" gradientTransform="matrix(0 -47.44 47.44 0 -37578.96 -7487.13)" gradientUnits="userSpaceOnUse"><stop offset="0" stop-color="#d9d9d9"/><stop offset="1" stop-color="#f0f0f0"/></linearGradient></defs><path fill="url(#a)" d="M30.12 0C13.49 0 0 11.23 0 25.08c0 7.56 4.06 14.37 10.4 19a2 2 0 0 1 .85 1.64 2.3 2.3 0 0 1-.11.64c-.5 1.89-1.32 4.92-1.35 5.06a2.7 2.7 0 0 0-.17.73 1 1 0 0 0 .9.96h.232a1.2 1.2 0 0 0 .447-.14l6.59-3.81a3.23 3.23 0 0 1 1.602-.46c.3.002.6.046.888.13a35.4 35.4 0 0 0 9.83 1.38c16.63 0 30.112-11.23 30.112-25.09S46.749 0 30.119 0Z"/><path fill="url(#b)" d="M58.07 22.82C44.22 22.82 33 32.17 33 43.71c0 11.53 11.23 20.88 25.08 20.88a29.6 29.6 0 0 0 8.19-1.14 2.6 2.6 0 0 1 .74-.11 2.7 2.7 0 0 1 1.33.38l5.49 3.17a.9.9 0 0 0 .48.16.85.85 0 0 0 .84-.84 2.7 2.7 0 0 0-.15-.61l-1.13-4.21a2 2 0 0 1-.09-.53 1.68 1.68 0 0 1 .71-1.37c5.28-3.82 8.66-9.49 8.66-15.78 0-11.54-11.23-20.89-25.08-20.89z"/><path fill="#168843" d="M24.07 17a4 4 0 1 1-4-4 4 4 0 0 1 4 4m20.14 0a4 4 0 1 1-4-4 4 4 0 0 1 4 4"/><path fill="#919191" d="M63.35 37.33A3.36 3.36 0 1 0 66.7 34a3.35 3.35 0 0 0-3.35 3.36m-16.79-.03A3.36 3.36 0 1 0 49.92 34a3.36 3.36 0 0 0-3.36 3.36"/></svg>