<!-- SPDX-FileCopyrightText: © 2025 Schneider Electric SPDX-License-Identifier: LicenseRef-Proprietary -->
<svg xmlns="http://www.w3.org/2000/svg" viewBox="0 0 16 16"><path d="m15.722 4.008-3.947-1.956A.5.5 0 0 0 11.553 2H6.458a.5.5 0 0 0 0 1H11l.023 8.033-6.024-.03V2.5a.513.513 0 0 0-.515-.5.53.53 0 0 0-.275.072L.241 4.473A.5.5 0 0 0 0 4.901v9.035a.499.499 0 0 0 .823.382l2.614-2.212a.5.5 0 0 0-.646-.764L.999 12.858V9.554l2.037-1.729a.5.5 0 0 0 .058-.705.5.5 0 0 0-.705-.058L1 8.242v-3.06l3-1.814V11.5a.5.5 0 0 0 .498.5l7 .035h.003a.5.5 0 0 0 .418-.226.5.5 0 0 0 .107-.311l-.023-8.218 2.998 1.485v3.622l-1.52-1.126a.5.5 0 1 0-.595.804l2.115 1.567v3.277l-1.638-1.28a.495.495 0 0 0-.701.086.5.5 0 0 0 .086.701l2.445 1.912a.497.497 0 0 0 .807-.393V4.456a.5.5 0 0 0-.278-.448Z"/></svg>