<!-- SPDX-FileCopyrightText: © 2025 Schneider Electric SPDX-License-Identifier: LicenseRef-Proprietary -->
<svg xmlns="http://www.w3.org/2000/svg" viewBox="0 0 16 16"><path d="M15.492 14.481c-1.265-1.023-2.196-1.869-3.019-2.615-.753-.683-1.411-1.28-2.119-1.822.075-.196.117-.41.117-.634 0-.757-.476-1.403-1.136-1.637.099-.768.264-1.56.451-2.453.22-1.056.467-2.238.683-3.725.161.361.335.818.469 1.249.637 2.062.044 3.122-.691 3.959a.5.5 0 1 0 .751.661c.832-.946 1.685-2.36.895-4.914-.81-2.62-1.421-2.566-1.655-2.548-.569.048-.659.725-.689.947-.227 1.695-.5 3.008-.742 4.166-.229 1.097-.427 2.044-.517 3.011l-.002.028a.5.5 0 0 0 .022.175h0v.001q.033.103.104.183a.5.5 0 0 0 .348.166c.01 0 .017-.002.03 0 .375.003.68.33.68.731s-.307.731-.685.731-.684-.328-.684-.731a.5.5 0 0 0-1 0q0 .15.024.294c-.772.351-1.583.64-2.511.97-.939.335-1.992.71-3.293 1.246.223-.336.533-.746.842-1.102 1.504-1.727 2.611-1.625 3.617-1.372a.499.499 0 1 0 .243-.969c-1.34-.338-2.828-.366-4.614 1.686-1.789 2.052-1.425 2.556-1.287 2.745.222.305.608.346 1.144.118 1.483-.627 2.653-1.043 3.684-1.41.96-.342 1.798-.64 2.615-1.014.534.577 1.537.687 2.176.232.677.519 1.321 1.104 2.058 1.771a70 70 0 0 0 2.724 2.377c-.388-.033-.88-.107-1.323-.207-2.278-.511-2.872-1.6-3.153-2.598a.5.5 0 0 0-.963.271c.498 1.768 1.736 2.817 3.897 3.303.817.183 1.404.25 1.828.25.913 0 1.064-.312 1.127-.442.166-.343.016-.706-.446-1.079Z"/></svg>