<!-- SPDX-FileCopyrightText: © 2025 Schneider Electric SPDX-License-Identifier: LicenseRef-Proprietary -->
<svg xmlns="http://www.w3.org/2000/svg" viewBox="0 0 16 16"><path d="M12.246 12.238c-.052-.255-1.253-6.116-2.368-8.173a1.44 1.44 0 0 0-.629-.647L6 1.095V.5a.5.5 0 0 0-1 0v1.141L3.802 5.564a.5.5 0 0 0-.012.246c-.099.355-.08.699.061 1.01.476 1.05 2.131 1.258 3.853.479a5.3 5.3 0 0 0 1.155-.705.5.5 0 1 0-.629-.777c-.272.22-.588.412-.938.571-1.286.582-2.358.401-2.53.021-.086-.19.007-.494.25-.812.312-.41.835-.801 1.437-1.073.602-.273 1.242-.411 1.755-.37.213.015.395.06.531.126l.154.11.023.016q.015.016.028.033l.043.076q.011.023.024.044c1.035 1.914 2.245 7.818 2.25 7.831.06.58-.052.744-.698 1.036a1.135 1.135 0 0 1-1.422-.38l-.445-.588a4 4 0 0 0 1.444-.435 3 3 0 0 0 .22-.132.5.5 0 1 0-.554-.832 2 2 0 0 1-.13.078c-.548.286-1.2.4-1.698.305a.4.4 0 0 0-.057-.008l-.919-1.214c.577-.045 1.271-.179 1.824-.429.339-.153.673-.363.992-.622a.501.501 0 0 0-.631-.777 3.6 3.6 0 0 1-.773.487c-.656.298-1.687.402-2.109.344q-.032-.004-.06-.005l-.329-.434a.5.5 0 0 0-.861.491.5.5 0 0 0-.053.224v6a.5.5 0 0 0 1 0v-4.945l2.327 3.074c.577.844 1.689 1.14 2.646.708.855-.387 1.4-.883 1.273-2.099Zm-6.21-8.627a5.5 5.5 0 0 0-.709.384l.31-1.014a.5.5 0 0 0 .364-.481v-.176l1.256.898a5.4 5.4 0 0 0-1.22.39Z"/></svg>