<!-- SPDX-FileCopyrightText: © 2025 Schneider Electric SPDX-License-Identifier: LicenseRef-Proprietary -->
<svg xmlns="http://www.w3.org/2000/svg" viewBox="0 0 16 16"><path d="M8 13a.5.5 0 0 0 .5-.5V9h4a.5.5 0 0 0 0-1h-4V5.5a.5.5 0 0 0-1 0V8h-4a.5.5 0 0 0 0 1h4v3.5a.5.5 0 0 0 .5.5Z"/><path d="M15 3.5V2.038A1.04 1.04 0 0 0 13.962 1a.44.44 0 0 0-.225.06A.5.5 0 0 0 13.5 1H2.037C1.465 1 1 1.465 1 2.037v11.925C1 14.534 1.465 15 2.038 15h11.924A1.04 1.04 0 0 0 15 13.962V5.5a.5.5 0 0 0-1 0l-.038 8.5L2 13.962V5.266L2.037 2H13.5a.5.5 0 0 0 .219-.05.5.5 0 0 0 .281.088V3H3.5a.5.5 0 0 0 0 1h11a.5.5 0 0 0 .5-.5Z"/></svg>