<!-- SPDX-FileCopyrightText: © 2025 Schneider Electric SPDX-License-Identifier: LicenseRef-Proprietary -->
<svg xmlns="http://www.w3.org/2000/svg" viewBox="0 0 16 16"><path d="M14.5 1h-13a.5.5 0 0 0-.5.5v13c0 .133.053.261.148.354a.5.5 0 0 0 .356.146l5-.038a.5.5 0 0 0 .496-.5V3.5a.5.5 0 0 0-.497-.5l-3-.02H3.5a.5.5 0 0 0-.003 1L6 3.997V9H3.5a.5.5 0 0 0 0 1H6v3.966l-4 .03V2h12v12.034l-4-.03V10h2.5a.5.5 0 0 0 0-1H10V4.017L12.503 4A.5.5 0 0 0 13 3.497c-.002-.276-.237-.51-.503-.497l-3 .02a.5.5 0 0 0-.497.5V14.5a.5.5 0 0 0 .496.5l5 .038h.004a.5.5 0 0 0 .5-.5V1.5a.5.5 0 0 0-.5-.5Z"/></svg>