<!-- SPDX-FileCopyrightText: © 2025 Schneider Electric SPDX-License-Identifier: LicenseRef-Proprietary -->
<svg xmlns="http://www.w3.org/2000/svg" viewBox="0 0 16 16"><path d="M8.572 2.496a.456.456 0 1 0 .002-.912.456.456 0 0 0-.002.912Zm.914 1.615a.458.458 0 1 0-.001-.915.458.458 0 0 0 .001.915Zm-3.427-.763a.457.457 0 1 0 .457-.793.457.457 0 0 0-.457.793ZM6.824.852a.457.457 0 1 0 .457-.793.457.457 0 0 0-.457.793Zm2.71.457a.457.457 0 1 0 .457-.79.457.457 0 0 0-.457.79Zm-4.414.457a.457.457 0 1 0 .457-.793.457.457 0 0 0-.457.793Zm8.611 12.926a.496.496 0 0 0-.605-.365l-.984.244a1.5 1.5 0 0 0-.037-.5l-.295-1.188c-.236-.953-.838-1.805-1.726-2.418-.324-.224-.857-.592-1.818-4.324l2.554-.633c.877 3.72.472 4.434.336 4.675a.5.5 0 1 0 .87.494c.382-.673.639-1.9-.352-5.895a.5.5 0 0 0-.605-.365l-3.153.781q.053-.31.105-.647a.5.5 0 0 0-.417-.571L4.01 3.419a.5.5 0 0 0-.571.417c-.635 4.064-.272 5.265.167 5.902a.499.499 0 1 0 .823-.567c-.157-.228-.623-.904-.077-4.686l2.601.406c-.629 3.802-1.129 4.217-1.461 4.492-.566.471-1.282 1.293-1.476 2.536l-.189 1.209q-.039.254.006.5l-1.001-.156a.5.5 0 0 0-.154.988l2.594.405s.008 0 .012.002l.22.034a.5.5 0 0 0 .154-.988l-.431-.067a.5.5 0 0 1-.323-.197.5.5 0 0 1-.089-.366l.189-1.209c.146-.935.694-1.561 1.155-1.945.386-.32.844-.699 1.36-2.91.925 3.331 1.518 3.739 2.028 4.092.464.32 1.064.896 1.292 1.814l.295 1.188a.497.497 0 0 1-.335.592l-.222.055-.021.006-.206.051a.499.499 0 1 0 .24.97l.425-.104.042-.012 2.31-.571a.5.5 0 0 0 .365-.605Z"/></svg>