<!-- SPDX-FileCopyrightText: © 2025 Schneider Electric SPDX-License-Identifier: LicenseRef-Proprietary -->
<svg xmlns="http://www.w3.org/2000/svg" viewBox="0 0 16 16"><path d="M3.36 6.611v-3.11q-.868.667-1.169.667a.35.35 0 0 1-.255-.114.37.37 0 0 1-.111-.265q0-.174.109-.256c.109-.082.202-.125.386-.212q.414-.195.661-.41.249-.216.439-.482c.19-.266.211-.287.25-.328s.112-.062.219-.062q.182 0 .291.14c.109.14.109.222.109.386v3.914q0 .688-.468.688-.208 0-.335-.141c-.127-.141-.126-.231-.126-.414ZM5.732 3.34q0-.341.186-.645.187-.302.547-.483t.843-.181q.406 0 .714.106c.308.106.376.168.513.292a1.2 1.2 0 0 1 .403.918q0 .335-.172.599a1.27 1.27 0 0 1-.515.431q.29.111.482.295c.192.184.224.264.289.424q.098.241.098.535 0 .431-.209.781a1.43 1.43 0 0 1-.612.549 2.1 2.1 0 0 1-.95.197q-.567 0-.971-.197-.404-.199-.608-.546c-.204-.347-.205-.49-.205-.777q0-.92.868-1.261-.7-.328-.701-1.036Zm2.451 2.263q0-.267-.109-.465c-.109-.198-.175-.233-.308-.305a.9.9 0 0 0-.444-.105q-.348 0-.584.232c-.236.232-.236.371-.236.649q0 .267.111.47.111.204.302.314c.191.11.27.111.427.111q.24 0 .431-.113.191-.112.301-.317c.11-.205.109-.294.109-.472Zm-.854-2.919a.7.7 0 0 0-.518.2.7.7 0 0 0-.197.514.64.64 0 0 0 .202.484.72.72 0 0 0 .52.192.8.8 0 0 0 .292-.051A.64.64 0 0 0 8 3.665a.7.7 0 0 0 .051-.275.73.73 0 0 0-.09-.362q-.091-.16-.255-.253c-.164-.093-.235-.092-.376-.092Zm5.923 1.939q.001.56-.068.963-.067.405-.252.732a1.7 1.7 0 0 1-.602.621q-.37.219-.82.219-.522 0-.932-.293a1.8 1.8 0 0 1-.621-.814 3 3 0 0 1-.155-.627 5 5 0 0 1-.05-.743q0-.516.055-.93.056-.414.171-.711.202-.492.587-.75t.918-.258q.351 0 .639.115.287.114.504.335.218.22.367.545.26.564.26 1.597Zm-.936-.069q0-.627-.076-1.024-.075-.398-.252-.602a.62.62 0 0 0-.492-.203q-.451 0-.627.455c-.176.455-.178.77-.178 1.402q0 .642.076 1.053c.076.411.135.479.252.62q.178.21.482.21a.6.6 0 0 0 .492-.219q.178-.219.25-.625a6.5 6.5 0 0 0 .072-1.066Z"/><path fill="none" stroke="currentColor" stroke-linecap="round" stroke-miterlimit="10" d="M8.395 11.909 6.816 10.33m1.579 1.579-1.579 1.579m3.591-1.745c2.961-.422 5.093-1.602 5.093-2.992 0-.659-.48-1.271-1.301-1.778M2.065 6.82C1.084 7.354.5 8.024.5 8.751c0 1.744 3.358 3.158 7.5 3.158"/></svg>