<!-- SPDX-FileCopyrightText: © 2025 Schneider Electric SPDX-License-Identifier: LicenseRef-Proprietary -->
<svg xmlns="http://www.w3.org/2000/svg" viewBox="0 0 16 16"><path fill="none" stroke="currentColor" stroke-linecap="round" stroke-linejoin="round" d="M3.889 6.274a325 325 0 0 1-3.225-4.1.78.78 0 0 1 .068-1.034L1.14.732A.78.78 0 0 1 2.174.664c1.393 1.079 5.067 3.943 6.398 5.134C9.87 6.96 13.5 10.726 13.5 10.726l.731-.008c.41-.004.805.157 1.096.447l.173.173s-.203 1.184-1.59 2.571-2.571 1.59-2.571 1.59l-.262-.262a1.53 1.53 0 0 1-.447-1.096l.008-.731S7.25 10.144 5.959 8.746"/></svg>