<!-- SPDX-FileCopyrightText: © 2025 Schneider Electric SPDX-License-Identifier: LicenseRef-Proprietary -->
<svg xmlns="http://www.w3.org/2000/svg" viewBox="0 0 16 16"><path fill="none" stroke="currentColor" stroke-linecap="round" stroke-linejoin="round" d="M7.165 10.769c.39.934.794 1.576 1.225 1.576 1.58 0 1.975-8.689 3.555-8.689s1.58 8.689 3.555 8.689M9.134 6.023c-.314-1.344-.67-2.367-1.211-2.367-1.58 0-1.975 8.689-3.555 8.689-.432 0-.835-.642-1.225-1.576m8.044 0c.39.934.794 1.576 1.225 1.576.293 0 .546-.3.773-.788m-7.892-5.67c-.343-1.058-.738-2.231-1.247-2.231-1.578 0-1.571 8.687-3.546 8.687"/></svg>