<!-- SPDX-FileCopyrightText: © 2025 Schneider Electric SPDX-License-Identifier: LicenseRef-Proprietary -->
<svg xmlns="http://www.w3.org/2000/svg" viewBox="0 0 16 16"><path d="M4.123 3.947a.8.8 0 0 0 .522-.178q.219-.178.219-.511a.6.6 0 0 0-.175-.437.62.62 0 0 0-.472-.183.9.9 0 0 0-.331.056.55.55 0 0 0-.206.148q-.075.093-.143.237l-.124.273q-.033.07-.119.109a.4.4 0 0 1-.197.04.35.35 0 0 1-.243-.107.38.38 0 0 1-.11-.285q0-.171.104-.361.103-.19.303-.361c.2-.171.298-.206.496-.275s.418-.104.663-.104q.32 0 .583.087c.263.087.329.143.458.252q.195.164.293.383.099.218.099.468 0 .33-.144.565a1.9 1.9 0 0 1-.41.459q.257.14.433.316.176.178.266.395.089.216.089.467a1.46 1.46 0 0 1-.474 1.079q-.234.219-.555.343a2 2 0 0 1-.71.123 1.7 1.7 0 0 1-1.224-.496 1.6 1.6 0 0 1-.306-.439 1 1 0 0 1-.104-.376q0-.19.124-.308a.43.43 0 0 1 .308-.117q.093 0 .178.054.085.055.112.131.171.458.368.681c.197.223.314.223.552.223a.83.83 0 0 0 .707-.4.84.84 0 0 0 .124-.458q0-.386-.211-.605t-.587-.219q-.066 0-.204.014a2 2 0 0 1-.178.013q-.181 0-.28-.091c-.099-.091-.099-.145-.099-.252q0-.157.119-.256.118-.097.353-.097h.135Zm3.223.304q.224-.268.488-.396c.264-.128.373-.128.59-.128q.312 0 .578.117.265.115.465.333.199.215.309.509.108.293.108.613 0 .465-.213.844-.213.38-.593.592c-.38.212-.542.212-.862.212q-.554 0-.956-.27-.402-.271-.615-.8c-.213-.529-.213-.783-.213-1.294q0-.623.129-1.113.128-.492.369-.814.24-.323.583-.488c.343-.165.489-.165.781-.165q.422 0 .743.165.322.165.485.409a.85.85 0 0 1 .163.468q0 .135-.103.246a.34.34 0 0 1-.261.11q-.138 0-.257-.087a.4.4 0 0 1-.175-.242.7.7 0 0 0-.241-.318.63.63 0 0 0-.382-.12q-.174 0-.348.101c-.174.101-.212.158-.292.272q-.241.35-.284 1.246Zm.89 2.047q.333 0 .55-.272c.217-.272.218-.419.218-.714a1.2 1.2 0 0 0-.103-.516.77.77 0 0 0-.28-.33.7.7 0 0 0-.392-.113.8.8 0 0 0-.391.109.8.8 0 0 0-.3.314 1 1 0 0 0-.114.482q0 .445.231.742a.71.71 0 0 0 .58.297Zm5.59-1.803q0 .54-.066.929-.066.39-.243.705-.224.39-.58.601c-.356.211-.501.211-.791.211q-.502 0-.898-.284a1.7 1.7 0 0 1-.599-.784 3 3 0 0 1-.149-.604 5 5 0 0 1-.048-.717q0-.498.053-.896.053-.4.165-.686.193-.474.564-.724.372-.249.886-.249.34 0 .616.11.277.111.486.323c.209.212.257.317.354.525q.25.544.25 1.54Zm-.903-.066q0-.603-.072-.987-.073-.384-.244-.58c-.171-.196-.272-.196-.475-.196q-.435 0-.604.438-.17.438-.17 1.352 0 .62.073 1.015.072.396.243.599c.171.203.269.202.465.202q.303.001.475-.211.171-.21.24-.603.07-.393.069-1.028Z"/><path fill="none" stroke="currentColor" stroke-linecap="round" stroke-miterlimit="10" d="m6.816 10.594 1.579 1.579m0 0-1.579 1.579m3.591-1.745c2.961-.422 5.093-1.602 5.093-2.992 0-.659-.48-1.271-1.301-1.778M2.065 7.084C1.084 7.618.5 8.288.5 9.015c0 1.744 3.358 3.158 7.5 3.158"/></svg>