<!-- SPDX-FileCopyrightText: © 2025 Schneider Electric SPDX-License-Identifier: LicenseRef-Proprietary -->
<svg xmlns="http://www.w3.org/2000/svg" viewBox="0 0 16 16"><path fill="none" stroke="currentColor" stroke-linecap="round" stroke-linejoin="round" stroke-width=".997" d="m7.5 7.5-.04-3m.044-2.472C7.504 1.184 6.824.5 5.985.5s-2.018.628-1.612 2.293C1.187 1.858.106 6.581 2.64 7.192l-.045.023c-2.669-.136-3.108 4.689.574 4.383 0 0-.687 2.186 1.621 2.378M3.619 4.508c.138 1.082.997 1.643 1.914 1.646m4.465 3.17v1.504l2.027 1.291m1.684 1.6c.112-.158.29-.448.38-.617m-2.079 1.994c.173-.085.467-.254.626-.36m1.94-3.674c0-2.451-1.975-4.438-4.412-4.438s-4.412 1.987-4.412 4.438S7.727 15.5 10.164 15.5m3.377-4.836 1.216.883.743-1.223M11.5.5a1 1 0 1 0 1 1m-5 3h4v-2M2.584 9.856c1.325.089 2.096-1.04 2.013-2.199"/></svg>