<!-- SPDX-FileCopyrightText: © 2025 Schneider Electric SPDX-License-Identifier: LicenseRef-Proprietary -->
<svg xmlns="http://www.w3.org/2000/svg" viewBox="0 0 16 16"><path fill="none" stroke="currentColor" stroke-linecap="round" stroke-linejoin="round" d="M7.367 4.5 7.5 15.401c-2.716.438-2.882-1.483-2.882-1.483-2.551-.135-1.59-2.36-1.59-2.36-3.611.303-3.18-4.484-.563-4.349C-.02 6.602 1.04 1.916 4.164 2.844 3.766 1.192 4.922.569 5.745.569s1.673.679 1.673 1.516M3.815 4.546c.114.905.73 1.443 1.46 1.591M2.672 9.783c1.3.088 2.056-1.032 1.974-2.182m1.061 4.902c-.063-.79-.517-1.322-1.109-1.567m5.822 3.38q0 .204.063.386c.157.464.591.798 1.1.798.643 0 1.164-.53 1.164-1.184s-.521-1.184-1.164-1.184m-.083 0V11.5H7.541m4.853-4.397c.593-.247.87-.937.619-1.54s-.936-.893-1.529-.646-.87.937-.619 1.54M7.5 6.5h3.364m3.666 3.811c.629-.131 1.031-.757.897-1.397s-.752-1.053-1.381-.921-1.031.757-.897 1.397M7.5 9.5h5.624m-1.796-7.011C11.328 1.39 10.453.5 9.374.5S7.42 1.391 7.42 2.489"/></svg>