<!-- SPDX-FileCopyrightText: © 2025 Schneider Electric SPDX-License-Identifier: LicenseRef-Proprietary -->
<svg xmlns="http://www.w3.org/2000/svg" viewBox="0 0 16 16"><path fill="none" stroke="currentColor" stroke-linecap="round" stroke-linejoin="round" d="m.5 15.5.835-.925s1.468-1.887 3.453-1.887c.988 0 1.919.471 2.622.94l1.187.884c.703.469 1.627.988 2.615.988 1.985 0 3.453-1.887 3.453-1.887l.835-.925M8.51 2.518a2.6 2.6 0 1 1-3.416 2.468c0-.874.412-1.648 1.094-2.119C2.402 2.684.643 5.746.643 5.746s3.244 5.806 10.587 2.409c1.745-.807 2.528-2.148 4.271-2.338 0 0-1.942-5.076-8.043-5.318"/></svg>