<!-- SPDX-FileCopyrightText: © 2025 Schneider Electric SPDX-License-Identifier: LicenseRef-Proprietary -->
<svg xmlns="http://www.w3.org/2000/svg" viewBox="0 0 16 16"><path fill="none" stroke="currentColor" stroke-linecap="round" stroke-linejoin="round" d="M15.5 8.001a7.5 7.5 0 1 1-15-.002 7.5 7.5 0 0 1 15 .002Z"/><path d="M5.241 10.817a.5.5 0 0 1-.305-.086q-.114-.085-.134-.229c-.02-.144.006-.203.058-.324l2.586-5.802a.7.7 0 0 1 .243-.325.6.6 0 0 1 .649 0q.148.096.244.325l2.586 5.802q.086.181.066.329c-.02.148-.055.175-.124.229a.47.47 0 0 1-.296.081q-.211 0-.334-.104c-.123-.104-.156-.178-.219-.324l-.669-1.546.448.267H5.975l.439-.267-.658 1.546a.9.9 0 0 1-.21.329.45.45 0 0 1-.306.1ZM8 5.121 6.559 8.538l-.239-.229h3.369l-.22.229-1.45-3.417z"/></svg>