<!-- SPDX-FileCopyrightText: © 2025 Schneider Electric SPDX-License-Identifier: LicenseRef-Proprietary -->
<svg xmlns="http://www.w3.org/2000/svg" viewBox="0 0 15.999 15.999"><path fill="none" stroke="currentColor" stroke-linecap="round" stroke-linejoin="round" stroke-width=".999" d="M.5 15.5h2V.5h10v8m.95 5.263c-.188.62.013 1.354.013 1.354l-.09.383m1.863-1.844c.165-.2.264-.458.264-.739 0-.499-.371-.921-.808-1.081.108-.185.23-.398.23-.628 0-.686-.547-1.242-1.222-1.242a1.232 1.232 0 0 0-1.153 1.638 1.16 1.16 0 0 0-1.009 1.139c0 .637.528 1.154 1.155 1.154.292 0 .556-.115.757-.299m-.076 1.902H9.5v-4h-4v4m-1-13h2m2 0h2m-6 3h2m2 0h2m-6 3h2m2 0h2"/></svg>