<!-- SPDX-FileCopyrightText: © 2025 Schneider Electric SPDX-License-Identifier: LicenseRef-Proprietary -->
<svg xmlns="http://www.w3.org/2000/svg" viewBox="0 0 16 16"><path d="M11.541 15.984c-.273 0-.945-.041-1.267-.42-.261-.315-.281-.831-.281-1.424V9.974l-1.365.025h0q-.654-.001-1.01-.355c-.284-.287-.359-.827-.359-1.101 0-.034.004-.841.371-1.194q.376-.35.989-.349h5.971c.447 0 .802.117 1.052.348.391.356.398 1.165.398 1.173 0 .034-.005.781-.401 1.141q-.388.34-1.049.339h-2.097a.5.5 0 0 1 0-1h2.097c.259 0 .354-.06.383-.085.011-.026.067-.236.067-.393 0-.161-.057-.399-.099-.465 0 .002-.058-.057-.352-.058H8.618c-.083 0-.231.01-.301.075-.006.03-.059.29-.059.469 0 .165.05.361.084.414A.7.7 0 0 0 8.618 9l1.866-.034c.13-.017.264.05.359.144s.149.223.149.356v4.675c0 .446.022.718.066.808.006-.016.24.036.481.036.194 0 .343-.039.39-.068-.006-.011.062-.208.062-.775v-2.641a.5.5 0 0 1 1 0v2.641c0 .938-.161 1.254-.301 1.425-.31.365-.854.419-1.151.419ZM4.244 8.508C1.9 8.508-.007 6.6-.007 4.254S1.9 0 4.244 0A4.26 4.26 0 0 1 6.59.706a.5.5 0 1 1-.553.833A3.2 3.2 0 0 0 4.244 1a3.256 3.256 0 0 0-3.25 3.254 3.256 3.256 0 0 0 4.779 2.873q.13-.07.254-.151a.5.5 0 1 1 .547.837q-.16.105-.33.195a4.26 4.26 0 0 1-2.001.5Z"/><path d="M8.23 6.152a.499.499 0 0 1-.342-.865l.866-.812-5.261-.006a.5.5 0 0 1 0-1h0l5.375.006-.963-.824a.5.5 0 1 1 .65-.76l1.887 1.612a.5.5 0 0 1 .017.744L8.573 6.015a.5.5 0 0 1-.342.135Z"/></svg>