<!-- SPDX-FileCopyrightText: © 2025 Schneider Electric SPDX-License-Identifier: LicenseRef-Proprietary -->
<svg xmlns="http://www.w3.org/2000/svg" viewBox="0 0 16 16"><path fill="none" stroke="currentColor" stroke-linecap="round" stroke-linejoin="round" d="M3.382 13.57a7 7 0 0 1-1.169-1.059 7 7 0 0 1-.499-.64m3.282 2.56a7 7 0 0 0 2.472.439m1.889-.306q.449-.132.883-.329c.434-.197.574-.283.85-.458m1.518-1.399q.27-.33.495-.687M6.912 4.029v3.942l2.96 2.057m4.309-2.057A6.84 6.84 0 1 0 .824 10.059m11.928-2.744 1.699 1.483L15.5 7.087"/></svg>