<!-- SPDX-FileCopyrightText: © 2025 Schneider Electric SPDX-License-Identifier: LicenseRef-Proprietary -->
<svg xmlns="http://www.w3.org/2000/svg" viewBox="0 0 16 16"><path fill="none" stroke="currentColor" stroke-linecap="round" stroke-linejoin="round" d="M4.5.5v4M.504.5h3.873c-.336.265-.41.418-.721.729-3.377 3.38-3.928 8.824-.598 12.182 2.665 2.687 8.092 2.836 10.796.132 2.162-2.164 2.144-5.558.242-7.718-1.443-1.639-4.679-1.801-6.408-.071-1.384 1.385-1.385 3.515-.021 4.891 1.093 1.1 2.859 1.202 3.967.095.984-.985 1.303-2.877.114-3.704a1.58 1.58 0 0 0-1.235-.226c-1.506.338-1.752 1.855-1.046 2.344"/></svg>