<!-- SPDX-FileCopyrightText: © 2025 Schneider Electric SPDX-License-Identifier: LicenseRef-Proprietary -->
<svg xmlns="http://www.w3.org/2000/svg" viewBox="0 0 16 16"><path fill="none" stroke="currentColor" stroke-linecap="round" stroke-linejoin="round" d="M10.551 9.419c0-2.203-1.462-4.164-3.978-4.164a3.98 3.98 0 0 0-3.978 3.976l-.008.113c0 .578-.466 1.038-1.042 1.038S.503 9.917.503 9.34l-.005-.094C.496 5.873 3.224 3.141 6.586 3.141a6.05 6.05 0 0 1 5.502 3.399c.053.115.229.51.393 1.03m-1.928 1.849-1.245-1.39s-.441-.416-1.12.265c-.679.68-.061 1.245-.061 1.245l2.327 2.673s.496.648 1.231.648 1.231-.648 1.231-.648l2.327-2.673s.618-.564-.061-1.245c-.679-.68-1.12-.265-1.12-.265l-1.245 1.39"/></svg>