<!-- SPDX-FileCopyrightText: © 2025 Schneider Electric SPDX-License-Identifier: LicenseRef-Proprietary -->
<svg xmlns="http://www.w3.org/2000/svg" viewBox="0 0 16 16"><path fill="none" stroke="currentColor" stroke-linecap="round" stroke-linejoin="round" stroke-width=".93" d="M9.5 3.5V1.899c0-.22.159-.399.355-.399h5.29c.196 0 .355.179.355.399v2.202c0 .221-.159.399-.355.399H10.5m0 10h4.645c.196 0 .355-.179.355-.399v-2.202c0-.22-.159-.399-.355-.399h-5.29c-.196 0-.355.179-.355.399V13.5m1-4h4.645c.196 0 .355-.179.355-.399V6.899c0-.22-.159-.399-.355-.399h-5.29c-.196 0-.355.179-.355.399V8.5M4.889 5.856 7.83 3.405 4.889.795m0 14.41 2.941-2.451-2.941-2.609m2.407-6.807S.624 2.253.502 8.07c-.132 6.264 6.795 4.653 6.795 4.653"/></svg>