<!-- SPDX-FileCopyrightText: © 2025 Schneider Electric SPDX-License-Identifier: LicenseRef-Proprietary -->
<svg xmlns="http://www.w3.org/2000/svg" viewBox="0 0 16 16"><path fill="none" stroke="currentColor" stroke-linecap="round" stroke-linejoin="round" d="M8 1.822 6.679 3.498M8 1.822 6.324.5M8 1.822a6.15 6.15 0 0 0-4.369 1.81 6.15 6.15 0 0 0-1.81 4.369 6.15 6.15 0 0 0 1.81 4.369 6.2 6.2 0 0 0 1.964 1.324M8 14.178a6.15 6.15 0 0 0 4.369-1.81 6.15 6.15 0 0 0 1.81-4.369 6.15 6.15 0 0 0-1.81-4.369 6.2 6.2 0 0 0-1.964-1.324M8 14.178l1.321-1.676m.355 2.998L8 14.178m.164-4.053c1.039-2.131-1.176-2.591-.412-4.25m2.4 4.25c1.039-2.131-1.176-2.591-.413-4.25m-3.601 4.25c1.039-2.131-1.172-2.591-.409-4.25"/></svg>