<!-- SPDX-FileCopyrightText: © 2025 Schneider Electric SPDX-License-Identifier: LicenseRef-Proprietary -->
<svg xmlns="http://www.w3.org/2000/svg" viewBox="0 0 16 16"><path fill="none" stroke="currentColor" stroke-linecap="round" stroke-linejoin="round" d="M14.82 4.916C13.657 2.312 11.067.5 8.059.5 3.964.5.644 3.858.644 8h.961l1.462.015a.72.72 0 0 0 .677-.478l.502-1.384c.496-1.367 2.407-1.369 2.906-.003l1.357 3.716c.466 1.275 2.207 1.386 2.826.18l.842-1.638a.72.72 0 0 1 .64-.393L14.444 8h1.03c0 4.142-3.32 7.5-7.415 7.5-2.836 0-5.3-1.61-6.547-3.976A7 7 0 0 1 1.261 11m1.275.125-1.393-.538-.643 1.36m13.149-6.581 1.468.274.383-1.455"/></svg>