<!-- SPDX-FileCopyrightText: © 2025 Schneider Electric SPDX-License-Identifier: LicenseRef-Proprietary -->
<svg xmlns="http://www.w3.org/2000/svg" viewBox="0 0 16 16"><path d="M1.8 8.633h1.732L2.658 6.24zm2.326 1.61-.277-.728H1.491l-.277.744q-.162.435-.277.587-.114.152-.376.152a.55.55 0 0 1-.392-.162.5.5 0 0 1-.17-.368.8.8 0 0 1 .04-.245q.04-.127.13-.352l1.483-3.765.152-.39a2 2 0 0 1 .19-.378.8.8 0 0 1 .265-.243.8.8 0 0 1 .405-.093q.245 0 .409.093a.8.8 0 0 1 .265.239q.1.146.17.314t.176.449l1.515 3.742q.178.428.178.621a.52.52 0 0 1-.168.37.55.55 0 0 1-.405.168.5.5 0 0 1-.237-.049.5.5 0 0 1-.166-.134 1.2 1.2 0 0 1-.144-.261q-.077-.176-.132-.31m2.456-4.471 1.313 3.888 1.317-3.916q.103-.309.154-.429a.5.5 0 0 1 .495-.315q.15 0 .279.075a.55.55 0 0 1 .275.451.8.8 0 0 1-.024.188 2 2 0 0 1-.06.198l-.071.2-1.404 3.789q-.076.218-.15.413-.075.196-.174.344a.8.8 0 0 1-.263.243q-.165.095-.401.095c-.236 0-.292-.031-.401-.093a.8.8 0 0 1-.265-.245 2 2 0 0 1-.176-.346q-.075-.193-.15-.411l-1.38-3.758-.073-.202a2 2 0 0 1-.063-.214 1 1 0 0 1-.026-.194q0-.201.162-.368A.54.54 0 0 1 5.902 5q.301 0 .425.184.125.184.255.587m6.851.212H12.35v1.594h1.052q.423 0 .712-.073a.84.84 0 0 0 .441-.249q.152-.176.152-.485a.74.74 0 0 0-.463-.7q-.206-.087-.811-.087m-.672 2.436h-.411v1.863q0 .368-.162.542a.55.55 0 0 1-.423.174.54.54 0 0 1-.435-.182q-.154-.181-.154-.534V5.821q0-.38.17-.55t.55-.17h1.91q.396 0 .676.033.28.034.506.137a1.45 1.45 0 0 1 .8.824q.11.283.109.599 0 .649-.366 1.036t-1.109.55q.312.166.597.49t.508.69.348.66.124.405a.4.4 0 0 1-.073.227.5.5 0 0 1-.2.178.6.6 0 0 1-.293.065.57.57 0 0 1-.332-.093.9.9 0 0 1-.231-.235 10 10 0 0 1-.263-.419l-.471-.783a4.3 4.3 0 0 0-.453-.656 1.1 1.1 0 0 0-.405-.309 1.4 1.4 0 0 0-.518-.083"/></svg>