<!-- SPDX-FileCopyrightText: © 2025 Schneider Electric SPDX-License-Identifier: LicenseRef-Proprietary -->
<svg xmlns="http://www.w3.org/2000/svg" viewBox="0 0 16 16"><circle cx="12.234" cy="12.223" r=".546"/><path fill="none" stroke="currentColor" stroke-linecap="round" stroke-linejoin="round" d="m12.806 15.045.012.443-1.452.012s.035-.951-.005-.964c-.531-.165-.835-.644-.835-.644l-.829.297s-.495-.534-.623-1.433c.236-.092.749-.196.749-.196h0a2.5 2.5 0 0 1 .094-1.114l-.609-.412s.414-1.004.964-1.29c.193.158.484.483.484.483.313-.25.675-.418 1.053-.497l.032-.773s.699-.17 1.538.152a7 7 0 0 1-.199.729h0a2.4 2.4 0 0 1 .949.666l.023-.021.648-.364s.43.654.582 1.437c-.236.092-.678.22-.678.22h-.005c.051.387.013.787-.122 1.167l.017.025.625.377s-.107.295-.385.662l-.052.067M.5 7.5v6h4.596m10.404-8v3m0-5H.5v2m10-2v-1c0-1.109-.548-2-1.411-2H6.677c-.749 0-1.092.576-1.304 1.157M10.5 5.5h5m-15 0h5v2h5v-2"/></svg>