<!-- SPDX-FileCopyrightText: © 2025 Schneider Electric SPDX-License-Identifier: LicenseRef-Proprietary -->
<svg xmlns="http://www.w3.org/2000/svg" viewBox="0 0 16 16"><path fill="none" stroke="currentColor" stroke-linecap="round" stroke-linejoin="round" d="M11.338 14a2.43 2.43 0 0 1-2.152-1.857 2.43 2.43 0 0 1 .29-1.849 2.45 2.45 0 0 1 1.998-1.174 2.4 2.4 0 0 1 .933.151 2.435 2.435 0 0 1 1.583 2.206q.008.245-.031.48c-.039.235-.067.31-.121.457s-.123.289-.205.422a2.4 2.4 0 0 1-.342.441M15.5 15.5l-2.105-2.117M.5 7.5v6h4.596m10.404-8v3m0-5H.5v2m10-2v-1c0-1.109-.548-2-1.411-2H6.677c-.749 0-1.092.576-1.304 1.157M10.5 5.5h5m-15 0h5v2h5v-2"/></svg>