<!-- SPDX-FileCopyrightText: © 2025 Schneider Electric SPDX-License-Identifier: LicenseRef-Proprietary -->
<svg xmlns="http://www.w3.org/2000/svg" viewBox="0 0 16 16"><path fill="none" stroke="currentColor" stroke-linecap="round" stroke-linejoin="round" d="M15.5 15.5H.5V.5m5 3h2m6 0h2m-1-1v2m-4.322 0H9.5v1.399c-.009 0-.855.218-.855 1.527 0 1.114.968 1.733 1.895 1.733.808 0 1.722-.635 1.722-1.733 0-1.329-.747-1.475-.762-1.505l-.062-4.683c0-.987-1.938-.987-1.938 0v1.261M4.5 13.5V8.331c0-.501-.444-.831-.993-.831h-.015c-.548 0-.993.33-.993.831V13.5m6.001 0v-2.026c0-.342-.206-.974-.993-.974h-.015c-.807 0-.993.632-.993.974V13.5m6.001 0v-1.1c0-.409-.366-.9-.993-.9h-.015c-.607 0-.993.491-.993.9v1.1"/></svg>