<!-- SPDX-FileCopyrightText: © 2025 Schneider Electric SPDX-License-Identifier: LicenseRef-Proprietary -->
<svg xmlns="http://www.w3.org/2000/svg" viewBox="0 0 16 16"><path fill="none" stroke="currentColor" stroke-linecap="round" stroke-linejoin="round" d="M15.5 15.5H.5V.524m5 12.976V5.492c0-.598-.444-.992-.993-.992h-.015c-.548 0-.993.394-.993.992V13.5m6.001 0V8.492c0-.598-.444-.992-.993-.992h-.015c-.548 0-.993.394-.993.992V13.5"/><path d="M11.825 6.498c-.153-.185-.371-1.117.345-1.718.985-.827 2.052-1.772 1.899-2.367-.183-.707-.785-.968-1.441-.951-1.044.028-1.513.673-1.513.673s-.44.602-1.001.335c-.784-.372-.335-1.168-.335-1.168.578-1.405 3.008-1.3 3.008-1.3 2.388.06 2.939 1.049 3.181 1.9.333 1.967-2.013 3.298-2.251 3.435-.417.239-.517.4-.553.555 0 0 .062.754-.38.911-.675.24-.959-.305-.959-.305Z"/><circle cx="12.463" cy="8.514" r=".83"/></svg>