<!-- SPDX-FileCopyrightText: © 2025 Schneider Electric SPDX-License-Identifier: LicenseRef-Proprietary -->
<svg xmlns="http://www.w3.org/2000/svg" viewBox="0 0 16 16"><path fill="none" stroke="currentColor" stroke-linecap="round" stroke-linejoin="round" d="M2.5 9.5H1.426C.914 9.5.5 9.154.5 8.727V6.956c0-.231.288-.408.555-.536M11.5 8.5h-7m0-2V4.968a.47.47 0 0 0-.468-.468H2.969a.47.47 0 0 0-.468.468v6.063a.47.47 0 0 0 .468.468h1.063a.47.47 0 0 0 .468-.468V8.499m7 .001v2.532a.47.47 0 0 0 .468.468h1.063a.47.47 0 0 0 .468-.468V4.968a.47.47 0 0 0-.468-.468h-1.064a.47.47 0 0 0-.468.468V6.5m3.446 3.079c.267-.128.555-.305.555-.536V7.272c0-.427-.415-.773-.926-.773H13.5"/></svg>