<!-- SPDX-FileCopyrightText: © 2025 Schneider Electric SPDX-License-Identifier: LicenseRef-Proprietary -->
<svg xmlns="http://www.w3.org/2000/svg" viewBox="0 0 16 16"><path fill="none" stroke="currentColor" stroke-linecap="round" stroke-linejoin="round" d="M2.5 9.387C1.155 9.387.501 8.129.501 7.28V5.764C.5 5.592.641 5.5.812 5.5h3.462c.221 0 .225.109.225.289V7.5m-.999-4v2m-2-2v2m1 4v1.434c0 1.828-.392 4.205 2.172 4.205 1.546 0 1.857-1.128 1.857-1.943m2.041 1.769c2.353 1.091 6.93.514 6.93-1.731V2.39c0-.546-1.202-.88-2.673-1.002l-.327-.044V.5h-3v.863l-.158.012C7.795 1.485 6.5 1.823 6.5 2.39V13.5m.016-1.488c2.997 1.652 5.434 1.324 6.95.758"/></svg>