<!-- SPDX-FileCopyrightText: © 2025 Schneider Electric SPDX-License-Identifier: LicenseRef-Proprietary -->
<svg xmlns="http://www.w3.org/2000/svg" viewBox="0 0 16 16"><path fill="none" stroke="currentColor" stroke-linecap="round" stroke-linejoin="round" d="M11.966 9.5v4.464c0 1.392-.641 1.536-1.032 1.536-.509 0-.968-.372-.968-1.536V7.5H7.632c-.974 0-1.149-.661-1.149-1.051 0-.395.364-.949 1.149-.949h6.747c.97 0 1.114.626 1.114 1.074 0 .381-.231.926-1.114.926h-2.413M7.5 3.506c0-.555-.356-1.006-.795-1.006h-.803c-.009-.545.153-2-.841-2H2.806c-1.087 0-.8 1.455-.809 2h-.581C.978 2.5.5 2.935.5 3.47v11.06c0 .535.357.97.795.97H2.5m3 0h1.205c.439 0 .795-.438.795-.974V9.5"/></svg>