<!-- SPDX-FileCopyrightText: © 2025 Schneider Electric SPDX-License-Identifier: LicenseRef-Proprietary -->
<svg xmlns="http://www.w3.org/2000/svg" viewBox="0 0 16 16"><path fill="none" stroke="currentColor" stroke-linecap="round" stroke-linejoin="round" d="M3.5 14.5H1.301c-.442 0-.801-.44-.801-.981V3.482c0-.542.319-.982.932-.982h1.446c.008-.499.151-1 .722-1h1.308c.657 0 .741.501.75 1h4.882c.008-.499.178-1 .75-1h1.28c.502 0 .741.501.75 1h1.381c.573 0 .799.413.799.921v10.104c0 .538-.358.976-.797.976H6.5"/><path d="M8.065 10.359a.46.46 0 0 1-.367-.155.63.63 0 0 1-.13-.417q0-.384.093-.727t.305-.689.559-.733q.26-.298.416-.528c.156-.23.178-.3.224-.441q.068-.212.068-.435 0-.41-.298-.646c-.298-.236-.48-.236-.845-.236q-.498 0-.901.13a4.2 4.2 0 0 0-.813.367q-.274.162-.491.143a.55.55 0 0 1-.354-.155.63.63 0 0 1-.174-.335.66.66 0 0 1 .062-.41 1 1 0 0 1 .36-.385q.51-.336 1.168-.516c.658-.18.853-.18 1.243-.18q.782 0 1.373.261.59.261.919.72.329.46.329 1.081 0 .385-.112.727a2.4 2.4 0 0 1-.36.683 5 5 0 0 1-.683.739 5.6 5.6 0 0 0-.615.634q-.23.287-.335.546c-.105.259-.118.36-.143.56a.4.4 0 0 1-.143.285.52.52 0 0 1-.354.112Zm-.025 2.597q-.423 0-.677-.262a.92.92 0 0 1-.254-.671q0-.397.254-.651.255-.255.677-.255.435 0 .677.255a.9.9 0 0 1 .242.651.95.95 0 0 1-.242.671q-.243.262-.677.262Z"/></svg>