<!-- SPDX-FileCopyrightText: © 2025 Schneider Electric SPDX-License-Identifier: LicenseRef-Proprietary -->
<svg xmlns="http://www.w3.org/2000/svg" viewBox="0 0 16 16"><path fill="none" stroke="currentColor" stroke-linecap="round" stroke-linejoin="round" d="M9.145 1.434c3.598.406 6.355 2.7 6.355 5.469 0 3.055-3.356 5.533-7.496 5.533S.508 9.958.508 6.903c0-.033-.019-.066.002-.098m0-.001c-.021.033-.002.066-.002.098 0 3.055 3.356 5.533 7.496 5.533S15.5 9.958 15.5 6.902c0-2.769-2.757-5.063-6.355-5.469m-2.563.036C3.164 1.954.559 4.151.51 6.804m6.072-5.335C3.164 1.954.559 4.151.51 6.804m0 .218C.489 7.055.508 9 .508 9.033m9.023 5.418c3.408-.52 5.969-2.749 5.969-5.418 0-3.037-.015-2.768-.015-2.768M.51 7.022C.489 7.055.508 9 .508 9.033c0 2.725 2.669 4.99 6.183 5.448M6.5 7.5h3M8.004 5.952V9.11"/></svg>