<!-- SPDX-FileCopyrightText: © 2025 Schneider Electric SPDX-License-Identifier: LicenseRef-Proprietary -->
<svg xmlns="http://www.w3.org/2000/svg" viewBox="0 0 16 16"><path fill="none" stroke="currentColor" stroke-linecap="round" stroke-linejoin="round" d="M13.556 8.256c-.155.16-.347.301-.57.412-.797.396-1.677.248-1.966-.332s.124-1.371.922-1.768c.417-.208.858-.262 1.224-.186L12.294.83l.244-.115c.981-.462 1.439-.076 1.73.195.399.372 1.233.146 1.233.146M.5 14.5l.675-.675c.509-.51.724-1.734.953-3.031.352-2.002.781-4.438 2.658-4.982a.84.84 0 0 1 1.655-.001c1.944.553 2.503 3.084 2.962 5.164.271 1.231.527 2.393.985 2.85l.675.675H5.188c-.132.533-.612 1-1.188 1s-1.055-.467-1.188-1"/></svg>