<!-- SPDX-FileCopyrightText: © 2025 Schneider Electric SPDX-License-Identifier: LicenseRef-Proprietary -->
<svg xmlns="http://www.w3.org/2000/svg" viewBox="0 0 16 16"><path fill="none" stroke="currentColor" stroke-linecap="round" stroke-linejoin="round" d="M7.883 14.327c-.297.733-.931 1.164-1.769 1.164s-1.642-.432-1.939-1.164H.529s.65-.6 1.252-1.336c.75-.915 1.083-3.499 1.333-4.916.384-2.172.853-3.316 1.04-3.833.471-1.302 1.479-2.314 2.731-2.721a1.25 1.25 0 0 1 2.458 0c1.251.406 2.26 1.419 2.731 2.721.187.517.656 1.661 1.04 3.833.25 1.417.583 4.001 1.333 4.916a213 213 0 0 1 1.082 1.336h-5"/></svg>