<!-- SPDX-FileCopyrightText: © 2025 Schneider Electric SPDX-License-Identifier: LicenseRef-Proprietary -->
<svg xmlns="http://www.w3.org/2000/svg" viewBox="0 0 16 16"><path fill="none" stroke="currentColor" stroke-linecap="round" stroke-linejoin="round" d="M7.892 14.5c-.242.6-.827 1-1.509 1s-1.267-.4-1.509-1H1.749s.618-.422 1.107-1.025c.61-.75.882-2.867 1.085-4.028.313-1.78.694-2.717.847-3.141.384-1.067 1.204-1.896 2.222-2.229.085-.479.5-.843 1-.843s.916.364 1 .843c1.018.333 1.84 1.162 2.222 2.229.153.424.534 1.361.847 3.141.203 1.161.475 3.278 1.085 4.028a5.5 5.5 0 0 0 1.147 1.025h-3.812M3.421.5S.078 1.698.545 5.504m3.69-2.866s-1.747.697-1.431 2.547m12.651.319C15.922 1.698 12.578.5 12.578.5m.618 4.685c.316-1.85-1.431-2.547-1.431-2.547"/></svg>