<!-- SPDX-FileCopyrightText: © 2025 Schneider Electric SPDX-License-Identifier: LicenseRef-Proprietary -->
<svg xmlns="http://www.w3.org/2000/svg" viewBox="0 0 16 16"><path fill="none" stroke="currentColor" stroke-linecap="round" stroke-linejoin="round" stroke-width=".979" d="M14.36 14.36H10.4m2.99-3.43c-.258-1.027-.426-2.205-.567-3.004-.376-2.127-.835-3.248-1.019-3.754-.46-1.275-1.448-2.266-2.674-2.664a1.223 1.223 0 0 0-2.407 0 4.1 4.1 0 0 0-1.504.888M4.05 4.483c-.184.506-.643 1.627-1.019 3.754-.245 1.387-.571 3.918-1.306 4.814-.589.721-1.226 1.308-1.226 1.308h3.57c.291.717 1.078 1.14 1.899 1.14s1.442-.423 1.732-1.14M.51.527 15.5 15.5"/></svg>