<!-- SPDX-FileCopyrightText: © 2025 Schneider Electric SPDX-License-Identifier: LicenseRef-Proprietary -->
<svg xmlns="http://www.w3.org/2000/svg" viewBox="0 0 16 16"><path fill="none" stroke="currentColor" stroke-linecap="round" stroke-linejoin="round" d="m9.5 7.943-.008 3.229M6.5 7.984l.007 3.189M6.5 4.189l-.166-1.198s-.044-.788-.979-1.145c-1.204-.46-1.847.678-1.847.678l-.461.921m-.75 1.925-.118.267-1.509 4.4m8.82-2.07 1.632-1.204-.389-1.702s-1.085-.954-2.744-.946-2.982.938-2.982.938l-.366 1.529 1.86 1.385m-2.823.411C1.599 8.332.54 9.305.501 11.039s1.374 3.173 3.156 3.212 2.799-1.344 2.837-3.079m6.458-7.738-.461-.921s-.643-1.137-1.847-.678c-.935.357-.979 1.145-.979 1.145l-.166 1.198m5.832 5.848-1.509-4.4-.118-.267m-4.198 5.814c.039 1.734 1.056 3.118 2.837 3.079s3.194-1.478 3.156-3.212-1.097-2.707-3.177-2.661"/></svg>