<!-- SPDX-FileCopyrightText: © 2025 Schneider Electric SPDX-License-Identifier: LicenseRef-Proprietary -->
<svg xmlns="http://www.w3.org/2000/svg" viewBox="0 0 16 16"><path fill="none" stroke="currentColor" stroke-linecap="round" stroke-linejoin="round" d="M10.496 2.264c0-.422.353-.764.789-.764h3.4c.45 0 .815.353.815.789v11.423a.8.8 0 0 1-.815.788h-3.401c-.436 0-.793-.342-.793-.764M10.5 3.5V2.288a.79.79 0 0 0-.788-.788H6.289a.79.79 0 0 0-.788.788V10.5m.787 4a.79.79 0 0 1-.788-.789V12.5v1.211c0 .436.353.789.789.789h3.423a.79.79 0 0 0 .788-.788V5.5m-10 7v1.211c0 .436.353.789.788.789h3.423a.79.79 0 0 0 .788-.789M5.496 2.289a.785.785 0 0 0-.784-.789H1.288a.79.79 0 0 0-.788.788V10.5m7-7h1m-6 0h1m9 0h1"/></svg>