<!-- SPDX-FileCopyrightText: © 2025 Schneider Electric SPDX-License-Identifier: LicenseRef-Proprietary -->
<svg xmlns="http://www.w3.org/2000/svg" viewBox="0 0 16 16"><path fill="none" stroke="currentColor" stroke-linecap="round" stroke-linejoin="round" d="M11.694 12.141c-.097-.16-.088-.731-.088-.731 0-1.044.851-1.89 1.901-1.89s1.901.846 1.901 1.89c0 .907-.565 2.241-2.187 3.119-1.391.753-3.631 1.15-6.106.891-2.056-.215-5.281-1.534-6.122-4.61A17 17 0 0 1 .5 7.935C.499 7.568.437 9.858 1.782 10.98s2.857 1.327 3.695 1.429c.757.092 4.205.538 4.205-2.297 0-1.044-.727-1.829-1.901-1.89-1.049-.055-1.909.868-1.971 1.959M10.918.5l1.061.928L13.061.5m1.824 1.413-.594 1.117 1.209.801m-6.936-.042 1.082-.738-.509-1.265m1.803 5.398-.339-1.434-1.379.169m5.536.042-1.379-.232-.297 1.37m-1.103-5.671-.127 2.319 1.527 1.982m.912-2.699-2.439.717-1.251 2.003m1.272-1.982-2.227-.717M2.937 1.193l.841.736.858-.736m1.446 1.121-.471.886.959.635m-5.5-.034.858-.585-.404-1.003m1.43 4.28-.269-1.137-1.093.134m4.389.033-1.093-.184-.235 1.087m-.875-4.497-.101 1.839 1.211 1.571M5.611 3.2l-1.934.568-.992 1.588m1.009-1.571-1.766-.568"/></svg>