<!-- SPDX-FileCopyrightText: © 2025 Schneider Electric SPDX-License-Identifier: LicenseRef-Proprietary -->
<svg xmlns="http://www.w3.org/2000/svg" viewBox="0 0 16 16"><path fill="none" stroke="currentColor" stroke-linecap="round" stroke-linejoin="round" d="M13.5 5.5h-1.294 1.759c.296 0 .535.24.535.535v1.929c0 .296-.24.535-.535.535H12.25h1.715c.296 0 .535.24.535.535v1.929c0 .296-.24.535-.535.535H12.25h1.715c.296 0 .535.24.535.535v1.929c0 .296-.24.535-.535.535H2.035a.535.535 0 0 1-.535-.535V2.035c0-.296.24-.535.535-.535h11.929c.296 0 .535.24.535.535V3.5m-4.999 8v-.938c0-1.593-.247-2.434-2-2.75h0c.571-.332.875-1.025.875-1.821 0-1.12-.992-2.027-1.951-2.027s-2.069.908-2.069 2.027c0 .801.397 1.491.975 1.821-1.492.295-1.83 1.235-1.83 2.721v.967h4"/></svg>