<!-- SPDX-FileCopyrightText: © 2025 Schneider Electric SPDX-License-Identifier: LicenseRef-Proprietary -->
<svg xmlns="http://www.w3.org/2000/svg" viewBox="0 0 16 16"><path fill="none" stroke="currentColor" stroke-linecap="round" stroke-linejoin="round" d="M5.5 15.5V9.004c1.889-2.002 5-1.679 5-1.679v6.642c-1.372.046-2.461.355-3.269.704M3.647 8.337C2.918 7.85 1.838 7.494.5 7.552v6.269s3.67.42 4.719 1.679M7.103.807C6.59.361 5.936.409 5.388.9h-.007L2.075 3.632M15.5.843c-.511-.445-1.379-.434-1.927.056l-2.044 2.732M7.5 3.706v.386c0 .789.709 1.434 1.576 1.434h.859c.861 0 1.566-.641 1.566-1.425v-.395m-9.001 0v.386c0 .792.705 1.434 1.576 1.434h.859c.865 0 1.566-.638 1.566-1.425v-.395M6.5 3.5h3m-7 0h2"/></svg>