<!-- SPDX-FileCopyrightText: © 2025 Schneider Electric SPDX-License-Identifier: LicenseRef-Proprietary -->
<svg xmlns="http://www.w3.org/2000/svg" viewBox="0 0 16 16"><path fill="none" stroke="currentColor" stroke-linecap="round" stroke-linejoin="round" d="M11.5 3.5v9m-.113-8.954 2.092-1.526M11.5 3.5h-9m13 7V1.118A.62.62 0 0 0 14.882.5H3.974a.62.62 0 0 0-.434.178L.684 3.495a.62.62 0 0 0-.184.44v10.947c0 .341.277.618.618.618h10.269a.62.62 0 0 0 .44-.184l2.805-2.838m-9.882.123 1.215 1.288 1.289-1.248m.013-5.805L6.032 5.475 4.8 6.801m1.157 6.742.025-7"/></svg>