<!-- SPDX-FileCopyrightText: © 2025 Schneider Electric SPDX-License-Identifier: LicenseRef-Proprietary -->
<svg xmlns="http://www.w3.org/2000/svg" viewBox="0 0 16 16"><g fill="none" stroke="currentColor" stroke-linecap="round" stroke-linejoin="round"><path d="M4.422.543 3.96.735"/><path stroke-dasharray=".811 0" d="m1.711 1.666-.749.311"/><path d="M.962 1.977.5 2.168"/></g><path fill="none" stroke="currentColor" stroke-dasharray=".25" stroke-linecap="round" stroke-linejoin="round" d="M.5 7.75V7.5"/><path fill="none" stroke="currentColor" stroke-linecap="round" stroke-linejoin="round" d="M.5 4.5V5m0 0v.5"/><path fill="none" d="M.5 2.5z"/><path fill="none" stroke="currentColor" stroke-dasharray=".793" stroke-linecap="round" stroke-linejoin="round" d="m5.932 3.184.736-.295"/><path fill="none" stroke="currentColor" stroke-dasharray=".661" stroke-linecap="round" stroke-linejoin="round" d="m2.358 2.944.614.245"/><path fill="none" stroke="currentColor" stroke-dasharray=".26" stroke-linecap="round" stroke-linejoin="round" d="M8.5 2.24v.26"/><path fill="none" stroke="currentColor" stroke-linecap="round" stroke-linejoin="round" d="M8.5 5.5V5m0 0v-.5"/><g fill="none" stroke="currentColor" stroke-linecap="round" stroke-linejoin="round"><path d="m8.391 2.2-.462-.192"/><path stroke-dasharray=".825 0" d="M5.645 1.054 4.883.736"/><path d="M4.883.736 4.422.543"/></g><g fill="none" stroke="currentColor" stroke-linecap="round" stroke-linejoin="round"><path d="m.5 8 .461.195"/><path stroke-dasharray=".814 0" d="m3.211 9.145.75.317"/><path d="m3.961 9.462.461.195"/></g><path fill="none" stroke="currentColor" stroke-linecap="round" stroke-linejoin="round" d="M4.5 6.5V7m0 0v.5"/><path fill="none" stroke="currentColor" stroke-dasharray=".69" stroke-linecap="round" stroke-linejoin="round" d="M4.5 3.9v.69"/><g fill="none" stroke="currentColor" stroke-linecap="round" stroke-linejoin="round"><path d="m4.422 9.657.475-.156"/><path stroke-dasharray=".08 0" d="m5.124 9.426.075-.025"/><path d="m5.199 9.401.475-.157"/></g><path fill="none" stroke="currentColor" stroke-linecap="round" stroke-linejoin="round" d="m7.5 7.96 4-1.68 4 1.68v5.88l-4 1.68-4-1.68v-3.9M7.609 8l3.898 1.657 2.149-.892M11.5 13.5V9.62m.801-6.059L13.5 4.744V1.5h-3m4.197 2.062-1.189 1.183m-9.809 7.694L2.5 11.256V14.5h3m-4.153-2.095 1.134-1.128"/></svg>