<!-- SPDX-FileCopyrightText: © 2025 Schneider Electric SPDX-License-Identifier: LicenseRef-Proprietary -->
<svg xmlns="http://www.w3.org/2000/svg" viewBox="0 0 16 16"><path fill="none" stroke="currentColor" stroke-linecap="round" stroke-linejoin="round" d="M9.5 1.5a1 1 0 1 1-2 0 1 1 0 0 1 2 0Zm-2 11v3h2v-5h1.211a.79.79 0 0 0 .789-.789V6.079A1.58 1.58 0 0 0 9.921 4.5H7.5m5-4a1 1 0 1 0 0 2 1 1 0 0 0 0-2Zm-1 12v3h2v-5h1.211a.79.79 0 0 0 .789-.789V6.079A1.58 1.58 0 0 0 13.921 4.5H12.5M2.453 5.658.505 4.511.5 8.655l1.665 1.054M3.5 10.5l.003-4m.065 3.986L7.5 8.655V4.501M3.6 6.425l2.418-.857M.505 4.511l3.548-1.476m-.001-.001L7.605 4.51"/></svg>