<!-- SPDX-FileCopyrightText: © 2025 Schneider Electric SPDX-License-Identifier: LicenseRef-Proprietary -->
<svg xmlns="http://www.w3.org/2000/svg" viewBox="0 0 16 16"><path fill="none" stroke="currentColor" stroke-linecap="round" stroke-linejoin="round" d="m3.626 11.788-1.138-1.289 1.175-1.215M8.3 11.802l1.242-1.235-1.209-1.232M2.5 10.5l7 .025m2-6.025v8m-.113-7.963 1.927-1.84M11.5 4.5h-9m12.132 7.978-2.805 2.838a.62.62 0 0 1-.44.184H1.118a.62.62 0 0 1-.618-.618V3.935c0-.165.066-.324.184-.44L3.54.678A.62.62 0 0 1 3.974.5h10.908c.341 0 .618.277.618.618V10.5"/></svg>