<!-- SPDX-FileCopyrightText: © 2025 Schneider Electric SPDX-License-Identifier: LicenseRef-Proprietary -->
<svg xmlns="http://www.w3.org/2000/svg" viewBox="0 0 16 16"><path fill="none" stroke="currentColor" stroke-linecap="round" stroke-linejoin="round" d="M9.5 3.5v6m.13-6.145.873-.873M9.5 3.5h-7m10 5V.988A.49.49 0 0 0 12.012.5H3.277a.5.5 0 0 0-.343.14L.645 2.898a.5.5 0 0 0-.145.347v8.767c0 .269.218.488.488.488h8.004c.13 0 .255-.052.347-.145l2.246-2.273m-1.059 3.411-.123 2.031L12.5 15.5m2.911-3.838.089-1.835-1.809.066m-3.14 5.518 4.789-5.429"/></svg>