<!-- SPDX-FileCopyrightText: © 2025 Schneider Electric SPDX-License-Identifier: LicenseRef-Proprietary -->
<svg xmlns="http://www.w3.org/2000/svg" viewBox="0 0 16 16"><path fill="none" stroke="currentColor" stroke-linecap="round" stroke-linejoin="round" d="M8 10.301V8M1.505 6.849V4.25M8 15.5v-2.301m1.993-6.35L8 8m6.495-3.704-2.153 1.243m2.153-1.243-2.153 1.243M1.505 4.25l2.153 1.289M8 8 6.007 6.849M3.658 3.007 1.505 4.25m12.99 2.589V4.24m-2.153-1.243 2.153 1.243M6.047 14.372 8 15.5l1.993-1.151m0-12.698L8 .5 6.047 1.628M1.505 9.449v2.301l2.153 1.243m8.684 0 2.153-1.243V9.449"/></svg>