<!-- SPDX-FileCopyrightText: © 2025 Schneider Electric SPDX-License-Identifier: LicenseRef-Proprietary -->
<svg xmlns="http://www.w3.org/2000/svg" viewBox="0 0 16 16"><path fill="none" stroke="currentColor" stroke-linecap="round" stroke-linejoin="round" d="M11.5 1.5a1 1 0 1 1-2 0 1 1 0 0 1 2 0Zm-2 10v4l2-.011V10.5h1.211a.79.79 0 0 0 .789-.789V6.079A1.58 1.58 0 0 0 11.921 4.5H8.5M3.317 5.652 1.483 4.358 1.5 8.596l1.628 1.086M4.5 10.5l.003-4m.208 3.97L8.5 8.597V4.5M6.655 5.55l-2.04.901M1.467 4.359l3.968-1.51m2.88 1.51-2.764-1.51"/></svg>