<!-- SPDX-FileCopyrightText: © 2025 Schneider Electric SPDX-License-Identifier: LicenseRef-Proprietary -->
<svg xmlns="http://www.w3.org/2000/svg" viewBox="0 0 16 16"><path fill="none" stroke="currentColor" stroke-linecap="round" stroke-linejoin="round" d="M9.5 3.918V2.5m-7 2.151v6.023l3 2.213 2.521-.866M9.5 2.5 7.072.5 2.5 2.713m0 .046 3.039 2.166 2.266-1.31M5.5 4.867v7.673m3-4.04v3.521l2 1.588 3-1.588V6.5m0 0-2.047-1.438-2.957 1.252m0 .107L10.5 8.105l1.256-.604m-1.256.712v3.367m-8.393-1.273C.833 10.998.5 11.619.5 12.286.5 14.061 3.858 15.5 8 15.5c1.815 0 3.479-.276 4.776-.736m1.551-.752c.742-.499 1.173-1.091 1.173-1.727 0-.663-.507-1.59-1.715-1.914"/></svg>