<!-- SPDX-FileCopyrightText: © 2025 Schneider Electric SPDX-License-Identifier: LicenseRef-Proprietary -->
<svg xmlns="http://www.w3.org/2000/svg" viewBox="0 0 16 16"><path fill="none" stroke="currentColor" stroke-linecap="round" stroke-linejoin="round" d="m9.58 2.76-1.115.473-3.994-1.337L8.353.661l3.128 1.241.019 3.758-3 1.086V5.501M4.471 1.895l.07 3.786 1.869.599M1.5 9.5v3.564l6.906 2.528 6.094-2.16v-1.933m-6.529 1.899-.073-3.742m-1.405 1.576 1.774-2.044-6.446-2.425m-.331 2.45 5.003 2.019M4.516 5.614 1.407 6.763.5 8.071m15 .582-1.935-2.177-1.812-.699m.729 1.978L8.266 9.188l1.505 1.761 4.123-1.522"/></svg>