<!-- SPDX-FileCopyrightText: © 2025 Schneider Electric SPDX-License-Identifier: LicenseRef-Proprietary -->
<svg xmlns="http://www.w3.org/2000/svg" viewBox="0 0 16 16"><circle cx="11" cy="3" r="1"/><circle cx="7" cy="3" r="1"/><circle cx="3" cy="3" r="1"/><circle cx="3" cy="7" r="1"/><circle cx="3" cy="11" r="1"/><path fill="none" stroke="currentColor" stroke-linecap="round" stroke-linejoin="round" d="M6.684 6.816 5.5 8v4.711a.79.79 0 0 1-.789.789H1.289a.79.79 0 0 1-.789-.789V1.289C.5.853.853.5 1.289.5H12.71c.436 0 .789.353.789.789V4.71a.79.79 0 0 1-.789.789H8.499m1.52 5.313 3.089 1.459m1.778-1.868.614.614-2.563.28-2.756 2.756m3.036-4.164.578-.578-.63-.63-1.075-1.075-.28 2.563-.921.921m-2.025.877 3.089 1.459m-1.155 1.156-3.089-1.459m.568.289L7.476 15.5l2.47-1.126"/></svg>