<!-- SPDX-FileCopyrightText: © 2025 Schneider Electric SPDX-License-Identifier: LicenseRef-Proprietary -->
<svg xmlns="http://www.w3.org/2000/svg" viewBox="0 0 16 16"><path fill="none" stroke="currentColor" stroke-linecap="round" stroke-linejoin="round" d="M9.536 4.013a3.186 3.186 0 0 1 3.186 3.186m2.341 0a5.526 5.526 0 0 0-5.526-5.526m-1.965-.006L5.394.5l-3.885.843m0 10.705L5.402 15.5l3.885-.805M1.5 1.343v10.705zm6.996 5.765-1.893.4m-.104 4.927 1.274-.386M5.5 15.5v-2.721l1-.342V7.689l-1-.786V3.499m2.17-.255L5.511 3.5m3.989 11v-2.54l1-.343V6.501"/></svg>