<!-- SPDX-FileCopyrightText: © 2025 Schneider Electric SPDX-License-Identifier: LicenseRef-Proprietary -->
<svg xmlns="http://www.w3.org/2000/svg" viewBox="0 0 16 16"><path fill="none" stroke="currentColor" stroke-linecap="round" stroke-linejoin="round" d="m.5 9.458 3 .042V6.649l.988-.732 1.145.907.069 1.675H7.5V3.362l2 .738v6.4h2V6.18l2 .759V9.5h1.944l-.015.083a4.9 4.9 0 0 1-.568 1.712C13.491 13.729 11.002 15.5 8 15.5c-2.701 0-5.219-1.462-6.671-3.501M15.5 6.767a7.5 7.5 0 0 0-.607-1.943A7.56 7.56 0 0 0 6.805.605C2.694 1.294.5 4.162.5 9.272"/></svg>