<!-- SPDX-FileCopyrightText: © 2025 Schneider Electric SPDX-License-Identifier: LicenseRef-Proprietary -->
<svg xmlns="http://www.w3.org/2000/svg" viewBox="0 0 16 16"><path fill="none" stroke="currentColor" stroke-linecap="round" stroke-linejoin="round" stroke-width="1.011" d="M7.904 10.344c.18-.62.506-1.196.962-1.671l.775.582a3 3 0 0 1 1.25-.714l-.162-.957a3.9 3.9 0 0 1 1.874-.012l-.024.996a3 3 0 0 1 1.194.717l.717-.639a4.04 4.04 0 0 1 1.004 1.749l-.872.439a3.1 3.1 0 0 1-.019 1.377l.896.338a4.04 4.04 0 0 1-.957 1.718l-.789-.54a3 3 0 0 1-.518.385c-.216.13-.464.22-.71.292l.163.97a3.9 3.9 0 0 1-1.904.021l.034-.992a3 3 0 0 1-1.184-.698l-.772.584a4 4 0 0 1-.959-1.667l2.586-1.138a1.213 1.213 0 1 1 1.71 1.107M14.5 6.5v-3h-3v2h-2v-2h-2v-3h-4v4h-1v7h-2"/></svg>