<!-- SPDX-FileCopyrightText: © 2025 Schneider Electric SPDX-License-Identifier: LicenseRef-Proprietary -->
<svg xmlns="http://www.w3.org/2000/svg" viewBox="0 0 16 16"><path fill="none" stroke="currentColor" stroke-linecap="round" stroke-linejoin="round" d="M7.443 5.222c1.608-1.081 3.304-1.326 4.158-.479 1.071 1.062.412 3.437-1.472 5.306s-4.279 2.522-5.35 1.46c-.425-.421-.578-1.05-.489-1.771m2.745-.467c.363.36 1.174.138 1.812-.494.558-.554.799-1.239.607-1.642M2.984.672c-.363-.36-1.174-.138-1.812.494S.311 2.603.673 2.963s1.174.138 1.812-.494m-1.811.494C2.848 5.616 3.808 6.83 7.035 9.271m-2.257 2.237c1.596 2.053 2.97 3.283 3.992 3.992m2.831-10.757c1.514 1.948 2.869 3.116 3.899 3.813M2.984.672C4.87 2.776 5.963 3.994 8.233 6.009"/></svg>