<!-- SPDX-FileCopyrightText: © 2025 Schneider Electric SPDX-License-Identifier: LicenseRef-Proprietary -->
<svg xmlns="http://www.w3.org/2000/svg" viewBox="0 0 16 16"><path fill="none" stroke="currentColor" stroke-linecap="round" stroke-linejoin="round" d="M9.455 4.721c.872-.221 1.876-.185 2.363.312 1.011 1.033.389 3.345-1.39 5.163s-4.041 2.454-5.052 1.421c-.294-.3-.692-1.201-.372-1.775m1.658.444c.394.14.908-.321 1.149-1.03.21-.62.141-1.223-.143-1.458M1.771 5.68c-.394-.14-.908.321-1.149 1.03S.506 8.106.9 8.245s.678.034 1.056-.679m3.047 2.275c.545.157.983.298 1.659.445M.9 8.245c.868.414 1.566.729 2.194.983m2.281 2.388c1.507 1.997 2.805 3.195 3.769 3.884m2.674-10.467c1.43 1.895 2.709 3.032 3.682 3.71M1.771 5.68c2.133.903 4.01 1.622 5.622 1.967M3.617 1.735c-.308-.287-.959-.07-1.452.485s-.644 1.236-.336 1.523.647.308 1.217-.196m-1.217.195c1.327 1.517 2.145 2.346 3.147 3.16m2.987.745c.166.391.846.466 1.519.168.589-.261.977-.721.954-1.094M7.973.85C7.807.459 7.127.384 6.454.682s-1.084.857-.918 1.248.466.553 1.188.331m-3.043-.504c-.298-.298-.956-.105-1.469.431s-.687 1.212-.389 1.51.636.332 1.223-.151m2.49-1.616c.347 1.122 2.09 5.131 2.427 5.716M7.973.85c.723 2.021.83 2.674 1.482 3.871"/></svg>