<!-- SPDX-FileCopyrightText: © 2025 Schneider Electric SPDX-License-Identifier: LicenseRef-Proprietary -->
<svg xmlns="http://www.w3.org/2000/svg" viewBox="0 0 16 16"><path fill="none" stroke="currentColor" stroke-linecap="round" stroke-linejoin="round" d="M12.5 6.5H.5m9-4h-3v-.78C6.5 1.224 6.278.5 5.463.5h.021c-.755 0-.983.724-.983 1.22v1.324c0 .786.074 1.456 1.066 1.456h-.066M2.5 2.5l-.247.002A1.764 1.764 0 0 0 .5 4.267v9.469c0 .975.79 1.765 1.765 1.765h11.471c.975 0 1.765-.79 1.765-1.765V4.263h0c0-.973-.789-1.763-1.763-1.763h-1.237m.999 0h-2v-.78c0-.496-.222-1.22-1.037-1.22h.021c-.755 0-.983.724-.983 1.22v1.324c0 .786.074 1.456 1.066 1.456h-.066"/><circle cx="3" cy="11" r="1"/><circle cx="6" cy="11" r="1"/><circle cx="9" cy="11" r="1"/><circle cx="12" cy="11" r="1"/></svg>