<!-- SPDX-FileCopyrightText: © 2025 Schneider Electric SPDX-License-Identifier: LicenseRef-Proprietary -->
<svg xmlns="http://www.w3.org/2000/svg" viewBox="0 0 16 16"><path d="M8.933 7.467q.319.239.393.662.073.423-.12.969-.202.57-.609 1.006a2.9 2.9 0 0 1-.951.676q-.546.24-1.144.235a2.4 2.4 0 0 1-.909-.178 1.6 1.6 0 0 1-.647-.465q-.125-.167-.045-.39a.74.74 0 0 1 .209-.309q.145-.128.281-.126.08 0 .141.03.062.03.134.097.237.234.497.361t.602.129a1.48 1.48 0 0 0 .902-.266q.376-.27.555-.774.172-.487-.009-.775-.182-.288-.677-.292-.312-.003-.587.086c-.275.089-.386.16-.607.301a.7.7 0 0 1-.349.105q-.16-.001-.236-.101-.077-.1-.018-.266l.914-2.578q.082-.231.256-.362c.174-.131.252-.13.406-.129l2.657.023q.479.005.333.417c-.146.412-.306.412-.626.409l-2.138-.018-.557 1.57a2.15 2.15 0 0 1 1.103-.289q.527.004.846.244Z"/><path fill="none" stroke="currentColor" stroke-linecap="round" stroke-linejoin="round" d="M9.895 3.151a1.9 1.9 0 0 1-.216-.95c.008-.396.104-.758.258-1.041m1.649-.034c-.19-.387-.453-.619-.794-.626s-.649.28-.854.659m-.001.001c-.19-.387-.488-.653-.829-.659s-.649.247-.855.626m.001-.001c-.153.284-.25.645-.258 1.041s.073.695.216.984m.042-2.025C8.064.739 7.766.507 7.425.5s-.649.213-.855.592m0 0c-.153.284-.25.645-.258 1.041-.008.398.073.728.217 1.018v.034m.041-2.093C6.38.705 6.039.507 5.698.5c-.596-.012-1.051.674-1.069 1.599-.008.398.073.765.217 1.055v-.003m-1.188 11.56 10.263.789L15.5 3.658l-.798-.789m-10.255 0H3.43C3.657 8.33.5 12.933.5 12.933l9.691.808s2.709-3.014 2.927-8.581m1.592-2.291h-1.579m.354 0c0-1.709-.449-2.356-1.045-2.368s-1.093.843-1.112 1.768c-.008.397.073.592.217.883"/></svg>