<!-- SPDX-FileCopyrightText: © 2025 Schneider Electric SPDX-License-Identifier: LicenseRef-Proprietary -->
<svg xmlns="http://www.w3.org/2000/svg" viewBox="0 0 16 16"><path fill="none" stroke="currentColor" stroke-linecap="round" stroke-linejoin="round" d="M13.562 9.5h-1.255s-.45-.9-.45-1.005H4.274L3.596 9.5H2.281c-.261 0-.465-.827-.465-1.544S1.665 4.749 2.359 4s1.005-.761 1.206-1.021c.201-.261.764-2.478 2.03-2.478h4.947c1.22 0 1.762 2.135 1.955 2.386s.494.262 1.162.984.523 1.997.523 2.687m-9.801-.985 1.566.081m5.803-.081-1.566.081m1.899 6.535c-1.314-.82-2.679-1.268-4.083-1.268s-2.769.447-4.083 1.268m6.732 1.74c-.861-.569-1.745-.883-2.649-.883s-1.787.314-2.649.883M9.265 15.5c-.416-.248-.838-.385-1.265-.385s-.849.137-1.265.385"/></svg>