<!-- SPDX-FileCopyrightText: © 2025 Schneider Electric SPDX-License-Identifier: LicenseRef-Proprietary -->
<svg xmlns="http://www.w3.org/2000/svg" viewBox="0 0 16 16"><path fill="none" stroke="currentColor" stroke-linecap="round" stroke-linejoin="round" d="M8.5 11.5H3.848c.025-.025-.385.899-1.675.899a1.635 1.635 0 0 1-1.634-1.638c0-.021-.714-7.147 3.96-7.13v2.83C4.503 7.5 6.064 7.5 6.053 7.5h4.93C8.77 4.863 6.508 5.111 6.499 5.083V3.356c5.557 0 5.584 3.074 7.056 3.538 1.065.336 1.844 1.125 1.916 2.154.078 1.111 0 2.213 0 2.451h-1.995c-.28.291-.821.92-1.467.92a1.63 1.63 0 0 1-1.628-1.632"/></svg>