<!-- SPDX-FileCopyrightText: © 2025 Schneider Electric SPDX-License-Identifier: LicenseRef-Proprietary -->
<svg xmlns="http://www.w3.org/2000/svg" viewBox="0 0 16 16"><path fill="none" stroke="currentColor" stroke-linecap="round" stroke-linejoin="round" stroke-width=".998" d="M3.5 5.115v-.522c0-.788 3-2.084 3-2.084v-.775l-1-.228V.499S7.591.534 8 .534s2.5-.035 2.5-.035v1.008l-1 .228v.672s1.809.781 2.713 1.529M3.491 5.003v8.596c.208.243.728 1.838 4.677 1.838 3.008 0 4.331-1.246 4.331-1.938h.001l.003-.558M3.5 12.842l.096-2.361c0 .601 1.69 1.8 4.541 1.8S12.5 10.95 12.5 10.348q0 0 0 0h0V9.301m-9-.737V6.736c0 .483 2.061 1.559 4.637 1.559s4.362-.924 4.363-1.407h0s0 0 0 0V5.662"/></svg>