<!-- SPDX-FileCopyrightText: © 2025 Schneider Electric SPDX-License-Identifier: LicenseRef-Proprietary -->
<svg xmlns="http://www.w3.org/2000/svg" viewBox="0 0 16 16"><path fill="none" stroke="currentColor" stroke-linecap="round" stroke-linejoin="round" d="m10.5 12.599-.5.005c-.275.003-.5-.326-.5-.729V3.234c0-.404.33-.736.734-.739l4.532-.029a.73.73 0 0 1 .734.729v8.601c0 .404-.33.736-.734.739l-2.266.014M11.5 2.5v9.031M.5 15.5v-1.266c0-.404.33-.734.734-.734h.686a.58.58 0 0 0 .58-.58V3.08a.58.58 0 0 0-.58-.58h-.686A.736.736 0 0 1 .5 1.766V.5m5.462 4.907v4m-1.498-.74 1.025.988a.736.736 0 0 0 1.038-.019l.933-.969"/><circle cx="1.034" cy="6.537" r=".5"/><circle cx="1.034" cy="4.537" r=".5"/></svg>