<!-- SPDX-FileCopyrightText: © 2025 Schneider Electric SPDX-License-Identifier: LicenseRef-Proprietary -->
<svg xmlns="http://www.w3.org/2000/svg" viewBox="0 0 16 16"><path fill="none" stroke="currentColor" stroke-linecap="round" stroke-linejoin="round" d="M15.5 13.038c-4.407-1.464-6.433-.103-9.314-.103-5.655 0-7.328-5.18-3.947-8.423 2.274-2.18 6.744-2.012 8.546.192m-.227 5.405.09-.661-1.215-.178m3.379.501-.668-.1-.094.643m1.704.883a3.36 3.36 0 0 0 .329-2.691L15.5 6.493l-2.603.304a3.37 3.37 0 0 0-3.03-.536L7.493 4.957l.628 2.562a3.3 3.3 0 0 0-.554 1.264 3.36 3.36 0 0 0 .449 2.496"/></svg>