<!-- SPDX-FileCopyrightText: © 2025 Schneider Electric SPDX-License-Identifier: LicenseRef-Proprietary -->
<svg xmlns="http://www.w3.org/2000/svg" viewBox="0 0 16 16"><path fill="none" stroke="currentColor" stroke-linecap="round" stroke-linejoin="round" d="M5.5 1.5v5.143c-.142.039-.571.07-.889.467M7.5 1.5v5.143c1.608.336 1.65 2.323 1.65 2.323m-.478 2.427 5.47.809c.469.041 2.243-2.156.757-2.42l-3.737-.177-.131-.006m-8.321 1.8L.976 12.445c-.997.86.167 2.189 1.384 1.497l3.076-1.846m3.235-.746a.84.84 0 0 0 .094-.382c0-.604-.677-1.112-1.597-1.263a3.6 3.6 0 0 0-1.042-.013c-.967.131-1.69.653-1.69 1.277 0 .723.969 1.309 2.164 1.309q.117 0 .231-.007M5.555 8.069l-2.716-2.26c-1.016-.65-2.796.226-2.231.847l4.275 3.425"/></svg>