<!-- SPDX-FileCopyrightText: © 2025 Schneider Electric SPDX-License-Identifier: LicenseRef-Proprietary -->
<svg xmlns="http://www.w3.org/2000/svg" viewBox="0 0 16 16"><path fill="none" stroke="currentColor" stroke-linecap="round" stroke-linejoin="round" d="M13.788 6.378a6.04 6.04 0 0 1 .009 3.18m-1.631-.86a4.3 4.3 0 0 0 .051-.974M6.442 13.8a6 6 0 0 0 3.178-.009m-2.319-1.623a4.3 4.3 0 0 0 .973.051M2.202 6.442a6 6 0 0 0-.207 1.573c0 .556.075 1.094.216 1.605m1.623-2.319a4.3 4.3 0 0 0-.051.974M9.558 2.2a6.04 6.04 0 0 0-3.18.009m2.319 1.623a4.3 4.3 0 0 0-.974-.052m.748 6.752 4.609 4.609a1.066 1.066 0 0 0 1.507 0l.469-.469a1.517 1.517 0 0 0 0-2.145l-.305-.305c-.592-.592-4.159-3.198-4.751-2.606l-.286-.111a2.27 2.27 0 0 0 .551-1.781q.145-.074.268-.195l4.61-4.61a1.066 1.066 0 0 0 0-1.507l-.469-.469a1.517 1.517 0 0 0-2.145 0l-.305.306C11.632 1.841 9.026 5.408 9.618 6l-.111.286a2.27 2.27 0 0 0-1.781-.551 1 1 0 0 0-.195-.268L2.92.859a1.065 1.065 0 0 0-1.507 0l-.469.469a1.517 1.517 0 0 0 0 2.145l.305.306C1.841 4.371 5.408 6.977 6 6.385l.286.111a2.27 2.27 0 0 0-.551 1.781 1.1 1.1 0 0 0-.268.194L.859 13.08a1.066 1.066 0 0 0 0 1.507l.469.468a1.517 1.517 0 0 0 2.145 0l.305-.305c.592-.592 3.199-4.159 2.607-4.751"/></svg>