<!-- SPDX-FileCopyrightText: © 2025 Schneider Electric SPDX-License-Identifier: LicenseRef-Proprietary -->
<svg xmlns="http://www.w3.org/2000/svg" viewBox="0 0 16 16"><path fill="none" stroke="currentColor" stroke-linecap="round" stroke-linejoin="round" d="M7.175 10.036a1.32 1.32 0 0 1-.432 2.566c-.728 0-1.316-.59-1.316-1.319 0-.293.094-.563.256-.782l-1.646-.007c.164.22.261.493.261.789 0 .728-.59 1.302-1.317 1.302a1.318 1.318 0 0 1-1.058-2.104H.5V8.499h2.384S1.561 7.222.52 5.3l.842-1.729S5.781 2.56 8.325 5.153c0 0 .806.94-.758 3.348h2.928V5.487h1.872l.675 1.736 2.459.556v2.715l-1.694-.012a1.32 1.32 0 0 1-1.06 2.103 1.318 1.318 0 0 1-.442-2.562"/></svg>