<!-- SPDX-FileCopyrightText: © 2025 Schneider Electric SPDX-License-Identifier: LicenseRef-Proprietary -->
<svg xmlns="http://www.w3.org/2000/svg" viewBox="0 0 16 16"><path fill="none" stroke="currentColor" stroke-linecap="round" stroke-linejoin="round" d="M3.5 5.5h3m-3 5h7M2.5 8h3m6.164-1.663 3.726-3.726c.266-.266.034-.93-.518-1.482S13.656.344 13.39.611L8.155 5.846l-.388 2.389 2.389-.388M8.5 2.5H2.489A1.99 1.99 0 0 0 .5 4.489V11.5c0 1.099.891 2 1.989 2H5.5l3 2m1-2h2.011a1.99 1.99 0 0 0 1.989-1.989V7.5"/></svg>