<!-- SPDX-FileCopyrightText: © 2025 Schneider Electric SPDX-License-Identifier: LicenseRef-Proprietary -->
<svg xmlns="http://www.w3.org/2000/svg" viewBox="0 0 16 16"><path fill="none" stroke="currentColor" stroke-linecap="round" stroke-linejoin="round" d="M3.473 9.096 4.577 7.5H1.699A1.176 1.176 0 0 1 .5 6.333V1.667C.5 1.038 1.011.5 1.699.5h5.606c.8 0 1.194.47 1.194 1.167V4.5m4.001 9h1.772c.71 0 1.228-.535 1.228-1.16V7.666c0-.624-.517-1.167-1.228-1.167H7.727c-.71 0-1.228.542-1.228 1.167v4.606c0 .675.552 1.228 1.228 1.228H9.53l2.115 2M2.949 2.503h3.159m-1.579-.772v.772M3.45 5.805c.076-.029 1.336-.278 2.077-2.819m-1.746.817c.462 1.03.749 1.412 1.539 1.883q.098.058.206.119m7.195 5.684-1.657-3.314-1.785 3.314m2.768-1h-2.046"/></svg>