<!-- SPDX-FileCopyrightText: © 2025 Schneider Electric SPDX-License-Identifier: LicenseRef-Proprietary -->
<svg xmlns="http://www.w3.org/2000/svg" viewBox="0 0 16 16"><path fill="none" stroke="currentColor" stroke-linecap="round" stroke-linejoin="round" d="M12.249 5.176c1.92.403 3.251 1.721 3.251 3.284 0 1.695-1.768 3.146-3.937 3.408.22 1.017 1.319 1.919 1.319 1.919-2.764-.277-3.678-2.16-3.678-2.16-1.697-.501-2.897-1.731-2.897-3.168 0-1.324 1.019-2.472 2.507-3.037.156-.059.55-.2 1.109-.292 0 0 1.269-.192 2.325.045ZM10.661 3.33c-1.189-.9-2.49-1.187-4.172-1.187C3.181 2.143.5 4.072.5 6.452c0 2.062 2.021 3.772 4.7 4.209.002 0-.248.716-.792 1.47-.605.839-1.511 1.726-1.511 1.726a7.35 7.35 0 0 0 3.789-1.223"/></svg>