<!-- SPDX-FileCopyrightText: © 2025 Schneider Electric SPDX-License-Identifier: LicenseRef-Proprietary -->
<svg xmlns="http://www.w3.org/2000/svg" viewBox="0 0 16 16"><path fill="none" stroke="currentColor" stroke-linecap="round" stroke-linejoin="round" d="m6.816.5 7.745.023s.939.004.939.938v8.512M.501 5.236v9.073s.077 1.189 1.21 1.189H7.83s.704.102 1.865-.772c1.282-.964 1.627-.653 2.674-.671 0 0 .168.553 1.03.553s.882-1.041.545-1.378c0 0 .195-.348.195-.725s-.324-.716-.739-.716c0 0-.394.065-.713.384l-1.581.002s-1.004-.051-1.492-.538c0 0-.901-.723-1.89-.723 0 0-1.848-.138-1.73 1.443 0 0 .088.735.502 1.148l-1.297-.004s-2.55-.064-2.477-2.154c0 0-.119-1.72 2.202-2.532 0 0 1.48-1.313 3.263-1.313 0 0 2.159-.272 3.28 2.478M10.063 5.5c.534-.83-.094-1.687-.094-1.687-.567-.762-.211-1.325-.211-1.325M7.957 5.5c.534-.83-.094-1.687-.094-1.687-.567-.762-.212-1.325-.212-1.325M5.815 5.5c.534-.83-.094-1.687-.094-1.687-.567-.762-.211-1.325-.211-1.325"/></svg>