<!-- SPDX-FileCopyrightText: © 2025 Schneider Electric SPDX-License-Identifier: LicenseRef-Proprietary -->
<svg xmlns="http://www.w3.org/2000/svg" viewBox="0 0 16 16"><path fill="none" stroke="currentColor" stroke-linecap="round" stroke-linejoin="round" d="M3.43 5.626 1.721 7.28M3.5 13.5H1.37c-.342 0-.877.416-.877 1.046 0 .812.667.954 1.008.954h3.838c.431 0 .74-.331.868-.784.155-.55-.102-1.158-.295-1.356l-1.731-2.005-.977.458c-1.361.85-2.31-.457-2.31-.457-.522-.854-.572-2.6.172-3.31l.543-.633c.067-.064.358-.209.442-.194s.16.072.208.156l1.182 2.198L4.64 8.568l.98.77a.57.57 0 0 0 .366.163l1.675-.015c.34 0 1.015-.113 1.015-1.056 0-.794-.688-.929-1.028-.929H6.4L5.252 5.47m.017-.037c.792.421 1.776.123 2.199-.667s.123-1.772-.669-2.193a1.628 1.628 0 0 0-2.384 1.281M8.56 15.485c1.039-2.279 2.147-4.818 2.147-7.488S9.598 2.793 8.559.514m3.806 11.162c1.095-1.33 2.04-2.659 3.135-3.989l-2.892.534c.881-1.365 2.011-2.731 2.892-4.096"/></svg>