<!-- SPDX-FileCopyrightText: © 2025 Schneider Electric SPDX-License-Identifier: LicenseRef-Proprietary -->
<svg xmlns="http://www.w3.org/2000/svg" viewBox="0 0 16 16"><path fill="none" stroke="currentColor" stroke-linecap="round" stroke-linejoin="round" stroke-width="1.002" d="m4.413 6.502 1.786-1.506c.433-.341.978-.596 1.471-.401M5.5 13.5H2.407s-.881.007-.881 1.007.881.993.881.993h5.826a.865.865 0 0 0 .709-1.361l-2.195-3.471L4.95 11.96a.44.44 0 0 1-.332.088.43.43 0 0 1-.291-.18l-1.646-1.48c-.595-.853-.638-2.338.179-2.981l.617-.526a.434.434 0 0 1 .623.092l2.149 2.054 1.849-1.509 1.43 1.73c.148.109.328.254.513.254h3.527s.906-.112.906-1.105c0-.927-.906-.895-.906-.895h-2.675L9.725 5.555m.906-.672a2.32 2.32 0 1 0-1.205-1.72m1.205 1.72s-.511.109-.907.656"/></svg>