<!-- SPDX-FileCopyrightText: © 2025 Schneider Electric SPDX-License-Identifier: LicenseRef-Proprietary -->
<svg xmlns="http://www.w3.org/2000/svg" viewBox="0 0 16 16"><path fill="none" stroke="currentColor" stroke-linecap="round" stroke-linejoin="round" d="M9.09 1.372c.527.311 1.063.892 1.508 1.922 0 0 1.803 4.001-.94 8.131 0 0-1.899 2.872-4.503 3.216C2.58 14.981.791 13.579.5 12.37M6.814 1.306c-1.345.576-2.84 3.765-1.827 7.995s6.017 5.221 6.017 5.221c1.539.39 2.6.054 3.274-.373m1.222-2.482c-.212-1.329-1.348-2.454-1.348-2.454-1.785-1.821-3.97-2.342-5.211-2.489m-2.03-.011C2.383 7.084.916 9.811.916 9.811"/></svg>