<!-- SPDX-FileCopyrightText: © 2025 Schneider Electric SPDX-License-Identifier: LicenseRef-Proprietary -->
<svg xmlns="http://www.w3.org/2000/svg" viewBox="0 0 16 16"><path fill="none" stroke="currentColor" stroke-linecap="round" stroke-linejoin="round" d="M9.301 4.416s-.117-.183-.117-.39V.5c3.578.573 6.316 3.685 6.316 7.448 0 4.171-3.358 7.552-7.5 7.552S.5 12.119.5 7.948C.5 4.185 3.238 1.073 6.816.5m.364 2.29-.261 1.112c-.107.369-.296.726-.616.908h0a1 1 0 0 1-.156.09h0c-.316.188-.718.174-1.088.083l-1.087-.328c-.335-.127-.755-.017-.983.382-.225.393-.113.819.163 1.048l.826.784c.264.277.477.621.473.99h0q.008.09 0 .181h0c.004.369-.209.713-.473.99l-.826.784c-.277.229-.392.65-.163 1.048.225.393.648.508.983.382l1.087-.328c.37-.091.772-.105 1.088.083h0q.081.039.156.091h0c.32.181.509.538.616.907l.261 1.112c.058.355.363.666.82.666a.81.81 0 0 0 .82-.666l.261-1.112c.107-.369.296-.726.616-.908h0q.074-.051.156-.09h0c.316-.188.718-.174 1.088-.083l1.087.328c.335.127.755.017.983-.382.225-.393.113-.819-.163-1.048l-.826-.784c-.264-.277-.477-.621-.473-.99h0a1 1 0 0 1 0-.181h0c-.004-.369.209-.713.473-.99l.826-.784c.277-.229.392-.65.163-1.048-.225-.393-.648-.508-.983-.382l-1.087.328c-.37.091-.772.105-1.088-.083h0a1 1 0 0 1-.156-.091h0a1.1 1.1 0 0 1-.393-.391"/></svg>