<!-- SPDX-FileCopyrightText: © 2025 Schneider Electric SPDX-License-Identifier: LicenseRef-Proprietary -->
<svg xmlns="http://www.w3.org/2000/svg" viewBox="0 0 16 16"><path fill="none" stroke="currentColor" stroke-linecap="round" stroke-linejoin="round" d="M9.603.5v5.368c0 .349.283.632.632.632h3.368v3h-3.368a.63.63 0 0 0-.632.632V13.5h-3v-3.364a.64.64 0 0 0-.636-.636H2.603v-3h3.368a.63.63 0 0 0 .632-.632V2.5h1m-.684-2C3.341 1.073.603 4.185.603 7.948c0 4.171 3.358 7.552 7.5 7.552s7.5-3.381 7.5-7.552c0-3.764-2.432-6.875-6.01-7.448"/></svg>