<!-- SPDX-FileCopyrightText: © 2025 Schneider Electric SPDX-License-Identifier: LicenseRef-Proprietary -->
<svg xmlns="http://www.w3.org/2000/svg" viewBox="0 0 16 16"><path fill="none" stroke="currentColor" stroke-linecap="round" stroke-linejoin="round" d="m.5 5.684.835-.925s1.467-1.886 3.453-1.886c.988 0 1.919.47 2.621.94l1.187.884c.703.469 1.626.987 2.614.987 1.986 0 3.453-1.887 3.453-1.887l.835-.924m.002 10.254h-1.579v-1.463c0-1.032-.621-2.015-1.607-2.319-1.618-.499-3.107.666-3.13 2.182v1.6H6.816v-1.465c0-1.033-.622-2.016-1.61-2.319-1.619-.496-3.103.669-3.127 2.183v1.6H.5m15 .001h-1.579v-1.463c0-1.032-.621-2.015-1.607-2.319-1.618-.499-3.107.666-3.13 2.182v1.6H6.816v-1.465c0-1.033-.622-2.016-1.61-2.319-1.619-.496-3.103.669-3.127 2.183v1.6H.5"/></svg>