<!-- SPDX-FileCopyrightText: © 2025 Schneider Electric SPDX-License-Identifier: LicenseRef-Proprietary -->
<svg xmlns="http://www.w3.org/2000/svg" viewBox="0 0 16 16"><path fill="none" stroke="currentColor" stroke-linecap="round" stroke-linejoin="round" stroke-width="1.002" d="M1.422 8.324a3.16 3.16 0 0 1-.875-1.64A2.793 2.793 0 0 1 3.282 3.37l.351.021A4.31 4.31 0 0 1 7.695.5a4.314 4.314 0 0 1 4.276 3.783l.016-.003a2.4 2.4 0 0 1 1.113-.274c1.609 0 2.849 1.591 2.244 3.292a3.05 3.05 0 0 1-.828 1.221m-6.211 6.784 3.195-1.122v-3.864l1.714-2.591L8.94 6.722 7.82 4.996 2.357 6.179 3.5 8.288v4.793l3 2.418v-4.902l1.254-1.358 2.15-.593"/></svg>