<!-- SPDX-FileCopyrightText: © 2025 Schneider Electric SPDX-License-Identifier: LicenseRef-Proprietary -->
<svg xmlns="http://www.w3.org/2000/svg" viewBox="0 0 16 16"><path fill="currentColor" stroke="currentColor" stroke-linecap="round" stroke-linejoin="round" d="m6.844 14.024 4.697-4.698m0 4.698L6.844 9.326"/><path fill="none" stroke="currentColor" stroke-linecap="round" stroke-linejoin="round" d="M5.5 10.5H3.724c-1.17 0-2.586-.846-3.01-1.937-.776-1.996.675-3.887 2.568-3.887l.351.021a4.31 4.31 0 0 1 4.062-2.879 4.31 4.31 0 0 1 4.276 3.767l.016-.003a2.4 2.4 0 0 1 1.113-.273c1.609 0 2.849 1.584 2.244 3.278-.365 1.024-1.405 1.914-2.492 1.914"/></svg>