<!-- SPDX-FileCopyrightText: © 2025 Schneider Electric SPDX-License-Identifier: LicenseRef-Proprietary -->
<svg xmlns="http://www.w3.org/2000/svg" viewBox="0 0 16 16"><path fill="none" stroke="currentColor" stroke-linecap="round" stroke-linejoin="round" d="M5.5 15.5H3.667c-1.005 0-2.309-.672-2.781-1.56-1.129-2.128.384-4.264 2.396-4.264l.351.021a4.31 4.31 0 0 1 4.062-2.879 4.31 4.31 0 0 1 4.276 3.767l.016-.003a2.4 2.4 0 0 1 1.113-.273c1.787 0 3.118 1.952 1.975 3.84-.466.77-1.659 1.351-2.559 1.351H7.5M6.308 5.144a1.225 1.225 0 0 0-1.594.678m2.448-2.789a3.5 3.5 0 0 0-4.555 1.938M8.015.921C5.061-.273 1.697 1.159.5 4.119"/></svg>