<!-- SPDX-FileCopyrightText: © 2025 Schneider Electric SPDX-License-Identifier: LicenseRef-Proprietary -->
<svg xmlns="http://www.w3.org/2000/svg" viewBox="0 0 16 16"><path fill="none" stroke="currentColor" stroke-linecap="round" stroke-linejoin="round" d="M3.667 9.483c-1.005 0-2.277-.713-2.781-1.862-.966-2.206.384-4.263 2.396-4.263l.351.021A4.31 4.31 0 0 1 7.695.5a4.31 4.31 0 0 1 4.276 3.767l.016-.003a2.4 2.4 0 0 1 1.113-.273c1.609 0 2.849 1.584 2.244 3.278a3.08 3.08 0 0 1-1.366 1.603M11.265 6.15a3.17 3.17 0 0 0-2.262-.94C7.26 5.21 5.8 6.614 5.8 8.329c0 .506.089.962.263 1.357l-4.194 4.375V15.5h1.972l.647-.642a.687.687 0 0 1 .47-1.191c.199 0 .378.084.503.219l.559-.563a.552.552 0 1 1 .788-.772l1.279-1.388s1.62.718 2.777-.08c1.885-1.299 1.45-3.256 1.45-3.256"/></svg>