<!-- SPDX-FileCopyrightText: © 2025 Schneider Electric SPDX-License-Identifier: LicenseRef-Proprietary -->
<svg xmlns="http://www.w3.org/2000/svg" viewBox="0 0 16 16"><path fill="none" stroke="currentColor" stroke-linecap="round" stroke-linejoin="round" d="M12.5 7.5v3h-3m-2 2h-3v3m.675-2.192a4.148 4.148 0 0 0 7.627-.808m-.886-2.692C11.237 8.444 9.599 7.27 7.972 7.27c-2.062 0-3.543 1.505-3.864 3.476m10.281-1.759c.432-.349.775-.82.955-1.324.605-1.694-.635-3.278-2.244-3.278-.402 0-.78.099-1.113.273l-.016.003A4.31 4.31 0 0 0 7.695.894a4.31 4.31 0 0 0-4.062 2.879l-.351-.021A2.784 2.784 0 0 0 .547 7.053c.16.884.762 1.698 1.544 2.151"/></svg>