<!-- SPDX-FileCopyrightText: © 2025 Schneider Electric SPDX-License-Identifier: LicenseRef-Proprietary -->
<svg xmlns="http://www.w3.org/2000/svg" viewBox="0 0 16 16"><path fill="none" stroke="currentColor" stroke-linecap="round" stroke-linejoin="round" d="m12.222 11.021.055-.001c.715 0 1.294.575 1.294 1.283s-.579 1.283-1.294 1.283-1.294-.575-1.294-1.283v-.039M9.32 7.39c-.746-.731-1.845-1.784-2.205-2.14a.94.94 0 0 1-.261-.864c.053-.253.104-.546.104-.733 0-.881-.311-1.623-.925-2.206C5.398.819 4.64.5 3.779.5c-.277 0-.45.031-.568.057a4 4 0 0 0-.635.209L4.482 2.7a.8.8 0 0 1 .204.35c.043.151.054.251.054.313a1.2 1.2 0 0 1-.412.921l-.01.01a1.22 1.22 0 0 1-.929.408 1.2 1.2 0 0 1-.316-.053.8.8 0 0 1-.353-.202L.769 2.557s-.171.403-.211.629C.525 3.373.5 3.475.5 3.749c0 .854.321 1.606.955 2.235.588.609 1.336.917 2.225.917.189 0 .484-.051.739-.103a.96.96 0 0 1 .871.259l3.605 3.575a.94.94 0 0 1 .253.899 3.2 3.2 0 0 0-.094.828c.03 1.693 1.413 3.084 3.119 3.137 1.893.059 3.435-1.501 3.322-3.39-.096-1.608-1.409-2.905-3.03-2.997a3.3 3.3 0 0 0-.794.051.97.97 0 0 1-.869-.259"/></svg>