<!-- SPDX-FileCopyrightText: © 2025 Schneider Electric SPDX-License-Identifier: LicenseRef-Proprietary -->
<svg xmlns="http://www.w3.org/2000/svg" viewBox="0 0 16 16"><path fill="none" stroke="currentColor" stroke-linecap="round" stroke-linejoin="round" d="M15.5 6.5v7H.5V5.456l13 .044m0 0c0-4.636-2.576-2.634-3.614-2.053-1.241.695-3.435.378-3.381-.947m-4.005 9h1m9 0h1m-8 0h5m3-2v-2h-2"/><circle cx="2.5" cy="7.5" r=".5"/><circle cx="4.5" cy="7.5" r=".5"/><circle cx="6.5" cy="7.5" r=".5"/><circle cx="8.5" cy="7.5" r=".5"/><circle cx="3.5" cy="9.5" r=".5"/><circle cx="5.5" cy="9.5" r=".5"/><circle cx="7.5" cy="9.5" r=".5"/><circle cx="9.5" cy="9.5" r=".5"/><circle cx="11.5" cy="9.5" r=".5"/></svg>