<!-- SPDX-FileCopyrightText: © 2025 Schneider Electric SPDX-License-Identifier: LicenseRef-Proprietary -->
<svg xmlns="http://www.w3.org/2000/svg" viewBox="0 0 16 16"><path fill="none" stroke="currentColor" stroke-linecap="round" stroke-linejoin="round" d="M14.448 13.633a.865.865 0 0 1-.863.867H2.367a.867.867 0 0 1-.867-.867V2.364c0-.477.386-.864.864-.864h11.272c.477 0 .864.387.864.864V5.5M3.44 5.041c-.243 1.061.391 2.111 1.417 2.346s2.056-.434 2.299-1.495-.392-2.112-1.419-2.347a1.85 1.85 0 0 0-1 .048M8.906 9.91a2 2 0 0 0-.112.666c0 1.088.854 1.97 1.906 1.97s1.906-.882 1.906-1.97-.853-1.971-1.906-1.971q-.207 0-.401.044m-.794-3.955q-.059.242-.04.504c.065.875.803 1.534 1.65 1.471s1.481-.822 1.416-1.698-.804-1.534-1.651-1.472m-7.313 6.983q-.069.226-.07.475c0 .878.688 1.589 1.537 1.589s1.537-.711 1.537-1.589-.688-1.589-1.537-1.589"/><circle cx="14.5" cy="7.5" r=".5"/><circle cx="14.5" cy="9.5" r=".5"/><circle cx="14.5" cy="11.5" r=".5"/></svg>