<!-- SPDX-FileCopyrightText: © 2025 Schneider Electric SPDX-License-Identifier: LicenseRef-Proprietary -->
<svg xmlns="http://www.w3.org/2000/svg" viewBox="0 0 16 16"><circle cx="12.5" cy="12.5" r=".5"/><circle cx="12.5" cy="10.5" r=".5"/><circle cx="12.5" cy="8.5" r=".5"/><circle cx="12.5" cy="3.5" r=".5"/><path fill="none" stroke="currentColor" stroke-linecap="round" stroke-linejoin="round" d="M8.5 14.5H1.96a.46.46 0 0 1-.46-.46V1.96a.46.46 0 0 1 .46-.46h12.08a.46.46 0 0 1 .46.46v12.08a.46.46 0 0 1-.46.46H10.5m0 0v-11M3.506 4.625l5.017 5.017M5.41 3.485l3.127 3.127m-5.125 3.907L5.4 12.507"/></svg>