<!-- SPDX-FileCopyrightText: © 2025 Schneider Electric SPDX-License-Identifier: LicenseRef-Proprietary -->
<svg xmlns="http://www.w3.org/2000/svg" viewBox="0 0 16 16"><path fill="none" stroke="currentColor" stroke-linecap="round" stroke-linejoin="round" d="m13.84 9.914 1.66-1.391m-15 0 1.659 1.391M8.443 8.5H2.19l.749 7h10.129l.748-7h-3.035l3.62-4.649M10.139 5.5c.51-.717.367-1.826.02-2.435-.317-.557-.958-1.522-.428-2.565m-2.003 5c.51-.717.368-1.826.021-2.435C7.431 2.508 6.79 1.543 7.32.5m-2.003 5c.51-.717.367-1.826.02-2.435C5.02 2.508 4.378 1.543 4.909.5"/></svg>