<!-- SPDX-FileCopyrightText: © 2025 Schneider Electric SPDX-License-Identifier: LicenseRef-Proprietary -->
<svg xmlns="http://www.w3.org/2000/svg" viewBox="0 0 16 16"><path fill="none" stroke="currentColor" stroke-linecap="round" stroke-linejoin="round" d="M11.382 13.5 6.5 13.484m7.057-4.862L11.382 13.5M2.443 8.622l1.929 4.089M8.944 3.74s1.594 2.68 3.922 3.057m-9.731 0C5.882 6.482 7.057 3.74 7.057 3.74m1.894-.009a1.363 1.363 0 1 0-1.902 0m.982 7.268 1.557-1.877a.17.17 0 0 0 .003-.203l-1.43-1.836a.168.168 0 0 0-.267-.005L6.369 8.922a.17.17 0 0 0-.004.203l.387.557m6.889-1.141a1.362 1.362 0 1 0-.787-1.731m-9.708 0a1.363 1.363 0 1 0-.787 1.731"/></svg>