<!-- SPDX-FileCopyrightText: © 2025 Schneider Electric SPDX-License-Identifier: LicenseRef-Proprietary -->
<svg xmlns="http://www.w3.org/2000/svg" viewBox="0 0 16 16"><path fill="none" stroke="currentColor" stroke-linecap="round" stroke-linejoin="round" d="M3.844 13.385C1.116 11.6 1.565 6.5 1.565 6.5h10.918s.058.645.006 1.555c0 0 .009.036.044.044.036.008.064-.018.064-.018.372-.374.886-.636 1.453-.605.979.054 1.558.681 1.433 1.815-.124 1.136-1.012 2.146-1.951 2.198M7.5 13.5h-7c0 .578.451 1.895 2.73 2h7.589c2.278-.105 2.729-1.422 2.729-2H9.499m.499-.112c.419-.274.968-1.117 1.25-1.513q.09-.129.174-.264m-1.55-7.137c.456-.571.328-1.451.019-1.935C9.608 2.096 9.034 1.33 9.508.5M7.389 4.474c.455-.571.328-1.451.017-1.935C7.123 2.096 6.55 1.33 7.024.5M4.905 4.474c.456-.571.328-1.451.019-1.935C4.64 2.096 4.068 1.33 4.542.5"/></svg>