<!-- SPDX-FileCopyrightText: © 2025 Schneider Electric SPDX-License-Identifier: LicenseRef-Proprietary -->
<svg xmlns="http://www.w3.org/2000/svg" viewBox="0 0 16 16"><path fill="none" stroke="currentColor" stroke-linecap="round" stroke-linejoin="round" d="M9.5 3.5v9.786c0 .831-.433 1.214-1.053 1.214h.147c-.619 0-1.095-.408-1.095-1.214V3.5M5.5 3.5v9.786c0 .615.419 1.214.971 1.214l.117.008c.552 0 .913-.607.913-1.222V3.5M3.5 3.5v9.786c0 .67.483 1.214 1.095 1.214h-.079c.612 0 .984-.544.984-1.214V3.5m8-2h-12v11.786c0 .67.402 1.214 1.008 1.214h.029c.606 0 .963-.544.963-1.214V3.5m9.082 5.891L14.5 8.003l-1.867-1.422"/></svg>