<!-- SPDX-FileCopyrightText: © 2025 Schneider Electric SPDX-License-Identifier: LicenseRef-Proprietary -->
<svg xmlns="http://www.w3.org/2000/svg" viewBox="0 0 16 16"><path fill="none" stroke="currentColor" stroke-linecap="round" stroke-linejoin="round" d="m14.5 9.463-1.999-1.416L14.5 6.619m0-5.119h-13v7h3.874c0-.012.852.027.842.981S5.46 10.496 5.46 10.5H1.5v2.8s-.07 1.2.937 1.2c1.24 0 1.063-1.17 1.063-1.17V10.5m0-7v4.949s1.878-.655 2.188-2.308c.32-1.706.232-2.753.232-2.753m-.449 5.13s2.265-.174 2.885-2.003.349-3.147.349-3.147M3.569 13.532s.821 1.392 1.998.831c.948-.453.658-1.278.658-1.278l-.486-.717"/></svg>