<!-- SPDX-FileCopyrightText: © 2025 Schneider Electric SPDX-License-Identifier: LicenseRef-Proprietary -->
<svg xmlns="http://www.w3.org/2000/svg" viewBox="0 0 16 16"><path fill="none" stroke="currentColor" stroke-linecap="round" stroke-linejoin="round" d="M6.512 1.471v-.444c0-.316.461-.527 1.47-.527s1.449.258 1.449.574v2.089m-2.978.008c-1.604.23-2.982.796-2.982 1.467v7.868c.28 0 .507.204.507.455s-.228.455-.507.455v.503c0 .873 2.326 1.582 4.703 1.582s4.303-.709 4.303-1.582v-.503c-.281 0-.508-.204-.508-.455s.227-.455.508-.455v-7.75c0-.402-.527-.795-1.238-1.083m-4.757-.509v.509c0 .317.212.664 1.494.664 1.264 0 1.458-.379 1.458-.695v-.477m-.682 9.832c.477-.158 1.356-.58 1.629-1.177.201-.44.176-.968-.076-1.57-.758-1.641-.269-2.168-.264-2.173.008-.009.001-.02.003-.033.004-.037-1.195.109-1.063 1.083-.29-.26-1.541-1.268-.715-2.837a.03.03 0 0 0-.003-.03.024.024 0 0 0-.029-.006 4.4 4.4 0 0 0-.776.643c-2.895 2.964-2.054 5.625-.691 6.035.276.073.559.07.739.07.013 0 .088-.01.092-.023a.026.026 0 0 0-.014-.032c-.375-.163-.921-.968-.655-1.566.279-.628.595-.573.73-1.758.436.69.562.817.724 1.099.203.353.278.75.216 1.059"/></svg>