<!-- SPDX-FileCopyrightText: © Dankort SPDX-License-Identifier: LicenseRef-Proprietary -->
<svg xmlns="http://www.w3.org/2000/svg" version="1.1" viewBox="0 0 743.261 491.339"><path fill="#ffffff" d="M238.863 33.59c-113.124 0-205.158 92.018-205.158 205.129 0 113.12 92.034 205.152 205.158 205.152h270.79c113.109 0 205.13-92.032 205.13-205.152 0-113.11-92.021-205.13-205.13-205.13zm0 38.154h270.79c50.777 0 96.332 22.787 126.99 58.664H495.725l-70.774 73.776c-5.216-56.652-55.88-73.768-123.125-73.768h-189.98c30.656-35.887 76.22-58.672 127.017-58.672Zm404.979 67.719c20.592 27.763 32.795 62.113 32.795 99.252 0 35.19-10.954 67.857-29.602 94.806L556.988 226.44Zm-452.81 62.379h87.423c19.573 0 35.508 8.762 29.164 31.34-6.41 22.832-15.077 34.69-43.719 34.69h-96.882zm230.43 46.103 74.849 94.598h144.033c-30.618 38.475-77.824 63.172-130.692 63.172H238.863c-52.886 0-100.104-24.716-130.722-63.182h169.252c84.924 0 130.226-30.088 144.07-94.588z"/></svg>