<!-- SPDX-FileCopyrightText: © 2025 Schneider Electric SPDX-License-Identifier: LicenseRef-Proprietary -->
<svg xmlns="http://www.w3.org/2000/svg" viewBox="0 0 9.845 16"><path fill="none" stroke="currentColor" stroke-linecap="round" stroke-linejoin="round" d="M5.919 2.746 3.942 3.6.384 2.058 3.942.5 7.5 2.058V3.5m-7 0v10.347L4 15.403l3.5-1.556V12.5m-1-6v2m-1.991-.995 1.924.625M5.244 9.766 6.433 8.13m1.189 1.636L6.433 8.13m1.924-.625-1.924.625m-.785-2.808.785.785m.785-.785-.785.785M3.52 8.009l.989-.504m-.503-.989.504.989m.908 3.357-.174-1.096m0 0-1.097.174m3.475-.174 1.096.174m-1.096-.174-.174 1.096M8.86 6.516l-.504.989m.989.504-.989-.504"/></svg>