<!-- SPDX-FileCopyrightText: © 2025 Schneider Electric SPDX-License-Identifier: LicenseRef-Proprietary -->
<svg xmlns="http://www.w3.org/2000/svg" viewBox="0 0 16 16"><path fill="none" stroke="currentColor" stroke-linecap="round" stroke-linejoin="round" d="M9.253 1.597s.905 1.469.913 2.58c.008 1.072-.92 2.2-2.254 2.2S5.716 5.261 5.78 4.19C5.856 2.936 7.581.499 7.581.499M3.536 8.506c0 .786.612 1.423 1.366 1.423s1.366-.637 1.366-1.423h.012c0 .786.612 1.423 1.366 1.423s1.366-.637 1.366-1.423h.012c0 .786.612 1.423 1.366 1.423s1.366-.637 1.366-1.423h.012c0 .786.611 1.423 1.366 1.423S14.5 9.292 14.5 8.506M4.8 1.5H2.205a.705.705 0 0 0-.705.705v11.59c0 .389.316.705.705.705h11.59a.705.705 0 0 0 .705-.705V2.205a.705.705 0 0 0-.705-.705H9.229"/></svg>