<!-- SPDX-FileCopyrightText: © 2025 Schneider Electric SPDX-License-Identifier: LicenseRef-Proprietary -->
<svg xmlns="http://www.w3.org/2000/svg" viewBox="0 0 16 16"><path fill="none" stroke="currentColor" stroke-linecap="round" stroke-linejoin="round" d="M.869 8.369a7.131 7.131 0 1 1 14.263 0 7.131 7.131 0 0 1-14.263 0ZM8 1.166V.5"/><path d="M10.748 8.538v1.104q0 .22-.043.352a.56.56 0 0 1-.159.238 1.5 1.5 0 0 1-.297.204q-.522.283-1.006.412c-.484.129-.673.13-1.053.13q-.664 0-1.21-.204a2.55 2.55 0 0 1-.931-.593 2.6 2.6 0 0 1-.591-.943 3.5 3.5 0 0 1-.206-1.237q0-.672.2-1.229.2-.558.589-.947c.389-.389.575-.458.947-.595a3.6 3.6 0 0 1 1.265-.206q.582 0 1.029.155.448.155.727.391.279.235.42.499.141.263.141.467a.5.5 0 0 1-.163.375.55.55 0 0 1-.827-.069 5 5 0 0 0-.365-.511 1.2 1.2 0 0 0-.403-.291q-.253-.118-.646-.118a1.8 1.8 0 0 0-.723.139 1.5 1.5 0 0 0-.544.405 1.8 1.8 0 0 0-.346.65q-.12.386-.12.852 0 1.013.465 1.559t1.298.546q.405 0 .76-.106t.721-.302V8.73h-.903q-.326 0-.493-.098t-.167-.334a.41.41 0 0 1 .139-.318.54.54 0 0 1 .379-.126h1.324q.244 0 .412.043a.47.47 0 0 1 .273.192q.104.15.104.448Z"/></svg>