<!-- SPDX-FileCopyrightText: © 2025 Schneider Electric SPDX-License-Identifier: LicenseRef-Proprietary -->
<svg xmlns="http://www.w3.org/2000/svg" viewBox="0 0 16 16"><path fill="none" stroke="currentColor" stroke-linecap="round" stroke-linejoin="round" d="M10.116 1.024h4.056c.457 0 .828.371.828.828v12.307c0 .457-.37.828-.828.828l-12.344.008a.83.83 0 0 1-.829-.829l.017-12.335c0-.457.371-.827.828-.827h4.209m1.918 1.743v3.37m0 7.261V9.17L6.122 7.177m.452 3.22c-.585.198-.963.513-.963.868 0 .598 1.073 1.083 2.398 1.083m-.01 0c1.324 0 2.398-.485 2.398-1.083 0-.355-.378-.67-.963-.868"/></svg>