<!-- SPDX-FileCopyrightText: © 2024 Diners Club International Ltd SPDX-License-Identifier: LicenseRef-Proprietary -->
<svg xmlns="http://www.w3.org/2000/svg" version="1.1" viewBox="0 0 416.107 290.067"><path fill="#231f20" fill-opacity="1" fill-rule="nonzero" d="M17.016 226.157c0 6.78 4.845 7.564 9.154 7.564 19.011 0 25.245-14.335 25.245-27.45 0-16.444-10.552-28.323-27.534-28.323-3.609 0-5.272.252-6.865.348zm-8.617-41.27c0-7.912-4.14-7.39-8.09-7.48v-2.273c3.424.158 6.943.158 10.378.158 3.693 0 8.711-.158 15.225-.158 22.778 0 35.188 15.209 35.188 30.79 0 8.712-5.098 30.618-36.246 30.618-4.477 0-8.627-.17-12.756-.17-3.962 0-7.839.091-11.79.17v-2.295c5.266-.526 7.828-.7 8.091-6.68zm65.205-2.101c-2.298 0-4.318-2.116-4.318-4.399 0-2.204 2.11-4.234 4.318-4.234 2.279 0 4.314 1.852 4.314 4.234 0 2.373-1.94 4.399-4.314 4.399m-9.421 51.464h1.673c2.462 0 4.219 0 4.219-2.915v-23.83c0-3.872-1.31-4.402-4.577-6.15v-1.41c4.14-1.24 9.064-2.899 9.422-3.177.616-.343 1.136-.432 1.583-.432.437 0 .61.521.61 1.227v33.772c0 2.915 1.947 2.915 4.398 2.915h1.5v2.293c-2.994 0-6.071-.173-9.238-.173s-6.333.089-9.59.173zm27.187-26.222c0-3.245-.968-4.13-5.097-5.792v-1.683c3.777-1.23 7.38-2.384 11.61-4.22.263 0 .52.175.52.868v5.735c5.024-3.614 9.339-6.603 15.236-6.603 7.475 0 10.115 5.45 10.115 12.316v22.689c0 2.914 1.942 2.914 4.399 2.914h1.583v2.288c-3.088 0-6.165-.168-9.322-.168-3.172 0-6.34.09-9.506.168v-2.288h1.583c2.468 0 4.214 0 4.214-2.914v-22.773c0-5.024-3.066-7.481-8.09-7.481-2.815 0-7.297 2.284-10.211 4.224v26.03c0 2.914 1.951 2.914 4.413 2.914h1.583v2.288c-3.082 0-6.17-.168-9.343-.168-3.156 0-6.327.09-9.495.168v-2.288h1.595c2.456 0 4.213 0 4.213-2.914zm60.636 1.41c2.187 0 2.445-1.14 2.445-2.193 0-4.497-2.724-8.101-7.648-8.101-5.361 0-9.058 3.956-10.116 10.294zm-15.577 2.826c-.184.789-.184 2.105 0 5.097.516 8.365 5.891 15.225 12.925 15.225 4.84 0 8.638-2.647 11.883-5.898l1.232 1.231c-4.05 5.367-9.058 9.937-16.271 9.937-13.999 0-16.808-13.545-16.808-19.174 0-17.245 11.61-22.348 17.76-22.348 7.133 0 14.798 4.483 14.877 13.804 0 .543 0 1.063-.079 1.595l-.805.53zm27.62 21.986h2.383c2.461 0 4.21 0 4.21-2.915v-24.714c0-2.719-3.248-3.25-4.567-3.961v-1.304c6.417-2.736 9.947-5.018 10.74-5.018.522 0 .785.251.785 1.14v7.912h.189c2.188-3.425 5.886-9.052 11.253-9.052 2.199 0 5.008 1.483 5.008 4.655 0 2.378-1.657 4.497-4.13 4.497-2.735 0-2.735-2.12-5.807-2.12-1.495 0-6.424 2.02-6.424 7.313v20.652c0 2.915 1.757 2.915 4.22 2.915h4.928v2.294c-4.839-.084-8.527-.174-12.31-.174-3.613 0-7.306.09-10.478.174zm33.87-9.938c1.152 5.803 4.672 10.737 11.096 10.737 5.185 0 7.112-3.171 7.112-6.25 0-10.378-19.165-7.05-19.165-21.204 0-4.935 3.961-11.259 13.64-11.259 2.81 0 6.593.79 10.023 2.547l.62 8.974h-2.02c-.878-5.538-3.968-8.717-9.596-8.717-3.523 0-6.86 2.03-6.86 5.813 0 10.301 20.407 7.128 20.407 20.942 0 5.803-4.661 11.962-15.125 11.962-3.535 0-7.664-1.225-10.743-2.98l-.966-10.123zm104.705-33.262h-2.2c-1.667-10.29-8.974-14.424-18.816-14.424-10.132 0-24.83 6.77-24.83 27.875 0 17.786 12.694 30.548 26.23 30.548 8.71 0 15.929-5.98 17.69-15.224l2.016.52-2.016 12.853c-3.697 2.293-13.65 4.66-19.458 4.66-20.585 0-33.596-13.283-33.596-33.078 0-18.039 16.093-30.975 33.342-30.975 7.13 0 13.984 2.289 20.76 4.66zm3.166 43.2h1.678c2.467 0 4.228 0 4.228-2.915v-48.98c0-5.73-1.32-5.908-4.665-6.87v-1.411c3.515-1.147 7.213-2.719 9.064-3.788.962-.525 1.673-.973 1.932-.973.536 0 .704.532.704 1.24v60.782c0 2.915 1.941 2.915 4.404 2.915h1.493v2.294c-2.977 0-6.065-.174-9.243-.174-3.157 0-6.323.09-9.595.174zm56.504-2.553c0 1.594.956 1.673 2.46 1.673 1.048 0 2.38-.08 3.525-.08v1.852c-3.799.348-11.005 2.195-12.69 2.72l-.43-.263v-7.117c-5.27 4.308-9.332 7.38-15.586 7.38-4.745 0-9.664-3.072-9.664-10.457v-22.532c0-2.294-.359-4.499-5.272-4.93v-1.672c3.172-.095 10.19-.611 11.341-.611.98 0 .98.61.98 2.547V222.9c0 2.637 0 10.206 7.648 10.206 2.983 0 6.944-2.294 10.638-5.35v-23.688c0-1.752-4.22-2.715-7.382-3.603v-1.584c7.918-.531 12.853-1.221 13.725-1.221.707 0 .707.61.707 1.584zm17.5-5.1c0 3.346 3.167 8.975 9.068 8.975 9.423 0 13.379-9.244 13.379-17.077 0-9.494-7.218-17.411-14.079-17.411-3.272 0-5.99 2.114-8.369 4.145zm0-23.936c3.518-2.982 8.28-6.322 13.115-6.322 10.205 0 16.365 8.89 16.365 18.47 0 11.52-8.444 23.051-21.037 23.051-6.513 0-9.933-2.109-12.226-3.072l-2.636 2.015-1.842-.963c.774-5.186 1.22-10.3 1.22-15.66v-37.825c0-5.728-1.314-5.912-4.66-6.875v-1.409c3.531-1.142 7.212-2.716 9.064-3.787.964-.522 1.668-.969 1.942-.969.526 0 .694.531.694 1.241zM.208 287.694h.669c1.72 0 3.545-.227 3.545-2.725v-25.077c0-2.499-1.825-2.726-3.545-2.726H.209v-1.457c1.873 0 4.74.2 7.092.2 2.393 0 5.26-.2 7.507-.2v1.457h-.669c-1.72 0-3.546.227-3.546 2.726v25.077c0 2.498 1.826 2.725 3.546 2.725h.669v1.446c-2.294 0-5.171-.19-7.56-.19-2.351 0-5.166.19-7.039.19z"/><path fill="#231f20" fill-opacity="1" fill-rule="nonzero" d="m14.603 288.934.005-1.022h-.462c-1.71 0-3.751-.298-3.761-2.945V259.89c.01-2.645 2.051-2.94 3.76-2.94h.458v-1.014c-2.209 0-4.981.183-7.302.183-2.272 0-5.028-.18-6.88-.183v1.014h.458c1.704 0 3.745.295 3.745 2.94v25.078c0 2.647-2.041 2.945-3.745 2.945H.42v1.022c1.852-.027 4.56-.195 6.828-.195 2.33 0 5.103.179 7.354.195m.205.41c-2.309 0-5.181-.189-7.559-.189-2.346 0-5.16.19-7.039.19H0v-1.847h.879c1.736-.043 3.319-.184 3.33-2.53V259.89c-.011-2.34-1.595-2.498-3.33-2.529H0v-1.842h.21c1.878 0 4.746.185 7.091.185 2.384 0 5.246-.185 7.507-.185h.211v1.842h-.873c-1.742.03-3.335.189-3.34 2.53v25.077c.005 2.347 1.598 2.488 3.34 2.53h.873v1.847zm32.895-9.638.095-.095v-17.954c0-3.924-2.73-4.493-4.172-4.493h-1.047v-1.45c2.246 0 4.456.194 6.703.194 1.956 0 3.93-.195 5.88-.195v1.45h-.704c-2.02 0-4.278.376-4.278 6.073v21.788c0 1.674.058 3.346.295 4.83h-1.82L24 262.377v19.716c0 4.177.81 5.597 4.498 5.597h.81v1.447c-2.051 0-4.114-.19-6.176-.19-2.14 0-4.35.19-6.502.19v-1.447h.668c3.304 0 4.313-2.235 4.313-6.07v-20.158c0-2.683-2.215-4.3-4.36-4.3h-.621v-1.45c1.81 0 3.682.195 5.497.195 1.441 0 2.836-.195 4.266-.195z"/><path fill="#231f20" fill-opacity="1" fill-rule="nonzero" d="M47.589 279.608v-.015l-.042-.03zm.116.095.152-.136zm.946 9.943h1.59c-.217-1.436-.253-3.036-.253-4.619v-21.794c0-5.745 2.404-6.281 4.466-6.281h.505v-1.022c-1.888.011-3.777.19-5.676.19-2.194 0-4.33-.179-6.497-.19v1.022h.836c1.478 0 4.377.652 4.377 4.708l-.058 18.096-.1.09-.162.152-21.285-24.067c-1.426 0-2.814.19-4.266.19-1.752 0-3.557-.18-5.292-.19l-.006 1.02h.421c2.246 0 4.561 1.715 4.561 4.514v20.158c0 3.836-1.068 6.276-4.513 6.292l-.463-.016v1.036c2.072-.025 4.203-.199 6.296-.199 2.005 0 3.993.174 5.966.2v-1.021h-.605c-3.767-.016-4.703-1.646-4.703-5.819v-20.258Zm1.82.421-1.972-.075-24.3-27.075v19.18c.064 4.172.696 5.35 4.294 5.402h1.031v1.841h-.216c-2.067 0-4.13-.184-6.176-.184-2.136 0-4.334.184-6.513.184h-.21v-1.84h.89c3.166-.025 4.066-2.056 4.108-5.876v-20.158c-.01-2.547-2.104-4.099-4.156-4.104h-.842v-1.845h.21c1.836 0 3.704.19 5.51.19 1.419 0 2.808-.19 4.422-.117l21.038 23.678V261.66c-.026-3.81-2.562-4.267-3.967-4.299H42.36v-1.845h.215c2.257 0 4.467.19 6.708.19 1.941 0 3.908-.19 5.881-.19h.216v1.845h-.926c-1.983.059-4.003.237-4.062 5.872v21.794c0 1.662.048 3.335.28 4.797l.042.243zm11.862-31.957c-3.593 0-3.725.863-4.45 4.355h-1.431c.194-1.335.426-2.678.579-4.07.184-1.337.283-2.683.283-4.062h1.153c.384 1.436 1.578 1.379 2.872 1.379h24.704c1.29 0 2.488-.043 2.589-1.479l1.135.2c-.173 1.279-.368 2.577-.515 3.872-.1 1.288-.1 2.588-.1 3.877l-1.43.536c-.096-1.778-.343-4.608-3.547-4.608h-7.849v25.472c0 3.699 1.679 4.113 3.973 4.113h.904v1.441c-1.862 0-5.218-.188-7.802-.188-2.866 0-6.228.188-8.095.188v-1.44h.91c2.64 0 3.971-.232 3.971-4.01V258.11z"/><path fill="#231f20" fill-opacity="1" fill-rule="nonzero" d="M81.213 289.342c-1.888 0-5.24-.19-7.812-.19-2.867 0-6.207.19-8.096.19h-.2v-1.847h1.115c2.641-.063 3.704-.095 3.756-3.81v-25.37h-7.643v-.406h8.064v25.777c0 3.836-1.546 4.23-4.177 4.23h-.704v1.01c1.893-.016 5.107-.188 7.885-.188 2.5 0 5.698.172 7.591.188v-1.01h-.695c-2.313 0-4.187-.563-4.187-4.334v-25.673h8.064c3.216.006 3.636 2.73 3.736 4.51l1.047-.385c0-1.24.005-2.493.084-3.762.137-1.22.316-2.445.494-3.67l-.726-.122c-.236 1.39-1.578 1.468-2.772 1.452H61.09c-1.13 0-2.351-.057-2.777-1.39h-.8a26.5 26.5 0 0 1-.284 3.888c-.137 1.311-.347 2.578-.526 3.83h1.02c.638-3.324 1.042-4.408 4.609-4.351v.406c-3.536.073-3.456.662-4.246 4.203l-.026.163h-1.85l.03-.247c.185-1.336.438-2.678.585-4.071a28.4 28.4 0 0 0 .283-4.031v-.21h1.522l.031.153c.331 1.21 1.21 1.216 2.43 1.24h24.946c1.325-.024 2.304-.046 2.383-1.3l.016-.219.215.043 1.348.21-.022.204c-.19 1.29-.378 2.584-.516 3.862-.1 1.283-.1 2.578-.1 3.866v.147l-.136.058-1.7.622-.004-.29c-.131-1.795-.321-4.403-3.347-4.403h-7.643v25.267c.047 3.613 1.483 3.866 3.766 3.913h1.11v1.847zm10.092-1.648h.668c1.72 0 3.54-.227 3.54-2.725v-25.077c0-2.499-1.82-2.726-3.54-2.726h-.668v-1.457c2.909 0 7.907.2 11.915.2 4.03 0 9.001-.2 12.247-.2-.08 2.067-.032 5.235.11 7.339l-1.446.384c-.226-3.11-.805-5.598-5.834-5.598h-6.64v12.53h5.682c2.878 0 3.504-1.614 3.783-4.202h1.43a116 116 0 0 0-.141 5.598c0 1.825.052 3.64.142 5.454l-1.431.29c-.279-2.873-.427-4.74-3.735-4.74h-5.73v11.153c0 3.114 2.767 3.114 5.824 3.114 5.755 0 8.286-.384 9.722-5.84l1.336.338c-.62 2.545-1.194 5.065-1.625 7.611-3.057 0-8.57-.19-12.878-.19-4.313 0-10.006.19-12.73.19z"/><path fill="#231f20" fill-opacity="1" fill-rule="nonzero" d="M116.74 288.926c.41-2.415.958-4.835 1.552-7.244l-.947-.238c-1.436 5.362-4.208 5.835-9.864 5.794-3.02 0-6.034 0-6.05-3.32V272.56h5.956c3.346-.042 3.677 1.983 3.914 4.709l1.036-.216a110 110 0 0 1-.131-5.292c0-1.795.046-3.588.131-5.404h-1.036c-.263 2.505-1.037 4.25-3.967 4.22h-5.902v-12.962h6.865c4.981-.027 5.813 2.546 6.018 5.543l1.031-.278a85 85 0 0 1-.126-4.671c0-.836.016-1.6.036-2.277-3.25.01-8.1.189-12.036.189-3.93 0-8.78-.18-11.71-.19v1.02h.463c1.71 0 3.745.295 3.756 2.936v25.083c-.01 2.64-2.046 2.925-3.756 2.945h-.463v1.01c2.783-.01 8.322-.189 12.526-.189 4.224 0 9.611.179 12.704.19m.174.416c-3.072 0-8.576-.195-12.878-.195-4.313 0-9.995.195-12.73.195h-.21V287.5h.877c1.73-.031 3.315-.19 3.33-2.53v-25.084c-.015-2.329-1.6-2.488-3.33-2.53h-.878v-1.84h.21c2.914 0 7.907.19 11.915.19 4.02 0 8.99-.19 12.247-.19h.216v.21c-.043.72-.058 1.568-.058 2.483 0 1.647.058 3.456.147 4.818v.174l-.152.048-1.684.441-.005-.252c-.284-3.098-.695-5.36-5.634-5.402h-6.45v12.12h5.487c2.767-.022 3.251-1.436 3.577-4.02l.021-.183h1.841v.21c-.1 1.867-.157 3.73-.157 5.598 0 1.81.058 3.629.157 5.454v.164l-.173.042-1.668.327-.02-.222c-.327-2.92-.342-4.518-3.525-4.556l-5.54-.01v10.958c.005 2.909 2.51 2.893 5.634 2.909 5.771-.032 8.075-.316 9.517-5.693l.047-.195.206.043 1.53.395-.042.2c-.62 2.525-1.189 5.066-1.62 7.59l-.032.175zm14.222-17.444h2.337c4.792 0 7.374-1.81 7.374-7.464 0-4.252-2.73-6.992-6.99-6.992-1.448 0-2.058.152-2.72.195zm-6.129-11.105c0-3.499-1.914-3.63-3.398-3.63h-.873v-1.451c1.53 0 4.503.194 7.427.194 2.862 0 5.166-.194 7.712-.194 6.019 0 11.38 1.63 11.38 8.437 0 4.304-2.863 6.933-6.644 8.433l8.19 12.24c1.337 2.031 2.283 2.595 4.635 2.873v1.441c-1.578 0-3.11-.188-4.688-.188-1.493 0-3.02.188-4.502.188-3.683-4.828-6.85-10.005-9.959-15.518h-3.15v10.248c0 3.698 1.714 3.83 3.913 3.83h.873v1.44c-2.74 0-5.513-.188-8.243-.188-2.294 0-4.546.188-6.944.188v-1.44h.873c1.757 0 3.398-.805 3.398-2.584z"/><path fill="#231f20" fill-opacity="1" fill-rule="nonzero" d="M133.474 271.694c4.735-.046 7.128-1.688 7.17-7.254-.02-4.176-2.625-6.77-6.791-6.796-1.295 0-1.9.116-2.51.184v13.866zm-2.347.405h-.205v-14.66l.179-.017c.658-.052 1.3-.178 2.752-.178 4.356 0 7.195 2.834 7.206 7.196-.016 5.713-2.761 7.66-7.585 7.66zm0 1.315h3.272l.058.106c3.114 5.507 6.266 10.674 9.79 15.414 1.463 0 3.004-.195 4.488-.195 1.53 0 3.01.163 4.497.184v-1.052c-2.252-.27-3.298-.941-4.602-2.925l-8.339-12.468.241-.1c3.747-1.472 6.519-4.03 6.524-8.238-.005-6.634-5.17-8.186-11.178-8.205-2.53 0-4.84.183-7.712.183-2.825 0-5.656-.18-7.224-.183v1.02h.664c1.483 0 3.592.241 3.592 3.84v24.32c0 1.926-1.788 2.797-3.592 2.797h-.664v1.01c2.31-.005 4.483-.183 6.729-.183 2.683 0 5.382.179 8.032.184v-1.01h-.652c-2.182 0-4.129-.269-4.129-4.046v-10.453zm22.31 15.925c-1.603 0-3.125-.184-4.702-.184-1.453 0-2.988.184-4.661.115-3.662-4.824-6.808-9.964-9.905-15.44h-2.826v10.037c.047 3.604 1.494 3.572 3.708 3.63h1.074v1.842h-.216c-2.741 0-5.523-.184-8.238-.184-2.289 0-4.53.184-6.939.184h-.194v-1.841h1.068c1.725-.016 3.166-.768 3.182-2.384v-24.32c-.031-3.393-1.699-3.388-3.182-3.434h-1.068v-1.841h.194c1.563 0 4.514.184 7.434.184 2.851 0 5.155-.184 7.712-.184 6.022 0 11.584 1.677 11.598 8.62 0 4.326-2.86 7.024-6.549 8.529l8.039 12.042c1.337 1.988 2.168 2.488 4.498 2.788l.173.016v1.825zm32.501-9.633.09-.095v-17.954c0-3.924-2.726-4.493-4.157-4.493h-1.057v-1.45c2.257 0 4.445.194 6.708.194 1.967 0 3.924-.195 5.892-.195v1.45h-.71c-2.015 0-4.273.376-4.273 6.073v21.788c0 1.674.043 3.346.279 4.83h-1.81l-24.656-27.476v19.716c0 4.177.816 5.597 4.504 5.597h.82v1.447c-2.067 0-4.13-.19-6.187-.19-2.156 0-4.356.19-6.508.19v-1.447h.658c3.314 0 4.314-2.235 4.314-6.07v-20.158c0-2.683-2.204-4.3-4.35-4.3h-.622v-1.45c1.811 0 3.694.195 5.504.195 1.431 0 2.82-.195 4.256-.195z"/><path fill="#231f20" fill-opacity="1" fill-rule="nonzero" d="M185.823 279.608v-.015l-.026-.03zm.116.095.152-.136zm.963 9.943h1.563c-.2-1.431-.243-3.036-.243-4.619v-21.794c0-5.745 2.425-6.27 4.477-6.281h.499v-1.022c-1.883.011-3.777.19-5.676.19-2.193 0-4.34-.179-6.496-.19v1.022h.847c1.472.01 4.377.652 4.377 4.708l-.07 18.096-.089.09-.152.162-21.306-24.078c-1.42 0-2.82.19-4.256.19-1.777 0-3.566-.179-5.302-.19v1.022h.416c2.252.01 4.561 1.704 4.561 4.513v20.153c0 3.841-1.09 6.28-4.524 6.297h-.453v1.01c2.073-.015 4.204-.189 6.308-.189 1.998 0 3.988.174 5.97.19v-1.011h-.604c-3.773 0-4.714-1.641-4.725-5.819v-20.258Zm1.81.421-1.969-.075-24.292-27.075v19.18c.057 4.177.689 5.35 4.298 5.402h1.015v1.841h-.206c-2.073 0-4.129-.194-6.175-.194-2.142 0-4.362.194-6.508.194h-.227v-1.84h.88c3.161-.015 4.076-2.056 4.108-5.882v-20.152c-.01-2.557-2.088-4.099-4.145-4.104h-.843v-1.845h.227c1.821 0 3.698.19 5.502.19 1.411 0 2.794-.19 4.399-.133l21.047 23.694V261.66c-.005-3.81-2.562-4.278-3.95-4.299h-1.268v-1.845h.21c2.267 0 4.471.19 6.707.19 1.947 0 3.915-.19 5.886-.19h.206v1.845h-.915c-1.973.048-4.01.237-4.061 5.872v21.794c0 1.662.041 3.32.284 4.797l.021.243zm19.393-28.987h-.094l-4.456 13.551h8.948zm-6.98 21.211c-.49 1.626-1.074 2.883-1.074 3.73 0 1.442 2.025 1.673 3.599 1.673h.53v1.441c-1.925-.095-3.881-.184-5.802-.184-1.726 0-3.44.09-5.16.184v-1.441h.278c1.867 0 3.456-1.1 4.156-3.11l7.67-21.962c.62-1.778 1.494-4.166 1.773-5.95 1.532-.52 3.45-1.473 4.361-2.052.147-.052.221-.09.379-.09.137 0 .237 0 .337.138.141.384.284.814.436 1.198l8.801 25.041c.573 1.674 1.152 3.45 1.768 4.888.577 1.336 1.588 1.899 3.167 1.899h.278v1.441c-2.146-.095-4.304-.184-6.596-.184-2.34 0-4.74.09-7.175.184v-1.441h.525c1.095 0 2.963-.18 2.963-1.379 0-.625-.427-1.92-.97-3.45l-1.861-5.556H202.64z"/><path fill="#231f20" fill-opacity="1" fill-rule="nonzero" d="m207.893 261.145.116-.032zm-4.06 13.284h8.379l-4.167-12.837zm-.574.414 4.586-13.966h.258v.199l-.047.022.047-.022v-.199h.142l4.546 13.966zm9.789 14.067c2.363-.074 4.693-.172 6.977-.172 2.23 0 4.308.098 6.39.172v-.993h-.073c-1.632.015-2.757-.643-3.357-2.042-.621-1.452-1.204-3.23-1.767-4.903l-8.811-25.04a32 32 0 0 1-.411-1.157c-.047-.048-.03-.048-.073-.048h-.09c-.094 0-.152.026-.273.063-.925.594-2.852 1.542-4.272 1.915-.29 1.82-1.152 4.203-1.777 5.976l-7.655 21.978c-.732 2.079-2.409 3.258-4.36 3.258h-.076v.993c1.638-.074 3.3-.172 4.962-.172 1.852 0 3.74.098 5.57.172v-.993h-.304c-1.562-.022-3.741-.19-3.793-1.89 0-.952.579-2.183 1.057-3.792l.211.058-.21-.063 1.578-5.119h11.152l1.92 5.687c.542 1.541.978 2.814.978 3.519-.073 1.467-2.088 1.572-3.166 1.6h-.327zm13.562.432c-2.14-.09-4.293-.195-6.585-.195-2.341 0-4.725.105-7.176.195l-.216.016v-1.88h.742c1.098 0 2.74-.24 2.74-1.161.012-.547-.404-1.862-.935-3.382l-1.82-5.415h-10.564l-1.494 4.83c-.49 1.641-1.052 2.904-1.052 3.677.016 1.168 1.809 1.452 3.398 1.452h.73v1.879l-.215-.016c-1.915-.09-3.877-.195-5.781-.195-1.72 0-3.446.105-5.16.195l-.21.016v-1.88h.483c1.784 0 3.267-1.019 3.956-2.96l7.67-21.97c.631-1.776 1.489-4.16 1.904-6.064 1.5-.52 3.42-1.484 4.35-2.061.137-.048.264-.117.458-.117a.57.57 0 0 1 .522.29c.146.39.293.815.436 1.2l8.822 25.045c.563 1.673 1.136 3.44 1.756 4.85.552 1.284 1.437 1.788 2.973 1.788h.495v1.879zm2.13-31.232c-3.6 0-3.736.863-4.456 4.355h-1.442c.194-1.335.436-2.678.578-4.07.194-1.337.29-2.683.29-4.062h1.147c.384 1.436 1.583 1.379 2.872 1.379h24.703c1.29 0 2.479-.043 2.579-1.479l1.15.2a187 187 0 0 0-.525 3.872c-.116 1.288-.116 2.588-.116 3.877l-1.42.536c-.078-1.778-.332-4.608-3.534-4.608h-7.855v25.472c0 3.699 1.678 4.113 3.977 4.113h.904v1.441c-1.86 0-5.213-.188-7.8-.188-2.869 0-6.229.188-8.102.188v-1.44h.915c2.646 0 3.988-.232 3.988-4.01V258.11z"/><path fill="#231f20" fill-opacity="1" fill-rule="nonzero" d="M247.588 289.342c-1.866 0-5.218-.19-7.794-.19-2.863 0-6.21.19-8.101.19h-.201v-1.847h1.116c2.64-.063 3.693-.095 3.76-3.81v-25.37h-7.632v-.406h8.049v25.777c0 3.836-1.542 4.21-4.177 4.23h-.706v1.015c1.895-.021 5.108-.193 7.892-.193 2.499 0 5.701.172 7.596.193l-.01-1.014h-.7c-2.305-.022-4.166-.564-4.171-4.335v-25.673h8.053c3.225.006 3.634 2.73 3.73 4.51l1.042-.385c0-1.24 0-2.493.098-3.75.132-1.232.322-2.457.49-3.673l-.715-.131c-.232 1.39-1.572 1.468-2.779 1.452h-24.944c-1.131.005-2.346-.057-2.784-1.405h-.783a28 28 0 0 1-.295 3.903c-.132 1.32-.364 2.578-.54 3.83h1.03c.632-3.324 1.036-4.419 4.624-4.351v.406c-3.556.063-3.472.662-4.25 4.203l-.038.163h-1.852l.032-.247c.194-1.336.437-2.678.578-4.056.195-1.34.284-2.673.284-4.046v-.21h1.516l.042.153c.337 1.21 1.22 1.216 2.436 1.24h24.944c1.327-.024 2.3-.046 2.379-1.3l.005-.219.231.043 1.364.21-.043.204a82 82 0 0 0-.52 3.862c-.09 1.283-.09 2.578-.09 3.866v.147l-.147.058-1.699.622v-.29c-.121-1.795-.317-4.403-3.346-4.403h-7.644v25.267c.048 3.613 1.484 3.866 3.761 3.913h1.121v1.847zm10.339-1.648h.668c1.736 0 3.545-.227 3.545-2.725v-25.077c0-2.499-1.81-2.726-3.545-2.726h-.668v-1.457c1.868 0 4.734.2 7.081.2 2.393 0 5.265-.2 7.527-.2v1.457h-.668c-1.735 0-3.562.227-3.562 2.726v25.077c0 2.498 1.827 2.725 3.562 2.725h.668v1.446c-2.303 0-5.175-.19-7.57-.19-2.352 0-5.17.19-7.038.19z"/><path fill="#231f20" fill-opacity="1" fill-rule="nonzero" d="M272.313 288.926v-1.011h-.446c-1.72 0-3.756-.305-3.756-2.945v-25.083c0-2.64 2.036-2.935 3.756-2.935h.446v-1.02c-2.21.01-4.97.189-7.306.189-2.272 0-5.019-.18-6.87-.19v1.02h.457c1.7 0 3.751.295 3.751 2.936v25.083c0 2.64-2.052 2.945-3.751 2.945h-.456v1.01c1.85-.026 4.55-.189 6.827-.189 2.326 0 5.098.174 7.348.19m.222.416c-2.315 0-5.182-.195-7.57-.195-2.34 0-5.171.195-7.04.195h-.198V287.5h.867c1.735-.031 3.32-.19 3.325-2.53v-25.084c-.004-2.329-1.59-2.493-3.325-2.53h-.867v-1.84h.199c1.868 0 4.745.19 7.08.19 2.395 0 5.26-.19 7.529-.19h.194v1.84h-.862c-1.752.037-3.331.201-3.346 2.53v25.084c.015 2.34 1.594 2.499 3.346 2.53h.862v1.842zm19.808-1.592c9.3 0 10.907-8.19 10.907-15.166 0-7.002-3.768-15.47-11.717-15.47-8.375 0-10.863 7.463-10.863 13.87 0 8.575 3.924 16.766 11.673 16.766m-.714-32.747c10.2 0 18.338 6.324 18.338 16.523 0 11.012-7.896 18.33-18.097 18.33-10.164 0-17.897-6.887-17.897-17.193 0-9.942 7.703-17.66 17.656-17.66"/><path fill="#231f20" fill-opacity="1" fill-rule="nonzero" d="M280.453 270.985c.016-6.439 2.54-14.088 11.078-14.088 8.139.015 11.927 8.648 11.932 15.687-.005 6.975-1.653 15.366-11.121 15.366v-.404c9.117-.007 10.69-7.987 10.71-14.962 0-6.945-3.74-15.256-11.52-15.267-8.212.01-10.643 7.298-10.659 13.668.01 8.537 3.899 16.538 11.469 16.56v.405c-7.938-.011-11.873-8.344-11.889-16.965m-6.703 1.682c.027-10.068 7.818-17.859 17.876-17.88v.426c-9.853 0-17.47 7.607-17.47 17.454.016 10.18 7.658 16.972 17.711 16.977 10.096-.005 17.877-7.224 17.903-18.129-.006-10.069-8.022-16.29-18.144-16.302v-.426c10.28.021 18.522 6.407 18.538 16.728-.005 11.127-7.996 18.53-18.297 18.55-10.235-.02-18.09-6.996-18.117-17.398m68.485 7.039.094-.095v-17.954c0-3.924-2.73-4.493-4.183-4.493h-1.03v-1.45c2.237 0 4.45.194 6.691.194 1.979 0 3.936-.195 5.892-.195v1.45h-.716c-2.018 0-4.27.376-4.27 6.073v21.788c0 1.674.057 3.346.294 4.83h-1.825l-24.653-27.476v19.716c0 4.177.811 5.597 4.504 5.597h.81v1.447c-2.056 0-4.108-.19-6.175-.19-2.152 0-4.362.19-6.518.19v-1.447h.678c3.313 0 4.299-2.235 4.299-6.07v-20.158c0-2.683-2.19-4.3-4.356-4.3h-.621v-1.45c1.825 0 3.687.195 5.513.195 1.43 0 2.82-.195 4.256-.195z"/><path fill="#231f20" fill-opacity="1" fill-rule="nonzero" d="M342.111 279.608v-.015l-.04-.03zm.122.095.153-.136zm.948 9.943h1.582c-.21-1.436-.252-3.036-.252-4.619v-21.794c0-5.75 2.419-6.27 4.47-6.281h.517v-1.022c-1.9.011-3.788.19-5.703.19-2.166 0-4.309-.179-6.48-.19v1.022h.83c1.495.01 4.382.663 4.382 4.708l-.057 18.096-.084.09-.153.162-21.317-24.078c-1.408 0-2.808.19-4.255.19-1.768 0-3.573-.179-5.302-.19v1.022h.41c2.258.01 4.571 1.704 4.571 4.513v20.158c0 3.836-1.068 6.276-4.513 6.292h-.468v1.01c2.077-.015 4.202-.189 6.312-.189 2 0 3.988.174 5.966.19v-1.011h-.621c-3.756 0-4.692-1.641-4.692-5.819v-20.258Zm1.825.421-1.984-.075-24.293-27.075v19.18c.058 4.177.694 5.345 4.287 5.387h1.041v1.856h-.21c-2.072 0-4.13-.184-6.176-.184-2.146 0-4.345.184-6.523.184h-.194v-1.856h.873c3.156-.01 4.066-2.041 4.092-5.861v-20.158c0-2.557-2.083-4.099-4.15-4.104h-.815v-1.845h.194c1.836 0 3.704.19 5.513.19 1.416 0 2.794-.19 4.424-.117l21.026 23.678V261.66c-.01-3.81-2.55-4.267-3.966-4.299H336.9v-1.845h.209c2.25 0 4.472.19 6.686.19 1.972 0 3.914-.19 5.902-.19h.206v1.845h-.921c-1.967.059-4.01.237-4.05 5.872v21.794c0 1.662.04 3.335.262 4.797l.043.243zm19.378-28.987h-.093l-4.456 13.551h8.968zm-6.99 21.211c-.47 1.626-1.047 2.883-1.047 3.73 0 1.442 2.024 1.673 3.581 1.673h.538v1.441c-1.92-.095-3.878-.184-5.798-.184-1.74 0-3.45.09-5.16.184v-1.441h.263c1.878 0 3.467-1.1 4.177-3.11l7.67-21.962c.62-1.778 1.478-4.166 1.762-5.95 1.53-.52 3.445-1.473 4.356-2.052.147-.052.247-.09.39-.09.135 0 .226 0 .331.138.147.384.284.814.442 1.198l8.8 25.041c.564 1.674 1.153 3.45 1.773 4.888.568 1.336 1.584 1.899 3.162 1.899h.283v1.441c-2.15-.095-4.313-.184-6.606-.184-2.346 0-4.746.09-7.186.184v-1.441h.531c1.093 0 2.972-.18 2.972-1.379 0-.625-.436-1.92-.968-3.45l-1.857-5.556h-10.857z"/><path fill="#231f20" fill-opacity="1" fill-rule="nonzero" d="m364.206 261.145.085-.032zm-4.076 13.272h8.38l-4.178-12.814zm-.586.41 4.615-13.95h.225v.199l-.046.022.046-.022v-.199h.159l4.524 13.95zm9.79 14.088c2.362-.079 4.698-.177 6.982-.177 2.22 0 4.304.098 6.386.172v-.993h-.073c-1.62 0-2.757-.643-3.352-2.042-.641-1.452-1.21-3.23-1.777-4.903l-8.803-25.04a125 125 0 0 1-.414-1.142c-.036-.063-.036-.063-.074-.063h-.084c-.1 0-.153.026-.278.063-.927.585-2.836 1.547-4.272 1.915-.284 1.82-1.159 4.203-1.768 5.976l-7.67 21.978c-.731 2.079-2.388 3.258-4.36 3.258h-.08v.993c1.658-.074 3.309-.172 4.977-.172 1.852 0 3.736.098 5.592.172v-.993h-.338c-1.55-.022-3.734-.19-3.792-1.895.01-.947.606-2.172 1.074-3.787l.184.058-.184-.063 1.568-5.119h11.173l1.909 5.687c.537 1.541.963 2.814.963 3.519-.068 1.467-2.078 1.572-3.178 1.6h-.31zm13.574.427c-2.158-.084-4.32-.19-6.592-.19-2.341 0-4.74.106-7.18.19l-.212.016V287.5h.721c1.115 0 2.768-.262 2.778-1.183.005-.547-.42-1.857-.967-3.382l-1.816-5.415h-10.568l-1.473 4.83c-.479 1.646-1.059 2.904-1.041 3.672 0 1.173 1.793 1.478 3.37 1.478h.738v1.858l-.216-.016c-1.91-.084-3.876-.19-5.776-.19-1.725 0-3.44.106-5.165.19l-.211.016V287.5h.479c1.782-.02 3.282-1.047 3.975-2.982l7.666-21.97c.609-1.776 1.473-4.16 1.888-6.064 1.51-.52 3.437-1.484 4.357-2.061.126-.048.273-.106.462-.106a.54.54 0 0 1 .526.284c.137.379.278.81.43 1.195l8.814 25.045c.568 1.673 1.146 3.44 1.772 4.86.563 1.274 1.42 1.778 2.962 1.8h.49v1.857zm12.08-4.896c0 1.914 1.331 2.49 2.862 2.684 1.961.146 4.115.146 6.33-.095 1.998-.232 3.734-1.39 4.586-2.59.762-1.056 1.184-2.387 1.488-3.45h1.389c-.536 2.731-1.204 5.419-1.784 8.144-4.208 0-8.426-.19-12.624-.19-4.218 0-8.438.19-12.647.19v-1.446h.658c1.74 0 3.604-.228 3.604-3.204v-24.6c0-2.498-1.864-2.724-3.604-2.724h-.658v-1.452c2.536 0 5.029.195 7.56.195 2.446 0 4.84-.195 7.286-.195v1.452h-1.205c-1.815 0-3.24.047-3.24 2.588z"/><path fill="#231f20" fill-opacity="1" fill-rule="nonzero" d="M409.698 288.926c.553-2.594 1.184-5.14 1.684-7.728h-.983c-.29 1.057-.716 2.336-1.475 3.372-.888 1.247-2.666 2.414-4.743 2.668a34 34 0 0 1-3.667.194c-.927 0-1.836-.043-2.7-.1-1.545-.174-3.061-.837-3.045-2.884v-24.697c0-2.669 1.678-2.8 3.462-2.8h.988v-1.02c-2.357.01-4.693.19-7.07.19-2.488 0-4.913-.18-7.359-.19v1.02h.458c1.714 0 3.802.295 3.802 2.93v24.605c0 3.098-2.082 3.429-3.802 3.429h-.458v1.01c4.128-.01 8.28-.189 12.447-.189 4.156 0 8.305.179 12.46.19m.165.416c-4.22 0-8.428-.19-12.625-.19-4.219 0-8.439.19-12.657.19h-.195V287.5h.863c1.736-.042 3.388-.169 3.402-3.014V259.88c-.014-2.324-1.65-2.488-3.402-2.524h-.863v-1.841h.195c2.552 0 5.04.19 7.569.19 2.436 0 4.83-.19 7.286-.19h.19v1.84h-1.394c-1.858.053-3.014-.03-3.057 2.395v24.697c.02 1.784 1.184 2.258 2.693 2.479.831.057 1.731.09 2.647.09 1.168 0 2.383-.058 3.635-.19 1.946-.232 3.62-1.352 4.45-2.495.737-1.03 1.157-2.34 1.436-3.386l.052-.164h1.805l-.046.264c-.538 2.729-1.195 5.408-1.774 8.142l-.052.154zm.392-29.926h.59c.651 0 .951-.49.951-1.284 0-.805-.479-1.084-.99-1.084h-.551zm-1.704 2.661v-.252c.61-.084.73-.057.73-.453v-3.724c0-.532-.057-.71-.714-.679v-.263h2.586c.874 0 1.695.431 1.695 1.342 0 .757-.49 1.3-1.19 1.52l.822 1.162c.395.511.83 1.011 1.12 1.185v.162h-.983c-.469 0-.878-1-1.81-2.32h-.552v1.668c0 .343.114.316.725.4v.252zm2.504 1.426c2.256 0 3.986-1.916 3.986-4.087 0-2.174-1.698-4.115-3.986-4.115-2.274 0-3.999 1.941-3.999 4.115 0 2.171 1.725 4.087 3.999 4.087m0-9.138c2.882 0 5.038 2.22 5.038 5.05s-2.156 5.023-5.038 5.023c-2.878 0-5.045-2.193-5.045-5.022 0-2.831 2.167-5.05 5.045-5.05"/><path fill="#fff" fill-opacity="1" fill-rule="nonzero" d="M112.177 85.441c0-44.785 36.302-81.087 81.088-81.087 44.784 0 81.087 36.302 81.087 81.087s-36.303 81.088-81.087 81.088c-44.786 0-81.088-36.303-81.088-81.088"/><path fill="#264b9a" fill-opacity="1" fill-rule="nonzero" d="M242.306 83.844C242.269 63.075 229.292 45.37 211 38.356v90.975c18.292-7.024 31.269-24.713 31.306-45.487m-66.197 45.467v-90.95c-18.27 7.041-31.233 24.726-31.28 45.483.047 20.753 13.01 38.442 31.28 45.467m17.455-122.36c-42.465.015-76.872 34.428-76.877 76.893.005 42.46 34.412 76.867 76.877 76.873 42.467-.006 76.884-34.413 76.895-76.873-.011-42.465-34.428-76.878-76.895-76.894m-.189 161.03c-46.47.216-84.716-37.428-84.716-83.26 0-50.083 38.247-84.726 84.716-84.715h21.782c45.916-.01 87.827 34.612 87.827 84.715 0 45.811-41.91 83.26-87.827 83.26z"/></svg>