<!-- SPDX-FileCopyrightText: © 2024 DFS Services LLC SPDX-License-Identifier: LicenseRef-Proprietary -->
<svg xmlns="http://www.w3.org/2000/svg" xmlns:xlink="http://www.w3.org/1999/xlink" version="1.1" viewBox="0 0 127.587 83.8"><defs><linearGradient id="a"><stop offset="0" stop-color="#e0541f" stop-opacity="1"/><stop offset="1" stop-color="#f9a01f" stop-opacity="1"/></linearGradient><linearGradient id="c" x1="0" x2="1" y1="0" y2="0" gradientTransform="scale(-8.43224 8.43224)rotate(57.434 -5.855 -3.928)" gradientUnits="userSpaceOnUse" spreadMethod="pad"><stop offset="0" stop-color="#f9a01f" stop-opacity="1"/><stop offset=".277" stop-color="#f9a01f" stop-opacity="1"/><stop offset=".62" stop-color="#f6881f" stop-opacity="1"/><stop offset=".923" stop-color="#f47520" stop-opacity="1"/><stop offset="1" stop-color="#f47520" stop-opacity="1"/></linearGradient><linearGradient xlink:href="#a" id="b" x1="7.989" x2="31.565" y1="117.809" y2="29.821" gradientTransform="matrix(1.33333 0 0 -1.33333 37.422 140.32)" gradientUnits="userSpaceOnUse"/><filter id="d" width="1.519" height="1.519" x="-.183" y="-.336" color-interpolation-filters="sRGB"><feFlood flood-color="rgb(72,14,14)" flood-opacity=".38" result="flood"/><feGaussianBlur in="SourceGraphic" result="blur" stdDeviation=".5"/><feOffset dx="1" dy="-1" in="blur" result="offset"/><feComposite in="flood" in2="offset" operator="out" result="comp1"/><feComposite in="comp1" in2="SourceGraphic" operator="atop" result="fbSourceGraphic"/><feColorMatrix in="fbSourceGraphic" result="fbSourceGraphicAlpha" values="0 0 0 -1 0 0 0 0 -1 0 0 0 0 -1 0 0 0 0 1 0"/><feFlood flood-color="rgb(130,53,26)" flood-opacity=".4" result="flood"/><feGaussianBlur in="fbSourceGraphic" result="blur" stdDeviation=".5"/><feOffset dx="1" dy="-1" in="blur" result="offset"/><feComposite in="flood" in2="offset" operator="out" result="comp1"/><feComposite in="comp1" in2="fbSourceGraphic" operator="atop" result="comp2"/></filter></defs><path fill="url(#b)" d="M7.063 3.063a4 4 0 0 0-4 4v69.675c0 2.207 1.792 4 4 4H120.52c2.209 0 4-1.793 4-4V7.063a4 4 0 0 0-4-4zm0 1.333h73.976c20.713 0 37.504 16.792 37.504 37.504s-16.79 37.504-37.504 37.504H7.063a2.67 2.67 0 0 1-2.667-2.666V7.063a2.67 2.67 0 0 1 2.667-2.667z"/><path fill="#fff" d="M7.063 4.396a2.67 2.67 0 0 0-2.667 2.667v69.675a2.67 2.67 0 0 0 2.667 2.666h73.976c20.713 0 37.504-16.79 37.504-37.504S101.753 4.396 81.039 4.396z"/><path fill="#231f20" d="M49.396 33.1c-4.877 0-8.789 3.836-8.789 8.636 0 4.851 3.81 8.614 8.713 8.614 1.386 0 2.571-.273 4.035-.961v-3.791c-1.288 1.288-2.426 1.808-3.886 1.808-3.243 0-5.543-2.35-5.543-5.693 0-3.17 2.374-5.668 5.394-5.668 1.535 0 2.698.546 4.035 1.855v-3.787c-1.413-.716-2.573-1.013-3.959-1.013zm-15.22.1c-2.922 0-5.15 2.028-5.15 4.73 0 2.274 1.04 3.436 4.062 4.525 1.26.444 1.9.743 2.224.941.643.42.967 1.013.967 1.708 0 1.337-1.064 2.328-2.502 2.328-1.534 0-2.772-.768-3.513-2.202l-2.08 2.002c1.484 2.178 3.265 3.143 5.714 3.143 3.347 0 5.694-2.225 5.694-5.42 0-2.623-1.086-3.808-4.748-5.148-1.932-.715-2.5-1.188-2.5-2.078 0-1.04 1.013-1.83 2.4-1.83.965 0 1.757.397 2.596 1.337l1.685-2.207c-1.384-1.212-3.041-1.83-4.85-1.83zm78.01.146a1.26 1.26 0 0 0-1.204 1.267c0 .704.568 1.27 1.268 1.27.688 0 1.254-.571 1.254-1.27 0-.694-.566-1.267-1.254-1.267zm-103.5.127v16.506h4.7c2.5 0 4.304-.59 5.89-1.907a8.28 8.28 0 0 0 2.995-6.334c0-4.872-3.639-8.265-8.859-8.265zm15.068 0v16.506h3.219V33.473zm47.21 0 7.005 16.93H79.7l7.131-16.93h-3.49l-4.46 11.086-4.402-11.086Zm17.323 0v16.506h9.131v-2.795h-5.914v-4.455h5.695v-2.795h-5.695V36.27h5.914v-2.797zm11.262 0v16.506h3.217v-6.631h.42l4.457 6.63h3.959l-5.198-6.953c2.427-.493 3.764-2.151 3.764-4.68 0-3.089-2.132-4.872-5.844-4.872zm12.697.1c.555 0 1.004.474 1.004 1.042 0 .574-.45 1.041-1.004 1.041a1.026 1.026 0 0 1-1.012-1.04c0-.58.452-1.044 1.012-1.044zm-.533.316v1.457h.348v-.565l.408.565h.424l-.479-.602c.204-.056.318-.205.318-.406 0-.29-.2-.45-.552-.45zm.348.267h.062c.172 0 .262.062.262.188 0 .128-.093.193-.266.193h-.058zm-9.295 1.916h.99c2.007 0 3.096.84 3.096 2.448 0 1.658-1.089 2.552-3.145 2.552h-.941zm-90.864.198h.864c2.08 0 3.342.37 4.406 1.334 1.113.99 1.783 2.529 1.783 4.109 0 1.585-.67 3.17-1.783 4.16-1.012.913-2.326 1.31-4.406 1.31h-.864z"/><path fill="url(#c)" d="M40.801 31.569a6.554 6.554 0 0 1 6.554-6.554v0a6.555 6.555 0 0 1 6.556 6.554v0a6.556 6.556 0 0 1-6.556 6.556v0a6.555 6.555 0 0 1-6.554-6.556" filter="url(#d)" transform="matrix(1.33333 0 0 -1.33333 0 83.8)"/></svg>