<!-- SPDX-FileCopyrightText: © 2025 Schneider Electric SPDX-License-Identifier: LicenseRef-Proprietary -->
<svg xmlns="http://www.w3.org/2000/svg" viewBox="0 0 16 16"><path d="M8.416 1.513a.395.395 0 1 1-.79 0 .395.395 0 0 1 .79 0Zm0 1.579a.395.395 0 1 1-.79 0 .395.395 0 0 1 .79 0Zm2.316-.409a.396.396 0 1 1-.686.395.396.396 0 0 1 .686-.395Zm-4.737.395a.395.395 0 1 1-.684-.394.395.395 0 0 1 .684.394Zm3.947-1.763a.395.395 0 1 1-.683.396.395.395 0 0 1 .683-.396Zm-3.158.395a.395.395 0 1 1-.684-.395.395.395 0 0 1 .684.395Z"/><path fill="none" stroke="currentColor" stroke-linecap="round" stroke-linejoin="round" d="M8.509 4.567a4 4 0 0 1 .292-.01c1.797 0 3.393 1.166 3.729 2.659m-4.89 5.438c.368.107.758.165 1.161.165a4.12 4.12 0 0 0 3.229-1.554M4.861 1.5H2.393c-.493 0-.893.4-.893.893v11.213c0 .494.4.894.893.894h11.214c.494 0 .893-.4.893-.894v-2.41m-10.68.294h2.466-.376c-.472 0-.857-.402-.857-.897V9.424c0-1.648 1.569-1.683 1.569-3.297V4.545H3.486v1.582c0 .689.285 1.09.613 1.452m2.736 2.003q.138.025.285.025c.483 0 .902-.445 1.119-.747.218.303.638.747 1.121.747s.902-.445 1.119-.747c.217.303.637.747 1.12.747s.902-.445 1.12-.747c.217.303.321.691.76.691s.823-.175 1.021-.433V2.393a.893.893 0 0 0-.893-.893H11.14"/></svg>