<!-- SPDX-FileCopyrightText: © 2025 Schneider Electric SPDX-License-Identifier: LicenseRef-Proprietary -->
<svg xmlns="http://www.w3.org/2000/svg" viewBox="0 0 16 16"><path fill="none" stroke="currentColor" stroke-linecap="round" stroke-linejoin="round" d="m9.182 13.469-1.744-.28m-.477 1.558.467-1.547m.265.385a4.12 4.12 0 0 0 3.678 1.91 4.135 4.135 0 0 0 3.747-2.946m-1.925-3.036 1.719.406M15.5 8.4l-.576 1.509m-.238-.402a4.12 4.12 0 0 0-3.531-2.173 4.13 4.13 0 0 0-3.949 2.665M2.417 4.376q.442.155.963.277c.521.122.716.152 1.105.209s.798.102 1.221.132a19 19 0 0 0 2.622 0q.636-.046 1.221-.132c.585-.086.759-.128 1.105-.209s.669-.175.963-.277.561-.215.795-.336.435-.25.6-.386.292-.278.379-.426.132-.301.132-.458-.046-.31-.132-.458-.215-.29-.379-.426-.366-.265-.6-.386-.5-.233-.795-.336S11 .968 10.654.887 9.938.735 9.549.678 8.751.576 8.328.546a19 19 0 0 0-2.622 0Q5.07.592 4.485.678C3.9.764 3.726.806 3.38.887s-.669.175-.963.277-.561.215-.795.336-.435.25-.6.386-.292.278-.379.426-.132.301-.132.458m.001 3.417c0 1.258 1.842 2.246 5.582 2.246M.512 9.726c0 1.258 2.151 2.282 4.809 2.282M.5 2.5v10.713c0 1.263 2.287 2.273 4.821 2.273M13.5 2.771V6.5"/></svg>