<!-- SPDX-FileCopyrightText: © 2025 Schneider Electric SPDX-License-Identifier: LicenseRef-Proprietary -->
<svg xmlns="http://www.w3.org/2000/svg" viewBox="0 0 16 16"><path fill="none" stroke="currentColor" stroke-linecap="round" stroke-linejoin="round" d="M.563 2.813q.001-.24.152-.466c.151-.226.246-.296.435-.434s.42-.27.689-.393.574-.238.912-.342.708-.199 1.105-.282.822-.155 1.269-.213.916-.104 1.402-.135a23.7 23.7 0 0 1 4.412.135q.671.089 1.269.213c.598.124.767.178 1.105.282s.644.219.912.342.5.255.689.393.336.284.435.434.152.307.152.466-.052.316-.152.466-.246.296-.435.434-.42.27-.689.393-.574.238-.912.342-.708.199-1.105.282-.822.155-1.269.213-.916.104-1.402.135a23.7 23.7 0 0 1-4.412-.135q-.671-.089-1.269-.213c-.598-.124-.767-.178-1.105-.282M.5 2.5v10.773C.5 14.503 3.858 15.5 8 15.5s7.5-.997 7.5-2.227V5.5m-10.858 6L2.803 9.604s1.715.22 1.715-1.158-2.019-.864-2.019-.864V11.5m6.421 0L7.408 7.582 5.922 11.5m.578-1h2.001m1.338-2.918.774 3.918 1.042-2.113 1.024 2.113.768-3.918"/></svg>