<!-- SPDX-FileCopyrightText: © 2025 Schneider Electric SPDX-License-Identifier: LicenseRef-Proprietary -->
<svg xmlns="http://www.w3.org/2000/svg" viewBox="0 0 16 16"><path fill="none" stroke="currentColor" stroke-linecap="round" stroke-linejoin="round" d="M9.413 11.615a4.14 4.14 0 0 1-2.021-3.561A4.144 4.144 0 0 1 11.5 3.908v4.277l1.573-1.573m.268 5.082c1.286-.704 2.159-2.07 2.159-3.64s-.866-2.928-2.146-3.634m-3.813 9.11 2.012 1.97 1.974-1.97M11.5 15.5v-5M1.959 4.183c.241.121.208.092.511.195s.635.196.991.277.737.152 1.137.209.821.102 1.257.132m7.91-2.682q-.135-.223-.39-.426c-.255-.203-.377-.265-.617-.386s-.515-.233-.818-.336-.635-.196-.991-.277S10.212.737 9.812.68 8.991.578 8.555.548a20 20 0 0 0-2.7 0Q5.2.594 4.598.68c-.602.086-.781.128-1.137.209s-.688.175-.991.277-.577.215-.818.336-.448.25-.617.386-.301.279-.39.426-.136.301-.136.458M.508 6.189c0 1.178 1.616 2.12 4.893 2.235M.508 9.73c0 1.258 2.151 2.283 4.811 2.283M.5 2.5v10.719c0 1.263 2.287 2.274 4.822 2.274"/></svg>