<!-- SPDX-FileCopyrightText: © 2025 Schneider Electric SPDX-License-Identifier: LicenseRef-Proprietary -->
<svg xmlns="http://www.w3.org/2000/svg" viewBox="0 0 16 16"><path fill="none" stroke="currentColor" stroke-linecap="round" stroke-linejoin="round" d="m.5.5 15 15m-6.182-4.041c-.189.089-.51.186-1.058.247-.976.107-2.059-.458-2.059-.458s.373 4.394 2.509 4.249c1.969-.134 2.409-2.004 2.212-4.595m-.075-2.285c.233-1.474.859-2.578.129-4.263C10.055 2.223 8.145-.079 6.434.631c-.832.345-1.33 1.094-1.572 1.976m-.141 2.138c.098.879.372 1.692.755 2.21C6.742 8.67 6.659 9.603 6.659 9.603"/></svg>