<!-- SPDX-FileCopyrightText: © 2025 Schneider Electric SPDX-License-Identifier: LicenseRef-Proprietary -->
<svg xmlns="http://www.w3.org/2000/svg" viewBox="0 0 16 16"><path fill="none" stroke="currentColor" stroke-linecap="round" stroke-linejoin="round" d="m.499.5 14.993 15M2.5 8.5h-2m1.097 1.255L2.843 8.4 1.597 7.352M4.5 6.864v7.635m0-13.088v3.015m7 9.328v.745m0-13.088v9.832m2-2.743h2m-1.053-1.314-1.275 1.205 1.246 1.364M6.5 8.983v4.45c0 .586.365 1.066.81 1.066h1.379c.446 0 .81-.48.81-1.066V11.97M7.106 1.536c-.358.205-.606.642-.606 1.144v3.743m3 2.989v-6.67c0-.526-.211-.981-.508-1.172"/></svg>