<!-- SPDX-FileCopyrightText: © 2025 Schneider Electric SPDX-License-Identifier: LicenseRef-Proprietary -->
<svg xmlns="http://www.w3.org/2000/svg" viewBox="0 0 16 16"><path fill="none" stroke="currentColor" stroke-linecap="round" stroke-linejoin="round" d="M12.5 13.483v.367c0 1.009-.845 1.736-1.959 1.642H5.458c-1.114.094-1.959-.633-1.959-1.642V4.595c0-1.973 1.344-3.587 3.418-4 2.343-.484 4.647.915 5.108 3.139.038.215.077.466.058.682-.077.556-.595.933-1.19.915a1.124 1.124 0 0 1-1.094-1.004c-.096-.825-.749-1.507-1.613-1.65-.902-.161-1.786.251-2.189.986-.326.592-.346 1.794.269 2.35.25.215.499.377.826.448 1.229.305 2.836.628 4.065.933.826.215 1.344.843 1.344 1.632v2.468M6.312 9.471l3.337 3.336M6.311 9.468a2.35 2.35 0 0 0-.692 1.666c0 .33.066.644.185.929a2.36 2.36 0 0 0 1.261 1.266q.16.066.331.109l.065.015m2.197-.636a2.4 2.4 0 0 0 .505-.749 2.4 2.4 0 0 0 0-1.844A2.37 2.37 0 0 0 8.51 8.835l-.03-.007"/></svg>