<!-- SPDX-FileCopyrightText: © 2025 Schneider Electric SPDX-License-Identifier: LicenseRef-Proprietary -->
<svg xmlns="http://www.w3.org/2000/svg" viewBox="0 0 16 16"><path fill="none" stroke="currentColor" stroke-linecap="round" stroke-linejoin="round" d="M3.284 6.473A101 101 0 0 1 .469 2.151a.8.8 0 0 1 .118-.985l.43-.43a.8.8 0 0 1 .985-.118c1.63 1.005 6.536 4.1 8.741 6.306l2.673 2.673.526-.056a1.41 1.41 0 0 1 1.147.406l.262.262s0 1.323-1.984 3.307S10.06 15.5 10.06 15.5l-.319-.319a1.4 1.4 0 0 1-.414-1.014l.008-.715-2.589-2.589c-.496-.496-1.039-1.132-1.594-1.839"/></svg>