<!-- SPDX-FileCopyrightText: © 2025 Schneider Electric SPDX-License-Identifier: LicenseRef-Proprietary -->
<svg xmlns="http://www.w3.org/2000/svg" viewBox="0 0 16 16"><path fill="none" stroke="currentColor" stroke-linecap="round" stroke-linejoin="round" d="M5.5 10.5H3.445c-1.377.001-2.65-.901-2.897-2.216C.224 6.551 1.585 5.042 3.31 5.042q.167 0 .329.019c.608-1.6 2.193-2.741 4.051-2.741 2.198 0 4.01 1.595 4.282 3.658a2.56 2.56 0 0 1 1.868-.12 2.35 2.35 0 0 1 1.542 1.51c.516 1.635-.729 3.133-2.334 3.133H7.5m-2.011 2.296.71 1.784m1.874-2.095.711 1.784"/></svg>