<!-- SPDX-FileCopyrightText: © 2025 Schneider Electric SPDX-License-Identifier: LicenseRef-Proprietary -->
<svg xmlns="http://www.w3.org/2000/svg" viewBox="0 0 16 16"><path fill="none" stroke="currentColor" stroke-linecap="round" stroke-miterlimit="10" d="m12.319 5.981.871.876a.81.81 0 0 1 0 1.141.796.796 0 0 1-1.134 0l-1.297-1.305-.68-.684m2.24-.028 2.711-2.726a1.62 1.62 0 0 0 0-2.282 1.6 1.6 0 0 0-2.269 0l-2.754 2.683m-.001-.001-.828-.833c-.313-.315-.821-.315-1.135 0s-.313.826 0 1.141l.871.876h0L1.39 12.407a1.6 1.6 0 0 0-.454 1.06c.01.201.021.524-.092.637L.5 14.45m1.22 1.05.257-.258c.113-.113.434-.102.634-.092a1.57 1.57 0 0 0 1.054-.456l6.423-6.459"/></svg>