<!-- SPDX-FileCopyrightText: © 2025 Schneider Electric SPDX-License-Identifier: LicenseRef-Proprietary -->
<svg xmlns="http://www.w3.org/2000/svg" viewBox="0 0 16 16"><path fill="none" stroke="currentColor" stroke-linecap="round" stroke-linejoin="round" d="M4.061 13.79a2.46 2.46 0 0 1-1.687-2.981m2.271-6.362S.5 8.013.5 11.745c0 2.317 1.982 3.755 4.145 3.755s4.145-1.438 4.145-3.755c0-.984-.52-2.047-1.192-3.06M4.645 4.447c.306.761.624 1.207 1.388 2.159m4.878-1.315q-.06.235-.06.487c0 .879.568 1.621 1.345 1.855M12.342.5S9.184 3.301 9.184 6.234c0 1.821 1.51 2.95 3.158 2.95s3.158-1.13 3.158-2.95c0-.773-.114-1.109-.625-1.904M12.342.5c.233.598.475.949 1.057 1.696"/></svg>