<!-- SPDX-FileCopyrightText: © 2025 Schneider Electric SPDX-License-Identifier: LicenseRef-Proprietary -->
<svg xmlns="http://www.w3.org/2000/svg" viewBox="0 0 16 16"><path fill="none" stroke="currentColor" stroke-linecap="round" stroke-linejoin="round" stroke-width=".999" d="M11.162 7.263c1.073-2.79-1.141-3.795 0-6.763m2.401 0c-1.141 2.968 1.073 3.973 0 6.763M8.76.5c-1.141 2.968 1.073 3.973 0 6.763m-4.724 3.976q-.06.227-.06.472c0 .852.568 1.571 1.345 1.797m1.775-6.173c-.518-.713-1.142-2.009-1.142-2.009s-3.82 3.282-3.82 6.717c0 2.133 1.826 3.457 3.82 3.457s3.82-1.324 3.82-3.457c0-.906-.479-1.983-1.099-2.915"/></svg>