<!-- SPDX-FileCopyrightText: © 2025 Schneider Electric SPDX-License-Identifier: LicenseRef-Proprietary -->
<svg xmlns="http://www.w3.org/2000/svg" viewBox="0 0 16 16"><path fill="none" stroke="currentColor" stroke-linecap="round" stroke-linejoin="round" d="M2.007 7.429c-.638-2.436 1.44-3.303 1.959-2.971C3.73 2.603 5.06 1.17 6.971.637c1.912-.532 3.994.542 4.467 2.454.688-.565 2.78-1.039 3.237.809m-3.952 6.63c.471-1.908-.847-3.925-2.759-4.457-1.911-.531-3.732.024-4.384 1.759-.299-.558-2.511-.885-3.08 1.564m15 3.294c-.709-.096-1.485.181-1.855.486-.473-1.912-2.555-2.987-4.467-2.454s-3.241 1.965-3.005 3.821c-.335-.214-1.321.072-1.805.957"/></svg>