<!-- SPDX-FileCopyrightText: © 2025 Schneider Electric SPDX-License-Identifier: LicenseRef-Proprietary -->
<svg xmlns="http://www.w3.org/2000/svg" viewBox="0 0 16 16"><path fill="none" stroke="currentColor" stroke-linecap="round" stroke-linejoin="round" d="M9.941 14.003 8.808 15.5H6.816l-1.708-2.345M3.792 3.007l.036.229a1 1 0 0 0 1.141.829l6.41-1.016a1 1 0 0 0 .829-1.141l-.036-.229m-8.38 3.583.036.229a1 1 0 0 0 1.141.829l6.41-1.016a1 1 0 0 0 .829-1.141l-.036-.229a1 1 0 0 0-1.141-.829l-6.465.937m-.774 3.463.036.229c.086.542.631.922 1.172.837l6.378-1.024a1 1 0 0 0 .829-1.141l-.036-.229a1 1 0 0 0-1.141-.829l-6.52.945m-.718 3.484.036.229a1 1 0 0 0 1.141.829l6.41-1.016a1 1 0 0 0 .829-1.141l-.036-.229a1 1 0 0 0-1.141-.829l-6.528.905m-.711 3.523.036.229a1 1 0 0 0 1.141.829l6.41-1.016a1 1 0 0 0 .829-1.141l-.036-.229a1 1 0 0 0-1.141-.829l-6.465.937M2.426.5v1H13.5v-1"/></svg>