<!-- SPDX-FileCopyrightText: © 2025 Schneider Electric SPDX-License-Identifier: LicenseRef-Proprietary -->
<svg xmlns="http://www.w3.org/2000/svg" viewBox="0 0 16 16"><path fill="none" stroke="currentColor" stroke-linecap="round" stroke-linejoin="round" stroke-width="1.062" d="M12.735 13.571 11.426 15.5H4.235l-1.727-2.363m-.952-7.774c.077.548.537.925 1.023.838l11.153-1.027c.486-.087.82-.606.743-1.154l-.033-.232c-.077-.548-.537-.925-1.023-.838M1.556 12.225c.077.548.537.925 1.023.838l11.153-1.027c.486-.087.82-.606.743-1.154l-.033-.232c-.077-.548-.537-.972-1.023-.886M1.524 2.85l.033.232c.077.548.537.925 1.023.838l11.153-1.004c.486-.087.82-.63.743-1.178l-.033-.232M1.556 7.631c.077.548.537.925 1.023.838l11.153-1.027c.486-.087.82-.606.743-1.154l-.033-.232c-.077-.548-.537-.933-1.023-.846M1.556 9.928c.077.548.537.925 1.023.838l11.153-1.027c.486-.087.82-.606.743-1.154l-.033-.232c-.077-.548-.537-.964-1.023-.878M.5.5v1h15v-1"/></svg>