<!-- SPDX-FileCopyrightText: © 2025 Schneider Electric SPDX-License-Identifier: LicenseRef-Proprietary -->
<svg xmlns="http://www.w3.org/2000/svg" viewBox="0 0 16 16"><path fill="none" stroke="currentColor" stroke-linecap="round" stroke-linejoin="round" d="M3.671 5.367c-.25-1.21.783-2.869.783-2.869C6.047.246 8.224.509 8.224.509c2.609.077 4.096 2.404 4.096 2.404 2.199 3.524-1.213 7.925-1.213 7.925-.694.939-2.914 4.332-5.215 4.625s-2.868-1.284-2.868-1.284C2.39 12.55 5.529 8.345 5.529 8.345c-1.205 2-.272 2.669-.272 2.669.839.496 2.518-1.357 2.518-1.357 1.899-2.002.949-3.356.949-3.356-.976-1.675-2.889-1.063-2.889-1.063-.645-1.986 1.531-2.522 1.531-2.522s3.32-1.17 3.535 2.776c.22 4.043-2.33 5.783-2.33 5.783"/></svg>