<!-- SPDX-FileCopyrightText: © 2025 Schneider Electric SPDX-License-Identifier: LicenseRef-Proprietary -->
<svg xmlns="http://www.w3.org/2000/svg" viewBox="0 0 16 16"><path fill="none" stroke="currentColor" stroke-linecap="round" stroke-linejoin="round" d="M11.39.5v2m2-2v2m1 0h-4v1.901c0 1.007.723 1.595 2.265 1.595h0c1.007 0 1.641-.563 1.641-1.57m-4.911 7.398a1.53 1.53 0 1 0 1.53-1.53c-.441-2.27-2.498-4.223-3.104-4.743l.766.724.025.05.025.025c.025-.025.889 1.3.593 2.408-.136.51-1.49 1.955-1.49 1.955l-1.964-.318-.365-.683.507-.288-.034-1.053S4.291 7.148 1.151 7.148L.913 8.507l2.218 1.549-.686.686a1.53 1.53 0 1 0 1.53 1.53l1.099.237 1.736.145s.746 2.844 4.301 2.844c1.786 0 3.973-1.453 3.973-3.667 0-2.587-2.474-2.166-2.474-5.83m-4.829-.456H6.488"/></svg>