<!-- SPDX-FileCopyrightText: © 2025 Schneider Electric SPDX-License-Identifier: LicenseRef-Proprietary -->
<svg xmlns="http://www.w3.org/2000/svg" viewBox="0 0 16 16"><path fill="none" stroke="currentColor" stroke-linecap="round" stroke-linejoin="round" d="M11.213 13.253c0-.629.033-2.18-.476-2.917-.218-.316-.498-.354-.624-1-.055-.284-.156-4.393-1.097-4.986-1.106-.789-5.247-.751-6.5.039-.94.592-.944 4.593-1 4.876-.126.647-.323.755-.541 1.071-.509.738-.476 3.146-.476 3.776s.092 1.388.512 1.388h1.234c.527 0 .422-1.642.422-2h6.355c-.047.468.019 2 .545 2h1.271c3.191 0 4.644-1.455 4.644-3.673 0-2.591-1.846-2.098-1.846-5.767M15.5 2.5h-4l.023 1.838c0 1.289 1.147 1.602 2.327 1.602.876 0 1.632-.405 1.632-1.511M12.5 2.5v-2m2 2v-2M4.149 11.099c-.499-.385-1.058-.014-1.058-.014m5.411.053c-.486-.385-1.029-.014-1.029-.014"/></svg>