<!-- SPDX-FileCopyrightText: © 2025 Schneider Electric SPDX-License-Identifier: LicenseRef-Proprietary -->
<svg xmlns="http://www.w3.org/2000/svg" viewBox="0 0 16 16"><path fill="none" stroke="currentColor" stroke-linecap="round" stroke-linejoin="round" d="M10.823 11.574c-2.246-.374-2.186.913-3.803 1.168-3.926.618-4.335-1.746-3.781-1.784C5.387 10.809 5.165 8.5 5.165 8.5h1.883l-.843-2h2.314l.96 2h1.847l2.059 2.93 2.08.163L13.1 15.5H4.26C2.481 15.5.5 14.053.5 11.847c0-2.577 2.049-1.701 2.049-5.35M1.5.5v2m2-2v2m1 0h-4v2.016A1.99 1.99 0 0 0 2.484 6.5h.384c.844 0 1.532-.563 1.605-1.927"/></svg>