<!-- SPDX-FileCopyrightText: © 2025 Schneider Electric SPDX-License-Identifier: LicenseRef-Proprietary -->
<svg xmlns="http://www.w3.org/2000/svg" viewBox="0 0 16 16"><path fill="none" stroke="currentColor" stroke-linecap="round" stroke-linejoin="round" d="M10.5 15.5H9.381c-.501 0-.563-.555-.519-1H2.676c0 .341-.018 1-.519 1H1.011c-.229 0-.512-.759-.512-1.388S.466 10.43.975 9.693c.218-.316.221-.424.347-1.071.043-.22.372-4.715.518-7.02A1.18 1.18 0 0 1 3.02.5h4.92c.592 0 1.094.437 1.174 1.023a387 387 0 0 0 1.067 7.099c.126.647.129.755.347 1.071.509.738.476 2.922.476 3.551M1.723 4.5H7.5m-3.208 7.288c0-.159-.23-.288-.513-.288h-.818c-.284 0-.513.129-.513.288m6.454-.018c0-.149-.23-.27-.513-.27h-.818c-.284 0-.513.121-.513.27m6.614-5.693c0 4.264 1.812 2.935 1.812 5.75 0 2.218-1.513 3.673-4.438 3.673H9.5m6-13h-4l.023 1.838c0 1.289 1.031 1.708 2.211 1.708.876 0 1.747-.512 1.747-1.618M12.5 2.5v-2m2 2v-2"/></svg>