<!-- SPDX-FileCopyrightText: © 2025 Schneider Electric SPDX-License-Identifier: LicenseRef-Proprietary -->
<svg xmlns="http://www.w3.org/2000/svg" viewBox="0 0 16 16"><path fill="none" stroke="currentColor" stroke-linecap="round" stroke-linejoin="round" d="M11.546 1.5h1.477c.812 0 1.477.832 1.477 1.849v9.303a1.854 1.854 0 0 1-1.849 1.849H3.349A1.854 1.854 0 0 1 1.5 12.652V3.349c0-1.017.832-1.849 1.849-1.849H9.5m0 2H5.349A1.854 1.854 0 0 0 3.5 5.349v2.303c0 1.017.832 1.849 1.849 1.849h5.303a1.854 1.854 0 0 0 1.849-1.849V5.349c0-1.017-.225-1.849-.5-1.849h-.5m-7.715 8.711a.744.744 0 1 0 .744-.744m2.759.744a.744.744 0 1 0 .744-.744m2.76.744a.744.744 0 1 0 .744-.744"/></svg>