<!-- SPDX-FileCopyrightText: © 2025 Schneider Electric SPDX-License-Identifier: LicenseRef-Proprietary -->
<svg xmlns="http://www.w3.org/2000/svg" viewBox="0 0 16 16"><path fill="none" stroke="currentColor" stroke-linecap="round" stroke-linejoin="round" d="M7.144 15.5C3.405 15.074.5 11.889.5 8.024.5 3.869 3.858.5 8 .5s7.5 3.369 7.5 7.524a7.52 7.52 0 0 1-6.134 7.4M3.695 9.601c.608 1.548 2.315 2.664 4.33 2.664s3.722-1.116 4.33-2.664"/><path d="M11.176 5.677a.73.73 0 1 1-1.46 0 .73.73 0 0 1 1.46 0m-4.891 0a.73.73 0 1 1-1.46 0 .73.73 0 0 1 1.46 0"/></svg>