<!-- SPDX-FileCopyrightText: © 2025 Schneider Electric SPDX-License-Identifier: LicenseRef-Proprietary -->
<svg xmlns="http://www.w3.org/2000/svg" viewBox="0 0 16 16"><path fill="none" stroke="currentColor" stroke-linecap="round" stroke-linejoin="round" d="M13.207 1.11 7.492 6.5 3.5 2.5m8 11h3.2a.8.8 0 0 0 .8-.8V4.3a.8.8 0 0 0-.8-.8h-1.2v7.2a.8.8 0 0 1-.8.8h-2.2M13.347.967A1 1 0 0 0 12.5.5H2.3a.8.8 0 0 0-.8.8v3.2m2 2.001L.805 8.971c-.407.373-.407.688 0 1.061l2.695 2.47m1 2.998 1.003.002a3 3 0 0 0 3-3h0a3 3 0 0 0-3-3L.5 9.5"/></svg>