<!-- SPDX-FileCopyrightText: © 2025 Schneider Electric SPDX-License-Identifier: LicenseRef-Proprietary -->
<svg xmlns="http://www.w3.org/2000/svg" viewBox="0 0 16 16"><path fill="none" stroke="currentColor" stroke-linecap="round" stroke-linejoin="round" d="M15.387 1.137 8.992 6.5 4.5 2.5m7 10h3.2a.8.8 0 0 0 .8-.8V3.5m-.113-2.363C15.212.758 14.866.5 14.468.5H3.3a.8.8 0 0 0-.8.8v3.2m1 2.001L.805 8.971c-.407.373-.407.688 0 1.061l2.695 2.47m1 2.998 1.003.002a3 3 0 0 0 3-3h0a3 3 0 0 0-3-3L.5 9.5"/></svg>