<!-- SPDX-FileCopyrightText: © 2025 Schneider Electric SPDX-License-Identifier: LicenseRef-Proprietary -->
<svg xmlns="http://www.w3.org/2000/svg" viewBox="0 0 16 16"><path fill="none" stroke="currentColor" stroke-linecap="round" stroke-linejoin="round" d="m4.5 10.5 1.439-.004c.309 0 .56.251.559.56l-.012 2.883a.57.57 0 0 1-.564.563l-4.86.013a.56.56 0 0 1-.559-.56l.013-2.893a.565.565 0 0 1 .564-.561h.772a.563.563 0 0 0 .561-.561V8.063c0-.309.253-.559.561-.555l3.527.039a.555.555 0 0 0 .561-.555v-.929a.563.563 0 0 0-.561-.561H5.062a.563.563 0 0 1-.561-.561V2.064c0-.309.253-.561.561-.561h5.877c.309 0 .561.253.561.561v2.877a.563.563 0 0 1-.561.561H9.624a.563.563 0 0 0-.561.561v.877c0 .309.253.561.561.561h3.315c.309 0 .561.012.561.026v2.412c0 .309.253.561.561.561h.877c.309 0 .562.253.564.561l.013 2.877a.56.56 0 0 1-.559.56l-4.895-.013a.57.57 0 0 1-.564-.563l-.013-2.861a.56.56 0 0 1 .559-.56l1.457.004"/></svg>