<!-- SPDX-FileCopyrightText: © 2025 Schneider Electric SPDX-License-Identifier: LicenseRef-Proprietary -->
<svg xmlns="http://www.w3.org/2000/svg" viewBox="0 0 16 16"><path fill="none" stroke="currentColor" stroke-linecap="round" stroke-linejoin="round" d="M12.615 3.898s-1.353.248-3.139 1.076c-1.941.9-1.513 2.54-1.513 2.54.504 1.463.29 2.986.29 2.986H6.5v2h2.986s1.081-.058 1.081 1.003c0 .976-1.01.997-1.01.997H1.469S.5 14.394.5 13.498c0-.907 1.025-.998 1.025-.998H4.5v-2h-3v-4h4.774c.454-2.543 1.939-2.607 1.939-2.607l4.471-1.425s.359-.606.491-.816.224-.091.224-.091l.807.775.361 4.706c.52.263.699.238.898.933s-.495 1.107-.495 1.107l-2.266.943"/></svg>