<!-- SPDX-FileCopyrightText: © 2025 Schneider Electric SPDX-License-Identifier: LicenseRef-Proprietary -->
<svg xmlns="http://www.w3.org/2000/svg" viewBox="0 0 16 16"><path d="M8 0a8 8 0 1 0 0 16A8 8 0 0 0 8 0Zm-.724 3.142q.273-.323.803-.323.515 0 .782.323.264.323.222.853l-.43 5.479q-.014.315-.165.487a.52.52 0 0 1-.409.172.53.53 0 0 1-.423-.172q-.151-.172-.179-.487l-.43-5.479q-.044-.53.229-.853Zm1.585 9.672q-.28.301-.782.301-.487 0-.781-.301-.294-.302-.294-.774 0-.459.294-.753.294-.293.781-.294.501 0 .782.294.28.294.28.753 0 .473-.28.774Z"/></svg>