<!-- SPDX-FileCopyrightText: © 2025 Schneider Electric SPDX-License-Identifier: LicenseRef-Proprietary -->
<svg xmlns="http://www.w3.org/2000/svg" viewBox="0 0 16 16"><path fill="none" stroke="currentColor" stroke-linecap="round" stroke-linejoin="round" d="M8 .5a7.5 7.5 0 0 0 0 15c4.141 0 7.5-3.359 7.5-7.5S12.141.5 8 .5"/><path d="M8.064 13.109q-.484 0-.777-.3-.292-.299-.292-.77 0-.457.292-.748.293-.292.777-.292.5 0 .778.292t.278.748q0 .47-.278.77-.279.3-.778.3Zm0-2.964a.53.53 0 0 1-.42-.172q-.15-.17-.178-.484l-.428-5.445q-.042-.527.228-.848.271-.321.798-.321.513 0 .778.321.264.321.221.848l-.429 5.445q-.014.314-.164.484a.51.51 0 0 1-.406.172Z"/></svg>