<!-- SPDX-FileCopyrightText: © 2025 Schneider Electric SPDX-License-Identifier: LicenseRef-Proprietary -->
<svg xmlns="http://www.w3.org/2000/svg" viewBox="0 0 16 16"><path d="M15.708 12.812 9.396 1.708A1.68 1.68 0 0 0 8 .77a1.68 1.68 0 0 0-1.396.938L.292 12.812c-.188.292-.271.646-.292 1 0 .396.188.771.479 1.042.354.25.792.375 1.229.375h12.583c.438 0 .875-.125 1.229-.375.312-.271.479-.646.479-1.042-.021-.354-.104-.708-.292-1ZM7.298 4.5q.243-.287.715-.287.46 0 .696.287.237.287.198.76l-.383 4.877q-.012.28-.146.434a.46.46 0 0 1-.364.153.47.47 0 0 1-.376-.153q-.134-.153-.16-.434L7.095 5.26q-.038-.472.204-.76Zm1.41 8.611q-.249.268-.696.268-.433 0-.696-.268c-.263-.268-.262-.409-.262-.689q0-.408.262-.671.262-.261.696-.262.447 0 .696.262a.93.93 0 0 1 .249.671q0 .421-.249.689Z"/></svg>