<!-- SPDX-FileCopyrightText: © 2025 Schneider Electric SPDX-License-Identifier: LicenseRef-Proprietary -->
<svg xmlns="http://www.w3.org/2000/svg" viewBox="0 0 16 16"><path fill="none" stroke="currentColor" stroke-linecap="round" stroke-linejoin="round" d="M3.5 15.5v-1.656L5.097 12.5h2.797l.403-5h1.324l.39 5h3.125l.498-9h1.309l.557 11.959M4.194 5.423c-.57-.188-.979-.579-1.038-1.041-.252.094-.54.148-.845.148-1 0-1.811-.572-1.811-1.276s.811-1.276 1.811-1.276l.053.002a1 1 0 0 1-.026-.205C2.338 1.071 3.149.5 4.149.5c.488 0 .93.136 1.256.357a2.5 2.5 0 0 1 .746-.114c1 0 1.811.571 1.811 1.276a1 1 0 0 1-.013.146 2.4 2.4 0 0 1 .674.134s1.435-1.414 3.286-.044m-5.453 2.81c.418.409.793.593 1.47.464.86-.164 1.142-.601 1.281-1.119m.014-.088c.257.175.569.278.906.278a1.59 1.59 0 0 0 1.392-.808"/></svg>