<!-- SPDX-FileCopyrightText: © 2025 Schneider Electric SPDX-License-Identifier: LicenseRef-Proprietary -->
<svg xmlns="http://www.w3.org/2000/svg" viewBox="0 0 16 16"><path fill="none" stroke="currentColor" stroke-linecap="round" stroke-linejoin="round" d="m13.207.5-1.017.875L11.193.5m3.729 1.333-.558 1.054 1.136.756m-6.52-.04 1.017-.696-.479-1.193m1.695 5.091-.319-1.352-1.296.159m5.204.039-1.296-.219-.279 1.293m-1.037-5.35-.12 2.188 1.436 1.87m.858-2.546-2.293.676-1.176 1.89m1.196-1.87-2.093-.676M.5 12.5h6.51s1.479 0 1.479 1.697c0 .972.029 1.303.029 1.303h3.683s-.216-6-4.563-6H5.5v-2h1.129s1.009-.026 1.009-.992S6.629 5.5 6.629 5.5H2.552s-1.016.019-1.016 1.013 1.012.987 1.012.987h.951v2H.5"/></svg>