<!-- SPDX-FileCopyrightText: © 2025 Schneider Electric SPDX-License-Identifier: LicenseRef-Proprietary -->
<svg xmlns="http://www.w3.org/2000/svg" viewBox="0 0 16 16"><path fill="none" stroke="currentColor" stroke-linecap="round" stroke-linejoin="round" d="M13.526 5.02C8.6 12.194.5 13.666.5 13.666m3.217-.804c1.903 2.156 6.433 0 6.433 0l-1.608-.804 3.104-.776a.4.4 0 0 0 .195-.112c.316-.328 1.471-1.566 2.189-2.863a.41.41 0 0 0-.074-.485l-.588-.588 1.459-1.229a.4.4 0 0 0 .13-.195c.206-.667.386-1.399.525-2.202.201-1.158-1.197-1.903-2.035-1.079-1.258 1.236-2.93 2.695-4.778 3.825a.4.4 0 0 0-.17.211L7.74 8.843l-.651-1.171a.408.408 0 0 0-.613-.123c-.607.489-1.793 1.571-2.486 3.035a.407.407 0 0 1-.735.003c-.198-.401-.376-.982-.34-1.744"/></svg>