<!-- SPDX-FileCopyrightText: © 2025 Schneider Electric SPDX-License-Identifier: LicenseRef-Proprietary -->
<svg xmlns="http://www.w3.org/2000/svg" viewBox="0 0 16 16"><path fill="none" stroke="currentColor" stroke-linecap="round" stroke-linejoin="round" d="m12.622.5.959 1.708s-2.247-.809-4.621-.779-5.057.779-5.057.779m9.677 0-1.288 1.109M5.007 8.594c-.137-.491-.296-1.158-.335-1.735-.088-1.313-1.97-1.08-1.935.376.037 1.546.243 3.471.233 4.169s-.202 2.587-.55 3.581m4.939-6.346S8.45 6.484 9.286 5.046c.664-1.142-.964-2.021-1.516-.98-.351.662-.98 1.624-1.438 2.541-.267.534-1.602 2.696-1.602 2.696m4.082.604s.362-.812.926-1.822c.706-1.264-1.021-1.992-1.58-.986m2.258 3.363.47-.841c.705-1.264-.905-1.957-1.463-.951M7.731 15.5c.825-.684 1.85-1.237 2.961-2.731.978-1.315 1.392-2.283.063-2.916"/></svg>