<!-- SPDX-FileCopyrightText: © 2025 Schneider Electric SPDX-License-Identifier: LicenseRef-Proprietary -->
<svg xmlns="http://www.w3.org/2000/svg" viewBox="0 0 16 16"><path fill="none" stroke="currentColor" stroke-linecap="round" stroke-linejoin="round" d="M8.843 15.5c-.228-.552-.517-.95-.797-1.337-.425-.587-.828-1.148-.96-2.179-.26-2.032 1.097-3.702 1.758-3.699m1.901.281s-.063-2.62-.015-4.202c.038-1.257-1.722-1.255-1.714-.134.006.713-.085 2.125-.053 3.101.019.568-.12 2.983-.12 2.983m3.693-1.344s-.064-.844-.05-1.945c.018-1.378-1.758-1.205-1.77-.11m3.414 1.792.012-.917c.018-1.378-1.644-1.228-1.656-.133m1.358 7.814c.024-.387.105-.727.219-1.057a6 6 0 0 1 .108-.287c.381-.941.984-1.868 1.236-3.613.223-1.544.131-2.542-1.269-2.47M1.436 1.598A3.45 3.45 0 0 0 .5 3.968a3.473 3.473 0 0 0 4.284 3.374 3.44 3.44 0 0 0 2.557-2.557A3.472 3.472 0 0 0 3.967.5v3.467L2.709 2.709"/></svg>