<!-- SPDX-FileCopyrightText: © 2025 Schneider Electric SPDX-License-Identifier: LicenseRef-Proprietary -->
<svg xmlns="http://www.w3.org/2000/svg" viewBox="0 0 16 16"><path fill="none" stroke="currentColor" stroke-linecap="round" stroke-linejoin="round" d="M8.882 15.171c-.244-.551-.545-1.053-.805-1.499-.345-.59-2.534-2.757-3.204-3.988-.631-1.159.603-1.988 1.404-1.105.306.337 1.508 1.385 1.957 1.634.821.457 1.148-.514 1.289-1.673s-.096-2.755-.258-3.414c-.255-1.037 1.3-1.408 1.616-.253.681 2.485.196 5.024.196 5.024m1.651.574s.029-.805.159-1.845c.134-1.07-.991-1.277-1.465-.741m2.841 2.506.109-.866c.163-1.302-1.425-1.336-1.552-.302m.919 6.277c.46-.841 1.12-1.655 1.54-3.264.375-1.437.394-2.39-.938-2.471M8.783 1.504a5.352 5.352 0 0 0-7.359 7.482m6.281-6.582 1.719-.307L9.459.5"/></svg>