<!-- SPDX-FileCopyrightText: © 2025 Schneider Electric SPDX-License-Identifier: LicenseRef-Proprietary -->
<svg xmlns="http://www.w3.org/2000/svg" viewBox="0 0 16 16"><path fill="none" stroke="currentColor" stroke-linecap="round" stroke-linejoin="round" d="M2.246 4.437s-.766 2.744-.797 5.171.797 4.725.797 4.725L.5 13.353m1.746.98 1.134-1.317m4.412-4.999c-.478-.207-1.111-.511-1.594-.852-1.099-.776-2.127.867-.949 1.778 1.251.968 2.526 2.205 3.189 2.6.5.298 1.071.63 1.613 1.042m-.708-6.406s-1.008-2.256-1.61-3.845c-.479-1.264-2.225-.537-1.755.572.299.705.657 1.825 1.09 2.78.252.556 1.107 3.01 1.107 3.01m3.112-2.852s-.411-.811-.849-1.91c-.549-1.375-2.24-.473-1.801.619m4.124.375-.365-.915c-.549-1.375-2.136-.543-1.698.549m4.802 7.763c-.995-1.952.022-3.178-.729-6.13-.413-1.625-.915-2.576-2.275-1.93"/></svg>