<!-- SPDX-FileCopyrightText: © 2025 Schneider Electric SPDX-License-Identifier: LicenseRef-Proprietary -->
<svg xmlns="http://www.w3.org/2000/svg" viewBox="0 0 16 16"><path fill="none" stroke="currentColor" stroke-linecap="round" stroke-linejoin="round" d="M8.157 15.5c-.52-.395-1.068-.714-1.548-1-.636-.379-1.86-1.567-3.061-2.496-1.131-.875-.144-2.452.911-1.707.464.327 1.071.619 1.53.818m1.488-1.763S6.51 7.187 5.932 5.661c-.459-1.213-2.136-.516-1.685.549.287.677.631 1.752 1.046 2.668.242.533 1.063 2.889 1.063 2.889M9.343 9.03s-.395-.779-.815-1.833c-.527-1.32-2.15-.454-1.729.594m3.958.36-.351-.878c-.527-1.32-2.05-.521-1.63.527m4.611 7.45c-.955-1.873.021-3.05-.7-5.883-.397-1.559-.878-2.473-2.183-1.852M3.554.5l-.941 1.676s2.205-.794 4.535-.765 4.963.765 4.963.765m-9.498 0 1.264 1.088"/></svg>