<!-- SPDX-FileCopyrightText: © 2025 Schneider Electric SPDX-License-Identifier: LicenseRef-Proprietary -->
<svg xmlns="http://www.w3.org/2000/svg" viewBox="0 0 16 16"><path fill="none" stroke="currentColor" stroke-linecap="round" stroke-linejoin="round" d="M5.847 15.322c-.231-.56-.525-.964-.809-1.356-.431-.596-.84-1.164-.974-2.209C3.8 9.696 5.176 8.003 5.847 8.005m1.929.284s-.064-2.751-.015-4.355c.039-1.275-1.747-1.273-1.738-.135.006.723-.086 2.249-.054 3.238.019.576-.122 3.025-.122 3.025m3.745-1.363s-.065-.856-.051-1.973c.018-1.398-1.783-1.222-1.795-.111m3.463 1.817.012-.93c.018-1.398-1.667-1.246-1.68-.135m1.371 8.133c.004-.48.093-.888.229-1.28q.051-.147.11-.291c.387-.954.998-1.895 1.253-3.665.226-1.566.133-2.578-1.287-2.505m-1.065-3.162q.068-.334.069-.687a3.41 3.41 0 1 0-6.229 1.92"/></svg>