<!-- SPDX-FileCopyrightText: © 2025 Schneider Electric SPDX-License-Identifier: LicenseRef-Proprietary -->
<svg xmlns="http://www.w3.org/2000/svg" viewBox="0 0 16 16"><path fill="none" stroke="currentColor" stroke-linecap="round" stroke-linejoin="round" d="M8.757 15.5c-.231-.559-.524-.963-.808-1.354-.431-.595-.839-1.163-.973-2.207-.263-2.058 1.111-3.75 1.781-3.747m1.926.284s-.064-2.654-.015-4.257c.039-1.274-1.745-1.271-1.736-.135.006.722-.086 2.153-.054 3.141.019.575-.121 3.022-.121 3.022m3.741-1.362s-.065-.855-.051-1.97c.018-1.396-1.78-1.221-1.793-.111m3.458 1.815.012-.929c.018-1.396-1.665-1.244-1.678-.135m1.377 7.915c.024-.392.106-.737.222-1.07q.051-.146.11-.291c.386-.953.996-1.893 1.252-3.66.226-1.564.133-2.575-1.285-2.502M5.258 9.135c-.213-.962-.495-2.488-.513-3.9-.029-2.289.751-4.456.751-4.456l-1.647.925m2.716.317L5.496.779M.5 8.908l1.647.925s-.78-2.167-.751-4.456.751-4.876.751-4.876m0 9.331L3.216 8.59"/></svg>