<!-- SPDX-FileCopyrightText: © 2025 Schneider Electric SPDX-License-Identifier: LicenseRef-Proprietary -->
<svg xmlns="http://www.w3.org/2000/svg" viewBox="0 0 16 16"><path fill="none" stroke="currentColor" stroke-linecap="round" stroke-linejoin="round" d="M5.386 4.567c-2.083.346-3.89.89-3.89.89l.93-1.657m12.078 1.367s-1.813-.494-3.96-.742M2.746 6.533l-1.25-1.076m0-3.591S4.726.985 7.669.985s6.835 1.171 6.835 1.171l-.93-1.657m.93 1.658-1.25 1.076M6.993 9.254c-.674-.003-2.057 1.699-1.792 3.77.134 1.051.545 1.622.979 2.22m2.751-5.705s-.064-2.764-.015-4.377c.039-1.281-1.755-1.279-1.746-.136.006.727-.087 2.26-.054 3.254.019.579-.122 3.04-.122 3.04m3.763-1.369s-.066-.86-.051-1.982c.018-1.405-1.791-1.228-1.804-.112m3.479 1.826.012-.935c.018-1.405-1.676-1.252-1.688-.136m1.608 6.888q.051-.147.11-.293c.388-.959 1.003-1.904 1.26-3.683.227-1.574.134-2.591-1.293-2.518"/></svg>