<!-- SPDX-FileCopyrightText: © 2025 Schneider Electric SPDX-License-Identifier: LicenseRef-Proprietary -->
<svg xmlns="http://www.w3.org/2000/svg" viewBox="0 0 16 16"><path fill="none" stroke="currentColor" stroke-linecap="round" stroke-linejoin="round" d="M3.449 10.446c1.024-1.876.504-5.45 1.992-5.882 1.188-.345 1.957.133 1.957.133m-5.144 6.431c.417 1.2 1.539 3.13 1.931 3.965.391.834.86.129.86.129s1.384-1.617 1.879-2.008 1.724-.521 2.61-.967c.886-.447 1.824-1.433 2.163-2.086.34-.653-.31-.86-.417-1.148s.469-.938.314-1.2-.469-.233-.783-.546.314-1.148.314-1.462-.912-.705-.912-.705 4.289-3.383 3.415-4.434C12.587-.585 6.636 5.649 6.636 5.649"/></svg>