<!-- SPDX-FileCopyrightText: © 2025 Schneider Electric SPDX-License-Identifier: LicenseRef-Proprietary -->
<svg xmlns="http://www.w3.org/2000/svg" viewBox="0 0 16 16"><path fill="none" stroke="currentColor" stroke-linecap="round" stroke-linejoin="round" d="M5.048 15.287c-.277-.67-.628-1.153-.967-1.622-.516-.713-1.005-1.392-1.165-2.643C2.6 8.557 4.247 6.531 5.049 6.534m2.306.34s-.076-3.291-.018-5.21C7.384.139 5.247.141 5.258 1.502c.007.865-.103 2.69-.064 3.873.023.689-.146 3.619-.146 3.619m4.48-1.63s-.078-1.024-.061-2.36c.022-1.672-2.132-1.462-2.147-.133m4.142 2.174.014-1.113c.022-1.672-1.995-1.49-2.009-.161m1.64 9.729a4.7 4.7 0 0 1 .274-1.531q.062-.176.132-.348c.462-1.141 1.193-2.267 1.499-4.384.271-1.874.159-3.084-1.539-2.997"/></svg>