<!-- SPDX-FileCopyrightText: © 2025 Schneider Electric SPDX-License-Identifier: LicenseRef-Proprietary -->
<svg xmlns="http://www.w3.org/2000/svg" viewBox="0 0 16 16"><path fill="none" stroke="currentColor" stroke-linecap="round" stroke-linejoin="round" stroke-width=".997" d="M.5 1.438 2.171.5s-.791 2.198-.762 4.52.762 4.947.762 4.947m0-9.467 1.085 1.26m3.883 10.431c-.498-.022-1.167-.077-1.715-.217-1.248-.317-1.604 1.502-.24 1.914 1.449.437 3.011 1.106 3.739 1.233.549.096 1.173.197 1.797.38m-2.823-5.483S6.225 8.347 5.144 7.133c-.86-.965-2.172.281-1.373 1.111.508.528 1.211 1.406 1.924 2.111.415.41 2.018 2.311 2.018 2.311m1.806-3.612s-.645-.584-1.412-1.416c-.961-1.041-2.163.343-1.398 1.169m3.814-1.075-.639-.693c-.96-1.041-2.095.245-1.33 1.071m6.946 5.294c-1.557-1.403-1.067-2.847-2.747-5.228-.925-1.31-1.699-1.989-2.692-.946"/></svg>