<!-- SPDX-FileCopyrightText: © 2025 Schneider Electric SPDX-License-Identifier: LicenseRef-Proprietary -->
<svg xmlns="http://www.w3.org/2000/svg" viewBox="0 0 16 16"><path fill="none" stroke="currentColor" stroke-linecap="round" stroke-linejoin="round" d="M3.5 12.5h-3m1.805 1.66 1.711-1.705-1.713-1.704m6.649 3.52a1.96 1.96 0 1 0-2.01.006M12.5 12.5h3m-1.903-1.754-1.713 1.704 1.711 1.705M9.54 7.997c.487-.249 1.01-.618 1.22-1.078.231-.507.202-1.114-.087-1.805-.872-1.888-.309-2.493-.303-2.499a.03.03 0 0 0 .003-.038c-.008-.011-.023-.016-.036-.011s-1.546.181-1.242 1.529c-.333-.299-1.718-1.731-.768-3.536a.03.03 0 0 0-.004-.034.03.03 0 0 0-.033-.007c-.021.009-.505.215-.892.739-.356.482-1.029 1.34-.583 2.66.163.621-.072 1.159-.308 1.338-.079-.723-.361-1.419-1.376-1.447-.012 0-.023-.005-.033.002s-.016.02-.012.031c.706 1.635.021 2.031.319 3.106.176.637.511 1.003 1.199 1.251.317.084.643.081.851.08.015 0 .102-.012.106-.026.005-.015-.03-.041-.016-.037.083.023-.627-.324-.477-.907.197-.765.953-.895 1.193-1.785.127.742.529 1.054.532 1.077"/></svg>