<!-- SPDX-FileCopyrightText: © 2025 Schneider Electric SPDX-License-Identifier: LicenseRef-Proprietary -->
<svg xmlns="http://www.w3.org/2000/svg" viewBox="0 0 16 16"><path fill="none" stroke="currentColor" stroke-linecap="round" stroke-linejoin="round" d="m5.769 11.34 1.381 3.238c.143.337-.228.725-.564.868h0a.66.66 0 0 1-.867-.351L.553 2.902a.66.66 0 0 1 .35-.868h0c.336-.143.687-.183 1.081.351l.184.434a.22.22 0 0 0 .372.054c.504-.619 1.795-1.876 5.458-1.306 1.449.226 3.078-.245 4.094-1.021.161-.123.429.027.482.13a183 183 0 0 0 2.872 5.212c.08.139.061.403-.002.49-1.009 1.394-2.432 1.718-4.654 1.468-2.11-.238-3.449.117-4.274.554 0 0-.979.569-1.462 1.233"/></svg>