<!-- SPDX-FileCopyrightText: © 2025 Schneider Electric SPDX-License-Identifier: LicenseRef-Proprietary -->
<svg xmlns="http://www.w3.org/2000/svg" viewBox="0 0 16 16"><path fill="none" stroke="currentColor" stroke-linecap="round" stroke-linejoin="round" d="M4.597 15.5c-.757-.931-.896-4.216 1.024-5.673M6.772 15.5c.476-.289 1.004-3.305-.031-4.31M12.239.5c-1.037 2.697.975 3.61 0 6.146M14.421.5c-1.037 2.697.975 3.61 0 6.146M10.057.5c-1.037 2.697.976 3.61 0 6.146M6.772 15.5c1.511-.905 3.747-1.348 3.747-4.474 0-1.417-1.067-2.27-1.289-2.461-.046.11-.417.977-.899.977-1.185 0-1.602-1.914-.938-5.235-2.478 1.274-6.091 2.781-6.091 6.505 0 2.263 1.035 3.321 3.294 4.688"/></svg>