<!-- SPDX-FileCopyrightText: © 2025 Schneider Electric SPDX-License-Identifier: LicenseRef-Proprietary -->
<svg xmlns="http://www.w3.org/2000/svg" viewBox="0 0 16 16"><path fill="none" stroke="currentColor" stroke-linecap="round" stroke-linejoin="round" d="m12.76 11.393 1.76 2.725a.894.894 0 0 1-.752 1.381l-5.759-.016h-.031l-5.727.016a.894.894 0 0 1-.752-1.381l4.878-7.527a.9.9 0 0 0 .122-.451V4.245c0 .056.004-.743-.331-.743h-.934m.907 6.785c.485 0 .907-.192 1.126-.476.218.284.639.476 1.124.476s.906-.192 1.125-.476c.218.284.639.476 1.123.476s.907-.192 1.126-.476l.006-.011-2.097-3.253c-.08-.137-.173-.451-.173-.451V4.229c.008-.004.029-.729.423-.729h.967"/><circle cx="6.797" cy=".78" r=".447"/><circle cx="7.993" cy="2.089" r=".447"/><circle cx="9.022" cy=".447" r=".447"/></svg>