<!-- SPDX-FileCopyrightText: © 2025 Schneider Electric SPDX-License-Identifier: LicenseRef-Proprietary -->
<svg xmlns="http://www.w3.org/2000/svg" viewBox="0 0 16 16"><path fill="none" stroke="currentColor" stroke-linecap="round" stroke-linejoin="round" d="m.5.5 15 15M5.286 8.115l-.296.399s-.529.738-.583 1.316L.989 13.232s-.766.567-.381 1.324c.373.734.953.888.953.888s.507.261 1.057-.34c.397-.434 3.288-3.324 3.288-3.324s1.03-.263 1.414-.522c.199-.134.378-.257.558-.396l.085-.067m-1.248-4.47c.777-.771 2.096-.028 2.556.465.561.601.594 1.974.594 1.974l5.605-3.095m-5.207-.229L14.541.752M10.556.5 8.355 4.215M6.277 9.373s.236.266.632.146"/></svg>