<!-- SPDX-FileCopyrightText: © 2025 Schneider Electric SPDX-License-Identifier: LicenseRef-Proprietary -->
<svg xmlns="http://www.w3.org/2000/svg" viewBox="0 0 16 16"><path fill="none" stroke="currentColor" stroke-linecap="round" stroke-linejoin="round" d="M8.635 10.194c-.513.508-.86.758-1.316 1.064-.384.259-1.414.522-1.414.522s-2.891 2.89-3.288 3.324c-.55.601-1.057.34-1.057.34s-.58-.154-.953-.888c-.385-.757.381-1.324.381-1.324L4.406 9.83c.054-.579.583-1.316.583-1.316s1.289-1.756 1.725-2.189c.777-.771 2.096-.028 2.556.465.561.601.594 1.974.594 1.974l5.605-3.095m-5.206-.229L14.541.752M8.355 4.215 10.556.5M6.277 9.373s.42.473 1.079-.126c.72-.656.322-1.144.322-1.144"/></svg>