<!-- SPDX-FileCopyrightText: © 2025 Schneider Electric SPDX-License-Identifier: LicenseRef-Proprietary -->
<svg xmlns="http://www.w3.org/2000/svg" viewBox="0 0 16 16"><path fill="none" stroke="currentColor" stroke-linecap="round" stroke-linejoin="round" d="M5.5 1.5h6.624c.242 0 .576.145.741.322l1.334 1.431c.165.177.301.521.301.764v10.042a.443.443 0 0 1-.442.442H11.5m-7-.001h5m2-11v.544a.457.457 0 0 1-.456.456H3.963a.464.464 0 0 1-.463-.463V1.5H1.865c-.243.015-.443.214-.365.458V14.5h1m9 0V8.872c0-.205-.213-.372-.475-.372H4.976c-.262 0-.476.167-.476.372V14.5"/></svg>