<!-- SPDX-FileCopyrightText: © 2025 Schneider Electric SPDX-License-Identifier: LicenseRef-Proprietary -->
<svg xmlns="http://www.w3.org/2000/svg" viewBox="0 0 16 16"><path fill="none" stroke="currentColor" stroke-linecap="round" stroke-linejoin="round" d="M1.5 11.5h-1V.896C.5.678.678.5.896.5h7.353c.152 0 .964.687 1.48 1.142M6.5 15.5h8.61c.215 0 .39-.176.39-.39V5.801c0-.212-.117-.512-.26-.668l-1.226-1.34a1.03 1.03 0 0 0-.663-.292H5.5m7 1.999v.597a.4.4 0 0 1-.394.403H6.892a.39.39 0 0 1-.392-.392V3.5H3.891a.39.39 0 0 0-.391.391V15.5h1m8-2V9.829c0-.181-.168-.329-.373-.329H6.702c-.205 0-.202.148-.202.329V15.5"/></svg>