<!-- SPDX-FileCopyrightText: © 2025 Schneider Electric SPDX-License-Identifier: LicenseRef-Proprietary -->
<svg xmlns="http://www.w3.org/2000/svg" viewBox="0 0 16 16"><path fill="none" stroke="currentColor" stroke-linecap="round" stroke-linejoin="round" d="M2.5 11.5h11m-11 2h11m-11 2h11m-6-6.012h5.548c1.728 0 3.038-2.308 2.184-4.125a2.22 2.22 0 0 0-1.116-1.079c-.773-.335-1.53-.282-2.144.022C11.7 2.159 9.888.5 7.69.5 5.832.5 4.247 1.687 3.639 3.352a3 3 0 0 0-.328-.02C1.582 3.332.219 5.212.55 7.019c.249 1.363 1.514 2.47 2.885 2.469H5.5"/></svg>