<!-- SPDX-FileCopyrightText: © 2025 Schneider Electric SPDX-License-Identifier: LicenseRef-Proprietary -->
<svg xmlns="http://www.w3.org/2000/svg" viewBox="0 0 16 16"><path fill="none" stroke="currentColor" stroke-linecap="round" stroke-linejoin="round" d="M13.132 6.446H9.974v-.683c0-.222.048-.443.136-.649a1.9 1.9 0 0 1 .308-.491q.128-.15.28-.277c.189-.158.402-.288.628-.391q.089-.04.173-.09a1 1 0 0 0 .126-.084 1 1 0 0 0 .096-.092.2.2 0 0 0 .031-.047l.012-.033.003-.034-.003-.024-.007-.031a.6.6 0 0 0-.052-.121 1.6 1.6 0 0 0-.206-.27 1.6 1.6 0 0 1-.258-.368 1.5 1.5 0 0 1-.146-.903q.033-.222.129-.425.096-.204.248-.375a1.64 1.64 0 0 1 .805-.497 1.74 1.74 0 0 1 .92 0 1.7 1.7 0 0 1 .805.497q.151.171.248.375a1.5 1.5 0 0 1 .126.887 1.53 1.53 0 0 1-.401.809 2 2 0 0 0-.124.146q-.045.06-.082.124l-.027.052-.013.03-.013.039a.3.3 0 0 0-.01.055.13.13 0 0 0 .015.067l.012.021.019.026.028.031a1 1 0 0 0 .069.061 1 1 0 0 0 .126.084q.084.05.173.09.228.103.433.243a2.5 2.5 0 0 1 .524.484q.113.143.197.302.098.187.15.391.048.191.048.388v.683M7.99 6.5H4.5v-.868c-.053-.314-.177-.615-.399-.837s-.523-.347-.837-.294h-1.58c-.314-.052-.615.072-.837.294S.5 5.318.5 5.632v8.702a1.167 1.167 0 0 0 1.167 1.167h10.646a.79.79 0 0 0 .733-.496l2.169-5.421a.79.79 0 0 0-.733-1.083h-9.59a.79.79 0 0 0-.733.496L2.878 12.2"/></svg>