<!-- SPDX-FileCopyrightText: © 2025 Schneider Electric SPDX-License-Identifier: LicenseRef-Proprietary -->
<svg xmlns="http://www.w3.org/2000/svg" viewBox="0 0 16 16"><path fill="none" stroke="currentColor" stroke-linecap="round" stroke-linejoin="round" d="m15.028 4.111-2.542 2.372M9.964 4.111l2.522 2.372m.014-.603V.5m-4 6h-4v-.869c-.052-.314-.177-.615-.399-.837s-.523-.347-.836-.294H1.683c-.314-.053-.614.072-.836.294S.5 5.317.5 5.631v8.702A1.167 1.167 0 0 0 1.667 15.5h10.646a.79.79 0 0 0 .733-.496l2.169-5.421a.79.79 0 0 0-.733-1.083H5.007a.79.79 0 0 0-.733.496l-1.282 3.203"/></svg>