<!-- SPDX-FileCopyrightText: © 2025 Schneider Electric SPDX-License-Identifier: LicenseRef-Proprietary -->
<svg xmlns="http://www.w3.org/2000/svg" viewBox="0 0 16 16"><path fill="none" stroke="currentColor" stroke-linecap="round" stroke-linejoin="round" stroke-width=".993" d="m2.984 10.727 1.301-3.66c.1-.323.44-.583.744-.567h9.682c.248-.007.52.155.654.391a1 1 0 0 1 .079.828l-2.211 6.222c-.098.319-.434.574-.733.559H1.684a1.13 1.13 0 0 1-.838-.391 1.43 1.43 0 0 1-.347-.943V2.903s.132-.742.352-.992c.214-.257.542-.416.849-.411h1.6c.307-.005.634.154.849.411.22.25.356.996.351 1.355V3.5h7.692a1.14 1.14 0 0 1 .85.396c.125.14.224.317.283.505"/></svg>