<!-- SPDX-FileCopyrightText: © 2025 Schneider Electric SPDX-License-Identifier: LicenseRef-Proprietary -->
<svg xmlns="http://www.w3.org/2000/svg" viewBox="0 0 16 16"><path fill="none" stroke="currentColor" stroke-linecap="round" stroke-linejoin="round" d="m15.181 2.689-2.839.923M8.492 6.5H4.5v-.868c-.048-.303-.182-.626-.399-.837-.211-.217-.534-.351-.837-.294H1.685c-.303-.057-.626.077-.837.294-.217.211-.347.837-.347.837v8.701A1.17 1.17 0 0 0 1.668 15.5h10.655a.785.785 0 0 0 .722-.489l2.178-5.444a.78.78 0 0 0-.078-.725.78.78 0 0 0-.644-.342H4.892a.795.795 0 0 0-.733.496l-1.281 3.203m7.709-6.173 1.755-2.415m-2.839-.922 2.839.923M12.5 3.5v-3m-.158 3.111 1.755 2.415"/></svg>