<!-- SPDX-FileCopyrightText: © Forbrugsforeningen SPDX-License-Identifier: LicenseRef-Proprietary -->
<svg xmlns="http://www.w3.org/2000/svg" version="1.1" viewBox="0 0 158.74 170.079"><path fill="#ffffff" d="M86.555 11.59c.17.008.345.014.515.023zm5.06.367c.104.01.213.017.317.027-.103-.01-.213-.017-.317-.027zm.317.027c-.234.01-.464.015-.721.043-2.616.259-12.458-.186-21.385 10.598-4.797 5.8-5.27 25.727-5.27 25.727h-29.86c.956-12.284 3.676-20.82 8.922-26.565-5.279 5.779-8.003 14.38-8.943 26.785-.487 6.45-.428 10.746-.428 10.746s-.01 1.923.104 4.922l30.207-.01c-.004.371-.13 10.88-.12 11.145.023.884-.201 3.903-2.794 7.143-3.378 4.22-8.245 3.904-8.245 3.904v17.037c6.268 2.53 14.341 3.62 24.596 3.738.456.003 3.055.003 3.512 0 29.788-.344 41.18-8.877 43.318-37.138.488-6.446.43-10.74.43-10.74s.058-4.297-.43-10.747c-1.867-24.688-10.801-34.32-32.892-36.588ZM53.398 103.46zm-9.78-81.672zm1.161-1.187zm1.242-1.106c2.137-1.774 4.61-3.21 7.454-4.35-2.844 1.14-5.317 2.577-7.454 4.35zm7.454-4.35zm3.593-1.228zM34.378 65.02zm.268 4.609c.012.155.016.272.028.43l.002.002c-.012-.154-.019-.281-.03-.432zm.395 4.236zm.404 3.067zm.457 2.681zm.737 3.262zm.683 2.424zm.778 2.28zm1.09 2.548zm1.06 2.045zm1.098 1.781zm1.457 1.942zm1.484 1.642zm1.465 1.371zm1.734 1.354zm2.045 1.306z"/><path fill="#6792cd" d="M79.348 11.436c-.452 0-.898-.001-1.354.002-29.71.342-41.115 8.836-43.299 36.914h29.862s.472-19.927 5.27-25.727c8.926-10.784 18.768-10.339 21.384-10.598.257-.028.487-.033.72-.043-3.193-.326-6.66-.501-10.423-.546-.46-.003-.904-.002-1.356-.002zm22.148 2.23v21.047l-.3-.018c-1.818-.097-11.298-.34-14.635 4.854-1.243 1.934-1.862 3.643-2.15 5.031l-.005.018c-.042.2-.071.39-.1.578-.003.03-.011.063-.015.094a10 10 0 0 0-.053.472c-.005.047-.014.094-.015.137q-.02.209-.022.394c-.003.052-.01.11-.01.159-.004.117 0 .226 0 .334.003.05.002.104.004.152.003.103.009.193.014.285.005.043.006.093.01.137.005.087.018.16.027.234.004.039.005.083.012.117.01.071.02.131.031.19.007.03.006.062.014.088.01.061.019.106.031.154.001.016.008.036.01.049l.027.107.006.022.012.047v.004h17.107v15.877H84.39v16.058s-.527 7.55-2.479 11.78c-4.461 9.669-11.967 13.826-17.353 14.134q-.22.014-.432.012c4.107.612 8.702.924 13.87.984.456.004 3.052.004 3.51 0 29.789-.344 41.18-8.875 43.317-37.136.488-6.446.43-10.743.43-10.743s.058-4.296-.43-10.744c-1.57-20.758-8.146-30.864-23.326-34.908zM64.556 64.23l-30.214.01c.064 1.626.164 3.589.334 5.82 1.402 18.531 6.785 28.582 18.722 33.399V86.422s4.867.317 8.245-3.904c2.593-3.24 2.817-6.259 2.794-7.143-.01-.265.116-10.774.12-11.145z"/><path fill="#231f20" d="M31.166 146.98c-4.356 0-8.584 3.944-8.584 8.604 0 3.601 2.499 6.184 6.201 6.184 4.336 0 8.606-4.029 8.606-8.77 0-3.5-2.52-6.018-6.223-6.018zm82.5 0c-4.556 0-8.562 4.046-8.562 8.805 0 3.543 2.458 5.983 5.937 5.983 2.91 0 4.842-1.952 4.842-1.952h.043s-.083.302-.145.608l-.222 1.1h1.302l1.32-6.835h-3.763l-.244 1.258h2.441l-.467 2.28s-2.095 2.22-4.943 2.22c-2.768 0-4.639-1.894-4.639-4.722 0-3.964 3.234-7.426 7.12-7.426 2.624 0 4.072 1.344 4.072 1.344l.89-1.02s-1.603-1.643-4.982-1.643zm-100.008.243-2.787 14.3h1.404l1.262-6.408h5.246l.244-1.26H13.78l1.04-5.373h6.12l.245-1.26zm29.074 0-2.785 14.3h1.424l1.158-6.023h3.643l2.094 6.023h1.505l-2.035-5.738a4.5 4.5 0 0 0-.242-.59v-.039c2.135-.488 3.62-2.4 3.62-4.66 0-1.343-.632-2.38-1.688-2.889-.55-.282-1.241-.384-1.994-.384zm13.663 0-2.788 14.3h8.422l.223-1.26h-6.996l1.057-5.312h5.412l.242-1.26h-5.43l1.018-5.209h6.629l.265-1.26zm12.482 0-2.787 14.3h1.404l1.992-10.293c.143-.753.246-1.933.246-1.933h.04s.449 1.221.814 1.933l5.287 10.293h1.262l2.787-14.3h-1.404l-2.012 10.293c-.143.753-.244 1.931-.244 1.931h-.041s-.43-1.22-.793-1.931l-5.291-10.293zm16.123 0-2.785 14.3h1.4l2.787-14.3zm6.482 0-2.787 14.3h1.403l1.994-10.293c.142-.753.244-1.933.244-1.933h.039s.448 1.221.814 1.933l5.291 10.293h1.26l2.787-14.3h-1.404l-2.014 10.293c-.142.753-.242 1.931-.242 1.931h-.043s-.427-1.22-.793-1.931l-5.287-10.293zm32.452 0-2.788 14.3h8.42l.225-1.26h-6.996l1.057-5.312h5.41l.244-1.26h-5.432l1.018-5.209h6.633l.263-1.26zm12.482 0-2.787 14.3h1.402l1.996-10.293c.14-.753.243-1.933.243-1.933h.04s.448 1.221.815 1.933l5.287 10.293h1.262l2.785-14.3h-1.402l-2.016 10.293c-.14.753-.242 1.931-.242 1.931h-.041s-.426-1.22-.793-1.931l-5.287-10.293zm-105.271 1.076c2.828 0 4.78 1.974 4.78 4.762 0 4.048-3.602 7.386-7.12 7.386-2.828 0-4.782-2.034-4.782-4.902 0-3.99 3.54-7.246 7.122-7.246zm12.748.183h3.377c1.505 0 2.4.815 2.4 2.159 0 2.177-1.628 3.601-3.58 3.601h-3.317zm-9.557-20.82c-4.455 0-8.523 3.924-8.523 8.543 0 3.765 2.663 6.488 6.833 6.488 4.395 0 8.545-3.984 8.545-8.685 0-3.682-2.703-6.346-6.855-6.346zm91.959 0c-5.007 0-8.768 3.925-8.768 8.604 0 4.11 3.09 6.427 6.284 6.427 2.4 0 3.56-1.26 3.56-1.26h.041s-.08.305-.14.608l-.085.408h2.973l1.606-8.215h-5.207l-.592 3.028h2.054l-.222 1.119s-1.445 1.06-3.153 1.06c-1.83 0-3.42-1.078-3.42-3.418 0-2.44 1.669-5.107 5.149-5.107 2.156 0 3.457 1.078 3.457 1.078l2.055-2.46s-1.848-1.872-5.592-1.872zm16.957 0c-2.708 0-5.412 1.667-5.412 4.535 0 4.028 5.431 4.416 5.431 5.942 0 .976-1.056 1.283-1.75 1.283-2.094 0-3.437-1.324-3.437-1.324l-2.117 2.523s1.77 2.072 5.49 2.072c3.136 0 5.412-2.052 5.412-4.554 0-4.091-5.473-4.334-5.473-5.942 0-.896 1.081-1.261 1.793-1.261 1.831 0 3.112 1.039 3.112 1.039l1.914-2.625s-1.548-1.688-4.963-1.688zm-129.92.244-2.807 14.543h3.54l1.058-5.39h4.434l.57-3.05h-4.412l.588-3.054h5.35l.57-3.049zm35.357 0-2.828 14.543h3.559l.957-4.904h1.789l1.63 4.904h3.821l-1.869-5.025c-.224-.63-.365-.873-.365-.873v-.041c2.216-.872 3.03-3.191 3.03-4.922 0-1.628-.816-2.787-2.179-3.336-.609-.244-1.34-.346-2.132-.346zm17.606 0-2.828 14.543h5.96c.793 0 1.589-.081 2.321-.324 2.013-.632 3.557-2.176 3.557-4.496 0-1.16-.489-2.317-1.75-2.785v-.041c1.425-.714 2.257-2.116 2.257-3.44 0-1.464-.83-2.623-2.294-3.133-.712-.244-1.587-.324-2.543-.324zm17.281 0-2.828 14.543h3.56l.958-4.904h1.789l1.627 4.904h3.822l-1.87-5.025c-.222-.63-.364-.873-.364-.873v-.041c2.217-.872 3.029-3.191 3.029-4.922 0-1.628-.814-2.787-2.178-3.336-.61-.244-1.34-.346-2.133-.346zm17.258 0L99.066 137c-.08.408-.12.794-.12 1.182 0 2.948 2.58 4.511 5.61 4.511 3.5 0 5.983-2.215 6.633-5.49l1.811-9.297h-3.559l-1.79 9.196c-.307 1.525-1.406 2.34-2.971 2.34-1.323 0-2.135-.61-2.135-1.77 0-.184.02-.366.06-.57l1.788-9.196zm-66.54 3.01c1.896 0 3.218 1.321 3.218 3.314 0 2.931-2.442 5.211-4.825 5.211-1.891 0-3.214-1.383-3.214-3.44 0-2.847 2.38-5.085 4.822-5.085zm17.366.04h1.608c.914 0 1.484.447 1.484 1.302 0 1.445-.998 2.24-2.26 2.24H50.97Zm17.606 0h1.77c.812 0 1.118.407 1.118.958 0 .792-.57 1.627-1.566 1.627h-1.832zm17.28 0h1.606c.918 0 1.487.447 1.487 1.302 0 1.445-.997 2.24-2.258 2.24h-1.526zm-18.339 5.433h2.158c.875 0 1.281.488 1.281 1.138 0 .631-.345 1.284-.896 1.63a1.95 1.95 0 0 1-.996.245h-2.137z"/></svg>