<!-- SPDX-FileCopyrightText: © 2025 Schneider Electric SPDX-License-Identifier: LicenseRef-Proprietary -->
<svg xmlns="http://www.w3.org/2000/svg" viewBox="0 0 16 16"><path fill="none" stroke="currentColor" stroke-linecap="round" stroke-linejoin="round" d="M8.034 11.335c-.549 2.334-1.816 4.29-3.782 4.159-.89-.059-2.649-.668-3.038-4.672l5.092-1.288a2.31 2.31 0 0 1-.74-1.961C2.877 7.301.622 6.192.578 4.093c-.018-.892.435-2.697 4.39-3.434L6.744 5.76a2.34 2.34 0 0 1 1.173-.312h.054C8.233 2.884 9.345.543 11.444.5c.892-.018 2.697.435 3.434 4.39L9.946 6.607c.206.351.334.768.334 1.204 0 .115-.015.229-.027.34 2.852.326 5.161 1.498 5.168 3.597.003.892-.482 2.689-4.449 3.357L9.75 11.318"/></svg>