<!-- SPDX-FileCopyrightText: © 2025 Schneider Electric SPDX-License-Identifier: LicenseRef-Proprietary -->
<svg xmlns="http://www.w3.org/2000/svg" viewBox="0 0 16 16"><path fill="none" stroke="currentColor" stroke-linecap="round" stroke-linejoin="round" d="M6.026 6.497H4.915A2.02 2.02 0 0 1 2.91 4.493 1.987 1.987 0 0 1 5.129 2.52C5.559 1.356 6.679.5 7.993.5c1.554 0 2.835 1.186 3.027 2.687a1.734 1.734 0 0 1 2.495 1.557c0 .957-.758 1.752-1.715 1.752H7.939M5.471 8.462l.449 1.16m2.868-1.257-.906-1.864m-5.066 4.454v1.346m1.239-.302-1.267.391.815 1.137m-1.652.001.836-1.137L1.498 12m6.504-1.056v1.329m1.268-.302-1.268.391.815 1.137m-1.651.001.836-1.137-1.289-.391m6.545-1.028v1.346m1.267-.301-1.267.391.815 1.137m-1.651 0 .836-1.137-1.289-.391M1.525 15.5h13.027"/></svg>