<!-- SPDX-FileCopyrightText: © 2025 Schneider Electric SPDX-License-Identifier: LicenseRef-Proprietary -->
<svg xmlns="http://www.w3.org/2000/svg" viewBox="0 0 16 16"><path fill="none" stroke="currentColor" stroke-linecap="round" stroke-linejoin="round" d="M5.535 6.523 4.658 6.5a2.002 2.002 0 1 1 .234-3.99 3.077 3.077 0 0 1 5.937.673 1.747 1.747 0 1 1 .767 3.317H7.705m-2.17.023.932 2.284m1.238-2.269 1.037 2.544m1.12-2.553 1.431 3.574m1.649-1.39-.936-2.215m-9.195 4.447v1.346m1.239-.302-1.267.391.815 1.137m-1.652.001.836-1.137-1.289-.391m6.504-1.056v1.329m1.268-.302-1.268.391.815 1.137m-1.651.001.836-1.137-1.289-.391m6.545-1.028v1.346m1.267-.302-1.267.391.815 1.137m-1.651.001.836-1.137-1.289-.391M1.52 15.49h13.027"/></svg>