<!-- SPDX-FileCopyrightText: © 2025 Schneider Electric SPDX-License-Identifier: LicenseRef-Proprietary -->
<svg xmlns="http://www.w3.org/2000/svg" viewBox="0 0 16 16"><path fill="none" stroke="currentColor" stroke-linecap="round" stroke-linejoin="round" d="M15.5 12.491c0 .557-.46 1.009-1.029 1.009H1.529A1.03 1.03 0 0 1 .5 12.471V3.53c0-.569.461-1.03 1.03-1.03h12.941c.569 0 1.029.461 1.029 1.029V10.5M3.655 9.443l.031-1.219m-1.19.869 1.189.386m-.735 1.012.735-1.012m.735 1.012-.736-1.012m1.19-.386-1.19.386m4.383-.036-.088-1.219m-1.166.869 1.19.386m-.735 1.012.735-1.012m.734 1.012-.735-1.012m1.19-.386-1.19.386m4.365-1.254-.015 1.163m-1.214-.295 1.19.386m-.736 1.012.736-1.012m.734 1.012-.735-1.012m1.189-.386-1.189.386M10.5 4.5h-5"/></svg>