<!-- SPDX-FileCopyrightText: © 2025 Schneider Electric SPDX-License-Identifier: LicenseRef-Proprietary -->
<svg xmlns="http://www.w3.org/2000/svg" viewBox="0 0 16 16"><path fill="none" stroke="currentColor" stroke-linecap="round" stroke-linejoin="round" d="M4.52 7.644V10m1.209-1.178H3.373m8.13-1.156q-.002-.015-.017-.017c-.015-.002-.017.008-.017.017s.008.017.017.017.017-.008.017-.017Zm0 2.356q-.002-.015-.017-.017c-.015-.002-.017.008-.017.017s.008.017.017.017.017-.008.017-.017Zm1.178-1.2q-.002-.015-.017-.017c-.015-.002-.017.008-.017.017s.008.017.017.017.017-.008.017-.017Zm-2.356 0q-.002-.015-.017-.017c-.015-.002-.017.008-.017.017s.008.017.017.017.017-.008.017-.017Zm1.955-7.461a4.71 4.71 0 0 0-4.712 4.712h-.876c-.3 0-.586-.118-.803-.324a1.7 1.7 0 0 0-.59-.369C3.835 4.847 1.902 6.465.982 8.993s-.479 5.01.985 5.543c1.211.441 2.741-.592 3.755-2.394.203-.36.595-.573 1.008-.573h2.553c.412 0 .804.212 1.007.571 1.01 1.784 2.533 2.805 3.743 2.365 1.464-.533 1.909-3.003.994-5.517s-2.844-4.12-4.308-3.587a1.7 1.7 0 0 0-.574.354"/></svg>