<!-- SPDX-FileCopyrightText: © 2025 Schneider Electric SPDX-License-Identifier: LicenseRef-Proprietary -->
<svg xmlns="http://www.w3.org/2000/svg" viewBox="0 0 16 16"><path fill="none" stroke="currentColor" stroke-linecap="round" stroke-linejoin="round" d="M15.5 15.5h-12V2.899L.5.5m12.134 9.975a2.393 2.393 0 0 0 .588-4.71 2.605 2.605 0 0 0-2.146-4.083 2.605 2.605 0 0 0-2.452 3.49 2.482 2.482 0 1 0 2.023 4.247s-.73 1.156-.485 5.982m-1.997 0c.076-.611 0-1.222 0-1.222m-1.855-.69c-.154.612-.177 1.125-.123 1.912m5.965 0s.069-.749 0-1.657m2.172-.34a6 6 0 0 0-.115 1.997"/></svg>