<!-- SPDX-FileCopyrightText: © 2025 Schneider Electric SPDX-License-Identifier: LicenseRef-Proprietary -->
<svg xmlns="http://www.w3.org/2000/svg" viewBox="0 0 16 16"><path fill="none" stroke="currentColor" stroke-linecap="round" stroke-linejoin="round" d="M9.026 13.513H1.353a.857.857 0 0 1-.853-.86V5.361c0-.475.382-.86.853-.86h10.231c.471 0 .853.385.853.86v7.292c0 .475-.382.86-.853.86M8.033 2.55H2.079a.79.79 0 0 0-.789.789v.789m9.473.001V3.34a.79.79 0 0 0-.789-.789M4.456 15.5h6.254c.487 0 .881-.438.881-.979v-.979m-10.302.379v.789c0 .873.686.789 1.254.789M6.196.507H1.472m1.087.496.039 1.46m.755 4.095v4.943m3.091-4.95v4.943M9.477 6.58v4.943m2.94-4.98h2.936m.175-1.575v3.033m-3.091 3.85h2.878m.169-1.575v3.033"/></svg>