<!-- SPDX-FileCopyrightText: © 2025 Schneider Electric SPDX-License-Identifier: LicenseRef-Proprietary -->
<svg xmlns="http://www.w3.org/2000/svg" viewBox="0 0 16 16"><path fill="none" stroke="currentColor" stroke-linecap="round" stroke-linejoin="round" d="M2.208 6.66S1.063 6.256.517 5.994c-.104-.547 1.198-2.647 1.778-3.219.124-.026 1.592 1.059 1.592 1.059h0a6 6 0 0 1 2.388-1.355l-.012-.037S6.091 1.379 6.052.79C8.164.214 9.814.675 9.814.675l-.137 1.726.024.067a6 6 0 0 1 2.435 1.374l.009-.009s.863-.676 1.369-1.004c1.311 1.372 1.984 3.104 1.984 3.104l-1.609.748-.073.017a5.66 5.66 0 0 1-.026 2.747h0s1.147.361 1.692.622c-.542 2.063-1.844 3.175-1.844 3.175l-1.546-1.004a6 6 0 0 1-2.428 1.345s.228 1.01.267 1.599c-1.32.666-3.845.079-3.845.079l.046-1.743a6 6 0 0 1-2.294-1.356h0s-.915.847-1.421 1.175C.847 11.85.497 10.16.497 10.16l4.471-2.186c0-1.613 1.347-2.92 3.009-2.92s3.009 1.307 3.009 2.92-1.347 2.92-3.009 2.92a3.04 3.04 0 0 1-2.279-1.013"/></svg>