<!-- SPDX-FileCopyrightText: © 2025 Schneider Electric SPDX-License-Identifier: LicenseRef-Proprietary -->
<svg xmlns="http://www.w3.org/2000/svg" viewBox="0 0 16 16"><circle cx="12.509" cy="12.51" r=".5"/><path fill="none" stroke="currentColor" stroke-linecap="round" stroke-linejoin="round" d="M1.806 5.209S.931 4.9.513 4.7c-.08-.418.916-2.024 1.359-2.461.095-.02 1.217.809 1.217.809h0a4.6 4.6 0 0 1 1.826-1.036l-.009-.028s-.131-.813-.161-1.263C6.36.28 7.621.633 7.621.633l-.104 1.319.018.052a4.6 4.6 0 0 1 1.862 1.05l.007-.007s.66-.517 1.047-.767c1.002 1.049 1.517 2.372 1.517 2.372l-1.23.572-.056.013a4.3 4.3 0 0 1-.019 2.1h0s.877.276 1.294.476c-.414 1.577-1.409 2.427-1.409 2.427l-1.182-.767a4.6 4.6 0 0 1-1.856 1.028s.174.772.204 1.222c-1.009.509-2.94.061-2.94.061l.035-1.332a4.6 4.6 0 0 1-1.754-1.036h0s-.7.647-1.087.898C.768 9.178.501 7.886.501 7.886l3.418-1.671c0-1.233 1.03-2.232 2.301-2.232s2.301.999 2.301 2.232-1.03 2.232-2.301 2.232c-.558 0-1.07-.193-1.469-.514m5.576 3.967-.687.021s-.174 1.007.118 1.511c.231-.029.623-.141.623-.141.122.356.325.672.584.925l-.36.631s.467.487 1.291.653c.09-.221.206-.68.206-.68h0a2.25 2.25 0 0 0 1.081-.053l.008.028.331.616s.666-.304 1.176-.851c-.14-.192-.426-.516-.426-.516l-.004-.003c.233-.281.402-.619.485-.989l.026-.011.682.015s.144-.66-.131-1.477a10 10 0 0 0-.645.121l-.014.005a2.4 2.4 0 0 0-.587-.909h0s.393-.602.38-.65c-.238-.215-1.094-.68-1.306-.627-.09.221-.224.68-.224.68"/></svg>