<!-- SPDX-FileCopyrightText: © 2025 Schneider Electric SPDX-License-Identifier: LicenseRef-Proprietary -->
<svg xmlns="http://www.w3.org/2000/svg" viewBox="0 0 16 16"><path fill="none" stroke="currentColor" stroke-linecap="round" stroke-linejoin="round" d="M6.194 6.766q.018-.123.053-.239a1.81 1.81 0 0 1 1.742-1.271c1.001 0 1.812.788 1.812 1.759S8.99 8.774 7.989 8.774c-.427 0-.819-.143-1.129-.383m-2.774-.473-.603.414s.21 1.018 1.156 1.914c.305-.198.856-.708.856-.708h0a3.6 3.6 0 0 0 1.382.817l-.028 1.05s1.521.353 2.316-.048c-.024-.355-.161-.963-.161-.963a3.6 3.6 0 0 0 1.462-.81l.931.605s.784-.67 1.11-1.913c-.329-.157-1.019-.375-1.019-.375h0a3.4 3.4 0 0 0 .016-1.655l.044-.01.969-.451s-.405-1.043-1.195-1.87c-.305.198-.825.605-.825.605l-.005.005a3.6 3.6 0 0 0-1.467-.828l-.014-.041.082-1.04s-.994-.278-2.266.069c.024.355.127.995.127.995l.007.022a3.6 3.6 0 0 0-1.438.816h0s-.884-.653-.959-.638c-.349.344-1.134 1.61-1.071 1.939.166.08.425.181.64.262M10.5 13.5h2.81c1.182 0 2.19-.562 2.19-1.775V2.702A2.21 2.21 0 0 0 13.298.5H2.702A2.21 2.21 0 0 0 .5 2.702v8.981c0 1.236.787 1.817 1.799 1.817h4.563l3.182 2.201"/></svg>