<!-- SPDX-FileCopyrightText: © 2025 Schneider Electric SPDX-License-Identifier: LicenseRef-Proprietary -->
<svg xmlns="http://www.w3.org/2000/svg" viewBox="0 0 16 16"><path fill="none" stroke="currentColor" stroke-linecap="round" stroke-linejoin="round" d="M7.017 10.059c-.06-.312.685-1.513 1.016-1.839.071-.015.91.605.91.605h0a3.4 3.4 0 0 1 1.365-.774l-.007-.021s-.098-.608-.121-.944c1.207-.329 2.15-.066 2.15-.066l-.078.986.014.039a3.4 3.4 0 0 1 1.392.785l.005-.005s.493-.386.782-.574c.749.784 1.134 1.774 1.134 1.774l-.919.428-.042.009a3.25 3.25 0 0 1-.015 1.57h0s.655.206.967.356c-.309 1.179-1.054 1.815-1.054 1.815l-.884-.574a3.4 3.4 0 0 1-1.388.768s.13.577.153.914c-.754.381-2.197.045-2.197.045l.026-.996a3.4 3.4 0 0 1-1.311-.775h0s-.523.484-.812.671c-.897-.85-1.097-1.815-1.097-1.815l3.019-1.249c0-.673.562-1.219 1.256-1.219s1.256.546 1.256 1.219-.562 1.219-1.256 1.219M12.5 2.5h-.078c.781 0 1.078.778 1.078 1.344v1.752M6.802 15.5H4.079A1.58 1.58 0 0 1 2.5 13.921V4.079A1.58 1.58 0 0 1 4.079 2.5h1.185l-.027.112L4.79 4.5h6.443l-.862-2.875A1.58 1.58 0 0 0 8.859.5H7.15c-.481 0-.923.218-1.216.572"/></svg>