<!-- SPDX-FileCopyrightText: © 2025 Schneider Electric SPDX-License-Identifier: LicenseRef-Proprietary -->
<svg xmlns="http://www.w3.org/2000/svg" viewBox="0 0 16 16"><path fill="none" stroke="currentColor" stroke-linecap="round" stroke-linejoin="round" d="M3.5 7.5v-3h5v3h-3m10 2v-9M.5.5v10.632A2.37 2.37 0 0 0 2.868 13.5h6.039m6.593-11H.5v7h10m2.136-5.009-1.579 1.794h2.368l-1.579 1.794M3.5 13.5v2m2-15H4.302a.805.805 0 0 0-.802.808V2.5h10V1.308A.805.805 0 0 0 12.698.5H7.5m-4 11v-2m9.632 1.263a2.368 2.368 0 1 0 1.557.584"/></svg>