<!-- SPDX-FileCopyrightText: © 2025 Schneider Electric SPDX-License-Identifier: LicenseRef-Proprietary -->
<svg xmlns="http://www.w3.org/2000/svg" viewBox="0 0 16 16"><path fill="none" stroke="currentColor" stroke-linecap="round" stroke-linejoin="round" d="m12.798 2.235-1.75.333m1.44-2.061.31 1.728A7.5 7.5 0 0 0 .5 8c0 2.738 1.307 4.972 3.498 6.282l.029.023s1.908-1.467.546-2.433c-.324-.23-.852-.786-.49-1.276.403-.545.01-.884-.491-1.135-.563-.281-1.319-1.142-1.361-2.419-.029-.896.638-2.309.756-2.419.705-.655 1.193.118 2.217-.05 1.99-.328 1.826 1.439.983 1.915-.672.379-1.717.629-1.94.705-.605.209-.58.817-.277 1.083.618.544 1.384.737 2.066 1.058 1.055.497 1.375.665 1.984 1.058.606.403.549 1.157 0 1.613-.434.36-1.203 1.258-1.98 3.235a7.5 7.5 0 0 0 9.461-7.241s.023-.938-.35-1.145c-.372-.207-1.588-.042-2.018.75.158.384.915.995.789 1.579-.512 2.374-1.91 3.5-2.368 3.158-.358-.267-.377-2.251-1.214-2.758-.199-.121-.712-.286-1.155-.4-1.069-.274-.871-1.856.789-2.368.695-.214 1.818.459 1.943.215.272-.529-.583-1.718-1.153-1.794-.436.089-1.3.361-1.579 0-.428-.554.289-1.302.789-1.579.428-.237 2.019.789 2.368.789.789 0 1.593-.825 1.593-.825"/></svg>