<!-- SPDX-FileCopyrightText: © 2025 Schneider Electric SPDX-License-Identifier: LicenseRef-Proprietary -->
<svg xmlns="http://www.w3.org/2000/svg" viewBox="0 0 16 16"><path fill="none" stroke="currentColor" stroke-linecap="round" stroke-linejoin="round" d="m8.395 2.079-.823.378c-.478.219-1.319.26-1.545.412s-.84.538-.789.789.134.588.789.789.781-.445 1.436-.58c.858.114 2.13 1.363 1.722 2.158-.188.367-1.078.211-1.31.16-.859-.19-2.182-.366-2.637-.16-1.154.522-1.579 1.419-1.579 2.368 0 2.368 3.01 1.377 3.296 1.579s.702 1.176.652 1.579-.031.356 0 .789.118 1.579.789 1.579c.399 0 3.158-1.579 3.393-4.354.017-.195-.474-.364-.474-.364-.391.074-.55-1.597-.567-1.971l1.844.289a.468.468 0 0 0 .541-.463V6.025s.789-.789 1.86-.745a7.56 7.56 0 0 1 .411 3.942c-.516 3.269-3.237 5.854-6.526 6.227A7.508 7.508 0 0 1 .641 6.523C1.2 3.591 3.553 1.223 6.482.649c3.046-.597 5.852.652 7.5 2.826"/></svg>