<!-- SPDX-FileCopyrightText: © 2025 Schneider Electric SPDX-License-Identifier: LicenseRef-Proprietary -->
<svg xmlns="http://www.w3.org/2000/svg" viewBox="0 0 16 16"><path fill="none" stroke="currentColor" stroke-linecap="round" stroke-linejoin="round" d="M12.02 7.707s-1.246-.748-3.624-.81c-2.46-.064-4.375.804-4.375.804-.405.182-1.756.899-1.756.899l-.056-.029L.501 7.09l7.92-3.88 7.08 3.851-3.539 3.069v2.367H4.918V9.936m-2.58.387.032.122v.221l-.093.127.01.475-.427.372-.184.451 1.336-.019-.052-.343-.527-.451-.037-.352.042-.118-.071-.494.048-.099.018-1.669-.223.025.078 1.668.052.084Z"/></svg>