<!-- SPDX-FileCopyrightText: © 2025 Schneider Electric SPDX-License-Identifier: LicenseRef-Proprietary -->
<svg xmlns="http://www.w3.org/2000/svg" viewBox="0 0 16 16"><path fill="none" stroke="currentColor" stroke-dasharray=".5 2" stroke-linecap="round" stroke-linejoin="round" d="M5.472 5.502 5.44.5m5.037 5.002L10.445.5M5.514 10.514.5 10.546M5.514 5.49.5 5.522"/><path fill="none" stroke="currentColor" stroke-linecap="round" stroke-linejoin="round" d="M7.131 10.502h-.696c-.513 0-.933-.398-.933-.885v-.744m5-1.756v-.73c0-.487-.42-.885-.933-.885h-.697m-1.741 0h-.744c-.487 0-.885.42-.885.933v.682m3.371 3.385h.744c.487 0 .885-.42.885-.933v-.696"/><path fill="none" stroke="currentColor" stroke-dasharray=".5 2" stroke-linecap="round" stroke-linejoin="round" d="M10.486 5.522 15.5 5.49m-5.014 5.056 5.014-.032m-5.055-.016.032 5.002M5.44 10.498l.032 5.002"/></svg>