<!-- SPDX-FileCopyrightText: © 2025 Schneider Electric SPDX-License-Identifier: LicenseRef-Proprietary -->
<svg xmlns="http://www.w3.org/2000/svg" viewBox="0 0 16 16"><path fill="none" stroke="currentColor" stroke-linecap="round" stroke-linejoin="round" d="m9.269 3.889-.002.085c-.027 1.468-.099 6.289.099 11.214a.3.3 0 0 1-.086.22.3.3 0 0 1-.222.092H6.65a.3.3 0 0 1-.307-.32c.408-6.278.308-10.543.307-10.589-.032-.451-.215-.728-.502-.768a1 1 0 0 0-.122-.008c-.959 0-1.434.412-1.553.412s-.66.006-.711 0a.303.303 0 0 1-.268-.298V1.151c0-.166.137-.3.307-.3h.672q.07 0 .131.028c.024.01.561.243 1.171.243.385 0 .719-.092.993-.272A2.2 2.2 0 0 1 8.011.499c.75 0 1.645.313 2.397.837.804.56 1.681 1.34 2.097 2.873"/></svg>