<!-- SPDX-FileCopyrightText: © 2025 Schneider Electric SPDX-License-Identifier: LicenseRef-Proprietary -->
<svg xmlns="http://www.w3.org/2000/svg" viewBox="0 0 16 16"><path fill="none" stroke="currentColor" stroke-linecap="round" stroke-linejoin="round" d="m4.666 10.457.024 2.261-.78-.522-.535.703-.72-.589-.64.75-.597-.627-.919.744c.13-5.34.58-6.089.842-7.027.675-1.162 1.785-2.322 6.106-3.328 1.583.433.957 2.923.957 2.923m6.177-.907-2.856-1.683-2.856.566M7.281 9.64c-.204.355-.501.575-1.044.671-1.145.203-1.804-.748-2.594-.625-.791.124-.527 1.142-.527 1.142m7.381-4.868-3.871-.497c-1.241-.098-1.509 1.83-.345 2.196l2.591.74s2.938 3.056 6.629 2.102"/></svg>