<!-- SPDX-FileCopyrightText: © 2025 Schneider Electric SPDX-License-Identifier: LicenseRef-Proprietary -->
<svg xmlns="http://www.w3.org/2000/svg" viewBox="0 0 16 16"><path fill="none" stroke="currentColor" stroke-linecap="round" stroke-linejoin="round" d="m14.5 8.504.496.002.43-4.002h-2.681s-5.054-1.862-7.399-.589c-2.343 1.273-1.72 2.36-1.72 2.36.57.892 2.024.059 2.024.059 1.445-.868 2.39-.741 2.39-.741 1.412 0 2.985 1.697 2.985 1.697 1.811 1.662 1.548 2.594 1.548 2.594-.489.923-3.442-1.608-3.442-1.608s3.053 2.282 2.374 2.953c-.731.723-3.931-2.02-3.931-2.02C10.439 11.42 9.7 12.016 9.7 12.016c-.7.819-3.695-1.94-3.695-1.94 2.305 1.993 1.558 2.37 1.558 2.37-1.009.674-4.811-2.942-4.811-2.942H.5l.356-4H1.5"/></svg>