<!-- SPDX-FileCopyrightText: © 2025 Schneider Electric SPDX-License-Identifier: LicenseRef-Proprietary -->
<svg xmlns="http://www.w3.org/2000/svg" viewBox="0 0 16 16"><path fill="none" stroke="currentColor" stroke-linecap="round" stroke-linejoin="round" d="M13.944 11.599c-.912 1.016-2.878 2.388-3.101 2.541-.302.21-.72.164-.924-.073-.295-.341-.328-.795-.077-1.051.22-.224 1.728-1.573 1.728-1.573m3.587-4.636s-2.897-.531-5.603-.427m-.18 4.928s-.308.26-.596.567c-.345.368-.462.912-.103 1.249.347.326.787.263 1.019.047M7.475 11.29c-.003.163.051.378.282.583.495.44 1.022.002 1.022.002m4.269-3.727H7.669s-.844.04-.844.837.844.837.844.837h4.393s1.567 1.598 2.458 1.709c.38.047.98.026.98.026m-5.035-3.671a.93.93 0 0 0-.255-.769L5.084 1.991a.9.9 0 0 0-1.277 0L.765 5.035a.904.904 0 0 0 0 1.278l5.124 5.127"/></svg>