<!-- SPDX-FileCopyrightText: © 2025 Schneider Electric SPDX-License-Identifier: LicenseRef-Proprietary -->
<svg xmlns="http://www.w3.org/2000/svg" viewBox="0 0 16 16"><path fill="none" stroke="currentColor" stroke-linecap="round" stroke-linejoin="round" d="M.5 7.595c.964.146 1.931.147 2.968.171 2.531.058 4.703.823 5.127.823.606 0 1.65-.092 1.869-.196 1.049-.495 1.419-.705 2.474-1.314.474-.219.971-.175 1.18.293.068.151.096.343.057.622-.036.26-.253.585-.477.724-.869.539-1.71 1.154-2.735 1.595-.273.117-1.74.467-2.423.45-.403-.01-2.265-.231-2.588-.207-.45.033-.496.08-.901.099-.157.007-.381.018-.561.143-.114.08-.395.228-.455.687-.033.253.045.45.073.52.149.368.399.584.654.731.486.28 1.569 1.013 1.59 1.623.007.223-.132.534-.231.611-.178.138-.493.3-.72.338a.37.37 0 0 1-.268-.06c-.265-.179-1.386-.984-1.677-1.114-.319-.143-1.313-.859-1.729-1.153-.456-.332-.683-.666-1.225-1.01M10.5 15.5v-2h-2v2m0-15v3h2v-3m5 14.622L14.12 12.7l-1.184 1.091-1.067-1.735M5.692 6.049 3.741 4.937l1.132-1.279-2.627-.89m10.586 3.829a1 1 0 0 0-.529-.626 1 1 0 0 0-1.024.132c-1.002.538-1.1.629-2.102 1.167m1.285-.718c.162-.262.273-.788-.478-1.005-.431-.125-.943.257-1.057.329-.611.389-.958.649-1.533.977"/></svg>