<!-- SPDX-FileCopyrightText: © 2025 Schneider Electric SPDX-License-Identifier: LicenseRef-Proprietary -->
<svg xmlns="http://www.w3.org/2000/svg" viewBox="0 0 16 16"><path fill="none" stroke="currentColor" stroke-linecap="round" stroke-linejoin="round" d="M10.5 6.5H.5m2.581-6 .917 6H7.11l.916-6M3.5 2.5h2.381m9.703 5.931-3.836.924M15.5 6.5v-.296c0-.745-.35-1.704-1.591-1.704h-3.345c-.444 0-.994.289-.994.935s.41 1.035.854 1.035l2.077.03m-.001 0H6.257a.796.796 0 0 0-.757.784v.13c0 .42.267.697.68.854l5.483 1.018m.085.068-1.663.481 3.631 5.665"/></svg>