<!-- SPDX-FileCopyrightText: © 2025 Schneider Electric SPDX-License-Identifier: LicenseRef-Proprietary -->
<svg xmlns="http://www.w3.org/2000/svg" viewBox="0 0 16 16"><path fill="none" stroke="currentColor" stroke-linecap="round" stroke-linejoin="round" d="M5.586 6.883 4.5 6.024 4.493 1.98l2.944 1.824m.066 0L7.5 7.99m.076.001L11.5 6.12V1.976M7.594 3.804l1.714-.698M4.561 1.929 8.532.5M11.5 1.976 8.531.5M2.5 6.171V3.29a.79.79 0 0 0-.789-.791h-.455c-.417 0-.756.354-.756.791l.005 6.996 2.995 3.06V15.5h3v-3.856c0-.628-.249-1.23-.694-1.675L4.082 8.32c-.308-.308-.924-.443-1.365-.002s-.226 1.11.083 1.418l1.345 1.386m7.71 0L13.2 9.736c.308-.309.523-.978.083-1.418s-1.056-.306-1.365.002l-1.724 1.649a2.37 2.37 0 0 0-.694 1.675V15.5h3v-2.154l2.995-3.06.005-6.996c0-.437-.338-.791-.756-.791h-.455a.79.79 0 0 0-.789.791v2.881"/></svg>