<!-- SPDX-FileCopyrightText: © 2025 Schneider Electric SPDX-License-Identifier: LicenseRef-Proprietary -->
<svg xmlns="http://www.w3.org/2000/svg" viewBox="0 0 16 16"><path fill="none" stroke="currentColor" stroke-linecap="round" stroke-linejoin="round" d="M.5 15.45c2.005-.617 3.316-2.168 3.262-3.859-.032-.991-.445-1.5-.674-1.707l3.933-1.485m-.549 7.051a5.44 5.44 0 0 0 2.469-1.882 4.67 4.67 0 0 0 .901-2.899c-.029-.899-.28-1.62-.533-2.064M4.473 3.106s-.525.856-.967 2.033c-.403 1.074.375 1.971 1.605 1.971m.646-2.153s-.665 1.094-.696 2.886c-.008.448.184.752.449.919m2.848-5.228c-.24 1.394-1.513 2.477-1.286 4.206.184 1.406 1.907 2.364 2.214.825.66-3.307 2.853-4.171 3.028-6.227.046-.546.021-1.2-.019-1.838M3.399 1.995s-.629.853-.948 1.472c-.365.708.172 1.791 1.015 1.791M2.736.5c-1.105 1.169-1.39 2.165-.286 2.967M6.5 15.5h9m-.865-4.081-1.499-.501a.483.483 0 0 0-.636.458V13.5"/></svg>