<!-- SPDX-FileCopyrightText: © 2025 Schneider Electric SPDX-License-Identifier: LicenseRef-Proprietary -->
<svg xmlns="http://www.w3.org/2000/svg" viewBox="0 0 16 16"><path fill="none" stroke="currentColor" stroke-linecap="round" stroke-linejoin="round" d="M.5 6.5v-4m0 11v-4m2-3h-2m0 3h2m13 2.067-.13-.089-.314-.215c-.625-.56-.972-.851-1.182-1.802l-.459-2.088c-.214-.767-1.14-2.613-2.306-3.437L7.949 1.6c-.35-.289-.866-.025-1.045.401h0c-.188.449-.045 1.08.318 1.4l2.82 2.509c.219.195.372.454.436.74l.735 3.291c.149.663-.181 1.33-.619 1.536l-1.119-.567-.305-1.385c-.141-.64-.62-1.078-1.292-.931l-.698.153.659 2.997c.176.799.669 1.449 1.256 1.653l2.336 1.161M8.047 4.124c-.503-.49-1.638.581-.876 1.467.521.606.913.84 1.112 1.017M2.5 9.5v2h1.571a5.8 5.8 0 0 0 1.191-3.502A5.8 5.8 0 0 0 4.071 4.5H2.5v2"/></svg>