<!-- SPDX-FileCopyrightText: © 2025 Schneider Electric SPDX-License-Identifier: LicenseRef-Proprietary -->
<svg xmlns="http://www.w3.org/2000/svg" viewBox="0 0 16 16"><path fill="none" stroke="currentColor" stroke-linecap="round" stroke-linejoin="round" d="M9.513 2.696c.006-.495.46-.895.957-.895s1.025.4 1.03.895l.003 4.804M9.5 7.5V1.395C9.424.9 9.021.5 8.525.5s-.898.4-1.025.895V7.5m0-5-.008.03c-.005-.495-.482-.925-.978-.925s-1.009.4-1.014.895v4m6 9v-1.64s2-.328 2-3.281l-.005-6.828a.991.991 0 0 0-1.983 0M5.219 9.808s-.357-.52-.702-.849c-.736-.702-2.062-.358-2.318.417L5.5 13.504v1.995"/></svg>