<!-- SPDX-FileCopyrightText: © 2025 Schneider Electric SPDX-License-Identifier: LicenseRef-Proprietary -->
<svg xmlns="http://www.w3.org/2000/svg" viewBox="0 0 16 16"><path fill="none" stroke="currentColor" stroke-linecap="round" stroke-linejoin="round" d="M7.605.5h5.363c2.276 0 2.567 5.7.895 5.7-.218.363.569 1.684.569 2.484 0 .567-.145 1.592.092 2.234.097.263.51.472.72.596.21.125.452 3.987 0 3.987h-5.5c-1.017 0 .063-3.158.358-3.678.359-.632 1.44-.815 1.44-.815s-.183-3.6-.764-3.6-1.38-.901-1.38-.901H6.417l-.789-.789H4.497c-.799 0-1.621-1.157-1.621-1.157m3.15-2.482H4.521c-.799 0-1.652.654-1.652.654v1.826m3.157-.901V2.079M2.868 3.658H.5"/></svg>