<!-- SPDX-FileCopyrightText: © 2025 Schneider Electric SPDX-License-Identifier: LicenseRef-Proprietary -->
<svg xmlns="http://www.w3.org/2000/svg" viewBox="0 0 16 16"><path fill="none" stroke="currentColor" stroke-linecap="round" stroke-linejoin="round" d="m2.511 10.664-.028-1.202c0-.531.432-.962.966-.962h.085c.534 0 .966.431.966.962v5.051c0 .545-.429.986-.957.986h-.085c-.529 0-.957-.442-.957-.986v-2.014H1.253c-.814 0-.752-.749-.752-.749V8.14C.501 4.396 3.557.499 7.946.499c4.494 0 7.555 2.935 7.555 7.424v3.741s.091.835-.731.835h-1.269v2.047a.947.947 0 0 1-.941.953h-.118a.947.947 0 0 1-.941-.953V9.451c0-.526.421-.953.941-.953h.118c.52 0 .941.427.941.953l-.005 1.047"/></svg>