<!-- SPDX-FileCopyrightText: © 2025 Schneider Electric SPDX-License-Identifier: LicenseRef-Proprietary -->
<svg xmlns="http://www.w3.org/2000/svg" viewBox="0 0 16 16"><path fill="none" stroke="currentColor" stroke-linecap="round" stroke-linejoin="round" d="M11.598 10.133c-.156-.438-.232-1.135-.232-2.133 0-1.549.699-2.252.699-2.252-1.402-3.998-4.846-3.601-4.846-3.601-4.825.105-4.808 5.221-4.808 5.221s-.657.683-1.135.683c-.8 0-.76-1.147-.76-1.147a.94.94 0 0 1 .39-.96C.958 5.247 2.308.498 7.271.498s6.374 5.111 6.374 5.111c1.225.211 1.566 1.279 1.566 1.279.671 1.714-.044 2.886-.044 2.886-.866 1.745-2.03 1.271-2.03 1.271-.357 2.048-1.596 2.915-1.596 2.915-1.218 1.193-3.202 1.101-3.202 1.101-.217.408-.778.437-.778.437-1.503.006-1.493-.845-1.493-.845-.233-1.082 1.428-.786 1.428-.786"/></svg>