<!-- SPDX-FileCopyrightText: © 2025 Schneider Electric SPDX-License-Identifier: LicenseRef-Proprietary -->
<svg xmlns="http://www.w3.org/2000/svg" viewBox="0 0 16 16"><path fill="none" stroke="currentColor" stroke-linecap="round" stroke-linejoin="round" d="M8.836 15.154c-.267-.667-1.598-2.761-1.971-2.868s-1.568.523-2.101.23-.115-1.176-.262-1.323c-.146-.146-.747.054-.747-.747-.213-.213-.404-.341-.213-.667.154-.263.306-.547.133-.72S2.74 9 2.502 8.446c-.16-.372.96-1.307 1.12-1.92 0 0 .187-.533 0-1.014-.187-.48-.507-1.013-.053-2.08.335-.79.996-1.929 2.553-2.521m4.27 7.099s.549-3.101.136-4.447c-.296-.966-.949-2.435-2.778-3.064M3.413 14.832a.668.668 0 1 0 1.337 0c.282.282 1.928-.274 2.946-.892.806-.489 1.396-3.201 1.608-4.314h0c-.418-.367-.689-.958-.689-1.624 0-1.113.756-2.016 1.688-2.016s1.688.902 1.688 2.016c0 .688-.731 1.659-.731 1.659.46-.249 1.239-.641 1.316-.859.243-.69.627-1.39.833-2.597.535-3.141-1.13-4.967-2.533-5.548"/></svg>