<!-- SPDX-FileCopyrightText: © 2025 Schneider Electric SPDX-License-Identifier: LicenseRef-Proprietary -->
<svg xmlns="http://www.w3.org/2000/svg" viewBox="0 0 16 16"><path fill="none" stroke="currentColor" stroke-linecap="round" stroke-linejoin="round" d="M12.09.5c-.243.411-.243 1.233.072 1.635.354.453.382 1.242.013 1.662m-2.092 0c.369-.42.341-1.209-.013-1.662C9.755 1.733 9.755.911 9.998.5m4.27 3.297c.369-.42.341-1.209-.013-1.662C13.94 1.733 13.94.911 14.183.5m-3.924 5.574a4.967 4.967 0 1 0 2.135 2.106m-6.495 4.426c.58.58 1.522.58 2.102 0M5.899 8.402c-.58.58-.58 1.522 0 2.102m4.204-2.102a1.487 1.487 0 0 0-2.102 0m2.102 4.204c.58-.58.58-1.522 0-2.102M3.5.5v2m-1.756-.641 1.701.553M2.394 3.86l1.051-1.448M4.498 3.86 3.445 2.412m1.703-.553-1.703.553"/></svg>