<!-- SPDX-FileCopyrightText: © 2025 Schneider Electric SPDX-License-Identifier: LicenseRef-Proprietary -->
<svg xmlns="http://www.w3.org/2000/svg" viewBox="0 0 16 16"><path fill="none" stroke="currentColor" stroke-linecap="round" stroke-linejoin="round" d="M5.292 8.5H3.651c-1.317 0-2.537-.871-2.77-2.144-.307-1.672.993-3.127 2.64-3.127q.16 0 .314.019A4.12 4.12 0 0 1 7.704.601c2.099 0 3.831 1.54 4.09 3.532.611-.293 1.372-.335 2.131.021.454.213.829.594 1.027 1.054.724 1.679-.511 3.292-2.131 3.292H7.583m-2.291.06 1.271 3.25m2.872 1.479L7.583 8.5m2.274.169 2.716 6.831m-.321-6.831 1.217 3.166"/></svg>