<!-- SPDX-FileCopyrightText: © 2025 Schneider Electric SPDX-License-Identifier: LicenseRef-Proprietary -->
<svg xmlns="http://www.w3.org/2000/svg" viewBox="0 0 16 16"><path fill="none" stroke="currentColor" stroke-linecap="round" stroke-linejoin="round" d="M7.095 10.196V8.69H5.589c-.685 0-.995-.862-.995-.862S3.115 5.487 2.792 4.723s-.278-1.2-.278-1.2V2.2c0-1.8 1.69-1.698 1.69-1.698h7.199c1.759 0 2.082 1.649 2.082 1.649v1.372c0 .814-.282 1.283-.282 1.283l-2.584 3.838m-3.524 1.552a2.734 2.734 0 1 0 3.157 4.153s.377-.578-.226-1.182c0 0-.655-.565-1.347.128 0 0-.161.145-.177.156a.833.833 0 1 1-.477-1.517s.96.042.96-.939v-1.39"/></svg>