<!-- SPDX-FileCopyrightText: © 2025 Schneider Electric SPDX-License-Identifier: LicenseRef-Proprietary -->
<svg xmlns="http://www.w3.org/2000/svg" viewBox="0 0 16 16"><path fill="none" stroke="currentColor" stroke-linecap="round" stroke-linejoin="round" d="M7.501 10.072V8.505H5.584c-.687 0-.998-.642-.998-.642S3.103 5.512 2.779 4.744 2.5 3.538 2.5 3.538V2.21C2.5.402 4.194.504 4.194.504h7.218C13.606.504 13.5 2.21 13.5 2.21v1.328c0 .814-.282 1.206-.282 1.206l-2.571 3.571M7.455 10.08c-1.216.125-2.146 1.507-2.146 2.692 0 1.509 1.246 2.725 2.756 2.725.92 0 1.73-.399 2.225-1.095 0 0 1.171-1.339-.036-2.334 0 0-1.559 2.393-2.73 1.285 0 0-.499-.918.395-1.309"/></svg>