<!-- SPDX-FileCopyrightText: © 2025 Schneider Electric SPDX-License-Identifier: LicenseRef-Proprietary -->
<svg xmlns="http://www.w3.org/2000/svg" viewBox="0 0 16 16"><path fill="none" stroke="currentColor" stroke-linecap="round" stroke-linejoin="round" d="m4.469 9.652-.027-2.25m-.021-1.819-.027-2.25"/><g fill="none" stroke="currentColor" stroke-linecap="round" stroke-linejoin="round"><path d="M8.001 6.801s-.042.446-.079 1.119"/><path stroke-dasharray="2.086 2.086" d="M7.863 10.007c.002.793.038 1.618.138 2.33.251 1.791.807 3.163 1.755 3.163 1.696 0 1.744-2.852 1.744-2.852V3.693q0-.532-.057-.972"/><path d="M11.167 1.719c-.188-.376-.463-.613-.841-.679"/></g><path fill="none" stroke="currentColor" stroke-linecap="round" stroke-linejoin="round" d="M4.5 11.396v1.096c0 .305.98.658.98 1.633 0 .782-.644 1.363-1.311 1.367-.568.003-1.098-.392-1.224-.874-.06-.229-.181-.537-.425-.772M13.447 3.627c0-1.347-.977-2.241-2.243-2.439L7.258.501c-1.588 0-2.875 1.4-2.875 3.127S5.67 6.755 7.258 6.755l2.365-.412"/></svg>