<!-- SPDX-FileCopyrightText: © 2025 Schneider Electric SPDX-License-Identifier: LicenseRef-Proprietary -->
<svg xmlns="http://www.w3.org/2000/svg" viewBox="0 0 16 16"><path fill="none" stroke="currentColor" stroke-linecap="round" stroke-linejoin="round" d="M11.5 13.5v.991a1.01 1.01 0 0 1-1.009 1.009H5.509A1.01 1.01 0 0 1 4.5 14.491L4.38 11.5m7.12-8.877V1.51A1.01 1.01 0 0 0 10.49.5H5.509A1.01 1.01 0 0 0 4.5 1.509V2.5m-1 2H1.509A1.01 1.01 0 0 0 .5 5.509v4.974c0 .556.45 1.008 1.006 1.009l2.874.008h0c.169-1.128.558-2.985 2.396-2.985-.987-.328-1.54-1.067-1.54-2.245 0-1.647 1.29-2.942 2.837-2.942s2.801 1.259 2.801 2.907c0 1.17-.784 1.407-2.237 1.407m-1.61 2.94c.362.361.742.762 1.686.762h0c1.071 0 2.465-1.993 2.465-1.993.548.399 1.187 1.434 1.322 2.144v.005h1.991a1.01 1.01 0 0 0 1.009-1.009V5.509A1.01 1.01 0 0 0 14.491 4.5H12.5m-3 2.885a.5.5 0 1 0-1 0 .5.5 0 0 0 1 0Z"/></svg>