<!-- SPDX-FileCopyrightText: © 2025 Schneider Electric SPDX-License-Identifier: LicenseRef-Proprietary -->
<svg xmlns="http://www.w3.org/2000/svg" viewBox="0 0 16 16"><path fill="none" stroke="currentColor" stroke-linecap="round" stroke-linejoin="round" d="M9.714 15.5h-6.33s.165-4.201.589-5.361c.42-1.16 1.816-1.667 2.053-1.667V7.53c-.237 0-1.633-.508-2.053-1.667m8.528-4.001c.049-.784.071-1.362.071-1.362H3.428s.071 1.776.234 3.335c0 0 4.339 1.054 4.339 1.904m-2.913 8.219 2.829-3.848 3.858 5.391h.841s-.165-4.201-.589-5.361c-.421-1.16-1.816-1.667-2.053-1.667v-.942c.237 0 1.632-.508 2.053-1.667.148-.407.266-1.185.355-2.026 0 0-4.338 1.053-4.338 1.903"/></svg>