<!-- SPDX-FileCopyrightText: © 2025 Schneider Electric SPDX-License-Identifier: LicenseRef-Proprietary -->
<svg xmlns="http://www.w3.org/2000/svg" viewBox="0 0 16 16"><path fill="none" stroke="currentColor" stroke-linecap="round" stroke-linejoin="round" d="m4.329 8.302-.709.955m.831-.122-.954-.71m4.675 1.332q.13 0 .257.028c.916.204 1.418 1.452 1.076 2.999-.343 1.545-1.423 2.898-2.339 2.696-.649-.145-1.041-1.031-1.093-2.085a1.44 1.44 0 0 0-.578-1.238l-1.219-.907a1.44 1.44 0 0 0-1.351-.197c-1.023.253-1.985.132-2.31-.447-.458-.82.525-2.245 1.905-3.018 1.38-.774 2.72-.652 3.179.167q.065.114.101.238h0c.101.342.322.695.645 1.003 0 0 .012.01.031.012a.04.04 0 0 0 .028-.013c.23-.246 1.426-2.215 3.517-1.713 1.274.306 2.9 1.124 3.292 2.996.501 2.395-.659 5.224-.659 5.224h2.848l-.005-9.85L7.989.5.5 5.657m7.504 6.303-.954-.71"/></svg>