<!-- SPDX-FileCopyrightText: © 2025 Schneider Electric SPDX-License-Identifier: LicenseRef-Proprietary -->
<svg xmlns="http://www.w3.org/2000/svg" viewBox="0 0 16.004 16"><path fill="none" stroke="currentColor" stroke-linecap="round" stroke-linejoin="round" d="M8.398 15.5H3.661V2.73L.5.5m8.131 3.985a.925.925 0 1 0 .905-.946M10.767 15.5v-4.212c.482 0 .789-.404.789-.902V7.817c0-.553-.448-1.002-1.002-1.002H8.609a1 1 0 0 0-1.001 1.001v2.57c0 .498.292.902.789.902V15.5m5.911-3.849c-.644 0-1.173.33-1.173.54v2.52c0 .434.355.789.789.789h.789a.79.79 0 0 0 .789-.789v-2.4m-1.175-.758V9.974h-.789m1.629 0h-.839"/></svg>