<!-- SPDX-FileCopyrightText: © 2025 Schneider Electric SPDX-License-Identifier: LicenseRef-Proprietary -->
<svg xmlns="http://www.w3.org/2000/svg" viewBox="0 0 16 16"><path fill="none" stroke="currentColor" stroke-linecap="round" stroke-linejoin="round" d="M7.611 9.052a.796.796 0 0 1 0-1.121l.059-.059a.785.785 0 0 1 1.115 0m0 2.361.796.8c.308.31.807.31 1.115 0l.059-.059a.797.797 0 0 0 0-1.122l-.9-.905m1.103.879c.324-.326.634-.837.491-1.239-.162-.457.734-.642.936-.846.415-.417.389-1.068-.025-1.485s-1.062-.443-1.476-.025c-.206.207-.363 1.015-.859.94-.414-.062-.895.174-1.214.495m-5.077 5.226-.827-.832m.143 2.791L1.508 13.3m6.057-4.258a1.425 1.425 0 0 0-2.025 0L.919 13.689A1.446 1.446 0 0 0 .736 15.5m8.792-4.384a1.447 1.447 0 0 1 0 2.037L7.194 15.5H15.5V5.649L8.044.5.5 5.66m5 5.84h2"/></svg>