<!-- SPDX-FileCopyrightText: © 2025 Schneider Electric SPDX-License-Identifier: LicenseRef-Proprietary -->
<svg xmlns="http://www.w3.org/2000/svg" viewBox="0 0 16 16"><path fill="none" stroke="currentColor" stroke-linecap="round" stroke-linejoin="round" d="M.5 5.649 8 .5l7.5 5.136V15.5c-5.711-.003-7.091 0-7.091 0-5.588 0-6.588-1.874-6.36-3.027.285-1.442 1.62-1.873 1.62-1.873 1.078-.406 2.23.19 2.23.19.737-.077 4.072-.969 4.072-.969.596-.152.333-.148.333-.148-2.952.162-4.277-1.288-4.277-1.288.668.377 4.14-.224 4.14-.224M5.233 5.043c-.338.197-.535.431-.535.682 0 .696 1.506 1.26 3.362 1.26s3.362-.564 3.362-1.26-1.505-1.26-3.362-1.26c-.577 0-.775.011-1.01.058M6.026 10.76v.013c-.79.229-1.299.657-1.299 1.06 0 .69 1.493 1.249 3.333 1.249s3.333-.559 3.333-1.249c0-.186-.109-.363-.304-.522M6.026 6.817v1.577"/></svg>