<!-- SPDX-FileCopyrightText: © 2025 Schneider Electric SPDX-License-Identifier: LicenseRef-Proprietary -->
<svg xmlns="http://www.w3.org/2000/svg" viewBox="0 0 16 16"><path fill="none" stroke="currentColor" stroke-linecap="round" stroke-linejoin="round" d="M2.499 15.5v-9H12.5v9h3m0 0V5.884L8 .5.5 5.261m15 10.239V5.884L8 .5.5 5.261m10 10.239H9.265c-.5 0-.563-.559-.518-1H2.5m8.014-1.28c0-.572.121-1.627-.437-2.225s-.809-.607-.97-.815c-.162-.208-.614-1.681-1.633-1.681H3.483c-.386 0-.688.216-.922.491m.1 3.339 1.128.058m4.693-.067-1.308.067M10.5 8.5h-3"/></svg>