<!-- SPDX-FileCopyrightText: © 2025 Schneider Electric SPDX-License-Identifier: LicenseRef-Proprietary -->
<svg xmlns="http://www.w3.org/2000/svg" viewBox="0 0 16 16"><path fill="none" stroke="currentColor" stroke-linecap="round" stroke-linejoin="round" d="M15.5 10.5h-12V2.48L.5.5m14.939 14.891a2.38 2.38 0 0 1-2.526-.73 2.377 2.377 0 0 1-3.628 0 2.38 2.38 0 0 1-3.628 0 2.38 2.38 0 0 1-1.814.839m11.596-2.264a2.38 2.38 0 0 1-2.526-.73 2.38 2.38 0 0 1-3.628 0c-.438.514-1.088.839-1.814.839s-1.376-.325-1.814-.839a2.37 2.37 0 0 1-1.814.839m6.658-2.845V3.914h0a1.19 1.19 0 1 0 2.379 0c0 .8.787 1.416 1.626 1.115.507-.182.782-.729.749-1.267C15.144 1.947 13.059.5 10.503.5s-4.64 1.445-4.755 3.257c-.034.539.239 1.086.747 1.27a1.195 1.195 0 0 0 1.628-1.113c0 .549.369 1.011.873 1.151"/></svg>