<!-- SPDX-FileCopyrightText: © 2025 Schneider Electric SPDX-License-Identifier: LicenseRef-Proprietary -->
<svg xmlns="http://www.w3.org/2000/svg" viewBox="0 0 16 16"><path fill="none" stroke="currentColor" stroke-linecap="round" stroke-linejoin="round" d="M9.475 4.474V.729m0 1.752h1.968m.036 1.993V.729M15.5 4.522h-1.996s1.821-2.016 1.916-2.35c.144-.51-.166-1.159-.936-1.159-.847 0-.963 1.006-.963 1.006M1.449 13.511v1.991h2m8.684-7.064c.785 1.625 2.79 1.89 2.79 4.186 0 2.192-1.821 2.879-3.777 2.879-3.05 0-3.698-2.142-3.698-5.041V3.604c0-1.871-1.641-3.071-3.493-3.071C1.906.533.449 2.39.449 4.034v9.468h2m.489-10.631a1 1 0 0 0-.098.089 1.28 1.28 0 0 0-.391.912V9.29c0 .748.672 1.354 1.5 1.354h0c.828 0 1.5-.606 1.5-1.354V3.872c0-.341-.14-.653-.371-.891m4.374 3.485c.535 1.551 2.426 2.306 4.223 1.686a3.8 3.8 0 0 0 1.813-1.306"/></svg>