<!-- SPDX-FileCopyrightText: Copyright © 2024 Currence iDEAL B.V. SPDX-License-Identifier: LicenseRef-Proprietary -->
<svg xmlns="http://www.w3.org/2000/svg" version="1.1" viewBox="0 0 100.279 88.034"><path fill="#ffffff" d="M48.602.014C35.744.022 22.885-.01 10.028.04 5.57.24 1.45 3.557.391 7.907-.252 10.505.115 13.2.019 15.846c.005 20.686-.016 41.373.02 62.06.158 4.464 3.445 8.62 7.79 9.714 2.62.676 5.35.296 8.022.395 12.768-.017 25.538.044 38.305-.044 9.41-.27 19.013-2.094 27.208-6.916 7.505-4.34 13.327-11.46 16.134-19.66 2.798-7.914 3.298-16.503 2.325-24.796-1.041-8.424-4.286-16.753-10.13-23.017C83.91 7.31 75.91 3.445 67.651 1.642 61.411.24 54.98-.076 48.601.014Z"/><path fill="#cc0066" d="M29.148 17.078v58.266h25.366c23.042 0 33.033-13.02 33.033-31.39 0-17.595-9.99-31.27-33.033-31.27H33.541a4.393 4.393 0 0 0-4.393 4.394z"/><path fill="#000000" d="M10.61 6.21a4.4 4.4 0 0 0-4.395 4.394v66.82a4.4 4.4 0 0 0 4.394 4.394h40.992c27.397 0 42.487-13.458 42.487-37.894 0-32.815-26.62-37.714-42.487-37.714zM51.6 84.014H10.61a6.597 6.597 0 0 1-6.59-6.59v-66.82a6.597 6.597 0 0 1 6.59-6.59h40.992c38.878 0 44.683 25.004 44.683 39.91 0 25.853-15.868 40.09-44.683 40.09z"/><path fill="#ffffff" d="M37.864 47.434q.662 0 1.287-.214t1.11-.712q.489-.496.78-1.296.293-.799.293-1.95 0-1.053-.204-1.9a3.8 3.8 0 0 0-.673-1.453 3 3 0 0 0-1.237-.926q-.772-.322-1.9-.322h-2.185v8.774zm.215-11.346q1.345 0 2.504.43a5.4 5.4 0 0 1 2.008 1.285q.848.858 1.327 2.145.476 1.287.477 3.022 0 1.521-.39 2.808-.39 1.285-1.179 2.221a5.5 5.5 0 0 1-1.97 1.473q-1.18.537-2.777.536h-6.005v-13.92zm18.756.001v2.572h-7.349v2.983h6.744v2.38h-6.744v3.411h7.505v2.573H46.425v-13.92zm10.656 8.538-1.755-5.108h-.039l-1.812 5.108zm-.175-8.539 5.204 13.92h-3.177l-1.053-3.1h-5.206l-1.09 3.1h-3.08l5.263-13.92zm10.19.001v11.345h6.784v2.573h-9.845v-13.92h3.06z"/><path fill="#000000" d="M24.107 43.048a6.421 6.421 0 1 1-12.842 0 6.421 6.421 0 0 1 12.842 0zM22.55 75.344c-5.373 0-9.73-4.356-9.73-9.73v-7.588a4.865 4.865 0 0 1 9.73 0z"/></svg>