<!-- SPDX-FileCopyrightText: © 2025 Schneider Electric SPDX-License-Identifier: LicenseRef-Proprietary -->
<svg xmlns="http://www.w3.org/2000/svg" viewBox="0 0 16 16"><path fill="none" stroke="currentColor" stroke-linecap="round" stroke-linejoin="round" d="M6.601.619A6.7 6.7 0 0 1 7.868.5c3.098 0 5.631 2.104 5.631 4.72M4.49 1.244c-1.019.471-1.991 2.337-1.991 3.972m4.033 3.568c.457.171.96.255 1.485.234 1.957-.081 3.472-1.613 3.384-3.423S9.656 2.384 7.7 2.465a3.8 3.8 0 0 0-1.172.235m.427 3.756c.459.467 1.241.501 1.746.076s.541-1.148.082-1.614-1.241-.501-1.746-.076M11.5 1.833v6.666m-7-7.236V8.5m9 2V5.218m-11 .004v9.48c0 .441.378.798.844.798h9.312c.466 0 .844-.357.844-.798V12.5m-9.002-4c0 1.494 1.561 2.599 3.502 2.599s3.497-1.107 3.497-2.6"/></svg>