<!-- SPDX-FileCopyrightText: © 2025 Schneider Electric SPDX-License-Identifier: LicenseRef-Proprietary -->
<svg xmlns="http://www.w3.org/2000/svg" viewBox="0 0 16 16"><path fill="none" stroke="currentColor" stroke-linecap="round" stroke-linejoin="round" d="M.501 10.668V7.344c-.005-.037 0-.071 0-.11 0-.478.131-.997.518-1.314 1.633-1.331 3.468-.196 3.468 1.366v.029C4.492 6.09 5.74 5.07 7.036 5.668c.623.288 1.004.933 1.004 1.62v.044c.005-1.026.839-1.854 1.865-1.854s1.864.834 1.866 1.863l-.002-.062a1.866 1.866 0 0 1 2.266-1.782c.872.182 1.465 1.002 1.465 1.892v3.28"/></svg>