<!-- SPDX-FileCopyrightText: © 2025 Schneider Electric SPDX-License-Identifier: LicenseRef-Proprietary -->
<svg xmlns="http://www.w3.org/2000/svg" viewBox="0 0 16 16"><path fill="none" stroke="currentColor" stroke-linecap="round" stroke-linejoin="round" stroke-width="1.079" d="M15.5 8a7.5 7.5 0 1 1-15 0 7.5 7.5 0 0 1 15 0Z"/><path d="M8 4.78q-.483 0-.751-.241-.269-.242-.269-.668 0-.441.269-.676c.269-.235.43-.234.751-.234q.496 0 .758.234c.262.234.263.382.263.676q0 .428-.263.668-.262.241-.758.241Zm0 8.218q-.414 0-.634-.248-.22-.25-.221-.689v-5.06q0-.456.221-.696.22-.242.634-.242c.414 0 .49.081.641.242q.228.242.228.696v5.06q0 .44-.221.689-.22.248-.648.248Z"/></svg>