<!-- SPDX-FileCopyrightText: © 2025 Schneider Electric SPDX-License-Identifier: LicenseRef-Proprietary -->
<svg xmlns="http://www.w3.org/2000/svg" viewBox="0 0 16 16"><path fill="none" stroke="currentColor" stroke-linecap="round" stroke-linejoin="round" d="M3.348 15.16c-.621.219-2.422.079-2.422.079-.311-1.914-.052-4.047-.311-4.429s0-.82 0-1.367.63-5.14 3.406-8.805c.373-.492.787.437 1.201 1.148s.828 1.805.828 1.805.983-.602 1.139 1.695c.155 2.297.725 4.882-.414 9.46 0 0 .017.062 1.104.117s2.296.504 2.659.561c5.785.904 3.803-6.626 3.803-6.626l.931-.29-.175-1.22-.51-.176.914-2.156-.131-1.161-1.31.165-1.718.271-.922.116.171.907m-6.784 8.18c.259-.547.621-3.226.259-5.797m9.092-3.732-.228-2.041m-1.538 2.293-.228-2.041"/></svg>