<!-- SPDX-FileCopyrightText: © 2025 Schneider Electric SPDX-License-Identifier: LicenseRef-Proprietary -->
<svg xmlns="http://www.w3.org/2000/svg" viewBox="0 0 16 16"><path fill="none" stroke="currentColor" stroke-linecap="round" stroke-linejoin="round" d="M10.219 3.888c2.92 0 4.393 3.394 4.087 6.317-.709.075-1.751.15-2.46.225.14-.546.169-1.964-.381-3.271m-5.614-.84c-.539.223-1.188.451-1.847.904-.336.231-1.143.801-1.926 2.735.255.154 1.604.697 1.843.781.59-1.207 1.279-1.762 1.76-2.131 1.516-1.161 2.465-.78 3.186-1.45.781-.725.714-1.847.613-2.001M3.851 15.5c.223-1.976-.624-3.468-1.343-3.476-.578-.007-1.232.942-1.413 2.336M.5 13.32l.738.323m3.398 1.489-1.801-.789m-.327-2.319.326-1.721M13.5 10.5v1m1.43 2.391c0-1.243-.558-2.156-1.116-2.156-1.116 0-1.672 1.142-1.779 3.374m2.816-2.002.649-.286m-4.319 1.903 1.9-.837M7.5 2.781v1.536c0 .82.665 1.484 1.484 1.484h.061c.803 0 1.454-.651 1.454-1.454v-2.38A1.47 1.47 0 0 0 9.03.498h-.031c-.378 0-.724.143-.989.378"/></svg>