<!-- SPDX-FileCopyrightText: © 2025 Schneider Electric SPDX-License-Identifier: LicenseRef-Proprietary -->
<svg xmlns="http://www.w3.org/2000/svg" viewBox="0 0 16 16"><path fill="none" stroke="currentColor" stroke-linecap="round" stroke-linejoin="round" d="M4.285 7.651a.79.79 0 0 0-.777.796.37.37 0 0 1-.368.374.37.37 0 0 1-.367-.374c0-.446-.335-.796-.763-.796a.785.785 0 0 0-.775.772l-.003.048a.37.37 0 0 1-.377.349.37.37 0 0 1-.354-.374l.001-.029v.004l.002-.028q.002-.063.008-.123l.018-.284c.011-2.824 2.259-5.118 5.021-5.118h-.029c2.763 0 5.011 2.294 5.021 5.118 0 .006.011.156.018.284q.007.062.008.123l.002.028v-.004l.001.029a.37.37 0 0 1-.354.374.37.37 0 0 1-.377-.349l-.003-.048a.786.786 0 0 0-.775-.772c-.428 0-.763.35-.763.796a.37.37 0 0 1-.367.374.37.37 0 0 1-.368-.374c0-.439-.349-.796-.777-.796s-.778.357-.778.795l.018 5.565c0 .822-.67 1.488-1.497 1.488s-1.497-.666-1.497-1.488M12.302.714l-1.145 1.372M9.605.716l-.751.9M15.104.5l-.751.9m.396 2.639.751-.9m-2.263-.412-1.405 1.684"/></svg>