<!-- SPDX-FileCopyrightText: © 2025 Schneider Electric SPDX-License-Identifier: LicenseRef-Proprietary -->
<svg xmlns="http://www.w3.org/2000/svg" viewBox="0 0 16 16"><path fill="none" stroke="currentColor" stroke-linecap="round" stroke-linejoin="round" d="M15.085 3.146c.267.573.415 1.209.415 1.88 0 2.5-1.939 4.427-4.479 4.427-.928 0-1.735-.159-2.41-.456l-2.05 2.206a.803.803 0 1 0-1.149 1.125l-.814.82a1.004 1.004 0 1 0-1.418 1.417l-.943.935H.5v-2.098l6.115-6.377c-.254-.575-.384-1.24-.384-1.978C6.231 2.548 8.359.5 10.9.5c1.293 0 2.462.525 3.297 1.371l-1.182 1.177a.812.812 0 1 0-.423 1.373"/></svg>