<!-- SPDX-FileCopyrightText: © Klarna 2024 SPDX-License-Identifier: LicenseRef-Proprietary -->
<svg xmlns="http://www.w3.org/2000/svg" version="1.0" viewBox="0 0 2172 531.594"><path fill="#ffb3c7" d="M0 0v522h118l.2-129.2.3-129.3 5.1 7c2.9 3.9 19 25.2 35.8 47.5 16.9 22.3 39.1 51.7 49.5 65.5 15.7 20.8 61.1 81 96.4 127.7l8.2 10.8h71.7c39.5 0 71.8-.2 71.8-.3 0-.3-65.9-87.3-118.3-156.2-10-13.2-24.5-32.3-32.2-42.5-7.8-10.2-19.1-25.2-25.3-33.3S270 274.8 270 274.6c0-.1 3.7-3.2 8.3-6.7C346.4 215.1 391 142.2 405 60.5c2.4-13.8 5-41.4 5-52.8V0H296v7.5c0 21.9-6.4 53.2-15.7 77-13.9 35.6-36.1 69-66.3 99.9-22.3 22.8-36.3 34.3-76 62l-19.5 13.5-.3-129.9L118 0H59Zm492 0v522h111V0h-55.5Zm330.02 151.453c-5.045-.053-9.946.122-14.52.547-62.1 5.6-112.4 40.2-139.9 96.5-23.5 47.9-27.1 112.3-9.3 164 18.3 52.9 56.4 92.3 105.9 109.4 34.4 11.8 73.2 12.9 104.8 2.9 34.7-11 60.4-32.8 78.9-66.8 2.6-4.8 4.1-6.6 5-6.1 1 .6.5 3.2-2.3 11.4-5.4 16.6-8.7 32.5-9.3 46.4l-.6 12.3H1049V161H940.7l.6 12.2c.7 16.4 3.9 31.2 10.4 49.6 2.2 6.1 2.4 7.5 1.3 8.2s-2.4-1-5.3-6.3c-18.6-34.4-45.9-57-81.2-67.2-12.9-3.675-29.344-5.888-44.48-6.047zm754.624.012c-3.929.046-7.82.222-11.645.534-42.4 3.6-73.499 25.601-97.699 69.201-4.2 7.5-6.3 10.4-7.2 9.8-1-.6-.5-3.1 2.2-11.1 5.5-16.3 8.8-32.8 9.4-46.7l.6-12.2H1364v361h110.9l.4-103.8.3-103.7 2.2-8.5c6.5-24.3 21.3-41.9 42.1-49.9 11.3-4.3 19.7-5.4 35.7-4.9 16.5.6 26.5 3.4 36.3 9.9 14.5 9.7 22.6 23.6 26.9 46.2 1.5 8.4 1.7 18.6 1.7 112V522h111.6l-.4-124.8c-.3-124.5-.3-124.7-2.5-134.4-6.5-28.5-17.2-48-37.1-67.9-12.2-12.3-22-19.3-37.1-26.9-21.526-10.763-50.86-16.855-78.356-16.535zm363.224.067c-3.603.068-7.167.256-10.667.569-62 5.4-113.1 41.198-140.2 98.198-33.2 70-24.201 159.7 21.899 218.2 10.8 13.6 31.5 31.5 47 40.5 41 23.7 94.8 29.3 138.1 14.2 30.5-10.5 57.2-33.599 72.6-62.699 2.5-4.7 5.2-8.5 6-8.5 1.9 0 1.9-.3-2.2 12.4-5.2 16.2-8.3 31.4-9 45.3l-.7 12.3H2172V161h-109.3l.6 11.2c.8 14.4 3.7 29.4 8.8 45.4 3.2 10 3.8 12.9 2.8 13.5s-2.5-1.4-5.4-6.9c-12.9-24.7-34.3-46-58.5-58.2-18.9-9.537-45.916-14.94-71.132-14.468zm-648.854 7.023c-2.727.051-5.164.195-7.014.445-33.9 4.3-60.7 26.1-77.4 63.3-3 6.7-4.6 9.3-5.5 8.8-1-.6-.3-3.9 2.8-13.5 5.1-16 8-31 8.8-45.4l.6-11.2H1104v361h112v-85.3c0-46.8.5-90.6 1-97.2 1.8-23.4 7.4-37.9 20.5-53.4 2.9-3.4 13.2-10.5 18.9-13 16-7 36.1-7.8 60.9-2.5l2.7.6v-110l-4.7-1c-5.326-1.125-16.107-1.8-24.286-1.645zm-447.462 90.701c8.405.038 21.099 1.144 26.649 2.644 67 17.5 90.499 104 41.899 154.5-16.2 16.8-36.1 26-59.1 27.3-25.2 1.4-48.3-7.2-66.1-24.7-19.3-18.9-28.5-40.9-28.3-68 .2-25.9 9-47.5 26.6-65.3 14-14.2 30-22.2 51.8-26.1 1.425-.25 3.75-.356 6.552-.344zm1121.498.085c8.981-.159 20.774.834 27.45 2.56 30.3 7.8 54.4 31.699 64.1 63.599 2.5 8.3 2.8 10.4 2.8 26s-.2 17.7-2.6 25.6c-11.3 36.6-39.3 61.3-74.6 66-57.4 7.6-106.2-40.5-101.1-99.6 3.7-43.1 34.6-76.9 76.2-83.6 2.074-.326 4.756-.506 7.75-.559z"/></svg>