<!-- SPDX-FileCopyrightText: © 2025 Schneider Electric SPDX-License-Identifier: LicenseRef-Proprietary -->
<svg xmlns="http://www.w3.org/2000/svg" viewBox="0 0 16 16"><path fill="none" stroke="currentColor" stroke-linecap="round" stroke-linejoin="round" d="M12.512 10.465v4.002c0 .369-.173 1.033-1.037 1.033-.849 0-.932-.726-.932-1.092l-.058-5.927-1.666.032c-.295 0-1.069-.111-1.069-1.055 0-1.006.786-1.053 1.069-1.053h5.752c.299 0 .929.172.929.958 0 .953-.634 1.118-.929 1.118h-2.217M9.22 2.366 8.173 3.398M.5 2.27l1.047 1.032m3.281-1.198V.5M2.475 10.61h-.379c-1.126 0-1.061 1.904 0 1.904h1.301v1.06c0 1.126-.02 1.061-.02 0v-1.063l2.925.003-.002 1.06c0 1.126.02 1.061.02 0v-1.058l1.146-.002h.222c1.061 0 1.126-1.904 0-1.904h-.563v-.899m-.074-4.606c-.594-1.918-4.617-1.75-4.576.498v5.006"/></svg>