<!-- SPDX-FileCopyrightText: © 2025 Schneider Electric SPDX-License-Identifier: LicenseRef-Proprietary -->
<svg xmlns="http://www.w3.org/2000/svg" viewBox="0 0 16 16"><path fill="none" stroke="currentColor" stroke-linecap="round" stroke-linejoin="round" d="M5.55 4.463H4.342c-1.179 0-1.111-1.994 0-1.994h2.174v-1.11c0-1.179-.021-1.111-.021 0v1.113l3.063-.003-.002-1.11c0-1.179.021-1.111.021 0v1.108l1.2.002h.922c1.111 0 1.179 1.994 0 1.994h-1.28v5.243c0 2.544-4.914 2.542-4.868 0v-3.25M14.715 7.6h-2.37M13 13.143l-1.322-1.303m-8.579 1.425 1.322-1.303m3.58 3.538-.002-2.027M1.285 7.6h2.37"/></svg>