<!-- SPDX-FileCopyrightText: © 2025 Schneider Electric SPDX-License-Identifier: LicenseRef-Proprietary -->
<svg xmlns="http://www.w3.org/2000/svg" viewBox="0 0 16 16"><path fill="none" stroke="currentColor" stroke-linecap="round" stroke-linejoin="round" d="M13.5 2.499v12.008c0 .937-1.304.993-1.304.993h-1.392c-1.051 0-1.304-.872-1.304-.872v-4.447c0-.774-.672-.681-.672-.681H6.992c-.479 0-.492.713-.492.713v4.346c0 1.012-1.302.942-1.302.942H3.804c-1.205 0-1.305-.971-1.305-.971V1.618C2.5.535 3.811.499 3.811.499h1.404c1.2 0 1.285 1.119 1.285 1.119v4.164c0 .591.507.717.507.717h1.8c.707 0 .693-.729.693-.729V1.612C9.5.567 10.845.499 10.845.499H12.5"/></svg>