<!-- SPDX-FileCopyrightText: © 2025 Schneider Electric SPDX-License-Identifier: LicenseRef-Proprietary -->
<svg xmlns="http://www.w3.org/2000/svg" viewBox="0 0 16 16"><path d="M8.15 13.785H4.615q-.765 0-1.093-.343t-.327-1.093V3.651q0-.765.336-1.101.335-.336 1.085-.336h3.749q.828 0 1.436.103c.608.103.768.2 1.089.395q.411.245.726.619a2.73 2.73 0 0 1 .647 1.788q0 1.736-1.736 2.541 2.281.726 2.281 2.826a3.17 3.17 0 0 1-.497 1.748 3 3 0 0 1-1.342 1.149 4.8 4.8 0 0 1-1.215.312q-.687.09-1.602.091Zm-2.612-9.81v2.991h2.147q.876 0 1.353-.166.477-.165.73-.631.197-.331.197-.742 0-.876-.623-1.164-.624-.288-1.902-.288zm2.438 4.672H5.538v3.378h2.517q2.376 0 2.376-1.713 0-.876-.616-1.271c-.616-.395-1.024-.395-1.839-.395Z"/></svg>