<!-- SPDX-FileCopyrightText: © 2025 Schneider Electric SPDX-License-Identifier: LicenseRef-Proprietary -->
<svg xmlns="http://www.w3.org/2000/svg" viewBox="0 0 16 16"><path fill="none" stroke="currentColor" stroke-linecap="round" stroke-linejoin="round" d="M10.35 4.938c0 1.573-1.113 1.562-2.667 1.562H5.5v-3h2.239c1.38 0 2.612.101 2.612 1.438ZM5.5 9.5h1.438c.416 0 .527.229.527.229s2.931 4.003 3.539 4.826c.607.822 1.084 1.304 2.202.61 1.021-.586.413-1.785.413-1.785l-2.258-2.983s-.685-1.376-1.579-1.376c2.441-.625 3.61-2.401 3.61-4.539q0-1.606-1.127-2.794Q11.136.501 8.568.501H4.125c-1.625 0-1.624.882-1.624 1.626v11.717c0 1.166.138 1.657 1.569 1.657 1.218 0 1.431-.54 1.431-1.657v-2.343"/></svg>