<!-- SPDX-FileCopyrightText: © 2025 Schneider Electric SPDX-License-Identifier: LicenseRef-Proprietary -->
<svg xmlns="http://www.w3.org/2000/svg" viewBox="0 0 16 16"><path fill="none" stroke="currentColor" stroke-linecap="round" stroke-linejoin="round" d="M.5 15.5h15"/><path d="M5.204 9.324q0 .344.045.857.045.515.306.999c.261.484.452.599.835.827q.574.343 1.633.343.939 0 1.491-.298.552-.299.834-.753.284-.454.366-.984t.082-.976V3.658q0-.388.022-.604a.6.6 0 0 1 .172-.365q.075-.075.208-.149a.5.5 0 0 1 .313-.075q.313 0 .522.223.15.15.171.365.023.216.023.604v5.547q0 .82-.179 1.588t-.633 1.371q-.456.604-1.252.969-.797.365-2.036.365-1.073 0-1.886-.223t-1.357-.731-.827-1.327-.283-1.998v-5.56q0-.388.022-.604a.58.58 0 0 1 .172-.365q.075-.075.209-.149a.5.5 0 0 1 .313-.075q.313 0 .522.223.149.15.172.365.022.216.022.604v5.666Z"/></svg>