<!-- SPDX-FileCopyrightText: © 2025 Schneider Electric SPDX-License-Identifier: LicenseRef-Proprietary -->
<svg xmlns="http://www.w3.org/2000/svg" viewBox="0 0 16 16"><path fill="none" stroke="currentColor" stroke-linecap="round" stroke-linejoin="round" stroke-width=".8" d="m10.737 11.941-.566-1.483H5.363l-.566 1.516q-.332.886-.566 1.198-.234.31-.767.311-.452 0-.798-.331-.347-.332-.346-.749 0-.243.081-.499.08-.26.265-.718l3.025-7.674.311-.795q.181-.463.388-.771.207-.307.542-.495.336-.19.827-.188.5.001.835.188.335.19.542.488.206.298.346.642.142.343.36.915l3.091 7.626q.363.87.364 1.266 0 .412-.342.753a1.13 1.13 0 0 1-.827.342q-.284 0-.485-.101a.8.8 0 0 1-.34-.274 2.5 2.5 0 0 1-.294-.532q-.164-.362-.274-.635ZM5.993 8.66h3.534L7.745 3.782z"/><path d="M7.745 3.783 5.993 8.66h.393l1.161-3.235L8.729 8.66h.798zm4.384 9.7q-.284 0-.485-.101t-.34-.274c-.139-.173-.189-.293-.294-.532q-.164-.362-.274-.635l-.566-1.483H5.362l-.566 1.516q-.332.886-.566 1.198-.234.31-.767.311-.451.001-.798-.331a1.2 1.2 0 0 1-.212-.287 10 10 0 0 0-.251.681 1.6 1.6 0 0 0-.081.499q-.001.417.346.749.347.331.798.331.534-.001.767-.311.234-.312.566-1.198l.566-1.516h4.808l.566 1.483q.11.273.274.635.157.358.294.532.139.173.34.274t.485.101q.484 0 .827-.342.342-.343.342-.753 0-.293-.202-.85a1.12 1.12 0 0 1-.769.303Z"/></svg>