<!-- SPDX-FileCopyrightText: © 2025 Schneider Electric SPDX-License-Identifier: LicenseRef-Proprietary -->
<svg xmlns="http://www.w3.org/2000/svg" viewBox="0 0 16 16"><path fill="none" stroke="currentColor" stroke-linecap="round" stroke-linejoin="round" d="M8.185 6.427a2.964 2.964 0 1 1 2.941-2.596M8.199 6.474l1.998 3.658a2.092 2.092 0 1 1-3.902 1.444l-.015-.069s-.22-.721-.316-.932c-.254-.562-.536-.997-.536-.997l-.024-.036a1.183 1.183 0 0 0-2.166.662c0 .165.034.322.094.464l.006.013s.246.479.416.826c.169.346.329.877.329.877l.026.078a4.438 4.438 0 1 0 8.076-3.584c-.009-.01-2.44-4.312-2.561-4.572m.076.135c-.266-.439-.452-.619-.443-1.05v-.002a1.113 1.113 0 1 0-1.727.898l.1.066"/></svg>