<!-- SPDX-FileCopyrightText: © 2025 Schneider Electric SPDX-License-Identifier: LicenseRef-Proprietary -->
<svg xmlns="http://www.w3.org/2000/svg" viewBox="0 0 16 16"><path fill="none" stroke="currentColor" stroke-linecap="round" stroke-linejoin="round" d="M.498 11.5H3.5m8 0h3.993m-1.993 2v-4m-7 6 1.55.005s.809-.088 1.127-1.134c.174-.574.208-.826.193-.841-.007-.007-.767-.03-.767-.03H6.692s-.964-.078-.964-1.007.869-.993.869-.993H9.5v-.886c0-1.119.367-2.188 1.091-2.927 1.015-1.004 1.51-2.516 1.093-4.122C11.358 2.308 9.979.953 8.72.635a4.216 4.216 0 0 0-4.284 6.822c.828.742 1.151 1.049 1.16 2.244"/></svg>