<!-- SPDX-FileCopyrightText: © 2025 Schneider Electric SPDX-License-Identifier: LicenseRef-Proprietary -->
<svg xmlns="http://www.w3.org/2000/svg" viewBox="0 0 16 16"><path fill="none" stroke="currentColor" stroke-linecap="round" stroke-linejoin="round" d="M5.343 9.809c0-1.013-.278-1.77-.92-2.583a4 4 0 0 1-.802-3.286C3.942 2.29 5.332.935 7.077.594c2.905-.567 5.461 1.504 5.461 4.137 0 .92-.317 1.766-.85 2.457-.666.864-1.209 1.554-1.209 2.621v1.693H7.84M6.271 6.494l5.601.089m-2.13-.026c-.846 1.251-.846 2.937-.846 2.937m-1.779.001s0-1.749-.846-3.001m.615 9 1.527.005s.809-.088 1.127-1.134c.174-.574.208-.826.193-.841-.007-.007-.767-.03-.767-.03H7.078s-.964.032-.964-1.007c0-.931.891-.984.891-.984h.909"/></svg>