<!-- SPDX-FileCopyrightText: © 2025 Schneider Electric SPDX-License-Identifier: LicenseRef-Proprietary -->
<svg xmlns="http://www.w3.org/2000/svg" viewBox="0 0 16 16"><path fill="none" stroke="currentColor" stroke-linecap="round" stroke-linejoin="round" d="M1.5 11.5h3m7 0h4m-2 2v-4m-6-8 .002-1m3.837 2.72 1.791-1.789M4.191 3.433l-.695-.697M3.036 6.5zm9.851 0H15.5m-8 9h.954s.874-.032.874-1c0-1.065-.892-1-.892-1l-.873.014s-.82.052-.82-.974c0-1.161 1.059-1.066 1.059-1.04l1.698-.023v-.444c0-.808.265-1.58.788-2.113a3.039 3.039 0 1 0-5.181-2.154c0 .756.279 1.456.736 1.988.448.401.692.627.789 1.077"/></svg>