<!-- SPDX-FileCopyrightText: © 2025 Schneider Electric SPDX-License-Identifier: LicenseRef-Proprietary -->
<svg xmlns="http://www.w3.org/2000/svg" viewBox="0 0 16 16"><path fill="none" stroke="currentColor" stroke-linecap="round" stroke-linejoin="round" d="M1.5 11.5h3m7 0h4m-2 2v-4M6.433 6.135l2.176-2.172M6.98 7.753l2.996-2.99M7.931 8.956l2.729-2.725M7.5 15.5h.809s.874-.032.874-1c0-1.065-.892-1-.892-1l-.728.014s-.82.052-.82-.974c0-1.161 1.059-1.066 1.059-1.04l1.698-.023v-.444c0-.808.265-1.58.788-2.113a3.039 3.039 0 0 0-1.551-5.137 3.042 3.042 0 0 0-2.895 4.971c.448.401.692.627.789 1.077"/></svg>