<!-- SPDX-FileCopyrightText: © 2025 Schneider Electric SPDX-License-Identifier: LicenseRef-Proprietary -->
<svg xmlns="http://www.w3.org/2000/svg" viewBox="0 0 16 16"><path fill="none" stroke="currentColor" stroke-linecap="round" stroke-linejoin="round" d="m.512 2.23 3.042-.315-.003.025m-.312 3.024.312-3.024M7.283.5l-2.196 5h1.281l-1.859 4H6.5l-.672 3.501L9.932 7.5H8.153l2.855-4H9.589l1.326-2.472m-7.364.903A7.51 7.51 0 0 0 .5 7.982c0 4.152 3.359 7.518 7.499 7.518S15.5 12.134 15.5 7.982a7.51 7.51 0 0 0-3.051-6.051 7 7 0 0 0-1.526-.873"/></svg>