<!-- SPDX-FileCopyrightText: © 2025 Schneider Electric SPDX-License-Identifier: LicenseRef-Proprietary -->
<svg xmlns="http://www.w3.org/2000/svg" viewBox="0 0 16 16"><path fill="none" stroke="currentColor" stroke-linecap="round" stroke-linejoin="round" d="M7.649 1.969 7.651.5m5.27.62-1.794 1.792m1.569 3.724H15.5M3.954 3.439l-.696-.698m-.839 3.917h-.134m4.485 8.838 1.195.004s.634-.069.882-.888c.136-.45.163-.647.151-.658-.006-.006-.6-.024-.6-.024H6.92s-.755-.061-.755-.789.68-.777.68-.777h2.273v-.693c0-.876.287-1.713.854-2.292.795-.786 1.182-1.97.856-3.227-.255-.984-1.335-2.045-2.32-2.294a3.301 3.301 0 0 0-3.355 5.341c.548.491.814.739.887 1.37"/></svg>