<!-- SPDX-FileCopyrightText: © 2025 Schneider Electric SPDX-License-Identifier: LicenseRef-Proprietary -->
<svg xmlns="http://www.w3.org/2000/svg" viewBox="0 0 16 16"><path fill="none" stroke="currentColor" stroke-linecap="round" stroke-linejoin="round" d="M7.864 1.969 7.866.5m4.439 1.688-1.04 1.038m1.44 3.41h1.469M4.625 3.439l-1.038-1.04M1.826 6.656h1.469m3.825 8.84 1.195.004s.634-.069.882-.888c.136-.45.163-.647.151-.658-.006-.006-.6-.024-.6-.024H7.27s-.755-.061-.755-.789.68-.777.68-.777h2.273v-.693c0-.876.287-1.713.854-2.292.795-.786 1.182-1.97.856-3.227-.255-.984-1.335-2.045-2.32-2.294a3.301 3.301 0 0 0-3.355 5.341c.548.491.814.739.887 1.37"/></svg>