<!-- SPDX-FileCopyrightText: © 2025 Schneider Electric SPDX-License-Identifier: LicenseRef-Proprietary -->
<svg xmlns="http://www.w3.org/2000/svg" viewBox="0 0 16 16"><path fill="none" stroke="currentColor" stroke-linecap="round" stroke-linejoin="round" d="M7.38 9.466a2.4 2.4 0 0 1-.476-.369h0c-1.018-1.018-.937-2.748.181-3.866l.186-.186 3.651-3.651C12.039.277 13.77.196 14.788 1.213h0c1.018 1.018.937 2.748-.181 3.866l-.725.725-2.385 2.385m-6.994-.377-2.385 2.385-.725.725C.276 12.039.195 13.77 1.212 14.788h0c1.018 1.018 2.748.937 3.866-.181l3.651-3.651.186-.186c1.117-1.117 1.198-2.848.181-3.866h0a2.4 2.4 0 0 0-.475-.368"/></svg>