<!-- SPDX-FileCopyrightText: © LinkedIn Corporation 2024 SPDX-License-Identifier: LicenseRef-Proprietary -->
<svg xmlns="http://www.w3.org/2000/svg" version="1.1" viewBox="0 0 64.791 64.789"><path fill="#ffffff" d="M55.205 55.204h-9.6V40.17c0-3.585-.064-8.2-4.993-8.2-5 0-5.765 3.906-5.765 7.94v15.293h-9.6V24.287h9.216v4.225h.129a10.1 10.1 0 0 1 9.093-4.994c9.73 0 11.524 6.4 11.524 14.726zm-40.79-35.143c-4.964.001-7.45-5.999-3.94-9.509 3.508-3.51 9.51-1.026 9.51 3.937a5.57 5.57 0 0 1-5.57 5.572m4.8 35.143h-9.61V24.287h9.61zM59.991.004H4.781A4.73 4.73 0 0 0 0 4.674v55.44a4.73 4.73 0 0 0 4.781 4.674h55.21a4.74 4.74 0 0 0 4.8-4.675V4.67a4.74 4.74 0 0 0-4.8-4.67"/></svg>