<!-- SPDX-FileCopyrightText: © 2025 Schneider Electric SPDX-License-Identifier: LicenseRef-Proprietary -->
<svg xmlns="http://www.w3.org/2000/svg" viewBox="0 0 16 16"><path fill="none" stroke="currentColor" stroke-linecap="round" stroke-linejoin="round" d="M10.5.5h4.331a.67.67 0 0 1 .669.669V14.83a.67.67 0 0 1-.669.669H1.169A.67.67 0 0 1 .5 14.83V7.499m13 5.001h-8m.817-10.335a1.873 1.873 0 1 1-1.781.235l-.013-.017S1.604 2.411.5 4.545c0 0 2.029 3.479 6.548 2.45 1.909-.435 2.495-1.72 4.215-2.45C11.001 4.04 9.671.661 5.459.68"/><circle cx="3.5" cy="12.5" r=".5"/></svg>