<!-- SPDX-FileCopyrightText: © 2025 Schneider Electric SPDX-License-Identifier: LicenseRef-Proprietary -->
<svg xmlns="http://www.w3.org/2000/svg" viewBox="0 0 16 16.002"><circle cx="3.5" cy="12.538" r=".5"/><circle cx="3.5" cy="9.576" r=".5"/><path fill="none" stroke="currentColor" stroke-linecap="round" stroke-linejoin="round" d="M10.5.501h4.331a.67.67 0 0 1 .669.669v13.661a.67.67 0 0 1-.669.669H1.169a.67.67 0 0 1-.669-.669V7.5m13 5.038h-8m8-2.962h-8m8-3.027h-2.414M2.451.5l7.296 7.296M9.34 5.569c.462-.363.949-.726 1.606-1.005-.254-.49-1.545-3.77-5.633-3.751M6.96 5.016a1.815 1.815 0 0 1-3.287-1.067c0-.602.293-1.136.744-1.466l-.012-.017S1.572 2.493.5 4.564c0 0 1.969 3.377 6.355 2.378a4.5 4.5 0 0 0 1.429-.593M7.268 3.575a1.82 1.82 0 0 0-1.412-1.406"/></svg>