<!-- SPDX-FileCopyrightText: © 2025 Schneider Electric SPDX-License-Identifier: LicenseRef-Proprietary -->
<svg xmlns="http://www.w3.org/2000/svg" viewBox="0 0 16 16"><path fill="none" stroke="currentColor" stroke-linecap="round" stroke-linejoin="round" d="m5.918 3.011 1.777-1.709.012.012c1.241-1.115 3.147-1.087 4.341.107s1.222 3.099.107 4.341l.012.012-1.401 1.401m-6.92-.001a2.09 2.09 0 0 0-2.09 2.09v4.145a2.09 2.09 0 0 0 2.09 2.09h8.309a2.09 2.09 0 0 0 2.09-2.09V9.264a2.09 2.09 0 0 0-2.09-2.09h-6.28m3.79 4.163a1.665 1.665 0 1 0-3.33 0 1.665 1.665 0 0 0 3.33 0Z"/></svg>