<!-- SPDX-FileCopyrightText: © 2025 Schneider Electric SPDX-License-Identifier: LicenseRef-Proprietary -->
<svg xmlns="http://www.w3.org/2000/svg" viewBox="0 0 16 16"><path fill="none" stroke="currentColor" stroke-linecap="round" stroke-linejoin="round" d="M4.852 7.211v-3.73h.017C4.958 1.822 6.319.5 8 .5s3.042 1.322 3.131 2.981h.017v3.73M6.514 9.894l2.972 2.922m0-2.922-2.972 2.922m0-2.922 2.972 2.922m0-2.922-2.972 2.922M4.852 7.211h-.988a2.08 2.08 0 0 0-2.081 2.081v4.127c0 1.149.932 2.081 2.081 2.081h8.272a2.08 2.08 0 0 0 2.081-2.081V9.292a2.08 2.08 0 0 0-2.081-2.081H6.757"/></svg>