<!-- SPDX-FileCopyrightText: © 2025 Schneider Electric SPDX-License-Identifier: LicenseRef-Proprietary -->
<svg xmlns="http://www.w3.org/2000/svg" viewBox="0 0 16 16"><path fill="none" stroke="currentColor" stroke-linecap="round" stroke-linejoin="round" d="M1.5 8.5h6.105l1.579 2H10.5m1.829-.031a.79.79 0 1 0-1.048 1.014M5.5 11.5h1.316l1.579 2H14.5M3.758 11.901a.79.79 0 1 0 .699-1.268M11.5 6.5v-3h-.019C11.382 1.841 9.869.519 8 .519S4.618 1.841 4.519 3.5H4.5v3m0 0h-.824C2.474 6.5 1.5 7.403 1.5 8.516v4.968c0 1.113.974 2.016 2.176 2.016h8.648c1.202 0 2.176-.903 2.176-2.016V8.516c0-1.113-.974-2.016-2.176-2.016H6.5"/></svg>