<!-- SPDX-FileCopyrightText: © 2025 Schneider Electric SPDX-License-Identifier: LicenseRef-Proprietary -->
<svg xmlns="http://www.w3.org/2000/svg" viewBox="0 0 16 16"><path fill="none" stroke="currentColor" stroke-linecap="round" stroke-linejoin="round" d="m.5.5 15 15M3.469 5.5H.726M6.5 4.41V2.398l-.724.741-.174.178M.5 5.5v5h2.845L6.5 13.635V8.69m8.104 3.499a10.1 10.1 0 0 0 .895-4.064 10.1 10.1 0 0 0-1.763-5.829m-1.6 7.856a6.5 6.5 0 0 0 .4-2.027 6.5 6.5 0 0 0-1.337-4.204m-1.614 3.64a2.77 2.77 0 0 0-.681-1.448"/></svg>