<!-- SPDX-FileCopyrightText: © 2025 Schneider Electric SPDX-License-Identifier: LicenseRef-Proprietary -->
<svg xmlns="http://www.w3.org/2000/svg" viewBox="0 0 16 16"><path fill="none" stroke="currentColor" stroke-linecap="round" stroke-linejoin="round" d="M5.922 10.638c-.187-.808-.485-1.778-.857-1.904-.652-.221-2.905 1.38-2.905 1.38S3.795 7.821 3.541 7.21C3.287 6.597.511 6.132.511 6.132s2.811-.458 3.03-1.078C3.76 4.435 2.16 2.149 2.16 2.149S4.41 3.774 5.065 3.53 6.142.5 6.142.5s.461 2.756 1.077 3.03c.617.274 2.905-1.381 2.905-1.381s-1.6 2.308-1.381 2.905c.066.18.491.515 1.893.705 0 0-1.56.088-2.162 1.312m5.252 8.061a.992.992 0 1 0 1.404-1.404l-4.011-4.012M8.474 7.071l-.895-.933a.993.993 0 0 0-1.405 1.404l2.535 2.536m.001-.001 5.248 5.287c.243.243.785.156 1.172-.232.389-.388.476-.93.195-1.209l-3.648-3.65m.57.577-1.595-1.595c-.279-.28-.69-.791-1.163-.559"/></svg>