<!-- SPDX-FileCopyrightText: © 2025 Schneider Electric SPDX-License-Identifier: LicenseRef-Proprietary -->
<svg xmlns="http://www.w3.org/2000/svg" viewBox="0 0 16 16"><path fill="none" stroke="currentColor" stroke-linecap="round" stroke-linejoin="round" d="m14.329 9.333 1.163 1.153m-1.698-3.164h1.645m-3.046 3.11v-1.63m-2.027-4.583.384-.381 1.81 1.793-1.812 1.795-3.772-3.737-.004-.005a2.3 2.3 0 0 0-1.615-.659A2.284 2.284 0 0 0 3.062 5.3c0 .62.25 1.181.656 1.592l-.002-.002.554.553m5 6.903 1.163 1.153m-.053-3.164H8.735m-1.401 3.11v-1.63M9.331 2.428l-.625-.62.003.003A4.9 4.9 0 0 0 5.385.517C2.688.516.502 2.683.502 5.355c0 1.897 1.412 3.342 1.412 3.342l.004.005 3.772 3.737 1.812-1.795-1.81-1.793-.387.383"/></svg>