<!-- SPDX-FileCopyrightText: © 2025 Schneider Electric SPDX-License-Identifier: LicenseRef-Proprietary -->
<svg xmlns="http://www.w3.org/2000/svg" viewBox="0 0 16 16"><path fill="none" stroke="currentColor" stroke-linecap="round" stroke-linejoin="round" d="M2.69 6.175a3.2 3.2 0 0 1 .002-.855c.089-.642.381-1.26.874-1.753a3.08 3.08 0 0 1 2.189-.907m3.413 8.887 3.462 3.46a1.68 1.68 0 1 0 2.378-2.378l-3.793-3.793c-.271-.272-.802-.519-.967-.478.039-.001.139-.122.139-.122a5.245 5.245 0 0 0-.915-6.197A5.24 5.24 0 0 0 5.76.499a5.24 5.24 0 0 0-3.718 1.54 5.254 5.254 0 0 0 6.045 8.425"/></svg>