<!-- SPDX-FileCopyrightText: © 2025 Schneider Electric SPDX-License-Identifier: LicenseRef-Proprietary -->
<svg xmlns="http://www.w3.org/2000/svg" viewBox="0 0 16 16"><path fill="none" stroke="currentColor" stroke-linecap="round" stroke-linejoin="round" d="M7.863 2.403c.241.104.347.058.357.214.024.399-.857.773-1.968.838s-2.031-.207-2.055-.606.857-.773 1.968-.838m.169 7.877c.868.491 2.096-.001 2.743-1.099s.468-2.386-.4-2.877-2.096.001-2.743 1.099a2.7 2.7 0 0 0-.389 1.373M7.275.455 1.5 1.359v8.836l5.228 5.259 7.772-1.496v-1.786l-3.808-2.534.17-6.499-1.531-.92-1.629.174M5.552 8.51s.444.274 1.362.163c.057-.007.112-.022.166-.037.48-.129.823-.42.823-.42l.317-.346-.317-.311.317-.382"/></svg>