<!-- SPDX-FileCopyrightText: © 2025 Schneider Electric SPDX-License-Identifier: LicenseRef-Proprietary -->
<svg xmlns="http://www.w3.org/2000/svg" viewBox="0 0 16 16"><path fill="none" stroke="currentColor" stroke-linecap="round" stroke-linejoin="round" d="M14.575 9.318c-.879 1.757.644 2.775.7 2.82.22.175.262.499.094.724-.077.101-.776.993-1.746 1.38q-.261.104-.494.104c-.384 0-.637-.213-.823-.368-.23-.195-.448-.378-1.065-.378q-.117 0-.25.009-.58.041-.786.33c-.198.277-.138.719-.098.866a.522.522 0 0 1-.458.66 22 22 0 0 1-1.255.036c-3.189 0-5.076-1.648-5.158-1.719-.262-.224-.242-.684-.082-.949.274-.456.902-.819.902-1.837 0-3.434-2.248-4.184-2.651-4.321C.617 6.408.5 5.768.5 5.238c0-.789 2.012-1.335 2.316-1.337h.007c.3 0 .834-.098.834-.242 0-.789-.789-1.345-.789-1.579 0-.1 0-.789.789-.789.233 0 2.331 1.563 2.368 1.579.113-.263.161-.824.789-.789.204.011.783.098.789 0 .006-.073.005.11 0 0-.015-.312-.325-1.198.204-1.412.318-.13 1.214-.16 1.375-.166.006 0 2.319 2.528 5.526 3.158.146.029.789 0 .789.789 0 .193-.047-.401-.047 1.356 0 .67-1.757.879-2.636 2.636"/></svg>