<!-- SPDX-FileCopyrightText: © 2025 Schneider Electric SPDX-License-Identifier: LicenseRef-Proprietary -->
<svg xmlns="http://www.w3.org/2000/svg" viewBox="0 0 16 16"><path fill="none" stroke="currentColor" stroke-linecap="round" stroke-linejoin="round" d="M8.251 15.021c1.711-.856 1.109-1.715 1.109-1.715-.931 0-1.552-.382-1.958-.358s-.644.358-1.098.048c-.453-.311-.902-1.159-1.475-1.397-.573-.239-1.994-.211-2.567-.856s-.641-1.635-.856-2.567C1.191 7.245.274 6.472.55 5.609c.381-1.194.81-.445 1.526-1.209.752-.802 1.225-1.358 1.896-1.358.819 0 1.033 1.004 1.711 1.711.739.769 1.933 1.246 2.601 1.246s1.684-1.087 2.203-1.698c.221-.26-.537-.84-.527-1.259.012-.498.798-1.848.974-1.939.829-.428 2.288.321 2.448 1.083.238 1.128 1.974.802 2.039.996.527 1.571-1.848 3.378-2.039 3.282s-.61-.919-1.47-.036c-.859.884-.024 1.361.119 1.361.142 0 1.027-.31 1.194.096.166.406-.334.453-.454.955-.119.501.122 1.144.143 1.671.031.783-.389 1.086-1.244 1.941"/></svg>