<!-- SPDX-FileCopyrightText: © 2025 Schneider Electric SPDX-License-Identifier: LicenseRef-Proprietary -->
<svg xmlns="http://www.w3.org/2000/svg" viewBox="0 0 16 16"><path fill="none" stroke="currentColor" stroke-linecap="round" stroke-linejoin="round" d="M2.5 10.5h1V4.955c.154-.634 1-2.32 1-2.32V1.058s.113-.486.62-.552c.1-.013.096 0 .716 0s.663.552.663.552v1.586s1.186 2.211 1 2.211V9.5h6.309c1.08.044 1.923 1.05 1.634 2.178-.146.571-.611 1.145-1.181 1.293-1.13.293-2.144-.394-2.144-1.476M2.606 10.5C1.714 10.5.5 10.525.5 11.917c0 1.462 1.098 1.583 1.97 1.583H6.5m-1.001 2 2.095-1.92-2.095-1.797"/></svg>