<!-- SPDX-FileCopyrightText: © 2025 Schneider Electric SPDX-License-Identifier: LicenseRef-Proprietary -->
<svg xmlns="http://www.w3.org/2000/svg" viewBox="0 0 16 16"><path fill="none" stroke="currentColor" stroke-linecap="round" stroke-linejoin="round" d="M12.396 3.567a3.154 3.154 0 0 1 0 5.17m.992 1.45C14.664 9.3 15.5 7.823 15.5 6.152s-.836-3.148-2.112-4.035M3.999 9.745l1.123 4.858a1.35 1.35 0 0 0 1.731.807 1.33 1.33 0 0 0 .796-1.708L6.646 8.836l3.992 1.737V6.869a1.333 1.333 0 0 0 0-2.666V.5L6.754 2.651H3.522c-1.386 0-2.673.914-2.956 2.27A2.9 2.9 0 0 0 2.438 8.28"/></svg>