<!-- SPDX-FileCopyrightText: © 2025 Schneider Electric SPDX-License-Identifier: LicenseRef-Proprietary -->
<svg xmlns="http://www.w3.org/2000/svg" viewBox="0 0 16.003 16"><path fill="none" stroke="currentColor" stroke-linecap="round" stroke-linejoin="round" d="M10.794 7.453a3.164 3.164 0 0 1 3.151 3.321c-.074 1.624-1.386 2.943-3.002 3.018a3.16 3.16 0 0 1-3.241-2.538.786.786 0 0 0-.771-.629h0a.79.79 0 0 0-.775.936c.418 2.245 2.326 3.94 4.621 3.94 2.604 0 4.719-2.183 4.724-4.876.002-1.089-.341-2.191-.923-3.003l-.212-.294s-1.533-1.895-2.196-2.681-.748-.816-.748-.816l-.02-.021c-.923-.909-2.142-1.478-3.492-1.519-2.997-.09-5.505 2.46-5.601 5.696-.055 1.848.785 3.33 1.991 4.436l.09.081s.63.588.254 1.153c-.294.443-.885.252-.928.222C1.778 12.557.427 10.29.506 7.631.623 3.624 4.062.392 7.773.503c1.923.058 3.75.957 4.68 2.41"/></svg>