<!-- SPDX-FileCopyrightText: © 2025 Schneider Electric SPDX-License-Identifier: LicenseRef-Proprietary -->
<svg xmlns="http://www.w3.org/2000/svg" viewBox="0 0 16 16"><path fill="none" stroke="currentColor" stroke-linecap="round" stroke-linejoin="round" d="M7.958 15.5s-1.973-.036-2.847-.298c-.8-.24-.708-1.012-.708-1.012s.097-6.436.097-7.1c0-1.093.361-1.732.361-1.732l1.473-2.504M9.5 2.5v-2h-3v2h1m-.835 3.401s1.513.876 3.971-.099M8.229 15.5s1.786-.009 2.66-.271c.8-.24.708-1.012.708-1.012s-.097-6.436-.097-7.1c0-1.093-.361-1.732-.361-1.732l-.667-1.133"/></svg>