<!-- SPDX-FileCopyrightText: © 2025 Schneider Electric SPDX-License-Identifier: LicenseRef-Proprietary -->
<svg xmlns="http://www.w3.org/2000/svg" viewBox="0 0 16 16"><path fill="none" stroke="currentColor" stroke-linecap="round" stroke-linejoin="round" d="M11.31 10.134c.431.452.644 1.116.463 1.82a1.89 1.89 0 0 1-1.342 1.339 1.91 1.91 0 0 1-2.405-1.842v-.456H5.239M15.5 2.644l-3.359.752-1.668 1.092-9.72 1.55L.5 7.919l.174.373 1.352.4v1.251c-.316.341-.72.797-.72 1.298a1.91 1.91 0 0 0 2.414 1.84 1.89 1.89 0 0 0 1.337-1.35 1.91 1.91 0 0 0-.479-1.817m7.342 1.276 3.106-.222V6.995h-2.158l.525-2"/></svg>