<!-- SPDX-FileCopyrightText: © 2025 Schneider Electric SPDX-License-Identifier: LicenseRef-Proprietary -->
<svg xmlns="http://www.w3.org/2000/svg" viewBox="0 0 16 16"><path fill="none" stroke="currentColor" stroke-linecap="round" stroke-linejoin="round" d="M10.5 12.831 10.464 3.5H8.42L10.464.505l1.248 1.589M7.674 7.94c.508 2.48 2.83.374 2.83 2.547m-.016 1.5c.874-1.732 3.058-1.772 3.058-2.482L13.5 7.5h2v-3h-3v1m-8 8v.613c0 .764.542 1.388 1.204 1.387h4.725M7.404 1.292A1.28 1.28 0 0 0 6.221.5h-4.43C1.078.5.5 1.078.5 1.791v10.425c0 .706.578 1.284 1.284 1.284h4.418c.714 0 1.298-.584 1.298-1.298v-1.418M5.5 2.5h-3m2 9h-1m4.207-5.887a1.327 1.327 0 1 0-.115 2.34m2.026 5.185a1.333 1.333 0 1 0 2.178.898m-1.3-1.205a1.334 1.334 0 1 0 1.061 2.103M8.091 5.96a1.326 1.326 0 1 0-1.002 2.117"/></svg>