<!-- SPDX-FileCopyrightText: © 2025 Schneider Electric SPDX-License-Identifier: LicenseRef-Proprietary -->
<svg xmlns="http://www.w3.org/2000/svg" viewBox="0 0 16 16"><path fill="none" stroke="currentColor" stroke-linecap="round" stroke-linejoin="round" d="M2.392 11.937C1.219 10.888.5 9.512.5 8s.718-2.888 1.892-3.937M4.5 9.5v3.124c0 1.036.98 1.876 2.19 1.876h2.62c1.209 0 2.19-.84 2.19-1.876V12.5m0-7V3.37c0-1.033-.977-1.87-2.182-1.87H6.683c-1.205 0-2.182.837-2.182 1.87v8.13m1.999-8h3m2 9v-5m-4 5h1m5.108-.563C14.781 10.888 15.5 9.512 15.5 8s-.718-2.888-1.892-3.937"/></svg>