<!-- SPDX-FileCopyrightText: © 2025 Schneider Electric SPDX-License-Identifier: LicenseRef-Proprietary -->
<svg xmlns="http://www.w3.org/2000/svg" viewBox="0 0 16 16"><path fill="none" stroke="currentColor" stroke-linecap="round" stroke-linejoin="round" d="M5.972 4.727 4.337 5.733M2.078 8.912l4.176 2.346 3.307-1.879-5.262-3.57m-1.426.218C1.301 6.205.5 5.914.5 5.914l5.905 3.615s2.011.996 3.157-.15M1.674 7.147.5 7.851v2.5l5.833 3.333 3.182-1.859.046-2.447m1.883-1.13L5.972 4.727M11.5 8.5v2.301l4-2.751V5.695l-5.487-3.558-2.632 1.636m6.315 2.975-2.252 1.5m-.933-3.868c-.498 0-.902.269-.902.601s.404.601.902.601.902-.269.902-.601"/></svg>