<!-- SPDX-FileCopyrightText: © 2025 Schneider Electric SPDX-License-Identifier: LicenseRef-Proprietary -->
<svg xmlns="http://www.w3.org/2000/svg" viewBox="0 0 16 16"><path fill="none" stroke="currentColor" stroke-linecap="round" stroke-linejoin="round" d="M13.067 14.038s-2.711-.943-5.667-3.809c-2.939-2.848-4.083-7.59-4.083-7.59m3.788 12.277a4.4 4.4 0 0 0 1.16-1.005l-.057.008a5.08 5.08 0 0 1-5.596-6.458 4.351 4.351 0 0 0 2.893 8.021m5.643-7.184v1.067m3.285-4.423H15.5m-4.352-3.375V.5M9.703 3.846a1.814 1.814 0 1 0 1.59-.712M7.838 4.942H6.771m2.102-2.608-.603-.603m-.087 6.346.603-.603m5.447.383-.603-.603m.725-5.277-.603.603"/></svg>