<!-- SPDX-FileCopyrightText: © 2025 Schneider Electric SPDX-License-Identifier: LicenseRef-Proprietary -->
<svg xmlns="http://www.w3.org/2000/svg" viewBox="0 0 16 16"><path fill="none" stroke="currentColor" stroke-linecap="round" stroke-linejoin="round" d="M.87 8.375a7.131 7.131 0 1 1 14.263 0 7.131 7.131 0 0 1-14.263 0Zm7.131-7.203V.506"/><path d="m7.217 9.973-.926-3.679v3.986q0 .331-.148.496c-.148.165-.229.165-.392.165a.5.5 0 0 1-.386-.163q-.15-.163-.15-.498V5.711q0-.378.197-.51t.532-.132h.362q.327 0 .475.059c.148.059.171.11.219.213s.101.269.161.5L8 9.004l.839-3.163q.09-.347.161-.5c.071-.153.12-.173.219-.213s.257-.059.475-.059h.362q.334 0 .532.132.197.132.197.51v4.569q0 .331-.148.496c-.148.165-.23.165-.396.165a.5.5 0 0 1-.382-.165q-.15-.165-.15-.496V6.294l-.926 3.679q-.09.358-.148.526a.7.7 0 0 1-.211.305q-.153.138-.425.138-.205 0-.347-.089c-.142-.089-.168-.135-.221-.226a1.3 1.3 0 0 1-.124-.305l-.093-.349Z"/></svg>