<!-- SPDX-FileCopyrightText: © 2025 Schneider Electric SPDX-License-Identifier: LicenseRef-Proprietary -->
<svg xmlns="http://www.w3.org/2000/svg" viewBox="0 0 16 16"><path fill="none" stroke="currentColor" stroke-linecap="round" stroke-linejoin="round" d="m9.992 9.522.461 2.327c-.444-.318-1.129-.457-1.854-.327-1.155.207-1.864.997-1.722 1.791s1.081 1.289 2.236 1.082c.49-.087.921-.284 1.243-.542M15.5 5.5v-1m-4-4h-1M4.127 14.814c-.402.424-1.079.696-1.897.685-.906-.023-1.59-.492-1.711-1.17-.146-.822.589-1.641 1.786-1.856.752-.134 1.461.009 1.921.339L2.791 4.528s.733-.827 1.559-.834c.841-.006 1.749.402 2.152.691l1.567-1.463M3.187 6.716c.292-.223.713-.468 1.161-.472.841-.007 1.156.402 1.559.692m.593-2.55V.5h1.982m7.018 7v2h-9V7.249l2.977-2.186 2.897 2.107M15.5 2.902A1.843 1.843 0 0 1 13.368.501m-.172 3.908-.34.602M11.62 2.662l-.623.298"/></svg>