<!-- SPDX-FileCopyrightText: © 2025 Schneider Electric SPDX-License-Identifier: LicenseRef-Proprietary -->
<svg xmlns="http://www.w3.org/2000/svg" viewBox="0 0 16 16"><path fill="none" stroke="currentColor" stroke-linecap="round" stroke-linejoin="round" d="M11 3.395c-3.709 1.491-4.368.555-4.368.555-1.421-1.04-2.461-.035-2.461-.035m8.266 5.291a4.7 4.7 0 0 0-1.222.23c-1.36.442-2.214 1.564-1.908 2.506s1.657 1.348 3.016.906c1.36-.442 2.307-1.807 2-2.749L12.5.517V.5C7.56 2.459 6.642 1.523 6.642 1.523c-1.231-.988-2.964.104-2.964.104l.017.069 1.776 10.09c-.444-.128-.975-.122-1.546.064-1.318.428-2.403 1.675-2.097 2.617s1.594 1.278 2.912.849c1.05-.341 1.846-1.085 1.968-1.847"/></svg>