<!-- SPDX-FileCopyrightText: © 2025 Schneider Electric SPDX-License-Identifier: LicenseRef-Proprietary -->
<svg xmlns="http://www.w3.org/2000/svg" viewBox="0 0 16 16"><path d="M8.938 3.487a.5.5 0 1 1-1 0 .5.5 0 0 1 1 0Zm2.067 0a.5.5 0 1 1-1 0 .5.5 0 0 1 1 0Zm1.999 0a.5.5 0 1 1-1 0 .5.5 0 0 1 1 0Zm-9.008 0a.5.5 0 1 1-1 0 .5.5 0 0 1 1 0Z"/><path fill="none" stroke="currentColor" stroke-linecap="round" stroke-linejoin="round" d="M3.5 10.5v-5h9v7h-9m11-1V2.393c0-.493-.4-.893-.893-.893H2.393c-.493 0-.893.4-.893.893v11.214c0 .493.4.893.893.893h11.214c.493 0 .893-.4.893-.893m-6.649-3.306c.79-1.252-.31-1.438.268-2.563m-2.586 2.563c.751-1.233-.358-1.438.22-2.563m4.499 2.574c.713-1.186-.377-1.438.2-2.562"/></svg>