<!-- SPDX-FileCopyrightText: © 2025 Schneider Electric SPDX-License-Identifier: LicenseRef-Proprietary -->
<svg xmlns="http://www.w3.org/2000/svg" viewBox="0 0 16 16"><path fill="none" stroke="currentColor" stroke-linecap="round" stroke-linejoin="round" d="M10.503 3.5h-1V.417l3.758 2.515c.152.15.239.362.239.585v11.194c0 .436-.324.789-.724.789H3.224c-.4 0-.724-.353-.724-.789V1.289C2.5.853 2.824.5 3.224.5h4.339m2.028 5.217c-1.091.19-2.372-1.259-2.372-1.259l1.18 6.811c-.378-.271-.961-.389-1.579-.279-.984.176-1.588.85-1.468 1.526.1.557.662.942 1.407.962.658.009 1.205-.205 1.538-.541"/></svg>