<!-- SPDX-FileCopyrightText: © 2025 Schneider Electric SPDX-License-Identifier: LicenseRef-Proprietary -->
<svg xmlns="http://www.w3.org/2000/svg" viewBox="0 0 16 16"><path fill="none" stroke="currentColor" stroke-linecap="round" stroke-linejoin="round" d="M2.523 8.897V1.289c0-.436.388-.789.867-.789h3.532m6.555 8.476V4.867a.76.76 0 0 0-.289-.595L8.886.571V4.5h1.896"/><path d="M.438 15.911a.42.42 0 0 1-.279-.092q-.11-.093-.126-.231c-.016-.138.019-.188.092-.282l1.558-2.074v.374L.2 11.621q-.108-.15-.095-.289c.013-.139.05-.17.123-.231a.4.4 0 0 1 .272-.092.45.45 0 0 1 .241.064q.105.066.214.215l1.225 1.687h-.279l1.218-1.687a.8.8 0 0 1 .214-.215.47.47 0 0 1 .248-.064q.17 0 .279.089.108.088.122.228c.014.14-.024.191-.102.296l-1.482 1.985v-.374l1.55 2.074a.4.4 0 0 1 .096.282.34.34 0 0 1-.123.231.43.43 0 0 1-.285.092q-.129 0-.234-.068a.8.8 0 0 1-.222-.218l-1.292-1.768h.3L.903 15.626a.8.8 0 0 1-.218.218.46.46 0 0 1-.245.068Zm4.645-.055q-.212 0-.326-.119a.45.45 0 0 1-.116-.33v-3.923q0-.218.112-.33c.112-.112.183-.112.323-.112s.248.037.323.112q.111.113.111.33v3.631h1.973q.183 0 .282.095t.099.272c.001.177-.033.21-.099.275a.4.4 0 0 1-.282.099zm4.726.069q-.298 0-.599-.045a3 3 0 0 1-.564-.136 2.2 2.2 0 0 1-.477-.228.44.44 0 0 1-.17-.197.41.41 0 0 1 .058-.425.3.3 0 0 1 .181-.105q.108-.02.237.061.3.177.633.259t.7.082q.537 0 .782-.181c.245-.181.245-.275.245-.466q0-.237-.174-.374c-.174-.137-.313-.165-.595-.225l-.748-.156q-.647-.136-.962-.459-.316-.323-.316-.854 0-.333.136-.604.136-.272.384-.47.249-.197.592-.303t.759-.105q.407 0 .774.103.367.102.66.299.108.075.146.184.036.11.017.214a.34.34 0 0 1-.095.181.3.3 0 0 1-.188.089.42.42 0 0 1-.255-.068 2 2 0 0 0-.51-.204 2.4 2.4 0 0 0-.558-.062q-.314 0-.537.089a.77.77 0 0 0-.344.248.6.6 0 0 0-.12.377.5.5 0 0 0 .164.392q.164.146.558.228l.741.156q.673.143 1.003.449c.33.306.33.476.33.815q0 .327-.133.592a1.3 1.3 0 0 1-.381.456 1.8 1.8 0 0 1-.595.292 2.8 2.8 0 0 1-.782.103Zm2.556-.014a.42.42 0 0 1-.278-.092q-.109-.093-.126-.231c-.017-.138.02-.188.092-.282l1.558-2.074v.374l-1.482-1.985q-.109-.15-.096-.289c.013-.139.05-.17.122-.231a.4.4 0 0 1 .272-.092.45.45 0 0 1 .241.064q.106.066.214.215l1.225 1.687h-.279l1.218-1.687a.8.8 0 0 1 .214-.215.47.47 0 0 1 .248-.064q.17 0 .279.089.108.088.122.228c.014.14-.024.191-.102.296l-1.482 1.985v-.374l1.55 2.074a.4.4 0 0 1 .096.282.34.34 0 0 1-.123.231.43.43 0 0 1-.285.092q-.129 0-.234-.068a.8.8 0 0 1-.222-.218l-1.292-1.768h.3l-1.285 1.768q-.11.15-.218.218c-.108.068-.154.068-.245.068Z"/></svg>