<!-- SPDX-FileCopyrightText: © 2025 Schneider Electric SPDX-License-Identifier: LicenseRef-Proprietary -->
<svg xmlns="http://www.w3.org/2000/svg" viewBox="0 0 16 16"><path d="M.776 15.961q-.248 0-.38-.141a.54.54 0 0 1-.132-.388v-4.656q0-.256.136-.388.136-.133.384-.132h1.928q.928 0 1.432.464c.504.464.504.741.504 1.296s-.168.988-.504 1.3q-.504.468-1.432.468H1.288v1.648a.56.56 0 0 1-.128.388q-.127.141-.384.141Zm.512-2.984h1.264q.544 0 .824-.244.28-.243.28-.716c0-.473-.093-.552-.28-.712q-.28-.24-.824-.24H1.288zm4.48 2.984q-.232 0-.356-.129-.124-.128-.124-.367v-4.761q0-.247.124-.379a.42.42 0 0 1 .324-.133q.184 0 .276.068t.22.228l3.064 3.977h-.208v-3.784q0-.232.124-.36c.124-.128.201-.128.356-.128q.23 0 .352.128c.122.128.12.206.12.36v4.8a.52.52 0 0 1-.112.352.38.38 0 0 1-.304.129q-.184 0-.292-.072c-.108-.072-.15-.125-.236-.232L6.04 11.682h.2v3.784q0 .239-.12.367-.12.129-.352.129Zm8.024.016q-.935 0-1.58-.353a2.33 2.33 0 0 1-.979-1q-.337-.647-.336-1.535 0-.672.195-1.208c.195-.536.32-.663.568-.916s.551-.448.908-.585a3.4 3.4 0 0 1 1.216-.203q.448 0 .899.107.453.108.853.364a.43.43 0 0 1 .192.476.5.5 0 0 1-.12.229.4.4 0 0 1-.22.12.45.45 0 0 1-.292-.064 2.5 2.5 0 0 0-.616-.256 2.8 2.8 0 0 0-.695-.08q-.594 0-1 .236a1.47 1.47 0 0 0-.612.684q-.204.448-.204 1.097 0 .983.473 1.496.47.512 1.399.512.32 0 .648-.064.328-.063.64-.176l-.2.456V13.61h-.88q-.2 0-.308-.104a.37.37 0 0 1-.108-.28q0-.184.108-.28a.45.45 0 0 1 .308-.096h1.32q.199 0 .308.107.108.108.108.309v1.943q0 .177-.068.297c-.068.12-.119.139-.22.176a5 5 0 0 1-.809.212 5 5 0 0 1-.896.084Z"/><path fill="none" stroke="currentColor" stroke-linecap="round" stroke-linejoin="round" d="M2.523 8.897V1.289c0-.436.388-.789.867-.789h3.532m6.555 8.476V4.867a.76.76 0 0 0-.289-.595L8.886.571V4.5h1.896"/></svg>