<!-- SPDX-FileCopyrightText: © 2025 Schneider Electric SPDX-License-Identifier: LicenseRef-Proprietary -->
<svg xmlns="http://www.w3.org/2000/svg" viewBox="0 0 16 16"><path fill="none" stroke="currentColor" stroke-linecap="round" stroke-linejoin="round" d="M9.103 2.407h.455c.541.136.942.626.942 1.209V4.5M3.549.987C3.78.686 4.142.5 4.538.5h1.349c.55 0 1.036.361 1.194.888L7.714 3.5H2.675l.374-1H1.746c-.688 0-1.247.558-1.247 1.247v7.507c0 .688.558 1.247 1.247 1.247h3.753M10.5 6.5H8.011a.51.51 0 0 0-.511.511v7.978c0 .282.229.511.511.511h6.978a.51.51 0 0 0 .511-.511V8.541a.47.47 0 0 0-.178-.362L12.5 6.45V9.5h1m-4 4h4m-4-2h4"/></svg>