<!-- SPDX-FileCopyrightText: © 2025 Schneider Electric SPDX-License-Identifier: LicenseRef-Proprietary -->
<svg xmlns="http://www.w3.org/2000/svg" viewBox="0 0 16 16"><path fill="none" stroke="currentColor" stroke-linecap="round" stroke-linejoin="round" d="M.5 6.5V1.289C.5.853.853.5 1.289.5H6.5m5 7V4.895c0-.217-.095-.519-.212-.672L8.499.553V4.5H9.5m-9 0v10.211c0 .436.353.789.789.789H8.5m-3-4h-3v2h5v-2m-5-9h2m-2 2h4m-4 2h4m-4 2h4m2-2h1m-1 2h1m.818 3.384-.015-.005s-.423-.067-.658-.083c-.229.828-.046 1.475-.046 1.475l.687-.054.027.009c.106.363.296.689.547.955l-.004.004s-.269.338-.399.537c.546.514 1.235.778 1.235.778l.298-.631.007-.029a2.3 2.3 0 0 0 1.093-.01h0s.144.45.248.663c.821-.212 1.264-.723 1.264-.723l-.4-.606a2.3 2.3 0 0 0 .535-.952s.402.089.636.105c.265-.518.032-1.508.032-1.508l-.694.018a2.35 2.35 0 0 0-.54-.9h0s.337-.359.468-.557c-.592-.616-1.264-.753-1.264-.753l-.473.678s-.644-.201-.994-.036c-.036.017-.533-.731-.533-.731l-1.108.8"/><circle cx="12.467" cy="12.487" r=".5"/></svg>