<!-- SPDX-FileCopyrightText: © 2025 Schneider Electric SPDX-License-Identifier: LicenseRef-Proprietary -->
<svg xmlns="http://www.w3.org/2000/svg" viewBox="0 0 16 16"><path fill="none" stroke="currentColor" stroke-linecap="round" stroke-linejoin="round" d="M2.523 8.897V1.289c0-.436.388-.789.867-.789h3.532m6.555 8.476V4.867a.76.76 0 0 0-.289-.595L8.886.571V4.5h1.896"/><path d="M.569 15.911q-.246 0-.376-.131-.13-.13-.13-.376v-4.239q0-.245.13-.376c.13-.131.212-.13.376-.13h1.788q.552 0 .939.164.388.163.592.469t.205.73q0 .476-.275.805a1.36 1.36 0 0 1-.752.439v-.112q.551.082.856.418.306.335.306.871 0 .7-.473 1.084c-.473.384-.754.384-1.315.384zm.41-3.024h1.214q.492 0 .733-.19.242-.19.242-.562c0-.372-.081-.436-.242-.562q-.242-.189-.733-.189H.979v1.505Zm0 2.301H2.32q.506 0 .745-.197.238-.197.238-.593 0-.402-.238-.596-.239-.193-.745-.193H.979zm6.354.797q-.76 0-1.33-.335c-.57-.335-.674-.537-.883-.942s-.313-.88-.313-1.427q0-.618.179-1.113.18-.496.51-.85a2.2 2.2 0 0 1 .797-.544 2.7 2.7 0 0 1 1.039-.19q.768 0 1.333.332.566.331.879.935c.313.604.312.877.312 1.423q0 .619-.179 1.118c-.179.499-.289.618-.51.856s-.487.421-.797.548a2.7 2.7 0 0 1-1.04.189Zm0-.819q.484 0 .823-.224.34-.223.521-.647.183-.425.183-1.014 0-.894-.398-1.386-.399-.492-1.129-.491-.477 0-.819.22c-.342.22-.404.359-.525.641q-.183.42-.183 1.017 0 .886.402 1.386.403.5 1.125.499Zm3.732.805q-.209 0-.32-.119c-.111-.119-.111-.188-.111-.328v-4.478q0-.216.119-.331a.45.45 0 0 1 .327-.115q.187 0 .295.07a.64.64 0 0 1 .197.242l1.84 3.404h-.238l1.84-3.404a.66.66 0 0 1 .194-.242.5.5 0 0 1 .29-.07q.21 0 .32.115.112.116.112.331v4.478q0 .21-.108.328c-.108.118-.18.119-.324.119q-.208 0-.32-.119a.46.46 0 0 1-.111-.328v-3.449h.164l-1.564 2.854a.6.6 0 0 1-.157.187.4.4 0 0 1-.223.06q-.143 0-.231-.063c-.088-.063-.111-.104-.156-.183l-1.579-2.86h.179v3.456q0 .21-.108.328c-.108.118-.18.119-.324.119Z"/></svg>