<!-- SPDX-FileCopyrightText: © 2025 Schneider Electric SPDX-License-Identifier: LicenseRef-Proprietary -->
<svg xmlns="http://www.w3.org/2000/svg" viewBox="0 0 16 16"><path fill="none" stroke="currentColor" stroke-linecap="round" stroke-linejoin="round" d="M2.523 8.897V1.289c0-.436.388-.789.867-.789h3.532m6.555 8.476V4.867a.76.76 0 0 0-.289-.595L8.886.571V4.5h1.896"/><path d="M1.686 15.915a.45.45 0 0 1-.352-.12.44.44 0 0 1-.128-.327q0-.152.092-.269c.092-.117.151-.118.268-.124l.24-.016q.352-.025.532-.22.18-.197.18-.564v-3.6q0-.257.132-.389c.132-.132.214-.132.38-.132s.292.044.38.132q.132.132.132.389v3.592q0 .504-.18.855-.18.353-.532.548t-.872.229zm3.656.009q-.248 0-.38-.141a.54.54 0 0 1-.132-.388v-4.656q0-.256.136-.388c.136-.132.219-.132.384-.132h1.928q.928 0 1.432.464c.504.464.504.741.504 1.296s-.168.988-.504 1.3q-.504.468-1.432.468H5.854v1.648a.56.56 0 0 1-.128.388q-.128.141-.384.141Zm.512-2.985h1.264q.544 0 .824-.244.28-.243.28-.716c0-.473-.093-.552-.28-.712q-.28-.24-.824-.24H5.854zm6.968 3q-.936 0-1.58-.353a2.34 2.34 0 0 1-.98-1q-.336-.647-.336-1.535 0-.672.196-1.208c.196-.536.32-.663.568-.916q.372-.38.907-.584a3.4 3.4 0 0 1 1.217-.204q.448 0 .899.107.453.108.853.364a.43.43 0 0 1 .192.476.5.5 0 0 1-.12.229.4.4 0 0 1-.22.12.45.45 0 0 1-.292-.064 2.5 2.5 0 0 0-.616-.256 2.8 2.8 0 0 0-.695-.08q-.594 0-1 .236a1.47 1.47 0 0 0-.612.684q-.204.448-.204 1.097 0 .983.472 1.496.472.512 1.4.512.32 0 .648-.064.328-.063.64-.176l-.2.456v-1.704h-.88q-.2 0-.308-.104a.37.37 0 0 1-.108-.28q0-.184.108-.28a.45.45 0 0 1 .308-.096h1.32q.199 0 .308.107.108.108.108.309v1.943q0 .177-.068.297c-.068.12-.119.139-.22.176a5 5 0 0 1-.809.212 5 5 0 0 1-.896.084Z"/></svg>