<!-- SPDX-FileCopyrightText: © 2025 Schneider Electric SPDX-License-Identifier: LicenseRef-Proprietary -->
<svg xmlns="http://www.w3.org/2000/svg" viewBox="0 0 16 16"><path fill="none" stroke="currentColor" stroke-linecap="round" stroke-linejoin="round" d="M6.243 10.428 4.5 11.804V7.499m-.006.014a3.994 3.994 0 1 0 3.86 2.963m-6.678-1.8a3.995 3.995 0 0 0 5.634 5.662 3.994 3.994 0 0 0-.808-6.284m3.51 5.453H13.5V5.855l-1.884-1.716m-1.173 7.354 1.057-.004V3.071a.65.65 0 0 0-.184-.456L8.5.5v3.007h1m-3-3H3.122c-.344 0-.622.293-.622.655l-.004 4.335M9.38 15.5h6.12V8.889l-1.882-1.682"/></svg>