<!-- SPDX-FileCopyrightText: © 2025 Schneider Electric SPDX-License-Identifier: LicenseRef-Proprietary -->
<svg xmlns="http://www.w3.org/2000/svg" viewBox="0 0 16 16"><path fill="none" stroke="currentColor" stroke-linecap="round" stroke-linejoin="round" d="M2.523 8.147V1.289c0-.436.388-.789.867-.789h3.532m6.555 7.726V4.867a.76.76 0 0 0-.289-.595L8.886.571V4.5h1.896"/><path d="M3.938 14.393q-.264 0-.404-.14t-.14-.404V9.296q0-.264.14-.403c.14-.139.228-.14.404-.14h2.856q.2 0 .308.104t.108.296q0 .2-.108.309-.108.107-.308.107H4.378v1.552h2.24q.209 0 .312.104c.103.104.104.171.104.304q0 .2-.104.305c-.104.105-.173.104-.312.104h-2.24v1.64h2.416q.2 0 .308.104t.108.304-.108.305a.43.43 0 0 1-.308.104H3.938Zm6.688.08q-.816 0-1.429-.36-.612-.359-.948-1.012c-.336-.653-.336-.945-.336-1.532a3.5 3.5 0 0 1 .192-1.195q.192-.533.548-.912c.356-.379.523-.448.856-.585a3 3 0 0 1 1.116-.203q.823 0 1.432.355.608.356.944 1.004t.336 1.528q0 .664-.192 1.2c-.192.536-.311.664-.548.92s-.522.452-.856.588a2.9 2.9 0 0 1-1.115.204Zm0-.88q.52 0 .884-.24.363-.24.56-.696.196-.456.196-1.088 0-.96-.428-1.487-.428-.529-1.212-.528-.513 0-.88.236a1.5 1.5 0 0 0-.564.688q-.196.452-.196 1.092 0 .953.433 1.488c.433.535.69.536 1.208.536Zm2.16 1.704q.111.176.088.319a.44.44 0 0 1-.128.244.5.5 0 0 1-.257.128.53.53 0 0 1-.56-.26l-.552-.888a.7.7 0 0 0-.3-.276 1 1 0 0 0-.46-.092l.792-.312q.375 0 .6.133.224.132.432.46z"/></svg>