<!-- SPDX-FileCopyrightText: © 2025 Schneider Electric SPDX-License-Identifier: LicenseRef-Proprietary -->
<svg xmlns="http://www.w3.org/2000/svg" viewBox="0 0 16 16"><path fill="none" stroke="currentColor" stroke-linecap="round" stroke-linejoin="round" d="M2.523 8.897V1.289c0-.436.388-.789.867-.789h3.532m6.555 8.476V4.867a.76.76 0 0 0-.289-.595L8.886.571V4.5h1.896"/><path d="M.541 15.919q-.198 0-.303-.105-.105-.104-.105-.303v-3.414q0-.197.105-.303c.105-.106.171-.105.303-.105h1.164q1.062 0 1.641.547.579.545.579 1.565 0 .51-.146.903a1.75 1.75 0 0 1-.433.663q-.284.27-.696.411a2.9 2.9 0 0 1-.944.141zm.36-.636h.756q.372 0 .645-.093t.456-.276c.183-.183.213-.276.273-.462q.09-.28.09-.651 0-.744-.366-1.109-.366-.366-1.098-.366H.901v2.958Zm5.454.696q-.613 0-1.071-.27c-.458-.27-.543-.433-.711-.759s-.252-.709-.252-1.149q0-.498.144-.896.145-.4.411-.685.267-.284.643-.438a2.2 2.2 0 0 1 .837-.153q.617 0 1.073.267.457.268.708.754.252.484.252 1.146 0 .498-.144.9a2 2 0 0 1-.411.689 1.8 1.8 0 0 1-.642.441q-.375.152-.837.152Zm0-.66q.39 0 .663-.181.272-.18.42-.521.146-.343.146-.816 0-.72-.321-1.116t-.908-.396q-.385 0-.66.177-.277.177-.423.517a2 2 0 0 0-.147.818q0 .716.324 1.116c.324.4.518.402.906.402Zm4.536.66q-.659 0-1.131-.267-.47-.267-.723-.756c-.253-.489-.252-.711-.252-1.155q0-.498.144-.896.145-.4.414-.685.27-.284.663-.438t.885-.153q.332 0 .648.084c.316.084.397.136.558.24a.4.4 0 0 1 .168.188.35.35 0 0 1-.081.394q-.074.072-.186.081c-.112.009-.155-.02-.243-.075a1.3 1.3 0 0 0-.402-.174 1.8 1.8 0 0 0-.438-.055q-.426 0-.72.175-.295.173-.444.504c-.149.331-.15.49-.15.81q0 .474.15.811.15.336.444.51.293.174.72.174.228 0 .45-.057.221-.058.42-.178a.4.4 0 0 1 .236-.068q.106.009.178.075c.072.066.08.099.096.165a.36.36 0 0 1-.012.203.4.4 0 0 1-.145.184q-.24.174-.572.267a2.5 2.5 0 0 1-.676.093Zm1.921-.012a.36.36 0 0 1-.246-.081q-.097-.081-.111-.204c-.014-.123.017-.165.081-.249l1.374-1.83v.33l-1.308-1.752a.37.37 0 0 1-.085-.255.3.3 0 0 1 .108-.204.36.36 0 0 1 .24-.081q.12 0 .213.058a.7.7 0 0 1 .188.188l1.08 1.488h-.245l1.073-1.488a.7.7 0 0 1 .189-.188.4.4 0 0 1 .219-.058q.15 0 .246.078.095.078.108.201t-.091.261l-1.308 1.752v-.33l1.368 1.83q.095.126.084.249c-.011.123-.044.15-.108.204a.37.37 0 0 1-.252.081.37.37 0 0 1-.207-.06.8.8 0 0 1-.194-.192l-1.141-1.56h.265l-1.135 1.56a.7.7 0 0 1-.191.192.4.4 0 0 1-.216.06Z"/></svg>