<!-- SPDX-FileCopyrightText: © 2025 Schneider Electric SPDX-License-Identifier: LicenseRef-Proprietary -->
<svg xmlns="http://www.w3.org/2000/svg" viewBox="0 0 16 16"><path fill="none" stroke="currentColor" stroke-linecap="round" stroke-linejoin="round" d="M6.5 13.5h-2v-2m.115 1.864 1.948-1.948M6.5 6.5h-2v2m2.063.087L4.615 6.639M9.5 13.5h2v-2m-.115 1.864-1.948-1.948M11.5 8.5v-2h-2m1.885.139L9.437 8.587M7.5.5H3.37c-.481 0-.87.353-.87.789V14.71c0 .436.39.789.87.789h9.26c.481 0 .87-.353.87-.789V3.836c0-.232-.116-.581-.315-.725L9.5.571V4.5h1"/></svg>