<!-- SPDX-FileCopyrightText: © 2025 Schneider Electric SPDX-License-Identifier: LicenseRef-Proprietary -->
<svg xmlns="http://www.w3.org/2000/svg" viewBox="0 0 16 16"><path fill="none" stroke="currentColor" stroke-linecap="round" stroke-linejoin="round" d="M2.523 8.897V1.289c0-.436.388-.789.867-.789h3.532m6.555 8.476V4.867a.76.76 0 0 0-.289-.595L8.886.571V4.5h1.896"/><path d="M2.893 15.977q-.88 0-1.508-.356c-.628-.356-.74-.573-.964-1.008s-.336-.948-.336-1.54a3.5 3.5 0 0 1 .192-1.195q.192-.533.552-.912.36-.38.884-.585a3.3 3.3 0 0 1 1.18-.203q.44 0 .864.111.425.113.744.32a.5.5 0 0 1 .224.252.5.5 0 0 1 .024.288.46.46 0 0 1-.132.236q-.1.095-.248.107c-.148.012-.207-.025-.324-.1q-.248-.16-.536-.232c-.288-.072-.387-.071-.584-.071q-.568 0-.96.231a1.46 1.46 0 0 0-.592.672q-.2.44-.2 1.08 0 .632.2 1.08t.592.68.96.232q.305 0 .6-.076c.295-.076.384-.129.56-.235a.55.55 0 0 1 .316-.093q.14.013.236.101a.34.34 0 0 1 .128.22.48.48 0 0 1-.208.515q-.32.232-.764.356c-.444.124-.596.124-.9.124Zm2.416-.016A.5.5 0 0 1 5 15.872q-.115-.088-.14-.235c-.025-.147.003-.21.056-.332l2.111-4.681a.8.8 0 0 1 .252-.332q.15-.1.342-.1.182 0 .332.1a.8.8 0 0 1 .252.332l2.119 4.681q.088.183.064.336c-.024.153-.062.18-.137.236a.48.48 0 0 1-.295.084.52.52 0 0 1-.35-.108.9.9 0 0 1-.219-.332l-.52-1.208.432.28H5.922l.432-.28-.512 1.208a1 1 0 0 1-.215.336.46.46 0 0 1-.32.104Zm2.295-4.593-1.119 2.664-.209-.256h2.672l-.199.256-1.127-2.664zm3.808 4.528q-.264 0-.404-.14t-.14-.404v-4.553q0-.264.14-.403.141-.14.404-.14h1.552q1.416 0 2.188.728t.771 2.088q0 .68-.196 1.204-.195.525-.575.884-.38.36-.929.548a3.9 3.9 0 0 1-1.26.188zm.48-.847h1.009q.495 0 .859-.124.364-.125.608-.368.244-.244.364-.616.119-.372.119-.868 0-.992-.487-1.479c-.487-.487-.813-.488-1.464-.488h-1.009z"/></svg>