<!-- SPDX-FileCopyrightText: © 2025 Schneider Electric SPDX-License-Identifier: LicenseRef-Proprietary -->
<svg xmlns="http://www.w3.org/2000/svg" viewBox="0 0 16 16"><path fill="none" stroke="currentColor" stroke-linecap="round" stroke-linejoin="round" d="M2.523 8.897V1.289c0-.436.388-.789.867-.789h3.532m6.555 8.476V4.867a.76.76 0 0 0-.289-.595L8.886.571V4.5h1.896"/><path d="M3.113 15.977q-.88 0-1.508-.356c-.628-.356-.74-.573-.964-1.008s-.336-.948-.336-1.54a3.5 3.5 0 0 1 .192-1.195q.192-.533.552-.912.36-.38.884-.585a3.3 3.3 0 0 1 1.18-.203q.44 0 .864.111.425.113.744.32a.5.5 0 0 1 .224.252.5.5 0 0 1 .024.288.46.46 0 0 1-.132.236q-.1.095-.248.107c-.148.012-.207-.025-.324-.1q-.249-.16-.536-.232c-.287-.072-.387-.071-.584-.071q-.569 0-.96.231a1.46 1.46 0 0 0-.592.672q-.2.44-.2 1.08 0 .632.2 1.08t.592.68q.391.232.96.232.305 0 .6-.076c.295-.076.384-.129.56-.235a.55.55 0 0 1 .316-.093q.14.013.236.101a.34.34 0 0 1 .128.22.48.48 0 0 1-.208.515q-.32.232-.764.356c-.444.124-.596.124-.9.124Zm4.68 0q-.352 0-.704-.052t-.664-.16a2 2 0 0 1-.56-.269.51.51 0 0 1-.236-.5q.02-.132.104-.231c.084-.099.126-.108.212-.124q.128-.025.28.072.351.208.744.304.392.095.824.096.632 0 .92-.212c.288-.212.288-.324.288-.548a.53.53 0 0 0-.204-.44q-.204-.159-.7-.264l-.88-.184q-.76-.16-1.132-.54t-.372-1.004q0-.393.16-.713c.16-.32.257-.396.452-.552q.292-.23.696-.356.403-.123.892-.123.48 0 .912.119.433.12.777.353a.43.43 0 0 1 .172.216q.044.129.02.252a.4.4 0 0 1-.111.212q-.09.09-.221.104c-.131.014-.188-.017-.3-.08q-.296-.168-.6-.24c-.304-.072-.421-.072-.656-.072q-.368 0-.632.104a.9.9 0 0 0-.404.292.7.7 0 0 0-.14.444q0 .287.192.46.192.172.656.268l.872.185q.792.167 1.18.527c.388.36.389.561.389.96q0 .384-.156.696t-.448.536c-.292.224-.428.264-.7.344s-.579.12-.92.12Zm5.265-.016a.6.6 0 0 1-.356-.101.7.7 0 0 1-.228-.3l-2.088-4.688a.53.53 0 0 1-.048-.352.4.4 0 0 1 .168-.24.52.52 0 0 1 .304-.088q.232 0 .348.1a.8.8 0 0 1 .196.301l1.896 4.392h-.344l1.889-4.399a.8.8 0 0 1 .207-.293q.12-.1.336-.1.176 0 .293.088.115.088.148.24c.033.152.002.219-.057.352l-2.088 4.688q-.089.2-.221.3c-.132.1-.207.101-.355.101Z"/></svg>