<!-- SPDX-FileCopyrightText: © 2025 Schneider Electric SPDX-License-Identifier: LicenseRef-Proprietary -->
<svg xmlns="http://www.w3.org/2000/svg" viewBox="0 0 16 16"><path fill="none" stroke="currentColor" stroke-linecap="round" stroke-linejoin="round" d="M2.523 8.897V1.289c0-.436.388-.789.867-.789h3.532m6.555 8.476V4.867a.76.76 0 0 0-.289-.595L8.886.571V4.5h1.896"/><path d="M.577 15.872q-.231 0-.354-.122Q.1 15.627.1 15.396v-3.983q0-.23.123-.354.122-.123.354-.122h1.358q1.239 0 1.914.637.676.637.676 1.827 0 .595-.172 1.053-.171.46-.504.774c-.333.314-.492.369-.812.479a3.4 3.4 0 0 1-1.103.164zm.42-.742h.882q.434 0 .752-.108.32-.108.532-.322.214-.213.318-.539t.105-.759q0-.869-.428-1.295-.426-.428-1.28-.428H.996zm5.474.798q-.19 0-.305-.091c-.115-.091-.139-.156-.186-.287l-1.463-4.137q-.077-.223.031-.378c.108-.155.194-.154.367-.154q.19 0 .294.088.105.088.168.276l1.261 3.738h-.28l1.315-3.731a.7.7 0 0 1 .176-.28.4.4 0 0 1 .272-.091q.168 0 .267.091a.75.75 0 0 1 .168.287l1.273 3.725h-.245l1.281-3.738a.6.6 0 0 1 .168-.273.42.42 0 0 1 .287-.091q.224 0 .329.154c.105.154.079.229.028.378l-1.478 4.144a.63.63 0 0 1-.182.28q-.112.091-.301.091c-.189 0-.227-.03-.302-.091a.64.64 0 0 1-.182-.287l-1.218-3.472h.161l-1.232 3.479q-.07.19-.179.28c-.109.09-.171.091-.297.091Zm7.727.014q-.819 0-1.383-.309-.563-.308-.857-.875c-.294-.567-.294-.826-.294-1.344q0-.588.172-1.057c.172-.469.279-.58.497-.802q.325-.333.794-.511c.469-.178.667-.179 1.064-.179q.391 0 .787.095.396.094.746.318a.37.37 0 0 1 .168.416.46.46 0 0 1-.105.2q-.077.084-.192.104c-.115.02-.162-.005-.256-.056a2.1 2.1 0 0 0-.539-.225 2.5 2.5 0 0 0-.608-.069q-.52 0-.875.206a1.3 1.3 0 0 0-.536.599q-.178.393-.178.959 0 .861.412 1.309.413.448 1.226.448.28 0 .567-.056t.56-.154l-.175.399v-1.491h-.771a.38.38 0 0 1-.27-.091.33.33 0 0 1-.094-.245q0-.16.094-.245.095-.084.27-.084h1.155q.174 0 .27.095.094.093.095.27v1.701a.5.5 0 0 1-.06.259.35.35 0 0 1-.192.153 4.4 4.4 0 0 1-.707.186 4 4 0 0 1-.784.074Z"/></svg>