<!-- SPDX-FileCopyrightText: © 2025 Schneider Electric SPDX-License-Identifier: LicenseRef-Proprietary -->
<svg xmlns="http://www.w3.org/2000/svg" viewBox="0 0 16 16"><path fill="none" stroke="currentColor" stroke-linecap="round" stroke-linejoin="round" d="M11.616 4.145 13.5 5.861v7.652H8.53M7.637 11.5l3.863-.004V3.078a.65.65 0 0 0-.184-.456L8.5.5v3.013h1m-3-3H3.122c-.344 0-.622.293-.622.655l-.004 4.335m6.884 10.01h6.12V8.902L13.618 7.22"/><path d="M1.989 12.942c-.14-.169-.339-1.021.315-1.571.901-.756 1.876-1.62 1.736-2.164-.167-.646-.717-.885-1.317-.869-.955.026-1.384.615-1.384.615s-.403.55-.916.307C-.294 8.92.117 8.192.117 8.192c.53-1.285 2.751-1.19 2.751-1.19 2.183.055 2.687.959 2.908 1.737.304 1.798-1.84 3.015-2.058 3.14-.381.219-.473.366-.506.508 0 0 .057.689-.348.833-.618.219-.877-.279-.877-.279Z"/><circle cx="2.688" cy="15.149" r=".851"/></svg>