<!-- SPDX-FileCopyrightText: © 2025 Schneider Electric SPDX-License-Identifier: LicenseRef-Proprietary -->
<svg xmlns="http://www.w3.org/2000/svg" viewBox="0 0 16 16"><path fill="none" stroke="currentColor" stroke-linecap="round" stroke-linejoin="round" d="M2.523 8.897V1.289c0-.436.388-.789.867-.789h3.532m6.555 8.476V4.867a.76.76 0 0 0-.289-.595L8.886.571V4.5h1.896"/><path d="M.541 15.929a.5.5 0 0 1-.326-.107.4.4 0 0 1-.147-.271.44.44 0 0 1 .107-.329l1.821-2.425v.437L.263 10.913a.5.5 0 0 1-.111-.337.4.4 0 0 1 .143-.271.48.48 0 0 1 .318-.107q.159 0 .282.076a.76.76 0 0 1 .25.25l1.431 1.972H2.25l1.423-1.972q.127-.174.25-.25c.123-.076.179-.076.291-.076q.198 0 .326.104.127.104.143.267c.016.163-.029.224-.119.346l-1.733 2.321v-.437l1.812 2.425a.47.47 0 0 1 .111.329.4.4 0 0 1-.143.271.5.5 0 0 1-.334.107q-.151 0-.274-.079c-.123-.079-.168-.138-.258-.255l-1.511-2.066h.35l-1.502 2.066a1 1 0 0 1-.254.255.53.53 0 0 1-.287.079Zm5.414 0q-.223 0-.342-.127a.5.5 0 0 1-.119-.35v-4.778q0-.23.127-.354a.48.48 0 0 1 .35-.124q.198 0 .314.076c.116.076.147.137.211.258l1.963 3.634h-.254l1.964-3.634q.095-.181.206-.258c.111-.077.178-.076.311-.076q.222 0 .342.124.119.123.119.354v4.778q0 .222-.115.35c-.115.128-.192.127-.346.127q-.223 0-.342-.127a.5.5 0 0 1-.119-.35V11.77h.175l-1.67 3.045a.6.6 0 0 1-.167.199q-.088.063-.239.063c-.151 0-.183-.022-.246-.067s-.119-.11-.167-.195l-1.686-3.053h.191v3.689a.5.5 0 0 1-.115.35q-.115.127-.346.127Zm6.726-.064q-.247 0-.382-.139c-.135-.139-.135-.222-.135-.386v-4.588q0-.254.131-.385.13-.132.378-.131.246 0 .378.131.13.131.131.385v4.246h2.306q.215 0 .33.111t.115.317c0 .206-.039.245-.115.322q-.116.115-.33.115h-2.807Z"/></svg>