<!-- SPDX-FileCopyrightText: © 2025 Schneider Electric SPDX-License-Identifier: LicenseRef-Proprietary -->
<svg xmlns="http://www.w3.org/2000/svg" viewBox="0 0 16 16"><path fill="none" stroke="currentColor" stroke-linecap="round" stroke-linejoin="round" d="M2.523 8.897V1.289c0-.436.388-.789.867-.789h3.532m6.555 8.476V4.867a.76.76 0 0 0-.289-.595L8.886.571V4.5h1.896"/><path d="M1.82 15.896q-.264 0-.404-.14t-.14-.404v-4.553q0-.264.14-.403c.14-.139.228-.14.404-.14h1.92q.592 0 1.008.176c.416.176.489.285.636.504q.22.327.22.784a1.3 1.3 0 0 1-.296.864 1.46 1.46 0 0 1-.808.472v-.12q.592.088.92.448t.328.936q0 .753-.508 1.164-.509.412-1.412.412zm.44-3.248h1.304q.528 0 .788-.204c.26-.204.26-.337.26-.604s-.087-.469-.26-.604-.436-.204-.788-.204H2.26zm0 2.472H3.7q.544 0 .8-.212.256-.211.256-.636 0-.432-.256-.64-.255-.208-.8-.208H2.26zm4.96.841q-.248 0-.38-.141a.54.54 0 0 1-.132-.388V10.72q0-.257.132-.392.131-.138.38-.137c.249.001.292.045.38.137q.132.135.132.392v4.712a.56.56 0 0 1-.128.388q-.127.141-.384.141Zm2.151 0q-.224 0-.344-.129a.5.5 0 0 1-.12-.352v-4.808q0-.231.128-.356c.128-.125.202-.124.352-.124q.2 0 .316.076c.116.076.148.137.212.26l1.977 3.656h-.257l1.977-3.656q.097-.184.208-.26c.111-.076.179-.076.312-.076q.223 0 .344.124c.121.124.12.202.12.356v4.808a.5.5 0 0 1-.116.352q-.116.129-.348.129-.224 0-.345-.129a.5.5 0 0 1-.12-.352v-3.704h.177l-1.681 3.064a.6.6 0 0 1-.168.199q-.088.064-.24.064c-.152 0-.184-.022-.248-.068a.6.6 0 0 1-.168-.195l-1.695-3.072h.191v3.712a.5.5 0 0 1-.116.352q-.115.129-.348.129Z"/></svg>