<!-- SPDX-FileCopyrightText: © 2025 Schneider Electric SPDX-License-Identifier: LicenseRef-Proprietary -->
<svg xmlns="http://www.w3.org/2000/svg" viewBox="0 0 16 16"><path fill="none" stroke="currentColor" stroke-linecap="round" stroke-linejoin="round" d="M11.5 4.5h-2V.603l3.763 3.667c.151.147.237.35.237.561v9.886a.783.783 0 0 1-.783.783H3.283a.783.783 0 0 1-.783-.783V1.283C2.5.85 2.851.5 3.283.5H7.5"/><path d="M8.102 7.387q-.429 0-.658-.213t-.229-.606q0-.405.229-.617.23-.213.658-.213c.428 0 .503.071.653.213q.224.213.224.617 0 .393-.224.606t-.653.213Zm0 6.432q-.378 0-.576-.234-.2-.235-.199-.661V9.189q0-.436.199-.671.198-.235.576-.235.367 0 .566.235c.199.235.199.38.199.671v3.735q0 .427-.194.661-.193.234-.571.234Z"/></svg>