<!-- SPDX-FileCopyrightText: © 2025 Schneider Electric SPDX-License-Identifier: LicenseRef-Proprietary -->
<svg xmlns="http://www.w3.org/2000/svg" viewBox="0 0 16 16"><path fill="none" stroke="currentColor" stroke-linecap="round" stroke-linejoin="round" d="M13.028 3.513v.002a2.1 2.1 0 0 1-.146-.979c.063-.849.556-1.503 1.103-1.463.546.041.938.761.875 1.609m-3.233-1.203a2.1 2.1 0 0 0-.289.943c-.027.365.03.706.147.979v-.003m1.686-1.805c-.155-.365-.417-.611-.73-.634-.312-.023-.607.182-.815.519m-1.543-.113a2.1 2.1 0 0 0-.288.943c-.027.363.03.703.146.976m1.686-1.805c-.155-.365-.417-.611-.729-.634s-.607.182-.815.52m0 0C9.928 1 9.666.754 9.354.731c-.313-.023-.607.182-.815.52m.001-.001a2.1 2.1 0 0 0-.288.943c-.027.363.029.703.146.976M8.54 1.25C8.385.885 8.124.639 7.811.616s-.607.182-.815.52m0 0a2.1 2.1 0 0 0-.288.943c-.027.365.03.706.147.979v-.002m.141-1.92C6.841.771 6.58.525 6.267.502c-.546-.041-1.04.614-1.102 1.463-.027.365.029.706.147.979v-.003M3.809 14.082l.175.704 9.807.714c.138-1.538 1.069-12.817 1.069-12.817m-10.837 0c-.236 1.817-.955 6.016-2.889 9.891 0 0 6.634-.146 10.346.95 0 0 1.123-1.98 2.571-10.466L5.159 2.44m.454 2.623 6.412.529M5.032 7.333l6.412.529M4.327 9.535l6.412.529"/></svg>