<!-- SPDX-FileCopyrightText: © 2025 Schneider Electric SPDX-License-Identifier: LicenseRef-Proprietary -->
<svg xmlns="http://www.w3.org/2000/svg" viewBox="0 0 16 16"><path fill="none" stroke="currentColor" stroke-linecap="round" stroke-linejoin="round" d="M7.595 10.441c.589 0 .905.222.905.98v3.215c0 .513-.475.929-.988.929S6.5 15.149 6.5 14.636v-2.94m1.103-1.255h-.008c0-.258.15-.309.367-.416l5.971-3.092c.179-.179.567-.53.567-1.157V3.991c0-.486-.513-.491-1.71-.491m-8.837-.587C3.953 1.606 3.423.5 2.77.5S1.587 1.606 1.587 2.913 2.117 5.5 2.77 5.5h8.826c.653 0 1.183-1.28 1.183-2.587S12.249.5 11.596.5H5.5"/></svg>