<!-- SPDX-FileCopyrightText: © 2025 Schneider Electric SPDX-License-Identifier: LicenseRef-Proprietary -->
<svg xmlns="http://www.w3.org/2000/svg" viewBox="0 0 16 16"><path d="M4.67 6.032a.98.98 0 0 0-.289-.698c-.192-.193-.445-.289-.698-.289s-.506.096-.698.289a.99.99 0 0 0 0 1.397.989.989 0 0 0 1.685-.698Zm0 3.957a.98.98 0 0 0-.289-.698c-.192-.193-.445-.289-.698-.289s-.506.096-.698.289a.99.99 0 0 0 0 1.397.989.989 0 0 0 1.685-.698Zm2.73 2.772a.98.98 0 0 0-.289-.698c-.192-.193-.445-.289-.698-.289s-.506.096-.698.289a.99.99 0 0 0 0 1.397.989.989 0 0 0 1.685-.698Z"/><circle cx="6.413" cy="3.367" r=".891"/><circle cx="9.993" cy="3.737" r=".782"/><circle cx="12.379" cy="6.032" r=".782"/><path fill="none" stroke="currentColor" stroke-linecap="round" stroke-linejoin="round" d="M12.887 2.297a7.45 7.45 0 0 1 2.61 5.321c.106 2.087-2.501 3.151-3.978 1.674l-.02-.02a1.579 1.579 0 0 0-2.659.716c-.141.59.048 1.142.42 1.511l.019.019c1.538 1.539.32 4.139-1.849 3.976a8 8 0 0 1-.929-.126c-3.013-.591-5.402-3.062-5.897-6.094A7.515 7.515 0 0 1 9.267.603a7.3 7.3 0 0 1 1.542.431"/></svg>