<!-- SPDX-FileCopyrightText: © 2025 Schneider Electric SPDX-License-Identifier: LicenseRef-Proprietary -->
<svg xmlns="http://www.w3.org/2000/svg" viewBox="0 0 16 16"><path fill="none" stroke="currentColor" stroke-linecap="round" stroke-linejoin="round" d="M9.455 14.426h.75l-.549-2.953h2.388l-.447-2.035 2.326.603-.379 1.379c.37 0 .772.152 1.083.364.311.213.556.516.707.873s.2.752.142 1.138a2.07 2.07 0 0 1-.468 1.036c-.248.29-.57.499-.928.6a1.8 1.8 0 0 1-1.088-.03 1.9 1.9 0 0 1-.897-.65 2.1 2.1 0 0 1-.393-.893M10.16 7.205a.84.84 0 1 0 1.68 0 .84.84 0 0 0-1.68 0ZM1.099 2.404A4.015 4.015 0 1 0 2.371 1.12M4.5 8.865V15.5m-2 0h4M3.775 4.789c1.193 0 2.406-.069 2.156-1.376C5.698 2.195 3.5 2.587 3.5 2.587v3.912"/></svg>