<!-- SPDX-FileCopyrightText: © 2025 Schneider Electric SPDX-License-Identifier: LicenseRef-Proprietary -->
<svg xmlns="http://www.w3.org/2000/svg" viewBox="0 0 16 16"><path fill="none" stroke="currentColor" stroke-linecap="round" stroke-linejoin="round" d="M6.56 15.5H5.231c-1.369 0-2.396-1.015-2.396-2.368s1.027-2.368 2.396-2.368h.228c.571-1.353 1.826-2.368 3.423-2.368 1.826 0 3.423 1.353 3.651 3.158.342-.113.571-.113.913-.113 1.141 0 2.054.902 2.054 2.03s-.913 2.03-2.054 2.03H8.395m1.579-9.475h1.579M6.026.5v1.579M2.079 6.026H.5m2.71-2.847-.854-.844m0 7.091.854-.844m6.32-6.248-.854.844M8.509 5.88c0-1.401-1.149-2.537-2.567-2.537S3.375 4.479 3.375 5.88c0 .706.291 1.344.762 1.804"/></svg>