<!-- SPDX-FileCopyrightText: © 2025 Schneider Electric SPDX-License-Identifier: LicenseRef-Proprietary -->
<svg xmlns="http://www.w3.org/2000/svg" viewBox="0 0 16 16"><path fill="none" stroke="currentColor" stroke-linecap="round" stroke-linejoin="round" d="M14.516 6.106c-.008.138.008 2.51 0 2.64.207.285.337.571.544.856l-7.676 4.262-.993.043c-1.872-.832-3.896-1.795-5.768-2.627C.654 11.094.494 9.312.5 8.944c.008-.431.441-.945.441-.945s.299-1.89.328-2.305c.007-.096-.002-.435.432-.704.04-.025 4.995-1.926 7.666-2.899L15.5 3.73 8.187 7.3a1.5 1.5 0 0 0-.787.916l-.854 2.926c-1.553-.628-2.642-1.094-4.195-1.722"/></svg>