<!-- SPDX-FileCopyrightText: © 2025 Schneider Electric SPDX-License-Identifier: LicenseRef-Proprietary -->
<svg xmlns="http://www.w3.org/2000/svg" viewBox="0 0 16 16"><path fill="none" stroke="currentColor" stroke-linecap="round" stroke-linejoin="round" d="m5.378 10.415.892 1.066c.353.422.46 1.179.239 1.682L5.481 15.5m6.014-1.403-.203.35c-.112.193.247.363.796.379l2.669.765c.409-.368.551-1.075.316-1.572l-.75-2.477c-.407-.37-.951-.32-1.209.111s-.849.543-1.314.248L5.01 7.598M7.473 15.5l1.307-2.689c.24-.495.178-1.267-.139-1.717l-1.48-2.1m-1.876 1.332L2.497 15.5m.386-5.896L.5 15.5m9.245-5.174s-.298-3.845-.455-4.315a15 15 0 0 0-.466-1.155c-.284-.409-.077-.831-.077-.831.931 0 1.686-.724 1.686-1.618S9.626.499 8.695.499s-1.686.724-1.686 1.618c0 .328.102.634.277.889m.03.063s-2.778-.66-3.64.492c-.01.013-1.782 1.27-1.944 2.094-.138.702.592 1.437 1.317 1.992"/></svg>