<!-- SPDX-FileCopyrightText: © 2025 Schneider Electric SPDX-License-Identifier: LicenseRef-Proprietary -->
<svg xmlns="http://www.w3.org/2000/svg" viewBox="0 0 16 16"><path fill="none" stroke="currentColor" stroke-linecap="round" stroke-linejoin="round" d="M15.5 3.686A3.18 3.18 0 0 1 12.325.5m1.111 5.124c.862.326 1.6.402 2.064.402M9.992.5q0 .227.018.447c.085 1.06.578 2.62 1.595 3.456M15.5 15.5H9.232m-.099 0L6.48 9.497l.537-1.738s.862.696 1.174 1.019.459.4.459.407l2.207.023c0-.009.917-.242.917-.831 0-.602-.258-.717-.831-.831L9.44 7.537 7.549 5.773l-.16-.09c1.29-.201 1.76-2.427.201-3.096-.201-.086-.335-.07-.525-.082-.66-.042-1.396.366-1.396 1.372 0 0 .115.975-.946 1.118l-2.178.172L1.1 7.275s-.229.828.575 1.151c.575.231.918-.215.918-.215l.891-1.234 1.125.024-.666 2.132-.779 2.428-2.045.135s-.619.228-.619.837c0 .67.622.86.622.86l3.06-.02 1.081-2.044 1.352 3.067m3.067-3.24c-.084.137-.245.541-.086.946.434 1.106 1.154 1.557 1.863 1.318.601-.203 1.344-.638 1.404-1.662.022-.379-.029-1.978-1.579-2.755m-.083-1.458.602-1.518H9.981"/></svg>