<!-- SPDX-FileCopyrightText: © 2025 Schneider Electric SPDX-License-Identifier: LicenseRef-Proprietary -->
<svg xmlns="http://www.w3.org/2000/svg" viewBox="0 0 16 16"><path fill="none" stroke="currentColor" stroke-linecap="round" stroke-linejoin="round" d="M9.525 2.622a1.356 1.356 0 1 1 1.122.592l-.409.639 2.208 2.515h1.463s.717.051.717.731-.714.716-.714.716l-1.963.002s-.37.021-.734-.354-1.173-1.297-1.173-1.297L8.99 8.189l2.822 6.365s.203.702-.412.904c-.615.201-.92-.389-.92-.389L7.696 9.514l-1.387 3.232-4.206.017s-.731-.001-.731-.714.727-.731.727-.731l3.151-.098.777-3.161 1.434-3.027-1.892-.144-1.047 1.628s-.387.601-.995.202c-.609-.399-.211-.998-.211-.998l1.46-2.32 3.276.069"/></svg>