<!-- SPDX-FileCopyrightText: © 2025 Schneider Electric SPDX-License-Identifier: LicenseRef-Proprietary -->
<svg xmlns="http://www.w3.org/2000/svg" viewBox="0 0 16 16"><path fill="none" stroke="currentColor" stroke-linecap="round" stroke-linejoin="round" d="m10.592 14.37-1.49-.974-.159-6.121 3.067-1.503 3.459 1.53-2.955 1.833-.009 6.397 2.994-2.17V9.574m-1.484 1.618zM8.961 7.699c0-.879-.985-1.589-.985-1.589a4.8 4.8 0 0 0-1.478-.638c.798-.417 1.343-1.378 1.343-2.345C7.841 1.744 6.726.5 5.351.5s-2.49 1.243-2.49 2.627c0 .967.545 1.928 1.343 2.345A4.875 4.875 0 0 0 .5 10.214v1.317h5"/></svg>