<!-- SPDX-FileCopyrightText: © 2025 Schneider Electric SPDX-License-Identifier: LicenseRef-Proprietary -->
<svg xmlns="http://www.w3.org/2000/svg" viewBox="0 0 16 16"><path fill="none" stroke="currentColor" stroke-linecap="round" stroke-linejoin="round" d="M15.5 15.5h-3.985l-2.69-5.983.389-2.145s.47.301.879.726.359.401.359.401l2.747-.002s.867-.045.867-.879c0-1.036-.906-.987-.906-.987l-1.961-.132-1.252-1.923.065-.137c.934 0 1.442-.884 1.442-2.068 0-.857-.758-1.871-1.692-1.871-1.346 0-2.085.765-2.148 1.707-.036.547.069.786.182 1.057.342.821-.02.951-.02.951h0l-3.959.318-1.371 2.201s-.436.665.232 1.107 1.092-.224 1.092-.224L4.919 6.51l1.734-.146-1.8 2.588-.727 2.535-2.32.108s-.798.274-.798 1.064c0 1.061.802.808.802.84h3.506l1.515-2.978 2.525 4.978H.5"/></svg>