<!-- SPDX-FileCopyrightText: © 2025 Schneider Electric SPDX-License-Identifier: LicenseRef-Proprietary -->
<svg xmlns="http://www.w3.org/2000/svg" viewBox="0 0 16 16"><path fill="none" stroke="currentColor" stroke-linecap="round" stroke-linejoin="round" stroke-width="1.071" d="M3.5 15.5v-1.773a4.68 4.68 0 0 1 3.849-4.604c-.847-.44-1.431-1.363-1.431-2.434 0-1.497 1.14-2.711 2.546-2.711s2.546 1.214 2.546 2.711c0 1.064-.577 1.982-1.414 2.425a4.68 4.68 0 0 1 3.905 4.613V15.5M4.718 4.13c-1.123.19-1.982 1.226-1.982 2.476 0 .99.541 1.844 1.324 2.251A4.33 4.33 0 0 0 .5 13.116V14.5h1"/><path fill="currentColor" stroke="currentColor" stroke-linecap="round" stroke-linejoin="round" d="M11.5 2.5h4"/></svg>