<!-- SPDX-FileCopyrightText: © 2025 Schneider Electric SPDX-License-Identifier: LicenseRef-Proprietary -->
<svg xmlns="http://www.w3.org/2000/svg" viewBox="0 0 16 16"><path fill="none" stroke="currentColor" stroke-linecap="round" stroke-linejoin="round" d="M10.305 14.411 4.695 15.5.92 8.926l1.846-.308c-.122-1.545 1.509-1.785 1.792-.427m3.734 2.237L6.844 7.937l-.527.106m4.018 6.309-.645-1.28m-.741-2.584s-1.83.458-1.977.873.095 1.004.481 1.247 1.49.379 2.157.269 1.887.345 3.982 1.149 1.473-2.65 1.128-4.06-1.159-2.813-1.377-3.124-1.109-1.155-2.927-1.157l.026-.02c.548-.547.997-1.304.997-2.139a3.025 3.025 0 1 0-4.64 2.559"/></svg>