<!-- SPDX-FileCopyrightText: © 2025 Schneider Electric SPDX-License-Identifier: LicenseRef-Proprietary -->
<svg xmlns="http://www.w3.org/2000/svg" viewBox="0 0 16 16"><path fill="none" stroke="currentColor" stroke-linecap="round" stroke-linejoin="round" d="M10.763 15.5H2.079v-1.524c0-1.329.528-2.584 1.366-3.582s1.984-1.739 3.221-2.038a2.91 2.91 0 0 1-1.563-2.579m1.649 7.956.863-1.037.863-1.037-.891.077-.891.077.775-.918.775-.918M5.107 5.739l-.02-.472-.02-.472.491-.24 3.102.036c.087-.019.142.033.731-.081s2.649-.733 3.582-1.068c-.13-.097-.882-.343-1.173-.524s-.649-.272-.649-.272c-.076-.54-.335-.922-.838-1.403C9.639.597 8.865.51 7.607.5c-1.301-.011-1.895.417-2.488.952-.678.612-.825 1.2-.88 1.738m6.524 12.31h3.158l-.008-.762-.008-.762c0-1.329-.524-2.584-1.358-3.582S10.57 8.655 9.334 8.356c.464-.241.855-.606 1.13-1.051s.433-.727.433-1.286"/></svg>