<!-- SPDX-FileCopyrightText: © 2025 Schneider Electric SPDX-License-Identifier: LicenseRef-Proprietary -->
<svg xmlns="http://www.w3.org/2000/svg" viewBox="0 0 16 16"><path fill="none" stroke="currentColor" stroke-linecap="round" stroke-linejoin="round" d="M8.894 4.63c-.54-.17-1.115-.778-1.115-2.025C7.779 1.283 8.645.5 9.965.5s2.39 1.072 2.39 2.394c0 .661-.355 1.259-.787 1.693l-.021.016c3.256 0 3.777 4.273 3.953 5.63 0 0-.023.704-.534 1.252-1.099 1.179-3.024 1.629-5.553 1.327 0 0-.899-.386-.772-1.282.087-.423.411-.96 1.916-1.019m-3.956 3.032a.6.6 0 0 0 .583-.843l-.005-.01-1.615-5.538.002.003c-.095-.178-.414-.411-.629-.424s-.443.325-.558.491h0l-2.507 4.659a.5.5 0 0 0-.083.263c-.02.331.249.838.58.857l.095.051s1.118-.047 2.027.043 2.107.448 2.107.448zM4.799 9.284l-.137 1.254m-.14 1.311c.103-.027-.053.003 0 0m6.062-1.339-.16-3.491c-1.15-1.152-2.554-.225-2.554-.225S6.721 4.651 3.658 4.79C1.985 4.866.5 5.323.5 5.323v9.471s1.816-.394 3.89-.195c1.666.16 3.136.901 3.136.901 1.022-1.123 2.232-.759 2.232-.759"/></svg>