<!-- SPDX-FileCopyrightText: © 2025 Schneider Electric SPDX-License-Identifier: LicenseRef-Proprietary -->
<svg xmlns="http://www.w3.org/2000/svg" viewBox="0 0 16 16"><path fill="none" stroke="currentColor" stroke-linecap="round" stroke-linejoin="round" stroke-width=".984" d="m4.548 3.518 9.456-1.878c.335-.067.614.099.661.34l.198 1.005c.051.258-.164.519-.48.581L1.366 6.198c-.314.062-.609-.095-.66-.352L.507 4.838c-.049-.251.159-.503.465-.564l1.67-.378V2.5m3.858-1v-1m7 1v-1M9.174 12.264q.052-.208.052-.423c0-.992-.801-1.796-1.79-1.796s-1.79.804-1.79 1.796c0 1.088.985 1.768 1.79 1.796.257.009.481-.05.657-.121m5.572 1.885-.753-.596c-1.862-1.168-.204-3.091-.208-4.022-.004-.768-.23-1.107-.963-1.904C11.18 8.269 9.8 6.733 9.1 6.534c-.557-.159-1.007.281-.961.74.11 1.093 2.277 2.483 2.491 3.284.115.432-.837 1.22-1.466 1.74m-1.07 1.216c-.377.526-.925.993-1.335 1.986M15.5 7.634l-1.746-1.327-.334 1.236-1.577-1.228"/></svg>