<!-- SPDX-FileCopyrightText: © 2025 Schneider Electric SPDX-License-Identifier: LicenseRef-Proprietary -->
<svg xmlns="http://www.w3.org/2000/svg" viewBox="0 0 16 16"><path fill="none" stroke="currentColor" stroke-linecap="round" stroke-linejoin="round" stroke-width="1.002" d="M13.5 15.5h2m-9.559 0H10.5m-10 0 2.548-.015m2.893 0 .138-5.259s1.217-.455 1.217-1.416c0-.583-.199-2.226-.199-2.977 0-.314-.034-1.369-1.195-1.463m.001 0c-.441-.566-.188-.86-.188-.86.834-.968.421-2.442-.364-2.838s-1.848-.098-2.245.687c-.267.529-.43 1.479.134 2.151.323.215.215.887-.376 1.049-.804.219-1.047 1-1.047 1.539 0 .735-.172 1.998-.118 2.639-.012 1.272 1.199 1.49 1.199 1.49l.149 5.259M10.5 12.5v3m2.885-5.532s.949-.455.949-1.416c0-.583-.042-1.979-.042-2.73 0-.314-.054-1.533-1.371-1.828M13.5 15.5v-3m-.633-8.668c.158-.134.358-.342.457-.538.397-.785.036-2.226-.749-2.623s-1.742-.082-2.139.703c-.267.529-.635 1.678.226 2.297 0 0 .484.376-.376.672-.685.235-.842.916-.864 1.49-.029.735-.077 2.004-.023 2.645-.012 1.272.934 1.49.934 1.49m-.023.123L9.554 12.5h.947m2.999 0h.833l-.953-2.368"/></svg>