<!-- SPDX-FileCopyrightText: © 2025 Schneider Electric SPDX-License-Identifier: LicenseRef-Proprietary -->
<svg xmlns="http://www.w3.org/2000/svg" viewBox="0 0 16 16"><path fill="none" stroke="currentColor" stroke-linecap="round" stroke-linejoin="round" d="m6.625 13.46-1.27 1.794c-.222.28-.993.441-1.349.085-.371-.371-.354-.91-.132-1.19l1.614-2.407m-.146-7.131-2.015 1.9-.128 2.492c0 .358.357 1.019.992 1.019.556 0 .857-.542.857-.899l.067-1.742L6.5 6.412v2.737s-.024.937.228 1.296 3.523 4.747 3.523 4.747a.905.905 0 0 0 1.268.2c.423-.291.411-.894.212-1.19l-2.434-3.818-.147-4.41 2.132 2.249c.317.344.847.476 1.296.185.511-.331.506-.699.37-1.032l-.238-.423s-1.64-1.64-2.143-2.328c-.431-.59-1.111-.767-1.111-.767l-.979-.132h0c.873-.529.679-1.64.679-1.817C9.156.771 8.197.501 7.498.501s-1.273.577-1.396 1.265c-.086.478-.086 1.06.391 1.536"/></svg>