<!-- SPDX-FileCopyrightText: © 2025 Schneider Electric SPDX-License-Identifier: LicenseRef-Proprietary -->
<svg xmlns="http://www.w3.org/2000/svg" viewBox="0 0 16 16"><path fill="none" stroke="currentColor" stroke-linecap="round" stroke-linejoin="round" d="M10.906 9.352s.053.934.952.934.928-.911.928-.911h1.798v1.68c.101 0 .915.203.915.976s-.92.923-.92.923v1.633h-1.814s-.079.913-.919.913-.947-.915-.947-.915H8.774v-1.63s.926-.018.926-.933-.919-.926-.919-.926V9.38H7.025s-.15.922-.967.922-.945-.928-.945-.928H3.312v1.69s-.925.151-.925.968.93.956.93.956v1.595h1.79s.053-.905.937-.905.954.904.954.904m-.301-9.1c.824-.418 1.388-1.381 1.388-2.35C8.085 1.746 6.933.5 5.513.5S2.941 1.746 2.941 3.132c0 .969.563 1.932 1.388 2.35-2.196.519-3.827 2.45-3.827 4.752v1.315m10.439-2.033c-.335-1.977-2.033-3.569-4.238-4.033"/></svg>