<!-- SPDX-FileCopyrightText: © 2025 Schneider Electric SPDX-License-Identifier: LicenseRef-Proprietary -->
<svg xmlns="http://www.w3.org/2000/svg" viewBox="0 0 16 16"><path fill="none" stroke="currentColor" stroke-linecap="round" stroke-linejoin="round" d="M14.711 15.5h-3.158a.79.79 0 0 1-.789-.789V8.684L8.001 3.898 5.238 8.684v6.027a.79.79 0 0 1-.789.789h-3.16a.79.79 0 0 1-.789-.789V8.395c0-.436.353-.789.789-.789h.789v-.951A1.97 1.97 0 0 1 .884 4.843a1.977 1.977 0 0 1 2.519-1.9A1.94 1.94 0 0 1 4.747 4.26a1.98 1.98 0 0 1-1.091 2.386v.961h.212l3.071-5.32.317-1.232a.78.78 0 0 1 .742-.553c.343 0 .623.223.73.53.012.035.33 1.255.33 1.255l3.071 5.32h.212v-.961a1.97 1.97 0 0 1-1.175-1.802 1.978 1.978 0 0 1 2.518-1.901 1.94 1.94 0 0 1 1.347 1.32 1.98 1.98 0 0 1-1.111 2.393v.951h.789c.436 0 .789.353.789.789v5.526"/></svg>