<!-- SPDX-FileCopyrightText: © 2025 Schneider Electric SPDX-License-Identifier: LicenseRef-Proprietary -->
<svg xmlns="http://www.w3.org/2000/svg" viewBox="0 0 16 16"><path fill="none" stroke="currentColor" stroke-linecap="round" stroke-linejoin="round" d="M6.289 11.824c.267.536-.135.587.305.975.467.412 1.769-.344 2.151-.235s1.744 2.253 2.017 2.935m4.45-3.588-1.668-1.714s1.621-1.616 1.899-3.856C15.968 2.116 12.736.5 10.311.5s-4.23 1.35-4.94 3.002c-.464 1.092-.137 1.638.055 2.129.191.491 0 1.037 0 1.037-.164.628-1.31 1.584-1.147 1.965.244.567 1.024.451 1.201.628 0 0 .21.274.169.893m-3.019.165a2.666 2.666 0 0 0 .992 3.638M1.087 9.436A4.444 4.444 0 0 0 2.74 15.5m1.433-4.299a.89.89 0 0 0 .331 1.213"/></svg>