<!-- SPDX-FileCopyrightText: © 2025 Schneider Electric SPDX-License-Identifier: LicenseRef-Proprietary -->
<svg xmlns="http://www.w3.org/2000/svg" viewBox="0 0 16 16"><path fill="none" stroke="currentColor" stroke-linecap="round" stroke-linejoin="round" d="M5.5 7.5V5.655c0-1.212 1.531-2.045 1.531-2.045-.428-.296-.632-.777-.632-1.324 0-.901.659-1.695 1.594-1.695s1.624.794 1.624 1.695c0 .547-.233 1.028-.662 1.324 0 0 1.544.86 1.544 2.045V7.5M1.384 3.544s-.022.462-.379.786C.513 4.777.488 5.588.488 5.588S.325 12.28 1.846 12.28h0l2.654.12-.044 3.1m4.044-8H5.285l-1.611.031-.267 2.364c0-.03 2.787.409 2.787.409 1.307.364.391 5.199.391 5.199M3.935 2.102C3.935 1.201 3.414.5 2.202.5a1.632 1.632 0 0 0-.819 3.044m2.294 3.94s.405-1.23-.051-2.844l-.186-.65c.548-.235.557-1.362.495-1.888m10.703 1.624s.047.418.357.604c.57.342.517 1.258.517 1.258s.163 6.692-1.358 6.692h0l-2.654.12.044 3.1m-1.044-8 1.861-.002.267 2.364c0-.03-2.787.409-2.787.409-1.307.364-.124 5.199-.124 5.199M12.1 2.102c0-.901.392-1.602 1.733-1.602a1.632 1.632 0 0 1 .819 3.044m-2.293 3.94s-.405-1.23.051-2.844l.186-.65c-.548-.235-.557-1.362-.495-1.888"/></svg>