<!-- SPDX-FileCopyrightText: © 2025 Schneider Electric SPDX-License-Identifier: LicenseRef-Proprietary -->
<svg xmlns="http://www.w3.org/2000/svg" viewBox="0 0 16 16"><path fill="none" stroke="currentColor" stroke-linecap="round" stroke-linejoin="round" d="m7.5 12.481-7 .07V10.61c0-2.391 1.662-4.396 3.9-4.935-.84-.434-1.414-1.434-1.414-2.441C2.986 1.794 4.16.5 5.608.5S8.23 1.794 8.23 3.234c0 1.007-.574 2.006-1.414 2.441a5.1 5.1 0 0 1 1.783.818m2.886 6.5a1.633 1.633 0 1 0-1.604-.773l-1.437 2.291a4.3 4.3 0 0 0 1.795.989l.381-.959a3.15 3.15 0 0 0 1.466-.018l.518.923a4.1 4.1 0 0 0 1.724-1.073l-.685-.794c.184-.202.361-.421.486-.659.107-.203.198-.417.259-.637l1.018.056a4.3 4.3 0 0 0-.078-2.096l-1.004.187a3.34 3.34 0 0 0-.744-1.265l.552-.882a4.34 4.34 0 0 0-1.882-1.039l-.3.98a3.2 3.2 0 0 0-1.484.006l-.529-.921a4.14 4.14 0 0 0-1.702 1.047l.677.783q-.273.291-.472.659-.178.332-.273.683l-1.028-.102c-.154.685-.249.888-.07 1.552"/></svg>