<!-- SPDX-FileCopyrightText: © 2025 Schneider Electric SPDX-License-Identifier: LicenseRef-Proprietary -->
<svg xmlns="http://www.w3.org/2000/svg" viewBox="0 0 16 16"><path fill="none" stroke="currentColor" stroke-linecap="round" stroke-linejoin="round" d="M9.5 8.5v4h-3v-4m3-2v-4h-3v2M2.504 15.27c.323-.545 2.422-2.444 2.214-3.323l-1.167-1.653-.298-3.868 2.471 1.688c1.041.738 2.22-.703.659-1.653L3.747 4.246c-.382-.105.465-.084.486-1.688C4.251 1.141 2.995.575 2.287.766c-1.836.496-.854 2.877-.854 2.877s-.779.53-.837 1.362l-.06 4.782c-.087.585.109 1.743 1.419 2.155l-1.419 2.78m14.964.001-1.419-2.78c1.31-.412 1.507-1.57 1.419-2.155l-.06-4.782c-.058-.832-.837-1.362-.837-1.362s.983-2.381-.854-2.877c-.708-.191-1.964.375-1.946 1.792.02 1.603.867 1.582.486 1.688L9.653 6.462c-1.561.949-.382 2.391.659 1.653l2.471-1.688-.298 3.868-1.167 1.653c-.208.879 1.891 2.778 2.214 3.323"/></svg>