<!-- SPDX-FileCopyrightText: © 2025 Schneider Electric SPDX-License-Identifier: LicenseRef-Proprietary -->
<svg xmlns="http://www.w3.org/2000/svg" viewBox="0 0 16 16"><path fill="none" stroke="currentColor" stroke-linecap="round" stroke-linejoin="round" d="m9.836 11.011.854-.886a2.525 2.525 0 0 1 .535-2.758 2.5 2.5 0 0 1 2.729-.544l-1.626 1.628a.95.95 0 0 0 .183 1.119c.321.337.757.416 1.172.204l1.613-1.618a2.509 2.509 0 0 1-3.248 3.314c-1.893 1.996-2.812 3.114-3.53 3.833m.018-2.803-1.452 1.366c-.717.719.718 2.157 1.435 1.437m.173-8.535a4.9 4.9 0 0 0-2.111-1.106c.809-.419 1.362-1.384 1.362-2.356 0-1.39-1.13-2.639-2.524-2.639S2.895 1.916 2.895 3.306c0 .972.553 1.937 1.362 2.356a4.91 4.91 0 0 0-3.755 4.764V12.5h8"/></svg>