<!-- SPDX-FileCopyrightText: © 2025 Schneider Electric SPDX-License-Identifier: LicenseRef-Proprietary -->
<svg xmlns="http://www.w3.org/2000/svg" viewBox="0 0 16 16"><path fill="none" stroke="currentColor" stroke-linecap="round" stroke-linejoin="round" d="M.5 15.5v-1.996a6.24 6.24 0 0 1 5.134-6.141c-1.129-.587-1.909-1.819-1.909-3.247C3.725 2.119 5.245.5 7.121.5s3.396 1.619 3.396 3.616c0 1.419-.769 2.643-1.887 3.235q.663.112 1.272.355m2.772 1.377a3.22 3.22 0 0 0-2.673 5.474m.005-.004 4.547-4.547m-2.623 5.475q.172.018.349.019a3.22 3.22 0 0 0 2.278-5.498"/></svg>