<!-- SPDX-FileCopyrightText: © 2025 Schneider Electric SPDX-License-Identifier: LicenseRef-Proprietary -->
<svg xmlns="http://www.w3.org/2000/svg" viewBox="0 0 16 16"><path fill="none" stroke="currentColor" stroke-linecap="round" stroke-linejoin="round" d="M10.131 13.921H9.01m-5.204 0h3.421m-6.727 0h1.121m3.065-8.077c0 .53.141 1.69.141 2.102 0 .679-.864 1-.864 1l-.098 4.964M1.658 4.801c-.452-.027-.725.71-.725 1.043 0 .519-.179 1.597-.141 2.05-.008.898.851 1.052.851 1.052l.106 4.964m5.478-2.291v2.302M9.19 8.768s.673-.325.673-1.004c0-.412-.155-1.389-.155-1.919m-.698 5.774v2.302M6.275 5.844c0 .519-.172 1.415-.134 1.868-.008.898.717 1.052.717 1.052m.002.004-.491 2.851h.859m1.783 0h.853l-.676-2.851m5.05 5.153H15.5m-5.397 0h1.838m2.3-.01.098-4.964s.864-.321.864-1c0-.412-.141-1.572-.141-2.102 0-.221-.019-1.247-.843-1.313m-2.095 9.379-.106-4.964s-.86-.154-.851-1.052c-.038-.453.141-1.531.141-2.05m-6.651-.14c0-.222-.024-.97-.846-1.037m-.001 0c-.313-.401-.133-.61-.133-.61.591-.686.298-1.73-.258-2.011s-1.309-.069-1.59.487c-.189.375-.305 1.048.095 1.524a.4.4 0 0 1-.15.719M9.7 5.808c0-.222-.022-1.312-.955-1.521m-.001 0a1.4 1.4 0 0 0 .324-.381c.281-.556.026-1.577-.53-1.858s-1.234-.058-1.515.498c-.189.375-.45 1.189.16 1.627 0 0 .337.15-.273.359-.485.167-.59.766-.606 1.173m7.915-1.174c-.313-.401-.133-.61-.133-.61.591-.686.298-1.73-.258-2.011s-1.309-.069-1.59.487c-.189.375-.305 1.048.095 1.524.229.152.152.629-.267.743-.57.155-.742.709-.742 1.091"/></svg>