<!-- SPDX-FileCopyrightText: © 2025 Schneider Electric SPDX-License-Identifier: LicenseRef-Proprietary -->
<svg xmlns="http://www.w3.org/2000/svg" viewBox="0 0 16 16"><path fill="none" stroke="currentColor" stroke-linecap="round" stroke-linejoin="round" stroke-width=".995" d="M.5 15.274h2.909L1.501 9.315h5.846l-1.805 5.959h3.312l2.679-6.433-.475-2.202-3.679-.765-.643-1.381 1.559-.321 3.085.329s.04-.062-.019-.095c-.521-.292-.945-.527-.945-1.763 0-.921.871-2.143 1.807-2.143s1.805.734 1.805 1.655c0 .656.095 1.721-.757 2.251 0 0-.049.043-.038.076l1.819.085.447 4.215-.025 6.265-1.262.453-1.011-5.331-2.43 5.259M3.534 7.212c.326.177.917.148.917.148l1.426-.783-2.079-1.24-.379-1.109-.537.501"/></svg>