<!-- SPDX-FileCopyrightText: © 2025 Schneider Electric SPDX-License-Identifier: LicenseRef-Proprietary -->
<svg xmlns="http://www.w3.org/2000/svg" viewBox="0 0 16 16"><path fill="none" stroke="currentColor" stroke-linecap="round" stroke-linejoin="round" d="M12.5 6.5v1.145c-.01.005-.215.109-.23.328a.4.4 0 0 0 .23.382v1.911c-.017.009-.209.114-.23.328a.42.42 0 0 0 .23.409v2.157a.465.465 0 0 0-.344.409.464.464 0 0 0 .344.464V15.5H.5v-5h1v-5h2v4.981l2 .019v-8h2.025l-.025 8h1v3h2v-6h-1v-3h2v-2h4v1.12c-.103.077-.289.227-.283.392.006.175.19.34.283.422v2.202c-.224.02-.297.175-.283.453.016.314.051.5.283.513v2.233c-.235.009-.307.123-.283.362.018.182.201.362.283.453v2.172c-.219.028-.283.221-.283.543s.283.543.283.543V15.5M12.465 2.079 12.427.5m2.073 2v-2"/></svg>