<!-- SPDX-FileCopyrightText: © 2025 Schneider Electric SPDX-License-Identifier: LicenseRef-Proprietary -->
<svg xmlns="http://www.w3.org/2000/svg" viewBox="0 0 16 16"><path fill="none" stroke="currentColor" stroke-linecap="round" stroke-linejoin="round" d="M9.257 12.25c-2.236-.222-3.785 1.827-3.785 1.827s-2.212 2.64-4.052.664c-2.173-2.334.252-4.041.252-4.041L1.42 9.688s.377-1.887 1.864-3.912m3.753-.944c1.479-1.075 3.311-1.296 3.311-1.296l.783 1.897s1.517.316 2.9-.885c1.232-1.07 1.453-2.428 1.453-2.428L13.248.539s-2.882-.572-7.331 2.655m-3.059 9.364c.519-.014 1.543-.137 2.378-.941 1.644-1.581 1.485-2.491 1.327-2.618.127.158-1.581-1.17-1.581-1.17s.065-.216.206-.544M.5.5l15 15"/></svg>