<!-- SPDX-FileCopyrightText: © 2025 Schneider Electric SPDX-License-Identifier: LicenseRef-Proprietary -->
<svg xmlns="http://www.w3.org/2000/svg" viewBox="0 0 16 16"><path fill="none" stroke="currentColor" stroke-linecap="round" stroke-linejoin="round" d="m13.037 9.351-1.598 6.121c2.456.332 3.569-2.472 3.917-3.853.351-1.389.38-4.871-3.82-5.45-6.666-.919-5.051 6.549-9.044 5.518-3.255-.841-1.54-4.244-1.54-4.244l-.37-.313s.189-2.319 2.202-4.263C5.377.365 7.326.501 7.326.501l1.501.783s.129.778-.573 1.574c-.788.893-1.792.819-1.792.819l-.461-.769s-.945.254-1.871.997c-1.17.939-1.092 2.132-1.092 2.132s.913.306.818.215c.112.068.266.311-.663 1.467a2.3 2.3 0 0 1-1.111.763m9.278.811s-2.699-.823-3.839 2.503c-.73 2.129.385 3.221 1.013 3.422.917.294 2.906-.019 3.802-3.168"/></svg>