<!-- SPDX-FileCopyrightText: © 2025 Schneider Electric SPDX-License-Identifier: LicenseRef-Proprietary -->
<svg xmlns="http://www.w3.org/2000/svg" viewBox="0 0 16 16"><path fill="none" stroke="currentColor" stroke-linecap="round" stroke-linejoin="round" d="M9.333 2.959c.363-.544 1.815-1.67 2.396-1.234 0 .617-1.052 2.287-.544 3.339M9.528 2.719c-2.744-1.112-6.838-.74-8.435 2.309s.436 5.88 1.379 6.643.726 1.234 1.016 1.996 1.634.617 1.924.508.581-1.052.726-1.052.871-.036 1.996-.036.581.762 1.053 1.125 2.105 0 2.105 0-.145-.907 0-1.307 1.198-.581 1.997-1.706c.483-.681.907-.472 1.524-.548s.762-2.9.653-3.481-.726-.327-1.343-.436c-.512-.09-.9-1.232-1.37-1.97m-4.618-.718c-1.198-.433-3.194-.269-4.102.363"/></svg>