<!-- SPDX-FileCopyrightText: © 2025 Schneider Electric SPDX-License-Identifier: LicenseRef-Proprietary -->
<svg xmlns="http://www.w3.org/2000/svg" viewBox="0 0 16 16"><path fill="none" stroke="currentColor" stroke-linecap="round" stroke-linejoin="round" d="m6.587 6.276.557-.557a1.64 1.64 0 0 1 2.322 0h0a1.64 1.64 0 0 1 0 2.322l-2.911 2.911c-.641.641-1.89.851-2.532.209h0a1.64 1.64 0 0 1 0-2.322l1.56-1.56.035.029 1.097 1.097m-.049 2.814zm2.142.408c.275.051.569.064.843.064 1.288 0 2.472-.069 2.732-.916.131-.427-1.223-.916-2.732-.916s-2.732.41-2.732.916l-.008 1.919c0 .506 1.232.916 2.741.916 1.267 0 2.332-.289 2.642-.681M5.13 4.353c-.501.677-1.663 1.084-2.154 1.258-.796.321-1.445 1.33-1.445 2.159v5.708c0 1.116.906 2.021 2.023 2.021l8.767-.003a2.02 2.02 0 0 0 2.023-2.021V7.767c0-.829-.712-1.82-1.592-2.159-.68-.331-2.779-1.263-2.734-3.12 0 0 1.525.166 1.525-.809v-.408a.77.77 0 0 0-.772-.772H5.143a.773.773 0 0 0-.773.772v.401c0 .939.89.891 1.423.891h.006l2.513-.01"/></svg>