<!-- SPDX-FileCopyrightText: © 2025 Schneider Electric SPDX-License-Identifier: LicenseRef-Proprietary -->
<svg xmlns="http://www.w3.org/2000/svg" viewBox="0 0 16 16"><path fill="none" stroke="currentColor" stroke-linecap="round" stroke-linejoin="round" d="m15.5 13.145-.007.818c0 .849-2.053 1.537-4.586 1.537s-4.586-.688-4.586-1.537l-.017-3.22c0-.849 2.053-1.537 4.586-1.537s4.586.688 4.586 1.537-2.053 1.537-4.586 1.537c-.536 0-2.007-.077-2.776-.384m-1.46-5.252L4.109 4.099l-.06-.05-2.713 2.713a2.855 2.855 0 0 0 0 4.038h0c1.115 1.115 3.287.751 4.402-.364l5.061-5.061a2.855 2.855 0 0 0 0-4.038h0a2.855 2.855 0 0 0-4.038 0l-.968.968"/></svg>