<!-- SPDX-FileCopyrightText: © 2025 Schneider Electric SPDX-License-Identifier: LicenseRef-Proprietary -->
<svg xmlns="http://www.w3.org/2000/svg" viewBox="0 0 16 16"><path fill="none" stroke="currentColor" stroke-linecap="round" stroke-linejoin="round" d="M2.5 14.5v1h-2v-2m2-3v-1h-2v4m15 0v-4h-2v1m0 4v1h2v-3m-2 2h-11m5.286-1.714-.271-1.023-1.631-.473v-.789H2.5m10.632.262-2.778.187M7.737 1.287c-1.065 0-2.021.746-2.362 1.849-1.031-.398-1.661.217-1.79.924-.125.682.149 1.684 1.188 1.808-.457.758-.441 1.702 0 2.291.582.778 1.87.892 2.726 0V9.5m4.843-9A3.16 3.16 0 0 0 15.5 3.658M9.974.5A5.526 5.526 0 0 0 15.5 6.026M9.827 8.012c.874-.113 1.583-.699 1.961-1.448"/></svg>