<!-- SPDX-FileCopyrightText: © 2025 Schneider Electric SPDX-License-Identifier: LicenseRef-Proprietary -->
<svg xmlns="http://www.w3.org/2000/svg" viewBox="0 0 16 16"><path fill="none" stroke="currentColor" stroke-linecap="round" stroke-linejoin="round" d="M6.91 5.359a3.6 3.6 0 0 1-.281.811c-.627 1.294-1.878 1.983-2.794 1.538-.917-.444-1.151-1.854-.524-3.147.627-1.294 1.878-1.983 2.795-1.538q.059.029.113.062m1.169.079s-.72 3.284-.92 4.274c-.163.806 1.266.481 2.185-.711.98-1.272 1.541-3.668-.292-5.252C6.452-.174 3.329.337 1.648 2.493S.112 8.05 1.907 9.845c1.478 1.478 3.436 2.203 4.621 2.203m6.341 2.663V8.553h-2.502a2.87 2.87 0 0 0-1.616.777c-.697.682-.701 1.335-.725 1.554-.027.246-.06 1.165-.06 1.165l-1.493-.002m1.812 1.673c.078.315.237.754.553 1.069.546.544 1.059.768 1.605.768l2.426.018v-.894m0-4.168h2.614m-2.614 2.98h2.614"/></svg>