<!-- SPDX-FileCopyrightText: © 2025 Schneider Electric SPDX-License-Identifier: LicenseRef-Proprietary -->
<svg xmlns="http://www.w3.org/2000/svg" viewBox="0 0 16 16"><path fill="none" stroke="currentColor" stroke-linecap="round" stroke-linejoin="round" d="m8.938 5.629.021-.037a.67.67 0 0 1 .337-.264 1 1 0 0 1 .206-.047 1 1 0 0 1 .475.078q.127.054.236.139a1.2 1.2 0 0 1 .373.479 1.3 1.3 0 0 1 .098.323q.032.178.018.358a1.6 1.6 0 0 1-.243.737q-.113.18-.266.328a1.8 1.8 0 0 1-.558.371 2.05 2.05 0 0 1-1.459.055 2.36 2.36 0 0 1-1.413-1.305 2.6 2.6 0 0 1-.173-1.539 2.8 2.8 0 0 1 .355-.937 3 3 0 0 1 .426-.55q.255-.257.562-.447a3.1 3.1 0 0 1 1.415-.459q.392-.03.78.033a3.4 3.4 0 0 1 1.486.628q.342.252.615.578a3.6 3.6 0 0 1 .645 1.13 3.8 3.8 0 0 1 .219 1.334 3.96 3.96 0 0 1-.467 1.805 4.1 4.1 0 0 1-1.295 1.456 4.2 4.2 0 0 1-.894.476 4.4 4.4 0 0 1-2.057.276 4.8 4.8 0 0 1-1.052-.237 4.7 4.7 0 0 1-1.434-.816 4.8 4.8 0 0 1-1.549-2.371 5.2 5.2 0 0 1-.196-1.166 5 5 0 0 1 .084-1.2 5.2 5.2 0 0 1 .66-1.721A5.36 5.36 0 0 1 6.664 1.33 5.6 5.6 0 0 1 7.841.78 5.6 5.6 0 0 1 9.134.517a5.8 5.8 0 0 1 2.652.412q.32.13.622.299a5.9 5.9 0 0 1 1.623 1.327A6.1 6.1 0 0 1 15.114 4.4a6.2 6.2 0 0 1 .384 2.242q0 .407-.04.812a7 7 0 0 1-.118.76 6.4 6.4 0 0 1-.454 1.368 5.7 5.7 0 0 1-1.18 1.678 6 6 0 0 1-.517.461 7 7 0 0 1-1.206.771 8 8 0 0 1-.684.308q-.361.143-.735.255-.387.116-.782.2-.411.088-.827.144a13 13 0 0 1-1.774.117M5.48 12.003a.5.5 0 0 0-.5-.5H2.481v3.998H4.98a.5.5 0 0 0 .5-.5v-1.483h1.641M.5 12.501h1.579M.5 14.509h1.579"/></svg>