<!-- SPDX-FileCopyrightText: © 2025 Schneider Electric SPDX-License-Identifier: LicenseRef-Proprietary -->
<svg xmlns="http://www.w3.org/2000/svg" viewBox="0 0 16 16"><path fill="none" stroke="currentColor" stroke-linecap="round" stroke-linejoin="round" d="M.5 11.5h4.417s.023-1.057.053-1.337c.027-.25.032-.995.828-1.775A3.28 3.28 0 0 1 7.644 7.5h2.857v6.855m-5.236-.954c.089.359.271.861.631 1.221.623.622 1.21.878 1.833.878l2.771.021V14.5m2.659-8.622a3.03 3.03 0 0 0-3.024-3.032M15.5 5.878A5.37 5.37 0 0 0 10.135.5m.365 9h4m-4 4h4"/></svg>