<!-- SPDX-FileCopyrightText: © 2025 Schneider Electric SPDX-License-Identifier: LicenseRef-Proprietary -->
<svg xmlns="http://www.w3.org/2000/svg" viewBox="0 0 16 16"><path fill="none" stroke="currentColor" stroke-linecap="round" stroke-linejoin="round" d="M8.516.5h4.054c.523 0 .946.424.946.946v9.108a.946.946 0 0 1-.946.946H1.462a.946.946 0 0 1-.946-.946V1.446C.516.923.94.5 1.462.5h5.054m.005 2.01q-.19 0-.383.021a3.5 3.5 0 1 0 2.547.73M6.516 4.5v3m1.5-1.5h-3m9.554 7.5za.946.946 0 0 0 .946-.946V2.446a.946.946 0 0 0-.946-.946h-1.054m-12 12.085V15.5m1-4v1.205c-.53.141-1 .514-1 .88 0 .425.911.904 2.011.904M5.516 15.5v-1.907c0-.401-.421-.808-1-.962V11.5m4 2.085V15.5m1-4v1.205c-.53.141-1 .514-1 .88 0 .425.851.904 1.95.904m2.05 1.011v-1.907c0-.401-.421-.808-1-.962V11.5"/></svg>