<!-- SPDX-FileCopyrightText: © 2025 Schneider Electric SPDX-License-Identifier: LicenseRef-Proprietary -->
<svg xmlns="http://www.w3.org/2000/svg" viewBox="0 0 16 16"><path d="m5.583 4.557.261.261q.287-.232.55-.337.265-.104.564-.081.232.016.422.086a.8.8 0 0 1 .298.18q.121.122.121.297a.42.42 0 0 1-.125.302q-.237.237-.563.051a.77.77 0 0 0-.786-.017L7.33 6.304q.382-.218.627-.328c.245-.11.335-.114.514-.122q.282-.017.549.086.266.104.485.324.275.275.387.645.11.37.012.774a1.9 1.9 0 0 1-.416.778l.603.602a.8.8 0 0 1 .18.235q.038.093-.056.188-.088.087-.177.068a.4.4 0 0 1-.199-.129l-.651-.652q-.316.251-.628.361a1.7 1.7 0 0 1-.606.1 1.5 1.5 0 0 1-.523-.105 1.2 1.2 0 0 1-.388-.252.4.4 0 0 1-.118-.299.42.42 0 0 1 .133-.319.46.46 0 0 1 .234-.133.38.38 0 0 1 .247.039 4 4 0 0 0 .416.189.8.8 0 0 0 .339.046.9.9 0 0 0 .393-.126L7.563 7.15q-.414.234-.741.342c-.327.108-.44.085-.666.04q-.337-.067-.657-.387-.416-.416-.417-.947 0-.53.456-1.075l-.255-.255q-.203-.203-.051-.355.154-.154.352.043Zm1.352 1.965-.926-.926q-.143.262-.157.477c-.014.215.052.279.187.413q.19.19.395.182.204-.008.502-.146Zm1.023.411 1.059 1.059a.93.93 0 0 0 .181-.574.7.7 0 0 0-.209-.475q-.211-.211-.455-.196c-.244.015-.354.071-.576.186Z"/><path fill="none" stroke="currentColor" stroke-linecap="round" stroke-linejoin="round" d="m8.789 2.474 4.292 4.292a1.19 1.19 0 0 1 0 1.68l-3.847 3.847a1.19 1.19 0 0 1-1.68 0L1.289 6.026V1.688C1.289 1.032 1.821.5 2.477.5h2.76m3.552 1.974S9.903 1.358 9.31.71c-.915-.999-4.863 2.158-4.863 2.158a.789.789 0 1 1-.789-.789m5.253.516-.659-.651M1.289 8.395l6.039 6.782c.394.374.993.429 1.45.134l5.933-5.338m-5.8-7.378-.659-.651"/></svg>