<!-- SPDX-FileCopyrightText: © 2025 Schneider Electric SPDX-License-Identifier: LicenseRef-Proprietary -->
<svg xmlns="http://www.w3.org/2000/svg" viewBox="0 0 16 16"><path d="M7.688 7.821q1.064.924 1.617.399a1 1 0 0 0 .284-.457q.079-.263-.11-.777-.123-.335-.104-.464a.34.34 0 0 1 .104-.208.48.48 0 0 1 .358-.153.52.52 0 0 1 .354.184q.395.417.32 1.156-.074.74-.655 1.291a1.82 1.82 0 0 1-1.325.505q-.78-.012-1.62-.739l-.36.341q-.05.048-.121-.025a.6.6 0 0 1-.115-.229q-.049-.16-.012-.195l.244-.23-.097-.102a15 15 0 0 1-.33-.371l-.349.33q-.05.048-.118-.022a.6.6 0 0 1-.118-.232q-.048-.159-.011-.194l.284-.269q-1.216-1.652-.004-2.799.533-.505 1.179-.595t1.033.318a.45.45 0 0 1 .132.321.4.4 0 0 1-.13.305q-.145.138-.281.127a.9.9 0 0 1-.347-.102 1.2 1.2 0 0 0-.487-.122q-.214 0-.487.259-.312.295-.273.673c.039.378.169.55.431.89l.913-.865q.057-.054.126.021.075.08.121.232t.006.19l-.848.804.258.282q.122.129.18.18l.936-.887q.057-.054.124.018a.6.6 0 0 1 .123.235q.046.153.006.19z"/><path fill="none" stroke="currentColor" stroke-linecap="round" stroke-linejoin="round" d="m8.789 2.474 4.292 4.292a1.19 1.19 0 0 1 0 1.68l-3.847 3.847a1.19 1.19 0 0 1-1.68 0L1.289 6.026V1.688C1.289 1.032 1.821.5 2.477.5h2.76m3.552 1.974S9.903 1.358 9.31.71c-.915-.999-4.863 2.158-4.863 2.158a.789.789 0 1 1-.789-.789m5.253.516-.659-.651M1.289 8.395l6.039 6.782c.394.374.993.429 1.45.134l5.933-5.338m-5.8-7.378-.659-.651"/></svg>