<!-- SPDX-FileCopyrightText: © 2025 Schneider Electric SPDX-License-Identifier: LicenseRef-Proprietary -->
<svg xmlns="http://www.w3.org/2000/svg" viewBox="0 0 16 16"><path fill="none" stroke="currentColor" stroke-linecap="round" stroke-linejoin="round" d="M7.5 2.5v-2m-4 0v2.074c0 .277.404.519 1 .643v2.066s-.029 1.241 1.003 1.241.997-1.241.997-1.241V3.218c.518-.09 1.005-.544 1.005-.774 0-.368-.983-.825-1.979-.825M2.65 5.854C1.237 6.525.389 8.466.389 10.5h0c0 2.761 1.721 5 3.563 5h8.094c1.981 0 3.565-2.239 3.565-5h0c0-3.733-2.09-5-4.071-5H8.501M3.313 8.443a3.028 3.028 0 1 0 5.283 2.021c0-.591-.157-1.339-.625-1.969M10.5 11.5v2h2v-6h-2v2m-6.184.9L5.5 11.577V8.5m.023 3.077 1.118-1.147"/></svg>