<!-- SPDX-FileCopyrightText: © 2025 Schneider Electric SPDX-License-Identifier: LicenseRef-Proprietary -->
<svg xmlns="http://www.w3.org/2000/svg" viewBox="0 0 16 16"><path fill="none" stroke="currentColor" stroke-linecap="round" stroke-linejoin="round" d="M.5 9.5v3h1.73s.149-1.139 1.104-1.139S4.463 12.5 4.463 12.5H7.5v-2.489s1.301-.025 1.301-1.42c0-1.413-1.301-1.488-1.301-1.488V4.5h2.507s.236-1.078 1.216-1.078S12.39 4.5 12.39 4.5h2.11v2.655s.939.245.939 1.401c0 1.061-.822 1.333-.939 1.333V12.5h-2.173s-.066-1.121-1.115-1.121-1.151 1.121-1.151 1.121H9.5m-4-8h-.857s-.086 1.184-1.159 1.184S2.346 4.5 2.346 4.5H.5v6"/></svg>