<!-- SPDX-FileCopyrightText: © 2025 Schneider Electric SPDX-License-Identifier: LicenseRef-Proprietary -->
<svg xmlns="http://www.w3.org/2000/svg" viewBox="0 0 16 16"><path fill="none" stroke="currentColor" stroke-linecap="round" stroke-linejoin="round" d="M8.172 12.38a1.574 1.574 0 1 1-1.813 1.292m2.123-3.829c.056-.246.216-.501.876-.879.377-.216 4.091-2.324 3.564-5.438-.291-.75-1.256-2.913-5.037-3.009 0 0-3.846-.165-4.764 2.06 0 0-.71 1.26.53 1.849.888.422 1.586-.531 1.586-.531s.742-1.021 2.396-1.066c1.039-.028 1.992.386 2.281 1.505.243.942-1.447 2.438-3.006 3.747-1.133.951-.621 2.261-.378 2.553m.022 4.08a1.573 1.573 0 1 0 1.208-2.361"/></svg>