<!-- SPDX-FileCopyrightText: © 2025 Schneider Electric SPDX-License-Identifier: LicenseRef-Proprietary -->
<svg xmlns="http://www.w3.org/2000/svg" viewBox="0 0 16 16"><path fill="none" stroke="currentColor" stroke-linecap="round" stroke-linejoin="round" d="M15.5 8a7.5 7.5 0 1 1-15 0 7.5 7.5 0 0 1 15 0Z"/><path d="M8.236 2.725s-2.988-.172-3.635 1.396c0 0-.5.888.374 1.303.626.297 1.117-.374 1.117-.374s.523-.719 1.688-.751c.732-.02 1.404.272 1.607 1.06.171.663-1.019 1.717-2.118 2.64-.798.67-.437 1.593-.267 1.799s.855.585 1.233-.031c.273-.445-.133-.635.759-1.146.266-.152 2.882-1.637 2.51-3.831-.205-.528-.606-1.996-3.269-2.064Z"/><ellipse cx="7.78" cy="12.243" rx="1.056" ry="1.037"/></svg>