<!-- SPDX-FileCopyrightText: © 2025 Schneider Electric SPDX-License-Identifier: LicenseRef-Proprietary -->
<svg xmlns="http://www.w3.org/2000/svg" viewBox="0 0 16 16"><path fill="none" stroke="currentColor" stroke-linecap="round" stroke-linejoin="round" d="M15.5 4.652V13.5H.5V2.652h15"/><path d="M13.612 8.787a.52.52 0 0 0-.376-.153q-.256 0-.372.151a1.3 1.3 0 0 0-.194.391q-.186.508-.552.771-.366.262-.895.262-.488 0-.851-.231-.364-.232-.562-.7-.198-.47-.198-1.176 0-1.058.448-1.632.449-.574 1.205-.574.475 0 .8.223.324.223.564.674.144.273.262.384t.353.112q.21 0 .36-.161a.53.53 0 0 0 .149-.372q0-.384-.306-.816t-.88-.725c-.574-.293-.82-.293-1.31-.293q-.603 0-1.137.215a2.7 2.7 0 0 0-.93.626 2.8 2.8 0 0 0-.61.99 3.8 3.8 0 0 0-.213 1.31q0 .45.085.851.084.401.254.754.17.354.409.638a2.4 2.4 0 0 0 .589.506q.32.193.713.283c.393.09.552.091.872.091q.633 0 1.108-.202c.475-.202.577-.311.781-.527q.306-.325.448-.661.143-.337.143-.626a.5.5 0 0 0-.157-.38Zm-6.513-.256q-.257 0-.372.151a1.3 1.3 0 0 0-.194.391q-.186.509-.552.771t-.895.262q-.488 0-.851-.231-.364-.232-.562-.7c-.198-.468-.198-.705-.198-1.176q0-1.058.448-1.632.449-.575 1.205-.575.475 0 .8.223.324.223.564.674.144.273.262.384c.118.111.196.112.353.112q.21 0 .36-.161a.53.53 0 0 0 .149-.372q0-.384-.306-.816c-.306-.432-.497-.53-.88-.725s-.82-.293-1.31-.293q-.603 0-1.137.215a2.7 2.7 0 0 0-.93.626 2.8 2.8 0 0 0-.61.99 3.8 3.8 0 0 0-.213 1.31q0 .45.085.851.084.401.254.754.17.354.409.638a2.4 2.4 0 0 0 .589.506q.32.192.713.283c.393.091.552.091.872.091q.633 0 1.108-.203a2.3 2.3 0 0 0 1.229-1.188q.143-.337.143-.626a.5.5 0 0 0-.157-.38.52.52 0 0 0-.376-.153Z"/></svg>