<!-- SPDX-FileCopyrightText: © 2025 Schneider Electric SPDX-License-Identifier: LicenseRef-Proprietary -->
<svg xmlns="http://www.w3.org/2000/svg" viewBox="0 0 16 16"><path fill="none" stroke="currentColor" stroke-linecap="round" stroke-linejoin="round" d="M5.174 9.028 4.131 5.904c-.024-.02-.072-.075-.101-.087L.5 6.283m6.275 6.683s-3.477.229-4.805-1.577 2.058-5.55 2.058-5.55m4.926-1.135 3.422.239c.075-.006.006.029.03.009l1.203-3.192M4.884 4.097S6.304.869 8.499.518s3.88 4.433 3.88 4.433m-.321 5.376L9.26 12.602a.6.6 0 0 0 0 .123l2.558 2.775m1.977-8.891s2.019 2.881 1.201 4.977-5.735 1.139-5.735 1.139"/></svg>