<!-- SPDX-FileCopyrightText: Reddit, Inc. © 2023. All rights reserved. SPDX-License-Identifier: LicenseRef-Proprietary -->
<svg xmlns="http://www.w3.org/2000/svg" viewBox="0 0 256 256"><path fill="#ff4500" d="M200.56 98.04c-6.85 0-13.16 2.31-18.2 6.19-13.72-8.49-31.04-13.83-49.99-14.54v-.08c0-12.7 9.44-23.24 21.68-24.97 2.22 9.41 10.67 16.42 20.76 16.42 11.78 0 21.33-9.55 21.33-21.33s-9.55-21.33-21.33-21.33c-10.3 0-18.89 7.3-20.89 17.01-17.25 1.85-30.72 16.48-30.72 34.21v.11c-18.76.79-35.89 6.13-49.49 14.56a29.75 29.75 0 0 0-18.27-6.24c-16.51 0-29.89 13.38-29.89 29.89 0 11.98 7.04 22.3 17.21 27.07.99 34.7 38.8 62.61 85.31 62.61s84.37-27.94 85.31-62.67c10.09-4.8 17.07-15.09 17.07-27 0-16.51-13.38-29.89-29.89-29.89Z"/></svg>