<!-- SPDX-FileCopyrightText: Reddit, Inc. © 2023. All rights reserved. SPDX-License-Identifier: LicenseRef-Proprietary -->
<svg xmlns="http://www.w3.org/2000/svg" x="0" y="0" version="1.1" viewBox="0 0 256 256"><path fill="#ff4500" d="M0 0h256v256H0z"/><radialGradient id="a" cx="1398.155" cy="1.811" r="127.45" fx="1398.155" fy="-7.319" gradientTransform="matrix(.47 0 0 -.41 -457.82 108.3)" gradientUnits="userSpaceOnUse"><stop offset="0" stop-color="#feffff"/><stop offset=".4" stop-color="#feffff"/><stop offset=".51" stop-color="#f9fcfc"/><stop offset=".62" stop-color="#edf3f5"/><stop offset=".7" stop-color="#dee9ec"/><stop offset=".72" stop-color="#d8e4e8"/><stop offset=".76" stop-color="#ccd8df"/><stop offset=".8" stop-color="#c8d5dd"/><stop offset=".83" stop-color="#ccd6de"/><stop offset=".85" stop-color="#d8dbe2"/><stop offset=".88" stop-color="#ede3e9"/><stop offset=".9" stop-color="#ffebef"/></radialGradient><circle cx="200.6" cy="123.7" r="29.9" fill="url(#a)"/><radialGradient id="b" cx="1089.389" cy="1.811" r="127.45" fx="1089.389" fy="-7.319" gradientTransform="matrix(.47 0 0 -.41 -457.82 108.3)" gradientUnits="userSpaceOnUse"><stop offset="0" stop-color="#feffff"/><stop offset=".4" stop-color="#feffff"/><stop offset=".51" stop-color="#f9fcfc"/><stop offset=".62" stop-color="#edf3f5"/><stop offset=".7" stop-color="#dee9ec"/><stop offset=".72" stop-color="#d8e4e8"/><stop offset=".76" stop-color="#ccd8df"/><stop offset=".8" stop-color="#c8d5dd"/><stop offset=".83" stop-color="#ccd6de"/><stop offset=".85" stop-color="#d8dbe2"/><stop offset=".88" stop-color="#ede3e9"/><stop offset=".9" stop-color="#ffebef"/></radialGradient><circle cx="55.4" cy="123.7" r="29.9" fill="url(#b)"/><radialGradient id="c" cx="1247.805" cy="-224.685" r="384.44" gradientTransform="matrix(.47 0 0 -.33 -457.82 25.03)" gradientUnits="userSpaceOnUse"><stop offset="0" stop-color="#feffff"/><stop offset=".4" stop-color="#feffff"/><stop offset=".51" stop-color="#f9fcfc"/><stop offset=".62" stop-color="#edf3f5"/><stop offset=".7" stop-color="#dee9ec"/><stop offset=".72" stop-color="#d8e4e8"/><stop offset=".76" stop-color="#ccd8df"/><stop offset=".8" stop-color="#c8d5dd"/><stop offset=".83" stop-color="#ccd6de"/><stop offset=".85" stop-color="#d8dbe2"/><stop offset=".88" stop-color="#ede3e9"/><stop offset=".9" stop-color="#ffebef"/></radialGradient><ellipse cx="128.1" cy="149.3" fill="url(#c)" rx="85.3" ry="64"/><path d="M102.8 143.1c-.5 10.8-7.7 14.8-16.1 14.8s-14.8-5.6-14.3-16.4 7.7-18 16.1-18 14.8 8.8 14.3 19.6zm80.8-1.6c.5 10.8-5.9 16.4-14.3 16.4s-15.6-3.9-16.1-14.8c-.5-10.8 5.9-19.6 14.3-19.6s15.6 7.1 16.1 18z" class="st4"/><radialGradient id="d" cx="-2540.135" cy="173.422" r="32.12" gradientTransform="matrix(-.47 0 0 .69 -1026.88 31.31)" gradientUnits="userSpaceOnUse"><stop offset="0" stop-color="#f60"/><stop offset=".5" stop-color="#ff4500"/><stop offset=".7" stop-color="#fc4301"/><stop offset=".82" stop-color="#f43f07"/><stop offset=".92" stop-color="#e53812"/><stop offset="1" stop-color="#d4301f"/></radialGradient><path fill="url(#d)" d="M153.3 144.1c.5 10.1 7.2 13.8 15 13.8s13.8-5.5 13.4-15.7c-.5-10.1-7.2-16.8-15-16.8s-13.9 8.5-13.4 18.7z"/><radialGradient id="e" cx="1162.355" cy="173.422" r="32.12" gradientTransform="matrix(.47 0 0 .69 -457.82 31.31)" gradientUnits="userSpaceOnUse"><stop offset="0" stop-color="#f60"/><stop offset=".5" stop-color="#ff4500"/><stop offset=".7" stop-color="#fc4301"/><stop offset=".82" stop-color="#f43f07"/><stop offset=".92" stop-color="#e53812"/><stop offset="1" stop-color="#d4301f"/></radialGradient><path fill="url(#e)" d="M102.8 144.1c-.5 10.1-7.2 13.8-15 13.8s-13.8-5.5-13.3-15.7c.5-10.1 7.2-16.8 15-16.8s13.8 8.5 13.3 18.7z"/><path fill="#bbcfda" d="M128.1 165.1c-10.6 0-20.7.5-30.1 1.4-1.6.2-2.6 1.8-2 3.2 5.2 12.3 17.6 21 32.1 21s26.8-8.6 32.1-21c.6-1.5-.4-3.1-2-3.2-9.4-.9-19.5-1.4-30.1-1.4z"/><path fill="#fff" d="M128.1 167.5c-10.6 0-20.7.5-30 1.5-1.6.2-2.6 1.8-2 3.3 5.2 12.5 17.6 21.3 32 21.3s26.8-8.8 32-21.3c.6-1.5-.4-3.1-2-3.3-9.4-1-19.5-1.5-30-1.5z"/><radialGradient id="f" cx="1243.585" cy="-508.476" r="113.26" gradientTransform="matrix(.47 0 0 -.31 -457.82 37.28)" gradientUnits="userSpaceOnUse"><stop offset="0" stop-color="#172e35"/><stop offset=".29" stop-color="#0e1c21"/><stop offset=".73" stop-color="#030708"/><stop offset="1" stop-color="#000"/></radialGradient><path fill="url(#f)" d="M128.1 166.2c-10.4 0-20.3.5-29.5 1.4-1.6.2-2.6 1.8-2 3.2 5.2 12.3 17.3 21 31.5 21s26.3-8.6 31.5-21c.6-1.5-.4-3.1-2-3.2-9.2-.8-19.1-1.4-29.5-1.4z"/><radialGradient id="g" cx="1343.475" cy="277.902" r="99.42" gradientTransform="matrix(.47 0 0 -.47 -457.82 164.72)" gradientUnits="userSpaceOnUse"><stop offset="0" stop-color="#feffff"/><stop offset=".4" stop-color="#feffff"/><stop offset=".51" stop-color="#f9fcfc"/><stop offset=".62" stop-color="#edf3f5"/><stop offset=".7" stop-color="#dee9ec"/><stop offset=".72" stop-color="#d8e4e8"/><stop offset=".76" stop-color="#ccd8df"/><stop offset=".8" stop-color="#c8d5dd"/><stop offset=".83" stop-color="#ccd6de"/><stop offset=".85" stop-color="#d8dbe2"/><stop offset=".88" stop-color="#ede3e9"/><stop offset=".9" stop-color="#ffebef"/></radialGradient><circle cx="174.8" cy="55.5" r="21.2" fill="url(#g)"/><radialGradient id="h" cx="1302.035" cy="177.562" r="81.49" gradientTransform="matrix(.47 0 0 -.47 -457.82 168.5)" gradientUnits="userSpaceOnUse"><stop offset=".48" stop-color="#7a9299"/><stop offset=".67" stop-color="#172e35"/><stop offset=".75" stop-color="#000"/><stop offset=".82" stop-color="#172e35"/></radialGradient><path fill="url(#h)" d="M127.8 88c-2.5 0-4.6-1.1-4.6-2.7 0-19 15.4-34.4 34.4-34.4 2.5 0 4.6 2.1 4.6 4.6s-2.1 4.6-4.6 4.6c-13.9 0-25.2 11.3-25.2 25.2 0 1.7-2.1 2.7-4.6 2.7z"/><path d="M97.3 149.1c0 3.9-4.2 5.7-9.3 5.7s-9.3-1.8-9.3-5.7 4.2-7.1 9.3-7.1 9.3 3.1 9.3 7.1zm80.2 0c0 3.9-4.2 5.7-9.3 5.7s-9.3-1.8-9.3-5.7 4.2-7.1 9.3-7.1 9.3 3.1 9.3 7.1z" class="st12"/><ellipse cx="94.4" cy="134.8" class="st13" rx="3.3" ry="3.6"/><ellipse cx="173.3" cy="134.8" class="st13" rx="3.3" ry="3.6"/></svg>