<!-- SPDX-FileCopyrightText: © 2025 Schneider Electric SPDX-License-Identifier: LicenseRef-Proprietary -->
<svg xmlns="http://www.w3.org/2000/svg" viewBox="0 0 16 16"><path fill="none" stroke="currentColor" stroke-linecap="round" stroke-linejoin="round" d="M6.45 15.498a1.79 1.79 0 0 1-1.374-1.963 1.785 1.785 0 0 1 1.978-1.569 1.78 1.78 0 0 1 1.545 1.525m5.89-5.462a1.778 1.778 0 0 0-1.526-3.209 1.78 1.78 0 0 0-.841 2.368M4.5 15.5h5M3.534 1.298A.797.797 0 0 0 2.737.5H1.291a.79.79 0 0 0-.791.791v3.4a.8.8 0 0 0 .793.8l1.207.01m.993-1.796c0 .439.407.795.909.795h1.319c.196 0 .479-.16.628-.405.232-.382.177-.944.177-1.212l-.025-1.648C6.501.796 6.118.5 5.615.5H4.412c-.502 0-.909.356-.909.795M6.359.816c.724.635 3.353 2.642 4.881 3.283 1.209.508 1.646.436 2.483.548M9.47 5.873c-.319-.336-.735-.679-1.485-1.068-.495-.257-.958-.576-1.513-.792m8.144 3.944a16.8 16.8 0 0 0-3.493 2.597c-1.297 1.257-1.961 2.062-2.508 2.975m-.791-3.448a16.7 16.7 0 0 0 4.458-4.694"/></svg>