<!-- SPDX-FileCopyrightText: © 2025 Schneider Electric SPDX-License-Identifier: LicenseRef-Proprietary -->
<svg xmlns="http://www.w3.org/2000/svg" viewBox="0 0 16 16"><path fill="none" stroke="currentColor" stroke-linecap="round" stroke-linejoin="round" d="m8.523 11.463-1.507 1.055-1.507-1.055M12.5 1.501H3.009c-.833 0-1.509.703-1.509 1.571v5.502c0 .512.399.927.89.927h8.148a.9.9 0 0 0 .674-.315.96.96 0 0 0 .228-.624M1.5 14.501h13V3.171c0-1.194-.944-1.672-1.611-1.672-1.268 0-1.389.92-1.389 1.573v3.43m-2 .999h-8m8-2h-8m8-2h-8"/></svg>