<!-- SPDX-FileCopyrightText: © 2025 Schneider Electric SPDX-License-Identifier: LicenseRef-Proprietary -->
<svg xmlns="http://www.w3.org/2000/svg" viewBox="0 0 16 16"><path fill="none" stroke="currentColor" stroke-linecap="round" stroke-linejoin="round" d="M2.5 15.5H1.332a.83.83 0 0 1-.832-.832v-3.337a.83.83 0 0 1 .831-.831h13.338a.83.83 0 0 1 .831.831v3.337c0 .46-.373.832-.832.832H4.447M2.868 5.237V10.5m2.831-5.918c.036-.336-.352-1.962-1.978-1.961m4.007 1.131C7.676 2.249 6.102.498 4.476.5"/><circle cx="2.868" cy="13.132" r=".395"/><circle cx="5.237" cy="13.132" r=".395"/><circle cx="7.605" cy="13.132" r=".395"/><circle cx="13.132" cy="13.132" r=".395"/></svg>