<!-- SPDX-FileCopyrightText: © 2025 Schneider Electric SPDX-License-Identifier: LicenseRef-Proprietary -->
<svg xmlns="http://www.w3.org/2000/svg" viewBox="0 0 16 16"><path fill="none" stroke="currentColor" stroke-linecap="round" stroke-linejoin="round" stroke-width=".998" d="M10.38 9.297c-.434 1.111-.573 2.155-1.439 2.203s-2.134.018-2.134.018-.762-1.719-1.327-1.719-1.197 1.719-1.197 1.719-1.327-.018-2.194-.018c-.808 0-1.504-1.024-1.688-3.952l9.811-.048s2.791-2.802 3.368-3.333 1.251-.483 2.021-.097M3.65 7.814 2.17 9.3m3.061-1.406-1.02 1.004m1.798-4.806c-.708-.355-1.327-.4-1.858.089S2.479 5.885 2.479 5.885"/></svg>