<!-- SPDX-FileCopyrightText: © 2025 Schneider Electric SPDX-License-Identifier: LicenseRef-Proprietary -->
<svg xmlns="http://www.w3.org/2000/svg" viewBox="0 0 16 16"><path fill="none" stroke="currentColor" stroke-linecap="round" stroke-linejoin="round" d="m11.221 8.239-.72.768-2.502-.906.861 2.451-2.39-.91.574 2.613-2.335-.95.427 2.636-2.259-.833.306 1.336-1.452 1.057L.5 14.287s2.689-4.879 4.808-7.845C7.42 3.464 10.21 1.046 10.394.879c1.192-1.082 1.974.344 3.449 1.863 1.033 1.064 1.795 1.981 1.637 2.868-.068.38-1.349 1.715-1.857 1.753-.78.059-1.558-.734-2.451-1.653a70 70 0 0 1-1.174-1.274c-.34-.363.07-.686.07-.686l.843-.9s.322-.38.744.071l1.836 1.959"/></svg>