<!-- SPDX-FileCopyrightText: © 2025 Schneider Electric SPDX-License-Identifier: LicenseRef-Proprietary -->
<svg xmlns="http://www.w3.org/2000/svg" viewBox="0 0 16 16"><path d="M4.641 4.631h.745v.745h-.745zm.039 5.983h.745v.745H4.68zm5.902-5.983h.745v.745h-.745z"/><path fill="none" stroke="currentColor" stroke-linecap="round" stroke-linejoin="round" d="M5.5 14.5H1.678c-.098 0-.178-.121-.178-.271V10.5m9 4h3.73c.149 0 .27-.08.27-.178V10.5m-9-9H1.678c-.098 0-.178.121-.178.271V5.5m13 0V1.678c0-.098-.121-.178-.27-.178H10.5m-4 2h-3v3h3zm6.009 5.966h-.611V11.3m-1.223-.501v.973m.611.751h1.223v-.611m-3.057 0v.611h.611m.612-3.057H9.452c.053-.053.01 1.207.01 1.207M6.5 9.5h-3v3h3zm6-6h-3v3h3z"/></svg>