<!-- SPDX-FileCopyrightText: © 2025 Schneider Electric SPDX-License-Identifier: LicenseRef-Proprietary -->
<svg xmlns="http://www.w3.org/2000/svg" viewBox="0 0 16 16"><path fill="none" stroke="currentColor" stroke-linecap="round" stroke-linejoin="round" d="M11.714 4.358c1.138 2.015.848 5.619-.062 7.285m-2.155-.886c.771-1.625.827-3.603.077-5.515M3.693 9.375c-.291-.901-.32-1.753-.087-2.732l3.671 3.216c.533-1.172.562-2.393.077-3.72M1.5 10.5v3.729c0 .15.08.271.178.271H5.5m5 0h3.73c.149 0 .27-.08.27-.178V10.5m-9-9H1.678c-.098 0-.178.121-.178.271V5.5m13 0V1.678c0-.098-.121-.178-.27-.178H10.5"/></svg>