<!-- SPDX-FileCopyrightText: © 2025 Schneider Electric SPDX-License-Identifier: LicenseRef-Proprietary -->
<svg xmlns="http://www.w3.org/2000/svg" viewBox="0 0 16 16"><path fill="none" stroke="currentColor" stroke-linecap="round" stroke-linejoin="round" stroke-width="1.035" d="M14.701 4.397c0 2.152-3.003 3.897-6.706 3.897-.755 0-1.481-.072-2.158-.206m6.867-2.751c-.792.826-2.552 1.519-4.71 1.519-2.955 0-5.162-1.298-5.162-2.459S5.04 1.938 7.994 1.938c2.372 0 4.263.837 4.916 1.767l1.336-.721C13.272 1.53 10.84.5 7.994.5 4.29.5 1.288 2.245 1.288 4.397c0 1.257 1.024 2.374 2.613 3.087m-2.859-1.41c0 1.206 1.01 2.208 2.541 2.857m2.271.627c.681.113 1.402.173 2.14.173 3.704 0 6.964-1.505 6.964-3.657M1.042 7.511c0 1.212 1.02 2.218 2.564 2.867m2.265.62c.676.111 1.391.17 2.123.17 3.704 0 6.964-1.505 6.964-3.657M1.042 8.949c0 1.207 1.012 2.211 2.546 2.859m2.246.622c.687.115 1.414.176 2.16.176 3.704 0 6.964-1.505 6.964-3.657M1.042 10.387c0 1.206 1.01 2.209 2.541 2.857m2.241.622c.69.116 1.421.178 2.17.178 3.704 0 6.964-1.505 6.964-3.657M1.279 4.435v7.156c0 2.159 2.819 3.909 6.534 3.909s6.887-1.75 6.887-3.909V4.435"/></svg>