<!-- SPDX-FileCopyrightText: © 2025 Schneider Electric SPDX-License-Identifier: LicenseRef-Proprietary -->
<svg xmlns="http://www.w3.org/2000/svg" viewBox="0 0 16 16"><path fill="none" stroke="currentColor" stroke-linecap="round" stroke-linejoin="round" d="M6.541 14.087c-1.874.839-3.583.863-4.533-.122-1.61-1.669-.423-5.604 2.65-8.79M14.5 3.5l-.817-.928C12.073.903 7.732 1.99 4.659 5.176m1.715 3.992.816.816h1.117l.613 1.731 3.416 3.416a1.263 1.263 0 0 0 1.786 0l1.007-1.007a1.263 1.263 0 0 0 0-1.786l-3.416-3.416-1.731-.613V7.192l-.816-.816-1.397 1.397L.5.5m12 3h2v-2"/></svg>