<!-- SPDX-FileCopyrightText: © 2025 Schneider Electric SPDX-License-Identifier: LicenseRef-Proprietary -->
<svg xmlns="http://www.w3.org/2000/svg" viewBox="0 0 16 16"><path fill="none" stroke="currentColor" stroke-linecap="round" stroke-linejoin="round" d="m.5.5 15 15M4.712 10.75c1.235.62 3.081.755 4.762.508m2.813-.911c.435-.261.776-.568.979-.913m-7.05-.952q-.533.093-1.056.227m4.93-.331c1.165.144 2.27.452 3.239.924l2.17-2.304a10.8 10.8 0 0 1-2.872-1.448 26.7 26.7 0 0 1-4.596-1.382q-.77.299-1.543.552m-3.116.829A10.8 10.8 0 0 1 .5 6.997l2.171 2.304"/></svg>