<!-- SPDX-FileCopyrightText: © 2025 Schneider Electric SPDX-License-Identifier: LicenseRef-Proprietary -->
<svg xmlns="http://www.w3.org/2000/svg" viewBox="0 0 16 16"><path fill="none" stroke="currentColor" stroke-linecap="round" stroke-linejoin="round" d="m15.5 9.458-1.83.766h0l-.642-1.911m.705 1.729c1.678-2.469 1.086-4.535-1.153-4.605M2.971 7.349l-.642-1.912h0l-1.83.766m1.768-.583C.589 8.089 1.181 10.155 3.42 10.225m2.379 4.859c1.63.833 4.888.351 5.599-.877m-5.307-.483c1.839-.482 3.844-.351 5.348.395l1.421-1.535a7 7 0 0 1-1.88-.965 17.3 17.3 0 0 1-3.008-.921 19 19 0 0 1-3.05.921 7 7 0 0 1-1.88.965l1.421 1.535m1.336-9.234c1.63.834 4.888.351 5.599-.877m-5.307-.482c1.839-.482 3.844-.351 5.348.394l1.421-1.535a7 7 0 0 1-1.88-.965A17 17 0 0 1 7.972.499a19 19 0 0 1-3.05.921 7 7 0 0 1-1.88.965L4.463 3.92"/></svg>