<!-- SPDX-FileCopyrightText: © 2025 Schneider Electric SPDX-License-Identifier: LicenseRef-Proprietary -->
<svg xmlns="http://www.w3.org/2000/svg" viewBox="0 0 16 16"><path fill="none" stroke="currentColor" stroke-linecap="round" stroke-linejoin="round" d="M11.69 4.479c-.652 1.585-.066 2.761-.652 4.086-.364.636-1.771 1.375-1.771 1.375m-3.209.565-.872 2.24 1.934-.413.288.413m2.985-2.021.855 2.021-1.862-.413-.475.551.374 2.618M14.5 10.5l-2.458.013c1.496.145 3.084 1.511 3.225 3.004l.234 1.975M1.5 10.5h4.558m-2.1.005c-1.651 0-3.037 2.049-3.224 3.268L.5 15.5m2.897 0c.047-2.112-.748-3.627-1.168-3.857m7.04-1.671.231.661.893.092M5.64 5.091c1.823.873 5.467.367 6.262-.918m-5.935-.505c2.056-.505 4.299-.367 5.981.413l1.589-1.607a8 8 0 0 1-2.103-1.01A20.3 20.3 0 0 1 8.069.5a22 22 0 0 1-3.411.964 8 8 0 0 1-2.103 1.01l1.589 1.607"/></svg>