<!-- SPDX-FileCopyrightText: © 2025 Schneider Electric SPDX-License-Identifier: LicenseRef-Proprietary -->
<svg xmlns="http://www.w3.org/2000/svg" viewBox="0 0 16 16"><path fill="none" stroke="currentColor" stroke-linecap="round" stroke-linejoin="round" d="M7.998 6.016v-2.58M5.894 8.055h-2.58m6.748 0h2.58m-4.644-.573a.573.573 0 1 0 0 1.146.573.573 0 0 0 0-1.146Zm0 3.83a3.256 3.256 0 1 0-2.132-.795M7.999.5C4.269 2.961.533 2.893.533 2.893-.009 13.572 6.33 15.242 7.999 15.5v-5.386m2.388 4.759c2.34-1.119 5.478-4.091 5.078-11.98 0 0-4.275-.038-7.466-2.393"/></svg>