<!-- SPDX-FileCopyrightText: © 2025 Schneider Electric SPDX-License-Identifier: LicenseRef-Proprietary -->
<svg xmlns="http://www.w3.org/2000/svg" viewBox="0 0 16 16"><path fill="none" stroke="currentColor" stroke-linecap="round" stroke-linejoin="round" d="M14.608 9.558c-6.118 4.568-9.507 2.274-10.003 1.385m10.597-3.2c.252-1.364.359-2.967.263-4.853 0 0-4.274-.038-7.465-2.384C4.271 2.957.535 2.89.535 2.89c-.629 12.362 7.432 12.607 7.497 12.604 1.193-.01 2.356-.671 2.356-.671 1.46-.695 3.125-1.896 4.365-5.348M6.612 5.642q.312.042.653.065a10.6 10.6 0 0 0 2.055-.065q.313-.042.591-.103a4.4 4.4 0 0 0 .94-.302q.188-.089.321-.19c.133-.101.156-.137.203-.21s.071-.148.071-.225-.024-.153-.071-.225-.115-.143-.203-.21-.196-.13-.321-.19-.267-.115-.425-.165-.33-.096-.515-.137-.383-.075-.591-.103-.426-.05-.653-.065a10.6 10.6 0 0 0-2.055.065q-.313.042-.591.103a4.4 4.4 0 0 0-.94.302q-.188.089-.321.19c-.133.101-.156.137-.203.21s-.071.148-.071.225m.002 1.812c0 .753 1.637 1.614 3.657 1.614.487 0 .932-.055 1.341-.136m-4.998.836c0 .753 1.637 1.419 3.657 1.419.495 0 .947-.057 1.361-.14M4.5 4.5v6.2c0 .677 1.567 1.546 3.5 1.546s3.5-.549 3.5-1.225V7.043"/></svg>