<!-- SPDX-FileCopyrightText: © 2025 Schneider Electric SPDX-License-Identifier: LicenseRef-Proprietary -->
<svg xmlns="http://www.w3.org/2000/svg" viewBox="0 0 16 16"><path fill="none" stroke="currentColor" stroke-linecap="round" stroke-linejoin="round" d="M4.497 14.118C2.727 12.784-.053 9.599.596 3.001c0 0 4.832-.505 7.399-2.501 2.558 2.004 7.391 2.501 7.391 2.501q.102 1.11.091 2.099M11.5 8.5H7.763c-.75.022-1.335.636-1.263 1.377v4.239c-.072.763.55 1.384 1.315 1.384h6.297c.766 0 1.387-.621 1.387-1.387V9.888c0-.766-.621-1.387-1.387-1.387h-.613M12.12 5.158l-1.362-1.061-.007.009c-.946-.686-2.27-.528-3.015.391s-.625 2.247.242 3.03l-.007.009 1.077.873"/><path d="M11.105 14.062q-.195 0-.312-.12c-.117-.12-.117-.183-.117-.309q0-.183.117-.3c.117-.117.182-.117.312-.117q.2 0 .312.117c.112.117.111.178.111.3q0 .189-.111.309c-.111.12-.178.12-.312.12Zm0-1.189q-.11 0-.169-.069c-.059-.069-.064-.11-.071-.194l-.171-2.184a.45.45 0 0 1 .091-.341q.108-.128.32-.128.205 0 .312.128.106.129.088.341l-.171 2.184q-.006.125-.066.194c-.06.069-.094.069-.163.069Z"/></svg>