<!-- SPDX-FileCopyrightText: © 2025 Schneider Electric SPDX-License-Identifier: LicenseRef-Proprietary -->
<svg xmlns="http://www.w3.org/2000/svg" viewBox="0 0 16 16"><path fill="none" stroke="currentColor" stroke-linecap="round" stroke-linejoin="round" d="M5.179 7.498c-.409 0-.794-.16-1.084-.449a1.52 1.52 0 0 1-.449-1.084c0-.461.203-.917.544-1.219.275-.244.612-.357.948-.316v.026a2.51 2.51 0 0 1 2.39-1.728c.638 0 1.252.228 1.725.64s.766.975.825 1.585l.221-.084q.21-.076.438-.076c.334 0 .646.138.878.39.234.253.363.588.363.943 0 .709-.577 1.287-1.287 1.287l-3.213.115.838 3.932 1.802-1.118.699 3.502m.027.07c2.966-1.529 3.655-3.437 3.655-3.437V3.823M1.5 3.821v6.926m12.999-6.926c0-1.302-2.938-3.321-6.5-3.321S1.5 2.519 1.5 3.821m0 6.926s1.15 3.68 5.882 4.753"/></svg>