<!-- SPDX-FileCopyrightText: © 2025 Schneider Electric SPDX-License-Identifier: LicenseRef-Proprietary -->
<svg xmlns="http://www.w3.org/2000/svg" viewBox="0 0 16 16"><path fill="none" stroke="currentColor" stroke-linecap="round" stroke-linejoin="round" d="M7.623 15.5v-2.653s-.082-.229-1.553-.649c-2.667-.762-.305-4.441-1.883-6.157 1.261.295 1.61 1.67 1.61 1.67.906-1.52 1.215-2.844.328-4.475 3.273.639 3.425 3.351 3.425 3.351.346-1.034 3.279-1.838 2.97-1.401-.44.623-1.154 2.309-.747 3.466.328 1.834-.738 2.927-1.921 3.303-2.069.656 1.017-2.284-1.41-3.935-1.006.569-1.197 1.65-1.063 2.253m3.065 3.84c3.311-1.557 4.056-3.637 4.056-3.637V3.822m-13-.001v6.926m13-6.926C14.5 2.519 11.562.5 8 .5S1.5 2.519 1.5 3.821m0 6.926s1.15 3.68 5.882 4.753"/></svg>