<!-- SPDX-FileCopyrightText: © 2025 Schneider Electric SPDX-License-Identifier: LicenseRef-Proprietary -->
<svg xmlns="http://www.w3.org/2000/svg" viewBox="0 0 16 16"><path fill="none" stroke="currentColor" stroke-linecap="round" stroke-linejoin="round" d="M7.999 12.342V15.5C6.33 15.242-.009 13.572.533 2.893c0 0 3.736.067 7.466-2.393m2.388 14.373c2.34-1.119 5.478-4.091 5.078-11.98 0 0-4.275-.038-7.466-2.393m1.975 5.987v-1.73h-.011C9.907 3.791 9.054 3.021 8 3.021s-1.907.77-1.963 1.736h-.011v1.73m2.997 3.985L7.019 8.501m2.004 0-2.004 1.971m2.832 1.87h.497c.665 0 1.204-.539 1.204-1.204V7.691c0-.665-.539-1.204-1.204-1.204H7.845m-1.819 0h-.375c-.665 0-1.204.539-1.204 1.204v3.447c0 .665.539 1.204 1.204 1.204h2.285"/></svg>