<!-- SPDX-FileCopyrightText: © 2025 Schneider Electric SPDX-License-Identifier: LicenseRef-Proprietary -->
<svg xmlns="http://www.w3.org/2000/svg" viewBox="0 0 16 16"><path fill="none" stroke="currentColor" stroke-linecap="round" stroke-linejoin="round" d="M6.151 12.914 5.666 10.5h4.671l-.5 3H7.5m4.665-3.776c-.509-1.6-.238-2.031-2.205-2.316 0 0 .167-.825.071-1.333 0 0 1.015-.19 1.015-.762s-1.333-.857-1.333-.857-.032-.984-.412-1.079c-.381-.095-.635.222-1.301.222s-.92-.317-1.301-.222-.412 1.079-.412 1.079-1.333.286-1.333.857 1.015.762 1.015.762c-.095.508.071 1.333.071 1.333-1.967.286-1.697.716-2.205 2.316q-.062.202-.05.405m4.146-3.897c1.115.022 2.099-.157 2.099-.157M7.999.5C4.269 2.961.533 2.893.533 2.893.036 12.694 5.335 15.003 7.499 15.5m4.247-1.462.09-.071c1.994-1.582 3.95-4.747 3.629-11.074 0 0-4.275-.038-7.466-2.393m-.499 13v2M6.079 7.632c.662.703 1.361.891 1.981.847"/></svg>