<!-- SPDX-FileCopyrightText: © 2025 Schneider Electric SPDX-License-Identifier: LicenseRef-Proprietary -->
<svg xmlns="http://www.w3.org/2000/svg" viewBox="0 0 16 16"><path fill="none" stroke="currentColor" stroke-linecap="round" stroke-linejoin="round" d="M5.944 8c.713.436 2.057 2.465 2.057 2.465s2.058-3.76 6.872-5.799c.015-.006.001.032.001.048.016.537.007 1.126-.043 1.757-.121 1.531-.277 3.492-1.502 5.48-1.187 1.927-4.27 3.001-5.332 3.549H8c-1.062-.548-4.145-1.622-5.332-3.549-1.225-1.989-1.38-3.949-1.502-5.48a16.2 16.2 0 0 1 .123-3.637c.669-.021 3.226-.602 4.472-1.189C6.826 1.142 7.664.837 8.001.5h-.003c.336.336 1.174.642 2.24 1.145 1.245.588 3.803 1.168 4.472 1.189"/></svg>