<!-- SPDX-FileCopyrightText: © 2025 Schneider Electric SPDX-License-Identifier: LicenseRef-Proprietary -->
<svg xmlns="http://www.w3.org/2000/svg" viewBox="0 0 16 16"><circle cx="6.683" cy="2.345" r=".5"/><circle cx="7.983" cy="4.071" r=".5"/><circle cx="8.793" cy="2.543" r=".5"/><path fill="none" stroke="currentColor" stroke-linecap="round" stroke-linejoin="round" d="m11.113 9.752.46 1.07a.438.438 0 0 1-.369.677H4.681a.439.439 0 0 1-.369-.677L6.437 6.48l.063-.235V5.128c0-.096.011-.561-.162-.593H5.5m9 0H9.633c-.171-.005-.133.701-.133.701v1.069s.022.162.063.233l.834 1.679-.003.006c-.113.147-.331.246-.581.246s-.467-.099-.58-.246c-.113.147-.367.291-.791.291-.362 0-.602-.142-.715-.289a.95.95 0 0 1-.666.244c-.454-.008-.785-.436-.824-.467m8.262-.502v3m0-5.965c0-.241.003-.708 0-.714m-13-.321v7m13-6.679c0-1.302-2.938-3.321-6.5-3.321s-6.5 1.698-6.5 3m6.5 12c4.03-1.078 6.505-4.76 6.5-4.753m-13-.247s2.424 4.339 6.5 5"/></svg>