<!-- SPDX-FileCopyrightText: © 2025 Schneider Electric SPDX-License-Identifier: LicenseRef-Proprietary -->
<svg xmlns="http://www.w3.org/2000/svg" viewBox="0 0 16 16"><path fill="none" stroke="currentColor" stroke-linecap="round" stroke-linejoin="round" d="m9.422 6.163-.283 2.494s0 1.077.935.992 1.474-.794 1.474-2.324-1.049-3.515-3.769-3.43S4.038 6.361 4.01 7.92s1.174 4.336 3.923 4.392 6.284-1.855 6.284-1.855c-.696 1.894-1.7 2.866-1.7 2.866-.809.923-2.63 2.013-4.48 2.177 0 0-8.132-.242-7.502-12.614 0 0 3.738.067 7.47-2.386 3.193 2.348 7.47 2.386 7.47 2.386.11 2.305-.153 3.992-.716 5.262m-5.565-.965s-.312-1.159-1.287-1.12c-.871.034-1.604.496-1.689 1.942-.077 1.302.529 1.672.99 1.749 0 0 2.017.08 1.986-2.571Z"/></svg>