<!-- SPDX-FileCopyrightText: © 2025 Schneider Electric SPDX-License-Identifier: LicenseRef-Proprietary -->
<svg xmlns="http://www.w3.org/2000/svg" viewBox="0 0 16 16"><path fill="none" stroke="currentColor" stroke-linecap="round" stroke-linejoin="round" d="M8.032 15.494S-.094 15.252.535 2.89c0 0 3.736.067 7.465-2.384m2.388 14.317c2.34-1.114 5.477-4.075 5.078-11.933 0 0-4.274-.038-7.465-2.384m-.246 9.765c-.134-.603.057-1.682 1.063-2.251 2.426 1.649-.658 4.587 1.409 3.932 1.182-.375 2.247-1.468 1.919-3.3-.407-1.156.307-2.84.747-3.463.308-.437-2.621.367-2.968 1.4 0 0-.152-2.71-3.422-3.348.886 1.63.577 2.952-.328 4.471 0 0-.349-1.374-1.608-1.669 1.577 1.715-1.321 3.707 1.984 6.184L8 12.844v2.44"/></svg>