<!-- SPDX-FileCopyrightText: © 2025 Schneider Electric SPDX-License-Identifier: LicenseRef-Proprietary -->
<svg xmlns="http://www.w3.org/2000/svg" viewBox="0 0 16 16"><path fill="none" stroke="currentColor" stroke-linecap="round" stroke-linejoin="round" d="M2.5 9.497V6.634L.55 1.741S.285 1.013.978.627C1.67.242 2.149.855 2.149.855L3.865 4.5h11.636l-2.841 7H2.501l.014 1.991 1.454.003c-.328.356-.367.841-.367.841 0 .637.52 1.152 1.158 1.152s1.158-.516 1.158-1.152c0-.383-.305-.835-.305-.835h5.484c-.356.354-.289.835-.289.835.032.697.589 1.15 1.229 1.15s1.087-.514 1.087-1.15c0 0 .037-.338-.262-.794"/></svg>