<!-- SPDX-FileCopyrightText: © 2025 Schneider Electric SPDX-License-Identifier: LicenseRef-Proprietary -->
<svg xmlns="http://www.w3.org/2000/svg" viewBox="0 0 16 16"><path fill="none" stroke="currentColor" stroke-linecap="round" stroke-linejoin="round" d="m15.252 15.379-2.933-2.921-1.596 3.042L7.77 7.886l7.676 2.974-1.423.608m-.068-3.205L15.5 4.477H3.864L2.148.853S1.67.244.977.626C.285 1.01.549 1.733.549 1.733l1.95 4.865v2.847m4.668 1.992H2.501l.014 1.98 1.454.003c-.328.354-.367.836-.367.836 0 .633.52 1.146 1.158 1.146s1.158-.513 1.158-1.146c0-.381-.305-.83-.305-.83h2.39"/></svg>