<!-- SPDX-FileCopyrightText: © 2025 Schneider Electric SPDX-License-Identifier: LicenseRef-Proprietary -->
<svg xmlns="http://www.w3.org/2000/svg" viewBox="0 0 16 16"><path d="M9.192 5.256a.494.494 0 1 1-.987-.001.494.494 0 0 1 .987.001ZM11.1 5.01a.494.494 0 1 1-.856.493.494.494 0 0 1 .856-.493Zm-3.947.493a.494.494 0 1 1 .001 0Zm2.039 1.726a.494.494 0 1 1-.987-.001.494.494 0 0 1 .987.001Zm2.373-.246a.494.494 0 1 1-.856.493.494.494 0 0 1 .856-.493Zm-4.691.493a.494.494 0 1 1 .001 0Zm2.318 1.963a.494.494 0 1 1-.987-.001.494.494 0 0 1 .987.001Zm3.071-.246a.494.494 0 1 1-.856.493.494.494 0 0 1 .856-.493Zm-5.808.493a.494.494 0 1 1 .001 0Zm2.737 2.346a.494.494 0 1 1-.987-.001.494.494 0 0 1 .987.001Zm3.816-.247a.494.494 0 1 1-.856.493.494.494 0 0 1 .856-.493Zm-7.019.493a.494.494 0 1 1 .001 0Z"/><path fill="none" stroke="currentColor" stroke-linecap="round" stroke-linejoin="round" d="M2.5 15.5V3.393C2.5 2.04 3.412.787 4.743.547a2.76 2.76 0 0 1 3.271 2.711M6.5 3.5h4m-10 12h15"/></svg>