<!-- SPDX-FileCopyrightText: © 2025 Schneider Electric SPDX-License-Identifier: LicenseRef-Proprietary -->
<svg xmlns="http://www.w3.org/2000/svg" viewBox="0 0 16 16"><path fill="none" stroke="currentColor" stroke-linecap="round" stroke-linejoin="round" d="M15.462 3.314A2.814 2.814 0 0 1 12.648.5m-2.067 0a4.88 4.88 0 0 0 4.881 4.881M.529 15.543h6.129l-.126-4.438s-1.007-.181-.997-1.238c-.035-.417.025-.946.052-1.449m3.636 3.683-.091 3.442h6.396m-5.267-5.349c0-.485-.165-2.15-.165-2.774 0-.261.004-1.07-.961-1.148m-.307-.997a1.323 1.323 0 1 0-1.958-.279m1.957.252s-.162.554.307 1.023m6.334 9.229L.532.52"/></svg>