<!-- SPDX-FileCopyrightText: © 2025 Schneider Electric SPDX-License-Identifier: LicenseRef-Proprietary -->
<svg xmlns="http://www.w3.org/2000/svg" viewBox="0 0 16 16"><path fill="none" stroke="currentColor" stroke-linecap="round" stroke-linejoin="round" d="M2.5 8.5v-2h1m0-2H1.411a.914.914 0 0 0-.911.911v9.178c0 .501.41.911.911.911h6.178c.501 0 .911-.41.911-.911v-9.18c0-.5-.409-.909-.909-.909H5.5v1.526l1 .025V8.5m-1-6V1.045C5.5.612 5.157.5 4.586.5h-.013c-.93 0-1.072.192-1.072.545V4.5M2.499 8.467c0 .832.896 1.506 2.001 1.506s2-.674 2-1.506m-2.758 4.131q-.02.198.035.378c.055.18.095.228.171.324s.172.176.28.236a.955.955 0 0 0 1.064-.092.952.952 0 0 0-.136-1.578 1 1 0 0 0-.362-.114M12.314.5A3.186 3.186 0 0 0 15.5 3.686M9.974.5A5.526 5.526 0 0 0 15.5 6.026"/></svg>