<!-- SPDX-FileCopyrightText: © 2025 Schneider Electric SPDX-License-Identifier: LicenseRef-Proprietary -->
<svg xmlns="http://www.w3.org/2000/svg" viewBox="0 0 16 16"><path fill="none" stroke="currentColor" stroke-linecap="round" stroke-linejoin="round" d="M9.155 12.928c0 .64-.517 1.159-1.155 1.159s-1.155-.519-1.155-1.159.517-1.159 1.155-1.159m7.5-6.336C12.923 2.343 8.71 1.14 4.923 2.414M1.496 4.408a11 11 0 0 0-.996.998m12.802 2.53C11.892 6.273 9.969 5.374 8 5.383M4.002 6.745a8.5 8.5 0 0 0-1.304 1.191M6.262 9.36c-.476.258-.93.635-1.339 1.148M15.499 15.5.501.5"/></svg>