<!-- SPDX-FileCopyrightText: © 2025 Schneider Electric SPDX-License-Identifier: LicenseRef-Proprietary -->
<svg xmlns="http://www.w3.org/2000/svg" viewBox="0 0 16 16"><path fill="none" stroke="currentColor" stroke-linecap="round" stroke-linejoin="round" d="M9.398 12.996c.241-.291.386-.664.386-1.071 0-.758-.451-1.399-1.142-1.609v-.668c.692-.21 1.142-.851 1.142-1.609S9.333 6.64 8.642 6.43v-.718c.692-.21 1.142-.851 1.142-1.609 0-.929-.851-1.682-1.782-1.682s-1.793.753-1.793 1.682c0 .758.33 1.399 1.022 1.609v.718c-.692.21-1.022.851-1.022 1.609s.33 1.399 1.022 1.609v.668c-.692.21-1.022.851-1.022 1.609 0 .929.862 1.682 1.793 1.682v1.894H4.087a.554.554 0 0 1-.553-.552V1.052c0-.303.249-.552.553-.552h7.812c.304 0 .553.248.553.552v13.896a.555.555 0 0 1-.553.552H9.574"/></svg>