<!-- SPDX-FileCopyrightText: © 2025 Schneider Electric SPDX-License-Identifier: LicenseRef-Proprietary -->
<svg xmlns="http://www.w3.org/2000/svg" viewBox="0 0 16 16"><path fill="none" stroke="currentColor" stroke-linecap="round" stroke-linejoin="round" d="M15.5 3.668c-1.764 0-3.195-1.418-3.195-3.168m1.237 5.027c.515.296 1.27.472 1.958.472m0 9.493h-4.388l.126-4.732s1.087-.402 1.087-1.254c0-.516-.178-1.971-.178-2.636 0-.278.004-1.14-1.033-1.224 0 0-.563.006.073-1.301.574-1.182-.231-2.142-1.212-2.142-1.424-.072-1.867 1.436-1.288 2.413 0 0 .577.812-.328 1.112-.706.234-.935.671-.935 1.149 0 .651-.226 2.003-.178 2.571-.011 1.126 1.071 1.319 1.071 1.319l.134 4.724-.951.008m-.265-.007-2.138-3.028M6.15 4.767c.417-.417.417-.926.342-1.344-.108-.602-.611-1.107-1.223-1.107s-1.278.337-1.452 1.232c-.035.18-.17 1.126.595 1.589h0l-.857.116s-.596.155-.973.671c-.44.602-1.94 2.244-1.94 2.244-.184.301-.236.716.133 1.101.342.357 1.041.561 1.48.087l1.569-1.67-.422 2.984-2.132 3.34c-.269.503-.144 1.008.227 1.262.462.317 1.01.249 1.362-.103 0 0 2.635-3.609 2.856-3.924"/></svg>