<!-- SPDX-FileCopyrightText: © 2025 Schneider Electric SPDX-License-Identifier: LicenseRef-Proprietary -->
<svg xmlns="http://www.w3.org/2000/svg" viewBox="0 0 16 16"><path fill="none" stroke="currentColor" stroke-linecap="round" stroke-linejoin="round" d="M3.5 10.5v4.448a.55.55 0 0 1-.552.552h-.882a.57.57 0 0 1-.566-.566V3.5h-.057C1.145 3.5.5 3.461.5 3.173v-1.33c0-.246.638-.286.937-.286l.063-.023V.923C1.5.61 1.717.5 2.016.5h1.086s.342.104.398.402V1.5h9V.902c0-.355.814-.402.814-.402h.378c.333 0 .809.154.809.425v.618l.063.009c.333 0 .937.019.937.774l.003.374c0 .811-.581.8-.914.8h-.09l-.026 11.452a.545.545 0 0 1-.537.548h-.495c-.295 0-.942-.247-.942-.548V3.5h-9v5h7"/></svg>