<!-- SPDX-FileCopyrightText: © 2025 Schneider Electric SPDX-License-Identifier: LicenseRef-Proprietary -->
<svg xmlns="http://www.w3.org/2000/svg" viewBox="0 0 16 16"><path fill="none" stroke="currentColor" stroke-linecap="round" stroke-linejoin="round" d="M3.595 10.147c2.586-2.883 6.366-2.605 8.581 0m-1.807 2.048c-1.096-1.448-3.44-1.9-4.98.025m2.392.997c-.483 0-1.035.511-1.035 1.142s.511 1.142 1.142 1.142 1.076-.526 1.139-1.033M13.5 12.5h1.194c.445 0 .806-.416.806-.93V2.43c0-.514-.361-.93-.806-.93H1.306C.861 1.5.5 1.916.5 2.43v9.14c0 .514.361.93.806.93H2.5"/></svg>