<!-- SPDX-FileCopyrightText: © 2025 Schneider Electric SPDX-License-Identifier: LicenseRef-Proprietary -->
<svg xmlns="http://www.w3.org/2000/svg" viewBox="0 0 16 16"><path fill="none" stroke="currentColor" stroke-linecap="round" stroke-linejoin="round" d="m.5.5 15 15m-3-.454v.454m0-5.839V.974c0-.262.212-.474.474-.474h2.053c.262 0 .474.212.474.474V15.5M6.502 9.277l.004 6.223m1.358-10h1.16c.256 0 .463.207.463.463l.002 1.138m.006 4.421L9.5 15.5m-9 0V8.974c0-.262.212-.474.474-.474h2.053c.262 0 .474.212.474.474V15.5"/></svg>