<!-- SPDX-FileCopyrightText: © 2025 Schneider Electric SPDX-License-Identifier: LicenseRef-Proprietary -->
<svg xmlns="http://www.w3.org/2000/svg" viewBox="0 0 16 16"><path fill="none" stroke="currentColor" stroke-linecap="round" stroke-linejoin="round" d="M15.5.5c-2.713 1.893-3.867 4.93-3.867 4.93s-.839-1.184-1.807-1.839m2.351 6.447c-2.216-2.605-5.995-2.883-8.581 0m6.773 2.049c-1.096-1.448-3.44-1.9-4.98.025m8.111.388h1.207c.438 0 .793-.381.793-.85V7.5m-7-6H1.294C.855 1.5.5 1.881.5 2.352v9.297c0 .47.356.852.794.852H2.5m5.281.716c-.483 0-1.035.511-1.035 1.142s.511 1.142 1.142 1.142 1.076-.526 1.139-1.033"/></svg>