<!-- SPDX-FileCopyrightText: © 2025 Schneider Electric SPDX-License-Identifier: LicenseRef-Proprietary -->
<svg xmlns="http://www.w3.org/2000/svg" viewBox="0 0 16 16"><path fill="none" stroke="currentColor" stroke-linecap="round" stroke-linejoin="round" d="M.5 13.5v-9h11.053L15.5 7.659V15.5H.5m15-11.742A3.26 3.26 0 0 0 12.242.5m1.216 3.013c0-.578-.503-1.047-1.124-1.047M4.5 11.5h1m.341 1.956s1.155-.796-.188-1.897M10.5 11.5h-1m.026.049c-1.343 1.101-.188 1.897-.188 1.897M5.5 9.5v2m-1-2h1m3.992-.025c-1.377-1.101-.193-1.897-.193-1.897l.033-.069c-.1.085-3.642-.01-3.642-.01l.022.069s1.185.796-.193 1.897M10.5 9.5h-1m0 0v2m2 2h.091c.502 0 .909-.377.909-.842V8.342c0-.465-.407-.842-.909-.842H3.409c-.502 0-.909.377-.909.842v4.316c0 .465.407.842.909.842l.686.004"/></svg>