<!-- SPDX-FileCopyrightText: © 2025 Schneider Electric SPDX-License-Identifier: LicenseRef-Proprietary -->
<svg xmlns="http://www.w3.org/2000/svg" viewBox="0 0 16 16"><path fill="none" stroke="currentColor" stroke-linecap="round" stroke-linejoin="round" d="M5.5 9.5H3.439C2.066 9.501.798 8.575.549 7.224a2.813 2.813 0 0 1 3.089-3.323 4.318 4.318 0 0 1 8.333.944c.624-.305 1.395-.355 2.181-.005.489.218.893.623 1.109 1.113.793 1.804-.507 3.548-2.214 3.548H7.499m-2.01 2.262L6.2 13.6m1.873-2.157.711 1.836m3.522-1.507v1.835m1.269-.701-1.294.4.832 1.161m-1.686 0 .854-1.161-1.316-.4"/></svg>