<!-- SPDX-FileCopyrightText: © 2025 Schneider Electric SPDX-License-Identifier: LicenseRef-Proprietary -->
<svg xmlns="http://www.w3.org/2000/svg" viewBox="0 0 16 16"><path fill="none" stroke="currentColor" stroke-linecap="round" stroke-linejoin="round" d="M2.498.5v5.995m10.99-1.999.033 10.99M13.488.5v1.998M2.498 8.493l-.033 6.994m2.013-6.994c.447 0 .809-.526.809-.973s-.362-1.025-.809-1.025H1.309C.862 6.495.5 7.073.5 7.52s.362.973.809.973h1.189m12.205-3.997c.44 0 .797-.569.797-1.009s-.357-.989-.797-.989h-3.229c-.44 0-.797.549-.797.989s.357 1.009.797 1.009h2.015M8.413.5v10.99m0 1.998v1.998m2.241-1.998c.449 0 .814-.581.814-1.03s-.364-.968-.814-.968H7.158c-.449 0-.814.519-.814.968s.364 1.03.814 1.03h1.221"/></svg>