<!-- SPDX-FileCopyrightText: © 2025 Schneider Electric SPDX-License-Identifier: LicenseRef-Proprietary -->
<svg xmlns="http://www.w3.org/2000/svg" viewBox="0 0 16 16"><path fill="none" stroke="currentColor" stroke-linecap="round" stroke-linejoin="round" d="M7.5.5v1.379c1.072 0 2.009 1.007 1.719 2.127a1.66 1.66 0 0 1-1.153 1.166A1.683 1.683 0 0 1 6.011 4.1M5.5 10.5v5h5v-5m-5-2H2.876a.396.396 0 0 0-.395.396l.019 6.211c0 .218.177.394.395.394h10.231a.396.396 0 0 0 .394-.395l-.019-6.212a.394.394 0 0 0-.395-.394H8.501M5.5 8.5h1m4.263-.342L8 4.447M6.287 6.704l-1.05 1.454"/></svg>