<!-- SPDX-FileCopyrightText: © 2025 Schneider Electric SPDX-License-Identifier: LicenseRef-Proprietary -->
<svg xmlns="http://www.w3.org/2000/svg" viewBox="0 0 16 16"><path fill="none" stroke="currentColor" stroke-linecap="round" stroke-linejoin="round" d="m7.325 13.848-.5-1.639 1.639-.501M6.326.5s.318 4.39 3.217 7.2c2.917 2.827 5.957 3.209 5.957 3.209m-2.358-5.695C14.293 2.85 11.836 2.339 12.685.5m2.501 4.714C16.338 2.85 13.881 2.34 14.729.5m-3.633 4.714C12.248 2.85 9.795 2.339 10.643.5M4.5 6.5v9M3.334 7.186l1.125 1.212L5.67 7.186m-.013 7.593-1.212-1.212-1.125 1.212m4.53-6.183L1.205 13.25m5.692-5.463L6.6 9.475l1.687.297m-6.252 4.371.298-1.687-1.688-.297m7.44.669L.922 9.02M.5 10.162l1.639-.501-.501-1.639"/></svg>