<!-- SPDX-FileCopyrightText: © 2025 Schneider Electric SPDX-License-Identifier: LicenseRef-Proprietary -->
<svg xmlns="http://www.w3.org/2000/svg" viewBox="0 0 16 16"><path fill="none" stroke="currentColor" stroke-linecap="round" stroke-linejoin="round" d="M4.703 8.395H3.196C1.707 8.395.5 7.343.5 5.861a2.69 2.69 0 0 1 3.011-2.665A4.14 4.14 0 0 1 7.397.501a4.14 4.14 0 0 1 4.108 3.597 2.35 2.35 0 0 1 1.032-.237c1.299 0 2.353 1.049 2.353 2.342s-1.053 2.193-2.353 2.193H7.298M4.75 8.52l1.278 3.309m1.27-3.419 1.837 4.704m.424-4.57 2.727 6.956m1.973-5.535v1.201m1.241-.295-1.241.382.798 1.109m-1.618 0 .819-1.109-1.262-.382"/></svg>