<!-- SPDX-FileCopyrightText: © 2025 Schneider Electric SPDX-License-Identifier: LicenseRef-Proprietary -->
<svg xmlns="http://www.w3.org/2000/svg" viewBox="0 0 16 16"><path fill="none" stroke="currentColor" stroke-linecap="round" stroke-linejoin="round" d="M3.831 10.749v.874m.898-.215-.898.278.578.807m-1.171 0 .593-.807-.914-.278m5.119-.263v.874m.899-.215-.899.278.578.807m-1.17 0 .593-.807-.914-.278m5.036-1.145v.874m.899-.214-.898.278.578.807m-1.172 0 .593-.807-.914-.278M7.605 9.18h5.442c1.985 0 3.42-2.322 1.652-4.392-.302-.354-.709-.632-1.166-.721a2.46 2.46 0 0 0-1.562.202A4.32 4.32 0 0 0 7.689.5a4.32 4.32 0 0 0-4.051 2.824 3 3 0 0 0-.329-.02C.8 3.305-.942 7.319 2.167 8.887c.412.208.878.293 1.339.293h1.731m.35 4.576v.874m.899-.215-.898.278.578.807m-1.172 0 .593-.807-.914-.278m5.702-.659v.874m.898-.215-.898.278.578.807m-1.171 0 .593-.807-.914-.278"/></svg>