<!-- SPDX-FileCopyrightText: © 2025 Schneider Electric SPDX-License-Identifier: LicenseRef-Proprietary -->
<svg xmlns="http://www.w3.org/2000/svg" viewBox="0 0 16 16"><path fill="none" stroke="currentColor" stroke-linecap="round" stroke-linejoin="round" d="M8.302 1.466v2.489m-2.367-.769 2.368.769M6.839 5.969l1.463-2.014m1.463 2.014L8.302 3.955m0 .001 2.368-.769M7.336.5l.966.966M9.269.5l-.966.966m-2.368 1.72-1.217.62m.597-1.837.62 1.218m.904 2.782.214 1.35M5.489 6.183l1.35-.214m4.276.214-1.349-.214m-.001 0-.214 1.35m1.739-5.35-.62 1.217m0 0 1.217.621m2.647 7.8.966-.966m-.966-.967.966.966m-.706-.025h-.878A2.93 2.93 0 0 1 11.68 9.58a2.93 2.93 0 0 1-4.472 0c-.54.634-1.341 1.035-2.236 1.035s-1.696-.401-2.236-1.035A2.93 2.93 0 0 1 .5 10.615M14.534 15.5l.966-.966m0 0-.966-.966m.26.941h-.878a2.93 2.93 0 0 1-2.236-1.035 2.93 2.93 0 0 1-4.472 0c-.54.634-1.341 1.035-2.236 1.035s-1.696-.401-2.236-1.035A2.93 2.93 0 0 1 .5 14.509"/></svg>