<!-- SPDX-FileCopyrightText: © 2025 Schneider Electric SPDX-License-Identifier: LicenseRef-Proprietary -->
<svg xmlns="http://www.w3.org/2000/svg" viewBox="0 0 16 16"><path fill="none" stroke="currentColor" stroke-linecap="round" stroke-linejoin="round" d="M7.854 7.185v2.681m0 .001-2.55-.828m.974 2.997 1.576-2.169m1.576 2.169L7.854 9.867m0 0 2.55-.828M6.813 6.145l1.041 1.041m0-.001 1.041-1.041M3.993 9.706l1.311-.668m-.668-1.311.668 1.312m1.204 4.451-.23-1.454m-1.454.23 1.454-.23m4.606.23-1.454-.23M9.2 13.49l.23-1.454m1.642-4.309-.668 1.311m0 0 1.311.669m1.871.762a2.348 2.348 0 0 0-.434-4.656h0v-.03a3.273 3.273 0 0 0-6.123-1.611 3.26 3.26 0 0 0-4.04 2.133 2.157 2.157 0 0 0-.811 4.235"/></svg>