<!-- SPDX-FileCopyrightText: © 2025 Schneider Electric SPDX-License-Identifier: LicenseRef-Proprietary -->
<svg xmlns="http://www.w3.org/2000/svg" viewBox="0 0 16 16"><path fill="none" stroke="currentColor" stroke-linecap="round" stroke-linejoin="round" d="M12.5 7.5H1.388A.89.89 0 0 1 .5 6.612V1.388C.5.898.898.5 1.388.5h13.233a.87.87 0 0 1 .873.797c0 6.57-.089 9.465-2.16 9.142-3.227-.648-4.922.841-6.083 1.702m-5.843 3.198 2.424-1.129.431.928 2.383-1.02s.527-.421.633-.95c.127-.633-.028-1.027-.028-1.027m-.964-1.907s-.416-.449-.844-.612c-.57-.19-.989.108-1.284.241l-1.874.808.478 1.132.021.246-2.28.971M3.559 2.813a1.198 1.198 0 0 0 .146 2.389c.555 0 1.021-.378 1.157-.891m-.898 10.263-1.127-2.585m5.056-9.176a1.198 1.198 0 0 0 .146 2.389c.555 0 1.021-.378 1.157-.891m3.01-1.498a1.198 1.198 0 0 0 .146 2.389c.555 0 1.021-.378 1.157-.891"/></svg>