<!-- SPDX-FileCopyrightText: © 2025 Schneider Electric SPDX-License-Identifier: LicenseRef-Proprietary -->
<svg xmlns="http://www.w3.org/2000/svg" viewBox="0 0 16 16"><path fill="none" stroke="currentColor" stroke-linecap="round" stroke-linejoin="round" d="M13.698 7.472h1.406a.4.4 0 0 1 .295.132c.073.079.112.335.098.442-.202 2.274-1.733 4.604-3.74 5.692-1.956 1.178-4.74 1.316-6.802.337-2.105-.884-3.858-3.051-4.284-5.294C.144 6.56.86 4.088 2.42 2.421a2.78 2.78 0 0 1 2.065-.923h7.079a2.78 2.78 0 0 1 2.065.923c.872.967 1.499 1.988 1.758 3.263m-1.691 1.562c-.029-.363-.223-.736-.513-.918-.383-.303-1.065-.29-1.436.027-.404.275-.596.929-.404 1.379.099.329.41.614.754.737m-2.789-1.36c-.061-.36-.286-.713-.591-.869-.408-.268-1.086-.196-1.429.153-.378.309-.512.978-.282 1.409.128.319.462.576.816.669m-2.926-.85c.05-.361-.057-.767-.301-1.007-.308-.379-.976-.515-1.408-.286-.454.18-.784.777-.694 1.258.025.343.266.689.576.884m8.149 2.114c-.061-.36-.286-.713-.591-.869-.408-.268-1.086-.196-1.429.153-.378.309-.512.978-.282 1.409.128.319.462.576.816.669m-2.873-.85c.05-.361-.057-.767-.301-1.007-.308-.379-.976-.515-1.408-.286-.454.18-.784.777-.694 1.258.025.343.266.689.576.884M6.844 4.03a.7.7 0 0 0-.152-.222c-.235-.29-.746-.394-1.076-.219-.347.138-.599.594-.531.961m6.338-.52a.7.7 0 0 0-.152-.222c-.235-.29-.746-.394-1.076-.219-.347.138-.599.594-.531.961"/></svg>