<!-- SPDX-FileCopyrightText: © 2025 Schneider Electric SPDX-License-Identifier: LicenseRef-Proprietary -->
<svg xmlns="http://www.w3.org/2000/svg" viewBox="0 0 16 16"><path fill="none" stroke="currentColor" stroke-linecap="round" stroke-linejoin="round" d="M9.5 5.5v-2h2v4h-2m-5 0h2v-4h-2v2m1.895 8v-1.974c0-.872.672-1.579 1.5-1.579s1.5.707 1.5 1.579V13.5h-1v2c2.127 0 3.674-.899 5.208-2.498a5.5 5.5 0 0 0 .733-.936c1.826-2.996 1.422-6.536-.639-8.944A7.5 7.5 0 0 0 8.772.54a7.5 7.5 0 0 0-5.35 1.52A7.5 7.5 0 0 0 .59 6.846a7.5 7.5 0 0 0 1.242 5.421 7.5 7.5 0 0 0 4.634 3.075"/></svg>