<!-- SPDX-FileCopyrightText: © 2025 Schneider Electric SPDX-License-Identifier: LicenseRef-Proprietary -->
<svg xmlns="http://www.w3.org/2000/svg" viewBox="0 0 16 16"><path fill="none" stroke="currentColor" stroke-linecap="round" stroke-linejoin="round" d="M12.109 6.513c-.551-.203-1.301-.047-1.676.385-.484.439-.596 1.36-.232 1.902.297.582 1.157.932 1.776.723.64-.134 1.204-.871 1.165-1.523h1.963a.393.393 0 0 1 .394.416c-.056 1.688-.886 3.638-2.293 4.989s-3.391 2.101-5.081 2.089c-1.689.064-3.695-.625-5.143-1.931S.643 10.332.535 8.647C.351 6.968.896 4.92 2.098 3.384 3.299 1.849 5.157.826 6.831.598c1.663-.303 3.746.095 5.365 1.184 1.563 1.051 2.693 2.745 3.08 4.348m-10.284.379c-.551-.203-1.301-.047-1.676.385-.484.439-.596 1.359-.232 1.901.297.582 1.157.932 1.776.723.64-.133 1.204-.87 1.165-1.522"/></svg>