<!-- SPDX-FileCopyrightText: © 2025 Schneider Electric SPDX-License-Identifier: LicenseRef-Proprietary -->
<svg xmlns="http://www.w3.org/2000/svg" viewBox="0 0 16 16"><path fill="none" stroke="currentColor" stroke-linecap="round" stroke-linejoin="round" d="M12.357 7.017c-.534-.335-1.406-.231-1.846.22-.486.402-.657 1.26-.364 1.817.233.585.997 1.014 1.62.909.63-.039 1.277-.629 1.37-1.252l.065-.316h1.902a.396.396 0 0 1 .393.438c-.15 1.685-1.094 3.59-2.584 4.861S9.388 15.6 7.695 15.487c-1.697-.035-3.668-.845-5.041-2.24S.508 9.871.506 8.18c-.079-1.689.598-3.705 1.902-5.164C3.713 1.557 5.643.655 7.336.538c1.686-.193 3.749.345 5.298 1.543 1.404 1.086 2.385 2.715 2.729 4.258m-10.149.753c-.551-.351-1.47-.218-1.898.275-.484.439-.596 1.359-.232 1.901.297.582 1.157.932 1.776.723.64-.133 1.204-.87 1.165-1.522m2.618-5.547c-.398-.253-1.049-.197-1.396.12-.378.281-.542.898-.352 1.322.145.441.686.798 1.16.766.475.014 1.001-.363 1.129-.809"/></svg>