<!-- SPDX-FileCopyrightText: © 2025 Schneider Electric SPDX-License-Identifier: LicenseRef-Proprietary -->
<svg xmlns="http://www.w3.org/2000/svg" viewBox="0 0 16 16"><path fill="none" stroke="currentColor" stroke-linecap="round" stroke-linejoin="round" d="m10.631 6.352-1.2-2.04 1.543-.983 2 3.4-1.543.983M3.02 6.73l1.574 1.014 2-3.4L5.02 3.33l-1.2 2.04m3.677 7.13v-3h2v4h-1v1.998c1.705.04 3.231-.699 4.664-2.061 1.433-1.361 2.276-3.344 2.323-5.049.128-1.701-.506-3.76-1.792-5.261C12.407 1.626 10.47.682 8.77.546 7.079.331 4.99.858 3.425 2.065 1.86 3.273.818 5.158.595 6.849c-.302 1.678.117 3.792 1.241 5.418s2.953 2.764 4.63 3.073"/></svg>