<!-- SPDX-FileCopyrightText: © 2025 Schneider Electric SPDX-License-Identifier: LicenseRef-Proprietary -->
<svg xmlns="http://www.w3.org/2000/svg" viewBox="0 0 16 16"><path fill="none" stroke="currentColor" stroke-linecap="round" stroke-linejoin="round" d="M7.21 6.028c.047.566-.423 1.218-.974 1.353-.532.199-1.287-.076-1.567-.569-.336-.458-.277-1.259.122-1.663.349-.448 1.136-.609 1.633-.335m4.38 4.737c-.497-.274-1.284-.113-1.633.335-.399.404-.458 1.205-.122 1.663.28.494 1.035.768 1.567.569.551-.135 1.021-.787.974-1.353M6.424 9.551c-.497-.274-1.284-.113-1.633.335-.399.404-.458 1.205-.122 1.663.28.494 1.035.768 1.567.569.551-.135 1.021-.787.974-1.353m5.781-6.326c-.24-1.102-.996-2.274-2.054-3.013C9.878.688 8.517.384 7.399.539c-1.123.109-2.376.722-3.234 1.686S2.846 4.506 2.869 5.633v4.735c-.032 1.197.511 2.636 1.503 3.627s2.432 1.534 3.629 1.502c1.197.032 2.637-.511 3.629-1.502s1.535-2.431 1.503-3.627V6.422c.02-.194-.201-.414-.395-.395h-1.147c.047.565-.423 1.217-.974 1.352a1.39 1.39 0 0 1-1.268-.239 1.39 1.39 0 0 1-.517-1.181c.021-.432.304-.886.684-1.093a1.39 1.39 0 0 1 1.289-.052"/></svg>