<!-- SPDX-FileCopyrightText: © 2025 Schneider Electric SPDX-License-Identifier: LicenseRef-Proprietary -->
<svg xmlns="http://www.w3.org/2000/svg" viewBox="0 0 16 16"><path fill="none" stroke="currentColor" stroke-linecap="round" stroke-linejoin="round" d="M6.197 10.404a1.335 1.335 0 0 1-1.745 1.814 1.335 1.335 0 0 1 .208-2.51m4.552-5.381a1.57 1.57 0 1 1-1.655-.587V.549A7.453 7.453 0 0 0 .497 7.99a7.46 7.46 0 0 0 2.038 5.133c1.312 1.389 3.201 2.213 5.108 2.318a7.44 7.44 0 0 0 5.231-1.761 7.45 7.45 0 0 0 2.586-4.879 7.45 7.45 0 0 0-1.477-5.321A7.44 7.44 0 0 0 9.713.724m.991 8.985a1.335 1.335 0 0 0-.208 2.51 1.335 1.335 0 0 0 1.745-1.814"/></svg>