<!-- SPDX-FileCopyrightText: © 2025 Schneider Electric SPDX-License-Identifier: LicenseRef-Proprietary -->
<svg xmlns="http://www.w3.org/2000/svg" viewBox="0 0 16 16"><path fill="none" stroke="currentColor" stroke-linecap="round" stroke-linejoin="round" d="M10.08.679 9.007.5m1.483 3.095-.979.471m2.983 1.68-.534.951m3.403-.341.104 1.085M12.146.536a3 3 0 0 0-.157.946A2.907 2.907 0 0 0 15.5 4.33M7.517 8.721l4.299 6.779M4.149 8.678l3.964 6.745m.029.077H9.5m5.998.027L11.123 8.5H.764l3.708 7h1.253M.5 8.5v5m0 0h.952m10.363 2h1.265"/></svg>