<!-- SPDX-FileCopyrightText: © 2025 Schneider Electric SPDX-License-Identifier: LicenseRef-Proprietary -->
<svg xmlns="http://www.w3.org/2000/svg" viewBox="0 0 16 16"><path fill="none" stroke="currentColor" stroke-linecap="round" stroke-linejoin="round" d="m9.32 7.359 5.787 5.787a1.34 1.34 0 0 1 0 1.895h0a1.34 1.34 0 0 1-1.895 0L6.317 8.146c-1.509.765-3.392.535-4.653-.726S.174 4.276.939 2.767l2.216 2.216a1.34 1.34 0 0 0 2.041-.172c.39-.542.275-1.301-.197-1.773L2.877.916a4.01 4.01 0 0 1 4.472.821 4.01 4.01 0 0 1 .821 4.472"/></svg>