<!-- SPDX-FileCopyrightText: © 2025 Schneider Electric SPDX-License-Identifier: LicenseRef-Proprietary -->
<svg xmlns="http://www.w3.org/2000/svg" viewBox="0 0 16 16"><path fill="none" stroke="currentColor" stroke-linecap="round" stroke-linejoin="round" d="M10.5 11.811c-1.022.454-2.258.268-3.097-.57s-1.024-2.075-.57-3.097l1.505 1.505A.927.927 0 1 0 9.65 8.337L8.115 6.802c1.044-.529 2.348-.369 3.222.504s1.033 2.178.504 3.222l3.387 3.387a.927.927 0 0 1 0 1.312h0a.93.93 0 0 1-1.312 0l-1.934-1.934M12.5 2.5h-.078c.781 0 1.078.778 1.078 1.344v3M11.143 15.5H4.079A1.58 1.58 0 0 1 2.5 13.921V4.079A1.58 1.58 0 0 1 4.079 2.5h1.19l-.027.112L4.795 4.5h6.443l-.862-2.875A1.58 1.58 0 0 0 8.864.5H7.155c-.481 0-.923.218-1.216.572"/></svg>