<!-- SPDX-FileCopyrightText: © 2025 Schneider Electric SPDX-License-Identifier: LicenseRef-Proprietary -->
<svg xmlns="http://www.w3.org/2000/svg" viewBox="0 0 16 16"><path fill="none" stroke="currentColor" stroke-linecap="round" stroke-linejoin="round" stroke-width=".941" d="M11.574 4.758 8.903 8.431c.769.964 2.667 2.934 2.667 2.934.423.148 1.409-.055 1.901.125.539.197.817.845.919 1.27.194.808-.58 1.695-.58 1.695-.232-.23-.484-.48-1.082-1.351-.601 0-1.468.772-1.468.772l.389 1.625c-.271 0-2.127-.764-2.281-1.344-.153-.579.308-1.941.308-1.941L7.783 9.977s-3.282 4.401-3.938 5.057c0 0-1.49-.634-2.201-1.274l4.811-5.544L3.27 4.604s-1.524.146-2.088-.846c-.617-1.08.137-2.414.137-2.414s.672 1.373 1.176 1.528c.655 0 1.35-.811 1.35-.811s.141-.421-.324-1.559c0 0 2.179.98 2.179 1.712s-.387 1.777-.387 1.777l2.375 2.994 2.607-3.39s.213-.472-.792-.626c-1.002-.156-1.64-.446-1.64-.676 0-.233.928-1.585 1.353-1.585 0 0 3.784 1.777 4.633 2.317s1.456 2.6 1.12 2.936"/></svg>