<!-- SPDX-FileCopyrightText: © 2025 Schneider Electric SPDX-License-Identifier: LicenseRef-Proprietary -->
<svg xmlns="http://www.w3.org/2000/svg" viewBox="0 0 16 16"><path fill="none" stroke="currentColor" stroke-linecap="round" stroke-linejoin="round" d="M6.692.5c0 3.709-2.483 7.036-6.192 7.036M7.688 4.28c1.11 1.96 3.06 3.256 5.439 3.256m-6.406 7.253c0-3.709-2.512-7.253-6.221-7.253m12.626 0c-3.709 0-6.405 3.544-6.405 7.253m2.588-2.556c1.461 0 3.09-1.494 3.09-2.955m1.141 2.257c.589.757 1.304.698 1.96.698M12.41 15.5c0-1.461-1.64-3.267-3.101-3.267m6.191 0c-1.461 0-3.09 1.805-3.09 3.267"/></svg>