<!-- SPDX-FileCopyrightText: © 2025 Schneider Electric SPDX-License-Identifier: LicenseRef-Proprietary -->
<svg xmlns="http://www.w3.org/2000/svg" viewBox="0 0 16 16"><path fill="none" stroke="currentColor" stroke-linecap="round" stroke-linejoin="round" d="M7.476.735C8.23.585 9.094.5 10.011.5c2.95 0 5.341.88 5.341 1.965S12.961 4.43 10.011 4.43s-5.342-.88-5.342-1.965c0-.393.314-.759.854-1.066m7.6 4.788v-.635s-.884.45-3.239.45c0 0-2.296.188-3.384-.176h0s2.457 2.264 7.147 2.011c0 0 1.516.015.569.252 0 0-5.48.857-6.651.977 0 0-2.875.499-4.327 1.099-1.722.712-2.728.976-2.734 2.019-.007 1.167 1.607 2.001 1.607 2.001s2.211 1.167 2.898 1.315m1.533-7.366v2.295c-1.255.356-1.736.915-1.736 1.544 0 1.076 2.372 1.948 5.296 1.948s5.296-.872 5.296-1.948c0-.628-.509-1.187-1.765-1.544M6.5 4.5v1.326"/></svg>