<!-- SPDX-FileCopyrightText: © 2025 Schneider Electric SPDX-License-Identifier: LicenseRef-Proprietary -->
<svg xmlns="http://www.w3.org/2000/svg" viewBox="0 0 16 16"><path fill="none" stroke="currentColor" stroke-linecap="round" stroke-linejoin="round" d="M.5 5.5V4.49a.99.99 0 0 1 .99-.99h13.02a.99.99 0 0 1 .99.99v7.02a.99.99 0 0 1-.99.99H1.49a.99.99 0 0 1-.99-.99V10.5m8 0v-5m.051 0c.429 1.394 1.834 4.859 2.108 4.891m0 0c.398 0 .745-2.935.912-4.759m-.001 0c.429 1.394 1.235 4.727 1.509 4.759m0 0c.398 0 .745-2.935.912-4.759m0 0c.41 1.394 1.18 4.727 1.442 4.759M1.5 7.974h5M4.985 9.579 6.564 8 4.985 6.421"/></svg>