<!-- SPDX-FileCopyrightText: © 2025 Schneider Electric SPDX-License-Identifier: LicenseRef-Proprietary -->
<svg xmlns="http://www.w3.org/2000/svg" viewBox="0 0 16 16"><path fill="none" stroke="currentColor" stroke-linecap="round" stroke-linejoin="round" d="M.5 5.5V4.49a.99.99 0 0 1 .99-.99h13.02a.99.99 0 0 1 .99.99v7.02a.99.99 0 0 1-.99.99H1.49a.99.99 0 0 1-.99-.99V10.5m2 0v-5m0 0c.498 1.394 1.255 4.859 1.572 4.891m2.721 0c.466 0 .872-2.935 1.067-4.759m-.001 0c.503 1.394 1.445 4.727 1.766 4.759m0 0c.466 0 .872-2.935 1.067-4.759m0 0c.503 1.394 1.445 4.727 1.766 4.759m0 0c.466 0 .872-2.935 1.067-4.759m0 0c.503 1.394 1.445 4.727 1.766 4.759m-11.219 0c.466 0 .765-2.935.96-4.759m.001 0c.503 1.394 1.445 4.727 1.766 4.759"/></svg>