<!-- SPDX-FileCopyrightText: © 2025 Schneider Electric SPDX-License-Identifier: LicenseRef-Proprietary -->
<svg xmlns="http://www.w3.org/2000/svg" viewBox="0 0 16 16"><path d="M2.623 10.205a.454.454 0 1 1-.56-.314.454.454 0 0 1 .56.315Zm-.095-1.941a.456.456 0 0 1-.759.501.454.454 0 0 1 .759-.5Zm.275-1.785a.456.456 0 0 1-.144.626.456.456 0 0 1-.483-.771.455.455 0 0 1 .627.145Zm.62-1.633a.454.454 0 1 1-.877.235.454.454 0 0 1 .877-.235Zm.855-1.53a.454.454 0 1 1-.905.08.454.454 0 0 1 .905-.08Zm1.094-1.423a.453.453 0 1 1-.908.028.454.454 0 1 1 .908-.028Zm-.851 5.314a.454.454 0 1 1-.905.069.454.454 0 0 1 .905-.069Zm-.45 2.236a.455.455 0 0 1-.834-.36.455.455 0 0 1 .834.36Zm1.643-.749a.454.454 0 1 1-.824-.38.454.454 0 0 1 .823.38Zm-.835-2.743a.454.454 0 1 1-.345-.84.454.454 0 0 1 .345.84Zm1.289 1.14a.454.454 0 1 1-.047-.905.454.454 0 0 1 .047.904Zm.842 1.501a.455.455 0 1 1 .563-.309.455.455 0 0 1-.564.309ZM5.582 4.434a.455.455 0 1 1 .394-.507.455.455 0 0 1-.395.507ZM7.06 5.473a.453.453 0 1 1-.092-.904.453.453 0 0 1 .092.905Zm-.347-2.406a.454.454 0 1 1-.266-.868.454.454 0 0 1 .266.868Zm1.252-1.134a.454.454 0 1 1-.2-.885.454.454 0 0 1 .2.885Z"/><path fill="none" stroke="currentColor" stroke-linecap="round" stroke-linejoin="round" d="M10.782 11.921c-.459.277-1.227.206-1.919-.222s-1.098-1.084-1.055-1.619c.459-.277 1.227-.206 1.919.222.693.428 1.098 1.085 1.055 1.619zm-7.274 3.562V13.1l.608-.961H.868l.62.961v2.383m11.506-9.902a.925.925 0 1 0-1.85.045.925.925 0 0 0 1.85-.045Zm-3.492 2.43a1.384 1.384 0 0 1-.089-1.787 1.384 1.384 0 0 1 .789-2.612 1.384 1.384 0 0 1 2.658-.622 1.384 1.384 0 0 1 1.867 1.99 1.384 1.384 0 0 1-.789 2.612 1.384 1.384 0 0 1-2.658.622c-.522 1.757-.507 4.259-.507 5.957v1.31m-5.466-1.052s-.066.478 0 1.053m1.823.001c.055-.659 0-1.053 0-1.053m1.821-.688s-.115.773 0 1.741m3.645 0c.058-.548.024-.86 0-1.053m1.822-.688c-.048.388-.106.843 0 1.741"/></svg>