<!-- SPDX-FileCopyrightText: © 2025 Schneider Electric SPDX-License-Identifier: LicenseRef-Proprietary -->
<svg xmlns="http://www.w3.org/2000/svg" viewBox="0 0 16 16"><path fill="none" stroke="currentColor" stroke-linecap="round" stroke-linejoin="round" d="M12.5 15.5h-8m-.517-.074c3.06-.34 7.931-1.299 7.985-1.857M4.5.5h8m-.533 13.069c0-.812-4.925-1.517-7.985-1.857m.001.001c3.06-.34 7.931-1.299 7.985-1.857m-.001 0c0-.812-4.925-1.517-7.985-1.857m.001 0c3.06-.34 7.931-1.299 7.985-1.857m-.001.001c0-.812-4.925-1.517-7.985-1.857m.001 0c3.06-.34 7.931-1.299 7.985-1.857m-.001 0c0-.812-4.925-1.517-7.985-1.857"/></svg>