<!-- SPDX-FileCopyrightText: © 2025 Schneider Electric SPDX-License-Identifier: LicenseRef-Proprietary -->
<svg xmlns="http://www.w3.org/2000/svg" viewBox="0 0 16 16"><path fill="none" stroke="currentColor" stroke-linecap="round" stroke-linejoin="round" d="m6.192 10.35.092-4.457c0-.367.297-.664.664-.664h0c.367 0 .664.297.664.664v3.085m1.38.32V7.749a.664.664 0 0 0-.664-.664h0c-.367 0-.714.395-.714.761m2.601 1.303v-.855c0-.367-.21-.664-.577-.664h-.087c-.367 0-.558.425-.558.792m-2.825.215c.009-.015-2.672 1.687-.64 4.605.292.42.48.661.661 1.077m3.848.181c-.043-.107-.078-.775.277-1.439 1.013-1.897.917-3.582.917-3.582-.043-1.13-.981-.863-.981-.863m1.537 5.818h2.68V1.5H1.533v12.934h4.65m3.068-8.635a2.31 2.31 0 1 0-4.62 0"/></svg>