<!-- SPDX-FileCopyrightText: © 2025 Schneider Electric SPDX-License-Identifier: LicenseRef-Proprietary -->
<svg xmlns="http://www.w3.org/2000/svg" viewBox="0 0 16 16"><path fill="none" stroke="currentColor" stroke-linecap="round" stroke-linejoin="round" d="M9.812 10.533h.505a.703.703 0 0 0 .703-.703v-.152c0-.079.064-.143.143-.143h.485a.703.703 0 0 0 .703-.703V5.208a.703.703 0 0 0-.703-.703H4.353a.703.703 0 0 0-.703.703v3.624c0 .388.315.703.703.703h.159c.079 0 .143.064.143.143v.152c0 .388.315.703.703.703h.505c.068 0 .14.046.14.114 0 .329.032.823.663.823h.949M5.529 6.213l-.005 1.308m1.66-1.308-.005 1.308m1.656 0 .005-1.308m1.656 0-.005 1.308M9.989 14.5h3.329c.65 0 1.182-.532 1.182-1.182V2.682c0-.65-.532-1.182-1.182-1.182H2.682c-.65 0-1.182.532-1.182 1.182v10.637c0 .65.532 1.182 1.182 1.182h4.993v-3.008"/></svg>