<!-- SPDX-FileCopyrightText: © 2025 Schneider Electric SPDX-License-Identifier: LicenseRef-Proprietary -->
<svg xmlns="http://www.w3.org/2000/svg" viewBox="0 0 16 16"><path fill="none" stroke="currentColor" stroke-linecap="round" stroke-linejoin="round" d="M9.5 14.5H1.842a.34.34 0 0 1-.342-.342V1.842c0-.189.153-.342.342-.342h12.316c.189 0 .342.153.342.342v12.316a.34.34 0 0 1-.342.342H11.5"/><circle cx="3.5" cy="3.5" r=".5"/><circle cx="6.5" cy="3.5" r=".5"/><circle cx="9.5" cy="3.5" r=".5"/><circle cx="12.5" cy="3.5" r=".5"/><circle cx="3.5" cy="6.5" r=".5"/><circle cx="6.5" cy="6.5" r=".5"/><circle cx="9.5" cy="6.5" r=".5"/><circle cx="12.5" cy="6.5" r=".5"/><circle cx="3.5" cy="9.5" r=".5"/><circle cx="6.5" cy="9.5" r=".5"/><circle cx="9.5" cy="9.5" r=".5"/><circle cx="12.5" cy="9.5" r=".5"/><circle cx="3.5" cy="12.5" r=".5"/><circle cx="6.5" cy="12.5" r=".5"/><circle cx="9.5" cy="12.5" r=".5"/><circle cx="12.5" cy="12.5" r=".5"/></svg>