<!-- SPDX-FileCopyrightText: © 2025 Schneider Electric SPDX-License-Identifier: LicenseRef-Proprietary -->
<svg xmlns="http://www.w3.org/2000/svg" viewBox="0 0 16 16"><path fill="none" stroke="currentColor" stroke-linecap="round" stroke-linejoin="round" d="M5.5 4.5h5.11a.89.89 0 0 1 .89.89v5.11m-7-5v5.11c0 .491.398.89.89.89h5.07m-3.96-9V1.39A.89.89 0 0 0 5.61.5H1.05L.963.506C.703.548.5.772.5 1.016V5.61c0 .491.398.89.89.89H2.5m7 7v1.11c0 .491.398.89.89.89h4.56l.087-.006c.26-.042.463-.266.463-.51V10.39a.89.89 0 0 0-.89-.89H13.5"/></svg>