<!-- SPDX-FileCopyrightText: © 2025 Schneider Electric SPDX-License-Identifier: LicenseRef-Proprietary -->
<svg xmlns="http://www.w3.org/2000/svg" viewBox="0 0 16 16"><circle cx="7.996" cy="7.055" r=".5"/><path stroke="currentColor" stroke-linecap="round" stroke-linejoin="round" d="m6.849 9.508 2.294.004"/><path fill="none" stroke="currentColor" stroke-linecap="round" stroke-linejoin="round" d="M7.479 11.659V14.5H2.678c-.65 0-1.182-.532-1.182-1.182V2.682c0-.65.532-1.182 1.182-1.182h10.637c.65 0 1.182.532 1.182 1.182v10.636c0 .65-.532 1.182-1.182 1.182H9.497m.226-3.238a3.695 3.695 0 0 0-1.721-6.956A3.7 3.7 0 0 0 4.28 7.982a3.7 3.7 0 0 0 3.184 3.678"/></svg>