<!-- SPDX-FileCopyrightText: © 2025 Schneider Electric SPDX-License-Identifier: LicenseRef-Proprietary -->
<svg xmlns="http://www.w3.org/2000/svg" viewBox="0 0 16 16"><path fill="none" stroke="currentColor" stroke-linecap="round" stroke-linejoin="round" d="M7.511 11.671V14.5H2.682c-.65 0-1.182-.532-1.182-1.182V2.682c0-.65.532-1.182 1.182-1.182h10.636c.65 0 1.182.532 1.182 1.182v10.636c0 .65-.532 1.182-1.182 1.182H9.5M4.349 7.296a3.71 3.71 0 0 0 3.062 4.354m2.413-.443a3.704 3.704 0 0 0-.083-6.477m-4.458.731L7.986 8.19M5.162 5.343l2.824 2.848"/><circle cx="8" cy="5" r=".5"/></svg>