<!-- SPDX-FileCopyrightText: © 2025 Schneider Electric SPDX-License-Identifier: LicenseRef-Proprietary -->
<svg xmlns="http://www.w3.org/2000/svg" viewBox="0 0 16 16"><path fill="none" stroke="currentColor" stroke-linecap="round" stroke-linejoin="round" d="M6.5 12.5H4.39a.89.89 0 0 1-.89-.89V9.5m9-3V4.39a.89.89 0 0 0-.89-.89H9.5m-9-2v5.07c0 .514.417.93.93.93h5.153a.916.916 0 0 0 .917-.916V1.43A.93.93 0 0 0 6.57.5H1.5m14 14V9.43a.93.93 0 0 0-.93-.93H9.431a.93.93 0 0 0-.93.93v5.139c0 .514.417.93.93.93h5.07"/></svg>