<!-- SPDX-FileCopyrightText: © 2025 Schneider Electric SPDX-License-Identifier: LicenseRef-Proprietary -->
<svg xmlns="http://www.w3.org/2000/svg" viewBox="0 0 16 16"><path fill="none" stroke="currentColor" stroke-linecap="round" stroke-linejoin="round" d="M6.5 7.5v-.495c0-.279.226-.505.505-.505h4.99c.286 0 .517.231.505.516v4.968a.5.5 0 0 1-.505.516H7.004a.504.504 0 0 1-.504-.504V9.5v2m3-7v-.482a.5.5 0 0 0-.505-.518l-4.991-.023a.5.5 0 0 0-.504.502v5.017c0 .278.226.504.504.504H6.5m-1-8h-4v4m13 0v-4h-4m0 13h4v-4m-13 0v4h4"/></svg>