<!-- SPDX-FileCopyrightText: © 2025 Schneider Electric SPDX-License-Identifier: LicenseRef-Proprietary -->
<svg xmlns="http://www.w3.org/2000/svg" viewBox="0 0 16 16"><path fill="none" stroke="currentColor" stroke-linecap="round" stroke-linejoin="round" d="M7.649 5.427c1.549-1.549-.953-3.324.701-4.979m2.875 0c-1.638 1.638.929 3.349-.701 4.979m-5.749 0c1.701-1.701-.97-3.308.701-4.979M2.93 8.488.679 13.23A1.7 1.7 0 0 0 .5 14 1.5 1.5 0 0 0 2 15.5c.621 0 1.096-.332 1.382-.916s1.646-6.353 1.696-6.473a1 1 0 0 1 1.921.389c0 .571-.449 4.923-.449 4.923l.009-.07c-.034.268-.06.437-.06.647a1.5 1.5 0 0 0 3 0c0-.21-.026-.379-.06-.647l.009.07S8.999 9.071 8.999 8.5a1 1 0 0 1 1.921-.389c.051.12 1.411 5.889 1.696 6.473s.761.916 1.382.916a1.5 1.5 0 0 0 1.5-1.5c0-.282-.066-.544-.179-.77L13.075 8.5"/></svg>