<!-- SPDX-FileCopyrightText: © 2025 Schneider Electric SPDX-License-Identifier: LicenseRef-Proprietary -->
<svg xmlns="http://www.w3.org/2000/svg" viewBox="0 0 16 16"><path fill="none" stroke="currentColor" stroke-linecap="round" stroke-linejoin="round" d="M3.5 11.5h-.605a.387.387 0 0 1-.395-.378V9.895c0-.218.177-.395.395-.395h10.211c.218 0 .395.177.395.395v1.211a.395.395 0 0 1-.395.395H5.501M7.5 6.5v-6M4.388 4.413l3.129 3.129 3.17-3.17M5.5 15.5h7.605a.395.395 0 0 0 .395-.395v-1.211a.395.395 0 0 0-.395-.395H2.895a.395.395 0 0 0-.395.395v1.217c0 .215.177.389.395.389H3.5"/></svg>