<!-- SPDX-FileCopyrightText: © 2025 Schneider Electric SPDX-License-Identifier: LicenseRef-Proprietary -->
<svg xmlns="http://www.w3.org/2000/svg" viewBox="0 0 16 16"><path fill="none" stroke="currentColor" stroke-linecap="round" stroke-linejoin="round" d="M3.5 11.5h-.605a.387.387 0 0 1-.395-.378V9.895c0-.218.177-.395.395-.395h10.211c.218 0 .395.177.395.395v1.211a.395.395 0 0 1-.395.395H5.501M5.5 15.5h7.605a.395.395 0 0 0 .395-.395v-1.211a.395.395 0 0 0-.395-.395H2.895a.395.395 0 0 0-.395.395v1.217c0 .215.177.389.395.389H3.5"/><path d="M9.812 1.298H7.28l-.304 1.727q.757-.405 1.397-.405.511 0 .957.192c.446.192.557.305.78.53q.337.339.528.802c.191.463.191.642.191.997q0 .773-.347 1.407-.345.634-.999 1.008-.654.373-1.506.373-.954 0-1.549-.352-.594-.35-.842-.808-.249-.456-.248-.797 0-.207.173-.394a.56.56 0 0 1 .434-.187q.448 0 .667.517a1.8 1.8 0 0 0 .576.738q.363.264.811.264.41 0 .719-.213c.309-.213.365-.337.477-.586q.168-.373.168-.848 0-.511-.181-.874a1.26 1.26 0 0 0-.485-.541 1.3 1.3 0 0 0-.677-.179q-.459 0-.656.112a6 6 0 0 0-.567.392q-.371.28-.61.28a.66.66 0 0 1-.464-.189.58.58 0 0 1-.203-.429q0-.027.059-.363L6.027.919q.075-.459.277-.666t.661-.208h2.814q.832 0 .831.634 0 .277-.202.448c-.202.171-.334.17-.597.17Z"/></svg>