<!-- SPDX-FileCopyrightText: © 2025 Schneider Electric SPDX-License-Identifier: LicenseRef-Proprietary -->
<svg xmlns="http://www.w3.org/2000/svg" viewBox="0 0 16 16"><path fill="none" stroke="currentColor" stroke-linecap="round" stroke-linejoin="round" d="m7.425 2.274.317-.642c.139-.281.366-.281.505 0l.885 1.795.565.082h0l.708.103.708.103c.311.045.381.261.156.48L9.836 5.592l.096.562h0l.121.705.121.705c.053.309-.131.443-.409.297l-.326-.171-.941-.495h0l-.505-.266-.505.266h0l-.633.333-.634.333c-.277.146-.461.012-.408-.297l.121-.705.121-.705h0l.096-.562-1.433-1.397c-.225-.219-.154-.435.156-.48l.708-.103 1.273-.185M5.748 12.25l1.433-1.397c.225-.219.154-.435-.156-.48l-.708-.103-.708-.103h0l-.565-.082-.886-1.795c-.139-.281-.366-.281-.505 0l-.317.642-.317.641h0l-.252.512-1.273.185-.708.103c-.311.045-.381.261-.156.48l1.433 1.397-.097.562h0l-.121.705-.121.705c-.053.309.131.443.408.297l.634-.333.634-.333h0l.505-.266.505.266h0l.941.495.326.171c.278.146.461.012.408-.297l-.121-.705m7.267-3.432-.885-1.795c-.139-.281-.366-.281-.505 0l-.317.642-.317.641h0l-.252.512-1.273.185-.708.103c-.31.045-.381.261-.156.48l1.433 1.397-.096.562h0l-.121.705-.121.705c-.053.309.131.443.408.297l.634-.333.633-.333h0l.505-.266.505.266h0l.941.495.326.171c.278.146.461.012.409-.297l-.121-.705-.121-.705h0l-.096-.562 1.433-1.397c.225-.219.155-.435-.156-.48"/></svg>