<!-- SPDX-FileCopyrightText: © 2025 Schneider Electric SPDX-License-Identifier: LicenseRef-Proprietary -->
<svg xmlns="http://www.w3.org/2000/svg" viewBox="0 0 16 16"><path fill="none" stroke="currentColor" stroke-linecap="round" stroke-linejoin="round" d="m10.084 10.215.122.714c.054.313-.132.448-.413.3l-.33-.174-.952-.501h0L8 10.285l-.511.269h0l-.641.337-.641.337c-.281.147-.467.012-.413-.301l.122-.713.122-.714h0l.098-.569-1.451-1.414c-.227-.222-.156-.44.158-.486l.717-.104 1.288-.187.255-.518h0l.321-.649.32-.65c.141-.284.37-.284.511 0l.896 1.817.571.083h0l.717.104.717.104c.314.046.385.264.157.486l-1.45 1.414"/></svg>