<!-- SPDX-FileCopyrightText: © 2025 Schneider Electric SPDX-License-Identifier: LicenseRef-Proprietary -->
<svg xmlns="http://www.w3.org/2000/svg" viewBox="0 0 16 16"><path fill="none" stroke="currentColor" stroke-linecap="round" stroke-linejoin="round" d="m6.239 3.802.022-.183.151-1.268c.108-.638.275-1.045.517-1.232Q7.285.843 7.963.843h.159q.634 0 1.012.276c.25.187.43.594.535 1.232l.315 3.334 3.418-.712c.609-.108 1.052-.066 1.333.118q.413.28.613.875l.04.157q.202.676.04 1.093-.157.42-.991.854L11.298 9.5l1.785 3.097q.44.833.26 1.33a1.63 1.63 0 0 1-.652.815l-.119.079a1.62 1.62 0 0 1-.936.336q-.494.023-1.173-.652l-2.461-2.701-2.463 2.701q-.676.675-1.134.652c-.305-.007-.642-.122-1.013-.336l-.118-.079q-.556-.317-.677-.815c-.077-.329.029-.775.322-1.33L4.666 9.5 1.568 8.07Q.73 7.635.575 7.234q-.162-.396.04-1.111l.04-.157q.198-.675.596-.916c.262-.156.701-.185 1.307-.077l1.876.386 1.555.353"/></svg>