<!-- SPDX-FileCopyrightText: © 2025 Schneider Electric SPDX-License-Identifier: LicenseRef-Proprietary -->
<svg xmlns="http://www.w3.org/2000/svg" viewBox="0 0 16 16"><path fill="none" stroke="currentColor" stroke-linecap="round" stroke-linejoin="round" stroke-width=".989" d="M2.5.5h12m-13 .993v9.067l6.498 4.94 6.502-4.94V.5M5.9 5.039l-1.024-.211q-.497-.087-.714.042-.217.131-.325.5l-.022.086q-.11.39-.022.606.085.219.542.457l1.691.781-.954 1.691q-.24.455-.176.726.066.273.37.445l.065.043q.304.177.553.183.25.012.619-.356l1.345-1.475 1.344 1.475q.37.369.64.356a.9.9 0 0 0 .511-.183l.065-.043a.9.9 0 0 0 .356-.445q.099-.27-.142-.726L9.647 7.3l1.714-.781q.455-.237.541-.466.089-.227-.022-.597l-.022-.086a.9.9 0 0 0-.334-.478q-.229-.151-.728-.065l-1.866.389-.172-1.82c-.057-.349-.156-.57-.292-.673q-.207-.15-.553-.151h-.087q-.37 0-.565.151c-.132.102-.223.324-.282.673l-.058.49"/></svg>