<!-- SPDX-FileCopyrightText: © 2025 Schneider Electric SPDX-License-Identifier: LicenseRef-Proprietary -->
<svg xmlns="http://www.w3.org/2000/svg" viewBox="0 0 16 16"><path fill="none" stroke="currentColor" stroke-linecap="round" stroke-linejoin="round" d="m6.901 2.398.543-1.089c.305-.619.805-.619 1.112 0l.359.727 1.036 2.098h0l.556 1.127 1.243.18h0l1.559.226 1.559.226c.683.1.838.576.343 1.058L14.084 8.05l-1.128 1.101h0l-.9.876.746 4.343c.117.681-.287.975-.899.653l-1.395-.733-2.506-1.317-1.111.585h0l-1.394.733-1.394.734c-.611.321-1.015.028-.9-.654l.744-4.344-.899-.876h0l-1.128-1.1-1.129-1.1c-.495-.481-.341-.958.344-1.056m6.812-.26L3.762 9.82m4.204-6.448L2.637 8.677m.841-3.07-2.013 1.99m6.493.255-4.239 4.233m4.269-2.044-4.421 4.417m4.377-2.142-1.343 1.342"/></svg>