<!-- SPDX-FileCopyrightText: © 2025 Schneider Electric SPDX-License-Identifier: LicenseRef-Proprietary -->
<svg xmlns="http://www.w3.org/2000/svg" viewBox="0 0 16 16"><path fill="none" stroke="currentColor" stroke-linecap="round" stroke-linejoin="round" d="m3.2 1.597.302-.612c.132-.268.348-.268.48 0l.842 1.711.537.078h0l.674.098.674.098c.296.043.362.249.148.458L5.493 4.76l.092.536h0l.115.672.115.672c.051.295-.125.422-.389.283l-.31-.163-.895-.471h0l-.48-.253-.48.253h0l-.603.318-.603.318c-.264.139-.438.011-.388-.283l.115-.672.115-.672h0l.092-.536L.625 3.43c-.214-.209-.147-.415.149-.458l.674-.098.803-.117m12.103 9.904 1.021-.997c.214-.209.147-.415-.149-.458l-.673-.098-.674-.098h0l-.537-.078-.843-1.711c-.132-.268-.348-.268-.48 0l-.301.612-.302.611h0l-.24.488-1.211.176-.673.098c-.296.043-.363.249-.149.458l1.364 1.332-.092.536h0l-.115.672-.115.672c-.05.295.125.422.389.283l.603-.318.603-.318h0l.48-.253.48.253h0l.895.472.31.163c.264.139.439.012.389-.283l-.115-.672m-9.395-3.271-.842-1.711c-.132-.268-.348-.268-.481 0l-.301.612-.301.611h0l-.24.488-1.211.176-.673.098c-.295.043-.362.249-.149.458l1.364 1.332-.092.536h0l-.115.672-.115.672c-.05.295.124.422.388.283l.603-.318.603-.318h0l.48-.253.48.253h0l.895.472.31.163c.264.139.439.012.389-.283l-.115-.672-.115-.672h0l-.092-.536 1.364-1.332c.214-.209.147-.415-.148-.458m6.631-8.508L12.499.986c-.132-.268-.348-.268-.481 0l-.301.612-.301.611h0l-.24.488-1.211.176-.673.098c-.295.043-.362.249-.149.458l1.364 1.332-.092.536h0l-.115.672-.115.672c-.05.295.124.422.388.283l.603-.318.603-.318h0l.48-.253.48.253h0l.895.472.31.163c.264.139.439.012.389-.283l-.115-.672-.115-.672h0l-.092-.536 1.364-1.332c.214-.209.147-.415-.148-.458"/></svg>