<!-- SPDX-FileCopyrightText: © 2025 Schneider Electric SPDX-License-Identifier: LicenseRef-Proprietary -->
<svg xmlns="http://www.w3.org/2000/svg" viewBox="0 0 16 16"><path fill="none" stroke="currentColor" stroke-linecap="round" stroke-linejoin="round" d="M1.5 5.5V2.894c0-1.061.689-2.035 1.717-2.298C4.867.173 6.5 1.205 6.5 2.808v4.693M.5 5.5h3v4l.81.007c.499-.052.82-.309 1.124-.674.342.412.859.674 1.438.674s1.095-.262 1.438-.674c.343.412.859.674 1.438.674s1.096-.262 1.438-.674a1.87 1.87 0 0 0 2.876 0c.343.412.86.674 1.438.674m-.109 2.94a2.08 2.08 0 0 1-1.603-.752 2.08 2.08 0 0 1-3.205 0 2.082 2.082 0 0 1-3.204 0 2.08 2.08 0 0 1-3.205 0 2.07 2.07 0 0 1-1.384.741M15.487 15.5a2.08 2.08 0 0 1-1.603-.752 2.08 2.08 0 0 1-3.205 0 2.082 2.082 0 0 1-3.204 0 2.08 2.08 0 0 1-3.205 0 2.07 2.07 0 0 1-1.384.741M8.5 6.5V2.285c0-.611-.265-1.307-1.092-1.662"/></svg>