<!-- SPDX-FileCopyrightText: © 2025 Schneider Electric SPDX-License-Identifier: LicenseRef-Proprietary -->
<svg xmlns="http://www.w3.org/2000/svg" viewBox="0 0 16 16"><path fill="none" stroke="currentColor" stroke-linecap="round" stroke-linejoin="round" d="M6.5 15.5h-6v-12l2.368-3h10.263l1.214 1.214M2.5 7.458l11 .042m-11 4h11m-5-6v10h7v-12h-14"/><circle cx="2.5" cy="5.5" r=".5" fill="currentColor"/><path d="M2.5 5a.5.5 0 1 0 0 1 .5.5 0 0 0 0-1z"/><circle cx="4.5" cy="5.5" r=".5" fill="currentColor"/><path d="M4.5 5a.5.5 0 1 0 0 1 .5.5 0 0 0 0-1z"/><circle cx="6.5" cy="5.5" r=".5" fill="currentColor"/><path d="M6.5 5a.5.5 0 1 0 0 1 .5.5 0 0 0 0-1z"/><circle cx="11.5" cy="5.5" r=".5" fill="currentColor"/><path d="M11.5 5a.5.5 0 1 0 0 1 .5.5 0 0 0 0-1z"/><circle cx="13.5" cy="5.5" r=".5" fill="currentColor"/><path d="M13.5 5a.5.5 0 1 0 0 1 .5.5 0 0 0 0-1z"/><circle cx="2.5" cy="9.5" r=".5" fill="currentColor"/><path d="M2.5 9a.5.5 0 1 0 0 1 .5.5 0 0 0 0-1z"/><circle cx="4.5" cy="9.5" r=".5" fill="currentColor"/><path d="M4.5 9a.5.5 0 1 0 0 1 .5.5 0 0 0 0-1z"/><circle cx="6.5" cy="9.5" r=".5" fill="currentColor"/><path d="M6.5 9a.5.5 0 1 0 0 1 .5.5 0 0 0 0-1z"/><circle cx="11.5" cy="9.5" r=".5" fill="currentColor"/><path d="M11.5 9a.5.5 0 1 0 0 1 .5.5 0 0 0 0-1z"/><circle cx="13.5" cy="9.5" r=".5" fill="currentColor"/><path d="M13.5 9a.5.5 0 1 0 0 1 .5.5 0 0 0 0-1z"/><circle cx="2.5" cy="13.5" r=".5" fill="currentColor"/><path d="M2.5 13a.5.5 0 1 0 0 1 .5.5 0 0 0 0-1z"/><circle cx="4.5" cy="13.5" r=".5" fill="currentColor"/><path d="M4.5 13a.5.5 0 1 0 0 1 .5.5 0 0 0 0-1z"/><circle cx="6.5" cy="13.5" r=".5" fill="currentColor"/><path d="M6.5 13a.5.5 0 1 0 0 1 .5.5 0 0 0 0-1z"/><circle cx="11.5" cy="13.5" r=".5" fill="currentColor"/><path d="M11.5 13a.5.5 0 1 0 0 1 .5.5 0 0 0 0-1z"/><circle cx="13.5" cy="13.5" r=".5" fill="currentColor"/><path d="M13.5 13a.5.5 0 1 0 0 1 .5.5 0 0 0 0-1z"/></svg>