<!-- SPDX-FileCopyrightText: © 2025 Schneider Electric SPDX-License-Identifier: LicenseRef-Proprietary -->
<svg xmlns="http://www.w3.org/2000/svg" viewBox="0 0 16 16"><path fill="none" stroke="currentColor" stroke-linecap="round" stroke-linejoin="round" d="m4.506 12.093-.106-.4a.72.72 0 0 1 .191-.681l5.627-5.623a.72.72 0 0 1 1.021 0l.916.915.89.889a.72.72 0 0 1 0 1.02l-5.639 5.634a.72.72 0 0 1-.657.196l-1.3-.269a1.13 1.13 0 0 0-.994.276l-1.569 1.449M14.225 4.305l-2.071 1.999m.867-3.413L15.5 5.473m-6.903 7.184-1.048-1.048m1.537-1.536 1.048 1.048m.509-2.604 1.048 1.048M3.289 2.143l-1 .008M7.5 7.674V6.618c0-.698-.557-1.532-1.247-1.817-.533-.279-.984-1.063-.948-2.626 0 0 1.195.145 1.195-.831v-.193c0-.359-.271-.649-.605-.649H2.132c-.349 0-.632.3-.632.669v.198c0 .814.728.772 1.164.772 0 1.688-.426 2.503-.982 2.79C1.097 5.2.5 6.083.5 6.802V11.8a1.7 1.7 0 0 0 1.701 1.701"/></svg>