<!-- SPDX-FileCopyrightText: © 2025 Schneider Electric SPDX-License-Identifier: LicenseRef-Proprietary -->
<svg xmlns="http://www.w3.org/2000/svg" viewBox="0 0 16 16"><path fill="none" stroke="currentColor" stroke-linecap="round" stroke-linejoin="round" d="M.749 8.337c.637-.088.916-.398.916-.398a.913.913 0 0 1 1.358-.017s.409.432 1.149.432 1.148-.432 1.148-.432a.94.94 0 0 1 1.376 0s.409.432 1.149.432 1.147-.432 1.147-.432a.94.94 0 0 1 1.376 0s.41.432 1.149.432 1.148-.432 1.148-.432a.94.94 0 0 1 1.376 0s.41.432 1.149.432m-.669 2.623c.588-.489.979-1.419.979-2.721 0-1.995-.92-3.755-2.054-3.755h-1.895c-.55 0-1.179-.413-1.398-.917l-.072-.165c-.219-.505-.848-.917-1.398-.917H7.564c-.55 0-1.164.419-1.365.931l-.054.138c-.201.512-.815.931-1.365.931H2.719C1.562 4.502.5 6.295.5 8.327s1.063 3.175 2.219 3.175h0c.429 0 .781.45.781 1h0c0 .55.229 1 .509 1s.793-.35 1.139-.777l.362-.447c.346-.427 1.08-.777 1.63-.777h1.61c.55 0 1.281.352 1.624.781l.349.437c.343.43.883.781 1.2.781s.576-.45.576-1v-1"/></svg>