<!-- SPDX-FileCopyrightText: © 2025 Schneider Electric SPDX-License-Identifier: LicenseRef-Proprietary -->
<svg xmlns="http://www.w3.org/2000/svg" viewBox="0 0 16 16"><path d="M7.366 7.124V3.433q0-.407.04-.625a.66.66 0 0 1 .179-.36 1 1 0 0 1 .219-.156.75.75 0 0 1 .875.157.6.6 0 0 1 .165.367q.023.227.023.618v9.134q0 .407-.023.625a.58.58 0 0 1-.165.36 1 1 0 0 1-.219.156.66.66 0 0 1-.328.078.8.8 0 0 1-.547-.219.74.74 0 0 1-.179-.383 4 4 0 0 1-.04-.617V8.33H1.501v4.222q0 .408-.031.633a.6.6 0 0 1-.188.368q-.079.077-.211.156c-.132.079-.201.078-.336.078a.8.8 0 0 1-.547-.219.65.65 0 0 1-.164-.383 6 6 0 0 1-.023-.633V3.449q0-.407.023-.633a.6.6 0 0 1 .164-.367 1 1 0 0 1 .219-.156.7.7 0 0 1 .328-.078q.328 0 .547.235a.6.6 0 0 1 .188.367q.03.228.031.633v3.675h5.865ZM16 12.739q0 .141-.008.321c-.008.18-.031.235-.078.344s-.117.2-.211.273q-.14.11-.391.109c-.251-.001-.297-.039-.391-.117a.7.7 0 0 1-.204-.274q-.062-.156-.07-.313c-.008-.157-.007-.182-.007-.235V4.716q-.642.548-1.103.86-.462.313-.767.485a2 2 0 0 1-.492.219 1.3 1.3 0 0 1-.297.047q-.141 0-.321-.133t-.18-.43a.5.5 0 0 1 .117-.321q.117-.148.555-.352.14-.062.461-.235.32-.172.696-.453t.766-.657.703-.86q.14-.219.266-.352c.126-.133.199-.133.344-.133q.235 0 .352.117a.8.8 0 0 1 .179.281q.063.165.071.344.008.18.008.289v9.306Z"/></svg>