<!-- SPDX-FileCopyrightText: © 2025 Schneider Electric SPDX-License-Identifier: LicenseRef-Proprietary -->
<svg xmlns="http://www.w3.org/2000/svg" viewBox="0 0 16 16"><path fill="none" stroke="currentColor" stroke-linecap="round" stroke-linejoin="round" d="M13.5 1.184V3.5m-.013-.073-2.013-.653m.807 2.439 1.244-1.709m1.244 1.709-1.244-1.709m-.038-.077 2.013-.653M3.5 7.5h-3m6-1h-1l.04 3.713c-.015 0-1.689.272-1.689 2.741 0 1.67 1.611 2.539 2.923 2.539 1.437 0 3.178-.954 3.178-2.591 0-2.332-1.422-2.612-1.451-2.67l-.005-8.486C8.495.075 5.5.075 5.5 1.747V4.5"/></svg>