<!-- SPDX-FileCopyrightText: © 2025 Schneider Electric SPDX-License-Identifier: LicenseRef-Proprietary -->
<svg xmlns="http://www.w3.org/2000/svg" viewBox="0 0 16 16"><path fill="none" stroke="currentColor" stroke-linecap="round" stroke-linejoin="round" d="M3.5 4.551V1.754c0-1.672 2.995-1.672 2.995 0L6.5 10.24c.029.058 1.451.338 1.451 2.67 0 1.637-1.741 2.591-3.178 2.591-1.311 0-2.923-.869-2.923-2.539 0-2.468 1.674-2.741 1.689-2.741l-.04-3.669h1m3.915-3.097c1.461 0 3.09-1.494 3.09-2.955m.947 1.969c.621 1.059 1.423.986 2.154.986m-3.09 3.266c0-1.461-1.64-3.266-3.101-3.266m6.191 0c-1.461 0-3.09 1.805-3.09 3.266"/></svg>