<!-- SPDX-FileCopyrightText: © 2025 Schneider Electric SPDX-License-Identifier: LicenseRef-Proprietary -->
<svg xmlns="http://www.w3.org/2000/svg" viewBox="0 0 16 16"><path fill="none" stroke="currentColor" stroke-linecap="round" stroke-linejoin="round" d="M2 6v3m1.5-1.5h-3m12.708-1.238c1.418-2.89-1.605-3.514-.562-5.762m2.468 5.762c1.418-2.89-1.605-3.513-.563-5.762m-3.255 5.762c1.418-2.89-1.6-3.514-.558-5.762M6.5 6.5h-1l.04 3.713c-.015 0-1.689.272-1.689 2.741 0 1.67 1.611 2.539 2.923 2.539 1.437 0 3.178-.954 3.178-2.591 0-2.332-1.422-2.612-1.451-2.67l-.005-8.486C8.495.075 5.5.075 5.5 1.747V4.5"/></svg>