<!-- SPDX-FileCopyrightText: © 2025 Schneider Electric SPDX-License-Identifier: LicenseRef-Proprietary -->
<svg xmlns="http://www.w3.org/2000/svg" viewBox="0 0 16 16"><path fill="none" stroke="currentColor" stroke-linecap="round" stroke-linejoin="round" d="M.798 6.515c.406-1.697 1.422-3.281 2.958-4.323m.135 1.901a5.74 5.74 0 0 0-1.513 2.625m2.032-.904a4.6 4.6 0 0 0-.542 1.109m.926 7.875a7.27 7.27 0 0 0 5.238.385m-3.635-1.449c.994.271 2.055.249 3.026 0m-1.807-1.313c.406.022.813 0 1.219-.091m6.367-4.751a7.35 7.35 0 0 0-2.281-4.707m.543 3.869a5.67 5.67 0 0 0-1.513-2.625m-.225 2.218a3.8 3.8 0 0 0-.7-.996m-1.314 4.694 1.653 3.951c1.558-.385 3.883-1.698 3.612-3.44-.271-1.72-2.099-2.399-5.057-2.648-.113-.86-.79-1.539-1.648-1.697l2.958-3.892C10.122 1.151 7.819-.206 6.442.925c-1.355 1.086-1.039 3.01.226 5.68-.452.385-.768.95-.768 1.607 0 .226.045.475.113.679L1.204 8.28C.752 9.819.73 12.467 2.378 13.123c1.626.611 3.139-.611 4.809-3.032q.339.136.745.136.237-.001.459-.053"/></svg>