<!-- SPDX-FileCopyrightText: © 2025 Schneider Electric SPDX-License-Identifier: LicenseRef-Proprietary -->
<svg xmlns="http://www.w3.org/2000/svg" viewBox="0 0 16 16"><path fill="none" stroke="currentColor" stroke-linecap="round" stroke-linejoin="round" d="M2.034 7.442a6.1 6.1 0 0 1 1.614-2.801m.554 1.835a5 5 0 0 0-.578 1.184m2.698 7.268c1.06.289 2.192.265 3.228 0m-1.927-1.401c.434.024.867 0 1.301-.097m4.939-5.964a6.06 6.06 0 0 0-1.614-2.801m-.241 2.367a4 4 0 0 0-.747-1.063m-1.402 5.008 1.764 4.216c1.662-.41 4.144-1.811 3.854-3.671-.289-1.835-2.241-2.559-5.397-2.825-.12-.918-.843-1.642-1.759-1.811l3.156-4.154C10.297 1.502 7.84.053 6.37 1.26c-1.445 1.159-1.108 3.212.241 6.061-.482.411-.819 1.014-.819 1.714 0 .242.048.507.12.725L.781 9.108c-.482 1.642-.506 4.468 1.253 5.168 1.735.652 3.349-.652 5.132-3.236q.361.145.795.145.253-.001.489-.056"/></svg>