<!-- SPDX-FileCopyrightText: © 2025 Schneider Electric SPDX-License-Identifier: LicenseRef-Proprietary -->
<svg xmlns="http://www.w3.org/2000/svg" viewBox="0 0 16 16"><path fill="none" stroke="currentColor" stroke-linecap="round" stroke-linejoin="round" d="m10.475 4.507 2.992-.014v-.005c.593 0 1.682.263 1.682 1.521 0 .914-.406 1.474-.999 1.474.653 0 1.35.454 1.35 1.598 0 .912-.61 1.392-1.148 1.392h-2.033c.829 0 2.363-.215 2.363 1.661 0 .969-.755 1.125-1.437 1.125l-1.006-.06s1.324-.139 1.324 1.187c0 1.218-1.501 1.105-1.995 1.105l-2.443-.035H4.904s-1.428-.303-1.414-1.693m6.985-9.269V2.487C10.368.403 8.258.46 7.777.52c-.068.008-.12.072-.294.143v2.083c0 1.36-.301 2.46-.81 2.99-.309.322-.66.547-.987.704q-.126.06-.247.108m9.026.936H12.47m0 2.99h1.995m-10.973 0V7.875c0-.864-.673-1.57-1.496-1.57h0C1.658 6.305.5 6.269.5 6.269v6.711c0 .47.035 2.485.035 2.485s1.087.036 1.461.036h0c.823 0 1.496-.708 1.496-1.57"/></svg>