<!-- SPDX-FileCopyrightText: © 2025 Schneider Electric SPDX-License-Identifier: LicenseRef-Proprietary -->
<svg xmlns="http://www.w3.org/2000/svg" viewBox="0 0 16 16"><path fill="none" stroke="currentColor" stroke-linecap="round" stroke-linejoin="round" d="M10.278 11.685c-.378.386-.885.325-1.277-.068L5.458 8.163a1.154 1.154 0 0 1-.054-1.577L3.857 5.07a1.79 1.79 0 0 1-1.784-.447L1.012 3.56a1.795 1.795 0 0 1 0-2.531l.007-.007a1.79 1.79 0 0 1 2.527 0l1.047 1.069c.5.494.635 1.225.419 1.854l1.52 1.489a1.145 1.145 0 0 1 1.628 0l3.543 3.454a.97.97 0 0 1 .196 1.151c-.014.02 3.368 3.47 3.368 3.47a.753.753 0 0 1 0 1.069l-.696.697a.75.75 0 0 1-1.067 0l-2.189-2.277m-2.69-7.121L7.271 7.259a.11.11 0 0 0 0 .162l2.291 2.294a.11.11 0 0 0 .162 0l.31-.313m5.475-3.973A4.93 4.93 0 0 0 10.58.5m3.105 4.929a3.105 3.105 0 0 0-3.105-3.105m1.263 3.105c0-.698-.566-1.263-1.263-1.263"/><path d="M2.34 3.215a.806.806 0 1 0-.002-1.612.806.806 0 0 0 .002 1.612Z"/></svg>