<!-- SPDX-FileCopyrightText: © 2025 Schneider Electric SPDX-License-Identifier: LicenseRef-Proprietary -->
<svg xmlns="http://www.w3.org/2000/svg" viewBox="0 0 16 16"><path fill="none" stroke="currentColor" stroke-linecap="round" stroke-linejoin="round" d="M3.5 3.5H.641 2.5m8.155 0H15.5m-15 12V.5m15 0v15M5.453 14.237c.353.369 1.166.263 1.166.263h5.016c.923 0 .865-1.403.865-1.403L12.415 3.5m-.535-1.513c-.49-.53-1.143-.487-1.143-.487H5.721c-2.018 0-1.888 2.762-1.888 2.762-.084 1.785-.288 6.9-.288 7.432 0 .608.318 1.054.774 1.054.351 0 3.589.005 5.121 0 .461-.002.924-.452.921-.825l-.012-1.008c-.005-.465-.012-.502-.018-1.122-.014-1.273.325-6.293.325-6.293m-7.012 6H8.5M1.572 7.465H.608m14.605 0h-.964"/></svg>