<!-- SPDX-FileCopyrightText: © 2025 Schneider Electric SPDX-License-Identifier: LicenseRef-Proprietary -->
<svg xmlns="http://www.w3.org/2000/svg" viewBox="0 0 16 16"><path fill="none" stroke="currentColor" stroke-linecap="round" stroke-linejoin="round" d="m.51 3.158 3.166.853L.499 5.738s9.783-.09 10.947 0 3.031 1.211 3.785 3.025c.645 1.55-.076 2.538-.076 2.737h-4.672c.179-.037.292.197.292.458a.884.884 0 0 1-1.769 0c0-.254.107-.483.279-.458H6.983c.178-.037.291.197.291.458a.884.884 0 1 1-1.768 0c0-.254.107-.483.279-.458H3.533c.179-.037.291.197.291.458a.884.884 0 0 1-1.769 0c0-.254.022-.366.28-.458H.5"/></svg>