<!-- SPDX-FileCopyrightText: © 2025 Schneider Electric SPDX-License-Identifier: LicenseRef-Proprietary -->
<svg xmlns="http://www.w3.org/2000/svg" viewBox="0 0 16 16"><path fill="none" stroke="currentColor" stroke-linecap="round" stroke-linejoin="round" d="M13.954 2.089v5.466l-1.583.002m-2.76-.819c-.121.208-.191.45-.191.709 0 .777.627 1.406 1.401 1.406s1.401-.63 1.401-1.406c0-.777-.627-1.406-1.401-1.406M12.334.5c0 .421.167.825.464 1.123a1.58 1.58 0 0 0 2.238 0c.297-.298.464-.702.464-1.123M6.259 8.429l2.152 2.295m-2.163 2.381L8.393 15.5l2.438-2.427m-2.417-2.339v4.59M2.083 2.089v5.466l1.583.002m1.513-1.516c-.774 0-1.401.63-1.401 1.406s.627 1.406 1.401 1.406a1.404 1.404 0 0 0 1.21-2.115M.5.5c0 .421.167.825.464 1.123a1.58 1.58 0 0 0 2.238 0c.297-.298.464-.702.464-1.123"/></svg>