<!-- SPDX-FileCopyrightText: © 2025 Schneider Electric SPDX-License-Identifier: LicenseRef-Proprietary -->
<svg xmlns="http://www.w3.org/2000/svg" viewBox="0 0 16 16"><path fill="none" stroke="currentColor" stroke-linecap="round" stroke-linejoin="round" d="M11.497 10.763v3.019m-2-3.406V13.5m4-3.15v3.15M3.669 6.851c.609-.391 1.066-.811 1.709-1.461 1.726-1.745 2.653-3.626 2.071-4.201L6.922.668C6.434.185 5.036.779 3.579 2.014l-.841-.275-1.042 1.053.284.838C.763 5.1.185 6.504.673 6.987l.527.521c.195.193.536.215.967.092m13.33-.487c0-.872-1.767-1.579-3.947-1.579s-3.947.707-3.947 1.579S9.37 8.692 11.55 8.692c.881 0 1.695-.116 2.352-.311M7.497 9.587v4.377c0 .884 1.791 1.6 4 1.6s4-.716 4-1.6v-6.85M15.524.5c-2.551 0-3.077 1.289-3.077 2.954M11.208 2.11l1.156 1.402 1.556-1.003"/></svg>