<!-- SPDX-FileCopyrightText: © 2025 Schneider Electric SPDX-License-Identifier: LicenseRef-Proprietary -->
<svg xmlns="http://www.w3.org/2000/svg" viewBox="0 0 16 16"><path fill="none" stroke="currentColor" stroke-linecap="round" stroke-linejoin="round" d="M10.405 15.5c-.258-5.161.508-6.397.508-6.397a2.57 2.57 0 0 1-1.809.747c-1.437 0-2.602-1.189-2.602-2.655 0-1.358 1-2.478 2.291-2.635a2.9 2.9 0 0 1-.162-.947c0-1.539 1.222-2.786 2.73-2.786s2.73 1.247 2.73 2.786c0 .587-.178 1.132-.482 1.581 1.087.28 1.891 1.284 1.891 2.48 0 1.413-1.123 2.558-2.507 2.558a2.5 2.5 0 0 1-.514-.053m-5.581-7.19C6.139 2.34 5.477 1.458 5.191.5 4.94 1.506 3.788 2.958 2.377 3.821c0 0 .63 1.063 1.836 1.063 0 0-.884 1.574-2.979 2.701 0 0 1.231 1.466 2.211 1.466 0 0-1.665 2.137-2.945 2.79 0 0 1.193 1.523 3.702 1.523 0 0-.061 1.515-.503 2.136m5.032-2.757c-.604.329-1.451.621-2.551.621 0 0 .061 1.515.503 2.136"/></svg>