<!-- SPDX-FileCopyrightText: © 2025 Schneider Electric SPDX-License-Identifier: LicenseRef-Proprietary -->
<svg xmlns="http://www.w3.org/2000/svg" viewBox="0 0 16 16"><path fill="none" stroke="currentColor" stroke-linecap="round" stroke-linejoin="round" d="M6.5 9.5H3.482c-1.059 0-1.494-.709-.966-1.575l4.525-6.776c.527-.866 1.391-.866 1.918 0l4.525 6.776c.527.866.093 1.575-.966 1.575H9.5m.036 6h3.44a.525.525 0 0 0 .524-.524v-1.951a.525.525 0 0 0-.525-.525H3.024a.525.525 0 0 0-.525.525v1.95c0 .29.235.525.525.525H6.5"/></svg>