<!-- SPDX-FileCopyrightText: © 2025 Schneider Electric SPDX-License-Identifier: LicenseRef-Proprietary -->
<svg xmlns="http://www.w3.org/2000/svg" viewBox="0 0 16 16"><path d="M13.784 2.78a.576.576 0 1 1-1.153 0 .576.576 0 0 1 1.153 0Z"/><path fill="none" stroke="currentColor" stroke-linecap="round" stroke-linejoin="round" d="M15.5 14.318c0 .569-.461 1.182-1.03 1.182H1.53A1.03 1.03 0 0 1 .5 14.47V1.53C.5.961.961.5 1.53.5h12.94c.569 0 1.03.461 1.03 1.03V12.5m-5.58-.973c-.073-.385-.144-1.379-.154-2.666l1.734-.267V6.539L9.182 6.5c-.398.672-.893.738-1.192.738-.228 0-.75-.108-1.056-.738H4.5l-.029 2.033 1.512.153c-.142 1.695.004 2.858-.418 4.444 1.215.639 2.696.824 4.233.335a5.27 5.27 0 0 0 3.38-3.37 6 6 0 0 0 .296-2.292M3.433 5.151a5.5 5.5 0 0 0-.892 2.674 5.52 5.52 0 0 0 1.158 3.768m4.088-9.1c-.465 1.035.438 1.385 0 2.358M5.764 2.493c-.465 1.035.437 1.385 0 2.358m4.085-2.348c-.466 1.035.437 1.385 0 2.358"/></svg>