<!-- SPDX-FileCopyrightText: © 2025 Schneider Electric SPDX-License-Identifier: LicenseRef-Proprietary -->
<svg xmlns="http://www.w3.org/2000/svg" viewBox="0 0 16 16"><path fill="none" stroke="currentColor" stroke-linecap="round" stroke-linejoin="round" d="m7.619 14.492-3.836.993c-.473.095-.915-.286-1.283-.769v-.647L.508 12.325.5 4.426l2.006-.529m11.04 3.117-.638-1.327-5.144 1.331 4.174 8.467 1.302-.407m2.26-.397c-2.198-.965-1.877-3.018-1.877-3.018l-1.45-1.168c-1.963-.985-.584-2.193-.584-2.193l3.201 1.4.71.259-.006-8.563c0-.578-.525-1.006-1.075-.876L3.18 3.183a.88.88 0 0 0-.68.86V10.5m2.719-5.239 8.31-2.117M5.43 7.966l.532-.149m-.745 2.54 1.8-.397M5.29 12.81l2.651-.709"/></svg>