<!-- SPDX-FileCopyrightText: © 2025 Schneider Electric SPDX-License-Identifier: LicenseRef-Proprietary -->
<svg xmlns="http://www.w3.org/2000/svg" viewBox="0 0 16 16"><path fill="none" stroke="currentColor" stroke-linecap="round" stroke-linejoin="round" d="m7.619 14.492-3.836.993c-.473.095-.915-.286-1.283-.769v-.647L.508 12.325.5 4.426l2.006-.529m10.217 2.809-.638-1.327L6.941 6.71l4.174 8.467 1.302-.407m3.083-.089c-2.198-.965-1.877-3.018-1.877-3.018l-1.45-1.168c-1.963-.985-.584-2.193-.584-2.193l3.201 1.4.71.259-.006-8.563c0-.578-.525-1.006-1.075-.876L3.18 3.183a.88.88 0 0 0-.68.86V10.5"/></svg>