<!-- SPDX-FileCopyrightText: © 2025 Schneider Electric SPDX-License-Identifier: LicenseRef-Proprietary -->
<svg xmlns="http://www.w3.org/2000/svg" viewBox="0 0 16 16"><path fill="none" stroke="currentColor" stroke-linecap="round" stroke-linejoin="round" d="m7.381 4.985.384-3.659A.943.943 0 0 1 8.817.507h0a.943.943 0 0 1 .819 1.052l-.323 4.567 2.455-3.33a.94.94 0 0 1 1.278-.379h0c.458.248.627.82.379 1.278L10.33 8.781M2.977 11.5v1.001A3 3 0 0 0 5.976 15.5h3.089a2.91 2.91 0 0 0 2.912-2.912v-1.649c0-.702-.366-1.357-.977-1.75L8.396 7.683a.936.936 0 0 0-1.289.321h0A.947.947 0 0 0 7.426 9.3l.956.58c.449.272.723.76.723 1.287h0c0 .368.069.728.2 1.064m-2.472-3.53L5.701 6.085a.856.856 0 0 0-1.113-.476h0a.856.856 0 0 0-.476 1.113M3.225 9.15a.856.856 0 0 0 1.113.476h0a.856.856 0 0 0 .476-1.113l.44 1.021a.85.85 0 0 0 1.112.468s.761-.293.49-1.223M4.112 6.722a.856.856 0 0 0-1.113-.476h0a.856.856 0 0 0-.476 1.113"/></svg>