<!-- SPDX-FileCopyrightText: © 2025 Schneider Electric SPDX-License-Identifier: LicenseRef-Proprietary -->
<svg xmlns="http://www.w3.org/2000/svg" viewBox="0 0 16 16"><path fill="none" stroke="currentColor" stroke-linecap="round" stroke-linejoin="round" d="M15.5 15.5v-1h-12V2.892L.534.5m9.967 14V7.605h0a1.202 1.202 0 0 0 2.404 0c0 .805.791 1.426 1.639 1.124.513-.182.792-.734.759-1.277-.111-1.829-2.217-3.288-4.802-3.288-2.562 0-4.656 1.434-4.8 3.242-.051.639.354 1.277.987 1.383a1.202 1.202 0 0 0 1.409-1.184c0 .553.374 1.019.882 1.159"/></svg>