<!-- SPDX-FileCopyrightText: © 2025 Schneider Electric SPDX-License-Identifier: LicenseRef-Proprietary -->
<svg xmlns="http://www.w3.org/2000/svg" viewBox="0 0 16 16"><path fill="none" stroke="currentColor" stroke-linecap="round" stroke-linejoin="round" d="M2.929 10.203c.713 4.739-5.97.019.005-4.288 5.913-4.054 8.424 3.677 3.872 1.594.928 1.298-1.12 2.72-2.009 1.396h0l4.165 5.916M12.345.533c-.715 1.939 1.129 4.044 3.142 3.558m-.032 2.919-.099-1.018m-2.687-.572-.5.891M9.875 3.844l.918-.442M10.408.668 9.404.5m1.555 14.66c2.962.526 4.541.284 4.541.284m-9.267-1.237c-3.271-.371-5.716.244-5.716.244"/></svg>