<!-- SPDX-FileCopyrightText: © 2025 Schneider Electric SPDX-License-Identifier: LicenseRef-Proprietary -->
<svg xmlns="http://www.w3.org/2000/svg" viewBox="0 0 16 16"><path fill="none" stroke="currentColor" stroke-linecap="round" stroke-linejoin="round" d="m15.194 6.241-3.236 5.02 3.542-.655-4.023 4.889m-6.093-2.882a1.476 1.476 0 0 0 .155 2.859 1.479 1.479 0 0 0 1.683-1.934m-4.197-6.42A1.395 1.395 0 0 0 1.9 4.891c-.773 0-1.4.624-1.4 1.395 0 .62.407 1.146.968 1.328l.032.26c.588 1.865 2.133 1.549 2.972 2.238 0 0 1.028.877 1.028 1.624v.763m-.204-1.933s.784 1.329 1.741-.348c.993-1.74 2.437-1.725 2.437-1.712l.025-.006 2-.008V5.5h-3v1M7.434 3.402 5.624.5l-1.899 3h1.776v9"/></svg>