<!-- SPDX-FileCopyrightText: © 2025 Schneider Electric SPDX-License-Identifier: LicenseRef-Proprietary -->
<svg xmlns="http://www.w3.org/2000/svg" viewBox="0 0 16 16"><path fill="none" stroke="currentColor" stroke-linecap="round" stroke-linejoin="round" d="M7.489 4.346c-3.834 0-4.565-.566-4.565-.982 0-.566 1.69-1.054 4.467-1.148m2.116 2.13c1.595-.076 4.094-.468 4.094-.982 0-.576-1.508-1.157-4.359-1.239M1.42 6.5C.912 6.5.5 8.945.5 10.704c0 1.995.412 3.796.92 3.796m1.135 0c.508 0 .92-1.801.92-3.796M1.5 6.5h1m-1 8h1m7-10v2.003c.224.111.488.264.764.475q.363.278.593.529c.781-.005 1.274.005 2.055 0M9.243 2.124c-.039-.486-.072-1.081-.92-1.081-.823 0-.902.661-.931 1.172M2.671 6.5l.885 1h2.586a5.2 5.2 0 0 1 1.357-1.091V4.5m7.081 10c.508 0 .92-1.801.92-3.796S15.088 6.5 14.58 6.5m-.08 0h-1m1 8h-1.268l-.579-1H5.5m8-7-.578 1.003"/></svg>