<!-- SPDX-FileCopyrightText: © 2025 Schneider Electric SPDX-License-Identifier: LicenseRef-Proprietary -->
<svg xmlns="http://www.w3.org/2000/svg" viewBox="0 0 16 16"><path fill="none" stroke="currentColor" stroke-linecap="round" stroke-linejoin="round" d="M9.248.777 8.21.608M9.565 3.35l-.949.446m2.998 1.921-.518.901m3.27-.46.101 1.029M11.25.608a2.805 2.805 0 0 0 3.25 3.649M9.169 5.978l-2.69 2.331M6.5 6.5v2h2m-.165 4.76-2.597-2.3M6.5 13.5h2v-2m-5 3v1h11m-11-11V2.313L1.516.5m2.026 6.554-1.297-.973m0 2.634 1.297.973m-1.297 1.634 1.297.973"/></svg>