<!-- SPDX-FileCopyrightText: © 2025 Schneider Electric SPDX-License-Identifier: LicenseRef-Proprietary -->
<svg xmlns="http://www.w3.org/2000/svg" viewBox="0 0 16 16"><path stroke="currentColor" stroke-linecap="round" stroke-linejoin="round" d="m5.054 11.502-2.042 2.639m.772-6.843L.546 6.769m5.964-2.79L5.065.69m5.86 3.486 2.042-2.639m-.34 7.014 2.775.417m-11.448.588-2.077.783M4.44 5.235l-1.834-1.25m5.917-.412.339-2.194M7.039 12.416 6.7 14.61m5.884-8.164 1.99-.983"/><path fill="none" stroke="currentColor" stroke-linecap="round" stroke-linejoin="round" d="M6.54 7.542a.5.5 0 0 1-.26.66m3.522-.393a.434.434 0 0 0 .245.564m-1.568 1.649a.364.364 0 0 0-.478-.189m5.253 2.245-1.907-1.294a4.24 4.24 0 0 0 .92-3.813 4.233 4.233 0 1 0-8.214 2.05 4.23 4.23 0 0 0 5.131 3.084l1.324 3.155M8.056 6.247c.186.18.483.175.663-.012m-8.125.104L.5 7.228m2.012-3.856-.475.757M4.638.856 5.458.5m3.903.637-.888-.104M15.5 8.482l-.133.884m-.676-4.49.424.787m-2.323-4.632.759.471m-.444 11.034.551-.704M10.162 15.5l.831-.329m-4.834-.373.879.158m-5.272-4.119L1.452 10m.885 4.18.69.569"/></svg>