<!-- SPDX-FileCopyrightText: © 1996-2024 Visa SPDX-License-Identifier: LicenseRef-Proprietary -->
<svg xmlns="http://www.w3.org/2000/svg" version="1.1" viewBox="0 0 263.863 263.993"><path fill="#ffffff" d="M0 263.993h263.863V0H0Z"/><path fill="#1434cb" d="M256.697 256.693H7.3V129.556h249.397ZM157.175 35.822c-15.161 0-25.827 8.053-25.912 19.594-.097 8.535 7.62 13.293 13.42 16.135 5.981 2.905 7.984 4.769 7.955 7.365-.041 3.977-4.769 5.74-9.17 5.805-7.716.121-12.188-2.086-15.752-3.748l-2.785 12.996c3.59 1.642 10.203 3.075 17.05 3.148 16.12 0 26.66-7.962 26.708-20.287.067-15.644-21.63-16.51-21.485-23.5.047-2.124 2.075-4.386 6.504-4.965 2.196-.284 8.256-.513 15.125 2.653l2.688-12.579c-3.69-1.333-8.438-2.617-14.346-2.617zM33.472 36.904l-.363 1.721c5.353 1.165 11.443 3.037 15.13 5.041 2.255 1.23 2.902 2.3 3.643 5.209l12.229 47.31H80.32l24.85-59.28H89.057L73.105 77.25l-6.461-34.307c-.761-3.828-3.752-6.039-7.076-6.039zm78.275 0L99.066 96.186h15.338l12.68-59.282zm85.69 0c-2.95 0-5.435 1.71-6.535 4.346L167.89 96.186h16.105l3.198-8.854h19.674l1.859 8.854h14.18l-12.389-59.282Zm2.242 16.016 4.645 22.264h-12.717z"/><path fill="#ffffff" d="M65.648 176.64q-2.987 0-5.367 1.003-2.38 1.004-3.756 2.97-1.378 1.967-1.377 4.8 0 2.319.765 3.814a6.65 6.65 0 0 0 2.106 2.437q1.336.946 3.027 1.537 1.692.59 3.58 1.1 2.4.63 3.895 1.24 1.494.609 2.164 1.514.668.905.668 2.36 0 4.09-5.94 4.089-2.793 0-5.546-.943t-4.72-2.596h-.116l.312 4.996q1.692 1.22 4.406 1.947 2.715.726 5.39.727 5.346 0 8.317-2.418t2.97-6.983q.001-2.358-.766-3.873a6.44 6.44 0 0 0-2.104-2.44q-1.338-.923-3.127-1.493a88 88 0 0 0-3.836-1.121q-2.163-.591-3.617-1.143-1.456-.549-2.186-1.416-.727-.864-.726-2.398 0-2.007 1.533-2.81 1.535-.809 4.014-.808 1.572-.001 3.185.373t3.05 1.002q1.434.63 2.417 1.455h.12l-.356-4.957q-1.061-.666-3.047-1.316-1.988-.648-5.332-.648zm51.644 0q-3.5 0-6.293 1.2-2.793 1.201-4.777 3.305-1.988 2.102-3.03 4.916t-1.042 6.078q0 3.224 1.043 6.056 1.041 2.832 3.03 4.936 1.982 2.105 4.796 3.306 2.813 1.199 6.353 1.198 3.147.001 5.506-.766t4.092-1.947l.549-5.233h-.117a13.4 13.4 0 0 1-3.856 2.618q-2.203 1.002-5.545 1.002-3.266 0-5.586-1.375-2.321-1.38-3.558-3.897-1.24-2.516-1.24-5.898 0-3.383 1.22-5.9 1.217-2.519 3.52-3.895 2.3-1.377 5.566-1.377 2.989 0 5.23.965 2.243.963 3.895 2.576h.117l-.548-5.35q-1.614-1.22-3.895-1.869-2.282-.648-5.43-.648zm-36.931.551v29.893h19.273v-4.326H85.63v-9.086h11.053v-4.17H85.63v-7.984h14.004v-4.327zm50.855 0v18.526q0 6.333 3.346 9.127 3.343 2.79 9.361 2.79 6.057 0 9.223-2.812t3.166-9.105V177.19h-4.404v18.25q-.001 4.21-1.85 5.961-1.85 1.75-5.9 1.748-4.091.001-5.88-1.806-1.79-1.81-1.79-6.02V177.19Zm30.248 0v29.893h5.272v-11.72h5.27l6.923 11.72h6.057l-7.67-12.428q2.91-.746 4.601-3.03 1.691-2.279 1.692-5.349 0-2.594-1.14-4.662-1.142-2.064-3.284-3.244-2.145-1.18-5.094-1.18zm27.455 0v29.893h19.274v-4.326h-14.004v-9.086h11.055v-4.17h-11.055v-7.984h14.004v-4.327zm-22.183 4.17h5.94q2.87 0 4.148 1.24t1.277 3.794q.001 2.557-1.277 3.796t-4.149 1.239h-5.94z"/></svg>