<!-- SPDX-FileCopyrightText: © 2024 VK SPDX-License-Identifier: LicenseRef-Proprietary -->
<svg xmlns="http://www.w3.org/2000/svg" fill="none" viewBox="0 0 40 40" xmlns:xlink="http://www.w3.org/1999/xlink"><g clip-path="url(#a)"><path fill="#99A2AD" d="M19.18 40h1.665c9.041 0 13.563 0 16.371-2.808S40 29.864 40 20.845v-1.69c0-9.017 0-13.539-2.784-16.347S29.886 0 20.845 0h-1.666C10.136 0 5.616 0 2.808 2.808S0 10.134 0 19.155v1.69c0 9.019 0 13.539 2.808 16.347S10.136 40 19.179 40Z"/><path fill="white" d="M21.464 28.84c-9.019 0-14.492-6.258-14.705-16.656h4.568c.142 7.638 3.617 10.88 6.281 11.54v-11.54h4.38v6.59c2.57-.285 5.257-3.283 6.163-6.59h4.305c-.69 4.068-3.616 7.067-5.686 8.304 2.07 1 5.402 3.617 6.686 8.352h-4.734c-1-3.165-3.451-5.616-6.734-5.95v5.95z"/></g><defs><clipPath id="a"><path fill="white" d="M0 0h40v40H0z"/></clipPath></defs></svg>