<!-- SPDX-FileCopyrightText: © 2025 Schneider Electric SPDX-License-Identifier: LicenseRef-Proprietary -->
<svg xmlns="http://www.w3.org/2000/svg" viewBox="0 0 16 16"><path fill="none" stroke="currentColor" stroke-linecap="round" stroke-linejoin="round" d="M15.5 8c0 4.142-3.357 7.5-7.5 7.5S.5 12.143.5 8 3.858.5 8 .5s7.5 3.358 7.5 7.5Z"/><path d="M7.998 12.125a.58.58 0 0 1-.349-.1.7.7 0 0 1-.224-.301L4.858 5.912a.56.56 0 0 1-.038-.343.38.38 0 0 1 .158-.225.5.5 0 0 1 .291-.081q.22 0 .334.096c.114.096.14.159.191.286l2.405 5.573h-.353l2.386-5.583q.085-.182.205-.276c.12-.094.189-.096.33-.096q.171 0 .282.081a.36.36 0 0 1 .139.225.6.6 0 0 1-.059.343l-2.557 5.812a.7.7 0 0 1-.219.301.58.58 0 0 1-.353.1Z"/></svg>