<!-- SPDX-FileCopyrightText: © 2025 Schneider Electric SPDX-License-Identifier: LicenseRef-Proprietary -->
<svg xmlns="http://www.w3.org/2000/svg" viewBox="0 0 16 16"><path fill="none" stroke="currentColor" stroke-linecap="round" stroke-linejoin="round" d="M14.5 13.607a.893.893 0 0 1-.893.893H2.393a.893.893 0 0 1-.893-.893V2.393c0-.493.4-.893.893-.893h11.214c.493 0 .893.4.893.893V11.5M6.3 9.114c.286.372.838.837 1.473.837s1.188-.465 1.474-.837c.285.372.838.837 1.472.837s1.188-.252 1.474-.624a4.42 4.42 0 0 0-7.167-4.562m4.682 1.541c-.286.372-.839.843-1.473.843s-1.188-.47-1.474-.843c-.285.372-.839.843-1.473.843s-1.187-.252-1.473-.624h0a4.42 4.42 0 0 0 6.082 5.529"/><path d="M13.033 3.495a.516.516 0 1 1-1.032-.002.516.516 0 0 1 1.032.002Z"/></svg>