<!-- SPDX-FileCopyrightText: © 2025 Schneider Electric SPDX-License-Identifier: LicenseRef-Proprietary -->
<svg xmlns="http://www.w3.org/2000/svg" viewBox="0 0 16 16"><path fill="none" stroke="currentColor" stroke-linecap="round" stroke-linejoin="round" d="M3.5 13.5v-11m2 10v-9m2 10v-11m5.692-1.182c-.346-.461-.828-.763-1.482-.763-1.064 0-1.291.715-1.711.715S8.869.5 7.773.5c-1.064 0-1.476.716-1.896.716-.438 0-1.064-.758-2.27-.713-1 .037-2.108.838-2.108 1.762V11.5m-.999 2h1.376c0 1.462.588 2.025 1.639 2.025 1.057 0 1.306-.697 1.909-.697.622 0 .868.697 1.957.697 1.057 0 1.163-.769 1.897-.769.787 0 .963.769 2.052.769.488 0 .932-.168 1.268-.446.391-.322.903-.936.903-1.457V3.5h2m-.001 1v-2m-6 10v-9m2 10v-11"/></svg>