<!-- SPDX-FileCopyrightText: © 2025 Schneider Electric SPDX-License-Identifier: LicenseRef-Proprietary -->
<svg xmlns="http://www.w3.org/2000/svg" viewBox="0 0 16 16"><path d="M9.5 16h-4a.5.5 0 0 1-.5-.5v-9a.5.5 0 0 1 1 0V15h3V8.5a.5.5 0 0 1 .5-.5h3a.5.5 0 0 1 .5.5V10h2v-.671c-.056-.833-.221-1.911-.376-2.135C14.08 6.409 13.747 6 12.674 6H10.5a.5.5 0 0 1-.5-.5V4H8.5a.5.5 0 0 1-.5-.5V1.266c-.543-.214-1.802-.571-2.69.255-.694.646-.857 2.039-1.03 3.514-.143 1.215-.29 2.472-.733 3.622-.999 2.589-2.626 4.218-2.695 4.287a.5.5 0 0 1-.704-.711c.015-.015 1.547-1.555 2.466-3.936.398-1.032.538-2.225.673-3.378.195-1.663.379-3.233 1.342-4.129C6.311-.773 8.639.45 8.737.502A.5.5 0 0 1 9 .942V3h1.5a.5.5 0 0 1 .5.5V5h1.674c1.646 0 2.244.863 2.771 1.625.388.56.522 2.187.554 2.672V10.5a.5.5 0 0 1-.499.5h-3a.5.5 0 0 1-.5-.5V9h-2v6.5a.5.5 0 0 1-.5.5Z"/></svg>