<!-- SPDX-FileCopyrightText: © 2025 Schneider Electric SPDX-License-Identifier: LicenseRef-Proprietary -->
<svg xmlns="http://www.w3.org/2000/svg" viewBox="0 0 16 16"><path fill="none" stroke="currentColor" stroke-linecap="round" stroke-linejoin="round" d="M7.563 5.362A2.676 2.676 0 0 0 5.33 7.997c0 1.476 1.199 2.672 2.68 2.672s2.679-1.196 2.679-2.672c0-.646-.23-1.238-.612-1.699 0 0 .94-.546 2.309-.546s2.479.578 2.479.578.635.383.635 1.164-.544.969-.544.969-.297-.229-.69-.221c0 0-1.233.036-1.233 1.231 0 0 .004.351.198.636 0 0 .672 1.036.784 1.558 0 0 .197.709-.4 1.294 0 0-.412.387-.982.28 0 0-.046-.016-.056-.03 0 0-.044-.342-.329-.612 0 0-.903-.839-1.745.011 0 0-.245.253-.308.591 0 0-.253 1.208-.541 1.658 0 0-.359.643-1.197.64 0 0-.567-.012-.896-.488 0 0-.036-.063-.014-.111 0 0 .226-.299.213-.69 0 0-.052-1.23-1.25-1.215 0 0-.353.009-.635.206 0 0-1.03.684-1.553.802 0 0-.708.206-1.303-.382 0 0-.394-.405-.293-.976 0 0 .011-.085.042-.09 0 0 .371-.05.642-.334 0 0 .841-.901-.011-1.74 0 0-.255-.244-.594-.307 0 0-1.211-.25-1.662-.537 0 0-.645-.358-.643-1.194 0 0 .013-.565.49-.894 0 0 .055-.041.072-.028 0 0 .297.229.689.222 0 0 1.234-.035 1.235-1.23 0 0-.004-.351-.197-.636 0 0-.672-1.037-.783-1.559 0 0-.197-.71.4-1.294 0 0 .413-.387.983-.279 0 0 .024.004.029.03 0 0 .05.338.324.608 0 0 .899.844 1.745-.002 0 0 .246-.252.312-.59 0 0 .257-1.207.548-1.655 0 0 .362-.641 1.199-.634 0 0 .567.015.894.494 0 0 .03.045.005.081 0 0-.226.298-.213.69 0 0 .05 1.23 1.247 1.216 0 0 .353-.008.636-.205 0 0 1.03-.682 1.554-.8 0 0 .709-.205 1.302.384 0 0 .394.406.292.976 0 0 0 .042-.089.08-.09.039-.483.182-.667.45"/></svg>