<!-- SPDX-FileCopyrightText: © 2025 Schneider Electric SPDX-License-Identifier: LicenseRef-Proprietary -->
<svg xmlns="http://www.w3.org/2000/svg" viewBox="0 0 16 16"><path fill="none" stroke="currentColor" stroke-linecap="round" stroke-linejoin="round" d="m9.633 2.587-.779-.004m-.632 1.973.659.413M7.027 6.698 6.66 6.01m-2.319.461-.026.779M2.562 2.4a2.183 2.183 0 0 0 4.205.775c.396-.98.055-2.056-.792-2.617M6.526 15.5v-1.177l-.005-.005c-1.637-.066-2.759-.191-4.047-.917m2.26-4.356c.41 0 .767-.213.952-.529.184.316.54.529.95.529s.766-.213.951-.529c.184.316.54.529.95.529s.767-.213.952-.529c.184.316.54.529.95.529s.766-.213.95-.529c.184.316.541.529.95.529s.616-.237.8-.552M2.526 2.4v8.728c.184.315.387.529.797.529s.766-.214.95-.529c.184.315.541.529.95.529s.766-.214.951-.529c.184.315.54.529.95.529s.766-.214.951-.529c.184.315.541.529.95.529m.501 3.843v-1.267h.015c1.62-.067 2.73-.336 3.985-.755V1.406C12.076.922 9.849.5 7.936.5 7.43.5 6.549.52 5.974.558"/></svg>