<!-- SPDX-FileCopyrightText: Copyright WebMoney © 1998 - 2024 SPDX-License-Identifier: LicenseRef-Proprietary -->
<svg xmlns="http://www.w3.org/2000/svg" fill="none" viewBox="0 0 990 300" xmlns:xlink="http://www.w3.org/1999/xlink"><g clip-path="url(#a)"><path fill="#fff" d="M990 0H0v300h990z"/><path fill="#036CB5" fill-rule="evenodd" d="M259.139 186.315c4.084 1.795 8.553 2.061 11.748 2.061 9.44 0 16.578-5.907 16.578-26.675 0-16.285-5.869-21.542-14.414-21.542-5.108 0-8.807 1.415-13.912 4.23zm.134-51.412c3.819-2.045 10.325-4.747 17.218-4.747 15.823 0 24.374 11.027 24.374 31.545 0 23.981-11.486 35.649-29.978 35.649-6.768 0-17.23-2.18-24.89-6.293v-89.494l13.276-3.2zm-141.981-3.358h.897l17.346 63.993h13.781l20.678-90.914h-14.93l-13.017 67.837h-.893l-17.737-67.837h-11.36l-16.584 67.837h-.893l-14.292-67.837H66l20.672 90.914h13.771zm100.045 25.294h-29.214c1.397-12.816 7.398-18.841 15.181-18.841 6.888 0 13.399 5.381 14.033 18.841Zm10.206 33.861v-9.747c-7.013 4.223-13.392 6.664-20.281 6.663-13.147 0-19.395-6.797-19.395-22.18h41.596v-4.745c0-20.896-9.831-31.29-25.776-31.29-19.14 0-28.963 14.106-28.963 33.605 0 20.257 8.804 33.593 30.234 33.593 9.193 0 16.844-2.567 22.585-5.899Zm131.388-14.45h-.639l-28.577-71.68h-15.444v90.921h11.485v-64.373h1.144l26.039 64.373h8.159l26.033-65.914h1.151v65.914h13.78V104.57h-15.831zm99.432-13.248c0-17.31-7.012-24.615-15.688-24.615-8.419 0-15.698 7.305-15.698 24.615 0 17.569 6.643 24.614 15.698 24.614s15.688-7.045 15.688-24.614Zm-44.778 0c0-22.448 12.252-33.601 29.09-33.601 16.847 0 29.093 11.153 29.093 33.601 0 21.922-11.61 33.597-29.093 33.597-17.48 0-29.09-11.675-29.09-33.597Zm68.274-24.105c5.741-3.467 17.868-9.496 32.537-9.496 15.311 0 21.042 6.029 21.042 19.233v46.425h-13.26v-43.472c0-10.128-4.968-11.923-11.484-11.923-5.097 0-11.613 2.311-15.565 4.619v50.776h-13.27zm110.885 17.942h-29.217c1.41-12.816 7.399-18.841 15.184-18.841 6.89 0 13.405 5.381 14.033 18.841Zm10.205 33.861v-9.747c-7.005 4.223-13.395 6.664-20.277 6.663-13.143 0-19.396-6.797-19.396-22.18h41.601v-4.745c0-20.896-9.829-31.29-25.783-31.29-19.142 0-28.961 14.106-28.961 33.605 0 20.257 8.81 33.593 30.233 33.593 9.188 0 16.845-2.567 22.583-5.899Zm68.585-61.299h-13.656l-14.538 47.187h-.766l-16.331-47.187h-14.038l24.5 64.106c-3.069 9.495-8.42 16.423-17.101 16.423v10.507c14.67 0 22.445-9.233 28.833-26.93z" clip-rule="evenodd"/><path fill="#036CB5" d="M824.042 54.04c15.6 0 30.443 3.573 43.762 9.967 2.089.942 4.192 2.07 6.274 3.2l-9.133 8.089-13.691-14.108-23.592 20.689-13.893-14.861-43.382 38.56 27.775 30.283-10.843 9.403 27.402 30.283-10.843 9.398 39.197 43.074 23.199-21.067 20.178 22.577c-3.999 3.01-8.375 6.026-13.126 8.654a100.33 100.33 0 0 1-49.092 12.781c-54.992 0-99.698-44.193-99.698-98.546-.194-53.986 44.519-98.377 99.506-98.377Zm-18.269 92.353 23.784-21.068 21.315 23.511-23.789 21.065zm16.939 40.628 23.59-21.253 21.502 23.508-23.785 21.069zm-33.863-80.69 23.778-21.067 21.309 23.51-23.785 21.067zm43.563-11.289 17.696-15.799 15.986 17.493-17.696 15.986zM864 167.457l17.69-15.8 15.986 17.676-17.698 15.81zm15.599 35.553 17.698-15.803 15.972 17.492-17.69 15.984zm7.232-81.259 11.795-10.534 10.651 11.666-11.793 10.53zm-15.222-34.797 11.796-10.719 10.659 11.848-11.804 10.533zm30.251 69.597 11.795-10.533L924.5 157.68l-11.983 10.53zm-53.083-26.146 17.697-15.8 15.979 17.49-17.69 15.802z"/></g><defs><clipPath id="a"><path fill="white" d="M0 0h990v300H0z"/></clipPath></defs></svg>