<!-- SPDX-FileCopyrightText: © 2025 Schneider Electric SPDX-License-Identifier: LicenseRef-Proprietary -->
<svg xmlns="http://www.w3.org/2000/svg" viewBox="0 0 16 16"><path fill="none" stroke="currentColor" stroke-linecap="round" stroke-linejoin="round" d="M7.533 10.067c-1.702.806-3.462 1.233-6.46 2.499-1.399.591.134-1.409.715-2.075 1.616-1.854 2.891-1.836 4.116-1.529m4.718-1.829c.819-.932 1.49-2.182.793-4.437-.265-.856-1.163-3.237-1.371-1.681-.445 3.333-1.077 5.228-1.257 7.163m.78 4.136c.356 1.263 1.158 2.419 3.525 2.95.845.189 3.277.57 2.086-.394-2.553-2.067-3.789-3.439-5.311-4.568M7.603 9.41c0 .68.53 1.231 1.184 1.231s1.184-.551 1.184-1.231-.53-1.231-1.184-1.231"/></svg>