<!-- SPDX-FileCopyrightText: © 2025 Schneider Electric SPDX-License-Identifier: LicenseRef-Proprietary -->
<svg xmlns="http://www.w3.org/2000/svg" viewBox="0 0 16 16"><path fill="none" stroke="currentColor" stroke-linecap="round" stroke-linejoin="round" d="M8.544 6.205a4.8 4.8 0 0 1-1.047.637c-1.416.64-2.844.538-3.191-.229-.346-.766.52-1.907 1.936-2.547s2.845-.538 3.191.229M5.515 9.086l3.225 4.26c.431.629 1.283.87 2.027.534.737-.333 1.08-.653.989-1.543 0 0-1.286-6.316-2.393-8.167M5.575 1.468 4.28 5.711m4.899-1.729L5.662 1.468m.572 8.25c.5.069 1.632-.043 2.383-.383.313-.142.614-.336.882-.554m-1.62 3.15c.622.122 1.394-.023 2.025-.351q.089-.047.176-.105M5.5 2.5v-2m0 15v-6"/></svg>