<!-- SPDX-FileCopyrightText: © 2025 Schneider Electric SPDX-License-Identifier: LicenseRef-Proprietary -->
<svg xmlns="http://www.w3.org/2000/svg" viewBox="0 0 16 16"><path fill="none" stroke="currentColor" stroke-linecap="round" stroke-linejoin="round" d="M5.343 5.633c-.452-.28-.931-1.164-.79-2.623q.021-.211.057-.412m2.945 3.188 5.76-.464c.716-.057 1.314-.641 1.388-1.407.073-.759-.393-1.442-1.076-1.642L6.238.507M1.5 15.5v-14m0 .946L6.024.5M5.28 5.621 1.5 3.148m6.355-.642a4 4 0 0 0-.08.851c.005.746.117 1.336.627 2.11m2.925-2.346a3 3 0 0 0-.083.546c-.037.67.154 1.294.501 1.782"/></svg>