<!-- SPDX-FileCopyrightText: © 2025 Schneider Electric SPDX-License-Identifier: LicenseRef-Proprietary -->
<svg xmlns="http://www.w3.org/2000/svg" viewBox="0 0 16 16"><path fill="none" stroke="currentColor" stroke-linecap="round" stroke-linejoin="round" d="M2.5 2.5h8m-4 6h9m-5-5.06V1.255C10.5.84 10.231.5 9.9.5H1.099C.769.5.5.84.5 1.255v7.491c0 .415.27.754.599.754H2.5m13-1V6.209c0-.39-.275-.709-.612-.709H5.113c-.338 0-.613.319-.613.709v8.581c0 .39.275.709.613.709h9.776c.337 0 .612-.32.612-.709v-4.291"/></svg>