<!-- SPDX-FileCopyrightText: © 2025 Schneider Electric SPDX-License-Identifier: LicenseRef-Proprietary -->
<svg xmlns="http://www.w3.org/2000/svg" viewBox="0 0 16 16"><path fill="none" stroke="currentColor" stroke-linecap="round" stroke-linejoin="round" d="M11.579 12.095c-.096-.162-.087-.741-.087-.741 0-1.058.843-1.916 1.882-1.916s1.882.858 1.882 1.916c0 .919-.559 2.272-2.165 3.162-1.377.763-3.594 1.166-6.043.903-2.035-.218-5.227-1.555-6.059-4.673C.607 9.313.501 7.831.501 7.831.5 7.459.438 9.78 1.77 10.918c1.331 1.137 2.828 1.345 3.657 1.449.75.093 4.161.545 4.161-2.329 0-1.058-.719-1.854-1.882-1.916-1.038-.056-1.889.88-1.951 1.986m5.69-2.076c-.486-.194-.691-.744-.513-1.43.01-.038.126.084.304.118l.112.022c.273.054.607.054.814.011.711-.149 1.604-.828 2.025-1.729.34-.726.473-2.796.563-3.135.245-.919.813-.978.744-1.205-.031-.102-2.162-.173-3.283-.183-.766-.007-1.961.315-2.577 1.019-1.128 1.29-.76 3.24-.187 3.789.082.079.407.383.623.38q.092-.001.107-.081c.032-.167-.008-1.369 1.321-2.621.653-.615 1.567-.685 1.567-.685"/></svg>