<!-- SPDX-FileCopyrightText: © 2025 Schneider Electric SPDX-License-Identifier: LicenseRef-Proprietary -->
<svg xmlns="http://www.w3.org/2000/svg" viewBox="0 0 16 16"><path fill="none" stroke="currentColor" stroke-linecap="round" stroke-linejoin="round" d="M8.5 15.5h-8V.5h10v4m3.237-4-.732 3.331c-.154.702-.507 1.374-1.091 1.794-.38.273-.665.682-.774 1.176l-1.609 7.325 4.076.847 1.609-7.325a1.96 1.96 0 0 0-.21-1.392c-.354-.626-.393-1.383-.239-2.086l.732-3.331M13.59 7.694l-.771-.169-1.016 4.627 2.313.508M7.5 4.484h-7m5.993-.997a.997.997 0 1 0 1.994 0m-3.999.001a.997.997 0 1 0 1.994 0M2.49 3.474a.997.997 0 1 0 1.994 0m3.145 4.999h-7m5.993-.997a.997.997 0 1 0 1.994 0m-3.998.001a.997.997 0 1 0 1.994 0m-3.993-.014a.997.997 0 1 0 1.994 0m2.922 5.059h-7m3.988-.996a.997.997 0 1 0 1.994 0m-3.993-.015a.997.997 0 1 0 1.994 0"/></svg>