<!-- SPDX-FileCopyrightText: © 2025 Schneider Electric SPDX-License-Identifier: LicenseRef-Proprietary -->
<svg xmlns="http://www.w3.org/2000/svg" viewBox="0 0 16 16"><path fill="none" stroke="currentColor" stroke-linecap="round" stroke-linejoin="round" d="M4.307 10.316.506 6.403m12.093 8.92L6.576 9.3m.573-4.651A8.6 8.6 0 0 0 5.86 5.741c-1.681 1.724-2.376 3.772-1.552 4.575.569.555 1.713.37 2.92-.365m2.741-2.724c.817-1.308 1.029-2.565.426-3.153L6.849.5m.424 6.747c-.751.77-1.062 1.686-.694 2.044m6.745 4.032c-.744.763-1.05 1.673-.682 2.032s1.27.031 2.014-.732 1.05-1.673.682-2.032L9.1 6.359"/></svg>