<!-- SPDX-FileCopyrightText: © 2024 Google LLC SPDX-License-Identifier: LicenseRef-Proprietary -->
<svg xmlns="http://www.w3.org/2000/svg" version="1.1" viewBox="0 0 234.667 234.667"><path fill="#ff0000" d="M229.763 60.484c-2.699-10.162-10.65-18.165-20.748-20.881-18.299-4.936-91.681-4.936-91.681-4.936s-73.383 0-91.683 4.936C15.554 42.319 7.6 50.322 4.903 60.484 0 78.903 0 117.334 0 117.334s0 38.429 4.903 56.85c2.699 10.161 10.65 18.164 20.748 20.881C43.95 200 117.334 200 117.334 200s73.382 0 91.68-4.935c10.1-2.717 18.05-10.72 20.749-20.88 4.904-18.422 4.904-56.851 4.904-56.851s0-38.431-4.904-56.85"/><path fill="#ffffff" d="m93.333 152.226 61.333-34.891-61.333-34.893Z"/></svg>