<!-- SPDX-FileCopyrightText: © 2025 Schneider Electric SPDX-License-Identifier: LicenseRef-Proprietary -->
<svg xmlns="http://www.w3.org/2000/svg" viewBox="0 0 16 16"><path d="M8 16c-4.411 0-8-3.589-8-8s3.589-8 8-8 8 3.589 8 8-3.589 8-8 8ZM8 1C4.14 1 1 4.14 1 8s3.14 7 7 7 7-3.141 7-7-3.141-7-7-7Zm2.827 10.346a.5.5 0 0 1-.354-.146L7.989 8.716l-2.457 2.458a.5.5 0 0 1-.707-.707l2.457-2.458-2.465-2.465a.5.5 0 0 1 .707-.707l2.465 2.465 2.492-2.492a.5.5 0 0 1 .707.707L8.696 8.009l2.484 2.484a.5.5 0 0 1-.354.853Z"/></svg>