<!-- SPDX-FileCopyrightText: © 2025 Schneider Electric SPDX-License-Identifier: LicenseRef-Proprietary -->
<svg xmlns="http://www.w3.org/2000/svg" viewBox="0 0 16 16"><path d="M3.968 0a1.719 1.719 0 1 1 0 3.438 1.719 1.719 0 0 1 0-3.438ZM2.25 14.281a1.719 1.719 0 1 0 3.438 0 1.719 1.719 0 0 0-3.438 0ZM2.25 8a1.719 1.719 0 1 0 3.438 0A1.719 1.719 0 0 0 2.25 8Zm8.063-6.281a1.719 1.719 0 1 0 3.438 0 1.719 1.719 0 0 0-3.438 0Zm0 12.562a1.719 1.719 0 1 0 3.438 0 1.719 1.719 0 0 0-3.438 0Zm0-6.281a1.719 1.719 0 1 0 3.438 0 1.719 1.719 0 0 0-3.438 0Z"/></svg>