<!-- SPDX-FileCopyrightText: © 2025 Schneider Electric SPDX-License-Identifier: LicenseRef-Proprietary -->
<svg xmlns="http://www.w3.org/2000/svg" viewBox="0 0 16 16"><path d="M12.969 15.462a.5.5 0 0 1-.395-.193l-1.217-1.566c-.935.611-2.052.968-3.25.968s-2.316-.356-3.251-.969l-1.217 1.567a.499.499 0 1 1-.79-.613l1.219-1.569a5.93 5.93 0 0 1-.579-8.101l-.668-.668-1.264 1.264a.6.6 0 0 1-.359.146.5.5 0 0 1-.355-.154A2.8 2.8 0 0 1 0 3.575c0-.744.291-1.443.817-1.969a2.793 2.793 0 0 1 3.941 0l-.321.388-.369.337-.011-.012a1.793 1.793 0 0 0-2.534-.006 1.77 1.77 0 0 0-.524 1.262c0 .322.085.632.244.903l1.215-1.215a.5.5 0 0 1 .533-.113.5.5 0 0 1 .2.123l.99.991A5.93 5.93 0 0 1 7.544 2.81q0-.044.007-.088l.191-1.105-.485-.085A.5.5 0 0 1 6.85.953a.504.504 0 0 1 .579-.406l1.955.344a.5.5 0 1 1-.174.984l-.483-.085-.174 1.01A5.9 5.9 0 0 1 11.9 4.149l.563-.545-1.259-1.255a.503.503 0 0 1 .036-.74 2.79 2.79 0 0 1 3.941-.002c.526.526.816 1.226.816 1.97s-.29 1.444-.816 1.97c-.192.192-.521.212-.717.024s-.224-.482-.039-.683l.047-.047c.34-.339.525-.788.525-1.265s-.186-.926-.523-1.263a1.796 1.796 0 0 0-2.169-.278l1.217 1.213a.5.5 0 0 1 .106.549.5.5 0 0 1-.122.189l-1.248 1.205a.5.5 0 0 1-.697-.002 4.951 4.951 0 0 0-8.404 3.537c0 2.725 2.22 4.943 4.948 4.943s4.947-2.218 4.947-4.943a.5.5 0 0 1 1 0 5.92 5.92 0 0 1-1.909 4.359l1.218 1.569a.499.499 0 0 1-.395.806ZM8.5 12a.5.5 0 0 1-.5-.5V8.781a.5.5 0 0 1 .307-.461l3.386-1.421a.5.5 0 1 1 .386.922L9 9.113V11.5a.5.5 0 0 1-.5.5Z"/></svg>