<!-- SPDX-FileCopyrightText: © 2025 Schneider Electric SPDX-License-Identifier: LicenseRef-Proprietary -->
<svg xmlns="http://www.w3.org/2000/svg" viewBox="0 0 16 16"><path d="M14.7 14H1.3C.583 14 0 13.417 0 12.7V3.3C0 2.583.583 2 1.3 2h13.01c.628 0 1.2.343 1.497.895a.5.5 0 0 1 .049.357.5.5 0 0 1-.199.294L8.284 8.904a.5.5 0 0 1-.588 0l-5.49-4.006a.5.5 0 1 1 .589-.807l5.197 3.791 6.621-4.812a.7.7 0 0 0-.303-.069H1.3a.3.3 0 0 0-.3.3v9.4a.3.3 0 0 0 .3.3h13.4a.3.3 0 0 0 .3-.3v-7.2a.5.5 0 0 1 1 0v7.2c0 .717-.583 1.3-1.3 1.3Z"/></svg>