<!-- SPDX-FileCopyrightText: © 2025 Schneider Electric SPDX-License-Identifier: LicenseRef-Proprietary -->
<svg xmlns="http://www.w3.org/2000/svg" viewBox="0 0 16 16"><path d="M10.933 16H5.068a2.07 2.07 0 0 1-2.067-2.067V2.062C3.001.925 3.926 0 5.063 0h5.876c1.137 0 2.062.925 2.062 2.062V5.5a.5.5 0 0 1-1 0V2.062c0-.585-.477-1.062-1.062-1.062H5.063c-.585 0-1.062.477-1.062 1.062v11.871c0 .589.479 1.067 1.067 1.067h5.865c.589 0 1.067-.479 1.067-1.067V7.5a.5.5 0 0 1 1 0v6.433A2.07 2.07 0 0 1 10.933 16ZM8.5 2.5h-2m2.5 0a.5.5 0 0 0-.5-.5h-2a.5.5 0 0 0 0 1h2a.5.5 0 0 0 .5-.5Zm1.51.039zM10.7 3c.06-.02.119-.06.159-.11a.34.34 0 0 0 .11-.16c.03-.06.04-.13.04-.19 0-.07-.01-.13-.04-.19a.45.45 0 0 0-.269-.27.49.49 0 0 0-.65.27c-.03.06-.04.12-.04.19 0 .06.01.13.04.19.02.06.06.12.11.16.09.1.22.15.35.15.06 0 .13-.01.19-.04ZM8.5 13.5h-1m1.5 0a.5.5 0 0 0-.5-.5h-1a.5.5 0 0 0 0 1h1a.5.5 0 0 0 .5-.5Z"/></svg>