<!-- SPDX-FileCopyrightText: © 2025 Schneider Electric SPDX-License-Identifier: LicenseRef-Proprietary -->
<svg xmlns="http://www.w3.org/2000/svg" viewBox="0 0 16 16"><path d="M15.5 16a.5.5 0 0 1-.354-.146l-3.533-3.532a6.9 6.9 0 0 1-1.877.719C3.156 14.539.098 9.44.068 9.39a.5.5 0 0 1-.012-.482C1.214 6.669 3.618 5.957 5.023 5.73L.146.854A.502.502 0 0 1 .854.146l15 15a.5.5 0 0 1-.354.853ZM1.084 9.118c.643.921 3.299 4.113 8.431 2.947.483-.11.927-.268 1.359-.484l-1.07-1.07a3.12 3.12 0 0 1-2.139.853 3.113 3.113 0 0 1-3.109-3.109c0-.525.135-1.036.381-1.487-1.169.228-2.919.82-3.853 2.351Zm5.033-2.294a2.12 2.12 0 0 0-.561 1.431c0 1.163.946 2.109 2.109 2.109.533 0 1.044-.204 1.431-.561zm7.076 4.257a.5.5 0 0 1-.31-.892c.563-.443 1.173-.901 1.941-1.289-1.573-3.085-4.049-4.649-7.364-4.649-.017 0-.037.002-.05 0a.5.5 0 0 1-.002-1h.049c2.646 0 6.232.958 8.403 5.488l.082.168a.5.5 0 0 1-.248.69c-.891.379-1.545.867-2.192 1.376a.5.5 0 0 1-.31.107Zm-2.976-2.863a.5.5 0 0 1-.488-.397 2.1 2.1 0 0 0-1.638-1.632.5.5 0 1 1 .2-.98 3.1 3.1 0 0 1 2.417 2.406.5.5 0 0 1-.491.603Z"/></svg>