<!-- SPDX-FileCopyrightText: © 2025 Schneider Electric SPDX-License-Identifier: LicenseRef-Proprietary -->
<svg xmlns="http://www.w3.org/2000/svg" viewBox="0 0 16 16"><path d="M12.529 16H3.308c-.753 0-1.367-.578-1.367-1.289V1.29C1.941.579 2.554 0 3.308 0H6.84a.5.5 0 0 1 0 1H3.308c-.199 0-.367.133-.367.29v13.421c0 .156.168.289.367.289h9.222c.198 0 .366-.133.366-.289V4.868a.26.26 0 0 0-.098-.201L9.305 1.662v2.339h1.396a.5.5 0 0 1 0 1H8.805a.5.5 0 0 1-.5-.5V.571a.502.502 0 0 1 .826-.379l4.302 3.702c.288.225.463.585.463.974v9.843c0 .711-.613 1.289-1.366 1.289Z"/></svg>