<!-- SPDX-FileCopyrightText: © 2025 Schneider Electric SPDX-License-Identifier: LicenseRef-Proprietary -->
<svg xmlns="http://www.w3.org/2000/svg" viewBox="0 0 16 16"><path d="M3.648 15.654a.94.94 0 0 1-.562-.176c-.327-.237-.464-.671-.377-1.189l.701-4.086L.441 7.312c-.377-.368-.522-.799-.397-1.185.125-.385.496-.65 1.018-.725l4.36-.635a.5.5 0 0 1 .145.989l-4.36.635a.6.6 0 0 0-.199.057c.02.017.055.073.132.147L4.296 9.67a.5.5 0 0 1 .144.443l-.745 4.344a.6.6 0 0 0-.007.205c.022-.014.086-.029.183-.08L7.77 12.53a.5.5 0 0 1 .466 0l3.901 2.05c.095.05.158.065.193.071-.006-.026-.002-.092-.021-.197l-.746-4.343a.5.5 0 0 1 .145-.443l3.155-3.076a.6.6 0 0 0 .127-.163c-.026-.002-.087-.027-.194-.042l-4.36-.631a.5.5 0 0 1-.377-.273L8.108 1.531a.6.6 0 0 0-.116-.171c-.01.024-.052.075-.1.171l-.697 1.413a.497.497 0 0 1-.669.227.5.5 0 0 1-.227-.669l.697-1.413c.232-.472.598-.743 1.002-.743h0c.404 0 .771.271 1.004.742l1.835 3.717 4.101.594c.522.076.893.341 1.018.726s-.02.816-.396 1.185l-2.968 2.893.702 4.083c.089.52-.048.954-.376 1.192s-.782.234-1.249-.012l-3.668-1.927-3.667 1.93a1.5 1.5 0 0 1-.687.187Z"/></svg>