<!-- SPDX-FileCopyrightText: © 2025 Schneider Electric SPDX-License-Identifier: LicenseRef-Proprietary -->
<svg xmlns="http://www.w3.org/2000/svg" viewBox="0 0 16 16"><path d="M8-.04C3.567-.04-.04 3.567-.04 8S3.566 16.04 8 16.04s8.04-3.606 8.04-8.04S12.434-.04 8-.04Zm0 15c-3.838 0-6.96-3.122-6.96-6.96S4.162 1.04 8 1.04 14.96 4.163 14.96 8 11.838 14.96 8 14.96Z"/><path d="M8 6.062q-.414 0-.634.242T7.145 7v5.06q0 .44.221.689.22.248.634.248.428 0 .648-.248.22-.25.221-.689V7q0-.456-.228-.696-.227-.242-.641-.242ZM8 2.96q-.483 0-.751.234c-.268.234-.269.382-.269.676q0 .428.269.668T8 4.779q.496 0 .758-.241.263-.242.263-.668 0-.441-.263-.676C8.495 2.959 8.331 2.96 8 2.96Z"/></svg>