<!-- SPDX-FileCopyrightText: © 2024 Schneider Electric SPDX-License-Identifier: LicenseRef-Proprietary -->
<svg xmlns="http://www.w3.org/2000/svg" viewBox="0 0 64 64">
  <path fill="#008029" d="M63.32 25.83c1.65-8 .34-15.4-4.37-20.22-9.57-9.84-29.56-6.5-44.44 8.13a51.49 51.49 0 0 0-6.09 7.24h8.1l-1.88 5.5H4.96a45.52 45.52 0 0 0-2.45 5.22h11.5l-1.86 5.5H.87c-1.92 8.43-.71 16.3 4.16 21.32 9.44 9.7 29.36 6.29 44.25-8.36a51.8 51.8 0 0 0 6.68-8.1H45.55l1.58-5.5h12.16c.9-1.78 1.71-3.48 2.35-5.25h-13.3l1.48-5.5h13.47l.03.02Zm-17.94-4.85c-.87 0-1.2.13-1.58.56-.13.16-.2.33-.23.62L39.2 39.21c-1 5.96-8.16 11.93-17.47 11.93H8.76l2.25-8.75h8.33a2.7 2.7 0 0 0 2.09-.95c.2-.27.47-.63.5-1.02l3.46-14.88c1-5.97 7.16-12.59 16.46-12.59h13.27l-1.7 8.06h-8l-.04-.03Z" />
</svg>
