<!-- SPDX-FileCopyrightText: © 2025 Schneider Electric SPDX-License-Identifier: LicenseRef-Proprietary -->
<svg xmlns="http://www.w3.org/2000/svg" viewBox="0 0 16 16"><path d="M8.007 15.993A7.986 7.986 0 0 1 .028 8.465a.501.501 0 0 1 .625-.641q1.255.405 2.495.672c.149-4.286 2.338-6.321 2.435-6.408a.5.5 0 0 1 .673.739h0c-.021.019-2.025 1.913-2.113 5.863 1.144.199 2.271.309 3.364.33V2.37a.5.5 0 0 1 1 0v6.646a17.3 17.3 0 0 0 3.275-.405c-.112-3.924-2.089-5.764-2.109-5.783a.5.5 0 1 1 .672-.74c.096.086 2.236 2.077 2.429 6.264q.468-.14.917-.307l.14-.052a.5.5 0 0 1 .637.308.5.5 0 0 1-.307.637l-.119.044q-.615.23-1.26.409c-.092 3.086-1.154 4.084-1.28 4.191a.5.5 0 0 1-.657-.754c.029-.028.8-.807.926-3.191a18.5 18.5 0 0 1-3.262.378v3.804a.5.5 0 0 1-1 0V10.02a23 23 0 0 1-3.346-.312c.139 2.362.915 3.114.923 3.122a.504.504 0 0 1 .036.702.494.494 0 0 1-.693.051c-.124-.105-1.16-1.078-1.276-4.063a27 27 0 0 1-2.065-.516 6.99 6.99 0 0 0 6.921 5.99 7 7 0 0 0 6.993-6.993c0-3.856-3.139-6.994-6.995-6.994a7 7 0 0 0-6.864 5.651.5.5 0 0 1-.982-.19A8 8 0 0 1 8.007.007C12.414.007 16 3.593 16 8s-3.586 7.993-7.993 7.993Z"/></svg>