<!-- SPDX-FileCopyrightText: © 2025 Schneider Electric SPDX-License-Identifier: LicenseRef-Proprietary -->
<svg xmlns="http://www.w3.org/2000/svg" viewBox="0 0 16 16"><path d="M7.382 13.031C2.423 13.031.094 9.15.068 9.105a.5.5 0 0 1-.012-.481C1.714 5.419 5.924 5.342 6.102 5.34h.005c.161 0 .312.077.406.208.161.223.129.558-.093.72a2.12 2.12 0 0 0-.864 1.703c0 1.162.946 2.108 2.109 2.108s2.108-.946 2.108-2.108c0-.998-.708-1.867-1.684-2.066a.5.5 0 1 1 .201-.98 3.12 3.12 0 0 1 2.482 3.046c0 1.714-1.395 3.108-3.108 3.108S4.555 9.684 4.555 7.971c0-.525.135-1.037.381-1.488-1.169.228-2.919.82-3.853 2.351.643.921 3.299 4.115 8.431 2.947 1.396-.318 2.258-.999 3.17-1.72.634-.501 1.285-1.017 2.141-1.446-1.581-3.1-4.085-4.641-7.412-4.649h-.002a.5.5 0 0 1-.5-.498c-.001-.292.251-.504.546-.502 2.646 0 6.233.958 8.404 5.488l.082.169a.5.5 0 0 1-.248.69c-.977.415-1.695.983-2.391 1.532-.959.758-1.95 1.542-3.567 1.91-.843.191-1.628.275-2.355.275Z"/></svg>