<!-- SPDX-FileCopyrightText: © 2025 Schneider Electric SPDX-License-Identifier: LicenseRef-Proprietary -->
<svg xmlns="http://www.w3.org/2000/svg" viewBox="0 0 16 16"><path d="M7.06 11.294q.285.379.284.939 0 .774-.568 1.232-.57.458-1.537.459-.552 0-1.062-.171a2.6 2.6 0 0 1-.866-.475.517.517 0 0 1-.089-.717.31.31 0 0 1 .251-.132q.084 0 .153.029t.187.098q.357.237.68.365a1.9 1.9 0 0 0 .705.127q.56 0 .833-.225t.272-.684q0-.45-.285-.667c-.285-.217-.483-.217-.879-.217h-.484a.37.37 0 0 1-.302-.132.47.47 0 0 1-.106-.301q0-.178.106-.306a.37.37 0 0 1 .302-.127h.339q1.164 0 1.164-.874 0-.409-.246-.628-.246-.221-.68-.221-.62 0-1.325.492a2 2 0 0 1-.187.098.4.4 0 0 1-.153.029.31.31 0 0 1-.251-.132.5.5 0 0 1-.106-.318q0-.128.047-.217c.047-.089.081-.12.149-.183q.357-.297.854-.471c.497-.174.669-.175 1.015-.175q.883 0 1.406.434.522.433.523 1.155a1.55 1.55 0 0 1-.259.862 1.43 1.43 0 0 1-.701.539q.534.136.82.514Zm5.751 2.128q0 .45-.509.45H9.431q-.518 0-.518-.45 0-.434.518-.434h.883V9.115l-.815.501a.45.45 0 0 1-.213.068.37.37 0 0 1-.301-.153.53.53 0 0 1-.123-.34q0-.246.221-.382l1.317-.816a.96.96 0 0 1 .484-.153q.237 0 .382.145a.54.54 0 0 1 .144.399v4.603h.892q.509 0 .509.434Zm3.189.313V4.263A2.265 2.265 0 0 0 13.737 2H12v-.28C12 .875 11.537.023 10.505 0h-.066c-.988.026-1.438.903-1.438 1.72V2h-2v-.28C7 .875 6.537.023 5.505 0h-.066c-.988.026-1.438.903-1.438 1.72v1.324c0 .585 0 1.956 1.566 1.956a.5.5 0 0 0 0-1c-.43 0-.566-.043-.566-.956V1.72c0-.12.023-.712.474-.72.457.007.526.454.526.72v.78a.5.5 0 0 0 .5.5h2.5v.044c0 .585 0 1.956 1.566 1.956a.5.5 0 0 0 0-1c-.431 0-.566-.043-.566-.956V1.72c0-.12.023-.712.474-.72.458.007.526.454.526.72v.78a.5.5 0 0 0 .5.5h2.237c.696 0 1.263.566 1.263 1.263v9.473c0 .697-.567 1.265-1.265 1.265H2.265A1.266 1.266 0 0 1 1 13.736V7.001h11.5a.5.5 0 0 0 0-1H1V4.267c0-.693.564-1.26 1.256-1.265h.247A.5.5 0 0 0 2.5 2.001h-.25A2.27 2.27 0 0 0 0 4.267v9.469a2.267 2.267 0 0 0 2.265 2.265h11.471a2.267 2.267 0 0 0 2.265-2.265Z"/></svg>