<!-- SPDX-FileCopyrightText: © 2025 Schneider Electric SPDX-License-Identifier: LicenseRef-Proprietary -->
<svg xmlns="http://www.w3.org/2000/svg" viewBox="0 0 16 16"><path d="M.5 1.5H12m.5 0A.5.5 0 0 0 12 1H.5a.5.5 0 0 0 0 1H12a.5.5 0 0 0 .5-.5ZM.5 8H7m.5 0a.5.5 0 0 0-.5-.5H.5a.5.5 0 0 0 0 1H7a.5.5 0 0 0 .5-.5Zm-7 6.5H12m.5 0a.5.5 0 0 0-.5-.5H.5a.5.5 0 0 0 0 1H12a.5.5 0 0 0 .5-.5Zm3.354-.796a.5.5 0 0 0 0-.707l-4.808-4.808a.156.156 0 0 1 0-.221l4.808-4.808a.5.5 0 0 0-.707-.707l-4.809 4.808a1.16 1.16 0 0 0 0 1.634l4.808 4.808a.5.5 0 0 0 .708 0Z"/></svg>