<!-- SPDX-FileCopyrightText: © 2025 Schneider Electric SPDX-License-Identifier: LicenseRef-Proprietary -->
<svg xmlns="http://www.w3.org/2000/svg" viewBox="0 0 16 16"><path d="M7.449 11.084q-.227-.223-.27-.648l-.8-8.693-.021-.224q0-.692.464-1.106C7.286-.001 7.524-.001 8-.001s.868.138 1.179.414q.465.414.464 1.106l-.021.246-.8 8.671q-.043.424-.27.648T8 11.308c-.325 0-.399-.075-.551-.224Zm-.595 4.436q-.453-.481-.454-1.196c-.001-.715.152-.875.454-1.195q.453-.48 1.145-.48c.692 0 .843.16 1.146.48q.454.481.454 1.195c0 .714-.152.875-.454 1.196Q8.69 16 7.999 16c-.691 0-.843-.16-1.145-.48Z"/></svg>