<!-- SPDX-FileCopyrightText: © 2025 Schneider Electric SPDX-License-Identifier: LicenseRef-Proprietary -->
<svg xmlns="http://www.w3.org/2000/svg" viewBox="0 0 16 16"><path d="M2.191 4.167q.301 0 1.169-.667v3.11q0 .274.126.414c.126.14.196.141.335.141q.468 0 .468-.688V2.563q0-.246-.109-.386c-.109-.14-.17-.14-.291-.14q-.16 0-.219.062c-.059.062-.122.15-.25.328s-.274.338-.439.482q-.247.216-.661.41-.277.13-.386.212c-.109.082-.109.14-.109.256q0 .15.111.265a.35.35 0 0 0 .255.114Zm6.542.504a1.4 1.4 0 0 0-.482-.295 1.27 1.27 0 0 0 .515-.431q.172-.264.172-.599 0-.263-.099-.497a1.2 1.2 0 0 0-.304-.421q-.206-.186-.513-.292c-.307-.106-.443-.106-.714-.106q-.482 0-.843.181-.36.182-.547.483a1.2 1.2 0 0 0-.186.645q0 .708.701 1.036-.868.341-.868 1.261 0 .43.205.777c.205.347.339.413.608.546q.403.197.971.197.547 0 .95-.197a1.4 1.4 0 0 0 .612-.549q.21-.35.209-.781 0-.294-.098-.535a1.2 1.2 0 0 0-.289-.424ZM6.811 2.884a.7.7 0 0 1 .518-.2q.212 0 .376.092c.164.092.194.146.255.253q.09.16.09.362a.7.7 0 0 1-.051.275.63.63 0 0 1-.372.358.8.8 0 0 1-.292.051.73.73 0 0 1-.52-.192.64.64 0 0 1-.202-.484q0-.314.197-.514Zm1.263 3.191a.8.8 0 0 1-.301.317.8.8 0 0 1-.431.113q-.236 0-.427-.111a.63.63 0 0 1-.302-.314 1 1 0 0 1-.111-.47q0-.417.236-.649c.236-.232.352-.232.584-.232q.246 0 .444.105.198.107.308.305c.11.198.109.287.109.465s-.037.335-.109.472Zm2.504.79q.41.293.932.293.451 0 .82-.219t.602-.621q.184-.328.252-.732.07-.404.068-.963 0-1.032-.26-1.597a2 2 0 0 0-.367-.545 1.45 1.45 0 0 0-.504-.335 1.7 1.7 0 0 0-.639-.115 1.6 1.6 0 0 0-.918.258 1.6 1.6 0 0 0-.587.75 3 3 0 0 0-.171.711 7 7 0 0 0-.055.93q0 .4.05.743t.155.627q.21.52.621.814Zm.291-3.685q.175-.455.627-.455.313 0 .492.203.177.204.252.602t.076 1.024q0 .659-.072 1.066-.072.406-.25.625a.6.6 0 0 1-.492.219.6.6 0 0 1-.482-.21q-.176-.211-.252-.62c-.076-.409-.076-.625-.076-1.053q.001-.948.178-1.402Zm3.593 3.368a.5.5 0 1 0-.525.852c.686.422 1.063.903 1.063 1.352 0 1.062-1.961 2.112-4.663 2.497a.5.5 0 0 0 .14.99c3.354-.479 5.522-1.847 5.522-3.487 0-.573-.267-1.419-1.538-2.204Zm-5.619 5.14s0 0 0 0zv-.003a.5.5 0 0 0-.093-.129l-.002-.002-1.577-1.577a.5.5 0 0 0-.707.707l.706.706c-3.675-.172-6.168-1.467-6.168-2.638 0-.505.463-1.035 1.304-1.492a.5.5 0 1 0-.477-.879C.319 7.202.002 8.123.002 8.752c0 1.962 3.045 3.47 7.204 3.641l-.742.742a.5.5 0 0 0 .708.707l1.579-1.579s0 0 0 0q0 0 0 0c.001.003 0 0 0 0h0s.001 0 0 0h.001q0 0 0 0a.5.5 0 0 0 .094-.138q0 0 0 0t0-.002s0 0 0 0h0v-.002h0v-.002q0 0 0 0h0v-.002q0 0 0 0t0 0h0v-.002h0s0 0 0 0q0 0 0 0t0-.002a.5.5 0 0 0-.013-.409v-.002Z"/></svg>