<!-- SPDX-FileCopyrightText: © 2025 Schneider Electric SPDX-License-Identifier: LicenseRef-Proprietary -->
<svg xmlns="http://www.w3.org/2000/svg" viewBox="0 0 16 16"><path d="M5.534 6.652a.499.499 0 0 0 .002-.997c-.585-.001-1.308-.319-1.421-1.21a.504.504 0 0 0-.558-.432.5.5 0 0 0-.432.558c.159 1.241 1.126 2.078 2.408 2.081zm6.826 7.669a6 6 0 0 1-.57.328.499.499 0 0 0 .439.894c.188-.093.509-.277.682-.393a.498.498 0 1 0-.552-.83Z"/><path d="M4.832 13.479c-.524-.043-.887-.207-1.077-.487-.333-.491-.112-1.24-.11-1.245a.498.498 0 0 0-.517-.647c-.878.078-1.526-.18-1.873-.729-.344-.546-.34-1.343.009-1.939.167-.285.562-.752 1.306-.72a.7.7 0 0 0 .293-.075.498.498 0 0 0-.106-.93c-.615-.149-.86-.596-.957-.944-.195-.703.046-1.589.573-2.108.332-.326.926-.658 1.858-.383a.5.5 0 0 0 .625-.597c-.128-.528-.077-.944.154-1.238.255-.324.684-.439.974-.439.562 0 1.021.462 1.021 1.029a.5.5 0 0 0 .998 0A2.026 2.026 0 0 0 5.985.001c-.538 0-1.283.216-1.758.821-.22.279-.441.721-.435 1.359-.805-.055-1.545.2-2.118.764C.88 3.727.545 4.966.84 6.03c.103.373.28.697.517.961a2.46 2.46 0 0 0-.953.938c-.538.918-.535 2.113.008 2.974.276.438.904 1.118 2.171 1.199-.026.417.023.967.343 1.442.367.546.98.858 1.823.929l.042.002a.498.498 0 0 0 .041-.996Z"/><path d="M4.1 7.692c.036.499-.129.984-.442 1.298-.267.269-.625.394-1.041.369a.495.495 0 0 0-.531.464.5.5 0 0 0 .464.53q.088.006.175.006c.632 0 1.209-.232 1.64-.665.513-.516.786-1.291.729-2.073a.49.49 0 0 0-.533-.461.5.5 0 0 0-.461.533Zm5.898 1.134a.5.5 0 0 0-.499.499v1.504c0 .17.087.329.23.421l2.027 1.291a.496.496 0 0 0 .689-.153.5.5 0 0 0-.152-.688l-1.796-1.144v-1.23a.5.5 0 0 0-.499-.499Z"/><path d="M15.759 9.898a.495.495 0 0 0-.685.167l-.076.126c-.411-2.308-2.422-4.065-4.834-4.065-.781 0-1.52.184-2.176.512l-.022-1.64h3.535A.5.5 0 0 0 12 4.499V2.912c.582-.206 1-.762 1-1.413a.5.5 0 0 0-.998 0 .502.502 0 0 1-1.002 0c0-.276.225-.501.501-.501A.498.498 0 1 0 11.5.001 1.5 1.5 0 0 0 10.001 1.5a1.5 1.5 0 0 0 1 1.413v1.088H7.453a.5.5 0 0 0-.492.505l.037 2.784a4.94 4.94 0 0 0-1.745 3.771c0 2.722 2.203 4.937 4.91 4.937a.5.5 0 0 0 0-.998c-2.158 0-3.913-1.767-3.913-3.938s1.755-3.939 3.913-3.939c1.933 0 3.542 1.417 3.858 3.273l-.188-.136a.499.499 0 0 0-.586.806l1.216.884a.52.52 0 0 0 .391.086.5.5 0 0 0 .328-.23l.743-1.224a.5.5 0 0 0-.167-.685Z"/><path d="M14.322 12.661a.497.497 0 0 0-.674.207 6 6 0 0 1-.346.562.498.498 0 0 0 .815.576c.122-.173.315-.488.413-.672a.5.5 0 0 0-.208-.674Z"/></svg>