<!-- SPDX-FileCopyrightText: © 2025 Schneider Electric SPDX-License-Identifier: LicenseRef-Proprietary -->
<svg xmlns="http://www.w3.org/2000/svg" viewBox="0 0 16 16"><path d="M15.916 8.812a1.68 1.68 0 0 0-.717-1.063 1.63 1.63 0 0 0-1.256-.244c-.431.09-.802.343-1.045.714a1.7 1.7 0 0 0-.271.782H7.921l-.024-2h2.966a.5.5 0 0 0 .5-.5V6.48a.5.5 0 0 0-.038-.215.7.7 0 0 1-.005-.525.65.65 0 0 1 .861-.358c.167.07.298.203.37.374a.68.68 0 0 1 .002.531.65.65 0 0 1-.352.354.5.5 0 0 0 .382.924 1.64 1.64 0 0 0 .893-.897 1.68 1.68 0 0 0-.004-1.297 1.68 1.68 0 0 0-.903-.91 1.645 1.645 0 0 0-2.177.907 1.7 1.7 0 0 0-.122.634H7.885l-.018-1.506a.5.5 0 0 0-.5-.494h-.006a.5.5 0 0 0-.494.506l.127 10.452c-.607.041-1.084-.062-1.413-.312a1.22 1.22 0 0 1-.465-.771.5.5 0 0 0-.472-.456c-.601-.032-.994-.19-1.17-.471-.24-.384-.072-.992.012-1.192a.5.5 0 0 0-.501-.696c-.859.069-1.482-.175-1.82-.712-.344-.545-.34-1.342.008-1.938.163-.278.543-.73 1.265-.702a.494.494 0 0 0 .521-.427.5.5 0 0 0-.376-.558c-.598-.146-.836-.588-.93-.933-.193-.704.047-1.588.572-2.101.462-.452 1.084-.577 1.796-.366a.502.502 0 0 0 .629-.597c-.127-.526-.075-.941.154-1.232.248-.314.662-.426.94-.426.531 0 1.173.453 1.173 1.016q0 .064.016.124-.016.138-.016.281a.5.5 0 0 0 1 0c0-.821.652-1.489 1.455-1.489s1.454.668 1.454 1.489a.5.5 0 0 0 1 0c0-1.373-1.101-2.489-2.454-2.489-.76 0-1.441.353-1.892.904A2.26 2.26 0 0 0 5.744.071c-.527 0-1.257.212-1.726.808-.219.278-.44.717-.436 1.354a2.59 2.59 0 0 0-2.058.745C.744 3.742.399 5.009.687 6.059c.101.369.274.691.507.954a2.44 2.44 0 0 0-.884.896c-.538.918-.535 2.114.008 2.976.267.424.866 1.076 2.058 1.178-.061.412-.048.941.245 1.414.309.497.843.802 1.592.908.103.303.312.711.739 1.044.63.491 1.515.65 2.625.47a.5.5 0 0 0 .42-.499l-.041-3.396h3.041v1.132c0 .29.259.514.542.498.377.03.706.294.706.686a.675.675 0 0 1-.664.685.665.665 0 0 1-.626-.458.7.7 0 0 1-.037-.227.5.5 0 0 0-1 0q0 .282.09.547c.23.681.863 1.138 1.574 1.138.917 0 1.664-.756 1.664-1.685 0-.783-.531-1.443-1.248-1.631v-1.185a.5.5 0 0 0-.5-.5H7.945l-.012-1h5.189a.5.5 0 0 0 .497-.447.5.5 0 0 0 .017-.266.7.7 0 0 1 .097-.521.65.65 0 0 1 .91-.185.7.7 0 0 1 .293.437.677.677 0 0 1-.51.806.5.5 0 1 0 .205.979 1.676 1.676 0 0 0 1.284-1.989Z"/><path d="M2.173 9.749a.5.5 0 0 0 .465.533q.087.006.172.006c.618 0 1.184-.229 1.607-.653.511-.514.783-1.287.727-2.069a.5.5 0 1 0-.997.07c.035.499-.128.981-.438 1.293-.259.26-.608.39-1.003.355a.5.5 0 0 0-.533.465Zm3.002-3.122q.05.01.1.01a.499.499 0 0 0 .099-.99c-.283-.058-.953-.286-1.063-1.164a.5.5 0 1 0-.993.125c.131 1.039.842 1.812 1.856 2.019Zm-.769 4.77c.275.114.745.415.802 1.145a.5.5 0 0 0 .498.461l.04-.002a.5.5 0 0 0 .459-.537c-.073-.921-.589-1.646-1.416-1.99a.5.5 0 1 0-.384.924Z"/></svg>