<!-- SPDX-FileCopyrightText: © 2025 Schneider Electric SPDX-License-Identifier: LicenseRef-Proprietary -->
<svg xmlns="http://www.w3.org/2000/svg" viewBox="0 0 16 16"><path d="M.5 4h4a.5.5 0 0 0 0-1h-4a.5.5 0 0 0 0 1Zm13.194 1.388c.72 0 1.306.586 1.306 1.306S14.414 8 13.694 8H5.5a.5.5 0 0 0 0 1h8.194C14.965 9 16 7.966 16 6.694s-1.034-2.306-2.306-2.306a.5.5 0 0 0 0 1Z"/><path d="M.5 6h6.33c1.271 0 2.306-1.034 2.306-2.306S8.102 1.388 6.83 1.388a.5.5 0 0 0 0 1c.72 0 1.306.586 1.306 1.306S7.55 5 6.83 5H.5a.5.5 0 0 0 0 1Zm12.96 5H7.5a.5.5 0 0 0 0 1h5.96a.93.93 0 0 1 0 1.86.5.5 0 0 0 0 1c1.064 0 1.93-.866 1.93-1.93S14.524 11 13.46 11ZM8.5 13h-4a.5.5 0 0 0 0 1h4a.5.5 0 0 0 0-1ZM5 11.5a.5.5 0 0 0-.5-.5h-4a.5.5 0 0 0 0 1h4a.5.5 0 0 0 .5-.5Z"/></svg>