<!-- SPDX-FileCopyrightText: © 2025 Schneider Electric SPDX-License-Identifier: LicenseRef-Proprietary -->
<svg xmlns="http://www.w3.org/2000/svg" viewBox="0 0 16 16"><path d="m13.225 5.65 2.354-2.434c.844-1.293.167-2.688.138-2.746a.5.5 0 0 0-.257-.24 2.72 2.72 0 0 0-2.81.368l-2.355 2.194L2.224.469a.5.5 0 0 0-.489.124L.149 2.154a.5.5 0 0 0 .21.836l1.56.458L6.607 6.62l-3.691 4.307-1.58-.73a.49.49 0 0 0-.536.075l-.53.456a.5.5 0 0 0 .652.758l.286-.246 1.631.754a.5.5 0 0 0 .589-.129L7.73 6.846a.498.498 0 0 0-.099-.74L2.415 2.577a.5.5 0 0 0-.139-.065l-.819-.241.772-.76 8.061 2.32a.5.5 0 0 0 .479-.115l2.55-2.376c.028-.024.648-.538 1.571-.253.106.306.262.957-.089 1.507l-2.496 2.569a.5.5 0 0 0-.121.49l2.392 8.143-.761.759-.191-.639a.5.5 0 0 0-.063-.136l-3.534-5.258a.5.5 0 0 0-.732-.109L4.272 12.52a.5.5 0 0 0-.146.577l.679 1.646-.34.417a.501.501 0 0 0 .776.633l.529-.648a.5.5 0 0 0 .075-.507l-.651-1.578 4.311-3.524 3.186 4.74.41 1.368a.498.498 0 0 0 .832.211l1.562-1.561a.5.5 0 0 0 .126-.494l-2.394-8.149Z"/></svg>