<!-- SPDX-FileCopyrightText: © 蚂蚁科技集团股份有限公司 SPDX-License-Identifier: LicenseRef-Proprietary -->
<svg xmlns="http://www.w3.org/2000/svg" data-name="Alipay+" version="1.1" viewBox="0 0 120 40"><path fill="#ffffff" d="M29.73 9.244v17.828h3.86V9.244Zm-11.94.61L12 27.072h3.566l.977-3.369h6.13l.929 3.37h4.566l-5.201-17.22Zm1.855 3.101h.1l2.173 7.938H17.35zm30.654.756c-1.417 0-2.517.537-3.762 1.562V13.98h-3.86v17.245h3.86V26.95a8.4 8.4 0 0 0 2.248.293l-.002-.002c3.443 0 6.547-2.54 6.547-7.058 0-4.054-2.248-6.473-5.031-6.473zm12.724 0c-1.977 0-3.347.34-5.837 1.098l.683 3.004c2.271-1.026 3.274-1.465 4.324-1.465 1.27 0 1.832.903 1.832 2.295v.1c-4.42.83-5.788 1.294-6.642 2.148-.634.634-.904 1.539-.904 2.59 0 2.515 1.953 3.859 3.785 3.859 1.366 0 2.468-.513 3.957-1.637l.267 1.365v.002h3.86l-.465-3.271v-5.473c0-2.98-1.758-4.615-4.86-4.615zm-26.796.271v13.09h3.859v-13.09Zm32.412 0 5.203 13.14-2.176 4.005v.098h3.395l6.57-17.217.025-.026h-3.64l-2.295 7.961H75.6l-2.64-7.96zm-19.81 2.733v.002c1.441 0 2.589 1.147 2.589 3.59 0 3.126-1.685 4.52-3.566 4.52-.44 0-.854-.05-1.319-.196v-7.084c.806-.561 1.464-.832 2.295-.832zm15.19 4.058V23.9c-1.025.561-1.612.782-2.296.782-.928 0-1.514-.613-1.514-1.59h.002c0-.366.072-.733.365-1.026.465-.464 1.367-.805 3.444-1.293zM38.156 8.705c-1.295 0-2.222.88-2.222 2.125 0 1.27.927 2.125 2.222 2.125 1.296 0 2.223-.855 2.223-2.125s-.927-2.125-2.223-2.125zm56.715.541v8.762a4.366 4.366 0 0 0 4.367 4.365H108v-2.26a2.106 2.106 0 0 0-2.107-2.105h-6.655v-6.654a2.11 2.11 0 0 0-2.107-2.108zm-8.761 8.762v2.258h.001c0 1.164.944 2.107 2.106 2.107h4.531v-4.365zm8.761 6.506v4.512c0 1.164.946 2.107 2.108 2.107h2.26v-6.62z"/></svg>