<!-- SPDX-FileCopyrightText: © 蚂蚁科技集团股份有限公司 SPDX-License-Identifier: LicenseRef-Proprietary -->
<svg xmlns="http://www.w3.org/2000/svg" data-name="Alipay+" version="1.1" viewBox="0 0 564.545 142.352"><path fill="#fff" d="M22.611 0C10.118 0 0 10.206 0 22.805v96.746c0 12.59 10.118 22.8 22.611 22.8h95.934c12.49 0 22.601-10.21 22.601-22.8v-.934s-36.71-15.436-55.253-24.426c-12.432 15.43-28.473 24.793-45.123 24.793-28.162 0-37.726-24.854-24.391-41.216 2.905-3.568 7.85-6.973 15.53-8.881 12.006-2.974 31.118 1.858 49.028 7.818 3.22-5.987 5.932-12.577 7.952-19.596H33.69v-5.64h28.46V41.363H27.68v-5.64h34.47v-14.42s.002-2.43 2.442-2.43H78.5v16.85h34.084v5.64H78.5V51.47h27.822c-2.661 11-6.71 21.122-11.779 30.01 8.441 3.08 16.02 5.998 21.668 7.906 20.325 6.864 24.935 7.234 24.935 7.234V22.805C141.146 10.206 131.036 0 118.545 0Zm16.55 77.129a42 42 0 0 0-4.854.2c-3.528.352-10.145 1.928-13.766 5.153-10.852 9.544-4.361 26.987 17.598 26.987 12.762 0 25.52-8.23 35.537-21.407C61.208 81.925 50.405 77.315 39.16 77.13ZM319.377 8.518c-7.507 0-12.889 5.1-12.889 12.322 0 7.364 5.382 12.32 12.889 12.32s12.887-4.956 12.887-12.32c0-7.223-5.38-12.322-12.887-12.322zm-48.863 3.115v103.39h22.377V11.633Zm-69.258 3.54-33.567 99.85h20.68l5.664-19.544h35.549l5.38 19.544h26.487l-30.166-99.85ZM212.02 33.16h.568l12.603 46.03h-26.484zm174.21 4.393c-8.214 0-14.587 3.114-21.81 9.062V39.11h-22.38v99.99h22.38v-24.785c4.248 1.134 8.213 1.7 13.03 1.7 19.969 0 37.956-14.729 37.956-40.93 0-23.51-13.032-37.531-29.176-37.531zm70.254 0c-11.473 0-19.405 1.98-33.851 6.37l3.965 17.423c13.172-5.95 18.98-8.498 25.07-8.498 7.365 0 10.621 5.239 10.621 13.312v.567c-25.636 4.816-33.566 7.507-38.523 12.464-3.682 3.683-5.24 8.923-5.24 15.012 0 14.588 11.332 22.379 21.954 22.379 7.931 0 14.303-2.974 22.944-9.49l1.556 7.931h22.377l-2.691-18.978V64.32c0-17.28-10.195-26.767-28.182-26.767zm-148.296 1.556v75.914h22.376V39.11Zm180.867 0 30.17 76.198-12.606 23.226v.567h19.688l38.097-99.85.14-.14h-21.103l-13.31 46.17h-.71l-15.294-46.17ZM377.732 54.973c8.358 0 15.012 6.655 15.012 20.818 0 18.128-9.77 26.201-20.678 26.201-2.548 0-4.957-.282-7.646-1.133V59.787c4.673-3.257 8.498-4.814 13.312-4.814zm84.557 23.51V96.61c-5.948 3.258-9.35 4.532-13.312 4.532-5.383 0-8.782-3.54-8.782-9.206 0-2.125.425-4.248 2.123-5.947 2.692-2.692 7.934-4.676 19.971-7.508z"/></svg>