<!-- SPDX-FileCopyrightText: © 2025 Schneider Electric SPDX-License-Identifier: LicenseRef-Proprietary -->
<svg xmlns="http://www.w3.org/2000/svg" viewBox="0 0 16 16"><path d="M15.835 6.223a.5.5 0 0 0-.706.036l-.857.953c-.013.017-1.349 1.694-3.06 1.694-.881 0-1.756-.516-2.316-.888L7.688 7.12c-1.017-.68-1.993-1.025-2.899-1.025-2.205 0-3.782 1.995-3.825 2.052l-.834.924a.5.5 0 1 0 .742.67l.858-.952c.013-.017 1.338-1.694 3.059-1.694.706 0 1.494.288 2.323.841l1.208.899c.689.46 1.739 1.071 2.892 1.071 2.206 0 3.783-1.994 3.825-2.051l.834-.925a.5.5 0 0 0-.036-.706Z"/></svg>