<!-- SPDX-FileCopyrightText: © 2025 Schneider Electric SPDX-License-Identifier: LicenseRef-Proprietary -->
<svg xmlns="http://www.w3.org/2000/svg" viewBox="0 0 15.999 15.999"><path d="M10.5 2h-2a.5.5 0 0 0 0 1h2a.5.5 0 0 0 0-1Z"/><path d="M12 8.5a.5.5 0 0 0 1 0v-8a.5.5 0 0 0-.5-.5h-10a.5.5 0 0 0-.5.5V15H.5a.5.5 0 1 0 0 1h2a.5.5 0 0 0 .5-.5V.999h9z"/><path d="M10.5 5h-2a.5.5 0 0 0 0 1h2a.5.5 0 0 0 0-1Zm0 3h-2a.5.5 0 0 0 0 1h2a.5.5 0 0 0 0-1Zm4.845 3.635c.046-.13.077-.272.077-.428 0-.961-.772-1.742-1.722-1.742s-1.723.781-1.723 1.742v.05c-.561.269-.941.84-.941 1.484 0 .972.878 1.737 1.832 1.645 0 .241.029.457.058.613H9.998v-3.5a.5.5 0 0 0-.5-.5h-4a.5.5 0 0 0-.5.5v4a.5.5 0 0 0 1 0v-3.5h3.001v3.5a.5.5 0 0 0 .5.5h3.874a.495.495 0 0 0 .488-.396l.088-.373a.5.5 0 0 0-.004-.245c-.045-.168-.137-.688-.018-1.078a.54.54 0 0 0 .015-.229.501.501 0 0 0-.83-.451.62.62 0 0 1-.42.168.664.664 0 0 1-.655-.654c0-.318.252-.601.575-.644a.503.503 0 0 0 .409-.651.733.733 0 0 1 .679-.981c.399 0 .722.333.722.742 0 .096-.09.252-.163.378a.498.498 0 0 0 .261.719c.238.088.479.326.479.612a.66.66 0 0 1-.149.422.5.5 0 0 0 .068.703.5.5 0 0 0 .703-.068c.243-.295.378-.671.378-1.057 0-.491-.254-.967-.654-1.281ZM6.999 8.5a.5.5 0 0 0-.5-.5h-2a.5.5 0 0 0 0 1h2a.5.5 0 0 0 .5-.5ZM6.5 5h-2a.5.5 0 0 0 0 1h2a.5.5 0 0 0 0-1Zm0-3h-2a.5.5 0 0 0 0 1h2a.5.5 0 0 0 0-1Z"/></svg>