<!-- SPDX-FileCopyrightText: Copyright © 2024 Apple Inc. All rights reserved. SPDX-License-Identifier: LicenseRef-Proprietary -->
<svg xmlns="http://www.w3.org/2000/svg" x="0" y="0" version="1.1" viewBox="0 0 165.521 105.965"><path fill="#000" d="M150.698 0H14.823q-.85 0-1.698.003-.715.004-1.43.022c-1.039.028-2.087.09-3.113.274a10.5 10.5 0 0 0-2.958.975 9.93 9.93 0 0 0-4.35 4.35 10.5 10.5 0 0 0-.975 2.96C.113 9.611.052 10.658.024 11.696q-.018.715-.022 1.43Q0 13.973 0 14.823v76.318q0 .85.002 1.699.004.714.022 1.43c.028 1.036.09 2.084.275 3.11a10.5 10.5 0 0 0 .974 2.96 9.9 9.9 0 0 0 1.83 2.52 9.9 9.9 0 0 0 2.52 1.83c.947.483 1.917.79 2.96.977 1.025.183 2.073.245 3.112.273q.715.017 1.43.02.848.005 1.698.004h135.875q.849.001 1.697-.004a80 80 0 0 0 1.431-.02c1.037-.028 2.085-.09 3.113-.273a10.5 10.5 0 0 0 2.958-.977 9.96 9.96 0 0 0 4.35-4.35c.483-.947.789-1.917.974-2.96.186-1.026.246-2.074.274-3.11q.02-.716.022-1.43.005-.85.004-1.699V14.824q.001-.85-.004-1.699a63 63 0 0 0-.022-1.429c-.028-1.038-.088-2.085-.274-3.112a10.4 10.4 0 0 0-.974-2.96 9.94 9.94 0 0 0-4.35-4.35A10.5 10.5 0 0 0 156.939.3c-1.028-.185-2.076-.246-3.113-.274a71 71 0 0 0-1.431-.022Q151.546 0 150.698 0z"/><path fill="#FFFFFF" d="m150.698 3.532 1.672.003q.678.003 1.36.02c.792.022 1.719.065 2.583.22.75.135 1.38.34 1.984.648a6.4 6.4 0 0 1 2.804 2.807c.306.6.51 1.226.645 1.983.154.854.197 1.783.218 2.58.013.45.019.9.02 1.36q.006.835.005 1.671v76.318c0 .558 0 1.114-.004 1.682q-.002.675-.02 1.35c-.022.796-.065 1.725-.221 2.589a6.9 6.9 0 0 1-.645 1.975 6.4 6.4 0 0 1-2.808 2.807c-.6.306-1.228.512-1.971.645-.882.157-1.847.2-2.574.22-.457.01-.912.017-1.379.019q-.834.005-1.669.004H14.801c-.55 0-1.1 0-1.66-.004a75 75 0 0 1-1.35-.018c-.744-.02-1.71-.064-2.584-.22a7 7 0 0 1-1.986-.65 6.3 6.3 0 0 1-1.622-1.18 6.4 6.4 0 0 1-1.178-1.623 7 7 0 0 1-.647-1.985c-.155-.863-.198-1.788-.22-2.578a66 66 0 0 1-.02-1.355l-.002-1.327V14.474l.002-1.325q.003-.68.02-1.357c.022-.792.065-1.717.222-2.587a7 7 0 0 1 .646-1.981c.304-.598.7-1.144 1.18-1.622a6.4 6.4 0 0 1 1.624-1.18 7 7 0 0 1 1.98-.647c.865-.155 1.792-.198 2.586-.22q.68-.017 1.354-.02l1.677-.003z"/><path fill="#000" d="M45.186 35.64c1.417-1.772 2.38-4.152 2.126-6.585-2.075.104-4.607 1.37-6.073 3.143-1.316 1.52-2.48 4-2.177 6.33 2.33.202 4.656-1.165 6.124-2.887m2.099 3.342c-3.382-.202-6.258 1.919-7.873 1.919s-4.09-1.818-6.764-1.769c-3.482.051-6.713 2.02-8.48 5.15-3.634 6.264-.959 15.556 2.575 20.657 1.717 2.524 3.785 5.303 6.51 5.203 2.575-.101 3.584-1.668 6.714-1.668 3.128 0 4.037 1.668 6.763 1.617 2.827-.05 4.594-2.525 6.31-5.051 1.969-2.877 2.775-5.655 2.825-5.808-.05-.05-5.45-2.122-5.5-8.333-.051-5.201 4.24-7.675 4.441-7.828-2.423-3.584-6.209-3.988-7.52-4.09m29.448-7.038c7.35 0 12.47 5.067 12.47 12.444 0 7.404-5.225 12.497-12.654 12.497h-8.14v12.943h-5.88V31.944zM68.41 51.949h6.747c5.12 0 8.034-2.756 8.034-7.534s-2.914-7.509-8.008-7.509H68.41zm22.33 10.03c0-4.831 3.702-7.798 10.266-8.166l7.56-.446v-2.126c0-3.072-2.074-4.91-5.539-4.91-3.282 0-5.33 1.575-5.828 4.043h-5.356c.315-4.988 4.568-8.664 11.394-8.664 6.695 0 10.974 3.545 10.974 9.084v19.034h-5.435v-4.542h-.13c-1.602 3.072-5.094 5.015-8.717 5.015-5.408 0-9.189-3.36-9.189-8.322zm17.826-2.494v-2.18l-6.8.42c-3.386.237-5.303 1.733-5.303 4.096 0 2.415 1.996 3.99 5.041 3.99 3.964 0 7.062-2.73 7.062-6.326zm10.776 20.504v-4.595c.419.105 1.364.105 1.837.105 2.625 0 4.043-1.102 4.909-3.938 0-.052.5-1.68.5-1.706l-9.977-27.646h6.143l6.984 22.474h.104l6.985-22.474h5.985l-10.344 29.063c-2.362 6.695-5.093 8.848-10.816 8.848-.473 0-1.891-.053-2.31-.131z"/></svg>