<!-- SPDX-FileCopyrightText: © 2025 Schneider Electric SPDX-License-Identifier: LicenseRef-Proprietary -->
<svg xmlns="http://www.w3.org/2000/svg" viewBox="0 0 16 16"><path d="M15.5 7.001a.5.5 0 0 0 .501-.501V2.424a1.23 1.23 0 0 0-.601-1.062c-.377-.226-.832-.236-1.3.021L9 5.519V2.423c0-.449-.222-.849-.592-1.072a1.19 1.19 0 0 0-1.177-.021.5.5 0 0 0-.088.06L.614 6.914c-.38.225-.606.623-.606 1.065s.227.839.541 1.017l6.597 5.511a1 1 0 0 0 .087.059c.378.199.818.192 1.177-.022.369-.223.591-.623.591-1.071v-3.088l5.096 4.229a.4.4 0 0 0 .084.057 1.23 1.23 0 0 0 1.219-.031 1.23 1.23 0 0 0 .602-1.062V9.502a.502.502 0 0 0-1.002 0v4.076a.23.23 0 0 1-.115.203.22.22 0 0 1-.197.021L8.812 8.927a.5.5 0 0 0-.806.502.4.4 0 0 0-.006.072v3.972c0 .135-.073.194-.105.213a.18.18 0 0 1-.155.013L1.125 8.182a.23.23 0 0 1-.116-.203c0-.041.011-.142.184-.252L7.74 2.198a.17.17 0 0 1 .153.013c.032.019.105.078.105.213v4.06a.5.5 0 0 0 .808.482l5.845-4.751a.23.23 0 0 1 .233.006.23.23 0 0 1 .114.203V6.5c0 .276.225.501.501.501Z"/></svg>