<!-- SPDX-FileCopyrightText: © 2025 Schneider Electric SPDX-License-Identifier: LicenseRef-Proprietary -->
<svg xmlns="http://www.w3.org/2000/svg" viewBox="0 0 16 16"><path d="M5.052 4.355a.5.5 0 0 0-.703-.078L.188 7.61a.498.498 0 0 0 0 .78l4.162 3.333a.5.5 0 0 0 .703-.078.5.5 0 0 0-.078-.703L1.301 8l3.674-2.942a.5.5 0 0 0 .078-.703Zm10.76 3.255L11.65 4.277a.5.5 0 1 0-.625.781L14.699 8l-3.674 2.942a.5.5 0 0 0 .625.781l4.162-3.333a.498.498 0 0 0 0-.78ZM8.631 1.897a.507.507 0 0 0-.549.446l-1.16 11.211a.501.501 0 0 0 .995.102l1.16-11.211a.5.5 0 0 0-.446-.549Z"/></svg>