<!-- SPDX-FileCopyrightText: © 2025 Schneider Electric SPDX-License-Identifier: LicenseRef-Proprietary -->
<svg xmlns="http://www.w3.org/2000/svg" viewBox="0 0 16 16"><path d="M14.5 7a.5.5 0 0 0 .5-.5V1.86c0-.743-.354-1.393-.925-1.696a1.36 1.36 0 0 0-1.417.075L3 6.388V1.5a.5.5 0 0 0-1 0v13a.5.5 0 0 0 1 0V9.614l9.646 6.139c.245.165.513.249.782.249.219 0 .438-.056.646-.166.57-.303.925-.953.925-1.696V9.5a.5.5 0 0 0-1 0v4.64c0 .417-.198.709-.394.813-.134.07-.266.062-.411-.036L3.531 8.769c-.201-.151-.325-.445-.325-.769s.125-.617.293-.746l9.708-6.178q.2-.137.399-.028c.195.104.394.396.394.812V6.5a.5.5 0 0 0 .5.5Z"/></svg>