<!-- SPDX-FileCopyrightText: © 2025 Schneider Electric SPDX-License-Identifier: LicenseRef-Proprietary -->
<svg xmlns="http://www.w3.org/2000/svg" viewBox="0 0 16 16"><path d="M5.116 3.97a.515.515 0 1 0 .767-.687L3.958 1.137a.52.52 0 0 0-.376-.171.36.36 0 0 0-.175.028.52.52 0 0 0-.388.325L1.171 3.272a.515.515 0 0 0 .748.708l1.066-1.128v10.244l-1.09-1.14a.514.514 0 1 0-.744.711l2.051 2.146a.5.5 0 0 0 .372.159h.009a.52.52 0 0 0 .376-.173l1.904-2.146a.515.515 0 1 0-.77-.684l-1.078 1.215V2.743zm9.979-.102a.513.513 0 0 0 .728.008.514.514 0 0 0 .008-.728L12.887.138a.514.514 0 1 0-.736.72zm.009 7.747a.516.516 0 0 0 .717-.741L9.218 4.476a.5.5 0 0 0-.204-.122V1.685l6.096 5.703a.515.515 0 0 0 .704-.752L8.852.122a.515.515 0 0 0-.867.376V15.5a.516.516 0 0 0 1.03 0v-1.753l2.296 2.128a.515.515 0 0 0 .7-.756L9.21 12.524a.5.5 0 0 0-.195-.113V9.863l6.089 5.901a.515.515 0 0 0 .717-.741L9.218 8.625a.5.5 0 0 0-.204-.122V5.711l6.089 5.902Z"/></svg>