<!-- SPDX-FileCopyrightText: © 2025 Schneider Electric SPDX-License-Identifier: LicenseRef-Proprietary -->
<svg xmlns="http://www.w3.org/2000/svg" viewBox="0 0 16 16"><path d="M13.5 1a.5.5 0 0 0-.5.5v4.885L3.354.247c-.444-.3-.964-.33-1.429-.082-.57.303-.924.953-.924 1.695V6.5a.5.5 0 0 0 1 0V1.86c0-.445.212-.716.394-.812.135-.072.267-.062.411.036l9.665 6.148c.2.15.324.445.324.769s-.124.618-.292.746l-9.709 6.178q-.2.135-.4.028C2.212 14.856 2 14.585 2 14.14V9.5a.5.5 0 0 0-1 0v4.64c0 .743.354 1.393.924 1.696.21.111.431.166.65.166.267 0 .53-.081.768-.241L13 9.613v4.888a.5.5 0 0 0 1 0V1.5a.5.5 0 0 0-.5-.5Z"/></svg>