<!-- SPDX-FileCopyrightText: © 2025 Schneider Electric SPDX-License-Identifier: LicenseRef-Proprietary -->
<svg xmlns="http://www.w3.org/2000/svg" viewBox="0 0 16 16"><path d="m4.932 4.372 2.341-2.396q.103-.105.228-.177v9.133a.5.5 0 0 0 1 0V1.783q.142.075.258.193l2.311 2.366a.5.5 0 1 0 .715-.698L9.474 1.278A2.03 2.03 0 0 0 8.193.67a.52.52 0 0 0-.391.004 2.02 2.02 0 0 0-1.243.604L4.218 3.674a.5.5 0 0 0 .715.699Z"/><path d="M15.5 9.162a.5.5 0 0 0-.5.5v4.264c0 .593-.481 1.074-1.074 1.074H2.074A1.075 1.075 0 0 1 1 13.926V9.662a.5.5 0 0 0-1 0v4.264C0 15.07.931 16 2.074 16h11.852A2.076 2.076 0 0 0 16 13.926V9.662a.5.5 0 0 0-.5-.5Z"/></svg>