<!-- SPDX-FileCopyrightText: © 2025 Schneider Electric SPDX-License-Identifier: LicenseRef-Proprietary -->
<svg xmlns="http://www.w3.org/2000/svg" viewBox="0 0 16 16"><path d="M12.5 7a.5.5 0 0 0-.5.5V15H1V4h7.5a.5.5 0 0 0 0-1h-8a.5.5 0 0 0-.5.5v12a.5.5 0 0 0 .5.5h12a.5.5 0 0 0 .5-.5v-8a.5.5 0 0 0-.5-.5Z"/><path d="M15.961.307a.5.5 0 0 0-.096-.148h0s0 0 0 0l-.021-.021h0s0 0 0 0a.5.5 0 0 0-.343-.136h-5a.5.5 0 0 0 0 1h3.793l-4.95 4.951a.5.5 0 0 0 .708.707L15 1.707V5.5a.5.5 0 0 0 1 0v-5a.5.5 0 0 0-.039-.193Z"/></svg>