<!-- SPDX-FileCopyrightText: © 2025 Schneider Electric SPDX-License-Identifier: LicenseRef-Proprietary -->
<svg xmlns="http://www.w3.org/2000/svg" viewBox="0 0 16 16"><path d="M6.184 6.084a.5.5 0 1 0-.908-.418c-.462 1.004-.063 1.712.258 2.281.333.59.596 1.056.156 1.959a.5.5 0 1 0 .899.438c.67-1.375.177-2.249-.183-2.888-.317-.562-.458-.855-.221-1.372Z"/><path d="M8.472 1.986zv-.002h0a.5.5 0 0 0-.15-.542h0s0 0 0 0l-.017-.014L6.633.107a.5.5 0 1 0-.619.785l.701.552q-.676.132-1.314.402a6.7 6.7 0 0 0-2.123 1.431A6.65 6.65 0 0 0 1.322 8a6.64 6.64 0 0 0 1.956 4.723 6.7 6.7 0 0 0 2.123 1.431q.096.039.195.039a.5.5 0 0 0 .194-.961 5.6 5.6 0 0 1-1.805-1.216A5.65 5.65 0 0 1 2.322 8a5.66 5.66 0 0 1 1.663-4.015 5.64 5.64 0 0 1 2.898-1.553l-.597.757a.5.5 0 1 0 .785.619l1.318-1.672a.5.5 0 0 0 .083-.149Zm1.23 7.92a.499.499 0 1 0 .898.438c.671-1.375.176-2.25-.186-2.889-.317-.562-.46-.854-.223-1.371a.5.5 0 1 0-.908-.418c-.462 1.005-.062 1.713.261 2.282.334.589.598 1.055.157 1.958Z"/><path d="M14.153 5.4c-.337-.795-.817-1.509-1.431-2.123s-1.329-1.096-2.123-1.431a.5.5 0 1 0-.388.921 5.7 5.7 0 0 1 1.805 1.217 5.67 5.67 0 0 1 1.216 6.226 5.68 5.68 0 0 1-4.115 3.359l.597-.757a.5.5 0 1 0-.785-.619L7.61 13.866a.5.5 0 0 0-.087.162h0v.002q0 0 0 0a.5.5 0 0 0-.022.147v.021a.5.5 0 0 0 .177.362l.015.013 1.673 1.318a.5.5 0 0 0 .62-.785l-.7-.552a6.67 6.67 0 0 0 3.437-1.833 6.65 6.65 0 0 0 1.956-4.723c0-.903-.177-1.777-.525-2.6Z"/><path d="M7.714 9.906a.499.499 0 1 0 .899.438c.669-1.375.175-2.25-.186-2.888-.317-.562-.459-.855-.222-1.372a.5.5 0 1 0-.909-.419c-.463 1.005-.062 1.713.259 2.283.333.59.597 1.056.157 1.958Z"/></svg>