<!-- SPDX-FileCopyrightText: © 2025 Schneider Electric SPDX-License-Identifier: LicenseRef-Proprietary -->
<svg xmlns="http://www.w3.org/2000/svg" viewBox="0 0 16 16"><path d="M10.772 1.006A7.3 7.3 0 0 0 7.007.905a.5.5 0 1 0 .233.973 6.3 6.3 0 0 1 3.248.087 6.3 6.3 0 0 1 4.25 7.82 6.297 6.297 0 0 1-11.565 1.221 6.26 6.26 0 0 1-.506-4.791 6.3 6.3 0 0 1 .865-1.808l.935 2.22a.5.5 0 1 0 .922-.388L4.108 3.197a.498.498 0 0 0-.643-.391L.35 3.791a.5.5 0 0 0-.326.627.5.5 0 0 0 .627.326l1.852-.584a7.3 7.3 0 0 0-.792 1.773 7.25 7.25 0 0 0 .586 5.551 7.24 7.24 0 0 0 4.34 3.511 7.3 7.3 0 0 0 2.064.3c3.148 0 6.061-2.057 6.998-5.226 1.141-3.856-1.069-7.922-4.926-9.062Z"/></svg>