<!-- SPDX-FileCopyrightText: © 2025 Schneider Electric SPDX-License-Identifier: LicenseRef-Proprietary -->
<svg xmlns="http://www.w3.org/2000/svg" viewBox="0 0 16 16"><path d="m15.811 7.688-3.462-2.944a.5.5 0 0 0-.648.762L14.046 7.5H3.5a.5.5 0 0 0 0 1h10.66l-2.45 1.985a.5.5 0 1 0 .629.778l3.462-2.805a.5.5 0 0 0 .01-.77Z"/><path d="M9.5 13a.5.5 0 0 0-.5.5V15H1.054L1.002 1H9v1.5a.5.5 0 0 0 1 0v-2a.5.5 0 0 0-.5-.5h-9a.5.5 0 0 0-.5.502l.056 15a.5.5 0 0 0 .5.498H9.5a.5.5 0 0 0 .5-.5v-2a.5.5 0 0 0-.5-.5Z"/></svg>