<!-- SPDX-FileCopyrightText: © 2025 Schneider Electric SPDX-License-Identifier: LicenseRef-Proprietary -->
<svg xmlns="http://www.w3.org/2000/svg" viewBox="0 0 16 16"><path d="M6.048 9.245 1 14.293V11.5a.5.5 0 0 0-1 0v4.002h0v.002h0a.5.5 0 0 0 .312.46h0A.5.5 0 0 0 .494 16h4.004a.5.5 0 0 0 0-1H1.707l5.048-5.048a.5.5 0 0 0-.707-.707ZM15.962.31a.48.48 0 0 0-.274-.273.5.5 0 0 0-.183-.037H11.5a.5.5 0 0 0 0 1h2.793L9.245 6.048a.5.5 0 0 0 .708.707L15 1.707V4.5a.5.5 0 0 0 1 0V.498h0V.496a.5.5 0 0 0-.038-.186Z"/></svg>