<!-- SPDX-FileCopyrightText: © 2025 Schneider Electric SPDX-License-Identifier: LicenseRef-Proprietary -->
<svg xmlns="http://www.w3.org/2000/svg" viewBox="0 0 16 16"><path d="M15.5 5a.5.5 0 0 0-.5.5v3.849c0 .91-.716 1.651-1.597 1.651h-9.76l1.339-1.384a.5.5 0 1 0-.719-.695l-2.1 2.17a.5.5 0 0 0-.009.687l2.08 2.261a.503.503 0 0 0 .706.029.5.5 0 0 0 .03-.707l-1.252-1.36h9.684c1.432 0 2.597-1.189 2.597-2.651V5.501a.5.5 0 0 0-.5-.5Z"/><path d="m12.091 5-1.148 1.181a.5.5 0 0 0 .717.697l2.03-2.088a.5.5 0 0 0-.002-.7l-2.03-2.061a.5.5 0 0 0-.713.702l1.25 1.268H2.597C1.165 3.999 0 5.188 0 6.65v3.849a.5.5 0 0 0 1 0V6.65c0-.911.716-1.651 1.597-1.651z"/></svg>