<!-- SPDX-FileCopyrightText: © 2025 Schneider Electric SPDX-License-Identifier: LicenseRef-Proprietary -->
<svg xmlns="http://www.w3.org/2000/svg" viewBox="0 0 16 16"><path d="M6.552 10.074c.334.341.767.55 1.233.602a.51.51 0 0 0 .421.004 2.04 2.04 0 0 0 1.272-.605l2.298-2.339a.5.5 0 0 0-.713-.701L8.765 9.374a1.1 1.1 0 0 1-.266.197V.5a.5.5 0 0 0-1 0v9.054a1 1 0 0 1-.235-.181L4.936 7.005a.5.5 0 1 0-.713.701z"/><path d="M15.5 9.208a.5.5 0 0 0-.5.5v4.213A1.08 1.08 0 0 1 13.921 15H2.079A1.08 1.08 0 0 1 1 13.921V9.708a.5.5 0 0 0-1 0v4.213C0 15.067.933 16 2.079 16h11.842A2.08 2.08 0 0 0 16 13.921V9.708a.5.5 0 0 0-.5-.5Z"/></svg>