<!-- SPDX-FileCopyrightText: © 2025 Schneider Electric SPDX-License-Identifier: LicenseRef-Proprietary -->
<svg xmlns="http://www.w3.org/2000/svg" viewBox="0 0 16 16"><path d="M9.547 4.391a.5.5 0 0 0-.183-.383L5.638.951a.5.5 0 0 0-.635.773L7.777 4H.5a.5.5 0 0 0 0 1h7.061L4.887 7.269a.5.5 0 1 0 .646.763l3.836-3.255a.5.5 0 0 0 .177-.385ZM15.5 11H8.225l2.768-2.35a.5.5 0 0 0-.646-.763l-3.836 3.256a.5.5 0 0 0 .001.763l3.726 3.151a.503.503 0 0 0 .705-.059.5.5 0 0 0-.059-.705l-2.713-2.294H15.5a.5.5 0 0 0 0-1Z"/></svg>