<!-- SPDX-FileCopyrightText: © 2025 Schneider Electric SPDX-License-Identifier: LicenseRef-Proprietary -->
<svg xmlns="http://www.w3.org/2000/svg" viewBox="0 0 16 16"><path d="M7.132 9.578a.5.5 0 0 0-.688.161l-.253.414c-.399.659-.744 1.229-1.223 1.567-1.687 1.195-4.337.658-4.364.651a.5.5 0 0 0-.207.979c.058.012.726.149 1.631.149 1.049 0 2.417-.185 3.517-.963.65-.459 1.063-1.143 1.501-1.866l.247-.404a.5.5 0 0 0-.161-.688Zm1.845-2.471a.5.5 0 0 0 .371-.166c1.975-2.189 6.049-1.723 6.092-1.718a.498.498 0 0 0 .414-.849l-2.209-2.209a.5.5 0 0 0-.707.707l1.305 1.304c-1.541.025-4.07.358-5.637 2.096a.499.499 0 0 0 .371.835Z"/><path d="M15.439 10.776c-.043.002-4.118.47-6.092-1.719-.392-.434-.794-1.198-1.22-2.007-.693-1.316-1.479-2.809-2.583-3.588C3.497 2.014.522 2.624.396 2.65a.5.5 0 1 0 .207.978c.026-.006 2.676-.543 4.364.65.908.642 1.635 2.021 2.276 3.239.456.865.887 1.683 1.362 2.21 1.566 1.737 4.097 2.07 5.637 2.096l-1.305 1.305a.5.5 0 0 0 .708.707l2.209-2.209a.501.501 0 0 0-.414-.849Z"/></svg>