<!-- SPDX-FileCopyrightText: © 2025 Schneider Electric SPDX-License-Identifier: LicenseRef-Proprietary -->
<svg xmlns="http://www.w3.org/2000/svg" viewBox="0 0 16 16"><path d="M13.158 5.274a.5.5 0 0 0 .399.583l1.468.273a.5.5 0 0 0 .575-.364l.383-1.455a.5.5 0 0 0-.966-.255l-.022.084C13.611 1.606 10.953 0 8.059 0 3.695 0 .144 3.589.144 8a.5.5 0 0 0 .5.5l2.423.015c.51 0 .971-.324 1.147-.808l.501-1.383c.187-.514.63-.697.983-.697h0c.353 0 .795.183.982.695l1.356 3.717c.285.78.974 1.297 1.797 1.348a2.01 2.01 0 0 0 1.943-1.111l.842-1.638a.22.22 0 0 1 .201-.122l2.134-.015c-.254 3.627-3.25 6.5-6.897 6.5a6.9 6.9 0 0 1-6.004-3.524l.301.116a.499.499 0 1 0 .36-.933l-1.393-.538a.5.5 0 0 0-.632.253l-.64 1.358a.5.5 0 0 0 .904.428l.156-.331C2.499 14.404 5.154 16 8.059 16c4.364 0 7.915-3.589 7.915-8a.5.5 0 0 0-.5-.5l-2.656.015c-.459 0-.875.254-1.085.665l-.842 1.638a1.03 1.03 0 0 1-.993.57 1.02 1.02 0 0 1-.919-.693L7.623 5.979a2.03 2.03 0 0 0-1.922-1.352H5.7c-.869 0-1.624.533-1.923 1.356l-.501 1.383a.22.22 0 0 1-.203.149L1.163 7.5C1.417 3.873 4.413 1 8.06 1c2.661 0 5.093 1.557 6.24 3.979l-.558-.104a.504.504 0 0 0-.583.4Z"/></svg>