<!-- SPDX-FileCopyrightText: © 2025 Schneider Electric SPDX-License-Identifier: LicenseRef-Proprietary -->
<svg xmlns="http://www.w3.org/2000/svg" viewBox="0 0 16 16"><path d="M7.467 14.369h-.003a7 7 0 0 1-1.204-.106 6.4 6.4 0 0 1-1.089-.301.501.501 0 0 0-.35.938c.408.152.831.269 1.259.348a7.5 7.5 0 0 0 1.342.122h.049a.5.5 0 0 0-.003-1Zm-4.362-1.664a6.3 6.3 0 0 1-.98-1.119.5.5 0 1 0-.823.568 7.6 7.6 0 0 0 1.131 1.292q.316.285.657.529a.5.5 0 1 0 .582-.812 6 6 0 0 1-.567-.458Zm3.807-9.176a.5.5 0 0 0-.5.5v3.942c0 .164.08.317.214.411l2.959 2.057a.496.496 0 0 0 .696-.125.5.5 0 0 0-.125-.695L7.411 7.71V4.029a.5.5 0 0 0-.5-.5Zm6.457 7.739a.5.5 0 0 0-.689.156 6 6 0 0 1-.458.638.499.499 0 1 0 .775.632q.29-.354.531-.737a.5.5 0 0 0-.157-.689Z"/><path d="M15.761 6.66a.5.5 0 0 0-.688.165l-.408.666C14.417 3.666 11.226.631 7.34.631 3.293.63 0 3.923 0 7.971a7.4 7.4 0 0 0 .348 2.24.5.5 0 1 0 .952-.304A6.4 6.4 0 0 1 1 7.972 6.35 6.35 0 0 1 7.34 1.63a6.35 6.35 0 0 1 6.319 5.812l-.578-.504a.5.5 0 0 0-.657.753l1.699 1.483a.497.497 0 0 0 .755-.115l1.049-1.711a.5.5 0 0 0-.165-.688Zm-4.938 6.694a6.4 6.4 0 0 1-1.607.73.5.5 0 0 0-.338.62.5.5 0 0 0 .62.338 7.3 7.3 0 0 0 1.859-.843.5.5 0 0 0-.534-.845Z"/></svg>