<!-- SPDX-FileCopyrightText: © 2025 Schneider Electric SPDX-License-Identifier: LicenseRef-Proprietary -->
<svg xmlns="http://www.w3.org/2000/svg" viewBox="0 0 16 16"><path d="M5.035 5.658a.5.5 0 0 0 .03.706l2.573 2.361a.497.497 0 0 0 .672.004l2.622-2.361a.5.5 0 1 0-.669-.743L8.5 7.212V.5a.5.5 0 0 0-1 0v6.742L5.741 5.628a.5.5 0 0 0-.706.03Z"/><path d="M15.5 7.351a.5.5 0 0 0 0-1h-1.483V5.039H15.5a.5.5 0 0 0 0-1h-1.483V2.507a.5.5 0 0 0-.5-.5h-3a.5.5 0 0 0 0 1h2.5v1.404a.5.5 0 0 0 0 .256v2.055a.5.5 0 0 0 0 .256v2.055a.5.5 0 0 0 0 .256v2.055a.5.5 0 0 0 0 .256v1.405h-1.45a.5.5 0 0 0-.166 0H9.255a.5.5 0 0 0-.166 0H6.943a.5.5 0 0 0-.166 0H4.631a.5.5 0 0 0-.166 0h-1.45V3.006h2.5a.5.5 0 0 0 0-1h-3a.5.5 0 0 0-.5.5v1.532H.5a.5.5 0 0 0 0 1h1.516V6.35H.5a.5.5 0 0 0 0 1h1.516v1.312H.5a.5.5 0 0 0 0 1h1.516v1.312H.5a.5.5 0 0 0 0 1h1.516v1.533a.5.5 0 0 0 .5.5h1.533V15.5a.5.5 0 0 0 1 0v-1.493h1.312V15.5a.5.5 0 0 0 1 0v-1.493h1.312V15.5a.5.5 0 0 0 1 0v-1.493h1.312V15.5a.5.5 0 0 0 1 0v-1.493h1.533a.5.5 0 0 0 .5-.5v-1.533h1.483a.5.5 0 0 0 0-1h-1.483V9.662h1.483a.5.5 0 0 0 0-1h-1.483V7.35z"/></svg>