<!-- SPDX-FileCopyrightText: © 2025 Schneider Electric SPDX-License-Identifier: LicenseRef-Proprietary -->
<svg xmlns="http://www.w3.org/2000/svg" viewBox="0 0 16 16"><path d="m15.982 12.661-.289-5.929a1.6 1.6 0 0 0-.421-1.161c-.353-.373-.878-.549-1.552-.541-.722.016-1.143.319-1.369.57-.529.587-.479 1.381-.474 1.42l-.028 1.661L3.771.616A2.08 2.08 0 0 0 2.218 0 2.27 2.27 0 0 0 .67.673c-.87.872-.894 2.265-.052 3.106l7.045 7.044a.5.5 0 0 0 .707-.707L1.325 3.072c-.452-.452-.428-1.21.053-1.692.237-.237.544-.372.866-.38.318 0 .604.106.82.323l8.912 8.897a.5.5 0 0 0 .853-.345l.047-2.885c-.008-.125.015-.5.222-.726.139-.151.35-.229.644-.235.256-.011.608.028.798.221.165.168.157.409.156.466l.292 6.036c.001.012.132 1.096-.503 1.731-.637.636-1.721.501-1.774.498l-6.043-.287c-.008 0-.243.008-.411-.157-.193-.189-.227-.539-.221-.799.006-.284.082-.49.23-.63.229-.213.607-.244.777-.235l2.851-.058a.5.5 0 0 0 .49-.51c-.005-.276-.243-.469-.51-.49l-2.808.059c-.09-.006-.887-.042-1.471.494-.247.227-.543.644-.559 1.349-.015.678.167 1.2.541 1.553.486.46 1.092.432 1.098.423l5.945.283c.019.003.166.022.389.022.529 0 1.487-.109 2.185-.808.993-.994.795-2.512.791-2.531Z"/></svg>