<!-- SPDX-FileCopyrightText: © 2025 Schneider Electric SPDX-License-Identifier: LicenseRef-Proprietary -->
<svg xmlns="http://www.w3.org/2000/svg" viewBox="0 0 16 16"><path d="M15.022 11.531c-5.682 6.02-10.875 2.403-11.078 2.258-1.755-1.37-2.732-2.952-2.903-4.703-.294-3.02 1.905-5.597 1.921-5.616C5.534.612 8.475.86 9.999 1.263c2.53.668 4.549 2.573 4.847 3.932.653 2.976-1.17 4.645-1.984 5.224-.961.684-1.771.864-2.105.831.085-.469.285-1.455.474-2.353l.008-.052.092-.214.898-3.953a.514.514 0 0 0-1.003-.229l-.872 3.869c-1.042 2.494-2.611 2.949-3.729 2.539a2.52 2.52 0 0 1-1.511-3.134c1.093-3.509 4.49-2.738 4.634-2.704a.516.516 0 0 0 .245-1c-.044-.009-4.476-1.045-5.86 3.397-.636 2.039.59 3.842 2.142 4.406.996.362 2.31.266 3.475-.797-.095.547-.062.604.012.728.344.582 1.263.661 2.399.214 2.317-.913 4.46-3.491 3.691-6.994-.422-1.922-2.877-3.99-5.589-4.707-1.752-.461-5.128-.749-8.071 2.522-.103.118-2.509 2.925-2.175 6.389.197 2.047 1.305 3.871 3.309 5.434.034.025 1.965 1.387 4.771 1.387 2.188 0 4.906-.827 7.673-3.759a.515.515 0 0 0-.748-.707Z"/></svg>