<!-- SPDX-FileCopyrightText: © 2025 Schneider Electric SPDX-License-Identifier: LicenseRef-Proprietary -->
<svg xmlns="http://www.w3.org/2000/svg" viewBox="0 0 16 16"><path d="M11.789 11.905a.546.546 0 1 0 0-.001ZM5.096 13H1V7.5a.5.5 0 0 0-1 0v6a.5.5 0 0 0 .5.5h4.596a.5.5 0 0 0 0-1ZM15.5 5h-5a.5.5 0 0 0-.5.5V7H6V5.5a.5.5 0 0 0-.5-.5H1V4h14.5a.5.5 0 0 0 0-1H11v-.5C11 1.051 10.196 0 9.089 0H6.677c-1.232 0-1.64 1.118-1.774 1.485a.5.5 0 0 0 .939.343C6.108 1.1 6.4 1 6.676 1h2.412c.599 0 .911.754.911 1.5V3H.5a.5.5 0 0 0-.5.5v2a.5.5 0 0 0 .5.5H5v1.5a.5.5 0 0 0 .5.5h5a.5.5 0 0 0 .5-.5V6h4v2.5a.5.5 0 0 0 1 0v-3a.5.5 0 0 0-.5-.5Z"/><path d="M15.562 12.023a.5.5 0 0 0 .31-.561 5 5 0 0 0-.655-1.617.5.5 0 0 0-.663-.161l-.349.195a3 3 0 0 0-.426-.304 5 5 0 0 0 .091-.38.5.5 0 0 0-.314-.552c-.974-.373-1.8-.179-1.835-.171a.5.5 0 0 0-.382.465l-.017.411a3 3 0 0 0-.498.229c-.08-.08-.164-.16-.236-.219a.5.5 0 0 0-.548-.058c-.678.353-1.115 1.347-1.196 1.543a.5.5 0 0 0 .182.604l.321.217a3 3 0 0 0-.05.502c-.144.036-.296.08-.406.123a.5.5 0 0 0-.313.536 3.36 3.36 0 0 0 .75 1.702.5.5 0 0 0 .535.131l.501-.179c.127.13.299.275.515.392 0 .174-.006.406-.014.609a.5.5 0 0 0 .5.517h.004l1.452-.012a.5.5 0 0 0 .496-.513l-.012-.443a.5.5 0 0 0-.5-.486h-.014a.5.5 0 0 0-.483.447l-.428.004c.012-.645-.044-.833-.373-.938-.342-.106-.56-.434-.56-.434a.505.505 0 0 0-.591-.203l-.474.169a2.5 2.5 0 0 1-.218-.484c.14-.033.253-.056.256-.056a.5.5 0 0 0 .396-.562 2 2 0 0 1 .075-.891.5.5 0 0 0-.196-.565l-.25-.169c.089-.159.193-.32.301-.448l.135.146a.5.5 0 0 0 .685.058c.244-.195.536-.333.843-.397a.5.5 0 0 0 .397-.469l.014-.338c.128 0 .282.011.453.043a7 7 0 0 1-.07.228.5.5 0 0 0 .296.621 1.9 1.9 0 0 1 .751.528c.088.1.223.15.355.159a.5.5 0 0 0 .305-.081l.192-.108c.059.124.12.271.175.43l-.179.055a.5.5 0 0 0-.396.556c.042.314.008.637-.098.934a.55.55 0 0 0 .083.483q.06.083.147.136l.221.134a4 4 0 0 1-.167.236l.394.309.45.235c.315-.416.443-.757.457-.794a.5.5 0 0 0-.212-.598l-.321-.194q.06-.288.063-.582c.12-.039.248-.082.343-.119Z"/></svg>