<!-- SPDX-FileCopyrightText: © 2025 Schneider Electric SPDX-License-Identifier: LicenseRef-Proprietary -->
<svg xmlns="http://www.w3.org/2000/svg" viewBox="0 0 16 16"><path d="M15.5 6h-1a.5.5 0 0 0 0 1h.5v1h-2V6.5a.5.5 0 0 0-1 0V8h-1.5a.5.5 0 0 0-.5.5V10H6V8.5a.5.5 0 0 0-.5-.5H4V3h6.5a.5.5 0 0 0 0-1h-7a.5.5 0 0 0-.5.5V8H1V7h.5a.5.5 0 0 0 0-1h-1a.5.5 0 0 0-.5.5v2a.5.5 0 0 0 .5.5H5v1.5a.5.5 0 0 0 .5.5h5a.5.5 0 0 0 .5-.5V9h4v6H1v-4.5a.5.5 0 0 0-1 0v5a.5.5 0 0 0 .5.5h15a.5.5 0 0 0 .5-.5v-9a.5.5 0 0 0-.5-.5Z"/><path d="M15.5 0h-3a.5.5 0 0 0 0 1h1.852l-3.204 3.214a.5.5 0 0 0 .709.706l3.144-3.154V3.5a.5.5 0 0 0 1 0v-3a.5.5 0 0 0-.5-.5Z"/></svg>