<!-- SPDX-FileCopyrightText: © 2025 Schneider Electric SPDX-License-Identifier: LicenseRef-Proprietary -->
<svg xmlns="http://www.w3.org/2000/svg" viewBox="0 0 16 16"><path d="M15.5 6.002h-1a.498.498 0 0 0 0 .996h.503v1.005h-2.006V3.5a.5.5 0 0 0-.139-.344l-3-3.125a.498.498 0 0 0-.856.344L9 3.5a.495.495 0 0 0 .498.498H10.5a.498.498 0 0 0 0-.996h-.504V1.61l2.007 2.09v4.303H10.5a.5.5 0 0 0-.497.497v1.503H5.998V8.5a.5.5 0 0 0-.498-.497H3.998V.998H7.5a.498.498 0 0 0 0-.996h-4A.5.5 0 0 0 3.002.5v7.503H.998V6.998H1.5a.498.498 0 0 0 0-.996h-1a.5.5 0 0 0-.498.498v2c0 .274.223.497.498.497h4.502V10.5c0 .274.223.497.498.497h5a.5.5 0 0 0 .497-.497V8.997h4.006v6.006H.998V10.5a.498.498 0 0 0-.996 0v5c0 .274.223.497.498.497h15a.5.5 0 0 0 .497-.497v-9a.5.5 0 0 0-.497-.498Z"/></svg>