<!-- SPDX-FileCopyrightText: © 2025 Schneider Electric SPDX-License-Identifier: LicenseRef-Proprietary -->
<svg xmlns="http://www.w3.org/2000/svg" viewBox="0 0 16 16"><path d="M7.5 14a.5.5 0 0 0 .5-.5V8.492C8 8.129 8.266 8 8.507 8c.227 0 .493.129.493.492V13.5a.5.5 0 0 0 1 0V8.492C10 7.641 9.358 7 8.493 7A1.46 1.46 0 0 0 7 8.492V13.5a.5.5 0 0 0 .5.5Zm5 0a.5.5 0 0 0 .5-.5V5.336c0-.164.215-.417.5-.417s.5.253.5.417V13.5a.5.5 0 0 0 1 0V5.336c0-.755-.701-1.417-1.5-1.417S12 4.581 12 5.336V13.5a.5.5 0 0 0 .5.5Zm-10 0a.5.5 0 0 0 .5-.5V3.527c0-.384.258-.521.5-.521s.5.137.5.521V13.5a.5.5 0 0 0 1 0V3.527c0-.867-.645-1.521-1.5-1.521S2 2.66 2 3.527V13.5a.5.5 0 0 0 .5.5Z"/><path d="M15.5 15H1V.5a.5.5 0 0 0-1 0v15a.5.5 0 0 0 .5.5h15a.5.5 0 0 0 0-1Z"/></svg>