<!-- SPDX-FileCopyrightText: © 2025 Schneider Electric SPDX-License-Identifier: LicenseRef-Proprietary -->
<svg xmlns="http://www.w3.org/2000/svg" viewBox="0 0 16 16"><path d="M7.5 14a.5.5 0 0 0 .5-.5V8.492C8 8.129 8.266 8 8.507 8c.227 0 .493.129.493.492V13.5a.5.5 0 0 0 1 0V8.492C10 7.641 9.358 7 8.493 7A1.46 1.46 0 0 0 7 8.492V13.5a.5.5 0 0 0 .5.5Zm-4 0a.5.5 0 0 0 .5-.5V5.492C4 5.129 4.266 5 4.507 5c.227 0 .493.129.493.492V13.5a.5.5 0 0 0 1 0V5.492C6 4.641 5.358 4 4.493 4A1.46 1.46 0 0 0 3 5.492V13.5a.5.5 0 0 0 .5.5Z"/><path d="M15.5 15H1V.524a.5.5 0 0 0-1 0V15.5a.5.5 0 0 0 .5.5h15a.5.5 0 0 0 0-1ZM10.112 2.471c.561.266 1.001-.335 1.001-.335s.469-.645 1.513-.673c.656-.018 1.258.244 1.441.951.154.595-.914 1.54-1.899 2.367-.716.601-.498 1.533-.345 1.718 0 0 .283.545.959.305.442-.157.38-.911.38-.911.036-.156.136-.316.553-.555.238-.137 2.584-1.468 2.251-3.435-.241-.853-.792-1.841-3.18-1.901 0 0-2.429-.105-3.009 1.301 0 0-.449.796.335 1.168Zm2.351 5.213a.83.83 0 1 0 0 1.66.83.83 0 0 0 0-1.66Z"/></svg>