<!-- SPDX-FileCopyrightText: © 2025 Schneider Electric SPDX-License-Identifier: LicenseRef-Proprietary -->
<svg xmlns="http://www.w3.org/2000/svg" viewBox="0 0 16 16"><path d="M14.574 6H14V4.968A.97.97 0 0 0 13.032 4h-1.064a.97.97 0 0 0-.968.968V6.5a.5.5 0 0 0 1 0L11.968 5 13 4.968l.008 1.444a.5.5 0 0 0 .001.181L13.032 11 12 11.032V8.5a.5.5 0 0 0-.5-.5h-7a.5.5 0 0 0-.5.5v.013L4.032 11 3 11.032l-.008-1.445a.5.5 0 0 0-.001-.18L2.968 5 4 4.968V6.5a.5.5 0 0 0 1 0V4.968A.97.97 0 0 0 4.032 4H2.969a.97.97 0 0 0-.968.968V9h-.574c-.244 0-.426-.144-.426-.273V7.031c.035-.029.112-.083.271-.16a.5.5 0 1 0-.433-.901c-.229.11-.838.404-.838.986v1.771C.001 9.429.641 10 1.427 10h.574v1.032a.97.97 0 0 0 .968.968h1.063A.97.97 0 0 0 5 11.032V9h6v2.032a.97.97 0 0 0 .968.968h1.064a.97.97 0 0 0 .968-.968V7h.574c.244 0 .426.144.426.273v1.695c-.035.03-.112.083-.271.16a.5.5 0 0 0 .433.902c.229-.11.839-.402.839-.986V7.273c0-.702-.64-1.273-1.426-1.273Z"/></svg>