<!-- SPDX-FileCopyrightText: © 2025 Schneider Electric SPDX-License-Identifier: LicenseRef-Proprietary -->
<svg xmlns="http://www.w3.org/2000/svg" viewBox="0 0 16 16"><path d="M15.499 9a.5.5 0 0 0-.5.5v1.205c0 .14-.2.295-.469.295H3.47c-.26 0-.47-.252-.47-.416v-.581a.5.5 0 0 0-.492-.5c-.093 0-.219.005-.356.013-.319.016-.913.05-1.093-.12C1.043 9.381 1 9.341 1 9.195V6.94c0-.11.033-.143.051-.16.204-.2.88-.188 1.207-.183l.25.002a.5.5 0 0 0 .492-.5v-.803c0-.137.221-.295.506-.295h11.021c.271 0 .473.156.473.296v1.205a.501.501 0 0 0 1.001 0V5.298c0-.714-.661-1.295-1.474-1.295H3.506C2.675 4.003 2 4.584 2 5.298v.298c-.542 0-1.224.053-1.649.472A1.2 1.2 0 0 0 0 6.942v2.255c0 .477.202.768.372.928.433.409 1.109.427 1.628.402v.06c0 .754.687 1.416 1.47 1.416h11.06c.811 0 1.47-.581 1.47-1.295V9.503c0-.276-.225-.5-.501-.5Z"/><path d="M13.5 6za.5.5 0 0 0-.499.501l.008 3a.5.5 0 0 0 .5.499h0a.5.5 0 0 0 .499-.501l-.008-3A.5.5 0 0 0 13.5 6Z"/></svg>