<!-- SPDX-FileCopyrightText: © 2025 Schneider Electric SPDX-License-Identifier: LicenseRef-Proprietary -->
<svg xmlns="http://www.w3.org/2000/svg" viewBox="0 0 16 16"><path d="M14.7 2h-.947c-.163-.607-.607-1-1.183-1h-1.28c-.493 0-1.021.272-1.192 1H6.107c-.169-.813-.725-1-1.199-1H3.6c-.243 0-.963.081-1.167 1h-1C.59 2 .001 2.609.001 3.482v10.037C.001 14.335.585 15 1.302 15h2.199a.5.5 0 0 0 0-1h-2.2C1.159 14 1 13.794 1 13.519V3.482q0-.481.432-.482h1.446a.5.5 0 0 0 .5-.492C3.386 2 3.525 2 3.6 2h1.308c.166 0 .242 0 .25.509a.5.5 0 0 0 .5.491h4.881a.5.5 0 0 0 .5-.491C11.048 2 11.218 2 11.29 2h1.28c.175 0 .246.312.25.51a.5.5 0 0 0 .5.49h1.38c.127 0 .3 0 .3.42v10.104c0 .272-.157.476-.297.476H6.5a.5.5 0 0 0 0 1h8.203c.715 0 1.297-.662 1.297-1.476V3.42C16 2.557 15.49 2 14.7 2Z"/><path d="M2.018 12.735a.495.495 0 0 0 .697.12L8.046 9.09l5.219 3.664a.5.5 0 0 0 .574-.818L8.913 8.478l4.945-3.493a.5.5 0 0 0-.576-.817L8.044 7.867 2.695 4.112a.499.499 0 1 0-.574.818l5.055 3.549-5.039 3.558a.5.5 0 0 0-.12.696Z"/></svg>