<!-- SPDX-FileCopyrightText: © 2025 Schneider Electric SPDX-License-Identifier: LicenseRef-Proprietary -->
<svg xmlns="http://www.w3.org/2000/svg" viewBox="0 0 16 16"><path d="M13 .902V.5a.5.5 0 0 0-.5-.5h-3a.5.5 0 0 0-.5.5v.401c-1.991.181-3 .681-3 1.489V13.5q0 .032.004.064c-.16 1.073-1.027 1.073-1.332 1.073-.565 0-.965-.128-1.221-.391-.513-.524-.487-1.605-.462-2.65q.01-.34.011-.663V9.499q0-.029-.003-.056L3 9.386a.5.5 0 0 0-.5-.5c-1.059 0-1.499-1.046-1.499-1.607v-1.28H4v1.5a.5.5 0 0 0 1 0V5.788c0-.687-.455-.789-.726-.789H4v-1.5a.5.5 0 0 0-1 0v1.5H2v-1.5a.5.5 0 0 0-1 0v1.5H.812c-.463 0-.812.329-.812.765V7.28c.001.942.64 2.291 2 2.559v1.094q-.001.312-.01.639c-.029 1.194-.061 2.548.746 3.374.448.459 1.1.691 1.937.691 1.476 0 2.357-.913 2.357-2.443a.5.5 0 0 0-.03-.172v-.204c2.833 1.319 5.154.976 6.641.42a.5.5 0 1 0-.35-.938c-1.377.517-3.571.817-6.293-.599v-1.175c.805.386 1.771.644 2.838.757.445.047.88.068 1.292.057a8.6 8.6 0 0 0 2.446-.41.5.5 0 1 0-.301-.953 7.6 7.6 0 0 1-2.171.363 9 9 0 0 1-1.161-.051c-1.163-.123-2.176-.433-2.946-.896V8.242c.915.428 2.091.596 2.816.661q.69.064 1.274.052a9.7 9.7 0 0 0 2.423-.332.5.5 0 0 0 .356-.61.497.497 0 0 0-.61-.357 8.6 8.6 0 0 1-2.186.3c-.387.007-.775-.012-1.168-.048-1.328-.119-2.374-.414-2.909-.817V5.962c.771.337 1.866.492 2.794.561.412.03.828.051 1.258.048a11 11 0 0 0 2.4-.257.5.5 0 0 0-.209-.978c-.637.136-1.255.228-2.199.235-.409.011-.791-.017-1.176-.045-1.84-.138-2.734-.522-2.865-.732l-.006-.009-.003-2.336c.072-.11.665-.45 2.396-.573l.157-.012a.5.5 0 0 0 .461-.499v-.363h2v.344c0 .25.185.462.433.496l.354.047c1.606.134 2.16.458 2.214.503v10.844c0 .416-.238.779-.709 1.08-1.307.834-3.932.929-5.511.196a.5.5 0 0 0-.421.908c.84.389 1.912.579 2.981.579 1.312 0 2.62-.286 3.488-.841.766-.489 1.171-1.154 1.171-1.923V2.39c0-.809-1.018-1.31-3-1.488Z"/></svg>