<!-- SPDX-FileCopyrightText: undefined SPDX-License-Identifier: undefined -->
<svg xmlns="http://www.w3.org/2000/svg" viewBox="0 0 16 16"><path d="M5.5 16a.5.5 0 0 1 0-1h1.205c.14 0 .296-.203.296-.474V9.5a.5.5 0 0 1 1 0v5.026c0 .812-.581 1.473-1.295 1.473H5.502s0 0 0 0Zm5.435 0c-.345 0-1.469-.147-1.469-2.035V8H7.633c-1.217 0-1.649-.836-1.649-1.551S6.601 5 7.633 5h6.747c1.011 0 1.614.588 1.614 1.574 0 .71-.5 1.426-1.614 1.426h-2.413a.5.5 0 0 1 0-1h2.413q.613 0 .614-.426c0-.381-.095-.574-.614-.574H7.633c-.486 0-.649.308-.649.449 0 .489.347.551.649.551h2.333a.5.5 0 0 1 .5.5v6.465c0 .473.081 1.035.469 1.035.172 0 .531 0 .531-1.035V9.5a.5.5 0 0 1 1 0v4.465c0 1.771-.959 2.035-1.531 2.035Zm-9.64 0C.581 16 0 15.341 0 14.53V3.47C0 2.687.662 2 1.416 2h.06c-.022-.52-.007-1.196.402-1.628C2.038.203 2.33 0 2.806 0H5.06c.346 0 .648.122.874.351.418.426.471 1.107.472 1.649h.299C7.419 2 8 2.676 8 3.506a.5.5 0 0 1-1 0C7 3.221 6.841 3 6.705 3h-.803a.5.5 0 0 1-.5-.492v-.25c.007-.326.019-1.004-.181-1.207C5.203 1.033 5.17 1 5.06 1H2.806c-.146 0-.187.042-.202.059-.17.18-.137.774-.12 1.093.008.137.014.26.012.356a.5.5 0 0 1-.5.492h-.581c-.165 0-.416.21-.416.47v11.06c0 .269.156.47.295.47h1.205s0 0 0 0a.5.5 0 0 1 0 1z"/></svg>