<!-- SPDX-FileCopyrightText: © 2025 Schneider Electric SPDX-License-Identifier: LicenseRef-Proprietary -->
<svg xmlns="http://www.w3.org/2000/svg" viewBox="0 0 16 16"><path d="M10.741 13.472c-.356-.355-.618-1.55-.85-2.604-.462-2.096-1.033-4.682-3.048-5.45-.207-.482-.683-.808-1.229-.808s-1.026.327-1.232.812c-1.95.761-2.39 3.261-2.749 5.301-.204 1.156-.416 2.353-.811 2.749l-.675.675a.5.5 0 0 0 .707.707l.675-.675c.618-.619.836-1.854 1.091-3.297.341-1.937.728-4.132 2.305-4.589a.5.5 0 0 0 .354-.399c.055-.327.614-.33.669 0 .032.19.17.346.356.398 1.658.471 2.186 2.866 2.61 4.791.27 1.229.507 2.307.965 2.917H5.186a.5.5 0 0 0-.485.38c-.075.305-.359.62-.703.62s-.627-.315-.703-.621a.5.5 0 0 0-.971.242C2.523 15.42 3.227 16 3.997 16c.643 0 1.239-.403 1.534-1h5.529a.5.5 0 0 0 .354-.854l-.675-.675ZM15.982.927a.5.5 0 0 0-.611-.354c-.271.07-.655.073-.764-.029-.29-.27-.97-.901-2.284-.281l-.244.115a.5.5 0 0 0-.281.53l.779 4.956c-.29.033-.582.119-.859.257-1.06.528-1.563 1.599-1.146 2.439.27.541.845.834 1.504.834.364 0 .754-.09 1.132-.278q.406-.202.706-.511a.5.5 0 0 0-.717-.697q-.183.188-.435.313c-.587.292-1.153.178-1.295-.106-.142-.285.11-.807.696-1.099.298-.148.627-.203.899-.144a.5.5 0 0 0 .446-.128.5.5 0 0 0 .149-.439l-.814-5.18c.63-.267.86-.055 1.081.151.585.544 1.591.292 1.705.262a.5.5 0 0 0 .351-.611Z"/></svg>