<!-- SPDX-FileCopyrightText: Copyright © 2024 BitPay. All rights reserved. SPDX-License-Identifier: LicenseRef-Proprietary -->
<svg xmlns="http://www.w3.org/2000/svg" version="1.1" viewBox="0 0 113 75"><path fill="#2a3f90" fill-rule="evenodd" d="M4.006 0A4.01 4.01 0 0 0 0 4.006v66.988A4.01 4.01 0 0 0 4.006 75h104.988A4.01 4.01 0 0 0 113 70.994V4.006A4.01 4.01 0 0 0 108.994 0ZM22.34 24.023l-1.924 8.19a6.3 6.3 0 0 1 1.234-.432c.404-.12.856-.168 1.33-.168.998 0 1.876.193 2.612.553s1.33.84 1.828 1.465a6.6 6.6 0 0 1 1.068 2.16q.357 1.225.358 2.666a10.7 10.7 0 0 1-.809 4.154c-.546 1.297-1.257 2.45-2.183 3.41a10.2 10.2 0 0 1-3.278 2.282 10 10 0 0 1-4.084.842c-.19 0-.523 0-.998-.024-.475 0-1.02-.048-1.613-.144a21 21 0 0 1-1.924-.385 9.6 9.6 0 0 1-1.924-.697l5.438-23.102zm12.18 2.498h4.677l-.71 3.051h-4.678zm12.228 0-1.234 5.043h5.343l-.974 3.987h-5.319l-1.423 6.004c-.12.48-.215.96-.239 1.392-.023.433.024.817.166 1.13.143.335.404.577.737.745.356.168.83.264 1.424.264q.782 0 1.496-.145c.308-.048.642-.12.974-.24l-.974 4.108c-.072.024-.189.048-.26.072-.76.168-1.663.264-2.684.264-1.472 0-2.636-.216-3.443-.672s-1.402-1.058-1.734-1.827c-.333-.792-.5-1.657-.452-2.666s.19-2.065.452-3.17l3.158-13.496zm40.652 5.02h4.774l-.926 3.986-1.426 6.004c-.118.48-.212.96-.236 1.393-.024.432.023.817.166 1.129.142.336.404.576.736.744.356.168.83.266 1.424.266q.784 0 1.496-.145c.261-.048.522-.121.783-.193l.381-1.584L97.28 31.59h4.678l-.643 2.617-3.228 13.736c-.309 1.393-.712 2.57-1.234 3.578-.523.985-1.164 1.826-1.924 2.499-.784.672-1.686 1.152-2.754 1.488-1.069.312-2.304.48-3.729.48-.76 0-1.449-.047-2.066-.119l.926-3.916c.475.072.998.098 1.568.098 1.33 0 2.327-.314 3.016-.914.665-.6 1.09-1.368 1.304-2.328-.023 0-.07.023-.093.023-.76.168-1.663.264-2.684.264-1.472 0-2.636-.216-3.443-.672-.808-.456-1.4-1.058-1.733-1.826-.332-.793-.498-1.656-.45-2.664s.189-2.066.45-3.17zm-9.972.023h7.242l-2.303 9.895a11 11 0 0 0-.262 3.627c.12 1.225.594 3.073 1.045 4.01h-4.51c-.546-.937-.522-1.394-.641-1.682a8.5 8.5 0 0 1-1.947 1.201c-.713.312-1.496.48-2.399.48-1.044 0-1.947-.192-2.683-.552a5.1 5.1 0 0 1-1.828-1.488c-.475-.625-.808-1.345-1.022-2.186-.214-.84-.308-1.729-.308-2.69 0-1.464.26-2.833.76-4.13q.783-1.946 2.136-3.387c.902-.96 3.111-3.098 6.72-3.098zm-44.096.026h4.654L33.88 49.12H29.2zm20.184.023h6.246c1.187 0 2.208.193 3.039.553.855.36 1.543.864 2.113 1.488a6.05 6.05 0 0 1 1.211 2.21c.285.816.404 1.705.404 2.665 0 1.561-.26 2.979-.76 4.276a9.8 9.8 0 0 1-2.113 3.338c-.902.936-1.972 1.657-3.23 2.185s-2.612.793-4.084.793c-.713 0-1.424-.073-2.16-.193l-1.426 5.787h-4.678zm-31.77 3.963a4 4 0 0 0-1.068.143c-.475.096-.88.337-1.26.674l-2.041 8.716c.617.096.806.121.973.121.118-.024.309-.025.546-.025.737 0 1.424-.168 2.065-.553a5.7 5.7 0 0 0 1.687-1.44c.475-.6.854-1.296 1.116-2.04a7.4 7.4 0 0 0 .404-2.379q-.001-1.513-.5-2.377c-.332-.576-1.02-.84-1.922-.84zm35.617 0-2.302 9.51c.356.096.805.12 1.328.12.83 0 1.567-.144 2.256-.456a5.2 5.2 0 0 0 1.734-1.297c.475-.552.83-1.226 1.115-1.994a8 8 0 0 0 .404-2.57c0-.913-.19-1.704-.593-2.328-.404-.649-1.093-.985-2.09-.985zm21.703 0c-2.184 0-2.588-.001-3.49.455-.64.336-1.164.842-1.615 1.418a6.8 6.8 0 0 0-1.092 2.018 7.4 7.4 0 0 0-.404 2.377c0 1.008.165 1.825.498 2.426.332.6.951.888 1.853.888.475 0 .925-.097 1.305-.289s.807-.504 1.234-.96q.072-.793.215-1.657c.095-.576.214-1.13.309-1.61z" baseline-shift="baseline" display="inline" overflow="visible" stop-color="#000" stop-opacity="1" vector-effect="none"/><path fill="#fff" d="m22.34 24.023-4.87.77-5.437 23.102a9.6 9.6 0 0 0 1.924.697c.665.168 1.306.289 1.924.385a10 10 0 0 0 1.613.144c.475.024.808.024.998.024 1.472 0 2.826-.29 4.084-.842a10.2 10.2 0 0 0 3.278-2.282c.926-.96 1.637-2.113 2.183-3.41.546-1.32.809-2.689.809-4.154q0-1.441-.358-2.666a6.6 6.6 0 0 0-1.068-2.16 5.2 5.2 0 0 0-1.828-1.465c-.736-.36-1.614-.553-2.612-.553-.474 0-.926.048-1.33.168a6.3 6.3 0 0 0-1.234.432zm12.18 2.498-.711 3.051h4.677l.711-3.05zm12.228 0-4.986.793-3.158 13.497a17.3 17.3 0 0 0-.452 3.17c-.047 1.008.12 1.873.452 2.665.332.769.927 1.37 1.734 1.827s1.971.672 3.443.672c1.021 0 1.924-.096 2.684-.264.071-.024.188-.048.26-.072l.974-4.108c-.332.12-.666.192-.974.24a7.5 7.5 0 0 1-1.496.145c-.594 0-1.068-.096-1.424-.264-.333-.168-.594-.41-.737-.746-.142-.312-.19-.696-.166-1.129.024-.432.12-.912.239-1.392l1.423-6.004h5.319l.974-3.987h-5.343zm40.652 5.02-2.16 9.223a17.3 17.3 0 0 0-.45 3.17c-.048 1.008.118 1.871.45 2.664.333.768.925 1.37 1.733 1.826.807.456 1.97.672 3.443.672 1.021 0 1.924-.096 2.684-.264.023 0 .07-.023.093-.023-.213.96-.64 1.727-1.304 2.328-.689.6-1.686.914-3.016.914-.57 0-1.093-.026-1.568-.098l-.926 3.916c.617.072 1.306.12 2.066.12 1.425 0 2.66-.169 3.729-.481 1.068-.336 1.97-.816 2.754-1.488.76-.673 1.401-1.514 1.924-2.499.522-1.008.925-2.185 1.234-3.578l3.228-13.736.643-2.617h-4.678l-2.707 11.55-.38 1.585c-.262.072-.523.145-.784.193a7.5 7.5 0 0 1-1.496.144c-.594 0-1.068-.097-1.424-.265-.332-.168-.594-.408-.736-.744-.143-.312-.19-.697-.166-1.13.024-.431.118-.911.236-1.392l1.426-6.004.926-3.986zm-9.972.023c-3.61 0-5.819 2.137-6.721 3.098q-1.353 1.44-2.137 3.387a11.4 11.4 0 0 0-.76 4.13c0 .961.095 1.85.31 2.69.213.84.546 1.561 1.02 2.186a5.1 5.1 0 0 0 1.829 1.488c.736.36 1.639.553 2.683.553.903 0 1.686-.169 2.399-.48a8.5 8.5 0 0 0 1.947-1.202c.119.288.095.745.64 1.682h4.512c-.45-.937-.926-2.785-1.045-4.01-.118-1.2-.023-2.426.262-3.627l2.303-9.895zm-44.096.026-4.13 17.531h4.677l4.107-17.531zm20.184.023-5.438 23.102h4.678l1.426-5.787c.736.12 1.447.193 2.16.193 1.472 0 2.825-.265 4.084-.793s2.328-1.249 3.23-2.185a9.8 9.8 0 0 0 2.114-3.338c.498-1.297.76-2.715.76-4.276 0-.96-.12-1.85-.405-2.666a6 6 0 0 0-1.21-2.209 5.9 5.9 0 0 0-2.114-1.488c-.831-.36-1.852-.553-3.04-.553zm-31.77 3.963c.902 0 1.59.264 1.922.84q.499.864.5 2.377c0 .816-.143 1.61-.404 2.379a7.1 7.1 0 0 1-1.116 2.04 5.7 5.7 0 0 1-1.687 1.44 3.9 3.9 0 0 1-2.065.553c-.237 0-.428.001-.546.025-.167 0-.356-.025-.973-.12l2.041-8.717c.38-.337.785-.578 1.26-.674a4 4 0 0 1 1.068-.143zm35.617 0h1.852c.997 0 1.686.336 2.09.985.403.624.593 1.415.593 2.328 0 .936-.143 1.801-.404 2.57-.285.768-.64 1.442-1.115 1.994a5.2 5.2 0 0 1-1.734 1.297c-.69.312-1.425.455-2.256.455-.523 0-.972-.023-1.328-.12zm21.703 0-1.187 5.067c-.095.48-.214 1.033-.309 1.609a23 23 0 0 0-.215 1.656c-.427.457-.854.769-1.234.961s-.83.29-1.305.29c-.902 0-1.52-.29-1.853-.89s-.498-1.417-.498-2.425c0-.817.143-1.609.404-2.377a6.8 6.8 0 0 1 1.092-2.018c.451-.576.974-1.082 1.615-1.418.902-.456 1.306-.455 3.49-.455z" baseline-shift="baseline" display="inline" overflow="visible" stop-color="#000" stop-opacity="1" vector-effect="none"/></svg>