<!-- SPDX-FileCopyrightText: Copyright © 2024 BitPay. All rights reserved. SPDX-License-Identifier: LicenseRef-Proprietary -->
<svg xmlns="http://www.w3.org/2000/svg" version="1.1" viewBox="0 0 113 75"><path d="M4.006 0A4.006 4.006 0 0 0 0 4.006v66.988A4.007 4.007 0 0 0 4.006 75h104.988A4.006 4.006 0 0 0 113 70.994V4.006A4.007 4.007 0 0 0 108.994 0Zm0 2h104.988c.558 0 1.054.223 1.418.588.365.365.588.86.588 1.418v66.988c0 .559-.223 1.054-.588 1.418-.365.365-.86.588-1.418.588H4.006a2 2 0 0 1-1.418-.588A2 2 0 0 1 2 70.994V4.006c0-.559.223-1.054.588-1.418.365-.365.86-.588 1.418-.588Z"/><path d="m23.11 21.605-4.76.764-5.317 22.986a9.3 9.3 0 0 0 1.881.694c.65.167 1.277.287 1.88.383a10 10 0 0 0 1.579.142c.464.024.789.024.975.024 1.44 0 2.763-.287 3.994-.836a10 10 0 0 0 3.203-2.27c.905-.956 1.603-2.102 2.137-3.392a10.8 10.8 0 0 0 .789-4.135q0-1.434-.348-2.652a6.6 6.6 0 0 0-1.045-2.15 5.1 5.1 0 0 0-1.789-1.458c-.72-.358-1.578-.55-2.553-.55a4.5 4.5 0 0 0-1.3.167c-.418.096-.79.239-1.207.43zm11.91 2.485-.696 3.035h4.572l.698-3.035zm11.957 0-4.875.789-3.088 13.428a17.5 17.5 0 0 0-.442 3.154c-.046 1.004.117 1.864.442 2.652.325.765.906 1.363 1.695 1.817.79.454 1.926.668 3.365.668.999 0 1.88-.095 2.623-.262.07-.024.186-.048.256-.072l.953-4.086a5 5 0 0 1-.953.238 7.2 7.2 0 0 1-1.463.145c-.58 0-1.044-.097-1.392-.264-.325-.167-.58-.406-.72-.74-.138-.311-.186-.693-.163-1.123s.116-.91.232-1.387l1.393-5.973h5.201l.953-3.967H45.77zm39.748 4.994L84.61 38.26a17.5 17.5 0 0 0-.44 3.152c-.046 1.004.115 1.864.44 2.652.325.765.906 1.363 1.696 1.817s1.927.67 3.367.67c.998 0 1.88-.097 2.623-.264.023 0 .07-.023.094-.023-.21.955-.628 1.72-1.278 2.318-.673.597-1.649.908-2.949.908-.557 0-1.067-.024-1.531-.095l-.906 3.894c.603.072 1.276.12 2.02.12 1.392 0 2.6-.169 3.646-.48 1.044-.334 1.925-.81 2.691-1.48.743-.669 1.37-1.506 1.88-2.486.512-1.004.906-2.173 1.208-3.559l3.158-13.668.627-2.605h-4.574l-2.647 11.494-.37 1.576c-.256.072-.511.144-.766.192a7.2 7.2 0 0 1-1.463.142c-.58 0-1.045-.094-1.393-.262-.325-.167-.581-.405-.72-.74-.14-.31-.186-.693-.163-1.123.024-.43.117-.909.233-1.387l1.392-5.972.907-3.967zm-9.752.023c-3.53 0-5.688 2.127-6.57 3.082q-1.323 1.435-2.089 3.37a11.5 11.5 0 0 0-.744 4.109c0 .956.094 1.841.303 2.678.209.836.534 1.552.998 2.174A5 5 0 0 0 70.658 46c.72.358 1.602.55 2.623.55a5.65 5.65 0 0 0 2.346-.478 8.3 8.3 0 0 0 1.904-1.195c.116.287.093.742.627 1.674h4.41c-.44-.932-.905-2.772-1.021-3.99a11.2 11.2 0 0 1 .256-3.61l2.252-9.844zm-43.114.024-4.04 17.443h4.574l4.017-17.443zm19.735.023-5.317 22.987h4.575l1.392-5.758c.72.12 1.417.191 2.113.191 1.44 0 2.762-.263 3.993-.789s2.276-1.242 3.158-2.174a9.8 9.8 0 0 0 2.066-3.322c.488-1.29.742-2.699.742-4.252 0-.956-.116-1.84-.394-2.652a6.05 6.05 0 0 0-1.184-2.2 5.8 5.8 0 0 0-2.066-1.48c-.813-.358-1.812-.55-2.973-.55zm-31.065 3.944c.883 0 1.556.262 1.881.836q.487.86.486 2.365c0 .812-.139 1.602-.394 2.367a7 7 0 0 1-1.092 2.03 5.6 5.6 0 0 1-1.648 1.433c-.627.382-1.3.55-2.02.55-.232 0-.417 0-.533.024-.163 0-.35-.023-.953-.119l1.998-8.674c.371-.334.766-.574 1.23-.67.465-.12.767-.142 1.045-.142zm34.826 0h1.811c.975 0 1.648.335 2.043.98.395.621.58 1.409.58 2.317 0 .931-.14 1.792-.394 2.556-.28.765-.628 1.435-1.092 1.985a5.05 5.05 0 0 1-1.694 1.289c-.673.31-1.394.455-2.207.455-.51 0-.95-.024-1.298-.12zm21.221 0-1.162 5.04c-.093.479-.208 1.029-.3 1.602a23 23 0 0 0-.21 1.649c-.418.454-.835.766-1.207.957a2.8 2.8 0 0 1-1.277.285c-.882 0-1.486-.286-1.81-.883-.326-.597-.489-1.41-.489-2.414 0-.812.14-1.6.395-2.365a6.8 6.8 0 0 1 1.068-2.008c.441-.574.951-1.076 1.578-1.41.882-.454 1.278-.453 3.414-.453z" baseline-shift="baseline" display="inline" overflow="visible" stop-color="#000" stop-opacity="1" vector-effect="none"/></svg>