<!-- SPDX-FileCopyrightText: © 2025 Schneider Electric SPDX-License-Identifier: LicenseRef-Proprietary -->
<svg xmlns="http://www.w3.org/2000/svg" viewBox="0 0 16 16"><path d="M15.998 1.289A1.29 1.29 0 0 0 14.709 0h-3.42A1.29 1.29 0 0 0 10 1.289v.745a1.3 1.3 0 0 0-.29-.033H6.288c-.296 0-.569.101-.787.269a1.28 1.28 0 0 0-.785-.269H1.288A1.29 1.29 0 0 0 0 3.289v8.212a.5.5 0 0 0 1 0V3.288C1 3.129 1.129 3 1.288 3h3.428c.157 0 .284.127.284.284V11.5a.5.5 0 0 0 1 0V3.288C6 3.129 6.129 3 6.288 3H9.71c.157 0 .284.129.284.289q0 .037.005.074v1.138a.5.5 0 0 0 1 0V1.289A.29.29 0 0 1 11.288 1h3.42a.29.29 0 0 1 .289.289l.002 10.423a.29.29 0 0 1-.288.288h-4.214a.5.5 0 0 0-.5.5l.002 2.212a.29.29 0 0 1-.288.288H6.288a.29.29 0 0 1-.289-.289V13.25a.5.5 0 0 0-1 0v1.422l-.001.039A.29.29 0 0 1 4.71 15H1.288A.29.29 0 0 1 1 14.711V13.5a.5.5 0 0 0-1 0v1.211A1.29 1.29 0 0 0 1.289 16h3.422c.297 0 .571-.102.789-.271.218.169.492.271.789.271h3.424c.344 0 .668-.135.911-.378s.377-.567.377-.911V13h3.712a1.29 1.29 0 0 0 1.288-1.288z"/><path d="M3.5 5a.5.5 0 0 0 0-1h-1a.5.5 0 0 0 0 1zm10-2a.5.5 0 0 0 0-1h-1a.5.5 0 0 0 0 1zm-3 3a.5.5 0 0 0-.5.5V8H8.5a.5.5 0 0 0 0 1H10v1.5a.5.5 0 0 0 1 0V9h1.5a.5.5 0 0 0 0-1H11V6.5a.5.5 0 0 0-.5-.5Zm-2-2h-1a.5.5 0 0 0 0 1h1a.5.5 0 0 0 0-1Z"/></svg>