<!-- SPDX-FileCopyrightText: © 2025 Schneider Electric SPDX-License-Identifier: LicenseRef-Proprietary -->
<svg xmlns="http://www.w3.org/2000/svg" viewBox="0 0 16 16"><path d="m6.32 8.091.677-.69.678.69a.5.5 0 0 0 .714-.7L7.354 6.336a.516.516 0 0 0-.714 0L5.606 7.391a.5.5 0 0 0 .714.7Z"/><path d="M14.5 1h-13a.5.5 0 0 0-.5.5v1.803a1.845 1.845 0 0 0 3.191 1.263 1.84 1.84 0 0 0 2.69-.001 1.84 1.84 0 0 0 2.691.001 1.847 1.847 0 0 0 3.191-1.263.5.5 0 0 0-1 0 .847.847 0 0 1-1.691 0 .5.5 0 0 0-1 0 .847.847 0 0 1-1.691 0 .5.5 0 0 0-1 0 .845.845 0 1 1-1.69 0 .5.5 0 0 0-1 0 .845.845 0 1 1-1.691 0V2h12v12H1.5a.5.5 0 0 0 0 1h13a.5.5 0 0 0 .5-.5v-13a.5.5 0 0 0-.5-.5Z"/></svg>