<!-- SPDX-FileCopyrightText: © 2025 Schneider Electric SPDX-License-Identifier: LicenseRef-Proprietary -->
<svg xmlns="http://www.w3.org/2000/svg" viewBox="0 0 16 16"><path d="M15.558 1.037c-.193-.022-4.764-.51-7.922 2.858a.5.5 0 0 0-.136.342v8.821c-1.927-1.313-5.305-2-6.5-2.211V2.003c2.404.01 4.267.885 5.193 1.429a.5.5 0 0 0 .506-.863C5.618 1.934 3.39.885.479 1.013a.5.5 0 0 0-.479.5v9.759a.5.5 0 0 0 .426.494c1.569.235 5.919 1.18 7.188 2.708l.01.012a.52.52 0 0 0 .36.172h.017q.046 0 .09-.008h.002a.5.5 0 0 0 .241-.119q0 0 0 0a.5.5 0 0 0 .166-.354V4.439c2.261-2.288 5.351-2.464 6.5-2.432v9.081c-2.301.185-4.115 1.1-5.343 1.718l-.221.111a.501.501 0 0 0 .447.895l.224-.112c1.308-.659 3.099-1.562 5.409-1.64a.5.5 0 0 0 .483-.5V1.534a.5.5 0 0 0-.442-.497Z"/></svg>