<!-- SPDX-FileCopyrightText: © 2025 Schneider Electric SPDX-License-Identifier: LicenseRef-Proprietary -->
<svg xmlns="http://www.w3.org/2000/svg" viewBox="0 0 16 16"><path d="M11.921 4H8.663a.5.5 0 0 0-.108-.08L5.79 2.41a.5.5 0 0 0-.297-.058.5.5 0 0 0-.236.029l-3.968 1.51a.5.5 0 0 0-.306.593L1 8.598c0 .166.084.321.223.414l1.628 1.087a.5.5 0 1 0 .554-.832l-1.407-.939-.012-3.002 1.042.735a.501.501 0 0 0 .576-.818l-1.072-.755 2.932-1.116 2.535 1.384v3.529l-3 1.483.002-2.943 1.854-.819a.5.5 0 0 0-.405-.915l-2.04.901-.052.027A.5.5 0 0 0 4 6.498l-.003 4a.5.5 0 0 0 .5.5h0a.5.5 0 0 0 .173-.03.54.54 0 0 0 .26-.051l3.789-1.874a.5.5 0 0 0 .278-.448V4.998h2.921a1.08 1.08 0 0 1 1.079 1.079v3.632a.29.29 0 0 1-.29.289h-1.21a.5.5 0 0 0-.5.5v4.492l-1 .005v-3.497a.5.5 0 0 0-1 0v4a.5.5 0 0 0 .5.5H9.5l2-.011a.5.5 0 0 0 .497-.5v-4.489h.71c.711 0 1.29-.578 1.29-1.289V6.077a2.08 2.08 0 0 0-2.079-2.079ZM10.5 3c.827 0 1.5-.673 1.5-1.5S11.327 0 10.5 0 9 .673 9 1.5 9.673 3 10.5 3Zm0-2a.5.5 0 1 1 0 1 .5.5 0 0 1 0-1Z"/></svg>