<!-- SPDX-FileCopyrightText: © 2025 Schneider Electric SPDX-License-Identifier: LicenseRef-Proprietary -->
<svg xmlns="http://www.w3.org/2000/svg" viewBox="0 0 16 16"><path d="m15.649 8.963-5.156-1.617q.133-.22.229-.457c.557-1.375.051-2.84-.377-3.823-.251-.577-.026-1.786.175-2.413a.502.502 0 0 0-.709-.596c-.243.128-.579.266-.964.424-1.983.819-5.302 2.19-4.769 5.396.27 1.623 1.67 2.256 2.374 2.365a.5.5 0 0 0 .575-.457c.151-2.013 1.689-3.997 1.705-4.017a.5.5 0 0 0-.786-.618c-.064.082-1.453 1.867-1.834 3.936-.399-.191-.916-.586-1.046-1.374-.372-2.234 1.853-3.353 4.164-4.307l.095-.039c-.111.652-.164 1.482.104 2.099.357.817.783 2.022.368 3.047-.275.68-.909 1.228-1.884 1.628a.5.5 0 0 0 .38.925q.898-.37 1.498-.895l4.25 1.334-1.673.696-2.76-.93a.5.5 0 1 0-.319.947l1.289.435-2.842.676-1.093-1.977a.5.5 0 0 0-.267-.228L.67 7.06a.5.5 0 0 0-.616.697l1.035 2.042-.065 3.415a.5.5 0 0 0 .33.479l3.954 1.431a.5.5 0 0 0 .34-.94l-3.617-1.31.061-3.182a.5.5 0 0 0-.054-.236L1.517 8.43l4.34 1.573 1.057 1.91a.5.5 0 0 0 .077.274v3.312a.5.5 0 0 0 .638.48l5.006-1.438a.5.5 0 0 0 .362-.48v-3.039l2.695-1.121a.502.502 0 0 0-.043-.939Zm-3.652 4.723-4.006 1.15v-2.538l4.006-.952z"/></svg>