<!-- SPDX-FileCopyrightText: © 2025 Schneider Electric SPDX-License-Identifier: LicenseRef-Proprietary -->
<svg xmlns="http://www.w3.org/2000/svg" viewBox="0 0 16 16"><path d="M13.992 13.074a.5.5 0 0 0-.659-.258L8.36 14.994 3 11.973V3.298l4.218-2.186 5.08 2.522L8.275 5.66A.5.5 0 0 0 8 6.107v7.261a.5.5 0 0 0 1 0V6.415L13 4.4v1.59l-2.778 1.314a.5.5 0 1 0 .428.904l3.064-1.45A.5.5 0 0 0 14 6.306V3.672a.5.5 0 0 0-.278-.448L7.436.104a.5.5 0 0 0-.452.004L2.27 2.55a.5.5 0 0 0-.27.444v9.272a.5.5 0 0 0 .254.436l5.833 3.286a.5.5 0 0 0 .447.022l5.201-2.277a.5.5 0 0 0 .257-.658Z"/><path d="m13.081 10.318-2.808 1.324a.5.5 0 0 0 .427.904l2.808-1.324a.501.501 0 0 0-.427-.905Zm.712-2.003a.5.5 0 0 0-.67-.227l-2.858 1.413a.5.5 0 1 0 .443.896l2.858-1.413a.5.5 0 0 0 .227-.67Z"/></svg>