<!-- SPDX-FileCopyrightText: © 2025 Schneider Electric SPDX-License-Identifier: LicenseRef-Proprietary -->
<svg xmlns="http://www.w3.org/2000/svg" viewBox="0 0 16 16"><path d="M15.564 1.41a1.38 1.38 0 0 0-.986-.41h-.003l-13.043.024C.687 1.024 0 1.711 0 2.556V4.5a.5.5 0 0 0 1 0V2.556c0-.293.239-.532.533-.532L14.577 2a.43.43 0 0 1 .278.116.4.4 0 0 1 .115.282c-.003.681-.009 1.235-.014 1.603H2.5a.5.5 0 0 0-.5.5v10c0 .276.276.5.553.5H13.5a.5.5 0 0 0 .5-.5V6.5a.5.5 0 0 0-1 0V14H3V5h12.45a.5.5 0 0 0 .5-.492s.014-.834.021-2.105a1.4 1.4 0 0 0-.407-.993Z"/><path d="M10.5 8a.5.5 0 0 0 .5-.5v-.524C11 6 9.932 6 9.225 6H6.586c-.514-.005-.951-.008-1.266.305q-.29.29-.289.795L5 7.919q0 .483.286.766c.289.285.683.317 1.108.317l.186-.001H9.5A.502.502 0 0 0 9.5 8H6.569c-.205.004-.515.007-.57-.062l.031-.819c0-.05.003-.083.001-.098.104-.025.357-.025.546-.022h2.646c.236 0 .61 0 .775.045V7.5a.5.5 0 0 0 .5.5Z"/></svg>