<!-- SPDX-FileCopyrightText: © 2025 Schneider Electric SPDX-License-Identifier: LicenseRef-Proprietary -->
<svg xmlns="http://www.w3.org/2000/svg" viewBox="0 0 16 16"><path d="M.5 9.266a.5.5 0 0 0 .5-.5V3.691l2.948 2.067.054.062.006 1a.5.5 0 0 0 .5.497h.003a.5.5 0 0 0 .497-.503l-.006-1.078 3.314-1.344a.5.5 0 1 0-.376-.926L4.443 4.884l-2.82-1.978L6.75.943l3.251 2.329V4.5c-.001.276.222.5.499.5h0a.5.5 0 0 0 .5-.5V3.015a.5.5 0 0 0-.208-.407L7.113-.026a.5.5 0 0 0-.47-.06L.387 2.31a.5.5 0 0 0-.317.405.5.5 0 0 0-.07.255v5.796a.5.5 0 0 0 .5.5Z"/><path d="m15.946 11.503-.083-.174c-2.17-4.639-5.758-5.621-8.405-5.621h-.049a.5.5 0 0 0 .002 1h.002c3.313-.021 5.837 1.594 7.418 4.784-.861.442-1.516.973-2.152 1.488-.911.738-1.772 1.436-3.167 1.761-5.15 1.203-7.803-2.103-8.433-3.031.935-1.583 2.697-2.191 3.868-2.425a3.2 3.2 0 0 0-.392 1.538c0 1.75 1.395 3.174 3.109 3.174s3.108-1.424 3.108-3.174a3.19 3.19 0 0 0-1.585-2.766.5.5 0 1 0-.498.868 2.19 2.19 0 0 1 1.083 1.899c0 1.198-.946 2.174-2.108 2.174s-2.109-.976-2.109-2.174c0-.691.325-1.349.869-1.758.216-.163.247-.492.091-.713-.094-.134-.211-.203-.414-.211-.179.002-4.392.082-6.049 3.362a.5.5 0 0 0 .012.473c.026.046 2.354 4.023 7.315 4.022.729 0 1.516-.086 2.359-.282 1.619-.378 2.61-1.182 3.569-1.959.695-.562 1.414-1.145 2.391-1.57a.5.5 0 0 0 .247-.684Z"/></svg>