<!-- SPDX-FileCopyrightText: © 2025 Schneider Electric SPDX-License-Identifier: LicenseRef-Proprietary -->
<svg xmlns="http://www.w3.org/2000/svg" viewBox="0 0 16 16"><path d="M15.849 4.879a.5.5 0 0 0-.619-.063V1.29a.5.5 0 0 0-.412-.492L13.284.522a.5.5 0 0 0-.55.301l-.756 1.826-1.364 1.29v-2.85l.677.111a.5.5 0 0 0 .162-.986L10.196.007A.5.5 0 0 0 9.615.5v4.383L5.718 8.568l-.665-.114a.5.5 0 0 0-.542.292l-.724 1.649-.816.772a.5.5 0 0 0-.02.707.5.5 0 0 0 .707.02l.881-.833a.5.5 0 0 0 .127-.18l.604-1.374.499.085v3.419l-.418.363-3.445-.589.105-.107a.5.5 0 0 0 .142-.349V8.974l1.077.184a.5.5 0 1 0 .169-.985l-1.662-.284a.5.5 0 0 0-.585.492v3.745l-.623.639a.5.5 0 0 0-.09.124q0 0 0 0a.5.5 0 0 0-.03.384.5.5 0 0 0 .397.339l.347.059v1.041a.5.5 0 0 0 1 0v-.87l2.078.355v1.304a.5.5 0 0 0 1 0v-1.132l.181.031q.01 0 .02.003a.5.5 0 0 0 .392-.114l.005-.005.768-.666a.5.5 0 0 0 .172-.378V9.171a.5.5 0 0 0-.035-.185l3.716-3.515.018-.017 2.269-2.145a.5.5 0 0 0 .13-.19l.639-1.542.726.13v3.726l-.944-.162q-.01 0-.02-.003l-1.35-.231a.5.5 0 1 0-.169.985l.943.162v1.42a.5.5 0 0 0 1 0v-1.25l.949.163.045.006a.48.48 0 0 0 .407-.154l.765-.785a.5.5 0 0 0-.009-.707Z"/></svg>