<!-- SPDX-FileCopyrightText: © 2025 Schneider Electric SPDX-License-Identifier: LicenseRef-Proprietary -->
<svg xmlns="http://www.w3.org/2000/svg" viewBox="0 0 16 16"><path d="M15.511 10.008zl-.9.003c-1.049 0-2.024.494-2.696 1.384l-2.017 3.078c-.28.335-.679.527-1.096.527-.747 0-1.366-.603-1.461-1.38l.39-.109a.5.5 0 0 0-.269-.963l-2.433.682v-1.686l1.744-.551a.5.5 0 1 0-.294-.955l-.452.139V7.21l1.686-.404a.5.5 0 1 0-.233-.973l-2.07.497a.5.5 0 0 0-.383.486v3.671l-.661.227a.5.5 0 0 0-.338.473v1.723l-2.994-2.452V1.782l3.659-.752 2.515 1.554-2.786.608a.5.5 0 0 0-.394.488v1.834a.5.5 0 0 0 1 0V4.082l2.994-.653v1.578a.5.5 0 0 0 .143.35l.856.875V9.63l-.661.228a.5.5 0 0 0-.337.473v1.184a.5.5 0 0 0 1 0v-.827l.661-.228a.5.5 0 0 0 .337-.473V6.029a.5.5 0 0 0-.143-.35l-.856-.875v-1.99l-.002-.048a.5.5 0 0 0-.104-.264h0s0 0 0 0a.5.5 0 0 0-.081-.082q0 0 0 0l-.058-.04L5.048.075a.5.5 0 0 0-.363-.064L.529.864a.5.5 0 0 0-.496.5v9.164a.5.5 0 0 0 .161.534l3.947 3.232a.5.5 0 0 0 .452.095l1.777-.498c.216 1.199 1.224 2.108 2.431 2.108.714 0 1.394-.323 1.898-.933l2.032-3.097c.461-.61 1.146-.96 1.88-.96l.902-.003a.5.5 0 0 0-.001-1Z"/></svg>