<!-- SPDX-FileCopyrightText: © 2025 Schneider Electric SPDX-License-Identifier: LicenseRef-Proprietary -->
<svg xmlns="http://www.w3.org/2000/svg" viewBox="0 0 16 16"><path d="M7.424 5.367a.5.5 0 1 0-.572-.82c-2.23 1.556-3.535 3.75-4.108 4.907-.393-.461-.969-1.065-1.6-1.493a.5.5 0 0 0-.56.828c.98.663 1.862 1.897 1.871 1.909a.5.5 0 0 0 .875-.111c.012-.032 1.264-3.244 4.096-5.219Z"/><path d="m14.857 6.456-.858-.875V2.845a.5.5 0 0 0-.235-.449L10.028.075a.5.5 0 0 0-.36-.066L5.418.85a.52.52 0 0 0-.297.173.5.5 0 0 0-.115.328v2.061a.5.5 0 0 0 1 0V1.753l3.663-.725 2.509 1.559-2.711.571a.5.5 0 0 0-.468.499v2.369a.5.5 0 0 0 1 0V4.068L13 3.437v2.348c0 .131.052.257.143.35l.858.875v4.212l-.658.228a.5.5 0 0 0-.337.47l-.014 2.385-2.969.567v-1.878l.611-.145a.5.5 0 0 0 .093-.031l1.132-.284a.5.5 0 1 0-.244-.97l-.595.15V8.068l1.41-.34a.5.5 0 1 0-.235-.973l-1.771.427a.5.5 0 0 0-.366.357.5.5 0 0 0-.038.192v4.234l-.611.145a.5.5 0 0 0-.386.486v1.942l-3.017-2.505v-1.217a.5.5 0 0 0-1 0v1.451a.5.5 0 0 0 .181.385l3.892 3.231a.5.5 0 0 0 .319.115q.032.001.062-.004a.5.5 0 0 0 .301-.057l3.856-.737a.5.5 0 0 0 .373-.671l.013-2.252.66-.229a.5.5 0 0 0 .337-.473V6.803a.5.5 0 0 0-.143-.35Z"/></svg>