<!-- SPDX-FileCopyrightText: © 2025 Schneider Electric SPDX-License-Identifier: LicenseRef-Proprietary -->
<svg xmlns="http://www.w3.org/2000/svg" viewBox="0 0 16 16"><path d="m14.845 6.456-.857-.875V2.845a.5.5 0 0 0-.236-.449L10.016.075a.5.5 0 0 0-.361-.066L5.405.85a.5.5 0 0 0-.128.042h0a.5.5 0 0 0-.283.46v2.061a.5.5 0 0 0 1 0V1.754l3.663-.725 2.509 1.559-2.713.571a.5.5 0 0 0-.466.499v2.369a.5.5 0 0 0 1 0V4.069l3.001-.631v2.348a.5.5 0 0 0 .143.35l.857.875v4.212l-.659.228a.5.5 0 0 0-.337.47l-.013 2.385-2.969.567v-1.878l.612-.145a.5.5 0 0 0 .093-.031l1.131-.284a.5.5 0 0 0 .363-.607.504.504 0 0 0-.607-.363l-.594.15V8.069l1.41-.34a.5.5 0 1 0-.235-.973l-1.771.427a.5.5 0 0 0-.366.357.5.5 0 0 0-.038.192v4.234l-.612.145a.5.5 0 0 0-.386.486v1.941l-3.017-2.504v-1.217a.5.5 0 0 0-1 0v1.451a.5.5 0 0 0 .181.385l3.892 3.231a.5.5 0 0 0 .319.115q.032.001.062-.004a.5.5 0 0 0 .301-.057l3.857-.737a.5.5 0 0 0 .372-.672l.013-2.251.661-.229a.5.5 0 0 0 .337-.473V6.804a.5.5 0 0 0-.143-.35Z"/></svg>