<!-- SPDX-FileCopyrightText: © 2025 Schneider Electric SPDX-License-Identifier: LicenseRef-Proprietary -->
<svg xmlns="http://www.w3.org/2000/svg" data-name="Final" viewBox="0 0 16 16"><path d="M1.049 4.954a3.69 3.69 0 0 0 3.686-3.686.5.5 0 0 0-1 0 2.69 2.69 0 0 1-2.686 2.686.5.5 0 0 0 0 1Z"/><path d="M7.076 1.268a.5.5 0 0 0-1 0A5.03 5.03 0 0 1 1.05 6.294a.5.5 0 0 0 0 1 6.033 6.033 0 0 0 6.026-6.026Z"/><path d="M14.857 6.456 14 5.581V2.503l-.001-.039a.5.5 0 0 0-.261-.404L10.213.065a.5.5 0 0 0-.366-.05L8.004.47a.5.5 0 0 0 .239.971l1.65-.407 2.271 1.285-2.776.694a.5.5 0 0 0-.375.375.5.5 0 0 0-.013.124v2.729a.5.5 0 0 0 1 0v-2.35l3-.75v2.645a.5.5 0 0 0 .143.35l.857.875v4.212l-.663.228a.5.5 0 0 0-.337.473v2.355l-3 .602v-1.742l.604-.207q.024-.004.047-.01l1.108-.304a.5.5 0 0 0-.265-.965l-.495.136V7.987l1.6-.364a.5.5 0 0 0-.222-.975l-1.979.451a.49.49 0 0 0-.385.372.5.5 0 0 0-.014.127v4.484l-.662.227a.5.5 0 0 0-.338.473v1.708l-3-2.456V6.996a.5.5 0 0 0-1 0v5.275a.5.5 0 0 0 .183.387l3.947 3.231a.5.5 0 0 0 .317.113h.026a.44.44 0 0 0 .223-.039l3.781-.759a.5.5 0 0 0 .383-.355.5.5 0 0 0 .139-.346v-2.222l.663-.228a.5.5 0 0 0 .337-.473V6.808a.5.5 0 0 0-.143-.35Z"/></svg>