<!-- SPDX-FileCopyrightText: © 2025 Schneider Electric SPDX-License-Identifier: LicenseRef-Proprietary -->
<svg xmlns="http://www.w3.org/2000/svg" viewBox="0 0 16 16"><path d="M6.918 6.706a.5.5 0 0 0 .682.731 8 8 0 0 1 2.745-1.682.5.5 0 1 0-.339-.941 8.9 8.9 0 0 0-3.089 1.892Zm-1.454-.359a.5.5 0 0 0 .707.001 9.8 9.8 0 0 1 3.573-2.265.5.5 0 1 0-.339-.941 10.8 10.8 0 0 0-3.939 2.497.5.5 0 0 0-.002.707Zm2.962 1.464a.5.5 0 1 0 .647.763 6.1 6.1 0 0 1 1.894-1.098.5.5 0 1 0-.339-.941 7.1 7.1 0 0 0-2.202 1.276Zm-4.835-.79a.5.5 0 1 0-.601.799L11 13.847V15.5a.5.5 0 0 0 1 0v-1.903a.5.5 0 0 0-.199-.399zm10.113-2.858.655-.655a.5.5 0 0 0-.707-.707l-.163.163V.5a.5.5 0 0 0-1 0v2.449l-.148-.148a.5.5 0 0 0-.707.707l.655.655-.655.656a.5.5 0 0 0 .707.707l.656-.655.655.655a.5.5 0 0 0 .708 0 .5.5 0 0 0 0-.707zm-9.128.515c-.005-.276-.213-.46-.51-.49l-.876.019A12.8 12.8 0 0 1 8.126.971a.5.5 0 1 0-.34-.94c-2 .723-3.805 1.903-5.275 3.439l-.016-.789c-.005-.276-.212-.466-.51-.49a.5.5 0 0 0-.49.51l.042 2.04c.006.272.229.49.5.49h.01l2.04-.042a.5.5 0 0 0 .49-.51Z"/></svg>