<!-- SPDX-FileCopyrightText: © 2025 Schneider Electric SPDX-License-Identifier: LicenseRef-Proprietary -->
<svg xmlns="http://www.w3.org/2000/svg" viewBox="0 0 16 16"><path d="M15.825.121a.5.5 0 0 0-.401-.115l-8 1.229A.5.5 0 0 0 7 1.729v2.519L2.381 5.383A.5.5 0 0 0 2 5.868v9.131H.5a.5.5 0 0 0 0 1h2a.5.5 0 0 0 .5-.5V6.261l4.619-1.135A.5.5 0 0 0 8 4.641V2.159l7-1.076V15h-3v-3.5a.5.5 0 0 0-.5-.5h-3a.5.5 0 0 0-.5.5v4a.5.5 0 0 0 1 0V12h2v3.5a.5.5 0 0 0 .5.5h4a.5.5 0 0 0 .5-.5V.5a.5.5 0 0 0-.175-.379Z"/></svg>