<!-- SPDX-FileCopyrightText: © 2025 Schneider Electric SPDX-License-Identifier: LicenseRef-Proprietary -->
<svg xmlns="http://www.w3.org/2000/svg" viewBox="0 0 16 16"><path d="M15.854 4.147A.5.5 0 0 0 15.5 4h-3a.5.5 0 0 0-.5.5v7.762l-1-.029v-1.732a.5.5 0 0 0-.5-.5H9V1.5a.5.5 0 0 0-.5-.5h-4a.5.5 0 0 0-.5.5V6H2.5a.5.5 0 0 0-.5.5V14H.5a.5.5 0 0 0 0 1h2a.5.5 0 0 0 .5-.5V7h1.5a.5.5 0 0 0 .5-.5V2h3v8.5a.5.5 0 0 0 .5.5H10v1.718a.5.5 0 0 0 .485.5l2 .059a.54.54 0 0 0 .363-.142.5.5 0 0 0 .151-.358V5.001h1.998l-.034 9.498a.5.5 0 0 0 .498.502h.002a.5.5 0 0 0 .5-.498l.036-10a.5.5 0 0 0-.146-.355Z"/></svg>