<!-- SPDX-FileCopyrightText: © 2025 Schneider Electric SPDX-License-Identifier: LicenseRef-Proprietary -->
<svg xmlns="http://www.w3.org/2000/svg" viewBox="0 0 16 16"><path d="M15.771 4.938 8.294.129a.5.5 0 0 0-.549.005L.192 5.202a.5.5 0 0 0-.199.563.48.48 0 0 0 .482.352L12.504 6c.276-.003.498-.229.495-.505s-.193-.496-.505-.495l-10.357.101 5.892-3.953 6.97 4.484v9.369l-14 .029V8h1v5.5a.5.5 0 0 0 .5.5h2a.5.5 0 0 0 .5-.5V8h1v5.5a.5.5 0 0 0 .5.5h3a.5.5 0 0 0 .5-.5V8h1v5.5a.5.5 0 0 0 .5.5h2a.5.5 0 0 0 .5-.5v-6a.5.5 0 0 0-1 0V13h-1V7.5a.5.5 0 0 0-.5-.5h-2a.5.5 0 0 0-.5.5V13h-2V7.5a.5.5 0 0 0-.5-.5h-2a.5.5 0 0 0-.5.5V13h-1V7.5a.5.5 0 0 0-.5-.5H.5a.5.5 0 0 0-.5.5v8.031a.5.5 0 0 0 .5.5h0l15-.031a.5.5 0 0 0 .499-.5V5.359a.5.5 0 0 0-.229-.42Z"/></svg>