<!-- SPDX-FileCopyrightText: © 2025 Schneider Electric SPDX-License-Identifier: LicenseRef-Proprietary -->
<svg xmlns="http://www.w3.org/2000/svg" viewBox="0 0 16 16"><path d="M15.418 6.078a.5.5 0 0 0-.706.026L13 7.947V1.5a.5.5 0 0 0-.5-.5h-8a.5.5 0 0 0-.5.5V14h-.001a.5.5 0 0 0 0 1h2.998a.5.5 0 0 0 0-1H5.001V2h7v6.03l-1.833-1.931a.5.5 0 1 0-.725.688l2.663 2.806a.5.5 0 0 0 .735-.008l2.604-2.802a.5.5 0 0 0-.026-.707ZM2 14H.5a.5.5 0 0 0 0 1H2a.5.5 0 0 0 0-1Zm13.491 0h-1.5a.5.5 0 0 0 0 1h1.5a.5.5 0 0 0 0-1Zm-3.499 0H8.994a.5.5 0 0 0 0 1h2.998a.5.5 0 0 0 0-1Z"/></svg>