<!-- SPDX-FileCopyrightText: © 2025 Schneider Electric SPDX-License-Identifier: LicenseRef-Proprietary -->
<svg xmlns="http://www.w3.org/2000/svg" viewBox="0 0 16 16"><path d="M6.977 5.523a.5.5 0 0 0-.5-.5h-1v-1a.5.5 0 0 0-1 0v1h-1a.5.5 0 0 0 0 1h1v1a.5.5 0 0 0 1 0v-1h1a.5.5 0 0 0 .5-.5Zm5.477-.023a.5.5 0 0 0-.5-.5h-3a.5.5 0 0 0 0 1h3a.5.5 0 0 0 .5-.5Z"/><path d="M12.171 1H3.829A2.83 2.83 0 0 0 1 3.828v8.344A2.83 2.83 0 0 0 3.829 15h8.342c.381 0 .751-.075 1.1-.224a.5.5 0 1 0-.39-.92 1.8 1.8 0 0 1-.709.144H3.829A1.83 1.83 0 0 1 2 12.172V3.828A1.83 1.83 0 0 1 3.829 2h8.342A1.83 1.83 0 0 1 14 3.828v8.344c0 .233-.044.461-.13.675a.499.499 0 1 0 .927.373c.134-.333.202-.686.202-1.048V3.828c0-1.56-1.27-2.828-2.829-2.828Z"/><path d="M12.609 10.5a.5.5 0 0 0-.5-.5h-3a.5.5 0 0 0 0 1h3a.5.5 0 0 0 .5-.5Zm-6.04-1.069a.5.5 0 0 0-.707 0l-.675.676-.676-.676a.5.5 0 0 0-.707.707l.675.676-.675.675a.5.5 0 0 0 .707.707l.676-.676.675.676a.5.5 0 0 0 .708 0 .5.5 0 0 0 0-.707l-.675-.675.675-.676a.5.5 0 0 0 0-.707Z"/><circle cx="10.527" cy="9.002" r=".5"/><circle cx="10.504" cy="12.01" r=".5"/></svg>