<!-- SPDX-FileCopyrightText: © 2025 Schneider Electric SPDX-License-Identifier: LicenseRef-Proprietary -->
<svg xmlns="http://www.w3.org/2000/svg" viewBox="0 0 16 16"><path d="M5.195 13.048q-.383 0-.705-.128a3.6 3.6 0 0 1-.68-.365 2 2 0 0 0-.187-.098.4.4 0 0 0-.153-.029.31.31 0 0 0-.251.132.514.514 0 0 0 .089.717q.357.306.866.475.51.171 1.062.171.969 0 1.537-.459t.568-1.232q0-.56-.284-.939-.285-.378-.82-.514.45-.17.701-.539t.259-.862q0-.722-.523-1.155-.522-.434-1.406-.434-.519 0-1.015.175a2.7 2.7 0 0 0-.854.471q-.101.093-.149.183c-.048.09-.047.132-.047.217q0 .187.106.318a.31.31 0 0 0 .251.132q.084 0 .153-.029t.187-.098q.705-.492 1.325-.492.433 0 .68.221.246.22.246.628 0 .875-1.164.875h-.339a.37.37 0 0 0-.302.127.46.46 0 0 0-.106.306q0 .17.106.301a.37.37 0 0 0 .302.132h.484q.594 0 .879.217.285.216.285.667 0 .458-.272.684-.272.225-.833.225Zm4.236-.059q-.518 0-.518.434 0 .45.518.45h2.871q.509 0 .509-.45 0-.434-.509-.434h-.892V8.386a.54.54 0 0 0-.144-.399.52.52 0 0 0-.382-.145.95.95 0 0 0-.484.153l-1.317.816a.43.43 0 0 0-.221.382q0 .187.123.34a.37.37 0 0 0 .301.153.45.45 0 0 0 .213-.068l.815-.501v3.873h-.883Z"/><path d="M13.737 2H12v-.28C12 .875 11.537.023 10.505 0h-.066c-.988.026-1.438.903-1.438 1.72V2h-2v-.28C7 .875 6.537.023 5.505 0h-.066c-.988.026-1.438.903-1.438 1.72v1.324c0 .585 0 1.956 1.566 1.956a.5.5 0 0 0 0-1c-.43 0-.566-.043-.566-.956V1.72c0-.12.023-.712.474-.72.457.007.526.454.526.72v.78a.5.5 0 0 0 .5.5h2.5v.044c0 .585 0 1.956 1.566 1.956a.5.5 0 0 0 0-1c-.431 0-.566-.043-.566-.956V1.72c0-.12.023-.712.474-.72.458.007.526.454.526.72v.78a.5.5 0 0 0 .5.5h2.237c.696 0 1.263.566 1.263 1.263v9.473c0 .697-.567 1.265-1.265 1.265H2.265A1.266 1.266 0 0 1 1 13.736V7.001h11.5a.5.5 0 0 0 0-1H1V4.267c0-.693.564-1.26 1.256-1.265h.247A.5.5 0 0 0 2.5 2.001h-.25A2.27 2.27 0 0 0 0 4.267v9.469a2.267 2.267 0 0 0 2.265 2.265h11.471a2.267 2.267 0 0 0 2.265-2.265V4.263A2.265 2.265 0 0 0 13.738 2Z"/></svg>