<!-- SPDX-FileCopyrightText: © 2025 Schneider Electric SPDX-License-Identifier: LicenseRef-Proprietary -->
<svg xmlns="http://www.w3.org/2000/svg" viewBox="0 0 16 16"><path d="m9.658 8.222-2.834 4.31c-.282-.529-.687-1.142-1.139-1.375a.5.5 0 0 0-.459.889c.297.153.781.999 1.06 1.694a.5.5 0 0 0 .882.089l3.326-5.057a.5.5 0 0 0-.143-.693.5.5 0 0 0-.693.143Z"/><path d="M13.737 2H12v-.28C12 .875 11.537.023 10.505 0h-.066c-.988.026-1.438.903-1.438 1.72V2h-2v-.28C7 .875 6.537.023 5.505 0h-.066c-.988.026-1.438.903-1.438 1.72v1.324c0 .585 0 1.956 1.566 1.956a.5.5 0 0 0 0-1c-.43 0-.566-.043-.566-.956V1.72c0-.12.023-.712.474-.72.457.007.526.454.526.72v.78a.5.5 0 0 0 .5.5h2.5v.044c0 .585 0 1.956 1.566 1.956a.5.5 0 0 0 0-1c-.43 0-.566-.043-.566-.956V1.72c0-.12.023-.712.474-.72.457.007.526.454.526.72v.78a.5.5 0 0 0 .5.5h2.237c.696 0 1.263.566 1.263 1.263v9.473c0 .697-.567 1.265-1.265 1.265H2.265A1.266 1.266 0 0 1 1 13.736V7.001h11.5a.5.5 0 0 0 0-1H1V4.267c0-.693.564-1.26 1.256-1.265h.247A.5.5 0 0 0 2.5 2.001h-.25A2.27 2.27 0 0 0 0 4.267v9.469a2.267 2.267 0 0 0 2.265 2.265h11.471a2.267 2.267 0 0 0 2.265-2.265V4.263A2.265 2.265 0 0 0 13.738 2Z"/></svg>