<!-- SPDX-FileCopyrightText: © 2025 Schneider Electric SPDX-License-Identifier: LicenseRef-Proprietary -->
<svg xmlns="http://www.w3.org/2000/svg" viewBox="0 0 16 16"><path d="M11.508 8.499a.5.5 0 0 0-.497-.478L6.697 8h-.002a.5.5 0 0 0-.002 1l3.828.02c.004 2.237-.649 4.555-1.587 5.535-.282.296-.567.445-.892.445-.467 0-1.306-.855-1.941-2.442-.982-2.453-1.159-5.705.608-7.558h2.59c.545.544.647.828.851 1.747a.5.5 0 0 0 .977-.217c-.229-1.032-.387-1.5-1.125-2.241v-.62a.5.5 0 0 0-1 0v.33h-2v-.241l2.685-1.067a.5.5 0 0 0 .315-.465V.977a.5.5 0 0 0-.336-.472L8.292.028a.5.5 0 0 0-.325-.001L6.559.504a.5.5 0 0 0-.339.474v.523a.5.5 0 0 0 1 0v-.165l.906-.307.875.304v.555L6.316 2.955a.5.5 0 0 0-.314.506l-.001.04v.792c-2.09 2.172-1.935 5.875-.829 8.637.77 1.923 1.843 3.07 2.916 3.07.555 0 1.097-.261 1.568-.754 1.211-1.267 1.973-4.041 1.853-6.747Z"/></svg>