<!-- SPDX-FileCopyrightText: © 2025 Schneider Electric SPDX-License-Identifier: LicenseRef-Proprietary -->
<svg xmlns="http://www.w3.org/2000/svg" viewBox="0 0 16 16"><path d="M1.92 2h-.687a.237.237 0 0 1-.234-.234V.5a.5.5 0 0 0-1 0v1.266C-.001 2.446.553 3 1.233 3h.687a.08.08 0 0 1 .08.08v9.841a.08.08 0 0 1-.08.079h-.687c-.68 0-1.234.554-1.234 1.234V15.5a.5.5 0 0 0 1 0v-1.266c0-.127.107-.234.234-.234h.687C2.515 14 3 13.516 3 12.921V3.08C3 2.485 2.516 2 1.92 2Zm13.717.325a1.22 1.22 0 0 0-.866-.358h-.008l-4.531.029a1.24 1.24 0 0 0-1.231 1.238v8.641c0 .379.134.729.368.96a.9.9 0 0 0 .627.269h.009l.5-.004a.5.5 0 0 0-.004-1h-.004l-.424.025c-.022-.02-.072-.109-.072-.25V3.234c0-.128.108-.237.237-.238l.763-.005v8.541a.5.5 0 0 0 1 0V2.984l2.769-.018a.34.34 0 0 1 .163.067.23.23 0 0 1 .068.163v8.601a.24.24 0 0 1-.237.238l-2.266.015a.5.5 0 0 0 .003 1h.003l2.265-.015a1.24 1.24 0 0 0 1.232-1.238V3.196c0-.33-.129-.639-.363-.872ZM7.1 8.32l-.637.662V5.407a.5.5 0 0 0-1 0v3.528l-.651-.628a.5.5 0 1 0-.694.72l1.025.988c.231.224.534.346.855.346h.024c.331-.006.638-.14.866-.377l.933-.969a.5.5 0 0 0-.721-.694Z"/><path d="M1.172 6.057a.5.5 0 1 0-.275.961.5.5 0 0 0 .275-.961Z"/><circle cx="1.034" cy="4.537" r=".5"/></svg>