<!-- SPDX-FileCopyrightText: © 2025 Schneider Electric SPDX-License-Identifier: LicenseRef-Proprietary -->
<svg xmlns="http://www.w3.org/2000/svg" viewBox="0 0 16 16"><path d="M15.5 6h-2.534a10 10 0 0 0 .006-.352c0-1.185-.409-2.233-1.152-2.951-.695-.671-1.644-1.015-2.671-.983a3.33 3.33 0 0 0-2.663 1.507 3.33 3.33 0 0 0-2.663-1.507c-1.011-.035-1.976.313-2.67.983C.409 3.415 0 4.463 0 5.648q0 .53.049 1.021c.027.274.266.461.547.449a.5.5 0 0 0 .448-.547A9 9 0 0 1 1 5.649c0-.925.293-1.696.847-2.231.498-.48 1.192-.722 1.941-.704 1.081.038 1.969.792 2.209 1.878a.5.5 0 0 0 .976 0c.241-1.085 1.128-1.84 2.209-1.878.741-.027 1.442.224 1.94.704.555.535.848 1.306.848 2.231q0 .178-.007.352h-2.21a.5.5 0 0 0-.475.343l-.935 2.818-.853-1.868a.5.5 0 0 0-.455-.293H5.671l-.74-2.493a.5.5 0 0 0-.473-.358c-.236.022-.414.138-.482.346L2.841 8.001H1.067a.5.5 0 0 0-.165.028l-.106.037a.5.5 0 0 0-.308.635c1.298 3.77 4.796 5.192 5.837 5.539a.5.5 0 0 0 .316 0c1.062-.354 4.628-1.808 5.886-5.686a.5.5 0 0 0-.951-.309c-1.058 3.261-3.988 4.595-5.092 4.99-1.01-.362-3.572-1.52-4.801-4.235h1.523a.5.5 0 0 0 .476-.346l.75-2.318.388 1.307A.5.5 0 0 0 5.299 8h1.416l1.247 2.734c.086.188.263.315.482.292a.5.5 0 0 0 .447-.342l1.223-3.685h5.384a.5.5 0 0 0 0-1Z"/></svg>