<!-- SPDX-FileCopyrightText: © 2025 Schneider Electric SPDX-License-Identifier: LicenseRef-Proprietary -->
<svg xmlns="http://www.w3.org/2000/svg" viewBox="0 0 16 16"><path d="M9.929 5.726 7.733 4.52a.5.5 0 0 0-.727.558l.576 2.348a3.8 3.8 0 0 0-.506 1.255 3.85 3.85 0 0 0 .516 2.868.5.5 0 0 0 .845-.535 2.85 2.85 0 0 1-.382-2.126c.082-.391.241-.752.472-1.075a.5.5 0 0 0 .08-.41L8.25 5.946l1.377.756c.118.065.258.08.389.039a2.86 2.86 0 0 1 1.437-.065c.42.089.805.264 1.143.521a.5.5 0 0 0 .36.099l1.493-.174-.773 1.099a.5.5 0 0 0-.069.432 2.87 2.87 0 0 1-.28 2.291.5.5 0 0 0 .86.512 3.87 3.87 0 0 0 .442-2.85l1.283-1.822a.5.5 0 0 0 .021-.543.51.51 0 0 0-.487-.241l-2.411.282a3.88 3.88 0 0 0-3.103-.553Z"/><path d="m12.886 9.276-.668-.1a.5.5 0 0 0-.373.093.5.5 0 0 0-.196.33l-.093.643a.5.5 0 0 0 .99.142l.021-.146.171.025a.5.5 0 1 0 .148-.989Z"/><path d="M15.657 12.564c-3.12-1.035-5.16-.697-6.959-.4-.842.14-1.637.271-2.512.271-2.392 0-4.229-1.017-4.914-2.719-.641-1.596-.139-3.451 1.312-4.842 1.02-.978 2.631-1.499 4.31-1.399 1.497.09 2.773.654 3.503 1.547a.5.5 0 1 0 .773-.633c-.905-1.108-2.442-1.805-4.216-1.913-1.956-.114-3.845.508-5.063 1.676C.141 5.831-.452 8.106.345 10.088c.842 2.095 3.026 3.346 5.841 3.346.958 0 1.831-.145 2.676-.285 1.766-.292 3.592-.596 6.481.363a.5.5 0 0 0 .315-.95Z"/><path d="M10.49 10.605a.5.5 0 0 0 .562-.429l.09-.661a.5.5 0 0 0-.423-.562l-1.215-.178a.5.5 0 0 0-.145.989l.725.106-.022.171a.5.5 0 0 0 .428.563Z"/></svg>