<!-- SPDX-FileCopyrightText: © 2025 Schneider Electric SPDX-License-Identifier: LicenseRef-Proprietary -->
<svg xmlns="http://www.w3.org/2000/svg" viewBox="0 0 16 16"><path d="m14.922 9.282-3.865-.183a.494.494 0 0 0-.525.473.5.5 0 0 0 .473.525l3.808.176c.109.02.156.05.163.058.007.015.021.107-.049.296-.172.463-.62.943-.812 1.064l-4.85-.717v-.008c0-.854-.811-1.559-2.017-1.756a4.2 4.2 0 0 0-1.189-.016 3.4 3.4 0 0 0-1.077.325L1.053 6.377c.08-.069.235-.167.476-.235.393-.11.782-.079.99.049l2.716 2.26a.5.5 0 1 0 .64-.768l-.574-.476c.079-.03.155-.045.221-.059l.109-.025A.5.5 0 0 0 6 6.641V1.5a.5.5 0 0 0-1 0v4.754a1.7 1.7 0 0 0-.513.277L3.109 5.386c-.912-.583-2.313-.263-2.863.392-.325.385-.327.861.051 1.267l3.902 3.127a1.37 1.37 0 0 0-.261.794c0 .424.204.81.551 1.114l-2.375 1.427c-.402.229-.779.117-.94-.113-.132-.187-.087-.384.062-.521l1.734-1.047a.501.501 0 0 0-.517-.856L.65 12.066c-.705.607-.656 1.394-.296 1.905.274.39.754.665 1.313.665.3 0 .624-.079.949-.265l2.905-1.744c.403.118.88.171 1.342.141.275-.018.484-.256.467-.531s-.257-.49-.531-.467a3 3 0 0 1-.198.007c-.937 0-1.664-.436-1.664-.81 0-.294.48-.676 1.256-.781.288-.039.611-.033.895.012.737.121 1.177.486 1.177.77a.35.35 0 0 1-.04.158.5.5 0 0 0-.053.252.5.5 0 0 0 .427.51l5.499.812c.711.049 1.757-1.271 1.87-2.134.088-.664-.288-1.153-1.046-1.283Z"/><path d="M7.397 7.132c1.194.25 1.251 1.781 1.253 1.846.008.271.23.487.5.487h.013a.5.5 0 0 0 .487-.509c-.016-.75-.391-2.183-1.65-2.683V1.5a.5.5 0 0 0-1 0v5.143c0 .237.166.441.397.489Z"/></svg>