<!-- SPDX-FileCopyrightText: © 2025 Schneider Electric SPDX-License-Identifier: LicenseRef-Proprietary -->
<svg xmlns="http://www.w3.org/2000/svg" viewBox="0 0 16 16"><path d="M9.486 13.309a5.6 5.6 0 0 1-2.913.009.5.5 0 1 0-.261.965 6.54 6.54 0 0 0 3.442-.01.499.499 0 1 0-.267-.963Zm-1.471-.581q.145 0 .289-.009c.275-.016.486-.252.471-.527s-.254-.497-.527-.471c-.291.016-.583 0-.862-.046a.5.5 0 0 0-.166.986q.389.066.796.066Zm-.319-9.446a.499.499 0 1 0 .056.998c.289-.017.583 0 .863.046a.5.5 0 1 0 .164-.986c-.353-.058-.719-.079-1.083-.058Zm-1.318-.573a.5.5 0 0 0 .134-.018 5.6 5.6 0 0 1 2.916-.008.5.5 0 0 0 .259-.966 6.6 6.6 0 0 0-3.442.01.5.5 0 0 0 .132.982Zm5.707 6.482a.5.5 0 0 0 .574-.412 4.8 4.8 0 0 0 .057-1.083c-.015-.274-.213-.496-.527-.471a.5.5 0 0 0-.471.527q.006.115.006.233-.001.324-.052.631a.5.5 0 0 0 .412.574Zm1.581.85a.5.5 0 0 0 .613-.351 6.54 6.54 0 0 0-.008-3.444.5.5 0 0 0-.965.266 5.56 5.56 0 0 1 .009 2.917.5.5 0 0 0 .352.613ZM3.917 6.808a.497.497 0 0 0-.576.41 5 5 0 0 0-.057 1.089.5.5 0 0 0 .499.469h.031a.5.5 0 0 0 .468-.53 3.8 3.8 0 0 1 .046-.86.5.5 0 0 0-.41-.576Z"/><path d="m15.408 12.173-.305-.304c-.032-.032-2.877-2.473-4.543-2.785.145-.341.221-.709.221-1.084v-.021q.053-.045.104-.096l4.61-4.609c.296-.296.458-.689.458-1.107s-.162-.811-.458-1.106l-.469-.469a2.02 2.02 0 0 0-2.853 0l-.306.306c-.347.347-1.179 1.444-1.817 2.463-.565.903-.891 1.571-.991 2.069a2.6 2.6 0 0 0-1.081-.21 1 1 0 0 0-.096-.104L3.273.506c-.59-.591-1.622-.592-2.213 0L.591.975a2.02 2.02 0 0 0 0 2.852l.306.306c.033.033 2.878 2.47 4.543 2.784-.144.341-.22.709-.22 1.085v.021q-.054.045-.104.096L.505 12.727c-.296.296-.459.688-.459 1.107s.163.811.459 1.106l.469.469c.393.393.909.589 1.426.589s1.033-.196 1.426-.589l.305-.306c.347-.346 1.178-1.443 1.818-2.463 1.036-1.652 1.264-2.52.789-2.995a.5.5 0 0 0-.765.638c.01.662-1.848 3.413-2.55 4.113l-.305.306a1.02 1.02 0 0 1-1.438 0l-.469-.469a.56.56 0 0 1 0-.799l4.61-4.61a.5.5 0 0 1 .14-.101.5.5 0 0 0 .27-.505 1.78 1.78 0 0 1 .429-1.393.5.5 0 0 0-.195-.797l-.286-.111a.5.5 0 0 0-.465.055h-.005c-.671 0-3.409-1.85-4.107-2.548l-.306-.306a1.02 1.02 0 0 1 0-1.438l.469-.469a.577.577 0 0 1 .799 0l4.611 4.61a.6.6 0 0 1 .103.141.5.5 0 0 0 .504.269 1.8 1.8 0 0 1 1.392.43.5.5 0 0 0 .796-.194l.111-.287a.5.5 0 0 0-.055-.466c-.01-.66 1.848-3.411 2.548-4.113l.306-.306a1.02 1.02 0 0 1 1.438 0l.469.47a.565.565 0 0 1 0 .799l-4.612 4.611a.6.6 0 0 1-.138.1.5.5 0 0 0-.271.511q.014.104.014.212c0 .433-.157.85-.444 1.176a.502.502 0 0 0 .197.797l.286.11c.156.06.329.038.464-.056.695.002 3.413 1.848 4.114 2.55l.305.304c.192.192.298.447.298.719s-.105.526-.298.719l-.469.469a.567.567 0 0 1-.8 0l-4.609-4.609a.5.5 0 0 0-.707.707l4.609 4.609c.609.612 1.604.61 2.214 0l.469-.469c.381-.38.591-.887.591-1.426s-.21-1.045-.592-1.427Z"/><path d="M2.332 5.959a.5.5 0 0 0-.613.353 6.6 6.6 0 0 0 .01 3.441.5.5 0 1 0 .963-.266 5.56 5.56 0 0 1-.008-2.916.5.5 0 0 0-.353-.613Z"/></svg>