<!-- SPDX-FileCopyrightText: © 2025 Schneider Electric SPDX-License-Identifier: LicenseRef-Proprietary -->
<svg xmlns="http://www.w3.org/2000/svg" viewBox="0 0 16 16"><path d="M14.331 7H7.739C6.764 7 6 7.704 6 8.602v3.79A1.61 1.61 0 0 0 7.608 14h1.895l1.965 1.88a.499.499 0 1 0 .691-.722l-2.11-2.019A.5.5 0 0 0 9.703 13H7.608A.61.61 0 0 1 7 12.392v-3.79C7 8.259 7.318 8 7.739 8h6.592c.406 0 .669.236.669.602v3.796c0 .326-.366.602-.8.602h-1.7a.5.5 0 0 0 0 1h1.7c.992 0 1.8-.719 1.8-1.602V8.602C16 7.689 15.282 7 14.331 7Z"/><path d="M4.53 9H2.219c-.672 0-1.22-.455-1.22-1.015v-5.97c0-.56.547-1.015 1.22-1.015h8.561c.673 0 1.22.455 1.22 1.015V5.5a.5.5 0 0 0 1 0V2.015C13 .904 12.004 0 10.78 0H2.22C.996 0 0 .904 0 2.015v5.971c0 1.111.996 2.015 2.22 2.015h1.408L2.59 11.658a.5.5 0 1 0 .848.531l1.517-2.423A.5.5 0 0 0 4.531 9Zm3.677 1.128a.653.653 0 0 0 .46 1.114.653.653 0 0 0 .461-1.114.66.66 0 0 0-.461-.191.66.66 0 0 0-.46.191Zm2.333 0a.653.653 0 0 0 .46 1.114.653.653 0 0 0 .461-1.114.654.654 0 0 0-.921 0Zm3.254.921a.653.653 0 0 0 0-.922.66.66 0 0 0-.461-.191.656.656 0 0 0-.652.652.652.652 0 0 0 1.113.461Z"/></svg>