<!-- SPDX-FileCopyrightText: © 2025 Schneider Electric SPDX-License-Identifier: LicenseRef-Proprietary -->
<svg xmlns="http://www.w3.org/2000/svg" viewBox="0 0 16 15.997"><path d="M13.298 0H2.702C1.212 0 0 1.2 0 2.674v7.878c0 1.392.902 2.293 2.299 2.293h4.356l3.036 3.011a.5.5 0 0 0 .705-.71l-3.183-3.155a.5.5 0 0 0-.352-.145H2.299c-.593 0-1.299-.225-1.299-1.293V2.674C1 1.751 1.764 1 2.703 1h10.595C14.236 1 15 1.751 15 2.674v7.92c0 1.161-1.294 1.251-1.69 1.251H10.5a.5.5 0 0 0 0 1h2.81c1.635 0 2.69-.884 2.69-2.251v-7.92C16 1.2 14.788 0 13.298 0Z"/><path d="M2.002 6.5a.5.5 0 0 0 .5.5h11a.5.5 0 0 0 0-1h-11a.5.5 0 0 0-.5.5Zm8.5-2.5a.5.5 0 0 0 0-1h-5a.5.5 0 0 0 0 1zm-6 6h.005l7-.078c.275-.003.497-.229.494-.506s-.27-.508-.506-.494l-7 .078a.5.5 0 0 0 .005 1Z"/></svg>