<!-- SPDX-FileCopyrightText: © 2025 Schneider Electric SPDX-License-Identifier: LicenseRef-Proprietary -->
<svg xmlns="http://www.w3.org/2000/svg" viewBox="0 0 16 16"><path d="M14.389 3.183a.5.5 0 0 0-.639-.138l-.038.023a26 26 0 0 0-2.399 1.796c-1.162.979-2.609 2.197-3.879 4.181-.319.498-.611 1.02-.87 1.557-.452-.54-1.149-1.29-1.918-1.81a.499.499 0 1 0-.56.828c1.148.776 2.177 2.217 2.187 2.231a.5.5 0 0 0 .464.208.5.5 0 0 0 .406-.306 14 14 0 0 1 1.134-2.17c1.188-1.855 2.57-3.02 3.682-3.955a26 26 0 0 1 1.906-1.456 6.94 6.94 0 0 1 1.137 3.827c0 3.859-3.141 7-7 7S1 11.859 1 8s3.14-7 7-7c1.471 0 2.878.451 4.069 1.304a.501.501 0 0 0 .582-.814A7.95 7.95 0 0 0 8 0C3.589 0 0 3.589 0 8s3.589 8 8 8 8-3.589 8-8c0-1.754-.558-3.42-1.611-4.817Z"/></svg>