<!-- SPDX-FileCopyrightText: © 2025 Schneider Electric SPDX-License-Identifier: LicenseRef-Proprietary -->
<svg xmlns="http://www.w3.org/2000/svg" viewBox="0 0 16 16"><path d="M10.5 10a.5.5 0 0 0 .5-.5V6h2.5a.5.5 0 0 0 .5-.5v-5a.5.5 0 0 0-.5-.5h-2a.5.5 0 0 0-.5.5V2h-1V.5a.5.5 0 0 0-.5-.5h-2a.5.5 0 0 0-.5.5V2H6V.5a.5.5 0 0 0-.5-.5h-2a.5.5 0 0 0-.5.5v5a.5.5 0 0 0 .5.5H5v1.5a.5.5 0 0 0 1 0v-2a.5.5 0 0 0-.5-.5H4V1h1v1.5a.5.5 0 0 0 .5.5h2a.5.5 0 0 0 .5-.5V1h1v1.5a.5.5 0 0 0 .5.5h2a.5.5 0 0 0 .5-.5V1h1v4h-2.5a.5.5 0 0 0-.5.5V9H5.237a.5.5 0 0 0-.465.316l-.79 2a.5.5 0 0 0 .465.684h6.765l.395 1H3.5a.5.5 0 0 0-.386.182l-1 1.211a.5.5 0 0 0-.114.318v.789a.5.5 0 0 0 .5.5h11a.5.5 0 0 0 .5-.5v-1a.5.5 0 0 0-1 0v.5H3v-.109L3.735 14h8.607a.5.5 0 0 0 .465-.684l-.79-2a.5.5 0 0 0-.465-.316H5.181l.395-1z"/></svg>