<!-- SPDX-FileCopyrightText: © 2025 Schneider Electric SPDX-License-Identifier: LicenseRef-Proprietary -->
<svg xmlns="http://www.w3.org/2000/svg" viewBox="0 0 16 16"><path d="m15.46 9.653-4.724-5.196C10.691 4.397 9.617 3 7.993 3c-1.611 0-2.684 1.397-2.7 1.422L.584 9.609c-.058.05-.563.504-.584 1.252-.016.579.258 1.144.816 1.679.441.422.925.635 1.442.635l.082-.002c.896-.039 1.509-.707 1.552-.759 4.417-4.381 4.436-4.401 4.442-4.408a.5.5 0 0 0-.717-.697l-4.453 4.42c-.004.004-.393.424-.868.444-.271.025-.526-.104-.789-.356-.234-.225-.513-.566-.508-.918.004-.316.238-.533.28-.574l4.782-5.264C6.069 5.05 6.886 4 8.005 4 9.113 4 9.93 5.05 9.966 5.095l4.792 5.27s.236.219.241.535c.004.352-.274.693-.509.918-.26.25-.517.382-.781.356-.483-.018-.872-.442-.897-.469l-3.05-3.031a.5.5 0 0 0-.705.709l3.027 3.007c.067.076.68.745 1.577.783.542.017 1.059-.189 1.521-.633.558-.535.832-1.1.816-1.679a1.76 1.76 0 0 0-.54-1.208Z"/></svg>