<!-- SPDX-FileCopyrightText: © 2025 Schneider Electric SPDX-License-Identifier: LicenseRef-Proprietary -->
<svg xmlns="http://www.w3.org/2000/svg" viewBox="0 0 16 16"><path d="m.738 9.229 7.133-3.854a.27.27 0 0 1 .258 0l7.134 3.854a.497.497 0 0 0 .676-.202.5.5 0 0 0-.202-.678L8.604 4.495a1.27 1.27 0 0 0-1.209 0L.262 8.35a.5.5 0 0 0 .476.88Z"/><path d="M15.737 10.719 8.604 6.864a1.27 1.27 0 0 0-1.209 0L.262 10.719a.5.5 0 1 0 .476.879l7.133-3.854a.27.27 0 0 1 .258 0l7.134 3.854a.495.495 0 0 0 .676-.202.5.5 0 0 0-.202-.677Z"/></svg>