<!-- SPDX-FileCopyrightText: © 2025 Schneider Electric SPDX-License-Identifier: LicenseRef-Proprietary -->
<svg xmlns="http://www.w3.org/2000/svg" viewBox="0 0 16 16"><path d="M7.643 9.343h.001a.4.4 0 0 0 .079.066h.004v.002h0s0 0 0 0h0s0 0 0 0h0s0 0 0 0h.002a.5.5 0 0 0 .392.055h.001s0 0 0 0h.003s0 0 0 0h.002s0 0 0 0h.002s0 0 0 0h.002s0 0 0 0h.003a.5.5 0 0 0 .098-.044h.004q0 0 0 0h0s0 0 0 0h.001s0 0 0 0h0s0 0 0 0h0s0 0 0 0h.003s0 0 0 0h0s0 0 0 0h0s0 0 0 0h.001V9.42h.001c.007.002 0 0 .001 0h0s0 0 0 0h0s0 0 0 0h0s0 0 0 0h0s0 0 0 0h0s0 0 0 0q0 0 0 0h0s0 0 0 0h0s0 0 0 0h0s0 0 0 0q0 0 0 0h0s0 0 0 0h0s0 0 0 0h0s0 0 0 0h.001l.001-.002h0s0 0 0 0h.001v-.002h0s0 0 0 0h0s0 0 0 0h.001q0 0 0 0h0s0 0 0 0h0s0 0 0 0h0s0 0 0 0h0s.001 0 0 0h.001v-.002h.001s0 0 0 0h0s0 0 0 0 0 0 0 0h.001s0 0 0 0h0s0 0 0 0 0 0 0 0h0s0 0 0 0 0 0 0 0l.026-.023a.5.5 0 0 0 .075-.096q0 0 0 0v-.002h0v-.002h0v-.002q0 0 0 0h0v-.002s0 0 0 0q0 0 0 0v-.002q0 0 0 0t0 0 0 0h0v-.002h0c.003-.01 0-.002 0-.002h0s0 0 0 0h0v-.002h0s0 0 0 0h0v-.002h0v-.002s0 0 0 0q.002.002 0 0 0 0 0 0h0v-.002q0 0 0 0 0 .002 0 0h0v-.002q0 0 0 0t0 0h0v-.002h0v-.002h0v-.002h0v-.002h0v-.002h0s0 0 0 0h0s0 0 0 0h0v-.002h0v-.002q0 0 0 0t0 0h0v-.002h0s0 0 0 0h0v-.002h0v-.002s0 0 0 0q0 0 0 0t0 0h0v-.002h0v-.003h0s0 0 0 0v-.002s0 0 0 0q0 0 0 0h0v-.002h0V9.24s0 0 0 0h0v-.002q0 0 0 0h0v-.002h0v-.004s0 0 0 0V9.23h0v-.003h0v-.002h0v-.002q0-.002 0 0h0v-.002q0-.002 0 0h0v-.002q0 0 0 0h0v-.002q0 0 0 0v-.002h0v-.003q0 0 0 0t0-.002h0v-.002h0v-.002h0v-.002h0v-.002h0V9.2h0v-.002h0v-.002h0v-.002h0v-.002h0V9.19h0v-.002h0v-.002h0v-.002h0v-.002h0V9.18h0v-.002h0v-.002s0 0 0 0h0v-.002h0v-.002s0 0 0 0h0V9.17h0v-.002s0 0 0 0h0v-.004h0v-.003s0 0 0 0v-.002s0 0 0 0v-.002s0 0 0 0a.5.5 0 0 0-.138-.435l-4.877-5.15-.055-.047-.171-.173a.5.5 0 1 0-.71.704zM8 3.495c.963 0 1.747-.784 1.747-1.748S8.963-.001 8-.001a.5.5 0 0 0 0 1 .748.748 0 1 1-.748.748.5.5 0 0 0-1 0A1.75 1.75 0 0 0 8 3.495Z"/><path d="M11.495 2.127a.5.5 0 1 0-.475.88 6.376 6.376 0 1 1-8.829 2.984.5.5 0 1 0-.911-.413 7.3 7.3 0 0 0-.657 3.046C.623 12.692 3.932 16 7.999 16s7.376-3.309 7.376-7.376a7.37 7.37 0 0 0-3.881-6.497Z"/></svg>