<!-- SPDX-FileCopyrightText: © 2025 Schneider Electric SPDX-License-Identifier: LicenseRef-Proprietary -->
<svg xmlns="http://www.w3.org/2000/svg" viewBox="0 0 16 16"><path d="M4.175 12.483a4.7 4.7 0 0 0-.489-.664 2.1 2.1 0 0 0-.574-.472q.715-.156 1.067-.529t.352-.997q0-.304-.105-.576a1.4 1.4 0 0 0-.77-.793 1.6 1.6 0 0 0-.487-.131 6 6 0 0 0-.65-.032H.682q-.365 0-.529.164c-.164.164-.164.285-.164.529v4.29q0 .339.148.513a.52.52 0 0 0 .418.175.53.53 0 0 0 .407-.167q.156-.167.156-.521V11.48h.396q.3 0 .498.08t.39.297c.192.217.273.355.436.631l.453.753q.16.266.253.403a.8.8 0 0 0 .223.226q.13.09.319.089a.6.6 0 0 0 .281-.063.5.5 0 0 0 .192-.171.4.4 0 0 0 .07-.219q0-.106-.12-.39a5 5 0 0 0-.335-.635Zm-1.957-1.812H1.206V9.138h1.042q.582 0 .78.084.21.087.327.264a.58.58 0 0 1 .118.409q0 .297-.146.466a.8.8 0 0 1-.424.24 2.8 2.8 0 0 1-.685.07Zm7.214 2.392H6.8v-1.586h2.343q.262 0 .388-.12c.126-.12.126-.183.126-.31s-.042-.229-.127-.306-.214-.116-.386-.116H6.801V9.256h2.545q.27 0 .401-.12a.4.4 0 0 0 .131-.318.4.4 0 0 0-.131-.314q-.13-.12-.401-.12H6.364a.95.95 0 0 0-.394.07.45.45 0 0 0-.226.224.94.94 0 0 0-.072.398v4.192q0 .365.162.529t.531.164h3.07q.266 0 .401-.124c.135-.124.135-.19.135-.321a.42.42 0 0 0-.135-.329q-.135-.124-.401-.124Zm6.413-1.308a.48.48 0 0 0-.346-.141q-.236 0-.342.139a1.2 1.2 0 0 0-.179.359q-.17.468-.508.709-.336.242-.823.242-.448 0-.784-.213c-.336-.213-.396-.357-.517-.645s-.183-.648-.183-1.082q0-.974.413-1.502c.413-.528.645-.529 1.109-.529q.438 0 .736.205.299.206.519.62.133.25.242.354.108.102.325.103.194 0 .331-.148a.5.5 0 0 0 .137-.342q0-.354-.281-.751t-.81-.668a2.6 2.6 0 0 0-1.206-.27q-.555 0-1.046.198a2.5 2.5 0 0 0-.856.576q-.364.378-.561.911c-.197.533-.196.757-.196 1.206q0 .415.078.784c.078.369.13.477.234.694q.155.325.377.588.248.29.542.466t.656.261c.362.084.508.084.803.084q.582 0 1.019-.186.438-.186.719-.485a2.1 2.1 0 0 0 .413-.609q.131-.31.131-.576a.47.47 0 0 0-.145-.35ZM7.976 1.943q-.248.004-.482.051a.5.5 0 0 0-.391.59.505.505 0 0 0 .59.391q.143-.03.294-.031c.872.029 1.534.671 1.542 1.515.004.408-.151.793-.438 1.084s-.669.454-1.077.458a1.57 1.57 0 0 1-1.084-.438 1.52 1.52 0 0 1-.458-1.077 1.5 1.5 0 0 1 .09-.532.501.501 0 0 0-.941-.341c-.103.283-.153.58-.15.882.006.675.275 1.308.757 1.781A2.5 2.5 0 0 0 7.998 7h.025a2.5 2.5 0 0 0 1.781-.757c.473-.482.73-1.12.724-1.795-.014-1.394-1.169-2.482-2.553-2.505Z"/></svg>