<!-- SPDX-FileCopyrightText: © 2025 Schneider Electric SPDX-License-Identifier: LicenseRef-Proprietary -->
<svg xmlns="http://www.w3.org/2000/svg" viewBox="0 0 16 16"><path d="M15.56 8.392a.51.51 0 0 0-.556.438 7 7 0 0 1-6.114 6.117c-3.842.476-7.36-2.256-7.836-6.085a6.94 6.94 0 0 1 1.431-5.163 6.98 6.98 0 0 1 4.677-2.644c2.979-.366 5.896 1.266 7.193 3.946H3.5a.5.5 0 0 0-.5.5v5a.5.5 0 0 0 .5.5h9a.5.5 0 0 0 .5-.5v-3a.5.5 0 0 0-1 0v2.5H4v-4h11.096a.47.47 0 0 0 .26-.066.5.5 0 0 0 .218-.615C14.305 1.817 10.714-.395 7.04.062a7.97 7.97 0 0 0-5.343 3.02A7.93 7.93 0 0 0 .062 8.984C.564 13.028 4.031 16 8.021 16q.492 0 .992-.062a7.99 7.99 0 0 0 6.983-6.991.5.5 0 0 0-.437-.556Z"/><path d="M9.541 7.5v1a.5.5 0 0 0 1 0v-1a.5.5 0 0 0-1 0Zm-2 0v1a.5.5 0 0 0 1 0v-1a.5.5 0 0 0-1 0Zm-2 0v1a.5.5 0 0 0 1 0v-1a.5.5 0 0 0-1 0Z"/></svg>