<!-- SPDX-FileCopyrightText: © 2025 Schneider Electric SPDX-License-Identifier: LicenseRef-Proprietary -->
<svg xmlns="http://www.w3.org/2000/svg" viewBox="0 0 16 16"><path d="M8 0a7.93 7.93 0 0 0-4.86 1.645.5.5 0 0 0 .608.794A6.94 6.94 0 0 1 8 1c3.859 0 7 3.14 7 7s-3.141 7-7 7-7-3.141-7-7a6.95 6.95 0 0 1 1.67-4.538.5.5 0 0 0-.761-.649q-.195.23-.373.472A7.94 7.94 0 0 0 0 7.999c0 4.411 3.589 8 8 8s8-3.589 8-8S12.411 0 8 0Z"/><path d="M9.779 10.842c1.506-1.242 1.587-3.483 1.645-5.057.036-.987.739-1.656.744-1.661a.5.5 0 0 0 .123-.562.49.49 0 0 0-.485-.307c-.323.015-.755 0-1.251-.017-2.462-.083-6.593-.226-7.307 2.926-.703 3.101 1.241 4.318 1.325 4.369a.5.5 0 0 0 .469.026.5.5 0 0 0 .284-.375c.505-3.143 3.46-4.007 3.586-4.042a.5.5 0 0 0-.266-.964c-.138.038-3.114.892-4.089 3.932-.332-.505-.639-1.374-.332-2.726.532-2.344 4.003-2.228 6.297-2.147l.334.011c-.216.405-.41.942-.434 1.589-.048 1.305-.119 3.275-1.277 4.231-.658.541-1.637.715-2.91.516a.5.5 0 0 0-.502.23c-.349.562-.608 1.891.901 2.896a.5.5 0 1 0 .555-.832c-.703-.469-.764-.952-.708-1.254 1.378.148 2.49-.116 3.3-.785Z"/></svg>