<!-- SPDX-FileCopyrightText: © 2025 Schneider Electric SPDX-License-Identifier: LicenseRef-Proprietary -->
<svg xmlns="http://www.w3.org/2000/svg" viewBox="0 0 16 16"><path d="m10.528 2.622-.861 1.491a.498.498 0 0 0 .433.75.5.5 0 0 0 .433-.25l.861-1.491a.5.5 0 0 0-.183-.683.5.5 0 0 0-.683.183ZM11.053 8a.5.5 0 0 0 .5.5h2.368a.5.5 0 0 0 0-1h-2.368a.5.5 0 0 0-.5.5Zm.067-1.801a.5.5 0 0 0 .683.183l1.575-.909a.5.5 0 0 0-.5-.866l-1.575.909a.5.5 0 0 0-.183.683Z"/><path d="M14.39 3.185a.5.5 0 1 0-.799.603A6.94 6.94 0 0 1 15 8c0 3.859-3.141 7-7 7s-7-3.141-7-7 3.14-7 7-7c.888 0 1.753.164 2.57.487a.498.498 0 1 0 .367-.929A8 8 0 0 0 7.999.001C3.589 0 0 3.589 0 8s3.589 8 8 8 8-3.589 8-8a7.94 7.94 0 0 0-1.61-4.815Z"/><path d="M3.122 4.606a.499.499 0 1 0-.5.866l.563.325a.504.504 0 0 0 .684-.183.5.5 0 0 0-.183-.683l-.563-.325ZM7.5 2.079v1.554a.5.5 0 0 0 1 0V2.079a.5.5 0 0 0-1 0Zm-2.71.36a.5.5 0 0 0-.183.683l.517.896a.502.502 0 0 0 .867-.5l-.517-.896a.5.5 0 0 0-.683-.183Z"/></svg>