<!-- SPDX-FileCopyrightText: © 2025 Schneider Electric SPDX-License-Identifier: LicenseRef-Proprietary -->
<svg xmlns="http://www.w3.org/2000/svg" viewBox="0 0 16 16"><path d="M8 8.55a.5.5 0 0 0 .5-.5V.5a.5.5 0 0 0-1 0v7.55a.5.5 0 0 0 .5.5Z"/><path d="M11.724 3.152a.5.5 0 1 0-.535.845 5.94 5.94 0 0 1 2.774 5.04c0 3.288-2.675 5.964-5.963 5.964s-5.963-2.676-5.963-5.964a5.94 5.94 0 0 1 2.774-5.04.5.5 0 0 0-.535-.845 6.94 6.94 0 0 0-3.239 5.884C1.037 12.876 4.161 16 8 16s6.963-3.124 6.963-6.964a6.94 6.94 0 0 0-3.239-5.884Z"/></svg>