<!-- SPDX-FileCopyrightText: © 2025 Schneider Electric SPDX-License-Identifier: LicenseRef-Proprietary -->
<svg xmlns="http://www.w3.org/2000/svg" viewBox="0 0 16 16"><path d="M14.155 1h-4.2a.5.5 0 0 0 0 1h4.044v12H2V2h4.044a.5.5 0 0 0 0-1H1.845A.846.846 0 0 0 1 1.845v12.31c0 .466.379.845.845.845h12.31a.846.846 0 0 0 .845-.845V1.845A.846.846 0 0 0 14.155 1Z"/><path d="m6.563 5.072.678.678-.678.679a.5.5 0 0 0 .707.707l.678-.678.678.678a.5.5 0 0 0 .708 0 .5.5 0 0 0 0-.707l-.678-.679.678-.678a.5.5 0 0 0-.707-.707l-.178.178V3.029a.5.5 0 0 0-1 0v1.514l-.178-.178a.5.5 0 0 0-.707.707Zm1.385 8.399a.5.5 0 0 0 .5-.5v-2.618a.5.5 0 0 0-.134-.341L6.601 8.175a.5.5 0 0 0-.732.682l1.579 1.693v2.421a.5.5 0 0 0 .5.5Z"/></svg>