<!-- SPDX-FileCopyrightText: © 2025 Schneider Electric SPDX-License-Identifier: LicenseRef-Proprietary -->
<svg xmlns="http://www.w3.org/2000/svg" viewBox="0 0 16 16"><path fill="currentColor" d="M13.657 2.343a8.01 8.01 0 0 0-9.606-1.301.5.5 0 0 0 .494.87 7 7 0 0 1 2.956-.891v3.431a.5.5 0 0 0 1 0V1.021a7 7 0 0 1 4.45 2.03 6.95 6.95 0 0 1 2.033 4.45h-3.476a.5.5 0 0 0 0 1h3.476a6.95 6.95 0 0 1-2.033 4.45 6.97 6.97 0 0 1-4.45 2.029v-3.425a.5.5 0 0 0-1 0v3.425a6.98 6.98 0 0 1-4.45-2.029 7 7 0 0 1-2.027-4.45h3.461a.5.5 0 0 0 0-1H1.021a6.96 6.96 0 0 1 1.132-3.352.5.5 0 0 0-.835-.551A7.96 7.96 0 0 0 .005 7.926a.6.6 0 0 0 .001.149 8 8 0 0 0 2.337 5.582 7.97 7.97 0 0 0 5.597 2.339Q7.97 16 8 16c.03 0 .041 0 .06-.004a7.98 7.98 0 0 0 5.597-2.339C15.168 12.145 16 10.136 16 8s-.832-4.146-2.343-5.657Z"/></svg>