<!-- SPDX-FileCopyrightText: © 2025 Schneider Electric SPDX-License-Identifier: LicenseRef-Proprietary -->
<svg xmlns="http://www.w3.org/2000/svg" viewBox="0 0 16 16"><path d="M15.954 7.818s0 0 0 0a.5.5 0 0 0-.071-.112h0v-.001h0l-.021-.023-2.853-2.976a.5.5 0 0 0-.723.692l2.043 2.13-9.352-.01h0a.5.5 0 0 0-.215.048h-.183a.5.5 0 0 0 0 1l9.69.011-2.064 2.115a.5.5 0 0 0 .715.7l2.788-2.857a.5.5 0 0 0 .295-.456v-.04h0v-.002h0v-.013h0v-.002h0V8.02a.5.5 0 0 0-.046-.2Z"/><path d="M9.274 12.536a5.3 5.3 0 0 1-2.928.885C3.398 13.421 1 10.989 1 8.001s2.398-5.422 5.346-5.422a5.3 5.3 0 0 1 2.945.897.5.5 0 0 0 .558-.83A6.3 6.3 0 0 0 6.345 1.58C2.847 1.579 0 4.46 0 8s2.847 6.42 6.346 6.42a6.3 6.3 0 0 0 3.483-1.053.5.5 0 0 0-.554-.832Z"/></svg>