<!-- SPDX-FileCopyrightText: © 2025 Schneider Electric SPDX-License-Identifier: LicenseRef-Proprietary -->
<svg xmlns="http://www.w3.org/2000/svg" viewBox="0 0 16 16"><path d="M14 10.884V7.5a.5.5 0 0 0-.5-.5h-5V5.13l-.007-.083a2.09 2.09 0 0 0 1.593-2.027C10.086 1.87 9.15.934 8 .934a.5.5 0 0 0 0 1 1.087 1.087 0 0 1 0 2.172 1.087 1.087 0 0 1-.857-1.753.5.5 0 0 0-.788-.616 2.09 2.09 0 0 0 1.152 3.311l-.007.083v1.87h-5a.5.5 0 0 0-.5.5v3.766l-.003.059a.5.5 0 0 0 .5.5c.609 0 1.086.478 1.086 1.087a1.087 1.087 0 1 1-1.943-.668.5.5 0 1 0-.789-.615 2.089 2.089 0 0 0 1.646 3.369c1.15 0 2.086-.936 2.086-2.086A2.06 2.06 0 0 0 3 10.885V8.002h4.5v3.324a.5.5 0 0 0 .5.5 1.087 1.087 0 0 1 0 2.173 1.087 1.087 0 0 1-.857-1.754.5.5 0 0 0-.788-.615A2.089 2.089 0 0 0 8 14.999c1.15 0 2.086-.936 2.086-2.086A2.09 2.09 0 0 0 8.5 10.887V8.002H13v3.28q0 .034.005.066a.5.5 0 0 0 .499.478 1.087 1.087 0 1 1-.858.42.5.5 0 0 0-.787-.617c-.289.37-.442.814-.442 1.284 0 1.15.937 2.086 2.087 2.086s2.086-.936 2.086-2.086c0-.979-.679-1.804-1.59-2.027Z"/></svg>