<!-- SPDX-FileCopyrightText: © 2025 Schneider Electric SPDX-License-Identifier: LicenseRef-Proprietary -->
<svg xmlns="http://www.w3.org/2000/svg" viewBox="0 0 16 16"><path d="m15.854 7.588-.053-.046-2.743-2.745a.5.5 0 0 0-.707.707l1.911 1.913H5.251l1.912-1.912a.5.5 0 0 0-.707-.707l-2.811 2.81a.5.5 0 0 0 .051.752l2.747 2.745a.5.5 0 0 0 .708-.707L5.17 8.417h9.149l-1.981 1.981a.5.5 0 0 0 .708.707l2.811-2.811a.5.5 0 0 0 0-.707Z"/><path d="M9.276 12.473a5.36 5.36 0 0 1-2.93.874C3.398 13.347 1 10.949 1 8s2.398-5.347 5.346-5.347a5.35 5.35 0 0 1 2.947.886.5.5 0 0 0 .554-.832 6.37 6.37 0 0 0-3.502-1.054C2.847 1.653 0 4.5 0 8s2.847 6.347 6.346 6.347a6.36 6.36 0 0 0 3.481-1.04.5.5 0 0 0-.55-.834Z"/></svg>