<!-- SPDX-FileCopyrightText: © 2025 Schneider Electric SPDX-License-Identifier: LicenseRef-Proprietary -->
<svg xmlns="http://www.w3.org/2000/svg" viewBox="0 0 16 16"><path d="M9.23 2.194a.501.501 0 0 0-.476.88c.122.066.246.274.246.545v8.814c0 .341-.187.566-.311.566H7.31c-.124 0-.311-.226-.311-.566V3.566a.57.57 0 0 1 .323-.511.5.5 0 1 0-.433-.901c-.541.26-.89.814-.89 1.412v8.867c0 .863.588 1.566 1.311 1.566h1.379c.723 0 1.311-.703 1.311-1.566V3.619c0-.612-.302-1.171-.77-1.425ZM4.5 2a.5.5 0 0 0-.5.5v11a.5.5 0 0 0 1 0v-11a.5.5 0 0 0-.5-.5ZM1.918 6.968a.5.5 0 1 0-.643.765L1.592 8H.5a.5.5 0 0 0 0 1h1.111l-.383.417a.5.5 0 1 0 .736.676L3.21 8.738a.5.5 0 0 0-.046-.721zM11.5 2a.5.5 0 0 0-.5.5v11a.5.5 0 0 0 1 0v-11a.5.5 0 0 0-.5-.5Zm4 6h-1.187l.478-.451a.5.5 0 0 0 .02-.707.5.5 0 0 0-.707-.02l-1.275 1.205a.5.5 0 0 0-.025.701l1.246 1.364a.5.5 0 0 0 .706.032.5.5 0 0 0 .032-.706L14.406 9h1.095a.5.5 0 0 0 0-1Z"/></svg>