<!-- SPDX-FileCopyrightText: © 2025 Schneider Electric SPDX-License-Identifier: LicenseRef-Proprietary -->
<svg xmlns="http://www.w3.org/2000/svg" viewBox="0 0 16 16"><path d="M8.341 10.842c.204.07.429 0 .558-.172l5.554-7.35a.5.5 0 0 0-.03-.639C11.969.001 7.324-1.186 3.192 1.729-.566 4.379-.553 9.48.892 11.993a.5.5 0 1 0 .867-.498C.472 9.258.614 4.771 3.768 2.547c3.503-2.47 7.407-1.629 9.628.513L9 8.877V5.236a.5.5 0 0 0-.5-.5c-2.316 0-4.625 1.666-5.488 3.961-.812 2.161-.167 4.374 1.771 6.072a4.93 4.93 0 0 0 3.293 1.229c.814 0 1.659-.186 2.489-.562 2.166-.981 3.565-2.971 3.565-5.068 0-.898-.217-1.793-.627-2.586a.5.5 0 1 0-.888.46 4.6 4.6 0 0 1 .515 2.126c0 1.706-1.169 3.338-2.978 4.158-1.703.772-3.466.584-4.71-.508-2.201-1.929-1.881-3.94-1.495-4.968.647-1.723 2.332-3.059 4.052-3.281v4.599a.5.5 0 0 0 .341.474Z"/></svg>