<!-- SPDX-FileCopyrightText: © 2025 Schneider Electric SPDX-License-Identifier: LicenseRef-Proprietary -->
<svg xmlns="http://www.w3.org/2000/svg" viewBox="0 0 16 16"><path d="M11.242.733a.5.5 0 0 0-.42.909c2.801 1.293 4.41 4.23 4.006 7.309-.41 3.133-2.992 5.658-6.138 6.006a6.94 6.94 0 0 1-5.468-1.74A7 7 0 0 1 .891 8.001C.891 3.41 3.882 1.226 7 1.017v7.415a.5.5 0 0 0 .826.379l3.787-3.252a.5.5 0 0 0-.652-.759L8 7.343V.5a.5.5 0 0 0-.5-.5C3.835 0-.109 2.503-.109 8c0 2.271.971 4.444 2.664 5.961a7.9 7.9 0 0 0 5.324 2.04q.458 0 .921-.051c3.598-.397 6.55-3.287 7.021-6.869.461-3.516-1.379-6.87-4.578-8.348Z"/></svg>