<!-- SPDX-FileCopyrightText: © 2025 Schneider Electric SPDX-License-Identifier: LicenseRef-Proprietary -->
<svg xmlns="http://www.w3.org/2000/svg" viewBox="0 0 16 16"><path d="M7.625 3.22a.5.5 0 0 0-.276-.651 4 4 0 0 0-5.206 2.214.5.5 0 0 0 .927.376 3.005 3.005 0 0 1 3.904-1.662.5.5 0 0 0 .651-.276Z"/><path d="M.312 4.582a.5.5 0 0 0 .651-.275C2.055 1.605 5.133.296 7.828 1.385a.5.5 0 1 0 .375-.927C4.998-.839 1.334.72.037 3.931a.5.5 0 0 0 .276.651Zm15.316 6.704c-.639-1.133-2.032-1.715-3.28-1.378a4.83 4.83 0 0 0-4.653-3.59 4.82 4.82 0 0 0-4.393 2.858h-.02a3.3 3.3 0 0 0-2.814 1.592c-.618 1.027-.626 2.269-.023 3.405.534 1.007 1.979 1.826 3.223 1.826h1.833a.5.5 0 0 0 0-1H3.668c-.865 0-1.979-.617-2.339-1.295-.435-.819-.436-1.702-.003-2.421a2.26 2.26 0 0 1 1.926-1.109l.351.021a.49.49 0 0 0 .502-.333 3.82 3.82 0 0 1 3.591-2.545 3.825 3.825 0 0 1 3.78 3.325.5.5 0 0 0 .206.341.51.51 0 0 0 .54.04c.866-.46 2.049-.112 2.536.753.358.636.318 1.405-.109 2.112-.352.581-1.368 1.11-2.132 1.11H7.501a.5.5 0 0 0 0 1h5.016c1.115 0 2.456-.715 2.987-1.593.62-1.024.666-2.162.125-3.121ZM5.176 4.692a1.72 1.72 0 0 0-.925.943.501.501 0 0 0 .928.374.7.7 0 0 1 .389-.396.7.7 0 0 1 .554-.005.5.5 0 1 0 .375-.927 1.7 1.7 0 0 0-1.32.012Z"/></svg>