<!-- SPDX-FileCopyrightText: © 2025 Schneider Electric SPDX-License-Identifier: LicenseRef-Proprietary -->
<svg xmlns="http://www.w3.org/2000/svg" viewBox="0 0 16 16"><path d="M12.734 9.374c.02-.386.254-.73.375-.807a.502.502 0 0 0-.124-.902l-6.12-1.839a.5.5 0 0 0-.474.104L2.756 9.128a.5.5 0 1 0 .661.75l3.427-3.014 5.143 1.546a2.2 2.2 0 0 0-.25.916c-.023.467.117.903.4 1.27L7.81 14.929l-5.293-1.76c-.608-.099-.807-.475-.79-.793.015-.275.198-.604.66-.66l5.059 1.452a.49.49 0 0 0 .494-.129l2.542-2.568a.5.5 0 0 0-.711-.703l-2.333 2.357-4.862-1.396a.4.4 0 0 0-.165-.019c-1.05.056-1.641.854-1.682 1.611-.04.75.453 1.644 1.55 1.814l5.508 1.839a.51.51 0 0 0 .512-.121l4.896-4.903a.502.502 0 0 0-.046-.748c-.294-.229-.43-.5-.414-.828Z"/><path d="M15.535 4.835c-.58-.972-1.766-1.715-3.151-1.321-.49-2.145-2.385-3.292-4.18-3.483C6.335-.17 4.149.618 3.277 2.787 1.983 2.769.844 3.504.298 4.77c-.526 1.218-.432 2.938.962 4.035a.5.5 0 0 0 .618-.786C.902 7.25.842 6.033 1.216 5.166c.334-.774 1.116-1.542 2.33-1.355a.505.505 0 0 0 .552-.348c.59-1.917 2.435-2.605 4-2.439 1.448.154 3.205 1.092 3.392 3.229a.5.5 0 0 0 .73.4c1.151-.603 2.042-.001 2.458.694.499.836.52 2.085-.614 2.852a.5.5 0 1 0 .56.828c1.597-1.081 1.668-2.927.912-4.193Z"/></svg>