<!-- SPDX-FileCopyrightText: © 2025 Schneider Electric SPDX-License-Identifier: LicenseRef-Proprietary -->
<svg xmlns="http://www.w3.org/2000/svg" viewBox="0 0 16 16"><path d="M11.31 14.406h1.419q.212 0 .323.087a.29.29 0 0 1 .111.236.3.3 0 0 1-.089.226q-.087.093-.268.093h-1.999q-.204 0-.318-.112c-.114-.112-.114-.164-.114-.266q0-.097.074-.259a1 1 0 0 1 .16-.255q.36-.375.651-.643.291-.267.416-.352.222-.157.371-.316.148-.158.226-.326c.078-.168.077-.221.077-.327a.57.57 0 0 0-.309-.525.65.65 0 0 0-.311-.076.64.64 0 0 0-.56.312 1.3 1.3 0 0 0-.092.223q-.063.182-.144.28c-.081.098-.132.098-.235.098a.3.3 0 0 1-.226-.09.33.33 0 0 1-.089-.244q0-.188.084-.392t.251-.369c.167-.165.253-.2.424-.268q.257-.102.602-.102.416 0 .71.13a1.09 1.09 0 0 1 .638 1.005q0 .337-.167.613t-.341.432c-.174.157-.311.268-.583.49s-.459.396-.561.52a2 2 0 0 0-.134.176ZM6.698 9.734q0 .19-.094.412a1.5 1.5 0 0 1-.808.781 1.8 1.8 0 0 1-.728.134q-.315 0-.574-.061a1.55 1.55 0 0 1-.855-.519q-.158-.187-.269-.42c-.111-.233-.13-.32-.167-.496s-.056-.362-.056-.56q0-.48.14-.861t.401-.651c.261-.27.377-.317.611-.412q.35-.141.747-.141.483 0 .861.193.377.193.579.477t.201.537a.35.35 0 0 1-.098.245.3.3 0 0 1-.237.106q-.155 0-.232-.073a1 1 0 0 1-.173-.253 1.2 1.2 0 0 0-.371-.443.9.9 0 0 0-.526-.146.95.95 0 0 0-.792.377q-.294.378-.295 1.073 0 .465.131.773.13.309.369.46.24.152.56.152a1 1 0 0 0 .588-.172q.24-.172.363-.507a.9.9 0 0 1 .128-.257q.075-.099.244-.099.144 0 .248.101c.104.101.103.15.103.25Zm2.477-2.793q.62 0 1.064.251t.672.715.229 1.088q0 .462-.125.84t-.375.655a1.6 1.6 0 0 1-.614.424 2.2 2.2 0 0 1-.834.147q-.467 0-.836-.152a1.66 1.66 0 0 1-.617-.425 1.8 1.8 0 0 1-.374-.66 2.7 2.7 0 0 1-.126-.834q0-.46.132-.842c.132-.382.215-.473.382-.652q.25-.27.608-.412.359-.143.814-.143Zm1.147 2.048a1.9 1.9 0 0 0-.142-.758 1.06 1.06 0 0 0-.403-.485 1.1 1.1 0 0 0-.603-.164q-.242 0-.446.091a1 1 0 0 0-.353.265 1.3 1.3 0 0 0-.234.444 2 2 0 0 0-.085.607q0 .34.085.614t.242.455a1.02 1.02 0 0 0 .803.36q.31 0 .568-.155.261-.155.414-.479.153-.322.153-.796Zm-.637 4.735a.5.5 0 0 0-.5-.5H3.658A2.66 2.66 0 0 1 1 10.566c0-.948.497-1.803 1.33-2.288a.5.5 0 0 0 .249-.432v-.161a2.7 2.7 0 0 1 2.698-2.698c.389 0 .776.09 1.15.269a.5.5 0 0 0 .688-.288 3.24 3.24 0 0 1 3.056-2.191 3.254 3.254 0 0 1 3.25 3.25c0 .474-.111.946-.332 1.402a.5.5 0 0 0 .26.68 2.65 2.65 0 0 1 1.65 2.458c0 .944-.508 1.825-1.324 2.299a.502.502 0 0 0 .502.866 3.67 3.67 0 0 0 1.822-3.165c0-1.319-.7-2.512-1.819-3.16q.24-.678.24-1.379a4.255 4.255 0 0 0-4.25-4.25 4.24 4.24 0 0 0-3.801 2.383 3.6 3.6 0 0 0-1.093-.172A3.705 3.705 0 0 0 1.58 7.572a3.66 3.66 0 0 0-1.581 2.996 3.66 3.66 0 0 0 3.658 3.658h5.527a.5.5 0 0 0 .5-.5Z"/></svg>