<!-- SPDX-FileCopyrightText: © 2025 Schneider Electric SPDX-License-Identifier: LicenseRef-Proprietary -->
<svg xmlns="http://www.w3.org/2000/svg" viewBox="0 0 16 16"><path d="M15.972 2.329a.46.46 0 0 0-.43-.292H8.091a.464.464 0 0 0 0 .926h6.289L9.407 7.67 4.466 2.963h1.057q.043.001.091-.004a.463.463 0 0 0 .392-.524C5.79.944 4.681.019 3.112.019A3.12 3.12 0 0 0-.005 3.136a3.12 3.12 0 0 0 4.063 2.971.462.462 0 1 0-.282-.882A2.194 2.194 0 0 1 .92 3.137c0-1.208.984-2.193 2.192-2.193.917 0 1.554.383 1.839 1.093H3.31a.464.464 0 0 0-.32.798l6.047 5.761v4.4a.5.5 0 0 0 .011.101.47.47 0 0 0 .177.303l2.145 1.638H7.701l.67-.455a.463.463 0 0 0-.52-.766l-1.917 1.301a.464.464 0 0 0 .259.846h6.543a.463.463 0 0 0 .28-.831l-3.057-2.334V8.501l-.006-.077 5.903-5.587a.46.46 0 0 0 .112-.507Z"/></svg>