<!-- SPDX-FileCopyrightText: © 2025 Schneider Electric SPDX-License-Identifier: LicenseRef-Proprietary -->
<svg xmlns="http://www.w3.org/2000/svg" viewBox="0 0 16 16"><path d="M13.034 15.326 11.428 11h.915a.5.5 0 0 0 0-1h-1.286l-1.59-4.281c.409-.388.664-.937.664-1.543a2.134 2.134 0 0 0-1.63-2.071V.5a.5.5 0 0 0-1 0v1.604a2 2 0 0 0-.445.161.5.5 0 0 0 .444.896q0 0 0 0v.497a.5.5 0 0 0 1 0v-.496A1.131 1.131 0 0 1 8 5.306a1.13 1.13 0 0 1-1.114-1.321.5.5 0 0 0-.412-.575.494.494 0 0 0-.575.412 2.12 2.12 0 0 0 .635 1.897L4.944 10H3.588a.5.5 0 0 0 0 1h.985l-1.606 4.326a.5.5 0 0 0 .938.348L5.64 11h1.861v.553a.5.5 0 0 0 1 0V11h.318a.5.5 0 0 0 0-1h-.318v-.815a.5.5 0 0 0-1 0V10h-1.49l1.402-3.777a2.2 2.2 0 0 0 1.175 0l3.509 9.451a.5.5 0 0 0 .938-.348Z"/></svg>