<!-- SPDX-FileCopyrightText: © 2025 Schneider Electric SPDX-License-Identifier: LicenseRef-Proprietary -->
<svg xmlns="http://www.w3.org/2000/svg" viewBox="0 0 16 16"><path d="M15.5 7.316a.5.5 0 0 0 0-1h-1.868V4.947H15.5a.5.5 0 0 0 0-1h-2.062a2.57 2.57 0 0 0-1.386-1.386V.5a.5.5 0 0 0-1 0v1.869H9.684V.5a.5.5 0 0 0-1 0v1.869H7.316V.5a.5.5 0 0 0-1 0v1.869H4.947V.5a.5.5 0 0 0-1 0v2.369a.5.5 0 0 0 .5.5h6.632c.856 0 1.553.696 1.553 1.552v6.158c0 .856-.696 1.553-1.553 1.553H4.921a1.554 1.554 0 0 1-1.552-1.553V4.447a.5.5 0 0 0-.5-.5H.5a.5.5 0 0 0 0 1h1.869v1.369H.5a.5.5 0 0 0 0 1h1.869v1.368H.5a.5.5 0 0 0 0 1h1.869v1.368H.5a.5.5 0 0 0 0 1h2.062c.259.626.76 1.127 1.386 1.386V15.5a.5.5 0 0 0 1 0v-1.868h1.369V15.5a.5.5 0 0 0 1 0v-1.868h1.368V15.5a.5.5 0 0 0 1 0v-1.868h1.368V15.5a.5.5 0 0 0 1 0v-2.062a2.57 2.57 0 0 0 1.386-1.386h2.062a.5.5 0 0 0 0-1h-1.868V9.684h1.868a.5.5 0 0 0 0-1h-1.868V7.316z"/><path d="M5.237 4.737a.5.5 0 0 0-.5.5v5.526a.5.5 0 0 0 .5.5h5.526a.5.5 0 0 0 .5-.5V5.237a.5.5 0 0 0-.5-.5H7.606a.5.5 0 0 0 0 1h2.657v4.526H5.737V5.237a.5.5 0 0 0-.5-.5Z"/></svg>