<!-- SPDX-FileCopyrightText: © 2025 Schneider Electric SPDX-License-Identifier: LicenseRef-Proprietary -->
<svg xmlns="http://www.w3.org/2000/svg" viewBox="0 0 16 16"><path d="M9.684 1.783v-.099A1.685 1.685 0 0 0 7.44.095a.5.5 0 0 0 .333.943c.421-.15.911.189.911.646v.505a.5.5 0 0 0 .412.492 6.2 6.2 0 0 1 5.114 6.108c0 1.679-.66 3.252-1.858 4.429a6.14 6.14 0 0 1-4.464 1.78c-1.632-.028-3.175-.716-4.344-1.935S1.751 10.27 1.791 8.635A6.22 6.22 0 0 1 6.903 2.68a.499.499 0 1 0-.176-.984A7.23 7.23 0 0 0 .792 8.612c-.046 1.904.676 3.731 2.032 5.145 1.354 1.412 3.147 2.209 5.048 2.242h.129a7.16 7.16 0 0 0 5.053-2.067 7.16 7.16 0 0 0 2.157-5.143c0-3.354-2.3-6.237-5.526-7.006Z"/><path d="M8.5 4.5v-1a.5.5 0 0 0-1 0v1a.5.5 0 0 0 1 0ZM6.399 7.479l-2.436 4.669a.501.501 0 0 0 .675.674l3.267-1.704a.501.501 0 0 0-.463-.887l-1.856.969 1.627-3.12 3.12-1.627-1.385 2.654-.355-.355a.502.502 0 0 0-.708.708l.829.83q.03.03.063.056a.493.493 0 0 0 .701-.105.4.4 0 0 0 .046-.075l2.431-4.659a.5.5 0 0 0-.675-.675L6.611 7.268a.5.5 0 0 0-.212.212ZM11.684 8.5a.5.5 0 0 0 .5.5h1a.5.5 0 0 0 0-1h-1a.5.5 0 0 0-.5.5Zm-7.302 0a.5.5 0 0 0-.5-.5h-1a.5.5 0 0 0 0 1h1a.5.5 0 0 0 .5-.5ZM7.5 12.931v1a.5.5 0 0 0 1 0v-1a.5.5 0 0 0-1 0Z"/></svg>