<!-- SPDX-FileCopyrightText: © 2025 Schneider Electric SPDX-License-Identifier: LicenseRef-Proprietary -->
<svg xmlns="http://www.w3.org/2000/svg" viewBox="0 0 16 16"><path d="M14.5 1h-13a.5.5 0 0 0-.5.5v5a.5.5 0 0 0 1 0V2h12v12H2V9h5v3.5a.5.5 0 0 0 1 0v-4a.5.5 0 0 0-.5-.5h-6a.5.5 0 0 0-.5.5v6a.5.5 0 0 0 .5.5h13a.5.5 0 0 0 .5-.5v-13a.5.5 0 0 0-.5-.5Z"/><path d="M8.492 7.508a.5.5 0 0 0 .708 0l2.801-2.801V6.5a.5.5 0 0 0 1 0v-3a.5.5 0 0 0-.5-.5h-3a.5.5 0 0 0 0 1h1.793L8.493 6.801a.5.5 0 0 0 0 .707Z"/></svg>