<!-- SPDX-FileCopyrightText: © 2025 Schneider Electric SPDX-License-Identifier: LicenseRef-Proprietary -->
<svg xmlns="http://www.w3.org/2000/svg" viewBox="0 0 16 16"><circle cx="2.5" cy="7.5" r=".5"/><circle cx="12.5" cy="7.5" r=".5"/><circle cx="4.5" cy="7.5" r=".5"/><path d="M12.504 3.987a.5.5 0 0 0-.115.013H3.552a3.5 3.5 0 0 0-2.537 1.012c-1.357 1.357-1.347 3.575.022 4.943a3.5 3.5 0 0 0 2.351 1.032A.5.5 0 0 0 3.5 11H5v1.72a.5.5 0 0 0 .839.368l2.774-2.555a.498.498 0 0 0-.035-.766L6.507 8.188a.5.5 0 1 0-.607.795l1.597 1.218L6 11.58V10.5a.5.5 0 0 0-.5-.5H3.637a.5.5 0 0 0-.099-.01H3.53a2.5 2.5 0 0 1-1.786-.742c-.979-.979-.989-2.562-.022-3.529a2.44 2.44 0 0 1 1.741-.72H12.5a.5.5 0 0 0 .105-.011C13.935 5.042 15 6.154 15 7.513c0 1.394-1.12 2.527-2.496 2.527s-2.496-1.133-2.496-2.527a.5.5 0 0 0-1 0c0 1.945 1.568 3.527 3.496 3.527S16 9.458 16 7.513s-1.568-3.527-3.496-3.527Z"/></svg>