<!-- SPDX-FileCopyrightText: © 2025 Schneider Electric SPDX-License-Identifier: LicenseRef-Proprietary -->
<svg xmlns="http://www.w3.org/2000/svg" viewBox="0 0 16 16"><path d="M13.636 1H2.364C1.612 1 .999 1.612.999 2.364v11.269A1.37 1.37 0 0 0 2.367 15h11.218c.752 0 1.363-.613 1.363-1.367a.5.5 0 0 0-1 0 .366.366 0 0 1-.363.367H2.367A.37.37 0 0 1 2 13.633V2.364C2 2.163 2.163 2 2.364 2h11.272c.201 0 .364.164.364.364V5.5a.5.5 0 0 0 1 0V2.364C15 1.612 14.388 1 13.636 1Z"/><path d="M9.623 4.208a.5.5 0 0 0-.604.368 2.2 2.2 0 0 0-.054.659c.082 1.098.981 1.938 2.039 1.938q.074 0 .147-.005c1.12-.083 1.962-1.084 1.878-2.233-.086-1.149-1.062-2.021-2.187-1.933a.5.5 0 0 0 .074.997c.571-.044 1.07.411 1.114 1.01s-.384 1.121-.954 1.163c-.559.048-1.07-.411-1.114-1.009a1.1 1.1 0 0 1 .028-.349.5.5 0 0 0-.368-.604Zm-2.271-.057a2.36 2.36 0 0 0-2.771-1.032.5.5 0 0 0 .315.949c.235-.079.488-.091.73-.035.363.083.672.309.869.635.201.332.262.727.174 1.113a1.5 1.5 0 0 1-.641.926c-.32.208-.695.276-1.059.193-.756-.173-1.223-.958-1.042-1.748a.5.5 0 1 0-.974-.224c-.304 1.328.5 2.649 1.793 2.946q.264.06.529.06c.455 0 .903-.133 1.298-.39.543-.354.923-.901 1.07-1.541s.043-1.298-.292-1.853Zm1.082 5.595q-.14.404-.14.83c0 1.362 1.079 2.471 2.406 2.471s2.406-1.108 2.406-2.471-1.079-2.471-2.406-2.471q-.258 0-.51.056a.5.5 0 0 0 .217.977c.847-.189 1.699.525 1.699 1.438 0 .811-.631 1.471-1.406 1.471s-1.406-.66-1.406-1.471q0-.259.085-.502a.502.502 0 0 0-.946-.328Zm-4.722.258a.5.5 0 0 0-.624.333 2.1 2.1 0 0 0-.091.62c0 1.152.914 2.09 2.038 2.09s2.037-.938 2.037-2.09-.914-2.089-2.037-2.089a.5.5 0 0 0 0 1c.572 0 1.037.488 1.037 1.089s-.465 1.09-1.037 1.09-1.038-.489-1.038-1.09q0-.17.048-.329a.5.5 0 0 0-.333-.624Z"/><circle cx="14.5" cy="7.5" r=".5"/><circle cx="14.5" cy="9.5" r=".5"/><circle cx="14.5" cy="11.5" r=".5"/></svg>