<!-- SPDX-FileCopyrightText: © 2025 Schneider Electric SPDX-License-Identifier: LicenseRef-Proprietary -->
<svg xmlns="http://www.w3.org/2000/svg" viewBox="0 0 16 16"><path d="M7.037 10.093a.5.5 0 0 0 .125-.696l-.245-.353 1.101-1.33L9.03 9.013 7.646 10.68a.5.5 0 0 0 .769.638L9.98 9.432a.676.676 0 0 0 .005-.82L8.564 6.788a.66.66 0 0 0-.527-.273.65.65 0 0 0-.528.245L5.977 8.612a.664.664 0 0 0-.022.798l.386.557a.5.5 0 0 0 .696.126Z"/><path d="M15.833 6.5a1.867 1.867 0 0 0-3.238-.274c-1.469-.416-2.6-1.841-3.031-2.456A1.865 1.865 0 0 0 8.001.891a1.865 1.865 0 0 0-1.538 2.915c-.338.608-1.317 2.079-3.042 2.439a1.865 1.865 0 0 0-3.252.254 1.867 1.867 0 0 0 1.956 2.618l1.797 3.807a.5.5 0 0 0 .905-.426l-1.93-4.09a.5.5 0 0 0-.15-.185.5.5 0 0 0-.567-.148.863.863 0 1 1 .471-1.164q.032.128.116.221c.13.154.347.22.551.148l.009-.004c2.905-.412 4.139-3.219 4.191-3.34a.5.5 0 0 0-.118-.564.864.864 0 1 1 1.204 0l-.051.059a.5.5 0 0 0-.037.564c.069.116 1.683 2.787 4.136 3.271l.034.014a.5.5 0 0 0 .551-.147.5.5 0 0 0 .116-.222.865.865 0 0 1 1.57.002.866.866 0 0 1-.428 1.144.86.86 0 0 1-.671.018.495.495 0 0 0-.567.148.5.5 0 0 0-.155.195l-2.043 4.581-4.557-.015h-.001a.5.5 0 0 0-.001 1l4.871.016h.013a.5.5 0 0 0 .462-.306l2.04-4.575A1.866 1.866 0 0 0 15.834 6.5Z"/></svg>