<!-- SPDX-FileCopyrightText: © 2025 Schneider Electric SPDX-License-Identifier: LicenseRef-Proprietary -->
<svg xmlns="http://www.w3.org/2000/svg" viewBox="0 0 16 16"><path d="M15.754 1.968a.5.5 0 0 0-.551.029c-.85.627-3.152 1.561-6.016 1.561-3.191 0-5.624-.776-5.81-1.32l-.009-.077C3.483 1.708 6.158 1 9.187 1c2.101 0 3.685.341 3.7.345a.497.497 0 0 0 .596-.381.5.5 0 0 0-.381-.595C13.034.354 11.403.001 9.187.001c-.068 0-6.799.024-6.822 2.16v.02q0 .12.025.233l.39 3.244c-.599-.031-1.469.036-2.087.54-.316.258-.694.745-.694 1.595 0 2.098 2.736 3.661 3.608 4.105l.173 1.497c0 .066.016.673.626 1.285.874.876 2.482 1.32 4.78 1.32 2.286 0 3.888-.447 4.761-1.328.62-.626.633-1.247.628-1.247l1.42-10.961a.5.5 0 0 0-.242-.496ZM13.58 13.351c0 .017-.139 1.649-4.393 1.649s-4.406-1.603-4.41-1.661l-.208-1.827a.5.5 0 0 0-.289-.398C3.367 10.698.999 9.292.999 7.793c0-.372.106-.64.325-.819.306-.25.797-.32 1.222-.32.295 0 .56.034.708.063a.5.5 0 0 0 .596-.55l-.31-2.572c1.488.734 4.049.962 5.647.962 2.282 0 4.349-.561 5.686-1.212z"/></svg>