<!-- SPDX-FileCopyrightText: © 2025 Schneider Electric SPDX-License-Identifier: LicenseRef-Proprietary -->
<svg xmlns="http://www.w3.org/2000/svg" viewBox="0 0 16 16"><path d="M13.5 2H3.685l.974-1h6.688l.385.385a.5.5 0 0 0 .707-.707l-.531-.531A.5.5 0 0 0 11.553 0H4.448a.5.5 0 0 0-.359.151l-1.947 2A.498.498 0 0 0 2.5 3H13v12h-1V4.5a.5.5 0 0 0-.5-.5h-9a.5.5 0 0 0 0 1H11v2H3v-.5a.5.5 0 0 0-1 0v1a.5.5 0 0 0 .5.5H11v2H3v-.5a.5.5 0 0 0-1 0v1a.5.5 0 0 0 .5.5H11v2H3v-.5a.5.5 0 0 0-1 0v1a.5.5 0 0 0 .5.5H11v1H2.5a.5.5 0 0 0 0 1h11a.5.5 0 0 0 .5-.5v-13a.5.5 0 0 0-.5-.5Z"/></svg>