<!-- SPDX-FileCopyrightText: © 2025 Schneider Electric SPDX-License-Identifier: LicenseRef-Proprietary -->
<svg xmlns="http://www.w3.org/2000/svg" viewBox="0 0 9.845 16"><path d="M3.743 4.059a.5.5 0 0 0 .398 0l1.977-.854a.5.5 0 1 0-.396-.918l-1.778.768-2.307-1 2.306-1.009 3.058 1.339V3.5a.5.5 0 0 0 1 0V2.058a.5.5 0 0 0-.3-.458L4.143.042a.5.5 0 0 0-.401 0L.183 1.6a.498.498 0 0 0 .001.917zM7.5 12a.5.5 0 0 0-.5.5v1.022l-3 1.334-3-1.334V3.5a.5.5 0 0 0-1 0v10.348a.5.5 0 0 0 .297.457l3.5 1.556a.5.5 0 0 0 .406 0l3.5-1.556A.5.5 0 0 0 8 13.848V12.5a.5.5 0 0 0-.5-.5Z"/><path d="m9.572 7.563-.543-.277.276-.544a.499.499 0 1 0-.891-.453l-.41.805-1.005.326V6.5a.5.5 0 0 0-.045-.208l.616-.616a.5.5 0 0 0-.707-.707l-.432.432-.432-.432a.5.5 0 0 0-.707.707l.718.718a.5.5 0 0 0-.012.106v.964l-1.139-.37-.41-.805a.5.5 0 1 0-.89.453l.277.544-.544.277a.5.5 0 0 0 .454.891l.804-.41 1.072.349-.663.912-.892.141c-.273.044-.459.3-.416.572s.305.457.572.416l.603-.096.096.603a.506.506 0 0 0 .572.416.5.5 0 0 0 .416-.572l-.142-.893.652-.897.022.003.65.895-.142.893a.502.502 0 0 0 .495.578.5.5 0 0 0 .493-.422l.096-.603.602.096c.265.041.529-.144.572-.416s-.143-.528-.416-.572L7.9 9.306l-.662-.912 1.072-.349.805.41a.5.5 0 0 0 .453-.891Z"/></svg>