<!-- SPDX-FileCopyrightText: © 2025 Schneider Electric SPDX-License-Identifier: LicenseRef-Proprietary -->
<svg xmlns="http://www.w3.org/2000/svg" viewBox="0 0 16 16"><path d="M14.5 5a.5.5 0 0 0-.5.5v7.773C14 13.977 11.663 15 8 15s-6-1.022-6-1.727v-1.557c1.354.932 3.885 1.422 6.311 1.422 1.741 0 3.199-.359 4.274-.672a.5.5 0 0 0-.28-.961c-1.012.295-2.38.633-3.995.633-3.851 0-6.309-1.175-6.309-1.984l-.002-.05V7.855c1.354.932 3.885 1.422 6.311 1.422 1.743 0 3.2-.359 4.274-.673a.5.5 0 0 0-.28-.96c-1.01.294-2.378.633-3.994.633-3.851 0-6.309-1.175-6.309-1.984l-.002-.05V2.862l.002-.05q0-.104.066-.218.084-.146.266-.3a3 3 0 0 1 .507-.333 6 6 0 0 1 .726-.313q.417-.149.907-.268.498-.12 1.057-.205a15 15 0 0 1 1.177-.13c.818-.06 1.718-.06 2.536 0q.613.046 1.177.13.56.085 1.057.205.49.118.907.268.405.145.725.313.304.161.508.333.182.153.266.301a.43.43 0 0 1 .065.217q0 .104-.065.218a1.2 1.2 0 0 1-.266.3 3 3 0 0 1-.508.333 5.4 5.4 0 0 1-.724.313 10 10 0 0 1-.907.268q-.498.12-1.057.205-.564.086-1.177.131c-.818.06-1.718.06-2.536 0a15 15 0 0 1-1.178-.131 13 13 0 0 1-1.056-.204 9 9 0 0 1-.908-.268.5.5 0 1 0-.336.942q.463.165 1.009.298.538.13 1.142.221.6.091 1.253.14c.867.063 1.815.063 2.683 0q.654-.048 1.252-.139.604-.091 1.143-.222.544-.133 1.009-.298c.315-.112.603-.237.855-.371q.4-.21.687-.453a2.2 2.2 0 0 0 .488-.567q.197-.345.197-.715c0-.37-.066-.487-.197-.714a2.2 2.2 0 0 0-.488-.568 4 4 0 0 0-.686-.453 6.5 6.5 0 0 0-.855-.371 10 10 0 0 0-1.009-.298q-.537-.13-1.142-.222A16 16 0 0 0 9.318.048a19 19 0 0 0-2.684 0 17 17 0 0 0-1.253.139q-.605.091-1.142.222A10 10 0 0 0 3.23.707a6.5 6.5 0 0 0-.856.371 4 4 0 0 0-.686.453 2.2 2.2 0 0 0-.488.567 1.43 1.43 0 0 0-.201.715v10.46c0 1.79 3.521 2.727 7 2.727s7-.937 7-2.727V5.5a.5.5 0 0 0-.5-.5Z"/><circle cx="12.487" cy="6.47" r=".5"/><circle cx="12.466" cy="10.085" r=".5"/><circle cx="12.506" cy="13.481" r=".5"/></svg>