<!-- SPDX-FileCopyrightText: © 2025 Schneider Electric SPDX-License-Identifier: LicenseRef-Proprietary -->
<svg xmlns="http://www.w3.org/2000/svg" viewBox="0 0 16 16"><path d="M6.094 7.933c-3.511 0-5.083-.877-5.083-1.746a.5.5 0 0 0-.012-.108V2.878a.5.5 0 0 0 .012-.108q0-.096.064-.205.083-.143.266-.293.204-.168.511-.327.323-.167.73-.308.419-.146.913-.263.5-.118 1.063-.202.566-.083 1.184-.128a19 19 0 0 1 2.552 0q.617.045 1.184.128.563.084 1.064.202.493.117.913.263.408.141.729.308.307.158.512.328.181.15.265.291a.5.5 0 0 1 .049.108.5.5 0 0 0-.01.099v.127l-.037.077a1.2 1.2 0 0 1-.269.295 3 3 0 0 1-.511.327 6 6 0 0 1-.729.308 9 9 0 0 1-.912.262q-.5.118-1.064.202a16 16 0 0 1-1.184.128 18 18 0 0 1-2.552 0q-.617-.045-1.184-.128a13 13 0 0 1-1.064-.202 9 9 0 0 1-.913-.262.5.5 0 1 0-.329.945q.466.162 1.013.292.54.127 1.147.217.603.09 1.259.136c.871.062 1.823.062 2.694 0q.656-.047 1.259-.136.607-.09 1.147-.217a10 10 0 0 0 1.013-.292q.48-.168.858-.364.192-.099.357-.205v2.22a.5.5 0 0 0 1 0V3.029a1.3 1.3 0 0 0 .025-.257 1.4 1.4 0 0 0-.201-.711 2.1 2.1 0 0 0-.492-.558 4 4 0 0 0-.688-.445 7 7 0 0 0-.859-.364q-.465-.162-1.013-.292A14 14 0 0 0 9.624.185 17 17 0 0 0 8.365.049 19.5 19.5 0 0 0 5.671.047q-.655.047-1.259.136-.607.09-1.147.217a10 10 0 0 0-1.013.292 7 7 0 0 0-.86.364 4 4 0 0 0-.688.444 2.1 2.1 0 0 0-.492.559l-.03.054a.5.5 0 0 0-.183.386v10.713c0 1.736 2.706 2.773 5.321 2.773a.5.5 0 0 0 0-1c-2.434 0-4.321-.953-4.321-1.773v-1.829c.947.69 2.5 1.124 4.321 1.124a.5.5 0 0 0 0-1c-2.466 0-4.31-.941-4.31-1.782a.5.5 0 0 0-.012-.108V7.858c1.013.69 2.767 1.074 5.094 1.074a.5.5 0 0 0 0-1Z"/><path d="M15.679 7.933a.5.5 0 0 0-.646.289l-.213.556a4.63 4.63 0 0 0-3.653-1.945A4.66 4.66 0 0 0 6.739 9.82a.5.5 0 0 0 .467.679.5.5 0 0 0 .467-.322 3.64 3.64 0 0 1 3.386-2.344h.084a3.63 3.63 0 0 1 2.706 1.322l-.542-.128a.501.501 0 0 0-.231.974l1.72.406a.5.5 0 0 0 .439-.106.5.5 0 0 0 .154-.212l.576-1.509a.5.5 0 0 0-.288-.646Zm-.416 4.137a.5.5 0 0 0-.623.334 3.645 3.645 0 0 1-3.293 2.592 3.63 3.63 0 0 1-2.794-1.121l.55.089a.5.5 0 0 0 .159-.988l-1.744-.28a.51.51 0 0 0-.43.138.5.5 0 0 0-.14.223l-.466 1.547a.5.5 0 1 0 .957.289l.172-.571a4.63 4.63 0 0 0 3.784 1.674 4.65 4.65 0 0 0 4.201-3.301.5.5 0 0 0-.334-.623Z"/></svg>