<!-- SPDX-FileCopyrightText: © 2025 Schneider Electric SPDX-License-Identifier: LicenseRef-Proprietary -->
<svg xmlns="http://www.w3.org/2000/svg" viewBox="0 0 16 16"><path d="M6.663 9H2.894a.896.896 0 0 0-.895.895v1.228c0 .484.402.878.896.878h.604a.5.5 0 0 0 0-1h-.5v-1h3.663a.5.5 0 0 0 0-1ZM3.5 15H3v-1h7.679a.5.5 0 0 0 0-1H2.895a.896.896 0 0 0-.895.895v1.217c0 .49.402.889.896.889H3.5a.5.5 0 0 0 0-1Zm6.629-7.205a.5.5 0 0 0 .708 0l3.135-3.135a.5.5 0 0 0-.707-.707l-2.264 2.264V.5a.5.5 0 0 0-1 0v5.752L7.742 3.994a.5.5 0 0 0-.707.707z"/><path d="M12.669 15H5.5a.5.5 0 0 0 0 1h7.169a.5.5 0 0 0 0-1ZM5 11.5a.5.5 0 0 0 .5.5h3.18a.5.5 0 0 0 0-1H5.5a.5.5 0 0 0-.5.5Zm10.854 3.646L12.708 12h.398a.896.896 0 0 0 .895-.895V9.894a.896.896 0 0 0-.895-.895H9.708L.854.146a.502.502 0 0 0-.708.708l15 15a.5.5 0 0 0 .708 0 .5.5 0 0 0 0-.707ZM10.707 10H13v1h-1.293z"/></svg>