<!-- SPDX-FileCopyrightText: © 2025 Schneider Electric SPDX-License-Identifier: LicenseRef-Proprietary -->
<svg xmlns="http://www.w3.org/2000/svg" viewBox="0 0 16 16"><path d="M15.5 0H.5a.5.5 0 0 0 0 1H15v12h-3V2.5a.5.5 0 0 0-.5-.5H4.844a.5.5 0 0 0-.224.947l4.379 2.189v9.647l-4-1.812V4.5a.5.5 0 0 0-1 0v8.795a.5.5 0 0 0 .294.455l5 2.265a.5.5 0 0 0 .477-.035.5.5 0 0 0 .229-.42V4.828a.5.5 0 0 0-.276-.447l-2.761-1.38H11v10.5a.5.5 0 0 0 .5.5h4a.5.5 0 0 0 .5-.5V.5a.5.5 0 0 0-.5-.5Zm-13 13h-2a.5.5 0 0 0 0 1h2a.5.5 0 0 0 0-1Z"/><path d="M7.636 11.177q.103.047.211.047a.499.499 0 0 0 .211-.953l-.528-.246a.5.5 0 1 0-.422.906z"/></svg>