<!-- SPDX-FileCopyrightText: © 2025 Schneider Electric SPDX-License-Identifier: LicenseRef-Proprietary -->
<svg xmlns="http://www.w3.org/2000/svg" viewBox="0 0 16 16"><path d="M11.99 4.527c-.012-.062-.312-1.457-2.376-2.154V.884a.5.5 0 0 0-.199-.399 2.6 2.6 0 0 0-1.46-.468C7.13.017 6.741.336 6.671.4a.51.51 0 0 0-.04.714.49.49 0 0 0 .697.039c.002-.001.187-.136.626-.136.27 0 .504.082.66.155v1.572a.5.5 0 0 0 .37.483c1.588.428 1.953 1.271 2.017 1.465v9.42c-.206.229-.972.872-3.058.872-2.127 0-2.8-.714-2.949-.918V4.741c0-.792.697-1.186 1.282-1.377.233-.077.406-.105.423-.107a.5.5 0 0 0-.147-.989s-.248.035-.587.146c-1.252.41-1.971 1.258-1.971 2.327v9.455q0 .095.036.185c.065.164.729 1.603 3.914 1.603 3.151 0 3.925-1.329 4.003-1.48a.5.5 0 0 0 .055-.229l-.01-9.748Z"/></svg>