<!-- SPDX-FileCopyrightText: © 2025 Schneider Electric SPDX-License-Identifier: LicenseRef-Proprietary -->
<svg xmlns="http://www.w3.org/2000/svg" viewBox="0 0 16 16"><path d="M7.321 8.269a.5.5 0 0 0-.14.693c.746 1.124 1.108 2.034 1.108 2.784 0 2.114-1.878 3.255-3.645 3.255S.999 13.86.999 11.746c0-2.713 2.423-5.409 3.484-6.459.275.51.617.958 1.158 1.634a.501.501 0 0 0 .78-.626c-.758-.945-1.039-1.349-1.313-2.033a.5.5 0 0 0-.289-.283h0a.49.49 0 0 0-.509.098C4.029 4.321 0 7.883 0 11.745 0 14.171 1.997 16 4.645 16s4.645-1.829 4.645-4.255c0-.952-.417-2.044-1.275-3.336a.5.5 0 0 0-.693-.14Z"/><path d="M2.5 10.326a.5.5 0 0 0-.609.359 2.96 2.96 0 0 0 2.03 3.585.5.5 0 0 0 .62-.338.5.5 0 0 0-.34-.62 1.97 1.97 0 0 1-1.343-2.376.5.5 0 0 0-.359-.609Zm12.796-6.267a.5.5 0 0 0-.841.541c.464.721.546.965.546 1.634 0 1.591-1.369 2.45-2.658 2.45s-2.658-.859-2.658-2.45c0-2 1.662-3.997 2.507-4.884.199.35.447.683.813 1.153a.5.5 0 1 0 .789-.615c-.57-.733-.781-1.045-.986-1.571a.503.503 0 0 0-.807-.184c-.233.21-3.316 3.031-3.316 6.1 0 1.967 1.572 3.45 3.658 3.45s3.658-1.483 3.658-3.45c0-.868-.139-1.295-.704-2.175Z"/><path d="M11.031 4.805a.5.5 0 0 0-.606.365 2.5 2.5 0 0 0-.074.607c0 1.073.699 2.033 1.7 2.334a.5.5 0 0 0 .29-.958c-.582-.176-.989-.742-.989-1.377q0-.185.045-.367a.5.5 0 0 0-.364-.605Z"/></svg>