<!-- SPDX-FileCopyrightText: © 2025 Schneider Electric SPDX-License-Identifier: LicenseRef-Proprietary -->
<svg xmlns="http://www.w3.org/2000/svg" viewBox="0 0 16 16"><path d="M15.567 12.194c-.572-.078-1.172.044-1.646.247a3.87 3.87 0 0 0-1.609-1.78 4.3 4.3 0 0 0-1.025-.428c.259-2.004-1.12-4.067-3.188-4.642-2.033-.563-3.843.033-4.711 1.491a2.2 2.2 0 0 0-.972-.141c-.127-.854.168-1.366.46-1.654.349-.344.744-.422.821-.409a.5.5 0 0 0 .766-.485c-.189-1.49.848-2.776 2.644-3.276a3.24 3.24 0 0 1 2.495.321 2.84 2.84 0 0 1 1.353 1.771.498.498 0 0 0 .803.266c.315-.259 1.11-.523 1.714-.321.371.124.607.406.72.864a.499.499 0 1 0 .97-.24c-.249-1.005-.886-1.41-1.376-1.573-.666-.223-1.461-.113-2.072.148A3.87 3.87 0 0 0 10.105.574 4.26 4.26 0 0 0 6.836.155C4.773.73 3.497 2.168 3.44 3.908a2.3 2.3 0 0 0-.974.419c-.425.309-1.331 1.187-1.019 2.892C.9 7.507.289 8.093.012 9.284a.5.5 0 1 0 .974.226c.247-1.063.809-1.418 1.236-1.528.466-.122.859.027.917.087a.5.5 0 0 0 .909-.06C4.565 6.632 6.05 6.06 7.83 6.556c1.592.442 2.658 2.011 2.467 3.532a4.4 4.4 0 0 0-1.254.152c-2.063.575-3.339 2.012-3.396 3.754a2 2 0 0 0-.179.037c-.632.162-1.208.622-1.54 1.229a.5.5 0 1 0 .877.481c.352-.643.981-.8 1.098-.776a.5.5 0 0 0 .765-.485c-.189-1.49.848-2.776 2.643-3.276a3.25 3.25 0 0 1 2.496.322 2.85 2.85 0 0 1 1.352 1.771.498.498 0 0 0 .803.266c.243-.199.877-.457 1.471-.376a.5.5 0 1 0 .133-.991Z"/></svg>