<!-- SPDX-FileCopyrightText: undefined SPDX-License-Identifier: undefined -->
<svg xmlns="http://www.w3.org/2000/svg" viewBox="0 0 16 16"><path fill="currentColor" d="M8.808 16H6.816a.5.5 0 0 1-.404-.206l-1.585-2.176a1.54 1.54 0 0 1-.892-.287 1.48 1.48 0 0 1-.599-.976l-.037-.229a.5.5 0 0 1 .987-.158l.037.229a.5.5 0 0 0 .199.323c.109.079.24.115.37.09l6.41-1.016a.495.495 0 0 0 .413-.568l-.036-.229a.49.49 0 0 0-.569-.412l-1.253.182-4.808.762c-.159.026-.32.024-.475 0-.103-.013-.178-.022-.253-.064a1.49 1.49 0 0 1-.985-1.18L3.3 9.856a.5.5 0 0 1 .987-.158l.037.229a.49.49 0 0 0 .312.386l6.667-.988a.5.5 0 0 0 .323-.199.5.5 0 0 0 .09-.37l-.036-.229a.5.5 0 0 0-.199-.323.48.48 0 0 0-.37-.09l-.75.104-5.278.848a1.54 1.54 0 0 1-.682-.051.5.5 0 0 1-.121-.043 1.6 1.6 0 0 1-.337-.187 1.5 1.5 0 0 1-.605-.973l-.036-.228a.5.5 0 0 1 .988-.158l.037.229a.5.5 0 0 0 .257.354l6.721-.956a.5.5 0 0 0 .414-.569l-.036-.229a.5.5 0 0 0-.464-.419l-6.167.977a1.5 1.5 0 0 1-.584-.022.5.5 0 0 1-.203-.065 1.5 1.5 0 0 1-.326-.181 1.5 1.5 0 0 1-.599-.976l-.037-.229a.5.5 0 0 1 .987-.157l.037.229a.5.5 0 0 0 .265.365l6.372-.923q.09-.015.18-.018l.162-.025a.497.497 0 0 0 .413-.569l-.036-.229a.497.497 0 0 0-.569-.413l-.104.015-5.958.944c-.393.064-.789-.032-1.113-.268s-.537-.583-.599-.976l-.037-.228a.5.5 0 0 1 .988-.158l.037.229a.49.49 0 0 0 .285.374l6.693-.976a.5.5 0 0 0 .323-.2.5.5 0 0 0 .092-.355H2.426a.5.5 0 0 1-.5-.5V.5a.5.5 0 0 1 1 0V1H13V.5a.5.5 0 0 1 1 0v1a.5.5 0 0 1-.5.5h-.781a1.48 1.48 0 0 1-.413 1.096c.185.207.313.466.36.759l.036.229a1.49 1.49 0 0 1-.391 1.261c.182.206.309.463.354.753l.036.229c.076.482-.088.948-.403 1.274.188.209.319.472.367.769l.036.229a1.49 1.49 0 0 1-.404 1.274c.188.208.319.471.367.768l.036.229c.062.395-.033.79-.27 1.114a1.48 1.48 0 0 1-.977.599l-5.51.873 1.124 1.543h1.489l.983-1.299a.5.5 0 1 1 .797.603L9.203 15.8a.5.5 0 0 1-.398.198Z"/></svg>