<!-- SPDX-FileCopyrightText: © 2025 Schneider Electric SPDX-License-Identifier: LicenseRef-Proprietary -->
<svg xmlns="http://www.w3.org/2000/svg" viewBox="0 0 16 16"><path d="M14.179 6.509c.934-.158 1.803-.824 1.803-2.081a.5.5 0 0 0-1 0c0 1.064-1.039 1.118-1.247 1.118-1.712 0-1.712-.91-1.712-1.215l-.017-1.332H15.5a.5.5 0 0 0 0-1H15V.5a.5.5 0 0 0-1 0V2h-1V.5a.5.5 0 0 0-1 0V2h-.5a.5.5 0 0 0-.5.506l.022 1.832c0 1.245.777 2.019 2.156 2.178.07 2.189.671 2.896 1.158 3.471.376.443.647.763.647 1.841 0 2.046-1.398 3.173-3.938 3.173H9.499a.5.5 0 0 0-.106.012c-.022-.044-.061-.187-.033-.462a.5.5 0 0 0-.497-.55H2.676a.5.5 0 0 0-.5.5c0 .385-.048.497-.021.5h-.962A2.3 2.3 0 0 1 1 14.112v-.11c-.007-3.115.269-3.853.388-4.024.255-.37.292-.563.391-1.079l.035-.18c.033-.167.166-1.909.296-3.718H7.5a.5.5 0 0 0 0-1H2.181c.064-.911.122-1.767.16-2.367a.68.68 0 0 1 .681-.633h4.919c.341 0 .633.254.678.59a373 373 0 0 0 1.072 7.127l.035.18c.099.516.136.709.391 1.079.18.261.393 1.021.388 3.159v.108a.5.5 0 0 0 1 0v-.106c.003-1.351-.059-2.995-.565-3.729-.136-.196-.143-.234-.232-.699l-.035-.183c-.04-.208-.757-4.823-1.062-7.07A1.69 1.69 0 0 0 7.942.001H3.021c-.885 0-1.623.689-1.679 1.57-.146 2.307-.467 6.668-.51 6.956l-.035.183c-.089.465-.097.503-.232.699-.396.573-.57 1.99-.565 4.595v.107C0 14.703.254 16 1.011 16h1.146c.394 0 .852-.188.982-1h5.228c.032.248.114.498.289.69a.95.95 0 0 0 .725.31h1.665c3.093 0 4.938-1.56 4.938-4.173 0-1.445-.45-1.976-.885-2.487-.425-.5-.862-1.016-.921-2.831Z"/><path d="M7.57 11c-.587 0-1.013.323-1.013.77a.5.5 0 0 0 .941.236A.4.4 0 0 1 7.57 12h.818q.043 0 .072.006a.5.5 0 0 0 .941-.236c0-.446-.426-.77-1.013-.77zm-4.609 0c-.578 0-1.013.339-1.013.787a.5.5 0 0 0 .95.218.4.4 0 0 1 .063-.005h.818q.037 0 .063.005a.5.5 0 0 0 .95-.218c0-.448-.436-.787-1.014-.787z"/></svg>