<!-- SPDX-FileCopyrightText: © 2025 Schneider Electric SPDX-License-Identifier: LicenseRef-Proprietary -->
<svg xmlns="http://www.w3.org/2000/svg" viewBox="0 0 16 16"><path d="M14.375 9.154c-.592-.636-1.153-1.24-1.249-2.697 1.028-.175 1.669-.934 1.669-2.031a.5.5 0 0 0-1 0c0 .71-.384 1.07-1.141 1.07-1.765 0-1.765-.795-1.765-1.095V3h3.5a.5.5 0 0 0 0-1h-.5V.5a.5.5 0 0 0-1 0V2h-1V.5a.5.5 0 0 0-1 0V2h-.5a.5.5 0 0 0-.5.5v1.901c0 .582.23 1.878 2.236 2.071.112 1.854.886 2.686 1.518 3.363.547.588.942 1.013.942 1.998 0 1.962-2.023 3.167-3.473 3.167-3.106 0-3.791-2.373-3.817-2.472a.5.5 0 0 0-.442-.371l-1.673-.136-1.099-.237a.49.49 0 0 0-.419.1.5.5 0 0 0-.186.389 1.031 1.031 0 0 1-2.06 0c0-.568.462-1.03 1.03-1.03.132 0 .26-.053.354-.146l.686-.686a.5.5 0 0 0-.067-.763L1.462 8.281l.109-.624c2.077.078 3.359.72 3.812.991l.016.492-.244.138a.5.5 0 0 0-.195.671l.365.684a.5.5 0 0 0 .361.258l1.964.318a.49.49 0 0 0 .445-.151c.432-.462 1.455-1.599 1.607-2.168q.031-.116.049-.233c.306.539.554 1.127.673 1.735a.5.5 0 0 0 .491.404 1.031 1.031 0 0 1 0 2.06c-.568 0-1.03-.462-1.03-1.03a.5.5 0 0 0-1 0c0 1.119.911 2.03 2.03 2.03s2.03-.911 2.03-2.03c0-.98-.698-1.8-1.623-1.989-.426-1.606-1.534-3.002-2.341-3.854a1 1 0 0 0-.061-.069l-.063-.06a12 12 0 0 0-.72-.681.5.5 0 0 0-.23-.111.5.5 0 0 0-.124-.016H6.489a.5.5 0 0 0 0 1h1.117l.511.483.07.072a1 1 0 0 0 .087.104h.001c.174.25.652 1.212.462 1.925-.064.218-.636.936-1.192 1.549l-1.454-.236-.019-.034.083-.047a.5.5 0 0 0 .253-.452l-.034-1.053a.5.5 0 0 0-.194-.379C6.11 7.924 4.424 6.65 1.152 6.65a.5.5 0 0 0-.493.414L.421 8.423a.5.5 0 0 0 .207.497l1.729 1.208-.129.129a2.033 2.033 0 0 0-1.811 2.019c0 1.119.911 2.03 2.03 2.03.911 0 1.685-.604 1.94-1.432l.646.137 1.421.119c.353.831 1.54 2.873 4.659 2.873 2.116 0 4.473-1.711 4.473-4.167 0-1.379-.615-2.04-1.21-2.679Z"/></svg>