<!-- SPDX-FileCopyrightText: © 2025 Schneider Electric SPDX-License-Identifier: LicenseRef-Proprietary -->
<svg xmlns="http://www.w3.org/2000/svg" viewBox="0 0 16 16"><path d="M11.336 10.586a.5.5 0 0 0 .498-.464l.06-.828a.501.501 0 0 0-.998-.073l-.06.828a.5.5 0 0 0 .463.535h.037Z"/><path d="M13.346 4.698 9.924 6.842a.5.5 0 0 0 .531.847l2.58-1.617-.434 5.514-3.768 2.885.161-8.178 4.888-2.858a.498.498 0 0 0-.059-.892L7.855.039a.5.5 0 0 0-.414.012L2.42 2.511a.5.5 0 0 0-.279.483l.641 9.314c.01.147.084.282.203.369l3.219 2.361A.5.5 0 0 0 7 14.635V6.5a.5.5 0 0 0-1 0v7.148l-2.236-1.64-.602-8.747 4.516-2.212 4.836 2.029-4.266 2.494A.5.5 0 0 0 8 5.994l-.187 9.496a.5.5 0 0 0 .804.407l4.77-3.651a.5.5 0 0 0 .194-.358l.528-6.727a.497.497 0 0 0-.763-.463Z"/></svg>