<!-- SPDX-FileCopyrightText: © 2025 Schneider Electric SPDX-License-Identifier: LicenseRef-Proprietary -->
<svg xmlns="http://www.w3.org/2000/svg" viewBox="0 0 16 16"><path d="M11.293 12.211a.5.5 0 0 0-1 0c0 .686.559 1.244 1.244 1.244s1.244-.559 1.244-1.244-.559-1.244-1.244-1.244a.5.5 0 0 0 0 1c.135 0 .244.109.244.244 0 .27-.488.27-.488 0ZM10.651 9H5.348a1.35 1.35 0 0 1-1.349-1.349V5.348a1.35 1.35 0 0 1 1.349-1.349h4.151a.5.5 0 0 0 0-1H5.348a2.35 2.35 0 0 0-2.349 2.349v2.303A2.35 2.35 0 0 0 5.348 10h5.303A2.35 2.35 0 0 0 13 7.651V5.348c0-.706-.098-2.349-1-2.349h-.5a.5.5 0 0 0 0 1h.315c.081.205.185.683.185 1.349v2.303A1.35 1.35 0 0 1 10.651 9ZM7.79 12.211a.5.5 0 0 0-1 0c0 .686.558 1.244 1.244 1.244s1.244-.559 1.244-1.244-.558-1.244-1.244-1.244a.5.5 0 0 0 0 1c.135 0 .244.109.244.244 0 .27-.488.27-.488 0Zm-3.504 0a.5.5 0 0 0-1 0c0 .686.558 1.244 1.244 1.244s1.244-.559 1.244-1.244-.558-1.244-1.244-1.244a.5.5 0 0 0 0 1c.135 0 .244.109.244.244 0 .27-.488.27-.488 0Z"/><path d="M13.023 1h-1.478a.5.5 0 0 0 0 1h1.478c.529 0 .977.618.977 1.349v9.303c0 .743-.605 1.349-1.349 1.349H3.349A1.35 1.35 0 0 1 2 12.652V3.349A1.35 1.35 0 0 1 3.349 2H9.5a.5.5 0 0 0 0-1H3.349A2.35 2.35 0 0 0 1 3.349v9.303a2.35 2.35 0 0 0 2.349 2.349h9.303a2.35 2.35 0 0 0 2.349-2.349V3.349c0-1.295-.887-2.349-1.977-2.349Z"/></svg>