<!-- SPDX-FileCopyrightText: © 2025 Schneider Electric SPDX-License-Identifier: LicenseRef-Proprietary -->
<svg xmlns="http://www.w3.org/2000/svg" viewBox="0 0 16 16"><path d="M14.711 16H1.29C.579 16 0 15.422 0 14.711V4.923c0-.481.264-.918.689-1.141L7.767.058a.5.5 0 0 1 .466 0l7.5 3.946a.499.499 0 1 1-.465.884L8 1.065 1.155 4.667A.29.29 0 0 0 1 4.923v9.788c0 .159.13.289.29.289h13.421a.29.29 0 0 0 .289-.289V7h-.948L11.19 9.854a.5.5 0 0 1-.353.146H5.24a.5.5 0 0 1-.353-.146L1.726 6.702a.5.5 0 1 1 .707-.707l3.014 3.006h5.184l2.861-2.854a.5.5 0 0 1 .354-.146h1.655a.5.5 0 0 1 .5.5v8.211a1.29 1.29 0 0 1-1.289 1.289Z"/></svg>