<!-- SPDX-FileCopyrightText: © 2025 Schneider Electric SPDX-License-Identifier: LicenseRef-Proprietary -->
<svg xmlns="http://www.w3.org/2000/svg" viewBox="0 0 16 16"><path d="M8.131 11.162 5 14.576V7.5a.5.5 0 0 0-1 0v7.076L.869 11.162a.5.5 0 0 0-.738.676l3.434 3.744c.242.265.566.412.915.418h.04a1.26 1.26 0 0 0 .915-.418l3.434-3.744a.5.5 0 0 0-.738-.676Zm7.65-9.718a.5.5 0 0 0 .054-.528C15.569.351 15.047 0 14.468 0H3.3C2.583 0 2 .583 2 1.3v4.2a.5.5 0 0 0 1 0V1.3a.3.3 0 0 1 .3-.3h11.168q.119 0 .226.066L9.003 5.839 4.834 2.126a.5.5 0 0 0-.665.747l4.492 4a.5.5 0 0 0 .654.009l6.384-5.355a.5.5 0 0 0 .082-.083ZM15.5 3a.5.5 0 0 0-.5.5v8.2a.3.3 0 0 1-.3.3h-3.2a.5.5 0 0 0 0 1h3.2c.717 0 1.3-.583 1.3-1.3V3.5a.5.5 0 0 0-.5-.5Z"/></svg>