<!-- SPDX-FileCopyrightText: © 2025 Schneider Electric SPDX-License-Identifier: LicenseRef-Proprietary -->
<svg xmlns="http://www.w3.org/2000/svg" viewBox="0 0 16 16"><path d="M13.699 1.527a.5.5 0 0 0 .176-.497.4.4 0 0 0-.04-.114C13.569.351 13.047 0 12.468 0H1.3C.583 0 0 .583 0 1.3v10.4c0 .717.583 1.3 1.3 1.3h3.2a.5.5 0 0 0 0-1H1.3a.3.3 0 0 1-.3-.3V1.3a.3.3 0 0 1 .3-.3h11.168q.119 0 .226.066L7.003 5.839l-4.17-3.713a.5.5 0 0 0-.665.747l4.492 4a.5.5 0 0 0 .654.01zM15.5 11H12V7.5a.5.5 0 0 0-1 0V11H7.5a.5.5 0 0 0 0 1H11v3.5a.5.5 0 0 0 1 0V12h3.5a.5.5 0 0 0 0-1Zm-2-8a.5.5 0 0 0-.5.5v3a.5.5 0 0 0 1 0v-3a.5.5 0 0 0-.5-.5Z"/></svg>