<!-- SPDX-FileCopyrightText: © 2025 Schneider Electric SPDX-License-Identifier: LicenseRef-Proprietary -->
<svg xmlns="http://www.w3.org/2000/svg" viewBox="0 0 16 16"><path d="M15.944 7.835c-.212-.741-.483-.922-.902-1.122l-.338-4.417a.5.5 0 0 0-.153-.323l-.757-.719c-.1-.129-.325-.244-.495-.228-.152.007-.371.076-.549.358a56 56 0 0 0-.4.664L8.106 3.401c-.355.05-1.701.385-2.238 2.598H1.5a.5.5 0 0 0-.5.5v4a.5.5 0 0 0 .5.5H4v1l-2.519.002C.968 12.046 0 12.417 0 13.497c0 1.062.925 1.445 1.469 1.502h8.099c.603-.013 1.499-.422 1.499-1.497 0-.562-.233-.902-.43-1.088-.463-.439-1.108-.417-1.152-.415H7v-1h1.253a.5.5 0 0 0 .495-.431c.009-.067.224-1.66-.301-3.182-.013-.05-.305-1.244 1.239-1.96 1.699-.788 3.006-1.035 3.02-1.038a.5.5 0 0 0-.181-.983c-.059.01-1.438.269-3.259 1.114-1.836.85-1.972 2.413-1.776 3.156.303.881.322 1.801.3 2.324H6.499a.5.5 0 0 0-.5.5v2a.5.5 0 0 0 .5.5h3.007c.048-.022.315.018.445.144.028.027.115.111.115.359 0 .412-.329.488-.51.497l-8.029.004c-.124-.017-.529-.102-.529-.506 0-.418.478-.49.525-.498h2.975a.5.5 0 0 0 .5-.5v-2a.5.5 0 0 0-.5-.5h-2.5v-3h4.273a.5.5 0 0 0 .492-.412c.37-2.071 1.435-2.192 1.468-2.195a.5.5 0 0 0 .13-.023l4.471-1.425a.5.5 0 0 0 .277-.222l.282-.473.326.313.346 4.515a.5.5 0 0 0 .273.408l.23.111c.301.141.307.144.413.514.086.299-.221.509-.208.508h0l-2.266.943a.5.5 0 0 0-.27.654c.106.256.4.372.654.27l2.328-.975c.355-.211.964-.832.721-1.676Z"/></svg>