<!-- SPDX-FileCopyrightText: © 2025 Schneider Electric SPDX-License-Identifier: LicenseRef-Proprietary -->
<svg xmlns="http://www.w3.org/2000/svg" viewBox="0 0 16 16"><path d="M8 0C3.589 0 0 3.588 0 8s3.589 8 8 8 8-3.589 8-8-3.589-8-8-8Zm0 15c-3.86 0-7-3.141-7-7s3.14-7 7-7 7 3.14 7 7-3.141 7-7 7Z"/><path d="M7.644 9.973q.15.172.42.172a.51.51 0 0 0 .406-.172q.15-.17.164-.484l.429-5.445q.042-.527-.221-.848-.265-.321-.778-.321-.528 0-.798.321t-.228.848l.428 5.445q.029.314.178.484ZM8.064 11q-.484 0-.777.292a1 1 0 0 0-.292.748q0 .47.292.77.293.3.777.3.5 0 .778-.3.278-.299.278-.77 0-.457-.278-.748Q8.563 11 8.064 11Z"/></svg>