<!-- SPDX-FileCopyrightText: © 2025 Schneider Electric SPDX-License-Identifier: LicenseRef-Proprietary -->
<svg xmlns="http://www.w3.org/2000/svg" viewBox="0 0 16 16"><path d="M15.708 12.812 9.396 1.708A1.68 1.68 0 0 0 8 .77a1.68 1.68 0 0 0-1.396.938L.292 12.812c-.188.292-.271.646-.292 1 0 .396.188.771.479 1.042.354.25.792.375 1.229.375h12.583c.438 0 .875-.125 1.229-.375.312-.271.479-.646.479-1.042-.021-.354-.104-.708-.292-1Zm-.75 1.334a.94.94 0 0 1-.667.188H1.708a.94.94 0 0 1-.667-.188c-.104-.083-.167-.208-.146-.333 0-.208.062-.396.167-.562L7.396 2.146c.167-.312.396-.479.604-.479s.438.167.604.5l6.333 11.083c.104.167.167.375.167.562a.32.32 0 0 1-.146.333Z"/><path d="M7.636 10.57a.47.47 0 0 0 .376.153.46.46 0 0 0 .364-.153q.134-.153.146-.434l.383-4.877q.038-.472-.198-.76-.235-.287-.696-.287-.472 0-.715.287c-.243.287-.229.445-.204.76l.383 4.877q.025.28.16.434Zm.377.919q-.434 0-.696.262a.9.9 0 0 0-.262.671q0 .421.262.689c.262.268.407.268.696.268q.447 0 .696-.268.249-.269.249-.689a.94.94 0 0 0-.249-.671q-.249-.261-.696-.262Z"/></svg>