<!-- SPDX-FileCopyrightText: © 2025 Schneider Electric SPDX-License-Identifier: LicenseRef-Proprietary -->
<svg xmlns="http://www.w3.org/2000/svg" viewBox="0 0 16 16"><path d="M7.412 4.251c.013.002.033 0 .05 0 3.315 0 5.791 1.563 7.364 4.649-.769.387-1.378.845-1.941 1.289a.5.5 0 1 0 .62.785c.647-.509 1.302-.997 2.192-1.376a.496.496 0 0 0 .248-.69l-.082-.168c-2.171-4.529-5.757-5.488-8.403-5.488h-.049a.5.5 0 0 0 .002 1Zm8.442 10.895-15-15a.502.502 0 0 0-.708.708L5.022 5.73c-1.404.227-3.809.939-4.967 3.178a.5.5 0 0 0 .012.482c.03.051 3.088 5.149 9.668 3.65a6.9 6.9 0 0 0 1.877-.719l3.533 3.532a.5.5 0 0 0 .708 0 .5.5 0 0 0 0-.707ZM6.117 6.824l2.979 2.979a2.12 2.12 0 0 1-1.431.561 2.11 2.11 0 0 1-2.109-2.109c0-.533.205-1.044.561-1.431Zm3.398 5.241c-5.131 1.166-7.788-2.026-8.431-2.947.934-1.531 2.684-2.123 3.853-2.351a3.1 3.1 0 0 0-.381 1.487 3.113 3.113 0 0 0 3.109 3.109c.799 0 1.565-.312 2.139-.853l1.07 1.07a6 6 0 0 1-1.359.484Z"/><path d="M8.291 5.209a.499.499 0 1 0-.2.98 2.1 2.1 0 0 1 1.638 1.632.5.5 0 1 0 .979-.206 3.1 3.1 0 0 0-2.417-2.406Z"/></svg>