<!-- SPDX-FileCopyrightText: © 2024 Meta SPDX-License-Identifier: LicenseRef-Proprietary -->
<svg xmlns="http://www.w3.org/2000/svg" version="1.1" viewBox="0 0 666.666 664.225"><path fill="#ffffff" d="M333.332 0C149.237 0 0 149.237 0 333.332 0 489.659 107.619 620.828 252.807 656.85V435.193h-68.735V333.332h68.735v-43.89c0-113.457 51.343-166.044 162.73-166.044 21.117 0 57.556 4.14 72.463 8.282v92.338c-7.868-.828-21.53-1.243-38.508-1.243-54.657 0-75.777 20.704-75.777 74.534v36.023h108.879L463.89 435.193h-90.176v229.032c165.048-19.935 292.951-160.469 292.951-330.893C666.666 149.237 517.426 0 333.332 0Z"/></svg>