<!-- SPDX-FileCopyrightText: © 2024 Meta SPDX-License-Identifier: LicenseRef-Proprietary -->
<svg xmlns="http://www.w3.org/2000/svg" version="1.1" viewBox="0 0 666.666 664.225"><path fill="#0866ff" d="M333.332 0C149.237 0 0 149.237 0 333.332 0 489.659 107.619 620.828 252.807 656.85V435.193h-68.735V333.332h68.735v-43.89c0-113.457 51.343-166.044 162.73-166.044 21.117 0 57.556 4.14 72.463 8.282v92.338c-7.868-.828-21.53-1.243-38.508-1.243-54.657 0-75.777 20.704-75.777 74.534v36.023h108.879L463.89 435.193h-90.176v229.032c165.048-19.935 292.951-160.469 292.951-330.893C666.666 149.237 517.426 0 333.332 0Z"/><path fill="#ffffff" d="M415.537 123.396c-111.385 0-162.73 52.59-162.73 166.045v43.893H184.07v101.861h68.737V656.85c25.79 6.397 52.757 9.816 80.525 9.816a337 337 0 0 0 40.385-2.441v-229.03h90.172l18.705-101.861H373.717v-36.025c0-53.83 21.116-74.534 75.773-74.534 16.978 0 30.642.415 38.51 1.243V131.68c-14.907-4.142-51.346-8.284-72.463-8.284z"/></svg>