<!-- SPDX-FileCopyrightText: © 2025 Schneider Electric SPDX-License-Identifier: LicenseRef-Proprietary -->
<svg xmlns="http://www.w3.org/2000/svg" viewBox="0 0 16 16"><path d="M14.572 8.739c-1.009-1.129-2.484-1.701-4.386-1.701-.535-.012-.939 0-1.188 0V5.999H10.7c.813-.021 2.024-.568 2.024-1.988 0-1.525-1.319-1.983-2.037-2.012H3.99c-.819.015-2.038.565-2.038 2.02 0 .562.184 1.041.532 1.387.585.582 1.396.592 1.509.593h2.004v1H.5a.5.5 0 0 0 0 1h5.999a.5.5 0 0 0 .5-.5v-2a.5.5 0 0 0-.5-.5H3.995c-.245-.001-1.042-.077-1.042-.98 0-.938.882-1.015 1.047-1.02h6.665c.177.009 1.061.103 1.061 1.012 0 .902-.877.981-1.037.988H8.5a.5.5 0 0 0-.5.5v2.038a.5.5 0 0 0 .297.457c.102.045.098.045 1.884.043h.008c1.602 0 2.825.458 3.636 1.362 1.048 1.168 1.179 2.817 1.176 3.6h-3.184a38 38 0 0 1-.012-1.024c0-.662-.185-1.177-.549-1.531-.463-.449-1.027-.442-1.074-.444H.5a.5.5 0 0 0 0 1h9.693s.205.008.363.161c.203.198.246.553.246.814 0 1.208.036 1.549.041 1.584.029.251.243.44.496.44h4.137a.5.5 0 0 0 .497-.443c.013-.118.308-2.906-1.401-4.817Z"/></svg>