<!-- SPDX-FileCopyrightText: © 2025 Schneider Electric SPDX-License-Identifier: LicenseRef-Proprietary -->
<svg xmlns="http://www.w3.org/2000/svg" viewBox="0 0 16 16"><path d="M7.638 9H6V8h.642c.601-.016 1.496-.426 1.496-1.492 0-1.061-.89-1.482-1.509-1.508H2.543c-.605.011-1.506.424-1.506 1.513 0 .534.22.864.405 1.048.434.43 1.002.437 1.107.439H3v1H.5a.5.5 0 0 0 0 1h3a.5.5 0 0 0 .5-.5v-2a.5.5 0 0 0-.5-.5h-.949c-.235-.004-.514-.091-.514-.487 0-.427.333-.505.516-.513h4.051c.2.012.535.095.535.508 0 .406-.331.483-.509.492H5.501a.5.5 0 0 0-.5.5v2a.5.5 0 0 0 .5.5h2.138c3.151 0 3.863 3.62 4.02 5H8.997a38 38 0 0 1-.008-.804c0-1.116-.539-1.659-.991-1.918-.475-.272-.984-.255-.988-.278H.5a.5.5 0 0 0 0 1h6.505c.231.005.983.105.983 1.196 0 1.006.031 1.348.031 1.348a.5.5 0 0 0 .498.456h3.684a.5.5 0 0 0 .5-.517c-.081-2.242-1.244-6.482-5.063-6.482Z"/><path d="M9.766 7.899a.5.5 0 1 0 .899.438c1.112-2.278.319-3.682-.318-4.81-.526-.932-.942-1.667-.411-2.819a.5.5 0 1 0-.909-.419c-.746 1.617-.111 2.739.448 3.729.603 1.066 1.171 2.073.291 3.879Zm2.556-7.19a.5.5 0 1 0-.908-.419c-.746 1.617-.11 2.74.451 3.73.604 1.066 1.175 2.073.293 3.879a.5.5 0 1 0 .898.438c1.112-2.279.317-3.682-.321-4.81-.527-.932-.944-1.667-.413-2.818Zm2.797 2.818c-.527-.931-.944-1.667-.414-2.818a.501.501 0 0 0-.908-.419c-.745 1.617-.108 2.74.452 3.73.604 1.066 1.176 2.073.294 3.879a.5.5 0 1 0 .898.438c1.112-2.279.317-3.683-.322-4.811Z"/></svg>