<!-- SPDX-FileCopyrightText: © 2025 Schneider Electric SPDX-License-Identifier: LicenseRef-Proprietary -->
<svg xmlns="http://www.w3.org/2000/svg" viewBox="0 0 16 16"><path d="M2.878 2.085a.499.499 0 1 0 .755-.65L2.548.175A.5.5 0 0 0 1.919.07l-1.663.933a.498.498 0 1 0 .489.869l.607-.341c-.22.886-.458 2.165-.44 3.495.03 2.36.75 4.965.78 5.075a.5.5 0 0 0 .613.346.5.5 0 0 0 .346-.614c-.007-.026-.716-2.593-.744-4.82-.017-1.352.261-2.676.479-3.5l.492.571Z"/><path d="M15.833 13.034c-.722-.651-.937-1.287-1.233-2.168-.269-.797-.603-1.789-1.441-2.977-.676-.957-1.283-1.606-2.049-1.663-.339-.022-.689.082-1.022.318-.376-.328-.823-.461-1.249-.362a1.33 1.33 0 0 0-.896.719 1.32 1.32 0 0 0-.866-.103 1.45 1.45 0 0 0-.921.703c-.225-.24-.443-.479-.64-.7-.374-.42-.876-.596-1.373-.486-.499.11-.916.495-1.063.98-.139.459-.018.931.332 1.294.203.211.438.479.692.77.384.438.811.925 1.241 1.35.144.142.459.497.806.896a6 6 0 0 1-.604-.113c-.87-.224-1.503.297-1.679.924-.199.714.145 1.639 1.172 1.948.629.19 1.28.425 1.874.639.791.284 1.474.53 1.923.608l.133.022c.498.087 1.062.185 1.61.345q.07.02.14.02a.498.498 0 0 0 .14-.976c-.602-.176-1.195-.278-1.719-.369l-.133-.023c-.364-.062-1.041-.307-1.756-.563-.608-.22-1.277-.46-1.923-.655-.512-.154-.551-.543-.5-.727.041-.147.155-.304.473-.227.469.12 1.067.197 1.777.229l.255.301a.497.497 0 1 0 .762-.642c-.066-.078-1.623-1.922-2.049-2.344-.414-.408-.823-.876-1.192-1.298a25 25 0 0 0-.724-.805c-.099-.103-.129-.203-.096-.314a.46.46 0 0 1 .323-.295c.141-.03.283.028.415.176.47.527 1.053 1.144 1.563 1.672l.008.008.021.022a107 107 0 0 0 1.181 1.204.499.499 0 0 0 .705-.705c-.009-.009-.536-.536-1.184-1.207a.37.37 0 0 1-.082-.375.46.46 0 0 1 .313-.313c.176-.037.338.09.444.205q.232.251.442.468l.004.005.021.021c.55.566.955.934.976.954a.5.5 0 0 0 .67-.738 23 23 0 0 1-.945-.925c-.125-.143-.12-.276-.092-.364a.35.35 0 0 1 .243-.241c.184-.042.365.122.458.222l.169.183.016.017c.161.173.291.311.4.417a.5.5 0 0 0 .062.083l.013-.012c.323.298.446.269.692.042a.507.507 0 0 0 .027-.705l-.004-.005-.005-.006-.101-.109a.5.5 0 0 1 .252-.061c.406.03.94.724 1.307 1.244.754 1.068 1.05 1.945 1.311 2.719.306.908.595 1.765 1.511 2.591a.5.5 0 0 0 .667-.74Z"/></svg>