<!-- SPDX-FileCopyrightText: © 2025 Schneider Electric SPDX-License-Identifier: LicenseRef-Proprietary -->
<svg xmlns="http://www.w3.org/2000/svg" viewBox="0 0 16 16"><path fill="currentColor" d="M5.5 2.5h-2m2.5 0a.5.5 0 0 0-.5-.5h-2a.5.5 0 0 0 0 1h2a.5.5 0 0 0 .5-.5Zm1.611.052zm.189.458c.06-.02.12-.06.16-.1.1-.1.15-.23.15-.36 0-.06-.01-.13-.04-.19a.4.4 0 0 0-.11-.16c-.04-.05-.1-.08-.16-.11a.5.5 0 0 0-.38 0c-.06.03-.12.06-.16.11-.05.05-.09.1-.11.16-.03.06-.04.13-.04.19 0 .13.05.26.15.36.04.04.1.08.16.1.06.03.13.04.19.04.07 0 .13-.01.19-.04ZM5.5 13.5h-1m1.5 0a.5.5 0 0 0-.5-.5h-1a.5.5 0 0 0 0 1h1a.5.5 0 0 0 .5-.5Zm2.708 2.238a.5.5 0 0 0 .2-.482 5.2 5.2 0 0 1-.016-1.475l1.278 1.642a.499.499 0 1 0 .789-.613L6.028 8.472a.62.62 0 0 1 .097-.879.64.64 0 0 1 .894.096l3.579 4.418a.5.5 0 0 0 .778-.629L10.14 9.953q-.009-.014-.019-.025a.624.624 0 0 1 .096-.881c.255-.205 1.069-.069 1.311.229l1.056 1.224a.5.5 0 1 0 .757-.652l-.323-.374a.5.5 0 0 0-.07-.115.38.38 0 0 1-.092-.293c.018-.168.137-.355.318-.5.32-.257.99-.259 1.268-.134.426.19.733.447.736.45a.5.5 0 0 0 .647-.763c-.017-.014-.413-.349-.975-.601-.53-.237-1.625-.276-2.301.266a2 2 0 0 0-.511.609c-.644-.479-1.806-.638-2.446-.126a1.6 1.6 0 0 0-.417.497L7.796 7.061a1.64 1.64 0 0 0-2.295-.248 1.6 1.6 0 0 0-.602 1.094c-.046.433.079.857.347 1.188L8.1 12.764c-.235.574-.26 1.591-.22 2.238H2.067A1.07 1.07 0 0 1 1 13.935V2.062C1 1.477 1.477 1 2.062 1h5.876C8.523 1 9 1.477 9 2.062V2.5a.5.5 0 0 0 1 0v-.438A2.064 2.064 0 0 0 7.938 0H2.062A2.064 2.064 0 0 0 0 2.062v11.871A2.07 2.07 0 0 0 2.067 16h5.865c.396 0 .715-.218.775-.262Zm-3.985-4.772a.5.5 0 0 0-.088-.701 3 3 0 0 1-.484-.474 2.87 2.87 0 0 1-.629-2.13A2.88 2.88 0 0 1 4.596 5.71a2.942 2.942 0 0 1 4.438.935.5.5 0 0 0 .887-.461A3.946 3.946 0 0 0 3.97 4.928a3.87 3.87 0 0 0-1.443 2.625 3.86 3.86 0 0 0 .846 2.867c.19.234.409.447.647.633a.5.5 0 0 0 .702-.088Z"/></svg>