<!-- SPDX-FileCopyrightText: © 2025 Schneider Electric SPDX-License-Identifier: LicenseRef-Proprietary -->
<svg xmlns="http://www.w3.org/2000/svg" viewBox="0 0 16 16"><path d="M3.878 3.764a.5.5 0 0 0 .326-.879l-.573-.493c.827-.219 2.171-.483 3.511-.481 2.234.028 4.809.739 4.835.746a.5.5 0 0 0 .269-.963c-.11-.031-2.724-.753-5.091-.783-1.343-.008-2.617.222-3.506.442l.342-.609a.501.501 0 0 0-.872-.49l-.937 1.668a.5.5 0 0 0 .105.632l1.265 1.088c.095.082.21.121.326.121Zm9.954 11.258c-.443-.869-.416-1.542-.378-2.474.034-.843.077-1.893-.283-3.305-.29-1.14-.626-1.966-1.323-2.293-.315-.148-.675-.171-1.072-.069-.235-.441-.605-.724-1.041-.787a1.35 1.35 0 0 0-1.098.353 1.3 1.3 0 0 0-.775-.407 1.46 1.46 0 0 0-1.115.328 47 47 0 0 1-.349-.885c-.2-.526-.605-.872-1.112-.947a1.44 1.44 0 0 0-1.347.537c-.295.38-.351.866-.153 1.332.114.271.238.606.372.968.203.549.428 1.158.679 1.711.084.185.252.632.434 1.129a6 6 0 0 1-.524-.323c-.738-.522-1.516-.262-1.905.265-.441.597-.452 1.587.4 2.246.523.405 1.052.86 1.532 1.274.637.548 1.187 1.021 1.579 1.255l.113.066c.437.26.932.554 1.389.902a.5.5 0 0 0 .7-.095.5.5 0 0 0-.095-.701c-.503-.382-1.024-.691-1.483-.965l-.112-.066c-.317-.189-.861-.657-1.438-1.153-.494-.425-1.036-.892-1.573-1.308-.425-.328-.321-.707-.208-.86.092-.125.257-.23.524-.043.495.35 1.127.653 1.583.853l.131.372a.5.5 0 0 0 .945-.328c-.034-.098-.831-2.384-1.079-2.931-.241-.532-.457-1.118-.652-1.646-.14-.379-.27-.729-.389-1.012-.056-.132-.049-.236.023-.329a.46.46 0 0 1 .408-.16q.22.034.325.313c.577 1.521 1.547 3.696 1.557 3.717a.499.499 0 1 0 .913-.408c-.005-.012-.306-.686-.669-1.539l-.002-.005a.37.37 0 0 1 .053-.392c.099-.127.266-.208.405-.181.178.025.285.204.343.351q.13.324.251.607l.005.013c.314.733.564 1.228.577 1.253a.5.5 0 1 0 .892-.451c-.003-.007-.247-.49-.551-1.2-.069-.182-.016-.306.042-.38a.36.36 0 0 1 .314-.138c.185.026.298.244.349.372l.349.874.003.008.002.005a.51.51 0 0 0 .65.281c.312-.125.391-.224.262-.646l-.003-.01.016-.006a1 1 0 0 0-.047-.091l-.018-.05a.46.46 0 0 1 .267.032c.37.173.622 1.016.779 1.634.323 1.271.286 2.199.252 3.018-.039.96-.076 1.867.486 2.97a.5.5 0 1 0 .89-.455Z"/></svg>