<!-- SPDX-FileCopyrightText: © 2025 Schneider Electric SPDX-License-Identifier: LicenseRef-Proprietary -->
<svg xmlns="http://www.w3.org/2000/svg" viewBox="0 0 16 16"><path d="M3.093 5.607A4.613 4.613 0 0 1 7.701 1a4.612 4.612 0 0 1 4.456 5.784.5.5 0 0 0 .967.256A5.614 5.614 0 0 0 7.702 0a5.616 5.616 0 0 0-5.609 5.607 5.6 5.6 0 0 0 1.375 3.679.5.5 0 1 0 .754-.656 4.6 4.6 0 0 1-1.129-3.022Z"/><path d="M10.894 6.751a.5.5 0 0 0 .59-.389 3.866 3.866 0 0 0-3.783-4.64A3.866 3.866 0 0 0 4.509 7.76a.5.5 0 1 0 .826-.564 2.865 2.865 0 0 1 2.366-4.473 2.865 2.865 0 0 1 2.804 3.439.5.5 0 0 0 .389.59Z"/><path d="M13.471 9.363q-.344-.376-.933-.462c-.05-.482-.278-.873-.646-1.091a1.3 1.3 0 0 0-1.114-.099 1.3 1.3 0 0 0-.544-.646 1.42 1.42 0 0 0-1.115-.127c0-.471.006-.929.018-1.316.017-.551-.221-1.016-.653-1.275a1.43 1.43 0 0 0-1.421-.019c-.41.234-.644.653-.64 1.15.002.283-.011.691-.025 1.141-.022.689-.047 1.472-.027 2.064.003.106 0 .289-.006.517-.268.105-.546.314-.811.613-.64.724-1.253 2.041-1.057 3.571.148 1.159.607 1.794 1.051 2.408a.5.5 0 1 0 .81-.586c-.404-.56-.753-1.042-.869-1.949a3.66 3.66 0 0 1 .824-2.795c-.022.462-.046.899-.061 1.159a.5.5 0 1 0 .998.056c.006-.1.14-2.445.12-3.028-.019-.573.006-1.331.028-1.999.015-.466.028-.889.026-1.181-.001-.175.077-.24.135-.273a.43.43 0 0 1 .411.008q.176.106.168.388a72 72 0 0 0-.013 2.602l-.001.051q0 .03.002.058c.009.869.025 1.556.026 1.611.006.276.217.475.512.488a.5.5 0 0 0 .488-.512c0-.014-.017-.752-.027-1.675a.34.34 0 0 1 .183-.278.44.44 0 0 1 .416-.012c.144.085.171.28.169.429a26 26 0 0 0 0 .626v.036c.01.769.05 1.3.052 1.328a.5.5 0 0 0 .997-.076c0-.007-.04-.534-.049-1.285.007-.177.096-.264.17-.306a.32.32 0 0 1 .318-.008c.149.089.169.319.167.449-.004.354-.008.623 0 .825a.4.4 0 0 0-.012.103h.018c.031.43.141.504.475.509h.006a.51.51 0 0 0 .5-.496v-.138a.44.44 0 0 1 .195.115c.263.288.176 1.132.088 1.742-.182 1.257-.56 2.073-.893 2.793q-.17.36-.312.704a.5.5 0 1 0 .927.375c.088-.217.188-.433.293-.659.344-.743.772-1.668.974-3.07.164-1.133.169-2.002-.338-2.559Z"/></svg>