<!-- SPDX-FileCopyrightText: © 2025 Schneider Electric SPDX-License-Identifier: LicenseRef-Proprietary -->
<svg xmlns="http://www.w3.org/2000/svg" viewBox="0 0 16 16"><path d="M14.238 1.147a1.05 1.05 0 0 0-.226-.801.97.97 0 0 0-.739-.345c-1.37-.079-4.198 2.522-5.86 4.151-.369-.15-1.125-.354-2.112-.068-1.171.34-1.384 1.816-1.609 3.38-.145.999-.293 2.032-.682 2.743a.5.5 0 0 0 .878.479c.474-.868.636-1.992.793-3.079.17-1.181.346-2.402.898-2.562a2.4 2.4 0 0 1 1.027-.083q-.21.215-.332.344a.5.5 0 0 0 .724.69C9.725 3.138 12.645.798 13.243.984c.147.387-1.279 2.098-3.339 3.723a.498.498 0 0 0 .112.852c.211.09.45.227.574.323l-.09.206c-.194.433-.488 1.086-.042 1.532.213.213.424.312.578.385l.043.021a5 5 0 0 1-.086.184c-.144.299-.307.639-.182.977.072.193.205.323.323.438q.185.18.119.306c-.296.57-1.167 1.479-1.944 1.87-.373.188-.83.318-1.272.444-.581.165-1.082.308-1.422.577-.5.396-1.719 1.808-1.96 2.093l-.017-.033a30 30 0 0 0-.572-1.116c-.477-.902-1.07-2.026-1.339-2.801a.5.5 0 0 0-.944.328c.294.847.907 2.007 1.399 2.939.227.431.427.809.551 1.073.253.541.593.675.834.693l.062.002c.475 0 .775-.413.797-.453.376-.439 1.435-1.646 1.81-1.941.185-.146.638-.275 1.076-.399.464-.133.991-.282 1.449-.514 1.005-.507 2-1.568 2.381-2.301.409-.786-.094-1.275-.309-1.484l-.041-.038a4 4 0 0 1 .104-.226c.154-.321.346-.72.13-1.085-.158-.268-.392-.378-.563-.458-.088-.042-.162-.076-.231-.13.026-.124.125-.345.183-.473.114-.254.212-.474.212-.693q0-.42-.52-.789c1.065-.899 3.009-2.688 3.133-3.869Z"/></svg>