<!-- SPDX-FileCopyrightText: © 2025 Schneider Electric SPDX-License-Identifier: LicenseRef-Proprietary -->
<svg xmlns="http://www.w3.org/2000/svg" viewBox="0 0 16 16"><path d="M13.62 9.175c-1.48-3.204-.68-4.271-.682-4.271a.56.56 0 0 0 .059-.705c-.131-.191-.447-.286-.661-.203-.604.234-1.929 1.058-2.312 2.455-.949-1.14-2.195-3.266-.956-5.62A.545.545 0 0 0 9.003.19.61.61 0 0 0 8.37.042c-.045.019-1.104.466-1.988 1.667-.723.975-2.068 2.79-1.155 5.489.099.379.107.729.063 1.031-.479-1.202-1.416-1.828-2.782-1.865a.6.6 0 0 0-.411.098c-.188.138-.277.447-.185.661.753 1.742.63 2.686.512 3.598-.089.685-.181 1.393.081 2.338.389 1.406 1.174 2.229 2.669 2.769.604.16 1.199.172 1.648.172h.124c.13 0 .562-.028.68-.396.081-.245-.07-.582-.308-.686-.21-.091-.414-.344-.542-.676a2.5 2.5 0 0 1 .061-1.879c.183-.413.372-.674.571-.95.314-.434.635-.878.87-1.82.152.227.278.408.387.565.205.295.35.504.512.786.502.874.609 1.899.254 2.438a.5.5 0 0 0 .835.55c.569-.864.48-2.267-.222-3.487a11 11 0 0 0-.558-.857c-.238-.344-.554-.8-1.062-1.604a.5.5 0 0 0-.92.211c-.186 1.634-.52 2.096-.907 2.631-.211.292-.45.622-.675 1.13-.371.833-.4 1.823-.079 2.648q.075.192.17.361a4 4 0 0 1-.541-.093c-1.157-.419-1.7-.983-2.003-2.082-.208-.75-.136-1.303-.053-1.942.113-.87.239-1.841-.303-3.4.899.236 1.36.946 1.505 2.263a.503.503 0 0 0 .8.343c.643-.489 1.133-1.746.766-3.145-.756-2.237.301-3.663 1.056-4.681q.212-.283.433-.498C6.944 4.921 9.52 7.453 10.11 7.983a.5.5 0 0 0 .829-.439c-.123-.899.318-1.554.792-1.985-.07.842.102 2.13.973 4.016.502 1.203.561 2.241.175 3.088-.462 1.012-2.046 1.927-3.323 2.35a.5.5 0 1 0 .315.949c.313-.104 3.089-1.066 3.918-2.883.507-1.11.453-2.419-.168-3.906Z"/></svg>