<!-- SPDX-FileCopyrightText: © 2025 Schneider Electric SPDX-License-Identifier: LicenseRef-Proprietary -->
<svg xmlns="http://www.w3.org/2000/svg" viewBox="0 0 16 16"><path d="M13.79.507a.48.48 0 0 0-.432-.074L9.987 1.466V.499A.487.487 0 0 0 9.5.012h-2a.487.487 0 0 0-.487.487v1.384c-1.015-.636-2.205-.646-2.271-.646-1.387 0-2.802.954-3.441 2.319-.659 1.409-.388 2.993.743 4.348 2.695 3.227.326 5.424.226 5.515a.487.487 0 1 0 .646.729c.032-.028 3.189-2.901-.124-6.868-.891-1.067-1.107-2.243-.608-3.31.477-1.019 1.553-1.758 2.558-1.758.014 0 1.168.015 1.963.645-.689.428-1.691 1.328-1.691 2.943v9.057c0 1.082 2.438 1.199 3.487 1.199s3.487-.117 3.487-1.199V5.799c0-1.039-.569-2.008-1.522-2.594a.487.487 0 0 0-.51.83c.663.407 1.059 1.066 1.059 1.764v8.919c-.266.146-1.143.362-2.513.362s-2.248-.217-2.513-.362V5.799c0-1.712 1.607-2.318 1.676-2.343l.023-.009q0 0 0 0a.48.48 0 0 0 .3-.461V.987h1.026v1.139a.49.49 0 0 0 .629.466l3.371-1.033v1.415l-.775-.197a.487.487 0 1 0-.24.944l1.382.352a.485.485 0 0 0 .607-.471V.899c0-.154-.073-.3-.197-.392Z"/></svg>