<!-- SPDX-FileCopyrightText: © 2025 Schneider Electric SPDX-License-Identifier: LicenseRef-Proprietary -->
<svg xmlns="http://www.w3.org/2000/svg" viewBox="0 0 16 16"><path d="M15.88 5.639A181 181 0 0 1 13.019.446c-.104-.201-.338-.367-.594-.424a.77.77 0 0 0-.636.127c-.977.747-2.467 1.118-3.713.924C5.53.677 3.642 1.064 2.459 2.222l-.014-.032a.6.6 0 0 0-.058-.102c-.459-.62-1.024-.792-1.679-.514-.59.25-.866.933-.616 1.523l5.166 12.195a1.164 1.164 0 0 0 1.524.615c.6-.257 1.087-.912.828-1.525l-1.381-3.237a.5.5 0 0 0-.92.392l1.374 3.186c-.012.053-.136.197-.292.265a.166.166 0 0 1-.211-.086L1.013 2.707a.16.16 0 0 1 .086-.213c.171-.072.253-.106.449.144l.159.376a.72.72 0 0 0 1.222.176c.911-1.122 2.594-1.502 4.993-1.127 1.421.221 3.119-.173 4.297-.989.795 1.508 2.089 3.838 2.821 5.013-.836 1.155-2.01 1.512-4.193 1.264-1.868-.21-3.405-.005-4.581.619-.044.025-1.077.63-1.615 1.371a.499.499 0 1 0 .808.588c.412-.566 1.293-1.085 1.292-1.085.672-.357 1.908-.735 3.984-.499 2.567.287 4.046-.196 5.116-1.674.188-.262.2-.734.028-1.031Z"/></svg>