<!-- SPDX-FileCopyrightText: © 2025 Schneider Electric SPDX-License-Identifier: LicenseRef-Proprietary -->
<svg xmlns="http://www.w3.org/2000/svg" viewBox="0 0 16 16"><path d="M15.5 13H11v-2.5a.5.5 0 0 0-.5-.5h-.987C10.221 8.696 11.44 5.185 7.9.21a.5.5 0 0 0-.796-.024C7.059.242 2.88 5.501 5.545 10H4.5a.5.5 0 0 0-.5.5V13H.5a.5.5 0 0 0-.5.5v2a.5.5 0 0 0 .5.5h13a.5.5 0 0 0 0-1H1v-1h3.5a.5.5 0 0 0 .5-.5V11h1.501a.5.5 0 0 0 .389-.815c-2.627-3.251-.385-7.339.592-8.811 3.11 4.804 1.405 8.055.809 8.669a.5.5 0 0 0-.294.491.52.52 0 0 0 .371.456.5.5 0 0 0 .243.009H10v2.5a.5.5 0 0 0 .5.5H15v1.5a.5.5 0 0 0 1 0v-2a.5.5 0 0 0-.5-.5Z"/></svg>