<!-- SPDX-FileCopyrightText: © 2025 Schneider Electric SPDX-License-Identifier: LicenseRef-Proprietary -->
<svg xmlns="http://www.w3.org/2000/svg" viewBox="0 0 16 16"><path d="M4.597 16a.5.5 0 0 1-.268-.078C1.991 14.505.804 13.324.804 10.812c0-3.746 3.337-5.425 5.774-6.652l.588-.298a.501.501 0 0 1 .719.543c-.649 3.249-.101 4.232.083 4.456a.44.44 0 0 0 .364.182c.064-.027.277-.284.438-.669a.5.5 0 0 1 .788-.187c1.213 1.032 1.463 2.112 1.463 2.841 0 2.877-1.753 3.756-3.162 4.462-.287.145-.568.285-.827.439a.5.5 0 0 1-.16.062h-.051l-.046.002h-.038 0-.026a.5.5 0 0 1-.432-.424h0v-.002h0v-.003h0v-.002h0v-.002h0s0 0 0 0h0v-.002h0a.6.6 0 0 1 .001-.131h0v-.002h0v-.002h0v-.002h0s0 0 0 0h0v-.002h0v-.002h0v-.002s0 0 0 0h0v-.002a.5.5 0 0 1 .116-.242h0s0 0 0 0h0s0 0 0 0h0s0 0 0 0q0 0 0 0h0a.5.5 0 0 1 .076-.069c.286-.378.674-2.814-.082-3.549a.5.5 0 0 1 .696-.717c.86.834.779 2.466.705 3.128-.014.123-.036.29-.07.477 1.219-.625 2.295-1.328 2.295-3.41 0-.588-.223-1.14-.665-1.645-.237.34-.578.66-1.023.66-.451 0-.844-.189-1.138-.548-.738-.9-.702-2.681-.464-4.292-2.27 1.147-4.927 2.612-4.927 5.609 0 1.612.574 2.525 1.832 3.457a6.2 6.2 0 0 1-.013-1.588c.167-1.394.77-2.548 1.696-3.252a.5.5 0 0 1 .605.797c-.957.726-1.23 1.924-1.308 2.574-.13 1.085.09 2.031.365 2.378q.032.037.055.08a.5.5 0 0 1 .03.422.5.5 0 0 1-.223.257.5.5 0 0 1-.209.062h-.034Zm5.461-8.854a.5.5 0 0 1-.467-.679c.42-1.092.213-1.816-.026-2.655-.263-.921-.561-1.965.025-3.491a.5.5 0 1 1 .934.358c-.466 1.214-.249 1.976.003 2.858s.538 1.884-.002 3.288a.5.5 0 0 1-.467.321Zm2.181 0a.5.5 0 0 1-.467-.679c.42-1.092.214-1.816-.025-2.654-.263-.921-.561-1.966.025-3.491a.5.5 0 1 1 .934.358c-.466 1.214-.249 1.976.002 2.858.252.883.538 1.884-.002 3.288a.5.5 0 0 1-.467.32Zm2.183 0a.5.5 0 0 1-.467-.679c.419-1.092.213-1.816-.026-2.654-.263-.921-.561-1.966.025-3.491a.5.5 0 1 1 .934.358c-.466 1.214-.249 1.976.002 2.858.252.883.538 1.883-.001 3.287a.5.5 0 0 1-.467.321Z"/></svg>