<!-- SPDX-FileCopyrightText: © 2025 Schneider Electric SPDX-License-Identifier: LicenseRef-Proprietary -->
<svg xmlns="http://www.w3.org/2000/svg" viewBox="0 0 16 16"><path d="M6.141 9.787a.5.5 0 0 0 0 1c.42 0 .814-.112 1.125-.312.622.399 1.627.4 2.249 0 .311.2.704.312 1.124.312.63 0 1.199-.251 1.563-.732a.5.5 0 0 0-.01-.525l-2.086-3.234a2 2 0 0 1-.105-.274V4.264l.001-.014c.013-.124.031-.202.046-.25h.842a.5.5 0 0 0 0-1h-.967c-.238 0-.802.111-.916 1.145L9 4.229v1.868a.5.5 0 0 0 .021.143c.026.087.119.385.232.579l1.854 2.876a1.2 1.2 0 0 1-.469.093c-.354 0-.619-.141-.726-.28a.5.5 0 0 0-.396-.196h0a.5.5 0 0 0-.396.195c-.108.14-.375.281-.729.281s-.62-.141-.727-.28a.5.5 0 0 0-.396-.196h0a.5.5 0 0 0-.396.195c-.108.14-.375.281-.73.281Z"/><path d="m14.94 13.847-1.76-2.725a.499.499 0 1 0-.839.543l1.761 2.726c.116.178.05.341.016.403a.39.39 0 0 1-.346.206h0l-5.793-.016L2.252 15h0a.39.39 0 0 1-.346-.206.38.38 0 0 1 .016-.403l4.891-7.548c.124-.213.189-.456.189-.702V4.229c-.015-.756-.333-1.226-.83-1.226h-.934a.5.5 0 0 0 0 1h.736c.015.074.026.169.028.25v1.888a.4.4 0 0 1-.041.179l-4.882 7.526A1.393 1.393 0 0 0 2.249 16h.004l5.755-.016 5.759.016h.004a1.395 1.395 0 0 0 1.17-2.153ZM6.858 1.223a.446.446 0 1 0-.121-.885.446.446 0 1 0 .121.885Z"/><circle cx="7.993" cy="2.089" r=".447"/><path d="M9.022.894a.447.447 0 1 0 0-.894.447.447 0 0 0 0 .894Z"/></svg>