<!-- SPDX-FileCopyrightText: © 2025 Schneider Electric SPDX-License-Identifier: LicenseRef-Proprietary -->
<svg xmlns="http://www.w3.org/2000/svg" viewBox="0 0 16 16"><path d="M9.926 5.809a.495.495 0 0 0 .706-.032l4.279-4.688a.499.499 0 1 0-.738-.674L9.894 5.103a.5.5 0 0 0 .032.706ZM8.1 4.645a.5.5 0 0 0 .685-.175L10.986.755a.5.5 0 0 0-.86-.51L7.925 3.96a.5.5 0 0 0 .175.685ZM6.638 9.026a.5.5 0 0 0-.734.679c.047.053.306.32.745.344l.062.002c.335 0 .666-.146.982-.435.847-.771.613-1.534.372-1.829a.5.5 0 1 0-.775.633c0 .001.042.172-.271.458-.063.057-.277.236-.382.149Z"/><path d="M15.907 5.427a.5.5 0 0 0-.679-.196l-4.947 2.731c-.089-.497-.271-1.114-.644-1.514-.35-.375-1.183-.94-2.042-.957-.497.004-.907.156-1.232.479-.45.447-1.641 2.064-1.778 2.252-.057.079-.514.73-.645 1.37L.693 12.83c-.383.283-.985 1.056-.53 1.952.408.803 1.024 1.063 1.217 1.128.118.052.277.091.461.091.336 0 .753-.131 1.146-.56.344-.377 2.675-2.71 3.177-3.212.33-.091 1.067-.31 1.434-.557a8.4 8.4 0 0 0 1.389-1.123.5.5 0 1 0-.705-.711 7.4 7.4 0 0 1-1.243 1.004c-.215.146-.865.353-1.258.453a.5.5 0 0 0-.229.131c-.118.118-2.904 2.902-3.303 3.339-.264.287-.447.237-.551.197-.016-.005-.386-.126-.645-.634-.179-.353.166-.644.288-.743l3.418-3.401a.5.5 0 0 0 .146-.309c.03-.32.317-.827.487-1.066.353-.48 1.34-1.798 1.674-2.13a.64.64 0 0 1 .508-.188c.51.01 1.095.387 1.33.639.312.334.448 1.186.459 1.645a.5.5 0 0 0 .741.425l5.605-3.095a.5.5 0 0 0 .196-.679Z"/></svg>