<!-- SPDX-FileCopyrightText: © 2025 Schneider Electric SPDX-License-Identifier: LicenseRef-Proprietary -->
<svg xmlns="http://www.w3.org/2000/svg" viewBox="0 0 16 16"><path d="M13.5 13h-11a.5.5 0 0 0 0 1h11a.5.5 0 0 0 0-1Zm0 2h-11a.5.5 0 0 0 0 1h11a.5.5 0 0 0 0-1Zm2.185-9.85a2.73 2.73 0 0 0-1.371-1.325 3.06 3.06 0 0 0-1.961-.187C11.809 1.526 9.902 0 7.69 0a4.84 4.84 0 0 0-4.377 2.832h-.002c-.903 0-1.785.437-2.42 1.198-.718.86-1.029 2.011-.833 3.079.295 1.615 1.778 2.879 3.376 2.879H5.5a.5.5 0 0 0 0-1H3.434c-1.112 0-2.185-.924-2.393-2.059-.143-.78.088-1.625.617-2.259.511-.612 1.249-.902 1.92-.822a.49.49 0 0 0 .53-.325C4.66 2.013 6.099.999 7.689.999c1.916 0 3.543 1.448 3.786 3.369a.5.5 0 0 0 .718.386c.528-.261 1.14-.265 1.724-.011.375.163.69.466.863.833.354.755.276 1.694-.204 2.45-.383.603-.954.963-1.528.963H7.5a.5.5 0 0 0 0 1h5.548c.918 0 1.806-.533 2.373-1.427.661-1.042.763-2.349.264-3.412ZM13.5 11h-11a.5.5 0 0 0 0 1h11a.5.5 0 0 0 0-1Z"/></svg>