<!-- SPDX-FileCopyrightText: © 2025 Schneider Electric SPDX-License-Identifier: LicenseRef-Proprietary -->
<svg xmlns="http://www.w3.org/2000/svg" viewBox="0 0 16 16"><path d="M15.796 6.645c-.226-.396-.664-.667-1.085-.642H5.054c-.526-.035-1.076.375-1.238.897l-1.3 3.661a.496.496 0 1 0 .936.332l1.307-3.68c.039-.125.198-.215.27-.217h9.697c.042-.007.157.052.22.16a.5.5 0 0 1 .03.396l-2.218 6.243c-.036.116-.21.205-.258.207H1.67a.64.64 0 0 1-.456-.229.94.94 0 0 1-.217-.608L.989 2.989c.056-.309.168-.667.245-.762a.74.74 0 0 1 .467-.232h1.608c.13-.012.341.091.466.241.094.118.233.687.229 1.029v.234c0 .274.222.497.497.497H12.2a.72.72 0 0 1 .472.23.9.9 0 0 1 .18.322.496.496 0 1 0 .949-.296 1.9 1.9 0 0 0-.383-.682 1.64 1.64 0 0 0-1.225-.568H4.984c-.038-.416-.164-1.083-.452-1.41a1.66 1.66 0 0 0-1.23-.59H1.709c-.456-.011-.929.219-1.23.58-.29.331-.432 1.028-.476 1.321v10.258c-.005.47.172.949.468 1.273.306.354.759.56 1.213.562h10.841c.511 0 1.022-.39 1.175-.89l2.207-6.21c.154-.402.104-.914-.111-1.252Z"/></svg>