<!-- SPDX-FileCopyrightText: © 2025 Schneider Electric SPDX-License-Identifier: LicenseRef-Proprietary -->
<svg xmlns="http://www.w3.org/2000/svg" viewBox="0 0 16 16"><path d="M15.985 5.497a.5.5 0 0 0-.383-.602c-1.671-.354-3.014.345-3.731.862a7 7 0 0 0-.575-.942.5.5 0 0 0-.546-.181l-1.758.531a.501.501 0 0 0-.167.87c.405.322.714.826.903 1.194-.251.12-2.289 1.168-2.289 3.44 0 1.056.387 1.817.825 2.341H5.349c.004-1.312.013-4.753-.001-5.425-.01-.459-.691-2.336-1.347-3.099v-2.06a.84.84 0 0 0 .058-.614c-.087-.3-.411-.803-1.603-.803-.677 0-1.135.183-1.361.544a.97.97 0 0 0-.093.797v2.394L.027 7.601A.5.5 0 0 0 0 7.762v5.749a.5.5 0 1 0 1 0V7.845l.973-2.855A.5.5 0 0 0 2 4.829V2.263c0-.075-.037-.095-.07-.163 0 0 .104-.088.524-.088.312 0 .486.042.577.077a.5.5 0 0 0-.032.175v2.4a.5.5 0 0 0 .22.415c.267.333 1.115 1.968 1.127 2.529.018.805 0 5.852 0 5.902a.5.5 0 0 0 .5.501h4.836a.5.5 0 0 0 .201-.958c-.015-.006-1.446-.654-1.446-2.383 0-1.719 1.657-2.509 1.719-2.538.007-.003.214-.095.361-.129a.5.5 0 0 0 .356-.661c-.016-.041-.293-.78-.814-1.455l.626-.189c.18.283.403.684.484 1.009a.5.5 0 0 0 .356.362.51.51 0 0 0 .489-.136c.051-.053 1.156-1.157 2.733-1.133-.281.421-.843 1.001-1.932 1.398a.502.502 0 0 0-.019.932c.017.007 1.746.746 1.746 2.541 0 1.766-1.357 2.346-1.412 2.368a.5.5 0 1 0 .369.929c.083-.033 2.043-.838 2.043-3.298 0-1.478-.82-2.417-1.495-2.939 1.609-.907 1.921-2.172 1.936-2.234Z"/></svg>