<!-- SPDX-FileCopyrightText: © 2025 Schneider Electric SPDX-License-Identifier: LicenseRef-Proprietary -->
<svg xmlns="http://www.w3.org/2000/svg" viewBox="0 0 16 16"><path d="M12.952 8.363c-.85-.761-2.159-.858-2.895-.867v-.004a1 1 0 0 0-.05-.191l3.025-1.042a.5.5 0 0 0 .334-.529c-.017-.146-.438-3.565-2.956-3.565-2.024 0-2.682 2.495-2.871 3.573a2 2 0 0 0-.159.026L6.37 2.566a.5.5 0 0 0-.56-.343c-.251.042-2.475.453-3.272 1.78-.307.511-.362 1.101-.161 1.705.648 1.946 2.61 2.385 3.522 2.484l.02.271a.5.5 0 0 0 .054.191l.057.111-2.94.782a.5.5 0 0 0-.372.499c.042 1.311.709 3.789 2.942 3.789.739 0 1.347-.246 1.807-.732.953-1.004.876-2.679.872-2.75a.5.5 0 0 0-.525-.473.5.5 0 0 0-.473.526c0 .013.051 1.324-.599 2.009-.268.283-.622.42-1.082.42-1.425 0-1.806-1.652-1.907-2.43l3.133-.833a.5.5 0 0 0 .316-.711l-.293-.573-.045-.605a.5.5 0 0 0-.5-.463h-.002c-.047.024-2.428-.005-3.036-1.829-.11-.332-.089-.609.069-.873.383-.639 1.463-1.037 2.16-1.217l1.05 3.323a.5.5 0 0 0 .358.335c.171.04.348-.01.473-.133.145-.146.364-.091.38-.087a.502.502 0 0 0 .653-.429c.003-.031.348-3.149 1.943-3.149 1.242 0 1.729 1.544 1.892 2.288L9.037 6.574a.5.5 0 0 0-.329.404.51.51 0 0 0 .21.481c.058.041.145.134.154.193.061.358.029.27.029.269a.5.5 0 0 0 .123.431.5.5 0 0 0 .422.159c.494-.054 1.928-.048 2.642.594.309.277.458.647.458 1.132 0 1.645-1.546 2.153-2.294 2.302l-.826-2.726a.5.5 0 0 0-.957.291l.951 3.138a.48.48 0 0 0 .516.354c1.249-.093 3.61-.915 3.61-3.358 0-.775-.267-1.407-.792-1.878Z"/></svg>