<!-- SPDX-FileCopyrightText: © 2025 Schneider Electric SPDX-License-Identifier: LicenseRef-Proprietary -->
<svg xmlns="http://www.w3.org/2000/svg" viewBox="0 0 16 16"><path d="M14.43 2.489V.5a.5.5 0 0 0-.5-.5h-2a.5.5 0 0 0 0 1h1.5v1.477c-.065 2.639-1.795 4.658-4.626 5.399a.5.5 0 0 0-.374.483v4.892a.5.5 0 0 0 .338.473l3.662 1.253-9 .023 3.662-1.276a.5.5 0 0 0 .338-.473V8.359a.5.5 0 0 0-.374-.483c-2.832-.741-4.562-2.76-4.626-5.387V1h6.772l.722.622-1.375.866a.498.498 0 0 0-.087.776l.729.732-1.093.845a.5.5 0 0 0 .613.791l1.541-1.192a.5.5 0 0 0 .048-.748l-.688-.691 1.419-.893a.498.498 0 0 0 .06-.802L9.714.121A.5.5 0 0 0 9.388 0H1.93a.5.5 0 0 0-.5.5v2.001c.074 2.991 1.934 5.297 5 6.236v4.156l-3.662 1.253a.5.5 0 0 0-.338.473v.881a.5.5 0 0 0 .5.5h10a.5.5 0 0 0 .5-.5v-.881a.5.5 0 0 0-.338-.473L9.43 12.893V8.737c3.065-.938 4.926-3.246 5-6.248Z"/></svg>