<!-- SPDX-FileCopyrightText: © 2025 Schneider Electric SPDX-License-Identifier: LicenseRef-Proprietary -->
<svg xmlns="http://www.w3.org/2000/svg" viewBox="0 0 16 16"><path d="M15.926 8.762A.5.5 0 0 0 15.5 8H9V.5a.5.5 0 0 0-1 0V8H.5a.5.5 0 0 0 0 1h1.659L.167 11.002a.5.5 0 1 0 .709.705L3.57 9h2.702L.181 15.121a.5.5 0 1 0 .709.705L7.682 9h2.344l-6.093 6.125a.5.5 0 1 0 .709.706l6.795-6.83h2.884l-6.094 6.125a.5.5 0 0 0 .709.705l6.89-6.925a.5.5 0 0 0 .1-.144Zm-.798 3.7-2.673 2.686a.5.5 0 0 0 .709.706l2.673-2.686a.5.5 0 0 0-.709-.705Z"/></svg>