<!-- SPDX-FileCopyrightText: © 2025 Schneider Electric SPDX-License-Identifier: LicenseRef-Proprietary -->
<svg xmlns="http://www.w3.org/2000/svg" viewBox="0 0 16 16"><path d="M9.742 11.813a.5.5 0 0 0-.625-.33l-.62.191v-.74a.5.5 0 0 0-1 0v.743l-.643-.195a.5.5 0 0 0-.291.957l.612.186-.417.568a.499.499 0 1 0 .805.592l.428-.582.414.577a.5.5 0 0 0 .698.115.5.5 0 0 0 .115-.697l-.411-.573.604-.187a.5.5 0 0 0 .33-.625Zm4.011-.878a.5.5 0 0 0-1 0v.761l-.643-.195a.5.5 0 0 0-.291.957l.613.187-.417.567a.499.499 0 1 0 .805.592l.428-.582.414.577a.5.5 0 0 0 .698.115.5.5 0 0 0 .115-.697l-.41-.573.604-.187a.499.499 0 1 0-.295-.955l-.62.191zM4.646 7l.55.014.809 1.981a.5.5 0 1 0 .926-.378l-.928-2.273a.5.5 0 0 0-.184-.234.5.5 0 0 0-.282-.088l-.878-.023a1.504 1.504 0 0 1-1.502-1.502c0-.888.823-1.586 1.679-1.491.23.03.447-.107.526-.323A2.59 2.59 0 0 1 7.779.999a2.58 2.58 0 0 1 2.555 2.246.5.5 0 0 0 .716.385 1.25 1.25 0 0 1 1.794 1.121 1.25 1.25 0 0 1-1.247 1.247H7.706a.5.5 0 0 0-.5.5v.017a.5.5 0 0 0 .037.209L8.28 9.268a.5.5 0 1 0 .926-.378l-.771-1.893h1.078l1.316 3.29a.5.5 0 1 0 .929-.372L10.59 6.997h1.007l.079-.001.807 1.909a.499.499 0 1 0 .921-.389l-.752-1.781a2.25 2.25 0 0 0 1.193-1.984 2.25 2.25 0 0 0-2.641-2.213 3.585 3.585 0 0 0-3.423-2.54 3.59 3.59 0 0 0-3.209 1.998 2.506 2.506 0 0 0-2.413 2.5 2.503 2.503 0 0 0 2.489 2.502Zm9.9 7.99H1.52a.5.5 0 0 0 0 1h13.027a.5.5 0 0 0 0-1ZM1.348 12.468l.613.187-.417.567a.499.499 0 1 0 .805.592l.428-.582.414.577a.5.5 0 0 0 .698.115.5.5 0 0 0 .115-.697l-.41-.573.604-.187a.499.499 0 1 0-.295-.955l-.591.183v-.749a.5.5 0 0 0-1 0v.77l-.672-.204a.5.5 0 0 0-.291.957Z"/></svg>