<!-- SPDX-FileCopyrightText: © 2025 Schneider Electric SPDX-License-Identifier: LicenseRef-Proprietary -->
<svg xmlns="http://www.w3.org/2000/svg" viewBox="0 0 16 16"><path d="M15.996 4.607C15.961 4.339 15.735 3 14.761 3h-2.885a.5.5 0 0 0-.47.33l-.242.67H5.201l-.185-.639A.5.5 0 0 0 4.536 3H1.562C.656 3 0 4.068 0 4.789v6.707c0 .802.75 1.505 1.606 1.505h3.099a.5.5 0 0 0 .479-.356l.194-.644H9.5a.5.5 0 0 0 0-1H5.006a.5.5 0 0 0-.479.356l-.194.644H1.606c-.352 0-.606-.302-.606-.505V4.789C1 4.503 1.325 4 1.562 4H4.16l.185.639a.5.5 0 0 0 .48.361h6.69a.5.5 0 0 0 .47-.33l.242-.671 2.497-.008c.099.063.237.434.276.682v6.863c0 .187-.229.464-.545.464H12V6.5a.5.5 0 0 0-1 0v6a.5.5 0 0 0 .5.5h2.955c.823 0 1.545-.684 1.545-1.464z"/></svg>