<!-- SPDX-FileCopyrightText: © 2025 Schneider Electric SPDX-License-Identifier: LicenseRef-Proprietary -->
<svg xmlns="http://www.w3.org/2000/svg" viewBox="0 0 16 16"><circle cx="12.509" cy="12.51" r=".5"/><path d="m9.403 10.095.871.565a.5.5 0 0 0 .597-.04c.046-.038 1.12-.971 1.568-2.68a.5.5 0 0 0-.267-.578 10 10 0 0 0-.931-.359 4.8 4.8 0 0 0 .007-1.464l.929-.433a.5.5 0 0 0 .255-.634c-.022-.058-.562-1.43-1.621-2.537a.5.5 0 0 0-.633-.074c-.221.143-.526.368-.766.55a5.1 5.1 0 0 0-1.369-.766l.076-.973a.5.5 0 0 0-.363-.521C7.698.135 6.341-.233 4.613.238a.5.5 0 0 0-.368.516c.018.255.066.624.11.921-.463.181-.9.43-1.29.736-.999-.723-1.093-.705-1.295-.663a.5.5 0 0 0-.25.134c-.356.354-1.642 2.16-1.498 2.912.03.156.132.288.275.357.436.208 1.305.516 1.342.529a.5.5 0 0 0 .333-.943 24 24 0 0 1-.888-.334c.167-.401.574-1.092.9-1.525.224.151.539.374.809.573a.5.5 0 0 0 .637-.036 4.1 4.1 0 0 1 1.626-.923c.128-.038.24-.105.303-.223s.08-.236.041-.364c0 0-.066-.407-.114-.796a5.8 5.8 0 0 1 1.801-.064l-.068.869a.8.8 0 0 0 .042.252.5.5 0 0 0 .336.32c.617.177 1.191.5 1.659.936.199.184.467.209.656.021.002-.002.334-.262.658-.497.436.53.751 1.092.936 1.464l-.736.342a.504.504 0 0 0-.375.605 3.85 3.85 0 0 1-.017 1.857.5.5 0 0 0 .334.603c.157.05.517.168.831.286a4.9 4.9 0 0 1-.87 1.496l-.837-.543a.5.5 0 0 0-.609.051 4.1 4.1 0 0 1-1.654.915.5.5 0 0 0-.353.592c.031.142.102.475.148.778-.57.139-1.358.067-1.885-.017l.024-.909a.5.5 0 0 0-.348-.489 4.1 4.1 0 0 1-1.562-.923.5.5 0 0 0-.684-.004 16 16 0 0 1-.694.603 4.9 4.9 0 0 1-.916-1.505l3.034-1.482a.5.5 0 0 0 .28-.449c0-.955.808-1.732 1.8-1.732s1.801.777 1.801 1.732-.808 1.732-1.801 1.732c-.422 0-.832-.144-1.154-.403a.5.5 0 0 0-.628.779 2.85 2.85 0 0 0 1.782.624c1.544 0 2.801-1.226 2.801-2.732S7.761 3.485 6.217 3.485c-1.433 0-2.617 1.055-2.781 2.411L.28 7.436a.5.5 0 0 0-.27.551c.012.059.314 1.46 1.613 2.69a.5.5 0 0 0 .616.057c.243-.157.575-.437.822-.652.375.295.794.537 1.238.717l-.026.973a.5.5 0 0 0 .387.501c.13.03.886.196 1.714.196.542 0 1.114-.071 1.564-.298a.5.5 0 0 0 .273-.479 8 8 0 0 0-.124-.855 5.2 5.2 0 0 0 1.316-.741Z"/><path d="M15.806 11.42a.5.5 0 0 0-.536-.337 5 5 0 0 0-.307.051 3 3 0 0 0-.252-.387c.261-.419.288-.539.238-.729a.5.5 0 0 0-.147-.242c-.151-.138-1.228-.883-1.765-.741a.5.5 0 0 0-.34.294c-.099.237-.242.732-.242.732l.961.277.062-.209c.105.05.223.111.33.173-.074.118-.142.22-.143.221a.5.5 0 0 0 .073.635c.205.197.365.444.462.715.091.257.338.401.594.315l.167-.036q.034.22.037.395l-.208-.005a.7.7 0 0 0-.226.048.5.5 0 0 0-.3.354 1.84 1.84 0 0 1-.382.779.504.504 0 0 0 .014.653s.051.058.117.137a4 4 0 0 1-.298.215l-.051-.093a.5.5 0 0 0-.627-.346 1.75 1.75 0 0 1-.839.041.494.494 0 0 0-.582.367l-.048.182a2 2 0 0 1-.315-.162l.145-.254a.5.5 0 0 0-.085-.604 1.9 1.9 0 0 1-.461-.729.495.495 0 0 0-.61-.318c-.003 0-.06.018-.14.038a3 3 0 0 1-.011-.441l.248-.007a.501.501 0 0 0-.03-1l-.687.021a.5.5 0 0 0-.479.415c-.033.198-.185 1.217.178 1.847a.5.5 0 0 0 .496.246c.08-.01.178-.029.273-.05q.113.21.26.4l-.183.32a.5.5 0 0 0 .073.593c.06.062.604.606 1.554.798q.05.01.099.01c.2 0 .386-.12.463-.312.035-.087.075-.207.11-.326q.111.003.225-.004.109-.006.221-.021l.167.312a.5.5 0 0 0 .647.219c.031-.015.764-.353 1.335-.965a.5.5 0 0 0 .037-.637 6 6 0 0 0-.201-.253q.133-.222.225-.463l.326.007c.234-.016.448-.159.499-.393.007-.033.171-.806-.145-1.744Z"/></svg>