<!-- SPDX-FileCopyrightText: © 2025 Schneider Electric SPDX-License-Identifier: LicenseRef-Proprietary -->
<svg xmlns="http://www.w3.org/2000/svg" viewBox="0 0 16 16"><path d="M8 0a8.03 8.03 0 0 0-6.933 4.005.5.5 0 0 0-.066.276c.021.402.35.903.782 1.192.422.282.909.35 1.371.186.766-.269 1.323-.875 1.771-1.362.234-.254.587-.639.731-.646.117-.006.465-.022.544.054.04.038.087.176.087.439 0 .219.143.413.352.478l.855.266a.498.498 0 0 0 .647-.511c-.033-.487.007-1.036.086-1.325.054.111.111.259.159.38.147.375.33.842.701 1.309.612.772 1.637 2.064 1.637 2.839 0 1.218-1.152 2.41-2.029 2.924a1 1 0 0 1-.113-.133.503.503 0 0 0-.711-.135c-.12.085-.287.165-.388.189q-.046-.11-.099-.246c-.225-.581-.602-1.555-1.699-1.672-.966-.104-1.688.18-2.167.368-.164.064-.367.144-.44.144-.349 0-.624 0-.9-1.061C1.72 6.199.879 6.008.715 5.988a.506.506 0 0 0-.551.396A8 8 0 0 0 0 8c0 4.411 3.589 8 8 8a8.04 8.04 0 0 0 6.889-3.931l.102-.178a.5.5 0 0 0-.104-.61c-.413-.374-1.302-.664-2.055.068a5 5 0 0 0-.316.369c-.146.185-.538.675-.686.72-.092 0-.169-.079-.197-.112a.5.5 0 0 1-.119-.369c.052-.33.832-1.043 1.528-1.502a.5.5 0 0 0 .201-.57c-.1-.311-.213-.731-.222-.869-.019-.276.081-.526.135-.551.411.165.422.231.479.603.027.176.059.371.127.591.235.752 1.227.86 1.423.875a.486.486 0 0 0 .518-.364 8 8 0 0 0 .298-2.169C16 3.589 12.411 0 8 0Zm6.852 9.439a.34.34 0 0 1-.135-.08c-.052-.165-.073-.312-.094-.444-.087-.568-.223-1.031-1.096-1.38-.337-.134-.675-.099-.952.102-.428.312-.585.951-.552 1.446.014.195.091.504.16.749-.576.416-1.54 1.214-1.658 1.97-.063.406.066.845.347 1.173.256.299.596.463.958.463.594 0 1.078-.607 1.468-1.096.093-.115.171-.218.231-.276a.57.57 0 0 1 .282-.164A7.04 7.04 0 0 1 7.999 15c-3.86 0-7-3.141-7-7q0-.194.011-.388c.068.158.136.354.199.598.415 1.59 1.143 1.809 1.868 1.809.262 0 .513-.099.805-.213.435-.171.971-.381 1.697-.305.456.049.648.461.872 1.038.061.157.117.3.176.413.12.233.323.395.57.454.307.075.617-.017.861-.129.289.243.654.356 1.003.166 1.07-.573 2.662-2.076 2.662-3.864 0-1.124-1.071-2.474-1.885-3.499-.246-.311-.393-.685-.522-1.014-.2-.511-.45-1.147-1.132-1.147a.82.82 0 0 0-.612.272c-.253.271-.367.74-.414 1.189a1.1 1.1 0 0 0-.269-.399c-.358-.342-.845-.35-1.282-.329-.554.027-.974.484-1.419.968-.392.426-.837.91-1.367 1.096a.5.5 0 0 1-.44-.046 1 1 0 0 1-.339-.347A7.03 7.03 0 0 1 7.999 1c3.859 0 7 3.14 7 7q0 .73-.148 1.439Z"/></svg>