<!-- SPDX-FileCopyrightText: © 2025 Schneider Electric SPDX-License-Identifier: LicenseRef-Proprietary -->
<svg xmlns="http://www.w3.org/2000/svg" viewBox="0 0 16 16"><path d="M15.5 15H1V3h12.5a.5.5 0 0 0 0-1H1v-.5a.5.5 0 0 0-1 0v14a.5.5 0 0 0 .5.5h15a.5.5 0 0 0 0-1Z"/><path d="M10 12.5a.5.5 0 0 0 .5.5h3.012a.5.5 0 0 0 .179-.038h0a.5.5 0 0 0 .309-.453h0V9.5a.5.5 0 0 0-1 0v1.784L8.249 6.485a.5.5 0 0 0-.614-.076L5.828 7.502 4.367 4.751a.5.5 0 0 0-.425-.265.47.47 0 0 0-.442.237L1.979 7.195a.5.5 0 0 0 .852.524l1.064-1.728 1.3 2.447a.5.5 0 0 0 .701.193l1.922-1.163 4.486 4.531h-1.801a.5.5 0 0 0-.5.5Z"/></svg>