<!-- SPDX-FileCopyrightText: © 2025 Schneider Electric SPDX-License-Identifier: LicenseRef-Proprietary -->
<svg xmlns="http://www.w3.org/2000/svg" viewBox="0 0 16 16"><path d="M15.5 13H1V6.447l1.93 1.899c.195.192.509.19.704-.002l2.01-2.003 1.416 1.41a.5.5 0 0 0 .704.002l4.237-4.168v1.916a.5.5 0 0 0 1 0v-3a.5.5 0 0 0-.447-.497.5.5 0 0 0-.145-.021H9.453a.5.5 0 0 0 0 1h1.735L7.415 6.694 5.998 5.282a.5.5 0 0 0-.706 0L3.279 7.287.851 4.897A.5.5 0 0 0 0 5.254v8.247a.5.5 0 0 0 .5.5h15a.5.5 0 0 0 0-1Z"/></svg>