<!-- SPDX-FileCopyrightText: © 2025 Schneider Electric SPDX-License-Identifier: LicenseRef-Proprietary -->
<svg xmlns="http://www.w3.org/2000/svg" viewBox="0 0 16 16"><path d="M15.5 13H1V2.85l2.282 2.243a.5.5 0 0 0 .699.002l1.881-1.831L11.332 9H9.5a.5.5 0 0 0 0 1h3.035a.5.5 0 0 0 .271-.104h0a.5.5 0 0 0 .192-.394v-.005l-.014-2.998a.5.5 0 0 0-.5-.498h-.002a.5.5 0 0 0-.498.502l.008 1.743-5.755-6.038a.5.5 0 0 0-.711-.013L3.633 4.037.851 1.301A.5.5 0 0 0 0 1.658V13.5a.5.5 0 0 0 .5.5h15a.5.5 0 0 0 0-1Z"/></svg>