<!-- SPDX-FileCopyrightText: undefined SPDX-License-Identifier: undefined -->
<svg xmlns="http://www.w3.org/2000/svg" viewBox="0 0 16 16"><path d="M15.5 16a.5.5 0 0 1-.38-.175l-.789-.921h0l-3.797-4.431h-4.3l-1.432 1.432-.002.002-3.946 3.946a.5.5 0 0 1-.707-.707l.964-.965a.5.5 0 0 1-.073-.261V3.511a.5.5 0 0 1 .775-.417l2.91 1.92a.5.5 0 0 1 .225.417v2.175a.5.5 0 0 1-1 0V5.701l-1.91-1.26v8.815l1.91-1.909V9.186a.5.5 0 0 1 1 0v1.161l.726-.726a.5.5 0 0 1 .353-.146h.828V6.028a.5.5 0 0 1 .5-.5h2.137a.5.5 0 0 1 .5.5v1.579a.5.5 0 0 1-1 0V6.528H7.855v2.947h1.137v-.289a.5.5 0 0 1 1 0v.289h.771c.146 0 .284.063.38.175l.699.815V5.432a.5.5 0 0 1 .226-.418l2.179-1.429a.498.498 0 0 1 .775.418v3.604a.5.5 0 0 1-1 0V4.929l-1.179.773v5.853l-.005.072 1.184 1.381V9.187a.5.5 0 0 1 1 0v4.987l.07.082h0l.788.921a.5.5 0 0 1-.38.825ZM10.763 4.947H5.632a.5.5 0 0 1-.305-.104L.195.896a.5.5 0 0 1 .61-.792l4.997 3.844h4.781L15.18.116a.5.5 0 0 1 .641.769l-4.737 3.947a.5.5 0 0 1-.32.116Z"/></svg>