<!-- SPDX-FileCopyrightText: © 2025 Schneider Electric SPDX-License-Identifier: LicenseRef-Proprietary -->
<svg xmlns="http://www.w3.org/2000/svg" viewBox="0 0 16 16"><path d="m15.498 11.082-.087-.051c-.102-.058-.371-.212-.418-.288-.143-.384-.107-1.049-.081-1.535.01-.195.02-.375.02-.524 0-.467-.197-1.018-.37-1.504-.066-.184-.154-.431-.213-.584.67-.305 1.081-1.262 1.081-2.609 0-.923-.197-1.857-.541-2.563C14.442.506 13.76 0 12.968 0H7.605a.5.5 0 0 0 0 1h5.363c.498 0 .831.468 1.022.861.274.566.439 1.36.439 2.125 0 1.025-.294 1.713-.567 1.713a.5.5 0 0 0-.429.243c-.236.393-.05.914.186 1.574.146.409.312.873.312 1.167 0 .134-.009.296-.019.472-.032.604-.072 1.357.143 1.935.128.349.467.58.788.769.118.556.22 2.46.108 3.142H9.829c-.143-.51.403-2.395.707-2.931.181-.317.812-.521 1.09-.569a.5.5 0 0 0 .414-.519c-.206-4.074-.92-4.074-1.263-4.074-.202 0-.698-.387-1.006-.733a.5.5 0 0 0-.374-.168H6.623l-.643-.643a.5.5 0 0 0-.354-.146H4.495c-.332 0-.834-.463-1.128-.835V2.998c.283-.176.757-.417 1.152-.417h1.005V3.66a.5.5 0 0 0 1 0V2.081a.5.5 0 0 0-.5-.5H4.519c-.942 0-1.855.68-1.957.757a.5.5 0 0 0-.196.397v.425H.5a.5.5 0 0 0 0 .998h1.868v.401c0 .139.057.266.149.356.222.294 1.048 1.301 1.979 1.301h.924l.643.643a.5.5 0 0 0 .354.146h2.766c.281.285.845.786 1.407.885.177.376.349 1.596.428 2.733-.427.136-1.046.416-1.35.951-.12.212-1.277 2.96-.677 3.992.16.274.435.433.753.433h5.5c.143 0 .491-.058.638-.589.137-.499.235-3.961-.384-4.329Z"/></svg>