<!-- SPDX-FileCopyrightText: © 2025 Schneider Electric SPDX-License-Identifier: LicenseRef-Proprietary -->
<svg xmlns="http://www.w3.org/2000/svg" viewBox="0 0 16 16"><path d="M15.368 6.402a1.8 1.8 0 0 0-.561-.438c.238-.202.396-.336.438-.369a.5.5 0 0 0 .069-.067 1.26 1.26 0 0 0-.072-1.706 1.8 1.8 0 0 0-.483-.415l.16-.128c.396-.382.764-1.191.154-1.85-.723-.782-1.514-.593-1.85-.37l-.459.337a1.5 1.5 0 0 0-.301-.542c-.649-.763-1.496-.57-1.895-.263-.114.083-1.846 1.34-3.414 2.577.214-.545.335-1.096.25-1.571C7.286.937 7.026.471 6.63.21a1.22 1.22 0 0 0-.917-.187.5.5 0 0 0-.168.074q-.079.045-.14.12L1.313 5.299c-.398.376-.938 1.354-.133 2.36.198.247.214.268-.204.761-.226.266-.506.597-.698 1.046a.5.5 0 1 0 .92.392c.133-.311.34-.556.541-.792.379-.447.951-1.122.222-2.033-.401-.501-.068-.901.085-1.058L6.04 1.021c.141.066.296.285.379.751.148.832-.936 2.52-1.655 3.389a.5.5 0 0 0 .611.765.5.5 0 0 0 .261-.145c1.137-1.2 5.475-4.348 5.521-4.382.187-.134.371-.099.543.104.142.167.124.297.079.378-.49.393-2.523 2.056-3.394 2.769l-.4.307a.5.5 0 1 0 .611.791l.013-.01.01.012.385-.315c1.654-1.258 4.771-3.542 4.772-3.545.057-.03.262-.105.56.218.154.167-.071.409-.079.421L9.375 6.43l.624.781 3.632-2.904.071-.032c.127-.069.456-.191.773.193l.006.007c.14.172.123.305.08.384-.663.537-4.413 3.651-4.527 3.746a.5.5 0 0 0 .621.783c.826-.633 2.073-1.671 3.067-2.508l.01-.004a.715.715 0 0 1 .88.184c.13.15-.157.438-.168.448a.5.5 0 0 0-.073.086c-.807.843-3.899 3.503-4.815 3.872-.458.185-1.008.3-1.54.412-.679.143-1.266.267-1.664.524-.584.378-2.596 2.174-3.028 2.562l-.001-.002c-.532-.669-1.647-2.271-2.376-3.72a.5.5 0 1 0-.893.449c.763 1.517 1.93 3.192 2.488 3.894.255.32.534.401.724.414l.057.002a.92.92 0 0 0 .607-.235c.667-.6 2.499-2.221 2.967-2.523.243-.157.794-.273 1.327-.386.547-.115 1.167-.246 1.708-.463 1.164-.47 4.437-3.346 5.174-4.119l.051-.062c.398-.389.769-1.169.212-1.809Z"/></svg>