<!-- SPDX-FileCopyrightText: © 2025 Schneider Electric SPDX-License-Identifier: LicenseRef-Proprietary -->
<svg xmlns="http://www.w3.org/2000/svg" viewBox="0 0 16 16"><path d="M16 11.665V7.924C16 3.185 12.763 0 7.945 0 3.193 0 0 4.21 0 8.142v3.568c-.003.055-.033.544.31.916.157.171.448.374.942.374H2v1.514C2 15.333 2.654 16 3.542 16 4.346 16 5 15.333 5 14.514V9.462C5 8.656 4.342 8 3.449 8c-.809 0-1.466.656-1.466 1.474l.028 1.202c.006.276.234.469.512.488a.5.5 0 0 0 .488-.512l-.028-1.19c0-.255.209-.462.551-.462.257 0 .466.207.466.462v5.052c0 .269-.205.486-.542.486-.252 0-.458-.218-.458-.486V12.5a.5.5 0 0 0-.5-.5H1.252c-.1 0-.175-.019-.205-.05-.037-.038-.049-.128-.047-.199V8.142C1 4.693 3.791 1 7.945 1 12.231 1 15 3.718 15 7.924l.003 3.795c.004.036-.006.18-.056.236-.035.039-.127.045-.178.045H13.5a.5.5 0 0 0-.5.5v2.047c0 .25-.198.453-.441.453h-.117a.45.45 0 0 1-.441-.453V9.453c0-.25.198-.453.441-.453h.118c.243 0 .441.203.441.45l-.004 1.048a.5.5 0 0 0 .498.502h.002a.5.5 0 0 0 .5-.498l.004-1.05c0-.801-.646-1.452-1.441-1.452h-.118c-.795 0-1.441.652-1.441 1.453v5.094c0 .801.646 1.453 1.441 1.453h.117c.795 0 1.441-.652 1.441-1.453V13h.769c.483 0 .768-.205.923-.377.36-.402.312-.951.309-.958Z"/></svg>