<!-- SPDX-FileCopyrightText: © 2025 Schneider Electric SPDX-License-Identifier: LicenseRef-Proprietary -->
<svg xmlns="http://www.w3.org/2000/svg" viewBox="0 0 16 16"><path d="M11.066.197a.5.5 0 0 0-.382.924c1.07.443 2.745 1.995 2.231 5.001a7.8 7.8 0 0 1-.441 1.569c-.097-.901-.61-1.656-1.311-2.002.044-.821.025-1.679-.156-2.272-.53-1.726-1.571-2.866-3.094-3.39a.499.499 0 1 0-.325.945c1.221.42 2.026 1.315 2.462 2.737.13.424.15 1.09.119 1.781-1.144.08-2.054 1.176-2.054 2.511 0 .684.233 1.32.647 1.789-.264 1.319-.557 2.292-.821 2.916-.342-.461-.684-.828-.938-.9-.288-.083-.617.008-1.036.123-.245.067-.819.227-.963.15-.043-.068-.009-.34.005-.456.033-.262.07-.559-.154-.784-.151-.151-.335-.185-.47-.209-.044-.008-.11-.021-.107-.01 0 0-.023-.043-.023-.174 0-.135-.118-.326-.215-.42l-.041-.039c.163-.281.46-.849.028-1.282-.167-.166-.386-.209-.597-.251-.209-.042-.338-.076-.41-.131.08-.139.259-.366.386-.527.295-.375.6-.761.688-1.104.025-.072.24-.726-.006-1.36l-.063-.155c-.173-.418-.322-.78.004-1.547.471-1.111 1.214-1.847 2.27-2.249a.5.5 0 0 0-.355-.935C4.619.95 3.692 1.863 3.109 3.238c-.49 1.153-.212 1.828-.008 2.32l.055.136c.096.246.027.568-.018.706-.047.18-.319.525-.518.777-.419.532-.782.992-.578 1.467.244.567.792.709 1.128.778l-.061.105c-.306.523-.068.895.158 1.138.073.594.443.809.741.901-.045.377-.092 1.056.514 1.388.492.274 1.139.097 1.708-.061.149-.04.362-.099.477-.114.136.125.37.432.623.797-.881.511-1.995.862-2.315.833a.5.5 0 0 0-.767.424c0 .186-.336.186-.336 0a.5.5 0 0 0-1 0 1.17 1.17 0 0 0 2.19.566c.969-.029 2.414-.789 2.771-.985.223.367.411.709.498.926a.5.5 0 1 0 .928-.371c-.064-.16-.354-.709-.721-1.307.457-.777.863-2.096 1.215-3.94a.5.5 0 0 0-.161-.469c-.325-.286-.519-.753-.519-1.25 0-.744.422-1.364.977-1.492-.06.584-.137 1.105-.191 1.413a.5.5 0 1 0 .984.174c.022-.124.106-.616.18-1.257.26.278.426.696.426 1.162 0 .357-.368 1.01-.63 1.359a.498.498 0 0 0 .637.74l.177-.095c.844-.451 1.254-.7 1.372-1.038q.095-.26.207-.534c.217-.535.486-1.202.647-2.145.542-3.175-1.033-5.348-2.835-6.093Z"/></svg>