<!-- SPDX-FileCopyrightText: © 2025 Schneider Electric SPDX-License-Identifier: LicenseRef-Proprietary -->
<svg xmlns="http://www.w3.org/2000/svg" viewBox="0 0 16 16"><path d="M15.411 5.01a2.6 2.6 0 0 0-1.274-1.309c-.644-.302-1.322-.379-1.966-.229-.533-1.958-2.356-3.37-4.467-3.37-1.8 0-3.439 1.042-4.191 2.627a3.19 3.19 0 0 0-2.455 1.148A3.12 3.12 0 0 0 .39 6.446C.661 7.926 2.033 9 3.651 9h1.277l1.17 2.992a.501.501 0 0 0 .932-.364L5.791 8.462a.5.5 0 0 0-.499-.463H3.651s0 0 0 0c-1.117 0-2.096-.746-2.277-1.734a2.1 2.1 0 0 1 .453-1.749 2.24 2.24 0 0 1 1.951-.772.5.5 0 0 0 .527-.321C4.827 2.034 6.194 1.1 7.705 1.1c1.819 0 3.365 1.331 3.595 3.096a.5.5 0 0 0 .712.386c.526-.253 1.13-.245 1.702.023.347.163.631.454.781.799.262.608.218 1.251-.12 1.766a1.85 1.85 0 0 1-1.552.829H7.597a.5.5 0 0 0-.264.069.5.5 0 0 0-.239.524.5.5 0 0 0 .029.098l1.848 4.778a.5.5 0 0 0 .932-.36L8.314 9h1.138l2.657 6.684a.5.5 0 0 0 .93-.369L10.528 9h1.316l1.158 3.014a.501.501 0 0 0 .934-.358l-1.021-2.657a2.84 2.84 0 0 0 2.294-1.277c.526-.8.601-1.789.203-2.711Z"/></svg>