<!-- SPDX-FileCopyrightText: © 2025 Schneider Electric SPDX-License-Identifier: LicenseRef-Proprietary -->
<svg xmlns="http://www.w3.org/2000/svg" viewBox="0 0 16 16"><path d="M13.44.74c-.459-.488-1.141-.736-2.027-.736H4.225C4.128-.001 3.27-.034 2.63.569c-.417.393-.629.945-.629 1.641l.002 1.277c-.006.058-.047.59.316 1.451.336.796 1.783 3.094 1.818 3.143.166.343.658.923 1.447.923h1.417v.656c-1.31.375-2.191 1.854-2.191 3.111 0 1.778 1.46 3.225 3.255 3.225 1.083 0 2.043-.476 2.602-1.266.072-.082.702-.831.627-1.743-.041-.498-.29-.95-.722-1.306a.5.5 0 0 0-.737.113c-.319.487-1.025 1.284-1.562 1.347a.44.44 0 0 1-.339-.096c-.037-.1-.071-.25-.033-.356.01-.027.039-.11.218-.188a.5.5 0 1 0-.402-.916c-.481.211-.681.542-.763.783-.201.586.096 1.16.13 1.223a.5.5 0 0 0 .096.125c.345.327.761.47 1.212.419.761-.09 1.449-.749 1.868-1.246a.8.8 0 0 1 .037.176c.036.418-.266.871-.415 1.047-.399.562-1.062.885-1.817.885-1.244 0-2.255-.998-2.255-2.225 0-.934.741-2.096 1.697-2.194l.062-.01a.5.5 0 0 0 .432-.496V8.505a.5.5 0 0 0-.5-.5H5.584c-.357 0-.542-.35-.575-.408-.406-.645-1.516-2.448-1.769-3.046-.26-.615-.242-.967-.24-1.011V2.212c0-.406.104-.712.31-.909.333-.318.854-.297.885-.297h7.218c.593 0 1.027.139 1.29.412.312.325.298.764.297.794V3.54c0 .617-.186.911-.188.914l-2.571 3.571a.5.5 0 0 0 .812.584l2.571-3.571c.039-.053.376-.55.376-1.498V2.243a2.13 2.13 0 0 0-.561-1.501Z"/></svg>