<!-- SPDX-FileCopyrightText: © 2025 Schneider Electric SPDX-License-Identifier: LicenseRef-Proprietary -->
<svg xmlns="http://www.w3.org/2000/svg" viewBox="0 0 16 16"><path d="m15.759 13.38-2.004-2.006c1.574-2.355 1.84-4.71.633-5.813-.424-.46-3.489-3.787-4.035-4.262a.5.5 0 1 0-.656.755c.433.375 3.005 3.151 3.967 4.196l.021.022.021.021c.79.711.491 2.532-.674 4.358l-1.054-1.054a.5.5 0 0 0-.707.707l3.725 3.728c-.019.101-.112.33-.362.587-.251.258-.479.357-.577.377l-3.607-3.613a.5.5 0 1 0-.707.707l1.065 1.068a.5.5 0 0 0-.085.055c-1.662 1.316-3.355 1.758-4.132 1.065h0c-.894-.822-.435-3.286 1.68-5.668a10 10 0 0 1 1.781-1.594.5.5 0 1 0-.568-.822 11 11 0 0 0-1.96 1.752C6.01 9.652 5.18 11.543 5.167 13.027a896 896 0 0 0-3.351-3.122c-.467-.431-.668-.815-.753-1.082l1.502-.083a.5.5 0 0 0 .433-.694l-.655-1.542 1.395-.034a.5.5 0 0 0 .463-.654l-.478-1.47 1.476.238a.5.5 0 0 0 .571-.587l-.225-1.188 1.371.384a.5.5 0 0 0 .621-.6L7.001.383a.5.5 0 1 0-.972.236L6.364 2l-1.325-.371a.5.5 0 0 0-.626.574l.242 1.279-1.581-.255a.51.51 0 0 0-.459.168.5.5 0 0 0-.096.479l.523 1.611-1.46.036a.5.5 0 0 0-.448.695l.664 1.563-1.317.072a.5.5 0 0 0-.466.415c-.02.119-.159 1.189 1.123 2.372 1.16 1.071 3.834 3.574 3.937 3.67l.023.021.832.696.008.007.017.014c1.174 1.026 3.287.615 5.391-1.053a.5.5 0 0 0 .136-.166l1.913 1.916.06.052a.84.84 0 0 0 .568.202q.213 0 .447-.084c.3-.109.613-.322.883-.599.676-.694.846-1.51.408-1.936Z"/></svg>