<!-- SPDX-FileCopyrightText: © 2025 Schneider Electric SPDX-License-Identifier: LicenseRef-Proprietary -->
<svg xmlns="http://www.w3.org/2000/svg" viewBox="0 0 16 16"><path d="m4.982 6.041.674.017.556.391a.5.5 0 0 0 .575-.819l-.68-.478a.5.5 0 0 0-.275-.091l-1.833-.046V.5a.5.5 0 0 0-1 0v4.796c0 .209.128.388.31.462a.4.4 0 0 0 .08.104l2.61 2.61v.816L2.166 5.406a.52.52 0 0 0-.716.002c-.166.168-.222.225-.192 2.612.001.13.054.255.146.347L3.037 10h-.606l-.292-.293a.5.5 0 0 0-.707.707l.438.439c.093.094.22.146.353.146h.776v4.5a.5.5 0 0 0 1 0v-4.498h.246s0 0 0 0a.501.501 0 0 0 .354-.854L2.255 7.803c-.002-.297-.003-.605-.002-.886l3.89 3.939a.5.5 0 0 0 .856-.351V8.263a.5.5 0 0 0-.146-.354L4.981 6.038ZM13.5 5a.5.5 0 0 0-.5.5V12h-3V4h3.5a.5.5 0 0 0 0-1H12V.5a.5.5 0 0 0-1 0V3H9.5a.5.5 0 0 0-.5.5v9a.5.5 0 0 0 .5.5H11v2.5a.5.5 0 0 0 1 0V13h1.5a.5.5 0 0 0 .5-.5v-7a.5.5 0 0 0-.5-.5Z"/></svg>