<!-- SPDX-FileCopyrightText: © 2025 Schneider Electric SPDX-License-Identifier: LicenseRef-Proprietary -->
<svg xmlns="http://www.w3.org/2000/svg" viewBox="0 0 16 16"><path d="M10.794 6.499a.5.5 0 0 0-.079.703c.34.427.423 1.229.003 1.741a.501.501 0 0 0 .775.632c.679-.832.681-2.148.003-2.998a.5.5 0 0 0-.702-.08ZM9.721 3.84 4 5.615V3.5a.5.5 0 0 0-.5-.5H2.417a.5.5 0 0 0 0 1H3v2.294a.5.5 0 0 0 .648.477L8.96 5.123 7.054 9.371 3.721 7.736a.5.5 0 0 0-.72.449v2.814H1V3.5a.5.5 0 0 0-1 0v8a.5.5 0 0 0 .5.5h3a.5.5 0 0 0 .5-.5V8.987l3.078 1.51a.5.5 0 0 0 .39.021.5.5 0 0 0 .286-.266l2.571-5.73a.5.5 0 0 0-.082-.536.5.5 0 0 0-.522-.146Z"/><path d="M12.95 5.04a.501.501 0 0 0-.756.656c1.074 1.24 1.073 3.321-.004 4.841a.5.5 0 0 0 .816.578c1.335-1.885 1.311-4.497-.057-6.075Z"/><path d="M14.66 3.789a.5.5 0 0 0-.787.617c1.64 2.096 1.338 5.604.041 7.443a.5.5 0 0 0 .816.576c1.531-2.171 1.868-6.159-.07-8.636Z"/></svg>