<!-- SPDX-FileCopyrightText: © 2025 Schneider Electric SPDX-License-Identifier: LicenseRef-Proprietary -->
<svg xmlns="http://www.w3.org/2000/svg" viewBox="0 0 16 16"><path d="M15.792 5.477 8.292.094a.5.5 0 0 0-.588.004l-7.5 5.526a.5.5 0 1 0 .593.805l7.207-5.311L15 6.139v8.86h-5v-2.51a1.28 1.28 0 0 0 .833-.741c.167-.382.167-.805.167-1.104V8.5c0-.87-.698-1.501-1.661-1.501H6.578c-.899 0-1.578.645-1.578 1.5v2.145c0 1.204.473 1.684 1 1.845v2.51H.5a.5.5 0 0 0 0 1h6a.5.5 0 0 0 .5-.5v-3.44a.5.5 0 0 0-.5-.5c-.223 0-.5 0-.5-.914V8.5c0-.304.227-.5.578-.5h2.761c.408 0 .661.192.661.501v2.163c0 .209 0 .495-.083.686-.036.084-.092.21-.417.21a.5.5 0 0 0-.5.5v3.44a.5.5 0 0 0 .5.5h6a.5.5 0 0 0 .5-.5V5.883a.5.5 0 0 0-.208-.406Z"/><path d="M8.021 5.002c-.24.017-.417-.133-.487-.342a.5.5 0 0 0-.948.318 1.49 1.49 0 0 0 1.423 1.023h.034a1.507 1.507 0 0 0 1.469-1.534 1.517 1.517 0 0 0-1.534-1.468.5.5 0 0 0-.489.511c.007.275.227.512.511.489a.496.496 0 0 1 .511.489.504.504 0 0 1-.491.513Z"/></svg>