<!-- SPDX-FileCopyrightText: © 2025 Schneider Electric SPDX-License-Identifier: LicenseRef-Proprietary -->
<svg xmlns="http://www.w3.org/2000/svg" viewBox="0 0 16 16"><path d="M15.792 5.477 8.292.094a.5.5 0 0 0-.588.004l-7.5 5.526a.5.5 0 1 0 .593.805l7.207-5.311L15 6.139v8.86h-5v-1.5a.5.5 0 0 0-.5-.5h-4a.5.5 0 0 0-.5.5v1.5H4v-2.437c0-.149.104-.809.614-1.311.429-.423 1.032-.631 1.772-.621.022.003 2.274.236 3.805.76a.5.5 0 0 0 .659-.52c-.104-1.107.015-3.05.772-3.545q.44-.285 1.248.082l-.666 5.8a.5.5 0 0 0 .44.554.513.513 0 0 0 .554-.44l.705-6.145a.5.5 0 0 0-.255-.495c-1.028-.571-1.896-.638-2.574-.192-1.121.734-1.268 2.664-1.256 3.746-1.056-.284-2.208-.458-2.858-.541a.5.5 0 0 0 .039-.194V8h1.688a.502.502 0 0 0 .463-.689l-.818-2A.5.5 0 0 0 7.869 5H4.06a.5.5 0 0 0-.441.265l-1.064 2A.502.502 0 0 0 2.997 8h1.504a.5.5 0 0 0 0-1H3.83l.532-1h3.173l.409 1H6.501a.5.5 0 0 0-.5.5v2q0 .077.021.146c-.86.062-1.568.361-2.109.894-.722.711-.913 1.635-.913 2.023V15.5a.5.5 0 0 0 .5.5h2a.5.5 0 0 0 .5-.5V14h3v1.5a.5.5 0 0 0 .5.5h6a.5.5 0 0 0 .5-.5V5.883a.5.5 0 0 0-.208-.406Z"/></svg>