<!-- SPDX-FileCopyrightText: © 2025 Schneider Electric SPDX-License-Identifier: LicenseRef-Proprietary -->
<svg xmlns="http://www.w3.org/2000/svg" viewBox="0 0 16 16"><path d="M7.544 5.001a.5.5 0 0 0 .323-.119l1.156-.979a.5.5 0 0 0 .059-.705.5.5 0 0 0-.705-.058l-.833.706-.833-.706a.5.5 0 1 0-.647.763l1.156.979a.5.5 0 0 0 .323.119Z"/><path d="M14.5 1h-13a.5.5 0 0 0 0 1H14v12h-1V6.5a.5.5 0 0 0-.5-.5h-10a.5.5 0 0 0-.5.5v8a.5.5 0 0 0 1 0V14h5.229c.032.248.115.497.289.689a.95.95 0 0 0 .725.311h1.258a.5.5 0 0 0 0-1l-1.239.021c-.025-.033-.068-.192-.04-.47A.497.497 0 0 0 8.725 13H3v-1.097l1 .051c.265.03.511-.197.525-.474a.5.5 0 0 0-.292-.48h2.71a.5.5 0 0 0-.292.48c.014.275.219.509.525.474l1.308-.066a.5.5 0 0 0 .289-.887h1.036c.119.341.182.78.182 1.289a.5.5 0 0 0 1 0q0-.797-.171-1.405a.5.5 0 0 0-.32-.884H3v-1h7.5a.5.5 0 0 0 0-1H3v-1h9v7.5a.5.5 0 0 0 .5.5h2a.5.5 0 0 0 .5-.5V1.5a.5.5 0 0 0-.5-.5Z"/></svg>