<!-- SPDX-FileCopyrightText: © 2025 Schneider Electric SPDX-License-Identifier: LicenseRef-Proprietary -->
<svg xmlns="http://www.w3.org/2000/svg" viewBox="0 0 16 16"><path d="M.5 6.525a.5.5 0 0 0 .296-.097l7.216-5.31 2.946 2.114a.5.5 0 0 0 .582-.813L8.299.094a.5.5 0 0 0-.588.003L.204 5.622a.5.5 0 0 0 .297.903Zm15.305-1.462L13.234 3.09a.501.501 0 0 0-.609.793L14.081 5H7.058C5.582 5 4.551 6.036 4.551 7.518 4.551 8.979 5.582 10 7.058 10h1.443q.06 0 .115-.014c.906.064 1.32.827 1.32 1.537 0 .897-.567 1.477-1.445 1.477H1.765l1.586-1.354a.5.5 0 1 0-.649-.76L.176 13.042a.498.498 0 0 0 .004.764l2.493 2.078a.5.5 0 0 0 .704-.064.5.5 0 0 0-.063-.704L1.975 14h6.516c1.417 0 2.445-1.042 2.445-2.477 0-1.473-1.028-2.541-2.445-2.541A.5.5 0 0 0 8.359 9H7.058c-1.111 0-1.507-.766-1.507-1.482 0-.7.395-1.518 1.507-1.518h7.019l-1.503 1.258a.5.5 0 0 0 .642.766l2.452-2.054A.5.5 0 0 0 16 5.499v-.051a.5.5 0 0 0-.195-.386Z"/><path d="M15.5 14.996 4.797 15a.5.5 0 0 0 0 1l10.703-.004a.5.5 0 0 0 0-1Z"/></svg>