<!-- SPDX-FileCopyrightText: © 2025 Schneider Electric SPDX-License-Identifier: LicenseRef-Proprietary -->
<svg xmlns="http://www.w3.org/2000/svg" viewBox="0 0 16 16"><path d="M15.782 5.223 8.283.087a.5.5 0 0 0-.566 0l-7.5 5.15a.5.5 0 1 0 .566.824L8 1.106l7 4.793V15c-5.298-.004-6.592 0-6.591 0-3.831 0-5.142-.899-5.582-1.436-.322-.393-.334-.758-.287-.995.222-1.123 1.242-1.479 1.305-1.501.264-.099.538-.123.792-.105-.264.258-.41.557-.41.87 0 1.202 1.987 1.749 3.833 1.749s3.833-.547 3.833-1.749c0-.233-.085-.581-.488-.909a.5.5 0 0 0-.631.775c.089.072.117.125.12.13-.049.226-1.073.753-2.833.753s-2.784-.527-2.833-.748c.009-.092.285-.386.913-.573.977-.162 3.638-.87 3.954-.955.368-.094.826-.21.763-.685-.034-.258-.32-.454-.581-.446-.902.046-1.629-.059-2.204-.225a29 29 0 0 0 2.179-.296.5.5 0 0 0-.171-.985c-1.324.229-2.902.39-3.554.333v-.646a9 9 0 0 0 1.534.129c1.86 0 3.861-.551 3.861-1.76s-2.001-1.76-3.861-1.76c-.564 0-.816.01-1.107.067a.5.5 0 0 0 .193.981c.185-.037.343-.049.914-.049 1.788 0 2.816.535 2.861.758-.045.228-1.073.762-2.861.762s-2.817-.534-2.862-.757c0 0 .03-.104.286-.252a.499.499 0 1 0-.501-.865c-.648.375-.785.813-.785 1.115 0 .63.544 1.082 1.328 1.369v1.3a.5.5 0 0 0 .208.406c.213.202.857.741 1.979 1.084-.678.167-1.325.318-1.688.381q-.032-.001-.062.004c-.397-.168-1.443-.526-2.449-.146-.066.021-1.619.541-1.957 2.251-.125.634.051 1.282.496 1.823.981 1.195 3.12 1.801 6.355 1.801 0 0 1.377-.003 7.09 0a.5.5 0 0 0 .5-.5V5.636a.5.5 0 0 0-.218-.413Z"/></svg>