<!-- SPDX-FileCopyrightText: © 2025 Schneider Electric SPDX-License-Identifier: LicenseRef-Proprietary -->
<svg xmlns="http://www.w3.org/2000/svg" viewBox="0 0 16 16"><path d="M15.792 5.477 8.292.094a.5.5 0 0 0-.56-.016l-7.5 4.761a.5.5 0 0 0-.154.691.5.5 0 0 0 .69.154l7.215-4.581L15 6.14V15h-2V6.5a.5.5 0 0 0-.5-.5H2.499a.5.5 0 0 0-.5.5v9a.5.5 0 0 0 1 0V15h5.252c.032.248.115.497.29.689a.95.95 0 0 0 .724.311H10.5a.5.5 0 0 0 0-1l-1.216.021c-.025-.034-.068-.193-.04-.471a.5.5 0 0 0-.497-.551H2.999v-1.153l.764.039a.5.5 0 0 0 .525-.474.5.5 0 0 0-.474-.524l-.815-.042V9.25c.24-.251.421-.251.484-.251h3.991c.502 0 .872.773 1.05 1.146.075.155.124.258.188.342.116.149.246.234.371.316.149.097.334.218.629.533.34.364.321 1.082.307 1.605l-.005.279a.5.5 0 0 0 1 0l.005-.253c.018-.657.044-1.65-.576-2.314-.377-.404-.639-.575-.812-.688l-.116-.076c-.023-.038-.051-.1-.088-.176a6 6 0 0 0-.387-.714h1.461a.5.5 0 0 0 0-1H3.484q-.251 0-.484.079V6.999h9.001v8.5a.5.5 0 0 0 .5.5h3a.5.5 0 0 0 .5-.5V5.883a.5.5 0 0 0-.208-.406Z"/><path d="m8.457 11.821-1.308.066a.5.5 0 0 0 .025.999H7.2l1.308-.066a.5.5 0 0 0 .474-.524.487.487 0 0 0-.525-.474Z"/></svg>