<!-- SPDX-FileCopyrightText: © 2025 Schneider Electric SPDX-License-Identifier: LicenseRef-Proprietary -->
<svg xmlns="http://www.w3.org/2000/svg" viewBox="0 0 16 16"><path d="M15.288 12.759a1.91 1.91 0 0 1-1.994-.578.516.516 0 0 0-.761 0c-.719.845-2.149.844-2.866 0a.5.5 0 0 0-.38-.176h0a.5.5 0 0 0-.38.176c-.719.844-2.146.845-2.867 0a.516.516 0 0 0-.761 0 1.88 1.88 0 0 1-1.433.664.5.5 0 0 0 0 1c.666 0 1.304-.23 1.814-.644 1.02.826 2.608.826 3.627 0 1.019.824 2.608.826 3.628 0a2.88 2.88 0 0 0 2.677.511.5.5 0 1 0-.303-.953ZM15.5 11a.5.5 0 0 0 0-1h-4.499V5.46c.608.273 1.41.119 1.877-.344q.101.1.22.185c.457.321 1.03.395 1.576.199.684-.246 1.127-.973 1.079-1.768C15.625 1.64 13.318.001 10.502.001S5.38 1.638 5.248 3.727c-.05.795.392 1.524 1.075 1.772a1.7 1.7 0 0 0 1.8-.381c.201.2.454.352.74.431a.5.5 0 0 0 .266-.964.695.695 0 0 1-.507-.668.5.5 0 0 0-1 0 .7.7 0 0 1-.296.569.7.7 0 0 1-.662.074c-.299-.108-.437-.469-.418-.769.097-1.538 2.006-2.789 4.256-2.789s4.159 1.253 4.253 2.792c.018.299-.12.659-.419.766a.694.694 0 0 1-.957-.644.5.5 0 0 0-1 0 .69.69 0 0 1-.689.692.68.68 0 0 1-.486-.202.68.68 0 0 1-.202-.49h0a.5.5 0 1 0-1-.001V10H4.001V2.48a.5.5 0 0 0-.225-.417L.775.083a.5.5 0 0 0-.55.834L3 2.749V10.5a.5.5 0 0 0 .5.5zm-.21 3.914c-.7.223-1.51-.009-1.996-.578a.52.52 0 0 0-.761 0c-.721.843-2.149.841-2.867 0a.5.5 0 0 0-.38-.176h0a.5.5 0 0 0-.38.175c-.72.844-2.147.844-2.867 0a.52.52 0 0 0-.761 0c-.36.421-.882.663-1.434.663a.5.5 0 0 0 0 1 2.87 2.87 0 0 0 1.814-.644c1.021.828 2.607.828 3.627 0 1.018.828 2.607.828 3.627 0a2.87 2.87 0 0 0 2.675.513.5.5 0 0 0-.298-.955Z"/></svg>