<!-- SPDX-FileCopyrightText: © 2025 Schneider Electric SPDX-License-Identifier: LicenseRef-Proprietary -->
<svg xmlns="http://www.w3.org/2000/svg" viewBox="0 0 16 16"><path d="M15.792 5.477 8.292.094a.5.5 0 0 0-.588.004l-7.5 5.526a.5.5 0 1 0 .593.805l7.207-5.311L15 6.139v8.86h-1V7.494a.5.5 0 0 0-.146-.354.5.5 0 0 0-.354-.146h0l-3.324.004.251-.999h.074a.5.5 0 0 0 0-1h-.328l-.01-.002a.5.5 0 0 0-.254.002H5.224a.5.5 0 0 0-.433.75l.72 1.25H2.502a.5.5 0 0 0-.5.5v7.5H.5a.5.5 0 0 0 0 1h2a.5.5 0 0 0 .5-.5v-7.5h3.374a.5.5 0 0 0 .433-.75l-.72-1.25h3.307l-.347 1.378a.5.5 0 0 0 .486.621h0l3.466-.004v7.504a.5.5 0 0 0 .5.5h2a.5.5 0 0 0 .5-.5V5.883a.5.5 0 0 0-.208-.406Z"/><path d="M11.5 10h-6a.5.5 0 0 0-.5.5v3a.5.5 0 0 0 .5.5h6a.5.5 0 0 0 .5-.5v-3a.5.5 0 0 0-.5-.5Zm-.5 3H6v-2h5z"/></svg>