<!-- SPDX-FileCopyrightText: © 2025 Schneider Electric SPDX-License-Identifier: LicenseRef-Proprietary -->
<svg xmlns="http://www.w3.org/2000/svg" viewBox="0 0 16 16"><path d="M15.5 6a.5.5 0 0 0-.5.5V15H1V6.782l7.269-5.637 4.906 4.204a.5.5 0 0 0 .825-.38V2.5a.5.5 0 0 0-1 0v1.382L8.609.12a.5.5 0 0 0-.632-.015L.193 6.142A.5.5 0 0 0 0 6.537V15.5a.5.5 0 0 0 .5.5h15a.5.5 0 0 0 .5-.5v-9a.5.5 0 0 0-.5-.5Z"/><path d="M7.911 6.582c-3.897 0-5.482 1.944-5.548 2.026a.5.5 0 0 0 .782.624c.055-.067 1.385-1.65 4.766-1.65 3.518 0 4.885 1.58 4.946 1.654a.5.5 0 0 0 .701.072.5.5 0 0 0 .074-.703c-.067-.083-1.684-2.022-5.722-2.022Z"/></svg>