<!-- SPDX-FileCopyrightText: © 2025 Schneider Electric SPDX-License-Identifier: LicenseRef-Proprietary -->
<svg xmlns="http://www.w3.org/2000/svg" viewBox="0 0 16 16"><path d="M15.792 5.477 8.292.094a.5.5 0 0 0-.588.004l-7.5 5.526a.5.5 0 1 0 .593.805l7.207-5.311L15 6.139v8.86H.5a.5.5 0 0 0 0 1h15a.5.5 0 0 0 .5-.5V5.883a.5.5 0 0 0-.208-.406Z"/><path d="M10.004 6.337a5.384 5.384 0 0 0-5.378 5.377.5.5 0 0 0 1 0 4.38 4.38 0 0 1 4.378-4.377.5.5 0 0 0 0-1Z"/><path d="M10.004 4.048c-4.227 0-7.667 3.439-7.667 7.667a.5.5 0 0 0 1 0 6.675 6.675 0 0 1 6.667-6.667.5.5 0 0 0 0-1Z"/></svg>