<!-- SPDX-FileCopyrightText: © 2025 Schneider Electric SPDX-License-Identifier: LicenseRef-Proprietary -->
<svg xmlns="http://www.w3.org/2000/svg" viewBox="0 0 16 16"><path d="M11.701 7.999a.5.5 0 0 0 0 .707l.844.846a.5.5 0 0 0 .708 0 .5.5 0 0 0 0-.707L12.409 8a.5.5 0 0 0-.707 0ZM13.5 6h2a.5.5 0 0 0 0-1h-2a.5.5 0 0 0 0 1Z"/><path d="M15.5 14H5V6h1.941l.955 2.473a.5.5 0 0 0 .82.173l1.235-1.239a.5.5 0 0 0-.707-.707l-.692.694-.625-1.619 1.55-1.553 1.603.639-.497.498a.5.5 0 0 0 .707.707l1.032-1.034a.5.5 0 0 0-.168-.817L9.54 3.173a.5.5 0 0 0-.539.111L7.287 5.001H4.999V3.084a.5.5 0 0 0-.231-.421L.771.111a.5.5 0 0 0-.539.843L4 3.357V14.5a.5.5 0 0 0 .5.5H15v.5a.5.5 0 0 0 1 0v-1a.5.5 0 0 0-.5-.5Z"/><path d="M9.5 9a.5.5 0 0 0-.5.5v2a.5.5 0 0 0 1 0v-2a.5.5 0 0 0-.5-.5Z"/></svg>