<!-- SPDX-FileCopyrightText: © 2025 Schneider Electric SPDX-License-Identifier: LicenseRef-Proprietary -->
<svg xmlns="http://www.w3.org/2000/svg" viewBox="0 0 16.004 16"><path d="M10.555 6.316H8.61c-.827 0-1.5.673-1.5 1.5v2.57c0 .616.312 1.104.789 1.304V15H4.162V2.729a.5.5 0 0 0-.212-.409L.788.091a.5.5 0 0 0-.576.818l2.949 2.08V15.5a.5.5 0 0 0 .5.5h4.737a.5.5 0 0 0 .5-.5v-4.212a.5.5 0 0 0-.5-.5c-.261 0-.289-.281-.289-.401v-2.57a.5.5 0 0 1 .5-.5h1.945c.276 0 .501.225.501.501v2.569c0 .041-.008.401-.29.401a.5.5 0 0 0-.5.5V15.5a.5.5 0 0 0 1 0v-3.813c.472-.204.789-.696.789-1.3V7.818c0-.828-.674-1.501-1.501-1.501Z"/><path d="M9.555 5.89h.032a1.43 1.43 0 0 0 1.394-1.456 1.42 1.42 0 0 0-.439-.998 1.45 1.45 0 0 0-1.017-.395.5.5 0 0 0-.489.511c.006.275.212.509.511.489.124.006.221.04.303.118a.425.425 0 0 1-.286.732c-.211-.008-.429-.181-.434-.416a.48.48 0 0 0-.511-.489.5.5 0 0 0-.489.511A1.427 1.427 0 0 0 9.554 5.89Zm5.949 5.921a.5.5 0 0 0-.5.5v2.4a.294.294 0 0 1-.289.289h-.79a.294.294 0 0 1-.289-.289v-2.383c.112-.073.363-.177.673-.177a.5.5 0 0 0 .498-.452.5.5 0 0 0 .021-.146v-1.079h.339a.5.5 0 0 0 0-1h-1.629a.5.5 0 0 0 0 1h.29v.728c-.63.129-1.192.5-1.192.989v2.521a1.29 1.29 0 0 0 1.289 1.289h.79a1.29 1.29 0 0 0 1.289-1.289v-2.4a.5.5 0 0 0-.5-.5Z"/></svg>