<!-- SPDX-FileCopyrightText: © 2025 Schneider Electric SPDX-License-Identifier: LicenseRef-Proprietary -->
<svg xmlns="http://www.w3.org/2000/svg" viewBox="0 0 16 16"><path d="M7.149 10.956a.5.5 0 0 0 .026.999H7.2l1.308-.066a.5.5 0 0 0 .474-.524c-.014-.275-.213-.517-.524-.474l-1.308.066Z"/><path d="M14.5 1h-13a.5.5 0 0 0 0 1H14v12h-1V6.5a.5.5 0 0 0-.5-.5h-10a.5.5 0 0 0-.5.5v8a.5.5 0 0 0 1 0V14h5.253c.032.248.115.498.29.69.183.203.433.31.723.31H10.5a.5.5 0 0 0 0-1l-1.215.021c-.02-.027-.07-.171-.041-.472a.5.5 0 0 0-.497-.55H3v-1.098l1.024.052c.271.03.51-.197.525-.474a.5.5 0 0 0-.474-.524L3 10.899v-1.9h4.823l.352.742a.5.5 0 0 0 .424.285c.005 0 .537.047.913.423.325.325.504.979.504 1.839a.5.5 0 0 0 1 0c0-1.145-.275-2.024-.797-2.546a2.54 2.54 0 0 0-1.254-.668l-.035-.075h1.57a.5.5 0 0 0 0-1H3v-1h9v7.5a.5.5 0 0 0 .5.5h2a.5.5 0 0 0 .5-.5V1.5a.5.5 0 0 0-.5-.5Z"/><path d="m7.022 4.883.832-.706.833.706a.5.5 0 1 0 .646-.763l-1.156-.979a.5.5 0 0 0-.646 0l-1.156.979a.5.5 0 0 0 .647.763Z"/></svg>