<!-- SPDX-FileCopyrightText: © 2025 Schneider Electric SPDX-License-Identifier: LicenseRef-Proprietary -->
<svg xmlns="http://www.w3.org/2000/svg" viewBox="0 0 16 16"><path d="M13.047 4.726c.08.181.259.297.457.297H15.5a.5.5 0 0 0 0-1h-.883c1.185-1.363 1.257-1.62 1.284-1.714.121-.426.035-.89-.23-1.24-.271-.358-.692-.555-1.187-.555-1.022 0-1.402.948-1.46 1.449a.5.5 0 0 0 .435.552.507.507 0 0 0 .558-.433c.008-.058.086-.568.467-.568q.27 0 .39.159c.074.099.1.242.078.328-.111.23-1.03 1.314-1.818 2.187a.5.5 0 0 0-.086.539Zm-3.572.248a.5.5 0 0 0 .5-.5V2.981h1.004v1.493a.5.5 0 0 0 1 0V.729a.5.5 0 0 0-1 0v1.252H9.975V.729a.5.5 0 0 0-1 0v3.746a.5.5 0 0 0 .5.5Z"/><path d="M15.087 6.549a3.3 3.3 0 0 1-1.574 1.131c-.756.261-1.55.254-2.237-.021-.66-.264-1.14-.746-1.351-1.356a.5.5 0 1 0-.946.326c.307.89.99 1.585 1.925 1.958q.417.167.864.234c.353.637.866 1.081 1.322 1.477.744.645 1.331 1.153 1.331 2.324 0 1.966-1.782 2.379-3.276 2.379-2.301 0-3.197-1.273-3.197-4.542V3.604C7.949 1.568 6.232.033 3.956.033 1.594.033-.051 2.142-.051 4.034v9.468a.5.5 0 0 0 .5.5h.5v1.5a.5.5 0 0 0 .5.5h2a.5.5 0 0 0 0-1h-1.5v-1h.5a.5.5 0 0 0 0-1h-1.5V4.034c0-1.417 1.286-3.001 3.007-3.001 1.451 0 2.993.901 2.993 2.571v6.856c0 2.58.477 5.542 4.197 5.542 2.718 0 4.276-1.231 4.276-3.379 0-1.627-.891-2.398-1.676-3.08-.27-.234-.531-.46-.754-.715q.427-.06.846-.204a4.26 4.26 0 0 0 2.052-1.481.5.5 0 1 0-.803-.595Z"/><path d="M4.731 2.621a.5.5 0 0 0-.012.707c.105.108.23.291.23.544V9.29c0 .471-.449.854-1 .854s-1-.383-1-.854V3.872c0-.204.086-.402.242-.556l.066-.06a.5.5 0 1 0-.638-.77 1.78 1.78 0 0 0-.671 1.386V9.29c0 1.022.897 1.854 2 1.854s2-.832 2-1.854V3.872c0-.458-.182-.898-.511-1.239a.5.5 0 0 0-.707-.012Z"/></svg>