<!-- SPDX-FileCopyrightText: © 2025 Schneider Electric SPDX-License-Identifier: LicenseRef-Proprietary -->
<svg xmlns="http://www.w3.org/2000/svg" viewBox="0 0 16 16"><path d="M13.5 0a.5.5 0 0 0-.5.5v5a.5.5 0 0 0 1 0v-5a.5.5 0 0 0-.5-.5Zm-9 8H6v1.5a.5.5 0 0 0 1 0v-2a.5.5 0 0 0-.5-.5H5V5.5a.5.5 0 0 0-1 0v2a.5.5 0 0 0 .5.5Zm9.37 1.914-3.021-3.333a.5.5 0 0 0-.74.672l2.894 3.194-.003.054v5a.5.5 0 0 0 1 0v-5a.5.5 0 0 0-.016-.125.5.5 0 0 0-.114-.461Z"/><path d="M8.5 3h-6a.5.5 0 0 0-.5.5v8a.5.5 0 0 0 .5.5h6a.5.5 0 0 0 .5-.5v-8a.5.5 0 0 0-.5-.5ZM8 11H3V4h5z"/></svg>