<!-- SPDX-FileCopyrightText: © 2025 Schneider Electric SPDX-License-Identifier: LicenseRef-Proprietary -->
<svg xmlns="http://www.w3.org/2000/svg" viewBox="0 0 16 16"><path d="M16.027 1.851a.5.5 0 0 0-.807-.394l-4.212 3.284.02-2.797a.501.501 0 0 0-.791-.41l-5.23 3.737.021-3.205a.5.5 0 0 0-.852-.358L.175 5.671a.5.5 0 0 0-.148.355v7.541a.5.5 0 0 0 1 0V6.235l2.992-2.964-.02 2.953c0 .093.034.2.083.28a.5.5 0 0 0 .717.146l5.221-3.73L10 5.77c0 .192.107.367.279.452a.5.5 0 0 0 .528-.054l4.221-3.292.021 10.192H6.027v-2.5a.5.5 0 0 0-.5-.5h-2a.5.5 0 0 0-.5.5v3a.5.5 0 0 0 1 0v-2.5h1v2.5a.5.5 0 0 0 .5.5h10.024c.133 0 .26-.053.354-.146a.5.5 0 0 0 .146-.354l-.024-11.714Z"/></svg>