<!-- SPDX-FileCopyrightText: © 2025 Schneider Electric SPDX-License-Identifier: LicenseRef-Proprietary -->
<svg xmlns="http://www.w3.org/2000/svg" viewBox="0 0 16 16"><path d="M14.881.472A.507.507 0 0 0 14.367 0l-1.434.042a.5.5 0 0 0-.483.453l-.659 6.925-3.049-3.014a.5.5 0 0 0-.851.359l.014 2.548-2.981-2.948a.5.5 0 0 0-.851.359l.015 2.585L1.15 4.388a.5.5 0 0 0-.853.354L.275 15.501a.5.5 0 0 0 .5.5h9.516a.5.5 0 0 0 0-1H1.275l.019-9.06 2.947 2.931a.5.5 0 0 0 .853-.358l-.015-2.589L8.06 8.873a.5.5 0 0 0 .851-.359l-.014-2.548 2.94 2.906a.5.5 0 0 0 .849-.308l.718-7.535.506-.015.816 14.514a.5.5 0 0 0 .499.472h.028a.5.5 0 0 0 .471-.527z"/></svg>