<!-- SPDX-FileCopyrightText: © 2025 Schneider Electric SPDX-License-Identifier: LicenseRef-Proprietary -->
<svg xmlns="http://www.w3.org/2000/svg" viewBox="0 0 16 16"><path d="M5.5 8.574a.5.5 0 0 0-.5.5V12.5a.5.5 0 0 0 .5.5h2a.5.5 0 0 0 .5-.5v-7a.5.5 0 0 0-.5-.5h-2a.5.5 0 0 0-.5.5v2a.5.5 0 0 0 1 0V6h1v6H6V9.074a.5.5 0 0 0-.5-.5Z"/><path d="M14.774 4h-3.616a.5.5 0 0 0-.499.532l.63 9.818c0 .01.013.237-.146.407-.188.201-.548.243-.815.243H2.721a.65.65 0 0 1-.624-.694l.5-9.372a.5.5 0 0 0-.103-.331l-1.02-1.331h1.53a.5.5 0 0 0 .442-.266L4.51 1h4.077l.62 1H5.5a.5.5 0 0 0 0 1h4.605a.498.498 0 0 0 .425-.764l-1.24-2A.5.5 0 0 0 8.865 0H4.209a.5.5 0 0 0-.442.266L2.703 2.272H.461a.5.5 0 0 0-.397.804l1.523 1.989-.49 9.214c0 1.077.826 1.721 1.624 1.721h7.606c.69 0 1.216-.195 1.564-.58a1.6 1.6 0 0 0 .395-1.145L12.268 14h1.231a.5.5 0 0 0 0-1h-1.296l-.088-1.376c.352.006.981-.031 1.649-.269.656-.233 1.502-1.123 2.22-5.967.129-.868-.608-1.303-1.211-1.389Zm-1.344 6.413a4 4 0 0 1-1.378.209l-.36-5.625 3.003-.004c.077.013.328.071.303.249-.702 4.734-1.48 5.14-1.567 5.171Z"/></svg>