<!-- SPDX-FileCopyrightText: © 2025 Schneider Electric SPDX-License-Identifier: LicenseRef-Proprietary -->
<svg xmlns="http://www.w3.org/2000/svg" viewBox="0 0 16 16"><path d="M6.292 12.639a.5.5 0 1 0-.931-.365c-.365.93-.169 1.478-.012 1.917.128.36.214.598.012 1.112a.5.5 0 1 0 .931.365c.339-.863.15-1.391 0-1.814-.132-.368-.227-.634 0-1.215Zm2.187 0a.5.5 0 0 0-.931-.365c-.365.93-.169 1.478-.011 1.917.128.359.214.598.011 1.111a.499.499 0 1 0 .93.367c.34-.864.151-1.392 0-1.815-.132-.368-.227-.634 0-1.215Zm7.281-5.757L10 3.387V.5a.5.5 0 0 0-1 0v3.168c0 .175.091.337.24.427L15 7.59v2.409H1v-2h9.5a.5.5 0 0 0 0-1H1.974l4.785-2.904A.5.5 0 0 0 7 3.668V.5a.5.5 0 0 0-1 0v2.887L.241 6.882A.5.5 0 0 0 0 7.309v3.19a.5.5 0 0 0 .5.5h15a.5.5 0 0 0 .5-.5v-3.19a.5.5 0 0 0-.24-.427Zm-5.094 5.773a.5.5 0 0 0-.281-.648.496.496 0 0 0-.648.281c-.367.932-.171 1.479-.013 1.919.129.359.214.597.012 1.11a.5.5 0 1 0 .932.365c.338-.863.149-1.39-.002-1.813-.132-.367-.228-.633 0-1.214Z"/></svg>