<!-- SPDX-FileCopyrightText: © 2025 Schneider Electric SPDX-License-Identifier: LicenseRef-Proprietary -->
<svg xmlns="http://www.w3.org/2000/svg" viewBox="0 0 16 16"><path d="M12.556 4.464a.54.54 0 0 0-.661-.382L.36 7.173a.54.54 0 0 0 .279 1.044l11.534-3.091a.54.54 0 0 0 .382-.662Zm3.465 4.468a.54.54 0 0 0-.663-.38l-.859.234a.5.5 0 0 0-.079-.096l-2.265-2.185a.54.54 0 1 0-.75.778l1.896 1.83-1.209.329a.5.5 0 0 0-.072-.086L9.756 7.171a.54.54 0 1 0-.75.778l1.885 1.819-1.227.333a.6.6 0 0 0-.076-.091L7.323 7.825a.54.54 0 1 0-.75.778l1.891 1.824-1.159.315a.6.6 0 0 0-.078-.094L4.963 8.463a.54.54 0 1 0-.75.778l1.894 1.827-1.173.318a.5.5 0 0 0-.09-.113L2.58 9.088a.54.54 0 1 0-.75.778l1.912 1.845-.517.141a.54.54 0 1 0 .283 1.042l12.134-3.299a.54.54 0 0 0 .38-.663Z"/></svg>