<!-- SPDX-FileCopyrightText: © 2025 Schneider Electric SPDX-License-Identifier: LicenseRef-Proprietary -->
<svg xmlns="http://www.w3.org/2000/svg" viewBox="0 0 16 16"><path d="M15.5 13h-2.646l2.293-4.03a.5.5 0 0 0-.022-.531l-4.028-5.842a.5.5 0 0 0-.588-.184L8.1 3.321a6 6 0 0 0-.354-.479c.195-.418.552-1.166.552-1.166a.5.5 0 0 0-.228-.663L6.147.053a.5.5 0 0 0-.64.17c-.226.338-.303.491-.404.691a10 10 0 0 1-.385.699C.844 1.824.116 4.808.097 4.925L.04 6.138c-.01.22.125.421.333.495l7.169 2.534c.222.08.47-.009.593-.21l.657-1.077a.5.5 0 0 0 .049-.107c.019-.06.47-1.49-.088-2.638a.5.5 0 0 0-.899.437c.333.686.112 1.617.05 1.844l-.411.674-6.44-2.277.03-.753c.005-.024.587-2.393 3.934-2.458a.5.5 0 0 0 .417-.239c.336-.55.461-.799.562-.999.037-.074.07-.14.111-.213l1.077.538c-.624 1.314-.604 1.336-.395 1.574.405.445.662.907.665.912a.5.5 0 0 0 .614.227l2.427-.915 3.627 5.261-2.562 4.505a.5.5 0 0 0 .435.747H15v1H7v-1h2.5a.5.5 0 0 0 0-1h-3a.5.5 0 0 0-.5.5v2a.5.5 0 0 0 .5.5h9a.5.5 0 0 0 .5-.5v-2a.5.5 0 0 0-.5-.5Z"/></svg>