<!-- SPDX-FileCopyrightText: © 2025 Schneider Electric SPDX-License-Identifier: LicenseRef-Proprietary -->
<svg xmlns="http://www.w3.org/2000/svg" viewBox="0 0 16 16"><path d="M1.455 7.022h4.179a.502.502 0 0 0 0-1.004H1.458l.932-1.39a.503.503 0 0 0-.834-.56L.16 6.151a.5.5 0 0 0-.162.369v.012a.5.5 0 0 0 .092.303l1.473 2.076a.501.501 0 1 0 .819-.582l-.928-1.308Z"/><path d="M3.612 5.027a.5.5 0 0 0 .502-.502v-1.17l7.001-2.173v4.341a.502.502 0 0 0 1.004 0V.5a.5.5 0 0 0-.65-.479L3.463 2.506a.5.5 0 0 0-.353.479v1.54c0 .277.225.502.502.502Zm12.247 6.318-4.072-4.182a.5.5 0 0 0-.568-.105L5.053 9.885a.5.5 0 0 0-.141.815l2.847 2.78a.5.5 0 0 0 .571.092l4.392-2.147a.502.502 0 0 0 .126-.814l-1.364-1.3a.502.502 0 0 0-.693.727l.842.803-3.425 1.675-2.07-2.022 5.179-2.374 3.352 3.441-6.474 3.328-4.08-3.999V8.516a.502.502 0 0 0-1.004 0v2.585a.5.5 0 0 0 .15.358l4.489 4.4a.5.5 0 0 0 .581.088l7.399-3.805a.5.5 0 0 0 .13-.797Z"/></svg>