<!-- SPDX-FileCopyrightText: © 2025 Schneider Electric SPDX-License-Identifier: LicenseRef-Proprietary -->
<svg xmlns="http://www.w3.org/2000/svg" viewBox="0 0 16 16"><path d="M1 8.5a.5.5 0 0 0-1 0v4a.5.5 0 0 0 1 0zM5.5 7h-4a.5.5 0 0 0 0 1h4a.5.5 0 0 0 0-1Zm5-4h4a.5.5 0 0 0 0-1h-4a.5.5 0 0 0 0 1ZM.5 7a.5.5 0 0 0 .5-.5v-3a.5.5 0 0 0-1 0v3a.5.5 0 0 0 .5.5Zm14 0h-4a.5.5 0 0 0 0 1h4a.5.5 0 0 0 0-1Zm-5 0a.5.5 0 0 0 .5-.5v-3a.5.5 0 0 0-1 0v3a.5.5 0 0 0 .5.5Zm-8-4h4a.5.5 0 0 0 0-1h-4a.5.5 0 0 0 0 1Zm5 5a.5.5 0 0 0-.5.5v4a.5.5 0 0 0 1 0v-4a.5.5 0 0 0-.5-.5Zm8 5h-4a.5.5 0 0 0 0 1h4a.5.5 0 0 0 0-1Zm-9 0h-4a.5.5 0 0 0 0 1h4a.5.5 0 0 0 0-1Zm10-10a.5.5 0 0 0-.5.5v3a.5.5 0 0 0 1 0v-3a.5.5 0 0 0-.5-.5Zm0 5a.5.5 0 0 0-.5.5v4a.5.5 0 0 0 1 0v-4a.5.5 0 0 0-.5-.5Zm-5.5.5a.5.5 0 0 0-1 0v4a.5.5 0 0 0 1 0zM6.5 3a.5.5 0 0 0-.5.5v3a.5.5 0 0 0 1 0v-3a.5.5 0 0 0-.5-.5Z"/></svg>