<!-- SPDX-FileCopyrightText: © 2025 Schneider Electric SPDX-License-Identifier: LicenseRef-Proprietary -->
<svg xmlns="http://www.w3.org/2000/svg" viewBox="0 0 16 16"><path fill="currentColor" d="m4.07 11.605-1.322 1.303a.5.5 0 1 0 .702.712l1.322-1.303a.5.5 0 1 0-.702-.712ZM14.715 7.1h-2.37a.5.5 0 0 0 0 1h2.37a.5.5 0 0 0 0-1Zm-10.56.5a.5.5 0 0 0-.5-.5h-2.37a.5.5 0 0 0 0 1h2.37a.5.5 0 0 0 .5-.5Z"/><rect width="1" height="3.026" x="7.5" y="12.974" fill="currentColor" rx=".5" ry=".5"/><path fill="currentColor" d="M12.028 11.484a.5.5 0 1 0-.701.712l1.322 1.303a.497.497 0 0 0 .707-.005.5.5 0 0 0-.006-.707zm.711-7.017c.204-.263.317-.61.317-.979 0-.866-.584-1.519-1.359-1.519h-1.621v-.61c0-.336 0-.594-.015-.79V.547h-.003c-.035-.426-.146-.548-.494-.548-.497 0-.504.494-.507.705l-.003.654v.61l-2.041.001L7.01.703C7.007.492 7-.002 6.503-.002c-.348 0-.459.122-.494.548h-.003v.022c-.015.196-.015.454-.015.79v.61H4.338c-.775 0-1.359.653-1.359 1.519 0 .369.113.716.318.979.249.319.619.496 1.042.496h1.208a.5.5 0 0 0 0-1H4.339c-.115 0-.193-.034-.253-.111a.6.6 0 0 1-.106-.364c0-.005.004-.519.359-.519h2.104l.049.002h0l3.062-.002q.025 0 .049-.002l2.091.002c.355 0 .359.514.359.519a.6.6 0 0 1-.106.364c-.06.077-.138.111-.253.111h-1.279a.5.5 0 0 0-.5.5v5.243c0 .473-.229.843-.681 1.1-.726.414-1.847.407-2.553-.011q-.646-.383-.634-1.089v-3.25a.5.5 0 0 0-1 0v3.242c-.015.823.384 1.519 1.124 1.958.517.306 1.155.46 1.794.46.624 0 1.25-.146 1.765-.439.765-.435 1.186-1.135 1.186-1.969V4.964h.779a1.29 1.29 0 0 0 1.042-.496Z"/></svg>