<!-- SPDX-FileCopyrightText: © 2025 Schneider Electric SPDX-License-Identifier: LicenseRef-Proprietary -->
<svg xmlns="http://www.w3.org/2000/svg" viewBox="0 0 16 16"><path d="M15.5 15H.5a.5.5 0 0 0 0 1h15a.5.5 0 0 0 0-1ZM4.884 12.544q.544.507 1.357.731.813.222 1.886.223 1.237 0 2.036-.365.796-.365 1.252-.969.454-.603.633-1.371.18-.768.179-1.588V3.658q0-.388-.023-.604a.6.6 0 0 0-.171-.365.68.68 0 0 0-.522-.223.63.63 0 0 0-.313.075 1 1 0 0 0-.208.149.6.6 0 0 0-.172.365 6 6 0 0 0-.022.604V9.34q0 .448-.082.976a2.6 2.6 0 0 1-.366.984q-.283.455-.834.753-.553.298-1.491.298-1.059 0-1.633-.343-.574-.342-.835-.827a2.6 2.6 0 0 1-.306-.999q-.045-.514-.045-.857V3.658q0-.388-.022-.604a.58.58 0 0 0-.172-.365.68.68 0 0 0-.522-.223.63.63 0 0 0-.313.075 1 1 0 0 0-.209.149.6.6 0 0 0-.172.365 6 6 0 0 0-.022.604v5.562q0 1.178.283 1.998.284.82.827 1.327Z"/></svg>