<!-- SPDX-FileCopyrightText: © 2025 Schneider Electric SPDX-License-Identifier: LicenseRef-Proprietary -->
<svg xmlns="http://www.w3.org/2000/svg" viewBox="0 0 16 16"><path d="M15.854 4.591 11.409.146a.5.5 0 0 0-.707 0L7.924 2.924a.5.5 0 0 0 0 .707l.007.007c.301.301.57.571.799.823a.5.5 0 0 0 .044.139.287.287 0 0 1-.133.382.287.287 0 0 1-.382-.134.5.5 0 0 0-.1-.14.5.5 0 0 0-.793-.115L4.794 7.164a.5.5 0 0 0 .707.707l2.175-2.174a1.29 1.29 0 0 0 1.795-.11c.221.708-.103 1.449-1.268 2.614C6.452 9.952 5.75 9.708 5.075 9.244c-.444-.305-.926-.797-1.437-1.317l-.005-.005-.009-.009a.5.5 0 0 0-.545-.096h-.002s0 0 0 0h-.001s0 0 0 0h-.002s0 0 0 0h-.001a.5.5 0 0 0-.127.085q0 0 0 0h0l-.01.01-.005.005-2.785 2.785H.145v.002a.5.5 0 0 0-.003.699h.001v.002h.001s0 .002 0 0q0 0 0 0c.003 0 0 0 0 0l3.172 3.172a.5.5 0 0 0 .707-.707l-2.819-2.818 2.071-2.07c.417.419.821.802 1.23 1.083 1.366.938 2.641.603 4.402-1.16 2.65-2.65 1.588-4.088.074-5.629l2.072-2.072 3.737 3.737L4.591 15.146a.5.5 0 0 0 .708.707L15.854 5.298a.5.5 0 0 0 0-.707Z"/><path d="M4.947 12.553v-1a.5.5 0 0 0-1 0v1a.5.5 0 0 0 1 0Zm7.773-6.551a.5.5 0 0 0 .354-.853l-1.111-1.111a.5.5 0 0 0-.707.707l1.111 1.111a.5.5 0 0 0 .354.146Z"/></svg>