<!-- SPDX-FileCopyrightText: © 2025 Schneider Electric SPDX-License-Identifier: LicenseRef-Proprietary -->
<svg xmlns="http://www.w3.org/2000/svg" viewBox="0 0 16 16"><path d="M2.424 6.158h-.133l-.005-.001a.5.5 0 0 0-.005 1h.138a.5.5 0 0 0 .005-.999Z"/><rect width="1" height="2.469" x="7.15" rx=".5" ry=".5"/><path d="M4.307 3.792a.5.5 0 0 0 0-.707l-.696-.698a.5.5 0 0 0-.707 0 .5.5 0 0 0 0 .707l.696.698a.5.5 0 0 0 .707.001ZM15.5 6.138h-2.805a.498.498 0 1 0 0 .998l2.804.002h0a.5.5 0 0 0 0-1ZM13.274.767a.5.5 0 0 0-.707 0l-1.794 1.792a.5.5 0 0 0 .708.707l1.794-1.792a.5.5 0 0 0 0-.707ZM8.631 3.374c-1.174-.296-2.379-.05-3.311.675a3.77 3.77 0 0 0-1.465 2.996c0 .911.327 1.792.965 2.526.532.478.674.621.725 1.056a.5.5 0 1 0 .993-.116c-.097-.829-.497-1.188-1.005-1.639a2.797 2.797 0 0 1 .402-4.035 2.83 2.83 0 0 1 2.452-.495c.816.206 1.75 1.128 1.959 1.935.263 1.012-.008 2.038-.729 2.752-.644.656-.998 1.595-.998 2.642v.192H6.811c-.46.033-1.145.4-1.145 1.277 0 .872.727 1.247 1.255 1.288H8.38l-.011.037c-.142.467-.439.532-.402.533l-1.195-.004h-.001a.5.5 0 0 0-.001 1h1.25c.357-.037 1.035-.342 1.307-1.238.213-.703.243-.94.042-1.142q-.148-.161-.969-.187l-1.43.002q-.302-.034-.303-.29c0-.075 0-.253.18-.277H9.12a.5.5 0 0 0 .5-.5v-.692c0-.772.259-1.48.706-1.937.972-.961 1.341-2.348.988-3.708-.303-1.166-1.505-2.356-2.682-2.653Z"/></svg>