<!-- SPDX-FileCopyrightText: © 2025 Schneider Electric SPDX-License-Identifier: LicenseRef-Proprietary -->
<svg xmlns="http://www.w3.org/2000/svg" viewBox="0 0 16 16"><path d="M15.107 4.743a2.56 2.56 0 0 0-1.319-1.274 2.9 2.9 0 0 0-1.767-.174A4.47 4.47 0 0 0 7.714.001a4.48 4.48 0 0 0-4.042 2.571 3.08 3.08 0 0 0-2.5 1.316c-.588.84-.715 1.896-.349 2.898.425 1.164 1.849 2.11 3.176 2.11h1.5a.5.5 0 0 0 0-1h-1.5c-.893 0-1.959-.692-2.236-1.453-.252-.691-.169-1.413.229-1.982a2.13 2.13 0 0 1 1.949-.875.496.496 0 0 0 .526-.323 3.48 3.48 0 0 1 3.248-2.262 3.47 3.47 0 0 1 3.433 3.019.5.5 0 0 0 .716.385c.469-.23 1.014-.236 1.535-.015.353.149.644.43.8.77.283.619.233 1.33-.134 1.902-.335.522-.871.833-1.433.833H7.621a.5.5 0 0 0-.463.689l1.734 4.264a.5.5 0 0 0 .374.304.52.52 0 0 0 .457-.153l1.099-1.191 1.624 3.887a.5.5 0 0 0 .923-.384l-1.925-4.606a.5.5 0 0 0-.83-.147l-1.093 1.186-1.157-2.846h4.268c.904 0 1.754-.483 2.274-1.293a2.98 2.98 0 0 0 .202-2.859Z"/></svg>