<!-- SPDX-FileCopyrightText: © 2025 Schneider Electric SPDX-License-Identifier: LicenseRef-Proprietary -->
<svg xmlns="http://www.w3.org/2000/svg" viewBox="0 0 16 16"><path d="M14.461 7.449C14.245 7.244 13.847 7 13.18 7H9.49l.92-.86a.499.499 0 0 0-.512-.834l-2.453.892L10.506.75a.5.5 0 0 0-.807-.582L1.636 9.044a.5.5 0 0 0 .418.834l1.516-.144-2.601 5.54a.501.501 0 0 0 .818.555l4.205-4.485a.5.5 0 1 0-.73-.684l-2.046 2.183 1.632-3.477a.498.498 0 0 0-.5-.71l-1.102.104 4.228-4.654-1.559 2.775a.5.5 0 0 0 .607.715l1.417-.515-.057.053a.5.5 0 0 0 .341.865h4.958c.267 0 .472.061.594.176a.44.44 0 0 1 .132.324c0 .208-.135.5-.434.5h-1.972a.5.5 0 0 0-.5.5v4.905c0 .527-.334.606-.533.606a.46.46 0 0 1-.319-.135q-.15-.151-.148-.427v-4.95a.5.5 0 0 0-.5-.5H7.454c-.131-.003-.204-.019-.226-.009a.5.5 0 0 0-.978.203c.057.353.307.778 1.188.806H9v4.446c-.004.442.152.846.438 1.135.271.273.647.431 1.029.431.738 0 1.533-.503 1.533-1.606V9.999h1.472c.897 0 1.434-.763 1.434-1.5 0-.406-.158-.78-.445-1.051Z"/></svg>