<!-- SPDX-FileCopyrightText: © 2025 Schneider Electric SPDX-License-Identifier: LicenseRef-Proprietary -->
<svg xmlns="http://www.w3.org/2000/svg" viewBox="0 0 16 16"><path d="M11.5 12.457a.498.498 0 1 0-.931.361l.711 1.836a.5.5 0 1 0 .932-.361zm-5.508-.989a.5.5 0 0 0-.933.361l.71 1.836a.5.5 0 0 0 .933-.361zm2.583-.321a.498.498 0 1 0-.931.361l.711 1.836a.5.5 0 1 0 .932-.361zm5.013.392a.5.5 0 0 0-.646-.285.5.5 0 0 0-.285.646l.711 1.836a.5.5 0 1 0 .932-.361zM15.72 5.75a2.7 2.7 0 0 0-1.364-1.367c-.66-.295-1.355-.365-2.004-.205A4.83 4.83 0 0 0 7.69.578 4.84 4.84 0 0 0 3.314 3.38h-.003c-.986 0-1.913.435-2.544 1.193a3.32 3.32 0 0 0-.709 2.741c.286 1.557 1.708 2.687 3.381 2.687H5.5A.501.501 0 0 0 5.5 9H3.439c-1.171 0-2.203-.802-2.398-1.866a2.3 2.3 0 0 1 .493-1.92 2.35 2.35 0 0 1 2.046-.816.49.49 0 0 0 .528-.323A3.83 3.83 0 0 1 7.69 1.58a3.82 3.82 0 0 1 3.786 3.329.5.5 0 0 0 .716.385c.54-.263 1.163-.262 1.758.003.377.167.688.48.854.856.297.675.253 1.39-.12 1.961a1.95 1.95 0 0 1-1.636.887H7.5a.5.5 0 0 0 0 1h5.548a2.95 2.95 0 0 0 2.474-1.341c.561-.859.633-1.919.198-2.91Z"/></svg>