<!-- SPDX-FileCopyrightText: © 2025 Schneider Electric SPDX-License-Identifier: LicenseRef-Proprietary -->
<svg xmlns="http://www.w3.org/2000/svg" viewBox="0 0 16 16"><path d="M15.531 2.321A.5.5 0 0 0 15.064 2h-2.317L14.1.983a.5.5 0 0 0-.6-.8L10.949 2.1a.5.5 0 0 0 .3.9h2.506L9.144 7.127a.5.5 0 0 0 .333.872H11.2l-7.118 4.783 3.589-3.947a.5.5 0 0 0-.37-.837H4.543l4.993-4.114a.5.5 0 0 0-.318-.886h-2.38L9.924.912a.499.499 0 1 0-.56-.828l-4.439 3a.5.5 0 0 0 .28.915h2.62L2.832 8.113a.5.5 0 0 0 .318.886h3.021L.566 15.164a.5.5 0 0 0 .649.751l11.905-8A.5.5 0 0 0 12.841 7h-2.055l4.611-4.127a.5.5 0 0 0 .134-.551Z"/></svg>