<!-- SPDX-FileCopyrightText: © 2025 Schneider Electric SPDX-License-Identifier: LicenseRef-Proprietary -->
<svg xmlns="http://www.w3.org/2000/svg" viewBox="0 0 16 16"><path d="M3.5 11H.498a.5.5 0 0 0 0 1H3.5a.5.5 0 0 0 0-1Zm11.993 0H14V9.5a.5.5 0 0 0-1 0V11h-1.5a.5.5 0 0 0 0 1H13v1.5a.5.5 0 0 0 1 0V12h1.493a.5.5 0 0 0 0-1Zm-3.325-7.561C11.799 2.018 10.276.512 8.843.149 7.386-.219 5.888.086 4.733.987a4.68 4.68 0 0 0-1.818 3.716c0 1.131.405 2.224 1.187 3.125.777.697.986.884.994 1.876.002.277.265.507.504.496a.5.5 0 0 0 .496-.504c-.011-1.376-.415-1.795-1.282-2.567a3.717 3.717 0 0 1 .533-5.353c.911-.71 2.095-.95 3.25-.657 1.084.273 2.324 1.499 2.603 2.571.348 1.341-.011 2.702-.966 3.646C9.439 8.148 9 9.313 9 10.613v.386H6.562c-.536.039-1.333.468-1.333 1.492s.852 1.46 1.464 1.508h1.896l.175.005-.064.221c-.208.686-.662.775-.647.779l-1.55-.005h-.001a.5.5 0 0 0-.001 1l1.605.002c.423-.045 1.226-.409 1.552-1.485.287-.946.272-1.136.068-1.34q-.147-.147-1.121-.177l-1.865.002c-.153-.016-.51-.098-.51-.51 0-.372.224-.475.369-.492h2.903a.5.5 0 0 0 .5-.5v-.886c0-1.022.346-1.962.943-2.572 1.206-1.192 1.664-2.912 1.225-4.603Z"/></svg>