<!-- SPDX-FileCopyrightText: © 2025 Schneider Electric SPDX-License-Identifier: LicenseRef-Proprietary -->
<svg xmlns="http://www.w3.org/2000/svg" viewBox="0 0 16 16"><path d="M14.174 6.138h-1.468v-.001a.5.5 0 0 0 0 1h1.468v.001a.5.5 0 0 0 0-1ZM7.863 2.469za.5.5 0 0 0 .5-.5L8.365.5a.5.5 0 0 0-.5-.5h0a.5.5 0 0 0-.5.5l-.002 1.469a.5.5 0 0 0 .5.5Zm3.402 1.257a.5.5 0 0 0 .354-.146l1.04-1.038a.502.502 0 0 0-.708-.708l-1.04 1.038a.502.502 0 0 0 .354.854Zm-6.994.066a.5.5 0 1 0 .707-.706L3.94 2.046a.5.5 0 1 0-.707.707zm4.71-.418c-1.174-.296-2.38-.051-3.312.675a3.77 3.77 0 0 0-1.465 2.996c0 .911.327 1.792.965 2.527.532.477.673.62.724 1.055a.5.5 0 0 0 .993-.116c-.096-.83-.496-1.188-1.004-1.639a2.8 2.8 0 0 1-.678-1.828c0-.868.394-1.672 1.08-2.207s1.578-.716 2.452-.495c.816.206 1.75 1.128 1.959 1.935.263 1.012-.008 2.038-.729 2.751-.643.656-.997 1.595-.997 2.642v.192H7.161c-.46.033-1.145.4-1.145 1.277 0 .872.727 1.247 1.255 1.288h1.46l-.011.037c-.142.467-.439.532-.402.533l-1.195-.004h-.001a.5.5 0 0 0-.001 1h1.25c.357-.037 1.035-.342 1.307-1.239.211-.697.241-.933.026-1.156q-.146-.146-.954-.171l-1.431.002q-.302-.034-.302-.29c0-.075 0-.253.18-.277H9.47a.5.5 0 0 0 .5-.5v-.692c0-.773.259-1.481.706-1.937.972-.961 1.341-2.348.988-3.708-.302-1.166-1.505-2.356-2.682-2.653ZM3.296 6.158H1.827v-.001a.5.5 0 0 0 0 1h1.469v.001a.5.5 0 0 0 0-1Z"/></svg>