<!-- SPDX-FileCopyrightText: undefined SPDX-License-Identifier: undefined -->
<svg xmlns="http://www.w3.org/2000/svg" viewBox="0 0 16 16"><path d="M10.539 15.998c-.572 0-1.532-.258-1.532-1.986V6H6.522c-.534 0-.953-.135-1.245-.402a1.47 1.47 0 0 1-.459-1.102c0-.45.159-.819.473-1.098Q5.754 3 6.522 3.001h7.758c.541 0 .964.14 1.257.415.313.288.462.621.463 1.045 0 .458-.166.862-.467 1.138q-.458.403-1.253.402h-2.772a.5.5 0 0 1 0-1h2.772c.274 0 .477-.05.584-.146.084-.077.136-.223.136-.393 0-.145-.03-.21-.143-.314-.104-.096-.307-.147-.577-.147H6.522q-.398 0-.572.15c-.077.068-.132.156-.132.346 0 .213.08.312.14.369.094.086.296.136.564.136h2.985a.5.5 0 0 1 .5.5v8.512c0 .986.308.986.532.986.311 0 .468-.332.468-.986V7.502a.5.5 0 0 1 1 0v6.512c0 1.244-.549 1.986-1.468 1.986Zm-5.995-.996L3.509 15a.5.5 0 0 1 .002-1h.002l.978.005c-.017-.004.437-.095.645-.779q.037-.121.064-.221L5.026 13h-1.32c-.613-.049-1.463-.488-1.463-1.508 0-1.025.797-1.454 1.333-1.492h2.435c.002-1.046.315-2.026.88-2.762a.5.5 0 0 1 .793.609c-.434.564-.673 1.332-.673 2.162v.489a.5.5 0 0 1-.5.5h-2.9c-.144.018-.368.12-.368.493 0 .411.356.494.51.51l1.288-.002q.992.029 1.143.201c.193.185.183.411-.091 1.314-.326 1.076-1.128 1.44-1.55 1.486ZM2.532 9.293a.5.5 0 0 1-.498-.458c-.053-.627-.232-.812-.91-1.421A4.5 4.5 0 0 1 0 4.454 4.43 4.43 0 0 1 1.721.935C2.814.084 4.23-.205 5.604.143c.761.193 1.565.721 2.206 1.448a.5.5 0 1 1-.75.662c-.504-.571-1.14-.998-1.701-1.14-1.071-.272-2.176-.049-3.023.611a3.44 3.44 0 0 0-1.335 2.73c0 .831.297 1.634.837 2.261.648.576 1.106.987 1.193 2.036a.5.5 0 0 1-.499.542Z"/></svg>