<!-- SPDX-FileCopyrightText: © 2025 Schneider Electric SPDX-License-Identifier: LicenseRef-Proprietary -->
<svg xmlns="http://www.w3.org/2000/svg" viewBox="0 0 16.005 16.005"><path d="M7.337 12.653a.502.502 0 1 0 .905.438c1.714-3.552.533-5.658-.508-7.517-.856-1.528-1.595-2.847-.675-4.862a.503.503 0 0 0-.915-.417c-1.131 2.479-.194 4.152.713 5.77 1.011 1.805 1.966 3.51.479 6.589Zm4.084 0a.502.502 0 0 0 .904.438c1.715-3.552.533-5.658-.509-7.518-.855-1.527-1.596-2.846-.677-4.862a.503.503 0 0 0-.914-.417c-1.13 2.479-.192 4.152.715 5.77 1.012 1.805 1.967 3.509.48 6.589ZM15.502 15h-15a.502.502 0 0 0 0 1.004h15a.502.502 0 0 0 0-1.004ZM3.253 12.653a.502.502 0 1 0 .905.438c1.714-3.552.537-5.658-.502-7.517-.854-1.528-1.591-2.847-.671-4.862A.503.503 0 0 0 2.07.295c-1.13 2.479-.196 4.151.708 5.769 1.009 1.805 1.961 3.51.474 6.59Z"/></svg>