<!-- SPDX-FileCopyrightText: © 2025 Schneider Electric SPDX-License-Identifier: LicenseRef-Proprietary -->
<svg xmlns="http://www.w3.org/2000/svg" viewBox="0 0 16 16"><path d="M1.684 6.321a.5.5 0 0 0 0 1A.685.685 0 1 1 1 8.005a.5.5 0 0 0-1 0 1.685 1.685 0 0 0 3.369 0c0-.929-.756-1.684-1.685-1.684Zm0 5.126a.5.5 0 0 0 0 1 .685.685 0 1 1-.684.685.5.5 0 0 0-1 0 1.685 1.685 0 0 0 3.369 0c0-.929-.756-1.685-1.685-1.685ZM5.5 3h10a.5.5 0 0 0 0-1h-10a.5.5 0 0 0 0 1ZM1.684 1.184a.5.5 0 0 0 0 1A.685.685 0 1 1 1 2.869a.5.5 0 0 0-1 0 1.685 1.685 0 0 0 3.369 0c0-.929-.756-1.685-1.685-1.685ZM15.5 7.5h-10a.5.5 0 0 0 0 1h10a.5.5 0 0 0 0-1Zm0 5.5h-10a.5.5 0 0 0 0 1h10a.5.5 0 0 0 0-1Z"/></svg>