<!-- SPDX-FileCopyrightText: © 2025 Schneider Electric SPDX-License-Identifier: LicenseRef-Proprietary -->
<svg xmlns="http://www.w3.org/2000/svg" viewBox="0 0 16 16"><path d="m.782 1.62.252-.172v2.456a.5.5 0 0 0 1 0V.5a.5.5 0 0 0-.783-.413L.218.793a.501.501 0 0 0 .564.827ZM4.416 3H15.5a.5.5 0 0 0 0-1H4.416a.5.5 0 0 0 0 1ZM2.622 13.68c.138-.211.257-.565.043-1.06-.212-.49-.557-.691-.809-.774-.689-.229-1.409.173-1.488.22a.5.5 0 0 0 .499.867c.132-.074.469-.206.678-.136.034.012.125.042.203.222.034.078.034.115.036.116-.05.07-.314.156-.593.179-.074 0-.131.005-.162.008a.5.5 0 0 0 .043.999c.022-.006.083 0 .149-.005.217 0 .502.046.599.146.011.013.038.041.024.15-.013.103-.056.346-.174.38-.208.067-.604-.151-.721-.268a.5.5 0 0 0-.93.356c.127.454.945.921 1.583.921q.046.001.09-.004c.299-.021 1.009-.188 1.144-1.261.06-.474-.12-.78-.286-.958q.039-.046.073-.098ZM2.678 9H1.672c.538-.665 1.115-1.541 1.079-2.2a.94.94 0 0 0-.344-.697 1.35 1.35 0 0 0-1.021-.32c-.711.075-1.222.69-1.277.76a.501.501 0 0 0 .78.626c.001-.001.16-.194.377-.313.239-.131.377-.086.485-.013C1.824 7.139 1.07 8.261.2 9.15a.5.5 0 0 0 .357.85h2.12a.5.5 0 0 0 0-1ZM15.5 7.866H4.416a.5.5 0 0 0 0 1H15.5a.5.5 0 0 0 0-1Zm0 6H4.416a.5.5 0 0 0 0 1H15.5a.5.5 0 0 0 0-1Z"/></svg>