<!-- SPDX-FileCopyrightText: © 2025 Schneider Electric SPDX-License-Identifier: LicenseRef-Proprietary -->
<svg xmlns="http://www.w3.org/2000/svg" viewBox="0 0 16 16.002"><circle cx="3.5" cy="12.538" r=".5"/><circle cx="3.5" cy="9.576" r=".5"/><path d="M13.5 6.049h-2.413a.5.5 0 0 0 0 1H13.5a.5.5 0 0 0 0-1Zm0 5.989h-8a.5.5 0 0 0 0 1h8a.5.5 0 0 0 0-1Zm0-2.962h-8a.5.5 0 0 0 0 1h8a.5.5 0 0 0 0-1ZM5.313 1.313h.034c2.199 0 3.854 1.016 4.924 3.021a8.5 8.5 0 0 0-1.239.842.5.5 0 1 0 .618.786c.444-.349.893-.683 1.492-.938a.5.5 0 0 0 .249-.69l-.055-.112C9.79.995 7.232.313 5.345.313H5.31a.5.5 0 0 0 .002 1ZM6.966 7.43c.446-.102.85-.251 1.246-.462L9.394 8.15a.5.5 0 0 0 .708 0 .5.5 0 0 0 0-.707L2.805.147a.5.5 0 0 0-.707.707l1.241 1.241C2.316 2.306.817 2.864.056 4.334a.5.5 0 0 0 .012.482A6.34 6.34 0 0 0 6.966 7.43ZM4.422 3.178l1.837 1.838a1.318 1.318 0 0 1-1.837-1.838Zm-1.097-.051a2.32 2.32 0 0 0 2.164 3.139c.545 0 1.07-.195 1.483-.538l.492.492c-.23.1-.466.177-.719.235-3.346.759-5.136-1.206-5.655-1.909.557-.841 1.497-1.234 2.235-1.418Z"/><path d="M5.956 1.679a.499.499 0 1 0-.201.979c.515.105.916.505 1.023 1.019a.5.5 0 1 0 .979-.204 2.31 2.31 0 0 0-1.801-1.794Z"/><path d="M14.831.001H10.5a.5.5 0 0 0 0 1h4.331c.092 0 .169.078.169.169v13.661c0 .092-.077.17-.169.17H1.169a.17.17 0 0 1-.169-.17v-7.33a.5.5 0 0 0-1 0v7.33c0 .646.524 1.17 1.169 1.17h13.662A1.17 1.17 0 0 0 16 14.831V1.171a1.17 1.17 0 0 0-1.169-1.17Z"/></svg>