<!-- SPDX-FileCopyrightText: © 2025 Schneider Electric SPDX-License-Identifier: LicenseRef-Proprietary -->
<svg xmlns="http://www.w3.org/2000/svg" viewBox="0 0 16 16"><path d="M7 11.5v-4a.5.5 0 0 0-1 0v4a.5.5 0 0 0 1 0Zm-2.5.5a.5.5 0 0 0 .5-.499l.008-3c0-.275-.223-.5-.499-.501h-.001a.5.5 0 0 0-.5.499l-.008 3c0 .275.223.5.499.501z"/><path d="M16 12.513V2.581c0-.749-.311-1.112-.572-1.286-.617-.412-1.432-.09-1.555-.038C9.06 3.67 1.701 7.326 1.165 7.502.246 7.756 0 8.877 0 9.5a.5.5 0 0 0 .499.499H.5a.5.5 0 0 0 .5-.497c.002-.288.113-.948.432-1.037.638-.178 10.849-5.292 12.856-6.3.169-.068.468-.117.587-.037.078.053.125.222.125.453l.004 9.994c.006.055.004.233-.079.326-.074.082-.229.1-.346.1H1.192c-.028 0-.111-.007-.144-.038-.023-.023-.049-.09-.049-.211v-1.251a.5.5 0 0 0-1 0v1.251c0 .503.205.795.377.951.297.271.665.3.799.3q.05 0 .052-.002h13.351c.59 0 .924-.242 1.101-.444.393-.45.325-1.043.32-1.043Z"/><path d="M3 11.5v-2a.5.5 0 0 0-1 0v2a.5.5 0 0 0 1 0Zm10 0V4.533a.5.5 0 0 0-1 0V11.5a.5.5 0 0 0 1 0Zm-4 0v-5a.5.5 0 0 0-1 0v5a.5.5 0 0 0 1 0Zm2 0v-6a.5.5 0 0 0-1 0v6a.5.5 0 0 0 1 0Z"/></svg>