<!-- SPDX-FileCopyrightText: © 2025 Schneider Electric SPDX-License-Identifier: LicenseRef-Proprietary -->
<svg xmlns="http://www.w3.org/2000/svg" viewBox="0 0 16 16"><path d="M8 4.947c.812 0 1.474.661 1.474 1.474a.5.5 0 0 0 1 0c0-1.364-1.109-2.474-2.474-2.474s-2.474 1.11-2.474 2.474S6.636 8.895 8 8.895a.5.5 0 0 0 0-1c-.812 0-1.474-.661-1.474-1.474S7.187 4.947 8 4.947Z"/><path d="M14.14 4.073C13.079 1.561 10.727 0 8 0S2.921 1.561 1.86 4.073s-.538 5.287 1.365 7.241l4.417 4.535a.5.5 0 0 0 .717-.698l-4.417-4.535c-1.617-1.661-2.062-4.02-1.16-6.155S5.683 1 8 1s4.317 1.326 5.218 3.461.457 4.494-1.16 6.155l-2.879 2.956a.5.5 0 0 0 .717.697l2.879-2.956c1.902-1.954 2.426-4.729 1.365-7.241Z"/></svg>