<!-- SPDX-FileCopyrightText: © 2025 Schneider Electric SPDX-License-Identifier: LicenseRef-Proprietary -->
<svg xmlns="http://www.w3.org/2000/svg" viewBox="0 0 16 16"><path d="M12.036 8.106a6 6 0 0 1-.368 1.871.5.5 0 1 0 .938.348 7.04 7.04 0 0 0-1.008-6.709.5.5 0 0 0-.794.608 6.03 6.03 0 0 1 1.234 3.882ZM9.09 7.634a.5.5 0 0 0 .989-.145 3.27 3.27 0 0 0-.803-1.709.5.5 0 1 0-.745.667c.301.335.494.747.559 1.188Zm5.909.486a9.6 9.6 0 0 1-.851 3.864.503.503 0 0 0 .456.706.5.5 0 0 0 .456-.294c.606-1.344.923-2.779.938-4.265a10.6 10.6 0 0 0-1.849-6.117.5.5 0 0 0-.826.564 9.6 9.6 0 0 1 1.675 5.542ZM5.96 3.667 6 3.626v.785a.5.5 0 0 0 1 0V2.399a.5.5 0 0 0-.858-.35l-.898.919a.5.5 0 1 0 .716.698Zm9.894 11.479-15-15a.502.502 0 0 0-.708.708l15 15a.5.5 0 0 0 .708 0 .5.5 0 0 0 0-.707ZM6.5 8.19a.5.5 0 0 0-.5.5v3.743l-2.303-2.288a.5.5 0 0 0-.353-.146H1v-4h2.469a.5.5 0 0 0 0-1H.727a.5.5 0 0 0-.113.013A.515.515 0 0 0 0 5.5v5a.5.5 0 0 0 .5.5h2.639l3.009 2.989a.501.501 0 0 0 .853-.354V8.691a.5.5 0 0 0-.5-.5Z"/></svg>