<!-- SPDX-FileCopyrightText: © 2025 Schneider Electric SPDX-License-Identifier: LicenseRef-Proprietary -->
<svg xmlns="http://www.w3.org/2000/svg" viewBox="0 0 16 16"><path d="M6.688 1.936a.5.5 0 0 0-.546.113L3.258 5H2.5a.5.5 0 0 0 0 1h.969a.5.5 0 0 0 .357-.15L6 3.626v8.808l-2.303-2.288A.5.5 0 0 0 3.344 10H1V5.5a.5.5 0 0 0-1 0v5a.5.5 0 0 0 .5.5h2.639l3.009 2.989a.501.501 0 0 0 .853-.354V2.398a.5.5 0 0 0-.312-.463ZM8.57 5.74a.5.5 0 0 0-.039.706c.408.455.614 1.042.581 1.652a2.27 2.27 0 0 1-.547 1.363.5.5 0 0 0 .758.652c.475-.553.748-1.23.788-1.961a3.27 3.27 0 0 0-.833-2.374.5.5 0 0 0-.706-.039Zm3.027-2.123a.5.5 0 0 0-.794.608 6.04 6.04 0 0 1 1.234 3.882 6 6 0 0 1-1.261 3.474.5.5 0 1 0 .79.613 6.97 6.97 0 0 0 1.47-4.05 7.04 7.04 0 0 0-1.439-4.527Z"/></svg>