<!-- SPDX-FileCopyrightText: © 2025 Schneider Electric SPDX-License-Identifier: LicenseRef-Proprietary -->
<svg xmlns="http://www.w3.org/2000/svg" viewBox="0 0 16 16"><path d="M15.678 13.569 12.03 9.92l-.01-.01-.547-.548-.053-.046-.498-.5c-.293-.305-.903-.939-1.654-.567a.5.5 0 1 0 .442.897c.086-.039.373.24.491.364l4.686 4.737a.49.49 0 0 1-.111.533.5.5 0 0 1-.347.145h0a.5.5 0 0 1-.324-.122L9.066 9.728l-.002-.003-2.536-2.537a.49.49 0 0 1 0-.696.493.493 0 0 1 .69-.008l.886.925a.5.5 0 0 0 .228.143.49.49 0 0 0 .593-.268c.466-.933 1.727-1.024 1.737-1.025a.5.5 0 0 0 .039-.994c-.983-.133-1.357-.326-1.477-.406.057-.373.637-1.454 1.309-2.423a.5.5 0 0 0-.704-.69c-1.01.73-2.155 1.345-2.38 1.346-.228-.189-.609-1.438-.816-2.672a.484.484 0 0 0-.497-.417.5.5 0 0 0-.49.425c-.187 1.229-.557 2.469-.733 2.63-.292.035-1.447-.578-2.463-1.311a.5.5 0 0 0-.703.692c.721 1.03 1.333 2.19 1.344 2.403-.19.225-1.435.599-2.664.799a.5.5 0 0 0-.002.987c1.232.207 2.481.586 2.64.736.025.294-.589 1.445-1.315 2.463a.5.5 0 0 0 .697.698C3.47 9.798 4.636 9.193 4.86 9.19c.011.008.262.223.572 1.563a.5.5 0 1 0 .975-.225c-.412-1.782-.83-2.145-1.184-2.266-.371-.125-.948.05-1.547.341.31-.633.477-1.214.324-1.583-.151-.365-.67-.655-1.326-.883.673-.232 1.2-.532 1.335-.914.128-.363-.041-.932-.344-1.553.606.295 1.19.473 1.572.331.388-.145.686-.658.913-1.312.224.637.508 1.142.863 1.3.376.164.963 0 1.604-.313-.305.626-.476 1.197-.345 1.552q.13.356.653.605a2.8 2.8 0 0 0-.519.448l-.476-.497a1.497 1.497 0 0 0-2.112 0 1.48 1.48 0 0 0-.437 1.057c0 .399.155.773.437 1.054l2.535 2.536 4.991 5.027.024.027.041.039.191.193c.182.182.44.282.729.282h0c.399 0 .83-.192 1.15-.515.322-.321.507-.734.506-1.135 0-.305-.111-.583-.312-.781Z"/></svg>