<!-- SPDX-FileCopyrightText: © 2025 Schneider Electric SPDX-License-Identifier: LicenseRef-Proprietary -->
<svg xmlns="http://www.w3.org/2000/svg" viewBox="0 0 16 16"><path d="M14.504 11.036a.5.5 0 0 0 .5-.5V8.38a.5.5 0 0 0-1 0v2.156a.5.5 0 0 0 .5.5ZM2.651 1h2.923a.5.5 0 0 0 0-1H2.651a.5.5 0 0 0 0 1Zm11.853 4.226a.5.5 0 0 0 .5-.5V1.803a.5.5 0 0 0-1 0v2.923a.5.5 0 0 0 .5.5ZM9.229 1h2.923a.5.5 0 0 0 0-1H9.229a.5.5 0 0 0 0 1ZM5.081 13H2.158a.5.5 0 0 0 0 1h2.923a.5.5 0 0 0 0-1ZM.5 8.08a.5.5 0 0 0-.5.5v2.924a.5.5 0 0 0 1 0V8.58a.5.5 0 0 0-.5-.5Zm0-6.578a.5.5 0 0 0-.5.5v2.923a.5.5 0 0 0 1 0V2.002a.5.5 0 0 0-.5-.5Zm14.769 13.06-4.374-4.374a4.67 4.67 0 0 0 1.023-2.921c0-2.58-2.099-4.679-4.679-4.679S2.561 4.687 2.561 7.267a4.683 4.683 0 0 0 6.028 4.482.5.5 0 0 0-.287-.959 3.682 3.682 0 0 1-4.74-3.523c0-2.029 1.65-3.679 3.678-3.679s3.679 1.65 3.679 3.679c0 .91-.335 1.784-.943 2.46l-.093.099a.5.5 0 0 0-.12.493.5.5 0 0 0 .143.293l4.657 4.657a.5.5 0 0 0 .708 0 .5.5 0 0 0 0-.707Z"/></svg>