<!-- SPDX-FileCopyrightText: © 2025 Schneider Electric SPDX-License-Identifier: LicenseRef-Proprietary -->
<svg xmlns="http://www.w3.org/2000/svg" viewBox="0 0 16 16"><path d="M15.719 4.833c-.097-.047-2.413-1.144-6.317-.362a.5.5 0 0 0-.402.49V7.03c0 .106.034.21.097.296.194.265.467.765.467 1.045 0 .583-.474 1.058-1.057 1.058S7.45 8.954 7.45 8.371c0-.388.217-.766.42-.99A.5.5 0 0 0 8 7.045V1h3v1H9.5a.5.5 0 0 0 0 1h2a.5.5 0 0 0 .5-.5v-2a.5.5 0 0 0-.5-.5h-4a.5.5 0 0 0-.5.5v6.363c-.228.294-.55.829-.55 1.507 0 1.135.923 2.058 2.057 2.058s2.057-.923 2.057-2.058c0-.572-.376-1.213-.564-1.497V5.376c2.584-.44 4.346.021 5 .247v5.512L5 13.991V6.745a.5.5 0 0 0-.126-.332c-.75-.845-2.688-2.098-4.651-.79A.5.5 0 0 0 0 6.039v6.265c0 .167.083.323.223.416l2.335 1.557a.5.5 0 0 0 .554-.832L.999 12.037V6.322c1.376-.736 2.607.256 3 .628v7.704a.5.5 0 0 0 .637.48l11-3.143a.5.5 0 0 0 .363-.48V5.282a.5.5 0 0 0-.281-.45Z"/></svg>