<!-- SPDX-FileCopyrightText: © 2025 Schneider Electric SPDX-License-Identifier: LicenseRef-Proprietary -->
<svg xmlns="http://www.w3.org/2000/svg" viewBox="0 0 16 16"><path d="M15.563 9.914A2.27 2.27 0 0 0 13.809 9H8V4.998c.09-.224.006-.595-1-2.479v-1.5A1.12 1.12 0 0 0 5.836.006L5.31.002a1.4 1.4 0 0 0-.254.008c-.673.087-.973.629-1.043.936A.5.5 0 0 0 4 1.058v1.459c-.202.408-.841 1.724-.986 2.32A.5.5 0 0 0 3 4.955V10h-.515C1.653 10.004 0 10.093 0 11.917 0 14 1.859 14 2.47 14h3.926l-1.234 1.131a.5.5 0 0 0 .676.738l2.095-1.92a.5.5 0 0 0-.012-.748l-2.095-1.797a.5.5 0 0 0-.651.759l.976.837h-3.68c-1.113 0-1.47-.263-1.47-1.083 0-.72.345-.917 1.605-.917h.895a.5.5 0 0 0 .5-.5V5.02c.144-.511.727-1.722.947-2.161a.5.5 0 0 0 .053-.224V1.141a.23.23 0 0 1 .186-.139c.03-.003.043 0 .106 0 .093.002.249.005.545.005.115 0 .154.025.164.052v1.586q0 .126.06.236c.39.727.833 1.616.943 1.925l-.002.049V9.5a.5.5 0 0 0 .5.5h6.288c.388.015.743.202.973.511.223.3.293.67.197 1.044-.112.439-.466.841-.822.933-.426.111-.841.042-1.137-.186a1 1 0 0 1-.382-.806.5.5 0 0 0-1 0 2 2 0 0 0 .771 1.597c.542.42 1.273.552 2 .363.704-.183 1.337-.862 1.54-1.653a2.23 2.23 0 0 0-.364-1.889Z"/></svg>