<!-- SPDX-FileCopyrightText: © 2025 Schneider Electric SPDX-License-Identifier: LicenseRef-Proprietary -->
<svg xmlns="http://www.w3.org/2000/svg" viewBox="0 0 16 16"><path d="M12.5 15H3.896l.682-2.402 2.773.67c.771.178 2.507.066 3.568-1.65.937-1.514.359-2.96-.23-3.728a1.876 1.876 0 0 0-1.716-2.628 1.876 1.876 0 0 0-.998 3.462l-.393 1.48-2.169-.538 1.614-6.037a.496.496 0 0 0 .565-.363l.584-2.167 1.293.31-.568 2.123a.5.5 0 0 0 .324.604.5.5 0 0 0 .981.112l.09-.319a.5.5 0 0 0-.304-.603l.577-2.154a.5.5 0 0 0-.366-.615L7.938.014a.5.5 0 0 0-.6.356l-.582 2.159a.504.504 0 0 0-.566.364L4.316 9.899a.5.5 0 0 0 .362.614l3.141.779a.504.504 0 0 0 .604-.357l.627-2.359a.5.5 0 0 0-.336-.606.876.876 0 0 1 .259-1.709.874.874 0 0 1 .737 1.344.5.5 0 0 0 .014.695c.052.052 1.269 1.298.345 2.792-.941 1.521-2.43 1.217-2.486 1.202l-3.237-.781a.506.506 0 0 0-.598.35l-.993 3.501a.5.5 0 0 0 .481.636h9.266a.5.5 0 0 0 0-1Z"/></svg>