<!-- SPDX-FileCopyrightText: © 2025 Schneider Electric SPDX-License-Identifier: LicenseRef-Proprietary -->
<svg xmlns="http://www.w3.org/2000/svg" viewBox="0 0 16 16"><path d="M13 9.561V7.496a.5.5 0 0 0-.5-.5h-2a.5.5 0 0 0-.5.5v1.499a2 2 0 0 1-4 0V2.998a2 2 0 0 1 4 0v1.999H7.5a.5.5 0 0 0 0 1h3a.5.5 0 0 0 .5-.5V2.998C11 1.345 9.654 0 8 0S5 1.345 5 2.998v5.996c0 1.653 1.346 2.998 3 2.998s3-1.345 3-2.998v-.999h1V9.56a3.436 3.436 0 0 1-3.434 3.431H7.433A3.437 3.437 0 0 1 3.999 9.56V7.495a.5.5 0 0 0-1 0V9.56a4.44 4.44 0 0 0 4.434 4.431h.062l.01 1.004L4.497 15a.5.5 0 0 0 .001 1h0l7.005-.011a.5.5 0 0 0-.001-1h0l-2.997.005-.01-1.003h.071A4.44 4.44 0 0 0 13 9.56Z"/></svg>