<!-- SPDX-FileCopyrightText: © 2025 Schneider Electric SPDX-License-Identifier: LicenseRef-Proprietary -->
<svg xmlns="http://www.w3.org/2000/svg" viewBox="0 0 16 16"><path d="M15.988 2.535a.5.5 0 0 0-.598-.378l-3.359.752a.5.5 0 0 0-.165.07l-1.577 1.034L.675 5.544a.5.5 0 0 0-.417.427L.004 7.852a.5.5 0 0 0 .042.279l.174.373a.5.5 0 0 0 .312.268l.993.294v.683c-.315.351-.72.869-.72 1.492a2.412 2.412 0 0 0 3.039 2.323 2.385 2.385 0 0 0 1.759-2.068h1.922c.013.73.35 1.404.929 1.854a2.4 2.4 0 0 0 1.478.505q.31 0 .621-.078a2.39 2.39 0 0 0 1.773-2.114l2.734-.195a.5.5 0 0 0 .464-.499V6.996a.5.5 0 0 0-.5-.5h-1.51l.36-1.373a.499.499 0 1 0-.966-.254l-.525 2a.5.5 0 0 0 .484.627h1.658v3.007l-2.319.167a2.4 2.4 0 0 0-.534-.88.5.5 0 0 0-.725.689 1.407 1.407 0 0 1-.639 2.329 1.42 1.42 0 0 1-1.239-.247 1.4 1.4 0 0 1-.543-1.11v-.455a.5.5 0 0 0-.5-.5H5.5a2.4 2.4 0 0 0-.563-.932.5.5 0 0 0-.716.697 1.406 1.406 0 0 1-.625 2.334c-.448.116-.89.03-1.243-.243a1.4 1.4 0 0 1-.545-1.111c0-.324.367-.721.587-.958a.5.5 0 0 0 .133-.34V8.692a.5.5 0 0 0-.358-.479l-1.136-.335-.017-.036.184-1.367 9.354-1.49a.5.5 0 0 0 .195-.076l1.591-1.042 3.271-.733a.5.5 0 0 0 .379-.597Z"/></svg>