<!-- SPDX-FileCopyrightText: © 2025 Schneider Electric SPDX-License-Identifier: LicenseRef-Proprietary -->
<svg xmlns="http://www.w3.org/2000/svg" viewBox="0 0 16 16"><path fill="currentColor" d="M6 2.5a.5.5 0 0 0-.5-.5h-3a.5.5 0 0 0 0 1h3a.5.5 0 0 0 .5-.5Z"/><path fill="currentColor" d="M15.5 4h-3a.5.5 0 0 0-.5.5v1a.5.5 0 0 0 1 0V5h2v2h-1.5a.497.497 0 0 0-.5.511l.07 1.909c-.065.084-.397.238-.639.35-.414.191-.949.438-1.44.834v-.007a.5.5 0 0 0 .012-.11 3 3 0 0 0-.014-.289l-.026-6.701a.5.5 0 0 0-.5-.498H9.366l1.125-1.649.827 1.052a.5.5 0 1 0 .786-.618L10.856.195a.47.47 0 0 0-.41-.19.5.5 0 0 0-.396.218L8.006 3.218A.5.5 0 0 0 8.419 4h1.546l.019 4.925c-.214-.057-.43-.075-.609-.09-.64-.054-1.027-.086-1.213-.995a.5.5 0 0 0-.59-.39l-.011.002a.5.5 0 0 0-.183.046.83.83 0 0 1-1.154-.546.82.82 0 0 1 .092-.626.8.8 0 0 1 .325-.307 1 1 0 0 1 .183-.07l.061-.013a.82.82 0 0 1 .805.32.5.5 0 0 0 .802-.596 1.8 1.8 0 0 0-.53-.478 1.83 1.83 0 0 0-2.241.291 1.835 1.835 0 0 0-.335 2.083 1.8 1.8 0 0 0 .539.652c.336.254.754.396 1.187.368h.012q.104-.005.206-.022c.441 1.151 1.376 1.229 1.962 1.279.498.042.656.055.698.372l.007 1.69a.5.5 0 0 0 0 .188v.308c-.295.078-.569.23-.797.448a1.82 1.82 0 0 0-.56 1.474c.019.24.085.473.194.687H5.703a.6.6 0 0 1-.432-.192.98.98 0 0 1-.271-.694v-.113h1.202A1.8 1.8 0 0 0 8 12.203v-1.418a.5.5 0 0 0-1 0v1.418a.8.8 0 0 1-.798.798H1.784A.785.785 0 0 1 1 12.217V1.791C1 1.355 1.354 1 1.791 1h4.43c.317 0 .6.189.721.483a.501.501 0 0 0 .925-.381A1.78 1.78 0 0 0 6.221 0h-4.43C.803 0 0 .803 0 1.791v10.425C0 13.199.8 14 1.784 14H4v.113c0 .533.206 1.044.564 1.402.313.312.709.51 1.14.484h4.767a1.834 1.834 0 0 0 1.822-2.013c-.026-.273-.268-.462-.546-.449a.5.5 0 0 0-.449.547.83.83 0 0 1-.13.534l-.019.026a.81.81 0 0 1-.699.352.83.83 0 0 1-.584-.257.82.82 0 0 1-.227-.652.82.82 0 0 1 .299-.563l.031-.027a.78.78 0 0 1 .517-.166h.017a.5.5 0 0 0 .498-.502l-.003-.733c.441-.765 1.221-1.125 1.854-1.418.614-.284 1.195-.553 1.195-1.183l-.034-1.494h1.488a.5.5 0 0 0 .5-.5v-3a.5.5 0 0 0-.5-.5Z"/><path fill="currentColor" d="M3.5 11a.5.5 0 0 0 0 1h1a.5.5 0 0 0 0-1z"/></svg>