<!-- SPDX-FileCopyrightText: (no copyright) SPDX-License-Identifier: CC-BY-SA-4.0 -->
<svg xmlns="http://www.w3.org/2000/svg" version="1.1" viewBox="0 0 5008.117 5008.656"><path fill="#ffffff" d="m2504.031 0-.029.33c546.076 0 1051.337 175.387 1463.186 472.16C3555.542 175.508 3050.435 0 2504.034 0q0 0 0 0zm-.943.023C1595.87.361 801.453 483.097 362.449 1205.701 801.58 483.504 1596.466.361 2503.088.023ZM876.594 1188.305v2106.529H128.189c59.885 179.992 139.044 351.168 236.079 510.402l512.289-.092h543.005V2479.623l710.229 710.27h.029l374.156 374.142 374.143-374.142 710.263-710.27v1325.522h543.032l512.507-.018c97.004-159.203 176.138-330.343 236.008-510.293h-748.515v-2106.53L2504.002 2815.75ZM18.445 2204.617C6.728 2302.874 0 2402.661 0 2504.074c0 23.267 1.123 46.259 1.754 69.373-.646-23.105-1.432-46.175-1.461-69.433-.129-101.378 6.506-201.146 18.152-299.397zm4983.543 132.824c3.543 55.118 5.96 110.539 5.862 166.573-.04 23.11-.83 46.034-1.475 68.994.623-22.97 1.742-45.814 1.742-68.934 0-56.055-2.503-111.496-6.129-166.633zm3.428 273.432c-1.057 24.816-2.755 49.457-4.514 74.08 1.76-24.63 3.471-49.259 4.514-74.08zm-5002.709.285c1.025 24.346 2.706 48.503 4.422 72.664-1.713-24.156-3.388-48.323-4.422-72.664zm4995.232 112.776a2549 2549 0 0 1-7.117 70.521 2513 2513 0 0 0 7.117-70.521zm-4987.703.761a2513 2513 0 0 0 6.979 69.139c-2.632-22.954-4.965-46-6.979-69.139zm4974.953 114.088c-2.863 21.57-5.718 43.141-9.123 64.533 3.429-21.389 6.24-42.966 9.123-64.533zm-4962.16.81c2.85 21.267 5.626 42.544 9.006 63.637-3.36-21.095-6.173-42.369-9.006-63.636zm21.018 130.895c4.137 21.95 8.432 43.829 13.139 65.573-4.686-21.75-9.023-43.618-13.14-65.573zm4919.734 1.633c-3.878 20.63-7.933 41.19-12.316 61.639 4.404-20.443 8.415-41.014 12.316-61.639zM75.97 3117.453c3.275 13.003 6.876 25.864 10.353 38.785-3.468-12.922-7.089-25.782-10.353-38.785zm4856.039.613c-3.12 12.416-6.584 24.694-9.89 37.036 3.314-12.341 6.76-24.62 9.89-37.036zm-4824.914 111.32zm4793.851.274zm-261.37 582.248c-23.47 38.221-48.098 75.647-73.528 112.48 25.424-36.839 50.063-74.247 73.527-112.48zm-4270.343 1.072c23.181 37.727 47.487 74.664 72.577 111.034-25.094-36.366-49.394-73.315-72.577-111.034zm4172.809 145.164zm-4075.328.893zm3986.244 116.668c-28.893 35.774-58.514 70.94-89.299 105.057 30.783-34.12 60.407-69.274 89.299-105.057zm-3897.238.709c27.872 34.494 56.476 68.356 86.107 101.305-29.63-32.947-58.236-66.817-86.107-101.305zm3804.715 108.07c-32.541 35.922-66.33 70.68-100.881 104.662 34.553-33.984 68.338-68.733 100.88-104.662zm-3712.207.623c32.143 35.465 65.504 69.775 99.607 103.344-34.1-33.569-67.467-67.884-99.607-103.344zm3585.793 128.385a2523 2523 0 0 1-81.82 74.91c27.837-24.369 55.091-49.348 81.82-74.91zm-3458.202 1.64c25.757 24.587 51.99 48.643 78.776 72.124-26.779-23.48-53.025-47.54-78.776-72.123zm3345.662 99.882zm-3233.724.968c29.608 25.057 59.818 49.39 90.582 73.073-30.756-23.686-60.981-48.016-90.582-73.073zm3121.125 89.494c-38.126 28.724-77.19 56.26-116.963 82.815 39.785-26.546 78.828-54.095 116.963-82.815zm-3008.82.65c37.582 28.28 76.048 55.418 115.232 81.587-39.173-26.178-77.66-53.302-115.232-81.586zm2860.502 102.267c-29.744 19.226-59.884 37.878-90.475 55.86 30.603-17.974 60.72-36.64 90.475-55.86zm-2710.518 1.6c28.535 18.385 57.386 36.284 86.701 53.526-29.303-17.248-58.176-35.136-86.701-53.527zm2577.572 78.68c-29.657 16.662-59.77 32.588-90.156 48.061 30.4-15.463 60.489-31.407 90.156-48.06zm-2445.892.71c28.543 16 57.492 31.318 86.713 46.218-29.21-14.91-58.18-30.21-86.713-46.218zm2316.773 67.306a2492 2492 0 0 1-125.416 56.903c42.428-17.824 84.215-36.847 125.416-56.903zm-2188.144.381c40.756 19.823 82.085 38.635 124.04 56.274a2492 2492 0 0 1-124.04-56.274zm2017.199 74.473c-28.959 11.517-58.094 22.671-87.57 33.127 29.487-10.443 58.602-21.622 87.57-33.127zm-1844.867.842c28.034 11.104 56.19 21.93 84.71 32.04-28.51-10.12-56.685-20.926-84.71-32.04zm1697.888 52.386c-26.179 8.549-52.61 16.515-79.16 24.215 26.56-7.689 52.972-15.678 79.16-24.215zm-1552.297.256c25.652 8.354 51.523 16.171 77.532 23.711-26-7.55-51.888-15.348-77.532-23.71zm1411.242 41.535c-34.197 8.964-68.804 16.877-103.554 24.413 34.757-7.522 69.351-15.464 103.554-24.413zm-1270.634.088c33.38 8.729 67.15 16.453 101.056 23.823-33.9-7.383-67.682-15.08-101.056-23.823zm1076.982 41.838c-25.723 4.593-51.452 9.158-77.44 12.957 25.995-3.79 51.712-8.374 77.44-12.957zm-883.02.114c25.488 4.533 50.963 9.074 76.712 12.83-25.743-3.764-51.228-8.288-76.711-12.83zm730.27 22.412c-23.416 2.7-46.945 5.002-70.553 7.05 23.614-2.043 47.132-4.356 70.553-7.05zm-578.084.01c23.401 2.69 46.9 5.001 70.492 7.043-23.587-2.047-47.096-4.346-70.492-7.043zm148.33 12.963c25.129 1.392 50.484 1.87 75.805 2.515-25.318-.648-50.678-1.119-75.805-2.515zm281.33 0c-25.085 1.394-50.403 1.863-75.68 2.511 25.28-.646 50.593-1.122 75.68-2.511z"/><path fill="#f26821" d="M2504.031 0C1121.505 0-1.459 1122.742.293 2504.014c.35 276.352 44.41 542.176 127.121 790.82h749.18v-2106.53L2504.002 2815.75l1627.412-1627.445v2106.529h749.277c82.823-248.644 126.677-514.468 127.159-790.82C5010.262 1121.336 3886.667.33 2504.002.33Z"/><path fill="#4d4d4d" d="M1419.563 2479.623v1325.521H876.556l-512.387.093c439.512 721.067 1233.795 1203.42 2139.879 1203.42 906.053 0 1700.41-482.462 2139.959-1203.53l-512.594.018h-543.031V2479.623l-710.264 710.27-374.142 374.142-374.157-374.142h-.029z"/></svg>