<!-- SPDX-FileCopyrightText: © 2025 Schneider Electric SPDX-License-Identifier: LicenseRef-Proprietary -->
<svg xmlns="http://www.w3.org/2000/svg" viewBox="0 0 16 16"><path d="M8.501.76V.506a.5.5 0 1 0-1 0V.76C3.525 1.019.37 4.335.37 8.375c0 4.208 3.423 7.631 7.631 7.631s7.631-3.423 7.631-7.631c0-4.04-3.155-7.356-7.131-7.615Zm-.5 14.246c-3.656 0-6.631-2.975-6.631-6.631s2.975-6.631 6.631-6.631 6.631 2.975 6.631 6.631-2.975 6.631-6.631 6.631Z"/><path d="M10.057 5.07h-.362q-.327 0-.475.059a.4.4 0 0 0-.219.213 3 3 0 0 0-.161.5l-.839 3.163-.839-3.163a3 3 0 0 0-.161-.5.4.4 0 0 0-.219-.213q-.147-.059-.475-.059h-.362q-.334 0-.532.132-.197.132-.197.51v4.569q0 .335.15.498t.386.163a.5.5 0 0 0 .392-.165q.148-.165.148-.496V6.295l.926 3.679q.046.181.093.349a1.3 1.3 0 0 0 .124.305.63.63 0 0 0 .568.315q.272 0 .425-.138a.73.73 0 0 0 .211-.305 8 8 0 0 0 .148-.526l.926-3.679v3.986q0 .331.15.496c.15.165.227.165.382.165q.247 0 .396-.165c.149-.165.148-.276.148-.496V5.712q0-.378-.197-.51t-.532-.132Z"/></svg>