<!-- SPDX-FileCopyrightText: © 2025 Schneider Electric SPDX-License-Identifier: LicenseRef-Proprietary -->
<svg xmlns="http://www.w3.org/2000/svg" viewBox="0 0 16 16"><path d="m15.969 7.284-.518-1.388a.5.5 0 0 0-.469-.325h-1.625a.5.5 0 0 0-.5.5v.928h-.429v-.928a.5.5 0 0 0-.5-.5h-.866L9.56 4.265a.5.5 0 0 0-.328-.123H7.555a.5.5 0 0 0 0 1h1.489l1.502 1.306a.5.5 0 0 0 .328.123h.554v.928a.5.5 0 0 0 .5.5h1.429a.5.5 0 0 0 .5-.5v-.928h.777l.365.979v3.412l-.392 1.326h-.751v-.928a.5.5 0 0 0-.5-.5h-1.429a.5.5 0 0 0-.5.5v1.643H6.499l-2.157-1.349a.5.5 0 0 0-.136-.062h0c-.047-.014-.094-.015-.143-.019H2.9V5.142h2.664a.5.5 0 0 0 .5-.5V2.999h2.391a.5.5 0 0 0 0-1H2.643a.5.5 0 0 0 0 1h2.422v1.143H2.401a.5.5 0 0 0-.5.5v3.071H1V4.642a.5.5 0 0 0-1 0v7.431a.5.5 0 0 0 1 0v-3.36h.901v3.36a.5.5 0 0 0 .5.5h1.526l2.164 1.353c.08.05.171.076.265.076h5.572a.5.5 0 0 0 .5-.5v-1.643h.429v.928a.5.5 0 0 0 .5.5h1.625a.5.5 0 0 0 .479-.358l.518-1.754a.5.5 0 0 0 .021-.142V7.459a.5.5 0 0 0-.031-.175Z"/></svg>