<!-- SPDX-FileCopyrightText: undefined SPDX-License-Identifier: undefined -->
<svg xmlns="http://www.w3.org/2000/svg" viewBox="0 0 16 16"><path fill="currentColor" d="M11.929 14.001H6.357a.5.5 0 0 1-.265-.076l-2.164-1.353H2.402a.5.5 0 0 1-.5-.5V8.713h-.901v3.359a.5.5 0 0 1-1 0V4.641a.5.5 0 0 1 1 0v3.071h.901V4.641a.5.5 0 0 1 .5-.5h2.664V2.998H2.644a.5.5 0 0 1 0-1h5.813a.5.5 0 0 1 0 1H6.066v1.643a.5.5 0 0 1-.5.5H2.902v6.431h1.162a.5.5 0 0 1 .279.08l2.158 1.349h4.928v-1.643a.5.5 0 0 1 .5-.5h1.429a.5.5 0 0 1 .5.5v.929h.751l.392-1.327V7.549l-.365-.979h-.777v.928a.5.5 0 0 1-.5.5H11.93a.5.5 0 0 1-.5-.5V6.57h-.554a.5.5 0 0 1-.328-.123L9.046 5.141H7.557a.5.5 0 0 1 0-1h1.677c.12 0 .237.043.328.123l1.502 1.306h.866a.5.5 0 0 1 .5.5v.928h.429V6.07a.5.5 0 0 1 .5-.5h1.625c.209 0 .396.13.469.325l.518 1.388a.5.5 0 0 1 .031.175v3.574a.5.5 0 0 1-.021.142l-.518 1.755a.5.5 0 0 1-.479.358h-1.625a.5.5 0 0 1-.5-.5v-.929h-.429v1.643a.5.5 0 0 1-.5.5ZM4.504 10.72a.5.5 0 0 1-.353-.853l.091-.094c.448-.464 1.38-1.429 3.081-.356.943.594 1.39.121 1.749-.261l.426.277.304.407c-.375.398-1.372 1.459-3.012.422-1.012-.637-1.39-.246-1.829.206l-.102.104a.5.5 0 0 1-.354.147ZM9.5 8h-5a.5.5 0 0 1 0-1h5a.5.5 0 0 1 0 1Z"/></svg>