<!-- SPDX-FileCopyrightText: © 2025 Schneider Electric SPDX-License-Identifier: LicenseRef-Proprietary -->
<svg xmlns="http://www.w3.org/2000/svg" viewBox="0 0 16 16"><path d="M5.196 12.992H13.5a.5.5 0 0 0 0-1H5.196a.5.5 0 0 0 0 1ZM6.032 5.5a.5.5 0 0 0-.5-.5h-.864a.5.5 0 0 0-.499.525l.251 5.04a.5.5 0 0 0 .5.475h.005l3.737-.039a.497.497 0 0 0 .494-.522l-.224-5a.5.5 0 0 0-.5-.478h-.933a.5.5 0 0 0 0 1h.455l.179 4.006-2.739.028-.202-4.034h.339a.5.5 0 0 0 .5-.5Z"/><path d="M15.271.476A.5.5 0 0 0 14.772 0H2.399A.5.5 0 0 0 1.9.525l.647 12.886a.49.49 0 0 0 .524.474.5.5 0 0 0 .475-.524L2.925 1h11.371l.68 14H2.005c-.202 0-.427-.249-.427-.629L1 2.228c-.014-.276-.251-.503-.523-.476A.5.5 0 0 0 0 2.275l.578 12.119c0 .886.64 1.605 1.427 1.605H15.5a.5.5 0 0 0 .499-.524z"/><path d="M13.371 9.033 10.579 9c-.298-.031-.502.218-.506.494s.218.503.494.506l2.792.033h.006a.5.5 0 0 0 .006-1Zm-.48-6.039H4.553a.5.5 0 0 0 0 1h8.337a.5.5 0 0 0 0-1ZM13.251 7H10.58a.5.5 0 0 0 0 1h2.671a.5.5 0 0 0 0-1Zm-.245-2h-.003l-2.523.017a.5.5 0 0 0 .003 1h.003L13.008 6a.5.5 0 0 0-.003-1Z"/></svg>