<!-- SPDX-FileCopyrightText: © 2025 Schneider Electric SPDX-License-Identifier: LicenseRef-Proprietary -->
<svg xmlns="http://www.w3.org/2000/svg" viewBox="0 0 16 16"><path d="M15.852 15.146.855.148a.5.5 0 0 0-.707.707l6.549 6.549L6.009 9.6a.5.5 0 0 0 .252.597l.906.454q.047.025.098.04a.5.5 0 0 0 .498-.135 1.5 1.5 0 0 1 1.034-.431 1.44 1.44 0 0 1 0 2.882 1.44 1.44 0 0 1-1.437-1.438.5.5 0 0 0-.47-.503l-.912-.062a.49.49 0 0 0-.509.341l-.305.917-3.631.756a.5.5 0 1 0 .204.979l3.912-.814a.5.5 0 0 0 .373-.331l.273-.822.109.007a2.44 2.44 0 0 0 2.391 1.972c1.225 0 2.242-.91 2.412-2.091l3.935 3.936a.5.5 0 0 0 .708 0 .5.5 0 0 0 0-.707ZM7.33 9.614l-.239-.12.404-1.292.949.949c-.4.06-.785.22-1.114.463Zm.365-3.724q.076.023.15.023a.5.5 0 0 0 .477-.35l.964-3.079L11.56.912a.5.5 0 1 0-.568-.822L8.576 1.76a.5.5 0 0 0-.193.262L7.367 5.264a.5.5 0 0 0 .327.627Z"/><path d="M12.664 15H.5a.5.5 0 0 0 0 1h12.164a.5.5 0 0 0 0-1Z"/></svg>