<!-- SPDX-FileCopyrightText: © 2025 Schneider Electric SPDX-License-Identifier: LicenseRef-Proprietary -->
<svg xmlns="http://www.w3.org/2000/svg" viewBox="0 0 16 16"><path d="M12.416 15.271c-2.696-5.232-1.149-7.36-1.138-7.375a.502.502 0 0 0-.164-.763c-1.799-.899-3.293-.506-3.357-.49a.5.5 0 0 0 .26.965c.01-.001.954-.238 2.175.214-.408.969-.87 3.243.976 7.178H5.852c.743-1.609 2.222-5.44.672-7.686a.5.5 0 0 0-.281-.198c-.079-.022-1.923-.554-1.693-2.499.022-.199.279-1.948 2.288-2.024a.5.5 0 0 0 .463-.369c.043-.154.46-1.498 1.845-1.18.124.038 1.202.408 1.017 1.64a.5.5 0 0 0 .989.149c.255-1.699-1.015-2.54-1.751-2.755-1.67-.384-2.592.7-2.947 1.542-2.072.249-2.804 1.97-2.898 2.884-.249 2.102 1.256 3.179 2.234 3.517 1.416 2.385-1.156 7.19-1.182 7.24a.5.5 0 0 0 .44.738h6.923a.5.5 0 0 0 .445-.729Z"/></svg>