<!-- SPDX-FileCopyrightText: © 2025 Schneider Electric SPDX-License-Identifier: LicenseRef-Proprietary -->
<svg xmlns="http://www.w3.org/2000/svg" viewBox="0 0 16 16"><path d="M.496 6a.5.5 0 0 0 .307-.105C2.876 4.278 5.365 3.423 8 3.423s5.124.854 7.197 2.471l.616-.789C13.562 3.35 10.86 2.422 8.001 2.422S2.438 3.351.188 5.105a.5.5 0 0 0 .308.894Zm15.17 1.182a.496.496 0 0 0-.637.306l-1.739 4.949a.465.465 0 0 1-.518.005l-.083-.061c-.479-.353-1.476-1.086-4.636-1.086-3.102 0-4.047.724-4.5 1.072l-.1.074a.47.47 0 0 1-.524-.009L.966 7.373a.501.501 0 0 0-.933.361l2.001 5.16a.5.5 0 0 0 .089.147c.469.539 1.303.636 1.9.22l.136-.102c.366-.28 1.129-.865 3.892-.865 2.832 0 3.68.625 4.042.892l.104.075c.25.174.54.258.828.258.402 0 .799-.164 1.072-.478a.5.5 0 0 0 .094-.162l1.778-5.061a.5.5 0 0 0-.306-.637Z"/><path d="M8.003 10a.5.5 0 0 0 .5-.5V8h1.5a.5.5 0 0 0 0-1h-1.5V5.5a.5.5 0 0 0-1 0V7h-1.5a.5.5 0 0 0 0 1h1.5v1.5a.5.5 0 0 0 .5.5Z"/></svg>