<!-- SPDX-FileCopyrightText: © 2025 Schneider Electric SPDX-License-Identifier: LicenseRef-Proprietary -->
<svg xmlns="http://www.w3.org/2000/svg" viewBox="0 0 16 16"><path d="M15.539 1.386a.5.5 0 0 0-.301-.295c-.21-.075-2.082-.702-3.069.171a.5.5 0 0 0-.169.375v1.539l-9.877.351a.5.5 0 0 0-.465.371L.996 6.374a.5.5 0 0 0 .482.629h1.021a.5.5 0 0 0 0-1h-.37l.398-1.489 9.989-.354a.5.5 0 0 0 .482-.5V1.909c.434-.193 1.194-.075 1.679.058.281.963.328 2.81.325 3.424-.186 1.304-.652 2.954-.87 3.612h-1.135V5.862a.5.5 0 0 0-.53-.499l-3.828.234a.5.5 0 0 0-.464.575l1.204 7.831H6.56l1.204-7.42a.502.502 0 0 0-.494-.58H4.792a.5.5 0 0 0-.485.377l-.158.623h-.327a.5.5 0 0 0-.49.4l-.613 3a.5.5 0 0 0 .49.601h.788l-.479 3H1.102l.589-3.158a.5.5 0 1 0-.983-.183l-.7 3.745A.5.5 0 0 0 .5 15h3.448a.5.5 0 0 0 .494-.421l.639-4A.502.502 0 0 0 4.588 10h-.762l.409-2h.307a.5.5 0 0 0 .485-.377L5.185 7h1.501l-1.204 7.42a.502.502 0 0 0 .494.58h3.99a.5.5 0 0 0 .494-.576L9.252 6.559l2.75-.168v3.11a.5.5 0 0 0 .5.5h1.858q.036.01.075.011c.878.057 1.555-4.437 1.566-4.548 0-.114.025-2.797-.46-4.078Z"/></svg>