<!-- SPDX-FileCopyrightText: © 2025 Schneider Electric SPDX-License-Identifier: LicenseRef-Proprietary -->
<svg xmlns="http://www.w3.org/2000/svg" viewBox="0 0 16 16"><path d="M5.489 7.793za.5.5 0 0 0 .116.032h.003s0 0 0 0h.005c.006.003.001 0 .001 0h.007s0 0 0 0h.007a.48.48 0 0 0 .41-.148c.775-.797 1.101-2.146 1.191-2.986a1.69 1.69 0 0 0 .724-2.173 1.7 1.7 0 0 0-1.023-.911.5.5 0 0 0-.306.952c.19.061.338.192.417.368a.69.69 0 0 1-.343.912.684.684 0 0 1-.903-.904.5.5 0 1 0-.916-.402c-.192.439-.191.939.002 1.372a1.67 1.67 0 0 0 1.314.981c-.095.585-.292 1.22-.574 1.693l-.451-.433a.503.503 0 0 0-.714.021C1.298 9.585.312 13.434.006 15.424a.5.5 0 1 0 .989.152c.278-1.804 1.147-5.227 3.858-8.349l.481.463a.5.5 0 0 0 .155.103Zm9.338-.637a.505.505 0 0 0-.629.324.5.5 0 0 0 .324.629c.188.06.336.19.416.368a.69.69 0 0 1-.343.913.677.677 0 0 1-.904-.345.68.68 0 0 1 0-.56.501.501 0 0 0-.916-.402 1.7 1.7 0 0 0-.142.603c-1.156.082-2.553.64-3.508 1.261l-.423-.405c1.621-1.23 3.414-2.607 4.837-4.034q.086.045.179.08c.42.159.877.145 1.288-.041a1.69 1.69 0 0 0 .843-2.234 1.68 1.68 0 0 0-1.022-.911.5.5 0 0 0-.307.952.67.67 0 0 1 .417.369.69.69 0 0 1-.343.913.67.67 0 0 1-.521.017.68.68 0 0 1-.383-.363.68.68 0 0 1 0-.559.5.5 0 0 0-.257-.659.505.505 0 0 0-.659.257 1.69 1.69 0 0 0 .054 1.476C11.417 6.22 9.599 7.607 7.972 8.841l-.495-.477c1.155-1.383 2.486-3.057 3.274-5.095.365.091.748.057 1.096-.101A1.69 1.69 0 0 0 12.69.935a1.68 1.68 0 0 0-1.022-.911.5.5 0 0 0-.307.952.67.67 0 0 1 .417.369.69.69 0 0 1-.343.912.68.68 0 0 1-.904-.344.7.7 0 0 1 0-.561.5.5 0 0 0-.916-.4 1.7 1.7 0 0 0 .267 1.786c-.719 1.969-1.945 3.521-3.466 5.334a.5.5 0 0 0 .03.689l2.819 2.708c-.935 1.108-1.648 2.41-2.122 3.878a.5.5 0 1 0 .952.306c.482-1.493 1.233-2.796 2.23-3.873a.5.5 0 0 0-.021-.7l-.436-.419c.883-.526 2.124-.981 3.026-.985.194.304.479.537.822.667.421.159.877.144 1.288-.041a1.69 1.69 0 0 0 .843-2.234 1.68 1.68 0 0 0-1.023-.911Z"/><path d="M7.885 11.143a.5.5 0 0 0-.706.044c-1.036 1.173-1.812 2.574-2.305 4.165a.5.5 0 1 0 .956.296c.451-1.455 1.158-2.733 2.099-3.8a.5.5 0 0 0-.043-.706Z"/></svg>