<!-- SPDX-FileCopyrightText: © 2025 Schneider Electric SPDX-License-Identifier: LicenseRef-Proprietary -->
<svg xmlns="http://www.w3.org/2000/svg" viewBox="0 0 16 16"><path d="M16 4.291A4.297 4.297 0 0 0 11.708 0a.5.5 0 0 0 0 1C13.523 1 15 2.477 15 4.291s-1.477 3.291-3.292 3.291-3.291-1.476-3.291-3.291c0-1.081.531-2.093 1.421-2.708a.5.5 0 1 0-.57-.822 4.3 4.3 0 0 0-1.852 3.531c0 1.208.501 2.3 1.307 3.08L3.19 5.17a1.934 1.934 0 0 0 1.671-1.914A1.933 1.933 0 0 0 2.93 1.325a.5.5 0 0 0 0 1 .931.931 0 1 1-.838.524.5.5 0 0 0-.9-.436 1.92 1.92 0 0 0 .236 2.054l-.744-.296a.499.499 0 1 0-.37.928l5.469 2.176a.5.5 0 0 0-.097.102L.093 15.209A.5.5 0 0 0 .5 16h7a.5.5 0 0 0 0-1H1.472l4.62-6.466 5.122 7.254a.496.496 0 0 0 .696.12.5.5 0 0 0 .12-.696L6.681 7.634l7.231 2.877a.498.498 0 1 0 .369-.928l-2.517-1.002a4.295 4.295 0 0 0 4.235-4.29Z"/></svg>