<!-- SPDX-FileCopyrightText: © 2025 Schneider Electric SPDX-License-Identifier: LicenseRef-Proprietary -->
<svg xmlns="http://www.w3.org/2000/svg" viewBox="0 0 16 16"><path d="M8.886 5h1.896a.5.5 0 0 0 0-1H9.386V1.661l3.494 3.005a.26.26 0 0 1 .098.201v4.109a.5.5 0 0 0 1 0V4.867c0-.389-.175-.749-.463-.974L9.212.192a.5.5 0 0 0-.826.379V4.5a.5.5 0 0 0 .5.5ZM2.522 9.396a.5.5 0 0 0 .5-.5V1.29c0-.157.168-.29.367-.29h3.533a.5.5 0 0 0 0-1H3.389c-.753 0-1.367.579-1.367 1.29v7.607a.5.5 0 0 0 .5.5Zm.015 4.022L3.88 11.62q.115-.156.102-.296c-.013-.14-.05-.169-.122-.228a.42.42 0 0 0-.279-.089.47.47 0 0 0-.248.064.8.8 0 0 0-.214.215L2.041 12.78.956 11.286a.8.8 0 0 0-.214-.215.45.45 0 0 0-.241-.064q-.164 0-.272.092-.109.093-.123.231c-.014.138.023.189.095.289l1.343 1.798-1.418 1.888q-.109.143-.092.282c.017.139.053.17.126.231a.42.42 0 0 0 .279.092q.135 0 .245-.068a.8.8 0 0 0 .218-.218l1.136-1.562 1.142 1.562q.116.15.222.218c.106.068.148.068.234.068a.43.43 0 0 0 .285-.092.34.34 0 0 0 .123-.231.4.4 0 0 0-.096-.282l-1.41-1.887Zm4.946 1.697H5.51v-3.631q0-.218-.111-.33-.113-.112-.323-.112c-.21 0-.248.037-.323.112s-.112.185-.112.33v3.923q0 .211.116.33a.43.43 0 0 0 .326.119h2.4q.183 0 .282-.099.098-.098.099-.275c.001-.177-.033-.208-.099-.272a.4.4 0 0 0-.282-.095Zm2.883-1.897-.741-.156q-.394-.082-.558-.228a.5.5 0 0 1-.164-.392q0-.218.12-.377a.76.76 0 0 1 .344-.248q.223-.089.537-.089.298 0 .558.062.258.06.51.204.143.082.255.068a.32.32 0 0 0 .188-.089.34.34 0 0 0 .095-.181.4.4 0 0 0-.017-.214.37.37 0 0 0-.146-.184 2.3 2.3 0 0 0-.66-.299 3 3 0 0 0-.774-.103q-.415 0-.759.105a1.8 1.8 0 0 0-.592.303 1.33 1.33 0 0 0-.52 1.074q0 .531.316.854.315.323.962.459l.748.156q.421.09.595.225c.174.135.174.216.174.374q0 .285-.245.466c-.245.181-.424.181-.782.181a3 3 0 0 1-.7-.082 2.4 2.4 0 0 1-.633-.259q-.129-.08-.237-.061-.11.021-.181.105a.3.3 0 0 0-.088.197.4.4 0 0 0 .03.228.44.44 0 0 0 .17.197q.21.136.477.228a3 3 0 0 0 .564.136q.3.045.599.045.435 0 .782-.103.347-.101.595-.292.249-.19.381-.456.133-.265.133-.592 0-.51-.33-.815c-.33-.305-.554-.354-1.003-.449Zm5.508 2.088-1.41-1.887 1.343-1.798q.115-.156.102-.296c-.013-.14-.05-.169-.122-.228a.42.42 0 0 0-.279-.089.47.47 0 0 0-.248.064.8.8 0 0 0-.214.215l-1.078 1.494-1.085-1.494a.8.8 0 0 0-.214-.215.45.45 0 0 0-.241-.064.4.4 0 0 0-.272.092q-.108.093-.122.231c-.014.138.022.189.096.289l1.342 1.798-1.418 1.888q-.109.143-.092.282c.017.139.053.17.126.231a.42.42 0 0 0 .278.092q.137 0 .245-.068a.7.7 0 0 0 .218-.218l1.136-1.562 1.142 1.562q.116.15.222.218c.106.068.148.068.234.068a.43.43 0 0 0 .285-.092.34.34 0 0 0 .123-.231.4.4 0 0 0-.096-.282Z"/></svg>