<!-- SPDX-FileCopyrightText: © 2025 Schneider Electric SPDX-License-Identifier: LicenseRef-Proprietary -->
<svg xmlns="http://www.w3.org/2000/svg" viewBox="0 0 16 16"><path d="M8.886 5h1.896a.5.5 0 0 0 0-1H9.386V1.661l3.494 3.005a.26.26 0 0 1 .098.201v4.109a.5.5 0 0 0 1 0V4.867c0-.389-.175-.749-.463-.974L9.212.192a.5.5 0 0 0-.826.379V4.5a.5.5 0 0 0 .5.5ZM2.522 9.396a.5.5 0 0 0 .5-.5V1.29c0-.157.168-.29.367-.29h3.533a.5.5 0 0 0 0-1H3.389c-.753 0-1.367.579-1.367 1.29v7.607a.5.5 0 0 0 .5.5Zm2.099 5.264a.54.54 0 0 0-.316.093q-.264.16-.56.235a2 2 0 0 1-.6.076q-.568 0-.96-.232a1.45 1.45 0 0 1-.592-.68q-.2-.448-.2-1.08 0-.64.2-1.08t.592-.672q.392-.231.96-.231.296 0 .584.071c.288.071.371.126.536.232q.175.11.324.1c.149-.01.182-.044.248-.107a.46.46 0 0 0 .132-.236.5.5 0 0 0-.024-.288.5.5 0 0 0-.224-.252 2.5 2.5 0 0 0-.744-.32 3.4 3.4 0 0 0-.864-.111q-.657 0-1.18.203-.524.206-.884.585-.36.38-.552.912a3.5 3.5 0 0 0-.192 1.195q0 .888.336 1.54c.336.652.545.771.964 1.008s.921.356 1.508.356q.456 0 .9-.124c.444-.124.55-.201.764-.356a.48.48 0 0 0 .208-.515q-.032-.132-.128-.22c-.096-.088-.143-.092-.236-.101Zm3.828-1.867-.872-.185q-.464-.095-.656-.268a.59.59 0 0 1-.192-.46q0-.256.14-.444a.9.9 0 0 1 .404-.292q.264-.104.632-.104.353 0 .656.072c.303.072.402.128.6.24q.168.095.3.08c.132-.015.161-.045.221-.104a.4.4 0 0 0 .111-.212.47.47 0 0 0-.02-.252.43.43 0 0 0-.172-.216 2.7 2.7 0 0 0-.777-.353 3.4 3.4 0 0 0-.912-.119q-.489 0-.892.123-.404.126-.696.356-.291.232-.452.552c-.161.32-.16.451-.16.713q0 .624.372 1.004t1.132.54l.88.184q.496.104.7.264a.53.53 0 0 1 .204.44q0 .335-.288.548c-.288.213-.499.212-.92.212q-.432 0-.824-.096a2.7 2.7 0 0 1-.744-.304q-.153-.097-.28-.072-.128.024-.212.124a.37.37 0 0 0-.104.231.51.51 0 0 0 .236.5q.249.16.56.269c.311.109.429.125.664.16q.352.052.704.052.512 0 .92-.12c.408-.12.506-.194.7-.344s.344-.328.448-.536q.156-.312.156-.696 0-.6-.389-.96c-.389-.36-.652-.416-1.18-.527Zm7.329-2.272a.4.4 0 0 0-.148-.24.47.47 0 0 0-.293-.088.5.5 0 0 0-.336.1.8.8 0 0 0-.207.293l-1.717 4-1.723-3.992a.8.8 0 0 0-.196-.301q-.116-.1-.348-.1a.52.52 0 0 0-.304.088.4.4 0 0 0-.168.24.53.53 0 0 0 .048.352l2.088 4.688a.7.7 0 0 0 .228.3.6.6 0 0 0 .356.101q.223 0 .355-.101c.132-.101.162-.166.221-.3l2.088-4.688a.6.6 0 0 0 .057-.352Z"/></svg>