<!-- SPDX-FileCopyrightText: © 2025 Schneider Electric SPDX-License-Identifier: LicenseRef-Proprietary -->
<svg xmlns="http://www.w3.org/2000/svg" viewBox="0 0 16 16"><path d="M15.833 8.517 14 6.878V5.855a.5.5 0 0 0-.163-.37L12 3.812v-.741c0-.305-.12-.6-.383-.855L8.8.1a.499.499 0 0 0-.8.4v3.007a.5.5 0 0 0 .5.5h1a.5.5 0 0 0 0-1H9V1.499l1.963 1.47a.15.15 0 0 1 .037.102v7.92l-.559.002a.5.5 0 0 0 .002 1h.002l1.057-.004a.5.5 0 0 0 .498-.5V5.164l1 .911v6.932h-2.988a.5.5 0 0 0 0 1H13.5a.5.5 0 0 0 .5-.5V8.219l1 .895v5.887H9.38a.5.5 0 0 0 0 1h6.12a.5.5 0 0 0 .5-.5V8.89a.5.5 0 0 0-.167-.373ZM2.496 5.997za.5.5 0 0 0 .5-.5L3 1.163c0-.084.056-.156.123-.156H6.5a.5.5 0 0 0 0-1H3.123C2.504.007 2.001.525 2 1.162l-.004 4.334a.5.5 0 0 0 .5.5Z"/><path d="M8.987 11.507q0-.18-.014-.359a4.46 4.46 0 0 0-1.294-2.811 4.6 4.6 0 0 0-.925-.716.5.5 0 0 0-.504.864q.395.23.72.557c.435.438.74.969.896 1.549l.003.013a3.6 3.6 0 0 1 .118.912q0 .207-.025.409a3.5 3.5 0 0 1-3.469 3.077c-.097.009-.262-.008-.391-.021a3.5 3.5 0 0 1-3.103-3.472 3.5 3.5 0 0 1 3-3.459v3.757a.5.5 0 0 0 .81.392l1.743-1.376a.5.5 0 1 0-.619-.785l-.934.737V7.502a.514.514 0 0 0-.618-.486 4.48 4.48 0 0 0-3.059 1.307C.473 9.168.003 10.295 0 11.495s.462 2.33 1.309 3.181a4.46 4.46 0 0 0 3.602 1.304 4.46 4.46 0 0 0 2.753-1.289 4.46 4.46 0 0 0 1.324-3.185Z"/></svg>