<!-- SPDX-FileCopyrightText: © 2025 Schneider Electric SPDX-License-Identifier: LicenseRef-Proprietary -->
<svg xmlns="http://www.w3.org/2000/svg" viewBox="0 0 16 16"><path d="M11.282 4.5a.5.5 0 0 0-.5-.5H9.386V1.661l3.494 3.005a.26.26 0 0 1 .098.201v4.109a.5.5 0 0 0 1 0V4.867c0-.389-.175-.749-.463-.974L9.212.192a.5.5 0 0 0-.826.379V4.5a.5.5 0 0 0 .5.5h1.896a.5.5 0 0 0 .5-.5Zm-8.76 4.896a.5.5 0 0 0 .5-.5V1.29c0-.157.168-.29.367-.29h3.533a.5.5 0 0 0 0-1H3.389c-.753 0-1.367.579-1.367 1.29v7.607a.5.5 0 0 0 .5.5ZM4.4 14.66a.54.54 0 0 0-.316.093q-.264.16-.56.235a2 2 0 0 1-.6.076q-.568 0-.96-.232a1.45 1.45 0 0 1-.592-.68q-.2-.448-.2-1.08 0-.64.2-1.08t.592-.672q.392-.231.96-.231.296 0 .584.071c.288.071.371.126.536.232q.175.11.324.1c.149-.01.182-.044.248-.107a.46.46 0 0 0 .132-.236.5.5 0 0 0-.024-.288.5.5 0 0 0-.224-.252 2.5 2.5 0 0 0-.744-.32 3.4 3.4 0 0 0-.864-.111q-.657 0-1.18.203-.524.206-.884.585-.36.38-.552.912a3.5 3.5 0 0 0-.192 1.195q0 .888.336 1.54c.336.652.545.771.964 1.008s.921.356 1.508.356q.456 0 .9-.124c.444-.124.55-.201.764-.356a.48.48 0 0 0 .208-.515q-.032-.131-.128-.22c-.096-.089-.143-.092-.236-.101Zm3.805-4.036a.8.8 0 0 0-.252-.332.6.6 0 0 0-.332-.1.6.6 0 0 0-.342.1.8.8 0 0 0-.252.332l-2.111 4.681q-.08.183-.056.332c.024.149.062.177.14.235q.116.089.309.089a.46.46 0 0 0 .32-.104q.111-.104.215-.336l.393-.928H8.99l.399.928a.9.9 0 0 0 .219.332.52.52 0 0 0 .35.108.48.48 0 0 0 .295-.084q.112-.085.137-.236c.025-.151-.006-.214-.064-.336l-2.119-4.681Zm-.601.744h.018l1.019 2.408H6.593l1.012-2.408Zm7.548-.384q-.773-.728-2.188-.728h-1.552q-.264 0-.404.14t-.14.403v4.553q0 .264.14.404t.404.14h1.552q.713 0 1.26-.188.548-.188.929-.548.38-.359.575-.884a3.4 3.4 0 0 0 .196-1.204q0-1.36-.771-2.088Zm-.42 2.956q-.12.372-.364.616a1.6 1.6 0 0 1-.608.368 2.7 2.7 0 0 1-.859.124h-1.009v-3.944h1.009q.976 0 1.464.488c.488.488.487.818.487 1.479q0 .496-.119.868Z"/></svg>