<!-- SPDX-FileCopyrightText: © 2025 Schneider Electric SPDX-License-Identifier: LicenseRef-Proprietary -->
<svg xmlns="http://www.w3.org/2000/svg" viewBox="0 0 16 16"><path d="M10.782 4H9.386V1.661l3.494 3.005a.26.26 0 0 1 .098.201v4.109a.5.5 0 0 0 1 0V4.867c0-.389-.175-.749-.463-.974L9.212.192a.5.5 0 0 0-.826.379V4.5a.5.5 0 0 0 .5.5h1.896a.5.5 0 0 0 0-1Zm-8.26 5.396a.5.5 0 0 0 .5-.5V1.29c0-.157.168-.29.367-.29h3.533a.5.5 0 0 0 0-1H3.389c-.753 0-1.367.579-1.367 1.29v7.607a.5.5 0 0 0 .5.5Zm.472 3.619 1.57-2.103q.135-.183.119-.346c-.016-.163-.058-.197-.143-.267a.5.5 0 0 0-.326-.104q-.167 0-.291.076a.75.75 0 0 0-.25.25l-1.26 1.746-1.268-1.746q-.127-.174-.25-.25c-.123-.076-.176-.076-.282-.076a.48.48 0 0 0-.318.107.4.4 0 0 0-.143.271.5.5 0 0 0 .111.337l1.57 2.102-1.658 2.21a.45.45 0 0 0-.107.329.4.4 0 0 0 .147.271.5.5 0 0 0 .326.107.53.53 0 0 0 .287-.079 1 1 0 0 0 .254-.255l1.328-1.826 1.335 1.826q.135.175.258.255c.123.08.173.079.274.079a.5.5 0 0 0 .334-.107.4.4 0 0 0 .143-.271.47.47 0 0 0-.111-.329zm7.692-2.819q-.199 0-.311.076c-.112.076-.143.137-.206.258l-1.837 3.398-1.836-3.398q-.096-.181-.211-.258c-.115-.077-.182-.076-.314-.076a.48.48 0 0 0-.35.124q-.127.123-.127.354v4.778q0 .222.119.35.12.127.342.127.23 0 .346-.127a.5.5 0 0 0 .115-.35v-3.344l1.495 2.707q.072.127.167.195c.095.068.146.067.246.067s.18-.021.239-.063a.6.6 0 0 0 .167-.199l1.495-2.726v3.363a.5.5 0 0 0 .119.35q.119.127.342.127.23 0 .346-.127c.116-.127.115-.201.115-.35v-4.778a.5.5 0 0 0-.119-.354q-.12-.124-.342-.124Zm5.131 4.914q-.116-.111-.33-.111h-2.306v-4.246q0-.254-.131-.385-.132-.131-.378-.131-.248 0-.378.131-.131.131-.131.385v4.588q0 .246.135.386c.135.14.217.139.382.139h2.807q.214 0 .33-.115.114-.116.115-.322c.001-.206-.039-.243-.115-.317Z"/></svg>