<!-- SPDX-FileCopyrightText: © 2025 Schneider Electric SPDX-License-Identifier: LicenseRef-Proprietary -->
<svg xmlns="http://www.w3.org/2000/svg" viewBox="0 0 16 16"><path d="M2.522 9.396a.5.5 0 0 0 .5-.5V1.29c0-.157.168-.29.367-.29h3.533a.5.5 0 0 0 0-1H3.389c-.753 0-1.367.579-1.367 1.29v7.607a.5.5 0 0 0 .5.5ZM10.782 5a.5.5 0 0 0 0-1H9.386V1.661l3.494 3.005a.26.26 0 0 1 .098.201v4.109a.5.5 0 0 0 1 0V4.867c0-.389-.175-.749-.463-.974L9.212.192a.5.5 0 0 0-.826.379V4.5a.5.5 0 0 0 .5.5zm-9.077 6.688H.541q-.198 0-.303.105c-.105.105-.105.171-.105.303v3.414q0 .198.105.303t.303.105h1.164q.533 0 .944-.141.412-.142.696-.411.285-.27.433-.663.146-.393.146-.903 0-1.02-.579-1.565-.579-.547-1.641-.547Zm1.326 2.764q-.09.279-.273.462a.93.93 0 0 1-.456.276 2 2 0 0 1-.645.093H.901v-2.958h.756q.731 0 1.098.366.366.365.366 1.109 0 .372-.09.651Zm4.398-2.556q-.456-.267-1.073-.267a2.2 2.2 0 0 0-.837.153 1.8 1.8 0 0 0-.643.438 2 2 0 0 0-.411.685 2.6 2.6 0 0 0-.144.896q0 .66.252 1.149c.252.489.405.579.711.759s.663.27 1.071.27q.462 0 .837-.152.375-.154.642-.441t.411-.689a2.7 2.7 0 0 0 .144-.9q0-.66-.252-1.146a1.83 1.83 0 0 0-.708-.754Zm.009 2.721a1.15 1.15 0 0 1-.42.521 1.2 1.2 0 0 1-.663.181q-.583 0-.906-.402c-.323-.402-.324-.64-.324-1.116q0-.48.147-.818a1.1 1.1 0 0 1 .423-.517q.275-.177.66-.177.588 0 .908.396.321.398.321 1.116 0 .474-.146.816Zm4.583.375a.4.4 0 0 0-.236.068q-.198.12-.42.178a1.8 1.8 0 0 1-.45.057q-.426 0-.72-.174a1.1 1.1 0 0 1-.444-.51q-.15-.337-.15-.811 0-.48.15-.81c.15-.33.248-.389.444-.504q.293-.175.72-.175.221 0 .438.055.217.054.402.174.132.084.243.075c.111-.009.136-.033.186-.081a.35.35 0 0 0 .1-.177.36.36 0 0 0-.019-.217.38.38 0 0 0-.168-.188q-.24-.157-.558-.24a2 2 0 0 0-.648-.084q-.492 0-.885.153a1.8 1.8 0 0 0-.663.438q-.27.285-.414.685a2.6 2.6 0 0 0-.144.896q0 .666.252 1.155c.252.489.409.578.723.756q.471.267 1.131.267.342 0 .676-.093.332-.092.572-.267a.4.4 0 0 0 .145-.184.4.4 0 0 0 .012-.203q-.024-.099-.096-.165c-.072-.066-.107-.069-.178-.075Zm3.886.441-1.245-1.665 1.184-1.587q.102-.138.091-.261a.3.3 0 0 0-.108-.201.38.38 0 0 0-.246-.078.4.4 0 0 0-.219.058.7.7 0 0 0-.189.188l-.951 1.319-.957-1.319a.7.7 0 0 0-.188-.188.4.4 0 0 0-.213-.058.36.36 0 0 0-.24.081.3.3 0 0 0-.108.204.37.37 0 0 0 .085.255l1.184 1.586-1.25 1.666q-.096.126-.081.249c.015.123.047.15.111.204a.36.36 0 0 0 .246.081q.119 0 .216-.06a.7.7 0 0 0 .191-.192l1.003-1.378 1.008 1.378a.8.8 0 0 0 .194.192q.093.06.207.06a.37.37 0 0 0 .252-.081q.097-.081.108-.204c.011-.123-.021-.165-.084-.249Z"/></svg>