<!-- SPDX-FileCopyrightText: © 2025 Schneider Electric SPDX-License-Identifier: LicenseRef-Proprietary -->
<svg xmlns="http://www.w3.org/2000/svg" viewBox="0 0 16 16"><path d="M4.5 7a.5.5 0 0 0 .5-.5V1.29c0-.16.13-.29.29-.29H9.5a.5.5 0 0 0 0-1H5.29C4.579 0 4 .579 4 1.29V6.5a.5.5 0 0 0 .5.5Zm11.087-3.09L11.852.216a.5.5 0 0 0-.851.355V4.5a.5.5 0 0 0 .5.5h2a.5.5 0 0 0 0-1h-1.5V1.769l2.904 2.871a.28.28 0 0 1 .096.211v9.86c0 .16-.13.29-.29.29H5.29a.29.29 0 0 1-.29-.29v-4.21a.5.5 0 0 0-1 0v4.21c0 .711.579 1.29 1.29 1.29h9.421c.711 0 1.29-.579 1.29-1.29v-9.86c0-.366-.158-.715-.413-.941Z"/><path d="M1.763 9H8.5a.5.5 0 0 0 0-1H1.707l1.407-1.407a.5.5 0 0 0-.707-.707L.229 8.063a.5.5 0 0 0-.217.325.5.5 0 0 0 .243.546l2.159 2.08a.5.5 0 1 0 .693-.72z"/></svg>