<!-- SPDX-FileCopyrightText: © 2025 Schneider Electric SPDX-License-Identifier: LicenseRef-Proprietary -->
<svg xmlns="http://www.w3.org/2000/svg" viewBox="0 0 16 16"><path d="M8.886 5h1.896a.5.5 0 0 0 0-1H9.386V1.661l3.494 3.005a.26.26 0 0 1 .098.201v4.109a.5.5 0 0 0 1 0V4.867c0-.389-.175-.749-.463-.974L9.212.192a.5.5 0 0 0-.826.379V4.5a.5.5 0 0 0 .5.5ZM2.522 9.396a.5.5 0 0 0 .5-.5V1.29c0-.157.168-.29.367-.29h3.533a.5.5 0 0 0 0-1H3.389c-.753 0-1.367.579-1.367 1.29v7.607a.5.5 0 0 0 .5.5Zm1.991 4.764a1.35 1.35 0 0 0-.428-.504 1 1 0 0 0-.256-.116c.14-.032.277-.069.396-.124q.432-.2.66-.575.228-.377.228-.896 0-.8-.504-1.244c-.504-.444-.813-.443-1.432-.443H1.249q-.248 0-.384.132t-.136.388v4.656q0 .248.132.388t.38.141q.256 0 .384-.141a.56.56 0 0 0 .128-.388v-1.792h.76q.304 0 .5.092c.196.092.244.183.34.364l.808 1.488a.76.76 0 0 0 .24.283q.136.093.352.093c.216 0 .253-.034.328-.101s.115-.153.12-.26-.024-.216-.088-.328l-.6-1.112Zm-1.512-1.279H1.753v-1.816h1.248q.551 0 .836.229.284.227.284.676 0 .455-.284.684t-.836.229Zm6.36-2.624H6.569q-.264 0-.404.14c-.14.14-.14.228-.14.403v4.616q0 .266.14.404a.52.52 0 0 0 .388.141q.496 0 .496-.545V13.48h2.144q.2 0 .308-.108.108-.107.108-.308 0-.192-.108-.296-.107-.104-.308-.104H7.049v-1.592h2.312q.209 0 .312-.107a.43.43 0 0 0 .104-.309q0-.192-.104-.296t-.312-.104Zm6.041 5.048-2.12-4.681a.8.8 0 0 0-.252-.332.6.6 0 0 0-.333-.1.6.6 0 0 0-.34.1.77.77 0 0 0-.252.332l-2.112 4.681a.6.6 0 0 0-.056.332.35.35 0 0 0 .14.235.5.5 0 0 0 .309.089.46.46 0 0 0 .32-.104 1.1 1.1 0 0 0 .216-.336l.393-.928h2.752l.399.928a.9.9 0 0 0 .22.332.52.52 0 0 0 .349.108.5.5 0 0 0 .296-.084q.111-.085.136-.236c.025-.151-.005-.214-.063-.336Zm-2.72-3.937h.016l1.021 2.408H11.67z"/></svg>