<!-- SPDX-FileCopyrightText: © 2025 Schneider Electric SPDX-License-Identifier: LicenseRef-Proprietary -->
<svg xmlns="http://www.w3.org/2000/svg" viewBox="0 0 16 16"><path d="M8.5 8h3a.5.5 0 0 0 0-1h-3a.5.5 0 0 0 0 1Zm3 1h-3a.5.5 0 0 0 0 1h3a.5.5 0 0 0 0-1Zm-6 5a.5.5 0 0 0 .5-.5V11h.981a.5.5 0 0 0 .469-.674L6.021 6.467 6 6.418V2.501a.5.5 0 0 0-1 0v4.125l-.986 1.963a.5.5 0 1 0 .893.448l.523-1.042q.043.007.092.004l.74 2H4.499a.5.5 0 0 0 0 1h.5v2.5a.5.5 0 0 0 .5.5Z"/><path d="M13.47 2.7 9.784.16a.501.501 0 0 0-.785.412v3.929a.5.5 0 0 0 .5.5h2.07a.5.5 0 0 0 0-1h-1.57V1.523l2.889 1.99a.6.6 0 0 1 .111.323v10.875c0 .156-.17.289-.37.289H3.37c-.201 0-.37-.133-.37-.289V1.29c0-.157.169-.29.37-.29H7.5a.5.5 0 0 0 0-1H3.37C2.615 0 2 .579 2 1.29v13.421C2 15.422 2.615 16 3.37 16h9.26c.756 0 1.37-.578 1.37-1.289V3.836c0-.374-.179-.882-.53-1.137Z"/><path d="M11.5 11h-3a.5.5 0 0 0 0 1h3a.5.5 0 0 0 0-1Z"/></svg>