<!-- SPDX-FileCopyrightText: © 2025 Schneider Electric SPDX-License-Identifier: LicenseRef-Proprietary -->
<svg xmlns="http://www.w3.org/2000/svg" viewBox="0 0 16 16"><path d="M6.922 0H3.389c-.753 0-1.367.579-1.367 1.29v6.857a.5.5 0 0 0 1 0V1.29c0-.157.168-.29.367-.29h3.533a.5.5 0 0 0 0-1Zm6.593 3.894L9.212.192a.5.5 0 0 0-.826.379V4.5a.5.5 0 0 0 .5.5h1.896a.5.5 0 0 0 0-1H9.386V1.661l3.494 3.005a.26.26 0 0 1 .098.201v3.359a.5.5 0 0 0 1 0V4.867c0-.389-.175-.749-.463-.974ZM6.793 9.568q.2 0 .308-.107.108-.108.108-.309 0-.192-.108-.296a.43.43 0 0 0-.308-.104H3.937q-.264 0-.404.14c-.14.14-.14.228-.14.403v4.553q0 .264.14.404t.404.14h2.856q.2 0 .308-.104t.108-.305q0-.2-.108-.304a.43.43 0 0 0-.308-.104H4.377v-1.64h2.24q.209 0 .312-.104c.103-.104.104-.171.104-.305q0-.2-.104-.304c-.104-.104-.173-.104-.312-.104h-2.24V9.566h2.416Zm5.265-.54q-.608-.355-1.432-.355-.617 0-1.116.203-.5.206-.856.585c-.356.379-.42.557-.548.912a3.5 3.5 0 0 0-.192 1.195q0 .88.336 1.532c.336.652.54.772.948 1.012q.61.358 1.423.36h-.002q.271 0 .46.093a.7.7 0 0 1 .3.276l.552.888a.54.54 0 0 0 .256.229q.153.059.304.031a.5.5 0 0 0 .257-.128.44.44 0 0 0 .128-.244q.023-.144-.088-.319l-.345-.544q-.208-.328-.432-.46c-.052-.031-.119-.05-.184-.07a2.4 2.4 0 0 0 .772-.542q.356-.383.548-.92c.192-.537.192-.758.192-1.2q0-.88-.336-1.528a2.45 2.45 0 0 0-.944-1.004Zm.011 3.628a1.53 1.53 0 0 1-.56.696q-.364.24-.884.24-.777 0-1.208-.536c-.431-.536-.433-.854-.433-1.488q0-.64.196-1.092.196-.451.564-.688t.88-.236q.784 0 1.212.528t.428 1.487q0 .633-.196 1.088Z"/></svg>