<!-- SPDX-FileCopyrightText: © 2025 Schneider Electric SPDX-License-Identifier: LicenseRef-Proprietary -->
<svg xmlns="http://www.w3.org/2000/svg" viewBox="0 0 16 16"><path d="M5.53 12.133h.007a.5.5 0 0 0 .493-.507L6 9.493c-.004-.275-.246-.521-.507-.493A.5.5 0 0 0 5 9.507l.03 2.133a.5.5 0 0 0 .5.493ZM2.496 7za.5.5 0 0 0 .5-.5L3 1.155c0-.084.056-.156.123-.156H6.5A.5.5 0 0 0 6.5 0H3.123C2.504 0 2.001.518 2 1.155L1.996 6.5a.5.5 0 0 0 .5.5Zm13.337 1.517L14 6.878v-1.03a.5.5 0 0 0-.164-.37L12 3.806v-.741c0-.305-.121-.601-.383-.855L8.8.093a.499.499 0 0 0-.8.4V3.5a.5.5 0 0 0 .5.5h1a.5.5 0 0 0 0-1H9V1.492l1.963 1.471a.14.14 0 0 1 .037.101v8.076a.5.5 0 0 0 .375.845l.139-.004a.5.5 0 0 0 .486-.5V5.157l1 .91v6.93l-.45-.002c-.317-.003-.501.222-.502.498s.222.501.498.502l.952.004h.002a.503.503 0 0 0 .5-.5V8.218l1 .895V15h-2.53a.5.5 0 0 0 0 1h3.03a.5.5 0 0 0 .5-.5V8.89a.5.5 0 0 0-.167-.373Z"/><path d="M5.918 6.251c-.177-.318-.698-.318-.875 0L.057 15.258A.5.5 0 0 0 .495 16h4.006a.5.5 0 0 0 0-1H1.342l4.139-7.475L9.62 15H6.5a.5.5 0 0 0 0 1h3.968a.502.502 0 0 0 .438-.742z"/><circle cx="5.482" cy="13.52" r=".5"/></svg>