<!-- SPDX-FileCopyrightText: © 2025 Schneider Electric SPDX-License-Identifier: LicenseRef-Proprietary -->
<svg xmlns="http://www.w3.org/2000/svg" viewBox="0 0 16 16"><path d="M6.5.013H3.123C2.504.013 2.001.531 2 1.168l-.004 4.335a.5.5 0 0 0 .5.5h0a.5.5 0 0 0 .5-.5L3 1.168c0-.084.056-.156.123-.156H6.5a.5.5 0 0 0 0-.999Zm9.333 8.516L14 6.891V5.86a.5.5 0 0 0-.164-.37L12 3.818v-.741c0-.305-.121-.601-.383-.855L8.801.101A.5.5 0 0 0 8 .5v3.013a.5.5 0 0 0 .5.5h1a.5.5 0 0 0 0-1H9V1.501l1.963 1.476a.14.14 0 0 1 .037.101v7.918L7.637 11a.501.501 0 0 0 0 1h0l3.862-.005a.5.5 0 0 0 .5-.5V5.171l1 .91v6.932h-4.47a.5.5 0 0 0 0 1h4.97a.5.5 0 0 0 .5-.5V8.232l1 .894v5.888h-5.62a.5.5 0 0 0 0 1h6.12a.5.5 0 0 0 .5-.5V8.903a.5.5 0 0 0-.167-.373ZM2.868 7.003S.647 6.908.117 8.193c0 0-.41.728.306 1.068.513.244.916-.307.916-.307s.429-.59 1.384-.615c.6-.016 1.151.223 1.317.869.14.544-.835 1.408-1.736 2.164-.654.549-.455 1.402-.315 1.571 0 0 .259.498.877.279.404-.143.348-.833.348-.833.032-.142.125-.289.506-.508.218-.125 2.362-1.342 2.058-3.14-.222-.779-.725-1.682-2.908-1.737Zm-.18 7.294a.851.851 0 1 0 0 1.702.851.851 0 0 0 0-1.702Z"/></svg>