<!-- SPDX-FileCopyrightText: © 2025 Schneider Electric SPDX-License-Identifier: LicenseRef-Proprietary -->
<svg xmlns="http://www.w3.org/2000/svg" viewBox="0 0 16 16"><path d="M5.133 13.901a.5.5 0 0 0 .867-.34v-3.062a.5.5 0 0 0-1 0v1.785l-1.092-1.181a.497.497 0 0 0-.739.006L2 12.408v-2.8q.363.172.769.261c.429.092.867.104 1.306.031a.5.5 0 1 0-.161-.987 2.5 2.5 0 0 1-.935-.022 2.49 2.49 0 0 1-1.945-2.046 2.51 2.51 0 0 1 2.068-2.88 2.5 2.5 0 0 1 1.868.438 2.506 2.506 0 0 1 .456 3.652.499.499 0 1 0 .765.643 3.5 3.5 0 0 0 .778-2.826 3.5 3.5 0 0 0-1.415-2.281 3.5 3.5 0 0 0-2.614-.612A3.512 3.512 0 0 0 1 8.899v4.813a.5.5 0 0 0 .872.334l1.674-1.859zM2.522 2.65a.5.5 0 0 0 .5-.5v-.861c0-.157.168-.29.367-.29h3.533a.5.5 0 0 0 0-1H3.389c-.753 0-1.367.579-1.367 1.29v.861a.5.5 0 0 0 .5.5Z"/><path d="M13.515 3.894 9.212.192a.5.5 0 0 0-.826.379V4.5a.5.5 0 0 0 .5.5h1.896a.5.5 0 0 0 0-1H9.386V1.661l3.493 3.005a.26.26 0 0 1 .098.201v9.843c0 .156-.168.289-.367.289H3.389c-.199 0-.367-.133-.367-.289a.5.5 0 0 0-1 0c0 .711.613 1.289 1.367 1.289h9.221c.754 0 1.367-.578 1.367-1.289V4.868c0-.389-.175-.749-.463-.974Z"/></svg>