<!-- SPDX-FileCopyrightText: © 2025 Schneider Electric SPDX-License-Identifier: LicenseRef-Proprietary -->
<svg xmlns="http://www.w3.org/2000/svg" viewBox="0 0 16 16"><path d="M2.522 9.396a.5.5 0 0 0 .5-.5V1.29c0-.157.168-.29.367-.29h3.533a.5.5 0 0 0 0-1H3.389c-.753 0-1.367.579-1.367 1.29v7.607a.5.5 0 0 0 .5.5ZM10.782 4H9.386V1.661l3.494 3.005a.26.26 0 0 1 .098.201v4.109a.5.5 0 0 0 1 0V4.867c0-.389-.175-.749-.463-.974L9.212.192a.5.5 0 0 0-.826.379V4.5a.5.5 0 0 0 .5.5h1.896a.5.5 0 0 0 0-1Zm-7.818 6.072H1.036q-.248 0-.384.132c-.136.132-.136.217-.136.388v4.656q0 .248.132.388.131.141.38.141.256 0 .384-.141a.56.56 0 0 0 .128-.388V13.6h1.424q.928 0 1.432-.468t.504-1.3c0-.832-.168-.986-.504-1.296s-.813-.464-1.432-.464Zm.664 2.476q-.28.244-.824.244H1.54V10.88h1.264q.544 0 .824.24t.28.712c0 .472-.093.554-.28.716Zm4.264-2.476H6.34q-.264 0-.404.14t-.14.404v4.552q0 .264.14.404t.404.14h1.552q.712 0 1.26-.188.547-.188.928-.548.38-.359.576-.884c.196-.525.195-.751.195-1.204q0-1.36-.771-2.088c-.771-.728-1.244-.728-2.188-.728Zm1.767 3.684q-.12.372-.363.616a1.6 1.6 0 0 1-.608.368 2.7 2.7 0 0 1-.86.124H6.82V10.92h1.008q.977 0 1.464.488.486.487.486 1.479 0 .496-.119.868Zm5.536-2.868q.208 0 .312-.107.104-.108.104-.309 0-.192-.104-.296c-.104-.104-.173-.104-.312-.104h-2.792q-.264 0-.404.14t-.14.404v4.615q0 .266.14.404a.52.52 0 0 0 .388.141q.496 0 .496-.545v-1.936h2.145a.42.42 0 0 0 .308-.108q.108-.107.108-.308 0-.192-.108-.296c-.108-.104-.175-.104-.308-.104h-2.145v-1.592z"/></svg>