<!-- SPDX-FileCopyrightText: © 2025 Schneider Electric SPDX-License-Identifier: LicenseRef-Proprietary -->
<svg xmlns="http://www.w3.org/2000/svg" viewBox="0 0 16 16"><path d="M9.084 8.941a.5.5 0 0 0 .708 0l1.209-1.208v.768a.5.5 0 0 0 1 0v-2a.5.5 0 0 0-.5-.5h-2a.5.5 0 0 0 0 1h.818L9.085 8.235a.5.5 0 0 0 0 .707ZM10.314 13H9.5a.5.5 0 0 0 0 1h2a.5.5 0 0 0 .5-.5v-2a.5.5 0 0 0-1 0v.771l-1.209-1.209a.5.5 0 0 0-.707.707z"/><path d="M13.47 2.7 9.784.16a.501.501 0 0 0-.785.412v3.929a.5.5 0 0 0 .5.5h1a.5.5 0 0 0 0-1h-.5V1.523l2.889 1.99a.6.6 0 0 1 .111.323v10.875c0 .156-.17.289-.37.289H3.37c-.201 0-.37-.133-.37-.289V1.29c0-.157.169-.29.37-.29H7.5a.5.5 0 0 0 0-1H3.37C2.615 0 2 .579 2 1.29v13.421C2 15.422 2.615 16 3.37 16h9.26c.756 0 1.37-.578 1.37-1.289V3.836c0-.374-.179-.882-.53-1.137Z"/><path d="M6.917 8.234 5.683 7H6.5a.5.5 0 0 0 0-1h-2a.5.5 0 0 0-.5.5v2a.5.5 0 0 0 1 0v-.768l1.209 1.209a.5.5 0 1 0 .708-.707Zm0 2.828a.5.5 0 0 0-.707 0l-1.209 1.209V11.5a.5.5 0 0 0-1 0v2a.5.5 0 0 0 .5.5h2a.5.5 0 0 0 0-1h-.814l1.23-1.23a.5.5 0 0 0 0-.707Z"/></svg>