<!-- SPDX-FileCopyrightText: © 2025 Schneider Electric SPDX-License-Identifier: LicenseRef-Proprietary -->
<svg xmlns="http://www.w3.org/2000/svg" viewBox="0 0 16 16"><path d="M6.922 0H3.389c-.753 0-1.367.579-1.367 1.29v7.607a.5.5 0 0 0 1 0V1.29c0-.157.168-.29.367-.29h3.533a.5.5 0 0 0 0-1Zm4.36 4.5a.5.5 0 0 0-.5-.5H9.386V1.661l3.494 3.005a.26.26 0 0 1 .098.201v4.109a.5.5 0 0 0 1 0V4.867c0-.389-.175-.749-.463-.974L9.212.192a.5.5 0 0 0-.826.379V4.5a.5.5 0 0 0 .5.5h1.896a.5.5 0 0 0 .5-.5ZM6.25 15.069H3.542l2.819-3.815q.136-.184.181-.36c.045-.176.029-.221 0-.312s-.086-.163-.168-.216a.6.6 0 0 0-.324-.08H2.738q-.224 0-.34.107-.116.108-.116.316c0 .208.039.245.116.319q.115.112.34.112H5.32l-2.814 3.816a1 1 0 0 0-.18.355.57.57 0 0 0 0 .312.4.4 0 0 0 .168.22q.125.08.324.08H6.25q.224 0 .34-.112.116-.111.116-.319c0-.208-.039-.244-.116-.316s-.19-.108-.34-.108Zm1.752-4.847q-.248 0-.38.136t-.132.393v4.712q0 .248.132.388t.38.141q.256 0 .384-.141t.128-.388v-4.712q0-.256-.132-.393-.132-.136-.38-.136Zm5.687.528q-.504-.465-1.432-.464h-1.929q-.247 0-.384.132c-.137.132-.136.217-.136.388v4.656q0 .248.132.388t.38.141q.256 0 .384-.141.129-.14.128-.388v-1.648h1.425q.928 0 1.432-.468t.504-1.3c0-.832-.168-.986-.504-1.296Zm-.768 2.012q-.28.244-.823.244h-1.265v-1.912h1.265q.543 0 .823.24.281.24.28.712c-.001.472-.093.554-.28.716Z"/></svg>