<!-- SPDX-FileCopyrightText: © 2025 Schneider Electric SPDX-License-Identifier: LicenseRef-Proprietary -->
<svg xmlns="http://www.w3.org/2000/svg" viewBox="0 0 16 16"><path d="M4.38 5.333c-.192-.193-.445-.289-.698-.289s-.506.096-.698.289a.99.99 0 0 0 0 1.397.989.989 0 0 0 1.685-.698.98.98 0 0 0-.289-.698Zm-.698 3.668a.99.99 0 0 0-.698 1.686.989.989 0 0 0 1.685-.698.983.983 0 0 0-.987-.987Zm2.032 4.459a.989.989 0 0 0 1.685-.698.983.983 0 0 0-.987-.987.99.99 0 0 0-.698 1.686Zm1.328-9.463a.89.89 0 1 0-1.26-1.26.89.89 0 0 0 1.26 1.26Zm2.398-.813a.783.783 0 0 0 1.105 1.106.783.783 0 0 0-1.105-1.106Zm3.491 3.4a.783.783 0 0 0-1.105-1.106.783.783 0 0 0 1.105 1.106Z"/><path d="M15.85 6.407a7.96 7.96 0 0 0-2.638-4.489.5.5 0 0 0-.65.76 6.96 6.96 0 0 1 2.437 4.965c.037.737-.354 1.36-1.045 1.667a1.86 1.86 0 0 1-2.097-.389 2.08 2.08 0 0 0-1.987-.564 2.07 2.07 0 0 0-1.516 1.514 2.1 2.1 0 0 0 .571 2c.663.663.626 1.494.371 2.051-.26.565-.875 1.155-1.83 1.071a6.96 6.96 0 0 1-6.369-5.8c-.374-2.288.339-4.526 1.956-6.142C4.668 1.436 6.902.726 9.188 1.097c.488.08.972.214 1.436.401a.5.5 0 0 0 .373-.927 7.8 7.8 0 0 0-1.648-.46C6.748-.313 4.192.5 2.347 2.345S-.316 6.746.11 9.354a7.96 7.96 0 0 0 7.282 6.637q.113.008.225.008a2.83 2.83 0 0 0 2.588-1.66c.498-1.083.273-2.329-.592-3.194a1.08 1.08 0 0 1-.286-1.041 1.07 1.07 0 0 1 .775-.773c.39-.091.769.014 1.064.315a2.85 2.85 0 0 0 3.193.579c1.068-.475 1.695-1.483 1.637-2.632a8.4 8.4 0 0 0-.146-1.186Z"/></svg>