<!-- SPDX-FileCopyrightText: © 2025 Schneider Electric SPDX-License-Identifier: LicenseRef-Proprietary -->
<svg xmlns="http://www.w3.org/2000/svg" viewBox="0 0 16 16"><path d="M15.04 2.243c-1.661-1.571-3.699-.997-4.986.276-.303.304-7.011 7.218-7.01 7.217a2.28 2.28 0 0 0 0 3.213c.856.857 2.348.86 3.21-.003l4.982-5.079a.5.5 0 0 0-.006-.708.504.504 0 0 0-.708.007l-4.979 5.076c-.479.48-1.312.48-1.791 0a1.277 1.277 0 0 1 .005-1.804s6.704-6.91 7.003-7.211c.193-.191 1.939-1.823 3.593-.258.963.911.76 2.522-.48 3.98l-6.965 6.982a3.47 3.47 0 0 1-2.47 1.03h0a3.38 3.38 0 0 1-2.405-.995c-1.335-1.339-1.32-3.532.035-4.891 2.196-2.2 7.95-7.958 8.153-8.148a.5.5 0 0 0-.627-.779c-.087.07-2.858 2.836-8.236 8.221-1.743 1.748-1.758 4.576-.035 6.305a4.37 4.37 0 0 0 3.113 1.288h0c1.198 0 2.326-.47 3.178-1.323l6.992-7.012c1.635-1.919 1.81-4.083.434-5.384Z"/></svg>