<!-- SPDX-FileCopyrightText: © 2025 Schneider Electric SPDX-License-Identifier: LicenseRef-Proprietary -->
<svg xmlns="http://www.w3.org/2000/svg" viewBox="0 0 16 16"><path d="M12.993 5.475A5.48 5.48 0 0 0 7.518 0c-1.039 0-2.05.292-2.924.846a.5.5 0 1 0 .535.845 4.46 4.46 0 0 1 2.389-.69c2.467 0 4.475 2.007 4.475 4.475S9.986 9.951 7.518 9.951 3.043 7.942 3.043 5.475c0-.889.26-1.749.752-2.485a.499.499 0 1 0-.831-.555 5.45 5.45 0 0 0-.921 3.041A5.48 5.48 0 0 0 7 10.926v4.075H5.5a.5.5 0 0 0 0 1h4a.5.5 0 0 0 0-1H8v-4.072a5.48 5.48 0 0 0 4.993-5.453Z"/><path d="M7 8.181V6.49c1.009-.008 1.938-.092 2.448-.709.3-.362.395-.845.282-1.435-.281-1.467-2.218-1.527-3.318-1.329A.5.5 0 0 0 6 3.509V8.18a.5.5 0 0 0 1 0Zm0-4.225c.631-.041 1.638.004 1.748.578q.08.426-.07.61c-.256.31-1.106.343-1.678.346z"/></svg>