<!-- SPDX-FileCopyrightText: © 2025 Schneider Electric SPDX-License-Identifier: LicenseRef-Proprietary -->
<svg xmlns="http://www.w3.org/2000/svg" viewBox="0 0 16 16"><path d="M3.788 8.041a.5.5 0 1 0 .699-.714 2 2 0 0 1-.611-1.446c0-1.123.927-2.037 2.067-2.037s2.066.914 2.066 2.037a.5.5 0 0 0 1 0c0-1.675-1.376-3.037-3.067-3.037S2.875 4.206 2.875 5.881c0 .818.324 1.586.912 2.161Zm2.238-5.462a.5.5 0 0 0 .5-.5V.5a.5.5 0 0 0-1 0v1.579a.5.5 0 0 0 .5.5Zm3.448 3.447a.5.5 0 0 0 .5.5h1.579a.5.5 0 0 0 0-1H9.974a.5.5 0 0 0-.5.5Z"/><path d="M8.676 3.679a.5.5 0 0 0 .352-.145l.854-.844a.5.5 0 0 0-.703-.711l-.854.844a.5.5 0 0 0 .351.855Zm-5.818-.145a.5.5 0 0 0 .707-.003.5.5 0 0 0-.004-.707l-.854-.844a.5.5 0 1 0-.703.711zm10.588 7.405c-.185 0-.349 0-.521.018-.474-1.778-2.124-3.062-4.043-3.062-1.593 0-3 .899-3.743 2.369-1.605.045-2.805 1.263-2.805 2.868C2.334 14.767 3.579 16 5.23 16h1.329a.5.5 0 0 0 0-1H5.23c-1.099 0-1.896-.786-1.896-1.868s.797-1.869 1.896-1.869h.229a.5.5 0 0 0 .461-.306c.536-1.272 1.671-2.062 2.962-2.062 1.603 0 2.959 1.17 3.155 2.721a.502.502 0 0 0 .653.412c.266-.088.43-.088.756-.088.871 0 1.554.672 1.554 1.53S14.317 15 13.446 15H8.394a.5.5 0 0 0 0 1h5.052C14.854 16 16 14.865 16 13.47s-1.146-2.53-2.554-2.53ZM2.708 9.781l.854-.844a.5.5 0 0 0-.703-.711l-.854.844a.5.5 0 0 0 .703.71Zm-.129-3.755a.5.5 0 0 0-.5-.5H.5a.5.5 0 0 0 0 1h1.579a.5.5 0 0 0 .5-.5Z"/></svg>