<!-- SPDX-FileCopyrightText: © 2025 Schneider Electric SPDX-License-Identifier: LicenseRef-Proprietary -->
<svg xmlns="http://www.w3.org/2000/svg" viewBox="0 0 16 16"><path d="M15.629 3.249 9.495 1.61a.5.5 0 0 0-.3.013c-1.92.7-7.607 2.852-7.759 2.944Q.808 4.955.769 5.66c-.021.299-.21 1.539-.303 2.134-.163.219-.458.678-.466 1.141-.003.177.029.666.063 1.161.028.402.07 1.011.066 1.102a.5.5 0 0 0 .29.54c.93.413 1.898.859 2.866 1.306.979.451 1.96.902 2.901 1.321a.5.5 0 0 0 .203.043h.022l.991-.042a.5.5 0 0 0 .223-.062l7.676-4.263a.5.5 0 0 0 .161-.731c-.094-.13-.17-.26-.247-.39a6 6 0 0 0-.2-.326V7.431a85 85 0 0 1 0-1.297.5.5 0 0 0-.471-.525c-.298-.002-.512.196-.527.471-.004.07-.003.713 0 1.354.002.6.004 1.198 0 1.283a.5.5 0 0 0 .094.323c.093.128.168.256.243.384l-7.109 3.948-.758.032c-.904-.403-1.843-.835-2.781-1.268-.871-.401-1.742-.803-2.585-1.181-.01-.198-.028-.488-.059-.928C1.03 9.57.998 9.118 1 8.953c.003-.162.189-.471.323-.632a.5.5 0 0 0 .111-.243c.03-.195.303-1.923.334-2.376.005-.076.01-.17.134-.253.207-.087 4.884-1.88 7.487-2.832l4.688 1.253-6.109 2.982a2 2 0 0 0-1.05 1.226l-.698 2.394c-.562-.229-1.072-.44-1.581-.651-.662-.273-1.324-.548-2.102-.862a.501.501 0 0 0-.375.927c.775.313 1.435.586 2.094.859.662.273 1.324.548 2.102.862a.5.5 0 0 0 .668-.325l.854-2.926a1 1 0 0 1 .526-.606l7.312-3.57a.5.5 0 0 0-.09-.933Z"/></svg>