<!-- SPDX-FileCopyrightText: © 2025 Schneider Electric SPDX-License-Identifier: LicenseRef-Proprietary -->
<svg xmlns="http://www.w3.org/2000/svg" viewBox="0 0 16 16"><path d="M15.5 6H2.95a.5.5 0 0 0 0 1H15v5H1V6.864L3.121 4h9.586l1.117 1.117a.5.5 0 0 0 .707-.707l-1.264-1.264A.5.5 0 0 0 12.913 3H2.869a.5.5 0 0 0-.402.203L.098 6.401A.5.5 0 0 0 0 6.698v5.801a.5.5 0 0 0 .5.5h15a.5.5 0 0 0 .5-.5v-6a.5.5 0 0 0-.5-.5Z"/><circle cx="2.5" cy="8.5" r=".5"/><circle cx="4.5" cy="8.5" r=".5"/><circle cx="6.5" cy="8.5" r=".5"/><circle cx="8.5" cy="8.5" r=".5"/><circle cx="10.5" cy="8.5" r=".5"/><circle cx="12.5" cy="8.5" r=".5"/><circle cx="3.5" cy="10.5" r=".5"/><circle cx="5.5" cy="10.5" r=".5"/><circle cx="7.5" cy="10.5" r=".5"/><circle cx="9.5" cy="10.5" r=".5"/><circle cx="11.5" cy="10.5" r=".5"/><circle cx="13.5" cy="10.5" r=".5"/></svg>