<!-- SPDX-FileCopyrightText: © 2025 Schneider Electric SPDX-License-Identifier: LicenseRef-Proprietary -->
<svg xmlns="http://www.w3.org/2000/svg" viewBox="0 0 16 16"><path d="M12.75 1.584 8.174.027a.5.5 0 0 0-.322 0L3.276 1.584a.5.5 0 0 0-.025.938l3.856 1.542c.094.038.2.045.299.022l2.348-.546a.5.5 0 1 0-.226-.974l-2.195.511-2.455-.982 3.135-1.067 4.076 1.387v11.147L8.013 14.97l-4.076-1.408V4.001a.5.5 0 0 0-1 0v9.918a.5.5 0 0 0 .337.473l4.576 1.581q.08.028.163.027a.4.4 0 0 0 .163-.027l4.576-1.581a.5.5 0 0 0 .337-.473V2.058a.5.5 0 0 0-.339-.473Z"/><path d="M9.541 5.372c.149-.044.433-.097.666.066a.5.5 0 1 0 .576-.817c-.425-.301-.986-.375-1.536-.205a2.56 2.56 0 0 0-1.321.99c-.727 1.031-.626 2.356.223 2.955.28.197.608.291.947.291.688 0 1.423-.386 1.91-1.076A.5.5 0 1 0 10.188 7c-.402.571-1.074.819-1.463.543-.392-.275-.383-.99.019-1.561.208-.296.5-.519.798-.61ZM8.126 13.31c.284.205.618.303.965.303.682 0 1.411-.377 1.9-1.054a.5.5 0 0 0-.81-.586c-.408.566-1.081.805-1.47.526-.231-.167-.274-.453-.28-.608-.01-.312.105-.659.317-.952.212-.294.505-.513.804-.601.149-.044.434-.093.666.074a.5.5 0 1 0 .585-.81c-.422-.305-.982-.388-1.533-.223-.516.151-.989.497-1.333.974s-.523 1.034-.505 1.571c.019.576.272 1.081.694 1.386Z"/></svg>