<!-- SPDX-FileCopyrightText: © 2025 Schneider Electric SPDX-License-Identifier: LicenseRef-Proprietary -->
<svg xmlns="http://www.w3.org/2000/svg" viewBox="0 0 16 16"><path d="m3.195 5.114.131.383a.5.5 0 0 0 .216.267l1.333.795-.556.305c-.19-.003-.44-.031-.548-.09a.499.499 0 0 0-.475.875c.34.184.809.21 1.047.21q.093 0 .132-.003a.5.5 0 0 0 .215-.061l1.426-.783a.498.498 0 0 0 .015-.863L4.209 5.003l-.32-.936a.5.5 0 0 0-.81-.203l-.537.5a.499.499 0 0 0 .653.751Z"/><path d="M15.549 4.515a.5.5 0 0 0-.472-.445l-.82-.039c.284-.58.276-1.242.271-1.702v-.175C14.526.988 13.472.002 12.224.002c-1.242 0-2.305 1.453-2.305 2.641 0 .535.074.924.203 1.224l-1.773-.189a.6.6 0 0 0-.153.008l-1.559.321a.497.497 0 0 0-.351.698l.643 1.381a.5.5 0 0 0 .35.277l3.362.699.374 1.733-2.492 5.983H6.214l1.611-5.316a.5.5 0 0 0-.476-.642H1.501a.497.497 0 0 0-.474.649l1.7 5.31H.5a.499.499 0 0 0 0 .996h2.909a.497.497 0 0 0 .474-.649l-1.7-5.31h4.493l-1.61 5.316a.497.497 0 0 0 .476.642h3.312a.5.5 0 0 0 .459-.307l2.68-6.434a.5.5 0 0 0 .027-.296l-.476-2.202a.5.5 0 0 0-.385-.382l-3.435-.714-.271-.583.867-.179 3.007.321a.51.51 0 0 0 .471-.225.65.65 0 0 0 .076-.449.62.62 0 0 0-.271-.351c-.473-.265-.688-.385-.688-1.328 0-.68.677-1.646 1.309-1.646.696 0 1.307.541 1.307 1.157l.002.187c.009.741-.024 1.332-.589 1.691-.149.131-.244.415-.182.604a.5.5 0 0 0 .449.342l1.394.065.397 3.736-.023 5.916-.386.139-.902-4.758a.498.498 0 0 0-.942-.116l-2.43 5.259a.499.499 0 0 0 .904.418l1.778-3.85.722 3.805a.495.495 0 0 0 .657.376l1.262-.453a.5.5 0 0 0 .33-.467l.022-6.319-.446-4.215Z"/></svg>