<!-- SPDX-FileCopyrightText: © 2025 Schneider Electric SPDX-License-Identifier: LicenseRef-Proprietary -->
<svg xmlns="http://www.w3.org/2000/svg" viewBox="0 0 16 16"><path d="M14.405 13.977c0-1.378-.523-2.765-1.474-3.903a6.76 6.76 0 0 0-2.53-1.888 3.4 3.4 0 0 0 .487-.617c.307-.497.508-.873.508-1.549a.5.5 0 0 0-1 0c0 .426-.104.61-.359 1.023a2.4 2.4 0 0 1-.935.871.498.498 0 0 0 .113.929c1.117.271 2.164.936 2.947 1.873.801.959 1.242 2.118 1.242 3.267l.01 1.019H2.579v-1.023c0-1.143.443-2.301 1.249-3.261.787-.937 1.837-1.603 2.956-1.874a.5.5 0 0 0 .113-.929 2.41 2.41 0 0 1-1.294-2.111l.003-.083-.025-.617.09-.044 3.061.03c.1 0 .284.006.755-.086.646-.126 2.729-.756 3.655-1.088a.5.5 0 0 0 .326-.396.5.5 0 0 0-.195-.475c-.107-.081-.263-.144-.578-.27-.215-.086-.51-.204-.63-.278a3 3 0 0 0-.483-.233c-.152-.55-.482-.958-.922-1.379C9.822.08 8.868.011 7.611 0 6.15.002 5.422.504 4.784 1.082c-.81.731-.981 1.451-1.042 2.059a.501.501 0 0 0 .995.101c.041-.41.134-.89.718-1.417.54-.488.993-.828 2.148-.824 1.234.011 1.835.097 2.364.604.46.441.634.722.688 1.112a.5.5 0 0 0 .371.415 2.2 2.2 0 0 1 .56.243c-.916.286-1.931.576-2.29.646-.367.071-.487.067-.544.067-.025-.004-.057.001-.095.004l-3.092-.035a.7.7 0 0 0-.225.05l-.491.239a.5.5 0 0 0-.281.471l.038.907-.003.053a3.4 3.4 0 0 0 .996 2.408 6.8 6.8 0 0 0-2.537 1.888c-.957 1.14-1.483 2.526-1.483 3.904V15.5a.5.5 0 0 0 .5.5h11.842a.5.5 0 0 0 .5-.505z"/><path d="M8.569 9.594a.5.5 0 0 0-.705.059L6.313 11.49a.5.5 0 0 0 .425.82l.588-.051-.959 1.153a.5.5 0 1 0 .768.64l1.727-2.074a.5.5 0 0 0-.427-.818l-.577.05.77-.912a.5.5 0 0 0-.059-.705Z"/></svg>