<!-- SPDX-FileCopyrightText: © 2025 Schneider Electric SPDX-License-Identifier: LicenseRef-Proprietary -->
<svg xmlns="http://www.w3.org/2000/svg" viewBox="0 0 16 16"><path d="M3.87 13.523a2.17 2.17 0 0 1-.806-2.957.5.5 0 1 0-.868-.496 3.17 3.17 0 0 0 1.177 4.32.5.5 0 0 0 .683-.186.5.5 0 0 0-.186-.682Z"/><path d="M2.987 15.065A3.95 3.95 0 0 1 1.52 9.684a.501.501 0 0 0-.868-.496c-.655 1.147-.824 2.48-.477 3.754s1.17 2.337 2.316 2.992a.505.505 0 0 0 .683-.187.5.5 0 0 0-.186-.683Zm5.897-2.981c-.294-.086-.626.019-1.048.149-.254.078-.783.246-.91.191l-.047-.044a1.3 1.3 0 0 0-.141-.779.5.5 0 1 0-.895.445c.055.11.052.143.042.228-.034.31.018.581.379.9.495.436 1.256.202 1.866.014.145-.044.35-.107.464-.128.375.347 1.453 1.996 1.704 2.625a.502.502 0 0 0 .93-.371c-.155-.388-1.604-3.019-2.344-3.23Zm-4.133-.105a.39.39 0 0 1-.144-.529.5.5 0 1 0-.869-.496 1.38 1.38 0 0 0-.134 1.054c.098.358.329.657.651.841a.501.501 0 0 0 .495-.87Zm9.985-10.094C13.693.705 12.04 0 10.311 0c-2.418 0-4.537 1.297-5.4 3.307-.5 1.174-.216 1.862-.009 2.364l.058.142c.099.255.028.588-.018.73-.048.186-.328.54-.532.799-.427.542-.796 1.01-.59 1.489.264.614.881.736 1.213.803l.077.015c.027.091.055.246.04.473a.5.5 0 0 0 .466.532.494.494 0 0 0 .532-.466c.051-.769-.217-1.159-.314-1.279-.168-.169-.391-.213-.606-.256-.223-.044-.358-.08-.433-.143.08-.142.268-.381.4-.548.301-.383.613-.778.702-1.127.026-.074.246-.739-.006-1.384l-.064-.16c-.17-.413-.331-.803.004-1.59.705-1.64 2.463-2.7 4.48-2.7 1.116 0 2.668.406 3.675 1.547.829.938 1.152 2.194.961 3.732-.253 2.035-1.742 3.55-1.757 3.564a.5.5 0 0 0-.005.702l1.668 1.714a.5.5 0 0 0 .707.009.5.5 0 0 0 .01-.707l-1.344-1.381c.521-.631 1.494-2.016 1.713-3.779.226-1.81-.191-3.372-1.203-4.518Z"/></svg>