<!-- SPDX-FileCopyrightText: © 2025 Schneider Electric SPDX-License-Identifier: LicenseRef-Proprietary -->
<svg xmlns="http://www.w3.org/2000/svg" viewBox="0 0 16 16"><path d="M12.234 13.253c-1.588.094-2.7 1.017-2.699 1.021-.021.014-2.061 1.307-2.966.408-.282-.28-.415-.557-.404-.846.02-.542.53-.985.534-.988a.5.5 0 0 0 .164-.504l-.127-.51c.153-.473.839-2.302 2.601-3.621 2.372-1.776 3.972-1.853 4.363-1.838l1.312.901c-.006.31-.074.886-.48 1.236a1.88 1.88 0 0 1-1.193.467l-.383-.924a.5.5 0 0 0-.584-.293 7.1 7.1 0 0 0-2.178 1.03c-1.047.755-1.58 1.933-1.602 1.983a.5.5 0 0 0 .151.599c.294.227.523.404.708.539-.21.297-.678.774-1.48.956a.499.499 0 1 0 .221.975c1.435-.324 2.248-1.419 2.364-1.934a.6.6 0 0 0 .009-.173.53.53 0 0 0-.114-.33l-.003.003a.5.5 0 0 0-.191-.147 20 20 0 0 1-.565-.422c.203-.341.571-.864 1.088-1.237a6 6 0 0 1 1.431-.74l.324.782a.5.5 0 0 0 .361.298c.048.011 1.228.241 2.29-.674.982-.846.821-2.265.813-2.325a.5.5 0 0 0-.213-.351l-1.627-1.118a.5.5 0 0 0-.202-.082c-.086-.015-2.104-.312-5.218 2.019-1.609 1.205-2.419 2.751-2.772 3.619H1v-.816A4.374 4.374 0 0 1 4.372 5.96a.5.5 0 0 0 .113-.93c-.643-.332-1.091-1.113-1.091-1.901 0-1.133.946-2.126 2.024-2.126s2.024.994 2.024 2.126c0 .788-.449 1.569-1.091 1.901a.5.5 0 0 0 .113.93c.582.14.779.272 1.263.637a.499.499 0 1 0 .6-.8 5.6 5.6 0 0 0-.73-.488 3.27 3.27 0 0 0 .845-2.18C8.442 1.433 7.057 0 5.418 0S2.394 1.432 2.394 3.126c0 .806.314 1.591.832 2.166a5.36 5.36 0 0 0-3.225 4.922v1.316a.5.5 0 0 0 .5.5h5.253l.07.279c-.256.284-.629.81-.657 1.479-.024.578.21 1.117.698 1.602 1.497 1.489 4.111-.209 4.267-.315.009-.008.916-.751 2.162-.824.883-.043 2.326.5 2.378 1.281a.5.5 0 0 0 .498.467h.034a.5.5 0 0 0 .466-.532c-.1-1.49-2.089-2.304-3.435-2.213Z"/></svg>