<!-- SPDX-FileCopyrightText: © 2025 Schneider Electric SPDX-License-Identifier: LicenseRef-Proprietary -->
<svg xmlns="http://www.w3.org/2000/svg" viewBox="0 0 16 16"><path d="M8 0a7.98 7.98 0 0 0-4.971 1.731.5.5 0 1 0 .621.783q.312-.247.65-.458A7 7 0 0 1 8 .999c3.859 0 7 3.14 7 7s-3.141 7-7 7S1 11.859 1 8c0-1.582.515-3.074 1.488-4.316a.5.5 0 0 0-.787-.617A7.92 7.92 0 0 0 0 8c0 4.411 3.589 8 8 8s8-3.589 8-8-3.589-8-8-8Z"/><path d="M3.782 4.892a.5.5 0 0 0 .311.635L7.5 6.693v1.941l-2.113 4.349a.5.5 0 0 0 .899.438l1.709-3.517 1.72 3.537a.5.5 0 0 0 .668.23.5.5 0 0 0 .23-.668L8.5 8.654v-1.94l3.407-1.166a.5.5 0 0 0-.324-.946L8.03 5.818 4.417 4.581a.5.5 0 0 0-.635.311Z"/><path d="M9.509 3.361c0-.832-.677-1.509-1.509-1.509s-1.509.677-1.509 1.509S7.168 4.87 8 4.87s1.509-.677 1.509-1.509Zm-2.018 0a.51.51 0 1 1 1.02.002.51.51 0 0 1-1.02-.002Z"/></svg>