<!-- SPDX-FileCopyrightText: © 2025 Schneider Electric SPDX-License-Identifier: LicenseRef-Proprietary -->
<svg xmlns="http://www.w3.org/2000/svg" viewBox="0 0 16 16"><path d="M10.35 7.133c.746-.766 1.183-1.856 1.183-3.037 0-2.297-1.622-4.097-3.691-4.097S4.151 1.798 4.151 4.096c0 1.172.466 2.268 1.259 3.047-2.154.879-3.409 3.171-3.409 6.339V15.5a.5.5 0 0 0 .5.5h6.77a.5.5 0 0 0 .499-.537c-.177-2.367-.28-3.365-.565-4.778.221-.228.465-.535.639-.866a.5.5 0 0 0-.208-.673c-1.506-.802-3.007-.321-3.5.038a.5.5 0 0 0-.148.635c.172.329.441.634.688.871l-.065.297c-.152.688-.263 1.185-.392 2.423a.5.5 0 0 0 .446.549.506.506 0 0 0 .549-.446c.123-1.181.222-1.63.373-2.31l.127-.586a.5.5 0 0 0-.163-.481 4 4 0 0 1-.352-.339 2.7 2.7 0 0 1 1.444.018c-.11.132-.222.244-.312.321a.5.5 0 0 0-.162.481c.295 1.407.4 2.278.562 4.382H3v-1.518c0-1.493.35-5.033 3.591-5.649a.499.499 0 0 0 .151-.927c-.982-.553-1.593-1.63-1.593-2.81C5.149 2.359 6.331.998 7.84.998s2.691 1.36 2.691 3.097c0 1.209-.578 2.286-1.509 2.81a.5.5 0 0 0 .151.927c2.359.448 3.824 2.613 3.824 5.649v1.518h-1.5a.5.5 0 0 0 0 1h2a.5.5 0 0 0 .5-.5v-2.018c0-3.119-1.374-5.46-3.65-6.349Z"/></svg>