<!-- SPDX-FileCopyrightText: © 2025 Schneider Electric SPDX-License-Identifier: LicenseRef-Proprietary -->
<svg xmlns="http://www.w3.org/2000/svg" viewBox="0 0 16 16"><path fill="currentColor" d="M15.5 9.072a.5.5 0 0 0-.5.5v3.533l-1.992 1.444.007-5.137 2.718-1.687a.5.5 0 0 0-.062-.881l-3.459-1.53a.5.5 0 0 0-.422.008L9.128 6.627a3.6 3.6 0 0 0-.88-.937 5 5 0 0 0-.731-.397c.512-.574.824-1.36.824-2.167 0-1.695-1.369-3.127-2.99-3.127s-2.99 1.432-2.99 3.127c0 .806.311 1.592.823 2.166A5.37 5.37 0 0 0 0 10.213v1.317a.5.5 0 0 0 .5.5h5a.5.5 0 0 0 0-1H1v-.817a4.36 4.36 0 0 1 3.323-4.256.5.5 0 0 0 .113-.929c-.633-.331-1.075-1.112-1.075-1.901 0-1.133.93-2.127 1.99-2.127s1.99.994 1.99 2.127c0 .789-.442 1.571-1.075 1.901a.5.5 0 0 0 .112.929c.471.115.917.307 1.303.558.2.146.693.6.769 1.066l.151 5.827a.5.5 0 0 0 .227.406l1.49.974a.5.5 0 0 0 .547-.838l-1.271-.83-.139-5.353a2 2 0 0 0 0-.187l2.564-1.257 2.38 1.053-2.15 1.334a.5.5 0 0 0-.236.424l-.009 6.396a.5.5 0 0 0 .5.501.5.5 0 0 0 .293-.096l2.994-2.171a.5.5 0 0 0 .207-.404V9.572a.5.5 0 0 0-.5-.5Z"/></svg>