<!-- SPDX-FileCopyrightText: © 2025 Schneider Electric SPDX-License-Identifier: LicenseRef-Proprietary -->
<svg xmlns="http://www.w3.org/2000/svg" viewBox="0 0 16 16"><path d="M3.614 13.88a.5.5 0 0 0 .598-.378c.139-.617-.062-1.469-1.041-2.013a.5.5 0 0 0-.49.002c-1.532.87-1.269 2.249-1.111 3.073l.021.106c-.773-1.032-.582-2.328-.396-3.586.076-.514.15-1.014.145-1.472.199.194.316.361.318.365a.5.5 0 0 0 .751.085c1.013-.929.686-2.173.216-3.176.42.132.833.378 1.195.724.524.5.843 1.122.831 1.626a.5.5 0 0 0 .488.512c.271-.008.505-.212.512-.488.019-.789-.408-1.676-1.141-2.374-.809-.771-1.83-1.169-2.8-1.102a.498.498 0 0 0-.401.74c.571 1.033.884 1.797.712 2.356-.326-.314-.81-.675-1.409-.812a.5.5 0 0 0-.477.829c.322.343.2 1.167.071 2.04-.23 1.553-.516 3.486 1.146 4.934.084.074.193.12.312.124h0l.118.004h.017q.106-.001.197-.041a.83.83 0 0 0 .446-.275c.292-.353.203-.816.109-1.308-.154-.806-.21-1.393.374-1.851.36.299.341.618.31.757a.5.5 0 0 0 .378.598Z"/><path d="M10.045 9.638a.5.5 0 0 0-.459-.346.49.49 0 0 0-.481.313l-1.052 2.627-1.953-.141v.02a1 1 0 0 0-.199-.008s-.038-.057-.038-.236c0-.244.158-.369.242-.418l1.131-.091a.5.5 0 0 0 .451-.403l.588-3.019 1.453-2.158a.5.5 0 0 0-.415-.779H8.259l-.328.019a.5.5 0 0 0-.209.059c-.775.416-1.72.726-1.944.636-.188-.092-.241-.17-.245-.189-.005-.025.021-.084.051-.131l2.011-1.226 1.63-.029a.5.5 0 0 0 .491-.509c-.005-.276-.232-.514-.509-.491l-1.766.032a.5.5 0 0 0-.251.073l-2.199 1.34a.5.5 0 0 0-.099.079c-.045.047-.442.475-.345 1.033.046.264.22.637.789.916.734.361 2.106-.26 2.759-.601l.278-.011-.985 1.463a.5.5 0 0 0-.076.184l-.535 2.745-.844.068a.5.5 0 0 0-.136.031c-.347.131-.935.568-.935 1.377 0 .424.12.75.357.968.298.273.658.266.82.253l2.305.167a.49.49 0 0 0 .5-.312l.672-1.681 1.206 3.737H6.095c.234-.289.344-.535.355-.56a.5.5 0 0 0-.916-.403 1.77 1.77 0 0 1-1.618.962.5.5 0 0 0 0 1h7.492a.5.5 0 0 0 .476-.654l-1.841-5.709ZM15.451 15H13.96l-2.047-6.514.036-.653c.515.456 1.031.442 1.064.437l1.703-.002a.5.5 0 0 0 .119-.015c.403-.099 1.166-.523 1.166-1.42 0-.859-.613-1.317-.976-1.452a.5.5 0 0 0-.143-.031l-1.006-.064-.677-1.241c.661-.286 1.074-.969 1.103-1.899.027-.898-.482-1.702-1.268-2-.672-.254-1.384-.175-1.955.217a2.04 2.04 0 0 0-.526 2.831.497.497 0 0 0 .695.129.5.5 0 0 0 .129-.695 1.04 1.04 0 0 1 .271-1.442c.173-.12.536-.294 1.032-.104.38.144.636.569.622 1.034-.012.402-.139 1.077-.851 1.077a.5.5 0 0 0-.357.163.53.53 0 0 0-.143.373q.002.122.061.229l1.118 2.05a.5.5 0 0 0 .407.26l1.185.075c.1.058.278.201.278.491 0 .274-.247.394-.359.435l-1.64.002c-.009 0-.218-.007-.446-.24-.345-.353-.584-.806-.587-.81a.499.499 0 0 0-.942.203l-.117 2.098q-.005.09.022.178l2.184 6.951a.5.5 0 0 0 .477.35h1.858a.5.5 0 0 0 0-1Z"/></svg>