<!-- SPDX-FileCopyrightText: © 2025 Schneider Electric SPDX-License-Identifier: LicenseRef-Proprietary -->
<svg xmlns="http://www.w3.org/2000/svg" viewBox="0 0 16 16"><path d="m15.551 13.874-.75-2.477a.5.5 0 0 0-.143-.226 1.37 1.37 0 0 0-1.11-.364 1.21 1.21 0 0 0-.865.589.34.34 0 0 1-.224.157.52.52 0 0 1-.393-.074l-1.822-1.155-.001-.037c-.071-.916-.316-3.944-.479-4.434a13 13 0 0 0-.53-1.282.3.3 0 0 1-.044-.09c.994-.199 1.743-1.053 1.743-2.074 0-1.113-.978-2.408-2.238-2.408-1.206 0-2.186.95-2.186 2.118q0 .158.023.312c-.978-.113-2.474-.111-3.208.77-1.26.943-1.961 1.737-2.083 2.359-.153.78.338 1.593 1.504 2.485a.5.5 0 0 0 .608-.794C2.235 6.393 2.19 5.916 2.223 5.75c.055-.281.605-.934 1.711-1.76a1 1 0 0 0 .142-.132c.541-.723 2.486-.456 3.125-.305a.502.502 0 0 0 .551-.732.5.5 0 0 0-.053-.1 1.07 1.07 0 0 1-.189-.606c0-.617.532-1.118 1.186-1.118s1.238.787 1.238 1.408c0 .616-.532 1.118-1.186 1.118a.5.5 0 0 0-.449.28c-.125.255-.242.823.07 1.257.002.005.298.658.447 1.105.077.248.239 1.858.374 3.487L5.276 7.173a.5.5 0 1 0-.535.845l2.028 1.285 1.464 2.077c.212.302.259.878.098 1.21l-1.307 2.688a.5.5 0 0 0 .899.438l1.307-2.688c.318-.653.239-1.631-.18-2.224l-.07-.1 2.551 1.616c.349.222.771.295 1.159.204.362-.086.665-.306.852-.617q.06-.1.153-.113a.35.35 0 0 1 .196.046l.729 2.39c.106.224.079.547-.046.786l-2.349-.673c-.096-.028-.201-.021-.281-.029a.5.5 0 0 0-.881-.471l-.205.353a.63.63 0 0 0-.007.626c.208.374.731.48 1.157.5l2.611.748q.068.02.138.02a.5.5 0 0 0 .334-.128c.573-.515.763-1.463.46-2.089Z"/><path d="M3.07 9.14a.503.503 0 0 0-.651.276L.037 15.312a.5.5 0 1 0 .927.375l2.383-5.896a.5.5 0 0 0-.276-.651Zm3.584 2.021-.892-1.066a.5.5 0 0 0-.089-.084.498.498 0 0 0-.828.078l-2.788 5.174a.5.5 0 1 0 .88.475L5.382 11.2l.504.604c.231.276.31.829.165 1.159L5.022 15.3a.5.5 0 1 0 .915.402l1.029-2.336c.296-.673.159-1.641-.312-2.204Z"/></svg>