<!-- SPDX-FileCopyrightText: © 2025 Schneider Electric SPDX-License-Identifier: LicenseRef-Proprietary -->
<svg xmlns="http://www.w3.org/2000/svg" viewBox="0 0 16 16"><path d="M10.568 7.189c.812-.769 1.288-1.876 1.288-3.074 0-2.27-1.724-4.116-3.842-4.116S4.173 1.845 4.173 4.115c0 1.18.46 2.268 1.247 3.035C2.805 8.088 1 10.609 1 13.504V15.5a.5.5 0 0 0 .5.5h10a.5.5 0 0 0 0-1H2v-1.496c0-2.781 1.952-5.158 4.642-5.65a.5.5 0 0 0 .144-.934c-.995-.526-1.612-1.601-1.612-2.805 0-1.718 1.274-3.116 2.841-3.116s2.842 1.398 2.842 3.116c0 1.195-.61 2.266-1.594 2.795-.162.087-.263.332-.263.516a.5.5 0 0 0 .411.492A5.57 5.57 0 0 1 14 13.407v2.092a.5.5 0 0 0 1 0v-2.092a6.57 6.57 0 0 0-4.432-6.219Z"/></svg>