<!-- SPDX-FileCopyrightText: © 2025 Schneider Electric SPDX-License-Identifier: LicenseRef-Proprietary -->
<svg xmlns="http://www.w3.org/2000/svg" viewBox="0 0 16 16"><path d="M4.471 11.344c-.263.042-.485.293-.457.558a.51.51 0 0 0 .508.447h.028a.5.5 0 0 0 .102-.016c.257-.069.451-.338.396-.599a.51.51 0 0 0-.577-.39Z"/><path d="M15.99 10.125c-.175-1.353-.676-5.213-3.506-5.914.243-.422.371-.872.371-1.318A2.896 2.896 0 0 0 9.964-.001c-1.631 0-2.686 1.022-2.686 2.605 0 1.505.757 2.279 1.465 2.502a.5.5 0 1 0 .3-.954c-.37-.116-.765-.584-.765-1.548 0-1.02.614-1.605 1.686-1.605 1.042 0 1.891.85 1.891 1.894 0 .606-.402 1.099-.611 1.31-.17.13-.239.354-.17.558s.259.34.474.34c2.495 0 3.165 2.94 3.454 5.113 0 .006-.027.528-.401.928-.967 1.037-2.712 1.442-5.043 1.182-.143-.079-.48-.309-.426-.694.029-.141.117-.566 1.439-.62h.036a.5.5 0 0 0 .477-.521l-.16-3.491a.5.5 0 0 0-.146-.33c-.917-.918-2.029-.803-2.744-.516-.535-.685-1.878-1.979-4.399-1.86-1.716.078-3.219.536-3.282.555A.5.5 0 0 0 0 5.325v9.47a.502.502 0 0 0 .606.489c.018-.003 1.763-.375 3.736-.185 1.547.147 2.944.842 2.958.849a.496.496 0 0 0 .595-.109c.785-.864 1.684-.625 1.718-.617a.5.5 0 1 0 .288-.957c-.058-.018-1.325-.38-2.48.639-.546-.236-1.703-.677-2.983-.8A14.7 14.7 0 0 0 1 14.203V5.705a14 14 0 0 1 2.681-.415c2.694-.11 3.708 1.667 3.749 1.741a.5.5 0 0 0 .716.182c.042-.027.967-.625 1.789.038l.128 2.798c-1.108.138-1.751.604-1.916 1.411-.144 1.008.637 1.625 1.069 1.812q.066.029.138.036c2.706.327 4.772-.188 5.977-1.482A2.6 2.6 0 0 0 16 10.25c0-.027-.006-.097-.009-.123Z"/><path d="M6.007 6.92c-.163-.305-.63-.663-1.041-.688-.486-.026-.814.439-1.028.753l-2.483 4.62c-.099.15-.156.328-.165.51-.03.49.319 1.238.917 1.368l.02.011c.079.042.17.059.257.06.01-.003 1.094-.044 1.956.04.85.085 2.003.427 2.014.431a.5.5 0 0 0 .143.021q.02-.002.042 0c.268 0 .523-.097.726-.276a1.09 1.09 0 0 0 .294-1.217L6.055 7.051a.5.5 0 0 0-.047-.128Zm.695 6.1a.1.1 0 0 1-.042.021c-.291-.083-1.303-.361-2.121-.443a15 15 0 0 0-1.379-.058c-.247 0-.453.005-.58.009a.3.3 0 0 0-.133-.034c-.066-.039-.166-.235-.135-.396l2.487-4.625c.031-.044.107-.155.172-.227.05.03.104.071.135.103l1.593 5.461c.01.035-.014.157.003.189Z"/><path d="M4.854 8.786a.5.5 0 0 0-.551.442l-.137 1.254a.501.501 0 0 0 .995.11l.137-1.254a.5.5 0 0 0-.443-.552Z"/></svg>