<!-- SPDX-FileCopyrightText: © 2025 Schneider Electric SPDX-License-Identifier: LicenseRef-Proprietary -->
<svg xmlns="http://www.w3.org/2000/svg" viewBox="0 0 16 16"><path d="M15.809 10.104a.503.503 0 0 0-.572-.353l-.595.111a3.8 3.8 0 0 0-.444-.741l.358-.573a.5.5 0 0 0-.082-.629 4.8 4.8 0 0 0-2.101-1.158.503.503 0 0 0-.603.338l-.172.561a3.7 3.7 0 0 0-.878.014l-.352-.613a.504.504 0 0 0-.585-.228 4.64 4.64 0 0 0-1.908 1.174.5.5 0 0 0-.021.677l.402.465a3.7 3.7 0 0 0-.439.796l-.632-.062a.51.51 0 0 0-.537.389l-.054.231c-.121.517-.195.835-.03 1.487l-5.567.056V10.61a4.57 4.57 0 0 1 3.517-4.449.5.5 0 0 0 .112-.93c-.674-.349-1.144-1.17-1.144-1.997 0-1.19.991-2.233 2.122-2.233s2.122 1.043 2.122 2.233c0 .827-.47 1.648-1.144 1.997a.501.501 0 0 0 .113.93c.58.139 1.121.388 1.607.737a.5.5 0 0 0 .584-.812 5.6 5.6 0 0 0-1.039-.591 3.4 3.4 0 0 0 .878-2.262C8.725 1.481 7.295 0 5.603 0S2.481 1.481 2.481 3.233c0 .844.332 1.666.877 2.261a5.56 5.56 0 0 0-3.363 5.115v1.94c0 .134.053.262.148.355a.56.56 0 0 0 .356.145l7-.069a.5.5 0 0 0 .061-.996.5.5 0 0 0-.014-.183c-.106-.393-.099-.544-.024-.881l.591.059a.515.515 0 0 0 .532-.368 2.7 2.7 0 0 1 .627-1.13.5.5 0 0 0 .013-.669l-.357-.413q.36-.285.782-.472l.317.552a.5.5 0 0 0 .553.236 2.7 2.7 0 0 1 1.251-.006.504.504 0 0 0 .592-.34l.151-.494a4 4 0 0 1 .9.508l-.323.516a.5.5 0 0 0 .06.608 2.8 2.8 0 0 1 .632 1.073.5.5 0 0 0 .568.34l.531-.099c.055.328.066.663.034.991l-.566-.03a.496.496 0 0 0-.509.366 2.7 2.7 0 0 1-.22.537 2.8 2.8 0 0 1-.413.556.5.5 0 0 0-.009.663l.369.428a3.7 3.7 0 0 1-.804.492l-.307-.547a.496.496 0 0 0-.558-.24 2.7 2.7 0 0 1-1.233.015.5.5 0 0 0-.576.303l-.207.521a4 4 0 0 1-.848-.473l1.204-1.919a.5.5 0 0 0 .004-.525 1.12 1.12 0 0 1-.132-.856c.072-.294.254-.543.513-.699a1.13 1.13 0 0 1 1.688 1.237 1.13 1.13 0 0 1-.957.855.5.5 0 0 0 .128.993c.298-.039.579-.138.834-.293.487-.296.83-.763.965-1.316a2.1 2.1 0 0 0-.248-1.612 2.134 2.134 0 0 0-3.792 1.924l-1.288 2.053a.5.5 0 0 0 .085.635c.277.253.584.475.912.658a4.8 4.8 0 0 0 1.091.444.5.5 0 0 0 .595-.297l.232-.587a3.5 3.5 0 0 0 .889-.015l.342.608a.504.504 0 0 0 .589.232 4.66 4.66 0 0 0 1.932-1.203.5.5 0 0 0 .019-.673l-.407-.473c.11-.146.199-.283.272-.422a4 4 0 0 0 .165-.351l.642.035a.483.483 0 0 0 .516-.395 4.8 4.8 0 0 0-.086-2.339Z"/></svg>