<!-- SPDX-FileCopyrightText: © 2025 Schneider Electric SPDX-License-Identifier: LicenseRef-Proprietary -->
<svg xmlns="http://www.w3.org/2000/svg" viewBox="0 0 16 16"><path d="M14.77 12.192c1.151-.635 1.319-1.845 1.23-2.41l-.061-4.811c-.048-.686-.458-1.201-.752-1.486.15-.504.335-1.44-.044-2.21-.241-.49-.678-.833-1.263-.991-.538-.143-1.211.015-1.716.407-.564.438-.87 1.104-.86 1.875.01.765.195 1.239.381 1.537L10 5.524V2.502a.5.5 0 0 0-.5-.5h-3a.5.5 0 0 0-.5.5v2a.5.5 0 0 0 1 0v-1.5h2v3.323c-.407.363-.622.805-.601 1.258.02.422.246.804.601 1.029v3.39H7V8.634c.375-.222.617-.616.637-1.051.027-.583-.335-1.146-.932-1.502L4.353 4.104c.182-.292.37-.767.38-1.537.01-.771-.295-1.437-.86-1.875C3.368.3 2.694.14 2.156.285c-.585.158-1.022.501-1.263.991-.38.771-.194 1.708-.044 2.211-.294.288-.704.809-.753 1.514L.041 9.716c-.093.624.074 1.841 1.226 2.478L.09 14.496a.5.5 0 0 0 .891.455L2.4 12.17a.5.5 0 0 0-.295-.705c-1.241-.39-1.082-1.555-1.069-1.671l.059-4.754c.04-.573.615-.981.619-.983a.5.5 0 0 0 .181-.603c-.121-.298-.376-1.191-.104-1.74.114-.23.319-.382.626-.465.193-.054.542-.003.843.231.22.17.48.495.473 1.072-.011.828-.265 1.087-.374 1.198-.075.076-.272.278-.192.575a.53.53 0 0 0 .327.36l2.63 2.203c.332.202.524.443.515.646a.29.29 0 0 1-.169.249c-.132.064-.295.037-.463-.083L3.536 6.012a.5.5 0 0 0-.533-.02.5.5 0 0 0-.248.471l.298 3.868c.007.09.038.176.09.25l1.092 1.547c-.041.445-1.112 1.645-1.478 2.054-.328.367-.565.633-.683.832a.5.5 0 0 0 .86.51c.068-.116.323-.4.569-.676 1.082-1.211 1.895-2.203 1.701-3.017a.5.5 0 0 0-.078-.173l-1.087-1.541-.208-2.691 1.603 1.095c.179.126.371.213.566.258v3.72a.5.5 0 0 0 .5.5h3a.5.5 0 0 0 .5-.5V8.788a1.6 1.6 0 0 0 .594-.262l1.61-1.1-.208 2.691-1.088 1.54a.5.5 0 0 0-.078.173c-.193.814.62 1.806 1.702 3.018.246.275.5.56.568.675a.5.5 0 1 0 .86-.51c-.118-.199-.355-.464-.683-.832-.365-.409-1.438-1.609-1.479-2.054l1.092-1.546a.5.5 0 0 0 .09-.25l.298-3.868a.5.5 0 0 0-.781-.451l-2.479 1.693c-.162.114-.323.141-.456.077a.29.29 0 0 1-.168-.249c-.01-.203.183-.444.577-.69l2.568-2.158a.54.54 0 0 0 .327-.36c.08-.297-.118-.499-.192-.575-.109-.111-.364-.371-.374-1.198-.007-.577.253-.901.473-1.072.302-.235.648-.285.842-.231.307.083.512.235.626.465.272.549.017 1.442-.104 1.74a.5.5 0 0 0 .181.603c.006.004.579.409.618.955l.065 4.85c.007.049.167 1.214-1.074 1.604a.498.498 0 0 0-.295.704l1.419 2.781a.499.499 0 1 0 .89-.454l-1.176-2.305Z"/></svg>