<!-- SPDX-FileCopyrightText: © 2025 Schneider Electric SPDX-License-Identifier: LicenseRef-Proprietary -->
<svg xmlns="http://www.w3.org/2000/svg" viewBox="0 0 16 16"><path d="M11.287 4.79a.495.495 0 0 0 .703-.069.5.5 0 0 0-.068-.704c-.857-.705-1.333-2.106-1.414-3.109A5 5 0 0 1 10.491.5a.499.499 0 1 0-.999 0q0 .246.02.487c.1 1.248.687 2.908 1.776 3.803Zm4.213-.604a.5.5 0 0 0 0-1A2.684 2.684 0 0 1 12.824.5a.5.5 0 1 0-1 0A3.685 3.685 0 0 0 15.5 4.186Zm0 1.34a5.5 5.5 0 0 1-1.887-.37.5.5 0 1 0-.354.936 6.5 6.5 0 0 0 2.24.435.5.5 0 0 0 0-1Zm0 9.474H9.459L7.013 9.465l.261-.844c.22.188.44.381.558.503.267.276.43.396.502.447a.5.5 0 0 0 .311.113l2.207.023c.073.013.133-.012.193-.037q.131-.044.244-.091c1.125.718 1.085 1.997 1.076 2.149-.022.376-.157.912-1.065 1.218-.686.236-1.12-.728-1.238-1.028-.084-.213.017-.451.046-.499a.5.5 0 0 0-.851-.525c-.153.247-.352.818-.126 1.391.516 1.315 1.499 1.95 2.488 1.609 1.366-.459 1.702-1.399 1.744-2.106.012-.201.062-1.809-1.251-2.849.13-.211.162-.414.162-.562 0-.537-.178-.843-.455-1.033l.449-1.132a.5.5 0 0 0-.465-.684H9.98a.5.5 0 0 0 0 1h1.086l-.206.518-1.223-.007-1.336-1.246c.398-.331.679-.837.752-1.419.124-.98-.374-1.862-1.268-2.245-.246-.105-.439-.112-.69-.122a1.84 1.84 0 0 0-1.37.472c-.254.239-.557.675-.555 1.45.02.227-.054.509-.488.568l-2.179.172a.5.5 0 0 0-.373.216L.686 6.993a.5.5 0 0 0-.069.149c-.121.435-.093 1.361.871 1.748a1.29 1.29 0 0 0 1.51-.386l.737-1.021.197.004-1.141 3.597-1.707.113a.5.5 0 0 0-.14.03c-.351.13-.945.551-.945 1.306 0 .821.638 1.234.975 1.338.048.014.077.03.15.021l3.06-.02a.5.5 0 0 0 .438-.267l.598-1.131.936 2.122a.499.499 0 1 0 .915-.404l-1.352-3.066a.5.5 0 0 0-.44-.297.49.49 0 0 0-.459.266l-.941 1.779-2.661.017a.39.39 0 0 1-.219-.358c0-.188.159-.298.243-.344l1.955-.13a.5.5 0 0 0 .443-.347l1.445-4.563a.5.5 0 0 0-.466-.649l-1.125-.024a.5.5 0 0 0-.416.208l-.881 1.221c-.004.007-.112.146-.335.056-.284-.114-.312-.335-.292-.488l1.252-1.828 1.968-.156c1.135-.154 1.444-1.084 1.379-1.613q.001-.442.242-.67a.82.82 0 0 1 .623-.203l.124.005c.125.004.165.007.235.037.722.31.694.998.669 1.201-.051.405-.308.872-.75.941a.5.5 0 0 0-.169.929L9.098 7.9a.5.5 0 0 0 .338.134h1.409c.304.06.381.101.399.118 0 0 .029.046.029.222 0 .019-.027.074-.123.146a.5.5 0 0 0-.21.119 2 2 0 0 1-.166.066l-1.951-.02a4 4 0 0 1-.272-.257c-.329-.34-1.183-1.031-1.219-1.06a.5.5 0 0 0-.792.241l-.537 1.738a.5.5 0 0 0 .02.35L8.676 15.7a.5.5 0 0 0 .458.298H15.5a.5.5 0 0 0 0-1Z"/></svg>