<!-- SPDX-FileCopyrightText: © 2025 Schneider Electric SPDX-License-Identifier: LicenseRef-Proprietary -->
<svg xmlns="http://www.w3.org/2000/svg" viewBox="0 0 16 16"><path d="M6.752 5.85c0-1.148-.621-1.884-1.661-1.968a.3.3 0 0 0-.067 0c-.028-.047-.035-.074-.058-.065a2.46 2.46 0 0 0 .507-2.071C5.336 1.057 4.944.488 4.423.225a2.24 2.24 0 0 0-1.64-.134 2.1 2.1 0 0 0-1.284 1.043c-.388.767-.477 1.901.258 2.744.005.021-.009.148-.181.195C.528 4.359.156 5.344.156 6.101c0 .301-.031.694-.061 1.094-.044.579-.09 1.178-.057 1.54-.01 1.062.652 1.627 1.209 1.867l.139 4.898c.008.28.21.487.521.493.28-.008.5-.241.492-.521l-.149-5.257a.514.514 0 0 0-.412-.484.977.977 0 0 1-.788-1.034c-.028-.329.015-.887.056-1.426.032-.428.063-.848.063-1.17 0-.145.033-.875.673-1.05.487-.133.837-.511.914-.985.059-.363-.061-.707-.314-.918-.392-.514-.2-1.238-.039-1.556.125-.247.368-.439.669-.529a1.23 1.23 0 0 1 .894.066c.237.12.438.439.513.813.091.458-.02.91-.305 1.241-.053.062-.503.634.173 1.502.129.166.339.23.531.178a.5.5 0 0 0 .132.029c.339.027.729.161.729.958 0 .42.056 1.073.11 1.703.045.52.088 1.009.088 1.273 0 .584-.881.938-.888.941a.51.51 0 0 0-.33.462l-.138 5.257a.507.507 0 0 0 .494.52h.014a.507.507 0 0 0 .506-.494l.13-4.946c.454-.247 1.226-.804 1.226-1.74 0-.282-.044-.805-.092-1.361-.05-.581-.107-1.239-.107-1.616Zm8.34 4.356c.366-.276.884-.814.884-1.651 0-.275-.009-.731-.019-1.215-.011-.541-.023-1.118-.023-1.514 0-.959-.418-1.705-1.146-2.095a2 2 0 0 0 .124-.204c.245-.484.284-1.164.105-1.819-.189-.693-.582-1.234-1.077-1.485a2.1 2.1 0 0 0-1.602-.121 2.1 2.1 0 0 0-1.218 1.047c-.436.863-.6 1.995.125 2.721-.52.183-1.145.669-1.195 1.946-.029.759-.078 2.03-.023 2.66-.009.934.421 1.485.839 1.767l-.661 2.104a.507.507 0 0 0 .484.659h.303v2.493a.507.507 0 0 0 1.014 0v-3a.507.507 0 0 0-.507-.507h-.12l.55-1.75q.019-.06.022-.12l.01-.039a.507.507 0 0 0-.38-.608c-.005 0-.549-.137-.542-1.038-.052-.615-.002-1.895.024-2.583.034-.862.389-.984.522-1.03.502-.172.787-.436.845-.782.057-.339-.138-.626-.337-.781-.633-.455-.168-1.458-.069-1.656a1.08 1.08 0 0 1 1.457-.48c.504.255.808 1.38.524 1.941a1.5 1.5 0 0 1-.333.379.51.51 0 0 0-.119.625c.031.2.181.37.39.417.806.181.976.825.976 1.333 0 .401.012.987.022 1.535.01.476.019.923.019 1.194 0 .623-.637.947-.665.961a.51.51 0 0 0-.28.523.5.5 0 0 0 .028.283l.672 1.671h-.218a.507.507 0 0 0-.507.507v3a.508.508 0 0 0 1.014 0v-2.493h.461a.506.506 0 0 0 .47-.696l-.847-2.104ZM8.362.993a.507.507 0 0 0-.507.507v14a.507.507 0 0 0 1.014 0v-14a.507.507 0 0 0-.507-.507Z"/></svg>