<!-- SPDX-FileCopyrightText: © 2025 Schneider Electric SPDX-License-Identifier: LicenseRef-Proprietary -->
<svg xmlns="http://www.w3.org/2000/svg" viewBox="0 0 16 16"><path d="M15.084 10.687V9.376a.5.5 0 0 0-.5-.5h-1.798a.51.51 0 0 0-.5.478c-.012.197-.096.433-.429.433a.406.406 0 0 1-.418-.293q0-.031-.006-.062c-.319-1.885-1.718-3.441-3.666-4.162a3.25 3.25 0 0 0 .817-2.137c0-1.698-1.407-3.132-3.073-3.132S2.439 1.436 2.439 3.133c0 .808.319 1.594.845 2.169-1.974.847-3.285 2.76-3.285 4.933v1.315a.5.5 0 0 0 1 0v-1.315c0-2.032 1.416-3.786 3.442-4.266a.5.5 0 0 0 .111-.932c-.656-.334-1.114-1.117-1.114-1.905C3.438 1.996 4.406 1 5.51 1s2.073.997 2.073 2.132c0 .788-.458 1.571-1.114 1.905a.5.5 0 0 0 .157.941c1.916.413 3.408 1.772 3.781 3.424.041.564.456 1.385 1.45 1.385.745 0 1.156-.449 1.329-.91h.897v1.18c0 .276.178.497.454.497.005 0 .462.089.462.479 0 .335-.483.427-.5.43a.5.5 0 0 0-.42.493v1.133h-1.314a.506.506 0 0 0-.498.451c-.015.139-.087.462-.421.462-.356 0-.435-.366-.45-.474a.5.5 0 0 0-.497-.441H9.274v-.725c.469-.169.926-.581.926-1.339s-.453-1.166-.918-1.334V9.381a.5.5 0 0 0-.5-.5H7.026a.5.5 0 0 0-.494.42c-.003.021-.086.502-.473.502-.354 0-.438-.417-.451-.496a.5.5 0 0 0-.495-.432h-1.8a.5.5 0 0 0-.5.5v1.324c-.44.194-.925.604-.925 1.334s.487 1.137.93 1.326v1.225a.5.5 0 0 0 .5.5h1.79c.26 0 .477-.206.499-.465.014-.164.09-.44.438-.44.356 0 .438.281.455.442.021.275.255.497.537.46a.5.5 0 0 0 .46-.536c-.042-.55-.464-1.366-1.452-1.366-.733 0-1.148.448-1.329.905h-.897v-1.095a.5.5 0 0 0-.426-.494c-.021-.004-.504-.08-.504-.462 0-.372.458-.467.506-.476a.5.5 0 0 0 .419-.493V9.875h.927c.186.443.587.928 1.319.928s1.139-.483 1.333-.922h.89v1.216a.5.5 0 0 0 .494.5c.127 0 .424.046.424.426 0 .341-.24.424-.436.433a.5.5 0 0 0-.491.5v1.631a.5.5 0 0 0 .5.5h1.747c.182.439.581.915 1.325.915s1.134-.473 1.306-.913h1.426a.5.5 0 0 0 .5-.5v-1.266c.438-.189.92-.587.92-1.29 0-.752-.495-1.158-.916-1.345Z"/></svg>