<!-- SPDX-FileCopyrightText: © 2025 Schneider Electric SPDX-License-Identifier: LicenseRef-Proprietary -->
<svg xmlns="http://www.w3.org/2000/svg" viewBox="0 0 16 16"><path d="m6.217 13.171-1.248 1.766c-.101.097-.5.16-.609.049-.187-.188-.161-.442-.07-.559l1.614-2.407a.5.5 0 0 0-.831-.556l-1.59 2.375c-.366.462-.401 1.282.171 1.855.229.228.556.35.931.35q.051 0 .104-.003c.346-.021.807-.156 1.076-.497l1.27-1.794a.5.5 0 1 0-.816-.578Z"/><path d="m13.384 7.131-.237-.423a.5.5 0 0 0-.083-.109c-.017-.016-1.619-1.621-2.093-2.269-.521-.713-1.301-.934-1.448-.968l-.067-.009q.265-.576.201-1.444C9.657.75 8.81.001 7.499.001c-.905 0-1.716.721-1.888 1.677-.148.827.025 1.474.529 1.978a.5.5 0 0 0 .707-.707c-.263-.263-.34-.601-.252-1.095.086-.479.483-.854.904-.854.769 0 1.158.306 1.158.908l.006.125c.034.443.013.987-.445 1.264a.5.5 0 0 0 .192.924l.919.12c.006 0 .517.145.834.579.477.651 1.865 2.056 2.146 2.338l.176.307c.061.146.1.243-.179.423-.243.156-.506.061-.661-.11L9.513 5.629a.5.5 0 0 0-.863.361l.147 4.41c.003.09.03.177.078.252l2.44 3.827c.061.091.094.381-.079.5a.44.44 0 0 1-.325.081.42.42 0 0 1-.26-.168c-.032-.044-3.269-4.386-3.514-4.735-.082-.116-.147-.591-.137-1.009V6.41a.5.5 0 0 0-.787-.409l-1.385.969a.5.5 0 0 0-.213.391l-.067 1.761c0 .097-.107.399-.357.399-.312 0-.492-.394-.492-.493l.118-2.292 1.868-1.762a.5.5 0 0 0-.686-.728L2.984 6.145a.5.5 0 0 0-.157.338l-.128 2.518c0 .634.567 1.519 1.492 1.519.885 0 1.357-.812 1.356-1.38l.058-1.495L6 7.369v1.765c-.006.259-.003 1.139.319 1.596.253.361 3.398 4.579 3.516 4.738a1.4 1.4 0 0 0 1.151.597c.285 0 .563-.089.817-.264.647-.445.7-1.349.35-1.871l-2.36-3.702-.099-2.957 1.221 1.288c.517.559 1.311.668 1.935.266.629-.406.828-.989.535-1.696Z"/></svg>