<!-- SPDX-FileCopyrightText: © 2025 Schneider Electric SPDX-License-Identifier: LicenseRef-Proprietary -->
<svg xmlns="http://www.w3.org/2000/svg" viewBox="0 0 16 16"><path d="M4.473 8.975a.5.5 0 0 0 .575-.412l.509-3.1.033-.176c.162-.855.185-.942.444-1.177.125-.078.707-.262 1.171-.386a.5.5 0 0 0 .359-.374.5.5 0 0 0-.22-.584.96.96 0 0 1-.465-.818c0-.522.421-.948.939-.948s.94.425.94.948c0 .28-.122.544-.334.725a.5.5 0 0 0-.057.705c.18.21.496.235.705.057A1.95 1.95 0 0 0 7.817 0a1.945 1.945 0 0 0-1.64 2.984q-.58.192-.775.353c-.555.496-.625.867-.795 1.765l-.545 3.299a.5.5 0 0 0 .412.574ZM6.5 12a.5.5 0 0 0-.5.5v3a.5.5 0 0 0 1 0v-3a.5.5 0 0 0-.5-.5Z"/><path d="M15 12.755v-2.104a.72.72 0 0 0-.477-.686c-.865-.331-2.908.629-3.602 1.382-.508.55-.657 1.125-.756 1.506-.012.046-.025.099-.039.146h-.127v-2.045c.609-.378.851-1.306.943-2.062q.09.022.186.009c1.039-.145 1.822-1.16 1.822-2.362 0-1.186-1.022-2.114-2.328-2.114-.915 0-1.701.656-2.005 1.207L1.456 15H.5a.5.5 0 0 0 0 1h3a.5.5 0 0 0 0-1h-.786L9.45 6.182c.209-.371.705-.755 1.173-.755.653 0 1.328.416 1.328 1.113 0 .605-.355 1.28-.95 1.37v-.747a.5.5 0 0 0-1 0v.712c.016.974-.239 2.194-.579 2.248a.5.5 0 0 0-.421.494V15.5a.5.5 0 0 0 1 0V14h.306c.597 0 .742-.561.829-.896s.185-.713.521-1.079c.535-.58 1.819-1.082 2.344-1.131v1.695c-.228.055-.355.269-.341.514.016.265.279.468.545.468h.011a.7.7 0 0 1 .314.067c.345.161.613.591.447.949a.72.72 0 0 1-.415.354.82.82 0 0 1-.627-.013.7.7 0 0 1-.328-.316.5.5 0 0 0-.908.415H11.34a.5.5 0 0 0 0 1h2.747a.5.5 0 0 0 .173-.03c.216 0 .435-.039.644-.115.446-.162.795-.472.98-.873.374-.805-.03-1.826-.883-2.254Z"/></svg>