<!-- SPDX-FileCopyrightText: © 2025 Schneider Electric SPDX-License-Identifier: LicenseRef-Proprietary -->
<svg xmlns="http://www.w3.org/2000/svg" viewBox="0 0 16 16"><path d="M15.205 9.846c-.377-1.538-1.256-3.01-1.454-3.292-.083-.118-.755-1.01-2.351-1.288.351-.553.538-1.15.538-1.741C11.938 1.581 10.356 0 8.412 0S4.886 1.582 4.886 3.525c0 1.217.615 2.332 1.645 2.982a.5.5 0 1 0 .534-.846 2.52 2.52 0 0 1-1.179-2.136C5.886 2.132 7.019 1 8.412 1s2.526 1.133 2.526 2.525c0 .813-.533 1.468-.824 1.76a.501.501 0 0 0 .301.899c1.837.002 2.511.934 2.518.944.146.208.96 1.561 1.301 2.956.497 2.03.399 3.239.099 3.505-.12.105-.373.043-.562-.03-2.308-.885-3.451-1.307-4.242-1.175-.613.098-1.574-.052-1.81-.2-.21-.132-.336-.486-.317-.58.142-.148.921-.443 1.668-.63a.5.5 0 0 0 .363-.606.5.5 0 0 0-.606-.364l-.177.046-1.374-2.363a.5.5 0 0 0-.531-.239l-.527.106a.5.5 0 1 0 .198.98l.176-.036 1.08 1.857c-1.009.383-1.125.711-1.171.839-.221.623.093 1.464.686 1.836.445.28 1.396.417 2.114.379l.315.626-4.665.906L1.712 9.3l1.136-.189a.5.5 0 0 0 .416-.533c-.039-.491.157-.746.355-.774.194-.029.382.167.449.489a.502.502 0 0 0 .98-.204c-.208-1-.961-1.36-1.57-1.275-.551.079-1.109.54-1.205 1.379l-1.436.24a.5.5 0 0 0-.351.742l3.776 6.574a.5.5 0 0 0 .529.242l5.609-1.089a.5.5 0 0 0 .366-.298.5.5 0 0 0 .016-.478l-.338-.672c.729.178 1.793.586 2.969 1.037.81.312 1.307.089 1.581-.153.892-.785.607-2.877.212-4.493Z"/></svg>