<!-- SPDX-FileCopyrightText: © 2025 Schneider Electric SPDX-License-Identifier: LicenseRef-Proprietary -->
<svg xmlns="http://www.w3.org/2000/svg" viewBox="0 0 16 16"><path d="M15.5 12a.5.5 0 0 0-.5.5v1.947l-4.914-3.817c.204-.347.32-.749.32-1.177 0-1.135-.819-2.085-1.906-2.308V6l3.809-.932a.5.5 0 0 0 .366-.604.5.5 0 0 0-.604-.367l-3.57.874V1.703l1.618 1.586a.5.5 0 1 0 .699-.714L8.337.143a.5.5 0 0 0-.743.048L5.159 2.575a.5.5 0 1 0 .699.715l1.641-1.607v3.533l-3.561.871a.499.499 0 1 0 .237.971l3.323-.813v.904a2.4 2.4 0 0 0-.505.168.499.499 0 1 0 .418.908q.283-.13.599-.13c.769 0 1.395.609 1.395 1.357 0 .321-.115.616-.308.849a.5.5 0 0 0-.113.106l-.029.041a1.4 1.4 0 0 1-.946.36c-.771 0-1.397-.608-1.397-1.356a.5.5 0 0 0-1 0c0 .388.096.754.265 1.076L.998 14.409v-1.91a.5.5 0 0 0-1 0v3h0v.002a.5.5 0 0 0 .5.5h0l3-.002a.5.5 0 0 0 0-1H1.862l4.657-3.703c.788.618 2.065.65 2.886.07L14.082 15h-1.583a.5.5 0 1 0 0 .999l3 .002a.5.5 0 0 0 .5-.5h0v-3.002a.5.5 0 0 0-.5-.5Z"/></svg>