<!-- SPDX-FileCopyrightText: © 2025 Schneider Electric SPDX-License-Identifier: LicenseRef-Proprietary -->
<svg xmlns="http://www.w3.org/2000/svg" viewBox="0 0 16 16"><path d="M15.788 1.711 13.547.13a.5.5 0 0 0-.191-.082c-.131-.027-3.306-.604-8.078 2.993C1.725 5.72.947 9.434.916 9.591a.5.5 0 0 0 .005.219l.177.708c-.368.337-.984 1.037-1.084 2-.091.874.254 1.737 1.027 2.564.571.611 1.234.922 1.968.892 1.535-.04 2.789-1.513 2.856-1.594.014-.019 1.423-1.824 3.346-1.632 2.042.2 3.514 1.342 3.58 2.774a.5.5 0 0 0 .499.478h.022a.5.5 0 0 0 .477-.521c-.089-1.942-1.932-3.474-4.48-3.726-2.471-.236-4.169 1.931-4.224 2.003-.01.012-1.022 1.193-2.105 1.22-.442 0-.837-.178-1.208-.574-.564-.604-.821-1.201-.764-1.772.09-.902.932-1.514.939-1.519a.5.5 0 0 0 .197-.53l-.224-.895c.15-.596 1.035-3.64 3.959-5.844C9.818.872 12.546.968 13.07 1.018l1.86 1.312a4.1 4.1 0 0 1-1.214 1.839 3.2 3.2 0 0 1-2.229.8l-.672-1.625a.5.5 0 0 0-.521-.306c-.081.01-1.984.25-3.553 1.388-1.6 1.162-2.218 3.174-2.244 3.259a.5.5 0 0 0 .172.539c.735.57 1.188.921 1.486 1.117-.011.256-.242.926-1.271 1.914-.662.635-1.48.786-2.05.801a.5.5 0 0 0-.487.513c.008.277.262.485.513.487.747-.02 1.824-.223 2.716-1.08 1.416-1.358 1.595-2.289 1.576-2.724-.012-.28-.11-.51-.278-.645a.5.5 0 0 0-.143-.08c-.184-.128-.67-.494-1.16-.872.222-.554.776-1.708 1.758-2.42.974-.706 2.135-1.019 2.716-1.139l.631 1.526a.5.5 0 0 0 .36.299c.071.014 1.779.352 3.335-.997 1.355-1.175 1.612-2.663 1.622-2.725a.5.5 0 0 0-.205-.489Z"/></svg>