<!-- SPDX-FileCopyrightText: © 2025 Schneider Electric SPDX-License-Identifier: LicenseRef-Proprietary -->
<svg xmlns="http://www.w3.org/2000/svg" viewBox="0 0 16 16"><path d="M15.975 7.787a.5.5 0 0 0-.27-.299l-2.674-1.201V3.499a.5.5 0 0 0-.5-.5h-1.5V.5a.5.5 0 0 0-.5-.5H4.5a.5.5 0 0 0-.5.5v5a.5.5 0 0 0 1 0V1h5.031v2.5a.5.5 0 0 0 .5.5h1.5v2.611a.5.5 0 0 0 .295.456l2.472 1.11-.501.9-1.561-.701a.5.5 0 0 0-.706.456v2.167h-1.5a.5.5 0 0 0-.5.5v3.5H4.934c-.058-1.254-.379-3.947-2.066-3.947a.685.685 0 1 1 0-1.369.5.5 0 0 0 0-1c-.585 0-1.101.3-1.403.753a.685.685 0 0 1 .219-1.332.5.5 0 0 0 0-1 .685.685 0 1 1 .685-.685.5.5 0 0 0 1 0c0-.929-.756-1.684-1.685-1.684A1.687 1.687 0 0 0 .43 7.544l.058.062A1.67 1.67 0 0 0 0 8.789c0 .755.499 1.396 1.185 1.608a1.686 1.686 0 0 0 1.684 1.655c.702 0 1.077 2.002 1.079 3.447a.5.5 0 0 0 .5.5h6.084a.5.5 0 0 0 .5-.5v-3.5h1.5a.5.5 0 0 0 .5-.5V9.604l1.274.573a.5.5 0 0 0 .642-.213l.989-1.778a.5.5 0 0 0 .038-.4Z"/></svg>