<!-- SPDX-FileCopyrightText: © 2025 Schneider Electric SPDX-License-Identifier: LicenseRef-Proprietary -->
<svg xmlns="http://www.w3.org/2000/svg" viewBox="0 0 16 16"><path d="M15.504 12.645H15.5a.5.5 0 0 0-.5.496l-.007.822c0 .301-1.432 1.037-4.086 1.037s-4.085-.736-4.085-1.04l-.017-3.217c0-.301 1.432-1.037 4.086-1.037s4.086.736 4.086 1.037-1.432 1.037-4.086 1.037c-.56 0-1.929-.085-2.591-.35a.501.501 0 0 0-.37.929c.865.345 2.431.42 2.961.42 2.449 0 5.086-.638 5.086-2.037s-2.637-2.037-5.086-2.037c-1.075 0-2.185.123-3.093.379l3.357-3.357a3.36 3.36 0 0 0 0-4.745C9.887-.285 7.677-.286 6.409.982l-.968.968a.5.5 0 0 0 .707.707l.968-.968a2.36 2.36 0 0 1 3.332 0 2.36 2.36 0 0 1 0 3.331l-5.062 5.062c-.919.918-2.773 1.286-3.695.363a2.36 2.36 0 0 1 0-3.331L4.056 4.75l2.246 2.246a.5.5 0 0 0 .707-.707L4.464 3.744l-.096-.082a.5.5 0 0 0-.671.033L.983 6.408C.349 7.042 0 7.885 0 8.78s.349 1.739.983 2.373c1.242 1.242 3.495.955 4.823-.108l.016 2.918c0 1.399 2.636 2.037 5.085 2.037s5.086-.638 5.086-2.033l.007-.818a.5.5 0 0 0-.496-.504Z"/></svg>