<!-- SPDX-FileCopyrightText: © 2025 Schneider Electric SPDX-License-Identifier: LicenseRef-Proprietary -->
<svg xmlns="http://www.w3.org/2000/svg" viewBox="0 0 16 16"><path d="M15.541 5.783 9.903.146a.5.5 0 0 0-.821.177l-.718 1.908L4.53 6.065l-1.417.283a.498.498 0 0 0-.255.844l1.879 1.879a.5.5 0 0 0 .707 0 .5.5 0 0 0 0-.708L4.226 7.144l.65-.13a.5.5 0 0 0 .255-.137L9.148 2.86a.5.5 0 0 0 .114-.177L9.745 1.4l4.541 4.54-1.283.483a.5.5 0 0 0-.177.114l-4.017 4.017a.5.5 0 0 0-.137.255l-.13.65-1.845-1.845a.5.5 0 0 0-.707 0L.459 15.146a.5.5 0 0 0 .708.707l5.176-5.176 2.152 2.151a.502.502 0 0 0 .844-.255l.284-1.418 3.834-3.833 1.908-.718a.497.497 0 0 0 .177-.821Z"/></svg>