<!-- SPDX-FileCopyrightText: © 2024 Pinterest SPDX-License-Identifier: LicenseRef-Proprietary -->
<svg xmlns="http://www.w3.org/2000/svg" version="1.1" viewBox="0 0 666.667 666.827"><path fill="#fff" fill-opacity="1" fill-rule="nonzero" d="M666.65 333.502c0 184.09-149.235 333.325-333.325 333.325S0 517.592 0 333.502 149.235.177 333.325.177 666.65 149.412 666.65 333.502"/><path fill="#e71c26" fill-opacity="1" fill-rule="nonzero" d="M209.579 642.92c-4.167-37.914-1.25-74.164 7.082-109.163l33.333-143.746c-5.416-17.5-9.583-37.499-9.583-57.498 0-46.666 22.5-79.998 57.915-79.998 24.582 0 42.5 17.083 42.5 49.998 0 10.418-2.085 22.083-6.25 35.416l-14.584 47.916c-2.916 9.166-4.167 17.915-4.167 25.416 0 33.333 25.417 52.082 57.915 52.082 57.916 0 99.166-59.999 99.166-137.914 0-86.663-56.666-142.08-140.414-142.08-93.331 0-152.496 60.833-152.496 145.414 0 34.166 10.417 65.83 30.832 87.498-6.666 11.25-13.749 13.332-24.582 13.332-33.332 0-64.999-47.083-64.999-111.247 0-110.83 88.748-199.16 213.329-199.16 130.828 0 212.91 91.247 212.91 203.743 0 113.33-79.998 198.33-166.245 198.33-34.167 0-64.165-14.584-85-40.834l-17.081 69.166c-9.167 35.831-22.916 69.58-45 102.079 31.25 9.585 62.082 15 99.165 15 184.162 0 333.325-149.162 333.325-333.324S517.487.021 333.325.021 0 149.184 0 333.346c0 139.58 85.832 259.992 209.579 309.575"/></svg>