<!-- SPDX-FileCopyrightText: © 2025 Schneider Electric SPDX-License-Identifier: LicenseRef-Proprietary -->
<svg xmlns="http://www.w3.org/2000/svg" viewBox="0 0 16 16"><path d="M14.027 6.5H11.5a.5.5 0 0 0 0 1h2.527c.903 0 .973.199.973.51 0 .34-.075.49-.792.49H11.5a.5.5 0 0 0 0 1h2.708C15.689 9.5 16 8.69 16 7.979c0-.982-.664-1.479-1.973-1.479Z"/><path d="M13.38 11H10V5h3.38c.426 0 1.722 0 1.722-1.468 0-.699-.299-1.532-1.722-1.532H10v-.5a.5.5 0 0 0-.5-.5H3.483a.5.5 0 0 0-.445.272L1.64 4H.5a.5.5 0 0 0 0 1h1.446a.5.5 0 0 0 .445-.272L3.789 2H9v.5a.5.5 0 0 0 .5.5h3.88c.613 0 .722.139.722.532 0 .386-.062.468-.722.468H9.5a.5.5 0 0 0-.5.5v7a.5.5 0 0 0 .5.5h3.88c.62 0 .62.323.62.463 0 .473-.488.531-.62.537H9.5a.5.5 0 0 0-.5.5v.5H4.191l-1.286-2.714A.5.5 0 0 0 2.453 11H.5a.5.5 0 0 0 0 1h1.638l1.286 2.714a.5.5 0 0 0 .452.286h5.625a.5.5 0 0 0 .5-.5V14h3.393c.646-.017 1.607-.44 1.607-1.556 0-.877-.636-1.444-1.62-1.444Z"/></svg>