<!-- SPDX-FileCopyrightText: © 2025 Schneider Electric SPDX-License-Identifier: LicenseRef-Proprietary -->
<svg xmlns="http://www.w3.org/2000/svg" viewBox="0 0 16 16"><path d="M14.5 10a.5.5 0 0 0 0-1H11V7.5a.5.5 0 0 0-.5-.5l-2.927.005a3.76 3.76 0 0 0-2.126 1.026c-.867.849-.941 1.702-.975 2.079-.017.159-.033.562-.042.891H.5a.5.5 0 0 0 0 1h4.417a.5.5 0 0 0 .5-.489c0-.002.021-1.022.058-1.37.022-.262.07-.806.672-1.395a2.76 2.76 0 0 1 1.496-.746H10v6.355q0 .037.005.072L10 14.5v.517L7.729 15c-.517 0-.973-.226-1.48-.732-.279-.277-.425-.689-.499-.987a.5.5 0 0 0-.971.242c.104.42.322 1.013.764 1.453.69.689 1.406 1.024 2.183 1.024l2.771.021h.004a.5.5 0 0 0 .5-.5V14.5l-.005-.072.005-.072v-.355h3.5a.5.5 0 0 0 0-1h-3.5v-3zM10.135 0a.5.5 0 0 0 0 1C12.818 1 15 3.188 15 5.878a.5.5 0 0 0 1 0C16 2.637 13.369 0 10.135 0Z"/><path d="M12.659 5.878a.5.5 0 0 0 1 0 3.53 3.53 0 0 0-3.524-3.532.5.5 0 0 0 0 1 2.53 2.53 0 0 1 2.524 2.532Z"/></svg>