<!-- SPDX-FileCopyrightText: © 2025 Schneider Electric SPDX-License-Identifier: LicenseRef-Proprietary -->
<svg xmlns="http://www.w3.org/2000/svg" viewBox="0 0 16 16"><path d="M15.5 10H12V6h3.5a.5.5 0 0 0 0-1H12V2.5a.5.5 0 0 0-.5-.5H8.2c-1.086 0-2.044.453-3.017 1.425C4.17 4.438 3.881 6.481 3.866 6.6l-.028.4H.5a.5.5 0 0 0 0 1h3.803a.5.5 0 0 0 .499-.465l.058-.833c.067-.497.385-1.925 1.03-2.571.772-.772 1.506-1.132 2.31-1.132H11v10.022l-2.896-.022c-.675 0-1.292-.304-1.945-.957-.639-.639-.747-1.776-.748-1.787a.497.497 0 0 0-.542-.454.5.5 0 0 0-.455.539c.005.062.137 1.509 1.037 2.409.84.841 1.708 1.25 2.648 1.25l3.396.026h.004a.5.5 0 0 0 .5-.5v-2.526h3.5a.5.5 0 0 0 0-1Z"/></svg>