<!-- SPDX-FileCopyrightText: © 2025 Schneider Electric SPDX-License-Identifier: LicenseRef-Proprietary -->
<svg xmlns="http://www.w3.org/2000/svg" viewBox="0 0 16 16"><path d="M8 0a7.92 7.92 0 0 0-4.952 1.717.5.5 0 1 0 .619.785A6.93 6.93 0 0 1 8 1c3.859 0 7 3.14 7 7s-3.141 7-7 7-7-3.141-7-7c0-1.592.521-3.092 1.505-4.337a.5.5 0 1 0-.784-.62A7.9 7.9 0 0 0 0 8.001c0 4.411 3.589 8 8 8s8-3.589 8-8S12.411 0 8 0Z"/><path d="M8.03 3.5a.5.5 0 0 0-.5.5v3.475H4.016a.5.5 0 0 0 0 1H7.53V12a.5.5 0 0 0 1 0V8.475h3.486a.5.5 0 0 0 0-1H8.53V4a.5.5 0 0 0-.5-.5Z"/></svg>