<!-- SPDX-FileCopyrightText: © 2025 Schneider Electric SPDX-License-Identifier: LicenseRef-Proprietary -->
<svg xmlns="http://www.w3.org/2000/svg" viewBox="0 0 16 16"><path d="M14.538 16H8.447a.499.499 0 0 1-.395-.806l.178-.229c-.12-.138-.229-.353-.229-.678v-1.091a1.15 1.15 0 0 1 .294-.815c.159-.173.457-.38.975-.38h3.23a.5.5 0 0 1 0 1H9.27c-.138 0-.213.029-.238.056-.027.029-.034.096-.034.097L9 14.263c.182.011.349.086.443.241a.5.5 0 0 1 .014.497h3.929a.5.5 0 0 1 .441-.736c.14 0 .183-.031.183-.032l-.006-1.668a.5.5 0 0 1-.001-.125L14 11.53q0-.052.011-.103c.008-.047.018-.219-.059-.311-.063-.075-.213-.117-.421-.117-.276 0-.531-.224-.531-.5v-.5h-2v.5a.5.5 0 0 1-.5.5H7V15.5a.5.5 0 0 1-.5.5h-6a.5.5 0 0 1-.5-.5V.5A.5.5 0 0 1 .5 0h6a.5.5 0 0 1 .5.5v8a.5.5 0 0 1-1 0V1H1v1h3.5a.5.5 0 0 1 0 1H1v1h3.5a.5.5 0 0 1 0 1H1v10h5v-4.5h0a.5.5 0 0 1 .5-.501H10v-.5a.5.5 0 0 1 .5-.5h3a.5.5 0 0 1 .5.5v.554c.376.09.599.274.73.436.329.405.295.902.27 1.082v.43h.5a.5.5 0 0 1 0 1H15v1.286a.95.95 0 0 1-.295.668l.192.198a.502.502 0 0 1-.359.848ZM4.5 10h-2a.5.5 0 0 1-.5-.5v-3a.5.5 0 0 1 .5-.5h1a.5.5 0 0 1 0 1H3v2h1V7.5a.5.5 0 0 1 1 0v2a.5.5 0 0 1-.5.5Z"/></svg>