<!-- SPDX-FileCopyrightText: © 2025 Schneider Electric SPDX-License-Identifier: LicenseRef-Proprietary -->
<svg xmlns="http://www.w3.org/2000/svg" viewBox="0 0 16 16"><path d="M13.35 8.891a.5.5 0 0 0 .65-.476V4.563a.5.5 0 0 0-.5-.5h-3.113c.196-.796.374-2.12-.264-3.051C9.664.341 8.897 0 7.862 0h-.001C7.798-.006 6.22-.05 5.424 1.091c-.505.725-.562 1.722-.168 2.971H2.5a.5.5 0 0 0-.5.5v4.646a.5.5 0 0 0 .817.388c.212-.174.934-.63 1.464-.459.345.111.608.496.774 1.106.001.009.157.895-.325 1.341-.371.344-1.095.388-2.094.127a.5.5 0 0 0-.626.484v3.306a.5.5 0 0 0 1 0v-2.688c1.06.174 1.866.006 2.407-.501.883-.826.632-2.196.613-2.29-.268-.997-.752-1.615-1.441-1.837-.57-.184-1.142-.047-1.587.146V5.063h2.971a.5.5 0 0 0 .462-.691c-.504-1.22-.57-2.155-.191-2.704.479-.693 1.566-.672 1.6-.667.714 0 1.191.188 1.457.575.54.787.146 2.293-.052 2.807a.502.502 0 0 0 .467.68h3.287v2.698c-1.159-.262-2.046-.144-2.636.355-.851.72-.692 1.914-.686 1.961.13.964.532 1.652 1.194 2.045.712.42 1.552.38 2.127.275V15H6.011a.5.5 0 0 0 0 1h7.491a.5.5 0 0 0 .5-.5v-3.751a.5.5 0 0 0-.68-.467c-.012.005-1.174.433-1.938-.021-.386-.229-.626-.673-.714-1.318 0-.008-.085-.708.346-1.068.41-.343 1.215-.338 2.335.016Z"/></svg>