<!-- SPDX-FileCopyrightText: © 2025 Schneider Electric SPDX-License-Identifier: LicenseRef-Proprietary -->
<svg xmlns="http://www.w3.org/2000/svg" viewBox="0 0 16 16"><path d="M8 0a8 8 0 1 0 0 16A8 8 0 0 0 8 0Zm-.241 13.392c-.591 0-1.07-.471-1.07-1.051s.479-1.051 1.07-1.051 1.07.471 1.07 1.051-.479 1.051-1.07 1.051Zm1.232-4.723c-.904.519-.492.711-.769 1.162-.383.624-1.077.24-1.25.032s-.539-1.144.27-1.823c1.113-.935 2.32-2.003 2.146-2.675-.206-.799-.887-1.094-1.629-1.074-1.18.032-1.71.761-1.71.761s-.498.68-1.132.379c-.886-.421-.379-1.32-.379-1.32.656-1.589 3.684-1.414 3.684-1.414 2.699.068 3.105 1.556 3.313 2.091.376 2.223-2.275 3.728-2.544 3.882Z"/></svg>