<!-- SPDX-FileCopyrightText: © 2025 Schneider Electric SPDX-License-Identifier: LicenseRef-Proprietary -->
<svg xmlns="http://www.w3.org/2000/svg" viewBox="0 0 16 16"><path d="M8 0C3.589 0 0 3.589 0 8s3.589 8 8 8 8-3.589 8-8-3.589-8-8-8Zm0 15c-3.86 0-7-3.141-7-7s3.14-7 7-7 7 3.14 7 7-3.141 7-7 7Z"/><path d="M8.236 2.725s-2.988-.172-3.635 1.396c0 0-.5.888.374 1.303.626.297 1.117-.374 1.117-.374s.523-.719 1.688-.751c.732-.02 1.404.272 1.607 1.06.171.663-1.019 1.718-2.118 2.64-.798.67-.437 1.593-.267 1.799.171.206.855.585 1.233-.031.273-.445-.133-.635.759-1.146.266-.152 2.882-1.637 2.51-3.831-.205-.528-.606-1.997-3.269-2.064Zm-.456 8.481c-.583 0-1.056.464-1.056 1.037s.473 1.037 1.056 1.037 1.056-.464 1.056-1.037-.473-1.037-1.056-1.037Z"/></svg>