<!-- SPDX-FileCopyrightText: © 2025 Schneider Electric SPDX-License-Identifier: LicenseRef-Proprietary -->
<svg xmlns="http://www.w3.org/2000/svg" viewBox="0 0 16 16"><path d="M6.224 8.5a.5.5 0 0 0-.5-.5h-.523l.733-.733a.5.5 0 0 0-.707-.707L3.648 8.139a.5.5 0 0 0 0 .707l1.579 1.579a.5.5 0 0 0 .708 0 .5.5 0 0 0 0-.707L5.217 9h.508a.5.5 0 0 0 .5-.5Z"/><path d="M4.25 11.057a2.66 2.66 0 0 1-1.956-2.564c0-1.237.839-2.301 2.042-2.586a.5.5 0 1 0-.231-.973 3.64 3.64 0 0 0-2.777 3.067H.501a.5.5 0 0 0 0 1h.83a3.66 3.66 0 0 0 2.658 3.021.5.5 0 1 0 .263-.964ZM15.5 8h-.27a.95.95 0 0 0-.799-.459.96.96 0 0 0 0 1.92c.343 0 .63-.19.8-.461h.269a.5.5 0 0 0 0-1Zm-4.588-1.44a.5.5 0 0 0-.707.707l.732.733h-.435a.5.5 0 0 0 0 1h.419l-.717.718a.5.5 0 0 0 .708.707l1.578-1.579a.5.5 0 0 0 0-.707zM8.511 8h-.814a.5.5 0 0 0 0 1h.814a.5.5 0 0 0 0-1Z"/></svg>