<!-- SPDX-FileCopyrightText: © 2025 Schneider Electric SPDX-License-Identifier: LicenseRef-Proprietary -->
<svg xmlns="http://www.w3.org/2000/svg" viewBox="0 0 16 16"><path d="M15.5 7h-12a.5.5 0 0 0 0 1H15v3H1V8.153L3.134 5h9.767l.798.938a.501.501 0 0 0 .762-.648l-.947-1.114A.5.5 0 0 0 13.133 4H2.869a.5.5 0 0 0-.414.22L.086 7.72A.5.5 0 0 0 0 8v3.5a.5.5 0 0 0 .5.5h15a.5.5 0 0 0 .5-.5v-4a.5.5 0 0 0-.5-.5Z"/><circle cx="2.5" cy="9.5" r=".5"/><circle cx="4.5" cy="9.5" r=".5"/><circle cx="6.5" cy="9.5" r=".5"/><circle cx="8.5" cy="9.5" r=".5"/><circle cx="12.5" cy="9.5" r=".5"/><circle cx="10.5" cy="9.5" r=".5"/></svg>