<!-- SPDX-FileCopyrightText: © 2025 Schneider Electric SPDX-License-Identifier: LicenseRef-Proprietary -->
<svg xmlns="http://www.w3.org/2000/svg" viewBox="0 0 16 16"><path d="M6.07 11.266a2.1 2.1 0 0 1-.553-.649 2.6 2.6 0 0 1-.243-.692.9.9 0 0 0-.107-.469c-.179-.327-.544-.507-.825-.454L.829 8.975a.9.9 0 0 0-.386.113c-.262.151-.432.443-.443.804a7.8 7.8 0 0 0 .933 3.343c.602 1.099 1.373 1.994 2.192 2.561.16.136.361.205.563.205a.88.88 0 0 0 .762-.44l.465-.799a.501.501 0 0 0-.865-.504l-.389.694c-.702-.508-1.34-1.266-1.851-2.197a6.8 6.8 0 0 1-.803-2.779l3.276.02c.059.398.186.79.357 1.104.197.359.456.669.747.894l-.542.918a.501.501 0 0 0 .862.508l.603-1.023a.89.89 0 0 0-.239-1.127Zm9.483-2.181a.9.9 0 0 0-.42-.112l-3.389.035a.87.87 0 0 0-.911.449c-.079.144-.116.307-.104.377a2.2 2.2 0 0 1-.249.757 2.1 2.1 0 0 1-.552.656.9.9 0 0 0-.237.278.91.91 0 0 0 .007.87l.48.821a.5.5 0 0 0 .863-.504l-.429-.733A3.1 3.1 0 0 0 11.703 10l3.29-.044a6.7 6.7 0 0 1-.806 2.793c-.481.888-1.111 1.634-1.859 2.191l-.474-.835a.5.5 0 1 0-.87.494l.538.946a.89.89 0 0 0 .777.455.8.8 0 0 0 .518-.182c.891-.626 1.669-1.522 2.25-2.594a7.74 7.74 0 0 0 .932-3.374.93.93 0 0 0-.446-.767ZM4.517 3.04a.5.5 0 0 0 .879-.477l-.474-.821c1.819-.954 4.2-.998 6.139-.016L9.237 5.12c-.794-.32-1.731-.304-2.44.028L6.218 4.08a.5.5 0 0 0-.879.477l.63 1.163c.165.277.465.45.782.45a.9.9 0 0 0 .376-.084c.545-.25 1.277-.211 1.648-.083.47.309 1.181.033 1.319-.398l1.894-3.492a1 1 0 0 0 .094-.41c0-.319-.172-.627-.488-.826A7.66 7.66 0 0 0 8.021.001C6.757.001 5.525.297 4.5.837a.93.93 0 0 0-.574.867c0 .17.042.334.117.462zm4.902 4.351a.5.5 0 1 0-.723.691c.382.399.376 1.056-.013 1.465a.94.94 0 0 1-.677.3h-.002a.9.9 0 0 1-.651-.283c-.382-.398-.376-1.055.012-1.464a.5.5 0 0 0-.725-.689c-.751.79-.755 2.065-.01 2.844.365.382.853.592 1.374.592.534-.036 1.03-.218 1.404-.611.751-.79.755-2.066.01-2.845Z"/></svg>