<!-- SPDX-FileCopyrightText: © 2025 Schneider Electric SPDX-License-Identifier: LicenseRef-Proprietary -->
<svg xmlns="http://www.w3.org/2000/svg" viewBox="0 0 16 16"><path d="M10.264 5.993a.5.5 0 0 0-.707-.035L7.106 8.179a.501.501 0 0 0 .672.742L10.229 6.7a.5.5 0 0 0 .035-.707Z"/><path d="M11.017 12.691a5.5 5.5 0 0 0 1.217-1.145c.697-.815 1.085-1.818 1.159-2.998a6 6 0 0 0 .016-.421q0-.029-.003-.057c-.021-2.085-1.173-3.951-3.018-4.878a6 6 0 0 0-.293-.138h0a5.3 5.3 0 0 0-2.117-.436c-2.862 0-5.215 2.257-5.417 5.108a.5.5 0 0 0-.012.244l-.002.157c0 1.83.894 3.536 2.392 4.564a.5.5 0 0 0 .628-.05l1.173-1.115a.5.5 0 0 0-.689-.725l-.866.823a4.53 4.53 0 0 1-1.631-3.252h1.134a.5.5 0 0 0 0-1H3.609c.327-1.964 1.906-3.5 3.87-3.726v1.146a.5.5 0 0 0 1 0V3.646q.633.072 1.221.325h.001q.117.051.232.108l.006.003a4.47 4.47 0 0 1 2.407 3.288h-1.104a.5.5 0 0 0 0 1h1.16l-.008.138a4.54 4.54 0 0 1-.873 2.323 4.2 4.2 0 0 1-.795.747l-.819-.779a.5.5 0 0 0-.689.725l1.172 1.115a.5.5 0 0 0 .628.05Z"/><path d="M14.486 3.364A7.92 7.92 0 0 0 9.258.101a7.88 7.88 0 0 0-5.949 1.442c-3.57 2.622-4.373 7.702-1.792 11.325a7.93 7.93 0 0 0 4.288 3.053.501.501 0 0 0 .277-.961 6.93 6.93 0 0 1-3.751-2.672C.065 9.107.77 4.649 3.901 2.349a6.87 6.87 0 0 1 5.198-1.261q.742.12 1.426.387l.054.026c.539.218 1.045.5 1.505.837q.032.024.068.042a7.1 7.1 0 0 1 1.519 1.562c2.263 3.183 1.558 7.643-1.572 9.941a6.9 6.9 0 0 1-2.38 1.131.5.5 0 1 0 .247.968 7.9 7.9 0 0 0 2.725-1.293c3.568-2.621 4.373-7.703 1.795-11.327Z"/></svg>