<!-- SPDX-FileCopyrightText: © 2025 Schneider Electric SPDX-License-Identifier: LicenseRef-Proprietary -->
<svg xmlns="http://www.w3.org/2000/svg" viewBox="0 0 16 16"><path d="M8 9a.5.5 0 0 0 .5-.5v-8a.5.5 0 0 0-1 0v8A.5.5 0 0 0 8 9Z"/><path d="M15.165 3.621a.5.5 0 0 0-.49-.51l-3.165-.062a.47.47 0 0 0-.36.143.5.5 0 0 0-.15.357V6.5a.5.5 0 0 0 1 0V4.561c1.212 1.077 1.893 2.664 1.893 4.476 0 3.288-2.675 5.964-5.963 5.964s-5.963-2.677-5.963-5.965a5.94 5.94 0 0 1 2.775-5.04.5.5 0 0 0-.536-.844A6.94 6.94 0 0 0 .967 9.036C.967 12.876 4.091 16 7.93 16s6.963-3.124 6.963-6.964c0-1.964-.696-3.706-1.947-4.958l1.709.034c.318.007.504-.214.51-.49Z"/></svg>