<!-- SPDX-FileCopyrightText: © 2025 Schneider Electric SPDX-License-Identifier: LicenseRef-Proprietary -->
<svg xmlns="http://www.w3.org/2000/svg" viewBox="0 0 16 16"><path d="M12.955 4h-6.91A2.047 2.047 0 0 0 4 6.045V10.5a.5.5 0 0 0 1 0V6.045C5 5.469 5.469 5 6.045 5h6.91C13.531 5 14 5.469 14 6.045v6.91c0 .576-.469 1.045-1.045 1.045h-9.91A1.046 1.046 0 0 1 2 12.955v-9.91C2 2.469 2.469 2 3.045 2H14.5a.5.5 0 0 0 0-1H3.045A2.047 2.047 0 0 0 1 3.045v9.91C1 14.083 1.917 15 3.045 15h9.91A2.047 2.047 0 0 0 15 12.955v-6.91A2.047 2.047 0 0 0 12.955 4Z"/></svg>