<!-- SPDX-FileCopyrightText: © 2025 Schneider Electric SPDX-License-Identifier: LicenseRef-Proprietary -->
<svg xmlns="http://www.w3.org/2000/svg" viewBox="0 0 16 16"><path d="M7.642 11.507a.497.497 0 0 0 .707.009.5.5 0 0 0 .01-.707L5.221 7.586c-1.108-1.138-1.412-2.752-.795-4.215S6.413.999 8.001.999s2.958.909 3.575 2.372.313 3.078-.795 4.215L8.735 9.687a.5.5 0 0 0 .717.697l2.046-2.101c1.393-1.43 1.776-3.462 1-5.301-.776-1.84-2.499-2.983-4.496-2.983s-3.72 1.143-4.496 2.983c-.776 1.839-.393 3.871 1 5.301l3.138 3.223Z"/><path d="M14.409 8.396a.5.5 0 0 0-.488-.39h-1.236a.5.5 0 0 0 0 1h.836l1.354 5.993H1.125l1.354-5.993h.836a.5.5 0 0 0 0-1H2.079a.5.5 0 0 0-.488.39L.012 15.39a.503.503 0 0 0 .488.611h15a.5.5 0 0 0 .488-.611zM8 3.805c.498 0 .902.405.902.902a.5.5 0 0 0 1 0c0-1.049-.854-1.902-1.902-1.902s-1.902.854-1.902 1.902S6.952 6.609 8 6.609a.5.5 0 0 0 0-1 .903.903 0 0 1 0-1.804Z"/></svg>