<!-- SPDX-FileCopyrightText: © 2025 Schneider Electric SPDX-License-Identifier: LicenseRef-Proprietary -->
<svg xmlns="http://www.w3.org/2000/svg" viewBox="0 0 16 16"><path d="M13.5 7a.5.5 0 0 0 .5-.5v-2a.5.5 0 0 0-.5-.5h-2a.5.5 0 0 0 0 1H13v1.5a.5.5 0 0 0 .5.5Z"/><path d="M15.105 2H.895A.896.896 0 0 0 0 2.895v10.211c0 .493.401.895.895.895H9.5a.5.5 0 0 0 0-1H1V3h14v10h-3.5a.5.5 0 0 0 0 1h3.605a.896.896 0 0 0 .895-.895V2.895A.896.896 0 0 0 15.105 2Z"/><path d="M11.5 12h2a.5.5 0 0 0 .5-.5v-2a.5.5 0 0 0-1 0V11h-1.5a.5.5 0 0 0 0 1Zm-9-3a.5.5 0 0 0-.5.5v2a.5.5 0 0 0 .5.5h2a.5.5 0 0 0 0-1H3V9.5a.5.5 0 0 0-.5-.5Zm2-5h-2a.5.5 0 0 0-.5.5v2a.5.5 0 0 0 1 0V5h1.5a.5.5 0 0 0 0-1Z"/></svg>