<!-- SPDX-FileCopyrightText: © 2025 Schneider Electric SPDX-License-Identifier: LicenseRef-Proprietary -->
<svg xmlns="http://www.w3.org/2000/svg" viewBox="0 0 16 16"><path d="m12.225 5.428.055.014q.06.016.124.016a.5.5 0 0 0 .188-.037.52.52 0 0 0 .301-.339l1.186-3.146a.5.5 0 1 0-.936-.352l-.77 2.041c-.702-1.52-2.103-3.904-3.954-3.6-2.436.389-3.931 3.729-3.993 3.871a.5.5 0 0 0 .915.403c.013-.03 1.339-2.983 3.236-3.287 1.197-.191 2.427 1.981 3.038 3.376l-2.626-.184a.51.51 0 0 0-.534.464.5.5 0 0 0 .464.533zm-5.482 7.039c-.892.056-3.413-.073-4.37-1.374-.735-1 .59-3.114 1.523-4.314L4.7 9.186a.501.501 0 0 0 .948-.317L4.605 5.745a.7.7 0 0 0-.152-.226 1.2 1.2 0 0 0-.222-.161.5.5 0 0 0-.267-.038l-3.53.466a.5.5 0 0 0 .131.993l2.3-.304c-.997 1.337-2.408 3.701-1.298 5.21 1.193 1.623 3.789 1.791 4.816 1.791.242 0 .396-.009.425-.011.276-.019.484-.257.466-.532s-.276-.493-.532-.466Zm7.461-6.145a.5.5 0 0 0-.819.573c.02.027 1.855 2.689 1.146 4.509-.431 1.102-2.691 1.121-4.194.969l2.038-1.658a.499.499 0 1 0-.631-.775l-2.798 2.275a.5.5 0 0 0-.179.311 1 1 0 0 0-.003.248.48.48 0 0 0 .122.281l.01.012 2.557 2.772a.497.497 0 0 0 .706.028.5.5 0 0 0 .028-.706l-1.619-1.757c1.663.141 4.232.062 4.895-1.637.904-2.318-1.169-5.318-1.258-5.445Z"/></svg>