<!-- SPDX-FileCopyrightText: © 2025 Schneider Electric SPDX-License-Identifier: LicenseRef-Proprietary -->
<svg xmlns="http://www.w3.org/2000/svg" viewBox="0 0 16 16"><path d="M15.688 2.472a.5.5 0 0 0-.547.116l-2.336 2.419a.5.5 0 1 0 .719.694l1.477-1.529v5.827H9.157l1.46-1.461a.5.5 0 0 0 .074-.613c-.042-.067-1.039-1.658-3.721-1.658-2.382 0-4.555 1.431-5.89 3.734.109-.874.294-1.44.297-1.446 1.075-3.08 3.681-5.07 6.638-5.07 1.204 0 2.442.615 3.27 1.131a.5.5 0 0 0 .529-.849c-.938-.585-2.358-1.283-3.799-1.283C4.678 2.486 1.631 4.792.43 8.23c-.027.08-.655 1.979-.344 4.339a.5.5 0 0 0 .462.434h.034a.5.5 0 0 0 .482-.369c.871-3.21 3.245-5.367 5.905-5.367 1.444 0 2.248.541 2.615.889l-1.987 1.99a.5.5 0 0 0 .354.854H15.5a.5.5 0 0 0 .5-.5V2.936a.5.5 0 0 0-.312-.463Z"/></svg>