<!-- SPDX-FileCopyrightText: © 2025 Schneider Electric SPDX-License-Identifier: LicenseRef-Proprietary -->
<svg xmlns="http://www.w3.org/2000/svg" viewBox="0 0 16 16"><path d="M15.5 7h-3a.5.5 0 0 0-.5.5V10h-1V7.5a.5.5 0 0 0-.5-.5h-3a.5.5 0 0 0-.5.5V10H6V1.538C6 .92 5.604 0 4.516 0L2.277.005C1.836.067 1 .466 1 1.538V10.5a.5.5 0 0 0 1 0V1.538c0-.424.296-.522.346-.538h2.17c.411 0 .479.341.484.538V10.5a.5.5 0 0 0 .5.5h2a.5.5 0 0 0 .5-.5V8h2v2.5a.5.5 0 0 0 .5.5h2a.5.5 0 0 0 .5-.5V8h2v5H1.506a.5.5 0 0 0-.447.275L.053 15.278a.5.5 0 0 0 .893.449L1.814 14H15.5a.5.5 0 0 0 .5-.5v-6a.5.5 0 0 0-.5-.5Z"/></svg>