<!-- SPDX-FileCopyrightText: © 2025 Schneider Electric SPDX-License-Identifier: LicenseRef-Proprietary -->
<svg xmlns="http://www.w3.org/2000/svg" viewBox="0 0 16 16"><path d="M11.04 7.795a.5.5 0 0 0-.63-.321l-1.883.611V6.106a.5.5 0 0 0-1 0v1.979l-1.884-.611a.5.5 0 0 0-.309.951l1.883.611-1.164 1.602a.499.499 0 1 0 .808.588l1.165-1.602 1.164 1.602a.5.5 0 1 0 .808-.588L8.835 9.036l1.883-.611a.5.5 0 0 0 .321-.63Z"/><path d="M13.5 13a.5.5 0 0 0 .5-.5V1.389C14 .623 13.408 0 12.679 0H3.321C2.592 0 2 .623 2 1.389V14.61c0 .767.593 1.39 1.321 1.39h9.351c.732 0 1.328-.623 1.328-1.389a.5.5 0 0 0-1 0c0 .214-.147.389-.328.389H3.321C3.144 15 3 14.825 3 14.61V1.389C3 1.175 3.144 1 3.321 1h9.358c.177 0 .321.174.321.389V12.5a.5.5 0 0 0 .5.5Z"/><path d="M11.5 4a.5.5 0 0 0 .5-.5v-1a.5.5 0 0 0-1 0v1a.5.5 0 0 0 .5.5Z"/></svg>