<!-- SPDX-FileCopyrightText: © 2025 Schneider Electric SPDX-License-Identifier: LicenseRef-Proprietary -->
<svg xmlns="http://www.w3.org/2000/svg" viewBox="0 0 16 16"><path d="M14.843 6.282 8.303.136a.5.5 0 0 0-.676-.008L.814 6.243a.499.499 0 1 0 .668.744l6.471-5.808L14 6.863v8.138H2l-.002-4.43c.176-1.997 2.306-1.897 2.584-1.881.919 0 1.59.218 1.992.649.467.5.428 1.154.426 1.199V13.5a.5.5 0 0 0 1 0l-.002-2.919c.004-.044.083-1.079-.678-1.909-.597-.65-1.515-.981-2.69-.981h-.008c-1.155-.09-3.405.375-3.622 2.835V15.5a.5.5 0 0 0 .5.5h13a.5.5 0 0 0 .5-.5V6.646a.5.5 0 0 0-.157-.364Z"/></svg>