<!-- SPDX-FileCopyrightText: © 2013 - 2024 Ripple, All Rights Reserved. SPDX-License-Identifier: LicenseRef-Proprietary -->
<svg xmlns="http://www.w3.org/2000/svg" fill="none" viewBox="0 0 100 109"><path fill="#008CFF" d="M88.677 66.251c-3.83-2.22-8.15-2.86-12.43-3-3.59-.12-8.94-2.42-8.94-9a9.08 9.08 0 0 1 8.94-9c4.28-.15 8.6-.79 12.43-3a22.65 22.65 0 1 0-34-19.62c0 4.39 1.56 8.43 3.56 12.18 1.67 3.15 2.52 9-3.23 12.31a9.09 9.09 0 0 1-12.27-3.36c-2.25-3.6-5-7-8.77-9.17a22.65 22.65 0 1 0 0 39.24c3.8-2.2 6.52-5.57 8.77-9.17 1.85-3 6.46-6.72 12.27-3.36a9.09 9.09 0 0 1 3.22 12.31c-2 3.75-3.55 7.79-3.55 12.18a22.66 22.66 0 1 0 34-19.62z"/></svg>