<!-- SPDX-FileCopyrightText: © 2025 Schneider Electric SPDX-License-Identifier: LicenseRef-Proprietary -->
<svg xmlns="http://www.w3.org/2000/svg" viewBox="0 0 16 16"><path d="M15.999.536a.5.5 0 0 0-.537-.534c-.081.006-6.122.54-10.111 5.336-1.287-.595-3.907-.942-5.295 1.755a1 1 0 0 0-.055.321.5.5 0 0 0 .723.447c.576-.288 1.093-.332 1.496-.126a.501.501 0 0 0 .455-.891c-.255-.13-.571-.207-1.03-.239 1.083-.997 2.474-.66 3.072-.442-1.003 1.414-1.828 3.149-2.318 5.278a.5.5 0 0 0 .133.466l1.344 1.346c-.576 1.206-1.999 1.569-2.801 1.68.074-.479.248-1.168.656-1.684a.5.5 0 1 0-.783-.621c-.784.987-.905 2.337-.924 2.749a.53.53 0 0 0 .139.473.5.5 0 0 0 .517.124c.744-.035 3.471-.325 4.257-2.684a.5.5 0 0 0-.121-.512l-1.379-1.381c2.05-8.261 9.352-9.991 11.51-10.325-.5 4.698-2.782 7.534-5.171 9.235l-.019.009a.5.5 0 0 0-.136.1 14.5 14.5 0 0 1-3.754 1.838.5.5 0 0 0 .309.951 15.5 15.5 0 0 0 3.557-1.69c.198.668.362 1.842-.48 2.797a2.3 2.3 0 0 0-.201-1.088.5.5 0 1 0-.908.42c.113.244.238.78-.188 1.633-.077.155-.022.339.068.486.133.215.476.295.701.182 2.515-1.297 2.379-3.67 1.866-5.027C13.118 9.019 15.62 5.823 15.997.537Z"/></svg>