<!-- SPDX-FileCopyrightText: © 2025 Schneider Electric SPDX-License-Identifier: LicenseRef-Proprietary -->
<svg xmlns="http://www.w3.org/2000/svg" viewBox="0 0 16 16"><path d="M12.889.999a3 3 0 0 0-.284.014.5.5 0 0 0-.104-.011H3.009C1.902 1.002 1 1.931 1 3.073v5.502c0 .787.624 1.427 1.39 1.427h8.148c.402 0 .786-.178 1.055-.49.224-.263.348-.601.348-.949a.5.5 0 0 0-1 0 .46.46 0 0 1-.107.298.4.4 0 0 1-.295.141H2.39c-.215 0-.39-.191-.39-.427v-.573h7.5a.5.5 0 0 0 0-1H2v-1h7.5a.5.5 0 0 0 0-1H2v-1h7.5a.5.5 0 0 0 0-1H2.002c.034-.558.473-1 1.006-1h8.175c-.115.278-.184.63-.184 1.07v3.43a.5.5 0 0 0 1 0v-3.43c0-.802.225-1.073.889-1.073.31 0 1.111.21 1.111 1.172v10.831H1.5a.5.5 0 0 0 0 1h13a.5.5 0 0 0 .5-.5V3.17C15 1.759 13.912.998 12.889.998Z"/><path d="M7.016 13.018c.101 0 .201-.03.287-.091l1.506-1.055a.5.5 0 1 0-.573-.818l-1.22.854-1.221-.854a.501.501 0 0 0-.573.82l1.508 1.055c.086.06.187.09.287.09Z"/></svg>