<!-- SPDX-FileCopyrightText: © 2025 Schneider Electric SPDX-License-Identifier: LicenseRef-Proprietary -->
<svg xmlns="http://www.w3.org/2000/svg" viewBox="0 0 16 16"><path d="M15.254 6.066c-.27-.07-.535.017-.742.231-.146.151-.672.483-1.181.792 1.182-1.171 2.096-2.084 2.36-2.406.391-.474.415-1.13.06-1.596a1.014 1.014 0 0 0-1.257-.318c-.203.091-.611.395-1.215.89.576-.642 1.092-1.233 1.356-1.58.532-.697.396-1.275.119-1.558-.292-.297-.898-.443-1.654.113-.274.202-1.244 1.063-2.21 1.934l.447-.555.497-.616c.285-.351.263-.798-.054-1.089-.459-.419-1.503-.449-2.113.142-.723.701-3.262 2.967-3.788 3.288a.499.499 0 0 0-.206.883c.234.18.622.49 4.689-3.454.136-.132.342-.165.506-.167l-.311.385c-.735.912-2.102 2.609-2.334 2.851-.33.344-.351.834-.049 1.141.267.27.759.334 1.185-.064.5-.468 3.854-3.52 4.333-3.873a1.1 1.1 0 0 1 .263-.15q-.034.073-.115.183c-.742.973-3.768 4.197-3.968 4.405a.626.626 0 0 0 .01.875c.287.304.862.384 1.326-.012l.515-.444c.771-.668 2.821-2.445 3.209-2.626.011.004.044.036.06.101a.3.3 0 0 1-.071.275c-.268.324-1.531 1.576-2.454 2.491-.993.984-1.254 1.245-1.328 1.341-.241.312-.271.904.05 1.199.218.199.595.253.945-.07.118-.109.704-.458 1.176-.739.761-.454 1.331-.8 1.677-1.064.015.134-.007.297-.116.404l-1.078 1.06c-2.86 2.82-3.455 3.411-5.295 3.089-.561-.088-.877.389-1.237.95-.4.626-.948 1.482-2.032 2.274-.251.11-1.518-.177-2.374-1.103-.801-.866-1.676-2.626-1.831-3.186.391-.463 1.718-1.973 2.948-2.655.583-.324.487-1.158.375-2.125-.059-.511-.126-1.09-.049-1.371.105-.381.917-1.476 1.726-2.475a.501.501 0 0 0 .875.44c.637-.805.245-1.701-.051-2.062a.502.502 0 0 0-.765-.01c-.415.48-2.497 2.923-2.75 3.841-.128.468-.053 1.12.021 1.75.042.367.111.964.062 1.176-.8.459-1.601 1.185-2.21 1.806a1.1 1.1 0 0 1-.146-.388l.013-.034A3.6 3.6 0 0 1 2.379 6.98c.421-.278.35-.811.266-1.427-.075-.554-.168-1.244.073-1.679.283-.512 1.509-2.191 1.958-2.795a.5.5 0 0 0-.803-.595c-.067.091-1.657 2.232-2.03 2.907-.401.725-.278 1.634-.188 2.297.024.178.055.41.057.54A4.6 4.6 0 0 0 .149 8.21c-.21.406-.007 1.07.361 1.55-.217.247-.349.411-.364.43-.602.689 1.4 3.746 1.977 4.37.806.871 2.052 1.441 2.941 1.441.296 0 .553-.063.74-.2 1.252-.913 1.884-1.9 2.302-2.555.112-.176.248-.388.333-.484 2.267.36 3.169-.53 6.059-3.381l1.075-1.057c.443-.433.479-1.043.366-1.469-.109-.412-.364-.707-.681-.788Z"/></svg>