<!-- SPDX-FileCopyrightText: © 2025 Schneider Electric SPDX-License-Identifier: LicenseRef-Proprietary -->
<svg xmlns="http://www.w3.org/2000/svg" viewBox="0 0 16 16"><path d="M15.81 11.21c0-1.931-2.602-2.616-2.713-2.645a.49.49 0 0 0-.54.208l-1.56 2.347a.499.499 0 1 0 .833.552l1.348-2.028c.559.213 1.632.736 1.635 1.629l.136 1.059c-3.209 1.041-4.055.864-6.392.376a60 60 0 0 0-2.52-.483.49.49 0 0 0-.437.141l-.633.635H1.092l.267-1.541c.264-.209.519-.594.41-1.179-.14-.761.011-1.556.359-2.848a5.5 5.5 0 0 0-.099-3.173L1.972 4h3.277c.276 0 .499-.193.499-.469 0-.004.054-.345.673-.786l.489 3.37c.093.562.417 1.064.913 1.395l2.974 1.756a.5.5 0 0 0 .509-.861l-2.95-1.742a1.07 1.07 0 0 1-.458-.702l-.595-4.098a.5.5 0 0 0-.263-.372.5.5 0 0 0-.456-.003c-1.079.541-1.524 1.111-1.708 1.511H1.352a.5.5 0 0 0-.489.607l.203.917a4.6 4.6 0 0 1 .096 2.647C.783 8.575.611 9.516.785 10.46c.016.083.021.185-.056.223a.5.5 0 0 0-.318.384l-.405 2.348A.5.5 0 0 0 .498 14h4.678a.5.5 0 0 0 .354-.147l.597-.599c.888.153 1.606.304 2.227.434 1.126.235 1.954.407 2.875.407 1.11 0 2.356-.25 4.428-.942a.5.5 0 0 0 .337-.538l-.185-1.404Z"/></svg>