<!-- SPDX-FileCopyrightText: © 2025 Schneider Electric SPDX-License-Identifier: LicenseRef-Proprietary -->
<svg xmlns="http://www.w3.org/2000/svg" viewBox="0 0 16 16"><path d="M7.183 5.67a.5.5 0 0 0-.298.641c.348.951.405 1.838.173 2.691L3.935 6.267a.498.498 0 0 0-.815.26c-.252 1.06-.221 2.013.098 3a.5.5 0 0 0 .952-.307 4.2 4.2 0 0 1-.21-1.604l2.988 2.617a.498.498 0 0 0 .785-.169c.593-1.304.623-2.644.093-4.098a.5.5 0 0 0-.642-.298ZM5.5 14H2v-3.5a.5.5 0 0 0-1 0v3.729c0 .432.298.771.678.771H5.5a.5.5 0 0 0 0-1Zm-4-8a.5.5 0 0 0 .5-.5V2h3.5a.5.5 0 0 0 0-1H1.678C1.298 1 1 1.338 1 1.771V5.5a.5.5 0 0 0 .5.5Zm13 4a.5.5 0 0 0-.5.5V14h-3.5a.5.5 0 0 0 0 1h3.729c.432 0 .771-.298.771-.678V10.5a.5.5 0 0 0-.5-.5Zm-.271-9H10.5a.5.5 0 0 0 0 1H14v3.5a.5.5 0 0 0 1 0V1.678c0-.38-.339-.678-.771-.678Zm-2.818 11.081a.496.496 0 0 0 .678-.198c1.012-1.851 1.258-5.648.06-7.771a.5.5 0 0 0-.871.493c1.028 1.82.805 5.208-.065 6.798a.5.5 0 0 0 .198.679Zm-1.37-7.021a.5.5 0 0 0-.931.365c.689 1.759.667 3.578-.064 5.119a.5.5 0 0 0 .904.428c.851-1.792.883-3.892.092-5.912Z"/></svg>