<!-- SPDX-FileCopyrightText: © 2025 Schneider Electric SPDX-License-Identifier: LicenseRef-Proprietary -->
<svg xmlns="http://www.w3.org/2000/svg" viewBox="0 0 16 16"><path d="M5.75 3a.5.5 0 0 0-.5.5v7a.5.5 0 0 0 1 0v-7a.5.5 0 0 0-.5-.5ZM5.5 14H2v-3.5a.5.5 0 0 0-1 0v3.729c0 .433.298.771.678.771H5.5a.5.5 0 0 0 0-1Z"/><path d="M3 3.5v9a.5.5 0 0 0 1 0v-9a.5.5 0 0 0-1 0Z"/><path d="M1.5 6a.5.5 0 0 0 .5-.5V2h3.5a.5.5 0 0 0 0-1H1.678C1.298 1 1 1.339 1 1.771V5.5a.5.5 0 0 0 .5.5Zm13 4a.5.5 0 0 0-.5.5V14h-3.5a.5.5 0 0 0 0 1h3.729c.432 0 .771-.298.771-.679V10.5a.5.5 0 0 0-.5-.5ZM8 3a.5.5 0 0 0-.5.5v7a.5.5 0 0 0 1 0v-7A.5.5 0 0 0 8 3Z"/><path d="M13 12.5v-9a.5.5 0 0 0-1 0v9a.5.5 0 0 0 1 0Z"/><path d="M14.229 1H10.5a.5.5 0 0 0 0 1H14v3.5a.5.5 0 0 0 1 0V1.679c0-.38-.339-.679-.771-.679Zm-3.479 9.5v-7a.5.5 0 0 0-1 0v7a.5.5 0 0 0 1 0Z"/></svg>