<!-- SPDX-FileCopyrightText: © 2025 Schneider Electric SPDX-License-Identifier: LicenseRef-Proprietary -->
<svg xmlns="http://www.w3.org/2000/svg" viewBox="0 0 16 16"><path d="M4.641 4.631h.745v.745h-.745zm.039 5.983h.745v.745H4.68zm5.902-5.983h.745v.745h-.745zM1.5 6a.5.5 0 0 0 .5-.5V2h3.5a.5.5 0 0 0 0-1H1.678C1.298 1 1 1.338 1 1.771V5.5a.5.5 0 0 0 .5.5Z"/><path d="M9.5 7h3a.5.5 0 0 0 .5-.5v-3a.5.5 0 0 0-.5-.5h-3a.5.5 0 0 0-.5.5v3a.5.5 0 0 0 .5.5Zm.5-3h2v2h-2zm-.555 7.174h.017a.5.5 0 0 0 .5-.483c.01-.292.018-.53.021-.725h.692a.5.5 0 0 0 0-1H9.489a.49.49 0 0 0-.391.146.5.5 0 0 0-.123.504c.008.176 0 .649-.014 1.041a.5.5 0 0 0 .483.517ZM6.5 3h-3a.5.5 0 0 0-.5.5v3a.5.5 0 0 0 .5.5h3a.5.5 0 0 0 .5-.5v-3a.5.5 0 0 0-.5-.5ZM6 6H4V4h2zm-.5 8H2v-3.5a.5.5 0 0 0-1 0v3.729c0 .432.298.771.678.771H5.5a.5.5 0 0 0 0-1Z"/><path d="M14.229 1H10.5a.5.5 0 0 0 0 1H14v3.5a.5.5 0 0 0 1 0V1.678c0-.38-.339-.678-.771-.678Zm.271 9a.5.5 0 0 0-.5.5V14h-3.5a.5.5 0 0 0 0 1h3.729c.432 0 .771-.298.771-.678V10.5a.5.5 0 0 0-.5-.5Z"/><path d="M10.563 12.523a.5.5 0 0 0-.099-.298.52.52 0 0 0 .42 0 .498.498 0 0 0 .401.798h1.223a.5.5 0 0 0 .5-.5v-.611a.513.513 0 0 0-.628-.483.5.5 0 0 0 .017-.128V9.966h.111a.5.5 0 0 0 0-1h-.611a.5.5 0 0 0-.5.5v1.835c0 .32.328.56.628.483a.5.5 0 0 0-.017.128v.111h-.723a.5.5 0 0 0-.21.046.5.5 0 0 0 .099-.298v-.973a.5.5 0 0 0-1 0v.973c0 .111.036.215.099.298a.5.5 0 0 0-.21-.046h-.111v-.111a.5.5 0 0 0-1 0v.611a.5.5 0 0 0 .5.5h.611a.5.5 0 0 0 .5-.5ZM6.5 9h-3a.5.5 0 0 0-.5.5v3a.5.5 0 0 0 .5.5h3a.5.5 0 0 0 .5-.5v-3a.5.5 0 0 0-.5-.5ZM6 12H4v-2h2z"/></svg>