<!-- SPDX-FileCopyrightText: © 2025 Schneider Electric SPDX-License-Identifier: LicenseRef-Proprietary -->
<svg xmlns="http://www.w3.org/2000/svg" viewBox="0 0 16 16"><path d="M11.991 6.819a.5.5 0 0 0-.5-.5c-1.087 0-1.762-.703-1.762-1.834a.5.5 0 0 0-1 0c0 1.521.894 2.594 2.271 2.798V15H1v-2.734l2.988-2.007 1.921 1.162-.404.202a.5.5 0 0 0 .447.895l2.11-1.055 1.624.812a.5.5 0 0 0 .447-.895l-1.848-.923a.5.5 0 0 0-.447 0l-.872.436L4.231 9.24a.5.5 0 0 0-.538.013L.221 11.584a.5.5 0 0 0-.221.415V15.5a.5.5 0 0 0 .5.5h11a.5.5 0 0 0 .5-.5V6.93a.5.5 0 0 0-.009-.095zM7.5 4h-1a.5.5 0 0 0 0 1h1a.5.5 0 0 0 0-1Zm-7 6.277a.5.5 0 0 0 .5-.5V5h3.59a.5.5 0 0 0 0-1H.5a.5.5 0 0 0-.5.5v5.277a.5.5 0 0 0 .5.5Z"/><path d="M9.291 8.908a.5.5 0 0 0 .433-.25l.292-.505a.5.5 0 0 0-.866-.5l-.292.505a.498.498 0 0 0 .433.75Z"/><path d="M15.5 0h-12a.5.5 0 0 0 0 1H15v11.5a.5.5 0 0 0 1 0V.5a.5.5 0 0 0-.5-.5Z"/><path d="M7.239 7.162a.5.5 0 0 0 .683.183l.505-.292a.5.5 0 0 0-.5-.866l-.505.292a.5.5 0 0 0-.183.683Z"/><path d="M13.5 2h-12a.5.5 0 0 0 0 1H13v11.5a.5.5 0 0 0 1 0v-12a.5.5 0 0 0-.5-.5Z"/></svg>