<!-- SPDX-FileCopyrightText: © 2025 Schneider Electric SPDX-License-Identifier: LicenseRef-Proprietary -->
<svg xmlns="http://www.w3.org/2000/svg" viewBox="0 0 16 16"><path d="M9.453 3.369a.5.5 0 0 0 .683.183l.684-.395a.5.5 0 0 0-.5-.866l-.684.395a.5.5 0 0 0-.183.683Zm6.047.789a.5.5 0 0 0 0-1A2.66 2.66 0 0 1 12.842.5a.5.5 0 0 0-1 0A3.66 3.66 0 0 0 15.5 4.158Zm-3.553 1.994a.5.5 0 0 0 .683-.183l.396-.684a.5.5 0 1 0-.866-.501l-.396.684a.5.5 0 0 0 .183.683ZM.5 8a.5.5 0 0 0 .5-.5V1h5.5a.5.5 0 0 0 0-1h-6a.5.5 0 0 0-.5.5v7a.5.5 0 0 0 .5.5Zm15-2a.5.5 0 0 0-.5.5v1a.5.5 0 0 0 1 0v-1a.5.5 0 0 0-.5-.5Zm-7-5h1a.5.5 0 0 0 0-1h-1a.5.5 0 0 0 0 1Zm7 8a.5.5 0 0 0-.5.5V15H1v-3.97l4.251-2.833 2.895 1.737-.764.382a.5.5 0 0 0 .447.895l1.564-.782.029-.015 1.34-.67 2.935 1.467a.5.5 0 0 0 .447-.895l-3.158-1.578a.5.5 0 0 0-.447 0l-1.333.666-3.712-2.227a.5.5 0 0 0-.535.013L.223 10.347a.5.5 0 0 0-.223.416V15.5a.5.5 0 0 0 .5.5h15a.5.5 0 0 0 .5-.5v-6a.5.5 0 0 0-.5-.5Z"/></svg>