<!-- SPDX-FileCopyrightText: © 2025 Schneider Electric SPDX-License-Identifier: LicenseRef-Proprietary -->
<svg xmlns="http://www.w3.org/2000/svg" viewBox="0 0 16 16"><path d="M14.172 8.106 9.035 6.742a.5.5 0 0 0-.256.967l5.135 1.364a1.47 1.47 0 0 1 1.08 1.292L7.378 8.32a.5.5 0 0 0-.212-.057l-2.675-.719a.504.504 0 0 0-.613.354 1.464 1.464 0 0 1-1.792 1.038 1.47 1.47 0 0 1-.351-2.692 1.45 1.45 0 0 1 1.107-.146l3.739 1.015a.5.5 0 0 0 .61-.628L6.086 2.85a1.47 1.47 0 0 1 1.035-1.799A1.46 1.46 0 0 1 8.914 2.09a1.47 1.47 0 0 1-1.035 1.799.5.5 0 1 0 .26.966A2.473 2.473 0 0 0 8.732.332 2.44 2.44 0 0 0 6.863.086a2.476 2.476 0 0 0-1.737 3.04l.847 2.787-2.868-.778a2.45 2.45 0 0 0-1.868.245 2.47 2.47 0 0 0 .592 4.523 2.44 2.44 0 0 0 1.867-.244c.424-.245.759-.602.973-1.03l2.076.558 1.346 4.986a2.475 2.475 0 0 0 3.027 1.746.5.5 0 0 0 .356-.604l-1.107-4.436a.5.5 0 0 0-.97.242l.968 3.877a1.47 1.47 0 0 1-1.307-1.085L7.863 9.486l7.444 1.999a.5.5 0 0 0 .613-.354 2.473 2.473 0 0 0-1.744-3.023Z"/></svg>