<!-- SPDX-FileCopyrightText: © 2025 Schneider Electric SPDX-License-Identifier: LicenseRef-Proprietary -->
<svg xmlns="http://www.w3.org/2000/svg" viewBox="0 0 16 16"><path fill="currentColor" d="M15.268 7.097q.207-.488.208-1.023a.52.52 0 0 0-.259-.448V4.397a.517.517 0 1 0-1.036 0v.059c-.06 1.806-2.869 3.32-6.188 3.32-.707 0-1.399-.066-2.058-.196a.518.518 0 0 0-.2 1.016 11.7 11.7 0 0 0 2.258.216c2.655 0 4.933-.833 6.188-2.104v.249c-.784 1.303-3.262 2.257-6.188 2.257-.702 0-1.393-.056-2.056-.166a.518.518 0 0 0-.169 1.021c.718.119 1.466.179 2.225.179 2.547 0 4.72-.64 6.058-1.663-.903 1.204-3.277 2.065-6.058 2.065a12.6 12.6 0 0 1-2.039-.163.517.517 0 1 0-.168 1.021c.713.117 1.456.177 2.207.177 2.548 0 4.722-.641 6.059-1.663-.902 1.204-3.277 2.066-6.059 2.066-.706 0-1.403-.057-2.075-.17a.52.52 0 0 0-.596.425.52.52 0 0 0 .425.597c.727.122 1.483.184 2.246.184 2.547 0 4.72-.64 6.058-1.662-.903 1.203-3.278 2.064-6.058 2.064-.711 0-1.413-.058-2.084-.171a.52.52 0 0 0-.172 1.022c.728.122 1.487.185 2.256.185 1.886 0 3.565-.351 4.854-.947-1.187.819-3.039 1.368-5.036 1.368-2.128 0-4.002-.626-5.072-1.568q.302.163.641.307a.517.517 0 1 0 .403-.953c-.826-.35-1.445-.791-1.819-1.279q.597.447 1.42.797a.518.518 0 0 0 .403-.953c-.837-.354-1.463-.803-1.836-1.298.406.31.893.587 1.452.821a.518.518 0 0 0 .4-.954c-.846-.355-1.479-.806-1.854-1.306.4.306.879.579 1.428.812a.518.518 0 0 0 .403-.953c-.967-.41-1.652-.945-1.988-1.535v-.228c.479.487 1.117.916 1.893 1.264a.518.518 0 0 0 .424-.944c-1.445-.648-2.307-1.625-2.307-2.615 0-1.832 2.834-3.379 6.189-3.379 2.283 0 4.378.71 5.456 1.808l-.417.225c-.981-.989-2.925-1.631-5.039-1.631-3.079 0-5.68 1.363-5.68 2.977s2.601 2.977 5.68 2.977c2.11 0 4.105-.659 5.083-1.678a.518.518 0 0 0-.746-.717c-.649.677-2.242 1.359-4.337 1.359-2.881 0-4.645-1.257-4.645-1.941S5.11 2.457 7.991 2.457c2.236 0 3.952.778 4.492 1.547.152.216.44.282.67.158l1.336-.721a.52.52 0 0 0 .184-.744c-1.1-1.65-3.724-2.715-6.679-2.715-4.016 0-7.17 1.907-7.223 4.351a1 1 0 0 0-.01.102v1.204a.52.52 0 0 0-.236.435q.001.53.208 1.023a.52.52 0 0 0-.208.415q.001.53.208 1.023a.52.52 0 0 0-.208.415q.001.535.203 1.027a.52.52 0 0 0-.203.411q.002.565.236 1.09v.115c0 2.481 3.098 4.426 7.052 4.426 4.083 0 7.404-1.985 7.404-4.426v-.067a2.65 2.65 0 0 0 .259-1.138c0-.17-.082-.32-.208-.415q.207-.488.208-1.023c0-.17-.082-.32-.208-.415.136-.325.208-.667.208-1.023 0-.17-.082-.32-.208-.415Z"/></svg>