<!-- SPDX-FileCopyrightText: © 2025 Schneider Electric SPDX-License-Identifier: LicenseRef-Proprietary -->
<svg xmlns="http://www.w3.org/2000/svg" viewBox="0 0 16 16"><path d="M16.016.501a.504.504 0 0 0-.5-.501H.5a.5.5 0 0 0-.5.5v11a.5.5 0 0 0 .5.5H6v3H2.5a.5.5 0 0 0 0 1h4a.5.5 0 0 0 .5-.5v-4a.5.5 0 0 0-.5-.5H1V1h14.015l-.012 6h-1.267l-1.032-2.014a.5.5 0 0 0-.439-.272h-.006c-.184 0-.353.1-.439.262L10.722 7H8.893a.5.5 0 0 0-.466.319l-.405.987-.698-1.973A.5.5 0 0 0 6.853 6H5.807l-.912-2.671a.48.48 0 0 0-.492-.338.5.5 0 0 0-.465.374L2.993 7h-.492a.5.5 0 0 0 0 1h.879a.5.5 0 0 0 .484-.374l.624-2.398.489 1.434A.5.5 0 0 0 5.45 7H6.5l.998 2.822a.5.5 0 0 0 .452.333.48.48 0 0 0 .477-.296l.7-1.574.11-.285h1.784a.5.5 0 0 0 .439-.262l.787-1.453.739 1.442a.5.5 0 0 0 .445.272H15v.5q0 .046.008.088l-.007 2.412H9.448a.5.5 0 0 0-.5.506l.052 4a.5.5 0 0 0 .5.493h5a.5.5 0 0 0 0-1H9.994l-.039-3H15.5a.5.5 0 0 0 .5-.499l.011-4a.5.5 0 0 0-.009-.097l.014-6.904Z"/></svg>