<!-- SPDX-FileCopyrightText: © 2025 Schneider Electric SPDX-License-Identifier: LicenseRef-Proprietary -->
<svg xmlns="http://www.w3.org/2000/svg" viewBox="0 0 16 16"><path d="m15.483 11.982-3.416-3.415a.5.5 0 0 0-.187-.118l-1.397-.496v-.764a.5.5 0 0 0-.146-.354l-.815-.815a.5.5 0 0 0-.707 0L7.772 7.063 5.636 4.927c1.803-1.619 4.024-2.633 5.841-2.633.813 0 1.452.216 1.831.608l.086.098H12.5a.5.5 0 0 0 0 1h2l.041-.001a.5.5 0 0 0 .153-.038h0a.6.6 0 0 0 .147-.096.5.5 0 0 0 .158-.359V1.5a.5.5 0 0 0-1 0v.682c-.587-.581-1.458-.887-2.523-.887-2.064 0-4.56 1.129-6.549 2.926L.854.146a.502.502 0 0 0-.708.708l4.066 4.065C.97 8.331-.158 12.44 1.648 14.313c1.075 1.115 2.933 1.199 5.097.23a.499.499 0 1 0-.409-.912c-1.73.772-3.213.77-3.969-.012-1.382-1.434-.212-5.071 2.552-7.993l2.498 2.498a.5.5 0 0 0 .707 0l1.043-1.043.315.315v.91c0 .212.133.4.333.472l1.624.576 3.336 3.335a.765.765 0 0 1 0 1.08l-1.007 1.007a.766.766 0 0 1-1.08 0L9.352 11.44l-.575-1.624a.5.5 0 0 0-.471-.333h-.911l-.669-.669a.5.5 0 0 0-.707.707l.815.815a.5.5 0 0 0 .354.146h.765l.495 1.397q.038.106.118.187l3.416 3.416a1.76 1.76 0 0 0 2.494 0l1.007-1.007a1.765 1.765 0 0 0 0-2.494Z"/></svg>