<!-- SPDX-FileCopyrightText: © 2025 Schneider Electric SPDX-License-Identifier: LicenseRef-Proprietary -->
<svg xmlns="http://www.w3.org/2000/svg" viewBox="0 0 16 16"><path d="m15.523 12.377-3.394-3.399a.5.5 0 0 0-.131-.095l-1.51-.749.012-.585a.5.5 0 0 0-.146-.362l-.765-.769a.5.5 0 0 0-.354-.147h0a.5.5 0 0 0-.354.146l-.879.879L.854.146a.502.502 0 0 0-.708.708l7.503 7.503a.5.5 0 0 0 .707 0l.878-.878.262.263-.014.689a.5.5 0 0 0 .277.458l1.72.854L14.8 13.07c.068.076.39.481.085.928l-.823.834c-.516.36-.918.039-.979-.015l-3.342-3.336-.854-1.72a.52.52 0 0 0-.458-.277l-.686.014-.44-.447a.5.5 0 0 0-.712.703l.591.6a.47.47 0 0 0 .366.148l.584-.012.75 1.51a.5.5 0 0 0 .095.131l3.409 3.403c.217.204.644.453 1.177.453.346 0 .735-.104 1.141-.393l.945-.956c.679-.966.221-1.895-.126-2.261Z"/></svg>