<!-- SPDX-FileCopyrightText: © 2025 Schneider Electric SPDX-License-Identifier: LicenseRef-Proprietary -->
<svg xmlns="http://www.w3.org/2000/svg" viewBox="0 0 16 16"><path d="M7.53 12.046a.51.51 0 0 0-.515-.203l-1.027.22.535-1.376a.506.506 0 0 0-.466-.686H1.5a.5.5 0 0 0 0 1h.266c-.822.777-1.398 1.862-1.528 2.706l-.234 1.726a.5.5 0 0 0 .991.134l.232-1.718c.072-.471.383-1.13.833-1.694.269.324.876 1.515.836 3.334a.5.5 0 0 0 .489.511h.011a.5.5 0 0 0 .5-.489c.042-1.925-.559-3.431-1.127-4.057.366-.272.771-.449 1.188-.449l.07-.005h1.301l-.608 1.563a.5.5 0 0 0 .57.671l1.608-.344.098.141a.5.5 0 1 0 .821-.572z"/><path d="m10.857 10.539-.027-.058a.5.5 0 0 0-.396-.255l-.555-.058c.496-.295 1.292-.831 1.616-1.402.327-.738.335-1.425.344-2.089.008-.658.016-1.279.311-2q.1-.116.178-.241l.031-.058 1.535-1.553a.5.5 0 0 0-.209-.83 7.5 7.5 0 0 1-1.968-.946.5.5 0 0 0-.186-.078A20 20 0 0 1 8.249.032.5.5 0 0 0 7.897.03a21.5 21.5 0 0 1-3.334.942.5.5 0 0 0-.185.078c-.589.4-1.288.736-1.968.946a.503.503 0 0 0-.209.83L3.79 4.433a.5.5 0 1 0 .711-.703L3.46 2.677a8.5 8.5 0 0 0 1.395-.743 22.5 22.5 0 0 0 3.212-.901 21 21 0 0 0 3.172.901c.43.284.907.538 1.396.743l-.801.81c-1.72-.692-3.926-.808-5.985-.304a.5.5 0 0 0-.366.604.495.495 0 0 0 .604.366c1.719-.422 3.54-.37 5.012.127-1.082.739-3.751 1.075-5.242.36a.5.5 0 0 0-.432.902c1.396.668 3.846.636 5.479-.037a9 9 0 0 0-.065 1.16c-.008.615-.014 1.146-.235 1.651-.2.35-1.038.901-1.569 1.18a.5.5 0 0 0-.265.494.5.5 0 0 0 .027.146l.23.661a.5.5 0 0 0 .421.332l.599.062.362.855-.915-.203a.5.5 0 0 0-.487.161l-.475.55a.5.5 0 0 0-.117.397l.374 2.618a.5.5 0 0 0 .99-.14l-.342-2.394.131-.151 1.57.349a.502.502 0 0 0 .569-.684z"/><path d="M15.764 13.47c-.086-.915-.643-1.815-1.426-2.469h.165A.5.5 0 0 0 14.501 10h-.002l-2.458.013a.5.5 0 0 0-.497.478.5.5 0 0 0 .452.521c1.315.127 2.664 1.367 2.776 2.564l.234 1.975a.5.5 0 0 0 .496.441q.03.001.059-.004a.5.5 0 0 0 .438-.555l-.232-1.963Z"/></svg>