<!-- SPDX-FileCopyrightText: © 2025 Schneider Electric SPDX-License-Identifier: LicenseRef-Proprietary -->
<svg xmlns="http://www.w3.org/2000/svg" viewBox="0 0 16 16"><path d="M3.42 10.725a.5.5 0 0 0 .016-1c-.505-.016-1.17-.158-1.472-.751-.287-.562-.187-1.384.258-2.289l.276.823a.5.5 0 0 0 .948-.318l-.641-1.912a.5.5 0 0 0-.667-.302l-1.83.766.386.922.538-.225c-.508 1.128-.572 2.18-.16 2.988.409.803 1.237 1.264 2.332 1.298zm.676-6.465a.5.5 0 1 0 .734-.68l-.923-.997c.427-.193.844-.43 1.222-.695a19 19 0 0 0 2.84-.851 18 18 0 0 0 2.806.851 7.5 7.5 0 0 0 1.222.695l-.678.732c-1.545-.649-3.514-.755-5.354-.272a.498.498 0 1 0 .254.966c1.508-.396 3.104-.352 4.399.106-.96.685-3.287.991-4.591.324a.5.5 0 0 0-.455.891c.617.315 1.459.469 2.333.469 1.617 0 3.34-.528 3.926-1.541a.4.4 0 0 0 .027-.055l1.37-1.479a.5.5 0 0 0-.212-.815 6.5 6.5 0 0 1-1.742-.894.5.5 0 0 0-.191-.085A17 17 0 0 1 8.162.036a.5.5 0 0 0-.373-.003C6.789.427 5.818.72 4.82.93a.5.5 0 0 0-.191.085 6.5 6.5 0 0 1-1.742.894.5.5 0 0 0-.212.815zm8.921 7.849a6.5 6.5 0 0 1-1.743-.895.5.5 0 0 0-.191-.085 17 17 0 0 1-2.922-.894.5.5 0 0 0-.372-.003 18.3 18.3 0 0 1-2.97.896.5.5 0 0 0-.191.085 6.5 6.5 0 0 1-1.743.895.5.5 0 0 0-.211.815l1.421 1.535a.5.5 0 1 0 .734-.68l-.923-.997a7.7 7.7 0 0 0 1.222-.695 19 19 0 0 0 2.84-.851c.897.355 1.84.641 2.806.851.377.265.795.502 1.222.695l-.678.731c-1.545-.649-3.515-.755-5.354-.272a.5.5 0 0 0-.356.61c.07.267.343.431.61.356 1.507-.396 3.103-.352 4.399.106-.961.684-3.287.99-4.591.324a.5.5 0 0 0-.455.891c.617.315 1.459.469 2.333.469 1.618 0 3.34-.528 3.926-1.541q.016-.026.027-.054l1.37-1.479a.5.5 0 0 0-.211-.815Zm2.29-3.112-.537.225c.507-1.127.571-2.179.159-2.987-.409-.803-1.237-1.264-2.332-1.298a.499.499 0 1 0-.031.999c.505.016 1.17.159 1.472.752.287.562.187 1.384-.258 2.289l-.276-.824-.948.318.642 1.911a.5.5 0 0 0 .474.341.5.5 0 0 0 .193-.039l1.83-.766-.386-.922Z"/></svg>