<!-- SPDX-FileCopyrightText: © 2025 Schneider Electric SPDX-License-Identifier: LicenseRef-Proprietary -->
<svg xmlns="http://www.w3.org/2000/svg" viewBox="0 0 16 16"><path d="M9.402 10.764c-1.695.249-3.404.072-4.465-.461a.501.501 0 0 0-.449.895c.886.444 2.09.679 3.397.679.542 0 1.101-.04 1.661-.122a.5.5 0 0 0-.145-.99Zm-2.757-5.57q.693-.227 1.384-.49c1.401.553 2.878.995 4.396 1.313.669.467 1.426.877 2.192 1.189l-1.403 1.49a11 11 0 0 0-3.061-.815.5.5 0 0 0-.123.993c.918.114 1.77.328 2.542.638a3 3 0 0 1-.541.406.502.502 0 0 0 .516.858c.524-.315.912-.682 1.152-1.088a.5.5 0 0 0 .042-.091l2.125-2.256a.5.5 0 0 0-.211-.819 10.2 10.2 0 0 1-2.734-1.379.5.5 0 0 0-.19-.083 26 26 0 0 1-4.509-1.356.5.5 0 0 0-.367-.003q-.758.293-1.519.543a.5.5 0 0 0 .312.95Zm-3.563-.051A10.3 10.3 0 0 1 .347 6.522a.5.5 0 0 0-.21.819l2.17 2.304a.5.5 0 1 0 .728-.686l-1.65-1.752c.8-.326 1.589-.757 2.279-1.25a.499.499 0 1 0-.581-.813ZM5.159 9.21a.5.5 0 0 0 .125-.017q.505-.13 1.018-.218a.5.5 0 1 0-.171-.985q-.553.096-1.096.235a.5.5 0 0 0 .124.985Zm10.695 5.936-15-15a.502.502 0 0 0-.708.708l15 15a.5.5 0 0 0 .708 0 .5.5 0 0 0 0-.707Z"/></svg>