<!-- SPDX-FileCopyrightText: © 2025 Schneider Electric SPDX-License-Identifier: LicenseRef-Proprietary -->
<svg xmlns="http://www.w3.org/2000/svg" viewBox="0 0 16 16"><path d="M14.938 4.063A.5.5 0 0 0 15 3.821C15 2.136 11.704 0 8 0S1 2.137 1 3.821v6.916a.5.5 0 0 0 .027.174c.099.305 1.392 3.977 6.245 5.076a.5.5 0 0 0 .231-.002.515.515 0 0 0 .621-.485v-2.653a.5.5 0 0 0-.03-.17c-.088-.243-.377-.528-1.886-.96-1-.286-1.062-1.027-.962-2.651.026-.434.054-.89.033-1.338l.034.106a.5.5 0 0 0 .413.372.52.52 0 0 0 .501-.239c.65-1.092 1.21-2.391.76-3.955 1.917.804 2.059 2.522 2.064 2.604a.5.5 0 0 0 .433.467.49.49 0 0 0 .541-.336c.125-.375.967-.79 1.628-1.015-.386.861-.708 2.068-.373 3.009.351 1.964-1.121 2.593-1.58 2.738l-.066.021c.021-.09.046-.187.067-.27.227-.88.648-2.517-.979-3.623a.5.5 0 0 0-.527-.022c-1.256.711-1.469 2.062-1.306 2.797a.502.502 0 0 0 .977-.217c-.083-.373.013-1.063.556-1.524.68.627.552 1.405.311 2.34-.137.529-.266 1.029.089 1.366.322.305.799.207 1.18.086 1.289-.41 2.655-1.668 2.241-3.945-.319-.908.267-2.42.685-3.012.113-.16.139-.45.04-.619-.198-.339-.611-.295-.747-.282-.5.052-1.647.398-2.423.972-.375-.972-1.303-2.356-3.577-2.8a.5.5 0 0 0-.535.73c.58 1.065.632 1.977.125 3.131-.304-.433-.782-.882-1.51-1.052a.5.5 0 0 0-.482.825c.552.6.492 1.584.428 2.626-.085 1.397-.191 3.137 1.686 3.673.686.196 1.029.341 1.19.423v1.82c-3.791-1.012-4.949-3.776-5.124-4.257V3.821c0-.841 2.534-2.821 6-2.821s6 1.98 6 2.821v6.553c-.165.357-1.048 2.007-3.769 3.286a.5.5 0 1 0 .426.904c3.458-1.626 4.28-3.827 4.313-3.92a.5.5 0 0 0 .029-.169c0-3.863 0-5.609-.062-6.414Z"/></svg>