<!-- SPDX-FileCopyrightText: © 2025 Schneider Electric SPDX-License-Identifier: LicenseRef-Proprietary -->
<svg xmlns="http://www.w3.org/2000/svg" viewBox="0 0 16 16"><path d="M15.965 2.865a.5.5 0 0 0-.495-.475c-.042 0-4.156-.068-7.174-2.287a.5.5 0 0 0-.571-.015C4.175 2.421.579 2.381.543 2.39c-.26.026-.494.207-.508.475-.248 4.869.786 8.504 3.071 10.804 2.262 2.276 4.88 2.325 4.929 2.325h0c1.308-.012 2.546-.706 2.566-.72 1.459-.694 3.303-1.963 4.621-5.63a.501.501 0 0 0-.786-.557.5.5 0 0 0-.128.069 18 18 0 0 1-2.309 1.48V7.041a.5.5 0 0 0-1 0l.002 3.963c-.018.051-.09.12-.215.196a9 9 0 0 1-1.426.444c-.386.061-.839.1-1.361.1-1.098 0-1.947-.288-2.458-.572-.29-.196-.451-.384-.501-.475l-.041-.062v-.616c.811.418 1.999.636 3.146.636.48 0 .958-.049 1.459-.149a.5.5 0 0 0-.196-.981c-.436.087-.849.13-1.263.13-1.947 0-3.023-.604-3.146-.872v-.996c1.064.63 2.811.958 4.584.603a.5.5 0 0 0 .392-.588.495.495 0 0 0-.588-.392 6.3 6.3 0 0 1-1.242.126c-1.886 0-3.02-.75-3.146-1.061V4.628l.064-.056q.09-.068.233-.137.16-.076.361-.141.215-.068.469-.124.26-.057.551-.096.296-.04.618-.062a10 10 0 0 1 1.953.062q.291.04.552.097.253.055.467.123.202.064.363.141.144.07.233.137l.046.036-.046.039a1.4 1.4 0 0 1-.234.137 3 3 0 0 1-.362.141q-.216.069-.467.124-.26.057-.552.096a9 9 0 0 1-.618.062c-.433.029-.904.029-1.336 0a9 9 0 0 1-.617-.062.5.5 0 1 0-.135.991q.33.045.687.068a11 11 0 0 0 2.155-.068q.333-.045.63-.11.304-.066.562-.149a4 4 0 0 0 .486-.19 2.4 2.4 0 0 0 .408-.243q.205-.156.321-.339.149-.234.149-.494c0-.26-.05-.339-.149-.495a1.3 1.3 0 0 0-.321-.339 2.4 2.4 0 0 0-.408-.243 4 4 0 0 0-.488-.19 6 6 0 0 0-.56-.148 8 8 0 0 0-.63-.111 10 10 0 0 0-.687-.068 11 11 0 0 0-2.155.068 8 8 0 0 0-.629.11q-.303.066-.562.149-.27.088-.486.19a2.4 2.4 0 0 0-.408.243 1.3 1.3 0 0 0-.321.339q-.045.071-.077.145a.5.5 0 0 0-.058.195 1 1 0 0 0-.014.154q0 .056.012.11v1.595a.5.5 0 0 0-.012.108q0 .078.012.155v2.05a.5.5 0 0 0-.012.108q0 .08.012.158v1.805c0 .456.346.895.905 1.248a4.7 4.7 0 0 0 1.728.732c.744.16 1.717.208 2.92-.056.635-.103 1.216-.273 1.652-.516.745-.3 1.554-.713 2.427-1.269-1.074 2.143-2.336 2.996-3.49 3.547-.011.007-1.07.597-2.105.606-.024 0-2.41-.077-4.392-2.209C1.755 10.753.871 7.589 1.015 3.376c1.125-.065 4.009-.417 6.971-2.267 2.635 1.803 5.809 2.181 7 2.26.053 1.567-.04 3.006-.275 4.283a.501.501 0 0 0 .984.182c.272-1.476.363-3.148.271-4.969Z"/></svg>