<!-- SPDX-FileCopyrightText: © 2025 Schneider Electric SPDX-License-Identifier: LicenseRef-Proprietary -->
<svg xmlns="http://www.w3.org/2000/svg" viewBox="0 0 16 16"><path d="M11 11.5a.5.5 0 0 0-.5-.5h-5a.5.5 0 0 0 0 1h5a.5.5 0 0 0 .5-.5Z"/><path d="M12.606 1.114a.5.5 0 1 0-.466.884C13.361 2.641 14 3.401 14 3.821v6.766c-.453.617-2.685 3.462-6.026 4.401C4.597 14.38 2.395 11.01 2 10.363V3.5C2 2.644 4.534 1 8 1q.893 0 1.777.175L6.762 5.7a.501.501 0 0 0 .521.767l2.463-.528-3.071 3.062H3.5a.5.5 0 0 0 0 1h9a.5.5 0 0 0 0-1H8.091l3.564-3.553a.5.5 0 0 0-.458-.843l-2.921.626 2.734-4.103a.5.5 0 0 0-.359-.774h-.002C6.266-.83 1 1.257 1 3.5v6.992a.5.5 0 0 0 .069.261c.162.286 2.636 4.551 6.84 5.239q.044.008.09.008h.026a.5.5 0 0 0 .114-.019c4.159-1.118 6.85-4.919 6.86-5.233V3.821c0-.907-.894-1.919-2.393-2.708Z"/><path d="M7.346 13a.5.5 0 0 0 0 1h1.438a.5.5 0 0 0 0-1z"/></svg>