<!-- SPDX-FileCopyrightText: © 2025 Schneider Electric SPDX-License-Identifier: LicenseRef-Proprietary -->
<svg xmlns="http://www.w3.org/2000/svg" viewBox="0 0 16 16"><path d="M14.938 4.063A.5.5 0 0 0 15 3.821C15 2.136 11.704 0 8 0S1 2.137 1 3.821v6.916a.5.5 0 0 0 .027.174c.099.305 1.392 3.977 6.245 5.076a.5.5 0 0 0 .111.013h.013a.5.5 0 0 0 .462-.31l2.717-6.6a.5.5 0 0 0-.629-.661l-2.727.964A868 868 0 0 1 9.95 3.718a.5.5 0 1 0-.899-.437C7.096 7.312 6.246 9.067 5.95 9.877a1 1 0 0 0-.063.064l.031.025c-.186.542-.085.605.085.715.141.089.312.1.456.04l2.765-.978-2.128 5.169c-3.77-1.019-4.922-3.771-5.097-4.25V3.821c0-.841 2.534-2.821 6-2.821s6 1.98 6 2.821v6.553c-.165.357-1.048 2.007-3.769 3.286a.5.5 0 1 0 .426.904c3.458-1.626 4.28-3.827 4.313-3.92a.5.5 0 0 0 .029-.169c0-3.863 0-5.609-.062-6.414Z"/></svg>