<!-- SPDX-FileCopyrightText: © 2025 Schneider Electric SPDX-License-Identifier: LicenseRef-Proprietary -->
<svg xmlns="http://www.w3.org/2000/svg" viewBox="0 0 16 16"><path d="M8.021 16a.5.5 0 0 1-.11-.013c-1.649-.373-3.204-1.212-4.752-2.562a.5.5 0 0 1-.031-.724c4.291-4.442 4.31-4.46 4.319-4.469.553-.479 1.13-.564 1.561-.24.062.048.106.087.146.127.589.589.77 1.16.857 1.435l.044.067.241.244 1.749-1.749-.342-.342c.004.022-.625-.231-1.121-.727-.345-.345-.562-.736-.644-1.161a1.7 1.7 0 0 0-.49-.879c-.461-.461-1.223-.817-2.039-.954-.937-.156-1.976-.199-3.244.539a.5.5 0 0 1-.503-.865c1.548-.898 2.848-.839 3.911-.661 1.013.169 1.978.63 2.581 1.233.406.406.663.875.765 1.395q.066.341.37.645c.357.357.828.539.833.541a.8.8 0 0 1 .289.186l.476.476a.8.8 0 0 1 .238.571c0 .217-.083.42-.236.573l-2.019 2.019a.814.814 0 0 1-1.066.068 14 14 0 0 1-.46-.453l-.094-.095c-.107-.107-.146-.229-.191-.372-.073-.229-.194-.612-.611-1.029-.048-.031-.157-.002-.327.145l-3.901 4.04c1.259 1.021 2.518 1.672 3.831 1.983 1.914-.247 5.062-2.375 5.951-4.402V3.821C14.002 2.98 11.467 1 8.001 1c-.66 0-1.286.072-1.867.194l-.021.005q-.143.03-.283.064c-2.299.566-3.824 1.901-3.829 2.555h0v5.431L6.15 5.145a.5.5 0 1 1 .703.711l-5.002 4.947a.49.49 0 0 1-.544.105.5.5 0 0 1-.308-.461V3.819h0C1.001 2.405 3.201.791 5.904.22l.058-.009A10 10 0 0 1 7.999 0c3.704 0 7 2.137 7 3.821v6.871a.5.5 0 0 1-.036.188c-.99 2.433-4.678 4.888-6.891 5.116z"/></svg>