<!-- SPDX-FileCopyrightText: © 2025 Schneider Electric SPDX-License-Identifier: LicenseRef-Proprietary -->
<svg xmlns="http://www.w3.org/2000/svg" viewBox="0 0 16 16"><path d="M15.964 2.868a.5.5 0 0 0-.494-.475c-.042 0-4.139-.062-7.164-2.289a.495.495 0 0 0-.591-.016C4.17 2.424.58 2.385.543 2.393c-.25.023-.494.207-.508.475-.558 11.001 5.573 12.828 7.482 13.125l.047.005.04.002a.5.5 0 0 0 .458-.299.6.6 0 0 0 .041-.164v-.047l.003-4.412a.5.5 0 0 0-.009-.094.5.5 0 0 0-.418-.499 2.13 2.13 0 0 1-1.392-.868 2.13 2.13 0 0 1-.37-1.597 2.147 2.147 0 0 1 2.467-1.762 2.13 2.13 0 0 1 1.391.868 2.15 2.15 0 0 1-.583 3.046.5.5 0 0 0 .535.845 3.2 3.2 0 0 0 .712-.627l.942.57-.353.57a.514.514 0 0 0 .874.541l1.252-2.021a.514.514 0 0 0-.873-.541l-.358.579-.965-.584c.077-.198.139-.403.175-.616a3.1 3.1 0 0 0-.178-1.645l1.23-.675.317.591a.513.513 0 1 0 .904-.486l-.564-1.051v-.001q0 0 0 0l-.56-1.043a.513.513 0 0 0-.904.486l.322.6-1.269.697a3.1 3.1 0 0 0-1.829-1.075l.032-1.528.67.021h.016a.513.513 0 0 0 .016-1.026l-1.193-.037s0 0 0 0 0 0 0 0L6.96 2.679a.525.525 0 0 0-.528.497.51.51 0 0 0 .497.529l.68.021-.033 1.552a3.15 3.15 0 0 0-1.833.949l-1.318-.799.353-.57a.514.514 0 0 0-.873-.541L2.653 6.338a.514.514 0 0 0 .873.541l.358-.578 1.296.786a3 3 0 0 0-.245.768 3.1 3.1 0 0 0 .084 1.368l-1.001.558-.345-.643a.514.514 0 0 0-.905.485l1.124 2.096a.514.514 0 1 0 .905-.485l-.294-.548.95-.53.024.042c.405.568.975.977 1.632 1.178l-.003 3.511C5.042 14.364.718 12.208 1.017 3.378c1.125-.065 4.009-.418 6.971-2.275 2.636 1.81 5.81 2.189 6.999 2.269.244 7.101-2.467 9.929-4.812 11.05a.5.5 0 0 0 .432.902c2.669-1.275 5.766-4.473 5.36-12.457Z"/></svg>