<!-- SPDX-FileCopyrightText: © 2025 Schneider Electric SPDX-License-Identifier: LicenseRef-Proprietary -->
<svg xmlns="http://www.w3.org/2000/svg" viewBox="0 0 16 16"><path d="M14.932 3.821h.067C14.999 2.137 11.703 0 8 0S1 2.137 1 3.821V10.5q0 .072.02.141c.05.171 1.283 4.2 6.211 5.337a.5.5 0 0 0 .145.021h1.595a.5.5 0 0 0 .498-.457l.341-4.047c.505-.272 1.109-.807 1.109-1.592 0-.289-.074-.749-.16-1.282-.078-.488-.167-1.041-.163-1.394.068-1.117-.524-1.495-1.109-1.6a.7.7 0 0 1-.134-.379 1.91 1.91 0 0 0 .435-1.923c-.16-.486-.5-.881-.957-1.112a1.9 1.9 0 0 0-1.462-.11c-.486.16-.881.5-1.112.956-.31.613-.267 1.35.112 1.923a.5.5 0 0 0 .833-.551.92.92 0 0 1 1.18-1.327c.219.111.382.3.458.533a.91.91 0 0 1-.184.895.5.5 0 0 0-.251.304c-.095.326-.106 1.027.455 1.589l.017.017a.5.5 0 0 0 .322.155c.382.031.427.143.4.571l-.005.134c0 .359.091.928.18 1.479.072.45.147.915.147 1.124 0 .488-.753.791-.759.793a.5.5 0 0 0-.323.426l-.327 3.879H7.438c-4.062-.945-5.27-4.075-5.44-4.579V3.821c0-.842 2.534-2.822 6.001-2.822S14 2.98 14 3.828v6.57c-.154.329-.92 1.744-3.176 2.966a.498.498 0 1 0 .476.877c2.92-1.58 3.64-3.489 3.669-3.57a.5.5 0 0 0 .03-.17c0-4.442 0-6.056-.067-6.679Z"/><path d="M6.271 7.259c0-.511.044-.605.322-.678a.499.499 0 1 0-.253-.965c-1.069.28-1.068 1.203-1.067 1.686 0 .253-.04.627-.079 1.008-.057.548-.11 1.067-.083 1.359a2.21 2.21 0 0 0 .832 1.765l.117 1.751a.5.5 0 0 0 .498.466h.034a.5.5 0 0 0 .465-.531l-.133-1.986a.5.5 0 0 0-.253-.401c-.023-.014-.568-.338-.562-1.099-.021-.245.033-.763.08-1.219.043-.42.084-.832.084-1.152Z"/></svg>