<!-- SPDX-FileCopyrightText: © 2025 Schneider Electric SPDX-License-Identifier: LicenseRef-Proprietary -->
<svg xmlns="http://www.w3.org/2000/svg" viewBox="0 0 16 16"><path d="m15.997 4.927.002-.023a.5.5 0 0 0-.47-.528c-.25-.014-2.001-.093-3.179.489a1.7 1.7 0 0 0-1.128-.218 1.7 1.7 0 0 0-1.124.678 1.7 1.7 0 0 0-.315 1.274c.049.323.186.619.394.861l-2.612 3.544a1.295 1.295 0 0 1-2.084-1.536l.649-.88.084.763a.5.5 0 1 0 .994-.11l-.225-2.034a.498.498 0 0 0-.899-.242L4.676 8.874a2.28 2.28 0 0 0-.421 1.704c.091.605.414 1.14.907 1.503a2.28 2.28 0 0 0 1.704.422 2.28 2.28 0 0 0 1.503-.906l2.654-3.601c.229.062.469.079.712.041a1.7 1.7 0 0 0 1.124-.678 1.7 1.7 0 0 0 .315-1.274 1.7 1.7 0 0 0-.127-.438c.573-.202 1.354-.276 1.953-.283v.209c-.419 5.106-3.031 8.621-6.995 9.419C6.159 14.699.697 13.01 1.012 3.385c1.125-.065 4.005-.419 6.964-2.281 3.239 2.231 7.292 2.293 7.468 2.295h.005a.5.5 0 0 0 .005-1c-.042 0-4.144-.062-7.165-2.301a.5.5 0 0 0-.574-.015C4.179 2.424.593 2.406.541 2.399c-.248.018-.494.206-.508.475-.557 11.028 5.915 12.832 7.911 13.122a.6.6 0 0 0 .166-.004c4.478-.856 7.427-4.721 7.89-10.377v-.633q0-.029-.003-.054Zm-3.942 1.839a.7.7 0 0 1-.469.283.711.711 0 0 1-.682-1.131.72.72 0 0 1 .573-.291l-.024.044a.5.5 0 0 0 .741.635.7.7 0 0 1-.139.459Z"/></svg>