<!-- SPDX-FileCopyrightText: © 2025 Schneider Electric SPDX-License-Identifier: LicenseRef-Proprietary -->
<svg xmlns="http://www.w3.org/2000/svg" viewBox="0 0 16 16"><path d="M15.37 4.782a.55.55 0 0 0-.175-.504.51.51 0 0 0-.516-.073c-3.74 1.584-5.856 4.147-6.694 5.355-.484-.678-1.24-1.657-1.78-1.987a.501.501 0 0 0-.522.854c.45.275 1.405 1.565 1.901 2.314a.5.5 0 0 0 .855-.035c.019-.034 1.829-3.275 5.941-5.267a16 16 0 0 1-.047.995c-.119 1.502-.268 3.371-1.429 5.256-.888 1.442-3.052 2.416-4.345 2.997q-.315.14-.56.256-.245-.115-.56-.256c-1.293-.582-3.457-1.555-4.345-2.997-1.162-1.886-1.31-3.754-1.429-5.258a15.7 15.7 0 0 1 .068-3.142c1.032-.15 3.107-.657 4.241-1.192q.432-.201.805-.367c.505-.226.914-.409 1.22-.602.307.193.715.376 1.22.602q.373.165.805.367c1.328.626 3.945 1.213 4.668 1.236.251.03.507-.207.516-.483a.5.5 0 0 0-.483-.516c-.622-.02-3.094-.585-4.274-1.142a41 41 0 0 0-.823-.375C9.055.562 8.558.339 8.366.162a.523.523 0 0 0-.744.009c-.198.176-.688.395-1.252.647q-.382.169-.823.375c-1.18.557-3.652 1.122-4.274 1.142a.5.5 0 0 0-.479.427 16.7 16.7 0 0 0-.127 3.75c.121 1.524.287 3.611 1.575 5.702 1.049 1.704 3.389 2.756 4.786 3.385.291.131.542.243.729.339a.5.5 0 0 0 .503-.011c.185-.094.428-.203.709-.329 1.397-.629 3.737-1.681 4.786-3.385 1.288-2.091 1.454-4.178 1.575-5.703.047-.602.062-1.211.039-1.728Z"/></svg>