<!-- SPDX-FileCopyrightText: © 2025 Schneider Electric SPDX-License-Identifier: LicenseRef-Proprietary -->
<svg xmlns="http://www.w3.org/2000/svg" viewBox="0 0 16 16"><path d="M16.05 5.545a.5.5 0 0 0-.406-.56c-4.726-.856-6.812.01-7.601.548-1.604-1.271-3.617-.827-3.708-.807a.5.5 0 0 0-.387.487v5.422a.5.5 0 0 0 .452.498c.022.002 2.2.219 3.351 1.007a.51.51 0 0 0 .605-.032c.01-.008.985-.8 3.201-.937a.5.5 0 0 0 .469-.499V7.246a.5.5 0 0 0-1 0v2.966c-1.578.167-2.55.637-3.008.918-1.008-.568-2.372-.831-3.071-.936V5.649c.583-.048 1.706-.009 2.589.762v3.062a.5.5 0 0 0 1 0V6.415c.441-.322 2.133-1.236 6.491-.522-.505 4.933-3.111 8.316-7.021 9.1C6.148 14.7.641 13.012.958 3.385c1.13-.065 4.035-.417 7.019-2.282 3.262 2.233 7.345 2.294 7.522 2.296.276-.03.501-.219.504-.495a.5.5 0 0 0-.495-.505c-.042 0-4.184-.068-7.221-2.302a.5.5 0 0 0-.571-.015C4.146 2.428.509 2.389.486 2.399c-.256.018-.494.206-.508.475-.561 11.029 5.956 12.832 7.967 13.122a.6.6 0 0 0 .164-.004c4.509-.856 7.478-4.72 7.943-10.336a.5.5 0 0 0-.003-.11Z"/></svg>