<!-- SPDX-FileCopyrightText: © 2025 Schneider Electric SPDX-License-Identifier: LicenseRef-Proprietary -->
<svg xmlns="http://www.w3.org/2000/svg" viewBox="0 0 16 16"><path d="M15.927 10.239A.5.5 0 0 0 15.5 10h-2.238l-2.058-5.942a.5.5 0 0 0-.44-.335l-.382-.025-.418-1.346A.5.5 0 0 0 9.486 2H7.803a.5.5 0 0 0-.491.6l.229 1.124h-.054a.5.5 0 0 0-.488.501v3.778l-1.31.007c-.059.004-1.44.102-2.207 1.243a.5.5 0 1 0 .83.556c.485-.722 1.425-.801 1.41-.801L7.501 9a.5.5 0 0 0 .498-.5V4.713l.163-.003a.5.5 0 0 0 .479-.6L8.415 3h.702l.411 1.323a.5.5 0 0 0 .445.351l.393.025 2.065 5.965c.07.201.26.336.473.336h1.777l-1.022 2H1.686c-.574-.3-.683-.712-.675-1l8.148-.003c1.841-.209 2.247-1.368 2.204-1.952-.021-.27-.226-.502-.522-.455a.507.507 0 0 0-.476.517c0 .076-.021.75-1.263.894H.604a.5.5 0 0 0-.466.318c-.237.607-.288 1.939 1.224 2.636q.1.045.209.046h12.396a.5.5 0 0 0 .445-.272l1.534-3a.5.5 0 0 0-.019-.488Z"/></svg>