<!-- SPDX-FileCopyrightText: © 2025 Schneider Electric SPDX-License-Identifier: LicenseRef-Proprietary -->
<svg xmlns="http://www.w3.org/2000/svg" viewBox="0 0 16 16"><path d="M9.088 13.971a.5.5 0 0 0-.558.435c-.03.24-.255.595-.643.595a.643.643 0 0 1-.642-.642c0-.377.347-.642.535-.642a.5.5 0 0 0 0-1c-.725 0-1.535.702-1.535 1.642 0 .905.736 1.642 1.642 1.642s1.545-.748 1.635-1.472a.5.5 0 0 0-.435-.558Z"/><path d="M7.92 10.438h-.046c-1.096 0-2.115.521-2.875 1.471a.501.501 0 0 0 .39.812.5.5 0 0 0 .391-.188c.735-.919 1.574-1.085 2.126-1.096a2.66 2.66 0 0 1 2.064 1.06.5.5 0 0 0 .797-.603 3.67 3.67 0 0 0-2.848-1.455Z"/><path d="M7.983 7.588c-1.789-.011-3.453.767-4.76 2.225a.5.5 0 1 0 .744.668c1.112-1.24 2.51-1.907 4.003-1.893 1.451.02 2.809.688 3.826 1.883a.5.5 0 0 0 .762-.648c-1.189-1.397-2.856-2.211-4.574-2.234Z"/><path d="M14.694 1H1.306C.586 1 0 1.642 0 2.43v9.141c0 .788.586 1.43 1.306 1.43H2.5a.5.5 0 0 0 0-1H1.306c-.166 0-.306-.196-.306-.43V2.43c0-.229.143-.43.306-.43h13.388c.163 0 .306.201.306.43v9.141c0 .233-.14.43-.306.43H13.5a.5.5 0 0 0 0 1h1.194c.72 0 1.306-.642 1.306-1.43V2.43C16 1.642 15.414 1 14.694 1Z"/></svg>