<!-- SPDX-FileCopyrightText: © 2025 Schneider Electric SPDX-License-Identifier: LicenseRef-Proprietary -->
<svg xmlns="http://www.w3.org/2000/svg" viewBox="0 0 16 16"><path d="M15.5 4.183a.5.5 0 0 0 0-1A2.687 2.687 0 0 1 12.817.5a.5.5 0 0 0-1 0A3.687 3.687 0 0 0 15.5 4.183ZM9.605 6.474a.59.59 0 0 0 .054-.7.6.6 0 0 0-.641-.197c-.479.178-1.604.86-1.99 2.024-.788-.984-1.732-2.719-.729-4.626a.6.6 0 0 0-.063-.637.59.59 0 0 0-.625-.143c-.098.041-.979.431-1.73 1.449-.627.846-1.794 2.42-1.001 4.763.053.201.074.394.072.572-.446-.885-1.227-1.346-2.317-1.375a.6.6 0 0 0-.406.095.58.58 0 0 0-.184.654c.637 1.475.538 2.237.433 3.045-.077.593-.157 1.207.071 2.031.34 1.229 1.027 1.949 2.338 2.421.544.144 1.08.149 1.483.149h.052c.124 0 .539-.028.65-.388.081-.245-.066-.573-.303-.676-.163-.07-.323-.272-.427-.538a2.07 2.07 0 0 1 .051-1.556c.154-.347.313-.566.482-.8.255-.354.517-.715.716-1.431.091.135.171.249.242.353.174.252.298.43.437.67.411.715.506 1.58.221 2.013a.5.5 0 0 0 .835.55c.502-.763.426-1.993-.188-3.062a10 10 0 0 0-.481-.741 34 34 0 0 1-.907-1.37.5.5 0 0 0-.92.211c-.157 1.381-.425 1.751-.764 2.221a5 5 0 0 0-.585.979 3.1 3.1 0 0 0-.069 2.324q.04.102.086.196a3 3 0 0 1-.313-.061c-.965-.349-1.418-.818-1.671-1.733-.174-.63-.113-1.096-.043-1.636.095-.729.2-1.541-.219-2.815.659.225.992.799 1.106 1.839a.5.5 0 0 0 .8.343c.569-.433 1.004-1.54.681-2.773-.636-1.881.257-3.084.894-3.944q.095-.128.193-.239c-.454 2.654 1.662 4.734 2.159 5.179a.5.5 0 0 0 .83-.439c-.09-.659.189-1.16.528-1.514-.024.733.157 1.797.847 3.291.422 1.011.473 1.882.151 2.588-.387.847-1.724 1.617-2.804 1.975a.5.5 0 0 0 .315.949c.272-.09 2.676-.926 3.399-2.508.443-.971.396-2.111-.145-3.406-1.237-2.679-.594-3.578-.597-3.578Z"/><path d="M15.5 5.522A5.03 5.03 0 0 1 10.478.5a.5.5 0 0 0-1 0A6.03 6.03 0 0 0 15.5 6.522a.5.5 0 0 0 0-1Z"/></svg>