<!-- SPDX-FileCopyrightText: © 2025 Schneider Electric SPDX-License-Identifier: LicenseRef-Proprietary -->
<svg xmlns="http://www.w3.org/2000/svg" viewBox="0 0 16 16"><path d="M3.026 8H.974A.975.975 0 0 0 0 8.974V15.5a.5.5 0 0 0 1 0L.974 9 3 8.974V15.5a.5.5 0 0 0 1 0V8.974A.975.975 0 0 0 3.026 8Zm3.478.776za.5.5 0 0 1 .5.5V15.5a.5.5 0 0 1-.5.5h0a.5.5 0 0 1-.499-.499V9.276a.5.5 0 0 1 .5-.5ZM7.863 6l1.124-.037V7.1a.501.501 0 0 0 1.001 0V5.96a.97.97 0 0 0-.965-.961h-1.16a.5.5 0 0 0 0 1Z"/><path d="M15.026 0h-2.053a.975.975 0 0 0-.974.974v8.688a.5.5 0 0 0 1 0l-.026-8.661 2.026-.026v13.319L.854.146a.502.502 0 0 0-.708.708l14.999 14.999.012.011h0v.002a.5.5 0 0 0 .327.135h.029a.52.52 0 0 0 .327-.135q0 0 0 0h0l.021-.021h0s0 0 0 0a.5.5 0 0 0 .135-.327h0V.974A.975.975 0 0 0 15.022 0ZM12.5 14.546a.5.5 0 0 0-.5.5v.454a.5.5 0 0 0 1 0v-.454a.5.5 0 0 0-.5-.5Zm-3.006-3.524za.5.5 0 0 0-.499.501l.006 3.978a.5.5 0 0 0 .5.499h0a.5.5 0 0 0 .499-.501l-.006-3.978a.5.5 0 0 0-.5-.499Z"/></svg>