<!-- SPDX-FileCopyrightText: © 2025 Schneider Electric SPDX-License-Identifier: LicenseRef-Proprietary -->
<svg xmlns="http://www.w3.org/2000/svg" viewBox="0 0 16 16"><path d="M15.505 4.021a.5.5 0 0 0 0-1A2.524 2.524 0 0 1 12.983.499a.499.499 0 1 0-1 0 3.526 3.526 0 0 0 3.522 3.522Zm-9.113 6.597c-.141-.028-.6-.168-.596-.793-.021-.251.034-.78.082-1.247.044-.428.086-.848.086-1.133 0-.328.149-.507.5-.598a.5.5 0 1 0-.253-.967c-.792.207-1.247.778-1.247 1.566 0 .259-.041.641-.081 1.03-.058.56-.112 1.089-.085 1.387-.009.897.534 1.388 1.01 1.608l.1 3.523-5.412-.012h0a.5.5 0 0 0-.001 1l5.927.013h0a.5.5 0 0 0 .5-.514l-.125-4.386a.51.51 0 0 0-.406-.477Z"/><path d="m15.495 15.001-6.072-.006.094-3.565c.474-.265 1.024-.769 1.024-1.501 0-.237-.037-.677-.077-1.143-.042-.493-.089-1.019-.089-1.344 0-1.178-.723-1.52-1.202-1.616a.6.6 0 0 1-.099-.295q.18-.191.3-.429a1.83 1.83 0 0 0-2.202-2.561 1.82 1.82 0 0 0-1.061.912 1.84 1.84 0 0 0 .107 1.834.5.5 0 0 0 .834-.552.832.832 0 0 1 .431-1.245.82.82 0 0 1 .631.047.83.83 0 0 1 .251 1.283.5.5 0 0 0-.246.301c-.089.306-.102.956.403 1.488a.5.5 0 0 0 .345.181c.383.031.505.189.505.654 0 .343.047.902.093 1.427.037.432.073.837.073 1.057 0 .364-.513.644-.69.712a.5.5 0 0 0-.325.456l-.115 4.386a.5.5 0 0 0 .5.512l6.584.006h0a.5.5 0 0 0 0-1Zm.01-9.761A4.747 4.747 0 0 1 10.763.498a.5.5 0 0 0-.999.001 5.75 5.75 0 0 0 5.742 5.742.5.5 0 0 0 0-1Z"/></svg>