<!-- SPDX-FileCopyrightText: © 2025 Schneider Electric SPDX-License-Identifier: LicenseRef-Proprietary -->
<svg xmlns="http://www.w3.org/2000/svg" viewBox="0 0 16 16"><path d="M8.951 11.92a.5.5 0 0 0-.365.605.6.6 0 0 1-.581.738.598.598 0 0 1 0-1.195.5.5 0 0 0 0-1 1.598 1.598 0 0 0 0 3.195 1.6 1.6 0 0 0 1.552-1.978.5.5 0 0 0-.605-.365Zm4.471-4.305c-1.379-1.621-3.312-2.566-5.305-2.593h-.088c-2.01 0-3.938.915-5.434 2.583a.5.5 0 1 0 .744.668c1.323-1.475 3.027-2.292 4.765-2.251 1.729.023 3.347.819 4.556 2.241a.499.499 0 1 0 .762-.648Z"/><path d="M8.043 8.369c-1.296-.061-2.473.585-3.36 1.692a.501.501 0 0 0 .39.812.5.5 0 0 0 .391-.188c.884-1.105 1.872-1.374 2.565-1.317a3.21 3.21 0 0 1 2.492 1.276.499.499 0 1 0 .797-.603 4.22 4.22 0 0 0-3.275-1.673Z"/></svg>