<!-- SPDX-FileCopyrightText: © 2025 Schneider Electric SPDX-License-Identifier: LicenseRef-Proprietary -->
<svg xmlns="http://www.w3.org/2000/svg" viewBox="0 0 16 16"><path d="M9.088 13.971a.5.5 0 0 0-.558.435c-.03.24-.255.595-.643.595a.643.643 0 0 1-.642-.642c0-.377.347-.642.535-.642a.5.5 0 0 0 0-1c-.725 0-1.535.702-1.535 1.642 0 .905.736 1.642 1.642 1.642s1.545-.748 1.635-1.472a.5.5 0 0 0-.435-.558ZM2.5 12H1.294C1.131 12 1 11.843 1 11.648V2.352C1 2.158 1.132 2 1.294 2H8.5a.5.5 0 0 0 0-1H1.294C.58 1 0 1.606 0 2.352v9.297c0 .745.581 1.352 1.294 1.352H2.5a.5.5 0 0 0 0-1Zm13-5a.5.5 0 0 0-.5.5v4.149c0 .193-.132.351-.293.351H13.5a.5.5 0 0 0 0 1h1.207C15.42 13 16 12.395 16 11.649V7.5a.5.5 0 0 0-.5-.5Zm-7.581 3.362c-1.081.015-2.15.508-2.92 1.47a.501.501 0 0 0 .39.812.5.5 0 0 0 .391-.188c.734-.918 1.574-1.084 2.126-1.095.799.011 1.57.406 2.064 1.059a.5.5 0 0 0 .797-.603 3.67 3.67 0 0 0-2.848-1.455Z"/><path d="M7.983 7.513c-1.789-.039-3.453.767-4.76 2.225a.5.5 0 1 0 .744.668c1.113-1.24 2.51-1.937 4.003-1.893 1.451.019 2.809.688 3.826 1.883a.5.5 0 0 0 .762-.648c-1.189-1.397-2.856-2.212-4.574-2.234Zm7.51-1.469a.5.5 0 0 0 .354-.854l-2.171-2.165L15.855.854a.5.5 0 1 0-.707-.707L12.967 2.32 10.809.17a.5.5 0 0 0-.707 0 .5.5 0 0 0 0 .707l2.155 2.147-2.148 2.141a.5.5 0 1 0 .707.707l2.15-2.143 2.174 2.167a.5.5 0 0 0 .353.146Z"/></svg>