<!-- SPDX-FileCopyrightText: © 2025 Schneider Electric SPDX-License-Identifier: LicenseRef-Proprietary -->
<svg xmlns="http://www.w3.org/2000/svg" viewBox="0 0 16 16"><path d="M15.5 4.186a.5.5 0 0 0 0-1A2.69 2.69 0 0 1 12.814.5a.5.5 0 0 0-1 0A3.69 3.69 0 0 0 15.5 4.186ZM3.518 13.112 2.271 14.87c-.101.095-.501.158-.612.048-.186-.185-.159-.437-.07-.552l1.614-2.396a.5.5 0 1 0-.829-.558L.783 13.777c-.367.462-.403 1.28.171 1.851.229.228.556.35.931.35q.05 0 .103-.003c.346-.021.806-.155 1.076-.495l1.27-1.786a.5.5 0 0 0-.815-.58Z"/><path d="M15.5 5.526A5.03 5.03 0 0 1 10.474.5a.5.5 0 0 0-1 0A6.033 6.033 0 0 0 15.5 6.526a.5.5 0 0 0 0-1ZM4.438 10.112c-.081-.115-.146-.587-.137-1.003V6.384a.5.5 0 0 0-.786-.41l-1.385.965a.5.5 0 0 0-.214.391l-.067 1.753c0 .096-.107.396-.356.396-.312 0-.492-.39-.493-.488l.117-2.28 1.869-1.753a.5.5 0 0 0-.685-.729L.286 6.12a.5.5 0 0 0-.157.339L.001 8.965c0 .632.568 1.514 1.492 1.514.885 0 1.356-.811 1.356-1.376l.058-1.485.395-.275v1.755c-.006.258-.003 1.135.319 1.592.253.359 3.397 4.559 3.531 4.737a.5.5 0 0 0 .801-.6c-.033-.044-3.27-4.366-3.515-4.714Z"/><path d="M15.488 15h-5.253l-3.143-4.816-.099-2.938 1.221 1.283c.517.557 1.312.666 1.934.265.63-.405.83-.987.535-1.693l-.238-.421a.5.5 0 0 0-.083-.109c-.016-.016-1.619-1.613-2.093-2.259-.521-.71-1.301-.929-1.447-.963l-.066-.009q.264-.575.2-1.436C6.956.749 6.109.002 4.798.002c-.905 0-1.716.718-1.888 1.67-.148.825.024 1.47.529 1.973a.502.502 0 0 0 .707-.709c-.266-.264-.341-.589-.251-1.087.085-.475.482-.848.903-.848.769 0 1.158.303 1.158.902l.007.125c.033.439.013.979-.444 1.255a.5.5 0 0 0 .192.924l.917.119c.005.001.521.147.837.577.477.649 1.866 2.049 2.146 2.329l.175.304c.059.144.098.239-.179.417-.243.157-.506.062-.663-.108L6.812 5.606a.502.502 0 0 0-.862.362l.147 4.391a.5.5 0 0 0 .081.257l3.27 5.011a.5.5 0 0 0 .151.149.5.5 0 0 0 .419.227h5.47a.5.5 0 0 0 0-1Z"/></svg>