<!-- SPDX-FileCopyrightText: © 2025 Schneider Electric SPDX-License-Identifier: LicenseRef-Proprietary -->
<svg xmlns="http://www.w3.org/2000/svg" viewBox="0 0 16 16"><path d="M11.367.944c.629.323.931.575 1.184 1.626a.501.501 0 0 0 .972-.234C13.196.977 12.694.501 11.824.054a.5.5 0 0 0-.457.889ZM1.562 5.378a.5.5 0 0 0 .5-.5c0-1.321.743-3.018 2.837-3.45a.5.5 0 0 0 .388-.59.497.497 0 0 0-.59-.388C2.186.968 1.062 3.048 1.062 4.878a.5.5 0 0 0 .5.5Zm7.059-3.976c2.094.433 2.837 2.129 2.837 3.45a.5.5 0 0 0 1 0c0-1.831-1.124-3.91-3.634-4.429a.5.5 0 0 0-.203.978ZM2.153.97a.5.5 0 0 0-.457-.889C.825.529.323 1.004-.003 2.363a.5.5 0 0 0 .971.234c.252-1.052.555-1.303 1.184-1.626ZM14.631 6H8.596c-.942 0-1.372.755-1.372 1.456C7.224 8.079 7.661 9 8.596 9h1.421v5.225c0 1.647 1.178 1.775 1.539 1.775.703 0 1.461-.556 1.461-1.775v-3.762a.5.5 0 0 0-1 0v3.762c0 .72-.353.775-.461.775-.188 0-.539 0-.539-.775V8.5a.5.5 0 0 0-.5-.5H8.596c-.327 0-.372-.539-.372-.544C8.224 7 8.495 7 8.596 7h6.035c.355 0 .386.436.386.567 0 .072-.019.433-.386.433h-2.114a.5.5 0 0 0 0 1h2.114c1.01 0 1.386-.879 1.386-1.435C16.013 6.812 15.579 6 14.631 6Z"/><path d="M8.517 11h-6.5v-1h4.5a.5.5 0 0 0 0-1h-2.5V6.49C4.017 3 6.009 3 6.75 3c1.502 0 2.294.611 2.646 2.042a.499.499 0 1 0 .97-.239C9.901 2.917 8.718 2 6.661 2 4.31 2 3.015 3.595 3.015 6.49V9h-1.5a.5.5 0 0 0-.5.5v2a.5.5 0 0 0 .5.5h7a.5.5 0 0 0 0-1Z"/></svg>