<!-- SPDX-FileCopyrightText: © 2025 Schneider Electric SPDX-License-Identifier: LicenseRef-Proprietary -->
<svg xmlns="http://www.w3.org/2000/svg" viewBox="0 0 16 16"><path d="M13.061 15H1v-1h1.5a.5.5 0 0 0 .5-.5V8.049c0-.842.097-1.604.287-2.265a.5.5 0 0 0-.961-.277C2.11 6.258 2 7.113 2 8.049V13H.5a.5.5 0 0 0-.5.5v2a.5.5 0 0 0 .5.5h12.561a.5.5 0 0 0 0-1ZM5.701 3.303c.71-.448 1.6-.675 2.644-.675C12.193 2.628 13 5.576 13 8.049v2.855a.5.5 0 0 0 1 0V8.049c0-4.081-2.062-6.421-5.655-6.421-1.236 0-2.305.279-3.177.829a.5.5 0 1 0 .533.845Zm10.152 11.843-15-15a.5.5 0 0 0-.707.708l15 15a.5.5 0 0 0 .708 0 .5.5 0 0 0 0-.707Z"/><path d="M11.15 14a.5.5 0 0 0 0-1H4.5a.5.5 0 0 0 0 1z"/></svg>