<!-- SPDX-FileCopyrightText: © 2025 Schneider Electric SPDX-License-Identifier: LicenseRef-Proprietary -->
<svg xmlns="http://www.w3.org/2000/svg" viewBox="0 0 16 16"><path d="M12.183 7.5a.667.667 0 1 1-1.335-.001.667.667 0 0 1 1.335.001Zm3.834 4a4.48 4.48 0 0 0-2.011-3.736.5.5 0 0 0-.552.832 3.49 3.49 0 0 1 1.563 2.904c0 1.93-1.57 3.5-3.5 3.5s-3.5-1.57-3.5-3.5c0-.601.155-1.194.45-1.714a.5.5 0 0 0-.869-.494 4.5 4.5 0 0 0-.581 2.207c0 2.481 2.019 4.5 4.5 4.5s4.5-2.019 4.5-4.5Zm-10.003 0a.5.5 0 0 0-.5-.5H2.017v-1h3.499a.5.5 0 0 0 0-1H4.017V5.392A2.395 2.395 0 0 1 6.409 3h.617a2.395 2.395 0 0 1 2.392 2.392v.105a.5.5 0 0 0 1 0v-.105A3.396 3.396 0 0 0 7.026 2h-.617a3.396 3.396 0 0 0-3.392 3.392V9h-1.5a.5.5 0 0 0-.5.5v2a.5.5 0 0 0 .5.5h3.997a.5.5 0 0 0 .5-.5Zm5.81-.051a.5.5 0 0 0 .086-.701L9.68 7.893a.5.5 0 0 0-.787.616l2.23 2.855a.5.5 0 0 0 .702.086ZM2.062 4.878c0-1.321.743-3.018 2.837-3.45a.5.5 0 0 0 .388-.59.497.497 0 0 0-.59-.388C2.186.968 1.062 3.048 1.062 4.878a.5.5 0 0 0 1 0Zm10.396-.026c0-1.831-1.124-3.91-3.634-4.429a.5.5 0 0 0-.203.978c2.094.433 2.837 2.129 2.837 3.45a.5.5 0 0 0 1 0ZM.969 2.596c.252-1.052.555-1.303 1.184-1.626a.5.5 0 0 0-.457-.889C.825.529.323 1.004-.003 2.363a.5.5 0 0 0 .971.234Zm12.185.344a.5.5 0 0 0 .369-.603C13.196.978 12.694.502 11.824.055a.5.5 0 0 0-.457.889c.629.323.931.575 1.184 1.626a.5.5 0 0 0 .603.369Z"/></svg>