<!-- SPDX-FileCopyrightText: © 2025 Schneider Electric SPDX-License-Identifier: LicenseRef-Proprietary -->
<svg xmlns="http://www.w3.org/2000/svg" viewBox="0 0 16 16"><path d="M11.553 14.211a.5.5 0 0 0-.5.5V15H6.527v-3.071a.5.5 0 0 0-.146-.354L4.238 9.432a.5.5 0 0 0-.707.707l1.997 1.997V15H1V1h4.526v3.302l-.584-.584a.5.5 0 0 0-.707.707L5.31 5.5 4.235 6.575a.5.5 0 0 0 .707.707l1.075-1.075 1.075 1.075a.5.5 0 0 0 .707-.707L6.724 5.5l1.075-1.075a.5.5 0 0 0-.707-.707l-.565.565V1h4.526v2.632a.5.5 0 0 0 1 0V.5a.5.5 0 0 0-.5-.5H.5a.5.5 0 0 0-.5.5v15a.5.5 0 0 0 .5.5h11.053a.5.5 0 0 0 .5-.5v-.789a.5.5 0 0 0-.5-.5Z"/><path d="m15.649 8.283-2.987-2.988a.5.5 0 0 0-.707.707l2.682 2.682H8.395a.5.5 0 0 0 0 1h6.131l-2.57 2.571a.5.5 0 0 0 .708.707l2.987-2.987c.189-.19.309-.432.341-.694a.4.4 0 0 0 .01-.096v-.056c0-.319-.124-.62-.351-.846Z"/></svg>