<!-- SPDX-FileCopyrightText: © 2025 Schneider Electric SPDX-License-Identifier: LicenseRef-Proprietary -->
<svg xmlns="http://www.w3.org/2000/svg" viewBox="0 0 16 16"><path d="m11.942 9.262-.866-.442.441-.866a.5.5 0 1 0-.89-.454l-.574 1.126-1.699.552V7.392l.895-.895a.5.5 0 0 0-.707-.707l-.688.688-.688-.688a.5.5 0 0 0-.707.707l.895.895v1.786l-1.699-.552L5.082 7.5a.5.5 0 0 0-.891.453l.441.866-.866.441a.5.5 0 0 0 .454.891l1.126-.574 1.699.553-1.049 1.445-1.25.197a.501.501 0 0 0 .156.988l.96-.152.152.96a.5.5 0 0 0 .988-.156l-.197-1.25 1.049-1.444 1.05 1.444-.198 1.25a.501.501 0 0 0 .988.156l.152-.96.96.152a.501.501 0 0 0 .156-.988l-1.249-.197-1.05-1.445 1.699-.552 1.126.574a.5.5 0 0 0 .454-.891Z"/><path d="M13.628 5.354A3.78 3.78 0 0 0 9.879 2.01a3.78 3.78 0 0 0-3.078 1.592 3.74 3.74 0 0 0-4.146 2.177A2.66 2.66 0 0 0 0 8.436a2.64 2.64 0 0 0 2.071 2.591.5.5 0 0 0 .597-.377.5.5 0 0 0-.378-.598A1.67 1.67 0 0 1 .999 8.435a1.658 1.658 0 0 1 1.915-1.637.5.5 0 0 0 .552-.343 2.75 2.75 0 0 1 2.627-1.921c.269 0 .536.039.792.116a.5.5 0 0 0 .579-.232 2.78 2.78 0 0 1 2.414-1.409c1.529 0 2.773 1.244 2.774 2.828a.5.5 0 0 0 .5.476 1.847 1.847 0 0 1 .342 3.664.5.5 0 0 0-.4.583c.05.271.306.451.583.399a2.846 2.846 0 0 0 2.322-2.798 2.85 2.85 0 0 0-2.372-2.808Z"/></svg>