<!-- SPDX-FileCopyrightText: © 2025 Schneider Electric SPDX-License-Identifier: LicenseRef-Proprietary -->
<svg xmlns="http://www.w3.org/2000/svg" viewBox="0 0 16 16"><path d="m8.834 4.208.882-.602 1.357.438-.779 1.248-1.144.14a.5.5 0 0 0 .121.993l.937-.114.237 1a.5.5 0 0 0 .601.371.5.5 0 0 0 .371-.602l-.292-1.233.762-1.219.949 1.231-.248 1.146a.5.5 0 1 0 .977.212l.197-.906.91.153a.5.5 0 0 0 .166-.986l-1.188-.199-.965-1.251 1.52-.446 1.017.674a.5.5 0 0 0 .552-.834l-.833-.551.382-.718a.5.5 0 1 0-.883-.469l-.496.934-1.562.459.077-1.403.921-.791a.5.5 0 0 0-.65-.759l-.755.647-.736-.644a.5.5 0 1 0-.658.753l.879.769-.08 1.447-1.368-.441-.422-1.049a.5.5 0 1 0-.927.373l.359.894-.751.513a.5.5 0 1 0 .564.826Zm4.694 4.803c-1.326 0-2.404 1.074-2.404 2.385q-.012.716.161 1.001c.145.235.463.332.697.188.236-.144.321-.43.178-.665-.022-.068-.039-.31-.036-.515 0-.769.63-1.394 1.404-1.394s1.404.625 1.404 1.394c0 .757-.505 1.914-1.929 2.685-1.4.758-3.577 1.067-5.826.835-1.421-.149-4.123-1.023-5.307-3.256 1.376.967 2.825 1.144 3.572 1.235.669.081 2.706.33 3.908-.732.562-.497.846-1.192.846-2.067 0-1.335-.978-2.319-2.378-2.393-1.3-.071-2.419 1.024-2.499 2.434a.5.5 0 0 0 .471.527c.275.033.512-.195.527-.471.048-.847.698-1.557 1.449-1.491.882.046 1.43.58 1.43 1.394 0 .584-.166 1.016-.509 1.318-.574.507-1.625.669-3.142.486-.761-.094-2.179-.267-3.44-1.319-.727-.606-.977-1.656-1.062-2.254a14 14 0 0 1-.041-.396L1 7.886h0c-.017-.22-.172-.438-.386-.487a.5.5 0 0 0-.561.264.8.8 0 0 0-.04.297H.002q0 .021.015.173.01.195.047.439c.069.574.205 1.472.448 2.364.954 3.49 4.574 4.774 6.562 4.982.52.055 1.038.081 1.546.081 1.877 0 3.624-.362 4.86-1.031 1.808-.979 2.452-2.482 2.452-3.563a2.4 2.4 0 0 0-2.404-2.394Z"/></svg>