<!-- SPDX-FileCopyrightText: © 2025 Schneider Electric SPDX-License-Identifier: LicenseRef-Proprietary -->
<svg xmlns="http://www.w3.org/2000/svg" viewBox="0 0 16 16"><path d="M12.692 4.995a.5.5 0 1 0 .898.437c.73-1.5.212-2.416-.204-3.153-.353-.622-.523-.975-.248-1.57A.5.5 0 0 0 12.23.29c-.502 1.089-.065 1.861.285 2.481.378.668.677 1.196.177 2.223Zm2.045 0a.498.498 0 0 0 .449.719.5.5 0 0 0 .449-.281c.731-1.5.213-2.417-.204-3.153-.353-.622-.523-.975-.249-1.571a.5.5 0 0 0-.908-.418c-.502 1.089-.064 1.861.286 2.481.379.668.677 1.195.177 2.222Zm-6.42 6.234-1.38.422-1.466-.779 1.242-.87 1.487.262a.5.5 0 1 0 .173-.984l-.501-.089.264-.185a.5.5 0 1 0-.573-.819l-.261.183.087-.496a.5.5 0 1 0-.984-.174l-.261 1.481L5 9.982V8.565L6.024 7.54a.502.502 0 0 0-.708-.708L5 7.149V6.5a.5.5 0 0 0-1 0v.668l-.3-.323a.5.5 0 0 0-.733.681l1.032 1.112v1.452l-1.442-.767-.443-1.447a.5.5 0 1 0-.957.293l.15.49-.152-.081a.5.5 0 1 0-.469.883l.145.077-.478.146a.5.5 0 0 0 .292.957l1.435-.438 1.481.787-1.34.938-1.49-.263a.5.5 0 0 0-.174.984l.505.09-.145.102a.5.5 0 1 0 .573.818l.138-.096-.087.492a.5.5 0 0 0 .405.579.495.495 0 0 0 .579-.405l.261-1.478 1.211-.849v1.408l-1.046 1.127a.5.5 0 1 0 .733.68l.313-.337v.719a.5.5 0 0 0 1 0v-.672l.304.304a.5.5 0 0 0 .707-.707l-1.011-1.011v-1.66l1.388.738.458 1.502a.5.5 0 0 0 .956-.293l-.167-.545.213.113a.5.5 0 1 0 .469-.883l-.134-.071.423-.129a.5.5 0 0 0-.292-.957Zm2.329-6.234a.498.498 0 0 0 .449.719.5.5 0 0 0 .449-.281c.731-1.5.214-2.417-.201-3.153-.351-.622-.521-.975-.247-1.571a.5.5 0 0 0-.908-.418c-.501 1.088-.065 1.86.284 2.48.377.668.675 1.196.174 2.224Z"/><path d="M15.563 10.413c-.029-.004-2.922-.407-5.673-3.072C7.168 4.702 6.828.505 6.824.463a.495.495 0 0 0-.535-.462.5.5 0 0 0-.462.535c.013.187.366 4.614 3.368 7.522 3.003 2.91 6.111 3.33 6.242 3.347a.5.5 0 0 0 .125-.993Z"/></svg>