<!-- SPDX-FileCopyrightText: © 2025 Schneider Electric SPDX-License-Identifier: LicenseRef-Proprietary -->
<svg xmlns="http://www.w3.org/2000/svg" viewBox="0 0 16 16"><path d="M10.234 8.895h2.303c1.626 0 2.853-1.158 2.853-2.693a2.85 2.85 0 0 0-3.507-2.767A4.65 4.65 0 0 0 7.397.001a4.66 4.66 0 0 0-4.21 2.676A3.194 3.194 0 0 0 0 5.861c0 1.73 1.374 3.034 3.196 3.034h1.163l1.203 3.114a.5.5 0 0 0 .932-.359L5.216 8.34l-.026-.058a.5.5 0 0 0-.487-.387H3.196C1.944 7.895 1 7.02 1 5.861c0-1.29 1.183-2.314 2.452-2.168a.496.496 0 0 0 .527-.323 3.655 3.655 0 0 1 3.417-2.369 3.64 3.64 0 0 1 3.612 3.161.5.5 0 0 0 .715.385q.384-.186.813-.187a1.85 1.85 0 0 1 1.853 1.842c0 .981-.779 1.693-1.853 1.693H7.297a.5.5 0 0 0-.5.5v.003a.5.5 0 0 0 .034.194l1.837 4.704a.5.5 0 0 0 .931-.363L8.022 8.895h1.136l2.661 6.788a.5.5 0 0 0 .932-.365l-2.519-6.423Z"/><path d="M15.978 10.724a.494.494 0 0 0-.625-.33l-.594.183v-.611a.5.5 0 0 0-1 0v.614l-.618-.187a.5.5 0 1 0-.289.957l.584.177-.398.539a.5.5 0 0 0 .804.594l.412-.558.396.553a.5.5 0 1 0 .812-.584l-.392-.544.576-.178a.5.5 0 0 0 .33-.625Z"/></svg>