<!-- SPDX-FileCopyrightText: © 2025 Schneider Electric SPDX-License-Identifier: LicenseRef-Proprietary -->
<svg xmlns="http://www.w3.org/2000/svg" viewBox="0 0 16 16"><path d="M4.699 12.899a.5.5 0 0 0 .116-.697l-.174-.243.236-.073a.499.499 0 1 0-.295-.955l-.251.077v-.259a.5.5 0 0 0-1 0v.262l-.269-.081a.5.5 0 0 0-.291.957l.238.072-.175.238a.501.501 0 0 0 .806.592l.184-.251.176.246a.5.5 0 0 0 .698.115Zm4.321-.301-.174-.243.236-.073a.5.5 0 0 0-.295-.955l-.251.077v-.259a.5.5 0 0 0-1 0v.263l-.268-.082a.501.501 0 0 0-.291.957l.238.072-.175.238a.5.5 0 1 0 .806.592l.185-.251.177.246a.5.5 0 0 0 .698.115.5.5 0 0 0 .115-.697Zm-2.682 1.34-.25.077v-.259a.5.5 0 0 0-1 0v.263l-.268-.082a.501.501 0 0 0-.291.957l.238.072-.175.238a.5.5 0 1 0 .806.592l.185-.251.176.246a.5.5 0 0 0 .698.115.5.5 0 0 0 .116-.697l-.174-.243.236-.073a.5.5 0 0 0-.295-.955Zm4.788 0-.251.077v-.259a.5.5 0 0 0-1 0v.263l-.268-.082a.501.501 0 0 0-.291.957l.238.072-.175.238a.5.5 0 1 0 .806.592l.185-.251.176.246a.5.5 0 0 0 .698.115.5.5 0 0 0 .115-.697l-.174-.243.236-.073c.265-.082.412-.361.33-.625s-.361-.414-.625-.33Zm3.954-9.475c-.4-.468-.916-.783-1.451-.886a3 3 0 0 0-1.277.026A4.83 4.83 0 0 0 7.69 0a4.84 4.84 0 0 0-4.376 2.805h-.003C1.83 2.805.478 3.968.096 5.572c-.291 1.222.042 2.851 1.845 3.761.456.23.98.347 1.56.347h1.735a.5.5 0 0 0 0-1H3.502c-.422 0-.795-.081-1.11-.239C.821 7.648.944 6.333 1.07 5.804c.271-1.139 1.234-1.999 2.241-1.999q.137 0 .27.016a.495.495 0 0 0 .528-.323A3.83 3.83 0 0 1 7.691 1a3.824 3.824 0 0 1 3.786 3.333.498.498 0 0 0 .716.385 1.96 1.96 0 0 1 1.248-.16c.313.061.627.258.881.555.673.789.857 1.678.506 2.44A1.96 1.96 0 0 1 13.05 8.68H7.608a.5.5 0 0 0 0 1h5.442c1.153 0 2.208-.67 2.687-1.708.515-1.115.27-2.427-.654-3.509Zm-2.171 6.378-.25.078v-.259a.5.5 0 0 0-1 0v.262l-.268-.082a.5.5 0 0 0-.291.957l.238.072-.176.238a.501.501 0 0 0 .806.592l.185-.251.177.246a.5.5 0 0 0 .697.115.5.5 0 0 0 .115-.697l-.174-.243.236-.073a.5.5 0 1 0-.297-.955Z"/></svg>