<!-- SPDX-FileCopyrightText: © 2025 Schneider Electric SPDX-License-Identifier: LicenseRef-Proprietary -->
<svg xmlns="http://www.w3.org/2000/svg" viewBox="0 0 16 16"><path d="M14.534 16a.5.5 0 0 1-.354-.853l.138-.138h-.402a3.43 3.43 0 0 1-2.236-.828c-1.238 1.062-3.236 1.062-4.472 0-1.239 1.062-3.233 1.062-4.472 0a3.43 3.43 0 0 1-2.236.828.5.5 0 0 1 0-1 2.43 2.43 0 0 0 1.855-.859.5.5 0 0 1 .38-.176h0c.146 0 .286.064.38.176.932 1.092 2.78 1.092 3.711 0a.5.5 0 0 1 .38-.176h0c.147 0 .286.064.381.176.927 1.09 2.78 1.092 3.71 0a.52.52 0 0 1 .762 0 2.43 2.43 0 0 0 1.855.859h.352l-.088-.088a.5.5 0 0 1 .707-.707l.966.966a.5.5 0 0 1 0 .708l-.966.967a.5.5 0 0 1-.354.146Zm0-3.894a.5.5 0 0 1-.354-.853l.138-.138h-.402a3.44 3.44 0 0 1-2.236-.827c-1.238 1.062-3.237 1.061-4.472 0-1.238 1.062-3.234 1.062-4.472 0a3.43 3.43 0 0 1-2.236.827.5.5 0 0 1 0-1c.715 0 1.392-.312 1.855-.858a.5.5 0 0 1 .38-.176h0c.146 0 .286.064.38.176.93 1.092 2.782 1.092 3.711 0a.5.5 0 0 1 .38-.176h0c.147 0 .286.064.381.176.927 1.091 2.781 1.094 3.71 0a.52.52 0 0 1 .762 0 2.43 2.43 0 0 0 1.855.858h.352l-.088-.088a.5.5 0 0 1 .707-.707l.966.967a.5.5 0 0 1 0 .708l-.966.966a.5.5 0 0 1-.354.146ZM9.552 7.819a.5.5 0 0 1-.494-.578l.182-1.146-.937-1.29-.937 1.29.181 1.146a.501.501 0 0 1-.988.156l-.136-.855-.856.136a.5.5 0 0 1-.156-.988l1.145-.181.937-1.291-1.516-.492-1.033.526a.5.5 0 1 1-.454-.89l.772-.394-.393-.772a.5.5 0 0 1 .891-.454l.526 1.033 1.516.493V1.674l-.82-.82a.5.5 0 0 1 .707-.707l.613.613.613-.613a.5.5 0 0 1 .707.707l-.82.82v1.594l1.516-.493.526-1.033a.5.5 0 0 1 .892.454l-.394.772.772.394a.499.499 0 1 1-.454.89l-1.033-.526-1.516.492.937 1.291 1.145.181a.501.501 0 0 1-.156.988l-.855-.136-.136.855a.5.5 0 0 1-.493.422Z"/></svg>