<!-- SPDX-FileCopyrightText: undefined SPDX-License-Identifier: undefined -->
<svg xmlns="http://www.w3.org/2000/svg" viewBox="0 0 16 16"><path d="M14.315 13H10.5a.5.5 0 0 1-.5-.5v-7a.5.5 0 0 1 1 0v2.402l.003.055c0 .382.211.729.55.904.337.175.742.148 1.055-.073s.474-.593.421-.971a1.01 1.01 0 0 0-.668-.819.5.5 0 0 1-.306-.638.505.505 0 0 1 .638-.305 2 2 0 0 1 1.326 1.626 2.01 2.01 0 0 1-.833 1.923 2.01 2.01 0 0 1-2.093.146L11 9.699v2.302h3.315a.685.685 0 0 0 .685-.685V4.685a.685.685 0 0 0-.685-.684H1.684A.685.685 0 0 0 1 4.685v6.631c0 .378.307.685.684.685H8.5a.5.5 0 0 1 0 1H1.684A1.686 1.686 0 0 1 0 11.316V4.685c0-.929.755-1.684 1.684-1.684h12.631c.929 0 1.685.755 1.685 1.684v6.631c0 .929-.756 1.685-1.685 1.685ZM5.5 11a.5.5 0 0 1-.5-.5v-.786l-.098.055a2.03 2.03 0 0 1-2.116-.146 2.03 2.03 0 0 1-.843-1.946 2.04 2.04 0 0 1 1.34-1.644.5.5 0 1 1 .334.942 1.039 1.039 0 0 0-.254 1.831c.319.226.734.254 1.079.075.32-.166.527-.479.558-.833V5.501a.5.5 0 0 1 1 0v2.393l.004.063q0 .063-.004.127v2.417a.5.5 0 0 1-.5.5Z"/></svg>