<!-- SPDX-FileCopyrightText: undefined SPDX-License-Identifier: undefined -->
<svg xmlns="http://www.w3.org/2000/svg" viewBox="0 0 16 16"><path d="M14.316 13H10.5a.5.5 0 0 1-.5-.5v-7a.5.5 0 0 1 .5-.5h2a.5.5 0 0 1 .5.5v4.949a.5.5 0 0 1-1 0V6h-1v6h3.316a.685.685 0 0 0 .684-.685V4.684A.685.685 0 0 0 14.316 4H1.684A.685.685 0 0 0 1 4.684v6.631c0 .378.307.685.684.685H8.5a.5.5 0 0 1 0 1H1.684A1.686 1.686 0 0 1 0 11.315V4.684C0 3.755.755 3 1.684 3h12.632C15.245 3 16 3.755 16 4.684v6.631c0 .929-.755 1.685-1.684 1.685ZM5.5 11a.5.5 0 0 1-.5-.5V6H4v4.5a.5.5 0 0 1-1 0v-5a.5.5 0 0 1 .5-.5h2a.5.5 0 0 1 .5.5v5a.5.5 0 0 1-.5.5Z"/></svg>