<!-- SPDX-FileCopyrightText: © 2025 Schneider Electric SPDX-License-Identifier: LicenseRef-Proprietary -->
<svg xmlns="http://www.w3.org/2000/svg" viewBox="0 0 16 16"><path d="M15.761 7.788a.93.93 0 0 0-.656-.287h-1.963a.5.5 0 0 0-.499.53c.024.405-.371.921-.825 1.02-.387.129-.987-.116-1.202-.529-.226-.336-.147-.981.195-1.296.229-.265.755-.38 1.126-.243a.5.5 0 0 0 .346-.938c-.762-.28-1.721-.055-2.185.483-.67.608-.816 1.8-.342 2.5.411.806 1.522 1.257 2.324.986.715-.149 1.327-.799 1.51-1.519l1.407-.02c-.076 1.606-.909 3.393-2.137 4.571-1.246 1.196-3.104 1.944-4.753 1.95-1.617.078-3.506-.645-4.79-1.803-1.283-1.157-2.178-2.954-2.284-4.599-.177-1.617.396-3.541 1.459-4.9S5.285 1.313 6.921 1.09c1.603-.291 3.564.144 4.997 1.107 1.396.938 2.497 2.49 2.873 4.05a.5.5 0 0 0 .604.369.5.5 0 0 0 .369-.603c-.433-1.794-1.692-3.574-3.287-4.646C10.812.248 8.615-.236 6.764.103c-1.887.256-3.826 1.396-5.06 2.975C.469 4.656-.169 6.812.036 8.681c.122 1.898 1.122 3.912 2.61 5.255 1.427 1.287 3.419 2.065 5.236 2.065q.12 0 .239-.005c1.903 0 3.984-.841 5.431-2.229 1.446-1.388 2.383-3.431 2.445-5.312a.88.88 0 0 0-.237-.667Z"/><path d="M4.819 6.979a.5.5 0 1 0 .346-.938c-.763-.282-1.721-.056-2.185.483-.67.608-.816 1.8-.342 2.5.33.646 1.11 1.064 1.819 1.064q.264.001.505-.08c.886-.185 1.616-1.138 1.562-2.041a.5.5 0 1 0-.998.06c.024.405-.37.92-.825 1.019-.389.128-.988-.116-1.202-.528-.226-.336-.147-.98.195-1.295.231-.266.755-.38 1.125-.243Z"/></svg>