<!-- SPDX-FileCopyrightText: © 2025 Schneider Electric SPDX-License-Identifier: LicenseRef-Proprietary -->
<svg xmlns="http://www.w3.org/2000/svg" viewBox="0 0 16 16"><path d="M11.605 11a.5.5 0 0 0 0-1H9.501a.5.5 0 0 0-.5.5v2a.5.5 0 0 0 .5.5h4a.5.5 0 0 0 .5-.5v-2a.5.5 0 0 0-1 0V12h-3v-1z"/><path d="M15.044.956A3.28 3.28 0 0 0 12.737 0H9.5a.5.5 0 0 0 0 1h3.237c.596 0 1.179.242 1.6.663.428.428.663.996.663 1.601v9.474c0 .596-.241 1.179-.663 1.6a2.27 2.27 0 0 1-1.6.663H3.263a2.25 2.25 0 0 1-1.601-.663 2.28 2.28 0 0 1-.663-1.6V3.263c0-.604.235-1.173.663-1.601A2.25 2.25 0 0 1 3.263.999H7v1h-.5a.5.5 0 0 0-.5.5v5a.5.5 0 0 0 .5.5h3a.5.5 0 0 0 .5-.5V2.5a.5.5 0 0 0-1 0V7H7V3h.5a.5.5 0 0 0 .5-.5v-2a.5.5 0 0 0-.5-.5H3.263C2.392 0 1.572.339.956.956A3.24 3.24 0 0 0 0 3.263v9.474c0 .86.348 1.7.956 2.307A3.25 3.25 0 0 0 3.264 16h9.474c.859 0 1.7-.349 2.307-.956a3.28 3.28 0 0 0 .956-2.307V3.263c0-.872-.34-1.691-.956-2.308Z"/><path d="M4.5 11a.5.5 0 0 0 0-1h-2a.5.5 0 0 0-.5.5v2a.5.5 0 0 0 .5.5h4a.5.5 0 0 0 .5-.5v-2a.5.5 0 0 0-1 0V12H3v-1z"/></svg>