<!-- SPDX-FileCopyrightText: undefined SPDX-License-Identifier: undefined -->
<svg xmlns="http://www.w3.org/2000/svg" viewBox="0 0 16 16"><path d="M8.634 16q-.075 0-.149-.002a.5.5 0 0 1-.488-.5V13.5a.5.5 0 0 1 .5-.5h.5v-3h-1v2.5a.5.5 0 0 1-1 0v-3a.5.5 0 0 1 .5-.5h2a.5.5 0 0 1 .5.5v4a.5.5 0 0 1-.5.5h-.5v.986c1.318-.098 2.571-.727 3.818-1.911 1.272-1.208 2.123-3.053 2.168-4.7.126-1.667-.53-3.59-1.671-4.922S10.373 1.176 8.73 1.046c-1.657-.21-3.611.347-5 1.417S1.306 5.281 1.09 6.916c-.296 1.645.16 3.625 1.157 5.068.997 1.441 2.688 2.566 4.31 2.866a.5.5 0 1 1-.182.982c-1.896-.35-3.793-1.606-4.95-3.28C.268 10.877-.239 8.658.103 6.76.352 4.871 1.509 2.911 3.12 1.67 4.732.428 6.922-.193 8.833.051c1.898.15 3.915 1.206 5.239 2.751 1.323 1.546 2.056 3.702 1.91 5.625-.052 1.903-1.002 3.972-2.478 5.373-1.557 1.479-3.152 2.2-4.871 2.2Zm-4.04-7.756a.5.5 0 0 1-.271-.08L2.749 7.149a.5.5 0 1 1 .542-.84l1.136.733 1.492-2.539-.732-.472-.936 1.591a.502.502 0 0 1-.863-.507l1.2-2.04a.5.5 0 0 1 .702-.167l1.574 1.014a.5.5 0 0 1 .16.674l-2 3.4a.5.5 0 0 1-.431.247Zm6.837-.031a.5.5 0 0 1-.269-.921l1.136-.724-1.493-2.538-.698.445.955 1.624a.5.5 0 1 1-.862.507L9 4.566a.5.5 0 0 1 .163-.675l1.542-.983a.503.503 0 0 1 .699.169l2 3.4a.5.5 0 0 1-.162.675l-1.543.983a.5.5 0 0 1-.269.078Z"/></svg>