<!-- SPDX-FileCopyrightText: undefined SPDX-License-Identifier: undefined -->
<svg xmlns="http://www.w3.org/2000/svg" viewBox="0 0 16 16"><path d="M8.003 15.22c-1.144 0-2.281-.229-3.262-.694-2.223-.933-4.107-3.261-4.56-5.652-.55-2.313.185-4.989 1.875-6.795A3.23 3.23 0 0 1 4.494.997h7.071c.875-.014 1.854.416 2.443 1.096 1.02 1.131 1.616 2.243 1.87 3.491a.499.499 0 1 1-.979.199c-.22-1.081-.726-2.015-1.64-3.028-.403-.466-1.099-.778-1.685-.758H4.487a2.24 2.24 0 0 0-1.687.75C1.319 4.329.68 6.646 1.159 8.664c.399 2.103 2.039 4.129 3.991 4.949 1.934.917 4.536.79 6.351-.304 1.881-1.02 3.312-3.198 3.5-5.307v-.03h-1.3a.5.5 0 0 1-.488-.609l-.012-.076c-.018-.22-.135-.444-.279-.535-.242-.188-.654-.18-.847-.017-.248.172-.366.575-.269.802a.76.76 0 0 0 .463.463.499.499 0 1 1-.337.941c-.506-.181-.924-.599-1.064-1.063-.267-.617 0-1.528.601-1.937.509-.439 1.458-.458 2.028-.006.317.195.572.587.667 1.036h.944a.92.92 0 0 1 .673.305c.21.227.237.669.215.834-.212 2.403-1.857 4.907-3.997 6.066-1.144.689-2.573 1.042-3.993 1.042Zm7.104-7.248h.006zm-5.374 4.474a.5.5 0 0 1-.127-.017c-.52-.136-.973-.516-1.153-.967-.319-.59-.133-1.521.43-1.981.468-.482 1.411-.583 2.02-.184.391.196.718.668.81 1.204a.5.5 0 1 1-.987.167c-.037-.217-.173-.43-.325-.508-.253-.162-.671-.119-.844.058-.232.193-.314.604-.198.823a.76.76 0 0 0 .502.421.5.5 0 0 1-.126.983Zm-4.701 0a.5.5 0 0 1-.266-.077c-.455-.287-.772-.785-.808-1.27-.126-.661.333-1.491 1.008-1.76.594-.316 1.523-.127 1.981.436.307.299.481.861.407 1.392a.5.5 0 0 1-.99-.138c.03-.218-.036-.463-.157-.583-.193-.232-.605-.317-.823-.2-.279.114-.482.481-.437.725.02.225.164.434.351.552a.498.498 0 0 1-.267.922Zm2.791-3.474a.5.5 0 0 1-.127-.016c-.52-.137-.973-.516-1.153-.967-.319-.591-.133-1.521.43-1.982.469-.482 1.412-.583 2.02-.183.383.192.719.675.809 1.203a.501.501 0 0 1-.987.167c-.037-.216-.173-.43-.325-.507-.252-.163-.671-.12-.845.058-.231.193-.313.604-.197.823a.76.76 0 0 0 .502.42.5.5 0 0 1-.126.984Zm-4.755 0a.5.5 0 0 1-.267-.077c-.454-.287-.771-.785-.807-1.269-.125-.662.333-1.492 1.009-1.76.593-.318 1.522-.129 1.98.436.313.305.483.854.407 1.392a.5.5 0 1 1-.99-.14c.031-.217-.035-.462-.157-.582-.192-.233-.604-.314-.822-.2-.28.115-.482.482-.438.726.02.224.165.434.351.552a.501.501 0 0 1-.267.923ZM9.664 5.05a.5.5 0 0 1-.491-.408c-.111-.598.272-1.293.837-1.518.489-.262 1.266-.104 1.649.368.069.065.155.19.219.332a.5.5 0 1 1-.911.412.3.3 0 0 0-.048-.073c-.121-.145-.372-.195-.49-.132-.174.072-.297.295-.272.427a.5.5 0 0 1-.492.591Zm-4.579 0a.5.5 0 0 1-.491-.408c-.111-.598.272-1.293.838-1.518.486-.262 1.265-.104 1.648.368.068.064.154.188.218.33a.5.5 0 1 1-.909.415.3.3 0 0 0-.049-.075c-.121-.145-.372-.196-.489-.132-.175.072-.298.295-.273.427a.5.5 0 0 1-.492.591Z"/></svg>