<!-- SPDX-FileCopyrightText: undefined SPDX-License-Identifier: undefined -->
<svg xmlns="http://www.w3.org/2000/svg" viewBox="0 0 16 16"><path d="M8.395 16a.5.5 0 0 1-.5-.5v-2a.5.5 0 0 1 .5-.5h.5v-1.474c0-.595-.449-1.079-1-1.079s-1 .484-1 1.079V13.5a.5.5 0 0 1-1 0v-1.974c0-1.146.897-2.079 2-2.079s2 .933 2 2.079V13.5a.5.5 0 0 1-.5.5h-.5v.981c1.592-.12 2.917-.836 4.348-2.326q.405-.42.667-.851c1.658-2.72 1.426-6-.593-8.357a6.97 6.97 0 0 0-4.596-2.41 6.97 6.97 0 0 0-4.993 1.418 6.97 6.97 0 0 0-2.643 4.467 6.97 6.97 0 0 0 1.159 5.06 6.97 6.97 0 0 0 4.325 2.87.5.5 0 0 1-.205.979 7.97 7.97 0 0 1-4.942-3.28A7.96 7.96 0 0 1 .096 6.769a7.96 7.96 0 0 1 3.021-5.105A7.96 7.96 0 0 1 8.823.042a7.96 7.96 0 0 1 5.253 2.754c2.27 2.65 2.546 6.479.687 9.529q-.319.522-.8 1.022c-1.76 1.834-3.477 2.651-5.568 2.651ZM11.5 8h-2a.5.5 0 0 1 0-1H11V4h-1v1.5a.5.5 0 0 1-1 0v-2a.5.5 0 0 1 .5-.5h2a.5.5 0 0 1 .5.5v4a.5.5 0 0 1-.5.5Zm-5 0h-2a.5.5 0 0 1 0-1H6V4H5v1.5a.5.5 0 0 1-1 0v-2a.5.5 0 0 1 .5-.5h2a.5.5 0 0 1 .5.5v4a.5.5 0 0 1-.5.5Z"/></svg>