<!-- SPDX-FileCopyrightText: © 2025 Schneider Electric SPDX-License-Identifier: LicenseRef-Proprietary -->
<svg xmlns="http://www.w3.org/2000/svg" viewBox="0 0 16 16"><path d="M14.1 2.627C13.236 2.077 9.57.354 9.414.28c-.746-.351-2.023 1.555-2.023 2.011 0 .546.686.931 2.04 1.142.158.024.263.055.33.082L7.682 6.219l-1.84-2.32c.122-.378.329-1.104.329-1.687C6.17 1.276 4.453.403 3.714.071a.472.472 0 0 0-.629.607c.272.666.309 1.037.312 1.173-.221.227-.555.485-.812.539-.199-.152-.578-.709-.844-1.253a.47.47 0 0 0-.409-.263c-.17-.021-.337.087-.423.239-.036.064-.876 1.582-.136 2.879.556.978 1.765 1.091 2.291 1.091L5.83 8.219l-4.541 5.232a.47.47 0 0 0 .041.658c.761.685 2.267 1.331 2.331 1.357a.47.47 0 0 0 .518-.1c.547-.548 2.753-3.47 3.627-4.635l1.343 1.588c-.144.477-.381 1.41-.235 1.957.241.905 2.402 1.693 2.735 1.693a.47.47 0 0 0 .458-.58l-.32-1.338c.226-.171.506-.35.729-.432.5.707.744.949.963 1.168a.5.5 0 0 0 .349.137.47.47 0 0 0 .338-.161c.096-.109.928-1.1.684-2.114-.071-.298-.37-1.294-1.216-1.603-.343-.124-.779-.111-1.203-.102a5 5 0 0 1-.615-.007c-.352-.368-1.594-1.674-2.315-2.526l2.457-3.378a.473.473 0 0 0-.104-.658.473.473 0 0 0-.658.104L8.524 8.152a.47.47 0 0 0 .013.571c.774.969 2.618 2.885 2.696 2.966a.46.46 0 0 0 .184.118c.283.099.647.088 1.04.078.307-.007.683-.019.855.045.302.109.529.55.622.938.063.263-.043.573-.179.83a12 12 0 0 1-.638-.863.47.47 0 0 0-.388-.204c-.742 0-1.613.742-1.78.891a.47.47 0 0 0-.146.461l.189.793c-.501-.229-1.08-.557-1.168-.742-.072-.271.099-1.078.299-1.669a.47.47 0 0 0-.087-.455L8.143 9.672a.46.46 0 0 0-.374-.167.47.47 0 0 0-.363.189c-.815 1.093-2.891 3.846-3.679 4.769-.351-.164-.939-.456-1.4-.771l4.485-5.168a.47.47 0 0 0-.002-.62L3.624 4.292a.46.46 0 0 0-.396-.157c-.014.002-1.231.101-1.636-.61-.19-.333-.206-.711-.157-1.046.266.383.591.74.924.842a.5.5 0 0 0 .138.021c.847 0 1.622-.875 1.708-.976a.5.5 0 0 0 .089-.157c.028-.084.081-.32.005-.769.511.311.896.62.933.772 0 .532-.258 1.345-.357 1.614a.47.47 0 0 0 .073.456l2.375 2.994a.47.47 0 0 0 .369.178.54.54 0 0 0 .373-.184l2.606-3.39a.5.5 0 0 0 .056-.093.77.77 0 0 0-.036-.677c-.174-.321-.538-.52-1.112-.608-.585-.091-.967-.22-1.162-.312.185-.317.582-.84.758-.983.721.341 3.705 1.757 4.423 2.214.626.398 1.084 1.963 1.04 2.206a.47.47 0 1 0 .666.666c.194-.195.266-.505.217-.948-.086-.787-.596-2.194-1.417-2.717Z"/></svg>