<!-- SPDX-FileCopyrightText: © 2025 Schneider Electric SPDX-License-Identifier: LicenseRef-Proprietary -->
<svg xmlns="http://www.w3.org/2000/svg" viewBox="0 0 16 16"><path d="M15.482 11.733h-.117c-.661-.004-1.052-.019-1.431-.505a.499.499 0 1 0-.789.613c.181.233.374.405.571.533a4.7 4.7 0 0 0-1.308 1.437 4.66 4.66 0 0 0-1.467-1.542c1.106-.632 1.956-1.819 1.956-2.991a.5.5 0 0 0-1 0c0 1.147-1.379 2.455-2.589 2.455a.5.5 0 0 0 0 1c1.143 0 2.601 1.552 2.601 2.767a.5.5 0 0 0 1 0c0-1.212 1.443-2.758 2.58-2.767h.01a.5.5 0 1 0-.018-1Z"/><path d="M13.126 8.036a.5.5 0 0 0 0-1c-2.099 0-3.923-1.094-5.003-3.002a.5.5 0 0 0-.87.494c.813 1.435 1.989 2.476 3.381 3.036-1.832.815-3.201 2.487-3.897 4.389-.663-1.915-1.982-3.602-3.808-4.409C5.447 6.471 7.192 3.758 7.192.502a.5.5 0 0 0-1 0c0 3.212-2.129 6.536-5.691 6.536a.5.5 0 0 0 0 1c3.534 0 5.721 3.505 5.721 6.753a.5.5 0 0 0 1 0c0-3.262 2.373-6.753 5.905-6.753Z"/></svg>