<!-- SPDX-FileCopyrightText: © 2025 Schneider Electric SPDX-License-Identifier: LicenseRef-Proprietary -->
<svg xmlns="http://www.w3.org/2000/svg" viewBox="0 0 16 16"><path d="M13.77 9.949a.5.5 0 0 0-.274.962c.639.182 1.401.513 1.401 1.062 0 .576-1.913 1.448-4.795 1.448s-4.797-.872-4.797-1.448c0-.556.747-.884 1.373-1.062a.5.5 0 0 0 .363-.481v-.758c.353-.069.576-.108.574-.108 1.17-.12 6.453-.945 6.721-.989.204-.051.745-.187.686-.681-.064-.543-.729-.55-1.403-.556-2.122.115-3.763-.312-4.902-.787.643-.005 1.14-.045 1.166-.048 1.313 0 2.195-.135 2.742-.266a.5.5 0 0 0 .998-.049v-.635a.502.502 0 0 0-.721-.448c-.008.004-.857.398-3.059.399-.536.044-1.956.103-2.843-.066v-.833c3.459.814 8.853.062 8.853-2.14 0-2.13-5.121-2.887-8.475-2.22a.5.5 0 1 0 .195.981 13 13 0 0 1 2.438-.225c2.911 0 4.842.882 4.842 1.465s-1.931 1.465-4.842 1.465-4.842-.882-4.842-1.465c0-.182.225-.417.601-.631a.5.5 0 0 0-.494-.87c-.915.519-1.106 1.102-1.106 1.5 0 .817.75 1.438 1.866 1.852a.5.5 0 0 0-.035.183v1.348a.5.5 0 0 0 .157.342q0 .001 0 0l.004.004c.097.089 1.588 1.42 4.388 1.949-1.299.194-2.57.377-3.071.429-.027.005-.188.033-.438.081v-.52a.5.5 0 0 0-1 0v.723c-.955.207-2.178.508-2.996.846l-.583.237c-1.423.574-2.452.989-2.459 2.242-.009 1.432 1.684 2.348 1.873 2.446.232.123 2.293 1.204 3.027 1.361a.5.5 0 1 0 .209-.978c-.451-.097-1.938-.83-2.774-1.271-.348-.18-1.34-.852-1.336-1.554.003-.525.374-.731 1.833-1.319l.592-.241c.692-.286 1.739-.551 2.613-.746v.183c-1.424.506-1.736 1.306-1.736 1.909 0 3.213 11.592 3.214 11.592 0 0-.648-.369-1.525-2.128-2.024Z"/></svg>