<!-- SPDX-FileCopyrightText: © 2025 Schneider Electric SPDX-License-Identifier: LicenseRef-Proprietary -->
<svg xmlns="http://www.w3.org/2000/svg" viewBox="0 0 16 16"><path d="M2.063 9.89a.454.454 0 1 0 .244.876.454.454 0 0 0-.244-.877Zm.336-.997a.455.455 0 1 0-.63-.13c.139.21.42.267.63.129Zm.259-1.788a.455.455 0 1 0-.484-.77.455.455 0 0 0 .484.77Zm.443-1.704a.454.454 0 1 0-.233-.877.454.454 0 0 0 .233.877Zm.762-1.593a.455.455 0 1 0-.001 0Zm1.069-1.447a.454.454 0 1 0-.027-.907.454.454 0 0 0 .027.907Zm-.411 4.846a.454.454 0 1 0-.906.068.454.454 0 0 0 .906-.068Zm-.687 1.639a.454.454 0 1 0-.36.835.454.454 0 0 0 .36-.835Zm1.055-.532a.455.455 0 1 0 .824.38.455.455 0 0 0-.823-.38Zm.239-2.956a.454.454 0 1 0-.84.344.454.454 0 0 0 .84-.344Zm.993.826a.455.455 0 1 0 .047.907.455.455 0 0 0-.047-.906ZM7.265 7.72a.453.453 0 1 0-.254.872.454.454 0 1 0 .255-.872Zm-2.19-3.68a.455.455 0 1 0 .9-.112.455.455 0 0 0-.899.112Zm1.488 1.026a.453.453 0 1 0 0-.001Zm.15-1.999a.455.455 0 1 0-.267-.87.455.455 0 0 0 .267.87Zm1.252-1.134a.454.454 0 1 0-.2-.885.454.454 0 0 0 .2.885Zm6.949 11.876v-.005a.5.5 0 0 0-.434-.556.513.513 0 0 0-.558.437c-.05.402-.113.902 0 1.856a.5.5 0 0 0 .496.441q.03.001.059-.004a.5.5 0 0 0 .438-.555c-.099-.834-.047-1.249 0-1.615Zm-2.845-6.782h.034c.381-.009.735-.166.998-.441a1.427 1.427 0 0 0-1.032-2.408h-.033a1.427 1.427 0 0 0-1.391 1.458c.02.774.655 1.391 1.423 1.391Zm-.01-1.849h.01a.425.425 0 0 1 .425.414h0a.42.42 0 0 1-.414.435c-.255.027-.429-.18-.435-.414a.425.425 0 0 1 .414-.435Z"/><path d="M15.383 4.827a1.88 1.88 0 0 0-.38-1.975 1.88 1.88 0 0 0-1.949-.507 1.87 1.87 0 0 0-1.9-.657A1.88 1.88 0 0 0 9.74 3.122a1.88 1.88 0 0 0-1.519 1.316 1.88 1.88 0 0 0 .535 1.941 1.88 1.88 0 0 0 .381 1.975.5.5 0 1 0 .73-.684.88.88 0 0 1-.057-1.141.5.5 0 0 0-.177-.752.88.88 0 0 1-.454-1.048.88.88 0 0 1 .958-.619.502.502 0 0 0 .564-.529.88.88 0 0 1 .681-.918.88.88 0 0 1 1.016.521.5.5 0 0 0 .74.224.88.88 0 0 1 1.136.13.88.88 0 0 1 .056 1.14.5.5 0 0 0 .177.752.88.88 0 0 1 .455 1.048.87.87 0 0 1-.959.62.498.498 0 0 0-.564.529.88.88 0 0 1-.68.918.875.875 0 0 1-1.017-.52.502.502 0 0 0-.942.049c-.19.641-.312 1.365-.39 2.111a3.4 3.4 0 0 0-.421-.308c-.844-.523-1.802-.611-2.441-.225a.5.5 0 0 0-.24.388c-.06.743.447 1.562 1.291 2.084.553.343 1.154.498 1.682.457-.008.513-.008 1.006-.008 1.455v1.446a.5.5 0 0 0 1 0v-1.446c0-1.405 0-3.24.273-4.761.414.263.927.359 1.439.243a1.88 1.88 0 0 0 1.413-1.435 1.88 1.88 0 0 0 1.52-1.317 1.88 1.88 0 0 0-.536-1.94Zm-6.258 6.447c-.408-.253-.664-.577-.768-.854.294-.025.698.055 1.106.307.408.253.664.577.768.854-.295.022-.698-.055-1.106-.307Zm-5.008.366H.868a.501.501 0 0 0-.42.772l.541.836v2.235a.5.5 0 0 0 1 0V13.1a.5.5 0 0 0-.08-.271l-.122-.188h1.421l-.122.192a.5.5 0 0 0-.078.268v2.383a.5.5 0 0 0 1 0v-2.237l.531-.838a.5.5 0 0 0-.422-.768Zm8.417 2.293a.5.5 0 0 0-.434.559c.019.147.053.423 0 .938a.5.5 0 0 0 .995.106 5 5 0 0 0 0-1.169.49.49 0 0 0-.559-.434Z"/><path d="M9.446 13.815a.5.5 0 0 0-.989-.146 7.7 7.7 0 0 0-.002 1.873.5.5 0 0 0 .496.44q.03.001.06-.004a.5.5 0 0 0 .438-.556 7 7 0 0 1-.002-1.607Zm-3.644.681a.5.5 0 0 0-.991-.135 5.2 5.2 0 0 0-.001 1.18.5.5 0 0 0 .496.442q.029 0 .058-.003a.5.5 0 0 0 .439-.555 4 4 0 0 1 0-.929Zm1.26-.561a.5.5 0 0 0-.428.562c0 .004.046.359-.002.944a.5.5 0 0 0 .457.54l.042.002a.5.5 0 0 0 .498-.458c.06-.707 0-1.146-.003-1.165a.49.49 0 0 0-.562-.425Z"/></svg>