<!-- SPDX-FileCopyrightText: © 2025 Schneider Electric SPDX-License-Identifier: LicenseRef-Proprietary -->
<svg xmlns="http://www.w3.org/2000/svg" viewBox="0 0 16 16"><path d="M14.51 3H1.49C.668 3 0 3.668 0 4.49V5.5a.5.5 0 0 0 1 0V4.49c0-.271.22-.49.49-.49h13.02c.271 0 .49.22.49.49v4.019a97 97 0 0 1-.468-1.428 58 58 0 0 0-.533-1.609l-.03-.07a.49.49 0 0 0-.327-.257.5.5 0 0 0-.616.444c-.188 1.763-.399 3.008-.576 3.721-.242-.647-.543-1.585-.753-2.237-.197-.611-.383-1.188-.53-1.601l-.03-.071a.5.5 0 0 0-.326-.256.49.49 0 0 0-.513.179.5.5 0 0 0-.104.265c-.189 1.763-.4 3.008-.577 3.721a59 59 0 0 1-.751-2.231 55 55 0 0 0-.533-1.606.5.5 0 0 0-.973.116c-.188 1.755-.397 2.997-.574 3.712a60 60 0 0 1-.747-2.222 55 55 0 0 0-.533-1.606.5.5 0 0 0-.972.116l-.017.159c-.086.809-.254 2.381-.448 3.384-.15-.496-.314-1.099-.444-1.573-.224-.819-.455-1.667-.65-2.216a.5.5 0 0 0-.386-.336.49.49 0 0 0-.497.205.5.5 0 0 0-.091.299v4.988a.5.5 0 0 0 1 0v-1.46c.433 1.505.609 1.802 1.011 1.847l.037.003h.034c.588-.007.869-.591 1.185-2.95.798 2.457 1.007 2.872 1.43 2.941a.5.5 0 0 0 .096.009H6.8c.348-.009.82-.016 1.278-3.001.837 2.58 1.033 2.946 1.486 2.997l.041.004q.01-.002.026 0c.373 0 .819-.017 1.278-3.002.838 2.58 1.034 2.947 1.487 2.998l.041.004q.013-.002.026 0c.373 0 .821-.017 1.278-3 .684 2.105.939 2.736 1.258 2.925v.694a.49.49 0 0 1-.49.49H1.49a.49.49 0 0 1-.49-.49v-1.01a.5.5 0 0 0-1 0v1.01c0 .821.668 1.49 1.49 1.49h13.02c.821 0 1.49-.669 1.49-1.49v-7.02c0-.822-.669-1.49-1.49-1.49Z"/></svg>