<!-- SPDX-FileCopyrightText: © 2025 Schneider Electric SPDX-License-Identifier: LicenseRef-Proprietary -->
<svg xmlns="http://www.w3.org/2000/svg" viewBox="0 0 16 16"><path d="M14.467 1H1.533a.5.5 0 0 0-.5.5v12.934a.5.5 0 0 0 .5.5h4.65a.5.5 0 0 0 .5-.5V14.4a.5.5 0 0 0-.035-.281c-.176-.403-.361-.666-.595-.998l-.115-.164c-.56-.804-.771-1.567-.628-2.271.072-.353.224-.653.394-.896l-.012.549a.501.501 0 0 0 1 .022l.092-4.467c0-.181.329-.181.329 0v3.085a.5.5 0 0 0 1 0V7.847c0-.112.147-.261.214-.261.09 0 .164.074.164.164v1.549a.5.5 0 0 0 1 0v-.876c0-.152.06-.277.146-.292.069 0 .077.115.077.165v.854a.5.5 0 0 0 .985.121c.018.063.028.145.032.237 0 .016.069 1.579-.859 3.318-.385.723-.422 1.56-.3 1.862a.54.54 0 0 0 .488.335q.087 0 .171-.032c.256-.104.389-.369.285-.625-.014-.076-.028-.569.238-1.069 1.066-1.998.979-3.771.976-3.835-.025-.652-.299-.984-.524-1.148a1.2 1.2 0 0 0-.504-.206c-.077-.576-.509-.977-1.152-.977a1 1 0 0 0-.222.025c-.239-.398-.731-.649-1.215-.547v-.714a1.165 1.165 0 0 0-2.33-.01l-.05 2.438c-.104.08-.206.175-.303.266-.533.5-2.129 2.334-.313 4.941l.117.167q.092.13.166.238H2.032V2h11.934v11.934h-2.18a.5.5 0 0 0 0 1h2.68a.5.5 0 0 0 .5-.5V1.5a.5.5 0 0 0-.5-.5Z"/><path d="M4.132 5.799a.5.5 0 0 0 1 0c0-.998.812-1.81 1.81-1.81s1.81.812 1.81 1.81a.5.5 0 0 0 1 0c0-1.549-1.26-2.81-2.81-2.81s-2.81 1.26-2.81 2.81Z"/></svg>