<!-- SPDX-FileCopyrightText: © 2025 Schneider Electric SPDX-License-Identifier: LicenseRef-Proprietary -->
<svg xmlns="http://www.w3.org/2000/svg" viewBox="0 0 16 16"><path d="M12.5 13a.5.5 0 0 0-.5.5V15h-1.558l.687-.738a.5.5 0 0 0-.732-.682L9.075 15H8.073l.687-.738a.5.5 0 0 0-.732-.682L6.706 15H5.705l.687-.738a.5.5 0 0 0-.732-.682L4.338 15H3.336l.687-.738a.5.5 0 0 0-.732-.682L1.969 15h-.947l1.422-1.528a.5.5 0 0 0-.732-.682l-.713.766v-.9l1.445-1.553a.5.5 0 0 0-.732-.682l-.713.766v-.9l1.445-1.553a.5.5 0 0 0-.732-.682l-.713.766v-.9l1.445-1.553a.5.5 0 0 0-.732-.682l-.713.766V4.998h1.5a.5.5 0 0 0 0-1H.5a.5.5 0 0 0-.5.5v11a.5.5 0 0 0 .5.5h12a.5.5 0 0 0 .5-.5v-2a.5.5 0 0 0-.5-.5Z"/><path d="M15.5 0h-11a.5.5 0 0 0-.5.5v11a.5.5 0 0 0 .5.5h11a.5.5 0 0 0 .5-.5V.5a.5.5 0 0 0-.5-.5ZM15 11H5V1h10z"/></svg>