<!-- SPDX-FileCopyrightText: © 2025 Schneider Electric SPDX-License-Identifier: LicenseRef-Proprietary -->
<svg xmlns="http://www.w3.org/2000/svg" viewBox="0 0 16 16"><path d="M15.741 7.627a.5.5 0 0 0-.509.017l-7.197 4.561L1 7.715V6.188l6.775 4.28a.5.5 0 0 0 .535 0l7.458-4.756a.497.497 0 0 0 .002-.841L8.33.08a.5.5 0 0 0-.54 0L2.257 3.626a.5.5 0 0 0 .54.842l5.262-3.374 6.515 4.193-6.532 4.166L.767 4.857A.5.5 0 0 0 0 5.28v2.709a.5.5 0 0 0 .231.422l7.535 4.808a.5.5 0 0 0 .536 0L15 8.975v1.473l-6.959 4.459-7.272-4.64a.5.5 0 0 0-.538.843l7.542 4.812a.5.5 0 0 0 .539-.001l7.458-4.779a.5.5 0 0 0 .23-.421V8.066a.5.5 0 0 0-.259-.438Z"/></svg>