<!-- SPDX-FileCopyrightText: © 2025 Schneider Electric SPDX-License-Identifier: LicenseRef-Proprietary -->
<svg xmlns="http://www.w3.org/2000/svg" viewBox="0 0 16 16"><path d="M13 2.5a.5.5 0 0 0-.5-.5h-10a.5.5 0 0 0-.5.5v10a.5.5 0 0 0 1 0V3h9.5a.5.5 0 0 0 .5-.5Z"/><path d="M11 .5a.5.5 0 0 0-.5-.5H.5a.5.5 0 0 0-.5.5v10a.5.5 0 0 0 1 0V1h9.5a.5.5 0 0 0 .5-.5Z"/><path d="M15.5 14a.5.5 0 0 0 .5-.5v-9a.5.5 0 0 0-.5-.5h-11a.5.5 0 0 0-.5.5v11a.5.5 0 0 0 .5.5h11a.5.5 0 0 0 0-1H5V5h10v8.5a.5.5 0 0 0 .5.5Z"/><path d="M10 13a.5.5 0 0 0 .5-.5v-2h2a.5.5 0 0 0 0-1h-2v-2a.5.5 0 0 0-1 0v2h-2a.5.5 0 0 0 0 1h2v2a.5.5 0 0 0 .5.5Z"/></svg>