<!-- SPDX-FileCopyrightText: © 2025 Schneider Electric SPDX-License-Identifier: LicenseRef-Proprietary -->
<svg xmlns="http://www.w3.org/2000/svg" viewBox="0 0 16 16"><path d="M15.5 0a.5.5 0 0 0-.5.5V6h-5V1h3.5a.5.5 0 0 0 0-1h-4a.5.5 0 0 0-.5.5v6a.5.5 0 0 0 .5.5h6a.5.5 0 0 0 .5-.5v-6a.5.5 0 0 0-.5-.5ZM6.948.279A.5.5 0 0 0 6.671.03q0 0 0 0H6.67a.5.5 0 0 0-.548.144l-.02.024-2.937 3.788c-.285-.56-.673-1.235-.956-1.471a.496.496 0 0 0-.696.063.505.505 0 0 0 .055.705c.201.176.843 1.352 1.023 1.832a.5.5 0 0 0 .394.318c.18.03.359-.044.47-.188l2.546-3.284V6H1V1h3.262a.5.5 0 0 0 0-1H.5a.5.5 0 0 0-.5.5v6a.5.5 0 0 0 .5.5h6a.5.5 0 0 0 .5-.5V.479a.5.5 0 0 0-.051-.2ZM6.5 9a.5.5 0 0 0-.5.5V15H1v-5h3.5a.5.5 0 0 0 0-1h-4a.5.5 0 0 0-.5.5v6a.5.5 0 0 0 .5.5h6a.5.5 0 0 0 .5-.5v-6a.5.5 0 0 0-.5-.5Zm9.449.281a.5.5 0 0 0-.271-.248h-.002s0 0 0 0a.4.4 0 0 0-.2-.031.5.5 0 0 0-.356.175l-.018.022-2.937 3.788c-.285-.56-.674-1.236-.957-1.472a.494.494 0 0 0-.695.064.504.504 0 0 0 .056.704c.2.175.842 1.352 1.023 1.832.063.17.214.292.394.318a.51.51 0 0 0 .47-.188l2.545-3.284v4.038h-5v-5h3.297a.5.5 0 0 0 0-1H9.501a.5.5 0 0 0-.5.5v6a.5.5 0 0 0 .5.5h6a.5.5 0 0 0 .5-.5V9.475a.5.5 0 0 0-.05-.194Z"/></svg>