<!-- SPDX-FileCopyrightText: © 2025 Schneider Electric SPDX-License-Identifier: LicenseRef-Proprietary -->
<svg xmlns="http://www.w3.org/2000/svg" viewBox="0 0 16 16"><path d="M2.5 11H1.419A.42.42 0 0 1 1 10.581v-9.16C1 1.189 1.189 1 1.421 1h9.152c.119 0 .228.045.308.128A.46.46 0 0 1 11 1.48v1.021a.5.5 0 0 0 1 0V1.5a1.44 1.44 0 0 0-.399-1.064 1.42 1.42 0 0 0-1.028-.435H1.421A1.42 1.42 0 0 0 0 1.421v9.159a1.42 1.42 0 0 0 1.419 1.419H2.5a.5.5 0 0 0 0-1Z"/><path d="M14.5 15H5.419A.42.42 0 0 1 5 14.581V6.5a.5.5 0 0 0-1 0v8.081A1.42 1.42 0 0 0 5.419 16H14.5a.5.5 0 0 0 0-1Zm1.499-9.56a1.36 1.36 0 0 0-.381-1.008A1.42 1.42 0 0 0 14.6 4H5.5a.5.5 0 0 0 0 1h9.1c.114 0 .219.044.296.124a.4.4 0 0 1 .103.295V13.5a.5.5 0 0 0 1 0z"/></svg>