<!-- SPDX-FileCopyrightText: © 2025 Schneider Electric SPDX-License-Identifier: LicenseRef-Proprietary -->
<svg xmlns="http://www.w3.org/2000/svg" viewBox="0 0 16 16"><path d="M10.849 11.977c.271-.051.409-.309.358-.58s-.354-.446-.625-.397H1.627A.627.627 0 0 1 1 10.373V2.5a.5.5 0 0 0-1 0v7.873C0 11.27.73 12 1.627 12h8.955q.134 0 .267-.023ZM1.5 1h8.873c.346 0 .627.281.627.627V9.5a.5.5 0 0 0 1 0V1.627C12 .73 11.27 0 10.373 0H1.5a.5.5 0 0 0 0 1Z"/><path d="M14.68 5H13.5a.5.5 0 0 0 0 1h1.18c.151 0 .32.154.32.36v8.249a.39.39 0 0 1-.391.391H6.391A.39.39 0 0 1 6 14.609V13.5a.5.5 0 0 0-1 0v1.109C5 15.376 5.624 16 6.391 16h8.218c.767 0 1.391-.624 1.391-1.391V6.36C16 5.623 15.396 5 14.68 5Z"/></svg>