<!-- SPDX-FileCopyrightText: © 2025 Schneider Electric SPDX-License-Identifier: LicenseRef-Proprietary -->
<svg xmlns="http://www.w3.org/2000/svg" viewBox="0 0 16 16"><path d="M6.5 12H4.39a.39.39 0 0 1-.39-.39V9.5a.5.5 0 0 0-1 0v2.11c0 .766.624 1.39 1.39 1.39H6.5a.5.5 0 0 0 0-1Zm3-8h2.11a.39.39 0 0 1 .39.39V6.5a.5.5 0 0 0 1 0V4.39C13 3.624 12.376 3 11.61 3H9.5a.5.5 0 0 0 0 1Zm5.07 4H9.43C8.641 8 8 8.642 8 9.43v5.14c0 .789.642 1.43 1.43 1.43h5.07a.5.5 0 0 0 0-1H9.43a.43.43 0 0 1-.43-.43V9.43A.43.43 0 0 1 9.43 9h5.14a.43.43 0 0 1 .43.43v5.07a.5.5 0 0 0 1 0V9.43C16 8.641 15.358 8 14.57 8ZM8 1.43C8 .641 7.358 0 6.57 0H1.5a.5.5 0 0 0 0 1h5.07a.43.43 0 0 1 .43.43v5.153a.416.416 0 0 1-.416.416H1.43a.43.43 0 0 1-.43-.43V1.5a.5.5 0 0 0-1 0v5.07C0 7.359.642 8 1.43 8h5.153a1.42 1.42 0 0 0 1.416-1.417V1.43Z"/></svg>