<!-- SPDX-FileCopyrightText: © 2025 Schneider Electric SPDX-License-Identifier: LicenseRef-Proprietary -->
<svg xmlns="http://www.w3.org/2000/svg" viewBox="0 0 16 16"><path d="M7.486 6.473v3.053a.5.5 0 0 0 1 0V6.473a.5.5 0 0 0-1 0Z"/><path d="M13.318 1H2.682C1.755 1 1 1.754 1 2.682v10.637c0 .928.754 1.682 1.682 1.682H8a.5.5 0 0 0 .5-.5v-2.805a.5.5 0 0 0-.5-.5h-.014a3.203 3.203 0 0 1-3.203-3.195 3.203 3.203 0 0 1 6.406 0 3.19 3.19 0 0 1-1.683 2.812.501.501 0 0 0 .475.881 4.2 4.2 0 0 0 2.208-3.693 4.204 4.204 0 0 0-8.406 0 4.203 4.203 0 0 0 3.716 4.167v1.833H2.682A.683.683 0 0 1 2 13.319V2.682C2 2.306 2.306 2 2.682 2h10.637c.376 0 .682.306.682.682v10.637a.683.683 0 0 1-.682.682H9.99a.5.5 0 0 0 0 1h3.329c.928 0 1.682-.754 1.682-1.682V2.682c0-.927-.754-1.682-1.682-1.682Z"/></svg>