<!-- SPDX-FileCopyrightText: © 2025 Schneider Electric SPDX-License-Identifier: LicenseRef-Proprietary -->
<svg xmlns="http://www.w3.org/2000/svg" viewBox="0 0 16 16"><path d="M10.17 5.78a.5.5 0 0 0 .708 0c1.021-1.021.719-2.102.476-2.971-.249-.891-.36-1.423.225-2.008a.5.5 0 0 0-.707-.707c-1.027 1.027-.724 2.112-.48 2.983.247.886.359 1.416-.22 1.995a.5.5 0 0 0 0 .707Zm-2.874 0a.5.5 0 0 0 .708 0c.966-.965.681-2.033.452-2.891-.24-.899-.356-1.482.25-2.088a.5.5 0 0 0-.707-.707c-1.045 1.044-.748 2.158-.509 3.053.233.873.339 1.394-.192 1.925a.5.5 0 0 0 0 .707Zm-2.874 0a.5.5 0 0 0 .708 0c1.065-1.065.743-2.143.484-3.009-.258-.861-.375-1.378.217-1.969a.5.5 0 0 0-.707-.707C4.082 1.137 4.4 2.202 4.656 3.058c.262.876.381 1.402-.233 2.016a.5.5 0 0 0 0 .707Zm11.35 7.235-2.244-4.729a.5.5 0 1 0-.903.429l2.248 4.738c.083.166.126.355.126.547 0 .551-.449 1-1 1-.418 0-.724-.208-.933-.636-.184-.378-1.01-3.746-1.362-5.185-.293-1.194-.296-1.202-.323-1.264a1.502 1.502 0 0 0-2.882.584c0 .547.36 4.085.44 4.864q0 .025.004.051l.009.07.001.01.003.027c.023.186.042.318.042.478 0 .551-.449 1-1 1s-1-.449-1-1c0-.16.019-.292.042-.478l.013-.104v-.003h0l.004-.051c.08-.778.44-4.317.44-4.865a1.502 1.502 0 0 0-2.882-.584c-.026.062-.03.07-.323 1.264-.353 1.438-1.179 4.807-1.362 5.184-.209.428-.515.636-.933.636-.551 0-1-.449-1-1 0-.192.044-.381.131-.556L3.379 8.7a.5.5 0 1 0-.903-.429L.232 13.006A2.2 2.2 0 0 0 0 14c0 1.103.897 2 2 2 .803 0 1.454-.425 1.832-1.196.192-.393.671-2.272 1.435-5.386l.272-1.112A.5.5 0 0 1 6.5 8.5c0 .399-.266 3.123-.446 4.862l-.004.033c-.03.234-.05.402-.05.604 0 1.103.897 2 2 2s2-.897 2-2c0-.202-.02-.37-.05-.604h-.001l-.001-.024c-.18-1.739-.447-4.471-.447-4.872a.5.5 0 0 1 .5-.5c.202 0 .382.12.447.268.026.084.134.53.287 1.15.764 3.114 1.243 4.993 1.435 5.386.378.771 1.028 1.196 1.832 1.196 1.103 0 2-.897 2-2 0-.346-.08-.69-.228-.985Z"/></svg>