<!-- SPDX-FileCopyrightText: © 2025 Schneider Electric SPDX-License-Identifier: LicenseRef-Proprietary -->
<svg xmlns="http://www.w3.org/2000/svg" viewBox="0 0 16 16"><path d="M9.506 9.281a.5.5 0 0 0 .707.009l1.45-1.414c.25-.243.342-.542.251-.821-.09-.279-.34-.467-.686-.518l-1.744-.253-.781-1.582c-.155-.312-.411-.491-.704-.491h0c-.292 0-.549.18-.704.492l-.78 1.581-1.745.253c-.345.05-.595.239-.685.517s0 .578.25.821l1.262 1.23-.298 1.738c-.059.344.043.64.28.812s.549.177.859.016l1.56-.821 1.561.821c.149.079.3.118.441.118a.7.7 0 0 0 .417-.134c.237-.173.339-.469.28-.812l-.122-.713a.5.5 0 0 0-.986.169l.049.284-1.407-.74a.5.5 0 0 0-.466 0l-1.407.74.269-1.566a.5.5 0 0 0-.144-.443l-1.138-1.11 1.572-.229a.5.5 0 0 0 .376-.273l.704-1.426.704 1.426c.073.147.213.25.376.273l1.573.229-1.138 1.109a.5.5 0 0 0-.01.707Z"/></svg>