<!-- SPDX-FileCopyrightText: © 2025 Schneider Electric SPDX-License-Identifier: LicenseRef-Proprietary -->
<svg xmlns="http://www.w3.org/2000/svg" viewBox="0 0 16 16"><path d="m15.873 6.002-.05-.194q-.252-.753-.814-1.135c-.397-.26-.951-.323-1.708-.189l-2.871.598-.268-2.812c-.127-.771-.365-1.279-.733-1.555C9.089.468 8.65.343 8.122.343h-.159c-.562 0-1.013.128-1.341.382-.347.27-.57.76-.707 1.568l-.172 1.452a.5.5 0 0 0 .993.117l.169-1.426c.12-.709.283-.884.329-.92.146-.113.397-.172.729-.172h.159c.312 0 .553.061.712.176.051.039.227.218.337.879l.315 3.334a.5.5 0 0 0 .599.442l3.403-.709c.617-.109.875-.02.966.041.185.124.321.327.408.582l.045.179c.127.424.1.651.052.774-.021.056-.138.265-.73.575l-3.139 1.43a.5.5 0 0 0-.227.705l1.776 3.081c.305.576.265.837.231.928a1.12 1.12 0 0 1-.458.566l-.138.092a1.13 1.13 0 0 1-.662.24c-.076.031-.316-.024-.783-.489l-2.46-2.701a.5.5 0 0 0-.74 0l-2.447 2.685c-.493.491-.723.506-.77.506-.212-.005-.473-.096-.747-.252l-.15-.099q-.366-.207-.436-.495c-.022-.095-.04-.38.271-.969l1.747-3.098a.5.5 0 0 0-.226-.699L1.794 7.629c-.638-.332-.743-.536-.761-.582-.037-.088-.077-.309.061-.798l.036-.14c.065-.222.184-.512.371-.627.057-.034.295-.134.952-.018l3.421.737a.501.501 0 0 0 .222-.976l-3.455-.744c-.731-.13-1.271-.084-1.655.143q-.562.342-.819 1.219l-.037.144c-.167.592-.174 1.062-.025 1.428.153.393.543.742 1.25 1.109l2.606 1.203-1.487 2.638c-.354.671-.475 1.22-.365 1.683.117.473.425.854.885 1.111l.146.097c.455.262.864.394 1.24.401.464.025.951-.24 1.526-.814L8 12.547l2.107 2.312c.539.538 1.029.8 1.487.8h.05c.43-.009.84-.154 1.202-.419l.121-.081c.406-.272.691-.63.844-1.058.174-.474.08-1.041-.296-1.752l-1.511-2.621 2.662-1.213c.685-.357 1.075-.714 1.226-1.115q.226-.58-.021-1.396Z"/></svg>