<!-- SPDX-FileCopyrightText: © 2025 Schneider Electric SPDX-License-Identifier: LicenseRef-Proprietary -->
<svg xmlns="http://www.w3.org/2000/svg" viewBox="0 0 16 16"><path d="m8.308 9.681-1.744-.253-.78-1.582c-.154-.312-.41-.491-.703-.492h0c-.292 0-.548.179-.705.493l-.778 1.581-1.744.253c-.346.05-.596.238-.687.517-.091.278 0 .578.251.821l1.262 1.23-.298 1.737c-.059.344.043.639.279.812.235.172.549.178.86.017l1.56-.821 1.562.822a1 1 0 0 0 .44.116.7.7 0 0 0 .418-.134c.236-.173.338-.468.279-.811l-.122-.714a.504.504 0 0 0-.577-.409.5.5 0 0 0-.409.577l.049.285-1.407-.74a.5.5 0 0 0-.465 0l-1.407.739.269-1.566a.5.5 0 0 0-.145-.443l-1.137-1.109 1.573-.229a.5.5 0 0 0 .376-.274l.704-1.425.703 1.425c.072.148.214.25.377.273l1.572.229-1.138 1.108a.5.5 0 0 0 .697.717l1.45-1.414c.25-.243.342-.543.251-.822s-.34-.467-.686-.517Zm6.527-5.769c-.09-.278-.34-.467-.686-.518l-1.745-.253-.779-1.581c-.309-.625-1.1-.625-1.408 0l-.32.649a.499.499 0 1 0 .897.442l.128-.259.703 1.426c.072.147.214.25.377.273l1.573.229-1.138 1.11a.5.5 0 0 0-.145.442l.269 1.566-1.406-.74a.5.5 0 0 0-.467 0l-1.407.74.27-1.567a.5.5 0 0 0-.145-.442l-1.138-1.11 1.574-.229a.5.5 0 0 0 .423-.566.5.5 0 0 0-.567-.423l-2.005.291c-.346.05-.596.239-.686.518s0 .578.251.821l1.262 1.23-.299 1.737c-.059.344.043.64.28.812.235.173.55.178.859.016l1.561-.821 1.561.821c.149.078.3.117.442.117a.7.7 0 0 0 .416-.133c.237-.172.339-.468.28-.812l-.298-1.737 1.262-1.23c.25-.243.342-.542.251-.821Z"/></svg>