<!-- SPDX-FileCopyrightText: © 2025 Schneider Electric SPDX-License-Identifier: LicenseRef-Proprietary -->
<svg xmlns="http://www.w3.org/2000/svg" viewBox="0 0 16 16"><path d="M15.966 10.393c-.09-.277-.338-.465-.681-.515a.49.49 0 0 0-.56.424.5.5 0 0 0 .104.378l-1.242 1.211a.5.5 0 0 0-.145.442l.263 1.537-1.379-.726a.5.5 0 0 0-.465 0l-1.381.725.265-1.535a.5.5 0 0 0-.145-.443l-1.115-1.088 1.542-.224a.5.5 0 0 0 .376-.273l.69-1.398.689 1.397a.5.5 0 0 0 .897-.442l-.886-1.795c-.306-.621-1.094-.622-1.401 0l-.77 1.559-1.72.25c-.344.049-.593.237-.683.515-.091.277 0 .576.249.818l1.245 1.214-.295 1.714c-.058.343.044.638.28.809a.7.7 0 0 0 .414.132.94.94 0 0 0 .439-.117l1.54-.81 1.538.81c.306.161.618.156.854-.015s.338-.466.28-.81l-.294-1.713 1.245-1.214c.248-.243.339-.541.248-.818Zm-8.869-.515-1.72-.25-.77-1.559c-.308-.623-1.095-.621-1.401 0l-.77 1.559-1.72.25c-.344.049-.593.237-.683.515-.091.277 0 .576.249.818l1.244 1.214-.294 1.714c-.058.343.044.638.28.809a.7.7 0 0 0 .414.132.94.94 0 0 0 .439-.117l1.539-.809 1.539.809c.306.161.617.156.854-.015.236-.171.338-.466.28-.81l-.121-.705a.5.5 0 0 0-.578-.408.5.5 0 0 0-.408.578l.046.269-1.38-.726a.5.5 0 0 0-.465 0l-1.38.725.264-1.535a.5.5 0 0 0-.145-.443l-1.114-1.088 1.542-.224a.5.5 0 0 0 .376-.274l.69-1.397.689 1.397c.072.147.214.25.376.273l1.543.225-1.116 1.087a.5.5 0 0 0 .697.717l1.435-1.397c.248-.243.339-.541.248-.818-.09-.277-.339-.465-.683-.515Zm2.877-1.457c.15 0 .293-.044.414-.132.236-.171.338-.466.28-.809l-.294-1.713 1.245-1.214c.248-.243.339-.541.249-.819s-.34-.465-.683-.514l-1.721-.25-.77-1.56c-.308-.623-1.095-.621-1.401 0l-.316.642a.5.5 0 1 0 .897.442l.121-.244.689 1.397c.072.148.214.25.377.273l1.542.225-1.115 1.088a.5.5 0 0 0-.145.442l.263 1.537-1.38-.725a.5.5 0 0 0-.465 0l-1.38.725.264-1.537a.5.5 0 0 0-.145-.442L5.385 4.145l1.542-.224a.5.5 0 0 0 .424-.566.504.504 0 0 0-.566-.423l-1.98.288c-.344.049-.593.237-.683.515-.091.277 0 .576.249.818l1.244 1.214-.294 1.714c-.058.342.044.636.279.808.237.171.548.178.854.016l1.539-.809 1.54.809a.95.95 0 0 0 .439.117Z"/></svg>