<!-- SPDX-FileCopyrightText: © 2025 Schneider Electric SPDX-License-Identifier: LicenseRef-Proprietary -->
<svg xmlns="http://www.w3.org/2000/svg" viewBox="0 0 16 16"><path d="m9.518.993.974.163a.5.5 0 0 0 .166-.986L9.684.007a.5.5 0 0 0-.166.987Zm5.427 3.562q.334 0 .66-.07a.5.5 0 1 0-.211-.977 2 2 0 0 1-.449.048c-1.177 0-2.135-.968-2.135-2.159q0-.363.115-.704a.5.5 0 0 0-.947-.321q-.167.497-.168 1.025c0 1.742 1.406 3.159 3.135 3.159ZM6.5 10h2a.5.5 0 0 0 0-1h-.905l2.449-2.122a.5.5 0 0 0-.654-.756L7 8.192V7.5a.5.5 0 0 0-1 0v2a.5.5 0 0 0 .5.5Zm8.826-4.651a.5.5 0 0 0-.45.545l.096.992a.5.5 0 0 0 .497.452l.049-.002a.5.5 0 0 0 .45-.545l-.096-.992a.506.506 0 0 0-.546-.45Zm-2.314-.495a.5.5 0 0 0-.681.192l-.485.868a.5.5 0 1 0 .873.488l.485-.868a.5.5 0 0 0-.192-.681ZM3.384 8.833a.5.5 0 0 0-.554-.074L.277 10.026a.5.5 0 1 0 .444.896l2.251-1.117 6.844 6.069a.5.5 0 0 0 .706-.042.5.5 0 0 0-.042-.706zm7.346-5.958-.891.43a.499.499 0 1 0 .436.9l.891-.43a.499.499 0 1 0-.436-.9Z"/></svg>