<!-- SPDX-FileCopyrightText: © 2025 Schneider Electric SPDX-License-Identifier: LicenseRef-Proprietary -->
<svg xmlns="http://www.w3.org/2000/svg" viewBox="0 0 16 16"><path d="M8 3.081a.5.5 0 0 0 .5-.5V.5a.5.5 0 0 0-1 0v2.081a.5.5 0 0 0 .5.5ZM3.081 8a.5.5 0 0 0-.5-.5H.5a.5.5 0 0 0 0 1h2.081a.5.5 0 0 0 .5-.5Zm.799-3.413a.5.5 0 0 0 .708 0 .5.5 0 0 0 0-.707L3.411 2.703a.5.5 0 0 0-.707.707l1.177 1.177Zm7.886.147a.5.5 0 0 0 .354-.146l1.178-1.177a.5.5 0 0 0-.707-.707l-1.178 1.177a.5.5 0 0 0 .354.853Zm.353 6.678a.5.5 0 0 0-.707.707l1.178 1.178a.5.5 0 0 0 .708 0 .5.5 0 0 0 0-.707zM15.5 7.5h-2.08a.5.5 0 0 0 0 1h2.08a.5.5 0 0 0 0-1ZM8 3.963a.5.5 0 0 0 0 1c1.675 0 3.037 1.362 3.037 3.037S9.675 11.037 8 11.037 4.963 9.675 4.963 8c0-.974.472-1.896 1.263-2.465a.5.5 0 0 0-.585-.811 4.05 4.05 0 0 0-1.678 3.277c0 2.226 1.811 4.037 4.037 4.037s4.037-1.812 4.037-4.037S10.225 3.964 8 3.964Zm0 8.957a.5.5 0 0 0-.5.5v2.08a.5.5 0 0 0 1 0v-2.08a.5.5 0 0 0-.5-.5Zm-4.12-1.508L2.703 12.59a.5.5 0 0 0 .708.707l1.177-1.178a.5.5 0 0 0-.707-.707Z"/></svg>