<!-- SPDX-FileCopyrightText: © 2025 Schneider Electric SPDX-License-Identifier: LicenseRef-Proprietary -->
<svg xmlns="http://www.w3.org/2000/svg" viewBox="0 0 16 16"><path d="M11.926 6.329a.5.5 0 0 0 .354-.146l1.178-1.178a.5.5 0 0 0-.707-.707l-1.178 1.178a.5.5 0 0 0 .354.853ZM8 5a.5.5 0 0 0 .5-.5v-2a.5.5 0 0 0-1 0v2A.5.5 0 0 0 8 5Zm5 4.5a.5.5 0 0 0 .5.5h2a.5.5 0 0 0 0-1h-2a.5.5 0 0 0-.5.5ZM8 6.718a3.04 3.04 0 0 1 2.647 4.525.501.501 0 0 0 .871.492 4.04 4.04 0 0 0 .519-1.98A4.04 4.04 0 0 0 8 5.718a.5.5 0 0 0 0 1Zm-3.482 5.081a.5.5 0 0 0 .863-.508 3 3 0 0 1-.417-1.536c0-.974.472-1.895 1.263-2.466a.5.5 0 0 0-.585-.811 4.05 4.05 0 0 0-1.678 3.276c0 .72.192 1.427.555 2.044ZM15.5 13H.5a.5.5 0 0 0 0 1h15a.5.5 0 0 0 0-1Zm-15-3h2a.5.5 0 0 0 0-1h-2a.5.5 0 0 0 0 1Zm3.238-3.817a.5.5 0 0 0 .708 0 .5.5 0 0 0 0-.707L3.269 4.298a.5.5 0 0 0-.707.707z"/></svg>