<!-- SPDX-FileCopyrightText: © 2025 Schneider Electric SPDX-License-Identifier: LicenseRef-Proprietary -->
<svg xmlns="http://www.w3.org/2000/svg" viewBox="0 0 16 16"><path d="M4.581 7.426a.5.5 0 1 0-.714.701L8 12.335V14H2.237A.24.24 0 0 1 2 13.763V2.237c0-.13.106-.237.237-.237H6.5a.5.5 0 0 0 0-1H2.237C1.555 1 1 1.555 1 2.237v11.526C1 14.446 1.555 15 2.237 15H8.5a.5.5 0 0 0 .5-.5v-2.369a.5.5 0 0 0-.143-.351z"/><path d="M13.763 1H9.238c-.682 0-1.237.555-1.237 1.237V8.5a.5.5 0 0 0 1 0V2.237c0-.13.106-.237.237-.237h4.525c.131 0 .237.106.237.237v11.526a.237.237 0 0 1-.237.237H10.5a.5.5 0 0 0 0 1h3.263c.683 0 1.237-.555 1.237-1.237V2.237C15 1.555 14.445 1 13.763 1Z"/></svg>