<!-- SPDX-FileCopyrightText: © 2025 Schneider Electric SPDX-License-Identifier: LicenseRef-Proprietary -->
<svg xmlns="http://www.w3.org/2000/svg" viewBox="0 0 16 16"><path d="M15.5 5a.5.5 0 0 0-.5.5v7.374l-5.397-1.036a.5.5 0 0 0-.274.019L3 14.045V5.051l.02-.005 3.984-1.161a.5.5 0 1 0-.28-.96L2.74 4.086l-.032.011-1.12-.849 4.92-1.462 2.491 1.102v7.647a.5.5 0 0 0 1 0v-7.4l5.431.758a.5.5 0 0 0 .138-.99l-5.931-.828L6.743.795a.5.5 0 0 0-.345-.022L.363 2.568A.5.5 0 0 0 0 3.054V13.07c0 .147.065.288.179.383l1.998 1.675a.5.5 0 0 0 .306.119h.04a.6.6 0 0 0 .152-.031l6.863-2.372 5.869 1.127a.502.502 0 0 0 .595-.491V5.501a.5.5 0 0 0-.5-.5ZM2 13.676l-1-.839V4.056l1 .758z"/></svg>