<!-- SPDX-FileCopyrightText: © 2025 Schneider Electric SPDX-License-Identifier: LicenseRef-Proprietary -->
<svg xmlns="http://www.w3.org/2000/svg" viewBox="0 0 16 16"><path d="M15.998 4.055c.007-.089.02-.558-.43-1.045-.671-.727-2.005-1.095-3.965-1.095-4.374 0-4.592 1.864-4.603 2.101v8.985H6V9.122c.005-.086.02-.539-.389-.982-.491-.532-1.37-.802-2.612-.802-1.318 0-2.221.27-2.684.801-.358.411-.322.821-.316.83v4.532a.5.5 0 0 0 .5.5h1.094a.5.5 0 0 0 .445-.271l.961-1.869v1.64a.5.5 0 0 0 1 0V9.796a.5.5 0 0 0-.944-.229l-1.767 3.434H.999L.997 8.935c.006-.155.387-.597 2.001-.597 1.567 0 1.994.475 2 .744v4.419a.5.5 0 0 0 .5.5h2a.5.5 0 0 0 .5-.5l-.002-9.436c.001-.012.223-1.15 3.605-1.15 2.753 0 3.385.784 3.396 1.101v8.985h-4.606l2.689-6.052v4.739a.5.5 0 0 0 1 0V4.592a.5.5 0 0 0-.957-.203l-3.958 8.909a.5.5 0 0 0 .457.704h5.875a.5.5 0 0 0 .5-.5z"/></svg>