<!-- SPDX-FileCopyrightText: © 2025 Schneider Electric SPDX-License-Identifier: LicenseRef-Proprietary -->
<svg xmlns="http://www.w3.org/2000/svg" viewBox="0 0 16 16"><path d="M3.5 7h-3a.5.5 0 0 0 0 1h3a.5.5 0 0 0 0-1Zm12 0H14V5.5a.5.5 0 0 0-1 0V7h-1.5a.5.5 0 0 0 0 1H13v1.5a.5.5 0 0 0 1 0V8h1.5a.5.5 0 0 0 0-1ZM10 9.93l-.005-8.177C9.995-.55 6-.55 6 1.753v2.753a.5.5 0 0 0 1 0V1.753C7 1.158 7.627 1 7.998 1s.998.159.998.754l.005 8.486q0 .118.054.225c.053.105.21.224.319.27.716.305 1.079 1.037 1.079 2.175 0 1.364-1.556 2.091-2.679 2.091-1.006 0-2.422-.633-2.422-2.039 0-1.991 1.214-2.237 1.189-2.241a.5.5 0 0 0 .5-.505l-.035-3.208h.495a.5.5 0 0 0 0-1h-1a.5.5 0 0 0-.5.505l.036 3.342c-.667.288-1.686 1.108-1.686 3.106 0 1.902 1.74 3.039 3.422 3.039 1.769 0 3.678-1.182 3.678-3.091 0-1.014-.255-2.318-1.451-2.979Z"/></svg>