<!-- SPDX-FileCopyrightText: © 2025 Schneider Electric SPDX-License-Identifier: LicenseRef-Proprietary -->
<svg xmlns="http://www.w3.org/2000/svg" viewBox="0 0 16 16"><path d="m9 9.924-.005-8.177C8.995-.556 5-.556 5 1.747V4.5a.5.5 0 0 0 1 0V1.747c0-.595.627-.753.998-.753s.998.159.998.754l.005 8.485q0 .118.053.224c.053.106.211.225.32.271.716.306 1.079 1.037 1.079 2.175 0 1.364-1.556 2.091-2.679 2.091-1.006 0-2.422-.633-2.422-2.039 0-1.99 1.214-2.236 1.189-2.24a.5.5 0 0 0 .5-.505l-.035-3.208h.495a.5.5 0 0 0 0-1h-1a.5.5 0 0 0-.5.505l.036 3.342c-.667.288-1.686 1.108-1.686 3.106 0 1.902 1.74 3.039 3.422 3.039 1.769 0 3.679-1.182 3.679-3.091 0-1.013-.256-2.317-1.452-2.979Z"/><path d="M4 7.5a.5.5 0 0 0-.5-.5h-3a.5.5 0 0 0 0 1h3a.5.5 0 0 0 .5-.5Zm11.976-4.881a.5.5 0 0 0-.63-.321L14 2.735v-1.55a.5.5 0 0 0-1 0v1.559l-1.372-.445a.5.5 0 0 0-.309.951l1.434.465-.877 1.204a.501.501 0 0 0 .404.795.5.5 0 0 0 .404-.206l.84-1.154.841 1.154a.5.5 0 0 0 .808-.589l-.892-1.224 1.372-.445a.5.5 0 0 0 .321-.63Z"/></svg>