<!-- SPDX-FileCopyrightText: © 2025 Schneider Electric SPDX-License-Identifier: LicenseRef-Proprietary -->
<svg xmlns="http://www.w3.org/2000/svg" viewBox="0 0 16 16"><path d="M14.105 13H1.895a.896.896 0 0 0-.895.895v1.222c0 .487.4.884.891.884H2.5a.5.5 0 0 0 0-1H2v-1h12v1H4.467a.5.5 0 0 0 0 1h9.639a.896.896 0 0 0 .895-.895v-1.211a.896.896 0 0 0-.895-.895ZM3.158 10.787a.5.5 0 0 0 .5.5h0a.5.5 0 0 0 .5-.5l.007-8.938L6.32 4.441a.5.5 0 0 0 .768-.64L4.086.19A.5.5 0 0 0 3.71.01a.48.48 0 0 0-.382.168L.126 3.79a.5.5 0 0 0 .748.664l2.291-2.585zM15.88 3.796 12.788.185a.5.5 0 0 0-.372-.175.57.57 0 0 0-.377.163L8.742 3.784a.499.499 0 1 0 .738.674l2.369-2.594-.007 8.923a.5.5 0 0 0 .5.5h0a.5.5 0 0 0 .5-.5l.007-8.993 2.271 2.652a.5.5 0 1 0 .76-.65Z"/></svg>