<!-- SPDX-FileCopyrightText: © 2025 Schneider Electric SPDX-License-Identifier: LicenseRef-Proprietary -->
<svg xmlns="http://www.w3.org/2000/svg" viewBox="0 0 16 16"><path d="M3.537 3.74a6.25 6.25 0 0 0-1.643 2.855.5.5 0 0 0 .969.248 5.26 5.26 0 0 1 1.382-2.396.5.5 0 0 0 0-.707.5.5 0 0 0-.707 0Zm8.066.735a5.2 5.2 0 0 1 1.378 2.395.501.501 0 0 0 .967-.257A6.2 6.2 0 0 0 12.3 3.758a.5.5 0 0 0-.696.718ZM.682 7.001a.5.5 0 0 0 .603-.37 6.73 6.73 0 0 1 2.752-4.025.5.5 0 1 0-.561-.827C1.891 2.853.768 4.494.312 6.398a.5.5 0 0 0 .37.603Zm9.991-2.017a.5.5 0 0 0 0 .707c.234.235.433.519.606.866a.5.5 0 0 0 .895-.448 4.3 4.3 0 0 0-.793-1.125.5.5 0 0 0-.707 0Zm-6.679.553c-.258.388-.454.79-.6 1.229a.5.5 0 1 0 .95.315c.117-.353.275-.677.484-.99a.5.5 0 1 0-.833-.553Z"/><path d="M10.328 7.431a2.5 2.5 0 0 0-1.243-1.478l2.542-3.345a.5.5 0 0 0-.037-.649C10.364.681 7.798-.834 6.13.535c-1.764 1.414-1.014 3.879-.064 5.961a2.6 2.6 0 0 0-.664 1.813l-4.135-.525a.5.5 0 0 0-.543.355C.23 9.823.192 12.79 2.202 13.59c2.124.804 3.873-1.067 5.188-2.919.35.073.741.075 1.114-.011a.501.501 0 0 0-.225-.975 1.54 1.54 0 0 1-.905-.06.5.5 0 0 0-.598.18c-1.679 2.436-2.979 3.317-4.212 2.852-1.177-.468-1.281-2.42-.982-3.826l4.37.555a.5.5 0 0 0 .537-.654 1.7 1.7 0 0 1-.087-.521c0-.628.371-1.038.592-1.226a.5.5 0 0 0 .128-.595c-1.274-2.692-1.387-4.257-.36-5.08.979-.804 2.726.08 3.803 1.045L7.876 5.894a.5.5 0 0 0 .307.794c.66.122 1.159.632 1.244 1.271a.5.5 0 0 0 .454.433c3.022.254 4.399.921 4.605 2.227.193 1.239-1.453 2.309-2.829 2.76l-1.48-3.541a.5.5 0 0 0-.923.386l1.652 3.951a.5.5 0 0 0 .581.292c1.716-.424 4.315-1.886 3.986-4.004-.35-2.219-2.861-2.809-5.143-3.034Zm2.938-4.922a.5.5 0 1 0-.688.726 6.84 6.84 0 0 1 2.126 4.387.5.5 0 0 0 .498.458l.043-.002a.5.5 0 0 0 .456-.541 7.84 7.84 0 0 0-2.434-5.027Z"/><path d="M7.906 12.93c.364 0 .707-.036 1.039-.11a.501.501 0 0 0-.218-.977 4 4 0 0 1-1.082.08c-.283-.037-.512.196-.527.472a.5.5 0 0 0 .471.526q.162.009.317.009Zm1.979 1.775a6.8 6.8 0 0 1-4.879-.36.5.5 0 0 0-.424.906 7.9 7.9 0 0 0 3.34.748c.761 0 1.521-.112 2.257-.339a.5.5 0 0 0 .331-.624.495.495 0 0 0-.625-.331Zm-3.97-1.102a.5.5 0 0 0 .351.614c.522.143 1.068.214 1.621.214s1.109-.07 1.66-.212a.499.499 0 1 0-.248-.968 5.45 5.45 0 0 1-2.77.002.5.5 0 0 0-.614.351Z"/></svg>