<!-- SPDX-FileCopyrightText: © 2025 Schneider Electric SPDX-License-Identifier: LicenseRef-Proprietary -->
<svg xmlns="http://www.w3.org/2000/svg" viewBox="0 0 16 16"><path d="M10.908 5.615a.5.5 0 0 0 0 .707c.253.254.467.56.654.933a.5.5 0 0 0 .671.224.5.5 0 0 0 .224-.67 4.5 4.5 0 0 0-.84-1.192.5.5 0 0 0-.707 0ZM3.465 8.134a.5.5 0 0 0 .632-.316c.127-.381.297-.729.521-1.065a.5.5 0 1 0-.832-.554c-.273.41-.481.836-.637 1.302a.5.5 0 0 0 .316.632Z"/><path d="M15.971 11.444c-.371-2.353-3.051-2.974-5.48-3.211a2.62 2.62 0 0 0-1.352-1.596l2.736-3.602a.5.5 0 0 0-.037-.648C10.539 1.032 7.819-.578 6.057.87c-1.869 1.5-1.062 4.127-.049 6.341a2.73 2.73 0 0 0-.712 1.966L.844 8.612a.504.504 0 0 0-.542.355c-.525 1.786-.568 4.932 1.556 5.776 2.25.844 4.11-1.151 5.51-3.121.372.082.794.086 1.194-.006a.5.5 0 1 0-.224-.974 1.7 1.7 0 0 1-.987-.066.504.504 0 0 0-.598.18c-1.804 2.613-3.208 3.555-4.535 3.055-1.283-.51-1.391-2.637-1.062-4.151l4.693.596a.498.498 0 0 0 .537-.654 1.9 1.9 0 0 1-.095-.567c0-.683.403-1.128.644-1.333a.5.5 0 0 0 .127-.594C5.695 4.22 5.578 2.537 6.687 1.647c1.065-.875 2.967.091 4.124 1.137L7.923 6.585a.5.5 0 0 0 .307.794c.719.133 1.262.689 1.354 1.384.03.233.219.414.454.433 3.243.273 4.722.992 4.945 2.403.209 1.35-1.585 2.511-3.07 2.992l-1.592-3.807a.5.5 0 0 0-.923.385l1.764 4.216a.5.5 0 0 0 .581.292c1.819-.449 4.576-1.996 4.228-4.234Z"/><path d="M8.815 12.943a4.3 4.3 0 0 1-1.165.085.496.496 0 0 0-.526.472.5.5 0 0 0 .472.526q.171.01.336.01c.386 0 .749-.039 1.101-.118a.5.5 0 1 0-.218-.976Z"/></svg>