<!-- SPDX-FileCopyrightText: © 2025 Schneider Electric SPDX-License-Identifier: LicenseRef-Proprietary -->
<svg xmlns="http://www.w3.org/2000/svg" viewBox="0 0 16 16"><path d="M16 9.081c0-.805-.299-1.365-.719-1.703.225-.32.368-.772.368-1.369 0-1.396-1.097-2.021-2.183-2.021l-.071.005-2.421.011V2.46c-.04-.777-.321-1.39-.836-1.822-.907-.76-2.177-.644-2.422-.614a.7.7 0 0 0-.302.114C7.386.155 7.35.177 7.293.2a.5.5 0 0 0-.311.463v2.083c0 1.2-.257 2.213-.671 2.645-.231.24-.515.442-.842.599a4 4 0 0 1-.216.094.5.5 0 0 0 .368.93q.136-.053.279-.122a3.9 3.9 0 0 0 1.132-.809c.604-.628.95-1.845.95-3.337V1.004c.306-.013 1.032-.003 1.514.401.297.249.454.611.479 1.081v2.023a.5.5 0 0 0 .5.498h.002l2.992-.014q.03 0 .06-.004c.382.012 1.121.148 1.121 1.02 0 .449-.131.974-.499.974H12.47a.5.5 0 0 0 0 1h1.681c.199 0 .85.079.85 1.097 0 .65-.397.893-.647.893h-1.218c-.215-.012-.415-.007-.591-.003l-.225.003a.5.5 0 0 0 0 1h.797c.313.02.613.082.799.265.178.173.268.475.268.896 0 .342-.07.625-.907.626l-.562-.033a2 2 0 0 0-.524-.024.5.5 0 0 0 .023.996l.373.021a.66.66 0 0 1 .307.146q.175.157.174.521c0 .215-.069.309-.122.36-.264.26-.928.252-1.248.245l-6.728-.035c-.199-.055-.983-.323-.974-1.188a.5.5 0 0 0-.495-.505h-.005a.5.5 0 0 0-.5.495q0 .064.002.127l-.002.044c0 .59-.447 1.07-.997 1.07-.207 0-.633-.011-.969-.021-.01-.624-.027-1.678-.027-2V6.784c.359.01.806.021.996.021.549 0 .997.48.997 1.07v2.599a.5.5 0 0 0 1 0V7.875c0-1.141-.896-2.07-1.997-2.07-.334 0-1.479-.036-1.48-.036a.47.47 0 0 0-.364.141.5.5 0 0 0-.152.359v6.71c0 .472.035 2.494.035 2.494a.5.5 0 0 0 .483.491S1.62 16 1.999 16c.626 0 1.187-.301 1.553-.771.392.42.906.643 1.253.717a.5.5 0 0 0 .104.011l6.774.035c.496.009 1.403.02 1.964-.533.274-.271.42-.642.42-1.072 0-.279-.048-.51-.121-.699 1.062-.241 1.239-1.043 1.239-1.554q-.001-.759-.296-1.263c.606-.235 1.113-.868 1.113-1.79Z"/></svg>