<!-- SPDX-FileCopyrightText: © 2025 Schneider Electric SPDX-License-Identifier: LicenseRef-Proprietary -->
<svg xmlns="http://www.w3.org/2000/svg" viewBox="0 0 16 16"><path d="M12.895 8.403a.5.5 0 0 0-.107-.278c-.539-.682-1.758-.777-1.895-.786a.51.51 0 0 0-.484.32.52.52 0 0 0 .15.577.54.54 0 0 1 .141.266c-.307.055-1.024.131-2.647.131-.972 0-1.896-.05-2.471-.133a.49.49 0 0 0-.566.423.5.5 0 0 0 .423.566c.629.091 1.583.144 2.615.144 3.125 0 3.682-.222 3.682-.845q0-.125-.012-.237.106.048.185.105c.012.223.024.537.002.66-.043.121-.379.583-.836 1a38 38 0 0 1-1.307 1.103.5.5 0 0 0-.18.464c.069.453.242 1.75.21 2.301l-.007.139c-.02.436-.03.654-1.722.678h-.264c-1.736-.024-1.746-.239-1.767-.71l-.007-.143c-.033-.569.143-1.905.214-2.372a.5.5 0 0 0-.178-.461s-.858-.702-1.33-1.136c-.47-.432-.811-.91-.849-1.012-.021-.116-.007-.487 0-.666.004-.11.008-.206.005-.247.087-.28 1.168-.856 1.607-.856a.5.5 0 0 0 .5-.5v-.303a.5.5 0 0 0-.491-.5c-.285-.005-.512-.197-.509-.36L4.995 1.62c.046-.126.389-.41.739-.62L9.103.986l1.299.013c.322.227.52.552.599.7v3.802a.5.5 0 0 0 1 0V1.583a.5.5 0 0 0-.039-.194c-.015-.035-.368-.857-1.158-1.32A.5.5 0 0 0 10.556 0L9.11-.015h-.008L5.599 0a.5.5 0 0 0-.238.062c-.412.226-1.37.828-1.359 1.521v4.143c-.005.362.161.699.431.948-.752.322-1.535.896-1.535 1.556l-.007.23c-.015.375-.023.679.016.887.091.498.865 1.3 1.156 1.567.336.309.861.749 1.155.993-.073.535-.218 1.69-.183 2.298l.006.13C5.09 15.438 5.515 15.968 7.8 16h.278c2.247-.031 2.665-.551 2.714-1.632l.006-.125c.035-.587-.105-1.702-.179-2.227.291-.238.802-.662 1.13-.96.286-.261 1.049-1.044 1.14-1.531.051-.276.034-.702.007-1.121Z"/></svg>