<!-- SPDX-FileCopyrightText: © 2025 Schneider Electric SPDX-License-Identifier: LicenseRef-Proprietary -->
<svg xmlns="http://www.w3.org/2000/svg" viewBox="0 0 16 16"><path d="M15.694 8.571c-.798-1.918-2.806-3.223-4.209-3.332-.85-.066-6.052-.039-8.989-.018l1.419-.771a.5.5 0 0 0-.109-.922L.639 2.675a.5.5 0 1 0-.26.966l1.959.528L.261 5.298c-.202.11-.303.343-.245.565s.286.393.488.375c.098 0 9.775-.089 10.904-.001.968.075 2.674 1.062 3.362 2.718.401.965.189 1.645.032 2.045h-4.213a.7.7 0 0 0-.207.011.5.5 0 0 0-.106.944l-.002.003c0 .404-.722.521-.756-.017a.501.501 0 0 0-.161-.936.7.7 0 0 0-.152-.005H7.087a.7.7 0 0 0-.207.011.5.5 0 0 0-.105.944l-.002.003c0 .406-.721.521-.755-.017a.5.5 0 0 0-.161-.935.7.7 0 0 0-.152-.006H3.637a.7.7 0 0 0-.207.011.5.5 0 0 0-.106.944l-.002.003a.384.384 0 0 1-.769 0v-.009A.5.5 0 0 0 2.332 11H.5a.5.5 0 0 0 0 1h1.054c.022.743.635 1.342 1.385 1.342S4.3 12.743 4.323 12h.683c.022.743.635 1.342 1.384 1.342S7.751 12.743 7.774 12h.733c.022.743.635 1.342 1.384 1.342s1.361-.599 1.384-1.342h3.882c.276 0 .489-.136.489-.412a1 1 0 0 1 .045-.114c.179-.441.598-1.475.004-2.903Z"/></svg>