<!-- SPDX-FileCopyrightText: © 2025 Schneider Electric SPDX-License-Identifier: LicenseRef-Proprietary -->
<svg xmlns="http://www.w3.org/2000/svg" viewBox="0 0 16 16"><path d="M15.5 0a.5.5 0 0 0-.5.5c0 .291-.113.564-.318.771a1.104 1.104 0 0 1-1.53 0 1.08 1.08 0 0 1-.317-.77.5.5 0 0 0-1 0c0 .558.216 1.082.609 1.476.282.284.631.476 1.011.562v4.519h-.772a1.906 1.906 0 0 0-1.861-1.515.5.5 0 0 0 0 1c.497 0 .901.406.901.906s-.404.906-.901.906a.905.905 0 0 1-.778-1.363.5.5 0 0 0-.863-.505 1.906 1.906 0 0 0 1.642 2.867c.835 0 1.547-.543 1.801-1.296h1.333a.503.503 0 0 0 .5-.501V2.519c.351-.093.673-.278.937-.543.393-.395.609-.918.609-1.476a.5.5 0 0 0-.5-.5Zm-5.022 12.718-1.563 1.557v-3.541a.52.52 0 0 0-.138-.353L6.86 8.338a1.91 1.91 0 0 0-.038-1.852.499.499 0 1 0-.863.505.907.907 0 0 1-.778 1.363c-.497 0-.901-.407-.901-.906s.404-.906.901-.906a.5.5 0 0 0 0-1c-.915 0-1.681.651-1.861 1.516h-.735v-4.53a2.06 2.06 0 0 0 .973-.552c.393-.394.609-.918.609-1.476a.5.5 0 0 0-1 0c0 .291-.113.564-.318.771a1.104 1.104 0 0 1-1.53 0A1.1 1.1 0 0 1 1.001.5a.5.5 0 0 0-1 0c0 .557.216 1.081.609 1.476.273.274.608.463.974.553v5.027a.5.5 0 0 0 .5.5h1.295A1.905 1.905 0 0 0 5.18 9.354c.365 0 .706-.104.996-.283l1.74 1.855v3.291l-1.294-1.445a.5.5 0 1 0-.745.667l2.146 2.396a.5.5 0 0 0 .358.167h.014a.5.5 0 0 0 .353-.146l2.438-2.427a.502.502 0 0 0-.707-.709Z"/></svg>