<!-- SPDX-FileCopyrightText: © 2025 Schneider Electric SPDX-License-Identifier: LicenseRef-Proprietary -->
<svg xmlns="http://www.w3.org/2000/svg" viewBox="0 0 16 16"><path d="M15.5 7.533h-.308a4.523 4.523 0 0 0-4.493-4.051c-.958 0-1.848.3-2.579.811a4.5 4.5 0 0 0-2.58-.811 4.524 4.524 0 0 0-4.494 4.051H.5a.5.5 0 1 0 0 1h.553a4.525 4.525 0 0 0 4.487 3.984c.958 0 1.848-.3 2.58-.811a4.5 4.5 0 0 0 2.579.811 4.523 4.523 0 0 0 4.486-3.984h.314a.5.5 0 0 0 0-1Zm-9.96 3.985C3.601 11.518 2.022 9.94 2.022 8S3.601 4.482 5.54 4.482c.658 0 1.274.182 1.802.498-.721.801-1.16 1.86-1.16 3.021s.439 2.219 1.16 3.02a3.5 3.5 0 0 1-1.802.498ZM7.181 8c0-.922.356-1.762.938-2.39a3.51 3.51 0 0 1 0 4.779A3.5 3.5 0 0 1 7.181 8Zm3.518 3.518a3.5 3.5 0 0 1-1.802-.498c.721-.801 1.16-1.859 1.16-3.02s-.439-2.22-1.16-3.021a3.5 3.5 0 0 1 1.802-.498c1.939 0 3.518 1.579 3.518 3.518s-1.578 3.518-3.518 3.518Z"/></svg>