<!-- SPDX-FileCopyrightText: © 2025 Schneider Electric SPDX-License-Identifier: LicenseRef-Proprietary -->
<svg xmlns="http://www.w3.org/2000/svg" viewBox="0 0 16 16"><path d="M7.801.833 7.275.312c-.795-.786-2.444.045-3.801 1.14l-.579-.189a.5.5 0 0 0-.511.124L1.342 2.44a.5.5 0 0 0-.118.512l.196.578C.74 4.394-.637 6.394.322 7.343l.526.521c.159.157.421.312.838.312.177 0 .381-.028.618-.096a.5.5 0 0 0-.274-.961c-.329.093-.465.046-.479.033l-.526-.521c-.098-.098-.007-1.055 1.342-2.684a.5.5 0 0 0 .088-.479l-.186-.545.607-.614.547.179a.5.5 0 0 0 .479-.094C5.515 1.027 6.471.924 6.57 1.022l.526.521c.03.029.102.336-.268 1.085-.368.747-1.01 1.602-1.808 2.409-.611.618-1.051 1.023-1.624 1.392a.5.5 0 0 0 .541.841c.651-.419 1.133-.861 1.794-1.53.871-.881 1.58-1.829 1.994-2.669.633-1.284.39-1.926.074-2.239Zm-.698 6.28c0 1.923 4.431 2.495 6.942 1.747a.5.5 0 1 0-.285-.959c-.637.189-1.401.29-2.209.29-2.139 0-3.447-.698-3.447-1.078s1.309-1.079 3.447-1.079 3.447.698 3.447 1.079v6.85c0 .388-1.329 1.101-3.5 1.101s-3.5-.713-3.5-1.101V9.587a.5.5 0 0 0-1 0v4.376c0 1.379 2.264 2.101 4.5 2.101s4.5-.722 4.5-2.101v-6.85c0-2.73-8.895-2.73-8.895 0Zm4.876-3.282a.5.5 0 0 0 .657.102l1.556-1.003a.5.5 0 1 0-.542-.84l-.615.397c.209-.936.848-1.485 2.489-1.485a.5.5 0 0 0 0-1c-2.438 0-3.237 1.14-3.48 2.338l-.45-.546a.5.5 0 0 0-.771.637l1.157 1.402Z"/><path d="M13.997 13.5v-3.15a.5.5 0 0 0-1 0v3.15a.5.5 0 0 0 1 0Zm-4 0v-3.124a.5.5 0 0 0-1 0V13.5a.5.5 0 0 0 1 0Zm2 .282v-3.02a.5.5 0 0 0-1 0v3.02a.5.5 0 0 0 1 0Z"/></svg>