<!-- SPDX-FileCopyrightText: © 2025 Schneider Electric SPDX-License-Identifier: LicenseRef-Proprietary -->
<svg xmlns="http://www.w3.org/2000/svg" viewBox="0 0 16 16"><path d="M11.44 4.697A3.352 3.352 0 0 0 8.375-.001a3.352 3.352 0 0 0-3.296 3.936 3.216 3.216 0 1 0 1.991 6.113c-.185 1.017-.332 2.718-.192 5.477a.5.5 0 0 0 .499.475h.026a.5.5 0 0 0 .474-.524c-.251-4.929.453-6.246.453-6.248a.5.5 0 0 0-.77-.626 2.2 2.2 0 0 1-1.539.623 2.213 2.213 0 0 1-.266-4.412.5.5 0 0 0 .411-.666 2.35 2.35 0 0 1 2.209-3.146 2.35 2.35 0 0 1 1.933 3.681.502.502 0 0 0 .289.769 2.11 2.11 0 0 1 1.595 2.051 2.117 2.117 0 0 1-2.549 2.07.49.49 0 0 0-.591.388.5.5 0 0 0 .387.591q.313.066.638.065a3.12 3.12 0 0 0 3.115-3.114 3.11 3.11 0 0 0-1.752-2.803Z"/></svg>