<!-- SPDX-FileCopyrightText: © 2025 Schneider Electric SPDX-License-Identifier: LicenseRef-Proprietary -->
<svg xmlns="http://www.w3.org/2000/svg" viewBox="0 0 16 16"><path d="M9.203 5.022a1.01 1.01 0 0 0-.522-.895L1.576.141A1.07 1.07 0 0 0 .513.145 1.01 1.01 0 0 0 0 1.027v2.474a.5.5 0 0 0 1 0l.083-2.489 7.101 4.023L.999 9.009V6.501a.5.5 0 0 0-1 0v2.508c0 .363.189.691.507.878a1.07 1.07 0 0 0 1.06.011l7.105-3.99a1.01 1.01 0 0 0 .531-.886ZM6 9.5a.5.5 0 0 0 .5.5h9a.5.5 0 0 0 0-1h-9a.5.5 0 0 0-.5.5Zm9.5 2.5h-13a.5.5 0 0 0 0 1h13a.5.5 0 0 0 0-1Zm0 3h-13a.5.5 0 0 0 0 1h13a.5.5 0 0 0 0-1Z"/><circle cx=".5" cy="12.5" r=".5"/><circle cx=".5" cy="15.5" r=".5"/></svg>