<!-- SPDX-FileCopyrightText: © 2025 Schneider Electric SPDX-License-Identifier: LicenseRef-Proprietary -->
<svg xmlns="http://www.w3.org/2000/svg" viewBox="0 0 16 16"><path d="M5.167 7.077a.5.5 0 0 0 .705-.056L6.98 5.723a.5.5 0 0 0-.021-.672L5.821 3.873a.5.5 0 0 0-.719.695l.417.431h-3.02a.5.5 0 0 0 0 1h2.93l-.318.372a.5.5 0 0 0 .056.705Z"/><path d="m15.926 6.839-2.209-3.601a.5.5 0 0 0-.426-.239H10.5a.5.5 0 0 0-.5.5v4.5H2.5a.5.5 0 0 0 0 1h8a.5.5 0 0 0 .5-.5v-4.5h2.011L15 7.241v3.758h-1.979 0a.51.51 0 0 0-.434.305.5.5 0 0 0-.039.186v.023q.004.09.035.168h0a.5.5 0 0 0 .103.161h0l.002.003a1 1 0 0 1 .287.711 1.022 1.022 0 0 1-1.752.678.98.98 0 0 1-.286-.692.98.98 0 0 1 .311-.685h0v-.002a.5.5 0 0 0 .15-.356h0v-.002h0v-.002h0v-.002h0v-.002a.5.5 0 0 0-.136-.336q0 0 0 0t0 0 0 0h0v-.002h0a.5.5 0 0 0-.167-.114.5.5 0 0 0-.178-.038h-.003s-.009-.002-.013 0H5.505a.5.5 0 0 0-.273.919 1 1 0 0 1 .223.64c-.004.264-.115.513-.311.702s-.451.273-.725.286a1 1 0 0 1-.715-.311.97.97 0 0 1-.287-.693.98.98 0 0 1 .311-.684.5.5 0 0 0 .152-.348h0v-.031h0a.49.49 0 0 0-.312-.444.5.5 0 0 0-.175-.036H1V3h7v3.5a.5.5 0 0 0 1 0v-4a.5.5 0 0 0-.5-.5h-8a.5.5 0 0 0-.5.5v9a.5.5 0 0 0 .5.5h1.996q-.078.256-.083.526a1.96 1.96 0 0 0 .568 1.405c.375.388.878.606 1.417.615h.034c.526 0 1.023-.2 1.403-.567A1.99 1.99 0 0 0 6.375 12h3.645a2 2 0 0 0-.084.525c-.009.52.192 1.019.567 1.406.772.8 2.054.82 2.855.048a1.99 1.99 0 0 0 .54-1.979H15.5a.5.5 0 0 0 .5-.5V7.101a.5.5 0 0 0-.074-.261Z"/></svg>