<!-- SPDX-FileCopyrightText: © 2025 Schneider Electric SPDX-License-Identifier: LicenseRef-Proprietary -->
<svg xmlns="http://www.w3.org/2000/svg" viewBox="0 0 16 16"><path d="M13.506 1.373c-.287-.02-.488.179-.521.437-.404.435-3.315.812-4.918.812-2.098 0-4.84-.411-5.06-.825.252-.4 2.594-.772 5.012-.797a.5.5 0 0 0 .495-.505C8.512.22 8.31.03 8.009 0c-2.732.027-5.99.353-5.99 1.747 0 1.785 5.039 1.875 6.048 1.875.173 0 3.142-.01 4.806-.654l-.318 3.285c-.77-.285-2.213-.65-4.54-.65s-3.762.383-4.541.685l-.093-1.173a.5.5 0 0 0-.997.079l.151 1.898v.004l.046.538v.002l.557 6.603c.02.413.426 1.762 4.833 1.762s4.799-1.328 4.808-1.699l.662-6.654v-.009h0v-.006l.529-5.641a1 1 0 0 0 .009-.118.5.5 0 0 0-.476-.5ZM11.791 14.17c-.003.008-.394.83-3.819.83-3.389 0-3.824-.828-3.835-.828h0l-.483-5.738c.782.287 2.151.597 4.408.597 2.195 0 3.526-.295 4.295-.577l-.565 5.714Zm.671-6.853c-.392.214-1.607.715-4.401.715-2.752 0-4.03-.488-4.47-.711.54-.245 1.91-.719 4.424-.719 2.561 0 3.933.464 4.449.69z"/></svg>