<!-- SPDX-FileCopyrightText: © 2025 Schneider Electric SPDX-License-Identifier: LicenseRef-Proprietary -->
<svg xmlns="http://www.w3.org/2000/svg" viewBox="0 0 16 16"><path d="M13.208 3.356a.576.576 0 1 0 0-1.152.576.576 0 0 0 0 1.152Zm-8.126 9.646a.5.5 0 0 0 .251.571 5.8 5.8 0 0 0 2.72.668 6.3 6.3 0 0 0 1.897-.299 5.74 5.74 0 0 0 3.704-3.691 6.5 6.5 0 0 0 .319-2.482.5.5 0 0 0-.533-.464.5.5 0 0 0-.465.534 5.5 5.5 0 0 1-.272 2.103 4.74 4.74 0 0 1-3.056 3.048c-1.188.378-2.417.328-3.5-.135.207-.944.232-1.761.259-2.619.015-.468.029-.959.075-1.507a.5.5 0 0 0-.447-.54l-1.057-.107L4.993 7h1.656c.376.539.919.738 1.341.738.595 0 1.084-.247 1.455-.734L11 7.03v1.134l-1.311.202a.5.5 0 0 0-.424.499c.01 1.207.074 2.288.163 2.755a.5.5 0 1 0 .982-.188c-.056-.29-.118-1.065-.14-2.144l1.305-.201a.5.5 0 0 0 .424-.494V6.538a.5.5 0 0 0-.491-.5l-2.317-.039c-.206-.015-.347.09-.439.245-.258.435-.53.493-.762.493-.064 0-.395-.022-.606-.457a.5.5 0 0 0-.45-.281H4.5a.5.5 0 0 0-.5.493l-.029 2.033a.5.5 0 0 0 .449.505l1.03.104c-.022.376-.033.729-.043 1.07-.03.959-.056 1.789-.324 2.797Z"/><path d="M15.5 13a.5.5 0 0 0 .5-.5V1.53C16 .686 15.313 0 14.47 0H1.53C.686 0 0 .686 0 1.53v12.941C0 15.314.686 16 1.53 16h12.94c.901 0 1.53-.887 1.53-1.682a.5.5 0 0 0-1 0c0 .331-.272.682-.53.682H1.53a.53.53 0 0 1-.53-.529V1.53A.53.53 0 0 1 1.53 1h12.94a.53.53 0 0 1 .53.53V12.5a.5.5 0 0 0 .5.5Z"/><path d="M10.054 2.047a.5.5 0 0 0-.661.251c-.316.704-.147 1.211-.023 1.582.102.307.158.476.023.776a.5.5 0 0 0 .912.41c.295-.656.132-1.145.013-1.502-.105-.316-.169-.508-.013-.855a.5.5 0 0 0-.251-.661ZM3.707 4.733a.5.5 0 0 0-.692.144 6.05 6.05 0 0 0 .289 7.025.5.5 0 0 0 .789-.615 5.04 5.04 0 0 1-1.054-3.428c.057-.869.337-1.71.811-2.433a.5.5 0 0 0-.144-.692Zm2.262-2.696a.5.5 0 0 0-.661.251c-.316.704-.147 1.211-.023 1.581.103.307.159.476.023.777a.5.5 0 0 0 .913.41c.295-.657.132-1.146.013-1.503-.105-.316-.169-.507-.013-.854a.5.5 0 0 0-.251-.661Zm2.023 0a.5.5 0 0 0-.661.251c-.316.703-.147 1.21-.023 1.581.103.307.159.476.023.777a.501.501 0 0 0 .913.41c.296-.657.132-1.146.013-1.503-.105-.316-.169-.507-.013-.854a.5.5 0 0 0-.251-.661Z"/></svg>