<!-- SPDX-FileCopyrightText: © 2025 Schneider Electric SPDX-License-Identifier: LicenseRef-Proprietary -->
<svg xmlns="http://www.w3.org/2000/svg" viewBox="0 0 16 16"><path d="M13.979 2.834a1.43 1.43 0 0 0-.695-.857c-.7-.38-1.577-.119-1.919.521L9.932 4.441l.199-2.82a1.443 1.443 0 1 0-2.864-.347l-.384 3.659a.499.499 0 1 0 .994.104l.383-3.649a.44.44 0 0 1 .494-.385c.242.03.415.252.382.521L8.813 6.09a.499.499 0 0 0 .901.332l2.492-3.389a.446.446 0 0 1 .601-.178.44.44 0 0 1 .213.263.43.43 0 0 1-.023.315l-2.851 4.684-1.491-.862a1.42 1.42 0 0 0-1.088-.167 1.43 1.43 0 0 0-.707.415l-.695-1.605a1.35 1.35 0 0 0-.726-.742 1.353 1.353 0 0 0-1.72.588 1.358 1.358 0 0 0-1.663 1.798.5.5 0 0 0 .928-.372.356.356 0 0 1 .66-.264.5.5 0 0 0 .928-.373.357.357 0 0 1 .47-.46.37.37 0 0 1 .196.208l1.124 2.595.01.041c.12.411-.073.565-.196.619a.36.36 0 0 1-.467-.202l-.44-1.021a.5.5 0 0 0-.923.384.35.35 0 0 1-.003.272.36.36 0 0 1-.195.191.36.36 0 0 1-.463-.199.5.5 0 1 0-.928.372 1.357 1.357 0 0 0 2.11.551 1.355 1.355 0 0 0 1.675.582c.258-.099.553-.331.724-.681l.854.518c.297.181.482.51.482.859 0 .429.079.848.235 1.246a.5.5 0 0 0 .931-.365 2.4 2.4 0 0 1-.166-.881c0-.697-.369-1.354-.963-1.715l-.957-.58a.446.446 0 0 1 .122-.811.44.44 0 0 1 .338.056l2.584 1.495c.468.301.747.798.747 1.329v1.648a2.415 2.415 0 0 1-2.412 2.412H5.972a2.503 2.503 0 0 1-2.5-2.499v-1.001a.5.5 0 0 0-1 0v1.001c0 1.93 1.57 3.499 3.5 3.499h3.089a3.416 3.416 0 0 0 3.412-3.412v-1.648c0-.873-.451-1.685-1.226-2.183l-.238-.138 2.851-4.686c.184-.339.225-.729.115-1.099Z"/></svg>