<!-- SPDX-FileCopyrightText: © 2025 Schneider Electric SPDX-License-Identifier: LicenseRef-Proprietary -->
<svg xmlns="http://www.w3.org/2000/svg" viewBox="0 0 16 16"><path d="M11.924 6.747a.5.5 0 0 0 .681-.191l.5-.891a.501.501 0 0 0-.872-.49l-.5.891a.5.5 0 0 0 .191.681Zm3.384-1.253a.5.5 0 0 0-.449.546l.099 1.018a.5.5 0 0 0 .497.452l.049-.002a.5.5 0 0 0 .449-.546l-.099-1.018a.5.5 0 0 0-.546-.449ZM9.322.993l1.004.167a.5.5 0 0 0 .165-.986L9.486.007a.5.5 0 0 0-.164.986Zm5.585 3.667q.35 0 .697-.083a.5.5 0 1 0-.236-.972c-.753.183-1.537-.081-2.092-.704-.555-.624-.732-1.464-.462-2.195a.5.5 0 0 0-.938-.346c-.397 1.078-.147 2.306.654 3.206a3.2 3.2 0 0 0 2.377 1.094Zm.518 10.29c-.015.003-1.553.22-4.379-.282a.499.499 0 1 0-.175.984c1.574.279 2.77.348 3.562.348.723 0 1.11-.057 1.142-.062a.5.5 0 0 0-.15-.988ZM11.244 3.186a.5.5 0 0 0-.667-.234l-.918.441a.5.5 0 1 0 .433.901l.918-.441a.5.5 0 0 0 .234-.667ZM6.289 13.71c-3.323-.375-5.791.23-5.894.256a.5.5 0 1 0 .244.97c.023-.006 2.406-.588 5.538-.232a.506.506 0 0 0 .553-.44.5.5 0 0 0-.44-.554Z"/><path d="M7.391 8.872q.13-.283.148-.578c1.165.269 1.68-.227 1.867-.495.47-.673.236-1.742-.557-2.542-1.143-1.152-3.371-1.691-6.207.251C-.212 7.566-.449 9.85.281 11.3c.503 1 1.463 1.572 2.235 1.323.368-.116 1.193-.594.907-2.494a.5.5 0 0 0-.989.148c.131.867-.023 1.33-.221 1.393-.225.075-.73-.206-1.039-.819-.264-.525-.897-2.404 2.043-4.523 2.318-1.591 4.062-1.231 4.921-.366.509.514.587 1.065.447 1.265-.145.206-.687.234-1.572-.172a.5.5 0 0 0-.615.746c.156.217.184.436.085.649a.89.89 0 0 1-.697.483q-.33.027-.547-.266l-.035-.049a.5.5 0 0 0-.824.565q.022.034.046.066l4.125 5.86a.5.5 0 1 0 .817-.576L6.101 9.892A1.9 1.9 0 0 0 7.388 8.87Z"/></svg>