<!-- SPDX-FileCopyrightText: © 2025 Schneider Electric SPDX-License-Identifier: LicenseRef-Proprietary -->
<svg xmlns="http://www.w3.org/2000/svg" viewBox="0 0 16 16"><path d="M13.5 2H3.554l.872-1h7.17l.425.397a.5.5 0 0 0 .683-.731l-.569-.531A.5.5 0 0 0 11.793 0H4.198a.5.5 0 0 0-.377.171l-1.744 2A.5.5 0 0 0 2.454 3H13v12H3V4.5a.5.5 0 0 0-1 0v11a.5.5 0 0 0 .5.5h11a.5.5 0 0 0 .5-.5v-13a.5.5 0 0 0-.5-.5Z"/><path d="M5.09 8.638c-.04.116-.062.236-.075.362C4.434 9.013 4 9.413 4 9.941v3.067c0 .546.468.99 1.042.99H5.5s0 0 0 0a.5.5 0 0 0 .001-1L5 13.007l.042-3.009H5.5c.133 0 .26-.092.354-.186S6 9.553 6 9.42c0-.139 0-.396-.003-.423h.98a3.4 3.4 0 0 1 .023.5c0 .133.053.261.147.354s.231.134.355.146l1-.006c.276-.002.498-.355.497-.631 0-.133-.002-.355-.024-.363h.978c.02.065.046.207.046.5a.5.5 0 0 0 .5.5l.5-.061-.023 3.061-3.476-.012h-.001a.5.5 0 0 0-.001 1l3.477.012c.565 0 1.024-.443 1.024-.988V9.937c0-.535-.431-.939-1.003-.939h-.026c-.126-.858-.626-1-.94-1H8.976a.92.92 0 0 0-.672.261c-.206.207-.273.475-.294.736h-.029c-.052-.452-.239-.997-.907-.997H5.998c-.435 0-.766.232-.907.638Zm3.411-4.552a.5.5 0 0 0-.707-.025l-1.15 1.073a.5.5 0 0 0 .34.865h.456l-.222.206a.5.5 0 0 0 .682.732l1.15-1.072a.5.5 0 0 0-.34-.866h-.456l.222-.207a.5.5 0 0 0 .025-.707Z"/></svg>