<!-- SPDX-FileCopyrightText: © 2025 Schneider Electric SPDX-License-Identifier: LicenseRef-Proprietary -->
<svg xmlns="http://www.w3.org/2000/svg" viewBox="0 0 16 16"><path d="M15.931 10.352a.5.5 0 0 0-.521-.238l-2.403.445 2.608-4.047a.5.5 0 1 0-.839-.542l-3.236 5.02a.5.5 0 0 0 .511.762l2.194-.405-3.151 3.83a.499.499 0 1 0 .771.634l4.022-4.888a.5.5 0 0 0 .045-.572ZM12 8.492V5.5a.5.5 0 0 0-.5-.5h-3a.5.5 0 0 0-.5.5v1a.5.5 0 0 0 1 0V6h2v1.994L9.498 8a.5.5 0 0 0-.099.012c-.527.021-1.864.326-2.795 1.959-.328.575-.539.595-.562.595-.019.006-.027-.002-.042-.007V3.5a.5.5 0 0 0-.5-.5h-.867l.988-1.56L7.01 3.667a.5.5 0 0 0 .849-.529L6.048.235A.5.5 0 0 0 5.625 0h-.001a.5.5 0 0 0-.422.232l-1.899 3A.5.5 0 0 0 3.725 4H5v5.919a4 4 0 0 0-.211-.193c-.35-.288-.765-.425-1.167-.558-.713-.237-1.33-.441-1.626-1.355l-.032-.26a.5.5 0 0 0-.342-.414.895.895 0 0 1 .278-1.748.898.898 0 0 1 .723 1.43.499.499 0 1 0 .803.595 1.88 1.88 0 0 0 .372-1.129 1.9 1.9 0 0 0-3.799 0c0 .714.396 1.354 1.014 1.677l.009.061c.47 1.491 1.519 1.839 2.285 2.093.343.114.64.212.838.375.344.295.854.895.854 1.245v.488a1.977 1.977 0 0 0-.821 2.897A2 2 0 0 0 5.823 16a1.98 1.98 0 0 0 1.869-2.627.5.5 0 1 0-.944.33.96.96 0 0 1 .035.509.99.99 0 0 1-1.15.77.975.975 0 0 1-.772-1.146.98.98 0 0 1 .668-.744.5.5 0 0 0 .255-.181.5.5 0 0 0 .214-.41v-.935c.016 0 .035.002.048 0 .531-.003 1.01-.373 1.424-1.1.827-1.448 1.952-1.462 1.971-1.462v-.006L9.519 9l1.981-.008a.5.5 0 0 0 .498-.5Z"/></svg>