<!-- SPDX-FileCopyrightText: © 2025 Schneider Electric SPDX-License-Identifier: LicenseRef-Proprietary -->
<svg xmlns="http://www.w3.org/2000/svg" viewBox="0 0 16 16"><path d="m10.321 2.913-.949.446a.501.501 0 0 0 .425.906l.949-.446a.501.501 0 0 0-.426-.906ZM9.098 1.116l1.039.169a.5.5 0 1 0 .161-.987L9.259.129a.499.499 0 1 0-.161.987ZM7.5 9h2a.5.5 0 0 0 0-1h-.794l1.845-1.791a.5.5 0 0 0-.696-.718l-1.854 1.8v-.792a.5.5 0 0 0-1 0v2a.5.5 0 0 0 .5.5Zm4.314-1.934a.5.5 0 0 0 .683-.184l.518-.9a.5.5 0 0 0-.867-.499l-.518.9a.5.5 0 0 0 .184.683Zm3.472-1.391a.5.5 0 0 0-.449.546l.101 1.029a.5.5 0 0 0 .497.451l.049-.002a.5.5 0 0 0 .449-.546l-.101-1.029a.497.497 0 0 0-.546-.449Zm-.41-.84q.357 0 .699-.074a.5.5 0 1 0-.213-.977q-.236.051-.486.052a2.308 2.308 0 0 1-2.185-3.05.5.5 0 1 0-.945-.325 3.31 3.31 0 0 0 3.131 4.375ZM2.907 12.576 1 14.264v-.765a.5.5 0 0 0-1 0v2a.5.5 0 0 0 .5.5h2a.5.5 0 0 0 0-1h-.821l1.892-1.676a.499.499 0 1 0-.663-.748ZM15.5 15H6v-2.5a.5.5 0 0 0-1 0v3a.5.5 0 0 0 .5.5h10a.5.5 0 0 0 0-1ZM6 10.5a.5.5 0 0 0-.5-.5h-1a.5.5 0 0 0 0 1h1a.5.5 0 0 0 .5-.5ZM5.5 6h-1a.5.5 0 0 0 0 1h1a.5.5 0 0 0 0-1Zm0 2h-1a.5.5 0 0 0 0 1h1a.5.5 0 0 0 0-1ZM5 2.548V4.5a.5.5 0 0 0 1 0V2.328a.5.5 0 0 0-.163-.369L3.853.146a.5.5 0 0 0-.675.739z"/></svg>