<!-- SPDX-FileCopyrightText: © 2025 Schneider Electric SPDX-License-Identifier: LicenseRef-Proprietary -->
<svg xmlns="http://www.w3.org/2000/svg" viewBox="0 0 16 16"><path d="M.5 5h4.775a.5.5 0 0 0 .465-.316.5.5 0 0 0 .111-.084l2.344-2.344c.297-.003.604-.004.886-.002l-3.939 3.89A.5.5 0 0 0 5.493 7h2.242c.133 0 .26-.053.354-.146l1.852-1.852-.033.827-.31.329a.5.5 0 0 0 .728.686l.438-.465a.5.5 0 0 0 .136-.323l.042-1.055h4.56a.5.5 0 0 0 0-1h-4.519l.009-.237a.499.499 0 0 0-.853-.374L7.529 6h-.816l3.882-3.833a.5.5 0 0 0-.002-.716c-.167-.166-.227-.22-2.612-.192a.5.5 0 0 0-.347.146L6.001 3.038v-.606l.293-.292a.5.5 0 0 0-.707-.707l-.439.438a.5.5 0 0 0-.146.353L5 4H.5a.5.5 0 0 0 0 1Zm15 7H13V9.5a.5.5 0 0 0-.5-.5h-9a.5.5 0 0 0-.5.5V12H.5a.5.5 0 0 0 0 1H3v1.5a.5.5 0 0 0 .5.5h7a.5.5 0 0 0 0-1H4v-4h8v4.5a.5.5 0 0 0 1 0V13h2.5a.5.5 0 0 0 0-1Z"/></svg>