<!-- SPDX-FileCopyrightText: © 2025 Schneider Electric SPDX-License-Identifier: LicenseRef-Proprietary -->
<svg xmlns="http://www.w3.org/2000/svg" viewBox="0 0 16 16"><path d="M6.5 11a.5.5 0 0 0 0 1h5.102c1.097 0 2.081-.677 2.392-1.646.31-.963.042-1.968-.698-2.623a.5.5 0 1 0-.662.75c.438.387.595.987.408 1.567-.143.445-.547.784-1.042.904V7.499a.5.5 0 0 0-.5-.5H4.485c-1.092 0-2.073.673-2.387 1.637-.284.875-.093 1.792.512 2.452a.5.5 0 0 0 .738-.676c-.358-.391-.47-.939-.298-1.467.135-.416.499-.738.951-.875v3.429a.5.5 0 0 0 1 0v-3.5h6v3h-4.5Z"/><path d="M16 5.5v-2a.5.5 0 0 0-.5-.5H.5a.5.5 0 0 0-.5.5v10a.5.5 0 0 0 .5.5h15a.5.5 0 0 0 .5-.5V7.385a.5.5 0 0 0-1 0V13H1V4h14v1l-12.5.008a.5.5 0 0 0 0 1h0L15.5 6a.5.5 0 0 0 .5-.5Z"/></svg>