<!-- SPDX-FileCopyrightText: © 2025 Schneider Electric SPDX-License-Identifier: LicenseRef-Proprietary -->
<svg xmlns="http://www.w3.org/2000/svg" viewBox="0 0 16 16"><path d="M5.287 7.649c.568 0 1.085-.275 1.474-.616.39.341.907.616 1.474.616.791 0 1.484-.536 1.87-1.038a.5.5 0 0 0-.793-.609c-.229.299-.649.647-1.077.647s-.849-.349-1.078-.647a.5.5 0 0 0-.396-.195h0a.5.5 0 0 0-.397.196c-.246.322-.674.646-1.076.646-.454 0-.876-.168-1.077-.429a.5.5 0 0 0-.865.128 4.927 4.927 0 0 0 6.77 6.155.5.5 0 1 0-.44-.898 3.926 3.926 0 0 1-5.582-4.228c.347.175.758.271 1.193.271Z"/><path d="M14.5 12a.5.5 0 0 0 .5-.5V2.393C15 1.625 14.375 1 13.607 1H2.394c-.768 0-1.393.625-1.393 1.393v11.214c0 .769.624 1.394 1.393 1.394h11.214c.768 0 1.393-.625 1.393-1.394a.5.5 0 0 0-1 0 .394.394 0 0 1-.393.394H2.394A.395.395 0 0 1 2 13.607V2.393C2 2.177 2.177 2 2.394 2h11.214c.217 0 .393.176.393.393V11.5a.5.5 0 0 0 .5.5Z"/><path d="M12.591 9.631a.5.5 0 0 0 .083-.163c.134-.452.201-.918.201-1.387A4.927 4.927 0 0 0 7.953 3.16c-1.2 0-2.356.437-3.255 1.23a.5.5 0 0 0-.044.706c.184.209.5.228.706.044a3.92 3.92 0 0 1 2.594-.98 3.926 3.926 0 0 1 3.922 3.921q0 .51-.132 1.004c-.217.224-.607.365-1.023.365-.403 0-.83-.322-1.075-.641a.498.498 0 0 0-.792-.001c-.246.319-.674.642-1.078.642-.431 0-.849-.346-1.077-.642a.5.5 0 1 0-.793.609c.384.499 1.077 1.032 1.87 1.032.569 0 1.085-.273 1.475-.612.388.338.903.612 1.472.612.777 0 1.477-.306 1.871-.819Zm.442-6.136a.515.515 0 1 0-1.03 0 .515.515 0 0 0 1.03 0Z"/></svg>