<!-- SPDX-FileCopyrightText: © 2025 Schneider Electric SPDX-License-Identifier: LicenseRef-Proprietary -->
<svg xmlns="http://www.w3.org/2000/svg" viewBox="0 0 16 16"><path d="M6.541 13.818c-1.719-.069-2.678-.209-3.821-.853a.5.5 0 0 0-.491.871c1.29.727 2.422.887 3.797.959v.704a.5.5 0 0 0 1 0v-1.177a.52.52 0 0 0-.169-.375.5.5 0 0 0-.316-.13Z"/><path d="M13.684.932C12.396.502 10.118 0 7.936 0c-.534 0-1.412.021-1.99.06l-.028.002h0s0 0 0 0a.5.5 0 0 0-.346.2h0a.5.5 0 0 0-.08.168q0 0 0 0h0v.002h0a.49.49 0 0 0 .186.525l.027.019c.656.437.903 1.262.601 2.009a1.681 1.681 0 0 1-3.241-.598.5.5 0 0 0-.5-.49h-.018a.494.494 0 0 0-.518.5v8.729c0 .089.023.176.068.252.211.361.541.776 1.229.776.348 0 .681-.11.95-.304.539.387 1.361.387 1.901 0 .54.387 1.361.387 1.901 0 .27.193.602.304.951.304a.5.5 0 0 0 0-1 .6.6 0 0 1-.519-.28.5.5 0 0 0-.431-.248h0a.5.5 0 0 0-.431.247c-.204.348-.836.348-1.039 0-.18-.307-.684-.307-.863 0-.202.348-.835.347-1.038 0-.179-.307-.685-.307-.863 0a.6.6 0 0 1-.519.28c-.115 0-.184-.009-.297-.172V4.417q.316.264.711.425a2.684 2.684 0 0 0 3.493-1.483 2.66 2.66 0 0 0-.153-2.35c.321-.008.629-.012.859-.012 1.771 0 3.76.372 5.09.772v6.234a.5.5 0 0 0-.318.235c-.169.29-.247.304-.369.304a.6.6 0 0 1-.519-.281c-.179-.308-.685-.308-.863 0-.202.347-.835.347-1.037 0a.5.5 0 0 0-.431-.248h0a.5.5 0 0 0-.431.247c-.204.346-.835.348-1.039 0-.18-.307-.684-.307-.863 0-.203.347-.835.347-1.038 0a.5.5 0 0 0-.431-.248h0a.5.5 0 0 0-.431.247.6.6 0 0 1-.521.282.5.5 0 0 0 0 1c.348 0 .681-.11.951-.304.539.387 1.361.387 1.901 0 .541.387 1.36.387 1.901 0 .539.387 1.36.387 1.901 0 .491.353 1.245.36 1.637.115v3.759c-1.072.34-2.081.561-3.532.619a.5.5 0 0 0-.468.499v1.267a.5.5 0 0 0 1 0v-.793c1.446-.098 2.491-.364 3.658-.754a.5.5 0 0 0 .342-.475V1.406a.5.5 0 0 0-.342-.474Z"/><path d="m4.815 7.267.026-.779a.5.5 0 0 0-.483-.516c-.271-.023-.507.207-.516.483l-.026.779a.5.5 0 0 0 .483.516h.017a.5.5 0 0 0 .499-.483Zm4.037-4.184.779.004h.002a.5.5 0 0 0 .002-1l-.779-.004h-.002a.5.5 0 0 0-.002 1ZM7.798 4.291a.5.5 0 0 0 .158.689l.659.414a.496.496 0 0 0 .689-.157.5.5 0 0 0-.158-.689l-.659-.414a.5.5 0 0 0-.689.158Zm-.771 2.907a.5.5 0 0 0 .441-.735l-.366-.688a.5.5 0 0 0-.883.469l.366.688a.5.5 0 0 0 .442.265Z"/></svg>