<!-- SPDX-FileCopyrightText: © 2025 Schneider Electric SPDX-License-Identifier: LicenseRef-Proprietary -->
<svg xmlns="http://www.w3.org/2000/svg" viewBox="0 0 16 16"><path d="M1.5 12a.5.5 0 0 0 .5-.5V2.265c0-.584.836-1.233 1.627-1.263.625-.024 1.052.212 1.43.421.273.15.531.292.821.292.312 0 .558-.163.796-.32.293-.194.596-.396 1.1-.396.548 0 .984.242 1.37.456.304.169.566.314.856.314.337 0 .578-.192.771-.346.237-.189.461-.369.939-.369.443 0 .797.184 1.082.563a.5.5 0 0 0 .799-.601C13.117.387 12.467.054 11.71.054c-.828 0-1.271.353-1.563.587-.063.051-.15.12-.132.129C9.95.759 9.764.656 9.627.58 9.186.335 8.58-.001 7.773-.001S6.459.337 6.121.561l-.233.154C5.829.706 5.661.613 5.539.546 5.121.317 4.504-.026 3.59.003 2.367.049 1 1.025 1 2.265V11.5a.5.5 0 0 0 .5.5Z"/><path d="M9 3.5v9a.5.5 0 0 0 1 0v-9a.5.5 0 0 0-1 0Zm2-1v11a.5.5 0 0 0 1 0v-11a.5.5 0 0 0-1 0Zm-4 0v11a.5.5 0 0 0 1 0v-11a.5.5 0 0 0-1 0Z"/><path d="M15.5 2a.5.5 0 0 0-.5.5V3h-1.5a.5.5 0 0 0-.5.5v10.122c0 .264-.323.744-.722 1.072a1.5 1.5 0 0 1-.948.331c-.432 0-.646-.15-.92-.341-.272-.191-.612-.429-1.132-.429-.506 0-.817.243-1.068.438-.247.192-.425.331-.83.331-.471 0-.712-.157-.992-.34-.257-.167-.549-.357-.965-.357-.411 0-.698.191-.951.36-.272.181-.507.337-.958.337-.576 0-1.139-.118-1.139-1.525a.5.5 0 0 0-.5-.5H.5a.5.5 0 0 0 0 1h.901c.173 1.659 1.222 2.025 2.114 2.025.754 0 1.192-.292 1.512-.505.399-.265.44-.241.816.003.325.212.77.502 1.538.502.748 0 1.15-.313 1.444-.543.467-.362.581-.28 1.013.021.314.22.746.521 1.492.521.586 0 1.149-.199 1.585-.561.501-.411 1.085-1.141 1.085-1.843V4h1v.5a.5.5 0 0 0 1 0v-2a.5.5 0 0 0-.5-.5Z"/><path d="M3 2.5v11a.5.5 0 0 0 1 0v-11a.5.5 0 0 0-1 0Zm2.5.5a.5.5 0 0 0-.5.5v9a.5.5 0 0 0 1 0v-9a.5.5 0 0 0-.5-.5Z"/></svg>