<!-- SPDX-FileCopyrightText: © 2025 Schneider Electric SPDX-License-Identifier: LicenseRef-Proprietary -->
<svg xmlns="http://www.w3.org/2000/svg" viewBox="0 0 16 16"><path d="M11.245.144a.5.5 0 0 0-.707.005l-2.222 2.25a.5.5 0 0 0 .005.707A6.83 6.83 0 0 1 10.368 8a6.82 6.82 0 0 1-1.704 4.53l-1.526-1.545A4.68 4.68 0 0 0 8.205 8c0-1.269-.499-2.46-1.405-3.355a.5.5 0 0 0-.351-.144c-.156-.031-.263.054-.357.15L4.405 6.369a1.925 1.925 0 0 0-2.374.272 1.924 1.924 0 0 0 0 2.717 1.925 1.925 0 0 0 2.717 0 .5.5 0 0 0-.707-.707.925.925 0 0 1-1.303 0 .923.923 0 0 1 0-1.303.923.923 0 0 1 1.303 0 .51.51 0 0 0 .426.141.52.52 0 0 0 .386-.149l1.578-1.608c.502.647.773 1.436.773 2.267 0 1-.393 1.938-1.107 2.644a.5.5 0 0 0-.005.707l2.223 2.251a.5.5 0 0 0 .707.004A7.82 7.82 0 0 0 11.367 8a7.82 7.82 0 0 0-2-5.244l1.521-1.541a9.96 9.96 0 0 1 2.642 6.784 9.97 9.97 0 0 1-2.989 7.145.5.5 0 1 0 .702.71c2.12-2.092 3.287-4.882 3.287-7.855S13.364 2.237 11.245.144Z"/></svg>