<!-- SPDX-FileCopyrightText: © 2025 Schneider Electric SPDX-License-Identifier: LicenseRef-Proprietary -->
<svg xmlns="http://www.w3.org/2000/svg" viewBox="0 0 16 16"><path d="M5.979 4.768a.5.5 0 1 0-.531-.847c-1.417.888-2.262 2.413-2.262 4.08s.846 3.192 2.262 4.08a.5.5 0 1 0 .531-.847c-1.123-.703-1.793-1.912-1.793-3.232s.67-2.528 1.793-3.232Z"/><path d="M5.027 14.336C2.58 13.186 1 10.699 1 8s1.58-5.186 4.027-6.335a.501.501 0 0 0-.426-.906C1.806 2.073 0 4.915 0 8s1.806 5.928 4.602 7.24a.5.5 0 1 0 .425-.904ZM12.814 8a4.79 4.79 0 0 0-2.262-4.08.5.5 0 0 0-.531.847c1.123.704 1.793 1.912 1.793 3.232s-.67 2.529-1.793 3.232a.5.5 0 1 0 .532.847 4.79 4.79 0 0 0 2.262-4.08Z"/><path d="M11.399.759a.5.5 0 0 0-.426.906C13.419 2.814 15 5.301 15 8s-1.581 5.187-4.027 6.336a.499.499 0 1 0 .426.904c2.795-1.312 4.602-4.155 4.602-7.24S14.194 2.074 11.399.76Z"/></svg>