<!-- SPDX-FileCopyrightText: Copyright © 2024 Weibo Corp. All Rights Reserved. SPDX-License-Identifier: LicenseRef-Proprietary -->
<svg xmlns="http://www.w3.org/2000/svg" class="Logo_main_2QxW2" version="1.1" viewBox="0 0 393.797 318.998"><g fill="none"><path fill="tranparent" d="M28.956 219.387c0 45.849 59.707 83.045 133.364 83.045s133.363-37.197 133.363-83.045c0-45.86-59.707-83.045-133.364-83.045-73.656 0-133.363 37.186-133.363 83.045"/><path fill="#ffffff" d="M165.436 295.659c-65.199 6.433-121.469-23.032-125.714-65.833-4.234-42.791 45.204-82.708 110.383-89.151 65.209-6.453 121.469 23.01 125.714 65.802 4.213 42.812-45.195 82.729-110.383 89.182m130.387-142.077c-5.553-1.657-9.358-2.782-6.443-10.084 6.29-15.811 6.934-29.465.123-39.191-12.794-18.276-47.772-17.284-87.862-.501 0-.01-12.59 5.512-9.368-4.47 6.177-19.83 5.236-36.44-4.357-46.022-21.743-21.764-79.599.818-129.201 50.4C21.57 140.88 0 180.254 0 214.29c0 65.117 83.516 104.707 165.211 104.707 107.1 0 178.343-62.213 178.343-111.62 0-29.854-25.139-46.79-47.731-53.796m71.121-119.169c-25.865-28.677-64.023-39.61-99.235-32.124h-.01c-8.141 1.749-13.336 9.757-11.598 17.888 1.728 8.15 9.747 13.357 17.898 11.608 25.057-5.318 52.159 2.465 70.558 22.827 18.348 20.373 23.349 48.16 15.484 72.51v.01c-2.567 7.927 1.769 16.416 9.716 18.983 7.916 2.557 16.425-1.78 18.992-9.695v-.051c11.045-34.262 4.05-73.31-21.805-101.956"/><path fill="#ffffff" d="M327.216 70.252c-12.59-13.96-31.162-19.268-48.324-15.617-7.016 1.493-11.495 8.397-9.972 15.412 1.483 6.985 8.386 11.485 15.372 9.96v.02c8.407-1.78 17.489.809 23.645 7.61 6.167 6.832 7.814 16.139 5.165 24.3h.02c-2.199 6.81 1.534 14.144 8.345 16.353 6.832 2.178 14.144-1.544 16.343-8.366 5.392-16.69 2.017-35.711-10.594-49.672m-158.19 147.892c-2.27 3.897-7.312 5.768-11.27 4.142-3.886-1.595-5.103-5.942-2.884-9.788 2.27-3.805 7.108-5.666 10.984-4.122 3.937 1.433 5.349 5.84 3.17 9.768m-20.761 26.672c-6.32 10.043-19.82 14.45-29.986 9.818-10.023-4.561-12.978-16.251-6.678-26.06 6.218-9.776 19.278-14.123 29.373-9.89 10.216 4.359 13.468 15.956 7.291 26.132m23.676-71.202c-31.019-8.08-66.089 7.384-79.558 34.732-13.725 27.869-.45 58.817 30.897 68.942 32.451 10.462 70.722-5.584 84.037-35.663 13.112-29.423-3.273-59.716-35.376-68.011"/></g></svg>