<!-- SPDX-FileCopyrightText: © 2025 Schneider Electric SPDX-License-Identifier: LicenseRef-Proprietary -->
<svg xmlns="http://www.w3.org/2000/svg" viewBox="0 0 16 16"><path d="m15.691 12.236-5.095-5.09c.798-1.442.861-2.735.153-3.425L7.204.148a.5.5 0 0 0-.71.704l3.551 3.579c.328.32.242 1.09-.19 1.974l-.401-.4a.5.5 0 0 0-.707.707l.848.847.041.041 5.347 5.341c.06.112-.06.691-.684 1.333-.625.64-1.204.775-1.301.73-.06-.112.061-.692.685-1.333a.5.5 0 1 0-.716-.697 3.9 3.9 0 0 0-.814 1.196L7.589 9.605l-.015-.015-.579-.579a1 1 0 0 0-.059-.069c-.059-.114.066-.7.696-1.346a.5.5 0 1 0-.716-.698c-.941.965-1.248 2.059-.767 2.662a.5.5 0 0 0 .074.094l.174.174c-.771.351-1.443.413-1.736.134l-.027-.028c-.496-.55.064-2.287 1.584-3.845A8 8 0 0 1 7.432 5.06a.5.5 0 1 0-.565-.825 9 9 0 0 0-1.365 1.156C4.398 6.523 3.709 7.748 3.515 8.783L.864 6.055a.5.5 0 0 0-.717.697l3.758 3.868.052.054.002.002c.674.655 1.847.615 3.184-.101l5.102 5.102q.036.037.078.063c.196.177.448.262.732.262.586 0 1.308-.362 1.959-1.031.983-1.008 1.266-2.16.677-2.734Z"/></svg>