<!-- SPDX-FileCopyrightText: Copyright © 2022 Jet Brilliant Limited SPDX-License-Identifier: LicenseRef-Proprietary -->
<svg xmlns="http://www.w3.org/2000/svg" version="1.1" viewBox="0 0 54.631 66" xmlns:xlink="http://www.w3.org/1999/xlink"><defs><linearGradient id="a" x1="11.213" x2="30.824" y1="59.227" y2="48.247" gradientTransform="scale(1.16202 .86057)" gradientUnits="userSpaceOnUse"><stop offset="0%" stop-color="#FF8000"/><stop offset="100%" stop-color="#FF6400"/></linearGradient><linearGradient id="b" x1="9.351" x2="49.391" y1="16.021" y2="37.373" gradientTransform="scale(1.0665 .93765)" gradientUnits="userSpaceOnUse"><stop offset="0%" stop-color="#00C1FF"/><stop offset="39.753%" stop-color="#09B2FF"/><stop offset="100%" stop-color="#2C78FF"/></linearGradient></defs><g fill="none" fill-rule="nonzero" stroke="none" stroke-width="1"><path fill="url(#a)" d="M18.891 31.776 20.95 33l25.262 15.026-27.267 16.23C12.904 67.849 5.18 65.718 1.694 59.49S.274 45.301 6.316 41.708l12.54-7.462c.414-.251.692-.715.692-1.246 0-.516-.262-.968-.657-1.224z"/><path fill="url(#b)" d="M46.212 17.97 18.945 1.746C12.904-1.848 5.18.283 1.694 6.51S.274 20.699 6.316 24.292l14.638 8.71L46.212 48.03v0c11.225-6.68 11.225-23.38 0-30.06z"/></g></svg>