<!-- SPDX-FileCopyrightText: © 2024 Google LLC SPDX-License-Identifier: LicenseRef-Proprietary -->
<svg xmlns="http://www.w3.org/2000/svg" version="1.1" viewBox="0 0 234.666 234.666"><path fill="#000000" d="M117.332 34.667s-73.382 0-91.682 4.936C15.553 42.319 7.601 50.32 4.902 60.483 0 78.903 0 117.333 0 117.333s0 38.428 4.902 56.85c2.699 10.16 10.651 18.165 20.748 20.882C43.95 200 117.332 200 117.332 200s73.383.001 91.682-4.934c10.098-2.717 18.05-10.721 20.748-20.882 4.904-18.422 4.904-56.85 4.904-56.85s0-38.43-4.904-56.85c-2.699-10.162-10.65-18.164-20.748-20.88-18.299-4.936-91.682-4.936-91.682-4.936zm-24 47.773 61.334 34.895-61.334 34.89Z"/></svg>