<!-- SPDX-FileCopyrightText: © 2025 Schneider Electric SPDX-License-Identifier: LicenseRef-Proprietary -->
<svg xmlns="http://www.w3.org/2000/svg" viewBox="0 0 16 16"><path d="M3.092 2.803a.501.501 0 0 0-.752-.66C.86 3.83-2.107 8.347 2.307 13.839a.5.5 0 1 0 .779-.626C-.853 8.312 1.777 4.3 3.091 2.803Z"/><path d="M4.399 3.698a.5.5 0 0 0-.705.06c-2.176 2.582-2.183 5.6-.019 8.5a.5.5 0 0 0 .699.101.5.5 0 0 0 .102-.699c-1.885-2.526-1.892-5.035-.019-7.257a.5.5 0 0 0-.06-.705Zm9.261-1.554a.501.501 0 0 0-.752.66c1.313 1.498 3.943 5.509.005 10.41a.5.5 0 1 0 .779.626c4.414-5.492 1.447-10.009-.032-11.696Z"/><path d="M12.31 3.758a.502.502 0 0 0-.766.645c1.873 2.223 1.867 4.732-.018 7.257a.499.499 0 0 0 .401.799.5.5 0 0 0 .4-.201c2.164-2.898 2.158-5.917-.018-8.5Zm-2.132 6.523c-.703.201-2.875.079-3.651.018h-.001 0l3.521-3.982c.301-.34.398-.731.268-1.072-.131-.341-.464-.567-.916-.62-.283-.033-2.793-.307-3.928.147a.501.501 0 0 0 .371.929c.763-.305 2.742-.163 3.441-.083l.04.006-.026.031-3.52 3.981c-.304.344-.4.733-.264 1.07.135.337.475.552.933.589a30 30 0 0 0 2.266.097c.677 0 1.341-.035 1.738-.147a.5.5 0 1 0-.271-.963Z"/></svg>