<!-- SPDX-FileCopyrightText: © 2025 Schneider Electric SPDX-License-Identifier: LicenseRef-Proprietary -->
<svg xmlns="http://www.w3.org/2000/svg" viewBox="0 0 16 16"><path d="M3.985 4.143c.268.155.678 1.421.832 1.898a.5.5 0 1 0 .951-.307c-.41-1.267-.833-2.578-1.723-2.578-1.153 0-1.525 1.837-2.04 4.379C1.7 9.04 1.133 11.843.499 11.843a.5.5 0 0 0 0 1c1.452 0 1.954-2.482 2.486-5.109.257-1.268.686-3.39 1-3.591ZM15.5 11.845c-.634 0-1.204-2.803-1.511-4.309-.517-2.543-.891-4.38-2.044-4.38-1.132 0-1.598 1.799-2.265 4.734-.321 1.41-.857 3.771-1.278 3.957-.011-.003-.285-.095-.775-1.27a.5.5 0 0 0-.923.385c.388.932.893 1.884 1.687 1.884 1.131 0 1.598-1.799 2.265-4.733.321-1.411.857-3.772 1.264-3.961.401.193.833 2.316 1.09 3.584.535 2.628 1.04 5.11 2.491 5.11a.5.5 0 0 0 0-1Z"/><path d="M8.647 6.136a.5.5 0 0 0 .974-.228c-.325-1.393-.725-2.753-1.698-2.753-1.132 0-1.598 1.799-2.265 4.734-.321 1.41-.857 3.771-1.278 3.957-.011-.003-.285-.095-.776-1.27a.5.5 0 0 0-.923.385c.389.932.894 1.884 1.687 1.884 1.131 0 1.598-1.799 2.265-4.733.321-1.411.857-3.772 1.264-3.961.076.037.354.288.75 1.986Zm4.749 4.967a.504.504 0 0 0-.665.243c-.186.399-.312.486-.312.499-.039-.016-.309-.16-.771-1.268a.5.5 0 0 0-.923.385c.389.932.893 1.884 1.687 1.884.726 0 1.103-.811 1.227-1.077a.5.5 0 0 0-.243-.665Z"/></svg>