<!-- SPDX-FileCopyrightText: © 蚂蚁科技集团股份有限公司 SPDX-License-Identifier: LicenseRef-Proprietary -->
<svg xmlns="http://www.w3.org/2000/svg" data-name="Alipay+" version="1.1" viewBox="0 0 120 40"><path fill="#3e3a3a" d="M29.73 9.271v17.83h3.86V9.272Zm-11.94.61L12 27.1h3.566l.977-3.37h6.13l.929 3.37h4.566L22.967 9.88Zm1.855 3.101h.1l2.173 7.938H17.35zm30.654.756c-1.417 0-2.517.537-3.762 1.563v-1.293h-3.86v17.246h3.86V26.98a8.4 8.4 0 0 0 2.248.293l-.002-.002c3.443 0 6.547-2.542 6.547-7.06 0-4.054-2.248-6.473-5.031-6.473zm12.724 0c-1.977 0-3.347.342-5.837 1.1l.683 3.002c2.271-1.026 3.274-1.465 4.324-1.465 1.27 0 1.832.905 1.832 2.297v.098c-4.42.83-5.788 1.294-6.642 2.148-.634.634-.904 1.54-.904 2.59 0 2.515 1.953 3.86 3.785 3.86 1.366 0 2.468-.514 3.957-1.638l.267 1.368v.002h3.86l-.465-3.274v-5.47c0-2.98-1.758-4.618-4.86-4.618zm-26.796.272v13.092h3.859V14.01Zm32.412 0 5.203 13.138-2.176 4.006v.1h3.395l6.57-17.219.025-.025h-3.64l-2.295 7.96H75.6l-2.64-7.96zm-19.81 2.734v.002c1.441 0 2.589 1.146 2.589 3.588 0 3.127-1.685 4.52-3.566 4.52-.44 0-.854-.05-1.319-.196v-7.084c.806-.56 1.464-.83 2.295-.83zm15.19 4.057v3.127c-1.025.56-1.612.781-2.296.781-.928 0-1.514-.61-1.514-1.588h.002c0-.366.072-.732.365-1.025.465-.465 1.367-.808 3.444-1.295z"/><path fill="#1677ff" d="M38.156 8.734c-1.295 0-2.222.878-2.222 2.123 0 1.27.927 2.125 2.222 2.125 1.296 0 2.223-.854 2.223-2.125s-.927-2.123-2.223-2.123zm56.715.539v8.762a4.366 4.366 0 0 0 4.367 4.365H108v-2.257a2.11 2.11 0 0 0-2.107-2.108h-6.655v-6.654a2.11 2.11 0 0 0-2.107-2.108z"/><path fill="#00b6ff" d="M86.11 18.035v2.26h.001c0 1.164.944 2.105 2.106 2.105h4.531v-4.365zm8.761 6.506v4.514c0 1.164.946 2.105 2.108 2.105h2.26v-6.619z"/></svg>