<!-- SPDX-FileCopyrightText: © 2025 Schneider Electric SPDX-License-Identifier: LicenseRef-Proprietary -->
<svg xmlns="http://www.w3.org/2000/svg" viewBox="0 0 16 16"><path d="M13.047 3.218a.5.5 0 0 0-.7-.102l-1.043.778c-.402-.335-1.278-.947-2.323-.947-1.409 0-2.511 1.111-2.557 1.158a.5.5 0 0 0 0 .699c.022.023.227.229.563.464q.12.083.259.168a.5.5 0 0 0 .516-.856 4 4 0 0 1-.191-.124c.344-.237.857-.509 1.41-.509s1.067.271 1.41.508c-.343.238-.856.508-1.41.508a.5.5 0 0 0 0 1c1.112 0 2.033-.692 2.394-1.007l.972.725a.5.5 0 0 0 .598-.802l-.645-.48.645-.481a.5.5 0 0 0 .102-.7ZM2.111 7.575a.5.5 0 0 0 .102.7l.645.481-.645.481a.5.5 0 1 0 .598.801l1.043-.777c.402.335 1.278.946 2.323.946a.5.5 0 0 0 0-1c-.554 0-1.066-.27-1.409-.507.344-.237.857-.508 1.409-.508s1.067.271 1.41.508l-.123.082a.5.5 0 1 0 .535.845c.442-.28.723-.565.734-.577a.5.5 0 0 0 0-.699c-.046-.047-1.148-1.158-2.557-1.158-1.112 0-2.033.692-2.394 1.007l-.972-.725a.5.5 0 0 0-.7.102Z"/><path d="M15.295.543c-.128.053-2.234.904-4.447.251C8.488.098 7.425.355 6.079.678l-.456.108c-1.131.26-2.124.322-2.952.185a.5.5 0 1 0-.163.987c.957.159 2.081.092 3.338-.196l.466-.11c1.248-.3 2.149-.517 4.252.103 1.813.535 3.517.213 4.436-.053v11.3h-1.989c.031-.068.079-.162.118-.236.24-.461.603-1.158.39-1.978-.249-.961-.093-1.401-.04-1.464a.6.6 0 0 0 .093-.073l.366-.367a.502.502 0 0 0-.708-.708l-.334.335c-.416.309-.71 1.119-.345 2.526.116.448-.11.883-.31 1.266-.13.25-.243.468-.255.698h-.816c.046-.113.109-.238.175-.369.303-.601.76-1.508.067-2.547a.5.5 0 1 0-.832.554c.352.527.181.93-.128 1.542-.119.237-.243.482-.307.738l-.014.081H1V1.5a.5.5 0 0 0-1 0v12a.5.5 0 0 0 .5.5H2v1.5a.5.5 0 0 0 1 0V14h10v1.5a.5.5 0 0 0 1 0V14h1.5a.5.5 0 0 0 .5-.5V.999c0-.35-.407-.589-.705-.456Z"/><circle cx="3.5" cy="3.5" r=".5"/><circle cx="4.5" cy="5.5" r=".5"/><circle cx="10.5" cy="8.5" r=".5"/><circle cx="11.5" cy="6.5" r=".5"/></svg>