<!-- SPDX-FileCopyrightText: © 2025 Schneider Electric SPDX-License-Identifier: LicenseRef-Proprietary -->
<svg xmlns="http://www.w3.org/2000/svg" viewBox="0 0 16 16"><path d="M15.1 7.812c-1.48-2.204-4.811-1.211-4.937-1.173-.058.016-1.289.353-2.655.997C7.13 6.411 6.129 3.6 4.518 2.131A.5.5 0 0 0 4.181 2H.5a.5.5 0 0 0-.414.781c.026.038 2.56 3.862 3.596 11.798a.5.5 0 0 0 .495.436q.032.001.065-.004a.5.5 0 0 0 .431-.561C3.863 8.24 2.186 4.513 1.373 3h2.61c1.745 1.735 2.718 5.437 2.728 5.475a.5.5 0 0 0 .716.318c1.466-.767 2.984-1.184 3.015-1.193.027-.007 2.762-.818 3.829.77 1.03 1.534.718 4.54.562 5.63h-.835v-1.5a.5.5 0 0 0-.5-.5H5.666a.5.5 0 0 0 0 1h7.332v1.5a.5.5 0 0 0 .5.5h1.761a.5.5 0 0 0 .491-.406c.035-.186.845-4.555-.65-6.781Z"/></svg>