<!-- SPDX-FileCopyrightText: © 2024 Schneider Electric SPDX-License-Identifier: LicenseRef-Proprietary -->
<svg xmlns="http://www.w3.org/2000/svg" fill="currentColor" viewBox="0 0 20 20" xmlns:xlink="http://www.w3.org/1999/xlink"><g fill-rule="evenodd" clip-path="url(#a)" clip-rule="evenodd"><path d="M9.47 1A8.5 8.5 0 0 0 1 9.47a.5.5 0 0 1-1 0A9.5 9.5 0 0 1 9.47 0c5.2 0 7.88 3.04 9.13 5.84a.5.5 0 1 1-.92.4A8.45 8.45 0 0 0 9.47 1Z"/><path d="M19.5 1.53a.5.5 0 0 1 .39.6l-.91 4.06v.03a1 1 0 0 1-.38.5.9.9 0 0 1-.8.07l-3.9-1.12a.5.5 0 0 1 .27-.96l3.87 1.1.87-3.9a.5.5 0 0 1 .6-.38Zm-.1 8.5c.28 0 .5.22.5.5A9.47 9.47 0 0 1 10.43 20a10 10 0 0 1-6.14-1.9 9.5 9.5 0 0 1-3-3.95.5.5 0 1 1 .93-.38A8.5 8.5 0 0 0 4.9 17.3c1.3.99 3.1 1.69 5.54 1.69a8.47 8.47 0 0 0 8.47-8.47c0-.28.22-.5.5-.5Z"/><path d="M2.1 13.21 6 14.34a.5.5 0 0 1-.27.96l-3.87-1.1-.87 3.9a.5.5 0 0 1-.98-.22l.91-4.06v-.03a1 1 0 0 1 .38-.5.9.9 0 0 1 .8-.06Z"/></g><defs><clipPath id="a"><path d="M0 0h20v20H0z"/></clipPath></defs></svg>