<!-- SPDX-FileCopyrightText: © 2025 Schneider Electric SPDX-License-Identifier: LicenseRef-Proprietary -->
<svg xmlns="http://www.w3.org/2000/svg" viewBox="0 0 16 16"><path d="M15.145 1.035H9.856c-.452 0-.82.388-.82.864V3.5a.465.465 0 1 0 .93 0V1.965h5.07v2.07h-4.535a.465.465 0 1 0 0 .93h4.645c.452 0 .82-.388.82-.864V1.899c0-.476-.368-.864-.82-.864ZM4.532 6.153a.464.464 0 0 0 .654.06l2.941-2.451a.465.465 0 0 0 .011-.705L5.198.448a.465.465 0 0 0-.617.695l1.864 1.654c-1.17-.045-3.233.09-4.711 1.322C.644 5.026.073 6.353.037 8.06c-.039 1.864.51 3.27 1.631 4.18 1.467 1.189 3.538 1.206 4.746 1.088l-1.823 1.519a.466.466 0 0 0 .594.715l2.941-2.45a.463.463 0 0 0 .011-.705L5.196 9.798a.464.464 0 1 0-.617.695l2.103 1.865c-.962.133-3.075.262-4.431-.842C1.365 10.796.933 9.64.966 8.08c.03-1.425.487-2.516 1.358-3.244 1.358-1.134 3.414-1.155 4.372-1.092L4.591 5.499a.465.465 0 0 0-.06.654Zm10.613 4.882H9.856c-.452 0-.82.388-.82.864V13.5a.465.465 0 1 0 .93 0v-1.535h5.07v2.07h-4.535a.465.465 0 1 0 0 .93h4.645c.452 0 .82-.388.82-.864V11.9c0-.477-.368-.864-.82-.864Zm0-5H9.856c-.452 0-.82.388-.82.864V8.5a.465.465 0 1 0 .93 0V6.965h5.07v2.07h-4.535a.465.465 0 1 0 0 .93h4.645c.452 0 .82-.388.82-.864V6.899c0-.476-.368-.864-.82-.864Z"/></svg>