<!-- SPDX-FileCopyrightText: © 2025 Schneider Electric SPDX-License-Identifier: LicenseRef-Proprietary -->
<svg xmlns="http://www.w3.org/2000/svg" viewBox="0 0 16 16"><path d="M5.805 11h-4.26l1.412-1.523a.5.5 0 1 0-.734-.68l-2.09 2.256a.5.5 0 0 0-.012.667l2.18 2.523a.5.5 0 0 0 .757-.654L1.685 12h4.119a.5.5 0 0 0 0-1Z"/><path d="M15.5 6.1h-6a.5.5 0 0 0-.5.5v1.5H6.519l-.022-1.507a.5.5 0 0 0-.5-.493H1V5h14.5a.5.5 0 0 0 0-1h-4.53v-.5c0-1.449-.804-2.5-1.911-2.5H6.647c-1.232 0-1.64 1.118-1.774 1.485a.5.5 0 0 0 .939.343C6.078 2.1 6.37 2 6.646 2h2.412c.599 0 .911.754.911 1.5V4H.5a.5.5 0 0 0-.5.5v2q0 .026.002.05L0 6.6a.5.5 0 0 0 .5.5h5.004l.022 1.507a.5.5 0 0 0 .5.493H9.5a.5.5 0 0 0 .5-.5V7.1h5V14H6.98a.5.5 0 0 0 0 1h8.52a.5.5 0 0 0 .5-.5V6.6a.5.5 0 0 0-.5-.5Z"/></svg>