<!-- SPDX-FileCopyrightText: © 2025 Schneider Electric SPDX-License-Identifier: LicenseRef-Proprietary -->
<svg xmlns="http://www.w3.org/2000/svg" viewBox="0 0 16 16"><path d="M5.096 13H1V7.5a.5.5 0 0 0-1 0v6a.5.5 0 0 0 .5.5h4.596a.5.5 0 0 0 0-1ZM15.5 5h-5a.5.5 0 0 0-.5.5V7H6V5.5a.5.5 0 0 0-.5-.5H1V4h14.5a.5.5 0 0 0 0-1H11v-.5C11 1.051 10.196 0 9.089 0H6.677c-1.232 0-1.64 1.118-1.774 1.485a.5.5 0 0 0 .939.343C6.108 1.1 6.4 1 6.676 1h2.412c.598 0 .911.754.911 1.5V3H.5a.5.5 0 0 0-.5.5v2a.5.5 0 0 0 .5.5H5v1.5a.5.5 0 0 0 .5.5h5a.5.5 0 0 0 .5-.5V6h4v2.5a.5.5 0 0 0 1 0v-3a.5.5 0 0 0-.5-.5Z"/><path d="M13.963 13.245a3 3 0 0 0 .343-.657 2.94 2.94 0 0 0 .103-1.718 3 3 0 0 0-.491-1.06 2.9 2.9 0 0 0-.83-.762 3 3 0 0 0-1.056-.392 2.9 2.9 0 0 0-1.167.047 2.93 2.93 0 0 0-1.817 1.331 2.95 2.95 0 0 0-.349 2.226 2.93 2.93 0 0 0 2.595 2.239.5.5 0 0 0 .087-.997 1.92 1.92 0 0 1-1.471-.905 2 2 0 0 1-.238-.572 1.94 1.94 0 0 1 .232-1.472 1.93 1.93 0 0 1 1.589-.934 1.92 1.92 0 0 1 1.622.786 1.9 1.9 0 0 1 .324.699 1.9 1.9 0 0 1 .029.771 2 2 0 0 1-.26.701 2 2 0 0 1-.272.351.5.5 0 0 0 .008.707q.023.022.047.041l.052.062 2.104 2.118a.5.5 0 1 0 .709-.706l-1.891-1.903Z"/></svg>