<!-- SPDX-FileCopyrightText: © 2025 Schneider Electric SPDX-License-Identifier: LicenseRef-Proprietary -->
<svg xmlns="http://www.w3.org/2000/svg" viewBox="0 0 16 16"><path d="M14.701 2h-.948c-.163-.607-.607-1-1.183-1h-1.28c-.494 0-1.021.272-1.193 1H6.106c-.169-.813-.725-1-1.199-1H3.599c-.243 0-.963.081-1.167 1h-1C.589 2 0 2.609 0 3.482v10.037C0 14.335.584 15 1.301 15H3.5a.5.5 0 0 0 0-1H1.301C1.159 14 1 13.794 1 13.519V3.482q0-.481.432-.482h1.446a.5.5 0 0 0 .5-.492C3.386 2 3.525 2 3.6 2h1.308c.166 0 .242 0 .25.509a.5.5 0 0 0 .5.491h4.882a.5.5 0 0 0 .5-.492C11.048 2 11.218 2 11.29 2h1.28c.175 0 .246.312.25.509a.5.5 0 0 0 .5.491h1.381c.126 0 .299 0 .299.42v10.104c0 .272-.157.476-.297.476H6.5a.5.5 0 0 0 0 1h8.203c.715 0 1.297-.662 1.297-1.476V3.42C16 2.557 15.49 2 14.701 2Z"/><path d="M7.189 5.482q.403-.13.901-.13.546 0 .845.236c.299.236.298.373.298.646q0 .223-.068.435t-.224.441a5 5 0 0 1-.416.528 5 5 0 0 0-.559.733 2.7 2.7 0 0 0-.305.689 2.8 2.8 0 0 0-.093.727q0 .262.13.417a.45.45 0 0 0 .367.155.52.52 0 0 0 .354-.112.4.4 0 0 0 .143-.285q.037-.299.143-.56c.106-.261.182-.355.335-.546q.23-.285.615-.634a5 5 0 0 0 .683-.739q.249-.342.36-.683a2.3 2.3 0 0 0 .112-.727q0-.62-.329-1.081a2.2 2.2 0 0 0-.919-.72q-.59-.261-1.373-.261-.585 0-1.243.18c-.658.18-.828.292-1.168.516a1 1 0 0 0-.36.385.66.66 0 0 0-.062.41.63.63 0 0 0 .174.335.55.55 0 0 0 .354.155q.217.018.491-.143.41-.235.813-.367Zm.174 5.89a.88.88 0 0 0-.254.651q0 .41.254.671.255.262.677.262.435 0 .677-.262.243-.26.242-.671a.9.9 0 0 0-.242-.651q-.243-.255-.677-.255-.423 0-.677.255Z"/></svg>