<!-- SPDX-FileCopyrightText: © 2025 Schneider Electric SPDX-License-Identifier: LicenseRef-Proprietary -->
<svg xmlns="http://www.w3.org/2000/svg" viewBox="0 0 16 16"><path d="M5.552 2.756c.39-.361.835-.624 1.323-.782a.49.49 0 0 0 .331-.38.733.733 0 0 1 1.444 0 .49.49 0 0 0 .331.379c1.071.348 1.955 1.232 2.365 2.366l.059.161c.212.568.604 1.625.938 3.51l.104.616c.119.721.268 1.619.47 2.423a.489.489 0 1 0 .949-.239c-.192-.766-.337-1.642-.453-2.345l-.105-.626c-.349-1.972-.778-3.126-.984-3.681l-.056-.153c-.479-1.326-1.489-2.382-2.73-2.873C9.292.468 8.656.01 7.927.01S6.562.468 6.319 1.133a4.6 4.6 0 0 0-1.432.904.49.49 0 0 0 .665.719Zm10.294 12.397-1.119-1.118-.044-.043L.856.181a.489.489 0 1 0-.692.693l3.432 3.428-.006.015-.057.156c-.222.597-.635 1.709-.983 3.68l-.108.638c-.217 1.306-.544 3.281-1.095 3.953a14 14 0 0 1-1.178 1.257.49.49 0 0 0 .332.85h3.271c.43.694 1.271 1.141 2.197 1.141 1.017 0 1.813-.526 2.186-1.446a.49.49 0 1 0-.908-.367c-.222.546-.664.835-1.279.835-.662 0-1.243-.336-1.445-.835a.49.49 0 0 0-.454-.306H1.666c.142-.157.292-.328.438-.508.716-.874 1.041-2.836 1.303-4.412l.106-.627c.29-1.636.624-2.649.845-3.26l8.817 8.807H10.4a.488.488 0 1 0 0 .978h3.756l.999.998a.49.49 0 0 0 .692-.692Z"/></svg>