<!-- SPDX-FileCopyrightText: © 2024 Bilibili Inc. SPDX-License-Identifier: LicenseRef-Proprietary -->
<svg xmlns="http://www.w3.org/2000/svg" version="1.1" viewBox="0 0 2240 1024"><path fill="#00AEEC" d="M2079.81 913.566c-10.013 0-18.555.8-26.936-.16-16.987-1.951-33.974-1.567-50.993-2.08-10.973-.287-10.653-.287-11.58-10.908-2.72-32.407-5.695-64.781-8.606-97.156-2.528-28.44-4.927-56.911-7.71-85.319-2.527-26.04-5.567-52.017-8.318-78.025-2.623-24.441-5.054-48.914-7.774-73.323a12681 12681 0 0 0-10.684-92.133c-3.295-27.128-6.559-54.32-10.205-81.417a20559 20559 0 0 0-17.531-125.979c-6.398-44.723-14.076-89.222-22.106-133.657-1.44-7.966-1.248-8.254 6.366-9.533 31.671-5.407 63.502-10.013 95.716-9.31 3.487.096 7.006.16 10.461.608 5.663.704 8.606 3.455 8.926 10.045 1.12 22.97 2.719 45.939 4.414 68.876 2.72 37.59 5.663 75.178 8.478 112.736 1.792 24.184 3.327 48.305 5.15 72.426 2.912 38.773 5.983 77.514 8.926 116.287 1.791 23.705 3.359 47.474 5.182 71.179 2.784 34.806 5.823 69.58 8.638 104.354 1.791 22.137 3.39 44.307 5.278 66.444 2.784 32.79 5.79 65.581 8.638 98.372 2.143 25.592 4.095 51.249 6.27 77.673zM853.67 114.918c4.639 0 11.645-.512 18.555.128 8.797.8 10.493 3.071 11.037 11.9 2.527 40.373 4.894 80.777 7.582 121.182 2.943 43.57 6.174 87.078 9.405 130.586 2.975 39.956 5.95 79.912 9.15 119.869 3.486 43.891 7.357 87.718 10.876 131.61 2.655 33.622 4.927 67.244 7.678 100.898 2.623 31.223 5.694 62.382 8.51 93.573 2.399 26.84 4.83 53.712 7.165 80.585.736 8.51.128 9.053-9.053 8.829-24.025-.576-47.922-3.391-71.947-2.72-5.503.16-7.102-2.366-8.03-7.581-1.983-11.357-1.663-22.905-2.879-34.39-3.295-30.36-5.183-60.846-7.966-91.27-2.495-27.64-5.502-55.215-8.35-82.823-2.527-25.241-5.022-50.482-7.71-75.754-2.686-24.793-5.533-49.618-8.349-74.443-2.59-22.841-5.118-45.682-7.87-68.524-4.062-33.462-8.093-66.924-12.508-100.323-4.063-30.647-8.67-61.198-12.988-91.813a3619 3619 0 0 0-19.834-124.412 1394 1394 0 0 0-5.31-28.024c-.96-4.702-.097-7.422 5.278-8.157 14.14-1.888 28.248-4.83 42.452-6.207 14.203-1.311 28.407-3.966 45.106-2.719zm1006.076 403.34c27.064 0 27.704.191 32.055 24.536 5.342 30.04 9.085 60.334 12.636 90.63 3.743 32.278 7.518 64.557 10.973 96.867 2.783 26.009 5.118 52.081 7.742 78.09 2.75 27.256 5.662 54.416 8.51 81.64 1.567 15.388 3.038 30.775 4.798 46.13.512 4.447-.832 6.815-5.215 7.326-9.245 1.056-18.426 2.272-27.64 3.264-16.89 1.823-33.814 3.614-50.737 5.182-8.733.8-9.31.32-10.94-8.126-14.845-76.617-29.72-153.171-44.436-229.82-9.79-50.962-19.322-101.955-28.92-152.916a806 806 0 0 1-3.582-21.082c-.64-4.031.447-6.622 5.022-7.71 30.487-7.134 61.294-12.636 89.734-14.012zm-1137.078 0c28.952 0 28.824.095 33.303 26.36 6.91 40.66 11.804 81.544 16.187 122.556 4.287 39.796 8.957 79.56 13.148 119.357 2.847 27.224 5.087 54.512 7.742 81.704 1.887 19.355 4.127 38.645 6.174 57.968.256 2.367.384 4.734.544 7.133.416 9.47 0 10.237-9.117 11.165-18.075 1.888-36.182 3.455-54.257 5.247-6.558.64-13.084 1.6-19.578 2.239-8.637.8-8.925.768-10.62-7.966-6.079-30.679-11.965-61.422-17.916-92.1-14.267-73.9-28.695-147.734-42.867-221.632-5.662-29.56-10.525-59.247-16.091-88.839-1.024-5.406-.256-7.933 5.342-9.245 30.2-7.038 60.59-12.54 88.006-13.948zm382.13 309.861v124.028c0 1.184-.129 2.4.031 3.583.608 6.014-1.6 8.67-7.805 8.413-8.158-.351-16.252-.127-24.41.064-17.018.32-34.07-.351-51.056 1.6-9.406 1.088-9.214.512-10.141-9.405-2.784-31.223-5.823-62.414-8.67-93.637-2.623-28.824-4.99-57.711-7.678-86.535-2.719-29.655-5.758-59.215-8.51-88.838-1.887-19.77-3.55-39.509-5.214-59.279-2.175-25.72-4.19-51.409-6.462-77.13-.96-10.844-.16-12.38 10.59-13.5a532 532 0 0 1 83.527-2.59c6.942.383 13.852 1.727 20.57 3.358 8.477 2.016 9.405 3.263 9.853 12.125.928 17.85 1.855 35.701 2.335 53.584.544 19.866.096 39.765.832 59.63 1.856 54.8 1.568 109.665 2.207 164.529zm1134.806 5.63v117.438c0 1.984-.064 3.967.032 5.983.415 5.15-1.984 6.973-6.878 6.941-12.029-.095-24.025 0-36.022.16-13.564.128-27.096.064-40.628 1.536-8.926 1.024-8.99.352-9.79-8.51-3.678-40.66-7.55-81.32-11.26-122.044-3.391-37.525-6.526-75.082-9.981-112.64-3.551-38.74-7.422-77.385-10.909-116.094-1.727-19.386-3.167-38.772-4.607-58.159-.575-8.445.352-9.949 9.886-10.717 16.57-1.311 33.078-3.55 49.777-3.263 16.635.32 33.302-.607 49.842 2.56 14.012 2.687 14.715 3.487 15.547 18.458 2.4 44.051 1.664 88.23 3.231 132.282 1.6 46.898.48 93.797 1.76 146.07zm-408.106-528.614c9.79.576 17.5.096 25.177 1.791 4.894 1.12 7.358 3.328 7.838 8.574 2.303 25.24 4.798 50.513 7.325 75.786 2.016 20.506 4.16 41.012 6.239 61.518l.192 1.184c1.663 12.924 1.28 13.276-11.293 13.98-11.197.607-22.362 1.6-33.558 2.271-7.358.448-9.694 1.696-10.91-9.021-4.19-37.813-9.053-75.53-13.691-113.311a1185 1185 0 0 0-4.287-31.8c-.928-5.981 1.408-9.276 7.006-9.756 7.358-.672 14.716-.864 19.962-1.216zm-1133.398.16c7.55.416 15.323-.16 22.937 1.6 4.35.991 6.558 2.815 6.974 7.773.928 11.837 2.751 23.641 3.87 35.478 3.552 36.31 6.91 72.65 10.238 108.992.704 7.902.544 8.062-6.846 8.606-13.116.96-26.265 1.92-39.413 2.463-7.646.352-8.605-.576-9.565-8.382-3.327-26.744-6.462-53.52-9.661-80.296-2.591-22.074-4.767-44.147-7.902-66.157-.864-6.078 1.12-7.742 5.982-8.733 7.71-1.568 15.452-1.056 23.386-1.344zm399.148 100.003c0 23.001.064 45.97-.032 69.004 0 10.333-.128 10.397-10.397 10.269a324 324 0 0 1-36.982-1.92c-7.933-.991-8.093-.735-8.317-9.149-.8-28.12-1.632-56.24-2.208-84.36-.415-19.034-.64-38.004-1.791-57.039-.608-9.821-.064-9.917 9.373-10.045 13.916-.16 27.8.48 41.62 2.591 8.318 1.28 8.702 1.28 8.734 10.493.064 23.385.064 46.77.064 70.188h-.064zm1135.382.608c0 23.033.064 46.034-.032 69.036 0 9.66-.16 9.725-9.853 9.66a505 505 0 0 1-38.133-1.79c-6.303-.48-8.158-3.136-7.742-8.862.064-.8 0-1.6 0-2.4-.96-44.402-1.92-88.774-2.815-133.177-.032-2.367-.16-4.734-.064-7.134.128-8.957.16-9.18 9.149-9.117 12.38.064 24.665.704 37.013 1.92 15.068 1.503 12.413 3.359 12.477 15.26.064 22.169.032 44.402 0 66.604zm-1565.593 54c.288 12.636.288 12.604-11.805 15.548-8.222 2.015-16.443 4.222-24.729 6.046-7.07 1.6-8.317.704-9.533-6.238-8.446-47.09-16.86-94.213-25.24-141.335-1.696-9.758-1.248-10.365 8.349-12.06 11.805-2.08 23.577-4.128 35.382-5.951 7.517-1.184 8.477-.768 9.98 7.518 2.976 16.73 5.791 33.526 7.998 50.385 3.423 26.68 6.239 53.457 9.31 80.169.256 1.951.192 3.967.288 5.918zM1731.175 323.21c15.452-2.528 31.031-5.087 46.61-7.55 5.6-.864 7.295 2.655 8.03 7.646 2.656 18.426 5.983 36.725 8.158 55.184 3.2 26.744 7.582 53.36 8.414 80.328.064 2.752.032 5.567.096 8.318.16 4.287-1.984 6.494-5.95 7.422-10.558 2.367-21.114 4.734-31.64 7.262-5.054 1.215-6.75-.928-7.581-5.855-3.167-18.746-6.814-37.397-10.045-56.08-5.47-30.774-10.781-61.581-16.092-92.388-.128-1.12 0-2.304 0-4.287zm-710.641 108.032c-.448 16.38.544 30.647-1.696 44.915-.671 4.511-1.983 7.422-6.846 7.838-10.429.864-20.826 1.696-31.19 2.751-5.023.544-6.43-1.631-7.262-6.558-2.336-14.556-1.92-29.303-3.327-43.923-2.656-27.608-3.775-55.408-5.567-83.112-.448-6.75-1.12-13.436-1.663-20.186-.288-3.775 1.215-5.886 5.246-6.046 13.5-.544 26.936-3.007 40.5-2.528 7.934.288 8.606.8 9.182 8.798.352 5.534.256 11.133.384 16.699zm1134.902-15.867c0 19.066.224 38.133-.032 57.2-.16 9.916-1.28 10.78-10.653 11.644-9.277.864-18.49 1.567-27.736 2.56-5.214.543-7.646-.993-7.965-6.975-1.344-25.336-3.168-50.673-4.927-75.978-1.376-20.986-2.943-41.94-4.415-62.893-.16-2.4-.032-4.799-.192-7.166-.224-4.191 1.056-6.654 5.759-6.814 13.116-.448 26.136-2.975 39.348-2.496 8.062.288 8.19.416 8.798 8.798 1.951 27.32 2.143 54.704 2.015 82.12zM628.296 756.172c16.571 18.235 17.403 39.828 11.932 62.414-5.502 22.585-18.042 41.204-33.238 57.903-25.497 27.896-56.304 48.498-89.062 65.997-56.4 30.135-116.19 50.161-178.572 61.998-44.883 8.477-90.054 15.003-135.705 17.499-13.916.767-27.8 1.407-41.716 1.311-10.077 0-20.186.288-30.23-.064-8.542-.32-9.79-1.791-10.494-10.717-2.591-32.022-4.798-64.077-7.646-96.1-3.327-37.109-7.23-74.186-10.812-111.295-2.624-26.84-4.895-53.745-7.774-80.52-3.327-31.544-7.07-63.023-10.717-94.565-3.327-29.112-6.526-58.287-10.045-87.431-3.935-32.279-7.998-64.493-12.316-96.708a8229 8229 0 0 0-13.213-92.997A5985 5985 0 0 0 24.375 200.27 3244 3244 0 0 0 .702 76.53c-1.151-5.502.512-7.71 5.343-9.725 46.29-19.194 92.42-38.74 138.68-58.03 8.605-3.584 17.434-6.591 26.584-8.286 6.334-1.184 7.965.128 7.773 6.494-.48 16.283.192 32.63-1.407 48.85a161 161 0 0 0-.64 13.084c-.736 58.383-1.44 116.798.096 175.213 1.344 51.185 4.03 102.338 7.006 153.491 2.335 40.372 5.694 80.745 9.15 121.053 3.39 39.508 7.517 78.953 11.388 118.462.736 7.517 1.408 8.221 9.95 7.07a381 381 0 0 1 50.832-4.191c52.881-.128 104.898 7.134 156.339 19.322 45.01 10.685 88.806 24.92 130.778 44.819 20.794 9.853 40.692 21.242 58.83 35.702 6.175 4.862 11.677 10.46 16.892 16.315zm1126.84-9.597c20.474 17.946 27.928 39.924 22.106 67.116-4.83 22.426-15.771 41.268-30.36 58.127-23.416 27.096-51.856 47.698-82.631 64.91-60.335 33.782-124.604 55.727-192.168 68.396a1151 1151 0 0 1-111.456 15.547c-21.178 1.824-42.452 4.095-66.22 2.623h-27.769c-5.406 0-8.477-1.695-8.925-8.125-2.047-28.088-4.415-56.144-6.942-84.2-2.687-29.623-5.662-59.247-8.478-88.87-2.559-27.224-4.926-54.512-7.71-81.736-2.559-25.657-5.502-51.25-8.285-76.874-2.591-24.057-5.086-48.114-7.934-72.139-3.423-29.112-7.038-58.223-10.652-87.335-3.392-27.16-6.75-54.288-10.365-81.416a6134 6134 0 0 0-12.157-87.143c-5.694-37.653-11.805-75.178-17.819-112.767a3259 3259 0 0 0-29.111-158.994c-.448-2.335-.672-4.734-1.376-7.006-1.663-5.118-.064-7.837 4.959-9.82 49.17-19.227 96.772-42.42 146.39-60.72 6.493-2.43 13.051-5.15 20.057-5.853 6.302-.64 7.902.383 7.294 7.102-3.327 36.437-1.407 73.066-3.135 109.536-1.408 29.751-1.248 59.598.256 89.382.352 7.55.64 15.131.576 22.65-.384 35.765 1.503 71.498 3.327 107.2 2.335 47.186 5.758 94.277 9.245 141.399 2.527 34.006 5.822 67.948 9.022 101.922 1.695 18.587 3.519 37.141 5.822 55.632 1.247 10.205 1.76 10.301 11.772 8.957 17.66-2.399 35.35-4.35 53.201-4.094 62.638.8 124.028 10.685 184.266 27.864 40.789 11.58 80.489 26.04 117.982 46.29a253.6 253.6 0 0 1 47.218 32.439zM308.676 922.81c23.162-11.068 135.61-98.947 144.535-113.279-54.576-23.513-109.344-45.362-168.24-63.245zm1277.198-107.52c2.879-3.103 2.559-5.503-1.344-7.23-7.774-3.551-15.484-7.326-23.353-10.557-42.004-17.18-84.2-33.814-127.483-47.378-3.775-1.152-7.646-3.775-12.477-1.536l23.322 173.454c3.455.767 4.798-.832 6.334-1.92 39.316-28.855 78.889-57.36 116.638-88.39 6.366-5.183 12.668-10.397 18.363-16.443z"/></svg>