<!-- SPDX-FileCopyrightText: © 2025 Schneider Electric SPDX-License-Identifier: LicenseRef-Proprietary -->
<svg xmlns="http://www.w3.org/2000/svg" viewBox="0 0 16 16"><path d="M13.5 10h-1.007a.5.5 0 0 0-.02-.146L11 4.792V1.924a.5.5 0 0 0 0-.177V.5a.5.5 0 0 0-1 0v.576L9.404.823a.5.5 0 0 0-.392.92l.988.42v2.701q0 .07.02.14l1.432 4.918-1.983 3.252a.5.5 0 0 0 .1.64l1.377 1.188H5.067l1.364-1.164a.5.5 0 0 0 .105-.635L4.564 9.87l1.417-4.865a.5.5 0 0 0 .02-.14V2.169l.998-.424a.499.499 0 1 0-.392-.92l-.606.257v-.58a.5.5 0 0 0-1 0v4.292L3.544 9.799a.5.5 0 0 0-.016.203H2.501a.5.5 0 0 0 0 1h1.523L4.071 11l1.391 2.351-2.075 1.771a.5.5 0 0 0 .324.88h8.58a.5.5 0 0 0 .327-.879l-2.074-1.789 1.423-2.333h1.535a.5.5 0 0 0 0-1Z"/></svg>