<!-- SPDX-FileCopyrightText: © 2025 Schneider Electric SPDX-License-Identifier: LicenseRef-Proprietary -->
<svg xmlns="http://www.w3.org/2000/svg" viewBox="0 0 16 16"><path d="M14.5 1H1.501a.5.5 0 0 0-.5.5v6.556a1.845 1.845 0 0 0 3.19 1.263 1.84 1.84 0 0 0 2.69 0 1.84 1.84 0 0 0 2.691 0 1.84 1.84 0 0 0 1.345.583 1.847 1.847 0 0 0 1.845-1.846.5.5 0 0 0-1 0 .846.846 0 0 1-1.69 0 .5.5 0 0 0-1 0 .847.847 0 0 1-1.691 0 .5.5 0 0 0-1 0 .846.846 0 0 1-1.69 0 .5.5 0 0 0-1 0 .845.845 0 1 1-1.69 0V2H14v12H1.5a.5.5 0 0 0 0 1h13a.5.5 0 0 0 .5-.5v-13a.5.5 0 0 0-.5-.5Z"/></svg>