<!-- SPDX-FileCopyrightText: © 2025 Schneider Electric SPDX-License-Identifier: LicenseRef-Proprietary -->
<svg xmlns="http://www.w3.org/2000/svg" viewBox="0 0 16 16"><path d="M15.8 7.205c-.572-.429-.589-1.103-.589-1.179 0-.718.528-1.133.588-1.179a.502.502 0 0 0-.156-.879L7.749 1.6a.5.5 0 0 0-.469.099L2.013 6.213a.5.5 0 0 0 .65.76l5.061-4.336 6.88 2.064c-.21.327-.393.771-.393 1.326 0 .171.032.929.575 1.586L9.05 13.349l-6.812-2.271c-1.065-.355-1.237-.616-1.237-1.104 0-.57.445-1.039 1.005-1.076l7.021 2.34c.181.06.378.014.512-.121l3.685-3.685a.5.5 0 0 0-.707-.707l-3.466 3.466L2.239 7.92a.5.5 0 0 0-.158-.025A2.08 2.08 0 0 0 .002 9.974c0 1.304.992 1.743 1.921 2.054l7.105 2.368a.51.51 0 0 0 .512-.121l6.315-6.315a.503.503 0 0 0-.053-.754Z"/></svg>