<!-- SPDX-FileCopyrightText: © 2025 Schneider Electric SPDX-License-Identifier: LicenseRef-Proprietary -->
<svg xmlns="http://www.w3.org/2000/svg" viewBox="0 0 16 16"><path d="M10.552 6.828c-.136-.011-3.38-.322-5.416 1.833A.5.5 0 0 0 5 9.004v5.653c-1.172-.775-3.106-1.14-4-1.273V8.05c1.198.043 1.985.446 2.369.703a.5.5 0 0 0 .555-.832c-.923-.617-2.149-.923-3.447-.868a.5.5 0 0 0-.478.5v6.269a.5.5 0 0 0 .443.497c.966.11 3.638.597 4.392 1.502a.5.5 0 0 0 .525.16c.298.087.641-.155.641-.48V9.21c1.287-1.238 3.152-1.398 4-1.401v5.687a9.3 9.3 0 0 0-2.967.718.5.5 0 0 0 .396.918c.933-.403 1.972-.626 3.087-.663a.5.5 0 0 0 .483-.5V7.327a.5.5 0 0 0-.448-.498ZM15.828.466c-.705-.614-1.865-.587-2.655.134l-2.044 2.731a.5.5 0 0 0-.078.155.5.5 0 0 0-.051.219v.396c0 .51-.478.925-1.065.925h-.859c-.593 0-1.075-.419-1.075-.934v-.093h1.5a.5.5 0 0 0 0-1h-3a.5.5 0 0 0-.489.603.5.5 0 0 0-.011.103v.396c0 .51-.478.925-1.066.925h-.858c-.593 0-1.076-.419-1.076-.934v-.093h1.5a.5.5 0 0 0 0-1h-.875l2.031-1.678.066-.05c.211-.189.63-.455 1.053-.087a.5.5 0 1 0 .655-.755c-.684-.595-1.591-.57-2.326.055l-.041.031-3.307 2.731a.5.5 0 0 0 .243.88c.019 1.051.942 1.901 2.075 1.901h.858c1.139 0 2.066-.864 2.066-1.925v-.009c0 1.066.931 1.934 2.075 1.934h.859c1.139 0 2.065-.864 2.065-1.925v-.265l1.907-2.564c.353-.317.934-.34 1.265-.052a.5.5 0 1 0 .656-.754Z"/></svg>