<!-- SPDX-FileCopyrightText: © 2025 Schneider Electric SPDX-License-Identifier: LicenseRef-Proprietary -->
<svg xmlns="http://www.w3.org/2000/svg" viewBox="0 0 16 16"><path d="M15.5 13a.5.5 0 0 0-.5.5v.812l-2.002-1.716-.125-6.632a.5.5 0 0 0-.321-.458L8 3.764V1.601l.491.491a.5.5 0 0 0 .707-.707L7.962.149a.5.5 0 0 0-.128-.094q0 0 0 0A.5.5 0 0 0 7.619 0h-.001a.45.45 0 0 0-.208.04.5.5 0 0 0-.134.084L5.805 1.399a.501.501 0 0 0 .656.756l.54-.468v2.116L3.194 5.608a.5.5 0 0 0-.008.899l3.815 1.895V13.5a.5.5 0 0 0 1 0V8.422l2.135-.911a.5.5 0 0 0-.392-.92l-2.227.951L4.554 6.07l2.982-1.414 4.345 1.663.115 6.097-4.439 2.433-3.509-2.293-.046-4.062a.5.5 0 0 0-.5-.494h-.006a.5.5 0 0 0-.494.506l.045 4.001-.007.007-2.038 1.742V13.5a.5.5 0 0 0-1 0v2a.5.5 0 0 0 .5.5h2a.5.5 0 0 0 0-1H1.67l1.858-1.589 3.733 2.44c.154.1.353.109.514.02l4.58-2.511L14.269 15h-.767a.5.5 0 0 0 0 1h2a.5.5 0 0 0 .5-.5v-2a.5.5 0 0 0-.5-.5Z"/></svg>