<!-- SPDX-FileCopyrightText: © 2025 Schneider Electric SPDX-License-Identifier: LicenseRef-Proprietary -->
<svg xmlns="http://www.w3.org/2000/svg" viewBox="0 0 16 16"><circle cx="11" cy="3" r="1" fill="currentColor"/><circle cx="7" cy="3" r="1" fill="currentColor"/><circle cx="3" cy="3" r="1" fill="currentColor"/><circle cx="3" cy="7" r="1" fill="currentColor"/><circle cx="3" cy="11" r="1" fill="currentColor"/><path fill="currentColor" d="M7.038 6.462a.5.5 0 0 0-.707 0L5.147 7.646A.5.5 0 0 0 5.001 8v4.711a.29.29 0 0 1-.29.289H1.29a.29.29 0 0 1-.29-.289V1.29c0-.16.13-.29.29-.29h11.421a.29.29 0 0 1 .289.29v3.421c0 .16-.13.29-.289.29H8.5a.5.5 0 0 0 0 1h4.211c.711 0 1.289-.579 1.289-1.29V1.29C14 .579 13.422 0 12.711 0H1.29C.579 0 0 .579 0 1.29v11.421C0 13.422.579 14 1.29 14h3.421c.711 0 1.29-.578 1.29-1.289V8.207L7.039 7.17a.5.5 0 0 0 0-.708Z"/><path fill="currentColor" d="m15.854 10.663-.613-.614a.5.5 0 0 0-.799.58l-1.558.17a.5.5 0 0 0-.3.144l-.358.358-.572-.271.509-.509a.5.5 0 0 0 .144-.299l.167-1.526.614.614-.224.225a.5.5 0 0 0 .707.707l.577-.578a.5.5 0 0 0 0-.707l-1.705-1.705a.49.49 0 0 0-.52-.118.5.5 0 0 0-.331.417l-.261 2.388-.638.639-.46-.218a.5.5 0 0 0-.428.904l1.669.788-.404.404-1.993-.941a.5.5 0 0 0-.428.904l1.668.788-.404.405-1.992-.941a.5.5 0 0 0-.427.904l.155.073-.642 1.673a.5.5 0 0 0 .675.634l2.468-1.125.433.204a.5.5 0 0 0 .428-.904l-.137-.064.404-.404.46.218a.5.5 0 0 0 .428-.904l-.137-.064.405-.404.459.217a.5.5 0 0 0 .428-.904l-.106-.05 2.338-.255a.5.5 0 0 0 .3-.851ZM8.38 14.538l.177-.461.41.193z"/></svg>