<!-- SPDX-FileCopyrightText: © 2025 Schneider Electric SPDX-License-Identifier: LicenseRef-Proprietary -->
<svg xmlns="http://www.w3.org/2000/svg" viewBox="0 0 16 16"><path d="M15.5 4a.5.5 0 0 0-.5.5V6h-4V3h4.5a.5.5 0 0 0 0-1h-5a.5.5 0 0 0-.5.5V6H5V3h3.5a.5.5 0 0 0 0-1h-8a.5.5 0 0 0 0 1H4v3H1V4.5a.5.5 0 0 0-1 0v2a.5.5 0 0 0 .5.5H7v3H2.563c-.021-.003-.045-.013-.064-.004L1 9.999V8.5a.5.5 0 0 0-1 0v2c0 .133.053.26.147.354s.236.139.354.146l1.937-.004A.4.4 0 0 0 2.5 11H4v3H1v-1.5a.5.5 0 0 0-1 0v2a.5.5 0 0 0 .5.5h15a.5.5 0 0 0 .5-.5v-2a.5.5 0 0 0-1 0V14h-3v-3h3.5a.5.5 0 0 0 .5-.5v-2a.5.5 0 0 0-1 0V10h-3.5a.5.5 0 0 0-.5.5V14H5v-3h4.5a.5.5 0 0 0 0-1H8V7h2.401l.05-.002L10.5 7h5a.5.5 0 0 0 .5-.5v-2a.5.5 0 0 0-.5-.5Z"/></svg>