<!-- SPDX-FileCopyrightText: © 2025 Schneider Electric SPDX-License-Identifier: LicenseRef-Proprietary -->
<svg xmlns="http://www.w3.org/2000/svg" viewBox="0 0 16 16"><path d="M9.679 5.961q.479.004.626-.409c.147-.413-.013-.415-.333-.417l-2.657-.023q-.232-.002-.406.129c-.174.131-.202.208-.256.362l-.914 2.578q-.058.165.018.266.077.1.236.102a.7.7 0 0 0 .349-.105q.331-.213.607-.301c.276-.088.379-.088.587-.086q.494.004.677.292.182.288.009.775a1.56 1.56 0 0 1-.555.774q-.376.27-.902.266a1.4 1.4 0 0 1-.602-.129 1.9 1.9 0 0 1-.497-.361.6.6 0 0 0-.134-.097.3.3 0 0 0-.141-.03q-.136 0-.281.126a.74.74 0 0 0-.209.309q-.08.223.045.39.233.293.647.465t.909.178q.598.005 1.144-.235t.951-.676a2.9 2.9 0 0 0 .609-1.006q.194-.545.12-.969a1 1 0 0 0-.393-.662q-.32-.239-.846-.244a2.15 2.15 0 0 0-1.103.289l.557-1.57z"/><path d="m15.852 3.303-.737-.73a.5.5 0 0 0-.403-.204h-.739C13.862.45 13.099.014 12.452 0a1.27 1.27 0 0 0-.841.326A1.24 1.24 0 0 0 10.803 0c-.258.012-.6.114-.856.341A1.27 1.27 0 0 0 9.12 0c-.313-.016-.604.107-.856.321A1.3 1.3 0 0 0 7.437 0a1.33 1.33 0 0 0-.867.311A1.45 1.45 0 0 0 5.711 0c-.935 0-1.555.862-1.579 2.089q-.003.142.007.279h-.706a.5.5 0 0 0-.5.521C3.148 8.112.118 12.605.087 12.65a.5.5 0 0 0 .371.78l9.691.808a.5.5 0 0 0 .414-.164c.115-.128 2.832-3.213 3.055-8.896a.5.5 0 0 0-.48-.519h-.02a.5.5 0 0 0-.5.48c-.178 4.549-2.092 7.357-2.648 8.081l-8.615-.718c.849-1.463 2.608-4.998 2.587-9.133h.452l.003.007a.501.501 0 1 0 .884-.469 1.84 1.84 0 0 1-.153-.798C5.141 1.442 5.425 1 5.683 1h.004a.45.45 0 0 1 .312.139c-.116.301-.18.636-.187.984-.009.421.065.802.226 1.16a.49.49 0 0 0 .483.385h.007a.514.514 0 0 0 .449-.738 1.66 1.66 0 0 1-.165-.787c.006-.297.075-.584.195-.808l.004-.009c.058-.103.184-.318.403-.326.111.002.204.077.272.161a2.9 2.9 0 0 0-.191.997c-.009.446.073.821.268 1.215a.5.5 0 0 0 .897-.441 1.54 1.54 0 0 1-.164-.754c.006-.297.075-.584.195-.808l.005-.009a.77.77 0 0 1 .402-.359c.084.001.184.074.273.191a2.9 2.9 0 0 0-.193 1 2.37 2.37 0 0 0 .269 1.181.5.5 0 0 0 .897-.441 1.4 1.4 0 0 1-.165-.719c.007-.3.076-.586.195-.809l.006-.011c.141-.259.291-.393.401-.393q.135.003.26.182a3.2 3.2 0 0 0-.213 1.077c-.01.51.105.783.269 1.114a.5.5 0 0 0 .897-.443c-.122-.246-.171-.358-.165-.651.015-.759.383-1.271.603-1.279.224.004.48.382.541 1.395a.5.5 0 0 0 .16.974h1.364l.476.47-1.484 11.126-9.792-.752c-.269-.046-.516.184-.537.46a.5.5 0 0 0 .46.536l10.263.789.038.002a.5.5 0 0 0 .496-.434l1.579-11.842a.5.5 0 0 0-.145-.421Z"/></svg>