<!-- SPDX-FileCopyrightText: © 2025 Schneider Electric SPDX-License-Identifier: LicenseRef-Proprietary -->
<svg xmlns="http://www.w3.org/2000/svg" viewBox="0 0 16 16"><path d="M5.747 2.248a.5.5 0 0 0-.502.005L1 4.776V2.5a.5.5 0 0 0-1 0v11a.5.5 0 0 0 1 0V5.939l.022-.013L5 3.561v9.308l-2.594-.874a.5.5 0 0 0-.319.947l3.253 1.097a.498.498 0 0 0 .66-.474V2.683a.5.5 0 0 0-.253-.435Zm6.857 5.666-.109-.071c-.022-.036-.05-.096-.085-.17-.259-.543-.799-1.672-1.907-1.672h-3.1a.5.5 0 0 0 0 1h3.1c.478 0 .834.746 1.006 1.104.072.152.12.252.184.334.113.147.24.23.362.311.145.095.323.213.607.52.154.167.331.779.295 2.741l-.004.279c0 .285-.083.564-.148.711h-.432c-.498-1.02-.548-1.071-.863-1H7.501a.5.5 0 0 0 0 1h3.758c.144.29.353.719.353.719a.5.5 0 0 0 .449.281h.938c.715 0 .955-1.175.955-1.711l.004-.261c.031-1.666-.053-2.889-.561-3.438a3.8 3.8 0 0 0-.792-.676ZM15.5 2a.5.5 0 0 0-.5.5v11a.5.5 0 0 0 1 0v-11a.5.5 0 0 0-.5-.5Z"/><path d="m10.208 11.271 1.348-.07a.5.5 0 0 0 .473-.525.49.49 0 0 0-.525-.473l-1.348.07a.5.5 0 0 0 .026.999z"/></svg>