<!-- SPDX-FileCopyrightText: © 2025 Schneider Electric SPDX-License-Identifier: LicenseRef-Proprietary -->
<svg xmlns="http://www.w3.org/2000/svg" viewBox="0 0 16 16"><path d="M12.348 11.765c-2.853-1.782-5.838-1.784-8.696 0a.5.5 0 1 0 .529.847c2.536-1.58 5.106-1.579 7.637 0a.5.5 0 1 0 .529-.847ZM9.521 15.07c-1.014-.604-2.031-.604-3.043 0a.501.501 0 0 0 .513.86c.708-.424 1.309-.424 2.019 0a.5.5 0 0 0 .512-.86Z"/><path d="M10.924 13.512c-1.941-1.281-3.908-1.281-5.848 0a.5.5 0 1 0 .551.834c1.609-1.06 3.137-1.062 4.747 0a.5.5 0 0 0 .692-.142.5.5 0 0 0-.142-.692Zm3.103-9.982c-.443-.479-.752-.682-.955-.816a3 3 0 0 1-.162-.11c-.031-.056-.071-.159-.124-.288C12.478 1.565 11.838 0 10.544 0H5.597C4.266 0 3.605 1.616 3.286 2.392c-.055.136-.097.244-.116.28a.8.8 0 0 1-.188.143c-.211.139-.53.348-.989.845-.686.742-.711 2.434-.68 3.961l.005.334c0 .209.027 2.044.965 2.044h1.314a.5.5 0 0 0 .415-.221l.529-.785h6.971c.074.168.185.402.349.729a.5.5 0 0 0 .447.276h1.255a.5.5 0 0 0 0-1h-.943a10 10 0 0 1-.27-.594.5.5 0 0 0-.492-.411H4.275a.5.5 0 0 0-.415.221l-.529.785h-.853c-.073-.189-.161-.588-.161-1.044l-.005-.354c-.014-.681-.055-2.754.415-3.263.376-.407.613-.562.804-.688.154-.102.3-.197.431-.367.084-.109.146-.261.25-.513.235-.575.725-1.771 1.385-1.771h4.947c.623 0 1.109 1.188 1.317 1.695.099.243.159.389.241.497.129.167.276.264.42.358.183.12.41.27.771.66.437.472.414 1.364.396 2.015l-.006.333a.5.5 0 0 0 1 0l.006-.307c.021-.776.051-1.949-.662-2.72Z"/><path d="M4.407 5.073a.49.49 0 0 0-.525.474.5.5 0 0 0 .474.525l1.566.081h.026a.501.501 0 0 0 .025-.999zm7.318 0-1.565.081a.5.5 0 0 0 .025.999h.025l1.565-.081a.5.5 0 0 0 .474-.525c-.015-.275-.22-.5-.524-.474Z"/></svg>