<!-- SPDX-FileCopyrightText: © 2025 Schneider Electric SPDX-License-Identifier: LicenseRef-Proprietary -->
<svg xmlns="http://www.w3.org/2000/svg" viewBox="0 0 16 16"><path d="M12.506 12.441h-.003a.5.5 0 0 0-.499.495l-.004.562c0 .293-1 1.439-3.832 1.439-3.249 0-3.944-1.115-4.173-1.481l-.006-.01v-.512l.008-.073.045-1.102c.897.583 2.365 1.02 4.094 1.02 3.012 0 4.862-1.416 4.862-2.432V9.3a.5.5 0 0 0-.998 0v1.032c-.067.349-1.358 1.448-3.864 1.448-2.552 0-3.95-1.011-4.042-1.302a.5.5 0 0 0-.105-.306V8.655a1 1 0 0 0 .009-.094V7.84c.995.545 2.594.95 4.138.95 2.543 0 4.86-.908 4.862-1.906V5.657a.5.5 0 0 0-.998 0v1.15c-.251.299-1.682.984-3.864.984-2.293 0-3.902-.855-4.147-1.155V5.205a1 1 0 0 0 .009-.094l-.005-.482c.113-.313 1.377-1.092 2.704-1.666a.5.5 0 0 0 .301-.458V1.73a.5.5 0 0 0-.388-.486l-.612-.139v-.104c.648.011 1.72.027 2.001.027s1.353-.017 2-.027v.104l-.612.139a.5.5 0 0 0-.388.486v.672a.5.5 0 0 0 .301.458c.018.007 1.753.761 2.593 1.455a.5.5 0 0 0 .636-.768c-.699-.578-1.866-1.157-2.461-1.435l.542-.123a.5.5 0 0 0 .388-.486V.499a.5.5 0 0 0-.149-.355c-.095-.094-.233-.159-.358-.143 0 0-2.084.035-2.491.035S5.509 0 5.508 0c-.136-.021-.263.049-.358.143a.5.5 0 0 0-.149.355v1.008c0 .233.161.435.388.486l.612.139v.052c-1.434.646-3 1.548-3 2.41v.315a1 1 0 0 0-.009.094v8.596c0 .119.08.295.157.385.301.482 1.217 1.952 5.02 1.952 3.329 0 4.829-1.425 4.831-2.435l.003-.559c0-.275-.221-.5-.496-.502Z"/></svg>