<!-- SPDX-FileCopyrightText: © 2025 Schneider Electric SPDX-License-Identifier: LicenseRef-Proprietary -->
<svg xmlns="http://www.w3.org/2000/svg" viewBox="0 0 16 16"><path d="M12.342 2.369a.5.5 0 0 0 0 1 1.08 1.08 0 0 1 1.079 1.079v9.474a1.08 1.08 0 0 1-1.079 1.079H3.658a1.08 1.08 0 0 1-1.079-1.079V4.447a1.08 1.08 0 0 1 1.079-1.079h.934l-.281.935a.5.5 0 0 0 .479.644h6.428a.5.5 0 0 0 .478-.644l-.847-2.823A2.07 2.07 0 0 0 8.858-.001H7.149a2.07 2.07 0 0 0-1.852 1.134.5.5 0 1 0 .89.454c.186-.363.554-.588.961-.588h1.709c.479 0 .896.309 1.034.769l.653 2.179H5.461l.281-.935a.5.5 0 0 0-.479-.644H3.657a2.08 2.08 0 0 0-2.079 2.079v9.474c0 1.146.933 2.079 2.079 2.079h8.684a2.08 2.08 0 0 0 2.079-2.079V4.447a2.08 2.08 0 0 0-2.079-2.079Z"/><path d="m10.833 7.283-3.65 4.326-2.049-1.994a.5.5 0 0 0-.697.717L6.871 12.7a.5.5 0 0 0 .349.142h.024a.5.5 0 0 0 .357-.177l3.996-4.736a.499.499 0 1 0-.764-.644Z"/></svg>