<!-- SPDX-FileCopyrightText: © 2025 Schneider Electric SPDX-License-Identifier: LicenseRef-Proprietary -->
<svg xmlns="http://www.w3.org/2000/svg" viewBox="0 0 16 16"><path d="m12.935 10.131-4.823 4.823a.16.16 0 0 1-.223 0l-4.823-4.823a.5.5 0 0 0-.707.707l4.823 4.823a1.155 1.155 0 0 0 1.637 0l4.823-4.823a.5.5 0 0 0-.707-.707Zm-9.87-4.262 4.824-4.823c.076-.076.146-.078.223 0l4.823 4.823a.5.5 0 0 0 .708 0 .5.5 0 0 0 0-.707L8.818.34c-.438-.438-1.201-.438-1.637 0L2.358 5.162a.5.5 0 0 0 .707.707Z"/></svg>