<!-- SPDX-FileCopyrightText: © 2025 Schneider Electric SPDX-License-Identifier: LicenseRef-Proprietary -->
<svg xmlns="http://www.w3.org/2000/svg" viewBox="0 0 16 16"><path d="M14.581 7.386c-.409-.396-.962-.387-1.013-.387h-2.391l-.838-1.396c.099-.086.193-.142.266-.178a2.827 2.827 0 0 0 3.609-1.262c.355-.665.429-1.428.21-2.149S13.718.701 13.053.346a2.8 2.8 0 0 0-2.149-.21 2.8 2.8 0 0 0-1.668 1.371 2.8 2.8 0 0 0-.304 1.728.5.5 0 1 0 .991-.143 1.82 1.82 0 1 1 3.407.599 1.8 1.8 0 0 1-1.076.884 1.8 1.8 0 0 1-1.383-.134l-.08-.035h0s0 0 0 0a.4.4 0 0 0-.105-.022h0s0 0 0 0h-.004 0c-.014 0-.03.004-.041-.002h-.007a.5.5 0 0 0-.11.013c-.105.024-.722.19-1.2.85a.5.5 0 0 0-.095.299.5.5 0 0 0 .072.266l1.168 1.947c.09.151.253.243.429.243h2.685c.023-.037.22.018.31.107q.085.085.085.287c0 .481-.332.586-.405.604l-3.502.003a1 1 0 0 1-.19-.123L8.489 7.195a.5.5 0 0 0-.703-.068l-1.507 1.23-1.546-1.468.008-.006 1.773-1.495c.181-.144.638-.462.978-.329a.5.5 0 1 0 .367-.931c-.592-.234-1.273-.071-1.978.484L4.095 6.117a.5.5 0 0 0-.14.19l-.068-.013a.95.95 0 0 0-.729.202l-.602.514c-1.048.824-1.012 2.613-.28 3.662q.033.047.076.085l1.612 1.449a.91.91 0 0 0 .724.345.93.93 0 0 0 .561-.187l1.365-.981 1.924 3.041a.363.363 0 0 1-.299.573H2.413q-.385-.014-.385-.492c0-.323.132-.494.379-.506H5.5a.502.502 0 0 0 0-1.002H2.403c-.554.005-1.377.409-1.377 1.508 0 .566.224.907.411 1.093.39.387.899.401.968.401h5.83c.51 0 .974-.282 1.211-.735a1.35 1.35 0 0 0-.079-1.395l-2.195-3.471a.5.5 0 0 0-.716-.139l-1.715 1.319a.5.5 0 0 0-.076-.086l-1.601-1.439c-.427-.659-.464-1.806.123-2.269l.569-.453 2.149 2.054a.5.5 0 0 0 .663.025l1.463-1.194 1.113 1.346a1 1 0 0 0 .116.104c.177.132.443.332.782.332l3.588-.004c.465-.058 1.346-.467 1.346-1.602 0-.521-.214-.836-.394-1.01Z"/></svg>