<!-- SPDX-FileCopyrightText: © 2025 Schneider Electric SPDX-License-Identifier: LicenseRef-Proprietary -->
<svg xmlns="http://www.w3.org/2000/svg" viewBox="0 0 16 16"><path d="M8.352.06a.5.5 0 0 0-.248.663c1.151 2.524 2.104 4.814 2.104 7.275 0 2.665-1.215 5.333-2.103 7.281a.5.5 0 1 0 .91.414c.925-2.031 2.192-4.813 2.192-7.695S9.939 2.338 9.014.308A.5.5 0 0 0 8.352.06Z"/><path d="m1.923 7.802 1.079 2.007a.5.5 0 0 0 .761.147l.888-.744.637.499c.212.189.454.29.704.29l1.671-.015c.732 0 1.515-.409 1.515-1.556 0-.987-.768-1.429-1.527-1.429h-.957l-.499-.883a2.124 2.124 0 0 0 1.872-2.731 2.1 2.1 0 0 0-1.033-1.256 2.13 2.13 0 0 0-3.117 1.677.5.5 0 0 0 .996.09q.02-.222.127-.423a1.128 1.128 0 0 1 2.07.203c.087.286.057.588-.085.853a1.13 1.13 0 0 1-1.522.461.5.5 0 0 0-.676.207q-.016.03-.027.06a.5.5 0 0 0 .019.457l1.148 2.031a.5.5 0 0 0 .435.254H7.65c.527 0 .527.312.527.429 0 .405-.14.556-.519.556l-1.729-.042-.98-.77a.5.5 0 0 0-.629.01l-.729.61-.899-1.672-.034-.054 1.12-1.083a.5.5 0 0 0-.695-.719L1.374 6.919a.5.5 0 0 0-.093.122l-.05.044-.509.597c-.93.887-.899 2.877-.231 3.966.424.583 1.592 1.454 2.927.617l.634-.298 1.503 1.74c.075.079.275.505.172.872-.028.099-.138.42-.387.42H1.501c-.509 0-.509-.318-.509-.454 0-.35.303-.538.377-.546h2.13a.5.5 0 0 0 0-1H1.37c-.65.001-1.377.662-1.377 1.547C-.007 15.551.751 16 1.502 16H5.34c.632 0 1.149-.44 1.35-1.148.21-.748-.125-1.541-.398-1.819l-1.73-2.005a.5.5 0 0 0-.591-.126l-1.029.487c-.906.562-1.527-.177-1.618-.295-.42-.688-.453-2.169.125-2.724l.477-.568Zm14.008-.369a.5.5 0 0 0-.521-.238l-1.711.316c.249-.349.506-.698.759-1.042.499-.677 1.015-1.377 1.463-2.073a.5.5 0 1 0-.839-.542 41 41 0 0 1-1.429 2.022c-.499.677-1.015 1.377-1.463 2.073a.5.5 0 0 0 .511.762l1.573-.291q-.37.476-.734.953c-.508.661-1.015 1.322-1.559 1.982a.5.5 0 1 0 .771.636c.552-.67 1.066-1.341 1.58-2.011.506-.659 1.012-1.319 1.555-1.979a.5.5 0 0 0 .045-.572Z"/></svg>