<!-- SPDX-FileCopyrightText: © 2025 Schneider Electric SPDX-License-Identifier: LicenseRef-Proprietary -->
<svg xmlns="http://www.w3.org/2000/svg" viewBox="0 0 16 16"><path d="M8.016 10.671a.5.5 0 0 0 .711.704l3.053-3.087a.5.5 0 0 0 .104-.151.5.5 0 0 0 .041-.195v-.004h0v-.004h0v-.002h0V7.93h0a.5.5 0 0 0-.042-.193h0a.5.5 0 0 0-.095-.144q0 0 0 0h0v-.002h0v-.002L8.826 4.537a.5.5 0 0 0-.717.696l2.137 2.203-9.74-.011h0a.5.5 0 1 0 0 1l9.728.011-2.212 2.236Z"/><path d="M9.654 1.653a6.36 6.36 0 0 0-5.213 2.725.5.5 0 1 0 .821.571 5.36 5.36 0 0 1 4.393-2.296c2.947 0 5.346 2.398 5.346 5.347s-2.398 5.347-5.346 5.347a5.37 5.37 0 0 1-4.349-2.234.5.5 0 1 0-.813.582 6.36 6.36 0 0 0 5.161 2.652C13.153 14.347 16 11.5 16 8s-2.847-6.347-6.346-6.347Z"/></svg>