<!-- SPDX-FileCopyrightText: © 2025 Schneider Electric SPDX-License-Identifier: LicenseRef-Proprietary -->
<svg xmlns="http://www.w3.org/2000/svg" viewBox="0 0 16 16"><path d="M8.659.66c-3.886 0-7.076 3.036-7.324 6.861l-.409-.667a.501.501 0 0 0-.853.523l1.049 1.711a.5.5 0 0 0 .755.115l1.698-1.482a.5.5 0 0 0 .048-.706.5.5 0 0 0-.705-.047l-.578.504c.269-3.25 3-5.812 6.318-5.812 3.496 0 6.341 2.844 6.341 6.34s-2.845 6.341-6.341 6.341a6.3 6.3 0 0 1-4.355-1.734.5.5 0 0 0-.687.727 7.3 7.3 0 0 0 5.043 2.008c4.048 0 7.341-3.293 7.341-7.341S12.707.66 8.659.66Z"/><path d="M8.5 4a.5.5 0 0 0-.5.5V8c0 .164.08.317.215.41l2.96 2.058a.496.496 0 0 0 .695-.125.5.5 0 0 0-.125-.695L9 7.739V4.501a.5.5 0 0 0-.5-.5Z"/></svg>