<!-- SPDX-FileCopyrightText: © 2025 Schneider Electric SPDX-License-Identifier: LicenseRef-Proprietary -->
<svg xmlns="http://www.w3.org/2000/svg" viewBox="0 0 16 16"><path d="M12.942 12.021a.5.5 0 0 0-.62.339 3.67 3.67 0 0 1-3.5 2.62 3.65 3.65 0 0 1-3.208-1.909l-.046-.07H7.5a.5.5 0 0 0 0-1h-3a.5.5 0 0 0-.5.5v3a.5.5 0 0 0 1 0v-1.522a4.65 4.65 0 0 0 3.822 2.002 4.67 4.67 0 0 0 4.459-3.339.5.5 0 0 0-.339-.62Zm-8.834-.775a.5.5 0 0 0 .493-.42c.298-1.828 1.652-3.057 3.37-3.057 1.341 0 2.831.957 3.481 2.23H9.499a.5.5 0 0 0 0 1h3a.5.5 0 0 0 .5-.5v-3a.5.5 0 0 0-1 0v1.478c-.924-1.31-2.52-2.208-4.028-2.208-2.227 0-3.978 1.566-4.357 3.896a.5.5 0 0 0 .494.58Z"/><path d="M15.472 5.116a2.95 2.95 0 0 0-3.124-1.131A4.83 4.83 0 0 0 7.695.395a4.82 4.82 0 0 0-4.393 2.859h-.02c-.975 0-1.893.429-2.519 1.177a3.3 3.3 0 0 0-.708 2.711c.182 1.006.866 1.963 1.786 2.495a.501.501 0 0 0 .501-.866c-.673-.39-1.172-1.082-1.303-1.808a2.27 2.27 0 0 1 .491-1.892 2.27 2.27 0 0 1 1.722-.82l.351.021a.49.49 0 0 0 .501-.333 3.82 3.82 0 0 1 3.591-2.545 3.824 3.824 0 0 1 3.78 3.325.5.5 0 0 0 .212.345.52.52 0 0 0 .533.036c.81-.424 1.901-.165 2.435.591.363.516.443 1.173.219 1.803a2.54 2.54 0 0 1-.798 1.103.5.5 0 1 0 .629.778c.507-.41.901-.958 1.11-1.545.336-.94.211-1.929-.343-2.715Z"/></svg>