<!-- SPDX-FileCopyrightText: © 2025 Schneider Electric SPDX-License-Identifier: LicenseRef-Proprietary -->
<svg xmlns="http://www.w3.org/2000/svg" viewBox="0 0 16 16"><path d="M10.829 11.481 9.72 12.665V8.5a.5.5 0 0 0-1 0v4.226l-1.207-1.25a.5.5 0 0 0-.72.695l2.051 2.123a.5.5 0 0 0 .359.152c.109-.038.271-.058.365-.158l1.99-2.123a.5.5 0 0 0-.73-.684Z"/><path d="M15.472 6.04a2.95 2.95 0 0 0-3.124-1.132 4.83 4.83 0 0 0-4.653-3.589 4.82 4.82 0 0 0-4.393 2.858h-.02a3.28 3.28 0 0 0-2.71 1.43c-.626.914-.744 2.057-.324 3.136C.731 9.987 2.29 11 3.724 11H5.5a.5.5 0 0 0 0-1H3.724c-1.021 0-2.209-.756-2.544-1.619-.298-.767-.219-1.572.218-2.21a2.27 2.27 0 0 1 1.855-.996l.351.021a.494.494 0 0 0 .501-.333 3.82 3.82 0 0 1 3.59-2.545 3.826 3.826 0 0 1 3.781 3.326.5.5 0 0 0 .212.345c.113.083.265.11.401.083a.5.5 0 0 0 .133-.047c.807-.425 1.9-.166 2.434.591.363.516.443 1.172.219 1.802-.316.887-1.204 1.582-2.021 1.582a.5.5 0 0 0 0 1c1.232 0 2.506-.966 2.962-2.246.336-.939.211-1.929-.343-2.714Z"/></svg>