<!-- SPDX-FileCopyrightText: © 2025 Schneider Electric SPDX-License-Identifier: LicenseRef-Proprietary -->
<svg xmlns="http://www.w3.org/2000/svg" viewBox="0 0 16 16"><path d="M13.328 7.238 9.251 6.28 8.24 4.723a.5.5 0 0 0-.526-.217L2.251 5.69a.5.5 0 0 0-.335.729l1.083 1.997v4.667c0 .151.068.295.187.39l3 2.418a.502.502 0 0 0 .815-.39v-4.705l1.024-1.109 2.012-.555a.502.502 0 0 0-.265-.967l-2.15.593a.5.5 0 0 0-.235.143l-1.254 1.358a.5.5 0 0 0-.133.34v3.854l-1.998-1.609V8.29a.5.5 0 0 0-.061-.239l-.825-1.522 4.472-.969.932 1.436c.07.108.18.185.306.215l3.574.839-1.317 1.992a.5.5 0 0 0-.083.276v3.508l-2.86 1.005a.502.502 0 0 0 .332.946l3.195-1.122a.5.5 0 0 0 .335-.473v-3.713l1.631-2.465a.5.5 0 0 0-.304-.764Z"/><path d="M15.468 4.734a2.94 2.94 0 0 0-3.119-1.131A4.835 4.835 0 0 0 7.695 0 4.82 4.82 0 0 0 3.3 2.87h-.019A3.27 3.27 0 0 0 .766 4.046a3.32 3.32 0 0 0-.712 2.726c.125.694.484 1.37 1.012 1.904a.502.502 0 0 0 .713-.705 2.66 2.66 0 0 1-.738-1.376 2.3 2.3 0 0 1 .495-1.907 2.26 2.26 0 0 1 1.717-.819l.351.021a.486.486 0 0 0 .502-.334A3.82 3.82 0 0 1 7.696 1a3.83 3.83 0 0 1 3.778 3.341.514.514 0 0 0 .749.381c.805-.424 1.894-.167 2.428.589.367.52.448 1.182.222 1.818a2.56 2.56 0 0 1-.691 1.017.501.501 0 0 0 .672.744c.437-.395.779-.901.964-1.425.337-.946.21-1.942-.348-2.731Z"/></svg>