<!-- SPDX-FileCopyrightText: © 2025 Schneider Electric SPDX-License-Identifier: LicenseRef-Proprietary -->
<svg xmlns="http://www.w3.org/2000/svg" viewBox="0 0 16 16"><path d="M15.544 7.662c-.518-.823-1.386-1.295-2.382-1.295-.257 0-.513.034-.76.101a4.864 4.864 0 0 0-4.685-3.617 4.85 4.85 0 0 0-4.423 2.88h-.022A3.21 3.21 0 0 0 .626 7.085c-.652.913-.803 2.088-.415 3.223C.796 12.019 2.074 13 3.717 13H5.5a.5.5 0 0 0 0-1H3.717c-.698 0-1.959-.262-2.56-2.017-.283-.825-.18-1.669.282-2.316a2.21 2.21 0 0 1 1.802-.938l.354.021a.49.49 0 0 0 .501-.333 3.85 3.85 0 0 1 3.621-2.566 3.86 3.86 0 0 1 3.812 3.357.512.512 0 0 0 .744.378c.838-.441 1.936-.168 2.425.609.403.642.404 1.489.002 2.325-.365.761-1.397 1.48-2.125 1.48H7.5a.5.5 0 0 0 0 1h5.075c1.107 0 2.494-.938 3.026-2.047.555-1.152.533-2.352-.058-3.291Z"/></svg>