<!-- SPDX-FileCopyrightText: © 2024 Schneider Electric SPDX-License-Identifier: LicenseRef-Proprietary -->
<svg xmlns="http://www.w3.org/2000/svg" viewBox="0 0 20 20"><path fill="none" stroke="currentColor" stroke-linecap="round" stroke-linejoin="round" stroke-miterlimit="10" d="M14.53 15.19c-.12-.2-.1-.94-.1-.94a2.4 2.4 0 0 1 2.38-2.43 2.4 2.4 0 0 1 2.38 2.43c0 1.16-.7 2.88-2.74 4-1.74.97-4.55 1.48-7.65 1.15-2.58-.28-6.63-1.97-7.68-5.92a23 23 0 0 1-.62-3.7c0-.47-.08 2.47 1.61 3.91a8.4 8.4 0 0 0 4.63 1.84c.95.12 5.27.7 5.27-2.95 0-1.34-.9-2.35-2.38-2.43-1.32-.07-2.4 1.12-2.47 2.52m7.2-2.63c-.61-.24-.87-.94-.64-1.81 0-.05.15.1.38.15l.14.03c.35.06.77.06 1.03.01a4.1 4.1 0 0 0 2.57-2.19c.43-.92.6-3.54.71-3.97.31-1.16 1.03-1.24.94-1.53C19.45.6 16.75.51 15.34.5c-.97 0-2.49.4-3.27 1.3-1.43 1.63-.96 4.1-.24 4.8.1.1.52.48.8.47.11 0 .11 0 .13-.1.04-.21-.01-1.73 1.67-3.32a3.6 3.6 0 0 1 1.99-.87"/></svg>