<!-- SPDX-FileCopyrightText: © 2025 Schneider Electric SPDX-License-Identifier: LicenseRef-Proprietary -->
<svg xmlns="http://www.w3.org/2000/svg" viewBox="0 0 16 16"><path d="M9.5 3a.5.5 0 0 0-.5.5v9.786c0 .569-.229.693-.476.711q-.523-.042-.524-.711V3.5a.5.5 0 0 0-1 0v9.786c0 .378-.197.722-.379.723L6.471 14C6.233 14 6 13.646 6 13.286V3.5a.5.5 0 0 0-1 0v9.786c0 .256-.095.683-.445.712-.309-.024-.555-.334-.555-.712V3.5a.5.5 0 0 0-1 0v9.786c0 .073-.013.714-.492.714-.333 0-.508-.359-.508-.714V2h11.5a.5.5 0 0 0 0-1h-12a.5.5 0 0 0-.5.5v11.786C1 14.264 1.648 15 2.538 15c.398 0 .745-.159 1.001-.431.238.226.539.377.87.419a.5.5 0 0 0 .147.011q.075.006.146-.011c.319-.04.598-.184.815-.404.253.258.577.415.918.415h.002l.15.009c.377 0 .69-.159.924-.408.208.194.474.325.781.376a.5.5 0 0 0 .154.024h.147a.5.5 0 0 0 .156-.024c.769-.131 1.249-.765 1.249-1.689V3.5a.5.5 0 0 0-.5-.5Z"/><path d="m14.803 7.606-1.867-1.422a.5.5 0 1 0-.605.796l1.331 1.014-1.372.993a.5.5 0 1 0 .586.81l1.918-1.388a.502.502 0 0 0 .01-.803Z"/></svg>