<!-- SPDX-FileCopyrightText: © 2025 Schneider Electric SPDX-License-Identifier: LicenseRef-Proprietary -->
<svg xmlns="http://www.w3.org/2000/svg" viewBox="0 0 16 16"><path d="M4 7.5a.5.5 0 0 0 .5.5h7a.5.5 0 0 0 0-1H11V4.5a.5.5 0 0 0-.5-.5h-5a.5.5 0 0 0-.5.5v1a.5.5 0 0 0 1 0V5h4v2H4.5a.5.5 0 0 0-.5.5Z"/><path d="M13.5 2H3.693l.86-1h7.616l.436.4a.5.5 0 1 0 .676-.738l-.579-.531A.5.5 0 0 0 12.364 0h-8.04a.5.5 0 0 0-.379.174l-1.721 2a.5.5 0 0 0 .379.827H13v12H3V4.5a.5.5 0 0 0-1 0v11a.5.5 0 0 0 .5.5h11a.5.5 0 0 0 .5-.5v-13a.5.5 0 0 0-.5-.5Z"/><path d="M4.5 14h7a.5.5 0 0 0 0-1h-7a.5.5 0 0 0 0 1Zm3.445-7.437.904-.016a.5.5 0 1 0-.018-1l-.904.016a.5.5 0 0 0 .009 1zM4.5 11h7a.5.5 0 0 0 0-1h-7a.5.5 0 0 0 0 1Z"/></svg>