<!-- SPDX-FileCopyrightText: © 2025 Schneider Electric SPDX-License-Identifier: LicenseRef-Proprietary -->
<svg xmlns="http://www.w3.org/2000/svg" viewBox="0 0 16 16"><path d="M12.948 1.901a.5.5 0 0 0-.339-.472L8.634.081A.5.5 0 0 0 8.34.073L3.444 1.43a.5.5 0 0 0-.076.935l3.93 1.818a.5.5 0 0 0 .31.037l2.393-.485v.931l-2.608.576a.5.5 0 0 0-.392.488v1.929a.5.5 0 0 0 .593.491l2.408-.453v.823l-2.608.575a.5.5 0 0 0-.392.5l.043 1.854a.5.5 0 0 0 .604.478l2.353-.5v.895l-2.585.601a.5.5 0 0 0 .226.975l2.972-.69a.5.5 0 0 0 .387-.487v-1.909a.503.503 0 0 0-.604-.49l-2.367.503-.02-.841 2.599-.573a.5.5 0 0 0 .392-.488V7.096a.5.5 0 0 0-.593-.491l-2.408.453v-.925l2.608-.576a.5.5 0 0 0 .392-.488V3.125a.498.498 0 0 0-.6-.49l-2.832.575-2.545-1.177 3.435-.953 3.491 1.185.049 11.549-5.286 1.176-2.712-1.367V4.5a.5.5 0 0 0-1 0v9.428a.5.5 0 0 0 .275.446l3.146 1.587a.5.5 0 0 0 .333.042l5.854-1.303a.5.5 0 0 0 .392-.49z"/></svg>