<!-- SPDX-FileCopyrightText: © 2025 Schneider Electric SPDX-License-Identifier: LicenseRef-Proprietary -->
<svg xmlns="http://www.w3.org/2000/svg" viewBox="0 0 16 16"><path d="M13.795 1H9.229a.5.5 0 0 0-.471.668q.014.099.069.19c.231.377.833 1.529.839 2.323.003.413-.187.853-.508 1.176-.662.667-1.83.669-2.446.015a1.58 1.58 0 0 1-.433-1.151c.055-.91 1.253-2.786 1.71-3.432a.5.5 0 0 0-.817-.578C6.987.473 5.363 2.803 5.28 4.16a2.56 2.56 0 0 0 .703 1.897c.991 1.053 2.835 1.06 3.884.004.513-.517.803-1.205.798-1.888-.005-.744-.348-1.598-.628-2.173h3.757c.113 0 .205.092.205.205v6.301c0 .509-.388.923-.866.923s-.866-.414-.866-.923c0-.276-.236-.5-.512-.5s-.5.224-.5.5c0 .509-.388.923-.866.923s-.866-.414-.866-.923c0-.276-.235-.5-.512-.5s-.5.224-.5.5c0 .509-.389.923-.866.923s-.866-.414-.866-.923c0-.276-.236-.5-.512-.5s-.5.224-.5.5c0 .509-.389.923-.866.923s-.866-.414-.866-.923a.5.5 0 0 0-1 0c0 1.061.837 1.923 1.866 1.923.542 0 1.031-.239 1.373-.621.341.382.83.621 1.372.621s1.031-.239 1.372-.621c.341.382.83.621 1.372.621s1.031-.239 1.372-.621c.539.602 1.531.786 2.238.401v3.586a.205.205 0 0 1-.205.205H2.205A.205.205 0 0 1 2 13.795V2.205C2 2.092 2.092 2 2.205 2H4.8a.5.5 0 0 0 0-1H2.205C1.54 1 1 1.541 1 2.205v11.59C1 14.459 1.541 15 2.205 15h11.59C14.46 15 15 14.459 15 13.795V2.205C15 1.54 14.459 1 13.795 1Z"/></svg>