<!-- SPDX-FileCopyrightText: © 2025 Schneider Electric SPDX-License-Identifier: LicenseRef-Proprietary -->
<svg xmlns="http://www.w3.org/2000/svg" viewBox="0 0 16 16"><path d="M8.5.754V.5a.5.5 0 0 0-1 0v.254C3.524 1.013.369 4.329.369 8.369.369 12.577 3.792 16 8 16s7.631-3.424 7.631-7.631c0-4.04-3.155-7.356-7.131-7.614ZM8 15c-3.656 0-6.631-2.975-6.631-6.631S4.344 1.738 8 1.738s6.631 2.975 6.631 6.63S11.656 14.999 8 14.999Z"/><path d="M10.371 7.898a1.7 1.7 0 0 0-.412-.043H8.635a.54.54 0 0 0-.379.126.41.41 0 0 0-.139.318q0 .235.167.334.167.098.493.098h.903v.935a4 4 0 0 1-.721.302q-.355.106-.76.106-.833 0-1.298-.546t-.465-1.559q0-.468.12-.852.12-.385.346-.65c.226-.265.332-.312.544-.405q.318-.14.723-.139.393 0 .646.118t.403.291q.149.172.365.511a.54.54 0 0 0 .436.224.55.55 0 0 0 .391-.155.5.5 0 0 0 .163-.375q0-.204-.141-.467a1.7 1.7 0 0 0-.42-.499 2.3 2.3 0 0 0-.727-.391 3.2 3.2 0 0 0-1.029-.155q-.707 0-1.265.206a2.6 2.6 0 0 0-.947.595 2.5 2.5 0 0 0-.589.947q-.2.558-.2 1.229 0 .684.206 1.237.205.553.591.943.385.389.931.593t1.21.204q.57 0 1.053-.13a4.7 4.7 0 0 0 1.006-.412 1.6 1.6 0 0 0 .297-.204.56.56 0 0 0 .159-.238q.043-.132.043-.352V8.539q0-.298-.104-.448a.46.46 0 0 0-.273-.192Z"/></svg>