<!-- SPDX-FileCopyrightText: © 2025 Schneider Electric SPDX-License-Identifier: LicenseRef-Proprietary -->
<svg xmlns="http://www.w3.org/2000/svg" viewBox="0 0 16 16"><path d="M10.548 11.996a.5.5 0 0 0 .514-.275l.59-1.196.578 1.193a.5.5 0 0 0 .45.282q.032.001.064-.004a.5.5 0 0 0 .426-.4l.768-3.917a.499.499 0 1 0-.981-.192l-.48 2.449-.371-.767a.5.5 0 0 0-.448-.282c-.155.021-.366.107-.45.279l-.39.79-.488-2.47a.505.505 0 0 0-.587-.394.5.5 0 0 0-.394.588l.774 3.917a.5.5 0 0 0 .425.399Z"/><path d="M15.499 5a.5.5 0 0 0-.5.5v7.773c0 .586-2.471 1.727-7 1.727s-7-1.141-7-1.727V3.057a.5.5 0 0 0 .063-.243q0-.087.069-.19c.065-.098.173-.204.314-.307q.24-.176.601-.342a7 7 0 0 1 .852-.319q.486-.151 1.06-.271.579-.121 1.231-.207.655-.087 1.369-.131a24 24 0 0 1 2.948 0q.713.045 1.367.131.653.085 1.231.207.573.12 1.061.271.474.148.852.319.361.166.602.342c.141.102.248.208.312.305a.36.36 0 0 1 .069.192.35.35 0 0 1-.068.19 1.3 1.3 0 0 1-.314.307q-.238.175-.601.341a7 7 0 0 1-.852.319q-.488.15-1.061.271-.58.122-1.231.207c-.436.057-.895.102-1.367.132-.954.06-1.997.06-2.947 0q-.713-.046-1.37-.132a16 16 0 0 1-1.23-.207 12 12 0 0 1-1.061-.271.5.5 0 0 0-.295.955q.529.164 1.151.294c.409.085.847.16 1.306.219q.687.09 1.435.139c.992.062 2.08.062 3.075 0 .497-.032.978-.079 1.434-.139q.692-.09 1.307-.219.622-.131 1.15-.294c.357-.11.685-.233.973-.365q.456-.21.775-.444a2.3 2.3 0 0 0 .56-.564q.232-.356.232-.74c0-.384-.078-.504-.234-.742a2.2 2.2 0 0 0-.557-.561 4.5 4.5 0 0 0-.776-.445A8 8 0 0 0 13.462.7a13 13 0 0 0-1.151-.294q-.615-.129-1.306-.22-.687-.09-1.436-.138a25 25 0 0 0-3.074 0Q5.747.096 5.06.186q-.691.09-1.306.22-.623.13-1.151.294c-.357.11-.685.233-.973.365a4.5 4.5 0 0 0-.775.444q-.334.245-.53.522A.5.5 0 0 0 0 2.5v10.773C0 15.063 4.024 16 8 16s8-.937 8-2.727V5.5a.5.5 0 0 0-.5-.5Z"/><path d="M5.019 8.446c0-.592-.275-.93-.505-1.109-.74-.576-1.997-.276-2.137-.239a.5.5 0 0 0-.376.484V11.5a.5.5 0 0 0 1 0v-.976l1.284 1.323a.496.496 0 0 0 .707.011.5.5 0 0 0 .011-.707L3.884 9.996c.219-.07.439-.179.628-.346.232-.204.508-.579.508-1.206ZM3.852 8.9c-.214.19-.61.224-.852.216V8.002c.341-.034.72-.016.9.125.036.027.119.092.119.319 0 .274-.095.391-.167.454Zm3.554-1.818a.5.5 0 0 0-.466.323l-1.486 3.917a.5.5 0 0 0 .467.678.5.5 0 0 0 .467-.322L6.645 11h1.544l.263.68a.5.5 0 0 0 .933-.359L7.872 7.403c-.074-.193-.304-.316-.468-.32ZM7.025 10l.386-1.019L7.805 10z"/></svg>