<!-- SPDX-FileCopyrightText: © 2025 Schneider Electric SPDX-License-Identifier: LicenseRef-Proprietary -->
<svg xmlns="http://www.w3.org/2000/svg" viewBox="0 0 16 16"><path d="M13.5 13H12V.5a.5.5 0 0 0-.5-.5h-9a.5.5 0 0 0-.5.5v12.869c0 .22.144.414.354.479l7 2.131a.5.5 0 0 0 .444-.078A.5.5 0 0 0 10 15.5V3.596a.5.5 0 0 0-.344-.475L4.529 1.43a.495.495 0 0 0-.631.318.5.5 0 0 0 .318.631L9 3.957v5.169l-1.423-.484a.5.5 0 0 0-.322.947l1.602.545a.5.5 0 0 0 .144.026v4.664l-6-1.826V1h8v12.5a.5.5 0 0 0 .5.5h2a.5.5 0 0 0 0-1Z"/></svg>