<!-- SPDX-FileCopyrightText: © 2025 Schneider Electric SPDX-License-Identifier: LicenseRef-Proprietary -->
<svg xmlns="http://www.w3.org/2000/svg" viewBox="0 0 16 16"><path d="M15.5 3H14v-.5a.5.5 0 0 0-1 0V3h-2.5a.5.5 0 0 0 0 1H13v2h-1.5c-.111 0-.44-.189-.681-.328-.654-.376-1.551-.892-2.749-.892h-.004c-1.19 0-2.138.512-2.83.886C4.975 5.807 4.618 6 4.5 6H3V4h2.5a.5.5 0 0 0 0-1H3v-.5a.5.5 0 0 0-1 0V3H.5a.5.5 0 0 0 0 1H2v2h-.5a.5.5 0 0 0-.5.5v2.802c-.023.487.22 1.469 1.314 1.688a1 1 0 0 0 .269 0c1.193-.256 1.334-1.112 1.401-1.524.004-.027.016-.111.016-.139v-.286c.387.141.612.472.93.981.096.153.199.318.316.483l-2.63 1.46c-.38.222-.616.626-.616 1.055v.48a.5.5 0 0 0 1 0v-.48c0-.075.045-.147.111-.186l2.838-1.576c.462.357 1.097.621 2.029.634h.091c.998-.014 1.632-.313 2.07-.709l2.739 1.646c.076.045.121.116.121.191v.48a.5.5 0 0 0 1 0v-.48c0-.429-.236-.833-.611-1.052l-2.627-1.577q.12-.207.22-.398.108-.209.224-.402a.5.5 0 0 0-.854-.521 9 9 0 0 0-.254.455c-.403.76-.723 1.361-2.074 1.368-1.376-.008-1.779-.653-2.246-1.399a8 8 0 0 0-.324-.492h4.045a.5.5 0 0 0 0-1H3.954a3 3 0 0 0-.454-.037.5.5 0 0 0-.5.5v.037l-.003.803c-.056.342-.094.572-.551.691-.425-.122-.449-.524-.446-.668V7.002h2.5c.371 0 .742-.201 1.212-.454.631-.341 1.417-.766 2.354-.766h.004c.931 0 1.663.421 2.25.759.447.258.801.461 1.179.461h2.5l.003 2.271c-.034.09-.301.251-.503.251-.312 0-.5-.161-.5-.231v-.791a.5.5 0 0 0-1 0v.791c0 .69.659 1.231 1.5 1.231.611 0 1.5-.479 1.5-1.231V6.502a.5.5 0 0 0-.5-.5h-.5v-2h1.5a.5.5 0 0 0 0-1Z"/></svg>