<!-- SPDX-FileCopyrightText: © 2025 Schneider Electric SPDX-License-Identifier: LicenseRef-Proprietary -->
<svg xmlns="http://www.w3.org/2000/svg" viewBox="0 0 16 16"><path d="M12.742 2.644C12.676 2.54 11.08.093 8.284.013 8.183 0 5.791-.258 4.03 2.234c-.117.187-1.131 1.868-.849 3.234a.5.5 0 0 0 .98-.203c-.171-.827.46-2.087.702-2.478C6.252.823 8.09.997 8.211 1.009c2.304.067 3.677 2.153 3.687 2.168 1.986 3.183-1.152 7.312-1.19 7.363l-.231.32c-.829 1.157-2.77 3.867-4.645 4.106-1.847.23-2.318-.914-2.34-.97-.231-.594.306-1.905 1.044-3.208.159.425.429.626.469.654 1.104.65 2.685-.946 3.135-1.443 2.155-2.273 1.044-3.918 1.019-3.952-.758-1.299-2.056-1.506-2.937-1.4A1.1 1.1 0 0 1 6.352 4c.323-.586 1.13-.799 1.182-.814.012-.004 1.149-.383 1.954.156.549.366.857 1.099.916 2.176.201 3.689-2.021 5.277-2.113 5.342a.5.5 0 1 0 .564.826c.114-.077 2.781-1.947 2.548-6.223-.077-1.408-.534-2.402-1.358-2.953-1.23-.822-2.776-.291-2.795-.281-.05.012-1.23.312-1.768 1.281-.306.549-.345 1.182-.118 1.881a.5.5 0 0 0 .628.322c.062-.021 1.54-.475 2.322.866.028.044.667 1.083-.905 2.741-.71.78-1.652 1.413-1.838 1.3-.186-.165-.344-.8.39-2.018a.5.5 0 0 0-.829-.557c-.552.739-3.27 4.518-2.575 6.302.219.609 1.073 1.65 2.804 1.65q.284 0 .599-.039c2.308-.295 4.426-3.254 5.331-4.517l.215-.299c.148-.191 3.598-4.721 1.239-8.5Z"/></svg>