<!-- SPDX-FileCopyrightText: © 2025 Schneider Electric SPDX-License-Identifier: LicenseRef-Proprietary -->
<svg xmlns="http://www.w3.org/2000/svg" viewBox="0 0 16 16"><path d="M15.912 11.364a.5.5 0 0 0-.406-.27l-1.846-.146-1.924-2.736a.5.5 0 0 0-.409-.213H9.795l-.824-1.716a.5.5 0 0 0-.451-.284H6.207a.5.5 0 0 0-.461.695L6.296 8h-1.13a.504.504 0 0 0-.498.546c0 .009.072.887-.402 1.442-.243.284-.59.438-1.061.471a.69.69 0 0 0-.585.418c-.169.374-.061.902.276 1.345.425.559 1.538 1.431 4.202 1.015.768-.121 1.215-.439 1.61-.721.52-.371.896-.637 2.033-.448a.5.5 0 0 0 .164-.986c-1.547-.26-2.2.208-2.777.619-.349.249-.651.464-1.185.548-2.039.32-2.875-.245-3.137-.504a1 1 0 0 1-.227-.322c.604-.099 1.092-.364 1.454-.792.444-.523.584-1.176.625-1.63H7.05a.5.5 0 0 0 .461-.695L6.961 7h1.246l.824 1.717A.5.5 0 0 0 9.482 9h1.587l1.91 2.717a.5.5 0 0 0 .37.211l1.271.101-1.8 2.972H4.26c-1.574 0-3.26-1.267-3.26-3.152 0-.979.317-1.318.757-1.788.529-.566 1.178-1.261 1.279-3.065 1.141-.078 1.86-.96 1.937-2.395a.5.5 0 1 0-.999-.053c-.051.965-.423 1.454-1.105 1.454h-.265a.5.5 0 0 0-.108 0h-.011a1.486 1.486 0 0 1-1.484-1.484V3.002h3.5a.5.5 0 0 0 0-1h-.5V.5a.5.5 0 0 0-1 0V2h-1V.5a.5.5 0 0 0-1 0V2h-.5a.5.5 0 0 0-.5.5v2.016c0 1.217.879 2.232 2.037 2.443-.08 1.421-.533 1.906-1.01 2.417-.481.515-1.026 1.098-1.026 2.472C.002 14.331 2.205 16 4.262 16h8.842a.5.5 0 0 0 .428-.241l2.365-3.907a.5.5 0 0 0 .018-.487Z"/></svg>