<!-- SPDX-FileCopyrightText: © 2025 Schneider Electric SPDX-License-Identifier: LicenseRef-Proprietary -->
<svg xmlns="http://www.w3.org/2000/svg" viewBox="0 0 16 16"><path d="M1.5 5a.5.5 0 0 0 .5-.5V1.3a.3.3 0 0 1 .3-.3h10.2q.044 0 .087.007L7.503 5.802 3.854 2.146a.5.5 0 1 0-.707.707l3.992 4a.5.5 0 0 0 .697.011l5.714-5.39a.5.5 0 0 0 .078-.093.5.5 0 0 0 .142-.68A1.49 1.49 0 0 0 12.5 0H2.3C1.583 0 1 .583 1 1.3v3.2a.5.5 0 0 0 .5.5Zm13.2-2h-1.2a.5.5 0 0 0-.5.5v7.2a.3.3 0 0 1-.3.3h-2.2a.5.5 0 0 0 0 1h2.2c.717 0 1.3-.583 1.3-1.3V4h.7a.3.3 0 0 1 .3.3v8.4a.3.3 0 0 1-.3.3h-3.2a.5.5 0 0 0 0 1h3.2c.717 0 1.3-.583 1.3-1.3V4.3c0-.717-.583-1.3-1.3-1.3ZM5.503 9.002 1.513 9l2.325-2.13a.5.5 0 0 0-.676-.738L.467 8.603c-.308.282-.461.57-.467.879v.033c.004.312.157.602.467.887l2.695 2.469a.5.5 0 0 0 .676-.738l-2.327-2.132 3.992.002c1.378 0 2.5 1.121 2.5 2.5s-1.122 2.5-2.499 2.5l-1.003-.002h0a.5.5 0 0 0-.001 1l1.004.002c1.93 0 3.5-1.57 3.5-3.5s-1.57-3.5-3.5-3.5Z"/></svg>