<!-- SPDX-FileCopyrightText: © 2025 Schneider Electric SPDX-License-Identifier: LicenseRef-Proprietary -->
<svg xmlns="http://www.w3.org/2000/svg" viewBox="0 0 16 16"><path d="M16.003 11.059A1.07 1.07 0 0 0 14.939 10l-.938-.062V7.526C14.001 7 13.509 7 12.939 7l-3.377-.062L9.624 6h1.315c.585 0 1.062-.476 1.062-1.062V2.061c0-.585-.477-1.062-1.062-1.062H5.062C4.477.999 4 1.475 4 2.061v2.877C4 5.523 4.476 6 5.062 6l1.5.062-.056.983-3.527-.039c-.282-.014-.551.105-.753.306s-.313.467-.313.75L1.851 10h-.772c-.584 0-1.061.476-1.063 1.06l-.013 2.894c-.001.283.108.55.309.751.2.2.466.311.748.311h.003l4.86-.013a1.07 1.07 0 0 0 1.062-1.062l.012-2.883a1.05 1.05 0 0 0-.309-.751c-.2-.2-.466-.311-.748-.311h-.003L4.499 10a.5.5 0 0 0 .001 1h.001l1.496.054-.078 2.948-4.917-.045L1.079 11h.772c.585 0 1.062-.477 1.062-1.062l.056-1.933 3.526.039c.274-.018.552-.104.754-.304s.313-.467.313-.751V6.06c0-.585-.476-1.062-1.061-1.062l-1.5-.062.062-2.938 5.938.062-.062 2.938H9.624c-.585 0-1.062.476-1.062 1.062v.877c0 .585.477 1.062 1.062 1.062h3.377v1.938c0 .585.477 1.062 1.062 1.062l.941.063-.045 2.935-4.961-.077.045-2.919 1.457.004h0a.5.5 0 0 0 .001-1l-1.456-.004h-.004c-.281 0-.547.11-.746.31a1.05 1.05 0 0 0-.311.752l.013 2.862a1.07 1.07 0 0 0 1.063 1.06l4.895.013h.004c.281 0 .547-.11.746-.31.201-.201.312-.468.311-.752z"/></svg>