<!-- SPDX-FileCopyrightText: © 2025 Schneider Electric SPDX-License-Identifier: LicenseRef-Proprietary -->
<svg xmlns="http://www.w3.org/2000/svg" viewBox="0 0 16 16"><path d="M4.038 5.898a.5.5 0 1 0 .314-.95c-.392-.129-.667-.376-.699-.629a.503.503 0 0 0-.671-.405 2 2 0 0 1-.67.116c-.772 0-1.311-.409-1.311-.776s.536-.773 1.358-.773c.153.031.294-.114.39-.235a.6.6 0 0 0 .09-.47c0-.367.539-.775 1.311-.775.372 0 .718.096.975.271a.5.5 0 0 0 .433.062q.284-.09.594-.09c.772 0 1.311.409 1.304.846a.5.5 0 0 0 .466.575q.284.016.534.106a.51.51 0 0 0 .518-.112c.117-.113 1.193-1.071 2.64 0a.499.499 0 1 0 .595-.803c-1.543-1.142-2.978-.651-3.7-.11l-.074-.017C8.258.877 7.32.246 6.154.246q-.344 0-.672.076a2.8 2.8 0 0 0-1.33-.319c-1.178 0-2.125.645-2.287 1.51C.79 1.669.002 2.379.002 3.257c0 .996 1.015 1.776 2.311 1.776q.272 0 .532-.046c.23.405.653.735 1.195.915Zm11.405-2.421a.5.5 0 0 0-.5-.477h-1.309a.5.5 0 0 0-.499.472L12.663 12h-2.189l-.354-4.539A.5.5 0 0 0 9.621 7H8.297a.5.5 0 0 0-.499.46L7.432 12H5.096a.5.5 0 0 0-.322.117l-1.597 1.344a.5.5 0 0 0-.178.383V15.5a.5.5 0 0 0 1 0v-1.423L5.278 13h2.615a.5.5 0 0 0 .499-.46L8.758 8h.4l.354 4.539a.5.5 0 0 0 .499.461h3.125a.5.5 0 0 0 .499-.472L14.107 4h.359L15 15.482c.014.275.233.502.523.476a.5.5 0 0 0 .476-.523z"/><path d="M11.763 3.356a.5.5 0 0 0-.681.192c-.297.532-1.07.71-1.58.361a.501.501 0 0 0-.781.38c-.091.335-.225.622-.889.749-.498.093-.71-.02-1.027-.33a.5.5 0 0 0-.699.715c.349.342.765.646 1.43.646q.222 0 .483-.048c.867-.165 1.279-.589 1.494-1.01.912.276 1.973-.136 2.442-.974a.5.5 0 0 0-.192-.681Z"/></svg>