<!-- SPDX-FileCopyrightText: © 2025 Schneider Electric SPDX-License-Identifier: LicenseRef-Proprietary -->
<svg xmlns="http://www.w3.org/2000/svg" viewBox="0 0 16 16"><path d="M14.576 3.871a.5.5 0 1 0 .938-.344A8.04 8.04 0 0 0 13.331.313a.5.5 0 0 0-.667.745 7.04 7.04 0 0 1 1.911 2.812ZM.784 4.316a.496.496 0 0 0 .641-.297 7.05 7.05 0 0 1 1.914-2.814.5.5 0 1 0-.667-.745A8.04 8.04 0 0 0 .486 3.675a.5.5 0 0 0 .297.641Zm14.299-2.739a.5.5 0 1 0 .825-.566 9 9 0 0 0-.647-.837.5.5 0 0 0-.756.654q.311.36.579.75Zm-6.337 9.424a.5.5 0 0 0 .313.949c.201-.066 1.977-.683 2.52-1.873.334-.732.302-1.588-.104-2.557-.827-1.791-.447-2.408-.452-2.408a.564.564 0 0 0 .044-.688.57.57 0 0 0-.63-.179c-.424.169-1.079.605-1.405 1.292-.499-.697-.975-1.787-.352-2.97a.57.57 0 0 0-.062-.597.565.565 0 0 0-.609-.153c-.029.012-.722.295-1.307 1.088-.414.558-1.256 1.695-.805 3.32-.413-.403-.937-.528-1.383-.539a.58.58 0 0 0-.392.089.56.56 0 0 0-.184.643c.441 1.021.372 1.549.3 2.106-.055.419-.116.894.055 1.511.257.931.775 1.476 1.775 1.834.41.108.822.112 1.104.112.272.004.541-.087.632-.373a.565.565 0 0 0-.294-.661c-.061-.026-.158-.123-.23-.307a1.33 1.33 0 0 1 .034-1.005 2.7 2.7 0 0 1 .331-.549c.154-.213.312-.431.445-.788l.01.015c.123.177.209.302.307.471.182.316.277.684.253.981a.5.5 0 0 0 .997.08c.04-.5-.1-1.068-.383-1.561a7 7 0 0 0-.351-.541c-.145-.209-.338-.487-.647-.977a.5.5 0 0 0-.92.211c-.108.952-.291 1.205-.521 1.523-.135.187-.288.398-.435.729a2.37 2.37 0 0 0-.091 1.665c-.61-.231-.888-.531-1.052-1.126-.117-.422-.077-.728-.027-1.115.058-.448.127-.979-.066-1.745.235.198.364.533.42 1.042a.498.498 0 0 0 .8.343c.444-.338.787-1.192.537-2.145-.379-1.124.049-1.898.457-2.472-.03 1.727 1.305 3.036 1.64 3.337a.5.5 0 0 0 .829-.44c-.035-.253.018-.47.113-.654.048.51.215 1.167.6 2.002.287.685.324 1.27.109 1.738-.277.607-1.302 1.133-1.923 1.339ZM.505 1.794a.5.5 0 0 0 .412-.216q.269-.39.581-.751A.5.5 0 1 0 .741.174a10 10 0 0 0-.647.837.498.498 0 0 0 .411.783Z"/><path d="M15.5 13H4.355a.5.5 0 0 0 0 1H15v1H1v-1h1.5a.5.5 0 0 0 .5-.5V6.014C3 3.249 5.21 1 7.927 1h.145C10.789 1 13 3.25 13 6.014V11.5a.5.5 0 0 0 1 0V6.014C14 2.698 11.341 0 8.072 0h-.145C4.659 0 2 2.698 2 6.014V13H.5a.5.5 0 0 0-.5.5v2a.5.5 0 0 0 .5.5h15a.5.5 0 0 0 .5-.5v-2a.5.5 0 0 0-.5-.5Z"/></svg>