<!-- SPDX-FileCopyrightText: © 2025 Schneider Electric SPDX-License-Identifier: LicenseRef-Proprietary -->
<svg xmlns="http://www.w3.org/2000/svg" viewBox="0 0 16 16"><path d="M8.1 4.645a.5.5 0 0 0 .685-.175L10.986.755a.5.5 0 0 0-.86-.51L7.925 3.96a.5.5 0 0 0 .175.685Zm-.525 5.82c-.173.133-.343.25-.534.379-.215.145-.865.352-1.258.452a.5.5 0 0 0-.229.131c-.118.118-2.904 2.902-3.303 3.339-.264.287-.447.237-.551.197-.016-.005-.386-.126-.645-.634-.179-.353.166-.644.288-.743l3.418-3.401a.5.5 0 0 0 .146-.309c.03-.32.317-.827.487-1.066l.293-.395a.5.5 0 1 0-.801-.599l-.302.407c-.057.079-.513.73-.645 1.37L.692 12.831c-.383.283-.985 1.056-.53 1.952.408.803 1.024 1.063 1.217 1.128.118.052.277.091.461.091.336 0 .753-.131 1.146-.561.344-.376 2.675-2.709 3.177-3.211.33-.091 1.067-.31 1.434-.557a12 12 0 0 0 .672-.482c.217-.17.213-.449.045-.667-.168-.217-.524-.225-.742-.059Zm2.351-4.656a.495.495 0 0 0 .706-.032l4.278-4.688a.499.499 0 1 0-.738-.674L9.894 5.103a.5.5 0 0 0 .032.706Z"/><path d="M15.854 15.146 9.961 9.253a.5.5 0 0 0 .145-.053l5.604-3.095a.499.499 0 1 0-.483-.875L10.28 7.961c-.089-.497-.271-1.114-.644-1.514-.35-.375-1.183-.94-2.042-.957a1.66 1.66 0 0 0-1.063.332L.854.146a.5.5 0 1 0-.708.707l15 15a.5.5 0 0 0 .708 0 .5.5 0 0 0 0-.707ZM7.256 6.549a.7.7 0 0 1 .318-.057c.51.01 1.096.387 1.331.639.286.306.423 1.046.454 1.521zm-.547 3.502q.163.001.345-.053a.5.5 0 1 0-.291-.957c-.02.007-.079.024-.126-.015a.501.501 0 0 0-.735.678c.13.147.421.347.806.347Z"/></svg>