<!-- SPDX-FileCopyrightText: © 2025 Schneider Electric SPDX-License-Identifier: LicenseRef-Proprietary -->
<svg xmlns="http://www.w3.org/2000/svg" viewBox="0 0 16 16"><path d="M16 5.765a.5.5 0 0 0-.25-.433l-1.369-.791a.5.5 0 1 0-.5.866l.619.357-3.121 1.802a.5.5 0 0 0 0 .866l1.946 1.124-5.152 2.975-4.242-2.449 1.913-1.104a.499.499 0 0 0 0-.866L4.163 7.14l6.36-3.672 1.99 1.149a.5.5 0 1 0 .5-.866l-2.24-1.293a.5.5 0 0 0-.5 0L2.92 6.704a.48.48 0 0 0-.213.233.5.5 0 0 0 .103.557.5.5 0 0 0 .112.084l1.673.967-1.663.96-1.431-.826.571-.33a.5.5 0 1 0-.5-.866l-1.313.758a.5.5 0 0 0-.214.232.5.5 0 0 0-.001.409.52.52 0 0 0 .213.233l2.415 1.394.016.01 5.234 3.021a.5.5 0 0 0 .5 0l6.152-3.552a.5.5 0 0 0 0-.866l-1.946-1.124 3.121-1.802a.5.5 0 0 0 .25-.433Z"/></svg>