<!-- SPDX-FileCopyrightText: © 2025 Schneider Electric SPDX-License-Identifier: LicenseRef-Proprietary -->
<svg xmlns="http://www.w3.org/2000/svg" viewBox="0 0 20 20"><path fill="none" stroke="currentColor" stroke-linecap="round" stroke-linejoin="round" stroke-miterlimit="10" d="M2.664 8.303S1.213 7.791.522 7.46C.39 6.767 2.04 4.106 2.774 3.382c.157-.033 2.017 1.341 2.017 1.341h0a7.6 7.6 0 0 1 3.025-1.716l-.014-.047S7.585 1.613 7.534.867C10.21.137 12.3.721 12.3.721l-.173 2.186.03.085a7.6 7.6 0 0 1 3.085 1.74l.011-.011s1.093-.856 1.734-1.271c1.66 1.738 2.513 3.931 2.513 3.931l-2.038.948-.092.021q.197.809.198 1.676c0 .623-.08 1.227-.23 1.804v0s1.452.457 2.143.788c-.686 2.613-2.335 4.022-2.335 4.022l-1.959-1.272a7.6 7.6 0 0 1-3.076 1.703s.288 1.279.338 2.025c-1.672.844-4.87.101-4.87.101l.058-2.208a7.6 7.6 0 0 1-2.906-1.717h0s-1.16 1.073-1.801 1.488C.942 14.878.5 12.737.5 12.737l5.664-2.768c0-2.043 1.707-3.699 3.812-3.699s3.812 1.656 3.812 3.699-1.707 3.699-3.812 3.699a3.85 3.85 0 0 1-2.887-1.283"/></svg>