<!-- SPDX-FileCopyrightText: © 2025 Schneider Electric SPDX-License-Identifier: LicenseRef-Proprietary -->
<svg xmlns="http://www.w3.org/2000/svg" viewBox="0 0 16 16"><path d="M11.151 8.682a.497.497 0 0 0-.674-.255c-1.778.846-4.091.631-5.89-.546a5.5 5.5 0 0 1-1.631-1.606c1.228.76 3.019 1.231 5.043 1.231 1.086 0 2.164-.142 3.117-.411a.5.5 0 0 0-.271-.963c-.866.245-1.85.374-2.846.374-3.442 0-5.755-1.423-5.756-2.752v-.002c0-.655.562-1.332 1.544-1.851l-.734 2.214a.5.5 0 0 0 .949.315l1-3.019a9 9 0 0 1 .689-.177l-.559 3.885a.5.5 0 0 0 .99.142l.603-4.193q.369-.04.76-.057V5.5a.5.5 0 0 0 1 0V1.01q.391.016.759.055l.603 4.196a.507.507 0 0 0 .566.424.5.5 0 0 0 .424-.566l-.559-3.891q.36.076.687.174l1.004 3.027a.5.5 0 0 0 .949-.315l-.739-2.23c1.001.521 1.574 1.207 1.574 1.869 0 1.435-.672 2.819-1.844 3.797a.5.5 0 1 0 .641.767c1.4-1.168 2.203-2.832 2.203-4.564C14.753 1.649 11.785 0 7.997 0h-.015c-3.773.004-6.73 1.646-6.738 3.744-.06 1.958.958 3.771 2.795 4.973q.324.211.665.387L2.63 13.936a.5.5 0 0 0 .262.656.5.5 0 0 0 .657-.262L5.622 9.5a7.5 7.5 0 0 0 2.377.434v5.564a.5.5 0 0 0 1 0V9.879a6.4 6.4 0 0 0 1.429-.349l2.061 4.799a.498.498 0 1 0 .918-.394L11.151 8.68Z"/></svg>