<!-- SPDX-FileCopyrightText: © 2025 Schneider Electric SPDX-License-Identifier: LicenseRef-Proprietary -->
<svg xmlns="http://www.w3.org/2000/svg" viewBox="0 0 16 16"><path d="M12.409 10.578a.99.99 0 0 0-.409.798V13.5a.5.5 0 0 0 1 0l-.022-2.107 1.5.501a.5.5 0 1 0 .316-.949l-1.499-.501a.99.99 0 0 0-.886.135Z"/><path d="M15.5 15H8.257a5.7 5.7 0 0 0 1.09-1.141 5.16 5.16 0 0 0 .994-3.206c-.025-.785-.216-1.564-.528-2.167.348-1.557 1.068-2.53 1.707-3.392.616-.832 1.198-1.617 1.291-2.713.052-.606.02-1.307-.018-1.912a.5.5 0 0 0-.998.062c.034.536.066 1.22.02 1.765-.069.814-.523 1.427-1.098 2.203-.689.93-1.547 2.088-1.922 3.968-.079.392-.225.385-.269.385-.326-.011-.872-.51-.959-1.177-.117-.893.244-1.601.625-2.35.271-.531.55-1.081.658-1.706a.5.5 0 0 0-.986-.17c-.082.476-.316.936-.564 1.422-.414.812-.882 1.733-.725 2.934q.014.108.038.213l-.842.318q-.216-.14-.21-.484c.028-1.601.607-2.606.625-2.636a.5.5 0 0 0-.856-.518c-.023.037-.428.717-.641 1.863-.284-.07-.516-.213-.652-.41-.144-.208-.175-.462-.094-.741l.005-.017.027-.078c.418-1.114.92-1.94.925-1.948a.5.5 0 0 0-.853-.523c-.021.033-.464.762-.886 1.805a.8.8 0 0 1-.191-.217c-.146-.239-.177-.533-.077-.732l.006-.013c.298-.576.896-1.388.902-1.396a.5.5 0 0 0-.804-.594c-.019.026-.344.468-.65.954a.7.7 0 0 1-.092-.28c-.036-.383.249-.897.845-1.529a.5.5 0 1 0-.727-.687c-.814.861-1.179 1.616-1.115 2.308q.062.652.609 1.168c-.088.43-.003.908.249 1.32.195.32.47.558.783.689-.012.387.094.756.316 1.077.302.436.78.728 1.356.839q-.007.135-.01.274c-.006.328.071.627.219.876l-1.869.706a.498.498 0 0 0-.158.839c.145.13.483.523.51 1.352.047 1.463-1.123 2.814-2.91 3.365a.5.5 0 1 0 .294.955c2.224-.684 3.676-2.433 3.615-4.352-.02-.64-.18-1.116-.37-1.461l3.126-1.18c.371.533.919.899 1.475.917.257 0 .502-.06.7-.196.076.281.136.627.149 1.029a4.18 4.18 0 0 1-.807 2.591 4.95 4.95 0 0 1-2.245 1.708.5.5 0 0 0-.242.734.5.5 0 0 0 .45.282h9a.5.5 0 0 0 0-1Z"/></svg>