<!-- SPDX-FileCopyrightText: © 2025 Schneider Electric SPDX-License-Identifier: LicenseRef-Proprietary -->
<svg xmlns="http://www.w3.org/2000/svg" viewBox="0 0 16 16"><path d="M6.691 7.285a.5.5 0 0 0-.554.104l-2.61 2.61h-.816l3.882-3.833a.5.5 0 0 0-.002-.716c-.168-.166-.226-.221-2.612-.192a.5.5 0 0 0-.347.146L2 7.036v-.605l.292-.292A.5.5 0 0 0 2 5.289V.5a.5.5 0 0 0-1 0L.998 8.246l.002.05v2.119a.5.5 0 0 0 0 .171v4.915a.5.5 0 0 0 1 0v-4.5h1.734c.133 0 .26-.053.354-.146L5.94 9.003l-.033.827-.31.329a.5.5 0 0 0 .728.686l.438-.465a.5.5 0 0 0 .136-.323l.092-2.292a.5.5 0 0 0-.299-.478ZM2 8.451l2.195-2.195c.298-.002.606-.004.886-.002L2 9.296zM14.5 5a.5.5 0 0 0-.5.5V12h-4V4h4.5a.5.5 0 0 0 0-1H10V.5a.5.5 0 0 0-1 0v15a.5.5 0 0 0 1 0V13h4.5a.5.5 0 0 0 .5-.5v-7a.5.5 0 0 0-.5-.5Z"/></svg>