<!-- SPDX-FileCopyrightText: © 2025 Schneider Electric SPDX-License-Identifier: LicenseRef-Proprietary -->
<svg xmlns="http://www.w3.org/2000/svg" viewBox="0 0 16 16"><path d="M15.853 15.146.854.146a.5.5 0 0 0-.707.708l2.178 2.178A.5.5 0 0 0 2.5 4H3v2.237a.5.5 0 0 0 .638.48l1.852-.52 2.081 2.082-.517 1.128-3.339-1.604a.5.5 0 0 0-.716.451V11H1V3.5a.5.5 0 0 0-1 0v8a.5.5 0 0 0 .5.5h3a.5.5 0 0 0 .5-.5V9.049l3.082 1.48c.121.058.26.064.386.02a.5.5 0 0 0 .285-.263l.574-1.253 6.82 6.82a.5.5 0 0 0 .708 0 .5.5 0 0 0 0-.707ZM4 5.572v-.865l.672.672zm9.913 6.291a.5.5 0 0 0 .819.576c1.531-2.177 1.869-6.178-.07-8.664a.5.5 0 1 0-.788.616c1.641 2.104 1.338 5.627.04 7.472Z"/><path d="M12.19 10.547a.499.499 0 0 0 .409.788.5.5 0 0 0 .409-.212c1.334-1.891 1.31-4.509-.057-6.092a.5.5 0 0 0-.757.653c1.075 1.245 1.074 3.336-.004 4.862Z"/><path d="M10.714 7.198c.341.428.424 1.233.003 1.751a.5.5 0 1 0 .775.63c.679-.835.681-2.155.003-3.005a.501.501 0 0 0-.783.623Zm-3.19-1.643 1.977-.521-.712 1.602a.5.5 0 1 0 .915.406l1.135-2.554a.501.501 0 0 0-.584-.686l-2.984.786a.5.5 0 0 0 .255.967Z"/></svg>