<!-- SPDX-FileCopyrightText: © 2025 Schneider Electric SPDX-License-Identifier: LicenseRef-Proprietary -->
<svg xmlns="http://www.w3.org/2000/svg" viewBox="0 0 16 16"><path d="M8 11.5a.5.5 0 0 0-.5-.5h-2a.5.5 0 0 0 0 1h2a.5.5 0 0 0 .5-.5Z"/><path d="M15.784 5.238 8.328.088a.495.495 0 0 0-.566 0L.218 5.248a.5.5 0 1 0 .565.825l7.259-4.966L15 5.912V15H8.396l1.486-1.495a1.95 1.95 0 0 0 .523-1.769c.246-.054.48-.186.703-.41a1.3 1.3 0 0 0 .324-1.276c.357-.408.644-.973.524-1.505.084-.055.223-.121.307-.161.181-.085.352-.167.477-.292.603-.607.592-1.569-.025-2.19a1.57 1.57 0 0 0-1.117-.473h0c-.402 0-.781.159-1.067.448-.122.123-.2.283-.283.452-.054.111-.155.317-.147.346-.571-.084-1.134.191-1.511.514-.44-.127-.922-.026-1.333.388a1.3 1.3 0 0 0-.332.578 2 2 0 0 0-.372-.036h0c-.517 0-1.002.202-1.367.569L.565 13.336a1.95 1.95 0 0 0-.247 2.438.5.5 0 1 0 .835-.548.95.95 0 0 1 .12-1.185l.133-.134 1.289 1.296a.5.5 0 0 0 .709-.705l-1.292-1.3.611-.615.657.661a.5.5 0 1 0 .709-.705l-.661-.665 2.466-2.479a.95.95 0 0 1 1.316 0 .5.5 0 0 0 .273.141.5.5 0 0 0 .482-.836c-.114-.115-.114-.301.059-.475a.293.293 0 0 1 .406 0 .501.501 0 0 0 .853-.31c.22-.175.486-.28.667-.248.708.098 1.036-.572 1.195-.897.038-.077.068-.15.093-.185a.5.5 0 0 1 .359-.153c.148 0 .294.063.408.178.228.229.238.565.043.764-.05.037-.129.069-.213.109-.336.159-1.121.531-.858 1.272.03.084-.028.263-.158.457l-.612-.616a.5.5 0 1 0-.709.705l.899.905c.114.115.114.302-.058.477a.293.293 0 0 1-.406 0l-.795-.801a.5.5 0 0 0-.71.706l.604.607a.5.5 0 0 0 .14.275.947.947 0 0 1 0 1.332L6.839 15.15a.499.499 0 0 0 .354.853h8.306a.5.5 0 0 0 .5-.5V5.649a.5.5 0 0 0-.216-.412Z"/></svg>