<!-- SPDX-FileCopyrightText: © JCB Co., Ltd. 2016 SPDX-License-Identifier: LicenseRef-Proprietary -->
<svg xmlns="http://www.w3.org/2000/svg" x="0" y="0" preserveAspectRatio="none" version="1.1" viewBox="0 0 171 131.7"><path fill="#fff" d="M167.7 103.6c0 14-11.4 25.4-25.4 25.4H4.1V28.4C4.1 14.4 15.5 3 29.5 3h138.2z"/><linearGradient id="a" x1="14.216" x2="54.166" y1="109.612" y2="109.612" gradientTransform="matrix(1.125 0 0 -1.125 97.754 196.347)" gradientUnits="userSpaceOnUse"><stop offset="0" stop-color="#007940"/><stop offset=".229" stop-color="#00873f"/><stop offset=".743" stop-color="#40a737"/><stop offset="1" stop-color="#5cb531"/></linearGradient><path fill="url(#a)" d="M122.7 77.8h10.5c.3 0 1-.1 1.3-.1 2-.4 3.7-2.2 3.7-4.7 0-2.4-1.7-4.2-3.7-4.7-.3-.1-.9-.1-1.3-.1h-10.5z"/><linearGradient id="b" x1="14.218" x2="54.129" y1="115.79" y2="115.79" gradientTransform="matrix(1.125 0 0 -1.125 97.754 196.347)" gradientUnits="userSpaceOnUse"><stop offset="0" stop-color="#007940"/><stop offset=".229" stop-color="#00873f"/><stop offset=".743" stop-color="#40a737"/><stop offset="1" stop-color="#5cb531"/></linearGradient><path fill="url(#b)" d="M132 11.5c-10 0-18.2 8.1-18.2 18.2v18.9h25.7c.6 0 1.3 0 1.8.1 5.8.3 10.1 3.3 10.1 8.5 0 4.1-2.9 7.6-8.3 8.3v.2c5.9.4 10.4 3.7 10.4 8.8 0 5.5-5 9.1-11.6 9.1h-28.2v37h26.7c10 0 18.2-8.1 18.2-18.2V11.5z"/><linearGradient id="c" x1="14.216" x2="54.162" y1="122.59" y2="122.59" gradientTransform="matrix(1.125 0 0 -1.125 97.754 196.347)" gradientUnits="userSpaceOnUse"><stop offset="0" stop-color="#007940"/><stop offset=".229" stop-color="#00873f"/><stop offset=".743" stop-color="#40a737"/><stop offset="1" stop-color="#5cb531"/></linearGradient><path fill="url(#c)" d="M136.9 58.4c0-2.4-1.7-4-3.7-4.3-.2 0-.7-.1-1-.1h-9.5v8.8h9.5c.3 0 .9 0 1-.1 2-.3 3.7-1.9 3.7-4.3z"/><linearGradient id="d" x1="-75.209" x2="-34.645" y1="115.834" y2="115.834" gradientTransform="matrix(1.125 0 0 -1.125 97.754 196.347)" gradientUnits="userSpaceOnUse"><stop offset="0" stop-color="#1f286f"/><stop offset=".475" stop-color="#004e94"/><stop offset=".826" stop-color="#0066b1"/><stop offset="1" stop-color="#006fbc"/></linearGradient><path fill="url(#d)" d="M31.4 11.5c-10 0-18.2 8.1-18.2 18.2v44.9c5.1 2.5 10.4 4.1 15.7 4.1 6.3 0 9.7-3.8 9.7-9V48.5h15.6v21.1c0 8.2-5.1 14.9-22.4 14.9-10.5 0-18.7-2.3-18.7-2.3v38.3h26.7c10 0 18.2-8.1 18.2-18.2V11.5z"/><linearGradient id="e" x1="-30.708" x2="8.687" y1="115.745" y2="115.745" gradientTransform="matrix(1.125 0 0 -1.125 97.754 196.347)" gradientUnits="userSpaceOnUse"><stop offset="0" stop-color="#6c2c2f"/><stop offset=".173" stop-color="#882730"/><stop offset=".573" stop-color="#be1833"/><stop offset=".859" stop-color="#dc0436"/><stop offset="1" stop-color="#e60039"/></linearGradient><path fill="url(#e)" d="M81.7 11.5c-10 0-18.2 8.1-18.2 18.2v23.8c4.6-3.9 12.6-6.4 25.5-5.8 6.9.3 14.3 2.2 14.3 2.2v7.7c-3.7-1.9-8.1-3.6-13.8-4-9.8-.7-15.7 4.1-15.7 12.5 0 8.5 5.9 13.3 15.7 12.5 5.7-.4 10.1-2.2 13.8-4v7.7S96 84.2 89 84.5c-12.9.6-20.9-1.9-25.5-5.8v42h26.7c10 0 18.2-8.1 18.2-18.2v-91z"/></svg>