<!-- SPDX-FileCopyrightText: © 2025 Schneider Electric SPDX-License-Identifier: LicenseRef-Proprietary -->
<svg xmlns="http://www.w3.org/2000/svg" viewBox="0 0 16 16"><path d="m15.771 10.89-5.455-3.78a.5.5 0 0 0-.456-.059l-7.349 2.68a.5.5 0 0 0-.14.862l3.252 2.59c.14.111.33.138.496.073l5.231-2.079a.5.5 0 0 0 .106-.872l-1.473-1.05a.5.5 0 0 0-.58.814l.725.517L6.02 12.22l-2.328-1.854L9.96 8.081l4.512 3.126-8.319 3.702L1 10.839V4.26l9-3.05V5.5a.5.5 0 0 0 1 0V.513a.5.5 0 0 0-.66-.473L.339 3.428A.5.5 0 0 0 0 3.902v7.179c0 .153.07.298.19.393l5.578 4.406a.51.51 0 0 0 .513.064l9.408-4.187a.502.502 0 0 0 .082-.868Z"/></svg>