<!-- SPDX-FileCopyrightText: undefined SPDX-License-Identifier: undefined -->
<svg xmlns="http://www.w3.org/2000/svg" viewBox="0 0 16 16"><path d="M5.257 16.001q-.064 0-.085-.002H3.805c-1.31 0-1.751-.928-1.802-1.419L2.001 1.618C2 .377 3.176.017 3.797 0h1.417c1.317 0 1.743 1.034 1.785 1.58v4.202C7 5.824 7 5.941 7.101 6h1.706c.045 0 .104-.006.131-.033.047-.048.063-.169.062-.188V1.612C9 .409 10.19.032 10.82 0h1.68a.5.5 0 1 1 0 1h-1.655c-.008.001-.845.058-.845.612V5.77c.001.081-.007.549-.349.897-.148.151-.416.332-.844.332h-1.8a.5.5 0 0 1-.122-.015A1.216 1.216 0 0 1 6 5.781V1.618c-.014-.112-.117-.619-.785-.619H3.811C3.689 1.004 3 1.06 3 1.618v12.911c.014.064.125.471.805.471h1.394c.18.012.548-.03.71-.186.042-.041.091-.106.091-.257v-4.346c.011-.589.326-1.213.992-1.213h1.836c.016-.005.448-.047.799.259.17.148.373.429.373.923v4.358c.062.139.265.461.804.461h1.393c-.013 0 .804-.055.804-.493V2.5a.5.5 0 0 1 1 0v12.007c0 1.12-1.166 1.467-1.782 1.493h-1.414c-1.128 0-1.66-.807-1.784-1.232a.5.5 0 0 1-.02-.14v-4.447c0-.115-.024-.163-.03-.17-.023.013-.119-.012-.142-.012H6.993c.044.002.011.133.008.227v4.332c0 .393-.14.733-.405.983-.441.419-1.097.46-1.338.46Z"/></svg>