<!-- SPDX-FileCopyrightText: © 2025 Schneider Electric SPDX-License-Identifier: LicenseRef-Proprietary -->
<svg xmlns="http://www.w3.org/2000/svg" viewBox="0 0 16 16"><path d="M12.128 6.674h-.154l.547-.547a.5.5 0 0 0 .093-.131 3.656 3.656 0 0 0-.212-4.929A3.654 3.654 0 0 0 7.479.851a.5.5 0 0 0-.13.09L5.572 2.65a.5.5 0 0 0 .693.721l1.683-1.619a.5.5 0 0 0 .093-.066 2.655 2.655 0 0 1 3.653.088c.996.995 1.035 2.6.088 3.653a.5.5 0 0 0-.06.083l-1.164 1.164H5.872a.5.5 0 0 0 0 1h6.28c.877 0 1.59.713 1.59 1.59v4.146c0 .877-.713 1.59-1.59 1.59H3.846c-.877 0-1.59-.713-1.59-1.59V9.264c0-.877.713-1.59 1.59-1.59a.5.5 0 0 0 0-1 2.593 2.593 0 0 0-2.59 2.59v4.146A2.593 2.593 0 0 0 3.846 16h8.309a2.593 2.593 0 0 0 2.59-2.59V9.264a2.6 2.6 0 0 0-2.616-2.59Z"/><path d="M10.165 11.337c0-1.194-.971-2.165-2.165-2.165s-2.165.971-2.165 2.165.971 2.165 2.165 2.165 2.165-.971 2.165-2.165Zm-3.33 0a1.166 1.166 0 1 1 2.331.001 1.166 1.166 0 0 1-2.331-.001Z"/></svg>