<!-- SPDX-FileCopyrightText: © 2025 Schneider Electric SPDX-License-Identifier: LicenseRef-Proprietary -->
<svg xmlns="http://www.w3.org/2000/svg" viewBox="0 0 16 16"><path d="M12.297 6H12V3.5a.5.5 0 0 0-.03-.166C11.782 1.464 10.066.02 8 .02S4.223 1.461 4.031 3.326A.5.5 0 0 0 4 3.5V6h-.324C2.211 6 1.017 7.113 1 8.486v4.998C1 14.871 2.2 16 3.676 16h8.648c1.465 0 2.659-1.113 2.676-2.486V8.516C15 7.129 13.8 6 12.297 6ZM14 13H8.637l-1.428-1.81a.5.5 0 0 0-.393-.19H5.602a1.29 1.29 0 0 0-1.099-.864.499.499 0 1 0-.092.996.28.28 0 0 1 .202.11.29.29 0 0 1-.054.406.28.28 0 0 1-.213.058.3.3 0 0 1-.192-.11.5.5 0 1 0-.792.611 1.285 1.285 0 0 0 1.809.232A1.3 1.3 0 0 0 5.534 12h1.041l1.428 1.81c.095.12.24.19.393.19h5.506c-.234.583-.852 1-1.576 1h-8.65C2.752 15 2 14.32 2 13.484V9h5.363l1.428 1.81c.095.12.24.19.393.19h1.144q.023.118.068.234c.126.317.369.569.684.707a.503.503 0 0 0 .659-.258.5.5 0 0 0-.257-.658.3.3 0 0 1-.156-.159.29.29 0 0 1 .538-.214.499.499 0 1 0 .929-.367 1.29 1.29 0 0 0-2.242-.283l-.052-.003H9.425l-1.428-1.81a.5.5 0 0 0-.393-.19H2.1c.234-.583.852-1 1.576-1H4.5a.5.5 0 0 0 .5-.5V3.634a.5.5 0 0 0 .018-.105C5.102 2.121 6.412 1.019 8 1.019s2.898 1.103 2.982 2.51a.4.4 0 0 0 .018.102v2.368H6.5a.5.5 0 0 0 0 1h5.824c.924 0 1.676.68 1.676 1.516z"/></svg>