<!-- SPDX-FileCopyrightText: © 2025 Schneider Electric SPDX-License-Identifier: LicenseRef-Proprietary -->
<svg xmlns="http://www.w3.org/2000/svg" viewBox="0 0 16 16"><path d="M15.5 16a.5.5 0 0 1-.354-.147l-4.188-4.201a.5.5 0 0 1-.082-.107.5.5 0 0 1 .016-.688 5.75 5.75 0 0 0 1.677-4.073C12.569 3.595 9.974 1 6.785 1S1 3.595 1 6.784a5.79 5.79 0 0 0 8.268 5.225.5.5 0 0 1 .43.902A6.79 6.79 0 0 1 0 6.783C0 3.042 3.043 0 6.784 0s6.784 3.043 6.784 6.784a6.73 6.73 0 0 1-1.641 4.424l3.928 3.939A.5.5 0 0 1 15.5 16ZM2.885 7.562a.5.5 0 0 1-.495-.435 4.3 4.3 0 0 1 .003-1.159 4.17 4.17 0 0 1 1.189-2.387A4.18 4.18 0 0 1 6.56 2.347a.5.5 0 0 1 0 1c-.857 0-1.664.334-2.271.941a3.17 3.17 0 0 0-.906 1.818 3.3 3.3 0 0 0-.002.89.5.5 0 0 1-.496.565Z"/></svg>