<!-- SPDX-FileCopyrightText: undefined SPDX-License-Identifier: undefined -->
<svg xmlns="http://www.w3.org/2000/svg" viewBox="0 0 16 16"><path d="M8.395 16c-3.176 0-5.122-1.529-5.479-1.836-.469-.402-.462-1.138-.189-1.59.086-.144.201-.281.325-.427.271-.317.505-.591.505-1.152 0-2.668-1.446-3.555-2.308-3.846C.42 6.868.001 6.226.001 5.237c0-1.332 2.595-1.835 2.813-1.837.093 0 .197-.011.289-.026-.085-.228-.254-.438-.398-.619-.18-.224-.335-.418-.335-.676 0-.642.398-1.29 1.289-1.29.218 0 .421.061 2.151 1.307.175-.278.472-.55 1.035-.516l.182.016c-.06-.479-.043-1.134.596-1.393.166-.068.506-.163 1.525-.202a.6.6 0 0 1 .413.167c.391.406 2.48 2.456 5.248 2.999 1.041.116 1.192.852 1.192 1.28q0 .088-.03.181c-.006.082-.017.345-.017 1.175 0 .562-.481.866-.99 1.186-.561.353-1.258.792-1.698 1.673a.5.5 0 0 1-.895-.447c.565-1.131 1.465-1.697 2.06-2.072.205-.129.486-.306.534-.39-.006-.82-.009-1.185.033-1.38-.013-.181-.081-.188-.274-.21l-.11-.016c-2.803-.55-4.958-2.479-5.627-3.139-.769.04-.967.112-.988.121-.031.079.037.458.062.6a4 4 0 0 1 .05.379.516.516 0 0 1-.494.507h-.016c-.164.022-.369.006-.644-.021l-.168-.015c-.115-.004-.135-.008-.229.286a2 2 0 0 1-.073.203.5.5 0 0 1-.663.259q-.055-.024-.323-.219C4.24 2.194 3.756 1.882 3.583 1.794c-.109.009-.187.047-.207.2q.045.06.11.138c.252.315.674.841.674 1.528 0 .707-1.111.742-1.334.742-.429.029-1.754.534-1.824.842 0 .558.154.819.565.958 1.902.642 2.991 2.389 2.991 4.794 0 .93-.43 1.434-.745 1.802-.086.101-.168.193-.228.293-.064.106-.053.279-.021.312.194.166 1.949 1.598 4.832 1.598.267 0 .943-.011 1.211-.034-.057-.312-.106-.898.193-1.318.225-.317.614-.499 1.157-.538.949-.063 1.313.182 1.673.486.268.224.459.32.81.182.861-.345 1.506-1.183 1.532-1.219-.909-.69-1.604-1.942-.843-3.465a.5.5 0 0 1 .895.447c-.592 1.183.177 1.921.534 2.184.46.362.542.998.212 1.437-.086.114-.861 1.106-1.961 1.545q-.352.14-.679.14c-.562 0-.923-.301-1.139-.48-.236-.201-.398-.297-.966-.258-.271.02-.387.087-.41.119-.061.085-.056.328-.023.445a1.022 1.022 0 0 1-.897 1.29c-.287.025-1.013.038-1.299.038ZM3.34 1.94zs0 0 0 0Z"/></svg>