<!-- SPDX-FileCopyrightText: © 1994-2024 Mastercard SPDX-License-Identifier: LicenseRef-Proprietary -->
<svg xmlns="http://www.w3.org/2000/svg" x="0" y="0" version="1.1" viewBox="0 0 116.528 116.528"><path fill="#ff5f00" d="M58.228 29.955c-8.6 6.8-13.7 17.3-13.7 28.3s5.1 21.501 13.8 28.301c15.6-12.3 18.3-34.901 6-50.601-1.8-2.2-3.8-4.3-6-6z" baseline-shift="baseline" display="inline" overflow="visible" stop-color="#000" stop-opacity="1" vector-effect="none"/><path fill="#eb001b" d="M36.657 22.253a36 36 0 0 0-1.515.004c-10.386.249-20.595 4.968-27.514 13.8-12.2 15.6-9.5 38.2 6.2 50.5 13.1 10.3 31.4 10.3 44.5 0-8.7-6.8-13.8-17.302-13.8-28.302s5.1-21.5 13.7-28.3a35.76 35.76 0 0 0-21.57-7.702Z" baseline-shift="baseline" display="inline" overflow="visible" stop-color="#000" stop-opacity="1" vector-effect="none"/><path fill="#f79e1b" d="M79.675 22.257a35.76 35.76 0 0 0-21.348 7.698c2.2 1.7 4.2 3.8 6 6 12.3 15.7 9.6 38.301-6 50.601 6.3 5 14.101 7.7 22.201 7.7 19.9 0 36-16.1 36-36 0-8.1-2.7-15.9-7.7-22.2-7.245-9.322-18.19-14.062-29.153-13.799Z" baseline-shift="baseline" display="inline" overflow="visible" stop-color="#000" stop-opacity="1" vector-effect="none"/></svg>