<!-- SPDX-FileCopyrightText: © 2025 Schneider Electric SPDX-License-Identifier: LicenseRef-Proprietary -->
<svg xmlns="http://www.w3.org/2000/svg" viewBox="0 0 16.003 16"><path d="m14.982 7.328-.229-.316s-1.537-1.9-2.203-2.689c-.47-.557-.683-.778-.806-.876-1.045-1.026-2.402-1.614-3.822-1.656-1.595-.048-3.104.574-4.26 1.75C2.516 4.707 1.856 6.28 1.806 7.972c-.054 1.812.69 3.479 2.153 4.819l.083.074s.315.314.182.516c-.043.065-.138.069-.196.069-.032 0-.052 0-.048.006-1.934-1.327-3.046-3.497-2.977-5.81.053-1.791.812-3.483 2.136-4.764C4.424 1.638 6.098.932 7.758 1.003c1.81.054 3.447.889 4.274 2.179a.499.499 0 1 0 .841-.539C11.872 1.078 9.923.067 7.788.003c-1.916-.062-3.866.73-5.345 2.161C.932 3.627.065 5.563.003 7.616c-.08 2.66 1.202 5.155 3.428 6.675.167.113.556.191.892.129a1.12 1.12 0 0 0 .734-.487c.482-.728-.005-1.493-.342-1.808l-.081-.071C3.375 10.899 2.759 9.534 2.805 8c.043-1.438.6-2.773 1.569-3.759.959-.975 2.222-1.49 3.517-1.451 1.17.035 2.291.523 3.17 1.389a.5.5 0 0 0 .071.06c.037.034.193.185.652.729.658.779 2.172 2.651 2.173 2.651l.211.292c.521.727.831 1.74.829 2.711C14.993 13.036 13.098 15 10.773 15c-2.012 0-3.748-1.485-4.129-3.531a.29.29 0 0 1 .063-.241c.07-.085.453-.122.502.124a3.64 3.64 0 0 0 3.755 2.938c1.864-.086 3.393-1.621 3.478-3.494a3.65 3.65 0 0 0-1.014-2.715 3.6 3.6 0 0 0-2.636-1.129.5.5 0 0 0 0 1c.729 0 1.408.291 1.914.82.51.533.771 1.236.738 1.979-.062 1.361-1.172 2.478-2.526 2.541a2.65 2.65 0 0 1-2.728-2.138 1.288 1.288 0 0 0-2.528.497C6.131 14.171 8.281 16 10.774 16c2.875 0 5.218-2.412 5.224-5.376.002-1.19-.368-2.392-1.018-3.296Z"/></svg>