<!-- SPDX-FileCopyrightText: © 2025 Schneider Electric SPDX-License-Identifier: LicenseRef-Proprietary -->
<svg xmlns="http://www.w3.org/2000/svg" viewBox="0 0 16 16"><path d="M5.5 3.5A.5.5 0 0 0 6 3c0-1.103.897-2 2-2s2 .897 2 2v2.5a.5.5 0 0 0 1 0V3c0-1.654-1.346-3-3-3S5 1.346 5 3a.5.5 0 0 0 .5.5Zm4.5 4a.5.5 0 0 0 .5.5H12v1.566a.5.5 0 0 0 1 0V7.5a.5.5 0 0 0-.5-.5h-2a.5.5 0 0 0-.5.5ZM5.5 8a.5.5 0 0 0-.5.5V9c0 1.654 1.346 3 3 3a.5.5 0 0 0 0-1c-1.103 0-2-.897-2-2v-.5a.5.5 0 0 0-.5-.5Zm10.354 7.146-15-15a.502.502 0 0 0-.708.708l15 15a.5.5 0 0 0 .708 0 .5.5 0 0 0 0-.707Z"/><path d="M11.5 15zl-2.984.005L8.506 14h.062a4.4 4.4 0 0 0 1.607-.301.499.499 0 1 0-.361-.931A3.4 3.4 0 0 1 8.568 13H7.435a3.44 3.44 0 0 1-3.434-3.434V7.5a.5.5 0 0 0-1 0v2.066A4.44 4.44 0 0 0 7.435 14h.071l.01 1.006-3.021.005a.5.5 0 0 0 .001 1h0L11.501 16a.5.5 0 0 0-.001-1Z"/></svg>