<!-- SPDX-FileCopyrightText: © 2025 Schneider Electric SPDX-License-Identifier: LicenseRef-Proprietary -->
<svg xmlns="http://www.w3.org/2000/svg" viewBox="0 0 16 16"><path d="M12.5 6a.5.5 0 0 0 .5-.5V2.062A2.064 2.064 0 0 0 10.938 0H5.062A2.064 2.064 0 0 0 3 2.062v11.871C3 15.073 3.927 16 5.067 16h5.865a2.07 2.07 0 0 0 2.067-2.067V7.5a.5.5 0 0 0-1 0v6.433c0 .589-.479 1.067-1.067 1.067H5.067A1.07 1.07 0 0 1 4 13.933V2.062C4 1.477 4.477 1 5.062 1h5.876C11.523 1 12 1.477 12 2.062V5.5a.5.5 0 0 0 .5.5Z"/><path d="M8.5 2h-2a.5.5 0 0 0 0 1h2a.5.5 0 0 0 0-1Zm2.2.08a.49.49 0 0 0-.65.27c-.03.06-.04.12-.04.19 0 .06.01.13.04.19.02.06.06.12.11.16.09.1.22.15.35.15.06 0 .13-.01.19-.04.06-.02.119-.06.159-.11a.34.34 0 0 0 .11-.16c.03-.06.04-.13.04-.19 0-.07-.01-.13-.04-.19a.45.45 0 0 0-.269-.27ZM8.5 13h-1a.5.5 0 0 0 0 1h1a.5.5 0 0 0 0-1Z"/></svg>