<!-- SPDX-FileCopyrightText: © 2025 Schneider Electric SPDX-License-Identifier: LicenseRef-Proprietary -->
<svg xmlns="http://www.w3.org/2000/svg" viewBox="0 0 16 16"><path d="M11.011 4.38a.5.5 0 0 0-.5-.5c-.786 0-1.402.484-1.402 1.102s.616 1.101 1.402 1.101 1.402-.484 1.402-1.101c0-.276-.22-.517-.497-.517s-.496.207-.496.483c-.021.035-.161.135-.409.135-.25 0-.393-.102-.409-.067.02-.035.16-.136.409-.136a.5.5 0 0 0 .5-.5Z"/><path d="m15.772 5.276-5.487-3.558a.5.5 0 0 0-.536-.005L7.117 3.349a.5.5 0 0 0 .528.85l2.362-1.469L15 5.967v1.821l-3 2.063V8.479l1.974-1.315a.5.5 0 0 0-.554-.832l-1.979 1.319-5.188-3.338a.49.49 0 0 0-.484-.043q0 0 0 0a.4.4 0 0 0-.066.036l-1.625 1a.5.5 0 0 0-.203.243.5.5 0 0 0 .147.671l4.597 3.119-.078.045c-.857.196-1.869-.283-1.873-.283L2.518 6.56q.198-.014.414-.039c.274-.031.472-.278.44-.553s-.281-.477-.553-.44C1.407 5.687.676 5.444.673 5.442a.5.5 0 0 0-.432.896l.895.547-.891.534a.5.5 0 0 0-.243.429v2.5c0 .18.096.345.252.435l5.833 3.333a.5.5 0 0 0 .5-.003l3.182-1.859a.5.5 0 0 0 .248-.422l.046-2.444h0v-.021h0a.5.5 0 0 0-.158-.354h0a.4.4 0 0 0-.069-.055L5.182 5.8l.786-.483 5.034 3.239v2.245a.499.499 0 0 0 .783.412l4-2.751a.5.5 0 0 0 .217-.412V5.695a.5.5 0 0 0-.228-.419ZM9.045 10.28l-.024 1.255-2.69 1.572L1 10.061V8.134l.932-.559a.5.5 0 0 0 .134-.117l4.117 2.519a5 5 0 0 0 .799.292l-.729.414-3.93-2.208a.5.5 0 1 0-.49.872l4.176 2.346a.5.5 0 0 0 .492 0l2.412-1.37q.066-.019.132-.042Z"/></svg>