<!-- SPDX-FileCopyrightText: © 2025 Schneider Electric SPDX-License-Identifier: LicenseRef-Proprietary -->
<svg xmlns="http://www.w3.org/2000/svg" viewBox="0 0 16 16"><path d="M15.683 13.197a.5.5 0 0 0-.648.282c-.286.726-.781 1.48-.987 1.521-.218-.041-.715-.795-1.004-1.522a.5.5 0 0 0-.463-.316h-.001a.5.5 0 0 0-.463.312c-.294.728-.78 1.467-.973 1.521-.219-.053-.71-.796-1.011-1.529a.5.5 0 0 0-.46-.31h-.002a.5.5 0 0 0-.461.306c-.298.71-.757 1.431-.922 1.505H7.002v-1.496a.5.5 0 0 0-.5-.5H1v-.996h8.848a.5.5 0 0 0 .491-.59l-1.541-8.39h1.701a.5.5 0 0 0 .5-.5V.5a.5.5 0 0 0-.5-.5h-6a.5.5 0 0 0-.5.5v1.996a.5.5 0 0 0 .5.5h1.358l-.199.88a.5.5 0 0 0 .09.413l.533.7h-.258a.5.5 0 0 0-.488.392l-.188.848a.5.5 0 0 0 .112.438l1.15 1.317H5.557a.5.5 0 0 0-.462.309l-.451 1.088a.499.499 0 1 0 .924.382l.323-.78h1.818a.5.5 0 0 0 .376-.829L6.377 6.198l.046-.209h.865a.5.5 0 0 0 .398-.803L6.684 3.869l.286-1.263a.5.5 0 0 0-.488-.61H4.998V1h5v.996H8.197a.5.5 0 0 0-.491.59l1.541 8.39H.5a.5.5 0 0 0-.5.5v1.996a.5.5 0 0 0 .5.5H6v1.496a.5.5 0 0 0 .5.5h1.786c.544 0 1.023-.567 1.383-1.182.358.606.864 1.208 1.461 1.208.592 0 1.092-.591 1.446-1.19.353.602.856 1.196 1.465 1.196.971 0 1.668-1.507 1.924-2.155a.5.5 0 0 0-.282-.648Z"/></svg>