<!-- SPDX-FileCopyrightText: © 2025 Schneider Electric SPDX-License-Identifier: LicenseRef-Proprietary -->
<svg xmlns="http://www.w3.org/2000/svg" viewBox="0 0 16 16"><path d="M15.587 3.91 11.852.216a.5.5 0 0 0-.851.355V4.5a.5.5 0 0 0 .5.5h2a.5.5 0 0 0 0-1h-1.5V1.769l2.904 2.871a.28.28 0 0 1 .096.211v9.86c0 .16-.13.29-.29.29H5.29a.29.29 0 0 1-.29-.29v-4.21a.5.5 0 0 0-1 0v4.21c0 .711.579 1.29 1.29 1.29h9.421c.711 0 1.29-.579 1.29-1.29v-9.86c0-.366-.158-.715-.413-.941ZM4.5 7a.5.5 0 0 0 .5-.5V1.29c0-.16.13-.29.29-.29h4.323a.5.5 0 0 0 0-1H5.29C4.579 0 4 .579 4 1.29V6.5a.5.5 0 0 0 .5.5Z"/><path d="M5.722 10.407a.5.5 0 0 0 .708.707l2.261-2.261a.5.5 0 0 0 .142-.421.5.5 0 0 0-.152-.394L6.424 5.864a.5.5 0 0 0-.693.721L7.2 8H.5a.5.5 0 0 0 0 1h6.629z"/></svg>