<!-- SPDX-FileCopyrightText: © 2025 Schneider Electric SPDX-License-Identifier: LicenseRef-Proprietary -->
<svg xmlns="http://www.w3.org/2000/svg" viewBox="0 0 16 16"><path d="M10.5 7h1a.5.5 0 0 0 0-1h-1a.5.5 0 0 0 0 1Zm-6-2h4a.5.5 0 0 0 0-1h-4a.5.5 0 0 0 0 1Zm.5 7h3.5a.5.5 0 0 0 0-1h-4a.5.5 0 0 0-.5.5v2a.5.5 0 0 0 .5.5h6a.5.5 0 0 0 .5-.5v-2a.5.5 0 0 0-1 0V13H5zm5.5-3h1a.5.5 0 0 0 0-1h-1a.5.5 0 0 0 0 1Zm-6-6h2a.5.5 0 0 0 0-1h-2a.5.5 0 0 0 0 1Zm0 6h4a.5.5 0 0 0 0-1h-4a.5.5 0 0 0 0 1Zm0-2h4a.5.5 0 0 0 0-1h-4a.5.5 0 0 0 0 1Z"/><path d="M13.618 3.925 10.902.255A.5.5 0 0 0 10 .553V4.5a.5.5 0 0 0 .5.5h1a.5.5 0 0 0 0-1H11V2.065l1.866 2.514c.06.059.134.235.134.319v9.812c0 .16-.13.29-.29.29H3.29a.29.29 0 0 1-.29-.289V1.29c0-.16.13-.29.29-.29H8.5a.5.5 0 0 0 0-1H3.29C2.579 0 2 .579 2 1.29v13.421C2 15.422 2.579 16 3.29 16h9.42c.71 0 1.289-.578 1.29-1.289V4.898c0-.352-.183-.787-.382-.974Z"/></svg>