<!-- SPDX-FileCopyrightText: © 2025 Schneider Electric SPDX-License-Identifier: LicenseRef-Proprietary -->
<svg xmlns="http://www.w3.org/2000/svg" viewBox="0 0 16 16"><path d="M12.713 0H3.287C2.577 0 2 .577 2 1.287v11.998c0 .159.075.308.203.402l3 2.215a.5.5 0 0 0 .522.044A.5.5 0 0 0 6 15.5v-3a.5.5 0 0 0-.5-.5h-1a.5.5 0 0 0 0 1H5v1.51l-2-1.477V1.287C3 1.129 3.129 1 3.287 1h9.426c.158 0 .287.129.287.287v13.426a.29.29 0 0 1-.287.287H7.5a.5.5 0 0 0 0 1h5.213c.71 0 1.287-.577 1.287-1.287V1.287C14 .577 13.423 0 12.713 0Z"/><path d="M10.5 7a.5.5 0 0 0 .5-.5v-4a.5.5 0 0 0-.5-.5h-5a.5.5 0 0 0-.5.5v4a.5.5 0 0 0 .5.5h3a.5.5 0 0 0 0-1H6V3h4v3.5a.5.5 0 0 0 .5.5Zm-5 2h5a.5.5 0 0 0 0-1h-5a.5.5 0 0 0 0 1Zm0 2h5a.5.5 0 0 0 0-1h-5a.5.5 0 0 0 0 1Z"/></svg>