<!-- SPDX-FileCopyrightText: © 2025 Schneider Electric SPDX-License-Identifier: LicenseRef-Proprietary -->
<svg xmlns="http://www.w3.org/2000/svg" viewBox="0 0 16 16"><path d="M2.522 9.396a.5.5 0 0 0 .5-.5V1.29c0-.157.168-.29.367-.29h3.533a.5.5 0 0 0 0-1H3.389c-.753 0-1.367.579-1.367 1.29v7.607a.5.5 0 0 0 .5.5ZM8.886 5h1.896a.5.5 0 0 0 0-1H9.386V1.661l3.494 3.005a.26.26 0 0 1 .098.201v4.109a.5.5 0 0 0 1 0V4.867c0-.389-.175-.749-.463-.974L9.212.192a.5.5 0 0 0-.826.379V4.5a.5.5 0 0 0 .5.5Zm-6.951 5.938H.577q-.231 0-.354.122t-.123.354v3.983q0 .23.123.354.122.122.354.122h1.358q.623 0 1.103-.164.479-.165.812-.479c.333-.314.39-.468.504-.774q.172-.457.172-1.053 0-1.19-.676-1.827-.675-.637-1.914-.637Zm1.546 3.222q-.105.326-.318.539t-.532.322a2.4 2.4 0 0 1-.752.108H.997v-3.451h.882q.854 0 1.28.428.428.426.428 1.295 0 .434-.105.759Zm8.169-3.125q-.105-.154-.329-.154a.42.42 0 0 0-.287.091.63.63 0 0 0-.168.273l-1.159 3.38-1.151-3.367a.74.74 0 0 0-.168-.287.37.37 0 0 0-.267-.091.4.4 0 0 0-.272.091.7.7 0 0 0-.176.28l-1.172 3.325-1.124-3.332a.6.6 0 0 0-.168-.276.44.44 0 0 0-.294-.088q-.26 0-.367.154c-.107.154-.083.229-.031.378l1.463 4.137q.07.197.186.287c.116.09.179.091.305.091s.225-.03.297-.091.132-.154.179-.28l1.151-3.25 1.138 3.243a.63.63 0 0 0 .182.287q.113.091.302.091c.189 0 .226-.03.301-.091a.65.65 0 0 0 .182-.28l1.478-4.144q.077-.223-.028-.378Zm4.197 2.265q-.095-.095-.27-.095h-1.155a.4.4 0 0 0-.27.084q-.093.084-.094.245 0 .155.094.245.095.091.27.091h.771v1.14c-.127.039-.254.081-.385.106a3 3 0 0 1-.567.056q-.812 0-1.226-.448-.412-.447-.412-1.309 0-.566.178-.959.179-.393.536-.599.356-.206.875-.206.336 0 .608.069.274.07.539.225.14.076.256.056c.116-.02.141-.049.192-.104a.45.45 0 0 0 .105-.2.4.4 0 0 0-.011-.228.37.37 0 0 0-.157-.188 2.4 2.4 0 0 0-.746-.318 3.4 3.4 0 0 0-.787-.095q-.596 0-1.064.179c-.468.179-.577.289-.794.511q-.327.333-.497.802c-.17.469-.172.665-.172 1.057q0 .777.294 1.344c.294.567.481.67.857.875q.564.309 1.383.309.385 0 .784-.074.398-.073.707-.186a.35.35 0 0 0 .192-.153.5.5 0 0 0 .06-.259v-1.701q0-.176-.095-.27Z"/></svg>