<!-- SPDX-FileCopyrightText: © 2025 Schneider Electric SPDX-License-Identifier: LicenseRef-Proprietary -->
<svg xmlns="http://www.w3.org/2000/svg" viewBox="0 0 16 16"><path d="M6.401 15H2.278A.28.28 0 0 1 2 14.722V1.278C2 1.125 2.125 1 2.278 1H7.5a.5.5 0 0 0 0-1H2.278A1.28 1.28 0 0 0 1 1.278v13.443a1.28 1.28 0 0 0 1.278 1.278h4.123a.5.5 0 0 0 0-1ZM9.5 5h2a.5.5 0 0 0 0-1H10V1.487l3 2.203V6.5a.5.5 0 0 0 1 0V3.438a.5.5 0 0 0-.204-.403l-4-2.938A.498.498 0 0 0 9.001.5v4a.5.5 0 0 0 .5.5Z"/><path d="M14.5 11H11V7.5a.5.5 0 0 0-1 0V11H6.5a.5.5 0 0 0 0 1H10v3.5a.5.5 0 0 0 1 0V12h3.5a.5.5 0 0 0 0-1Z"/></svg>