<!-- SPDX-FileCopyrightText: © 2025 Schneider Electric SPDX-License-Identifier: LicenseRef-Proprietary -->
<svg xmlns="http://www.w3.org/2000/svg" viewBox="0 0 16 16"><path d="M11 8.544c.739 0 1.34-.601 1.34-1.339s-.601-1.34-1.34-1.34-1.34.601-1.34 1.34.601 1.339 1.34 1.339Zm0-1.679a.34.34 0 1 1 .001.679.34.34 0 0 1-.001-.679ZM4 6.5V5.288c.888-.01 1.702-.095 2.16-.649.277-.335.366-.779.263-1.32-.257-1.345-2.012-1.402-3.01-1.224a.5.5 0 0 0-.412.492V6.5a.5.5 0 0 0 1 0Zm0-3.464c.545-.031 1.353.014 1.44.471q.067.352-.051.495c-.204.247-.894.282-1.389.287z"/><path d="M9.029 4.515A4.52 4.52 0 0 0 2.103.697a.5.5 0 1 0 .535.845 3.52 3.52 0 0 1 5.391 2.973c0 1.938-1.577 3.515-3.515 3.515S.999 6.453.999 4.515c0-.655.181-1.293.524-1.847a.5.5 0 1 0-.85-.526A4.5 4.5 0 0 0 0 4.516a4.52 4.52 0 0 0 4 4.485v6H2.5a.5.5 0 0 0 0 1h4a.5.5 0 0 0 0-1H5V9.004a4.52 4.52 0 0 0 4.029-4.488Zm6.766 7.947a2.5 2.5 0 0 0-.885-1.091 2.7 2.7 0 0 0-.736-.354l.232-.844a.5.5 0 0 0-.357-.617l-2.326-.604a.503.503 0 0 0-.615.592l.313 1.429H9.654a.502.502 0 0 0-.491.592l.438 2.361h-.148a.5.5 0 0 0 0 1h.75a.502.502 0 0 0 .491-.592l-.438-2.361h1.786a.5.5 0 0 0 .489-.608l-.271-1.24 1.047.271-.245.89a.5.5 0 0 0 .482.633c.245 0 .552.106.801.276a1.5 1.5 0 0 1 .528.656c.115.271.152.572.108.869a1.57 1.57 0 0 1-.355.786 1.4 1.4 0 0 1-.684.442 1.3 1.3 0 0 1-.788-.021 1.43 1.43 0 0 1-.663-.482 1.6 1.6 0 0 1-.297-.678.504.504 0 0 0-.581-.403.5.5 0 0 0-.403.581c.072.403.241.787.488 1.109.294.382.685.665 1.132.819a2.35 2.35 0 0 0 1.385.037c.454-.128.859-.39 1.172-.756a2.61 2.61 0 0 0 .407-2.694Z"/></svg>