<!-- SPDX-FileCopyrightText: © 2025 Schneider Electric SPDX-License-Identifier: LicenseRef-Proprietary -->
<svg xmlns="http://www.w3.org/2000/svg" viewBox="0 0 16 16"><path d="M15.851 3.2c-.214-.613-.646-1.264-1.217-1.834C13.327.058 11.786-.373 11.052.36L9.397 2.015l-.008.008-.006.005L.9 10.513a.5.5 0 0 0-.14.273L.006 15.42a.5.5 0 0 0 .574.573l4.634-.754a.5.5 0 1 0-.16-.986l-3.949.642.616-3.789 8.378-8.378c.206-.201 1.184.027 2.165 1.008.356.355.646.746.84 1.129a.5.5 0 0 0 .893-.45 5.5 5.5 0 0 0-1.025-1.387c-.627-.627-1.309-1.053-1.928-1.245l.716-.716c.206-.205 1.184.021 2.168 1.005.46.459.817.991.98 1.458.132.376.107.628.025.71l-8.712 8.714-.072.073c-.175.204-.143.495.054.678a.52.52 0 0 0 .708-.028l8.729-8.729c.394-.393.468-1.014.211-1.748Z"/></svg>