<!-- SPDX-FileCopyrightText: © 2025 Schneider Electric SPDX-License-Identifier: LicenseRef-Proprietary -->
<svg xmlns="http://www.w3.org/2000/svg" viewBox="0 0 16 16"><path d="M15.5 14.999h-1.499v-1.998h.332a.5.5 0 0 0 .465-.688l-.85-2.111c.365-.274.886-.812.886-1.65 0-.276-.009-.731-.019-1.215a86 86 0 0 1-.022-1.515c0-.959-.419-1.705-1.148-2.093a2 2 0 0 0 .127-.208c.493-.976.111-2.75-.97-3.296a2.08 2.08 0 0 0-1.597-.12A2.08 2.08 0 0 0 9.99 1.149c-.435.86-.598 1.989.133 2.721-.521.179-1.151.662-1.201 1.944-.028.707-.08 2.023-.023 2.66-.009.935.423 1.485.841 1.765l-.663 2.111a.503.503 0 0 0 .478.652h.446V15H6.457l.117-4.452c.453-.245 1.226-.801 1.226-1.737 0-.282-.044-.804-.092-1.359-.05-.581-.107-1.24-.107-1.618 0-1.05-.521-1.754-1.408-1.928-.041-.07-.059-.103-.074-.095a2.45 2.45 0 0 0 .507-2.069C6.49 1.054 6.098.488 5.58.225c-1.044-.527-2.407-.102-2.918.908-.387.766-.476 1.897.258 2.74.004.019-.007.154-.185.202-1.045.285-1.416 1.268-1.416 2.023 0 .302-.031.695-.061 1.095-.044.579-.089 1.177-.057 1.54-.01 1.062.653 1.625 1.209 1.864l.125 4.392-2.036.012a.5.5 0 0 0-.498.504c.001.276.219.468.504.498l2.546-.015q.008.002.017 0h0a.5.5 0 0 0 .144-.026q0 0 0 0h.001q0 0 0 0h0a.5.5 0 0 0 .199-.128q0 0 0 0h0v-.001l.001-.001h0a.5.5 0 0 0 .101-.163h0v-.001h0v-.001h0v-.002a.5.5 0 0 0 .03-.187l-.149-5.259a.51.51 0 0 0-.408-.478.984.984 0 0 1-.793-1.04c-.028-.33.015-.887.056-1.426a17 17 0 0 0 .064-1.171c0-.146.033-.88.678-1.056.485-.132.833-.508.91-.98.059-.362-.06-.703-.313-.913-.394-.517-.201-1.244-.039-1.564.265-.526 1.013-.748 1.571-.466.239.121.441.441.516.817a1.46 1.46 0 0 1-.307 1.247c-.053.062-.501.63.173 1.495a.5.5 0 0 0 .346.191h.01c.342.028.733.164.733.963 0 .421.056 1.073.11 1.704.045.52.088 1.009.088 1.273 0 .589-.885.944-.892.947a.5.5 0 0 0-.326.456l-.139 5.259v.028a.5.5 0 0 0 .501.501h4.56a.5.5 0 0 0 .501-.501v-3a.5.5 0 0 0-.501-.501h-.264l.552-1.758a.5.5 0 0 0 .022-.123l.01-.038a.5.5 0 0 0-.375-.601c-.006 0-.554-.138-.548-1.043-.052-.623 0-1.947.024-2.584.034-.866.392-.989.527-1.036.5-.172.783-.434.84-.778.056-.337-.137-.622-.334-.775-.637-.458-.171-1.466-.071-1.664a1.09 1.09 0 0 1 1.466-.482c.235.119.449.444.56.851.112.408.099.84-.032 1.099a1.5 1.5 0 0 1-.333.38.5.5 0 0 0-.118.621.5.5 0 0 0 .385.413c.81.182.98.829.98 1.339 0 .402.012.987.023 1.535.009.476.019.924.019 1.195 0 .621-.628.946-.667.966a.5.5 0 0 0-.278.518.5.5 0 0 0 .027.283l.676 1.68h-.092a.5.5 0 0 0-.501.501v3.001h0v.002c0 .155.072.293.183.384q0 0 0 0h0v.001h0s0 0 0 0q0 0 0 0t0 0h.001s0 0 0 0q0 0 0 0t0 0h0s0 0 0 0q0 0 0 0h0a.5.5 0 0 0 .297.105h2.01a.5.5 0 1 0 0-1.002Z"/></svg>