<!-- SPDX-FileCopyrightText: © 2025 Schneider Electric SPDX-License-Identifier: LicenseRef-Proprietary -->
<svg xmlns="http://www.w3.org/2000/svg" viewBox="0 0 15.996 15.996"><path d="M15.867 8.147a.5.5 0 0 0-.353-.146H7.498A.5.5 0 0 0 7 8.499v2.502H.996v-.822A4.38 4.38 0 0 1 4.362 5.91a.498.498 0 0 0 .112-.926c-.642-.333-1.09-1.118-1.09-1.909 0-1.137.944-2.135 2.021-2.135s2.021.998 2.021 2.135c0 .791-.448 1.576-1.09 1.909a.497.497 0 0 0 .112.926 4.4 4.4 0 0 1 2.263 1.361.498.498 0 0 0 .744-.662 5.4 5.4 0 0 0-1.866-1.362 3.3 3.3 0 0 0 .833-2.172c0-1.698-1.382-3.132-3.017-3.132S2.388 1.377 2.388 3.074c0 .809.315 1.597.833 2.172A5.37 5.37 0 0 0 0 10.178v1.32c0 .275.223.498.498.498H7v1.502c0 .275.223.498.498.498H10V15H8.498a.498.498 0 0 0 0 .996h2a.5.5 0 0 0 .498-.498v-2a.5.5 0 0 0-.498-.498H7.996V8.996h7.019L15.002 13h-2.504a.5.5 0 0 0-.498.498v2c0 .275.223.498.498.498h2a.498.498 0 0 0 0-.996h-1.502v-1.004h2.502a.5.5 0 0 0 .498-.496l.017-5a.5.5 0 0 0-.146-.354Z"/></svg>