<!-- SPDX-FileCopyrightText: © 2025 Schneider Electric SPDX-License-Identifier: LicenseRef-Proprietary -->
<svg xmlns="http://www.w3.org/2000/svg" viewBox="0 0 16 16"><path d="M9.521 7.672a.5.5 0 0 0 .833-.553L9.36 5.624a.5.5 0 0 0-.505-.215l-3.097.557c.084-.577.263-1.017.381-1.044a.5.5 0 1 0-.228-.974c-.898.211-1.125 1.5-1.181 2.203l-1.282.23a.5.5 0 0 0-.41.537l.723 8.083H.5A.499.499 0 1 0 .5 16h3.808a.5.5 0 0 0 .498-.545l-.731-8.171 4.634-.833.812 1.222Z"/><path d="M15.5 15h-5.435l.709-4.887a1.53 1.53 0 0 0 1.124-.666c.795-1.116.54-3.296-.152-4.676-.343-.683-.781-1.179-1.279-1.46.156-.222.263-.464.314-.716A2.165 2.165 0 0 0 7.469.358a2.15 2.15 0 0 0-.926 1.372 2.15 2.15 0 0 0 .623 1.994.5.5 0 1 0 .692-.722 1.16 1.16 0 0 1-.335-1.072c.062-.304.239-.566.498-.737a1.164 1.164 0 0 1 1.781 1.202c-.054.262-.257.526-.511.697a.5.5 0 0 0 .202.952c.678.015 1.143.743 1.36 1.175.612 1.22.722 2.958.231 3.648-.145.204-.323.278-.579.246a.5.5 0 0 0-.236.025.5.5 0 0 0-.424.423l-.852 5.867a.5.5 0 0 0 .495.572h6.013a.5.5 0 0 0 0-1Z"/></svg>