<!-- SPDX-FileCopyrightText: © 2025 Schneider Electric SPDX-License-Identifier: LicenseRef-Proprietary -->
<svg xmlns="http://www.w3.org/2000/svg" viewBox="0 0 16 16"><path d="M15.5 14H13v-3h2.5a.5.5 0 0 0 0-1H13v-.615a.5.5 0 0 0-.5-.5h-2.151c-.897 0-1.613.262-2.128.778-.437.438-.626.967-.708 1.346H1v-.729a4.4 4.4 0 0 1 3.362-4.289.5.5 0 0 0 .113-.929c-.641-.334-1.088-1.123-1.088-1.917C3.387 2.002 4.329 1 5.404 1S7.42 2.002 7.42 3.145c0 .795-.448 1.583-1.088 1.917a.498.498 0 0 0 .113.929 4.4 4.4 0 0 1 2.477 1.635.5.5 0 1 0 .799-.601 5.44 5.44 0 0 0-2.134-1.697c.519-.578.834-1.37.834-2.183C8.421 1.44 7.04 0 5.405 0S2.388 1.44 2.388 3.145c0 .812.315 1.604.833 2.182a5.4 5.4 0 0 0-3.219 4.954v1.229a.5.5 0 0 0 .5.5h7.451c.133 0 .26-.053.354-.146a.5.5 0 0 0 .146-.354c0-.007.012-.672.477-1.139.321-.321.798-.484 1.42-.484h1.651v5.111l-1.946-.003c-1.395 0-1.497-1.303-1.504-1.453-.01-.274-.232-.468-.517-.48a.5.5 0 0 0-.482.518c.028.835.588 2.416 2.503 2.416l2.442.007h.004a.5.5 0 0 0 .5-.5v-.5h2.5a.5.5 0 0 0 0-1Z"/></svg>