<!-- SPDX-FileCopyrightText: © 2025 Schneider Electric SPDX-License-Identifier: LicenseRef-Proprietary -->
<svg xmlns="http://www.w3.org/2000/svg" viewBox="0 0 16 16"><path d="M16 3.62V2.5a.5.5 0 0 0-.5-.5H15V.5a.5.5 0 0 0-1 0V2h-1.037L12.927.488c-.007-.276-.201-.511-.512-.488a.5.5 0 0 0-.488.512L11.963 2H11.5a.5.5 0 0 0-.5.5V4H9.5a.5.5 0 0 0-.5.5v3a.5.5 0 0 0 .5.5h.5v5H9v-2.5a.5.5 0 0 0-.5-.5h-.499l.024-7.499a.5.5 0 0 0-.5-.501H5.5a.5.5 0 0 0-.5.5v7.495l-1-.009V5.5a.5.5 0 0 0-.5-.5h-2a.5.5 0 0 0-.5.5V10H.5a.5.5 0 0 0-.5.5v5a.5.5 0 0 0 .5.5h12a.5.5 0 0 0 .5-.5v-1.467c0-.222-.148-.331-.361-.393a.5.5 0 0 0 .361-.48v-2.156c0-.184-.104-.208-.266-.295a.5.5 0 0 0 .266-.442V8.356a.5.5 0 0 0-.148-.355.5.5 0 0 0 .148-.355V6.501a.5.5 0 0 0-1 0v.909a.88.88 0 0 0-.229.528.88.88 0 0 0 .229.657v1.44a.9.9 0 0 0-.228.509.9.9 0 0 0 .228.693v1.634a.95.95 0 0 0-.343.667.95.95 0 0 0 .343.783v.68H1v-4h.5a.5.5 0 0 0 .5-.5v-4.5h1v4.481a.5.5 0 0 0 .495.5l2 .019c.174.001.262-.051.357-.145S6 10.634 6 10.501V3h1.024L7 10.499a.5.5 0 0 0 .5.501H8v2.5a.5.5 0 0 0 .5.5h2a.5.5 0 0 0 .5-.5v-6a.5.5 0 0 0-.5-.5H10V5h1.5a.5.5 0 0 0 .5-.5V3h3v.391c-.142.143-.293.358-.283.637.008.266.151.476.283.62v1.676c-.18.152-.302.407-.283.792.008.164.028.563.283.801v1.575a1 1 0 0 0-.105.098c-.216.247-.186.555-.175.656.023.245.154.444.281.595v1.685c-.158.15-.283.405-.283.84 0 .327.151.583.283.745v1.39a.5.5 0 0 0 1 0V13.91a.52.52 0 0 0-.186-.389c-.041-.035-.098-.11-.098-.155q0-.058.003-.094a.5.5 0 0 0 .28-.449v-2.172a.6.6 0 0 0-.161-.37l-.04-.044A.5.5 0 0 0 16 9.836V7.603a.5.5 0 0 0-.276-.447l-.003-.07A.5.5 0 0 0 16 6.637V4.434a.5.5 0 0 0-.17-.375l-.038-.033.007-.005a.5.5 0 0 0 .2-.4Z"/></svg>