<!-- SPDX-FileCopyrightText: © 2025 Schneider Electric SPDX-License-Identifier: LicenseRef-Proprietary -->
<svg xmlns="http://www.w3.org/2000/svg" viewBox="0 0 16 16"><path d="M9.307 11.752c-2.51-.243-4.163 1.931-4.217 2.003-.01.013-1.02 1.193-2.1 1.22-.43-.002-.834-.177-1.204-.574-.563-.604-.819-1.201-.762-1.772.09-.902.93-1.514.937-1.519a.5.5 0 0 0 .198-.53l-.224-.896c.1-.407.541-1.96 1.752-3.611a.5.5 0 1 0-.806-.592C1.346 7.571.946 9.509.93 9.591a.5.5 0 0 0 .005.219l.177.708c-.367.338-.981 1.037-1.082 2-.091.873.254 1.736 1.025 2.564.552.593 1.19.893 1.898.893h.066c1.533-.04 2.784-1.513 2.852-1.594.014-.019 1.434-1.805 3.336-1.633a.493.493 0 0 0 .548-.447.5.5 0 0 0-.448-.548ZM6.211 3.599C9.963.877 12.552.968 13.06 1.018l1.854 1.311a4.13 4.13 0 0 1-1.211 1.841 3.16 3.16 0 0 1-2.222.799l-.671-1.625a.5.5 0 0 0-.521-.306c-.08.01-1.98.25-3.546 1.388a.5.5 0 1 0 .588.808c.971-.705 2.129-1.018 2.709-1.138l.63 1.526a.5.5 0 0 0 .359.298c.025.005.241.048.577.048.645 0 1.731-.158 2.753-1.045 1.354-1.175 1.608-2.662 1.618-2.725a.5.5 0 0 0-.204-.488L13.537.131a.5.5 0 0 0-.191-.082C13.22.023 10.198-.529 5.624 2.79a.5.5 0 1 0 .587.809Z"/><path d="M2.845 12.058a.501.501 0 0 0 .013 1h.014c.745-.02 1.82-.223 2.711-1.08 1.413-1.358 1.591-2.289 1.573-2.724-.012-.28-.11-.509-.278-.644a.5.5 0 0 0-.143-.081 45 45 0 0 1-1.159-.872l.072-.173a.5.5 0 0 0-.918-.396c-.156.36-.227.6-.227.6a.5.5 0 0 0 .173.537c.733.57 1.185.921 1.482 1.118-.011.255-.242.926-1.27 1.914-.66.635-1.476.786-2.044.801Zm13.009 3.088-15-15a.502.502 0 0 0-.708.708l15 15a.5.5 0 0 0 .708 0 .5.5 0 0 0 0-.707Z"/></svg>