<!-- SPDX-FileCopyrightText: © 2025 Schneider Electric SPDX-License-Identifier: LicenseRef-Proprietary -->
<svg xmlns="http://www.w3.org/2000/svg" viewBox="0 0 16 16"><path d="M15.483 12.993h-2.114v-1.979h2.114a.5.5 0 0 0 0-1h-2.114v-1.46a.5.5 0 0 0-.5-.5l-2.569.005c-.732.1-1.389.416-1.898.915-.774.758-.842 1.521-.872 1.857-.014.13-.03.443-.042.718h-.959c-1.099 0-2.917-.706-4.267-2.057C.635 7.864.532 4.738 2.043 2.801a4.66 4.66 0 0 1 3.197-1.78c1.066-.109 2.054.191 2.795.833 1.637 1.414 1.006 3.552.223 4.568-.435.563-.967.857-1.262.938.238-1.152.881-4.088.881-4.089L6.9 3.057s-.234 1.069-.473 2.172l-.006.026a3 3 0 0 1-.242.697c-.258.533-.642.959-1.08 1.2-.221.122-.651.298-1.046.105-.656-.318-.79-1.453-.292-2.479.254-.526.648-.963 1.08-1.201.221-.122.651-.298 1.114-.068a.5.5 0 1 0 .528-.85 2 2 0 0 0-.159-.087c-.592-.288-1.291-.242-1.965.129-.618.34-1.15.923-1.498 1.641-.758 1.566-.426 3.242.756 3.816.594.285 1.292.241 1.965-.129q.207-.114.398-.263a.78.78 0 0 0 .439.529c.674.308 1.855-.26 2.63-1.265 1.261-1.636 1.563-4.272-.362-5.935C7.736.274 6.477-.102 5.141.025a5.67 5.67 0 0 0-3.888 2.16c-1.832 2.349-1.695 6.018.3 8.013 1.577 1.577 3.614 2.315 4.885 2.349h1.528a.5.5 0 0 0 .5-.48c0-.002.032-.892.064-1.197.02-.222.061-.683.571-1.182.448-.439.972-.59 1.266-.635h2.002v6.018l-1.926-.014c-.434 0-.82-.192-1.251-.622-.235-.234-.359-.584-.421-.836a.5.5 0 0 0-.971.24c.093.376.288.906.686 1.304.617.615 1.257.914 1.955.914l2.425.018h.004a.5.5 0 0 0 .5-.5v-1.582h2.114a.5.5 0 0 0 0-1Z"/></svg>