<!-- SPDX-FileCopyrightText: © 2025 Schneider Electric SPDX-License-Identifier: LicenseRef-Proprietary -->
<svg xmlns="http://www.w3.org/2000/svg" viewBox="0 0 16 16"><path d="M15.996 6.327a6.7 6.7 0 0 0-.726-2.812 6 6 0 0 0-.393-.668 7 7 0 0 0-.467-.615A6.4 6.4 0 0 0 11.271.228 6.3 6.3 0 0 0 9.819.004a6.2 6.2 0 0 0-2.136.305A6 6 0 0 0 6.4.908q-.298.186-.574.405a6 6 0 0 0-.517.465 5.8 5.8 0 0 0-1.162 1.69 5.7 5.7 0 0 0-.49 1.94q-.024.33-.007.659a5.4 5.4 0 0 0 .215 1.283 5.5 5.5 0 0 0 .851 1.709q.188.253.404.479a5.3 5.3 0 0 0 .951.791 5.14 5.14 0 0 0 2.261.8 5 5 0 0 0 1.173-.02 4.8 4.8 0 0 0 1.633-.525 5 5 0 0 0 .919-.64 4.6 4.6 0 0 0 1.238-1.775q.095-.248.163-.509.064-.255.099-.515a4.33 4.33 0 0 0-.404-2.49 4.2 4.2 0 0 0-.537-.821 4 4 0 0 0-1.098-.918 3.9 3.9 0 0 0-1.306-.462 3.75 3.75 0 0 0-1.759.134A3.54 3.54 0 0 0 6.52 4.114a3.3 3.3 0 0 0-.465 1.483 3.2 3.2 0 0 0 .043.753 3.1 3.1 0 0 0 .377 1.017q.09.151.197.292a2.9 2.9 0 0 0 1.048.847q.15.07.306.12.155.052.311.082a2.5 2.5 0 0 0 1.76-.283q.245-.143.452-.342.196-.19.34-.421a2.07 2.07 0 0 0 .294-1.45 2 2 0 0 0-.134-.436 1.8 1.8 0 0 0-.227-.377 1.7 1.7 0 0 0-.642-.499 1.5 1.5 0 0 0-.727-.115 1.2 1.2 0 0 0-.324.075 1.2 1.2 0 0 0-.282.148 1.1 1.1 0 0 0-.306.32l-.044.078c-.124.247-.008.534.239.658.246.122.562.01.686-.237l.133-.047a1 1 0 0 1 .107.003.53.53 0 0 1 .254.114.77.77 0 0 1 .257.382q.017.056.026.107a1.04 1.04 0 0 1-.037.491 1.2 1.2 0 0 1-.307.486 1.4 1.4 0 0 1-.41.271 1.52 1.52 0 0 1-1.107.039 1.8 1.8 0 0 1-.553-.301 1.9 1.9 0 0 1-.446-.517 2.13 2.13 0 0 1-.185-1.723 2.3 2.3 0 0 1 .39-.743q.09-.115.192-.219.21-.213.47-.374a2.6 2.6 0 0 1 1.19-.386 2.88 2.88 0 0 1 1.931.566q.293.215.528.496a3.1 3.1 0 0 1 .556.976q.066.183.109.374a3.3 3.3 0 0 1 .051 1.189q-.027.203-.077.401a3.6 3.6 0 0 1-1.822 2.286 3.84 3.84 0 0 1-1.761.452q-.24.001-.472-.02a4.2 4.2 0 0 1-.937-.211 4.2 4.2 0 0 1-1.976-1.465 4 4 0 0 1-.283-.43 4.5 4.5 0 0 1-.511-3.095 4.7 4.7 0 0 1 .918-2.024 5 5 0 0 1 .807-.817 4.8 4.8 0 0 1 .995-.616 5 5 0 0 1 .552-.22 5.3 5.3 0 0 1 1.179-.24 5.2 5.2 0 0 1 1.829.174 5.4 5.4 0 0 1 1.16.476 5.4 5.4 0 0 1 1.486 1.215 5.5 5.5 0 0 1 .729 1.088q.15.295.267.605a5.7 5.7 0 0 1 .349 1.786q.006.138.004.283 0 .381-.037.76a7 7 0 0 1-.11.708 6 6 0 0 1-.417 1.26q-.133.286-.303.558a5.3 5.3 0 0 1-.777.979q-.225.224-.477.424a6.3 6.3 0 0 1-1.119.715q-.315.16-.644.289a9 9 0 0 1-1.438.43q-.392.085-.789.139c-.544.074-1.118.111-1.707.111H5.486a.5.5 0 0 0-.5.5v1.482H2.988v-2.997h1.998a.546.546 0 0 0 .523.474c.267-.014.477-.208.477-.475a1 1 0 0 0-1-.999H2.487a.5.5 0 0 0-.5.5v.497H.5c-.276.007-.5.231-.5.507s.224.5.5.5h1.482v1.008H.5a.5.5 0 1 0 0 1h1.482v.492a.5.5 0 0 0 .5.5h2.499c.551 0 1-.448 1-1v-.982h1.203c.634 0 1.253-.041 1.842-.121q.435-.06.864-.15.414-.09.821-.21a9.4 9.4 0 0 0 1.501-.596 8 8 0 0 0 .675-.385 7 7 0 0 0 1.175-.937 6.2 6.2 0 0 0 .922-1.16q.2-.319.359-.662a6.7 6.7 0 0 0 .489-1.475q.086-.404.126-.813c.029-.286.043-.575.043-.858q.001-.164-.004-.324Z"/></svg>