<!-- SPDX-FileCopyrightText: © 2025 Schneider Electric SPDX-License-Identifier: LicenseRef-Proprietary -->
<svg xmlns="http://www.w3.org/2000/svg" viewBox="0 0 16 16"><path d="M14.5 9h-6V6.947h2a.5.5 0 0 0 0-1H4V3h8v3.447a.5.5 0 0 0 1 0V2.5a.5.5 0 0 0-.5-.5H8.482a.5.5 0 0 0 .018-.131V.5a.5.5 0 0 0-1 0v1.369q0 .068.018.131H3.5a.5.5 0 0 0-.5.5v3.947a.5.5 0 0 0 .5.5h4V9h-6a.5.5 0 0 0-.5.5v3.947a.5.5 0 0 0 .5.5h6.035a.5.5 0 0 0-.035.184V15.5a.5.5 0 0 0 1 0v-1.369a.5.5 0 0 0-.035-.184H12.5a.5.5 0 0 0 0-1H2V10h12v3.447a.5.5 0 0 0 1 0V9.5a.5.5 0 0 0-.5-.5Z"/></svg>