<!-- SPDX-FileCopyrightText: © 2025 Schneider Electric SPDX-License-Identifier: LicenseRef-Proprietary -->
<svg xmlns="http://www.w3.org/2000/svg" viewBox="0 0 16 16"><path d="M15.5 4.152a.5.5 0 0 0-.5.5V13H1V3.152h14.5a.5.5 0 0 0 0-1H.5a.5.5 0 0 0-.5.5V13.5a.5.5 0 0 0 .5.5h15a.5.5 0 0 0 .5-.5V4.652a.5.5 0 0 0-.5-.5Z"/><path d="M11.265 5.894q.475 0 .8.223.324.223.564.674.144.273.262.384t.353.112q.21 0 .36-.161a.53.53 0 0 0 .149-.372q0-.384-.306-.816t-.88-.725a2.84 2.84 0 0 0-1.31-.293q-.603 0-1.137.215a2.7 2.7 0 0 0-.93.626q-.397.411-.61.99c-.213.579-.213.822-.213 1.31q0 .45.085.851t.254.754q.17.354.409.638a2.4 2.4 0 0 0 .589.506q.32.193.713.283c.393.09.552.091.872.091q.633 0 1.108-.203a2.3 2.3 0 0 0 1.229-1.188q.143-.336.143-.626a.5.5 0 0 0-.157-.38.52.52 0 0 0-.376-.153q-.256 0-.372.151a1.3 1.3 0 0 0-.194.391q-.186.509-.552.771-.366.263-.895.263-.488 0-.851-.231-.364-.231-.562-.701t-.198-1.176q0-1.058.448-1.633.449-.574 1.205-.574Zm-6.137-.103q.475 0 .8.223.324.223.564.674.144.273.262.384.117.111.353.112.21 0 .36-.161a.53.53 0 0 0 .149-.372q0-.384-.306-.816c-.306-.432-.497-.53-.88-.725a2.84 2.84 0 0 0-1.31-.293q-.603 0-1.137.215a2.7 2.7 0 0 0-.93.626 2.8 2.8 0 0 0-.61.99 3.8 3.8 0 0 0-.213 1.31q0 .45.085.851.084.401.254.754.17.354.409.638a2.4 2.4 0 0 0 .589.506q.32.192.713.283t.872.091q.633 0 1.108-.203A2.3 2.3 0 0 0 7.489 9.69q.143-.336.143-.626a.5.5 0 0 0-.157-.38.52.52 0 0 0-.376-.153q-.256 0-.372.151a1.3 1.3 0 0 0-.194.391q-.186.509-.552.771c-.366.262-.542.262-.895.262q-.488 0-.851-.231-.364-.231-.562-.701t-.198-1.176q0-1.058.448-1.632.449-.574 1.205-.574Z"/></svg>