<!-- SPDX-FileCopyrightText: © 2025 Schneider Electric SPDX-License-Identifier: LicenseRef-Proprietary -->
<svg xmlns="http://www.w3.org/2000/svg" viewBox="0 0 16 16"><path d="M11.552 10.264a.5.5 0 0 0 .683.183l.324-.188a.499.499 0 1 0-.501-.865l-.324.188a.5.5 0 0 0-.182.683Z"/><path d="m14.736 2.151-1.501-.803a.5.5 0 0 0-.5.016l-1 .621L9.297.108A.5.5 0 0 0 8.74.073L1.238 4.455a.5.5 0 0 0-.248.433L1 9.841c0 .155.072.301.195.395L4 12.396V13.5a.5.5 0 0 0 1 0v-1.351a.5.5 0 0 0-.195-.396l-2.806-2.16-.009-4.42 6.965-4.067 2.446 1.882a.5.5 0 0 0 .568.028l1.048-.651.983.526v7.455l-7.003 4.26-.024-7.062L11 5.332v2.542l-1 .779v-.154a.5.5 0 0 0-1 0v1.177a.5.5 0 0 0 .807.394l2-1.558A.5.5 0 0 0 12 8.117V4.485a.5.5 0 0 0-.246-.43.5.5 0 0 0-.495-.008L6.231 6.81a.5.5 0 0 0-.259.44L6 15.495a.497.497 0 0 0 .5.498c.09 0 .18-.024.26-.073l8-4.867a.5.5 0 0 0 .24-.427V2.592a.5.5 0 0 0-.264-.441Z"/><path d="m10.697 10.271-.324.188a.499.499 0 0 0 .251.933.5.5 0 0 0 .25-.067l.324-.188a.499.499 0 1 0-.501-.865Zm-1.367.791-.372.215a.5.5 0 1 0 .501.866l.372-.215a.5.5 0 0 0-.5-.866Z"/></svg>