<!-- SPDX-FileCopyrightText: © 2025 Schneider Electric SPDX-License-Identifier: LicenseRef-Proprietary -->
<svg xmlns="http://www.w3.org/2000/svg" viewBox="0 0 16 16"><path d="M14.201 2.394c-.271-.278-.517-.554-.747-.81-.771-.861-1.38-1.542-2.172-1.582-.412-.026-.83.148-1.27.547-.925.822-3.274 3.014-5.11 5.601C2.79 9.105.089 13.995.062 14.044a.5.5 0 0 0 .087.597l1.231 1.214a.5.5 0 0 0 .645.048l1.452-1.057a.5.5 0 0 0 .193-.516l-.1-.435 1.393.514a.5.5 0 0 0 .667-.549l-.285-1.757 1.51.615a.5.5 0 0 0 .677-.571l-.375-1.708 1.525.581a.501.501 0 0 0 .65-.632l-.511-1.456 1.511.547a.5.5 0 0 0 .535-.128l.72-.768a.5.5 0 1 0-.73-.684l-.495.527-2.193-.794a.499.499 0 0 0-.642.636l.504 1.435-1.384-.527a.498.498 0 0 0-.666.575l.37 1.684-1.454-.592a.5.5 0 0 0-.682.543l.29 1.79-1.456-.537a.502.502 0 0 0-.66.581l.233 1.014-.842.613-.658-.649c.641-1.144 2.831-5 4.594-7.466 1.777-2.505 4.061-4.634 5.014-5.481.287-.26.448-.251.5-.249.376.02.913.618 1.48 1.251.238.266.494.551.773.839 1.011 1.041 1.614 1.811 1.511 2.401-.118.309-1.104 1.298-1.41 1.374-.543.045-1.317-.744-2.056-1.504-.132-.135-.777-.831-1.173-1.189l.855-.976s.028.012.079.066l1.837 1.958a.5.5 0 0 0 .729-.685l-1.837-1.958c-.3-.32-.575-.376-.805-.378a.95.95 0 0 0-.668.308l-.788.849c-.061.048-.363.305-.394.712a.9.9 0 0 0 .26.7c.392.438 1.053 1.15 1.188 1.289.938.967 1.815 1.873 2.848 1.804.754-.057 2.209-1.595 2.311-2.164.207-1.154-.719-2.221-1.77-3.304Z"/></svg>