<!-- SPDX-FileCopyrightText: © 2025 Schneider Electric SPDX-License-Identifier: LicenseRef-Proprietary -->
<svg xmlns="http://www.w3.org/2000/svg" viewBox="0 0 16 16"><path d="M2.425 9.693a.5.5 0 0 0 .461.307h2.613a.5.5 0 0 0 0-1H4.081l1.133-1.149A.499.499 0 0 0 4.858 7H2.5a.5.5 0 0 0 0 1h1.164L2.531 9.149a.5.5 0 0 0-.105.544Z"/><path d="M15.886.147A.5.5 0 0 0 15.532 0H.5a.5.5 0 0 0-.5.5v11a.5.5 0 0 0 .5.5H6v3H2.5a.5.5 0 0 0 0 1h4a.5.5 0 0 0 .5-.5v-4a.5.5 0 0 0-.5-.5H1V1h14.03l-.029 10H9.445a.5.5 0 0 0-.356.148.5.5 0 0 0-.144.358l.055 4a.5.5 0 0 0 .5.493h4a.5.5 0 0 0 0-1H9.993l-.041-3H15.5a.5.5 0 0 0 .5-.499l.031-11a.5.5 0 0 0-.146-.354Z"/><path d="M9.64 5.689a.5.5 0 0 0 .463.311H13.5a.5.5 0 0 0 0-1h-2.172l2.189-2.143a.5.5 0 0 0-.35-.857h-2.668a.5.5 0 0 0 0 1h1.442L9.752 5.143a.5.5 0 0 0-.113.546ZM6.339 8H9.5a.5.5 0 0 0 0-1H7.69l1.307-1.121a.501.501 0 0 0-.325-.88H6.501a.5.5 0 0 0 0 1h.82L6.014 7.12A.5.5 0 0 0 6.34 8Z"/></svg>