<!-- SPDX-FileCopyrightText: © 2025 Schneider Electric SPDX-License-Identifier: LicenseRef-Proprietary -->
<svg xmlns="http://www.w3.org/2000/svg" viewBox="0 0 16 16"><path d="m9.374 10.115-.64-.629.64-.629a.5.5 0 1 0-.701-.713l-.651.641-.652-.641a.5.5 0 1 0-.701.713l.64.629-.64.629a.5.5 0 1 0 .701.713l.652-.641.651.641a.497.497 0 0 0 .707-.005.5.5 0 0 0-.006-.707Z"/><path d="M15.965 2.868a.5.5 0 0 0-.495-.475c-.041 0-4.14-.062-7.165-2.289a.494.494 0 0 0-.591-.015C4.168 2.424.579 2.39.541 2.393c-.272.022-.494.207-.508.475-.556 10.961 5.898 12.818 7.889 13.126a.5.5 0 0 0 .577-.494v-3.158a.5.5 0 0 0-.5-.5H5.652a.705.705 0 0 1-.704-.704V7.691c0-.388.316-.704.704-.704h.375a.5.5 0 0 0 .5-.5V4.861l.01-.075c.041-.709.684-1.265 1.464-1.265s1.423.556 1.464 1.265a.4.4 0 0 0 .01.073v1.128H7.847a.5.5 0 0 0 0 1h2.503c.388 0 .704.316.704.704v3.447a.705.705 0 0 1-.704.704h-.498a.5.5 0 0 0 0 1h.498c.939 0 1.704-.765 1.704-1.704V7.691c0-.897-.698-1.635-1.579-1.7V4.757a.5.5 0 0 0-.021-.14c-.127-1.184-1.183-2.096-2.453-2.096s-2.323.909-2.452 2.091a.5.5 0 0 0-.021.145v1.234a1.707 1.707 0 0 0-1.579 1.7v3.447c0 .939.765 1.704 1.704 1.704h1.848v2.048C5.336 14.363.727 12.198 1.015 3.378c1.125-.065 4.009-.418 6.972-2.275 2.636 1.81 5.81 2.189 7 2.269.243 7.099-2.468 9.928-4.814 11.05a.5.5 0 1 0 .432.902c2.669-1.276 5.766-4.473 5.362-12.457Z"/></svg>