<!-- SPDX-FileCopyrightText: © 2025 Schneider Electric SPDX-License-Identifier: LicenseRef-Proprietary -->
<svg xmlns="http://www.w3.org/2000/svg" viewBox="0 0 16 16"><path d="M7.973 12.315a.67.67 0 0 1-.505-.196q-.189-.196-.189-.499c0-.303.063-.368.189-.499q.19-.195.505-.195c.315 0 .377.065.499.195q.183.196.183.499c0 .303-.061.369-.183.499q-.184.196-.499.196Zm0-2.311a.32.32 0 0 1-.246-.102q-.095-.1-.107-.303l-.253-5.66q-.013-.303.146-.486.158-.183.461-.183.29 0 .442.183c.152.183.147.284.139.486l-.252 5.66q0 .202-.088.303a.3.3 0 0 1-.24.102ZM8 16a.5.5 0 0 1-.111-.013c-4.919-1.114-6.769-5.112-6.845-5.282A.5.5 0 0 1 1 10.5V3.821C1 2.136 4.295 0 8 0s7 2.137 7 3.821h-.067c.068.623.068 2.232.067 6.655a.5.5 0 0 1-.053.224c-.04.08-1.012 1.976-3.904 3.541l-.295.163a.502.502 0 0 1-.742-.436L10 12.501c0-.813.501-1.269.904-1.635.367-.334.575-.539.575-.889 0-.338-.204-.534-.564-.852-.407-.358-.914-.804-.914-1.627 0-.797.499-1.247.899-1.609.37-.334.579-.54.579-.891s-.207-.552-.574-.88c-.403-.36-.905-.809-.905-1.62a.5.5 0 0 1 1 0c0 .347.207.548.571.875.404.361.907.811.907 1.625s-.504 1.268-.909 1.633c-.364.329-.569.531-.569.867 0 .354.208.554.575.876.403.354.904.795.904 1.602s-.5 1.264-.902 1.629c-.368.334-.577.541-.577.893l.002.614c1.935-1.155 2.787-2.42 2.998-2.77V3.825c0-.847-2.535-2.828-6-2.828S2 2.98 2 3.821v6.562c.295.572 2.08 3.715 6.11 4.629A.499.499 0 0 1 8 16Zm-2.5-3a.5.5 0 0 1-.5-.5c0-.352-.208-.559-.577-.893-.402-.365-.902-.82-.902-1.629s.501-1.248.904-1.602C4.792 8.053 5 7.853 5 7.5c0-.336-.206-.538-.569-.867-.405-.365-.909-.82-.909-1.633s.503-1.264.907-1.625C4.794 3.049 5 2.847 5 2.5a.5.5 0 0 1 1 0c0 .811-.502 1.26-.905 1.62-.367.328-.574.53-.574.88s.209.557.579.891c.401.362.899.812.899 1.609 0 .823-.507 1.269-.914 1.627-.36.317-.564.514-.564.852 0 .35.208.555.575.889.403.366.904.821.904 1.633a.5.5 0 0 1-.5.5Z"/></svg>