<!-- SPDX-FileCopyrightText: © 2025 Schneider Electric SPDX-License-Identifier: LicenseRef-Proprietary -->
<svg xmlns="http://www.w3.org/2000/svg" viewBox="0 0 16 16"><path d="M9.071 8.055a1.074 1.074 0 1 0-2.148.002 1.074 1.074 0 0 0 2.148-.002Zm-1.147 0a.074.074 0 0 1 .147 0c0 .082-.147.082-.147 0Z"/><path d="M15.964 2.868a.5.5 0 0 0-.494-.475c-.041 0-4.147-.068-7.165-2.289a.494.494 0 0 0-.591-.015C4.168 2.424.579 2.399.541 2.393a.51.51 0 0 0-.508.475c-.556 10.963 5.898 12.819 7.89 13.126a.5.5 0 0 0 .402-.114.5.5 0 0 0 .174-.38v-3.722a3.77 3.77 0 0 0 3.223-3.224h.92a.5.5 0 0 0 0-1h-.92a3.766 3.766 0 0 0-3.224-3.223v-.895a.5.5 0 0 0-1 0v.895a3.764 3.764 0 0 0-3.223 3.223h-.96a.5.5 0 0 0 0 1h.96a3.75 3.75 0 0 0 1.263 2.339.5.5 0 1 0 .656-.756 2.76 2.76 0 0 1-.906-1.583h.607a.5.5 0 0 0 0-1h-.607a2.76 2.76 0 0 1 2.211-2.21v.672a.5.5 0 0 0 1 0v-.672a2.76 2.76 0 0 1 2.211 2.21h-.647a.5.5 0 0 0 0 1h.647a2.76 2.76 0 0 1-2.21 2.211v-.652a.5.5 0 0 0-1 0v4.777C5.335 14.364.726 12.2 1.014 3.378c1.125-.065 4.009-.418 6.972-2.275 2.636 1.81 5.81 2.189 7 2.269.244 7.101-2.467 9.929-4.813 11.05a.5.5 0 0 0 .432.902c2.67-1.275 5.767-4.473 5.361-12.457Z"/></svg>