<!-- SPDX-FileCopyrightText: © 2025 Schneider Electric SPDX-License-Identifier: LicenseRef-Proprietary -->
<svg xmlns="http://www.w3.org/2000/svg" viewBox="0 0 16 16"><path d="M15.965 2.865a.5.5 0 0 0-.495-.475c-.041 0-4.148-.068-7.165-2.28a.5.5 0 0 0-.588-.016C4.169 2.42.579 2.381.543 2.39c-.259.026-.494.207-.508.475-.238 4.691.724 8.245 2.86 10.56 2.266 2.456 5.006 2.565 5.121 2.569h.016a.5.5 0 0 0 .467-.678v-2.472a.5.5 0 0 0-.304-.46l-1.392-.593C5.156 10.534 5.311 9.5 5.476 8.405c.042-.282.086-.577.097-.877.079.169.113.293.116.308a.5.5 0 0 0 .914.133c.649-1.091 1.209-2.389.76-3.952 1.916.803 2.056 2.52 2.062 2.6a.5.5 0 0 0 .973.131c.125-.374.966-.789 1.626-1.013-.385.86-.707 2.067-.372 3.006.351 1.962-1.12 2.59-1.579 2.735l-.065.02c.021-.089.045-.185.067-.268.227-.878.648-2.514-.979-3.62a.5.5 0 0 0-.527-.021c-1.253.709-1.467 2.06-1.305 2.794a.5.5 0 1 0 .976-.215c-.083-.374.013-1.063.555-1.524.679.625.551 1.404.311 2.337-.136.528-.265 1.028.09 1.364.322.305.8.207 1.18.086 1.288-.409 2.653-1.666 2.24-3.942-.319-.906.266-2.417.683-3.009.113-.16.139-.45.041-.619-.198-.338-.611-.296-.746-.282-.5.051-1.646.397-2.422.971-.375-.971-1.302-2.354-3.574-2.797a.5.5 0 0 0-.499.195.5.5 0 0 0-.036.535c.579 1.064.631 1.974.125 3.127-.304-.433-.782-.881-1.509-1.051a.5.5 0 0 0-.482.825c.468.509.418 1.018.289 1.875-.184 1.221-.412 2.74 1.764 4.371a.6.6 0 0 0 .104.06l1.145.487v1.75a7.1 7.1 0 0 1-3.87-2.176C1.751 10.71.872 7.559 1.015 3.376c1.125-.065 4.009-.417 6.971-2.267 2.635 1.803 5.81 2.181 7 2.26.243 7.068-2.468 9.886-4.812 11.003a.498.498 0 1 0 .43.902c2.67-1.271 5.767-4.456 5.362-12.41Z"/></svg>