<!-- SPDX-FileCopyrightText: © 2025 Schneider Electric SPDX-License-Identifier: LicenseRef-Proprietary -->
<svg xmlns="http://www.w3.org/2000/svg" viewBox="0 0 16 16"><path d="M7.626 9.349a.5.5 0 0 0-.417.571c.067.428-.076.867-.381 1.172-.513.514-1.407.514-1.92 0-.256-.256-.398-.598-.398-.96s.142-.704.398-.96a1.36 1.36 0 0 1 1.335-.345.5.5 0 1 0 .274-.962 2.36 2.36 0 0 0-2.316.6c-.445.445-.691 1.037-.691 1.667s.246 1.222.691 1.667 1.037.69 1.667.69 1.222-.245 1.667-.69a2.37 2.37 0 0 0 .663-2.034.5.5 0 0 0-.571-.417ZM15.5 4.332a.5.5 0 0 0 0-1A2.835 2.835 0 0 1 12.668.5a.5.5 0 0 0-1 0A3.836 3.836 0 0 0 15.5 4.332Z"/><path d="M15.5 5.779A5.286 5.286 0 0 1 10.22.5a.5.5 0 0 0-1 0 6.287 6.287 0 0 0 6.28 6.279.5.5 0 0 0 0-1Zm-6.118-.345a5.84 5.84 0 0 0-4.351-1.109A5.83 5.83 0 0 0 1.17 6.618a5.83 5.83 0 0 0-1.109 4.351 5.83 5.83 0 0 0 2.293 3.861 5.82 5.82 0 0 0 4.351 1.109.5.5 0 0 0 .424-.566.505.505 0 0 0-.566-.424 4.83 4.83 0 0 1-3.609-.92 4.83 4.83 0 0 1-1.902-3.203 4.83 4.83 0 0 1 .919-3.609 4.84 4.84 0 0 1 3.203-1.902 4.83 4.83 0 0 1 3.609.919 4.84 4.84 0 0 1 1.902 3.203 4.87 4.87 0 0 1-1.874 4.572.5.5 0 0 0 .606.797 5.88 5.88 0 0 0 2.259-5.511 5.83 5.83 0 0 0-2.293-3.861Z"/><circle cx="8.337" cy="7.655" r=".5"/></svg>