<!-- SPDX-FileCopyrightText: © 2025 Schneider Electric SPDX-License-Identifier: LicenseRef-Proprietary -->
<svg xmlns="http://www.w3.org/2000/svg" viewBox="0 0 16 16"><path d="M9.303 10.303 7.602 8.816l.63-.64a.5.5 0 0 0-.713-.701l-.67.681a322 322 0 0 1-4.58-4.077.5.5 0 0 0-.697.021C1.244 4.438-.206 7.053.024 9.988c.217 2.771 1.363 3.927 1.846 4.296a.501.501 0 0 0 .607-.795c-.293-.224-1.266-1.145-1.456-3.579-.158-2.025.598-3.875 1.019-4.688 1.938 1.756 4.408 3.914 6.606 5.834.967.845 1.879 1.642 2.664 2.333-.504.435-1.993 1.287-3.297 1.455-1.969.379-2.968-.026-3.45-.22q-.133-.053-.227-.086a.5.5 0 0 0-.313.949q.07.024.167.064c.405.163 1.121.45 2.298.45.48 0 1.038-.048 1.682-.171 1.62-.208 4.001-1.493 4.246-2.293a.62.62 0 0 0-.177-.663 799 799 0 0 0-2.937-2.572ZM8.425 0a.5.5 0 0 0 0 1A6.583 6.583 0 0 1 15 7.576a.5.5 0 0 0 1 0C16 3.398 12.602 0 8.425 0Z"/><path d="M8.425 2.997a.5.5 0 0 0 0 1 3.58 3.58 0 0 1 3.579 3.579.5.5 0 0 0 1 0 4.584 4.584 0 0 0-4.579-4.579Z"/></svg>