<!-- SPDX-FileCopyrightText: © 2025 Schneider Electric SPDX-License-Identifier: LicenseRef-Proprietary -->
<svg xmlns="http://www.w3.org/2000/svg" viewBox="0 0 16 16"><path d="M14.239.936c.34.191.625.48.824.835a.5.5 0 1 0 .873-.49A3.2 3.2 0 0 0 14.729.063a.5.5 0 1 0-.491.872Zm-3.592.527c2.671.369 3.758 2.478 3.877 4.173a.5.5 0 0 0 .498.465l.036-.001a.5.5 0 0 0 .464-.534C15.376 3.498 14.047.923 10.784.473a.49.49 0 0 0-.563.427.5.5 0 0 0 .427.563ZM.941 6.1l.036.001a.5.5 0 0 0 .498-.465c.12-1.695 1.208-3.804 3.877-4.173a.5.5 0 0 0-.136-.99C1.953.923.624 3.498.478 5.566a.5.5 0 0 0 .463.534Z"/><path d="M15.5 13h-11a.5.5 0 0 0 0 1H15v1H1v-1h1.5a.5.5 0 0 0 .5-.5V8.048c0-3.229 1.943-5.234 5.071-5.234C11.157 2.814 13 4.771 13 8.048V11.5a.5.5 0 0 0 1 0V8.048c0-3.787-2.327-6.234-5.929-6.234C4.383 1.814 2 4.261 2 8.048V13H.5a.5.5 0 0 0-.5.5v2a.5.5 0 0 0 .5.5h15a.5.5 0 0 0 .5-.5v-2a.5.5 0 0 0-.5-.5ZM.255 1.963a.5.5 0 0 0 .682-.191c.2-.356.485-.645.825-.836A.5.5 0 0 0 1.27.064 3.2 3.2 0 0 0 .064 1.282a.5.5 0 0 0 .191.681Z"/></svg>