<!-- SPDX-FileCopyrightText: © 2025 Schneider Electric SPDX-License-Identifier: LicenseRef-Proprietary -->
<svg xmlns="http://www.w3.org/2000/svg" viewBox="0 0 16 16"><path d="M4.461 8.909a.5.5 0 0 0 .5-.5c0-1.633 1.888-3.64 3.432-3.652h.014a.5.5 0 1 0-.021-1h-.152c-.866.01-1.548.009-2.147-1.007a.5.5 0 1 0-.861.507c.353.599.758.96 1.175 1.177a5.9 5.9 0 0 0-1.94 2.138 5.9 5.9 0 0 0-2.157-2.269C3.781 3.562 4.947 2.021 4.947.5a.5.5 0 0 0-1 0c0 1.552-1.803 3.257-3.446 3.257a.5.5 0 0 0 0 1c1.553 0 3.461 2.014 3.461 3.652a.5.5 0 0 0 .5.5Zm6.192-3.965c2.295.473 3.109 2.325 3.109 3.767a.5.5 0 0 0 1 0c0-1.962-1.208-4.19-3.908-4.747a.499.499 0 1 0-.201.98Z"/><path d="M14.5 13h-6a.5.5 0 0 0 0 1H14v1H5.081v-1H6.5a.5.5 0 0 0 .5-.5v-3.161C7 8.816 7.454 7 9.616 7h.224c.527 0 .946.165 1.28.505.888.903.884 2.697.88 2.914v1.211a.5.5 0 0 0 1 0v-1.209c.007-.399-.018-2.448-1.167-3.617C11.309 6.271 10.638 6 9.84 6h-.224C7.318 6 6 7.582 6 10.339V13H4.581a.5.5 0 0 0-.5.5v2a.5.5 0 0 0 .5.5H14.5a.5.5 0 0 0 .5-.5v-2a.5.5 0 0 0-.5-.5Zm1.486-6.998c-.351-1.454-.889-1.962-1.822-2.44a.5.5 0 1 0-.455.891c.749.383 1.042.694 1.305 1.784a.501.501 0 0 0 .972-.234Z"/></svg>