<!-- SPDX-FileCopyrightText: © 2024 SlideShare from Scribd SPDX-License-Identifier: LicenseRef-Proprietary -->
<svg xmlns="http://www.w3.org/2000/svg" fill="none" viewBox="0 0 116 30" xmlns:xlink="http://www.w3.org/1999/xlink"><path fill="#636C8B" d="M32.92 25.524q0-.86.763-1.312.775-.462 2.452-.645 0-.247-.054-.484a1.04 1.04 0 0 0-.172-.419.84.84 0 0 0-.323-.29 1.04 1.04 0 0 0-.526-.118q-.463 0-.86.172a4.3 4.3 0 0 0-.7.387l-.354-.613q.364-.236.892-.452.526-.226 1.161-.226.957 0 1.387.592.43.58.43 1.559v3.204h-.73l-.076-.624h-.022q-.376.312-.817.538a2 2 0 0 1-.914.215q-.666 0-1.107-.387-.43-.387-.43-1.097Zm.87-.065q0 .453.259.646.269.193.656.193.375 0 .71-.172.344-.182.72-.527v-1.451a9 9 0 0 0-1.108.204 3 3 0 0 0-.73.28 1.03 1.03 0 0 0-.388.376.9.9 0 0 0-.118.451Zm9.343 1.549q-.71 0-1.377-.27a3.6 3.6 0 0 1-1.16-.762l.73-.85q.377.355.86.58.484.216.968.216.602 0 .914-.248a.8.8 0 0 0 .312-.655q0-.441-.312-.635a5.5 5.5 0 0 0-.774-.398l-.968-.419a4 4 0 0 1-.677-.387 2 2 0 0 1-.538-.602q-.204-.366-.204-.881 0-.56.301-1a2.14 2.14 0 0 1 .839-.71q.537-.27 1.225-.269.613 0 1.183.247.57.237.978.645l-.634.796a2.9 2.9 0 0 0-.71-.44 2 2 0 0 0-.817-.162q-.495 0-.806.226a.7.7 0 0 0-.301.602q0 .27.15.451.162.173.42.302.258.117.548.236l.957.398q.624.27 1.021.71.398.43.398 1.193 0 .57-.3 1.043-.303.473-.872.763-.559.28-1.355.28Zm6.009 0q-.72 0-1.301-.323a2.47 2.47 0 0 1-.914-.946q-.333-.624-.333-1.494 0-.882.365-1.495.365-.624.968-.946a2.7 2.7 0 0 1 1.312-.333q.504 0 .881.172.376.171.667.419l-.602.806a1.7 1.7 0 0 0-.42-.28 1 1 0 0 0-.462-.107q-.634 0-1.043.484-.398.485-.398 1.28 0 .785.387 1.268.398.484 1.022.484.312 0 .58-.129.28-.14.506-.322l.505.817a2.5 2.5 0 0 1-.817.483 2.7 2.7 0 0 1-.903.162Zm2.87-.129v-5.28h1.02l.087.936h.043q.28-.516.677-.785.399-.28.817-.28.377 0 .602.108l-.215 1.075a1.7 1.7 0 0 0-.548-.086q-.312 0-.656.248-.344.236-.591.838v3.226zm4.118 0v-5.28h1.236v5.28zm.624-6.204a.75.75 0 0 1-.538-.194.68.68 0 0 1-.204-.516q0-.311.204-.505a.75.75 0 0 1 .538-.193.75.75 0 0 1 .537.193.66.66 0 0 1 .204.505.68.68 0 0 1-.204.517.75.75 0 0 1-.537.193Zm4.856 6.333q-.753 0-1.44-.688h-.033l-.107.559h-.979v-7.59h1.237v1.956l-.032.881a3 3 0 0 1 .73-.473 1.9 1.9 0 0 1 .796-.182q.99 0 1.538.73.548.732.548 1.947 0 .903-.323 1.548-.322.635-.838.978a1.95 1.95 0 0 1-1.097.334Zm-.258-1.022q.527 0 .882-.462t.355-1.355q0-.795-.27-1.236-.268-.44-.87-.44-.56 0-1.161.59v2.463q.28.236.548.344.279.096.516.096Zm5.714 1.022q-.99 0-1.58-.731-.591-.732-.592-2.032 0-.86.312-1.484.323-.624.839-.957a1.97 1.97 0 0 1 1.086-.333q.45 0 .763.16.323.151.624.42l-.043-.85v-1.913h1.236v7.59H68.69l-.086-.57h-.043q-.291.292-.678.495-.387.205-.817.205Zm.301-1.022q.592 0 1.108-.591v-2.462a1.6 1.6 0 0 0-.538-.344 1.6 1.6 0 0 0-.537-.097q-.506 0-.871.462-.355.452-.355 1.28 0 .85.312 1.3.312.453.881.452Zm6.017-1.709q0-.656.204-1.161.205-.517.549-.871a2.3 2.3 0 0 1 .795-.538q.462-.183.968-.183.516 0 .881.194.376.183.646.43l-.441.57a2.4 2.4 0 0 0-.495-.333 1.2 1.2 0 0 0-.559-.13q-.355 0-.656.151-.3.14-.516.409-.215.268-.344.645a2.7 2.7 0 0 0-.118.817q0 .45.118.817.119.366.323.634.214.258.516.409.3.14.656.14.375 0 .677-.15.311-.162.548-.377l.398.58a2.9 2.9 0 0 1-.796.495 2.3 2.3 0 0 1-.903.183q-.516 0-.967-.183a2.3 2.3 0 0 1-.785-.527 2.7 2.7 0 0 1-.516-.86 3.5 3.5 0 0 1-.183-1.161Zm4.78 0q0-.656.193-1.161.205-.517.538-.871a2.24 2.24 0 0 1 1.688-.72 2.3 2.3 0 0 1 1.688.72q.333.355.527.87.204.507.204 1.162 0 .645-.204 1.161a2.6 2.6 0 0 1-.527.86q-.333.345-.774.527a2.3 2.3 0 0 1-.914.183q-.483 0-.925-.183a2.3 2.3 0 0 1-.763-.527 2.7 2.7 0 0 1-.538-.86 3.3 3.3 0 0 1-.193-1.161Zm.914 0q0 .45.107.817.108.366.301.634.204.258.484.409.279.14.613.14t.613-.14q.28-.15.473-.409.204-.268.312-.634.107-.366.107-.817 0-.452-.107-.817a1.9 1.9 0 0 0-.312-.645 1.3 1.3 0 0 0-.473-.409q-.28-.15-.613-.15-.334 0-.613.15a1.4 1.4 0 0 0-.484.409q-.194.268-.3.645a3 3 0 0 0-.108.817Zm5.408-2.623h.73l.076.752h.032q.345-.376.742-.623a1.6 1.6 0 0 1 .882-.259q.602 0 .935.27.345.257.505.73.409-.45.818-.72.42-.28.903-.28.806 0 1.193.517.398.516.398 1.526v3.312h-.882v-3.193q0-.743-.236-1.065-.237-.333-.731-.333-.592 0-1.312.806v3.785h-.882v-3.193q0-.743-.236-1.065-.237-.333-.742-.333-.591 0-1.312.806v3.785h-.881zm9.903 5.666v1.763h-.882v-7.43h.731l.076.603h.032q.355-.301.774-.517.43-.215.892-.215.506 0 .893.194.387.183.645.538.257.343.387.838.14.484.14 1.097 0 .666-.183 1.193a2.8 2.8 0 0 1-.495.882q-.311.366-.72.559-.409.183-.86.183-.365 0-.731-.162a3.8 3.8 0 0 1-.72-.44zm0-1.602q.355.3.688.43.334.118.591.118.322 0 .592-.14.28-.15.473-.409.204-.268.312-.655.117-.387.118-.871 0-.43-.075-.785a1.6 1.6 0 0 0-.248-.602 1.1 1.1 0 0 0-.43-.398 1.3 1.3 0 0 0-.623-.14q-.334 0-.678.183a4 4 0 0 0-.72.527zm4.785-.194q0-.86.763-1.312.774-.462 2.451-.645 0-.247-.054-.484a1 1 0 0 0-.172-.419.84.84 0 0 0-.322-.29 1.04 1.04 0 0 0-.527-.118q-.462 0-.86.172a4.3 4.3 0 0 0-.699.387l-.355-.613q.365-.236.893-.452.526-.226 1.161-.226.957 0 1.387.592.43.58.43 1.559v3.204h-.731l-.075-.624h-.022a4.5 4.5 0 0 1-.817.538 2 2 0 0 1-.914.215q-.667 0-1.107-.387-.43-.387-.43-1.097Zm.87-.065q0 .453.258.646.27.193.656.193.377 0 .71-.172.344-.182.72-.527v-1.451a9 9 0 0 0-1.107.204 3 3 0 0 0-.731.28 1.03 1.03 0 0 0-.387.376.9.9 0 0 0-.119.451Zm4.997-3.805h.731l.075.752h.032q.377-.376.785-.623a1.8 1.8 0 0 1 .968-.259q.828 0 1.204.517.387.516.387 1.526v3.312h-.881v-3.193q0-.743-.237-1.065-.236-.333-.753-.333-.408 0-.72.204a4.7 4.7 0 0 0-.71.602v3.785h-.881zm5.632 6.666q.087.021.194.042.108.033.204.033a.92.92 0 0 0 .731-.323q.29-.312.452-.796l.118-.386-2.096-5.236h.913l1.065 2.892q.118.344.247.73.14.377.258.743h.043q.118-.355.226-.742t.215-.731l.935-2.892h.86l-1.967 5.655a6 6 0 0 1-.312.72 2.3 2.3 0 0 1-.408.57 1.8 1.8 0 0 1-.538.387q-.301.14-.699.14-.183 0-.333-.033-.15-.021-.28-.075z"/><path fill="#026C97" d="M40.105 11.483c0-.585-.155-1.033-.43-1.36a3.1 3.1 0 0 0-1.084-.773 7 7 0 0 0-1.394-.448c-.516-.103-.98-.206-1.41-.344s-.792-.292-1.067-.499c-.292-.206-.43-.499-.43-.911 0-.241.052-.448.172-.62.103-.172.258-.327.465-.447.206-.12.43-.206.688-.275.258-.052.533-.086.825-.086.517 0 .981.12 1.394.327.413.206.688.516.826.911.068.241.154.379.223.448.069.068.155.086.275.086a.5.5 0 0 0 .241-.052.4.4 0 0 0 .155-.138c.035-.051.052-.103.069-.154 0-.035.017-.07.017-.104s-.034-.154-.086-.395c-.069-.241-.206-.482-.413-.757-.223-.258-.55-.499-.98-.705-.448-.207-1.032-.327-1.772-.327-.706 0-1.256.103-1.669.31-.413.206-.74.464-.946.739-.224.275-.361.55-.43.826a2.6 2.6 0 0 0-.086.62c0 .378.069.704.24.98.173.275.362.498.586.653.172.138.344.241.533.31.172.086.396.172.637.24.24.07.516.156.842.224.327.086.723.19 1.17.31.138.035.293.086.499.155s.396.155.585.275c.172.12.327.275.464.447.138.19.207.413.207.688q0 .31-.155.62c-.103.206-.24.378-.43.533-.206.172-.447.293-.757.396s-.67.137-1.084.137c-.155 0-.344 0-.567-.034a2 2 0 0 1-.671-.19 2.1 2.1 0 0 1-.671-.447 2.24 2.24 0 0 1-.55-.825c-.07-.138-.121-.275-.19-.396a.4.4 0 0 0-.344-.172.56.56 0 0 0-.361.138.43.43 0 0 0-.155.344c0 .258.086.55.258.86q.258.465.67.825c.104.104.224.19.362.276.138.103.31.172.516.24.207.07.43.138.705.173.258.051.568.069.93.069.79 0 1.41-.104 1.892-.31.481-.207.843-.465 1.084-.757.24-.293.412-.585.481-.895s.12-.55.12-.74Zm3.307 1.84V2.331c0-.103-.017-.207-.017-.31a.7.7 0 0 0-.052-.275.47.47 0 0 0-.155-.206.5.5 0 0 0-.31-.086.46.46 0 0 0-.292.086.47.47 0 0 0-.155.206.7.7 0 0 0-.069.275v11.612c0 .103.035.19.07.275a.47.47 0 0 0 .154.207c.069.051.172.069.31.069.24 0 .395-.087.447-.276.034-.189.069-.378.069-.585Zm3.87 0V5.737c0-.086-.017-.19-.017-.292a.66.66 0 0 0-.206-.499.5.5 0 0 0-.293-.086.5.5 0 0 0-.31.086.47.47 0 0 0-.154.206.7.7 0 0 0-.069.275v8.206c0 .103.034.19.069.275a.47.47 0 0 0 .155.207c.068.051.172.069.31.069.24 0 .395-.087.447-.276.034-.189.068-.378.068-.585Zm.155-10.854a.65.65 0 0 0-.206-.482.7.7 0 0 0-.465-.19.647.647 0 0 0-.67.672c0 .189.05.344.189.481.12.138.275.19.481.19a.62.62 0 0 0 .465-.19.65.65 0 0 0 .206-.481Zm9.444-.155V6.51c-.103-.137-.24-.292-.395-.482a3.4 3.4 0 0 0-.637-.55 3.7 3.7 0 0 0-.946-.43 4.4 4.4 0 0 0-1.342-.19c-.774 0-1.41.156-1.926.448a3.65 3.65 0 0 0-1.222 1.118c-.31.447-.533.946-.653 1.48a6.3 6.3 0 0 0-.19 1.548c0 .516.052 1.066.19 1.617.137.55.36 1.066.67 1.53.31.465.706.844 1.222 1.136.516.31 1.135.447 1.892.447.482 0 .895-.051 1.256-.154s.67-.241.946-.413q.413-.258.67-.516c.173-.172.328-.344.465-.482v.705c0 .104 0 .207.017.31 0 .103.035.19.07.275a.47.47 0 0 0 .154.207c.069.051.155.069.293.069.24 0 .395-.087.447-.276.034-.189.069-.378.069-.585V2.313c0-.085-.017-.189-.017-.292a.7.7 0 0 0-.052-.275.47.47 0 0 0-.155-.206.5.5 0 0 0-.292-.086.5.5 0 0 0-.31.086.47.47 0 0 0-.155.206.7.7 0 0 0-.069.275zm-6.21 7.19c0-.619.069-1.152.241-1.634.155-.464.361-.86.636-1.187.276-.31.585-.55.947-.722a2.9 2.9 0 0 1 1.152-.241c.31 0 .671.069 1.05.172.378.12.722.327 1.049.602.31.292.585.688.808 1.17.207.481.327 1.1.327 1.823 0 .482-.034.877-.103 1.204-.069.344-.137.62-.24.86a2.6 2.6 0 0 1-.328.585c-.137.155-.258.293-.36.396-.207.19-.397.327-.603.43a3.4 3.4 0 0 1-.602.24c-.19.053-.361.087-.533.104s-.293.017-.396.017c-.378 0-.757-.069-1.118-.223a2.65 2.65 0 0 1-.98-.706c-.293-.31-.517-.705-.689-1.187q-.258-.722-.258-1.703Zm10.657.138h6.21a.7.7 0 0 0 .31-.086c.086-.034.154-.12.206-.224a.95.95 0 0 0 .086-.43c0-.017-.017-.137-.017-.344a6 6 0 0 0-.138-.774 5.5 5.5 0 0 0-.344-.963 4 4 0 0 0-.67-.946 4.3 4.3 0 0 0-1.084-.723c-.448-.19-.981-.292-1.6-.292-.654 0-1.239.12-1.738.344a3.34 3.34 0 0 0-1.273.946 4.1 4.1 0 0 0-.791 1.462 6.7 6.7 0 0 0-.258 1.91c0 .653.069 1.273.24 1.84.156.568.396 1.067.74 1.48.344.412.757.74 1.273.98q.775.362 1.807.362c.722 0 1.324-.121 1.806-.379.482-.24.86-.533 1.135-.843.276-.31.465-.62.568-.912s.172-.481.172-.55a.54.54 0 0 0-.138-.327.5.5 0 0 0-.378-.155c-.24 0-.413.138-.499.379-.19.464-.413.825-.654 1.083-.24.258-.499.448-.74.568a2.2 2.2 0 0 1-.722.24c-.223.035-.395.035-.516.035-.499 0-.929-.086-1.307-.275a2.35 2.35 0 0 1-.93-.757 3.5 3.5 0 0 1-.55-1.17 5 5 0 0 1-.206-1.479Zm5.711-.86h-5.694q.052-.387.206-.93c.104-.343.276-.687.517-.997.223-.31.516-.585.877-.808.344-.207.791-.327 1.307-.327.62 0 1.119.137 1.48.378q.541.386.826.878c.189.344.31.67.36 1.015.052.344.087.619.121.79Zm4.919-1.533q0-.43.428-.672c.286-.151.63-.235 1.017-.235.714 0 1.251.26 1.604.764.353.512.756.764 1.201.764.294 0 .53-.084.697-.26a.9.9 0 0 0 .252-.655c0-.487-.336-.958-.99-1.411q-.999-.68-2.664-.68-1.829 0-2.738.806c-.605.537-.907 1.159-.907 1.856 0 .622.243 1.16.748 1.613.495.453 1.285.798 2.377 1.05s1.755.479 1.999.688c.243.21.37.454.37.74 0 .319-.152.58-.437.78-.286.203-.664.303-1.118.303-.42 0-.806-.075-1.167-.235-.37-.16-.697-.487-1-.983-.268-.445-.588-.672-.94-.672a.9.9 0 0 0-.664.27.87.87 0 0 0-.269.646c0 .588.32 1.15.966 1.671.647.53 1.613.79 2.89.79 1.26 0 2.234-.252 2.94-.773.697-.512 1.05-1.251 1.05-2.226 0-1.226-1.042-2.091-3.117-2.595-1.075-.26-1.764-.479-2.066-.647-.311-.168-.462-.395-.462-.697ZM87.773 8.4c0-1.218-.286-2.109-.849-2.68-.57-.571-1.31-.857-2.234-.857q-1.65 0-2.797 1.386V3.536c0-.57-.034-.983-.084-1.235a1.04 1.04 0 0 0-.37-.613 1.15 1.15 0 0 0-.722-.235c-.26 0-.487.076-.672.21a.87.87 0 0 0-.37.53c-.05.218-.075.596-.075 1.15v9.105q0 1.06.302 1.403c.202.227.479.336.832.336.361 0 .647-.11.848-.344.202-.236.311-.706.311-1.428V9.76q0-1.325.202-1.856.2-.527.68-.89a1.9 1.9 0 0 1 1.142-.361c.487 0 .874.168 1.151.487s.42.915.42 1.78v3.663c0 .621.092 1.041.294 1.268.193.227.47.336.823.336.773 0 1.168-.53 1.168-1.604zm8.179 4.494c.513.865 1 1.293 1.47 1.293.269 0 .504-.092.723-.277.21-.185.319-.395.319-.639 0-.218-.084-.546-.244-.966s-.227-.957-.201-1.629l.05-2.15q.053-2.203-.916-2.932-.983-.73-3.074-.73-2.081 0-3.04.806c-.647.537-.966 1.1-.966 1.688 0 .252.092.462.294.622.193.16.411.235.655.235.26 0 .462-.067.604-.21q.202-.202.48-.706.478-.872 2.04-.873c.546 0 .958.126 1.227.37q.4.366.411 1.402c-.588.168-1.369.353-2.326.554s-1.655.37-2.075.521q-.642.226-1.184.807c-.362.386-.538.881-.538 1.503 0 .73.26 1.344.798 1.848q.796.756 2.285.756c1.041 0 2.116-.428 3.208-1.293Zm-.15-3.318c0 .756-.051 1.327-.152 1.705q-.151.578-.806.99a2.55 2.55 0 0 1-1.403.412q-.719 0-1.109-.377c-.26-.252-.386-.538-.386-.874q-.002-.579.487-.882c.327-.202.882-.378 1.671-.538.79-.15 1.353-.302 1.697-.436Zm4.676 2.713c0 .563.025.949.084 1.15.05.202.185.378.386.53a1.1 1.1 0 0 0 .681.218c.26 0 .495-.076.697-.244a1.05 1.05 0 0 0 .37-.554q.075-.302.075-1.184v-1.328c0-1.579.135-2.654.403-3.208.269-.554.672-.832 1.227-.832q.327 0 .806.152c.319.1.546.142.672.142.218 0 .42-.084.613-.268a.94.94 0 0 0 .286-.698c0-.403-.244-.714-.714-.949-.471-.235-.933-.353-1.369-.353-.84 0-1.504.48-1.974 1.428-.017-.949-.387-1.428-1.109-1.428-.756 0-1.134.521-1.134 1.546zm13.631-2.201q1.158.002 1.52-.361.368-.368.37-1c0-.949-.37-1.83-1.1-2.646-.74-.806-1.781-1.218-3.125-1.218-1.411 0-2.52.437-3.31 1.294q-1.184 1.287-1.184 3.368 0 2.069 1.184 3.368c.79.866 1.958 1.294 3.495 1.294 1.201 0 2.158-.277 2.864-.848.706-.572 1.058-1.11 1.058-1.63a.62.62 0 0 0-.226-.479.8.8 0 0 0-.53-.193 1 1 0 0 0-.445.1c-.134.068-.336.245-.605.522q-1.02 1.008-2.167 1.008c-.621 0-1.159-.21-1.604-.647s-.68-1.075-.697-1.932zm-4.502-1.302q.264-2.343 2.091-2.343.86 0 1.453.604.58.605.63 1.739z"/><g clip-path="url(#a)"><path fill="#026C97" fill-rule="evenodd" d="M4.306 0H24.57a2.484 2.484 0 0 1 2.47 2.47v12.786h-1.076V2.474a1.41 1.41 0 0 0-1.399-1.4H4.284a1.41 1.41 0 0 0-1.447 1.4v12.782H1.762V2.47A2.484 2.484 0 0 1 4.306 0Z" clip-rule="evenodd"/><path fill="#026C97" d="M18.621 15.053a3.4 3.4 0 0 0 3.516-3.28 3.41 3.41 0 0 0-3.516-3.225 3.41 3.41 0 0 0-3.515 3.279 3.41 3.41 0 0 0 3.515 3.226Zm8.914-1.484a15.26 15.26 0 0 1-10.59 2.795c-1.076 0-2.226-.118-2.226 1.602v.194c1.656 1.075 3.225 1.075 4.408-.775.763-1.172 1.795-.774 1.247.753a4.44 4.44 0 0 1-4.3 2.946 7 7 0 0 1-1.29-.14v4.763a2.87 2.87 0 0 0 3.042 3.107c3.408 0 5.204-3.14 5.204-6.45a12.7 12.7 0 0 0-.58-3.688 14.6 14.6 0 0 0 6.052-4.086c.527-.774-.096-1.634-.967-1.021Z"/><path fill="#D8711C" fill-rule="evenodd" d="M13.976 11.73a3.41 3.41 0 0 1-3.537 3.322 3.4 3.4 0 0 1-3.516-3.279 3.41 3.41 0 0 1 3.516-3.225 3.41 3.41 0 0 1 3.537 3.182Zm-2.462 4.634A15.57 15.57 0 0 1 1.15 13.569c-.871-.613-1.473.247-.904 1.01a14.44 14.44 0 0 0 6.043 4.086c-2.032 6.924 1.688 10.15 4.623 10.139a2.86 2.86 0 0 0 3.064-3.097v-5.494c.683.203 1.386.33 2.097.376a4.355 4.355 0 0 0 4.354-2.644c.591-1.42-.42-1.828-1.204-.742-1.516 2.085-3.462 1.655-5.472-.27-.549-.504-.85-.644-2.258-.569z" clip-rule="evenodd"/></g><defs><clipPath id="a"><path fill="white" d="M0 0h28.664v28.814H0z"/></clipPath></defs></svg>