<!-- SPDX-FileCopyrightText: undefined SPDX-License-Identifier: undefined -->
<svg xmlns="http://www.w3.org/2000/svg" viewBox="0 0 16 16"><path d="M8.003 15.995a7 7 0 0 1-.445-.013c-2.093-.113-4.089-1.021-5.476-2.487A7.98 7.98 0 0 1-.105 7.986a7.97 7.97 0 0 1 2.199-5.504A7.97 7.97 0 0 1 7.474 0a.48.48 0 0 1 .371.137c.1.094.156.226.156.363v3.21a.5.5 0 0 1-.375.484 1.08 1.08 0 1 0 1.137.403.5.5 0 0 1 .804-.594A2.081 2.081 0 0 1 7.366 7.25a2.081 2.081 0 0 1-.367-3.889V1.047a6.97 6.97 0 0 0-4.181 2.124A6.98 6.98 0 0 0 .894 7.988a6.97 6.97 0 0 0 1.914 4.819c1.212 1.283 2.963 2.076 4.804 2.177a6.98 6.98 0 0 0 4.913-1.653 6.98 6.98 0 0 0 2.429-4.583 6.98 6.98 0 0 0-1.388-4.999 7 7 0 0 0-4.009-2.588.5.5 0 0 1 .223-.975 8.005 8.005 0 0 1 6.168 8.669 7.97 7.97 0 0 1-2.776 5.237 7.96 7.96 0 0 1-5.169 1.902Zm3.006-3.134c-.256 0-.515-.054-.758-.163a1.85 1.85 0 0 1-1.079-1.834 1.85 1.85 0 0 1 1.367-1.631.499.499 0 1 1 .256.966.844.844 0 1 0 .972.44.5.5 0 0 1 .895-.447 1.845 1.845 0 0 1-1.651 2.668Zm-6.082 0c-.256 0-.515-.054-.758-.163a1.85 1.85 0 0 1-1.079-1.834 1.85 1.85 0 0 1 1.367-1.631.499.499 0 1 1 .256.966.844.844 0 1 0 .972.44.5.5 0 1 1 .895-.447 1.846 1.846 0 0 1-1.651 2.668Z"/></svg>