<!-- SPDX-FileCopyrightText: © 2025 Schneider Electric SPDX-License-Identifier: LicenseRef-Proprietary -->
<svg xmlns="http://www.w3.org/2000/svg" viewBox="0 0 16 16"><path d="M12.5 15H9.578c1.175-.281 2.197-.618 2.646-1.002a.5.5 0 0 0 .243-.401v-.034c0-.413-.027-1.117-4.836-1.876 1.871-.334 3.906-.814 4.594-1.402a.5.5 0 0 0 .241-.4V9.85c0-.413-.028-1.116-4.837-1.875 1.871-.334 3.907-.814 4.595-1.402a.5.5 0 0 0 .242-.404v-.032c0-.413-.026-1.116-4.837-1.875 1.871-.334 3.907-.814 4.595-1.402a.5.5 0 0 0 .242-.404v-.032c0-.329-.017-.843-2.46-1.422h2.493a.5.5 0 0 0 0-1H4.5a.5.5 0 0 0-.293.095L4.038.078a.507.507 0 0 0-.552.442.5.5 0 0 0 .442.552c3.938.437 6.334.939 7.224 1.302-1.158.425-4.368 1.099-7.214 1.416a.497.497 0 0 0-.455.501.5.5 0 0 0 .15.355.5.5 0 0 0 .305.14c3.932.437 6.325.939 7.214 1.301-1.158.425-4.368 1.099-7.214 1.416a.497.497 0 0 0-.455.501.5.5 0 0 0 .15.355.5.5 0 0 0 .305.14c3.932.437 6.326.939 7.214 1.301-1.158.425-4.368 1.1-7.214 1.416a.497.497 0 0 0-.426.663.5.5 0 0 0 .427.332c3.931.436 6.325.938 7.214 1.301-1.16.426-4.375 1.101-7.224 1.417a.5.5 0 0 0 .11.994l.167-.02a.5.5 0 0 0 .295.097h8a.5.5 0 0 0 0-1Z"/></svg>