<!-- SPDX-FileCopyrightText: © 2025 Schneider Electric SPDX-License-Identifier: LicenseRef-Proprietary -->
<svg xmlns="http://www.w3.org/2000/svg" viewBox="0 0 16 16"><path d="M11.352 3H9.5a.5.5 0 0 0 0 1h3.005a.5.5 0 0 0 .5-.501l-.005-3A.5.5 0 0 0 12.5 0h0a.5.5 0 0 0-.499.501l.003 1.73C10.366.456 8.416-.238 6.069.113 4.435.358 2.997 1.267 2.022 2.674A6.78 6.78 0 0 0 .97 7.924a.5.5 0 0 0 .978-.208 5.77 5.77 0 0 1 .895-4.471c.817-1.178 2.015-1.938 3.374-2.142 2.053-.31 3.705.297 5.134 1.898ZM13.5 15H6.29a.29.29 0 0 1-.29-.29V7.5a.5.5 0 0 0-1 0v7.21c0 .711.579 1.29 1.29 1.29h7.21a.5.5 0 0 0 0-1Z"/><path d="M13.71 6H6.5a.5.5 0 0 0 0 1h7.21c.16 0 .29.13.29.29v7.21a.5.5 0 0 0 1 0V7.29C15 6.579 14.421 6 13.71 6Z"/></svg>