<!-- SPDX-FileCopyrightText: © 2025 Schneider Electric SPDX-License-Identifier: LicenseRef-Proprietary -->
<svg xmlns="http://www.w3.org/2000/svg" viewBox="0 0 16 16"><path d="M9.362 12.904a.5.5 0 0 0 .354-.853l-5.93-5.93a.5.5 0 0 0-.707.707l5.93 5.93a.5.5 0 0 0 .354.146Zm2.965-5.929a.5.5 0 0 0 .354-.853L9.716 3.157a.5.5 0 0 0-.707.707l2.965 2.965a.5.5 0 0 0 .354.146ZM3.079 9.086a.5.5 0 0 0 0 .707l2.965 2.965a.5.5 0 0 0 .708 0 .5.5 0 0 0 0-.707L3.787 9.086a.5.5 0 0 0-.707 0Z"/><path d="M14.158 1H1.842A.843.843 0 0 0 1 1.842v12.316c0 .464.378.842.842.842H9.5a.5.5 0 0 0 0-1H2V2h12v12h-2.5a.5.5 0 0 0 0 1h2.658a.843.843 0 0 0 .842-.842V1.842A.843.843 0 0 0 14.158 1Z"/><path d="M12.327 12.904a.5.5 0 0 0 .354-.853L3.786 3.156a.5.5 0 0 0-.707.707l8.895 8.895a.5.5 0 0 0 .354.146ZM6.044 3.156a.5.5 0 0 0 0 .707l5.929 5.93a.5.5 0 0 0 .708 0 .5.5 0 0 0 0-.707l-5.93-5.93a.5.5 0 0 0-.707 0Z"/></svg>