<!-- SPDX-FileCopyrightText: © 2025 Schneider Electric SPDX-License-Identifier: LicenseRef-Proprietary -->
<svg xmlns="http://www.w3.org/2000/svg" viewBox="0 0 16 16"><path d="M2 7.29c0-.16.13-.29.29-.29H9.5a.5.5 0 0 0 0-1H2.29C1.579 6 1 6.579 1 7.29v7.21a.5.5 0 0 0 1 0z"/><path d="M13.978 2.673C13.002 1.267 11.565.357 9.931.113 7.54-.243 5.587.41 3.997 2.115L4 .501A.5.5 0 0 0 3.501 0h0a.5.5 0 0 0-.5.499l-.005 3a.5.5 0 0 0 .5.501h3.005a.5.5 0 0 0 0-1H4.547C5.946 1.383 7.628.777 9.783 1.102c1.359.203 2.557.964 3.374 2.142a5.77 5.77 0 0 1 .895 4.471.5.5 0 0 0 .978.208 6.78 6.78 0 0 0-1.052-5.25ZM10.5 7a.5.5 0 0 0-.5.5v7.21c0 .16-.13.29-.29.29H2.5a.5.5 0 0 0 0 1h7.21c.711 0 1.29-.579 1.29-1.29V7.5a.5.5 0 0 0-.5-.5Z"/></svg>