<!-- SPDX-FileCopyrightText: © 2024 Schneider Electric SPDX-License-Identifier: LicenseRef-Proprietary -->
<svg xmlns="http://www.w3.org/2000/svg" fill="currentColor" viewBox="0 0 20 20"><path d="M8.89 1H1.5a.5.5 0 0 0-.5.5v7.39c0 .28.22.5.5.5h7.39a.5.5 0 0 0 .5-.5V1.5a.5.5 0 0 0-.5-.5ZM2 8.39V2h5.94L5.05 6.07a14 14 0 0 0-1.1-1.76.5.5 0 0 0-.7-.07.5.5 0 0 0-.07.7c.6.74 1.35 2.29 1.36 2.31q.13.25.41.28c.17 0 .35-.07.45-.21l3-4.23v5.3zm6.89 2.22H1.5a.5.5 0 0 0-.5.5v7.39c0 .28.22.5.5.5h7.39a.5.5 0 0 0 .5-.5v-7.39a.5.5 0 0 0-.5-.5ZM8.39 18H2v-6.39h6.39zm10.11-7.39h-7.39a.5.5 0 0 0-.5.5v7.39c0 .28.22.5.5.5h7.39a.5.5 0 0 0 .5-.5v-7.39a.5.5 0 0 0-.5-.5ZM11.61 18v-6.39h5.94l-2.89 4.07c-.29-.55-.72-1.29-1.1-1.76a.5.5 0 0 0-.7-.07.5.5 0 0 0-.07.7c.6.74 1.35 2.29 1.36 2.31q.13.25.41.28c.17 0 .35-.07.45-.21l3-4.23V18zM18.5 1h-7.39a.5.5 0 0 0-.5.5v7.39c0 .28.22.5.5.5h7.39a.5.5 0 0 0 .5-.5V1.5a.5.5 0 0 0-.5-.5ZM18 8.39h-6.39V2H18z"/></svg>