<!-- SPDX-FileCopyrightText: © 2025 Schneider Electric SPDX-License-Identifier: LicenseRef-Proprietary -->
<svg xmlns="http://www.w3.org/2000/svg" viewBox="0 0 16 16"><path d="M16 12.733V7.5q.001-.03-.004-.06V6.336c.012-.09.101-.896-.479-1.56-.428-.488-1.082-.748-1.947-.771L13.501 4h-7a.5.5 0 0 0 0 1h6.882l.055.003c.625 0 1.069.143 1.32.424.294.329.247.777.243.843v5.23q-.001.03.004.059V12.8c.005.031.094.766-.683 1.063a.5.5 0 1 0 .358.934 2 2 0 0 0 1.321-2.063ZM10.5 14H2.563c-.625 0-1.069-.143-1.32-.424-.294-.328-.248-.777-.243-.843V8.498L.996 6.097s-.047-.453.247-.781c.251-.281.696-.424 1.32-.424a.5.5 0 0 0 0-1c-.931 0-1.631.26-2.08.773a2.03 2.03 0 0 0-.484 1.494l.004 6.508c-.012.09-.101.896.479 1.56.433.496 1.101.756 1.986.772h8.03a.5.5 0 0 0 0-1Z"/><path d="M10.442 5.995c-1.604 0-2.444 1.156-2.444 2.289l-.042 2.286c0 1.156-.807 1.399-1.484 1.399-.442 0-1.47-.137-1.47-1.399L5 1.785l1.006 1.006a.5.5 0 0 0 .707-.707L4.975.346A.5.5 0 0 0 4.499 0h-.077a.5.5 0 0 0-.354.146L2.13 2.084a.5.5 0 0 0 .707.707l1.162-1.162.002 8.94c0 1.657 1.24 2.399 2.47 2.399 1.509 0 2.484-.941 2.484-2.391l.042-2.286c0-.481.305-1.297 1.444-1.297 1.07 0 1.558.678 1.558 1.309v7.196a.5.5 0 0 0 1 0V8.303c0-1.119-.896-2.309-2.558-2.309Z"/></svg>