<!-- SPDX-FileCopyrightText: © 2025 Schneider Electric SPDX-License-Identifier: LicenseRef-Proprietary -->
<svg xmlns="http://www.w3.org/2000/svg" viewBox="0 0 16 16"><path d="M7.164 7.896a.5.5 0 0 0 .708 0l3.17-3.17a.5.5 0 0 0-.707-.707L8.001 6.353V.5a.5.5 0 0 0-1 0v5.818L4.742 4.059a.5.5 0 0 0-.707.707l3.129 3.129ZM13.105 9H2.895A.896.896 0 0 0 2 9.895v1.228c0 .484.402.878.896.878H3.5a.5.5 0 0 0 0-1H3v-1h10v1H5.5a.5.5 0 0 0 0 1h7.605a.896.896 0 0 0 .895-.895V9.895A.896.896 0 0 0 13.105 9Zm0 4H2.895a.896.896 0 0 0-.895.895v1.217c0 .49.402.889.896.889H3.5a.5.5 0 0 0 0-1H3v-1h10v1H5.5a.5.5 0 0 0 0 1h7.605a.896.896 0 0 0 .895-.895v-1.211a.896.896 0 0 0-.895-.895Z"/></svg>