<!-- SPDX-FileCopyrightText: © 2025 Schneider Electric SPDX-License-Identifier: LicenseRef-Proprietary -->
<svg xmlns="http://www.w3.org/2000/svg" viewBox="0 0 16 16"><path d="M14.5.006h-12a.494.494 0 1 0 0 .988h11.506v9.32l-6.007 4.564-6.005-4.564V1.493a.494.494 0 1 0-.988 0v9.066c0 .154.072.3.195.394l6.499 4.94a.495.495 0 0 0 .598 0l6.501-4.94a.5.5 0 0 0 .195-.394V.5A.494.494 0 0 0 14.5.006Z"/><path d="M4.408 5.3c.014-.006.115-.032.369.013l1.024.211A.495.495 0 1 0 6 4.555l-1.038-.213c-.454-.08-.798-.045-1.057.107-.252.154-.435.417-.566.874q-.157.558-.006.918c.104.268.35.496.796.727l1.205.556-.697 1.236c-.219.415-.291.765-.218 1.075.055.22.204.53.577.738l.09.059q.42.242.778.25c.42.006.767-.276 1.007-.518l.98-1.074.995 1.092c.338.337.657.501.962.501h.037c.281-.006.548-.1.84-.31.262-.175.446-.407.546-.687.117-.319.062-.688-.178-1.143l-.703-1.22 1.243-.567c.425-.222.671-.454.773-.726.099-.256.096-.564-.003-.896l-.032-.121a1.4 1.4 0 0 0-.533-.736c-.266-.174-.62-.219-1.098-.134l-1.326.276-.125-1.303c-.079-.479-.236-.802-.489-.993-.224-.163-.508-.245-.93-.245-.356 0-.648.085-.868.255-.235.183-.384.495-.469 1.005l-.058.49a.494.494 0 1 0 .982.116l.055-.465c.048-.281.103-.365.098-.365.011-.008.079-.047.348-.047.119 0 .212.02.244.042 0 0 .065.078.108.334l.172 1.82a.494.494 0 0 0 .593.438l1.852-.386q.16-.027.245-.025c.099 0 .124.016.119.012.058.04.106.115.132.189l.027.106c.057.192.038.267.04.267-.007.01-.065.087-.29.205l-1.714.781a.5.5 0 0 0-.224.697l.965 1.674c.125.236.114.328.114.329a.4.4 0 0 1-.164.199l-.084.056a.4.4 0 0 1-.225.09s-.092-.021-.27-.196L8.215 8.224a.49.49 0 0 0-.73 0L6.156 9.682c-.173.173-.262.209-.261.212a.7.7 0 0 1-.289-.102L5.51 9.73c-.115-.065-.128-.116-.13-.126 0 0-.015-.106.125-.371l.954-1.691a.496.496 0 0 0-.223-.692l-1.67-.771c-.244-.127-.309-.204-.312-.204-.002-.01-.016-.093.059-.367.047-.161.096-.207.097-.21Z"/></svg>