<!-- SPDX-FileCopyrightText: © 2025 Schneider Electric SPDX-License-Identifier: LicenseRef-Proprietary -->
<svg xmlns="http://www.w3.org/2000/svg" viewBox="0 0 16 16"><path d="M3.648 15.654a.94.94 0 0 1-.562-.176c-.327-.237-.464-.671-.377-1.189l.701-4.086L.441 7.312c-.377-.368-.522-.799-.397-1.185.125-.385.496-.65 1.018-.725a.493.493 0 0 1 .566.423.5.5 0 0 1-.423.566.6.6 0 0 0-.198.057c.02.017.055.072.132.147l.316.308 1.671-1.651a.5.5 0 0 1 .703.711L2.172 7.601l.423.412 5.018-4.995a.5.5 0 1 1 .705.709L3.311 8.712l.432.42 4.6-4.599a.5.5 0 0 1 .707.707L4.421 9.869a.5.5 0 0 1 .019.244l-.113.659 4.844-4.838a.502.502 0 0 1 .708.708l-5.805 5.796a.3.3 0 0 1-.038.034l-.168.978 7.03-7.022a.5.5 0 0 1 .707.707l-7.144 7.136 1.742-.916.044-.051 6.591-6.583a.502.502 0 0 1 .708.708l-5.178 5.17.525.276 1.546-1.547a.5.5 0 0 1 .707.707l-1.327 1.327.521.273.437-.541a.5.5 0 1 1 .778.629l-.313.387.894.47c.095.05.158.065.193.07-.006-.025-.002-.091-.02-.197l-.747-4.343a.5.5 0 0 1 .144-.443l3.154-3.076a.6.6 0 0 0 .127-.163c-.026-.002-.087-.027-.194-.042l-4.361-.631a.5.5 0 0 1-.376-.273L8.105 1.53a.6.6 0 0 0-.116-.171c-.01.024-.052.075-.1.171l-.453.91a.5.5 0 1 1-.896-.446l.452-.908c.232-.47.597-.741 1.002-.741h0c.404 0 .771.271 1.004.742l1.835 3.717 4.101.594c.521.076.892.341 1.017.726s-.02.817-.396 1.185l-2.966 2.893.702 4.083c.089.52-.048.954-.375 1.192-.328.238-.783.236-1.249-.011l-3.669-1.928-3.667 1.93a1.5 1.5 0 0 1-.687.187Z"/></svg>