<!-- SPDX-FileCopyrightText: © 2025 Schneider Electric SPDX-License-Identifier: LicenseRef-Proprietary -->
<svg xmlns="http://www.w3.org/2000/svg" viewBox="0 0 16 16"><path d="m1.452 4.935-.277 1.621c-.058.335.042.625.275.793.12.087.26.131.409.131a.9.9 0 0 0 .43-.114L3.742 6.6l1.453.765c.3.158.606.153.839-.017s.333-.458.275-.793l-.277-1.622 1.175-1.148c.244-.238.333-.531.243-.804-.089-.273-.333-.458-.668-.506l-1.625-.237L4.43.763c-.15-.305-.401-.48-.688-.48h0c-.288 0-.539.175-.688.48l-.302.612a.5.5 0 0 0 .227.669.496.496 0 0 0 .669-.227l.094-.189.634 1.288c.073.148.214.25.377.274l1.42.207-1.028 1.004a.5.5 0 0 0-.144.442l.242 1.417-1.269-.669a.5.5 0 0 0-.467 0l-1.269.668.242-1.417a.5.5 0 0 0-.144-.442L1.308 3.396l1.012-.147a.5.5 0 0 0-.143-.989l-1.476.214c-.336.048-.58.233-.669.506s-.001.566.242.805L1.45 4.933Zm8.517 0-.277 1.622c-.058.335.043.625.276.793.12.087.26.131.408.131a.9.9 0 0 0 .43-.115l1.453-.765 1.453.765c.302.158.607.153.839-.017.232-.168.333-.458.275-.793l-.277-1.622 1.175-1.148c.243-.237.332-.53.243-.803s-.333-.458-.669-.507a.495.495 0 0 0-.561.424.5.5 0 0 0 .091.363l-1.167 1.14a.5.5 0 0 0-.143.441l.242 1.417-1.269-.669a.5.5 0 0 0-.467 0l-1.269.668.243-1.417a.5.5 0 0 0-.143-.442L9.827 3.397l1.42-.207a.5.5 0 0 0 .377-.274l.635-1.288.634 1.288a.5.5 0 1 0 .897-.441L12.947.764c-.3-.61-1.076-.611-1.378 0l-.727 1.475-1.624.236c-.336.049-.58.233-.669.507s0 .566.243.803l1.176 1.148Zm-3.188 5.776a.5.5 0 0 0-.47.787l-1.166 1.14a.5.5 0 0 0-.144.441l.242 1.417-1.269-.668a.5.5 0 0 0-.466 0l-1.269.669.242-1.418a.5.5 0 0 0-.144-.441l-1.028-1.004 1.42-.207a.5.5 0 0 0 .376-.274l.635-1.287.634 1.287a.499.499 0 1 0 .897-.441l-.842-1.71c-.302-.612-1.077-.611-1.378 0l-.726 1.474-1.624.236c-.336.049-.58.233-.669.507-.089.272 0 .565.243.804l1.176 1.148-.277 1.622c-.058.335.043.624.275.793a.7.7 0 0 0 .409.131.9.9 0 0 0 .43-.114l1.453-.766 1.454.766c.301.157.606.152.838-.017s.333-.458.275-.794l-.277-1.621 1.175-1.147c.244-.238.333-.531.244-.805-.089-.272-.333-.458-.669-.507Zm7.215 2.3a.5.5 0 0 0 .707.008l1.022-.997c.243-.237.331-.53.242-.804-.089-.272-.333-.458-.669-.507l-1.625-.236-.726-1.474c-.3-.61-1.078-.611-1.377 0l-.727 1.474-1.624.236c-.336.049-.58.233-.669.507-.089.273 0 .566.243.804l1.176 1.148-.277 1.622c-.058.335.043.624.275.793a.7.7 0 0 0 .409.131.9.9 0 0 0 .43-.114l1.453-.766 1.454.766c.301.157.606.152.838-.017s.333-.458.275-.794l-.115-.672a.5.5 0 1 0-.985.17l.035.207-1.269-.668a.5.5 0 0 0-.466 0l-1.269.669.242-1.418a.5.5 0 0 0-.144-.441l-1.028-1.004 1.42-.207a.5.5 0 0 0 .376-.274l.635-1.286.634 1.286c.073.148.214.25.377.274l1.421.207-.686.67a.5.5 0 0 0-.009.707Z"/></svg>