<!-- SPDX-FileCopyrightText: © 2025 Schneider Electric SPDX-License-Identifier: LicenseRef-Proprietary -->
<svg xmlns="http://www.w3.org/2000/svg" viewBox="0 0 16 16"><path d="M7.21 1.083c.652.28.789.808.789 1.203v4.215a.5.5 0 0 0 1 0V2.285c0-.968-.508-1.742-1.395-2.122a.5.5 0 1 0-.395.919Z"/><path d="M3 9.5a.5.5 0 0 0 .496.5l.866.004a1.95 1.95 0 0 0 1.087-.471c.816.613 2.046.61 2.861-.013.819.629 2.06.626 2.876 0 .818.625 2.058.626 2.876 0 .409.313.912.486 1.438.486a.5.5 0 0 0 0-1c-.408 0-.792-.18-1.054-.495a.5.5 0 0 0-.384-.18h0a.5.5 0 0 0-.384.181c-.522.628-1.584.628-2.107 0a.517.517 0 0 0-.769 0c-.521.628-1.582.63-2.107 0a.5.5 0 0 0-.768 0c-.524.629-1.587.628-2.107 0a.5.5 0 0 0-.384-.181h0a.5.5 0 0 0-.384.18c-.275.332-.49.466-.735.495l-.314-.003V5.499a.5.5 0 0 0-.5-.5h-1.5V2.893c0-.852.564-1.615 1.341-1.814.714-.182 1.453-.045 1.983.367.436.338.676.821.676 1.361V7.5a.5.5 0 0 0 1 0V2.807c0-.855-.377-1.62-1.063-2.151-.775-.6-1.839-.803-2.847-.545C1.861.427 1 1.571 1 2.894V5H.5a.5.5 0 0 0 0 1H3zm-.161 3.433a2.55 2.55 0 0 0 1.333-.542c.903.717 2.301.717 3.205 0 .904.717 2.302.717 3.205 0 .905.718 2.302.716 3.205 0a2.58 2.58 0 0 0 1.603.558.5.5 0 0 0 0-1c-.472 0-.916-.209-1.219-.572a.516.516 0 0 0-.769 0c-.604.727-1.831.727-2.437 0a.5.5 0 0 0-.384-.181h0a.5.5 0 0 0-.385.181c-.602.729-1.831.727-2.435 0a.517.517 0 0 0-.77 0c-.603.728-1.832.727-2.436 0a.517.517 0 0 0-.77 0c-.265.32-.639.521-1.051.563a.5.5 0 1 0 .103.994ZM15.487 15c-.472 0-.916-.208-1.219-.572a.5.5 0 0 0-.384-.18h0a.5.5 0 0 0-.384.181c-.604.726-1.83.726-2.437 0a.5.5 0 0 0-.384-.18h0a.5.5 0 0 0-.384.181c-.602.728-1.831.727-2.435 0a.502.502 0 0 0-.769 0c-.605.728-1.833.726-2.437 0a.517.517 0 0 0-.77 0c-.266.32-.639.521-1.05.562a.5.5 0 0 0-.447.548.493.493 0 0 0 .548.446 2.55 2.55 0 0 0 1.334-.541c.904.715 2.3.716 3.205 0 .903.717 2.302.718 3.205 0 .906.718 2.301.716 3.205 0a2.58 2.58 0 0 0 1.603.557.5.5 0 0 0 0-1Z"/></svg>