<!-- SPDX-FileCopyrightText: © 2025 Schneider Electric SPDX-License-Identifier: LicenseRef-Proprietary -->
<svg xmlns="http://www.w3.org/2000/svg" viewBox="0 0 16 16"><path d="M12.5 7a.5.5 0 0 0 .5-.5v-2a.5.5 0 0 0-.5-.5h-10a.5.5 0 0 0-.5.5v7a.5.5 0 0 0 .5.5h10a.5.5 0 0 0 .5-.5v-2a.5.5 0 0 0-1 0V11H3V5h9v1.5a.5.5 0 0 0 .5.5Z"/><path d="M15.5 2H.5a.5.5 0 0 0-.5.5v11a.5.5 0 0 0 .5.5h2a.5.5 0 0 0 0-1H1V3h14v10H4.5a.5.5 0 0 0 0 1h11a.5.5 0 0 0 .5-.5v-11a.5.5 0 0 0-.5-.5Z"/><path d="M13.953 8.705a.66.66 0 0 0 .37-.228.6.6 0 0 0 .093-.221.5.5 0 0 0-.064-.405.6.6 0 0 0-.152-.178.66.66 0 0 0-.434-.104.5.5 0 0 0-.352.244.5.5 0 0 0-.122.417.576.576 0 0 0 .661.473Z"/></svg>