<!-- SPDX-FileCopyrightText: © 2025 Schneider Electric SPDX-License-Identifier: LicenseRef-Proprietary -->
<svg xmlns="http://www.w3.org/2000/svg" viewBox="0 0 16 16"><path d="M13.446 4h-1.895c-.352 0-.8-.294-.939-.616l-.071-.166c-.296-.684-1.112-1.219-1.857-1.219H7.565c-.752 0-1.556.548-1.83 1.248l-.054.138c-.126.321-.555.614-.9.614H2.72C1.246 3.999 0 5.979 0 8.324c0 2.412 1.368 3.675 2.72 3.675.112 0 .28.199.28.5 0 .869.424 1.5 1.009 1.5.514 0 1.152-.498 1.528-.962l.362-.446c.251-.31.843-.592 1.241-.592h1.61c.397 0 .985.283 1.233.593l.349.438c.386.481 1.056.969 1.592.969.613 0 1.076-.645 1.076-1.5v-1a.5.5 0 0 0-1 0v1c0 .31-.109.488-.074.5-.125-.008-.529-.239-.812-.593l-.349-.438c-.442-.552-1.309-.969-2.015-.969H7.14c-.706 0-1.573.413-2.018.962l-.362.446a2.3 2.3 0 0 1-.67.562 1.1 1.1 0 0 1-.09-.47c0-.827-.574-1.5-1.28-1.5-.775 0-1.558-.755-1.698-2.204.657-.144.978-.48 1.015-.522a.42.42 0 0 1 .31-.146c.149 0 .228.048.313.139.057.06.584.588 1.512.588s1.454-.528 1.511-.588a.45.45 0 0 1 .65 0c.057.06.584.588 1.512.588s1.453-.528 1.51-.588a.45.45 0 0 1 .65 0c.057.06.584.588 1.511.588s1.454-.528 1.512-.588c.087-.092.203-.143.325-.143s.237.051.325.144c.052.055.5.503 1.289.578-.088.787-.356 1.407-.767 1.748a.499.499 0 1 0 .639.769c.748-.621 1.16-1.725 1.16-3.106 0-2.346-1.146-4.255-2.554-4.255Zm.958 3.579a1.44 1.44 0 0 0-2.097-.006c-.012.012-.291.282-.791.282s-.779-.271-.786-.276a1.437 1.437 0 0 0-2.096-.005c-.012.012-.291.282-.79.282s-.78-.27-.786-.276c-.557-.587-1.55-.582-2.096-.005-.012.012-.291.282-.791.282s-.78-.271-.787-.276a1.37 1.37 0 0 0-1.051-.451 1.4 1.4 0 0 0-1.031.466.9.9 0 0 1-.273.159c.167-1.567.993-2.753 1.689-2.753h2.061c.752 0 1.557-.548 1.831-1.248l.054-.138c.126-.321.555-.614.899-.614h1.119c.352 0 .799.294.939.616l.071.166c.296.684 1.112 1.219 1.857 1.219h1.895c.663 0 1.426 1.211 1.539 2.839-.371-.058-.576-.256-.581-.26Z"/></svg>