<!-- SPDX-FileCopyrightText: © 2025 Schneider Electric SPDX-License-Identifier: LicenseRef-Proprietary -->
<svg xmlns="http://www.w3.org/2000/svg" viewBox="0 0 16 16"><path d="m6 9.931-.005-8.177C5.995-.549 2-.549 2 1.754v2.753a.5.5 0 0 0 1 0V1.753C3 1.158 3.627 1 3.998 1s.998.159.998.754l.005 8.485q0 .118.053.224c.053.106.211.225.32.271.716.306 1.079 1.037 1.079 2.175C6.453 14.273 4.897 15 3.774 15c-1.006 0-2.422-.633-2.422-2.039 0-1.99 1.214-2.236 1.189-2.24a.5.5 0 0 0 .5-.505l-.035-3.208h.495a.5.5 0 0 0 0-1h-1a.5.5 0 0 0-.5.505l.036 3.342c-.667.288-1.686 1.108-1.686 3.106C.351 14.863 2.091 16 3.773 16c1.769 0 3.679-1.182 3.679-3.091 0-1.013-.256-2.317-1.452-2.979Zm8.354-7.256c-.782 0-1.419.637-1.419 1.419s.637 1.419 1.419 1.419 1.419-.637 1.419-1.419-.637-1.419-1.419-1.419Zm0 1.839a.42.42 0 1 1 .001-.839.42.42 0 0 1-.001.839Zm-2.859 5.291a2.47 2.47 0 0 1-3.318-2.319 2.472 2.472 0 0 1 3.249-2.343.5.5 0 0 0 .315-.949 3.473 3.473 0 0 0-4.565 3.292 3.472 3.472 0 0 0 4.66 3.258.5.5 0 0 0-.343-.94Z"/></svg>