<!-- SPDX-FileCopyrightText: © 2025 Schneider Electric SPDX-License-Identifier: LicenseRef-Proprietary -->
<svg xmlns="http://www.w3.org/2000/svg" viewBox="0 0 16 16"><path d="M4 7.5a.5.5 0 0 0-.5-.5h-1V6a.5.5 0 0 0-1 0v1h-1a.5.5 0 0 0 0 1h1v1a.5.5 0 0 0 1 0V8h1a.5.5 0 0 0 .5-.5Z"/><path d="m9 9.924-.004-8.177c0-2.303-3.995-2.303-3.995 0V4.5a.5.5 0 0 0 1 0V1.747c0-.595.627-.753.998-.753s.998.159.998.754l.005 8.485q0 .118.053.224c.053.105.211.225.32.271.716.306 1.079 1.037 1.079 2.175 0 1.364-1.556 2.091-2.679 2.091-1.006 0-2.422-.633-2.422-2.039 0-1.99 1.214-2.237 1.189-2.24a.5.5 0 0 0 .5-.505l-.035-3.208h.495a.5.5 0 0 0 0-1h-1a.5.5 0 0 0-.5.505l.036 3.342c-.667.288-1.686 1.108-1.686 3.106 0 1.902 1.74 3.039 3.422 3.039 1.769 0 3.679-1.182 3.679-3.091 0-1.013-.256-2.317-1.452-2.979Zm6.314-7.195c-.398-.7-.687-1.206-.31-2.019a.5.5 0 0 0-.908-.42c-.593 1.28-.093 2.159.349 2.934.462.811.861 1.511.219 2.818a.499.499 0 1 0 .898.44c.875-1.782.252-2.875-.248-3.753Z"/><path d="M13.1.71a.5.5 0 0 0-.907-.421c-.594 1.281-.094 2.159.348 2.934.462.811.861 1.512.22 2.818a.499.499 0 1 0 .898.44c.874-1.782.252-2.875-.248-3.753-.399-.7-.687-1.206-.31-2.019Z"/><path d="M11.192.71a.5.5 0 0 0-.907-.421c-.593 1.28-.095 2.159.346 2.934.46.811.858 1.512.217 2.819a.499.499 0 1 0 .898.44c.874-1.782.253-2.875-.246-3.753-.397-.7-.685-1.206-.308-2.019Z"/></svg>