<!-- SPDX-FileCopyrightText: © 2025 Schneider Electric SPDX-License-Identifier: LicenseRef-Proprietary -->
<svg xmlns="http://www.w3.org/2000/svg" viewBox="0 0 16 16"><path d="m7 9.931-.005-8.177C6.995-.549 3-.549 3 1.754v2.798a.5.5 0 0 0 1 0V1.753C4 1.158 4.627 1 4.998 1c.281 0 .548.078.731.214a.63.63 0 0 1 .267.54l.005 8.485q0 .118.053.224c.053.106.211.225.32.271.716.306 1.079 1.037 1.079 2.175C7.453 14.273 5.897 15 4.774 15c-1.006 0-2.422-.633-2.422-2.039 0-1.99 1.214-2.236 1.189-2.24a.5.5 0 0 0 .5-.505l-.035-3.164h.495a.5.5 0 0 0 0-1h-1a.503.503 0 0 0-.5.505l.036 3.298c-.667.288-1.686 1.108-1.686 3.106 0 1.902 1.74 3.039 3.422 3.039 1.769 0 3.679-1.182 3.679-3.091 0-1.013-.256-2.317-1.452-2.979Zm7.587-6.976h-.118c-.657.009-1.15.008-1.587-.739a.5.5 0 1 0-.862.506c.244.416.518.692.801.875a4.7 4.7 0 0 0-1.307 1.436 4.66 4.66 0 0 0-1.467-1.542c1.106-.632 1.956-1.819 1.956-2.991a.5.5 0 0 0-1 0c0 1.147-1.379 2.455-2.589 2.455a.5.5 0 0 0 0 1c1.143 0 2.601 1.551 2.601 2.766a.5.5 0 0 0 1 0c0-1.211 1.444-2.757 2.58-2.766h.01a.5.5 0 0 0 .5-.5c0-.282-.243-.497-.518-.5Z"/></svg>