<!-- SPDX-FileCopyrightText: © 2025 Schneider Electric SPDX-License-Identifier: LicenseRef-Proprietary -->
<svg xmlns="http://www.w3.org/2000/svg" viewBox="0 0 16 16"><path d="M14.371.49a.5.5 0 0 0-.5-.49h-2.32a.5.5 0 0 0-.5.486L10.781 10H8.414l-.181-6.514a.5.5 0 0 0-.5-.486H5.969a.5.5 0 0 0-.5.485L5.274 10H3.26a.5.5 0 0 0-.402.203L1.099 12.59a.5.5 0 0 0-.098.297V15.5a.5.5 0 0 0 1 0v-2.449L3.513 11H5.76a.5.5 0 0 0 .5-.485L6.455 4h.792l.181 6.514a.5.5 0 0 0 .5.486h3.339a.5.5 0 0 0 .5-.486L12.037 1h1.344l.294 14.51c.006.272.229.49.5.49h.01a.5.5 0 0 0 .49-.51z"/></svg>