<!-- SPDX-FileCopyrightText: © 2025 Schneider Electric SPDX-License-Identifier: LicenseRef-Proprietary -->
<svg xmlns="http://www.w3.org/2000/svg" viewBox="0 0 16 16"><path d="m10 9.93-.005-8.176C9.995-.549 6-.549 6 1.754v2.753a.5.5 0 0 0 1 0V1.754C7 1.159 7.627 1 7.998 1s.998.159.998.754l.005 8.485q0 .12.054.227c.053.104.21.222.318.268.716.305 1.079 1.036 1.079 2.175 0 1.365-1.556 2.092-2.679 2.092-1.006 0-2.422-.633-2.422-2.039 0-1.991 1.214-2.237 1.189-2.241a.5.5 0 0 0 .5-.505l-.035-3.208H7.5a.5.5 0 0 0 0-1h-1a.5.5 0 0 0-.5.505l.036 3.342c-.667.288-1.686 1.109-1.686 3.107 0 1.902 1.74 3.039 3.422 3.039 1.769 0 3.679-1.182 3.679-3.092 0-1.014-.256-2.318-1.452-2.979Z"/></svg>