<!-- SPDX-FileCopyrightText: © 2025 Schneider Electric SPDX-License-Identifier: LicenseRef-Proprietary -->
<svg xmlns="http://www.w3.org/2000/svg" viewBox="0 0 16 16"><path d="M15.5 0a.5.5 0 0 0-.5.5V3h-4.343a.6.6 0 0 0-.146.021h0a.5.5 0 0 0-.324.302h0a.5.5 0 0 0-.031.147c-.017.248-.34 5.057-.326 6.329l.031 2.126c-.011.099-.233.322-.423.323-1.237.005-3.591 0-4.632 0h-.487c-.154 0-.274-.243-.274-.555 0-.168.021-.823.054-1.693h4.402a.5.5 0 0 0 0-1H4.136c.065-1.698.149-3.745.196-4.761-.015-.355.054-1.391.551-1.909.213-.222.487-.33.838-.33h5.042c.013-.004.436-.013.75.327a.5.5 0 1 0 .734-.679C11.732 1.092 11.04.976 10.736 1H5.72c-.631 0-1.157.216-1.563.642-.37.387-.575.895-.689 1.358H1V.5a.5.5 0 0 0-1 0v15a.5.5 0 0 0 1 0V7.965h.572a.5.5 0 0 0 0-1H1V4h2.333c-.005.145 0 .233 0 .238-.086 1.826-.289 6.915-.289 7.455 0 .9.536 1.555 1.274 1.555h.486c1.042.002 3.396.005 4.637 0 .366-.002.741-.169 1.028-.46a1.3 1.3 0 0 0 .39-.96l-.03-2.04c-.011-1.014.21-4.516.293-5.788h.798l.08 9.116c.009.237-.052.663-.206.823-.035.036-.075.061-.159.061l-5.079.004c-.268.035-.641-.008-.741-.112a.5.5 0 0 0-.723.691c.502.525 1.415.437 1.527.417h5.016c.345 0 .649-.128.882-.369.51-.531.487-1.45.483-1.538L12.92 4H15v2.965h-.751a.5.5 0 0 0 0 1H15V15.5a.5.5 0 0 0 1 0V.5a.5.5 0 0 0-.5-.5Z"/></svg>