<!-- SPDX-FileCopyrightText: © 2025 Schneider Electric SPDX-License-Identifier: LicenseRef-Proprietary -->
<svg xmlns="http://www.w3.org/2000/svg" viewBox="0 0 16 16"><path d="M14.322 4.93a3.3 3.3 0 0 0 .27-1.317c0-1.812-1.449-3.286-3.23-3.286s-3.23 1.474-3.23 3.286q0 .289.048.57c-1.273.403-2.177 1.611-2.177 3.011 0 1.74 1.392 3.156 3.102 3.156.338 0 .669-.055.981-.161-.176.997-.313 2.657-.18 5.335a.5.5 0 0 0 .499.476h.025a.5.5 0 0 0 .475-.523c-.24-4.819.434-6.109.434-6.11a.5.5 0 0 0-.777-.618 2.06 2.06 0 0 1-1.457.604c-1.159 0-2.102-.967-2.102-2.156 0-1.09.796-2.01 1.851-2.139a.5.5 0 0 0 .411-.662 2.4 2.4 0 0 1-.133-.78c0-1.26 1-2.286 2.23-2.286s2.23 1.025 2.23 2.286c0 .468-.137.917-.396 1.301a.5.5 0 0 0-.054.458.5.5 0 0 0 .343.307c.893.23 1.516 1.05 1.516 1.995 0 1.135-.9 2.058-2.007 2.058a2 2 0 0 1-.41-.043.505.505 0 0 0-.593.386.5.5 0 0 0 .386.593q.305.064.617.064c1.658 0 3.007-1.372 3.007-3.058a3.06 3.06 0 0 0-1.678-2.744Z"/><path d="M5.188 1.728A6.5 6.5 0 0 0 6.573 3.37a.5.5 0 1 0 .65-.76C6.472 1.967 5.905 1.146 5.669.357a.5.5 0 0 0-.965.023c-.207.831-1.232 2.186-2.589 3.015a.5.5 0 0 0-.169.682c.025.042.495.817 1.402 1.153A8 8 0 0 1 .996 7.145a.498.498 0 0 0-.146.762c.106.127.854.995 1.721 1.417-.617.71-1.57 1.701-2.299 2.073a.498.498 0 0 0-.166.754c.051.064 1.199 1.496 3.555 1.692-.06.508-.18 1.103-.369 1.368a.5.5 0 0 0 .815.58c.514-.722.588-2.235.595-2.406a.5.5 0 0 0-.499-.519c-1.448 0-2.399-.547-2.896-.94 1.218-.887 2.473-2.487 2.534-2.565a.501.501 0 0 0-.394-.808c-.382 0-.96-.418-1.416-.853 1.8-1.138 2.584-2.507 2.62-2.57a.503.503 0 0 0-.436-.746c-.491 0-.861-.236-1.098-.455.845-.612 1.592-1.414 2.072-2.201Zm3.304 10.576c-.685.372-1.463.561-2.312.561a.5.5 0 0 0-.361.153.5.5 0 0 0-.139.367c.007.17.082 1.684.595 2.405a.5.5 0 0 0 .698.117.5.5 0 0 0 .117-.697c-.189-.266-.31-.86-.37-1.368a5.65 5.65 0 0 0 2.249-.659.5.5 0 1 0-.477-.879Z"/></svg>