<!-- SPDX-FileCopyrightText: © 2025 Schneider Electric SPDX-License-Identifier: LicenseRef-Proprietary -->
<svg xmlns="http://www.w3.org/2000/svg" viewBox="0 0 16 16"><path d="M2.079 14.008a.5.5 0 0 0 .103-.011l3.913-.814a.5.5 0 0 0 .373-.331l.273-.822.109.007a2.44 2.44 0 0 0 2.392 1.972 2.442 2.442 0 0 0 0-4.882c-.525 0-1.044.175-1.468.489l-.239-.12 2.196-7.011L12.005.913a.499.499 0 1 0-.568-.822l-2.416 1.67a.5.5 0 0 0-.193.262l-2.374 7.58a.5.5 0 0 0 .252.597l.906.454q.048.025.098.04a.51.51 0 0 0 .499-.135 1.5 1.5 0 0 1 1.034-.431 1.44 1.44 0 0 1 0 2.882 1.44 1.44 0 0 1-1.437-1.438.5.5 0 0 0-.47-.503l-.912-.062a.48.48 0 0 0-.509.341l-.305.917-3.631.756a.5.5 0 0 0 .101.989ZM15.5 15H.5a.5.5 0 0 0 0 1h15a.5.5 0 0 0 0-1Z"/></svg>