<!-- SPDX-FileCopyrightText: © 2025 Schneider Electric SPDX-License-Identifier: LicenseRef-Proprietary -->
<svg xmlns="http://www.w3.org/2000/svg" viewBox="0 0 16 16"><path d="m1.992 12.483 2.124-2.179a.5.5 0 1 0-.716-.698L1 12.068V.5a.5.5 0 0 0-1 0v15a.5.5 0 0 0 1 0v-2.595l2.372 2.378a.501.501 0 0 0 .707-.708l-2.088-2.093Zm13.86-9.33L13.415.743a.5.5 0 1 0-.703.711L14.274 3H7.72C6.409 3 5.343 4.129 5.343 5.518 5.343 6.887 6.409 8 7.72 8h1.209c.047 0 .09-.015.133-.027.036.008.07.022.109.022.684 0 1.305.649 1.478 1.543a.5.5 0 1 0 .982-.189c-.268-1.386-1.279-2.354-2.46-2.354-.047 0-.09.015-.133.027C9.002 7.014 8.968 7 8.929 7H7.72c-.76 0-1.377-.665-1.377-1.482C6.343 4.695 6.974 4 7.72 4h6.613l-1.662 1.726a.5.5 0 1 0 .721.693l2.469-2.563a.5.5 0 0 0-.009-.702Zm-4.746 7.793a.5.5 0 0 0-.676.207c-.282.53-.752.847-1.258.847h-.863a.5.5 0 0 0 0 1h.864c.881 0 1.682-.515 2.14-1.378a.5.5 0 0 0-.207-.676Z"/><path d="M6.309 12h-3a.5.5 0 0 0 0 1h3a.5.5 0 0 0 0-1Z"/></svg>