<!-- SPDX-FileCopyrightText: © 2025 Schneider Electric SPDX-License-Identifier: LicenseRef-Proprietary -->
<svg xmlns="http://www.w3.org/2000/svg" viewBox="0 0 16 16"><path d="M4.895 8.733a.497.497 0 0 0-.609.359 3.8 3.8 0 0 0-.123.966 3.86 3.86 0 0 0 2.763 3.685.5.5 0 1 0 .28-.96 2.85 2.85 0 0 1-1.952-3.44.5.5 0 0 0-.359-.609Z"/><path d="M12.436 5.975a.5.5 0 0 0-.832.554c1.035 1.556 1.538 2.823 1.538 3.875C13.142 13.389 10.493 15 8 15s-5.143-1.611-5.143-4.596c0-3.905 3.625-7.765 4.972-9.064.388.774.865 1.404 1.67 2.404a.501.501 0 0 0 .779-.627C9.235 1.821 8.848 1.264 8.466.319L8.448.278a.5.5 0 0 0-.29-.252.5.5 0 0 0-.493.104c-.35.302-5.808 5.097-5.808 10.275 0 3.635 3.165 5.596 6.143 5.596s6.142-1.961 6.142-5.596c0-1.256-.558-2.705-1.706-4.429Z"/></svg>