<!-- SPDX-FileCopyrightText: © 2025 Schneider Electric SPDX-License-Identifier: LicenseRef-Proprietary -->
<svg xmlns="http://www.w3.org/2000/svg" viewBox="0 0 16 16"><path d="M6.515 13.818c-1.719-.069-2.678-.209-3.821-.853a.5.5 0 0 0-.491.871c1.29.727 2.422.887 3.797.959v.704a.5.5 0 0 0 1 0v-1.177a.52.52 0 0 0-.169-.375.5.5 0 0 0-.316-.13Z"/><path d="M13.658.932C12.37.502 10.092 0 7.91 0c-.553 0-1.642.024-2.225.077A.5.5 0 0 0 5.23.59a.5.5 0 0 0 .137.357l2.157 2.277-.8.496a.5.5 0 0 0-.189.638l.535 1.139-1.841-1.218.584-.554a.502.502 0 0 0-.079-.787L2.771 1.079a.5.5 0 0 0-.131-.061h0s0 0 0 0a.5.5 0 0 0-.381.042.5.5 0 0 0-.259.445v9.62c0 .089.023.176.068.252.211.361.541.776 1.228.776.348 0 .681-.11.951-.304.539.387 1.36.387 1.9 0 .539.386 1.36.387 1.901 0 .27.193.602.304.951.304a.5.5 0 0 0 0-1 .6.6 0 0 1-.519-.28.5.5 0 0 0-.431-.248h0a.5.5 0 0 0-.431.247c-.204.348-.836.347-1.039 0a.5.5 0 0 0-.431-.248h0a.5.5 0 0 0-.431.247c-.204.348-.836.347-1.038 0a.5.5 0 0 0-.431-.248h0a.5.5 0 0 0-.432.247.6.6 0 0 1-.519.281c-.114 0-.184-.009-.296-.172V2.404l1.657 1.04-.572.542a.502.502 0 0 0 .068.78l3.852 2.548a.5.5 0 0 0 .728-.63L7.63 4.335l.943-.585a.5.5 0 0 0 .099-.769L6.813 1.018c.405-.013.815-.019 1.097-.019 1.771 0 3.76.372 5.09.772v6.233a.5.5 0 0 0-.318.235c-.169.29-.25.305-.369.305a.6.6 0 0 1-.519-.281c-.179-.307-.685-.307-.863 0-.203.348-.834.348-1.037 0a.5.5 0 0 0-.431-.248h0a.5.5 0 0 0-.431.247c-.205.347-.835.349-1.039 0a.5.5 0 0 0-.431-.248h0a.5.5 0 0 0-.432.247c-.203.348-.834.349-1.038 0a.5.5 0 0 0-.431-.248h0a.5.5 0 0 0-.431.247.6.6 0 0 1-.521.282.5.5 0 0 0 0 1c.348 0 .681-.11.951-.305.54.389 1.361.389 1.901 0 .54.389 1.36.389 1.901 0 .54.389 1.361.388 1.901 0 .492.353 1.245.36 1.637.115v3.759c-1.072.34-2.081.561-3.532.619a.5.5 0 0 0-.468.499v1.267a.5.5 0 0 0 1 0v-.793c1.446-.098 2.491-.364 3.658-.754a.5.5 0 0 0 .342-.475V1.406a.5.5 0 0 0-.342-.474Z"/></svg>