<!-- SPDX-FileCopyrightText: © 2025 Schneider Electric SPDX-License-Identifier: LicenseRef-Proprietary -->
<svg xmlns="http://www.w3.org/2000/svg" viewBox="0 0 16 16"><path d="M13.421 7.177 9.853 4.726 9.442.648C9.379.336 9.109 0 8.663 0c-.427 0-.699.291-.785.636l-.444 4.096L3.82 7.187c-.213.213-.347.588-.168.946a.8.8 0 0 0 .922.431c.03-.009.075-.021 2.938-1.177l-.325 5.686a.5.5 0 0 0 .998.058l.371-6.474a.498.498 0 0 0-.687-.492l-1.903.768 2.222-1.502a.5.5 0 0 0 .217-.36l.247-2.311.23 2.298a.5.5 0 0 0 .214.362l2.226 1.525-1.824-.762a.5.5 0 0 0-.692.495l.532 7.838h-5.6a.5.5 0 0 0-.221.051l-.987.485a.5.5 0 1 0 .441.897l.882-.434h6.019a.5.5 0 0 0 .499-.534l-.513-7.566 2.877 1.196c.296.069.707-.024.911-.39.209-.374.062-.776-.226-1.043Z"/></svg>