<!-- SPDX-FileCopyrightText: © 2025 Schneider Electric SPDX-License-Identifier: LicenseRef-Proprietary -->
<svg xmlns="http://www.w3.org/2000/svg" viewBox="0 0 16 16"><path d="M11.5 13a.5.5 0 0 0 .5-.5V6h2.398A.513.513 0 0 0 15 5.51V2.038A1.04 1.04 0 0 0 13.962 1H2.037C1.465 1 1 1.465 1 2.037v11.925A1.04 1.04 0 0 0 2.038 15h11.924A1.04 1.04 0 0 0 15 13.962V7.5a.5.5 0 0 0-1 0l-.038 6.5L2 13.962V5.266L2.037 2H10.5l3.5.038V5h-2V3.5a.5.5 0 0 0-1 0V5H5V3.5a.5.5 0 0 0-1 0V5h-.5a.5.5 0 0 0 0 1H4v6.5a.5.5 0 0 0 1 0V6h6v6.5a.5.5 0 0 0 .5.5Z"/></svg>