<!-- SPDX-FileCopyrightText: © 2025 Schneider Electric SPDX-License-Identifier: LicenseRef-Proprietary -->
<svg xmlns="http://www.w3.org/2000/svg" viewBox="0 0 16 16"><path d="M2.5 9H1.104C1.074 8.991 1 8.9 1 8.746V1.255c0-.154.075-.245.1-.255h8.795c.029.009.105.103.105.255V2H2.5a.5.5 0 0 0 0 1H10v.439a.5.5 0 0 0 1 0V1.255C11 .563 10.506 0 9.899 0H1.1C.493 0 0 .563 0 1.255v7.491C0 9.438.493 10 1.1 10h1.4a.5.5 0 0 0 0-1Z"/><path d="M6.5 8a.5.5 0 0 0 0 1h9a.5.5 0 0 0 .5-.5V6.209C16 5.542 15.501 5 14.889 5H5.112C4.499 5 4 5.542 4 6.209v8.582C4 15.458 4.499 16 5.112 16h9.776c.612 0 1.111-.542 1.111-1.209V10.5a.5.5 0 0 0-1 0v4.291c0 .136-.079.209-.111.209H5.112C5.073 15 5 14.919 5 14.791V6.209C5 6.081 5.074 6 5.112 6h9.776c.032 0 .111.073.111.209V8z"/></svg>