<!-- SPDX-FileCopyrightText: © 2025 Schneider Electric SPDX-License-Identifier: LicenseRef-Proprietary -->
<svg xmlns="http://www.w3.org/2000/svg" viewBox="0 0 16 16"><path d="M15.973.537C15.86.17 15.818.033 12.216 0c-.958.014-2.265.397-2.957 1.19-1.257 1.436-.962 3.707-.158 4.479.545.525.856.518.98.521.412-.009.547-.271.587-.486l.017-.139c.026-.303.108-1.226 1.156-2.212.511-.481 1.258-.55 1.263-.551a.5.5 0 0 0 .46-.537.513.513 0 0 0-.536-.46c-.045.003-1.099.092-1.872.82-.718.676-1.179 1.439-1.378 2.308-.384-.405-.699-2.017.234-3.083.471-.539 1.497-.824 2.194-.849a55 55 0 0 1 2.354.073c-.111.176-.216.4-.293.688-.03.114-.068.407-.113.782-.081.688-.218 1.839-.419 2.269-.357.764-1.133 1.338-1.674 1.452-.132.025-.4.031-.646-.019l-.16-.054c-.136-.079-.37-.119-.511-.056a.52.52 0 0 0-.294.341c-.244.933.074 1.726.811 2.02a.5.5 0 0 0 .372-.927c-.136-.055-.211-.171-.242-.312.299.041.631.038.876-.014.938-.197 1.914-1.022 2.376-2.007.248-.532.381-1.522.506-2.575.036-.307.062-.547.087-.643.11-.416.293-.579.44-.71.136-.122.419-.375.299-.771Z"/><path d="M13.374 8.938c-1.313 0-2.382 1.084-2.382 2.408q-.011.72.157 1.005c.142.237.459.337.696.194.236-.142.324-.428.183-.665a2.7 2.7 0 0 1-.036-.525c0-.781.62-1.417 1.382-1.417s1.382.636 1.382 1.417c0 .769-.5 1.943-1.907 2.725-1.382.766-3.53 1.08-5.748.844-1.403-.151-4.072-1.036-5.241-3.3 1.362.975 2.788 1.15 3.523 1.242.655.079 2.651.332 3.846-.722.568-.503.857-1.211.857-2.105 0-1.349-.969-2.342-2.354-2.415-1.289-.076-2.398 1.032-2.477 2.457a.499.499 0 1 0 .998.054c.047-.858.687-1.558 1.425-1.514.868.046 1.408.589 1.408 1.417 0 .604-.17 1.047-.52 1.355-.568.5-1.598.661-3.08.477-.696-.086-2.144-.266-3.394-1.332-.716-.612-.964-1.67-1.05-2.278-.025-.22-.038-.369-.042-.416l-.002-.052h0c-.017-.219-.171-.437-.384-.487a.506.506 0 0 0-.561.26.8.8 0 0 0-.042.301H.002q0 .02.012.148c.006.157.025.345.059.553a17 17 0 0 0 .433 2.309c.942 3.531 4.522 4.831 6.489 5.042q.774.083 1.531.082c1.856 0 3.583-.367 4.807-1.045 1.786-.991 2.423-2.509 2.423-3.6 0-1.333-1.068-2.417-2.382-2.417Z"/></svg>