<!-- SPDX-FileCopyrightText: © Wonderwill Ltd 2023. All rights reserved. SPDX-License-Identifier: LicenseRef-Proprietary -->
<svg xmlns="http://www.w3.org/2000/svg" x="0" y="0" version="1.1" viewBox="0 0 1201 471.83"><path fill="#002040" fill-rule="evenodd" d="M221.22 195.25h-40.76c-11.14 0-20.25-8.75-20.25-19.14 0-10.4 9.12-18.91 20.25-18.91h81.51zm7.15 79.98h71.82c10.94 0 19.88 8.81 19.88 19.34 0 10.77-8.94 19.58-19.88 19.58H180.16c-5.22.24-10.44-1.96-14.16-5.63-7.7-7.59-7.7-20.08 0-27.66l120.28-117.97c7.7-7.59 20.38-7.59 28.08 0s7.7 20.07 0 27.66zM344 179.75c9.8-22.09 52.68-22.56 52.68-22.56 66.4 0 68.61 43.7 68.37 43.7v77.42c0 36.33-43.62 32.05-43.62 32.05v-21.85c-13.97 23.27-43.37 25.65-43.37 25.65-52.93 0-52.93-43.46-52.93-43.46 0-66.73 97.04-55.81 97.04-55.81s3.18-28.5-31.37-27.78c-17.4.71-34.3 6.17-48.52 15.67-1.22-9.02 1.72-23.03 1.72-23.03zm23.52 81.46s.49 22.79 23.03 22.08c36.02-.95 32.34-39.18 31.85-39.18 0-5.7-27.69-2.38-27.69-2.38-30.38 2.85-27.19 19.48-27.19 19.48zm197.45-103.84s-38.11.72-46.33 26.75v-26.75s-43.58-4.58-43.58 32.53.46 202.59.46 202.59 43.36 4.34 43.36-33.74V292.8s14.38 24.09 41.76 24.09c31.49 0 64.35-22.65 64.35-85.79-.01-74.69-60.02-73.73-60.02-73.73zm-20.54 122.66c-12.55 0-27.61-17.11-27.61-46.99s14.83-42.89 31.72-42.89c0 0 32.86 1.45 32.86 41.93s-22.83 47.95-36.97 47.95zm134.13-95.91c8.22-26.03 46.33-26.75 46.33-26.75s60.02-.96 60.02 73.74c0 63.14-32.86 85.79-64.35 85.79-27.39 0-41.76-24.09-41.76-24.09v65.95c0 38.08-43.36 33.74-43.36 33.74s-.46-165.48-.46-202.59 43.58-32.53 43.58-32.53zm-1.82 48.92c0 29.88 15.06 46.99 27.61 46.99 14.15 0 36.97-7.47 36.97-47.96 0-40.48-32.86-41.93-32.86-41.93-16.89 0-31.72 13.02-31.72 42.9zm226.02-67.42c-10.25-5.54-21.9-8.43-33.55-8.43-41.24 0-74.32 35.15-74.32 78.48s33.32 78.48 74.32 78.48c2.14 0 3.88-.2 5.77-.42l.53-.06c9.55-1.45 18.87-4.09 27.49-8.43 6.29-3.37 12.35-7.94 17.48-13.24 5.36-6.26 9.08-13.72 10.95-21.91h-6.29s-11.64 12.28-47.52 12.28-40.77-37.07-40.77-37.07h97.62c.91-11.31 2.77-59.7-31.71-79.68zm-8.15 54.65h-57.78s1.4-34.43 30.29-34.43 27.49 34.43 27.49 34.43zm94.17 21.3c0-30.17 14.6-43.32 33.57-43.32 6.15.49 12.05 2.43 17.43 5.35v-46.24c-10 0-39.98 0-51 26.77v-26.77s-43.96-4.62-43.96 32.85c0 37.48.26 123.87.26 123.87s43.95 3.16 43.95-35.29c-.25-33.32-.25-36.48-.25-37.22zm18.01 55.04h-7v-2.07h16.85v2.07h-6.85v17.55h-2.86zm13.99-2.07h3.43l4.43 10.48 1.57 4.02h.14l1.57-4.02 4.43-10.48h3.43v19.62h-2.71v-10.85c0-.85.07-1.86.14-2.86v-.01c.07-1 .14-2.01.14-2.86h-.14l-1.71 4.27-4.43 10.24h-1.71l-4.28-10.24-1.86-4.27h-.14c.14 1.71.29 4.03.29 5.73v10.72h-2.71z" clip-rule="evenodd"/></svg>