<!-- SPDX-FileCopyrightText: © 2025 Schneider Electric SPDX-License-Identifier: LicenseRef-Proprietary -->
<svg xmlns="http://www.w3.org/2000/svg" viewBox="0 0 16 16"><path fill="none" stroke="currentColor" stroke-linecap="round" stroke-linejoin="round" d="M3.955 4.743 2.84 3.627m1.597-1.633-.032-.034a2.29 2.29 0 0 0-3.235 0 2.284 2.284 0 0 0 0 3.233l.034.033 1.609-1.609m11.983 1.609.033-.033a2.285 2.285 0 0 0 0-3.234 2.29 2.29 0 0 0-3.27.035l1.611 1.608m-8.552 9.591-1.374 1.769M8.293 1.375l-.248 1.432m1.254-1.424L8.262 1.2l-.918-.161m4.542 6.321L8.5 8.781v2.718m4.662-7.873-1.248 1.205a5.43 5.43 0 0 0-3.806-1.548c-3.009 0-5.448 2.437-5.448 5.443s2.439 5.444 5.448 5.444 5.448-2.437 5.448-5.444m-1.962 4.467 1.374 1.769"/></svg>