<!-- SPDX-FileCopyrightText: © 2025 Schneider Electric SPDX-License-Identifier: LicenseRef-Proprietary -->
<svg xmlns="http://www.w3.org/2000/svg" viewBox="0 0 16 16"><path fill="none" stroke="currentColor" stroke-linecap="round" stroke-linejoin="round" d="M15.5.999V13.5H.5v-12m2 14v-2m11 2v-2M2.59 1.464c.71.117 1.739.132 3.145-.191 1.55-.356 2.486-.733 4.971 0S15.5.998 15.5.998M7.732 9.202c.398-.252.644-.504.644-.504S7.391 7.69 6.177 7.69 3.978 8.698 3.978 8.698s.985 1.008 2.199 1.008m-3.665-.069 1.182-.882-1.182-.882m6.469-2.409c1.215 0 2.199-1.008 2.199-1.008s-.985-1.008-2.199-1.008c-1.215 0-2.199 1.008-2.199 1.008a3.8 3.8 0 0 0 .723.553m5.142-1.492-1.182.882 1.182.882m.938 3.248-.367.367c-.244.15-.507.767-.183 2.016.247.955-.55 1.763-.55 2.129m-1.854-.001c.183-.733 1.1-1.579.367-2.679"/><circle cx="3.5" cy="3.5" r=".5"/><circle cx="4.5" cy="5.5" r=".5"/><circle cx="10.5" cy="8.5" r=".5"/><circle cx="11.5" cy="6.5" r=".5"/></svg>