<!-- SPDX-FileCopyrightText: © 2025 Schneider Electric SPDX-License-Identifier: LicenseRef-Proprietary -->
<svg xmlns="http://www.w3.org/2000/svg" viewBox="0 0 16 16"><path fill="none" stroke="currentColor" stroke-linecap="round" stroke-linejoin="round" d="M8 1.822 6.679 3.498M6.324.5 8 1.822m0 0a6.15 6.15 0 0 0-4.369 1.81 6.15 6.15 0 0 0-1.81 4.369 6.15 6.15 0 0 0 1.81 4.369 6.2 6.2 0 0 0 1.964 1.324M8 14.178a6.15 6.15 0 0 0 4.369-1.81 6.15 6.15 0 0 0 1.81-4.369 6.15 6.15 0 0 0-1.81-4.369 6.2 6.2 0 0 0-1.964-1.324M8 14.178l1.321-1.676M8 14.178 9.676 15.5M7.039 5.117l.915.8.933-.8m1.574 1.219-.512.964 1.043.691m-5.983-.036.933-.637-.439-1.091m1.555 4.656-.293-1.237-1.189.145m4.775.037-1.189-.2-.256 1.182m-.952-4.892-.11 2 1.317 1.71M9.949 7.3l-2.104.618-1.079 1.728m-.824-2.328 1.921.618"/></svg>