<!-- SPDX-FileCopyrightText: © 2025 Schneider Electric SPDX-License-Identifier: LicenseRef-Proprietary -->
<svg xmlns="http://www.w3.org/2000/svg" viewBox="0 0 16 16"><path d="M7.421 5.553a.533.533 0 1 1 0 1.063.533.533 0 1 1 0-1.063Zm0 2.213a.532.532 0 1 1 0 1.063.532.532 0 1 1 0-1.063Zm-3.332.753a.527.527 0 0 1-.193-.726.535.535 0 0 1 .925.532.54.54 0 0 1-.731.194Zm6.858-.727a.53.53 0 0 1-.194.726.54.54 0 0 1-.73-.194.532.532 0 0 1 .924-.532ZM5.555 5.624a.53.53 0 0 1 .195.726.536.536 0 0 1-.729.194.526.526 0 0 1-.193-.725.53.53 0 0 1 .727-.195Zm4.462.195a.53.53 0 0 1-.195.725.54.54 0 0 1-.731-.194.533.533 0 0 1 .926-.531Z"/><path fill="none" stroke="currentColor" stroke-linecap="round" stroke-linejoin="round" stroke-width=".982" d="M1.641 15.5c-1.632-1.433-1.034-5-1.034-5h14.708c.631 2.396-.559 5-.559 5m-1.256-5V3.971c0-.781-.213-1.561-.667-2.196-2.168-3.03-5.641-.023-5.641 2.415M5.5 4.5h4"/></svg>