<!-- SPDX-FileCopyrightText: © 2025 Schneider Electric SPDX-License-Identifier: LicenseRef-Proprietary -->
<svg xmlns="http://www.w3.org/2000/svg" viewBox="0 0 16 16"><path fill="none" stroke="currentColor" stroke-linecap="round" stroke-linejoin="round" d="m5.189 11.756 1.646-3.828 1.812 1.626 1.646-3.827M6.5 14.5h8.203c.439 0 .797-.438.797-.976V3.421c0-.508-.227-.921-.799-.921H13.32c-.009-.499-.248-1-.75-1h-1.28c-.572 0-.742.501-.75 1H5.658c-.009-.499-.094-1-.75-1H3.6c-.57 0-.713.501-.722 1H1.432C.819 2.5.5 2.94.5 3.482v10.037c0 .541.36.981.801.981H3.5"/></svg>