<!-- SPDX-FileCopyrightText: © 2023 - Платежная система Белкарт SPDX-License-Identifier: LicenseRef-Proprietary -->
<svg xmlns="http://www.w3.org/2000/svg" data-name="Слой 1" viewBox="0 0 349 135"><path fill="#3576eb" d="M78.91 103.86a10.57 10.57 0 0 0-14.91-.15l-20.79 20.36a3.94 3.94 0 0 0 2.79 6.75l36.52.12a5.2 5.2 0 0 0 5.19-5.08v-.45a30.8 30.8 0 0 0-8.8-21.55ZM50.6 98.91a10.57 10.57 0 0 0-10.46-10.67L11.07 88a3.94 3.94 0 0 0-2.83 6.72L34 120.57a5.19 5.19 0 0 0 7.26.08l.32-.31a30.86 30.86 0 0 0 9.02-21.43ZM34.08 75.39a10.58 10.58 0 0 0 .15-15l-20.35-20.7a3.94 3.94 0 0 0-6.76 2.74L7 79a5.2 5.2 0 0 0 5.08 5.19h.45a30.84 30.84 0 0 0 21.55-8.8ZM39 47.08a10.59 10.59 0 0 0 10.71-10.47L50 7.54a3.93 3.93 0 0 0-6.71-2.83L17.37 30.45a5.2 5.2 0 0 0-.08 7.26l.32.32A30.8 30.8 0 0 0 39 47.08Zm23.56-16.52a10.57 10.57 0 0 0 14.94.15l20.76-20.36a3.94 3.94 0 0 0-2.75-6.75L59 3.48a5.2 5.2 0 0 0-5.2 5.08V9a30.8 30.8 0 0 0 8.76 21.56Zm28.31 4.95a10.57 10.57 0 0 0 10.46 10.67l29.07.29a3.94 3.94 0 0 0 2.83-6.72l-25.74-25.91a5.2 5.2 0 0 0-7.26-.07l-.32.31a30.84 30.84 0 0 0-9.04 21.43ZM107.39 59a10.58 10.58 0 0 0-.15 15l20.35 20.75a3.95 3.95 0 0 0 6.76-2.75l.11-36.52a5.2 5.2 0 0 0-5.08-5.19h-.45A30.8 30.8 0 0 0 107.39 59Zm-4.96 28.34a10.59 10.59 0 0 0-10.67 10.47l-.28 29.06a3.94 3.94 0 0 0 6.71 2.84L124.1 104a5.2 5.2 0 0 0 .08-7.26l-.32-.33a30.84 30.84 0 0 0-21.43-9.07Z"/><path fill="#002e8d" d="m275.86 46-1.41 7.86C269.91 48.29 262.1 45 255.08 45h-.61a25 25 0 0 0-18.31 7.34l-.65.65c-.13.14-.24.29-.36.43-4.29 4.85-6.69 11.46-6.69 19a.4.4 0 0 0 0 .11.3.3 0 0 0 0 .1c0 7.55 2.4 14.16 6.69 19 .12.14.23.29.36.43l.65.65a25 25 0 0 0 18.31 7.29h.61c7 0 14.83-3.33 19.37-8.88V99h11.73V46Zm-18.44 43.41c-10 0-17.13-7-17.13-16.92s7.14-16.93 17.13-16.93 16.93 7.34 16.93 16.93a16.45 16.45 0 0 1-16.93 16.92ZM164.27 46v76.83H176v-31.7c4.54 5.55 12.35 8.88 19.38 8.88h.62a25 25 0 0 0 18.31-7.34c.21-.22.44-.43.64-.65s.24-.29.36-.43c4.29-4.84 6.69-11.45 6.69-19v-.21c0-7.54-2.4-14.15-6.69-19-.12-.14-.23-.29-.36-.43s-.43-.43-.64-.65A25 25 0 0 0 196 45h-.61c-7 0-14.84 3.33-19.38 8.88L174.6 46Zm9.95 26.51c0-9.59 7-16.93 16.93-16.93s17.13 7 17.13 16.93-7.14 16.92-17.13 16.92a16.45 16.45 0 0 1-16.93-16.94Zm174.55-26.24-32 76.44h-11.89l10.84-24.48-22-52h12.45C316.92 72.15 320.3 81 321.69 87.58c1.3-6.47 4.39-15.23 14.94-41.31Z"/></svg>