<!-- SPDX-FileCopyrightText: © 2025 Schneider Electric SPDX-License-Identifier: LicenseRef-Proprietary -->
<svg xmlns="http://www.w3.org/2000/svg" viewBox="0 0 16 16"><path fill="none" stroke="currentColor" stroke-linecap="round" stroke-linejoin="round" d="M5.508 1.781 7.5.5v.502m6 1.107V.898l-2.613 1.626M10.5 13.5v-1.966l-.002-.003 5.002-.787V3.658L1.289 1.289.5 2.002v10.373l.856.793 5.147-.951-.004.003-.003 2.406-5.528.873M15.5 13.132l-4.767.753h0zm-7.589-2.977-.756-1.901-1.716-4.315-2.593 6.707m.968-2.116 3.25-.353m4.726-.439s-.621-1.349-1.813-.907c-1.008.374-.716 1.67-.716 1.67s.171.875 1.213.875c.82 0 1.403-.431 1.403-1.278m.493-2.76v4"/></svg>