<!-- SPDX-FileCopyrightText: © 2025 Schneider Electric SPDX-License-Identifier: LicenseRef-Proprietary -->
<svg xmlns="http://www.w3.org/2000/svg" viewBox="0 0 16 16"><path fill="none" stroke="currentColor" stroke-linecap="round" stroke-linejoin="round" d="M14.783 1.943s.717.393.717 1.223-.713 1.208-.713 1.208m0 2.432s.713-.377.713-1.208-.717-1.223-.717-1.223m.004 4.862s.713-.377.713-1.208-.717-1.223-.717-1.223m.004 4.862s.713-.377.713-1.207-.717-1.224-.717-1.224m.004 4.863s.713-.377.713-1.208-.717-1.223-.717-1.223m-1.911 1.914s.377.714 1.208.714 1.224-.718 1.224-.718m-4.862.004s.377.714 1.207.714 1.223-.718 1.223-.718m-4.864.004s.377.714 1.208.714 1.223-.718 1.223-.718m-4.862.018s.378.714 1.208.714 1.224-.718 1.224-.718m-4.863-.01s.377.714 1.208.714 1.223-.718 1.223-.718m-4.862.004s.377.714 1.208.714 1.223-.718 1.223-.718m-1.933-1.911S.5 12.045.5 12.876s.718 1.223.718 1.223m-.005-4.863S.5 9.613.5 10.444s.718 1.223.718 1.223m-.005-4.862S.5 7.183.5 8.013s.718 1.223.718 1.223m-.005-4.862S.5 4.751.5 5.582s.718 1.223.718 1.223m-.005-4.863S.5 2.319.5 3.15s.718 1.223.718 1.223m1.909-1.914s-.377-.714-1.208-.714-1.223.718-1.223.718m4.863-.004s-.377-.714-1.208-.714-1.224.718-1.224.718m4.865-.004s-.377-.714-1.208-.714-1.223.718-1.223.718m6.107-.773c-.838 0-1.245.756-1.245.756s-.376-.714-1.207-.714-1.224.718-1.224.718"/></svg>