<!-- SPDX-FileCopyrightText: © 2025 Schneider Electric SPDX-License-Identifier: LicenseRef-Proprietary -->
<svg xmlns="http://www.w3.org/2000/svg" viewBox="0 0 16 16"><path fill="none" stroke="currentColor" stroke-linecap="round" stroke-linejoin="round" d="M10.5 6.5v4m2-2h-4m-8 5v1.211c0 .436.353.789.788.789H4.71a.79.79 0 0 0 .788-.789M5.5 11.5V3.284a.784.784 0 0 0-.784-.784H1.288a.79.79 0 0 0-.788.788V11.5m2-7h1m6.994-1.211A.785.785 0 0 0 9.71 2.5H6.288a.79.79 0 0 0-.788.788V11.5m.788 4a.79.79 0 0 1-.788-.789V13.25v1.461c0 .436.353.789.789.789h3.423a.787.787 0 0 0 .788-.789l-.002-2.211h4.214a.79.79 0 0 0 .788-.788l-.002-10.423A.79.79 0 0 0 14.709.5h-3.42a.79.79 0 0 0-.789.789V4.5m-3 0h1m4-2h1"/></svg>