<!-- SPDX-FileCopyrightText: © 2025 Schneider Electric SPDX-License-Identifier: LicenseRef-Proprietary -->
<svg xmlns="http://www.w3.org/2000/svg" viewBox="0 0 16 16"><path fill="none" stroke="currentColor" stroke-linecap="round" stroke-linejoin="round" d="M4.508 6.818 4.5 5.536.566 2.777 6.822.381l3.68 2.635-.002 1.485M.5 2.969v5.797m3.85-3.305 3.778-1.532m.811 4.561a2.68 2.68 0 0 1 1.334 2.333c0 1.476-1.168 2.673-2.609 2.673s-2.609-1.197-2.609-2.673a2.69 2.69 0 0 1 1.069-2.158l-.018-.025s-4.068.04-5.607 3.088c0 0 2.828 4.969 9.126 3.499 2.66-.621 3.477-2.456 5.874-3.499-.365-.722-2.219-5.547-8.088-5.521"/></svg>