<!-- SPDX-FileCopyrightText: © 2025 Schneider Electric SPDX-License-Identifier: LicenseRef-Proprietary -->
<svg xmlns="http://www.w3.org/2000/svg" viewBox="0 0 16 16"><path fill="none" stroke="currentColor" stroke-linecap="round" stroke-linejoin="round" d="M8.521 2.808v2.199l.999 1.02v3.958l-.999.344v1.184m-8.01-.837 3.947 3.232 3.137-.879M.533 1.364v9.312zm3.994 4.15V3.68l3.994-.871L4.785.5.58 1.364m6.044 9.151-1.395.43m2.366-4.626-2.069.497v4.029l-.999.342v2.327m2.3-.103c0 1.154.884 2.089 1.974 2.089.589 0 1.118-.273 1.48-.707l2.051-3.124c.535-.706 1.356-1.159 2.278-1.159l.902-.003"/></svg>