<!-- SPDX-FileCopyrightText: © 2025 Schneider Electric SPDX-License-Identifier: LicenseRef-Proprietary -->
<svg xmlns="http://www.w3.org/2000/svg" viewBox="0 0 16 16"><path fill="none" stroke="currentColor" stroke-linecap="round" stroke-linejoin="round" d="M8.875 4.427c1.107-.392 2.119-.333 2.719.263 1.073 1.067.412 3.454-1.475 5.332s-4.287 2.535-5.36 1.467c-.426-.424-.605-1.468-.174-2.298m1.712.957c.38.271 1.077-.048 1.557-.713.42-.582.535-1.236.302-1.572M2.478 3.77c-.38-.271-1.077.048-1.557.713S.36 5.907.74 6.179s.718.251 1.348-.376M4.584 9.19c.537.338 1.033.588 1.713.958M.739 6.179c.804.71 1.456 1.261 2.053 1.727m1.966 3.583c1.599 2.063 2.976 3.3 3.999 4.011m2.837-10.811c1.517 1.957 2.874 3.132 3.906 3.832M2.478 3.77c2.011 1.623 3.805 2.973 5.431 3.846M8 7.693c.317.343 1.065.171 1.67-.383.53-.485.776-1.102.617-1.478M5.563.676c-.317-.343-1.065-.171-1.67.383s-.84 1.281-.524 1.624.693.4 1.379-.093m-1.379.093C5.248 5.191 6.133 6.115 8 7.693M5.563.676c1.638 1.996 1.898 2.566 3.312 3.75"/></svg>