<!-- SPDX-FileCopyrightText: © 2025 Schneider Electric SPDX-License-Identifier: LicenseRef-Proprietary -->
<svg xmlns="http://www.w3.org/2000/svg" viewBox="0 0 16 16"><path fill="none" stroke="currentColor" stroke-linecap="round" stroke-linejoin="round" d="M13.075 14.316a2.3 2.3 0 0 1-.904.184H3.829A2.336 2.336 0 0 1 1.5 12.172V3.828A2.335 2.335 0 0 1 3.829 1.5h8.342A2.336 2.336 0 0 1 14.5 3.828v8.343c0 .304-.059.595-.166.861M4.977 4.023v3m1.5-1.5h-3m2.739 4.261-2.058 2.058m2.058 0L4.158 9.784M11.954 5.5h-3m3.156 5h-3"/><circle cx="10.527" cy="9.002" r=".5"/><circle cx="10.504" cy="12.01" r=".5"/></svg>