<!-- SPDX-FileCopyrightText: © 2025 Schneider Electric SPDX-License-Identifier: LicenseRef-Proprietary -->
<svg xmlns="http://www.w3.org/2000/svg" viewBox="0 0 16 16"><path d="M7.06 11.294q.285.379.284.939 0 .774-.568 1.232-.57.458-1.537.459-.552 0-1.062-.171a2.6 2.6 0 0 1-.866-.475.517.517 0 0 1-.089-.717.31.31 0 0 1 .251-.132q.084 0 .153.029t.187.098q.357.237.68.365a1.9 1.9 0 0 0 .705.127q.56 0 .833-.225t.272-.684q0-.45-.285-.667c-.285-.217-.483-.217-.879-.217h-.484a.37.37 0 0 1-.302-.132.47.47 0 0 1-.106-.301q0-.178.106-.306a.37.37 0 0 1 .302-.127h.339q1.164 0 1.164-.874 0-.409-.246-.628-.246-.221-.68-.221-.62 0-1.325.492a2 2 0 0 1-.187.098.4.4 0 0 1-.153.029.31.31 0 0 1-.251-.132.5.5 0 0 1-.106-.318q0-.128.047-.217c.047-.089.081-.12.149-.183q.357-.297.854-.471c.497-.174.669-.175 1.015-.175q.883 0 1.406.434.522.433.523 1.155a1.55 1.55 0 0 1-.259.862 1.43 1.43 0 0 1-.701.539q.534.136.82.514Zm5.751 2.128q0 .45-.509.45H9.431q-.518 0-.518-.45 0-.434.518-.434h.883V9.115l-.815.501a.45.45 0 0 1-.213.068.37.37 0 0 1-.301-.153.53.53 0 0 1-.123-.34q0-.246.221-.382l1.317-.816a.96.96 0 0 1 .484-.153q.237 0 .382.145a.54.54 0 0 1 .144.399v4.603h.892q.509 0 .509.434Z"/><path fill="none" stroke="currentColor" stroke-linecap="round" stroke-linejoin="round" d="M12.5 6.5H.5m9-4h-3v-.78C6.5 1.224 6.278.5 5.463.5h.021c-.755 0-.983.724-.983 1.22v1.324c0 .786.074 1.456 1.066 1.456h-.066M2.5 2.5l-.247.002A1.764 1.764 0 0 0 .5 4.267v9.469c0 .975.79 1.765 1.765 1.765h11.471c.975 0 1.765-.79 1.765-1.765V4.263h0c0-.973-.789-1.763-1.763-1.763h-1.237m.999 0h-2v-.78c0-.496-.222-1.22-1.037-1.22h.021c-.755 0-.983.724-.983 1.22v1.324c0 .786.074 1.456 1.066 1.456h-.066"/></svg>