<!-- SPDX-FileCopyrightText: © 2025 Schneider Electric SPDX-License-Identifier: LicenseRef-Proprietary -->
<svg xmlns="http://www.w3.org/2000/svg" viewBox="0 0 16 16"><path fill="none" stroke="currentColor" stroke-linecap="round" stroke-linejoin="round" d="M6.5 14.5H1.193a.693.693 0 0 1-.693-.693V4.655c0-.638.517-1.155 1.155-1.155H4.26s.6-.111.6-.442h0c0-.977.792-1.769 1.769-1.558h2.332c.982-.211 1.776.59 1.769 1.572h0a.6.6 0 0 0 .588.6c.507.01.687.001 2.979-.009a1.2 1.2 0 0 1 1.204 1.195v8.949c0 .383-.31.693-.693.693H9.712l-2.193-2.346C5.466 11.857 3.996 9.756 4.77 7.51c.275-.798 1.196-1.731 1.992-2.013 2.437-.863 4.713.92 4.713 3.236a3.45 3.45 0 0 1-1.367 2.754"/></svg>