<!-- SPDX-FileCopyrightText: © 2025 Schneider Electric SPDX-License-Identifier: LicenseRef-Proprietary -->
<svg xmlns="http://www.w3.org/2000/svg" viewBox="0 0 16 16"><path fill="none" stroke="currentColor" stroke-linecap="round" stroke-linejoin="round" d="M12.054 8.4c-1.147 3.538-4.343 4.957-5.568 5.365-1.209-.403-4.338-1.79-5.522-5.228l.107-.037h2.138l1.247-3.851.846 2.851h1.737l1.381 3.028L9.756 6.5h5.745m-3.055-.135a10 10 0 0 0 .025-.716c0-2.157-1.456-3.5-3.306-3.435-1.3.046-2.391.968-2.68 2.27-.289-1.302-1.38-2.224-2.68-2.27C1.956 2.149.499 3.492.499 5.649q0 .505.047.972"/></svg>