<!-- SPDX-FileCopyrightText: © 2025 Schneider Electric SPDX-License-Identifier: LicenseRef-Proprietary -->
<svg xmlns="http://www.w3.org/2000/svg" viewBox="0 0 16 16"><path fill="none" stroke="currentColor" stroke-linecap="round" stroke-linejoin="round" d="M13.665 6.413a5.9 5.9 0 0 1 .009 3.111m1.398.963a7.53 7.53 0 0 0-.076-5.213m-2.919 3.408a4.2 4.2 0 0 0 .05-.953m-5.652 5.944a5.9 5.9 0 0 0 3.11-.009m-4.074 1.408a7.5 7.5 0 0 0 5.213-.077m-3.408-2.918a4.2 4.2 0 0 0 .952.05M2.325 6.476a6 6 0 0 0-.203 1.539c0 .543.073 1.07.211 1.57M.927 5.512A7.5 7.5 0 0 0 .5 8.015c0 .955.178 1.869.504 2.71m2.919-3.409a4.2 4.2 0 0 0-.05.953m5.652-5.943a5.9 5.9 0 0 0-3.112.009M10.487.927A7.5 7.5 0 0 0 7.985.5a7.5 7.5 0 0 0-2.711.504m3.408 2.919a4.2 4.2 0 0 0-.952-.05m.731 6.604 4.511 4.509a1.044 1.044 0 0 0 1.475 0l.459-.458c.58-.579.58-1.518 0-2.098l-.299-.299c-.58-.579-4.071-3.129-4.65-2.549l-.28-.108a2.22 2.22 0 0 0 .539-1.743q.142-.072.262-.19l4.512-4.509a1.04 1.04 0 0 0 0-1.474l-.459-.459a1.485 1.485 0 0 0-2.099 0l-.299.299c-.58.579-3.13 4.068-2.551 4.647l-.108.28a2.22 2.22 0 0 0-1.743-.539 1 1 0 0 0-.19-.262L3.028 1.015a1.044 1.044 0 0 0-1.475 0l-.459.458a1.48 1.48 0 0 0 0 2.098l.299.299c.58.579 4.071 3.129 4.65 2.549l.28.109a2.22 2.22 0 0 0-.539 1.743 1 1 0 0 0-.262.19l-4.511 4.508a1.04 1.04 0 0 0 0 1.474l.459.458c.58.579 1.519.579 2.099 0l.299-.298c.58-.579 3.131-4.068 2.551-4.647"/></svg>