<!-- SPDX-FileCopyrightText: © 2025 Schneider Electric SPDX-License-Identifier: LicenseRef-Proprietary -->
<svg xmlns="http://www.w3.org/2000/svg" viewBox="0 0 16 16"><path fill="none" stroke="currentColor" stroke-linecap="round" stroke-linejoin="round" d="M12.217 7.724q.008.13.008.262-.001.366-.059.712m-4.865 3.47a4.3 4.3 0 0 0 .973.051m-4.44-4.918a4.3 4.3 0 0 0-.051.974m4.914-4.443a4.3 4.3 0 0 0-.974-.052m.748 6.752 4.609 4.609a1.066 1.066 0 0 0 1.507 0l.469-.469a1.517 1.517 0 0 0 0-2.145l-.305-.305c-.592-.592-4.159-3.198-4.751-2.606l-.286-.111a2.27 2.27 0 0 0 .551-1.781q.145-.074.268-.195l4.61-4.61a1.066 1.066 0 0 0 0-1.507l-.469-.469a1.517 1.517 0 0 0-2.145 0l-.305.306C11.632 1.841 9.026 5.408 9.618 6l-.111.286a2.27 2.27 0 0 0-1.781-.551 1 1 0 0 0-.195-.268L2.92.859a1.065 1.065 0 0 0-1.507 0l-.469.469a1.517 1.517 0 0 0 0 2.145l.305.306C1.841 4.371 5.408 6.977 6 6.385l.286.111a2.27 2.27 0 0 0-.551 1.781 1.1 1.1 0 0 0-.268.194L.859 13.08a1.066 1.066 0 0 0 0 1.507l.469.468a1.517 1.517 0 0 0 2.145 0l.305-.305c.592-.592 3.199-4.159 2.607-4.751"/></svg>