<!-- SPDX-FileCopyrightText: © 2025 Schneider Electric SPDX-License-Identifier: LicenseRef-Proprietary -->
<svg xmlns="http://www.w3.org/2000/svg" viewBox="0 0 16 16"><path fill="none" stroke="currentColor" stroke-linecap="round" stroke-linejoin="round" d="M6.384 9.999c.592.592-2.014 4.159-2.606 4.751l-.305.305a1.517 1.517 0 0 1-2.145 0l-.469-.469a1.066 1.066 0 0 1 0-1.507l4.61-4.61q.122-.12.268-.195a2.27 2.27 0 0 1 .551-1.781l-.286-.111c-.592.592-4.159-2.014-4.751-2.606l-.305-.305a1.513 1.513 0 0 1-.002-2.143l.469-.469a1.066 1.066 0 0 1 1.507 0l4.61 4.61q.12.122.195.268.136-.017.276-.017c.577 0 1.104.215 1.505.568l.111-.286c-.592-.592 2.014-4.159 2.606-4.751l.305-.305a1.517 1.517 0 0 1 2.145 0l.469.469a1.066 1.066 0 0 1 0 1.507l-4.61 4.61a1 1 0 0 1-.268.195 2.27 2.27 0 0 1-.551 1.781l.286.111c.592-.592 4.159 2.014 4.751 2.606l.305.305a1.517 1.517 0 0 1 0 2.145l-.469.469a1.066 1.066 0 0 1-1.507 0l-4.61-4.61"/></svg>