<!-- SPDX-FileCopyrightText: © 2025 Schneider Electric SPDX-License-Identifier: LicenseRef-Proprietary -->
<svg xmlns="http://www.w3.org/2000/svg" viewBox="0 0 16 16"><path fill="none" stroke="currentColor" stroke-linecap="round" stroke-linejoin="round" d="M3.014 11.923 4.531 9.5H2.22C1.274 9.5.5 8.819.5 7.986V2.014C.5 1.181 1.274.5 2.22.5h8.561c.946 0 1.72.681 1.72 1.514V5.5m-.001 8h1.701c.715 0 1.299-.496 1.299-1.102V8.602c0-.606-.455-1.102-1.169-1.102H7.74c-.715 0-1.239.496-1.239 1.102v3.79c0 .609.499 1.108 1.108 1.108h2.096l2.11 2.019"/><path d="M8.668 11.241a.652.652 0 1 1 0-1.308.652.652 0 0 1 0 1.308m2.332 0a.652.652 0 1 1 0-1.308.652.652 0 0 1 0 1.308m2.333 0a.652.652 0 1 1 0-1.308.652.652 0 0 1 0 1.308"/></svg>