<!-- SPDX-FileCopyrightText: © 2025 Schneider Electric SPDX-License-Identifier: LicenseRef-Proprietary -->
<svg xmlns="http://www.w3.org/2000/svg" viewBox="0 0 16 16"><path fill="none" stroke="currentColor" stroke-linecap="round" stroke-linejoin="round" d="M.501.515 15.5 15.5m-1.906-2.518a7.46 7.46 0 0 0 1.904-4.989C15.499 3.855 12.141.5 7.999.5a7.48 7.48 0 0 0-5.177 2.071M1.578 4.12a7.497 7.497 0 0 0 6.421 11.365 7.47 7.47 0 0 0 3.931-1.11m-3.231-3.48c-.64.257-1.468.343-2.543.174 0 0-.752 1.211.754 2.214m3.2-3.59c.732-1.183.772-2.827.813-3.932.045-1.221.906-2.009.906-2.009-1.442.071-5.004-.453-6.918.819M3.735 6.27c-.631 2.782 1.096 3.826 1.096 3.826a5.3 5.3 0 0 1 .882-2.214m3.063-2.225s-.897.246-1.844.965"/></svg>