<!-- SPDX-FileCopyrightText: © 2025 Schneider Electric SPDX-License-Identifier: LicenseRef-Proprietary -->
<svg xmlns="http://www.w3.org/2000/svg" viewBox="0 0 16 16"><path d="M1.515 11.481h-.396v1.792q0 .354-.156.521c-.156.167-.24.167-.407.167q-.27 0-.418-.175c-.148-.175-.148-.288-.148-.513V8.982q0-.365.164-.529c.164-.164.285-.164.529-.164H2.52q.38 0 .65.032c.27.032.342.065.487.131a1.4 1.4 0 0 1 .77.793q.105.271.105.576 0 .624-.352.997c-.352.373-.59.425-1.067.529q.3.16.574.472c.274.312.345.429.489.664s.255.446.335.635.12.319.12.39q0 .11-.07.219c-.07.109-.111.129-.192.171s-.175.063-.281.063q-.19 0-.32-.089c-.13-.089-.16-.135-.223-.226s-.146-.226-.253-.403l-.453-.753q-.243-.415-.436-.631c-.193-.216-.258-.243-.39-.297s-.298-.08-.498-.08Zm.733-2.343H1.206v1.533h1.012q.407 0 .685-.07c.278-.07.326-.127.424-.24s.146-.268.146-.466q0-.232-.118-.409c-.118-.177-.188-.206-.327-.264q-.198-.084-.78-.084Zm7.096.118H6.799v1.369h2.343q.258 0 .386.116c.128.116.127.179.127.306s-.042.23-.126.31-.213.12-.388.12H6.798v1.586H9.43q.267 0 .401.124c.134.124.135.192.135.329q0 .198-.135.321c-.135.123-.224.124-.401.124H6.36q-.369 0-.531-.164c-.162-.164-.162-.285-.162-.529V9.076q0-.244.072-.397c.072-.153.124-.178.226-.224s.234-.07.394-.07h2.982q.27 0 .401.12c.131.12.131.184.131.314q0 .198-.131.318c-.131.12-.221.12-.401.12Zm6.645 2.849q0 .267-.131.576c-.131.309-.225.41-.413.609s-.427.361-.719.485-.631.186-1.019.186q-.441 0-.803-.084c-.362-.084-.46-.143-.656-.261s-.377-.273-.542-.466q-.22-.263-.377-.588c-.157-.325-.182-.448-.234-.694s-.078-.507-.078-.784q0-.674.196-1.206c.196-.532.318-.659.561-.911s.529-.444.856-.576.676-.198 1.046-.198q.677 0 1.206.27c.529.27.623.403.81.668s.281.515.281.751q0 .193-.137.342c-.137.149-.202.148-.331.148q-.217 0-.325-.103c-.108-.103-.153-.186-.242-.354q-.22-.414-.519-.62c-.299-.206-.444-.205-.736-.205q-.696 0-1.109.529c-.413.529-.413.853-.413 1.502q0 .65.183 1.082c.183.432.294.503.517.645s.484.213.784.213q.487 0 .823-.242c.336-.242.394-.397.508-.709q.072-.22.179-.359c.107-.139.185-.139.342-.139q.201 0 .346.141c.145.141.145.21.145.35Z"/><path fill="none" stroke="currentColor" stroke-linecap="round" stroke-linejoin="round" d="M7.593 2.484q.19-.04.389-.041a2.028 2.028 0 1 1-1.89 1.339"/></svg>