<!-- SPDX-FileCopyrightText: © 2025 Schneider Electric SPDX-License-Identifier: LicenseRef-Proprietary -->
<svg xmlns="http://www.w3.org/2000/svg" viewBox="0 0 16 16"><path fill="none" stroke="currentColor" stroke-linecap="round" stroke-linejoin="round" d="M7.88 10.121C7.337 9.578 7.001 8.828 7.001 8s.336-1.578.879-2.121m3.699-.421A2.97 2.97 0 0 0 10.002 5a3 3 0 0 0-2.121.879m-.001 4.242a2.98 2.98 0 0 0 3.368.6M2.593 3.084a1.99 1.99 0 0 0 1.39 1.348m-1.39-1.348a2 2 0 0 1-.024-1.101 2 2 0 1 1 3.348 1.93M7.88 5.879 5.917 3.916m-1.936 7.653a2 2 0 1 0 1.934.517m.003-.002 1.963-1.963m5.155 2.73a1.5 1.5 0 1 0 2.113.185m-3.9-2.315 1.785 2.128m.106-9.62a1.5 1.5 0 1 0-.368-2.089m-1.193 4.318 1.559-2.227M.701 7.25a1.5 1.5 0 1 0 2.049-.549m1.303-2.257L2.751 6.699m8.498 4.022a2.995 2.995 0 0 0 1.586-3.705"/></svg>