<!-- SPDX-FileCopyrightText: © 2025 Schneider Electric SPDX-License-Identifier: LicenseRef-Proprietary -->
<svg xmlns="http://www.w3.org/2000/svg" viewBox="0 0 16 16"><path fill="none" stroke="currentColor" stroke-linecap="round" stroke-linejoin="round" d="M2.5 8.5h-2m1.097 1.255L2.843 8.4 1.597 7.352M4.5 2.5v11m7-11v11m2-5h2m-1.053-1.314-1.275 1.205 1.246 1.364M6.5 7.5v4.934c0 .586.365 1.066.81 1.066h1.379c.446 0 .81-.48.81-1.066V7.5M7.106 2.605a1.07 1.07 0 0 0-.606.961V8.5m3-.526V3.619c0-.442-.211-.824-.508-.985"/></svg>