<!-- SPDX-FileCopyrightText: © 2025 Schneider Electric SPDX-License-Identifier: LicenseRef-Proprietary -->
<svg xmlns="http://www.w3.org/2000/svg" viewBox="0 0 16 16"><path fill="none" stroke="currentColor" stroke-linecap="round" stroke-linejoin="round" d="m7.135 10.834 1.99-2.123 2.051 2.123m-2.02-.993v4m3.696-3c1.087 0 2.126-.89 2.492-1.914.605-1.694-.635-3.278-2.244-3.278-.402 0-.78.099-1.113.273l-.016.003a4.31 4.31 0 0 0-4.276-3.767 4.31 4.31 0 0 0-4.062 2.879l-.351-.021c-1.893 0-3.344 1.891-2.568 3.887.424 1.091 1.84 1.937 3.01 1.937H5.5"/></svg>