<!-- SPDX-FileCopyrightText: © 2025 Schneider Electric SPDX-License-Identifier: LicenseRef-Proprietary -->
<svg xmlns="http://www.w3.org/2000/svg" viewBox="0 0 16 16"><path fill="none" stroke="currentColor" stroke-linecap="round" stroke-linejoin="round" d="M4.447 12.454h-1.48c-1.154.001-2.223-.777-2.428-1.912a2.354 2.354 0 0 1 2.587-2.773 3.615 3.615 0 0 1 6.974.79 2.07 2.07 0 0 1 1.449-.137c.69.179 1.254.744 1.433 1.434A2.056 2.056 0 0 1 11 12.455H6.815m6.317-3.159h.694a1.678 1.678 0 0 0 1.619-2.114 1.66 1.66 0 0 0-1.163-1.175 1.7 1.7 0 0 0-1.19.109 2.948 2.948 0 0 0-5.69-.644"/></svg>