<!-- SPDX-FileCopyrightText: © 2025 Schneider Electric SPDX-License-Identifier: LicenseRef-Proprietary -->
<svg xmlns="http://www.w3.org/2000/svg" viewBox="0 0 16 16"><path fill="none" stroke="currentColor" stroke-linecap="round" stroke-linejoin="round" d="M7.605 5.237h3.158v5.526H5.237V5.237m6.316-2.369V.5M6.816 2.868V.5m2.368 2.368V.5M4.447 2.868V.5m7.106 15v-2.368M6.816 15.5v-2.368M9.184 15.5v-2.368M4.447 15.5v-2.368M.5 4.447h2.368m0 4.737H.5m2.368-2.368H.5m0 4.737h2.368M15.5 4.447h-2.368M15.5 9.184h-2.368M15.5 6.816h-2.368m0 4.737H15.5M2.868 4.447v6.632a2.06 2.06 0 0 0 2.053 2.053h6.158a2.06 2.06 0 0 0 2.053-2.053V4.921a2.06 2.06 0 0 0-2.053-2.053H4.447"/></svg>