<!-- SPDX-FileCopyrightText: © 2025 Schneider Electric SPDX-License-Identifier: LicenseRef-Proprietary -->
<svg xmlns="http://www.w3.org/2000/svg" viewBox="0 0 16 16"><path fill="none" stroke="currentColor" stroke-linecap="round" stroke-linejoin="round" d="M10.515 9.777a8 8 0 0 1-3.014.573c-3.374 0-6.189-1.973-6.852-4.962a10 10 0 0 1-.079-.346 8 8 0 0 1-.07-.918v.009-.009C.5 2.123 3.635.5 7.501.5s6.938 1.515 6.938 3.518h0C14.439 2.016 11.367.5 7.501.5S.5 2.123.5 4.125s3.135 3.624 7.001 3.624c1.257 0 2.436-.172 3.455-.472m1.074 1.605c1.476-1.122 2.409-2.822 2.409-4.864m-3.908 5.728 3.136 5.243c.295.494.946.659 1.446.368h0c.5-.292.45-.977.154-1.471L13.115 10.5"/></svg>