<!-- SPDX-FileCopyrightText: © 2019 Dash Core Group, Inc. SPDX-License-Identifier: LicenseRef-Proprietary -->
<svg xmlns="http://www.w3.org/2000/svg" data-name="Layer 1" viewBox="0 0 943 943"><circle cx="471.5" cy="471.5" r="471" fill="#008DE4"/><path fill="#fff" d="M572.3 207.7H335.6L316 317.3l213.6.3c105.2 0 136.3 38.2 135.4 101.5-.5 32.5-14.5 87.4-20.6 105.2-16.2 47.4-49.5 101.6-174.3 101.4l-207.6-.1-19.7 109.7h236.1c83.3 0 118.7-9.7 156.2-27 83.2-38.4 132.7-120.5 152.5-227.6 29.5-159.5-7.3-273-215.3-273"/><path fill="#fff" d="M233.5 416.5c-62 0-70.9 40.4-76.7 64.8-7.7 32-10.2 44.9-10.2 44.9h242.3c62 0 70.9-40.4 76.7-64.8 7.7-32 10.2-44.9 10.2-44.9Z"/></svg>