<!-- SPDX-FileCopyrightText: © 2025 Schneider Electric SPDX-License-Identifier: LicenseRef-Proprietary -->
<svg xmlns="http://www.w3.org/2000/svg" viewBox="0 0 16 16"><path fill="none" stroke="currentColor" stroke-linecap="round" stroke-linejoin="round" d="M1.503 2.813q0-.24.132-.466c.132-.226.213-.296.377-.434s.364-.27.597-.393.498-.238.79-.342.614-.199.958-.282.712-.155 1.1-.213.794-.104 1.215-.135a17.8 17.8 0 0 1 3.825.135q.582.089 1.1.213c.518.124.665.178.958.282s.558.219.79.342.433.255.597.393.291.284.377.434.132.307.132.466-.045.316-.132.466-.213.296-.377.434-.364.27-.597.393-.498.238-.79.342-.614.199-.958.282-.712.155-1.1.213-.794.104-1.215.135a17.8 17.8 0 0 1-3.825-.135q-.582-.089-1.1-.213c-.518-.124-.665-.178-.958-.282M1.503 6.294c0 1.372 3.048 2.484 6.809 2.484 1.605 0 2.97-.314 4.134-.653M1.503 10.154c0 1.372 3.048 2.484 6.809 2.484 1.605 0 2.97-.314 4.134-.653M1.5 2.813v10.46c0 1.23 2.91 2.227 6.5 2.227s6.5-.997 6.5-2.227V5.5"/><circle cx="12.487" cy="6.47" r=".5"/><circle cx="12.466" cy="10.085" r=".5"/><circle cx="12.506" cy="13.481" r=".5"/></svg>