<!-- SPDX-FileCopyrightText: © 2025 Schneider Electric SPDX-License-Identifier: LicenseRef-Proprietary -->
<svg xmlns="http://www.w3.org/2000/svg" viewBox="0 0 16 16"><path fill="none" stroke="currentColor" stroke-linecap="round" stroke-linejoin="round" d="M15.5 15.5.5.5m8.18 11H5.5m6.002 0h1.603a.395.395 0 0 0 .395-.395V9.894a.395.395 0 0 0-.395-.395H9.564M6.663 9.5H2.895a.395.395 0 0 0-.395.395v1.227c0 .209.177.378.395.378H3.5m7-5v-6M7.388 4.347l3.094 3.094 3.135-3.135M12.669 15.5H5.5m5.179-2H2.895a.395.395 0 0 0-.395.395v1.217c0 .215.177.389.395.389H3.5"/></svg>