<!-- SPDX-FileCopyrightText: © 2025 Schneider Electric SPDX-License-Identifier: LicenseRef-Proprietary -->
<svg xmlns="http://www.w3.org/2000/svg" viewBox="0 0 16 16"><path fill="none" stroke="currentColor" stroke-linecap="round" stroke-linejoin="round" d="M11.5 6.5h3v2.791c0 .404-.586.732-1 .732h0c-.552 0-1-.328-1-.732V8.5m-12-5h5m-3-1v4m8-3h5m-2-1v4m-7.552 4.187-3.079 1.709a.72.72 0 0 0-.369.623v.481m11 0v-.481a.73.73 0 0 0-.369-.623l-3.036-1.823M11.5 6.5h1m-1 0c-.644 0-1.713-1.22-3.429-1.22M4.5 6.5h-2m5.567-1.22C6.351 5.28 5.144 6.5 4.5 6.5m-1 1.964c2.27 0 1.444 2.928 4.548 2.928m-.048 0c1.986 0 2.25-1.199 2.778-2.063M3.5 6.5h-2v2.827s-.049.981.912 1.173h.066c.903-.193.956-.785 1.022-1.173V8.5h6"/></svg>