<!-- SPDX-FileCopyrightText: © 2025 Schneider Electric SPDX-License-Identifier: LicenseRef-Proprietary -->
<svg xmlns="http://www.w3.org/2000/svg" viewBox="0 0 16 16"><path fill="none" stroke="currentColor" stroke-linecap="round" stroke-linejoin="round" d="M12.787 7.026c0 3.669 2.713 2.21 2.713 4.801 0 2.218-1.71 3.673-3.514 3.673h-1.373c-.5 0-.874-.559-.83-1H2.812c0 .337-.018 1-.518 1H1.035c-.234 0-.523-.769-.523-1.407s-.135-3.159.487-3.826.901-.676 1.082-.908c.18-.232.685-1.859 1.821-1.859h4.766c1.171 0 1.692 1.693 1.878 1.932s.474.249 1.115.936.502 1.901.502 2.558M2.75 11.862l1.504.077m4.069 0 1.504-.077M11.5.5v2m2-2v2m1 0h-4v1.675c0 1.024.798 2.326 2.087 2.326h.486c.771 0 1.614-.845 1.614-2.145"/></svg>