<!-- SPDX-FileCopyrightText: © 2025 Schneider Electric SPDX-License-Identifier: LicenseRef-Proprietary -->
<svg xmlns="http://www.w3.org/2000/svg" viewBox="0 0 16 16"><path fill="none" stroke="currentColor" stroke-linecap="round" stroke-linejoin="round" d="M3.5 15.5h-2v-1.991m11.035-6.964c0 3.626 2.965 2.724 2.965 5.647 0 2.192-2.347 3.308-4.302 3.308-3.05 0-3.698-2.142-3.698-5.041V3.602C7.5 1.731 5.859.531 4.007.531 1.957.531.5 2.388.5 4.032V13.5h2m.489-10.631a1 1 0 0 0-.098.089 1.28 1.28 0 0 0-.391.912v5.418c0 .748.672 1.354 1.5 1.354h0c.828 0 1.5-.606 1.5-1.354V3.87c0-.341-.14-.653-.371-.891M11.5.5v2m2-2v2m1 0h-4v1.715c0 1.458.674 2.302 1.923 2.285h.156c.984.073 1.746-.894 1.94-1.755"/></svg>