<!-- SPDX-FileCopyrightText: © 2025 Schneider Electric SPDX-License-Identifier: LicenseRef-Proprietary -->
<svg xmlns="http://www.w3.org/2000/svg" viewBox="0 0 16 16"><path d="M8 .771a1.68 1.68 0 0 1 1.396.938l6.312 11.104c.188.292.271.646.292 1 0 .396-.167.771-.479 1.042a2.14 2.14 0 0 1-1.229.375H1.708c-.438 0-.875-.125-1.229-.375A1.44 1.44 0 0 1 0 13.813c.021-.354.104-.708.292-1L6.604 1.708A1.68 1.68 0 0 1 8 .77Zm0 .896c-.208 0-.438.167-.604.479L1.062 13.25a1.05 1.05 0 0 0-.167.562c-.021.125.042.25.146.333a.94.94 0 0 0 .667.188h12.583a.94.94 0 0 0 .667-.188.325.325 0 0 0 .146-.333c0-.188-.062-.396-.167-.562L8.604 2.167c-.167-.333-.396-.5-.604-.5Z"/><path d="M8.013 13.379q-.434 0-.696-.268c-.262-.268-.262-.409-.262-.689q0-.408.262-.671.262-.261.696-.262.447 0 .696.262a.93.93 0 0 1 .249.671q0 .421-.249.689t-.696.268Zm0-2.655a.47.47 0 0 1-.376-.153q-.134-.153-.16-.434L7.094 5.26q-.038-.472.204-.76c.242-.288.4-.287.715-.287q.46 0 .696.287.237.287.198.76l-.383 4.877q-.012.28-.146.434a.46.46 0 0 1-.364.153Z"/></svg>