<!-- SPDX-FileCopyrightText: © 2025 Schneider Electric SPDX-License-Identifier: LicenseRef-Proprietary -->
<svg xmlns="http://www.w3.org/2000/svg" viewBox="0 0 16 16"><path fill="none" stroke="currentColor" stroke-linecap="round" stroke-linejoin="round" d="M6.5 6.5h2v-6h4m-7.141 9.988c.223.062.685.18.915.22q.404.07.817.095s-4.827.8-3.938 3.641c.937 2.995 5.831-1.023 8.171-1.023 1.718 0 2.339 1.036 2.339 1.036M6.5.5h-4v6.217c0 1.343.462 2.326 1.654 3.037M12.5 5.5h1m-1.368 1.66 1.205.172M9.4 10.541l.383 1.155m1-1.916.79.925m.104-2.14 1.073.574"/><circle cx="5.463" cy="3.516" r=".5"/><circle cx="10.467" cy="3.481" r=".5"/></svg>