<!-- SPDX-FileCopyrightText: © 2025 Schneider Electric SPDX-License-Identifier: LicenseRef-Proprietary -->
<svg xmlns="http://www.w3.org/2000/svg" viewBox="0 0 16 16"><path fill="none" stroke="currentColor" stroke-linecap="round" stroke-linejoin="round" d="M.5 9.5h3v-2h-.951s-1.012.008-1.012-.987S2.553 5.5 2.553 5.5H6.63s1.009.042 1.009 1.008S6.63 7.5 6.63 7.5H5.501v2h2.138c4.346 0 4.563 6 4.563 6H8.519s-.029-.331-.029-1.303c0-1.697-1.479-1.697-1.479-1.697H.5m12.108-4.381c1.865-3.821-2.112-4.646-.74-7.619m3.124 7.619C16.857 4.298 12.88 3.474 14.251.5m-4.036 7.619C12.08 4.298 8.11 3.473 9.481.5"/></svg>