<!-- SPDX-FileCopyrightText: © 2025 Schneider Electric SPDX-License-Identifier: LicenseRef-Proprietary -->
<svg xmlns="http://www.w3.org/2000/svg" viewBox="0 0 16 16"><path fill="currentColor" stroke="currentColor" stroke-linecap="round" stroke-linejoin="round" d="M5.5 2.5h-2m4.111.052zM5.5 13.5h-1"/><path fill="none" stroke="currentColor" stroke-linecap="round" stroke-linejoin="round" d="M8.589 12.826c-.002-.014-.394 1.13-.175 2.508 0 0-.228.166-.481.166H2.067A1.567 1.567 0 0 1 .5 13.933V2.062C.5 1.199 1.199.5 2.062.5h5.876C8.801.5 9.5 1.199 9.5 2.062V2.5m-.023 3.914a3.44 3.44 0 0 0-5.195-1.095 3.39 3.39 0 0 0 .045 5.34m6.659 1.132L7.407 7.372a1.14 1.14 0 0 0-1.595-.171h0c-.488.39-.565 1.1-.172 1.585l4.925 6.33m2.396-4.945-1.056-1.224c-.393-.485-1.514-.682-2.002-.292h0c-.488.39-.565 1.1-.172 1.585M15.5 8.497s-.352-.3-.855-.525c-.421-.188-1.297-.19-1.785.2h0c-.488.39-.694 1.014-.302 1.499"/></svg>