<!-- SPDX-FileCopyrightText: © 2025 Schneider Electric SPDX-License-Identifier: LicenseRef-Proprietary -->
<svg xmlns="http://www.w3.org/2000/svg" viewBox="0 0 16 16"><path fill="none" stroke="currentColor" stroke-linecap="round" stroke-linejoin="round" d="M5.952 15.5c-.425-.587-.828-1.148-.96-2.179-.26-2.032 1.097-3.702 1.758-3.699m1.901.28s-.063-2.712-.015-4.294c.038-1.257-1.723-1.255-1.714-.134.006.713-.085 2.217-.053 3.193.019.568-.12 2.983-.12 2.983m3.694-1.344s-.064-.844-.05-1.945c.018-1.378-1.758-1.205-1.77-.11m3.414 1.793.012-.917c.018-1.378-1.644-1.228-1.656-.133m1.685 6.47c.381-.941.984-1.869 1.236-3.614.223-1.545.131-2.542-1.269-2.47m-1.05-3.118a3.362 3.362 0 1 0-6.073 1.215m7.718-.565a5.108 5.108 0 1 0-8.794 2.047"/></svg>