<!-- SPDX-FileCopyrightText: © 2025 Schneider Electric SPDX-License-Identifier: LicenseRef-Proprietary -->
<svg xmlns="http://www.w3.org/2000/svg" viewBox="0 0 16 16"><path fill="none" stroke="currentColor" stroke-linecap="round" stroke-linejoin="round" d="M9.849 13.659c.46-.698.364-1.916-.238-2.963-.36-.627-.64-.91-1.609-2.443C7.703 10.887 7 10.766 6.38 12.161c-.592 1.33-.093 2.856.74 3.217a.06.06 0 0 1 .031.071c-.009.028-.175.05-.205.05-.4 0-1.03.007-1.643-.155-1.328-.48-1.975-1.188-2.316-2.418-.575-2.077.749-2.844-.615-6.002-.009-.022.003-.046.022-.06.018-.014.04-.004.063-.003 1.96.055 2.505 1.4 2.658 2.796.457-.347.909-1.386.595-2.586-.862-2.55.439-4.207 1.127-5.139C7.584.919 8.521.52 8.561.503a.057.057 0 0 1 .073.08c-1.836 3.486 1.166 6.45 1.81 7.028-.295-2.164 2.049-3.141 2.073-3.151a.06.06 0 0 1 .069.021.06.06 0 0 1-.006.073c-.012.012-1.098 1.182.586 4.829.559 1.336.615 2.509.168 3.488-.606 1.328-2.561 2.266-3.621 2.617"/></svg>