<!-- SPDX-FileCopyrightText: © 2025 Schneider Electric SPDX-License-Identifier: LicenseRef-Proprietary -->
<svg xmlns="http://www.w3.org/2000/svg" viewBox="0 0 16 16"><path fill="none" stroke="currentColor" stroke-linecap="round" stroke-linejoin="round" d="M9.158 9.807c.031-.39-.078-.853-.318-1.272-.221-.385-.392-.558-.987-1.499-.183 1.616-.615 1.542-.995 2.398-.363.816-.057 1.752.454 1.974a.036.036 0 0 1 .019.044c-.005.017-.107.031-.126.031-.246 0-.632.004-1.008-.095-.815-.295-1.212-.729-1.421-1.484-.353-1.275.46-1.745-.378-3.683-.006-.013.002-.028.014-.037.011-.009.025-.003.039-.002 1.203.033 1.537.859 1.631 1.716.28-.213.558-.85.365-1.587-.529-1.565.269-2.581.692-3.153.458-.621 1.033-.866 1.058-.877a.034.034 0 0 1 .04.009q.015.018.005.041c-1.126 2.139.716 3.958 1.111 4.313-.181-1.328 1.257-1.928 1.272-1.933a.04.04 0 0 1 .042.013c.01.014.007.033-.004.045-.007.007-.674.725.359 2.963.343.82.377 1.54.103 2.14-.372.815-1.572 1.39-2.222 1.606M2.5 13.5h-2v2h15v-2H4.355m11.14-12.206a9 9 0 0 0-.613-.793m.163 3.198A7.5 7.5 0 0 0 12.998.686M1.119.5q-.33.381-.614.794m2.5-.462A7.5 7.5 0 0 0 .956 3.847M13.5 11.5V6.014C13.5 2.969 11.07.5 8.072.5h-.145C4.93.5 2.5 2.969 2.5 6.014V13.5"/></svg>