<!-- SPDX-FileCopyrightText: © 2025 Schneider Electric SPDX-License-Identifier: LicenseRef-Proprietary -->
<svg xmlns="http://www.w3.org/2000/svg" viewBox="0 0 16 16"><path fill="none" stroke="currentColor" stroke-linecap="round" stroke-linejoin="round" d="M7.472 8.249c-1.524 3.672-4.402 2.52-4.402 2.52-1.172-2.853 2.244-3.775 2.244-3.775-3.801-.816-3.145-3.113-3.145-3.113 2.02-1.731 4.416.746 4.416.746C5.436 1.197 7.994.5 7.994.5c2.565.788 1.297 4.292 1.297 4.292 2.568-1.99 4.583-.217 4.583-.217-.134 2.666-3.368 2.938-3.368 2.938 2.737.996 2.092 3.736 2.092 3.736-3.021.779-4.263-1.891-4.263-1.891-1.293 1.635-.239 3.11-.239 3.11-2.171-.748-3.164.305-3.164.305 1.63 1.754 3.864 1.037 3.864 1.037.51.93.64 1.69.64 1.69M8.84 7.811a1.283 1.283 0 1 0-1.367.438"/></svg>