<!-- SPDX-FileCopyrightText: © 2025 Schneider Electric SPDX-License-Identifier: LicenseRef-Proprietary -->
<svg xmlns="http://www.w3.org/2000/svg" viewBox="0 0 16 16"><path fill="none" stroke="currentColor" stroke-linecap="round" stroke-linejoin="round" d="m2.877 12.199 1.281-3.203c.12-.3.41-.496.733-.496h9.59a.79.79 0 0 1 .733 1.083l-2.169 5.421c-.12.3-.41.496-.733.496H1.667A1.167 1.167 0 0 1 .5 14.333V5.632c0-.314.125-.615.347-.837s.523-.347.837-.294h1.579c.314-.053.615.072.837.294s.347.523.399.837V6.5h.342c1.579 0 1.841.073 3.157.073M9.973.5l5.526 5.526M15.5.5 9.974 6.026"/></svg>