<!-- SPDX-FileCopyrightText: © 2025 Schneider Electric SPDX-License-Identifier: LicenseRef-Proprietary -->
<svg xmlns="http://www.w3.org/2000/svg" viewBox="0 0 16 16"><path fill="none" stroke="currentColor" stroke-linecap="round" stroke-linejoin="round" d="M9.5 3.5h6m-3-3v6m-3 0h-5v-.869c-.053-.314-.177-.615-.399-.837s-.523-.347-.837-.294H1.685c-.314-.053-.615.072-.837.294s-.347.523-.347.837v8.702A1.167 1.167 0 0 0 1.668 15.5h10.645a.79.79 0 0 0 .733-.496l2.168-5.421a.79.79 0 0 0-.733-1.083h-9.59a.79.79 0 0 0-.733.496l-1.281 3.203"/></svg>