<!-- SPDX-FileCopyrightText: © 2025 Schneider Electric SPDX-License-Identifier: LicenseRef-Proprietary -->
<svg xmlns="http://www.w3.org/2000/svg" viewBox="0 0 16 16"><path fill="none" stroke="currentColor" stroke-linecap="round" stroke-linejoin="round" d="M11.184 5.163a2.345 2.345 0 1 1 2.002-.661L15.5 6.816M9.02 6.5H4.5v-.868c-.052-.314-.177-.615-.399-.837s-.523-.347-.837-.294H1.685c-.314-.053-.615.072-.837.294s-.347.523-.347.837v8.702a1.167 1.167 0 0 0 1.167 1.167h10.646a.79.79 0 0 0 .733-.496l2.169-5.421a.79.79 0 0 0-.733-1.083H4.892a.79.79 0 0 0-.733.496L2.878 12.2"/></svg>