<!-- SPDX-FileCopyrightText: © 2025 Schneider Electric SPDX-License-Identifier: LicenseRef-Proprietary -->
<svg xmlns="http://www.w3.org/2000/svg" viewBox="0 0 16 16"><path fill="none" stroke="currentColor" stroke-linecap="round" stroke-linejoin="round" d="M.5 13.511V7.762l1-2.933V2.263s-.363-.751.955-.751 1.201.653 1.045.751v2.401c.155 0 1.33 2.112 1.347 2.933s0 5.915 0 5.915h4.836s-1.745-.765-1.745-2.841 2.018-2.996 2.018-2.996.263-.114.45-.157c0 0-.453-1.222-1.271-1.872l1.758-.531s.596.803.763 1.474c0 0 1.6-1.677 3.841-1.202 0 0-.347 1.494-2.508 2.283 0 0 2.055.853 2.055 3.003s-1.727 2.833-1.727 2.833"/></svg>