<!-- SPDX-FileCopyrightText: © 2025 Schneider Electric SPDX-License-Identifier: LicenseRef-Proprietary -->
<svg xmlns="http://www.w3.org/2000/svg" viewBox="0 0 16 16"><path fill="none" stroke="currentColor" stroke-linecap="round" stroke-linejoin="round" d="M7.839 10.38s.156 2.956-2.18 2.956-2.442-3.305-2.442-3.305l3.54-.941-.34-.663-.052-.706s-2.782.026-3.514-2.17c-.732-2.197 3.042-2.834 3.042-2.834L7.08 6.476c.376-.376.889-.209.889-.209s.34-3.602 2.441-3.602 2.46 3.122 2.46 3.122L9.199 7.052s.313.209.366.523.027.445.027.445 3.653-.402 3.653 2.223-3.147 2.86-3.147 2.86l-.951-3.138"/></svg>