<!-- SPDX-FileCopyrightText: © 2025 Schneider Electric SPDX-License-Identifier: LicenseRef-Proprietary -->
<svg xmlns="http://www.w3.org/2000/svg" viewBox="0 0 16 16"><path fill="none" stroke="currentColor" stroke-linecap="round" stroke-linejoin="round" d="M11.968.5 15.5 2.389l-3.393 2.437m-7.356 6.508c.415.363.965.584 1.567.584 1.293 0 2.341-1.017 2.341-2.271S7.611 7.376 6.318 7.376 3.977 8.393 3.977 9.647l-3.478 1.7s.272 1.315 1.493 2.471c.394-.255 1.106-.914 1.106-.914h0a4.66 4.66 0 0 0 1.784 1.054l-.036 1.356s1.964.456 2.991-.062c-.031-.458-.208-1.243-.208-1.243a4.7 4.7 0 0 0 1.889-1.046l1.203.781s1.013-.865 1.434-2.47c-.424-.203-1.316-.484-1.316-.484h0a4.4 4.4 0 0 0 .02-2.137l.057-.013 1.251-.582s-.523-1.347-1.543-2.414c-.394.255-1.065.781-1.065.781l-.007.007a4.7 4.7 0 0 0-1.894-1.069l-.019-.052.106-1.342s-1.283-.359-2.926.09c.031.458.164 1.285.164 1.285l.009.029a4.7 4.7 0 0 0-1.858 1.054h0s-1.142-.844-1.239-.823C1.444 6.049.431 7.682.512 8.108c.424.203 1.315.518 1.315.518"/></svg>