<!-- SPDX-FileCopyrightText: © 2025 Schneider Electric SPDX-License-Identifier: LicenseRef-Proprietary -->
<svg xmlns="http://www.w3.org/2000/svg" viewBox="0 0 16 16"><path fill="none" stroke="currentColor" stroke-linecap="round" stroke-linejoin="round" d="M15.221 10.034s-.836-.061-.982-.526c-.226-.719.026-1.139-.897-1.509-.583-.233-.857.504-.819 1.049.02.285.244.987.244.987s-1.625 1.071-1.747 1.843c-.077.491.306 1.058.81 1.058.479 0 1.081-.968 1.351-1.231.69-.671 1.372-.055 1.372-.055l-.091.158A7.5 7.5 0 0 1 .654 6.481s.645.08 1.041 1.6c.346 1.326.833 1.435 1.384 1.435.479 0 1.258-.654 2.554-.515.998.107 1.188 1.231 1.44 1.72.265.514 1.09-.081 1.09-.081s.345.533.664.361c.985-.529 2.399-1.893 2.399-3.424 0-.963-1.084-2.315-1.777-3.188-.68-.858-.665-1.972-1.263-1.972-.678 0-.543 1.99-.543 1.99l-.856-.265c0-.972-.505-1.023-1.155-.992-.731.035-1.405 1.601-2.644 2.036-.834.293-1.469-.574-1.488-.932a7.5 7.5 0 0 1 13.721 5.78Z"/></svg>