<!-- SPDX-FileCopyrightText: © 2025 Schneider Electric SPDX-License-Identifier: LicenseRef-Proprietary -->
<svg xmlns="http://www.w3.org/2000/svg" viewBox="0 0 16 16"><path fill="none" stroke="currentColor" stroke-linecap="round" stroke-linejoin="round" d="M7.342.529Q7.668.5 8 .5c4.142 0 7.5 3.36 7.5 7.506a7.51 7.51 0 0 1-5.944 7.344s.748-.959 1.997-2.209c.457-.457.913-1.179 1.217-1.706a.773.773 0 0 0-.275-1.047L9.184 8.4c-.541-.271-1.579 0-1.579 0s-.789-.126-1.579-.79c-.508-.427-.834-1.244-.099-1.534.361-.143.939.341 1.11.648.164.295.625.165.695-.165.184-.872.817-1.531 1.902-2.192a.55.55 0 0 0 .115-.843L8.617 2.318a.74.74 0 0 0-.534-.236c-.752-.01-2.66-.145-3.074-.961-.797.338-1.289.721-1.289.721.373 1.064.114 1.474-.441 2.332-1.548 2.39 1.244 4.202 2.823 4.992.826.413 1.378.707.714 1.605-.596.807.227 1.799.806 2.101.99.517-.039 2.628-.039 2.628A7.504 7.504 0 0 1 .5 8.006c0-1.687.556-3.244 1.495-4.498"/></svg>