<!-- SPDX-FileCopyrightText: © 2025 Schneider Electric SPDX-License-Identifier: LicenseRef-Proprietary -->
<svg xmlns="http://www.w3.org/2000/svg" viewBox="0 0 16 16"><path fill="none" stroke="currentColor" stroke-linecap="round" stroke-linejoin="round" d="M7.988.5v5M9.706.742l.639 4.448m1.045-4.106 1.056 3.188M6.269.742 5.63 5.19M4.585 1.084 3.529 4.272M8.5 9.5v6M5.292 9.006 3.09 14.135M1.744 3.753c-.134 4.16 5.135 6.938 8.948 5.126l2.256 5.255m-.715-6.201c1.244-1.038 2.023-2.526 2.023-4.18C14.256 1.956 11.455.5 8 .5S1.744 1.956 1.744 3.753 4.545 7.006 8 7.006a11 11 0 0 0 2.981-.392"/></svg>