<!-- SPDX-FileCopyrightText: © 2025 Schneider Electric SPDX-License-Identifier: LicenseRef-Proprietary -->
<svg xmlns="http://www.w3.org/2000/svg" viewBox="0 0 16 16"><path fill="none" stroke="currentColor" stroke-linecap="round" stroke-linejoin="round" d="M8.292 5.352c1.497-1.157 5.226-3.889 5.226-3.889s.562-.37 1.187.306c.499.54-.135 1.152-.135 1.152-.459.365-4.882 3.9-4.882 3.9m.664 2.17s4.121-3.423 4.58-3.788c0 0 .447-.52-.065-1.049m-4.515 4.837c1.484-1.138 4.381-3.63 4.58-3.788 0 0 .398-.484-.065-1.049-.637-.777-1.413-.313-1.413-.313m1.334 4.03s.661-.614.203-1.141c-.649-.747-1.486-.3-1.486-.3M.5 11.466c.732 1.455 1.86 3.088 2.432 3.806.342.429.663.12.663.12s2.426-2.18 3.03-2.571c.604-.39 2.054-.464 3.119-.893s4.281-3.247 4.999-4M8.304 5.363s3.384-2.771 3.843-3.136c0 0 .408-.492-.066-1.049-.576-.676-1.22-.182-1.22-.182s-4.405 3.193-5.588 4.44m-.123.044s2.007-2.422 1.762-3.795S5.828.51 5.828.51m-.035.02L1.657 5.662s-.816.772-.086 1.684c.729.912-.374 1.242-.833 2.315"/></svg>