<!-- SPDX-FileCopyrightText: © 2025 Schneider Electric SPDX-License-Identifier: LicenseRef-Proprietary -->
<svg xmlns="http://www.w3.org/2000/svg" viewBox="0 0 16 16"><path fill="none" stroke="currentColor" stroke-linecap="round" stroke-linejoin="round" d="M5.647 6.062s-.675-.311-1.254.238c-1.549 1.467.836 3.267.836 3.267S3.72 8.389 2.986 6.453C2.235 4.472 2.425.51 8.271.501c6.159-.01 4.581 5.105 4.362 5.485-.217.378-.181.438.114.991.191.359.58 1.381.58 1.381l-1.017 1 .162.733-.181.362s.111.575.057.819c-.19.848-.844 1.887-2.138 1.724-1.663-.21-1.768.981-1.768.981l-.38 1.524L3.3 13.082"/></svg>