<!-- SPDX-FileCopyrightText: © 2025 Schneider Electric SPDX-License-Identifier: LicenseRef-Proprietary -->
<svg xmlns="http://www.w3.org/2000/svg" viewBox="0 0 16 16"><path fill="none" stroke="currentColor" stroke-linecap="round" stroke-linejoin="round" d="m10.096 11.736 3.65 3.657m.026.019c.223.218.769.019 1.221-.445.451-.464.636-1.016.413-1.234l-3.78-3.784m1.527 1.415c1.552-2.176 1.97-4.479.882-5.449m-8.617 8.032.851.713c.991.883 2.932.395 4.765-1.057M6.512.5l.536 2.21-2.147-.601.375 1.98-2.284-.369.731 2.249-2.131.053.943 2.219-2.028.111s-.151.887.968 1.92c1.184 1.093 3.943 3.676 3.943 3.676m8.617-8.033s-3.462-3.763-4.011-4.24m3.129 9.689c1.552-2.176 1.97-4.479.882-5.449m-4.268.689a10.6 10.6 0 0 0-1.871 1.673c-2.145 2.415-2.873 5.273-1.628 6.383"/></svg>