<!-- SPDX-FileCopyrightText: © 2025 Schneider Electric SPDX-License-Identifier: LicenseRef-Proprietary -->
<svg xmlns="http://www.w3.org/2000/svg" viewBox="0 0 16 16"><path fill="none" stroke="currentColor" stroke-linecap="round" stroke-linejoin="round" d="M.5 6.026 8 .5l7.5 5.384V15.5h-3m1.018-2.506c0-.741.156-2.107-.56-2.881s-1.038-.785-1.245-1.055S10.924 6.5 9.617 6.5H5.148c-1.306 0-1.887 2.287-2.094 2.556s-.529.28-1.244 1.054c-.715.773-.56 3.341-.56 4.081s.21 1.31.48 1.31h1.297c.582 0 .725-1.075.725-1.075s2.358.103 3.439.103 3.824-.103 3.824-.103-.101 1.075.481 1.075h1.005m-8.494-3.455 1.611.083m5.309-.083-1.611.083"/></svg>