<!-- SPDX-FileCopyrightText: © 2025 Schneider Electric SPDX-License-Identifier: LicenseRef-Proprietary -->
<svg xmlns="http://www.w3.org/2000/svg" viewBox="0 0 16 16"><path fill="none" stroke="currentColor" stroke-linecap="round" stroke-linejoin="round" d="M5.89 4.944c.469-.655 1.202-1.077 2.03-1.077 1.378 0 2.493 1.167 2.565 2.632h.014v2M12.5 13.5V9.522c0-.56-.454-1.014-1.013-1.014L4.499 8.5c-.563 0-1.018.456-1.016 1.019l.017 4.97A1.015 1.015 0 0 0 4.514 15.5H15.5V5.884L8 .5.5 6.026M8 10.5a1.5 1.5 0 1 0 .001 3.001A1.5 1.5 0 0 0 8 10.5Z"/></svg>