<!-- SPDX-FileCopyrightText: © 2025 Schneider Electric SPDX-License-Identifier: LicenseRef-Proprietary -->
<svg xmlns="http://www.w3.org/2000/svg" viewBox="0 0 16 16"><path fill="none" stroke="currentColor" stroke-linecap="round" stroke-linejoin="round" d="M4.373 9.829c.585-1.521-.622-1.676 0-3.294m1.515.001c-.622 1.618.585 1.773 0 3.294M2.857 6.536c-.622 1.618.585 1.773 0 3.294M15.5 15.5h-3.99l-.006-1.891s.344-.969 1.606-1.757c.419-.262.113-1.154.113-1.154l-.033-1.224s.072-.696-.165-1.07c-.5-.788-1.311-.27-1.311-.27-.15.137-.348.409-.447.638-.2.467-.292.974-.28 1.482l-.039.819-2.039.834c-.628.254-.565.996-.565.996l-.046 2.593H5.519l-.041.001.288-3.861H2.828l.205 3.862h-.041l-2.49.001m11.204-9.025c.189-.159.282-.395.282-.662a.842.842 0 1 0-1.686 0c0 .417.244.774.642.841 0 0 .43.099.761-.179Zm.205 7.077 2.06.01M15.5 15.5V5.884L8 .5.5 6.026"/></svg>