<!-- SPDX-FileCopyrightText: © 2025 Schneider Electric SPDX-License-Identifier: LicenseRef-Proprietary -->
<svg xmlns="http://www.w3.org/2000/svg" viewBox="0 0 16 16"><path fill="none" stroke="currentColor" stroke-linecap="round" stroke-linejoin="round" d="M11.5 5.5H7.792c-.654 0-1.184-.532-1.184-1.188s.53-1.188 1.184-1.188c0 0 .054-.004.111-.002.057.003.102.008.102.008a2 2 0 0 1 1.858-1.264c.205 0 .416.042.568.09a1.996 1.996 0 0 1 3.786.888l.015.28c.653 0 1.184.532 1.184 1.188S14.885 5.5 14.232 5.5H13.5M.5.5l3 2.225V15.5h12"/></svg>