<!-- SPDX-FileCopyrightText: © 2025 Schneider Electric SPDX-License-Identifier: LicenseRef-Proprietary -->
<svg xmlns="http://www.w3.org/2000/svg" viewBox="0 0 16 16"><path d="M9.127 9.55a.455.455 0 1 1-.909-.001.455.455 0 0 1 .909.001Zm0 1.818a.455.455 0 1 1-.909-.001.455.455 0 0 1 .909.001Zm2.666-.471a.455.455 0 1 1-.789.455.455.455 0 0 1 .789-.455Zm-5.455.455a.455.455 0 1 1-.787-.455.455.455 0 0 1 .787.455Zm4.546-2.029a.455.455 0 1 1-.787.455.455.455 0 0 1 .787-.455Zm-3.637.454a.454.454 0 1 1-.787-.455.454.454 0 0 1 .787.455Z"/><path fill="none" stroke="currentColor" stroke-linecap="round" stroke-linejoin="round" d="m15.5 15.5-12 .006V7.833c-.001-1.195.767-2.321 1.932-2.585 1.668-.378 2.781.485 2.781 2.087M9.5 7.5h-3m9 8V5.882L8 .5.5 6.024"/></svg>