<!-- SPDX-FileCopyrightText: © 2025 Schneider Electric SPDX-License-Identifier: LicenseRef-Proprietary -->
<svg xmlns="http://www.w3.org/2000/svg" viewBox="0 0 16 16"><path fill="none" stroke="currentColor" stroke-linecap="round" stroke-linejoin="round" d="M4.105 12.594c-.047-.34-.097-.427-.147-.858m1.791 0c.024.432.05.52.073.86m1.783.005v-.951m1.88.951c.024-.341.05-.431.075-.865m1.642.867c.047-.342.099-.432.149-.867M3.699 9.831c-.076-.717-.13-1.043-.13-1.043m2.05 1.043c-.038-.717-.065-1.043-.065-1.043m2.051 1.093V8.788m2.15 0s-.027.327-.065 1.043m2.105-1.043s-.054.327-.13 1.043m.677-3.326H1.556C.521 6.505.5 8.039.5 8.542m0 .004h1.395s.499 3.978.749 4.81 1.082 1.317 1.581 1.317h7.09c.499 0 1.331-.485 1.581-1.317s.749-4.81.749-4.81h1.067m.788-2.288L13.817 4.32s-.871.3-1.906-.338-.955-1.803-.955-1.803L8.624 1.052 7.09 2.93l1.2.976-1.496 2.351"/></svg>