<!-- SPDX-FileCopyrightText: © 2025 Schneider Electric SPDX-License-Identifier: LicenseRef-Proprietary -->
<svg xmlns="http://www.w3.org/2000/svg" viewBox="0 0 16 16"><path fill="none" stroke="currentColor" stroke-linecap="round" stroke-linejoin="round" d="M6.582 2.074V.5m3.254 2.508.957-.955m.813 3.956h1.574M3.725 3.204l-.955-.957M.5 6.008h1.574m3.86 9.442 1.192.004s.632-.068.88-.885c.136-.448.162-.645.151-.656-.006-.006-.599-.024-.599-.024H6.085s-.753-.061-.753-.786.678-.775.678-.775h2.266v-.691c0-.874.286-1.708.852-2.285.792-.783 1.178-1.964.853-3.217-.255-.981-1.331-2.038-2.313-2.287a3.291 3.291 0 0 0-3.344 5.324c.546.49.811.737.884 1.365m6.808 4.963 3.451-4.685-3.057.181 3.09-4.244"/></svg>