<!-- SPDX-FileCopyrightText: © 2025 Schneider Electric SPDX-License-Identifier: LicenseRef-Proprietary -->
<svg xmlns="http://www.w3.org/2000/svg" viewBox="0 0 16 16"><path fill="none" stroke="currentColor" stroke-linecap="round" stroke-linejoin="round" d="M8.048 1.989 8.05.5m3.059 2.72L12.9 1.431M4.481 3.433l-.695-.697M2.544 6.5zm-1.044 5h3m7 0h4m-2 2v-4M8.753 3.963 6.577 6.135m.548 1.618 2.996-2.99M8.076 8.956l2.729-2.725M7.5 15.5h.954s.874-.032.874-1c0-1.065-.892-1-.892-1l-.873.014s-.82.052-.82-.974c0-1.161 1.059-1.066 1.059-1.04l1.698-.023v-.444c0-.808.265-1.58.788-2.113a3.039 3.039 0 1 0-5.181-2.154c0 .756.279 1.456.736 1.988.448.401.692.627.789 1.077"/></svg>