<!-- SPDX-FileCopyrightText: © 2025 Schneider Electric SPDX-License-Identifier: LicenseRef-Proprietary -->
<svg xmlns="http://www.w3.org/2000/svg" viewBox="0 0 16 16"><path fill="none" stroke="currentColor" stroke-linecap="round" stroke-linejoin="round" d="M5.596 9.702c-.009-1.195-.332-1.502-1.16-2.244A4.216 4.216 0 0 1 8.72.636c1.259.318 2.637 1.673 2.964 2.93.417 1.606-.078 3.118-1.093 4.122-.724.739-1.091 1.808-1.091 2.927v.885H6.597s-.869.061-.869.993.964 1.007.964 1.007H8.58s.76.023.767.03c.015.015-.019.266-.193.841-.318 1.047-1.127 1.134-1.127 1.134L6.5 15.5"/></svg>