<!-- SPDX-FileCopyrightText: © 2025 Schneider Electric SPDX-License-Identifier: LicenseRef-Proprietary -->
<svg xmlns="http://www.w3.org/2000/svg" viewBox="0 0 16 16"><path fill="none" stroke="currentColor" stroke-linecap="round" stroke-linejoin="round" d="M11.508 7.5v6.512c0 .504-.099 1.486-.968 1.486-.989 0-1.032-.988-1.032-1.486V5.5H6.522q-.61 0-.907-.271-.297-.28-.297-.733c0-.312.102-.544.305-.724q.314-.271.899-.271h7.758q.617 0 .915.279a.85.85 0 0 1 .305.682c0 .301-.102.582-.305.767q-.306.271-.915.271h-2.772M7.435 1.922C6.889 1.302 6.166.801 5.481.628A3.96 3.96 0 0 0 .5 4.454c0 .985.363 1.895.958 2.588.687.617 1.004.914 1.074 1.751m4.757-1.25c-.516.671-.777 1.551-.777 2.467v.489h-2.9s-.868.061-.868.993.963 1.008.963 1.008h1.335s.759.023.766.03c.015.015-.019.266-.193.841-.317 1.047-1.126 1.134-1.126 1.134l-.978-.005"/></svg>