<!-- SPDX-FileCopyrightText: © 2025 Schneider Electric SPDX-License-Identifier: LicenseRef-Proprietary -->
<svg xmlns="http://www.w3.org/2000/svg" viewBox="0 0 16 16"><path fill="none" stroke="currentColor" stroke-linecap="round" stroke-linejoin="round" d="m7.561 4.754.006-.006.007-.007.25-.25 3.098-3.098C12.039.276 13.77.195 14.788 1.212h0c1.018 1.018.937 2.748-.181 3.866l-.725.725-1.832 1.832M6.017 6.353c-.281.387-.46.821-.533 1.261-.135.81.086 1.638.675 2.227h0q.22.218.476.369l.008.005m3.654-2.688a2.4 2.4 0 0 0-.647-1.176h0a2.4 2.4 0 0 0-.475-.368M3.758 8.557l-1.64 1.64-.725.725C.276 12.039.195 13.77 1.212 14.788h0c1.018 1.018 2.748.937 3.866-.181l2.906-2.906 1.484-1.484c.033-.033.112-.152.211-.32M.549.549 15.45 15.45"/></svg>