<!-- SPDX-FileCopyrightText: © 2025 Schneider Electric SPDX-License-Identifier: LicenseRef-Proprietary -->
<svg xmlns="http://www.w3.org/2000/svg" viewBox="0 0 16 16"><circle cx="4.5" cy="8.5" r=".5"/><circle cx="4.5" cy="10.5" r=".5"/><circle cx="4.5" cy="12.5" r=".5"/><path fill="none" stroke="currentColor" stroke-linecap="round" stroke-linejoin="round" d="M6.5 8.5h5m-5 2h5m-5 2h5m1-10h-.078c.781 0 1.078.778 1.078 1.344v10.077a1.58 1.58 0 0 1-1.579 1.579H4.079A1.58 1.58 0 0 1 2.5 13.921V4.079A1.58 1.58 0 0 1 4.079 2.5h1.185l-.027.112L4.79 4.5h6.443l-.862-2.875A1.58 1.58 0 0 0 8.859.5H7.15c-.481 0-.923.218-1.216.572"/></svg>