<!-- SPDX-FileCopyrightText: © 2025 Schneider Electric SPDX-License-Identifier: LicenseRef-Proprietary -->
<svg xmlns="http://www.w3.org/2000/svg" viewBox="0 0 16 16"><path fill="none" stroke="currentColor" stroke-linecap="round" stroke-linejoin="round" d="M15.5 4.172c-4.718 3.378-3.111 5.934-3.111 5.934-.55.163-1.092 2.147-1.092 2.147-.837-.009-1.824 1.908-1.824 1.908-3.559-1.179-4.983 2.45-5.039.985s-2.242-2.364-2.242-2.724 1.535-6.6 1.492-7.544C3.63 3.683 1.126 3.715.967 3.467.807 3.22.11 1.293.796 1.376S2.534.5 2.534.5s4.605.816 6.394.688c1.658-.118 1.802 1.548 4.338 1.42"/></svg>