<!-- SPDX-FileCopyrightText: © 2025 Schneider Electric SPDX-License-Identifier: LicenseRef-Proprietary -->
<svg xmlns="http://www.w3.org/2000/svg" viewBox="0 0 16 16"><path d="M13.497 4.035a.5.5 0 1 1 0-1 .5.5 0 0 1 0 1Z"/><path fill="none" stroke="currentColor" stroke-linecap="round" stroke-linejoin="round" d="M7.004 6.299c-.91 1.501.945 1.872 0 3.42m-2.279 0c1.216-1.216-.91-1.919 0-3.42m4.482 3.435c.973-1.547-.909-1.919 0-3.42m6.274 5.186.019-8.894c0-.611-.46-1.106-1.029-1.106H1.552C.984 1.5.523 1.996.523 2.606L.501 13.395c0 .611.461 1.106 1.029 1.106h12.92c.568 0 1.029-.495 1.029-1.106M2.5 12.5h9v-9h-9v7"/><path d="M13.497 5.976a.474.474 0 1 1 0-.947.474.474 0 0 1 0 .947Zm0 2.047a.48.48 0 1 1 0-.96.48.48 0 0 1 0 .96Z"/></svg>