<!-- SPDX-FileCopyrightText: © 2025 Schneider Electric SPDX-License-Identifier: LicenseRef-Proprietary -->
<svg xmlns="http://www.w3.org/2000/svg" viewBox="0 0 16 16"><path fill="none" stroke="currentColor" stroke-linecap="round" stroke-linejoin="round" stroke-width=".994" d="M8.3 15.5H6.816c-.523 0-1.151-.385-1.37-.866-.744-1.633.237-3.082 1.695-3.082h.186c.464-1.128 1.486-1.974 2.786-1.974a3.015 3.015 0 0 1 2.972 2.632c.346-.117.548-.089.963-.095.455-.007.888.227 1.129.617.84 1.367-.081 2.767-1.348 2.767H9.861m5.46-7.894h-2.34M7.848 2.868V.5M2.84 7.605H.5m2.603-4.588 1.145 1.158m-1.145 8.572 1.145-1.158m8.47-8.572-1.145 1.158m-.285 3.707c0-1.923-1.54-3.481-3.44-3.481s-3.44 1.559-3.44 3.481c0 .968.39 1.844 1.021 2.475"/></svg>