<!-- SPDX-FileCopyrightText: © 2025 Schneider Electric SPDX-License-Identifier: LicenseRef-Proprietary -->
<svg xmlns="http://www.w3.org/2000/svg" viewBox="0 0 16 16"><path fill="none" stroke="currentColor" stroke-linecap="round" stroke-linejoin="round" d="M9.077 10.592c.962-.733 2.771-1.477 3.994-1.413m.163-5.65a1.183 1.183 0 0 0 1.567 1.561c.596-.27.862-.974.593-1.573a1.18 1.18 0 0 0-.721-.64m-1.439 5.408a1.183 1.183 0 0 0 1.567 1.561c.596-.27.862-.974.593-1.573a1.18 1.18 0 0 0-.721-.64m-4.597-6.481a1.182 1.182 0 0 0 1.566 1.56c.596-.27.862-.974.593-1.573a1.18 1.18 0 0 0-.72-.64M5.339 2.737a1.182 1.182 0 0 0 1.566 1.56c.596-.27.862-.974.593-1.573a1.18 1.18 0 0 0-.72-.64M5.681 7.331c.701-.721 1.025-2.079 1.073-2.935m.044 4.001c1.453-1.732 2.856-3.458 3.62-5.666M7.936 9.496c1.786-1.355 3.827-2.886 5.379-4.471M7.621 15.5c.437-1.352 1.167-2.794 2.338-4.06L6.794 8.4M5.681 7.331l-.856-.822C2.28 9.26.945 12.611.5 15.5m7.054-3.983c-1.105 1.252-1.791 2.658-2.202 3.983"/></svg>