<!-- SPDX-FileCopyrightText: © 2025 Schneider Electric SPDX-License-Identifier: LicenseRef-Proprietary -->
<svg xmlns="http://www.w3.org/2000/svg" viewBox="0 0 16 16"><path fill="none" stroke="currentColor" stroke-linecap="round" stroke-linejoin="round" d="M2.523 8.897V1.289c0-.436.388-.789.867-.789h3.532m6.555 8.476V4.867a.76.76 0 0 0-.289-.595L8.886.571V4.5h1.896"/><path d="M1.496 15.971q-.248 0-.38-.141a.54.54 0 0 1-.132-.388v-4.656q0-.255.136-.388t.384-.132h1.928q.928 0 1.432.464c.504.464.504.741.504 1.296s-.168.988-.504 1.3q-.504.468-1.432.468H2.008v1.648a.56.56 0 0 1-.128.388q-.127.141-.384.141Zm.512-2.985h1.264q.544 0 .824-.244.28-.243.28-.716c0-.473-.093-.552-.28-.712q-.28-.24-.824-.24H2.008zm4.432 2.985q-.249 0-.38-.141a.54.54 0 0 1-.132-.388v-4.656q0-.255.136-.388.137-.133.384-.132h1.928q.928 0 1.432.464c.504.464.504.741.504 1.296s-.168.988-.504 1.3q-.504.468-1.432.468H6.952v1.648a.56.56 0 0 1-.128.388q-.127.141-.384.141Zm.512-2.985h1.264q.544 0 .824-.244.28-.243.279-.716c-.001-.473-.093-.552-.279-.712q-.28-.24-.824-.24H6.952zm6.287 2.985q-.248 0-.38-.141a.54.54 0 0 1-.132-.388v-4.32h-1.56q-.208 0-.324-.116a.43.43 0 0 1-.116-.315q0-.208.116-.316c.116-.108.186-.107.324-.107h4.144q.208 0 .324.107c.116.107.116.178.116.316a.43.43 0 0 1-.116.315.44.44 0 0 1-.324.116h-1.56v4.32a.56.56 0 0 1-.128.388q-.128.141-.385.141Z"/></svg>