<!-- SPDX-FileCopyrightText: © 2025 Schneider Electric SPDX-License-Identifier: LicenseRef-Proprietary -->
<svg xmlns="http://www.w3.org/2000/svg" viewBox="0 0 16 16"><path fill="none" stroke="currentColor" stroke-linecap="round" stroke-linejoin="round" d="M7.81 13.657c-.964 0-1.579-.609-1.579-1.575V9.304c0-1.106.833-1.972 2.038-1.698.837.191 1.501 1.134 1.501 1.992v2.483c0 .301-.058.584-.167.831M6.17 9.433l-.771-.769H4.107m7.786 0h-1.292l-.806.872m-3.564 1.959H4.815v1.416m6.37 0v-1.416H9.769M7.34 7.614l-.495-1.073H5.523m4.954 0H9.358l-.523 1.101M6.538.5H3.389c-.479 0-.867.353-.867.789V14.71c0 .436.388.789.867.789h9.221c.479 0 .867-.353.867-.789V4.868a.76.76 0 0 0-.289-.595L8.478.571V4.5h2.011"/></svg>