<!-- SPDX-FileCopyrightText: © 2025 Schneider Electric SPDX-License-Identifier: LicenseRef-Proprietary -->
<svg xmlns="http://www.w3.org/2000/svg" viewBox="0 0 16 16"><path fill="none" stroke="currentColor" stroke-linecap="round" stroke-linejoin="round" d="M2.523 8.897V1.289c0-.436.388-.789.867-.789h3.532m6.555 8.476V4.867a.76.76 0 0 0-.289-.595L8.886.571V4.5h1.896"/><path d="M2.818 15.926a.6.6 0 0 1-.324-.08.4.4 0 0 1-.168-.22.57.57 0 0 1 0-.312q.043-.172.18-.355l3.056-4.145v.328H2.738q-.224 0-.34-.112t-.116-.319c0-.207.039-.244.116-.316q.115-.107.34-.107H6.05q.2 0 .324.08t.168.216c.044.136.029.194 0 .312s-.09.237-.181.36l-3.056 4.136v-.32h2.944q.224 0 .34.108c.116.108.116.178.116.316s-.039.245-.116.319q-.115.112-.34.112zm5.184.064q-.248 0-.38-.141a.54.54 0 0 1-.132-.388v-4.712q0-.257.132-.393.132-.135.38-.136c.248-.001.292.046.38.136q.132.136.132.393v4.712q0 .248-.128.388t-.384.141Zm2.319 0q-.248 0-.38-.141a.54.54 0 0 1-.132-.388v-4.656q0-.256.136-.388c.136-.132.219-.132.384-.132h1.929q.928 0 1.432.464c.504.464.504.741.504 1.296s-.168.988-.504 1.3q-.504.468-1.432.468h-1.425v1.648q0 .248-.128.388-.127.141-.384.141Zm.512-2.984h1.265q.544 0 .823-.244.281-.243.28-.716c-.001-.473-.093-.552-.28-.712q-.28-.24-.823-.24h-1.265z"/></svg>