<!-- SPDX-FileCopyrightText: © 2025 Schneider Electric SPDX-License-Identifier: LicenseRef-Proprietary -->
<svg xmlns="http://www.w3.org/2000/svg" viewBox="0 0 16 16"><path fill="none" stroke="currentColor" stroke-linecap="round" stroke-linejoin="round" d="M2.523 8.897V1.289c0-.436.388-.789.867-.789h3.532m6.555 8.476V4.867a.76.76 0 0 0-.289-.595L8.886.571V4.5h1.896"/><path d="M1.241 15.961q-.248 0-.38-.141a.54.54 0 0 1-.132-.388v-4.656q0-.256.136-.388.136-.133.384-.132h1.928q.928 0 1.432.443c.504.443.504.711.504 1.244q0 .52-.228.896-.228.375-.66.575t-1.048.2l.072-.12h.264q.328 0 .572.16t.428.504l.6 1.112q.096.169.088.328c-.008.159-.045.193-.12.26s-.184.101-.328.101-.262-.031-.352-.093a.8.8 0 0 1-.24-.283l-.808-1.488q-.144-.273-.34-.364c-.196-.091-.297-.092-.5-.092h-.76v1.792a.56.56 0 0 1-.128.388q-.127.141-.384.141Zm.512-3.08h1.248q.551 0 .836-.229.284-.228.284-.684 0-.448-.284-.676t-.836-.229H1.753v1.816Zm4.8 3.08a.52.52 0 0 1-.388-.141q-.14-.14-.14-.404V10.8q0-.265.14-.403c.14-.138.228-.14.404-.14h2.792q.209 0 .312.104a.4.4 0 0 1 .104.296.43.43 0 0 1-.104.309q-.104.107-.312.107H7.049v1.592h2.144q.2 0 .308.104t.108.296q0 .2-.108.308-.107.108-.308.108H7.049v1.936q0 .545-.496.545Zm3.833 0a.5.5 0 0 1-.309-.089.36.36 0 0 1-.14-.235.6.6 0 0 1 .056-.332l2.112-4.681a.77.77 0 0 1 .252-.332.6.6 0 0 1 .34-.1q.184 0 .333.1a.8.8 0 0 1 .252.332l2.12 4.681q.088.183.063.336c-.025.153-.062.18-.136.236a.5.5 0 0 1-.296.084.52.52 0 0 1-.349-.108.9.9 0 0 1-.22-.332l-.52-1.208.432.28H11l.432-.28-.512 1.208a1.1 1.1 0 0 1-.216.336.46.46 0 0 1-.32.104Zm2.296-4.593-1.12 2.664-.208-.256h2.672l-.199.256-1.129-2.664z"/></svg>