<!-- SPDX-FileCopyrightText: © 2025 Schneider Electric SPDX-License-Identifier: LicenseRef-Proprietary -->
<svg xmlns="http://www.w3.org/2000/svg" viewBox="0 0 16 16"><path fill="none" stroke="currentColor" stroke-linecap="round" stroke-linejoin="round" d="M2.523 8.897V1.289c0-.436.388-.789.867-.789h3.532m6.555 8.476V4.867a.76.76 0 0 0-.289-.595L8.886.571V4.5h1.896"/><path d="M1.028 15.776q-.249 0-.38-.141a.54.54 0 0 1-.132-.388v-4.656q0-.256.136-.388c.136-.132.219-.132.384-.132h1.928q.928 0 1.432.464c.504.464.504.741.504 1.296s-.168.988-.504 1.3q-.504.468-1.432.468H1.54v1.648a.56.56 0 0 1-.128.388q-.127.141-.384.141Zm.512-2.984h1.264q.544 0 .824-.244.28-.243.28-.716c0-.473-.093-.552-.28-.712q-.28-.24-.824-.24H1.54zm4.8 2.92q-.264 0-.404-.14t-.14-.404v-4.552q0-.265.14-.404.14-.14.404-.14h1.552q1.415 0 2.188.728c.773.728.771 1.182.771 2.088q0 .68-.195 1.204c-.195.524-.322.645-.576.884a2.5 2.5 0 0 1-.928.548 3.9 3.9 0 0 1-1.26.188zm.48-.848h1.008q.496 0 .86-.124.363-.125.608-.368.243-.244.363-.616c.12-.372.119-.537.119-.868q0-.992-.486-1.479-.488-.488-1.464-.488H6.82zm5.567.912a.52.52 0 0 1-.388-.141q-.14-.14-.14-.404v-4.615q0-.265.14-.404.141-.14.404-.14h2.792q.208 0 .312.104c.104.104.104.168.104.296a.43.43 0 0 1-.104.309q-.104.107-.312.107h-2.312v1.592h2.145q.199 0 .308.104c.109.104.108.168.108.296q0 .2-.108.308t-.308.108h-2.145v1.936q0 .545-.496.545Z"/></svg>