<!-- SPDX-FileCopyrightText: © 2025 Schneider Electric SPDX-License-Identifier: LicenseRef-Proprietary -->
<svg xmlns="http://www.w3.org/2000/svg" viewBox="0 0 16 16"><path fill="none" stroke="currentColor" stroke-linecap="round" stroke-linejoin="round" d="M7.605 12.34H.5v-2.075a4.91 4.91 0 0 1 3.756-4.767c-.809-.42-1.362-1.385-1.362-2.357C2.894 1.75 4.024.5 5.419.5s2.525 1.25 2.525 2.641c0 .972-.553 1.938-1.362 2.357a4.9 4.9 0 0 1 1.644.738m3.138 9.264c.921-.142 4.417-1.064 4.118-6.958 0 0-2.061.037-4.118-1.321M7.245 8.542s2.358-.021 4.118-1.321M7.245 8.542c-.081 1.596.117 2.827.466 3.778m1.291 2.011a4.5 4.5 0 0 0 2.361 1.169"/></svg>