<!-- SPDX-FileCopyrightText: © 2025 Schneider Electric SPDX-License-Identifier: LicenseRef-Proprietary -->
<svg xmlns="http://www.w3.org/2000/svg" viewBox="0 0 16 16"><path fill="none" stroke="currentColor" stroke-linecap="round" stroke-linejoin="round" d="M15.17 15.499c-.079-1.169-1.835-1.81-2.907-1.747-1.44.084-2.454.939-2.454.939s-2.369 1.562-3.594.345c-1.33-1.321.161-2.571.161-2.571l-.161-.644s.615-2.358 2.82-4.008c2.978-2.229 4.837-1.925 4.837-1.925l1.627 1.118s.147 1.204-.644 1.885c-.887.765-1.863.563-1.863.563l-.502-1.207s-1.058.267-2.007.952-1.438 1.78-1.438 1.78 1.096.845 1.014.744c.101.08-.508 1.3-1.982 1.633m-.05-7.16c-.528-.397-.782-.564-1.447-.723.809-.417 1.362-1.378 1.362-2.345 0-1.383-1.13-2.627-2.524-2.627S2.894 1.744 2.894 3.128c0 .967.553 1.928 1.362 2.345C2.101 5.991.501 7.917.501 10.215v1.317h5.691"/></svg>