<!-- SPDX-FileCopyrightText: © 2025 Schneider Electric SPDX-License-Identifier: LicenseRef-Proprietary -->
<svg xmlns="http://www.w3.org/2000/svg" viewBox="0 0 16 16"><path fill="none" stroke="currentColor" stroke-linecap="round" stroke-linejoin="round" d="M12.5 14.434v-5.05h-2.152c-2.402 0-2.397 2.124-2.397 2.124H.5v-1.229a4.91 4.91 0 0 1 3.744-4.774c-.806-.42-1.357-1.387-1.357-2.361C2.887 1.751 4.014.5 5.403.5s2.516 1.252 2.516 2.644c0 .974-.551 1.941-1.357 2.361a4.9 4.9 0 0 1 2.758 1.82M8.051 13.56s.067 1.933 2.003 1.933h1.471l.975.007v-1.015m3-3.985h-3m3 4h-3"/></svg>