<!-- SPDX-FileCopyrightText: © 2025 Schneider Electric SPDX-License-Identifier: LicenseRef-Proprietary -->
<svg xmlns="http://www.w3.org/2000/svg" viewBox="0 0 16 16"><path fill="none" stroke="currentColor" stroke-linecap="round" stroke-linejoin="round" d="M2.482 8.503s.182-1.566 1.613-1.647c1.583-.089 1.517 1.281 1.517 1.281s.047 1.092-1.377 1.59c-.4.14-.473 1.218-.473 1.218M9.982.5c-1.322 0-2.19.783-2.19 2.105 0 1.247.576 1.855 1.117 2.025m1.666 5.88c-1.507.059-1.832.596-1.919 1.019-.128.896.773 1.282.773 1.282 2.533.302 4.462-.149 5.563-1.327.512-.548.535-1.252.535-1.252-.177-1.357-.698-5.63-3.96-5.63l.021-.016c.433-.433.789-1.032.789-1.693A2.394 2.394 0 0 0 9.982.499m.593 10.011-.16-3.491c-1.152-1.152-2.559-.225-2.559-.225S6.705 4.651 3.637 4.79c-1.676.076-3.164.533-3.164.533v9.471s1.82-.394 3.897-.195c1.669.16 3.141.901 3.141.901 1.023-1.123 2.236-.759 2.236-.759"/><circle cx="3.679" cy="12.748" r=".466"/></svg>