<!-- SPDX-FileCopyrightText: © 2025 Schneider Electric SPDX-License-Identifier: LicenseRef-Proprietary -->
<svg xmlns="http://www.w3.org/2000/svg" viewBox="0 0 16 16"><path fill="none" stroke="currentColor" stroke-linecap="round" stroke-linejoin="round" d="M11.127 15.5H3.5v-3m12 3h-2m-1-14v-1h-9v1M.923 5.484a3.65 3.65 0 0 0-.4 1.446 3.676 3.676 0 1 0 5.606-2.881m-3.941-.193 1.95 2.79M9.5 15.5l1.627-.012m2.289 0 .11-4.162s.964-.36.964-1.121c0-.462-.157-1.762-.157-2.356 0-.248-.027-1.083-.946-1.158m-.001 0c-.349-.448-.149-.681-.149-.681.66-.766.333-1.932-.288-2.246s-1.463-.077-1.777.544c-.212.419-.34 1.17.106 1.702.255.17.17.702-.298.83-.636.174-.829.792-.829 1.218 0 .582-.136 1.581-.093 2.089-.009 1.006.949 1.179.949 1.179l.118 4.162"/><circle cx="4.236" cy="3.408" r=".5"/></svg>