<!-- SPDX-FileCopyrightText: © 2025 Schneider Electric SPDX-License-Identifier: LicenseRef-Proprietary -->
<svg xmlns="http://www.w3.org/2000/svg" viewBox="0 0 16 16"><path fill="none" stroke="currentColor" stroke-linecap="round" stroke-linejoin="round" d="M3.5 13.5v-1.867c0-2.071 1.435-4.274 3.404-4.628-.762-.396-1.228-1.227-1.228-2.191 0-1.347 1.026-2.44 2.291-2.44s2.291 1.092 2.291 2.44c0 .957-.459 1.783-1.213 2.183 1.994.334 3.455 2.548 3.455 4.636V13.5M4.078 3.348c-.953.162-1.681 1.04-1.681 2.1 0 .84.459 1.564 1.123 1.91C1.803 7.667.5 9.52.5 11.326V12.5h1m13 0h1v-1.174c0-1.806-1.303-3.659-3.02-3.968.664-.346 1.123-1.07 1.123-1.91 0-1.06-.728-1.939-1.681-2.1"/></svg>