<!-- SPDX-FileCopyrightText: © 2025 Schneider Electric SPDX-License-Identifier: LicenseRef-Proprietary -->
<svg xmlns="http://www.w3.org/2000/svg" viewBox="0 0 16 16"><path fill="none" stroke="currentColor" stroke-linecap="round" stroke-linejoin="round" d="M14.113 13.077q.045-.005.091-.006c.18-.004.364.032.539.114.603.283.969 1.007.687 1.614s-1.104.866-1.707.583a1.2 1.2 0 0 1-.562-.543M6.5 12.5v3m8-2.456v-2.392c0-.706-2.416.172-3.211 1.035s-.536 1.814-.983 1.814H9.5m1.838 2.026h2.747M.5 15.5h3m7.56-7.093c.847-.118 1.391-.984 1.391-1.868 0-.966-.868-1.613-1.828-1.613-.649 0-1.31.48-1.608 1.01l-7.252 9.486m5.3-12.202.012.02s-1.14.304-1.341.469c-.456.407-.478.653-.669 1.659l-.484 2.949-.027.163M10.5 7.163v.704s.04 2.584-1 2.75V15.5M8.747 3.053c.312-.266.51-.662.51-1.106 0-.8-.645-1.448-1.44-1.448s-1.44.648-1.44 1.448c0 .531.285.996.709 1.248"/></svg>