<!-- SPDX-FileCopyrightText: © 2025 Schneider Electric SPDX-License-Identifier: LicenseRef-Proprietary -->
<svg xmlns="http://www.w3.org/2000/svg" viewBox="0 0 16 16"><path fill="none" stroke="currentColor" stroke-linecap="round" stroke-linejoin="round" stroke-width="1.014" d="M5.051 4.387c1.161.094 1.195 1.149 1.195 1.463 0 .75.199 2.393.199 2.976 0 .962-1.217 1.416-1.217 1.416l-.138 5.257m3.272.001v-14zM4.747 4.374c-.441-.566-.188-.86-.188-.86.833-.968.421-2.441-.363-2.837s-1.848-.098-2.244.687c-.267.529-.43 1.479.134 2.151.323.215.215.887-.376 1.048-.804.219-1.047 1-1.047 1.539 0 .735-.172 1.997-.118 2.639-.012 1.271 1.199 1.489 1.199 1.489l.149 5.257M11.5 12.5v3m3.02-5.529s.949-.454.949-1.416c0-.583-.042-1.979-.042-2.729 0-.314-.054-1.532-1.371-1.828M14.5 15.5v-3m-.497-8.663c.158-.134.358-.342.457-.538.396-.785.036-2.226-.749-2.622s-1.742-.082-2.138.703c-.267.529-.635 1.678.226 2.296 0 0 .484.376-.376.672-.685.235-.842.916-.864 1.49-.029.735-.077 2.003-.023 2.645-.012 1.271.934 1.489.934 1.489m-.024.119L10.69 12.5h.81m3 0h.968l-.953-2.368"/></svg>