<!-- SPDX-FileCopyrightText: © 2025 Schneider Electric SPDX-License-Identifier: LicenseRef-Proprietary -->
<svg xmlns="http://www.w3.org/2000/svg" viewBox="0 0 16 16"><path fill="none" stroke="currentColor" stroke-linecap="round" stroke-linejoin="round" d="m9.216 3.638-1.765.032-2.199 1.341s-.658.679.305 1.152c.626.308 2.401-.645 2.401-.645l.328-.018h1.027L7.804 7.743l-.608 3.118-1.222.098s-.611.23-.611.909c0 .912.701.695.701.722l2.317.167 1.188-2.966L11.41 15.5H4.018c1.427 0 1.976-1.259 1.976-1.259m9.457 1.259h-1.859l-2.184-6.951.117-2.098s.268.515.672.928.815.39.815.39l1.703-.002s.785-.193.785-.935-.65-.984-.65-.984l-1.281-.081-1.117-2.05v-.025c.831 0 1.322-.62 1.35-1.562.02-.645-.332-1.284-.945-1.516-1.112-.421-2.161.382-2.161 1.428 0 .322.099.621.269.869M5.151 9.248c.032-1.371-1.654-3.092-3.405-2.965.664 1.2 1.297 2.518.324 3.411 0 0-.627-.921-1.57-1.138 1.181 1.263-1.295 4.784 1.181 6.94l.118.004m1.925-2.108c.1-.444-.043-1.048-.796-1.466-2.139 1.215.095 3.57-1.247 3.57"/></svg>