<!-- SPDX-FileCopyrightText: © 2025 Schneider Electric SPDX-License-Identifier: LicenseRef-Proprietary -->
<svg xmlns="http://www.w3.org/2000/svg" viewBox="0 0 16 16"><path fill="none" stroke="currentColor" stroke-linecap="round" stroke-linejoin="round" d="M9.632 7.103a3.8 3.8 0 0 1 1.091-.451c-.635-.331-1.07-1.091-1.07-1.857 0-1.095.888-2.08 1.983-2.08s1.983.985 1.983 2.08c0 .766-.434 1.526-1.07 1.857 1.693.41 2.951 2.258 2.951 4.077v.771m0 0H9.194c0-2.047-1.415-4.085-3.319-4.547.715-.372 1.204-1.227 1.204-2.089 0-1.232-.999-2.34-2.231-2.34s-2.231 1.108-2.231 2.34c0 .862.489 1.717 1.204 2.089a4.35 4.35 0 0 0-3.319 4.225v2.319"/></svg>