<!-- SPDX-FileCopyrightText: © 2025 Schneider Electric SPDX-License-Identifier: LicenseRef-Proprietary -->
<svg xmlns="http://www.w3.org/2000/svg" viewBox="0 0 16 16"><path fill="none" stroke="currentColor" stroke-linecap="round" stroke-linejoin="round" d="M6.715 13.462c.158-1.517.282-1.872.509-2.948-.231-.199-.597-.548-.795-.927.367-.268 1.655-.701 2.97 0a3.4 3.4 0 0 1-.742.927c.32 1.525.421 2.431.613 4.985H2.5v-2.018c0-3.07 1.227-5.614 3.998-6.14-1.092-.614-1.847-1.842-1.847-3.246 0-2.018 1.428-3.596 3.191-3.596s3.191 1.579 3.191 3.596c0 1.404-.672 2.632-1.763 3.246 2.771.526 4.231 3.07 4.231 6.14v2.018h-2"/></svg>