<!-- SPDX-FileCopyrightText: © 2025 Schneider Electric SPDX-License-Identifier: LicenseRef-Proprietary -->
<svg xmlns="http://www.w3.org/2000/svg" viewBox="0 0 16 16"><path fill="none" stroke="currentColor" stroke-linecap="round" stroke-linejoin="round" d="M13.29 15.5c-.079-1.725-1.788-3.029-4.03-3.25s-3.793 1.827-3.793 1.827-2.216 2.64-4.061.664c-2.178-2.334.253-4.041.253-4.041l-.253-1.012s.731-3.653 4.172-6.247C10.226-.062 13.259.539 13.259.539L15.5 2.12s-.221 1.358-1.456 2.428c-1.386 1.202-2.906.885-2.906.885l-.785-1.897s-1.836.221-3.318 1.296-2.058 2.997-2.058 2.997 1.711 1.328 1.584 1.17c.158.127.317 1.037-1.33 2.618-.837.804-1.863.927-2.383.941"/></svg>