<!-- SPDX-FileCopyrightText: © 2025 Schneider Electric SPDX-License-Identifier: LicenseRef-Proprietary -->
<svg xmlns="http://www.w3.org/2000/svg" viewBox="0 0 16 16"><path fill="none" stroke="currentColor" stroke-linecap="round" stroke-linejoin="round" d="M2.168 11.917c.567-.057 1.107.698 1.206 1.687.1.989-.28 1.836-.848 1.893-.567.057-1.107-.698-1.207-1.687m1.605 1.687 11.667-3.136s.932-.193.909-1.897c0 0-.05-1.309-1.118-1.695L5.661 4.996m2.235.86 5.908-1.735m.464-1.921c-.109-.988-.652-1.816-1.208-1.687L1.386 3.66C.5 3.961.5 5.274.5 5.274c0 1.555 1.072 1.847 1.072 1.847l6.875 2.981-6.722 1.821"/></svg>