<!-- SPDX-FileCopyrightText: © 2025 Schneider Electric SPDX-License-Identifier: LicenseRef-Proprietary -->
<svg xmlns="http://www.w3.org/2000/svg" viewBox="0 0 16 16"><path fill="none" stroke="currentColor" stroke-linecap="round" stroke-linejoin="round" d="M10.767 1.038a7.5 7.5 0 0 1 1.612.898M9.842 15.5a7.4 7.4 0 0 0 2.553-1.212c3.355-2.465 4.109-7.225 1.684-10.634S6.963-.519 3.605 1.946C.248 4.411-.503 9.171 1.924 12.578a7.47 7.47 0 0 0 4.019 2.862m4.906-3.337c1.341-.895 2.057-2.224 2.057-3.976a5.01 5.01 0 0 0-2.744-4.489m0 0a5 5 0 0 0-.266-.125m0 .001a4.8 4.8 0 0 0-1.919-.394c-2.724 0-4.931 2.242-4.931 5.008 0 1.728.864 3.252 2.174 4.152l1.173-1.116m3.168 0 1.173 1.116a5.03 5.03 0 0 0 2.174-4.152m-5.465.423 2.45-2.221M7.977 3.119v1.674m-4.939 3.08h1.648m6.554 0h1.648"/></svg>