<!-- SPDX-FileCopyrightText: © 2025 Schneider Electric SPDX-License-Identifier: LicenseRef-Proprietary -->
<svg xmlns="http://www.w3.org/2000/svg" viewBox="0 0 16 16"><circle cx="9" cy="13" r=".5"/><circle cx="12" cy="13" r=".5"/><path fill="none" stroke="currentColor" stroke-linecap="round" stroke-linejoin="round" d="M4.5 9.501v.999H3.307c-.446 0-.807-.339-.807-.758V8.258c0-.419.361-.758.807-.758h8.459c.405 0 .734.339.734.758v1.484a.746.746 0 0 1-.734.758H6.5m1-5H1.289a.79.79 0 0 0-.789.789v8.563c0 .357.29.647.647.647h12.707c.357 0 .647-.29.647-.647v-3.353h.256a.73.73 0 0 0 .744-.717V8.208c0-.436-.223-.71-.789-.71h-.211V6.114c-.061-.357-.708-.616-.708-.616h-2.292M2.518.518l9.034 4.951"/></svg>