<!-- SPDX-FileCopyrightText: © 2025 Schneider Electric SPDX-License-Identifier: LicenseRef-Proprietary -->
<svg xmlns="http://www.w3.org/2000/svg" viewBox="0 0 16 16"><path fill="none" stroke="currentColor" stroke-linecap="round" stroke-linejoin="round" d="M9.058 7.736c.564.589.559 1.554-.011 2.154s-1.49.608-2.054.019-.559-1.554.011-2.154M5.778 4.319l.621 1.145a.41.41 0 0 0 .352.206.4.4 0 0 0 .167-.039 2.7 2.7 0 0 1 2.132-.046.4.4 0 0 0 .217.065.41.41 0 0 0 .388-.284L11.536 1.9a.5.5 0 0 0 .047-.197.47.47 0 0 0-.219-.383C10.356.795 9.221.5 8.022.5s-2.343.281-3.331.799a.43.43 0 0 0-.263.404c0 .081.019.16.056.224l.473.874m.319 10.361.593-1.005a.4.4 0 0 0 0-.377.4.4 0 0 0-.104-.12 2.6 2.6 0 0 1-.685-.804 2.9 2.9 0 0 1-.304-.957.4.4 0 0 0-.047-.205.38.38 0 0 0-.389-.193L.865 9.473a.4.4 0 0 0-.17.048.42.42 0 0 0-.193.345c.052 1.051.335 2.148.872 3.127s1.24 1.838 2.076 2.419a.37.37 0 0 0 .425.039.37.37 0 0 0 .145-.144l.465-.799m6.936-.155.54.952c.032.059.084.11.145.145.14.081.308.06.425-.039.836-.587 1.561-1.435 2.097-2.423s.82-2.055.872-3.118a.42.42 0 0 0-.193-.349.4.4 0 0 0-.17-.048l-3.475.028a.37.37 0 0 0-.389.195.4.4 0 0 0-.047.208c-.044.316-.144.63-.304.925-.178.329-.412.6-.685.813a.4.4 0 0 0-.104.121.4.4 0 0 0 0 .381l.48.822"/></svg>