<!-- SPDX-FileCopyrightText: © 2025 Schneider Electric SPDX-License-Identifier: LicenseRef-Proprietary -->
<svg xmlns="http://www.w3.org/2000/svg" viewBox="0 0 16 16"><path fill="none" stroke="currentColor" stroke-linecap="round" stroke-linejoin="round" d="M.5 5.237v-.684c0-.581.419-1.053.936-1.053h13.128c.517 0 .936.471.936 1.053v6.894c0 .581-.419 1.053-.936 1.053H6.5m-6-2v1.002c0 .551.397.998.887.998H7.5m0-5.692v2.183m-6-2.183v2.183m2.052-1.573a1.012 1.012 0 1 0 1.912.086m4.088-.122a1.012 1.012 0 1 0 1.912.086m2.036-.66v2.183"/></svg>