<!-- SPDX-FileCopyrightText: © 2025 Schneider Electric SPDX-License-Identifier: LicenseRef-Proprietary -->
<svg xmlns="http://www.w3.org/2000/svg" viewBox="0 0 16 16"><path fill="none" stroke="currentColor" stroke-linecap="round" stroke-linejoin="round" d="M5.982 4.228c.159.124 3.438-2.841 4.033-3.419s1.868-.263 1.431.273-2.544 3.171-2.861 3.501.037.736.434.365 3.848-3.52 4.379-3.911c.867-.638 1.474-.091.841.739-.769 1.007-3.847 4.284-4.006 4.449s.258.472.65.137c.694-.593 3.327-2.916 3.816-3.136.607-.273 1.083.562.607 1.14s-3.613 3.613-3.772 3.82-.097.786.26.456 2.642-1.542 3.078-1.996.94.742.347 1.322c-3.787 3.7-4.475 4.689-6.808 4.285-.56-.097-.846 1.644-2.905 3.145-.44.321-2.027-.104-3.02-1.177S.34 10.725.519 10.52c0 0 1.648-2.051 3.209-2.917.517-.287-.148-2.336.087-3.191S6.459.763 6.459.763s.601.733.045 1.434M4.272.782S2.64 2.98 2.278 3.633c-.564 1.019.193 2.687-.177 2.932A4.06 4.06 0 0 0 .598 8.424c-.128.174.04.799.456 1.203"/></svg>