<!-- SPDX-FileCopyrightText: © 2025 Schneider Electric SPDX-License-Identifier: LicenseRef-Proprietary -->
<svg xmlns="http://www.w3.org/2000/svg" viewBox="0 0 16 16"><path fill="none" stroke="currentColor" stroke-linecap="round" stroke-linejoin="round" d="M7.999 15.5V2.532m-1.478.519L8 4.58l1.494-1.57m.95 11.103c3.113-1.791 4.035-3.637 4.035-3.637s.033-6.121.016-6.162m.004 3.254c0-.241.003-3.741 0-3.747 0-1.302-2.938-3.321-6.5-3.321s-6.5 2.019-6.5 3.321V10.5m0 .247s2.647 3.856 6.5 4.753M3.364 6.582l2.063-.516-.612-2.078m.028 7.093.584-2.045-2.106-.509m6.158 3.523L8 10.521l-1.494 1.57m5.84-2.031L3.654 5.041m8.982 3.478-2.063.516.612 2.078M8 13.497v-5.5m0-.444 4.763 2.75m-9.109-.243 8.692-5.019M11.157 4.02l-.584 2.045 2.106.509"/></svg>