<!-- SPDX-FileCopyrightText: © 2025 Schneider Electric SPDX-License-Identifier: LicenseRef-Proprietary -->
<svg xmlns="http://www.w3.org/2000/svg" viewBox="0 0 16 16"><path stroke="currentColor" stroke-linecap="round" stroke-linejoin="round" stroke-width="1.027" d="m5.381 9.607-1.523.85m.483 1.019L3.217 9.381m2.276-2.702-1.782-1.08M3.085 6.61l1.253-2.021m3.747.723.044-2.083m-1.188-.037 2.376.074m1.248 3.607 1.826-1.003m-.563-1.048 1.125 2.095m-2.5 2.884 1.638.991m.626-1.011-1.252 2.021"/><path fill="none" stroke="currentColor" stroke-linecap="round" stroke-linejoin="round" d="M7.603 15.5C5.934 15.242-.007 13.572.535 2.893c0 0 3.736.067 7.465-2.393m2.388 14.373c2.34-1.119 5.477-4.091 5.078-11.98 0 0-4.274-.038-7.465-2.393M9.46 10.597a2.64 2.64 0 0 0 1.179-1.789 2.644 2.644 0 1 0-3.042 2.173m.009.098L7.603 15.5"/></svg>