<!-- SPDX-FileCopyrightText: © 2025 Schneider Electric SPDX-License-Identifier: LicenseRef-Proprietary -->
<svg xmlns="http://www.w3.org/2000/svg" viewBox="0 0 16 16"><path d="M7.973 12.315a.67.67 0 0 1-.505-.196q-.189-.196-.189-.499c0-.303.063-.368.189-.499q.19-.195.505-.195c.315 0 .377.065.499.195q.183.196.183.499c0 .303-.061.369-.183.499q-.184.196-.499.196Zm0-2.311a.32.32 0 0 1-.246-.102q-.095-.1-.107-.303l-.253-5.66q-.013-.303.146-.486.158-.183.461-.183.29 0 .442.183c.152.183.147.284.139.486l-.252 5.66q0 .202-.088.303a.3.3 0 0 1-.24.102Z"/><path fill="none" stroke="currentColor" stroke-linecap="round" stroke-linejoin="round" d="M8 15.5c-4.733-1.073-6.5-5-6.5-5V3.821C1.5 2.519 4.438.5 8 .5s6.5 2.019 6.5 3.321h0v6.655s-.908 1.817-3.695 3.325l-.299.166L10.5 12.5c0-1.18 1.479-1.345 1.479-2.521 0-1.167-1.479-1.29-1.479-2.479 0-1.155 1.479-1.324 1.479-2.5S10.5 3.676 10.5 2.5m-5 0c0 1.176-1.479 1.32-1.479 2.5S5.5 6.345 5.5 7.5c0 1.188-1.479 1.311-1.479 2.479S5.5 11.32 5.5 12.5"/></svg>