<!-- SPDX-FileCopyrightText: © 2025 Schneider Electric SPDX-License-Identifier: LicenseRef-Proprietary -->
<svg xmlns="http://www.w3.org/2000/svg" viewBox="0 0 16 16"><path fill="none" stroke="currentColor" stroke-linecap="round" stroke-linejoin="round" d="M4.497 14.118C2.727 12.784-.053 9.599.596 3.001c0 0 4.832-.505 7.399-2.501 2.558 2.004 7.391 2.501 7.391 2.501q.102 1.11.091 2.099M13.5 8.5V6.904c0-1.158-1.095-2.425-2.49-2.425-1.913 0-2.51 1.267-2.51 2.425v1.564l-.737.015c-.75.023-1.335.638-1.263 1.38v4.249c-.072.765.55 1.388 1.315 1.388h6.297c.766 0 1.387-.621 1.387-1.387V9.888c0-.766-.621-1.387-1.387-1.387h-2.613m-1.851 3.832c.385.199.767 1.158.767 1.158l1.972-2.999"/></svg>