<!-- SPDX-FileCopyrightText: © 2025 Schneider Electric SPDX-License-Identifier: LicenseRef-Proprietary -->
<svg xmlns="http://www.w3.org/2000/svg" viewBox="0 0 16 16"><path fill="none" stroke="currentColor" stroke-linecap="round" stroke-linejoin="round" d="M11.892 5.907c.647-1.208 3.608-1.033 3.608-1.033m-3.043 2.189A1.215 1.215 0 1 0 10.5 5.621a1.215 1.215 0 0 0 1.957 1.442ZM6.712 9.296l-.225-2.035L5.079 9.17a1.794 1.794 0 0 0 2.887 2.129l2.884-3.912m4.599-4.488S11.179 2.861 7.991.5C4.265 2.967.533 2.899.533 2.899-.014 13.724 6.43 15.27 8.016 15.5h0c4.105-.785 7.024-4.3 7.484-9.886v-.633"/></svg>