<!-- SPDX-FileCopyrightText: © 2025 Schneider Electric SPDX-License-Identifier: LicenseRef-Proprietary -->
<svg xmlns="http://www.w3.org/2000/svg" viewBox="0 0 16 16"><path fill="none" stroke="currentColor" stroke-linecap="round" stroke-linejoin="round" d="M8.032 15.494S-.094 15.252.535 2.89c0 0 3.736.067 7.465-2.384m2.388 14.317c2.34-1.114 5.477-4.075 5.078-11.933 0 0-4.274-.038-7.465-2.384m4.091 10.858c-.184-1.637-.762-2.788-1.513-3.404-.811-.665-1.594-.795-1.594-.795l-.032-.056a2.018 2.018 0 1 0-1.925.034l-.012.023s-.784.129-1.594.795C4.4 8.8 3.697 10.633 3.875 13.335"/></svg>