<!-- SPDX-FileCopyrightText: © 2025 Schneider Electric SPDX-License-Identifier: LicenseRef-Proprietary -->
<svg xmlns="http://www.w3.org/2000/svg" viewBox="0 0 16 16"><path fill="none" stroke="currentColor" stroke-linecap="round" stroke-linejoin="round" stroke-width=".998" d="m6.558 13.151-.133-1.986s-.825-.453-.816-1.491c-.044-.524.162-1.772.162-2.372 0-.441-.024-1.015.694-1.202m2.42-1.095a1.417 1.417 0 1 0-2.099-.298m2.098.269s-.174.593.329 1.096m1.849 7.73C13.849 12.294 14.5 10.5 14.5 10.5V3.822h0C14.5 2.519 11.562.5 8 .5S1.5 2.519 1.5 3.821V10.5s1.15 3.927 5.882 5h-.005 1.594l.365-4.336s1.084-.405 1.084-1.261c0-.519-.327-1.99-.327-2.603 0-.256.18-1.118-.854-1.202"/></svg>