<!-- SPDX-FileCopyrightText: © 2025 Schneider Electric SPDX-License-Identifier: LicenseRef-Proprietary -->
<svg xmlns="http://www.w3.org/2000/svg" viewBox="0 0 16 16"><path fill="none" stroke="currentColor" stroke-linecap="round" stroke-linejoin="round" d="m6.5 5.5-5 4.947V3.821c0-1.049 1.906-2.563 4.508-3.112M3.914 4.16c1.41-.819 2.6-.763 3.578-.6.914.152 1.777.561 2.31 1.093.334.334.545.717.627 1.137.063.325.234.629.507.902.433.433.984.645 1.008.655q.065.024.113.072l.476.476a.31.31 0 0 1 .001.438l-2.019 2.019a.31.31 0 0 1-.407.026c-.041-.031-.42-.42-.505-.505s-.122-.721-.803-1.402a1 1 0 0 0-.093-.081c-.233-.175-.564-.103-.915.201-.021.02-4.306 4.455-4.306 4.455 1.034.903 2.551 2.002 4.534 2.452 2.059-.213 5.553-2.533 6.479-4.807v-6.87h0c0-1.302-2.938-3.321-6.5-3.321S1.5 2.519 1.5 3.821"/></svg>