<!-- SPDX-FileCopyrightText: © 2025 Schneider Electric SPDX-License-Identifier: LicenseRef-Proprietary -->
<svg xmlns="http://www.w3.org/2000/svg" viewBox="0 0 16 16"><path fill="none" stroke="currentColor" stroke-linecap="round" stroke-linejoin="round" d="M15.5 3.686A3.186 3.186 0 0 1 12.314.5m-2.34 0A5.526 5.526 0 0 0 15.5 6.026m-.012 9.474h-5.469m-7.231-3.809-1.614 2.397c-.222.279-.239.816.132 1.185.356.355 1.127.195 1.349-.084l1.27-1.786m5.942 1.948L6.598 10.34l-.147-4.39 2.132 2.239c.317.342.847.474 1.296.184.511-.329.506-.695.37-1.027l-.238-.421s-1.64-1.633-2.143-2.318c-.431-.587-1.111-.764-1.111-.764l-.979-.132h0c.873-.527.679-1.633.679-1.809C6.457.769 5.498.5 4.799.5s-1.273.575-1.396 1.26c-.086.476-.086 1.056.391 1.53M2.643 4.593.628 6.484.5 8.965c0 .356.357 1.014.992 1.014.556 0 .857-.539.857-.895l.067-1.734 1.385-.965V9.11s-.024.933.228 1.291 3.523 4.726 3.523 4.726"/></svg>