<!-- SPDX-FileCopyrightText: © 2025 Schneider Electric SPDX-License-Identifier: LicenseRef-Proprietary -->
<svg xmlns="http://www.w3.org/2000/svg" viewBox="0 0 16 16"><path fill="none" stroke="currentColor" stroke-linecap="round" stroke-linejoin="round" d="M15.5 3.683A3.183 3.183 0 0 1 12.317.5M9.978.5A5.52 5.52 0 0 0 15.5 6.022m-8.709 9.469c.907-.3 2.582-1.104 3.101-2.241.383-.838.335-1.843-.144-2.988-1.442-3.124-.512-4.126-.502-4.136a.05.05 0 0 0 .005-.062.05.05 0 0 0-.059-.018c-.021.008-2.028.845-1.776 2.699-.551-.495-3.123-3.034-1.55-6.02a.05.05 0 0 0-.007-.057.05.05 0 0 0-.055-.012c-.034.014-.836.356-1.476 1.224-.59.798-1.703 2.217-.965 4.402.269 1.028-.118 1.917-.51 2.215-.131-1.196-.598-2.348-2.277-2.395-.019 0-.038-.009-.054.003s-.027.033-.019.051c1.169 2.705.035 3.362.527 5.141.291 1.054.846 1.66 1.984 2.071.525.139 1.065.133 1.407.133.026 0 .168-.02.175-.043a.05.05 0 0 0-.027-.061c-.714-.31-1.141-1.616-.634-2.756.531-1.195 1.133-1.091 1.389-3.347.83 1.314 1.07 1.556 1.378 2.093.516.897.598 1.94.204 2.538"/></svg>