<!-- SPDX-FileCopyrightText: © 2025 Schneider Electric SPDX-License-Identifier: LicenseRef-Proprietary -->
<svg xmlns="http://www.w3.org/2000/svg" viewBox="0 0 16 16"><path fill="none" stroke="currentColor" stroke-linecap="round" stroke-linejoin="round" d="M15.505 3.52A3.02 3.02 0 0 1 12.483.498m-2.22.001a5.24 5.24 0 0 0 5.242 5.242M.495 15.483l5.927.013-.124-4.386s-1.01-.182-1-1.242c-.045-.535.166-1.809.166-2.422 0-.45.201-.906.873-1.082m2.573-.071c.968.079.965.891.965 1.153 0 .626.166 1.996.166 2.483 0 .802-1.015 1.181-1.015 1.181l-.115 4.386 6.585.006M8.602 5.291a1.328 1.328 0 1 0-1.966-.279m1.966.251s-.163.556.308 1.027"/></svg>