<!-- SPDX-FileCopyrightText: © 2025 Schneider Electric SPDX-License-Identifier: LicenseRef-Proprietary -->
<svg xmlns="http://www.w3.org/2000/svg" viewBox="0 0 16 16"><path d="M12.183 7.5a.667.667 0 1 1-1.335-.001.667.667 0 0 1 1.335.001Z"/><path fill="none" stroke="currentColor" stroke-linecap="round" stroke-linejoin="round" d="M5.514 11.5H1.517v-2h1m0 0h2.999M4.798.939c-2.186.452-3.236 2.207-3.236 3.939M1.925.526C1.134.932.761 1.322.484 2.48m11.475 2.372c0-1.732-1.05-3.487-3.236-3.939m4.314 1.541C12.759 1.296 12.387.906 11.596.5m-2.31 7.7 2.231 2.855M8.032 9.539a4 4 0 1 0 7.485 1.961 3.98 3.98 0 0 0-1.788-3.32M9.917 5.496v-.105A2.89 2.89 0 0 0 7.026 2.5h-.617a2.89 2.89 0 0 0-2.891 2.891V9.5"/></svg>