<!-- SPDX-FileCopyrightText: © 2025 Schneider Electric SPDX-License-Identifier: LicenseRef-Proprietary -->
<svg xmlns="http://www.w3.org/2000/svg" viewBox="0 0 16 16"><path fill="none" stroke="currentColor" stroke-linecap="round" stroke-linejoin="round" d="M12.517 10.463v3.762c0 .998-.575 1.275-.961 1.275-.509 0-1.039-.262-1.039-1.275V8.5H8.596c-.661 0-.871-.728-.871-1.044 0-.411.196-.956.871-.956h6.035c.8 0 .886.851.886 1.067s-.125.933-.886.933h-2.114m-10 1h-1v2h7m-6-2h4m3.365-4.577C9.508 3.406 8.613 2.5 6.75 2.5h-.087c-2.161 0-3.146 1.499-3.146 3.99V9.5M4.798.939c-2.186.452-3.236 2.207-3.236 3.939M1.925.526C1.134.932.761 1.322.484 2.48m11.475 2.372c0-1.732-1.05-3.487-3.236-3.939m4.314 1.541C12.759 1.296 12.387.906 11.596.5"/></svg>