<!-- SPDX-FileCopyrightText: © 2025 Schneider Electric SPDX-License-Identifier: LicenseRef-Proprietary -->
<svg xmlns="http://www.w3.org/2000/svg" viewBox="0 0 16 16"><path fill="none" stroke="currentColor" stroke-linecap="round" stroke-linejoin="round" d="M8.5 13.5h6v2H4.581v-2H6.5m6-1.87v-1.211c0-.054.115-3.918-2.66-3.918h-.223c-1.996 0-3.116 1.349-3.116 3.839v3.161m7.762-4.79c0-1.872-1.138-3.768-3.509-4.257M15.5 6.119c-.301-1.251-.705-1.673-1.563-2.111M.5 4.257c1.866 0 3.946-1.899 3.946-3.757m1.21 2.504c.793 1.346 1.818 1.253 2.751 1.253M4.461 8.409c0-1.857-2.095-4.152-3.961-4.152m7.906 0c-1.866 0-3.946 2.295-3.946 4.152"/></svg>