<!-- SPDX-FileCopyrightText: © 2025 Schneider Electric SPDX-License-Identifier: LicenseRef-Proprietary -->
<svg xmlns="http://www.w3.org/2000/svg" viewBox="0 0 16 16"><path fill="none" stroke="currentColor" stroke-linecap="round" stroke-linejoin="round" d="M.977 5.601c.152-2.16 1.592-4.258 4.307-4.633M1.516.5C1.076.748.735 1.109.5 1.527m15 0A2.67 2.67 0 0 0 14.484.5M2.5 13.5h-2v2h15v-2h-2.066m.066-2V8.048c0-3.72-2.262-5.735-5.429-5.735h0C4.904 2.313 2.5 4.328 2.5 8.048V13.5m12.523-7.899c-.153-2.16-1.592-4.258-4.308-4.633"/><path d="M8.013 13.46q-.442 0-.708-.272a.96.96 0 0 1-.267-.702q0-.416.267-.683c.267-.267.414-.267.708-.267q.455 0 .708.267a.95.95 0 0 1 .253.683q0 .429-.253.702t-.708.272Zm0-2.704a.48.48 0 0 1-.383-.155q-.137-.156-.163-.442l-.39-4.966q-.04-.481.208-.773c.248-.292.407-.292.728-.292q.468 0 .708.292.24.293.202.773l-.39 4.966q-.014.285-.149.442a.47.47 0 0 1-.371.155Z"/></svg>