<!-- SPDX-FileCopyrightText: © 2025 Schneider Electric SPDX-License-Identifier: LicenseRef-Proprietary -->
<svg xmlns="http://www.w3.org/2000/svg" viewBox="0 0 16 16"><path fill="none" stroke="currentColor" stroke-linecap="round" stroke-linejoin="round" d="M11.712 12.136c-.098-.161-.088-.732-.088-.732 0-1.045.853-1.893 1.904-1.893s1.904.847 1.904 1.893c0 .908-.566 2.245-2.191 3.124-1.393.754-3.637 1.152-6.116.893-2.059-.216-5.289-1.536-6.131-4.617A17 17 0 0 1 .5 7.924C.499 7.557.437 9.85 1.784 10.973s2.862 1.329 3.7 1.431c.759.092 4.211.539 4.211-2.301 0-1.045-.728-1.831-1.904-1.893-1.05-.055-1.912.87-1.974 1.962M10.911.5l1.062.929L13.056.5m1.828 1.415-.595 1.119 1.211.802m-6.947-.042 1.083-.739-.51-1.267m1.806 5.406-.34-1.436-1.381.169m5.545.042-1.381-.232-.297 1.373m-1.105-5.681-.127 2.323 1.53 1.985m.913-2.703-2.443.718-1.253 2.006m1.274-1.985-2.231-.718"/></svg>