<!-- SPDX-FileCopyrightText: © 2025 Schneider Electric SPDX-License-Identifier: LicenseRef-Proprietary -->
<svg xmlns="http://www.w3.org/2000/svg" viewBox="0 0 16 16"><path d="M7.549 14.748c0-.276.222-.498.498-.498h0a.5.5 0 0 1 .502.498h0a.503.503 0 0 1-.498.502h0a.503.503 0 0 1-.502-.502Zm-1.831.139a.494.494 0 0 1-.323-.628h0a.5.5 0 0 1 .628-.323h0a.5.5 0 0 1 .323.628h0a.5.5 0 0 1-.476.348h0a.5.5 0 0 1-.152-.025Zm4.033-.331a.5.5 0 0 1 .32-.631h0a.5.5 0 0 1 .629.319h0a.5.5 0 0 1-.32.631h0a.6.6 0 0 1-.156.025h0a.5.5 0 0 1-.473-.345Zm-6.144-.735a.503.503 0 0 1-.113-.697h0a.5.5 0 0 1 .698-.113h0c.225.16.276.472.113.697h0a.5.5 0 0 1-.404.207h0a.5.5 0 0 1-.295-.094Zm8.176-.117a.44.44 0 0 1 .109-.645h0a.533.533 0 0 1 .698.1h0a.434.434 0 0 1-.109.642h0a.5.5 0 0 1-.294.09h0a.52.52 0 0 1-.403-.187Zm-9.849-1.546a.5.5 0 0 1 .106-.699h0a.5.5 0 0 1 .699.106h0a.5.5 0 0 1-.106.699h0a.5.5 0 0 1-.299.098h0a.49.49 0 0 1-.401-.204Zm11.515.076a.5.5 0 0 1-.113-.698h0a.5.5 0 0 1 .697-.113h0a.5.5 0 0 1 .113.698h0a.5.5 0 0 1-.407.207h0a.5.5 0 0 1-.29-.095Zm-5.922.37c0-.275.225-.5.502-.5h0a.5.5 0 0 1 .498.5h0a.5.5 0 0 1-.498.5h0a.505.505 0 0 1-.502-.5Zm-1.94-.081a.504.504 0 0 1-.222-.673h0a.5.5 0 0 1 .673-.222h0a.5.5 0 0 1 .218.674h0a.49.49 0 0 1-.444.273h0a.5.5 0 0 1-.226-.051Zm4.212-.223a.5.5 0 0 1 .218-.674h0a.5.5 0 0 1 .673.222h0a.5.5 0 0 1-.218.67h0a.5.5 0 0 1-.225.055h0A.49.49 0 0 1 9.8 12.3ZM3.67 10.898a.5.5 0 0 1 .109-.699h0a.5.5 0 0 1 .697.106h0a.5.5 0 0 1-.109.699h0a.5.5 0 0 1-.294.098h0a.5.5 0 0 1-.403-.204Zm8.017.105a.5.5 0 0 1-.109-.699h0a.503.503 0 0 1 .701-.106h0c.222.16.269.473.105.699h0a.5.5 0 0 1-.403.204h0a.5.5 0 0 1-.294-.098ZM8.023 11h-.007a.495.495 0 0 1-.493-.502h0c0-.269.212-.487.478-.494h0q.011-.005.029-.004h0c.273 0 .493.225.493.502h0c0 .276-.22.498-.493.498zm1.848-1.192a.5.5 0 0 1-.076-.704h0a.5.5 0 0 1 .702-.076h0a.5.5 0 0 1 .08.701h0a.51.51 0 0 1-.393.189h0a.5.5 0 0 1-.313-.109ZM5.472 9.72za.5.5 0 0 1 .084-.703h0a.5.5 0 0 1 .701.08h0a.507.507 0 0 1-.08.706h0a.5.5 0 0 1-.312.106h0a.5.5 0 0 1-.392-.189Z"/><path fill="none" stroke="currentColor" stroke-linecap="round" stroke-linejoin="round" d="M8 3.364v4M6 7.5h4M1.5.5h13m-10 0v2.116l1.363 1.363m4.274 0L11.5 2.616V.5"/></svg>