<!-- SPDX-FileCopyrightText: © 2025 Schneider Electric SPDX-License-Identifier: LicenseRef-Proprietary -->
<svg xmlns="http://www.w3.org/2000/svg" viewBox="0 0 16 16"><path fill="none" stroke="currentColor" stroke-linecap="round" stroke-linejoin="round" d="M12.5 15.5V8.304c0-.84-.657-1.809-2.057-1.809-1.372 0-1.945.994-1.945 1.797l-.041 2.277c0 1.351-.926 1.899-1.984 1.899-.944 0-1.97-.499-1.97-1.899L4.5.5m1.86 1.938L4.423.5 2.486 2.438M13.5 4.5h-7m4 10h-8m-2-6v4.233S.263 14.5 2.563 14.5m12.937-3V6.27s.237-1.767-2.063-1.767M2.563 4.392C.262 4.392.5 6.159.5 6.159V8.5m14 5.83c1.155-.443 1-1.596 1-1.596V7.501"/></svg>