<!-- SPDX-FileCopyrightText: © 2025 Schneider Electric SPDX-License-Identifier: LicenseRef-Proprietary -->
<svg xmlns="http://www.w3.org/2000/svg" viewBox="0 0 16 16"><path fill="none" stroke="currentColor" stroke-linecap="round" stroke-linejoin="round" d="m10.345 2.431.32-.649c.14-.285.371-.285.511 0l.896 1.816.572.083h0l.716.104.717.104c.314.045.385.264.158.486l-1.45 1.414.098.569h0l.122.714.122.714c.053.313-.133.448-.413.301l-.33-.174-.952-.501h0l-.511-.269-.511.269h0l-.641.337-.641.337c-.281.147-.467.012-.413-.301l.122-.714.122-.714h0l.098-.569-1.451-1.414c-.227-.222-.156-.441.158-.486l.717-.104 1.288-.187m-2.826 8.478 1.45-1.414c.228-.222.156-.44-.157-.486l-.717-.104-.717-.104h0l-.571-.083-.896-1.817c-.141-.284-.371-.284-.511 0l-.32.65-.321.649h0l-.255.518-1.288.187-.717.104c-.314.046-.385.264-.158.486l1.451 1.414-.098.569h0l-.122.714-.122.713c-.054.313.132.448.413.301l.641-.337.641-.337h0l.511-.269.511.269h0l.952.501.33.174c.281.147.467.012.413-.3l-.122-.714"/></svg>