<!-- SPDX-FileCopyrightText: © 2025 Schneider Electric SPDX-License-Identifier: LicenseRef-Proprietary -->
<svg xmlns="http://www.w3.org/2000/svg" viewBox="0 0 16 16"><path fill="none" stroke="currentColor" stroke-linecap="round" stroke-linejoin="round" d="m6.991 2.217.452-.908c.305-.619.805-.619 1.112 0l.359.727L9.95 4.134h0l.556 1.127 1.243.18h0l1.559.226 1.559.226c.683.1.838.576.343 1.058L14.083 8.05l-1.128 1.101h0l-.9.876.746 4.343c.117.681-.287.975-.899.653l-1.395-.733-2.506-1.317-1.111.585h0l-1.394.733-1.394.734c-.611.321-1.015.028-.9-.654l.744-4.344-.899-.876h0l-1.128-1.1-1.129-1.1c-.495-.481-.341-.958.344-1.056m7.562-1.008L3.762 9.821m4.204-6.449L2.637 8.677m.841-3.07-2.013 1.99m8.059-1.309-5.805 5.797m7.531-5.303-7.683 7.675m9.624-7.382L6.6 13.658m4.192-1.976-1.736 1.736m1.653.558.457-.566"/></svg>