<!-- SPDX-FileCopyrightText: © 2025 Schneider Electric SPDX-License-Identifier: LicenseRef-Proprietary -->
<svg xmlns="http://www.w3.org/2000/svg" viewBox="0 0 16 16"><path fill="none" stroke="currentColor" stroke-linecap="round" stroke-linejoin="round" d="M12.806 9.833s.502.684.557 1.355c.103 1.252-.557 1.807-.557 2.854 0 .725.268 1.458.268 1.458m1.824-6.67s.454 1.006.557 1.868c.135 1.13-.578 2.06-.578 2.935 0 .942.623 1.867.623 1.867m-4.368-4.23c.495 1.314-.33 1.766-.33 2.883 0 .725.248 1.347.248 1.347M5.861 1.844V.5M2.069 2.066l.955.95M1.85 5.843H.5m2.528 2.825-.955.95m3.795.217v1.344m2.838-2.516.955.95m.218-3.777h1.35M8.701 3.012l.955-.95m-5.503 2.25a2.27 2.27 0 0 0-.587 1.525c0 1.262 1.027 2.284 2.295 2.284s2.295-1.023 2.295-2.284-1.027-2.284-2.295-2.284"/></svg>