<!-- SPDX-FileCopyrightText: © 2025 Schneider Electric SPDX-License-Identifier: LicenseRef-Proprietary -->
<svg xmlns="http://www.w3.org/2000/svg" viewBox="0 0 16 16"><path fill="none" stroke="currentColor" stroke-linecap="round" stroke-linejoin="round" d="m2.501 11.692-.2-.721a.86.86 0 0 1 .227-.81l6.691-6.689a.86.86 0 0 1 1.214 0l1.089 1.089 1.058 1.058a.86.86 0 0 1 0 1.213l-6.705 6.703a.86.86 0 0 1-.781.233l-1.546-.32a1.34 1.34 0 0 0-1.182.328L.5 15.5M13.984 2.183l-2.462 2.378M12.553.5 15.5 3.572m-8.208 8.546-1.247-1.246m1.828-1.828L9.12 10.29m1.852-1.851L9.725 7.193"/></svg>