<!-- SPDX-FileCopyrightText: © 2025 Schneider Electric SPDX-License-Identifier: LicenseRef-Proprietary -->
<svg xmlns="http://www.w3.org/2000/svg" viewBox="0 0 16 16"><path fill="none" stroke="currentColor" stroke-linecap="round" stroke-linejoin="round" d="M5.737 6.494C4.71 7.675 6.808 8.357 5.681 9.485m2.375-2.984C7.029 7.682 8.944 8.259 8 9.492m2.292-2.914c-1.027 1.181.888 1.758-.056 2.991m4.285 1.408c.588-.489.979-1.419.979-2.721 0-1.995-.92-3.755-2.054-3.755h-2.895l-.867-2H6.565l-.784 2H2.72C1.563 4.501.501 6.294.501 8.326s1.063 3.175 2.219 3.175h.781v2H4.52l1.622-2h3.61l1.597 2h1.153v-2"/></svg>