<!-- SPDX-FileCopyrightText: © 2025 Schneider Electric SPDX-License-Identifier: LicenseRef-Proprietary -->
<svg xmlns="http://www.w3.org/2000/svg" viewBox="0 0 16 16"><path fill="none" stroke="currentColor" stroke-linecap="round" stroke-linejoin="round" d="M8.283 4.984c-.938 1.211-.614 2.115-.29 2.371.119-1.228 1.493-1.348 1.49-1.321 0 .009.004.017-.002.023-.004.004-.352.379.188 1.55.179.429.197.805.054 1.119-.146.32-.535.569-.864.721m-.542-4.531C4.786 7.219 6.174 9.228 7.146 9.52m7.375 1.457c.588-.489.979-1.419.979-2.721 0-1.995-.92-3.755-2.054-3.755h-2.895l-.867-2H6.565l-.784 2H2.72C1.563 4.501.501 6.294.501 8.326s1.063 3.175 2.219 3.175h.781v2H4.52l1.622-2h3.61l1.597 2h1.153v-2"/></svg>