<!-- SPDX-FileCopyrightText: © 2025 Schneider Electric SPDX-License-Identifier: LicenseRef-Proprietary -->
<svg xmlns="http://www.w3.org/2000/svg" viewBox="0 0 16 16"><circle cx="15.5" cy="9.5" r=".5"/><circle cx="15.5" cy=".499" r=".5"/><path fill="none" stroke="currentColor" stroke-linecap="round" stroke-linejoin="round" d="M2.5 4.5V1.774c0-1.662 2.995-1.662 2.995 0l.005 8.437c.029.058 1.383.365 1.383 2.603 0 1.628-1.586 2.714-3.023 2.714-1.311 0-2.841-.992-2.841-2.652 0-2.454 1.506-2.684 1.521-2.684L2.5 6.5h1m10 3h-3v6m0-3h2M13.564.649a2.969 2.969 0 1 0 .082 5.607"/></svg>