<!-- SPDX-FileCopyrightText: © 2025 Schneider Electric SPDX-License-Identifier: LicenseRef-Proprietary -->
<svg xmlns="http://www.w3.org/2000/svg" viewBox="0 0 16 16"><path fill="none" stroke="currentColor" stroke-linecap="round" stroke-linejoin="round" d="M3.492 2.237C3.477.847 4.906.544 4.906.544h4.221L11.57.509c.494 0 1.995-.113 1.995 1.105 0 1.326-1.324 1.187-1.324 1.187l1.006-.06c.682 0 1.437.156 1.437 1.125 0 1.876-1.534 1.661-2.363 1.661h2.033c.537 0 1.148.48 1.148 1.392 0 1.144-.696 1.598-1.35 1.598.593 0 .999.56.999 1.474 0 1.258-1.089 1.521-1.682 1.521v-.005l-2.992-.014m-5.04-2.041q.12.048.247.108c.328.157.678.382.987.704.509.53.81 1.63.81 2.99v2.083c.174.071.227.135.294.143.481.06 2.591.118 2.698-1.967v-2.007m1.997-2.99h1.995m-1.995-2.99h1.995M3.492 2.07c0-.863-.673-1.57-1.496-1.57h0C1.621.5.535.536.535.536S.5 2.551.5 3.021v6.711s1.158-.036 1.496-.036h0c.823 0 1.496-.707 1.496-1.57V5.527"/></svg>