<!-- SPDX-FileCopyrightText: © 2025 Schneider Electric SPDX-License-Identifier: LicenseRef-Proprietary -->
<svg xmlns="http://www.w3.org/2000/svg" viewBox="0 0 16 16"><path fill="none" stroke="currentColor" stroke-linecap="round" stroke-linejoin="round" d="M5.335 8.5H3.972c-1.16 0-2.262-.67-2.67-1.756-.689-1.837.651-3.567 2.394-3.567q.153 0 .301.018a3.963 3.963 0 0 1 7.646.866c.298-.146.633-.228.987-.228 1.578 0 2.776 1.623 2.016 3.29-.356.781-1.436 1.378-2.294 1.378H7.619l1.734 4.263 1.627-1.765 1.925 4.606m-9.783-5.532.568 2.146m2.051-.915.799 2.549m6.649-4.001.733 1.841"/></svg>