<!-- SPDX-FileCopyrightText: © 2025 Schneider Electric SPDX-License-Identifier: LicenseRef-Proprietary -->
<svg xmlns="http://www.w3.org/2000/svg" viewBox="0 0 16 16"><path fill="none" stroke="currentColor" stroke-linecap="round" stroke-linejoin="round" d="M5.51 8.995c.58.084 1.504.138 2.543.138 1.757 0 3.182-.087 3.182-.345 0-.691-.374-.95-.374-.95s1.118.07 1.534.597c.021.332.043.767 0 .998s-.514.824-.986 1.253a40 40 0 0 1-1.328 1.122s.257 1.681.215 2.406c-.043.727.085 1.255-2.228 1.287h-.271c-2.354-.033-2.223-.576-2.267-1.324-.043-.746.218-2.475.218-2.475s-.872-.713-1.351-1.154c-.48-.442-.959-1.053-1.003-1.289-.044-.237 0-.818 0-1.027 0-.614 1.525-1.333 2.105-1.333v-.302c-.525-.01-1.007-.391-1-.861V1.583C4.492 1.107 5.598.5 5.598.5L9.102.485M11.5 5.5V1.583S11.205.884 10.55.5L9.104.485"/></svg>