<!-- SPDX-FileCopyrightText: © 2025 Schneider Electric SPDX-License-Identifier: LicenseRef-Proprietary -->
<svg xmlns="http://www.w3.org/2000/svg" viewBox="0 0 16 16"><path fill="none" stroke="currentColor" stroke-linecap="round" stroke-linejoin="round" d="M2.428 4.965c-.427-.273-.669-.583-.669-.912v-.789c0-.845 1.916-1.564 4.156-1.845l.393-.918h3.383l.393.918c2.24.281 4.126 1 4.126 1.845v.395m-9.734 1.98q.167.041.341.078c.919.196 2.012.309 3.183.309 2.194 0 4.399-.398 5.422-.989M2.5 5.05v8.023c0 1.103 2.648 2.487 5.515 2.487s5.485-1.384 5.485-2.487V5.05m-2.737 2.555v5.526M8 7.987v5.526M5.237 7.605v5.526"/></svg>