<!-- SPDX-FileCopyrightText: © 2025 Schneider Electric SPDX-License-Identifier: LicenseRef-Proprietary -->
<svg xmlns="http://www.w3.org/2000/svg" viewBox="0 0 16 16"><path fill="none" stroke="currentColor" stroke-linecap="round" stroke-linejoin="round" d="M8.719 2.344c.437-.276 1.008-.473 1.766-.473 1.89 0 2.339 1.151 2.548 1.315.21.165 1.206-.247 1.89 1.096.685 1.343-.054 2.302-.137 2.466-.082.164 1.292.855.425 2.47-.718 1.338-2.646 1.072-2.646 1.072s-.494.278-.69 1.19c-.124.574-.045 2.409.672 2.648M5.909 8.08a2.5 2.5 0 0 1-.797.128c-.976 0-1.778-.539-1.864-1.226a2.5 2.5 0 0 1-.874.156c-1.034 0-1.873-.604-1.873-1.35s.839-1.349 1.873-1.349l.055.003a1 1 0 0 1-.026-.217c0-.745.839-1.349 1.872-1.349.505 0 .962.144 1.298.378.236-.077.496-.12.772-.12 1.034 0 1.873.604 1.873 1.348a1 1 0 0 1-.014.155c.964.056 1.721.635 1.721 1.343 0 .745-.839 1.349-1.873 1.349a2.5 2.5 0 0 1-.791-.127m-.312 2.004c.167.539.573 1.231 1.948 1.488.455.085.815.074 1.107.01h0c-.078-.525-.733-1.814-.947-2.068-.136-.16 1.83.986 2.1.911.493-.137.809-1.468 2.303-1.468m-4.379 6.05c.466-.411 1.442-1.215.922-3.425"/></svg>