<!-- SPDX-FileCopyrightText: © 2025 Schneider Electric SPDX-License-Identifier: LicenseRef-Proprietary -->
<svg xmlns="http://www.w3.org/2000/svg" viewBox="0 0 16 16"><path fill="none" stroke="currentColor" stroke-linecap="round" stroke-linejoin="round" d="M.5 15.5h10m-5 0V8.313h0c0 .682.55 1.235 1.229 1.235s1.23-.553 1.23-1.235c0 .682.724 1.235 1.403 1.235s1.229-.553 1.229-1.235c0-1.952-2.2-3.534-4.917-3.534S.756 6.361.756 8.313c0 .682.551 1.235 1.23 1.235s1.229-.553 1.229-1.235c0 .568.382 1.047.903 1.19m8.205-8.97q-.146.422-.148.891a2.737 2.737 0 0 0 3.306 2.681m-.032 2.93-.099-1.022m-3.204.321.503-.895M9.841 3.857l.923-.443M9.367.5l1.009.168"/></svg>