<!-- SPDX-FileCopyrightText: © 2025 Schneider Electric SPDX-License-Identifier: LicenseRef-Proprietary -->
<svg xmlns="http://www.w3.org/2000/svg" viewBox="0 0 16 16"><path fill="none" stroke="currentColor" stroke-linecap="round" stroke-linejoin="round" d="M5.5 13.5h-.458c-.3 0-.542-.22-.542-.491V9.941c0-.271.243-.441.542-.441H5.5v-.061c0-.426-.006-.939.497-.939h1.076c.427 0 .427.536.427.945V9.5l1-.006v-.055c0-.426-.033-.939.475-.939h1.055c.414 0 .47.536.47.945V9.5h.497c.284 0 .503.17.503.44v3.072c0 .27-.241.488-.524.488L7.5 13.488M2.5 4.5v11h11v-13H2.454l1.744-2h7.594l.57.531M8.136 4.427 6.986 5.5h1.726l-1.15 1.073"/></svg>