<!-- SPDX-FileCopyrightText: © 2025 Schneider Electric SPDX-License-Identifier: LicenseRef-Proprietary -->
<svg xmlns="http://www.w3.org/2000/svg" viewBox="0 0 16 16"><path fill="none" stroke="currentColor" stroke-linecap="round" stroke-linejoin="round" d="M9.502 11.795V6.45m2.407 8.044h2.592c.559 0 1.011-.455 1.011-1.015V8.651c0-3.696-2.81-4.213-3.353-4.213h-.617c-.945 0-1.586-.486-1.586-1.265 0-.989.225-1.85-.543-2.378C8.635.26 6.3.279 5.276 2.335c-.882 1.771-1.687 10.804-1.687 10.804l-3.077 2.36h5.159l-.855-.896m5.548-2.751a1.832 1.832 0 0 0-2.115 1.813c0 1.013.818 1.835 1.828 1.835a1.832 1.832 0 0 0 1.728-2.434"/></svg>