<!-- SPDX-FileCopyrightText: © 2025 Schneider Electric SPDX-License-Identifier: LicenseRef-Proprietary -->
<svg xmlns="http://www.w3.org/2000/svg" viewBox="0 0 16 16"><circle cx="8.403" cy="5.799" r=".582"/><path d="M6.431 9.628a.598.598 0 1 0 1.197 0 .598.598 0 0 0-1.197 0Z"/><circle cx="10.419" cy="7.926" r=".504"/><path fill="none" stroke="currentColor" stroke-linecap="round" stroke-linejoin="round" d="m15.521 15.524-15-15m11.436 5.693 2.816-1.319m-2.73 4.234 3.059.962m-4.761 1.377 1.63 2.602m-4.463-1.845-.429 2.913m-2.146-4.42L2.48 12.892M.905 7.984l2.91.062m.925-2.348-2.508-1.82m4.925.216L6.446.872m1.062 11.232a4.1 4.1 0 0 0 3.357-1m1.24-2.048a4.115 4.115 0 0 0-2.967-5.005 4.1 4.1 0 0 0-1.992-.02M5.071 5.267c-.24.252-.387.474-.558.787q-.246.447-.38.964a4.11 4.11 0 0 0 1.417 4.233m5.452-9.445L9.82 4.068"/><circle cx="6.431" cy=".872" r=".74"/><circle cx="11.002" cy="1.806" r=".74"/><circle cx="14.773" cy="4.898" r=".74"/><circle cx="15.102" cy="10.095" r=".74"/><circle cx="11.971" cy="14.073" r=".74"/><circle cx="7.079" cy="15.17" r=".74"/><circle cx="2.479" cy="12.891" r=".74"/><circle cx=".905" cy="8" r=".74"/><circle cx="2.058" cy="3.715" r=".74"/></svg>