<!-- SPDX-FileCopyrightText: © 2025 Schneider Electric SPDX-License-Identifier: LicenseRef-Proprietary -->
<svg xmlns="http://www.w3.org/2000/svg" viewBox="0 0 16 16"><path fill="none" stroke="currentColor" stroke-linecap="round" stroke-linejoin="round" d="M15.114 6.898q.15.534.15 1.099c0 3.019-3.304 5.466-7.382 5.466S.5 11.016.5 7.998s3.304-5.466 7.381-5.466c1.893 0 3.618.528 4.924 1.394l1.31-.797 1.384 1.25-5.317 3.256q.053.176.053.366c0 .958-1.048 1.736-2.34 1.736-.328 0-.641-.05-.925-.141l-.624.381-1.405-1.231.655-.418a1.3 1.3 0 0 1-.041-.326c0-.959 1.048-1.736 2.34-1.736.307 0 .6.044.869.123l1.067-.635"/></svg>