<!-- SPDX-FileCopyrightText: © 2025 Schneider Electric SPDX-License-Identifier: LicenseRef-Proprietary -->
<svg xmlns="http://www.w3.org/2000/svg" viewBox="0 0 16 16"><path fill="none" stroke="currentColor" stroke-linecap="round" stroke-linejoin="round" d="M2.448 13.401c1.288.726 2.409.851 4.047.917l.005.005V15.5m-4-14 2.969 1.863-1.04.986 3.852 2.548-1.293-2.752 1.322-.819L5.73.603M4.708 9.045c.41 0 .767-.213.952-.529.184.316.54.529.95.529s.766-.213.951-.529c.184.316.54.529.95.529s.767-.213.952-.529c.184.316.54.529.95.529s.766-.213.95-.529c.184.316.541.529.95.529s.616-.237.8-.552M2.5 1.5v9.628c.184.315.387.529.797.529s.766-.214.95-.529c.184.315.541.529.95.529s.766-.214.951-.529c.184.315.54.529.95.529s.766-.214.951-.529c.184.315.541.529.95.529M9.5 15.5v-1.267h.015c1.62-.067 2.73-.336 3.985-.755V1.406C12.05.922 9.823.5 7.91.5c-.576 0-1.635.026-2.18.075"/></svg>