<!-- SPDX-FileCopyrightText: © 2025 Schneider Electric SPDX-License-Identifier: LicenseRef-Proprietary -->
<svg xmlns="http://www.w3.org/2000/svg" viewBox="0 0 16 16"><path fill="none" stroke="currentColor" stroke-linecap="round" stroke-linejoin="round" d="M15.364 2.079c-.076.133-1.008 1.689-2.808 1.787-1.275.069-2.494-.62-3.17-1.787-.05.111-.802 1.704-2.491 1.93-1.236.165-2.472-.47-3.148-1.62-.11.238-.362.698-.861 1.072-.394.295-.81.343-1.082.39-.326.055-1.101.005-1.295-.009-.03.508.028 1.016-.002 1.525-.015.468.04.889.025 1.358.64 1.157 2.011 1.896 3.261 1.834 1.792-.088 2.701-1.675 2.763-1.787.823 1.156 2.138 1.773 3.442 1.596 1.507-.204 2.343-1.38 2.491-1.596a4.4 4.4 0 0 0 1.608 1.096 4.2 4.2 0 0 0 1.404.286v3.74c-.058.102-1.024 1.843-2.861 1.882-1.277.027-2.463-.841-3.072-2.049-.431 1.266-1.546 2.134-2.808 2.192-1.314.059-2.537-.773-3.034-2.072-.185.318-.6.938-1.359 1.405a3.8 3.8 0 0 1-1.653.548"/></svg>