<!-- SPDX-FileCopyrightText: © 2025 Schneider Electric SPDX-License-Identifier: LicenseRef-Proprietary -->
<svg xmlns="http://www.w3.org/2000/svg" viewBox="0 0 16 16"><path fill="none" stroke="currentColor" stroke-linecap="round" stroke-linejoin="round" d="M6.5 7.69V6.671c0-.307.334-.497.598-.341l3.141 1.866a.397.397 0 0 1-.004.684l-3.141 1.814a.396.396 0 0 1-.594-.343V9.69M4.353 4.898a5.12 5.12 0 0 0-1.485 3.608c0 1.417.574 2.7 1.503 3.629M2.67 3.233A7.47 7.47 0 0 0 .5 8.507c0 2.071.839 3.946 2.197 5.303m10.606 0c1.357-1.357 2.197-3.232 2.197-5.303s-.839-3.946-2.197-5.303m-1.674 8.931c.929-.929 1.503-2.212 1.503-3.629s-.574-2.7-1.503-3.629m0 7.258c.929-.929 1.503-2.212 1.503-3.629s-.574-2.7-1.503-3.629m-7.276.021a5.12 5.12 0 0 0-1.485 3.608c0 1.417.574 2.7 1.503 3.629"/></svg>