<!-- SPDX-FileCopyrightText: © 2025 Schneider Electric SPDX-License-Identifier: LicenseRef-Proprietary -->
<svg xmlns="http://www.w3.org/2000/svg" viewBox="0 0 16 16"><path d="M9.029 2.039a.457.457 0 1 1-.914 0 .457.457 0 0 1 .914 0Zm.914 1.615a.458.458 0 1 1-.915-.001.458.458 0 0 1 .915.001Zm-3.26-.473a.457.457 0 1 1-.791-.459.457.457 0 0 1 .791.459ZM7.448.685a.456.456 0 1 1-.79-.456.456.456 0 0 1 .79.456Zm2.711.457a.457.457 0 1 1-.792-.458.457.457 0 0 1 .792.458Zm-4.415.457a.456.456 0 1 1-.79-.456.456.456 0 0 1 .79.456Z"/><path fill="none" stroke="currentColor" stroke-linecap="round" stroke-linejoin="round" d="m10.47 15.5.424-.105a.994.994 0 0 0 .726-1.203l-.295-1.188c-.246-.994-.883-1.683-1.493-2.106-.453-.314-1.065-.652-2.173-5.121l3.531-.874c1.002 4.044.675 5.047.402 5.528m-.895 5.013 2.549-.631m-7.666-.407-.431-.067a.993.993 0 0 1-.829-1.135l.189-1.209c.158-1.012.731-1.754 1.302-2.229.424-.353 1.004-.743 1.715-5.292l-3.594-.561C3.288 8.029 3.704 9 4.017 9.455m1.331 4.915-2.594-.405"/></svg>