<!-- SPDX-FileCopyrightText: © 2025 Schneider Electric SPDX-License-Identifier: LicenseRef-Proprietary -->
<svg xmlns="http://www.w3.org/2000/svg" viewBox="0 0 16 16"><path fill="none" stroke="currentColor" stroke-linecap="round" stroke-linejoin="round" d="M10.313 10.763c-.945.267-3.828.033-3.828.033-.548-.044-.699-.418-.334-.83l3.52-3.981c.364-.412.215-.801-.331-.864 0 0-2.634-.305-3.684.115m-2.94-2.762C.67 4.806-1.02 8.902 2.697 13.527m1.38-9.446c-2.065 2.45-1.99 5.213 0 7.878m9.226 1.567c3.717-4.625 2.027-8.721-.019-11.053m-1.357 9.486c1.99-2.665 2.065-5.428 0-7.878"/></svg>